<?xml version="1.0" encoding="UTF-8"?>
<svg width="24px" height="24px" viewBox="0 0 24 24" version="1.1" xmlns="http://www.w3.org/2000/svg" xmlns:xlink="http://www.w3.org/1999/xlink">
    <title>1-back-g</title>
    <g id="Icons" stroke="none" stroke-width="1" fill="none" fill-rule="evenodd">
        <g id="Glyphs" transform="translate(-1446, -2)" fill="#000000" fill-rule="nonzero">
            <path d="M1459,3.17 C1465.07513,3.17 1470,8.09486775 1470,14.17 C1470,20.2451322 1465.07513,25.17 1459,25.17 C1458.63863,25.17 1458.27924,25.152541 1457.92269,25.1178443 C1457.373,25.0643533 1456.97075,24.5753799 1457.02424,24.0256916 C1457.07773,23.4760034 1457.56671,23.0737561 1458.1164,23.1272471 C1458.40859,23.1556814 1458.70334,23.17 1459,23.17 C1463.97056,23.17 1468,19.1405627 1468,14.17 C1468,9.19943725 1463.97056,5.17 1459,5.17 C1454.88407,5.17 1451.41346,7.93292626 1450.34167,11.7052678 L1451.29289,10.9628932 C1451.65338,10.6024093 1452.22061,10.5746797 1452.6129,10.8797046 L1452.70711,10.9628932 C1453.09763,11.3534175 1453.09763,11.9865825 1452.70711,12.3771068 L1449.70711,14.8771068 C1449.67171,14.9125008 1449.63433,14.944687 1449.59531,14.9736654 L1449.48406,15.0453288 L1449.37134,15.0987745 L1449.26599,15.1341549 L1449.11747,15.1631658 L1449,15.17 L1448.92476,15.1672121 L1448.79927,15.1497599 L1448.68786,15.1202619 L1448.57678,15.0763266 L1448.47929,15.0240045 L1448.38298,14.9570723 C1448.25101,14.8534607 1448.14556,14.717105 1448.07901,14.5602502 L1446.29289,11.8771068 C1445.90237,11.4865825 1445.90237,10.8534175 1446.29289,10.4628932 C1446.68342,10.0723689 1447.31658,10.0723689 1447.70711,10.4628932 L1448.31559,11.5432281 C1449.49332,6.73645316 1453.83016,3.17 1459,3.17 Z M1454.00034,21.654805 C1454.24514,21.8186857 1454.49781,21.9704673 1454.75747,22.1095381 C1455.01698,22.2485315 1455.28323,22.3747011 1455.55533,22.4875308 C1456.06549,22.6990764 1456.30757,23.2841373 1456.09602,23.7943009 C1455.88448,24.3044645 1455.29941,24.5465423 1454.78925,24.3349967 C1454.45631,24.1969389 1454.13059,24.0425868 1453.81318,23.872583 C1453.49574,23.7025586 1453.18689,23.5170364 1452.88774,23.3167683 C1452.4288,23.0095323 1452.30582,22.3884253 1452.61306,21.9294868 C1452.9203,21.4705483 1453.5414,21.3475691 1454.00034,21.654805 Z M1451.06046,18.4125309 C1451.19953,18.6721858 1451.35131,18.9248596 1451.5152,19.1696591 C1451.67913,19.4145415 1451.85502,19.6513074 1452.04215,19.8790757 C1452.39275,20.3058072 1452.33103,20.9359569 1451.9043,21.2865545 C1451.47756,21.6371521 1450.84741,21.5754333 1450.49682,21.1487018 C1450.2683,20.8705628 1450.05349,20.5813951 1449.85323,20.2822587 C1449.65296,19.9831051 1449.46744,19.6742626 1449.29742,19.3568152 C1449.03666,18.8699638 1449.21995,18.2639075 1449.7068,18.0031506 C1450.19365,17.7423937 1450.7997,17.9256795 1451.06046,18.4125309 Z M1460.5,11 L1460.5,17.5 C1460.5,18.0522847 1460.05228,18.5 1459.5,18.5 C1458.94772,18.5 1458.5,18.0522847 1458.5,17.5 L1458.5,13.079 L1457.62463,13.7805811 C1457.22652,14.0990185 1456.6597,14.0638913 1456.30352,13.7173812 L1456.21908,13.624291 C1455.87411,13.1930005 1455.94408,12.5637139 1456.37537,12.21874 L1458.87537,10.2190795 C1459.53015,9.69534706 1460.5,10.1615323 1460.5,11 Z" id="Shape"></path>
        </g>
    </g>
</svg>