<?xml version="1.0" encoding="UTF-8"?>
<svg width="24px" height="24px" viewBox="0 0 24 24" version="1.1" xmlns="http://www.w3.org/2000/svg" xmlns:xlink="http://www.w3.org/1999/xlink">
    <title>12-back-g</title>
    <g id="Icons" stroke="none" stroke-width="1" fill="none" fill-rule="evenodd">
        <g id="Glyphs" transform="translate(-1446, -28)" fill="#000000" fill-rule="nonzero">
            <path d="M1459,29.17 C1465.07513,29.17 1470,34.0948678 1470,40.17 C1470,46.2451322 1465.07513,51.17 1459,51.17 C1458.63863,51.17 1458.27924,51.152541 1457.92269,51.1178443 C1457.373,51.0643533 1456.97075,50.5753799 1457.02424,50.0256916 C1457.07773,49.4760034 1457.56671,49.0737561 1458.1164,49.1272471 C1458.40859,49.1556814 1458.70334,49.17 1459,49.17 C1463.97056,49.17 1468,45.1405627 1468,40.17 C1468,35.1994373 1463.97056,31.17 1459,31.17 C1454.88407,31.17 1451.41346,33.9329263 1450.34167,37.7052678 L1451.29289,36.9628932 C1451.65338,36.6024093 1452.22061,36.5746797 1452.6129,36.8797046 L1452.70711,36.9628932 C1453.09763,37.3534175 1453.09763,37.9865825 1452.70711,38.3771068 L1449.70711,40.8771068 C1449.67171,40.9125008 1449.63433,40.944687 1449.59531,40.9736654 L1449.48406,41.0453288 L1449.37134,41.0987745 L1449.26599,41.1341549 L1449.11747,41.1631658 L1449,41.17 L1448.92476,41.1672121 L1448.79927,41.1497599 L1448.68786,41.1202619 L1448.57678,41.0763266 L1448.47929,41.0240045 L1448.38298,40.9570723 C1448.25101,40.8534607 1448.14556,40.717105 1448.07901,40.5602502 L1446.29289,37.8771068 C1445.90237,37.4865825 1445.90237,36.8534175 1446.29289,36.4628932 C1446.68342,36.0723689 1447.31658,36.0723689 1447.70711,36.4628932 L1448.31559,37.5432281 C1449.49332,32.7364532 1453.83016,29.17 1459,29.17 Z M1454.00034,47.654805 C1454.24514,47.8186857 1454.49781,47.9704673 1454.75747,48.1095381 C1455.01698,48.2485315 1455.28323,48.3747011 1455.55533,48.4875308 C1456.06549,48.6990764 1456.30757,49.2841373 1456.09602,49.7943009 C1455.88448,50.3044645 1455.29941,50.5465423 1454.78925,50.3349967 C1454.45631,50.1969389 1454.13059,50.0425868 1453.81318,49.872583 C1453.49574,49.7025586 1453.18689,49.5170364 1452.88774,49.3167683 C1452.4288,49.0095323 1452.30582,48.3884253 1452.61306,47.9294868 C1452.9203,47.4705483 1453.5414,47.3475691 1454.00034,47.654805 Z M1451.06046,44.4125309 C1451.19953,44.6721858 1451.35131,44.9248596 1451.5152,45.1696591 C1451.67913,45.4145415 1451.85502,45.6513074 1452.04215,45.8790757 C1452.39275,46.3058072 1452.33103,46.9359569 1451.9043,47.2865545 C1451.47756,47.6371521 1450.84741,47.5754333 1450.49682,47.1487018 C1450.2683,46.8705628 1450.05349,46.5813951 1449.85323,46.2822587 C1449.65296,45.9831051 1449.46744,45.6742626 1449.29742,45.3568152 C1449.03666,44.8699638 1449.21995,44.2639075 1449.7068,44.0031506 C1450.19365,43.7423937 1450.7997,43.9256795 1451.06046,44.4125309 Z M1461.30566,36.1700001 C1462.79389,36.1706827 1464,37.3773246 1464,38.8667103 C1463.99922,39.5394859 1463.73197,40.1845877 1463.25591,40.661613 L1461.914,42.002 L1463,42.0025272 C1463.51284,42.0025272 1463.93551,42.3885674 1463.99327,42.885906 L1464,43.0025272 C1464,43.5548119 1463.55228,44.0025272 1463,44.0025272 L1459.5,44.0025272 C1458.60903,44.0025272 1458.16289,42.9252582 1458.79298,42.2953302 L1461.84107,39.2480268 C1461.94268,39.1462021 1461.99983,39.0082522 1462,38.8655556 C1462,38.4815451 1461.68877,38.170176 1461.3055,38.1700001 C1461.03928,38.1700794 1460.79962,38.3214515 1460.68301,38.5545916 L1460.64524,38.6457162 C1460.47026,39.1695491 1459.90376,39.452351 1459.37992,39.2773721 C1458.85609,39.1023932 1458.57329,38.5358943 1458.74827,38.0120615 C1459.11568,36.91214 1460.14523,36.1703462 1461.30566,36.1700001 Z M1456.49995,36.42 C1457.05223,36.42 1457.49995,36.8677153 1457.49995,37.42 L1457.49995,42.92 C1457.49995,43.4722847 1457.05223,43.92 1456.49995,43.92 C1455.94767,43.92 1455.49995,43.4722847 1455.49995,42.92 L1455.49995,37.42 C1455.49995,36.8677153 1455.94767,36.42 1456.49995,36.42 Z" id="Shape"></path>
        </g>
    </g>
</svg>