<svg xmlns="http://www.w3.org/2000/svg" width="24" height="24" viewBox="0 0 24 24">
  <path d="M3.10105328,10.7873931 C3.81275638,5.68073449 8.19734207,1.75 13.5,1.75 C19.2989899,1.75 24,6.45101013 24,12.25 C24,18.0489899 19.2989899,22.75 13.5,22.75 C13.1549479,22.75 12.811812,22.7333308 12.471413,22.700206 C12.0591469,22.6600877 11.7574614,22.2933577 11.7975797,21.8810915 C11.8376979,21.4688253 12.204428,21.1671399 12.6166942,21.2072581 C12.9088274,21.2356861 13.2034795,21.25 13.5,21.25 C18.4705627,21.25 22.5,17.2205627 22.5,12.25 C22.5,7.27943725 18.4705627,3.25 13.5,3.25 C9.12108019,3.25 5.4725766,6.37728354 4.66605894,10.5202809 L6.21966991,8.96666991 C6.51256313,8.6737767 6.98743687,8.6737767 7.28033009,8.96666991 C7.5732233,9.25956313 7.5732233,9.73443687 7.28033009,10.0273301 L4.28033009,13.0273301 C3.98743687,13.3202233 3.51256313,13.3202233 3.21966991,13.0273301 L0.219669914,10.0273301 C-0.0732233047,9.73443687 -0.0732233047,9.25956313 0.219669914,8.96666991 C0.512563133,8.6737767 0.987436867,8.6737767 1.28033009,8.96666991 L3.10105328,10.7873931 Z M4.23832414,17.2009128 C4.04275645,16.8357743 4.1802208,16.3812321 4.54535934,16.1856644 C4.91049788,15.9900967 5.36504009,16.1275611 5.56060777,16.4926996 C5.69968409,16.7523648 5.85146698,17.0050408 6.01534428,17.2498351 C6.17926823,17.494699 6.35513587,17.731441 6.54224499,17.9591817 C6.80519316,18.2792304 6.75890408,18.7518427 6.43885544,19.0147908 C6.1188068,19.277739 5.6461945,19.2314499 5.38324633,18.9114013 C5.16509925,18.6458825 4.96003594,18.3698392 4.76887181,18.0842848 C4.577704,17.7987249 4.40061563,17.5039224 4.23832414,17.2009128 Z M7.66571519,20.9811282 C7.32151132,20.7507012 7.2292769,20.2848709 7.45970384,19.9406671 C7.69013077,19.5964632 8.15596108,19.5042288 8.50016495,19.7346557 C8.74495924,19.898533 8.99763519,20.0503159 9.2573004,20.1893922 C9.51683662,20.3283995 9.78311651,20.4545854 10.0552587,20.5674325 C10.4378815,20.7260916 10.6194398,21.1648873 10.4607806,21.54751 C10.3021214,21.9301327 9.86332575,22.111691 9.48070304,21.9530319 C9.16293072,21.8212637 8.85204735,21.6739409 8.54908716,21.5116759 C8.2460776,21.3493844 7.95127513,21.172296 7.66571519,20.9811282 Z M17.0791513,12.3148138 L15.3109869,14.0825272 L17,14.0825272 C17.4142136,14.0825272 17.75,14.4183136 17.75,14.8325272 C17.75,15.2467407 17.4142136,15.5825272 17,15.5825272 L13.5,15.5825272 C12.8317752,15.5825272 12.497171,14.7745754 12.9697376,14.3021294 L16.0180212,11.2546241 C16.1663413,11.1060029 16.2497455,10.9046746 16.2499743,10.6955556 C16.2499743,10.1735091 15.8268988,9.75023937 15.3054205,9.74999997 C14.8984069,9.75012146 14.537066,10.0104686 14.4081146,10.3965094 C14.2768804,10.789384 13.8520062,11.0014855 13.4591316,10.8702513 C13.066257,10.7390171 12.8541555,10.314143 12.9853897,9.92126834 C13.318737,8.92332976 14.2528285,8.2503141 15.3055406,8.25000008 C16.6557452,8.25061938 17.7499743,9.34535075 17.7499738,10.6963744 C17.7493115,11.3030472 17.5083191,11.8847753 17.0791513,12.3148138 Z M9.75,9.25 C9.75,8.83578644 10.0857864,8.5 10.5,8.5 C10.9142136,8.5 11.25,8.83578644 11.25,9.25 L11.25,14.75 C11.25,15.1642136 10.9142136,15.5 10.5,15.5 C10.0857864,15.5 9.75,15.1642136 9.75,14.75 L9.75,9.25 Z"/>
</svg>
