<svg xmlns="http://www.w3.org/2000/svg" width="25" height="24" viewBox="0 0 25 24">
  <path d="M9.31861279,11.2924218 L9.31861281,11.2924218 C8.92649081,11.6813418 8.92389481,12.3145018 9.31281444,12.7066218 C9.31473928,12.7085625 9.31667207,12.7104953 9.31861276,12.7124201 L9.31861274,12.7124201 C9.70864974,13.1001441 10.3385727,13.1001441 10.7286127,12.7124201 L10.7286128,12.7124201 C11.1207348,12.3235001 11.1233308,11.6903401 10.734411,11.2982201 C10.7324862,11.2962794 10.7305534,11.2943466 10.7286127,11.2924218 L10.7286128,11.2924218 C10.3385758,10.9046978 9.70865277,10.9046978 9.31861277,11.2924217 L9.31861279,11.2924218 Z M11.7886128,13.7724218 L11.7886128,13.7724218 C11.4008888,14.1624588 11.4008888,14.7923818 11.7886128,15.1824218 L11.7886127,15.1824218 C12.1775327,15.5745438 12.8106927,15.5771398 13.2028127,15.1882202 C13.2047534,15.1862953 13.2066862,15.1843625 13.2086111,15.1824218 L13.2086111,15.1824218 C13.5963351,14.7923848 13.5963351,14.1624618 13.2086111,13.7724218 L13.208611,13.7724218 C12.819691,13.3802998 12.186531,13.3777038 11.794411,13.7666236 C11.7924704,13.7685484 11.7905376,13.7704812 11.7886128,13.7724218 L11.7886128,13.7724218 Z M20.7886128,3.77242181 L20.7886129,3.77242192 C18.5287729,1.49392192 14.8761229,1.39699192 12.4986129,3.55242192 L12.4986129,3.55242194 C10.1335029,1.42343194 6.51765292,1.51120194 4.25861292,3.75242194 L4.25861292,3.75242194 L4.25861294,3.75242192 C2.01401294,6.01542192 1.93056294,9.63849192 4.06861294,12.0024219 L4.06861302,12.0024218 C1.85939302,14.4722418 2.07065302,18.2653518 4.54047002,20.4745718 C5.62975002,21.4489138 7.03719002,21.9921918 8.49861002,22.0024218 L8.49861021,22.0024218 C9.97883021,22.0040005 11.4059402,21.4509948 12.4986102,20.4524218 L12.4986106,20.4524222 C14.8651606,22.5877522 18.4883106,22.4999122 20.7486106,20.2524212 L20.7486108,20.252421 C22.9903308,17.986731 23.0693808,14.363721 20.9286108,12.002421 L20.928611,12.0024208 C23.069381,9.64112075 22.990331,6.01811075 20.748611,3.75242075 L20.7886128,3.77242181 Z M19.3286128,5.17242181 L19.3286128,5.17242186 C20.7699128,6.65508186 20.8436128,8.99188186 19.4986128,10.5624219 L13.9386128,5.00242186 L13.938613,5.00242171 C15.520443,3.68992171 17.832633,3.76284171 19.328613,5.17242171 L19.3286128,5.17242181 Z M5.66861279,18.8324218 L5.66861267,18.8324217 C4.22731267,17.3497617 4.15361267,15.0129617 5.49861267,13.4424217 L11.0986127,19.0424217 L11.0986128,19.0424216 C9.49852277,20.3633016 7.16191277,20.2729316 5.66861277,18.8324216 L5.66861279,18.8324218 Z M19.3286128,18.8324218 L19.328613,18.8324216 C17.751253,20.3410116 15.265973,20.3410116 13.688613,18.832422 L5.68861302,10.832422 L5.68861309,10.8324221 C4.13772309,9.27227212 4.13772309,6.75257212 5.68861295,5.19242212 L5.68861295,5.19242212 L5.68861285,5.19242222 C7.24876285,3.64153222 9.76846285,3.64153222 11.3286128,5.19242201 L19.3286128,13.192422 L19.3286129,13.1924221 C20.8795029,14.7525721 20.8795029,17.2722721 19.3286127,18.8324221 L19.3286128,18.8324218 Z M14.2686128,11.2924218 L14.2686128,11.2924218 C13.8764908,11.6813418 13.8738948,12.3145018 14.2628144,12.7066218 C14.2647393,12.7085625 14.2666721,12.7104953 14.2686128,12.7124201 L14.2686127,12.7124201 C14.6586497,13.1001441 15.2885727,13.1001441 15.6786127,12.7124201 L15.6786128,12.7124201 C16.0707348,12.3235001 16.0733308,11.6903401 15.684411,11.2982201 C15.6824862,11.2962794 15.6805534,11.2943466 15.6786127,11.2924218 L15.6786128,11.2924218 C15.2885758,10.9046978 14.6586528,10.9046978 14.2686128,11.2924217 L14.2686128,11.2924218 Z M11.7886128,8.82242181 L11.7886128,8.82242179 C11.4008888,9.21245879 11.4008888,9.84238179 11.7886128,10.2324218 L11.7886127,10.2324218 C12.1775327,10.6245438 12.8106927,10.6271398 13.2028127,10.2382202 C13.2047534,10.2362953 13.2066862,10.2343625 13.2086111,10.2324218 L13.2086111,10.2324218 C13.5963351,9.84238483 13.5963351,9.21246183 13.2086111,8.82242183 L13.208611,8.82242182 C12.819691,8.43029982 12.186531,8.42770382 11.794411,8.81662356 C11.7924704,8.81854838 11.7905376,8.82048116 11.7886128,8.82242183 L11.7886128,8.82242181 Z"/>
</svg>
