<?xml version="1.0" encoding="UTF-8"?>
<svg width="24px" height="24px" viewBox="0 0 24 24" version="1.1" xmlns="http://www.w3.org/2000/svg" xmlns:xlink="http://www.w3.org/1999/xlink">
    <!-- Generator: Sketch 54.1 (76490) - https://sketchapp.com -->
    <title>bell copy 59</title>
    <desc>Created with Sketch.</desc>
    <g id="Icons" stroke="none" stroke-width="1" fill="none" fill-rule="evenodd">
        <path d="M6.58753593,11.7556088 L11.7555984,6.58754626 L8.23867363,3.07034519 C6.81152842,1.64320024 4.49757953,1.64320491 3.07039224,3.07039223 C1.6432026,4.49758186 1.64320259,6.81153077 3.07036444,8.23869265 L6.58753593,11.7556088 L6.58753593,11.7556088 Z M12.2445956,17.4122576 L15.7357206,20.9031292 C15.7620203,20.9297905 15.7620203,20.9297905 15.7886805,20.9560888 C17.230247,22.3684001 19.5437726,22.3446828 20.9560888,20.903115 C22.3684001,19.4615485 22.3446828,17.1480228 20.8958019,15.7284677 L17.4122305,12.2446227 L12.2445956,17.4122576 Z M9.6529149,1.65615934 L22.3027588,14.3070718 C24.5333387,16.49239 24.5700372,20.0721776 22.3847236,22.3027587 C20.1994054,24.5333387 16.6196178,24.5700372 14.3890374,22.3847242 C14.3477856,22.3440325 14.3477856,22.3440325 14.3143286,22.3100901 L1.65617863,9.65293396 C-0.552059559,7.44469573 -0.552059544,3.86441688 1.65617867,1.65617867 C3.86441323,-0.552055934 7.444692,-0.552063169 9.6529149,1.65615934 Z M3.65783292,15.2074202 L3.09867292,15.7660846 C1.65705436,17.1771621 1.6334608,19.4763947 3.03863979,20.9092974 C4.44435151,22.3427396 6.74746878,22.3663274 8.18230803,20.9619631 C8.28342727,20.8610275 8.28342727,20.8610275 8.79327181,20.3517726 C9.18400496,19.9614573 9.81716984,19.961796 10.2074852,20.3525291 C10.5978005,20.7432623 10.5974618,21.3764272 10.2067286,21.7667425 C9.69900562,22.2739025 9.69900562,22.2739025 9.58126164,22.3912736 C7.35758048,24.5677256 3.78925331,24.5311799 1.61068057,22.3096304 C-0.568415422,20.0875416 -0.531817324,16.5209943 1.69240209,14.3440099 L2.2442465,13.7925798 C2.6349439,13.4022287 3.26810881,13.4025094 3.65845992,13.7932068 C4.04881103,14.1839042 4.04853031,14.8170691 3.65783292,15.2074202 Z M20.3615532,8.79350543 L20.9349175,8.21914786 C22.3550368,6.79645667 22.3550368,4.48900804 20.9348897,3.06628907 C19.515741,1.6445703 17.21558,1.64457031 15.7964314,3.0662891 L15.2077739,3.65605894 C14.8176185,4.04695169 14.1844538,4.04754936 13.793561,3.65739388 C13.4026683,3.26723839 13.4020706,2.6340737 13.7922261,2.24318095 L14.3809113,1.65338333 C16.5814278,-0.551118506 20.1498932,-0.55111852 22.3503821,1.65335552 C24.5498726,3.85682933 24.5498726,7.42863535 22.3503821,9.6321092 L21.7769901,10.2064946 C21.3868039,10.5973567 20.7536392,10.5979046 20.3627771,10.2077185 C19.9719149,9.81753229 19.971367,9.18436755 20.3615532,8.79350543 Z M11.2928932,10.5857854 C11.6834175,10.9763097 12.3165825,10.9763097 12.7071068,10.5857854 C13.0976311,10.1952611 13.0976311,9.56209611 12.7071068,9.17157182 C12.3165825,8.78104753 11.6834175,8.78104753 11.2928932,9.17157182 C10.9023689,9.56209611 10.9023689,10.1952611 11.2928932,10.5857854 Z M9.17157288,12.7071057 C9.56209717,13.09763 10.1952621,13.09763 10.5857864,12.7071057 C10.9763107,12.3165814 10.9763107,11.6834165 10.5857864,11.2928922 C10.1952621,10.9023679 9.56209717,10.9023679 9.17157288,11.2928922 C8.78104858,11.6834165 8.78104858,12.3165814 9.17157288,12.7071057 Z M11.2952332,14.8307661 C11.6857575,15.2212903 12.3189225,15.2212903 12.7094468,14.8307661 C13.0999711,14.4402418 13.0999711,13.8070768 12.7094468,13.4165525 C12.3189225,13.0260282 11.6857575,13.0260282 11.2952332,13.4165525 C10.9047089,13.8070768 10.9047089,14.4402418 11.2952332,14.8307661 Z M13.4165535,12.7094457 C13.8070778,13.09997 14.4402428,13.09997 14.8307671,12.7094457 C15.2212914,12.3189214 15.2212914,11.6857564 14.8307671,11.2952321 C14.4402428,10.9047079 13.8070778,10.9047079 13.4165535,11.2952321 C13.0260293,11.6857564 13.0260293,12.3189214 13.4165535,12.7094457 Z" id="Shape" fill="#000000" fill-rule="nonzero"></path>
    </g>
</svg>