<svg xmlns="http://www.w3.org/2000/svg" width="24" height="24" viewBox="0 0 24 24">
  <path fill-rule="evenodd" d="M6.10729325,10.5 C5.5550085,10.5 5.10729325,10.0522847 5.10729325,9.5 C5.10729325,8.94771525 5.5550085,8.5 6.10729325,8.5 C6.659578,8.5 7.10729325,8.94771525 7.10729325,9.5 C7.10729325,10.0522847 6.659578,10.5 6.10729325,10.5 Z M18.1072932,15.5 C17.5550085,15.5 17.1072932,15.0522847 17.1072932,14.5 C17.1072932,13.9477153 17.5550085,13.5 18.1072932,13.5 C18.659578,13.5 19.1072932,13.9477153 19.1072932,14.5 C19.1072932,15.0522847 18.659578,15.5 18.1072932,15.5 Z M9.60729325,7 C9.0550085,7 8.60729325,6.55228475 8.60729325,6 C8.60729325,5.44771525 9.0550085,5 9.60729325,5 C10.159578,5 10.6072932,5.44771525 10.6072932,6 C10.6072932,6.55228475 10.159578,7 9.60729325,7 Z M14.6072932,19 C14.0550085,19 13.6072932,18.5522847 13.6072932,18 C13.6072932,17.4477153 14.0550085,17 14.6072932,17 C15.159578,17 15.6072932,17.4477153 15.6072932,18 C15.6072932,18.5522847 15.159578,19 14.6072932,19 Z M11.9897786,2.43278238 C14.5020588,-0.0794978273 18.8990987,-0.0015058536 21.3333869,2.43278238 C23.7676751,4.86707062 23.8456671,9.2641105 21.3333869,11.7763907 L21.7695093,12.2235677 C24.3629456,14.817004 24.3629456,19.0217951 21.7695093,21.6152314 L21.6152314,21.7695093 C19.0217951,24.3629456 14.817004,24.3629456 12.2235677,21.7695093 L11.7790154,21.324957 C9.24378803,23.679113 4.97856428,23.5546192 2.59505721,21.1711121 C0.211549633,18.7876045 0.087056286,14.5223795 2.4412138,11.9871522 C-0.14835844,9.39340487 -0.147070626,5.19150295 2.44507724,2.59935508 L2.59935508,2.44507724 C5.19045455,-0.146022224 9.39000619,-0.148356974 11.9840043,2.43807299 L11.9897786,2.43278238 Z M13.0446448,3.49870328 L20.2672765,10.721335 L20.2727267,10.7157305 C22.1906352,8.79782209 22.1294834,5.3501992 20.2727267,3.49344256 C18.4159701,1.63668591 14.9683472,1.57553411 13.0504388,3.49344256 C13.048507,3.49520491 13.0465757,3.49695849 13.0446448,3.49870328 Z M3.50286894,13.0488105 C1.7424939,14.9933688 1.84971616,18.3044507 3.65571738,20.1104519 C5.4617186,21.9164531 8.77280045,22.0236754 10.7173588,20.2633004 L3.50286894,13.0488105 Z M3.50573741,3.66001525 C1.49808753,5.66766514 1.49808753,8.92270873 3.50573741,10.9303586 L13.2842279,20.7088491 C15.2918778,22.716499 18.5469214,22.716499 20.5545712,20.7088491 L20.7088491,20.5545712 C22.716499,18.5469214 22.716499,15.2918778 20.7088491,13.2842279 L10.9303586,3.50573741 C8.92270873,1.49808753 5.66766514,1.49808753 3.66001525,3.50573741 L3.50573741,3.66001525 Z M12,16 C9.790861,16 8,14.209139 8,12 C8,9.790861 9.790861,8 12,8 C14.209139,8 16,9.790861 16,12 C16,14.209139 14.209139,16 12,16 Z M10.6666667,14.1955556 L11.5315556,14.1955556 L11.5315556,12.6835556 L12.216,12.6835556 C13.1866667,12.6835556 13.84,12.2168889 13.84,11.2462222 C13.84,10.4 13.3733333,9.77777778 12.3031111,9.77777778 L10.6666667,9.77777778 L10.6666667,14.1955556 Z M11.5315556,11.912 L11.5315556,10.5555556 L12.1662222,10.5555556 C12.6702222,10.5555556 12.9315556,10.8231111 12.9315556,11.2337778 C12.9315556,11.6382222 12.6702222,11.912 12.1226667,11.912 L11.5315556,11.912 Z"/>
</svg>
