<svg xmlns="http://www.w3.org/2000/svg" width="24" height="24" viewBox="0 0 24 24">
  <g fill="none" fill-rule="evenodd">
    <path fill="#000" fill-rule="nonzero" d="M21.4601636,2.20600569 C23.9352095,4.68105159 24.0667835,9.09299464 21.6280904,11.7285955 L21.896286,11.996791 C24.5873533,14.6878584 24.5873533,19.0509407 21.896286,21.7420081 L21.7420081,21.896286 C19.0509407,24.5873533 14.6878584,24.5873533 11.996791,21.896286 L11.7193118,21.6188067 C9.06738032,23.8978064 4.790376,23.7199843 2.36828051,21.2978888 C-0.0547809397,18.8748273 -0.231778572,14.5953772 2.05009041,11.9436854 C-0.471547218,9.24171604 -0.415477173,5.0063561 2.21830054,2.37257839 L2.37257839,2.21830054 C5.00326712,-0.412388191 9.2317835,-0.471412151 11.9341722,2.04122867 C14.569377,-0.400727023 18.9840526,-0.270105316 21.4601636,2.20600569 Z M13.3533989,3.45390397 L20.2122653,10.3127704 C21.8594311,8.46437176 21.7509899,5.32525906 20.04595,3.62021925 C18.3409102,1.91517944 15.2017975,1.8067382 13.3533989,3.45390397 Z M3.46765878,13.3671537 C1.97729744,15.233293 2.13045469,18.2316358 3.78249408,19.8836752 C5.43453346,21.5357146 8.43287634,21.6888719 10.2990156,20.1985105 L3.46765878,13.3671537 Z M3.63251411,3.78679195 C1.7224953,5.69681076 1.7224953,8.79356311 3.63251411,10.7035819 L13.4110046,20.4820724 C15.3210234,22.3920912 18.4177757,22.3920912 20.3277945,20.4820724 L20.4820724,20.3277945 C22.3920912,18.4177757 22.3920912,15.3210234 20.4820724,13.4110046 L10.7035819,3.63251411 C8.79356311,1.7224953 5.69681076,1.7224953 3.78679195,3.63251411 L3.63251411,3.78679195 Z M12,16 C9.790861,16 8,14.209139 8,12 C8,9.790861 9.790861,8 12,8 C14.209139,8 16,9.790861 16,12 C16,14.209139 14.209139,16 12,16 Z M10.6,14.2120459 L11.6129063,14.2120459 L11.6129063,12.7890057 L12.1970363,12.7890057 C13.1975143,12.7890057 13.85,12.3043021 13.85,11.3224665 C13.85,10.4400574 13.3652964,9.8 12.2778203,9.8 L10.6,9.8 L10.6,14.2120459 Z M11.6129063,11.88174 L11.6129063,10.7134799 L12.0976099,10.7134799 C12.5636711,10.7134799 12.7749522,10.9620459 12.7749522,11.2976099 C12.7749522,11.6642447 12.5388145,11.88174 12.0789675,11.88174 L11.6129063,11.88174 Z"/>
    <path fill="#000" fill-rule="nonzero" d="M7 8.25C6.30964406 8.25 5.75 7.69035594 5.75 7 5.75 6.30964406 6.30964406 5.75 7 5.75 7.69035594 5.75 8.25 6.30964406 8.25 7 8.25 7.69035594 7.69035594 8.25 7 8.25zM17 18.25C16.3096441 18.25 15.75 17.6903559 15.75 17 15.75 16.3096441 16.3096441 15.75 17 15.75 17.6903559 15.75 18.25 16.3096441 18.25 17 18.25 17.6903559 17.6903559 18.25 17 18.25z"/>
  </g>
</svg>
