<?xml version="1.0" encoding="UTF-8"?>
<svg width="24px" height="24px" viewBox="0 0 24 24" version="1.1" xmlns="http://www.w3.org/2000/svg" xmlns:xlink="http://www.w3.org/1999/xlink">
    <title>accident-g</title>
    <g id="Icons" stroke="none" stroke-width="1" fill="none" fill-rule="evenodd">
        <g transform="translate(-1946, -74)" fill="#000000" fill-rule="nonzero" id="Shape">
            <path d="M1968.51997,87.4630695 C1970.49335,89.4364531 1970.49335,92.6359027 1968.51999,94.609093 L1966.60932,96.5198949 C1964.63595,98.4931032 1961.43654,98.4931032 1959.46331,96.5198647 C1959.07278,96.1293404 1959.07278,95.4961754 1959.46331,95.1056511 C1959.85383,94.7151268 1960.487,94.7151268 1960.87752,95.1056511 C1962.06972,96.2978511 1964.00284,96.2978511 1965.19512,95.1056761 L1967.10578,93.1948742 C1968.29808,92.0026811 1968.29808,90.069608 1967.10575,88.877283 C1966.71523,88.4867587 1966.71523,87.8535938 1967.10575,87.4630695 C1967.49628,87.0725452 1968.12944,87.0725452 1968.51997,87.4630695 Z M1966.6092,75.4799912 L1968.51999,77.39066 C1970.4932,79.3639938 1970.4932,82.5633898 1968.51997,84.5367279 L1956.53683,96.5198647 C1954.56345,98.4932448 1951.36403,98.4932448 1949.3907,96.5198697 L1947.48005,94.609244 C1945.50673,92.6358675 1945.50673,89.4364551 1947.48008,87.4630534 L1959.46318,75.4800077 C1961.43656,73.5066591 1964.636,73.5066591 1966.6092,75.4799912 Z M1950.272,87.499 L1948.89428,88.877274 C1947.70198,90.0696061 1947.70198,92.0027164 1948.89427,93.1950345 L1950.80492,95.1056602 C1951.99721,96.2979797 1953.93029,96.2979797 1955.12259,95.1056741 L1956.5,93.727 L1950.272,87.499 Z M1958.085,79.685 L1951.686,86.085 L1957.914,92.313 L1964.314,85.914 L1958.085,79.685 Z M1958,87.25 C1958.69036,87.25 1959.25,87.8096441 1959.25,88.5 C1959.25,89.1903559 1958.69036,89.75 1958,89.75 C1957.30964,89.75 1956.75,89.1903559 1956.75,88.5 C1956.75,87.8096441 1957.30964,87.25 1958,87.25 Z M1956.55857,75.5016825 C1956.9491,75.8921984 1956.94911,76.5253634 1956.5586,76.915896 C1956.16808,77.3064287 1955.53491,77.3064422 1955.14438,76.9159262 C1953.94625,75.7178431 1951.99147,75.7076739 1950.80493,76.8942138 L1948.89417,78.804974 C1947.70195,79.9971955 1947.70195,81.9301679 1948.89416,83.1223762 C1949.28469,83.5128988 1949.28469,84.1460638 1948.89417,84.5365898 C1948.50365,84.9271157 1947.87048,84.9271184 1947.47996,84.5365958 C1945.50668,82.5633386 1945.50668,79.3640315 1947.47995,77.3907605 L1949.39071,75.4800002 C1951.36161,73.5091041 1954.58266,73.5258606 1956.55857,75.5016825 Z M1958,82.25 C1958.69036,82.25 1959.25,82.8096441 1959.25,83.5 C1959.25,84.1903559 1958.69036,84.75 1958,84.75 C1957.30964,84.75 1956.75,84.1903559 1956.75,83.5 C1956.75,82.8096441 1957.30964,82.25 1958,82.25 Z M1960.87739,76.8942181 L1959.499,78.271 L1965.728,84.4999981 L1967.10573,83.1225324 C1968.2521,81.9761087 1968.29619,80.1447313 1967.23804,78.9456459 L1967.10577,78.8048749 L1965.19498,76.8942031 C1964.00279,75.7019273 1962.0697,75.7019273 1960.87739,76.8942181 Z"></path>
        </g>
    </g>
</svg>