<?xml version="1.0" encoding="UTF-8"?>
<svg width="24px" height="24px" viewBox="0 0 24 24" version="1.1" xmlns="http://www.w3.org/2000/svg" xmlns:xlink="http://www.w3.org/1999/xlink">
    <title>accident</title>
    <g id="Icons" stroke="none" stroke-width="1" fill="none" fill-rule="evenodd">
        <g id="Glyphs" transform="translate(-1553, -58)" fill="#000000">
            <path d="M1575.34319,71.6398462 C1577.21894,73.5155975 1577.21894,76.55675 1575.34321,78.4323225 L1573.43256,80.3431106 C1571.55681,82.2186967 1568.51569,82.2186967 1566.64008,80.343088 C1566.34719,80.0501948 1566.34719,79.5753211 1566.64008,79.2824278 C1566.93298,78.9895346 1567.40785,78.9895346 1567.70074,79.2824278 C1568.99057,80.5722576 1571.08198,80.5722576 1572.3719,79.2824466 L1574.28255,77.3716585 C1575.57249,76.0818338 1575.57249,73.9904637 1574.28253,72.7005063 C1573.98964,72.4076131 1573.98964,71.9327394 1574.28253,71.6398462 C1574.57542,71.3469529 1575.0503,71.3469529 1575.34319,71.6398462 Z M1573.43243,59.6567735 L1575.34321,61.5674314 C1577.2188,63.4431352 1577.2188,66.4842476 1575.34319,68.3599512 L1563.36005,80.343088 C1561.4843,82.2188367 1558.44318,82.2188367 1556.56748,80.3430918 L1554.65683,78.4324696 C1552.78113,76.5567236 1552.78113,73.515599 1554.65685,71.6398341 L1566.63995,59.6567859 C1568.5157,57.7810676 1571.55685,57.7810676 1573.43243,59.6567735 Z M1557.272,71.146 L1555.7175,72.7004995 C1554.42758,73.9904622 1554.42758,76.0818603 1555.71749,77.3718124 L1557.62814,79.2824346 C1558.91806,80.5723878 1561.00943,80.5723878 1562.29938,79.282445 L1563.854,77.728 L1557.272,71.146 Z M1565.085,63.332 L1558.332,70.085 L1564.914,76.667 L1571.667,69.914 L1565.085,63.332 Z M1565,71.5 C1565.55228,71.5 1566,71.9477153 1566,72.5 C1566,73.0522847 1565.55228,73.5 1565,73.5 C1564.44772,73.5 1564,73.0522847 1564,72.5 C1564,71.9477153 1564.44772,71.5 1565,71.5 Z M1562.5,69 C1563.05228,69 1563.5,69.4477153 1563.5,70 C1563.5,70.5522847 1563.05228,71 1562.5,71 C1561.94772,71 1561.5,70.5522847 1561.5,70 C1561.5,69.4477153 1561.94772,69 1562.5,69 Z M1567.5,69 C1568.05228,69 1568.5,69.4477153 1568.5,70 C1568.5,70.5522847 1568.05228,71 1567.5,71 C1566.94772,71 1566.5,70.5522847 1566.5,70 C1566.5,69.4477153 1566.94772,69 1567.5,69 Z M1567.70061,60.7174437 L1566.146,62.272 L1572.728,68.854 L1574.28252,67.2993046 C1575.52459,66.0571685 1575.57059,64.0718035 1574.42055,62.7746308 L1574.28255,62.6280926 L1572.37176,60.7174325 C1571.08194,59.4275187 1568.99056,59.4275187 1567.70061,60.7174437 Z M1563.38179,59.6784629 C1563.67469,59.9713499 1563.6747,60.4462236 1563.38182,60.7391231 C1563.08893,61.0320226 1562.61405,61.0320327 1562.32116,60.7391458 C1561.0258,59.4438453 1558.91273,59.4328527 1557.62815,60.7174371 L1555.71739,62.6281973 C1554.42754,63.91805 1554.42754,66.0093143 1555.71739,67.2991536 C1556.01028,67.5920456 1556.01028,68.0669194 1555.71739,68.3598138 C1555.4245,68.6527083 1554.94963,68.6527103 1554.65673,68.3598183 C1552.78109,66.4841922 1552.78109,63.443177 1554.65673,61.5675371 L1556.56749,59.6567769 C1558.44034,57.7839253 1561.50311,57.7998584 1563.38179,59.6784629 Z M1565,66.5 C1565.55228,66.5 1566,66.9477153 1566,67.5 C1566,68.0522847 1565.55228,68.5 1565,68.5 C1564.44772,68.5 1564,68.0522847 1564,67.5 C1564,66.9477153 1564.44772,66.5 1565,66.5 Z" id="Shape"></path>
        </g>
    </g>
</svg>