<?xml version="1.0" encoding="UTF-8"?>
<svg width="24px" height="24px" viewBox="0 0 24 24" version="1.1" xmlns="http://www.w3.org/2000/svg" xmlns:xlink="http://www.w3.org/1999/xlink">
    <title>accident-g</title>
    <g id="Icons" stroke="none" stroke-width="1" fill="none" fill-rule="evenodd">
        <g id="Glyphs" transform="translate(-1946.000000, -74.000000)" fill="#000000" fill-rule="nonzero">
            <path d="M1957.8754,75.8633885 L1958,75.987 L1958.1246,75.8633885 C1960.79591,73.3796439 1964.94072,73.3788707 1967.61294,75.8610689 L1967.80127,76.0425915 L1967.95741,76.1987261 C1970.5609,78.8022145 1970.67558,82.9520486 1968.30146,85.6917686 L1968.12764,85.8850248 L1968.014,85.998 L1968.13888,86.1270421 C1970.67946,88.8620597 1970.61897,93.1397152 1967.95741,95.8012739 L1967.80127,95.9574085 C1965.0978,98.6608866 1960.72691,98.6807173 1957.99897,96.0169006 L1958.06123,95.9574085 C1955.39967,98.6189671 1951.12202,98.6794571 1948.387,96.1388784 L1948.19873,95.9574085 L1948.04259,95.8012739 C1945.33879,93.0974683 1945.31928,88.7258539 1947.98407,85.9979818 L1947.87236,85.8850248 C1945.32037,83.1505363 1945.37712,78.8642023 1948.04259,76.1987261 L1948.19873,76.0425915 C1950.86108,73.3802415 1955.14048,73.3205072 1957.8754,75.8633885 Z M1949.62996,77.4738256 L1949.47383,77.6299603 C1947.54082,79.5629668 1947.54082,82.6969897 1949.47383,84.6299963 L1959.37,94.5261744 C1961.30301,96.4591809 1964.43703,96.4591809 1966.37004,94.5261744 L1966.52617,94.3700397 C1968.45918,92.4370332 1968.45918,89.3030103 1966.52617,87.3700037 L1956.63,77.4738256 C1954.69699,75.5408191 1951.56297,75.5408191 1949.62996,77.4738256 Z M1956.567,94.585 L1949.416,87.43 L1949.47383,87.3700037 C1947.5994,89.2444343 1947.54259,92.2481952 1949.30342,94.1910701 L1949.47383,94.3700397 L1949.62996,94.5261744 C1951.50439,96.400605 1954.50815,96.4574059 1956.45103,94.6965771 L1956.567,94.585 Z M1958,87.75 C1958.69036,87.75 1959.25,88.3096441 1959.25,89 C1959.25,89.6903559 1958.69036,90.25 1958,90.25 C1957.30964,90.25 1956.75,89.6903559 1956.75,89 C1956.75,88.3096441 1957.30964,87.75 1958,87.75 Z M1961,84.75 C1961.69036,84.75 1962.25,85.3096441 1962.25,86 C1962.25,86.6903559 1961.69036,87.25 1961,87.25 C1960.30964,87.25 1959.75,86.6903559 1959.75,86 C1959.75,85.3096441 1960.30964,84.75 1961,84.75 Z M1955,84.75 C1955.69036,84.75 1956.25,85.3096441 1956.25,86 C1956.25,86.6903559 1955.69036,87.25 1955,87.25 C1954.30964,87.25 1953.75,86.6903559 1953.75,86 C1953.75,85.3096441 1954.30964,84.75 1955,84.75 Z M1959.54897,77.3034229 L1959.429,77.416 L1966.585,84.567 L1966.69658,84.4510267 C1968.40238,82.5688666 1968.40238,79.6910899 1966.69658,77.8089299 L1966.52617,77.6299603 L1966.37004,77.4738256 C1964.49561,75.599395 1961.49185,75.5425941 1959.54897,77.3034229 Z M1958,81.75 C1958.69036,81.75 1959.25,82.3096441 1959.25,83 C1959.25,83.6903559 1958.69036,84.25 1958,84.25 C1957.30964,84.25 1956.75,83.6903559 1956.75,83 C1956.75,82.3096441 1957.30964,81.75 1958,81.75 Z" id="Shape"></path>
        </g>
    </g>
</svg>