<svg xmlns="http://www.w3.org/2000/svg" width="25" height="24" viewBox="0 0 25 24">
  <path d="M21.9028704,2.20405845 C24.3779163,4.67910435 24.5094903,9.09104741 22.0707972,11.7266483 L22.3389927,11.9948438 C25.0300601,14.6859112 25.0300601,19.0489935 22.3389927,21.7400609 L22.1847149,21.8943387 C19.4936475,24.5854061 15.1305652,24.5854061 12.4394978,21.8943387 L12.1620186,21.6168595 C9.51008707,23.8958592 5.23308275,23.718037 2.81098727,21.2959415 C0.387925813,18.8728801 0.21092818,14.59343 2.49279716,11.9417381 C-0.0288404657,9.2397688 0.0272295792,5.00440887 2.6610073,2.37063115 L2.81528514,2.21635331 C5.44597387,-0.414335426 9.67449025,-0.473359386 12.3768789,2.03928143 C15.0120838,-0.402674258 19.4267594,-0.272052551 21.9028704,2.20405845 Z M13.7961057,3.45195674 L20.6549721,10.3108231 C22.3021378,8.46242452 22.1936966,5.32331183 20.4886568,3.61827202 C18.783617,1.91323221 15.6445043,1.80479097 13.7961057,3.45195674 Z M3.91036554,13.3652065 C2.42000419,15.2313457 2.57316144,18.2296886 4.22520083,19.881728 C5.87724021,21.5337674 8.87558309,21.6869246 10.7417223,20.1965633 L3.91036554,13.3652065 Z M4.07522086,3.78484471 C2.16520205,5.69486352 2.16520205,8.79161587 4.07522086,10.7016347 L13.8537113,20.4801252 C15.7637301,22.390144 18.8604825,22.390144 20.7705013,20.4801252 L20.9247791,20.3258473 C22.8347979,18.4158285 22.8347979,15.3190762 20.9247791,13.4090573 L11.1462887,3.63056687 C9.23626986,1.72054806 6.13951751,1.72054806 4.2294987,3.63056687 L4.07522086,3.78484471 Z M15.5,13.25 C14.8096441,13.25 14.25,12.6903559 14.25,12 C14.25,11.3096441 14.8096441,10.75 15.5,10.75 C16.1903559,10.75 16.75,11.3096441 16.75,12 C16.75,12.6903559 16.1903559,13.25 15.5,13.25 Z M12.5,16.25 C11.8096441,16.25 11.25,15.6903559 11.25,15 C11.25,14.3096441 11.8096441,13.75 12.5,13.75 C13.1903559,13.75 13.75,14.3096441 13.75,15 C13.75,15.6903559 13.1903559,16.25 12.5,16.25 Z M9.5,13.25 C8.80964406,13.25 8.25,12.6903559 8.25,12 C8.25,11.3096441 8.80964406,10.75 9.5,10.75 C10.1903559,10.75 10.75,11.3096441 10.75,12 C10.75,12.6903559 10.1903559,13.25 9.5,13.25 Z M12.5,10.25 C11.8096441,10.25 11.25,9.69035594 11.25,9 C11.25,8.30964406 11.8096441,7.75 12.5,7.75 C13.1903559,7.75 13.75,8.30964406 13.75,9 C13.75,9.69035594 13.1903559,10.25 12.5,10.25 Z"/>
</svg>
