<?xml version="1.0" encoding="UTF-8"?>
<svg width="25px" height="24px" viewBox="0 0 25 24" version="1.1" xmlns="http://www.w3.org/2000/svg" xmlns:xlink="http://www.w3.org/1999/xlink">
    <!-- Generator: Sketch 54.1 (76490) - https://sketchapp.com -->
    <title>bell copy 58</title>
    <desc>Created with Sketch.</desc>
    <g id="Icons" stroke="none" stroke-width="1" fill="none" fill-rule="evenodd">
        <path d="M5.42774786,12.6091619 C5.39830923,12.5873369 5.37010629,12.5630795 5.34341448,12.5363898 C5.31672267,12.5097001 5.29246308,12.481499 5.27063571,12.4520621 L2.27618895,9.4578505 C0.154685726,7.33634728 0.15468574,3.89669354 2.27618899,1.77519033 C4.39768873,-0.346309401 7.83734242,-0.346316353 9.9588301,1.77517091 L22.6863669,14.5037635 C24.8293266,16.6032393 24.8645836,20.0424076 22.7651125,22.1853679 C20.6656367,24.3283276 17.2264684,24.3635845 15.0835086,22.264114 C15.0438772,22.2250206 15.0438772,22.2250206 15.0102098,22.1908713 L5.42774786,12.6091619 L5.42774786,12.6091619 Z M11.4403814,5.37824221 L8.89814915,2.8358103 C7.36246974,1.3001312 4.87256344,1.30013623 3.33684916,2.83585051 C1.80113235,4.37156729 1.80113234,6.86147355 3.3368283,8.39716951 L5.8794538,10.9396065 L11.4403814,5.37824221 Z M12.5009999,6.43894403 L6.94015329,12.0002274 L12.5009798,17.5606416 L18.0618386,12.0002195 L12.5009999,6.43894403 L12.5009999,6.43894403 Z M19.1224571,13.0609213 L13.5616792,18.6212625 L16.0762538,21.1356506 C16.1045532,21.1643392 16.1045532,21.1643392 16.1332409,21.1926375 C17.6844403,22.7123567 20.173912,22.6868357 21.6936365,21.1356351 C23.2133557,19.5844357 23.1878347,17.094964 21.6311492,15.5698104 L19.1224571,13.0609213 L19.1224571,13.0609213 Z M4.64554134,14.2950197 L3.37085084,15.5698103 C1.8141653,17.094964 1.78864425,19.5844357 3.30836351,21.1356351 C4.82808797,22.6868357 7.31755973,22.7123567 8.86875906,21.1926375 C8.87983708,21.1817843 9.34982643,20.7118497 10.1963663,19.86513 C10.4892284,19.5722056 10.9641021,19.5721552 11.2570265,19.8650173 C11.5499508,20.1578794 11.5500012,20.6327531 11.2571391,20.9256774 C10.3547026,21.8283058 9.93594019,22.2470193 9.91849139,22.264114 C7.77553159,24.3635845 4.33636333,24.3283276 2.23688745,22.1853679 C0.137416418,20.0424076 0.17267337,16.6032393 2.31563317,14.5037634 L3.58483954,13.2344012 C3.87772126,12.9414965 4.35259499,12.9414778 4.64549971,13.2343596 C4.93840442,13.5272413 4.93842306,14.002115 4.64554134,14.2950197 Z M20.3625962,9.69964273 L21.6651717,8.39716953 C23.2008677,6.86147355 23.2008677,4.37156729 21.6651508,2.83585051 C20.1294341,1.30013372 17.6395278,1.30013373 16.103811,2.83585054 L14.7959018,4.14386244 C14.5030201,4.43676715 14.0281463,4.43678579 13.7352416,4.14390407 C13.4423369,3.85102235 13.4423183,3.37614861 13.7352,3.0832439 L15.04313,1.77521119 C17.164654,-0.34631288 20.6043078,-0.346312894 22.725811,1.77519033 C24.8473143,3.89669354 24.8473143,7.33634728 22.725811,9.45785052 L21.4232147,10.7603445 C21.13031,11.0532263 20.6554363,11.0532076 20.3625545,10.7603029 C20.0696728,10.4673982 20.0696915,9.99252444 20.3625962,9.69964273 Z M11.8596051,10.5834306 C11.4690809,10.1929063 11.4690809,9.55974133 11.8596051,9.16921704 C12.2501294,8.77869275 12.8832944,8.77869275 13.2738187,9.16921704 C13.664343,9.55974133 13.664343,10.1929063 13.2738187,10.5834306 C12.8832944,10.9739549 12.2501294,10.9739549 11.8596051,10.5834306 Z M9.7357169,12.7073188 C9.34519261,12.3167945 9.34519261,11.6836296 9.7357169,11.2931053 C10.1262412,10.902581 10.7594062,10.902581 11.1499305,11.2931053 C11.5404548,11.6836296 11.5404548,12.3167945 11.1499305,12.7073188 C10.7594062,13.0978431 10.1262412,13.0978431 9.7357169,12.7073188 Z M11.859181,14.830783 C11.4686567,14.4402587 11.4686567,13.8070937 11.859181,13.4165694 C12.2497053,13.0260451 12.8828703,13.0260451 13.2733946,13.4165694 C13.6639189,13.8070937 13.6639189,14.4402587 13.2733946,14.830783 C12.8828703,15.2213073 12.2497053,15.2213073 11.859181,14.830783 Z M13.9830693,12.7068947 C13.592545,12.3163704 13.592545,11.6832055 13.9830693,11.2926812 C14.3735936,10.9021569 15.0067585,10.9021569 15.3972828,11.2926812 C15.7878071,11.6832055 15.7878071,12.3163704 15.3972828,12.7068947 C15.0067585,13.097419 14.3735936,13.097419 13.9830693,12.7068947 Z" id="Shape" fill="#000000" fill-rule="nonzero"></path>
    </g>
</svg>