<?xml version="1.0" encoding="UTF-8"?>
<svg width="24px" height="24px" viewBox="0 0 24 24" version="1.1" xmlns="http://www.w3.org/2000/svg" xmlns:xlink="http://www.w3.org/1999/xlink">
    <title>accident-pro</title>
    <g id="Icons" stroke="none" stroke-width="1" fill="none" fill-rule="evenodd">
        <g transform="translate(-1579.000000, -58.000000)" fill="#000000" fill-rule="nonzero" id="Shape">
            <path d="M1591.25124,58 C1594.54088,58 1596.41238,59.2987052 1596.51381,61.8257575 L1596.51817,62.0453685 L1596.518,64.477 L1598.43855,64.4771037 C1601.27776,64.4771037 1602.83135,66.2353562 1602.98702,69.4504243 L1602.99675,69.7217125 L1603,69.9997064 C1603,73.4694904 1601.51675,75.4180905 1598.67217,75.5182455 L1598.43855,75.5223091 L1596.518,75.522 L1596.51817,77.4426939 C1596.51817,80.2791478 1594.75978,81.8309547 1591.54482,81.9864456 L1591.27355,81.9961685 L1590.99556,81.9994127 C1587.52592,81.9994127 1585.57719,80.5178929 1585.47702,77.6760889 L1585.47296,77.4426939 L1585.472,75.522 L1583.55258,75.5223091 C1580.71984,75.5223091 1579.16842,73.774324 1579.01296,70.5784245 L1579.00324,70.3087543 L1579,70.0324194 C1579,66.5875328 1580.47485,64.6331127 1583.31897,64.4851369 L1583.55258,64.4771037 L1585.984,64.477 L1585.98431,62.0453685 C1585.98431,59.5223877 1587.66416,58.1566685 1590.70126,58.0127089 L1590.97275,58.0031789 L1591.25124,58 Z M1591.25124,59.5 C1588.70026,59.5 1587.56119,60.2689873 1587.48808,61.8761207 L1587.48431,62.0453685 L1587.48431,65.2271037 C1587.48431,65.6067994 1587.20216,65.9205946 1586.83608,65.970257 L1586.73431,65.9771037 L1583.56548,65.9769927 C1581.4794,66.0128851 1580.5,67.2505582 1580.5,70.0324194 C1580.5,72.7231844 1581.41275,73.9450101 1583.36082,74.0187465 L1583.55258,74.0223091 L1586.22296,74.0223091 C1586.60266,74.0223091 1586.91645,74.3044629 1586.96611,74.6705385 L1586.97296,74.7723091 L1586.97296,77.4426939 C1586.97296,79.5242843 1588.19551,80.4994127 1590.99556,80.4994127 C1593.70812,80.4994127 1594.94022,79.5842775 1595.01457,77.6346054 L1595.01817,77.4426939 L1595.01817,74.7723091 C1595.01817,74.3926133 1595.30032,74.0788181 1595.6664,74.0291557 L1595.76817,74.0223091 L1598.43855,74.0223091 C1600.52354,74.0223091 1601.5,72.7996146 1601.5,69.9997064 C1601.5,67.2872952 1600.58362,66.0550623 1598.63078,65.9806966 L1598.43855,65.9771037 L1595.76817,65.9771037 C1595.38847,65.9771037 1595.07467,65.6949498 1595.02501,65.3288742 L1595.01817,65.2271037 L1595.01817,62.0453685 C1595.01817,60.3229353 1593.89018,59.5 1591.25124,59.5 Z M1589,71.5 C1589.55228,71.5 1590,71.9477153 1590,72.5 C1590,73.0522847 1589.55228,73.5 1589,73.5 C1588.44772,73.5 1588,73.0522847 1588,72.5 C1588,71.9477153 1588.44772,71.5 1589,71.5 Z M1593,71.5 C1593.55228,71.5 1594,71.9477153 1594,72.5 C1594,73.0522847 1593.55228,73.5 1593,73.5 C1592.44772,73.5 1592,73.0522847 1592,72.5 C1592,71.9477153 1592.44772,71.5 1593,71.5 Z M1591,69 C1591.55228,69 1592,69.4477153 1592,70 C1592,70.5522847 1591.55228,71 1591,71 C1590.44772,71 1590,70.5522847 1590,70 C1590,69.4477153 1590.44772,69 1591,69 Z M1589,66.5 C1589.55228,66.5 1590,66.9477153 1590,67.5 C1590,68.0522847 1589.55228,68.5 1589,68.5 C1588.44772,68.5 1588,68.0522847 1588,67.5 C1588,66.9477153 1588.44772,66.5 1589,66.5 Z M1593,66.5 C1593.55228,66.5 1594,66.9477153 1594,67.5 C1594,68.0522847 1593.55228,68.5 1593,68.5 C1592.44772,68.5 1592,68.0522847 1592,67.5 C1592,66.9477153 1592.44772,66.5 1593,66.5 Z"></path>
        </g>
    </g>
</svg>