<svg xmlns="http://www.w3.org/2000/svg" width="24" height="24" viewBox="0 0 24 24">
  <path d="M1985.8754,75.8633885 L1986,75.987 L1986.1246,75.8633885 C1988.79591,73.3796439 1992.94072,73.3788707 1995.61294,75.8610689 L1995.80127,76.0425915 L1995.95741,76.1987261 C1998.5609,78.8022145 1998.67558,82.9520486 1996.30146,85.6917686 L1996.12764,85.8850248 L1996.014,85.998 L1996.13888,86.1270421 C1998.67946,88.8620597 1998.61897,93.1397152 1995.95741,95.8012739 L1995.80127,95.9574085 C1993.0978,98.6608866 1988.72691,98.6807173 1985.99897,96.0169006 L1986.06123,95.9574085 C1983.39967,98.6189671 1979.12202,98.6794571 1976.387,96.1388784 L1976.19873,95.9574085 L1976.04259,95.8012739 C1973.33879,93.0974683 1973.31928,88.7258539 1975.98407,85.9979818 L1975.87236,85.8850248 C1973.32037,83.1505363 1973.37712,78.8642023 1976.04259,76.1987261 L1976.19873,76.0425915 C1978.86108,73.3802415 1983.14048,73.3205072 1985.8754,75.8633885 Z M1977.62996,77.4738256 L1977.47383,77.6299603 C1975.54082,79.5629668 1975.54082,82.6969897 1977.47383,84.6299963 L1987.37,94.5261744 C1989.30301,96.4591809 1992.43703,96.4591809 1994.37004,94.5261744 L1994.52617,94.3700397 C1996.45918,92.4370332 1996.45918,89.3030103 1994.52617,87.3700037 L1984.63,77.4738256 C1982.69699,75.5408191 1979.56297,75.5408191 1977.62996,77.4738256 Z M1984.567,94.585 L1977.416,87.43 L1977.47383,87.3700037 C1975.5994,89.2444343 1975.54259,92.2481952 1977.30342,94.1910701 L1977.47383,94.3700397 L1977.62996,94.5261744 C1979.50439,96.400605 1982.50815,96.4574059 1984.45103,94.6965771 L1984.567,94.585 Z M1986,87.75 C1986.69036,87.75 1987.25,88.3096441 1987.25,89 C1987.25,89.6903559 1986.69036,90.25 1986,90.25 C1985.30964,90.25 1984.75,89.6903559 1984.75,89 C1984.75,88.3096441 1985.30964,87.75 1986,87.75 Z M1989,84.75 C1989.69036,84.75 1990.25,85.3096441 1990.25,86 C1990.25,86.6903559 1989.69036,87.25 1989,87.25 C1988.30964,87.25 1987.75,86.6903559 1987.75,86 C1987.75,85.3096441 1988.30964,84.75 1989,84.75 Z M1983,84.75 C1983.69036,84.75 1984.25,85.3096441 1984.25,86 C1984.25,86.6903559 1983.69036,87.25 1983,87.25 C1982.30964,87.25 1981.75,86.6903559 1981.75,86 C1981.75,85.3096441 1982.30964,84.75 1983,84.75 Z M1987.54897,77.3034229 L1987.429,77.416 L1994.585,84.567 L1994.69658,84.4510267 C1996.40238,82.5688666 1996.40238,79.6910899 1994.69658,77.8089299 L1994.52617,77.6299603 L1994.37004,77.4738256 C1992.49561,75.599395 1989.49185,75.5425941 1987.54897,77.3034229 Z M1986,81.75 C1986.69036,81.75 1987.25,82.3096441 1987.25,83 C1987.25,83.6903559 1986.69036,84.25 1986,84.25 C1985.30964,84.25 1984.75,83.6903559 1984.75,83 C1984.75,82.3096441 1985.30964,81.75 1986,81.75 Z" transform="translate(-1974 -74)"/>
</svg>
