<?xml version="1.0" encoding="UTF-8"?>
<svg width="24px" height="24px" viewBox="0 0 24 24" version="1.1" xmlns="http://www.w3.org/2000/svg" xmlns:xlink="http://www.w3.org/1999/xlink">
    <title>accident-pro-g</title>
    <g id="Icons" stroke="none" stroke-width="1" fill="none" fill-rule="evenodd">
        <g id="Glyphs" transform="translate(-1974.000000, -74.000000)" fill="#000000" fill-rule="nonzero">
            <path d="M1986.25,74 C1989.59791,74 1991.5588,75.3645728 1991.66235,77.9996901 L1991.66667,78.2222222 L1991.666,80.333 L1993.27778,80.3333333 C1996.21172,80.3333333 1997.83317,82.1752756 1997.99176,85.4555241 L1998.0014,85.7246341 L1998.00463,86 C1998.00463,89.5273876 1996.45304,91.5606857 1993.51279,91.6626382 L1993.27778,91.6666667 L1991.666,91.666 L1991.66667,93.2777778 C1991.66667,96.2091053 1989.82455,97.8287372 1986.54445,97.9871444 L1986.27535,97.9967831 L1986,98 C1982.4728,98 1980.43932,96.4501973 1980.33736,93.5125756 L1980.33333,93.2777778 L1980.333,91.666 L1978.72222,91.6666667 C1975.79492,91.6666667 1974.17532,89.834964 1974.01691,86.5733652 L1974.00727,86.3057857 L1974.00405,86.0319869 C1974.00405,82.5302641 1975.54541,80.492659 1978.48708,80.341352 L1978.72222,80.3333333 L1980.833,80.333 L1980.83333,78.2222222 C1980.83333,75.5917481 1982.60127,74.1597442 1985.70494,74.0126188 L1985.97423,74.0031567 L1986.25,74 Z M1986.25,76 C1983.88643,76 1982.9019,76.6588144 1982.83681,78.0683263 L1982.83333,78.2222222 L1982.83333,81.3333333 C1982.83333,81.8461692 1982.44729,82.2688405 1981.94995,82.3266056 L1981.83333,82.3333333 L1978.73943,82.3331853 C1976.85928,82.3655346 1976.00405,83.4462874 1976.00405,86.0319869 C1976.00405,88.5287319 1976.79648,89.5970337 1978.54425,89.6633583 L1978.72222,89.6666667 L1981.33333,89.6666667 C1981.84617,89.6666667 1982.26884,90.0527069 1982.32661,90.5500455 L1982.33333,90.6666667 L1982.33333,93.2777778 C1982.33333,95.150963 1983.3978,96 1986,96 C1988.51826,96 1989.59639,95.2048561 1989.66333,93.4558625 L1989.66667,93.2777778 L1989.66667,90.6666667 C1989.66667,90.1538308 1990.05271,89.7311595 1990.55005,89.6733944 L1990.66667,89.6666667 L1993.27778,89.6666667 C1995.15438,89.6666667 1996.00463,88.6020086 1996.00463,86 C1996.00463,83.4819271 1995.20835,82.4036207 1993.45619,82.3366728 L1993.27778,82.3333333 L1990.66667,82.3333333 C1990.15383,82.3333333 1989.73116,81.9472931 1989.67339,81.4499545 L1989.66667,81.3333333 L1989.66667,78.2222222 C1989.66667,76.7067129 1988.69798,76 1986.25,76 Z M1988,86.75 C1988.69036,86.75 1989.25,87.3096441 1989.25,88 C1989.25,88.6903559 1988.69036,89.25 1988,89.25 C1987.30964,89.25 1986.75,88.6903559 1986.75,88 C1986.75,87.3096441 1987.30964,86.75 1988,86.75 Z M1984,86.75 C1984.69036,86.75 1985.25,87.3096441 1985.25,88 C1985.25,88.6903559 1984.69036,89.25 1984,89.25 C1983.30964,89.25 1982.75,88.6903559 1982.75,88 C1982.75,87.3096441 1983.30964,86.75 1984,86.75 Z M1988,82.75 C1988.69036,82.75 1989.25,83.3096441 1989.25,84 C1989.25,84.6903559 1988.69036,85.25 1988,85.25 C1987.30964,85.25 1986.75,84.6903559 1986.75,84 C1986.75,83.3096441 1987.30964,82.75 1988,82.75 Z M1984,82.75 C1984.69036,82.75 1985.25,83.3096441 1985.25,84 C1985.25,84.6903559 1984.69036,85.25 1984,85.25 C1983.30964,85.25 1982.75,84.6903559 1982.75,84 C1982.75,83.3096441 1983.30964,82.75 1984,82.75 Z" id="Shape"></path>
        </g>
    </g>
</svg>