<svg xmlns="http://www.w3.org/2000/svg" width="24" height="24" viewBox="0 0 24 24">
  <path d="M1957.8754,75.8633885 L1967.95741,85.9387696 C1970.68086,88.6622249 1970.68086,93.0778185 1967.95741,95.8012739 L1967.80127,95.9574085 C1965.07782,98.6808638 1960.66222,98.6808638 1957.93877,95.9574085 L1947.87236,85.8850248 C1945.32037,83.1505363 1945.37712,78.8642023 1948.04259,76.1987261 L1948.19873,76.0425915 C1950.86108,73.3802415 1955.14048,73.3205072 1957.8754,75.8633885 Z M1949.62996,77.4738256 L1949.47383,77.6299603 C1947.54082,79.5629668 1947.54082,82.6969897 1949.47383,84.6299963 L1959.37,94.5261744 C1961.30301,96.4591809 1964.43703,96.4591809 1966.37004,94.5261744 L1966.52617,94.3700397 C1968.45918,92.4370332 1968.45918,89.3030103 1966.52617,87.3700037 L1956.63,77.4738256 C1954.69699,75.5408191 1951.56297,75.5408191 1949.62996,77.4738256 Z M1958,87.75 C1958.69036,87.75 1959.25,88.3096441 1959.25,89 C1959.25,89.6903559 1958.69036,90.25 1958,90.25 C1957.30964,90.25 1956.75,89.6903559 1956.75,89 C1956.75,88.3096441 1957.30964,87.75 1958,87.75 Z M1961,84.75 C1961.69036,84.75 1962.25,85.3096441 1962.25,86 C1962.25,86.6903559 1961.69036,87.25 1961,87.25 C1960.30964,87.25 1959.75,86.6903559 1959.75,86 C1959.75,85.3096441 1960.30964,84.75 1961,84.75 Z M1955,84.75 C1955.69036,84.75 1956.25,85.3096441 1956.25,86 C1956.25,86.6903559 1955.69036,87.25 1955,87.25 C1954.30964,87.25 1953.75,86.6903559 1953.75,86 C1953.75,85.3096441 1954.30964,84.75 1955,84.75 Z M1958,81.75 C1958.69036,81.75 1959.25,82.3096441 1959.25,83 C1959.25,83.6903559 1958.69036,84.25 1958,84.25 C1957.30964,84.25 1956.75,83.6903559 1956.75,83 C1956.75,82.3096441 1957.30964,81.75 1958,81.75 Z" transform="translate(-1946 -74)"/>
</svg>
