<svg xmlns="http://www.w3.org/2000/svg" width="24" height="24" viewBox="0 0 24 24">
  <path fill-rule="evenodd" d="M1601.1551,59.844903 C1603.61497,62.3047737 1603.61497,66.2930121 1601.1551,68.7528828 L1599.90829,70.0001469 L1601.1551,71.2471172 C1603.55347,73.6454911 1603.61343,77.4967696 1601.33498,79.9677887 L1601.1551,80.155097 C1598.75672,82.5534709 1594.90544,82.6134303 1592.43443,80.334975 L1592.24712,80.155097 L1591.00015,78.9082932 L1589.75288,80.155097 C1587.29301,82.6149677 1583.30477,82.6149677 1580.8449,80.155097 C1578.38503,77.6952263 1578.38503,73.7069879 1580.8449,71.2471172 L1582.092,70.0001469 L1580.8449,68.7528828 C1578.44653,66.3545089 1578.38657,62.5032304 1580.66502,60.0322113 L1580.8449,59.844903 C1583.24328,57.4465291 1587.09456,57.3865697 1589.56557,59.665025 L1589.75288,59.844903 L1591.00015,61.0920006 L1592.24712,59.844903 C1594.70699,57.3850323 1598.69523,57.3850323 1601.1551,59.844903 Z M1588.68393,60.9138606 C1586.81442,59.0443589 1583.78336,59.0443589 1581.91386,60.9138606 C1580.10101,62.7267108 1580.04608,65.6317895 1581.74906,67.5108353 L1581.91386,67.6839253 L1593.31607,79.0861394 C1595.18558,80.9556411 1598.21664,80.9556411 1600.08614,79.0861394 C1601.89899,77.2732892 1601.95392,74.3682105 1600.25094,72.4891647 L1600.08614,72.3160747 L1588.68393,60.9138606 Z M1583.16029,71.0684391 L1581.91386,72.3160747 C1580.04436,74.1855765 1580.04436,77.2166377 1581.91386,79.0861394 C1583.78336,80.9556411 1586.81442,80.9556411 1588.68393,79.0861394 L1589.93085,77.8389932 L1583.16029,71.0684391 Z M1591.50391,72.5195572 C1592.06052,72.5195572 1592.51173,72.9707748 1592.51173,73.52738 C1592.51173,74.0839852 1592.06052,74.5352029 1591.50391,74.5352029 C1590.94731,74.5352029 1590.49609,74.0839852 1590.49609,73.52738 C1590.49609,72.9707748 1590.94731,72.5195572 1591.50391,72.5195572 Z M1594.52738,69.4960886 C1595.08399,69.4960886 1595.5352,69.9473062 1595.5352,70.5039114 C1595.5352,71.0605166 1595.08399,71.5117343 1594.52738,71.5117343 C1593.97077,71.5117343 1593.51956,71.0605166 1593.51956,70.5039114 C1593.51956,69.9473062 1593.97077,69.4960886 1594.52738,69.4960886 Z M1591,68.9921771 C1591.55661,68.9921771 1592.00782,69.4433948 1592.00782,70 C1592.00782,70.5566052 1591.55661,71.0078229 1591,71.0078229 C1590.44339,71.0078229 1589.99218,70.5566052 1589.99218,70 C1589.99218,69.4433948 1590.44339,68.9921771 1591,68.9921771 Z M1587.47262,68.4882657 C1588.02923,68.4882657 1588.48044,68.9394834 1588.48044,69.4960886 C1588.48044,70.0526938 1588.02923,70.5039114 1587.47262,70.5039114 C1586.91601,70.5039114 1586.4648,70.0526938 1586.4648,69.4960886 C1586.4648,68.9394834 1586.91601,68.4882657 1587.47262,68.4882657 Z M1593.31607,60.9138606 L1592.06844,62.1602928 L1598.83899,68.9308468 L1600.08614,67.6839253 C1601.95564,65.8144235 1601.95564,62.7833623 1600.08614,60.9138606 C1598.21664,59.0443589 1595.18558,59.0443589 1593.31607,60.9138606 Z M1590.49609,65.4647971 C1591.05269,65.4647971 1591.50391,65.9160148 1591.50391,66.47262 C1591.50391,67.0292252 1591.05269,67.4804428 1590.49609,67.4804428 C1589.93948,67.4804428 1589.48827,67.0292252 1589.48827,66.47262 C1589.48827,65.9160148 1589.93948,65.4647971 1590.49609,65.4647971 Z" transform="translate(-1579 -58)"/>
</svg>
