<svg xmlns="http://www.w3.org/2000/svg" width="24" height="24" viewBox="0 0 24 24">
  <path d="M12,3.86901161 C14.2496258,1.67868511 17.8489356,1.69703038 20.0759526,3.92404741 C22.3029696,6.15106445 22.3213149,9.75037418 20.1309884,12 C22.3213149,14.2496258 22.3029696,17.8489356 20.0759526,20.0759526 C17.8489356,22.3029696 14.2496258,22.3213149 12,20.1309884 C9.75037418,22.3213149 6.15106445,22.3029696 3.92404741,20.0759526 C1.69703038,17.8489356 1.67868511,14.2496258 3.86901161,12 C1.67868511,9.75037418 1.69703038,6.15106445 3.92404741,3.92404741 C6.15106445,1.69703038 9.75037418,1.67868511 12,3.86901161 L12,3.86901161 Z M13.0611674,4.9294394 L19.0705606,10.9388326 C20.6748115,9.27510042 20.6563888,6.62580394 19.0152924,4.98470759 C17.3741961,3.34361123 14.7248996,3.3251885 13.0611674,4.9294394 Z M10.9388326,19.0705606 L4.9294394,13.0611674 C3.3251885,14.7248996 3.34361123,17.3741961 4.98470759,19.0152924 C6.62580394,20.6563888 9.27510042,20.6748115 10.9388326,19.0705606 Z M4.98470759,4.98470759 C3.32497935,6.64443583 3.32497935,9.33538699 4.98470759,10.9951152 L13.0048848,19.0152924 C14.664613,20.6750207 17.3555642,20.6750207 19.0152924,19.0152924 C20.6750207,17.3555642 20.6750207,14.664613 19.0152924,13.0048848 L10.9951152,4.98470759 C9.33538699,3.32497935 6.64443583,3.32497935 4.98470759,4.98470759 Z M9.1000313,12.2820118 C8.74879805,12.6332451 8.17933643,12.6332451 7.82810317,12.2820118 C7.47686991,11.9307786 7.47686991,11.3613169 7.82810317,11.0100837 C8.17933643,10.6588504 8.74879805,10.6588504 9.1000313,11.0100837 C9.45126456,11.3613169 9.45126456,11.9307786 9.1000313,12.2820118 Z M12.2812141,9.09923359 C11.9299809,9.45046685 11.3605192,9.45046685 11.009286,9.09923359 C10.6580527,8.74800033 10.6580527,8.17853871 11.009286,7.82730546 C11.3605192,7.4760722 11.9299809,7.4760722 12.2812141,7.82730546 C12.6324474,8.17853871 12.6324474,8.74800033 12.2812141,9.09923359 Z M16.1718968,12.9899163 C15.8206636,13.3411496 15.251202,13.3411496 14.8999687,12.9899163 C14.5487354,12.6386831 14.5487354,12.0692214 14.8999687,11.7179882 C15.251202,11.3667549 15.8206636,11.3667549 16.1718968,11.7179882 C16.5231301,12.0692214 16.5231301,12.6386831 16.1718968,12.9899163 Z M12.6359641,12.6359641 C12.2847308,12.9871973 11.7152692,12.9871973 11.3640359,12.6359641 C11.0128027,12.2847308 11.0128027,11.7152692 11.3640359,11.3640359 C11.7152692,11.0128027 12.2847308,11.0128027 12.6359641,11.3640359 C12.9871973,11.7152692 12.9871973,12.2847308 12.6359641,12.6359641 Z M12.990714,16.1726945 C12.6394808,16.5239278 12.0700191,16.5239278 11.7187859,16.1726945 C11.3675526,15.8214613 11.3675526,15.2519997 11.7187859,14.9007664 C12.0700191,14.5495332 12.6394808,14.5495332 12.990714,14.9007664 C13.3419473,15.2519997 13.3419473,15.8214613 12.990714,16.1726945 Z"/>
</svg>
