<svg xmlns="http://www.w3.org/2000/svg" width="24" height="24" viewBox="0 0 24 24">
  <path fill-rule="evenodd" d="M12,13 C11.4477153,13 11,12.5522847 11,12 C11,11.4477153 11.4477153,11 12,11 C12.5522847,11 13,11.4477153 13,12 C13,12.5522847 12.5522847,13 12,13 Z M8,12.5 C7.44771525,12.5 7,12.0522847 7,11.5 C7,10.9477153 7.44771525,10.5 8,10.5 C8.55228475,10.5 9,10.9477153 9,11.5 C9,12.0522847 8.55228475,12.5 8,12.5 Z M16,13.5 C15.4477153,13.5 15,13.0522847 15,12.5 C15,11.9477153 15.4477153,11.5 16,11.5 C16.5522847,11.5 17,11.9477153 17,12.5 C17,13.0522847 16.5522847,13.5 16,13.5 Z M11.5,9 C10.9477153,9 10.5,8.55228475 10.5,8 C10.5,7.44771525 10.9477153,7 11.5,7 C12.0522847,7 12.5,7.44771525 12.5,8 C12.5,8.55228475 12.0522847,9 11.5,9 Z M12.5,17 C11.9477153,17 11.5,16.5522847 11.5,16 C11.5,15.4477153 11.9477153,15 12.5,15 C13.0522847,15 13.5,15.4477153 13.5,16 C13.5,16.5522847 13.0522847,17 12.5,17 Z M11.876711,2.43807299 L11.8824853,2.43278238 C14.3947655,-0.0794978273 18.7918054,-0.0015058536 21.2260937,2.43278238 C23.6603819,4.86707062 23.7383739,9.2641105 21.2260937,11.7763907 L21.2206152,11.7819669 L21.662216,12.2235677 C24.2556523,14.817004 24.2556523,19.0217951 21.662216,21.6152314 L21.5079382,21.7695093 C18.9145018,24.3629456 14.7097108,24.3629456 12.1162745,21.7695093 L11.6717222,21.324957 C9.13649479,23.679113 4.87127103,23.5546192 2.48776396,21.1711121 C0.104256385,18.7876045 -0.0202369617,14.5223795 2.33392055,11.9871522 C-0.255651687,9.39340487 -0.254363873,5.19150295 2.33778399,2.59935508 L2.49206183,2.44507724 C5.0831613,-0.146022224 9.28271294,-0.148356974 11.876711,2.43807299 L11.876711,2.43807299 Z M12.9373516,3.49870328 L20.1599833,10.721335 L20.1654335,10.7157305 C22.0833419,8.79782209 22.0221901,5.3501992 20.1654335,3.49344256 C18.3086768,1.63668591 14.861054,1.57553411 12.9431455,3.49344256 C12.9412138,3.49520491 12.9392825,3.49695849 12.9373516,3.49870328 Z M10.6100656,20.2633004 L3.39557569,13.0488105 C1.63520065,14.9933688 1.74242292,18.3044507 3.54842413,20.1104519 C5.35442535,21.9164531 8.6655072,22.0236754 10.6100656,20.2633004 L10.6100656,20.2633004 Z M3.39844416,3.66001525 C1.39079428,5.66766514 1.39079428,8.92270873 3.39844416,10.9303586 L13.1769346,20.7088491 C15.1845845,22.716499 18.4396281,22.716499 20.447278,20.7088491 L20.6015558,20.5545712 C22.6092057,18.5469214 22.6092057,15.2918778 20.6015558,13.2842279 L10.8230654,3.50573741 C8.81541548,1.49808753 5.56037189,1.49808753 3.55272201,3.50573741 L3.39844416,3.66001525 Z"/>
</svg>
