<svg xmlns="http://www.w3.org/2000/svg" width="24" height="24" viewBox="0 0 24 24">
  <path fill-rule="evenodd" d="M1554.8449,59.844903 C1557.24328,57.4465291 1561.09456,57.3865697 1563.56557,59.665025 L1563.75288,59.844903 L1575.1551,71.2471172 C1577.61497,73.7069879 1577.61497,77.6952263 1575.1551,80.155097 C1572.75672,82.5534709 1568.90544,82.6134303 1566.43443,80.334975 L1566.24712,80.155097 L1554.8449,68.7528828 C1552.38503,66.2930121 1552.38503,62.3047737 1554.8449,59.844903 Z M1562.68393,60.9138606 C1560.81442,59.0443589 1557.78336,59.0443589 1555.91386,60.9138606 C1554.10101,62.7267108 1554.04608,65.6317895 1555.74906,67.5108353 L1555.91386,67.6839253 L1567.31607,79.0861394 C1569.18558,80.9556411 1572.21664,80.9556411 1574.08614,79.0861394 C1575.89899,77.2732892 1575.95392,74.3682105 1574.25094,72.4891647 L1574.08614,72.3160747 L1562.68393,60.9138606 Z M1565.50391,72.5195572 C1566.06052,72.5195572 1566.51173,72.9707748 1566.51173,73.52738 C1566.51173,74.0839852 1566.06052,74.5352029 1565.50391,74.5352029 C1564.94731,74.5352029 1564.49609,74.0839852 1564.49609,73.52738 C1564.49609,72.9707748 1564.94731,72.5195572 1565.50391,72.5195572 Z M1568.52738,69.4960886 C1569.08399,69.4960886 1569.5352,69.9473062 1569.5352,70.5039114 C1569.5352,71.0605166 1569.08399,71.5117343 1568.52738,71.5117343 C1567.97077,71.5117343 1567.51956,71.0605166 1567.51956,70.5039114 C1567.51956,69.9473062 1567.97077,69.4960886 1568.52738,69.4960886 Z M1565,68.9921771 C1565.55661,68.9921771 1566.00782,69.4433948 1566.00782,70 C1566.00782,70.5566052 1565.55661,71.0078229 1565,71.0078229 C1564.44339,71.0078229 1563.99218,70.5566052 1563.99218,70 C1563.99218,69.4433948 1564.44339,68.9921771 1565,68.9921771 Z M1561.47262,68.4882657 C1562.02923,68.4882657 1562.48044,68.9394834 1562.48044,69.4960886 C1562.48044,70.0526938 1562.02923,70.5039114 1561.47262,70.5039114 C1560.91601,70.5039114 1560.4648,70.0526938 1560.4648,69.4960886 C1560.4648,68.9394834 1560.91601,68.4882657 1561.47262,68.4882657 Z M1564.49609,65.4647971 C1565.05269,65.4647971 1565.50391,65.9160148 1565.50391,66.47262 C1565.50391,67.0292252 1565.05269,67.4804428 1564.49609,67.4804428 C1563.93948,67.4804428 1563.48827,67.0292252 1563.48827,66.47262 C1563.48827,65.9160148 1563.93948,65.4647971 1564.49609,65.4647971 Z" transform="translate(-1553 -58)"/>
</svg>
