<svg width="25" height="24" viewBox="0 0 25 24" xmlns="http://www.w3.org/2000/svg"><path d="M3094.5,74 C3096.70125,74 3098.53335,75.5805245 3098.92336,77.6686463 L3098.936,77.75 L3102,77.75 C3103.19086,77.7499999 3104.16564,78.6751617 3104.24481,79.8459512 L3104.25,80 L3104.25,82.25 C3104.25,82.6642136 3103.91421,83 3103.5,83 C3103.1203,83 3102.80651,82.7178461 3102.75685,82.3517706 L3102.75,82.25 L3102.75,80 C3102.75,79.6203044 3102.46785,79.306509 3102.10177,79.2568466 L3102,79.25 L3098.25,79.25 C3097.83579,79.25 3097.5,78.9142136 3097.5,78.5 C3097.5,76.8431436 3096.15686,75.5 3094.5,75.5 C3092.84314,75.5 3091.5,76.8431436 3091.5,78.5 C3091.5,78.8796951 3091.21785,79.1934904 3090.85177,79.2431528 L3090.75,79.2499994 L3087,79.2499994 C3086.6203,79.2499994 3086.30651,79.5321534 3086.25685,79.8982287 L3086.25,80 L3086.25,95.75 C3086.25,96.1296952 3086.53215,96.4434909 3086.89823,96.4931534 L3087,96.5 L3094.5,96.5 C3094.91421,96.5 3095.25,96.8357864 3095.25,97.25 C3095.25,97.6296958 3094.96785,97.943491 3094.60177,97.9931534 L3094.5,98 L3087,98 C3085.80914,98 3084.83436,97.0748378 3084.75519,95.9040487 L3084.75,95.75 L3084.75,80 C3084.75,78.8091355 3085.67516,77.8343545 3086.84595,77.7551902 L3087,77.7499994 L3090.063,77.749 L3090.07664,77.668646 C3090.45407,75.6478833 3092.18205,74.1024975 3094.28816,74.004898 L3094.5,74 Z M3106.77293,86.4770335 C3109.40897,89.1130758 3109.40897,93.3869404 3106.77293,96.0229726 C3104.13689,98.659016 3099.86302,98.659016 3097.22699,96.0229726 C3094.59095,93.3869292 3094.59095,89.1130646 3097.22699,86.4770324 C3099.86303,83.840989 3104.1369,83.840989 3106.77293,86.4770335 Z M3098.28765,87.5376937 C3096.23739,89.5879404 3096.23739,92.9120558 3098.28765,94.9623135 C3100.3379,97.012569 3103.66201,97.012569 3105.71227,94.9623113 C3107.70395,92.970643 3107.76085,89.7768587 3105.88299,87.7164891 L3105.71227,87.5376926 L3105.53347,87.3669763 C3103.47311,85.4891097 3100.27933,85.5460148 3098.28765,87.5376937 Z M3105.12395,88.8999628 C3105.42522,89.1258726 3105.50814,89.5349185 3105.33402,89.8564027 L3105.27404,89.9499504 L3102.36845,93.8247262 C3101.87026,94.4873071 3100.92927,94.6205711 3100.26669,94.1223806 L3100.18488,94.0562461 L3100.10767,93.9843303 L3098.60767,92.4843303 C3098.31478,92.1914371 3098.31478,91.7165634 3098.60767,91.4236701 C3098.87394,91.1574036 3099.2906,91.1331975 3099.58421,91.351052 L3099.66833,91.4236701 L3101.16896,92.9240496 L3104.07396,89.0500496 C3104.32246,88.7186582 3104.79256,88.6514621 3105.12395,88.8999628 Z M3092.5,89.9989784 C3092.91421,89.9989784 3093.25,90.3347648 3093.25,90.7489784 C3093.25,91.1286741 3092.96785,91.4424693 3092.60177,91.4921317 L3092.5,91.4989784 L3089.5,91.4989784 C3089.08579,91.4989784 3088.75,91.1631919 3088.75,90.7489784 C3088.75,90.3692826 3089.03215,90.0554874 3089.39823,90.005825 L3089.5,89.9989784 L3092.5,89.9989784 Z M3092.5,86.2489784 C3092.91421,86.2489784 3093.25,86.5847648 3093.25,86.9989784 C3093.25,87.3786741 3092.96785,87.6924693 3092.60177,87.7421317 L3092.5,87.7489784 L3089.5,87.7489784 C3089.08579,87.7489784 3088.75,87.4131919 3088.75,86.9989784 C3088.75,86.6192826 3089.03215,86.3054874 3089.39823,86.255825 L3089.5,86.2489784 L3092.5,86.2489784 Z M3094.75,82.4989784 C3095.16421,82.4989784 3095.5,82.8347648 3095.5,83.2489784 C3095.5,83.6286741 3095.21785,83.9424693 3094.85177,83.9921317 L3094.75,83.9989784 L3089.5,83.9989784 C3089.08579,83.9989784 3088.75,83.6631919 3088.75,83.2489784 C3088.75,82.8692826 3089.03215,82.5554874 3089.39823,82.505825 L3089.5,82.4989784 L3094.75,82.4989784 Z M3094.5,76.8750001 L3094.62258,76.8816013 C3095.18624,76.9426801 3095.625,77.4201008 3095.625,78 C3095.625,78.6213205 3095.12132,79.125 3094.5,79.125 C3093.87868,79.125 3093.375,78.6213206 3093.375,78.0000001 C3093.375,77.4201009 3093.81376,76.9426802 3094.37742,76.8816014 L3094.5,76.8750001 Z" transform="translate(-3084 -74)"/></svg>