<svg xmlns="http://www.w3.org/2000/svg" width="24" height="24" viewBox="0 0 24 24">
  <path fill-rule="evenodd" d="M3149.21268,61.0015765 L3152.47239,61 C3154.95009,61 3155.95276,61.2784768 3156.93054,61.8013981 C3157.90831,62.3243194 3158.67568,63.0916851 3159.1986,64.0694629 C3159.72152,65.0472407 3160,66.0499082 3160,68.5276115 L3160,71.4723885 C3160,73.9500918 3159.72152,74.9527593 3159.1986,75.9305371 C3158.67568,76.9083149 3157.90831,77.6756806 3156.93054,78.1986019 C3155.95276,78.7215232 3154.95009,79 3152.47239,79 L3149.52761,79 C3147.04991,79 3146.04724,78.7215232 3145.06946,78.1986019 C3144.09169,77.6756806 3143.32432,76.9083149 3142.8014,75.9305371 C3142.37267,75.1288808 3142.10825,74.3104937 3142.02691,72.676175 L3142.0066,72.1000861 C3142.00435,71.9986692 3142.00268,71.89446 3142.00158,71.7873213 L3142,68.5276115 C3142,66.0499082 3142.27848,65.0472407 3142.8014,64.0694629 C3143.32432,63.0916851 3144.09169,62.3243194 3145.06946,61.8013981 C3145.87112,61.3726676 3146.68951,61.1082518 3148.32383,61.0269064 L3148.89991,61.0065974 C3149.00133,61.0043512 3149.10554,61.0026765 3149.21268,61.0015765 Z M3152.75931,63.0011587 L3149.52761,63 L3148.97087,63.0046881 C3148.88368,63.0062686 3148.79919,63.0082576 3148.71724,63.0106684 L3148.25498,63.0303027 C3147.16982,63.0925786 3146.59089,63.2557853 3146.01266,63.5650245 C3145.38342,63.9015462 3144.90155,64.3834198 3144.56502,65.0126606 C3144.25579,65.5908876 3144.09258,66.1698161 3144.0303,67.2549796 L3144.01067,67.7172425 L3144.00469,67.9708701 L3144.00469,67.9708701 L3144,68.5276115 L3144,71.4723885 C3144,71.7681533 3144.00344,72.0369282 3144.01067,72.2827575 L3144.0303,72.7450204 C3144.09258,73.8301839 3144.25579,74.4091124 3144.56502,74.9873394 C3144.90155,75.6165802 3145.38342,76.0984538 3146.01266,76.4349755 C3146.59089,76.7442147 3147.16982,76.9074214 3148.25498,76.9696973 L3148.71724,76.9893316 L3148.97087,76.9953119 L3148.97087,76.9953119 L3149.52761,77 L3152.47239,77 L3153.02913,76.9953119 L3153.28276,76.9893316 L3153.28276,76.9893316 L3153.74502,76.9696973 C3154.83018,76.9074214 3155.40911,76.7442147 3155.98734,76.4349755 C3156.61658,76.0984538 3157.09845,75.6165802 3157.43498,74.9873394 C3157.74421,74.4091124 3157.90742,73.8301839 3157.9697,72.7450204 L3157.98933,72.2827575 L3157.99531,72.0291299 L3157.99531,72.0291299 L3158,71.4723885 L3158,68.5276115 L3157.99531,67.9708701 L3157.98933,67.7172425 L3157.98933,67.7172425 L3157.9697,67.2549796 C3157.90742,66.1698161 3157.74421,65.5908876 3157.43498,65.0126606 C3157.09845,64.3834198 3156.61658,63.9015462 3155.98734,63.5650245 C3155.40911,63.2557853 3154.83018,63.0925786 3153.74502,63.0303027 L3153.28276,63.0106684 L3152.75931,63.0011587 L3152.75931,63.0011587 Z M3151.18405,67.5 C3151.77805,67.5 3152.15092,67.5928256 3152.47685,67.7671327 C3152.80277,67.9414398 3153.05856,68.1972284 3153.23287,68.5231543 C3153.40717,68.8490802 3153.5,69.2219532 3153.5,69.8159514 L3153.5,70.1840486 C3153.5,70.7780468 3153.40717,71.1509198 3153.23287,71.4768457 C3153.05856,71.8027716 3152.80277,72.0585602 3152.47685,72.2328673 C3152.15092,72.4071744 3151.77805,72.5 3151.18405,72.5 L3150.81595,72.5 C3150.22195,72.5 3149.84908,72.4071744 3149.52315,72.2328673 C3149.19723,72.0585602 3148.94144,71.8027716 3148.76713,71.4768457 C3148.59283,71.1509198 3148.5,70.7780468 3148.5,70.1840486 L3148.5,69.8159514 C3148.5,69.2219532 3148.59283,68.8490802 3148.76713,68.5231543 C3148.94144,68.1972284 3149.19723,67.9414398 3149.52315,67.7671327 C3149.84908,67.5928256 3150.22195,67.5 3150.81595,67.5 L3151.18405,67.5 Z" transform="translate(-3139 -58)"/>
</svg>
