<svg width="24" height="24" viewBox="0 0 24 24" xmlns="http://www.w3.org/2000/svg"><path d="M3095.31269,58.0019273 L3100.4908,58 C3101.3167,58 3101.65092,58.0928256 3101.97685,58.2671327 C3102.30277,58.4414398 3102.55856,58.6972284 3102.73287,59.0231543 C3102.86596,59.2720123 3102.95155,59.5257072 3102.98458,59.9994125 L3103.3798,60 C3104.44632,60 3104.97638,60.1392384 3105.46527,60.4006991 C3105.95416,60.6621597 3106.33784,61.0458426 3106.5993,61.5347314 C3106.86076,62.0236203 3107,62.5536756 3107,63.6201983 L3107,77.1541722 C3107,78.3242905 3106.8934,78.8418294 3106.69159,79.2804483 L3106.5993,79.4652686 C3106.33784,79.9541574 3105.95416,80.3378403 3105.46527,80.5993009 L3105.28045,80.6915863 C3104.84183,80.8933956 3104.32429,81 3103.15417,81 L3092.84583,81 C3091.67571,81 3091.15817,80.8933956 3090.71955,80.6915863 L3090.53473,80.5993009 C3090.04584,80.3378403 3089.66216,79.9541574 3089.4007,79.4652686 L3089.30841,79.2804483 C3089.12102,78.8731593 3089.01571,78.397822 3089.00163,77.3951324 L3089,63.8458278 C3089,62.6757095 3089.1066,62.1581706 3089.30841,61.7195517 L3089.4007,61.5347314 C3089.66216,61.0458426 3090.04584,60.6621597 3090.53473,60.4006991 L3090.71955,60.3084137 C3091.12684,60.1210194 3091.60218,60.0157149 3092.60487,60.0016275 L3093.01535,60.0003821 C3093.04834,59.5260533 3093.13395,59.2721821 3093.26713,59.0231543 C3093.44144,58.6972284 3093.69723,58.4414398 3094.02315,58.2671327 C3094.32192,58.1073512 3094.62766,58.0160368 3095.31269,58.0019273 Z M3093,62 L3092.65962,62.0006756 L3092.34476,62.0063061 L3092.09652,62.018143 C3091.87753,62.0332834 3091.74024,62.0586347 3091.62995,62.0969012 L3091.52664,62.139573 L3091.47793,62.1643255 C3091.33758,62.2393865 3091.23939,62.3375772 3091.16433,62.4779292 L3091.13957,62.5266361 L3091.0969,62.6299525 C3091.06501,62.721861 3091.04209,62.8325186 3091.02658,62.9935784 L3091.01141,63.213069 L3091.00275,63.4931006 L3091,63.8458278 L3091.00068,77.3403824 L3091.00631,77.6552425 L3091.01814,77.9034842 C3091.03328,78.1224684 3091.05863,78.2597573 3091.0969,78.3700475 L3091.13957,78.4733639 L3091.16433,78.5220708 C3091.23939,78.6624228 3091.33758,78.7606135 3091.47793,78.8356745 L3091.52664,78.860427 L3091.62995,78.9030988 C3091.72186,78.9349875 3091.83252,78.9579074 3091.99358,78.9734234 L3092.21307,78.9885888 L3092.4931,78.9972474 L3092.84583,79 L3103.34038,78.9993244 L3103.65524,78.9936939 L3103.90348,78.981857 C3104.12247,78.9667166 3104.25976,78.9413653 3104.37005,78.9030988 L3104.47336,78.860427 L3104.52207,78.8356745 C3104.66242,78.7606135 3104.76061,78.6624228 3104.83567,78.5220708 L3104.86043,78.4733639 L3104.9031,78.3700475 C3104.93499,78.278139 3104.95791,78.1674814 3104.97342,78.0064216 L3104.98859,77.786931 L3104.99725,77.5068994 L3105,77.1541722 L3105,63.6201983 L3104.99501,63.2867718 C3104.97989,62.8458056 3104.92976,62.6538605 3104.83567,62.4779292 C3104.76061,62.3375772 3104.66242,62.2393865 3104.52207,62.1643255 C3104.34614,62.0702363 3104.15419,62.0201082 3103.71323,62.0049902 L3103.3798,62 L3103,62 L3103,62.2180574 C3103,62.6638168 3102.95359,62.8254599 3102.86643,62.9884229 C3102.77928,63.1513858 3102.65139,63.2792801 3102.48842,63.3664336 C3102.32546,63.4535872 3102.16382,63.5 3101.71806,63.5 L3094.28194,63.5 C3093.83618,63.5 3093.67454,63.4535872 3093.51158,63.3664336 C3093.34861,63.2792801 3093.22072,63.1513858 3093.13357,62.9884229 C3093.04641,62.8254599 3093,62.6638168 3093,62.2180574 L3093,62 Z M3102.87486,67.7492368 C3103.2576,68.0859969 3103.32145,68.6503048 3103.04206,69.0612505 L3102.96505,69.1605714 L3097.68585,75.1605714 C3097.31609,75.5808163 3096.68169,75.6108338 3096.27413,75.2506239 L3096.18432,75.1605714 L3093.74924,72.3930071 C3093.38441,71.978372 3093.42479,71.346496 3093.83943,70.9816725 C3094.22217,70.6449123 3094.79001,70.6534145 3095.16205,70.982837 L3095.25076,71.0718643 L3096.935,72.986 L3101.46352,67.8394286 C3101.82835,67.4247935 3102.46022,67.3844133 3102.87486,67.7492368 Z" transform="translate(-3086 -58)"/></svg>