<svg xmlns="http://www.w3.org/2000/svg" width="24" height="24" viewBox="0 0 24 24">
  <path d="M3155,61 C3157.68875,61 3159.88182,63.1223067 3159.99538,65.7831104 L3160,66 L3160,74 C3160,76.6887547 3157.87769,78.8818181 3155.21689,78.9953805 L3155,79 L3147,79 C3144.31125,79 3142.11818,76.8776933 3142.00462,74.2168896 L3142,74 L3142,66 C3142,63.3112453 3144.12231,61.1181819 3146.78311,61.0046195 L3147,61 L3155,61 Z M3155,63 L3147,63 C3145.40232,63 3144.09634,64.24892 3144.00509,65.8237272 L3144,66 L3144,74 C3144,75.5976809 3145.24892,76.9036609 3146.82373,76.9949073 L3147,77 L3155,77 C3156.59768,77 3157.90366,75.75108 3157.99491,74.1762728 L3158,74 L3158,66 C3158,64.4023191 3156.75108,63.0963391 3155.17627,63.0050927 L3155,63 Z M3151,67.5 C3152.38071,67.5 3153.5,68.6192881 3153.5,70 C3153.5,71.3807119 3152.38071,72.5 3151,72.5 C3149.61929,72.5 3148.5,71.3807119 3148.5,70 C3148.5,68.6192881 3149.61929,67.5 3151,67.5 Z" transform="translate(-3139 -58)"/>
</svg>
