<svg width="24" height="24" viewBox="0 0 24 24" xmlns="http://www.w3.org/2000/svg"><path d="M3148.31269,58.0019273 L3153.4908,58 C3154.3167,58 3154.65092,58.0928256 3154.97685,58.2671327 C3155.30277,58.4414398 3155.55856,58.6972284 3155.73287,59.0231543 C3155.86596,59.2720123 3155.95155,59.5257072 3155.98458,59.9994125 L3156.3798,60 C3157.44632,60 3157.97638,60.1392384 3158.46527,60.4006991 C3158.95416,60.6621597 3159.33784,61.0458426 3159.5993,61.5347314 C3159.86076,62.0236203 3160,62.5536756 3160,63.6201983 L3160,77.1541722 C3160,78.3242905 3159.8934,78.8418294 3159.69159,79.2804483 L3159.5993,79.4652686 C3159.33784,79.9541574 3158.95416,80.3378403 3158.46527,80.5993009 L3158.28045,80.6915863 C3157.84183,80.8933956 3157.32429,81 3156.15417,81 L3145.84583,81 C3144.67571,81 3144.15817,80.8933956 3143.71955,80.6915863 L3143.53473,80.5993009 C3143.04584,80.3378403 3142.66216,79.9541574 3142.4007,79.4652686 L3142.30841,79.2804483 C3142.12102,78.8731593 3142.01571,78.397822 3142.00163,77.3951324 L3142,63.8458278 C3142,62.6757095 3142.1066,62.1581706 3142.30841,61.7195517 L3142.4007,61.5347314 C3142.66216,61.0458426 3143.04584,60.6621597 3143.53473,60.4006991 L3143.71955,60.3084137 C3144.12684,60.1210194 3144.60218,60.0157149 3145.60487,60.0016275 L3146.01535,60.0003821 C3146.04834,59.5260533 3146.13395,59.2721821 3146.26713,59.0231543 C3146.44144,58.6972284 3146.69723,58.4414398 3147.02315,58.2671327 C3147.32192,58.1073512 3147.62766,58.0160368 3148.31269,58.0019273 Z M3146,62 L3145.65962,62.0006756 L3145.34476,62.0063061 L3145.09652,62.018143 C3144.87753,62.0332834 3144.74024,62.0586347 3144.62995,62.0969012 L3144.52664,62.139573 L3144.47793,62.1643255 L3144.47793,62.1643255 C3144.33758,62.2393865 3144.23939,62.3375772 3144.16433,62.4779292 L3144.13957,62.5266361 L3144.0969,62.6299525 C3144.06501,62.721861 3144.04209,62.8325186 3144.02658,62.9935784 L3144.01141,63.213069 L3144.00275,63.4931006 L3144,63.8458278 L3144.00068,77.3403824 L3144.00631,77.6552425 L3144.01814,77.9034842 C3144.03328,78.1224684 3144.05863,78.2597573 3144.0969,78.3700475 L3144.13957,78.4733639 L3144.16433,78.5220708 L3144.16433,78.5220708 C3144.23939,78.6624228 3144.33758,78.7606135 3144.47793,78.8356745 L3144.52664,78.860427 L3144.62995,78.9030988 C3144.72186,78.9349875 3144.83252,78.9579074 3144.99358,78.9734234 L3145.21307,78.9885888 L3145.4931,78.9972474 L3145.84583,79 L3156.34038,78.9993244 L3156.65524,78.9936939 L3156.90348,78.981857 C3157.12247,78.9667166 3157.25976,78.9413653 3157.37005,78.9030988 L3157.47336,78.860427 L3157.52207,78.8356745 L3157.52207,78.8356745 C3157.66242,78.7606135 3157.76061,78.6624228 3157.83567,78.5220708 L3157.86043,78.4733639 L3157.9031,78.3700475 C3157.93499,78.278139 3157.95791,78.1674814 3157.97342,78.0064216 L3157.98859,77.786931 L3157.99725,77.5068994 L3158,77.1541722 L3158,63.6201983 L3157.99501,63.2867718 C3157.97989,62.8458056 3157.92976,62.6538605 3157.83567,62.4779292 C3157.76061,62.3375772 3157.66242,62.2393865 3157.52207,62.1643255 C3157.34614,62.0702363 3157.15419,62.0201082 3156.71323,62.0049902 L3156.3798,62 L3156,62 L3156,62.7180574 C3156,63.1638168 3155.95359,63.3254599 3155.86643,63.4884229 C3155.77928,63.6513858 3155.65139,63.7792801 3155.48842,63.8664336 C3155.32546,63.9535872 3155.16382,64 3154.71806,64 L3147.28194,64 C3146.83618,64 3146.67454,63.9535872 3146.51158,63.8664336 C3146.34861,63.7792801 3146.22072,63.6513858 3146.13357,63.4884229 C3146.04641,63.3254599 3146,63.1638168 3146,62.7180574 L3146,62 Z M3155.87486,67.7492368 C3156.2576,68.0859969 3156.32145,68.6503048 3156.04206,69.0612505 L3155.96505,69.1605714 L3150.68585,75.1605714 C3150.31609,75.5808163 3149.68169,75.6108338 3149.27413,75.2506239 L3149.18432,75.1605714 L3146.74924,72.3930071 C3146.38441,71.978372 3146.42479,71.346496 3146.83943,70.9816725 C3147.22217,70.6449123 3147.79001,70.6534145 3148.16205,70.982837 L3148.25076,71.0718643 L3149.935,72.986 L3154.46352,67.8394286 C3154.82835,67.4247935 3155.46022,67.3844133 3155.87486,67.7492368 Z M3153.62329,60.0010301 L3148.33656,60.0018086 C3148.31046,60.0023964 3148.28566,60.0031198 3148.26212,60.0039676 L3148.08343,60.0146478 L3148.021,60.021 L3148.00687,60.1952747 C3148.00579,60.2163166 3148.00482,60.2385852 3148.00397,60.2621202 L3148,60.5092038 L3148,62 L3154,62 L3154,60.5092038 L3153.99603,60.2621202 L3153.98535,60.0834251 L3153.978,60.021 L3153.91657,60.0146478 C3153.84325,60.0079351 3153.7467,60.0030521 3153.62329,60.0010301 Z" transform="translate(-3139 -58)"/></svg>