<svg xmlns="http://www.w3.org/2000/svg" width="24" height="24" viewBox="0 0 24 24">
  <path d="M3096.5,61 C3097.05228,61 3097.5,61.4477153 3097.5,62 C3097.5,62.5128358 3097.11396,62.9355072 3096.61662,62.9932723 L3096.5,63 L3096.21588,63.0005315 L3095.85233,63.0048787 L3095.36279,63.0200849 C3094.21693,63.0717225 3093.63054,63.2281983 3093.02948,63.549645 C3092.38894,63.8922129 3091.89221,64.3889383 3091.54964,65.0294846 C3091.24963,65.5904674 3091.09332,66.1386825 3091.03183,67.140908 L3091.01114,67.5995906 C3091.00861,67.6811241 3091.00653,67.7653141 3091.00488,67.8523309 L3091,68.409713 L3091.00053,71.7841229 L3091.00488,72.1476691 L3091.02008,72.6372102 C3091.07172,73.7830662 3091.2282,74.3694624 3091.54964,74.9705154 C3091.89221,75.6110617 3092.38894,76.1077871 3093.02948,76.450355 C3093.59047,76.7503719 3094.13868,76.9066809 3095.14091,76.9681719 L3095.59959,76.9888626 C3095.68112,76.991391 3095.76531,76.9934713 3095.85233,76.9951213 L3096.40971,77 L3099.59029,77 L3100.14767,76.9951213 L3100.63721,76.9799151 C3101.78307,76.9282775 3102.36946,76.7718017 3102.97052,76.450355 C3103.61106,76.1077871 3104.10779,75.6110617 3104.45036,74.9705154 C3104.75037,74.4095326 3104.90668,73.8613175 3104.96817,72.859092 L3104.98886,72.4004094 C3104.99139,72.3188759 3104.99347,72.2346859 3104.99512,72.1476691 L3105,71.5 C3105,70.9477153 3105.44772,70.5 3106,70.5 C3106.51284,70.5 3106.93551,70.8860402 3106.99327,71.3833789 L3107,71.5 L3107,71.590287 C3107,73.7732933 3106.79729,74.8230261 3106.21398,75.9137131 C3105.68501,76.9027964 3104.9028,77.6850139 3103.91371,78.2139814 C3102.88043,78.7665869 3101.8839,78.9776075 3099.92573,78.9982895 L3099.59029,79 L3096.40971,79 C3094.22671,79 3093.17697,78.7972872 3092.08629,78.2139814 C3091.0972,77.6850139 3090.31499,76.9027964 3089.78602,75.9137131 C3089.23341,74.8804307 3089.02239,73.8839049 3089.00171,71.9257256 L3089,68.409713 C3089,66.2267067 3089.20271,65.1769739 3089.78602,64.0862869 C3090.31499,63.0972036 3091.0972,62.3149861 3092.08629,61.7860186 C3093.11957,61.2334131 3094.1161,61.0223925 3096.07427,61.0017105 L3096.5,61 Z M3098.18405,67.5 C3098.77805,67.5 3099.15092,67.5928256 3099.47685,67.7671327 C3099.80277,67.9414398 3100.05856,68.1972284 3100.23287,68.5231543 C3100.40717,68.8490802 3100.5,69.2219532 3100.5,69.8159514 L3100.5,70.1840486 C3100.5,70.7780468 3100.40717,71.1509198 3100.23287,71.4768457 C3100.05856,71.8027716 3099.80277,72.0585602 3099.47685,72.2328673 C3099.15092,72.4071744 3098.77805,72.5 3098.18405,72.5 L3097.81595,72.5 C3097.22195,72.5 3096.84908,72.4071744 3096.52315,72.2328673 C3096.19723,72.0585602 3095.94144,71.8027716 3095.76713,71.4768457 C3095.59283,71.1509198 3095.5,70.7780468 3095.5,70.1840486 L3095.5,69.8159514 C3095.5,69.2219532 3095.59283,68.8490802 3095.76713,68.5231543 C3095.94144,68.1972284 3096.19723,67.9414398 3096.52315,67.7671327 C3096.84908,67.5928256 3097.22195,67.5 3097.81595,67.5 L3098.18405,67.5 Z M3105.71428,58.7168749 C3105.7053,61.1070587 3106.79299,62.2378689 3109.29939,62.2858837 C3110.24427,62.3039848 3110.22811,63.7178156 3109.28306,63.7143053 C3106.94807,63.7056323 3105.83763,64.8375812 3105.71339,67.321388 C3105.6672,68.2449026 3104.29411,68.2168006 3104.28574,67.2921693 C3104.26357,64.8427942 3103.22026,63.7143103 3100.71429,63.7143103 C3099.76841,63.7143103 3099.75871,62.2987864 3100.7045,62.2858198 C3103.14872,62.2523098 3104.27709,61.1621254 3104.28571,58.7118428 C3104.28936,57.7592655 3105.71763,57.7645091 3105.71428,58.7168749 Z" transform="translate(-3086 -58)"/>
</svg>
