<svg xmlns="http://www.w3.org/2000/svg" width="24" height="24" viewBox="0 0 24 24">
  <path d="M3096.85714,61 C3097.40943,61 3097.85714,61.4477153 3097.85714,62 C3097.85714,62.5128358 3097.4711,62.9355072 3096.97376,62.9932723 L3096.85714,63 L3093.76471,63 C3092.29435,63 3091.09209,64.14781 3091.00505,65.5962877 L3091,65.7647059 L3091,74.2352941 C3091,75.705647 3092.14781,76.9079145 3093.59629,76.9949544 L3093.76471,77 L3102.23529,77 C3103.70565,77 3104.90791,75.85219 3104.99495,74.4037123 L3105,74.2352941 L3105,71.1428571 C3105,70.5905724 3105.44772,70.1428571 3106,70.1428571 C3106.51284,70.1428571 3106.93551,70.5288973 3106.99327,71.026236 L3107,71.1428571 L3107,74.2352941 C3107,76.7956476 3104.98052,78.8843262 3102.44753,78.9953576 L3102.23529,79 L3093.76471,79 C3091.20435,79 3089.11567,76.9805201 3089.00464,74.4475328 L3089,74.2352941 L3089,65.7647059 C3089,63.2043524 3091.01948,61.1156738 3093.55247,61.0046424 L3093.76471,61 L3096.85714,61 Z M3098,67.5 C3099.38071,67.5 3100.5,68.6192881 3100.5,70 C3100.5,71.3807119 3099.38071,72.5 3098,72.5 C3096.61929,72.5 3095.5,71.3807119 3095.5,70 C3095.5,68.6192881 3096.61929,67.5 3098,67.5 Z M3105.71428,58.7168749 C3105.7053,61.1070587 3106.79299,62.2378689 3109.29939,62.2858837 C3110.24427,62.3039848 3110.22811,63.7178156 3109.28306,63.7143053 C3106.94807,63.7056323 3105.83763,64.8375812 3105.71339,67.321388 C3105.6672,68.2449026 3104.29411,68.2168006 3104.28574,67.2921693 C3104.26357,64.8427942 3103.22026,63.7143103 3100.71429,63.7143103 C3099.76841,63.7143103 3099.75871,62.2987864 3100.7045,62.2858198 C3103.14872,62.2523098 3104.27709,61.1621254 3104.28571,58.7118428 C3104.28936,57.7592655 3105.71763,57.7645091 3105.71428,58.7168749 Z" transform="translate(-3086 -58)"/>
</svg>
