<?xml version="1.0" encoding="UTF-8"?>
<svg width="25px" height="24px" viewBox="0 0 25 24" version="1.1" xmlns="http://www.w3.org/2000/svg" xmlns:xlink="http://www.w3.org/1999/xlink">
    <title>adaptation</title>
    <g id="Icons" stroke="none" stroke-width="1" fill="none" fill-rule="evenodd">
        <g transform="translate(-3851.000000, -58.000000)" fill="#000000" fill-rule="nonzero" id="Shape">
            <path d="M3873.239,67.5 C3873.48192,67.5 3873.69786,67.6154882 3873.83493,67.7945544 L3875.28033,69.2396699 C3875.57322,69.5325631 3875.57322,70.0074369 3875.28033,70.3003301 C3875.01406,70.5665966 3874.5974,70.5908027 3874.30379,70.3729482 L3874.21967,70.3003301 L3873.98853,70.069 L3873.989,70.509 C3873.989,72.8482528 3873.2081,75.1209684 3871.77019,76.9805165 C3868.20459,81.5479275 3861.60308,82.3643686 3857.03748,78.8001874 C3856.50323,78.3831194 3856.7567,77.548059 3857.39507,77.4655956 L3857.499,77.459 C3857.67259,77.459 3857.83156,77.5172963 3857.9583,77.6152719 C3861.87285,80.6720147 3867.53179,79.9721454 3870.58569,76.0602181 C3871.74637,74.5591807 3872.40822,72.7433658 3872.48207,70.8623864 L3872.489,70.509 L3872.48853,70.091 L3872.28033,70.3003301 C3872.01406,70.5665966 3871.5974,70.5908027 3871.30379,70.3729482 L3871.21967,70.3003301 C3870.9534,70.0340635 3870.9292,69.6173998 3871.14705,69.3237883 L3871.21967,69.2396699 L3872.59695,67.8621291 C3872.72836,67.6450706 3872.96674,67.5 3873.239,67.5 Z M3864.74702,64 C3865.52801,64 3866.17026,64.5910201 3866.24312,65.3548574 L3866.25,65.5 L3866.25,66.4990106 L3867,66.5 C3868.19086,66.5 3869.16564,67.4251616 3869.24481,68.5959512 L3869.25,68.75 L3869.25,73.2498474 C3869.25,74.4407114 3868.32484,75.4154923 3867.15405,75.4946566 L3867,75.4998474 L3860,75.4998474 C3858.80914,75.4998474 3857.83436,74.5746858 3857.75519,73.4038962 L3857.75,73.2498474 L3857.75,68.75 C3857.75,67.559136 3858.67516,66.5843551 3859.84595,66.5051908 L3860,66.5 L3860.75,66.4990106 L3860.75,65.5 C3860.75,64.7148578 3861.34094,64.0789106 3862.10733,64.00681 L3862.25298,64 L3864.74702,64 Z M3867.75,70.75 L3859.25,70.75 L3859.25,73.2498474 C3859.25,73.6295432 3859.53215,73.9433384 3859.89823,73.9930008 L3860,73.9998474 L3867,73.9998474 C3867.3797,73.9998474 3867.69349,73.7176935 3867.74315,73.351618 L3867.75,73.2498474 L3867.75,70.75 Z M3869.96171,61.2297641 C3870.28813,61.4847573 3870.34603,61.9560874 3870.09104,62.2825095 C3869.83605,62.6089315 3869.36472,62.666836 3869.03829,62.4118428 C3865.11635,59.3481117 3859.45746,60.0413402 3856.40034,63.9574069 C3855.23593,65.4433297 3854.57115,67.2557159 3854.49697,69.132263 L3854.49,69.4848034 L3854.489,69.9540106 L3854.71967,69.7244733 C3854.98594,69.4582068 3855.4026,69.4340007 3855.69621,69.6518552 L3855.78033,69.7244733 C3856.0466,69.9907399 3856.0708,70.4074036 3855.85295,70.7010151 L3855.78033,70.7851335 L3854.28033,72.2851335 C3854.01406,72.5514001 3853.5974,72.5756061 3853.30379,72.3577517 L3853.21967,72.2851335 L3851.71967,70.7851335 C3851.42678,70.4922403 3851.42678,70.0173666 3851.71967,69.7244733 C3851.98594,69.4582068 3852.4026,69.4340007 3852.69621,69.6518552 L3852.78033,69.7244733 L3852.989,69.9330106 L3852.99,69.4848034 C3852.99,67.1478532 3853.77574,64.8748164 3855.21881,63.0332869 C3858.78518,58.4648836 3865.38704,57.65614 3869.96171,61.2297641 Z M3867,68 L3860,68 C3859.6203,68 3859.30651,68.2821539 3859.25685,68.6482294 L3859.25,68.75 L3859.25,69.25 L3867.75,69.25 L3867.75,68.75 C3867.75,68.3703042 3867.46785,68.056509 3867.10177,68.0068466 L3867,68 Z M3864.74702,65.5 L3862.25298,65.5 L3862.252,66.4990106 L3864.746,66.4990106 L3864.74702,65.5 Z"></path>
        </g>
    </g>
</svg>