<?xml version="1.0" encoding="UTF-8"?>
<svg width="25px" height="24px" viewBox="0 0 25 24" version="1.1" xmlns="http://www.w3.org/2000/svg" xmlns:xlink="http://www.w3.org/1999/xlink">
    <title>adaptation-g</title>
    <g id="Icons" stroke="none" stroke-width="1" fill="none" fill-rule="evenodd">
        <g transform="translate(-3878.000000, -58.000000)" fill="#000000" fill-rule="nonzero" id="Shape">
            <path d="M3889.50157,59.5 C3890.05385,59.5 3890.50157,59.9477153 3890.50157,60.5 C3890.50157,61.0128358 3890.11553,61.4355072 3889.61819,61.4932723 L3889.50157,61.5 L3887.875,61.5 C3887.22558,61.5 3886.69519,61.989801 3886.63143,62.621806 L3886.625,62.75 L3886.625,64 L3888.5,64 C3889.05228,64 3889.5,64.4477153 3889.5,65 C3889.5,65.5128358 3889.11396,65.9355072 3888.61662,65.9932723 L3888.5,66 L3883,66 C3882.2203,66 3881.57955,66.5948881 3881.50687,67.35554 L3881.5,67.5 L3881.5,69 L3890.5,69 C3891.05228,69 3891.5,69.4477153 3891.5,70 C3891.5,70.5128358 3891.11396,70.9355072 3890.61662,70.9932723 L3890.5,71 L3881.5,71 L3881.5,76 C3881.5,76.7796961 3882.09489,77.4204487 3882.85554,77.4931334 L3883,77.5 L3896,77.5 C3896.7797,77.5 3897.42045,76.9051119 3897.49313,76.14446 L3897.5,76 L3897.5,73.25 C3897.5,72.6977153 3897.94772,72.25 3898.5,72.25 C3899.01284,72.25 3899.43551,72.6360402 3899.49327,73.1333789 L3899.5,73.25 L3899.5,76 C3899.5,77.8685634 3898.03572,79.3951264 3896.19204,79.4948211 L3896,79.5 L3883,79.5 C3881.13144,79.5 3879.60487,78.0357224 3879.50518,76.1920352 L3879.5,76 L3879.5,67.5 C3879.5,65.6314366 3880.96428,64.1048736 3882.80796,64.0051789 L3883,64 L3884.625,64 L3884.625,62.75 C3884.625,61.0146906 3885.97926,59.600597 3887.69035,59.5051367 L3887.875,59.5 L3889.50157,59.5 Z M3897.552,60.998 L3897.75802,61.0026488 C3900.24498,61.1002603 3902.24605,63.0975078 3902.3553,65.5858707 L3902.36,65.8003288 C3902.36,68.4565572 3900.20474,70.6118209 3897.54851,70.6118209 C3896.07738,70.6118209 3894.70198,69.9464138 3893.77943,68.7932309 C3893.43442,68.361969 3893.50434,67.7326766 3893.9356,67.3876671 C3894.36687,67.0426575 3894.99616,67.1125789 3895.34117,67.5438408 C3895.88534,68.2240611 3896.68685,68.6118209 3897.54851,68.6118209 C3899.10017,68.6118209 3900.36,67.3519877 3900.36,65.8003288 C3900.36,64.3057997 3899.19242,63.0850036 3897.72403,63.0032705 L3897.574,62.999 L3897.41459,63.0115611 C3896.65548,63.091744 3895.976,63.4535401 3895.49354,63.9997115 L3895.6,64 C3896.11284,64 3896.53551,64.3860402 3896.59327,64.8833789 L3896.6,65 C3896.6,65.5128358 3896.21396,65.9355072 3895.71662,65.9932723 L3895.6,66 L3893.25,66 C3892.73716,66 3892.31449,65.6139598 3892.25673,65.1166211 L3892.25,65 L3892.25,62 C3892.25,61.4477153 3892.69772,61 3893.25,61 C3893.76284,61 3894.18551,61.3860402 3894.24327,61.8833789 L3894.25,62 L3894.24872,62.4086068 C3895.04893,61.628394 3896.10874,61.1221806 3897.27485,61.0156799 L3897.552,60.998 Z"></path>
        </g>
    </g>
</svg>