<svg xmlns="http://www.w3.org/2000/svg" width="24" height="24" viewBox="0 0 24 24">
  <path d="M12,1.99994667 C17.52,1.99994667 22,6.47994667 22,11.9999467 C22,17.5199467 17.52,21.9999467 12,21.9999467 C6.48,21.9999467 2,17.5199467 2,11.9999467 C2,6.47994667 6.48,1.99994667 12,1.99994667 Z M11,11.0011908 L7.5,11.0011908 C6.94771525,11.0011908 6.5,11.448906 6.5,12.0011908 C6.5,12.5534755 6.94771525,13.0011908 7.5,13.0011908 L11,13.0011908 L11,16.5 C11,17.0522847 11.4477153,17.5 12,17.5 C12.5522847,17.5 13,17.0522847 13,16.5 L13,13.0011908 L16.5,13.0011908 C17.0522847,13.0011908 17.5,12.5534755 17.5,12.0011908 C17.5,11.448906 17.0522847,11.0011908 16.5,11.0011908 L13,11.0011908 L13,7.5 C13,6.94771525 12.5522847,6.5 12,6.5 C11.4477153,6.5 11,6.94771525 11,7.5 L11,11.0011908 Z"/>
</svg>
