<svg xmlns="http://www.w3.org/2000/svg" width="24" height="24" viewBox="0 0 24 24">
  <path d="M6.7271994,9.23727728 C7.04025985,9.50850786 7.07416965,9.98216933 6.80293907,10.2952298 C6.53170848,10.6082902 6.05804701,10.6422 5.74498656,10.3709694 C3.59296062,8.50648845 5.19858433,4.98326876 8.01740616,5.38418876 L8.38793441,5.43679932 C8.51489153,5.45484123 8.63243666,5.36654759 8.65047888,5.23958753 C8.65279274,5.22330538 8.6533701,5.20682391 8.65233831,5.1923099 L8.62460201,4.81638975 C8.4238715,1.97564889 12.0483839,0.621452363 13.7587176,2.89803814 L13.9835257,3.19711934 C14.0605626,3.29963186 14.2061183,3.32028398 14.308632,3.24324661 C14.3217794,3.23336646 14.3338403,3.22211699 14.3446689,3.20962147 L14.5896192,2.92702957 C16.4541004,0.77500372 19.9773201,2.3806274 19.5764001,5.19944921 L19.5237895,5.56997746 C19.5057477,5.69693425 19.5940415,5.81447957 19.7210013,5.83252201 C19.7372835,5.83483587 19.7537649,5.83541323 19.768279,5.83438143 L20.1441991,5.80664514 C22.9853299,5.60588711 24.3404157,9.2302286 22.0625507,10.9407608 L21.7634695,11.1655688 C21.6609569,11.2426058 21.6403048,11.3881617 21.7173421,11.4906752 C21.7272222,11.5038226 21.7384717,11.5158836 21.7509672,11.5267121 L22.0335591,11.7716624 C24.1855851,13.6361434 22.5799613,17.1593631 19.7611395,16.7584431 L19.3907003,16.7058452 C18.9806,16.6476159 18.6953523,16.2679598 18.7535816,15.8578595 C18.8118109,15.4477593 19.191467,15.1625115 19.6015672,15.2207408 L19.9721824,15.2733637 C21.3100349,15.463646 22.0726644,13.7902084 21.051212,12.9052383 L20.7685526,12.6602294 C20.6758317,12.5798782 20.5919097,12.4899027 20.5181986,12.3918161 C19.9434766,11.6270331 20.0975467,10.5411501 20.8622611,9.9664761 L21.1615538,9.74150917 C22.243562,8.92898952 21.5999314,7.20752129 20.2522573,7.30274607 L19.8767789,7.33045101 C19.7543953,7.33917143 19.6314306,7.33486385 19.5099556,7.31760104 C18.5628107,7.18300088 17.9041115,6.30607679 18.0386977,5.3590215 L18.0913206,4.98840638 C18.2816029,3.65055379 16.6081652,2.88792432 15.723195,3.90937671 L15.4781862,4.19203607 C15.3978349,4.28475701 15.3078595,4.36867897 15.209773,4.44239004 C14.44499,5.01711225 13.359107,4.8630421 12.784433,4.09832784 L12.5595624,3.79916342 C11.7472785,2.71795095 10.0255191,3.3612376 10.1207029,4.70833156 L10.1484079,5.08380993 C10.1571283,5.20619357 10.1528207,5.32915822 10.1355581,5.45063174 C10.0009597,6.39777781 9.12403425,7.05647746 8.17697844,6.92189109 L7.80636332,6.86926818 C6.46851073,6.67898591 5.70588127,8.35242352 6.7271994,9.23727728 Z M16.7158303,14.33043 C16.4224953,14.6228808 15.9476221,14.622164 15.6551713,14.3288291 C15.3627205,14.0354941 15.3634373,13.5606209 15.6567722,13.2681701 C15.6871225,13.2379113 15.7167025,13.2068927 15.7454805,13.1751465 C15.8024302,13.1123228 15.8561924,13.0467015 15.9065417,12.9785407 C16.0053186,12.8448206 16.0906593,12.7017374 16.1612044,12.551246 C16.2981208,12.2591672 16.3780676,11.9420657 16.3953859,11.6116141 C16.4684255,10.217935 15.3978357,9.02892458 14.0041566,8.95588495 C13.2905587,8.91848687 12.6107896,9.18041123 12.1086145,9.66930415 C11.8787429,9.89309569 11.6931548,10.1583157 11.5627193,10.4509882 C11.4998444,10.5920677 11.4500305,10.7389459 11.4140062,10.8902309 C11.3180554,11.2931779 10.9136188,11.5420476 10.5106718,11.4460968 C10.1077247,11.3501461 9.85885506,10.9457095 9.95480581,10.5427625 C10.012383,10.3009658 10.0920677,10.0660121 10.1926262,9.84037815 C10.4008678,9.37312341 10.6965597,8.95055637 11.0622632,8.59452556 C11.8609811,7.81693331 12.947119,7.39842944 14.0826605,7.45794065 C16.3036314,7.5743368 18.0097263,9.46914717 17.8933302,11.6901181 C17.8658365,12.2147291 17.7381255,12.7212819 17.519385,13.1879134 C17.4067028,13.4282947 17.2705187,13.6566223 17.1130635,13.8697787 C17.032924,13.9782683 16.9473921,14.0826672 16.8568216,14.1825793 C16.8110767,14.2330424 16.7640633,14.2823423 16.7158303,14.33043 Z M1.47041127,20.2265967 C1.3444946,20.6216212 0.921216125,20.8400852 0.524992331,20.7145496 C0.128768536,20.5890141 -0.090358686,20.1670167 0.0355579819,19.7719922 C1.50493524,15.1622761 3.82653729,12.75 7.00749469,12.75 C9.2584581,12.75 10.4883054,13.2800166 11.8772524,14.5793565 C12.032838,14.7249045 12.6580862,15.3336423 12.8246314,15.4898806 C13.2046459,15.8463769 13.5452123,16.1357791 13.9213643,16.4124139 C14.1895581,16.6096527 14.4703725,16.795635 14.7712314,16.9733428 C17.3406358,18.4910084 20.1612143,19.2487904 23.2472175,19.2487904 C23.6629678,19.2487904 24,19.5848025 24,19.9992944 C24,20.4137864 23.6629678,20.7497985 23.2472175,20.7497985 C19.8933341,20.7497985 16.8074503,19.9207391 14.0038165,18.2647217 C13.6589566,18.0610239 13.3360327,17.8471526 13.0276175,17.6203336 C12.5982941,17.3045948 12.2135325,16.977637 11.7928959,16.5830324 C11.6125292,16.4138281 10.9882867,15.8060694 10.8470523,15.6739468 C9.72600375,14.6252221 8.85768004,14.2510081 7.00749469,14.2510081 C4.61114811,14.2510081 2.76307678,16.1712589 1.47041127,20.2265967 Z"/>
</svg>
