<?xml version="1.0" encoding="UTF-8"?>
<svg width="24px" height="24px" viewBox="0 0 24 24" version="1.1" xmlns="http://www.w3.org/2000/svg" xmlns:xlink="http://www.w3.org/1999/xlink">
    <title>agreement</title>
    <g id="Icons" stroke="none" stroke-width="1" fill="none" fill-rule="evenodd">
        <g transform="translate(-3401.000000, -74.000000)" fill="#000000" fill-rule="nonzero" id="Shape">
            <path d="M3418.75284,78.7148424 C3419.99548,78.7148424 3421.00284,79.7223632 3421.00284,80.965203 L3421.00284,84.9592431 C3423.09021,86.7493041 3423.97028,87.850331 3424.00296,89.2563036 L3424.00283,93.6319867 L3424.84053,95.3195511 C3425.09787,95.6441845 3425.04335,96.1159942 3424.71877,96.3733675 C3424.39419,96.6307407 3423.92246,96.5762155 3423.66512,96.2515821 L3422.66513,94.3592789 C3422.56003,94.2266927 3422.50283,94.0624628 3422.50283,93.8932634 L3422.50305,89.4085582 C3422.51964,88.7168828 3422.08337,88.0115804 3421.00284,86.9771137 L3421.00284,90.6227393 C3421.00284,91.2951193 3420.18652,91.6279136 3419.71655,91.1471276 L3417.96563,89.3558946 C3417.78524,89.1706902 3417.48888,89.1668184 3417.30371,89.3472464 C3417.11853,89.5276749 3417.11466,89.8240781 3417.29321,90.007387 L3420.0482,92.815837 C3420.18577,92.9560788 3420.26284,93.1447058 3420.26284,93.3411749 L3420.26284,94.7376455 C3420.39957,95.4864665 3420.68907,96.1993328 3421.11353,96.8317021 C3421.34441,97.1756618 3421.25278,97.6416861 3420.90887,97.8725964 C3420.56497,98.1035068 3420.09902,98.0118622 3419.86815,97.6679025 C3419.31425,96.8426994 3418.94123,95.9096116 3418.77359,94.9299504 L3418.76284,94.8034092 L3418.76284,93.6477063 L3416.22064,91.0561659 C3415.46216,90.2774775 3415.47843,89.0312575 3416.25699,88.2726502 C3417.03555,87.5140453 3418.28157,87.5303242 3419.03913,88.3080643 L3419.50284,88.7824511 L3419.50284,80.965203 C3419.50284,80.5509232 3419.16706,80.2150828 3418.75284,80.2150828 L3411.25286,80.2150828 C3410.83865,80.2150828 3410.50286,79.8792425 3410.50286,79.4649626 C3410.50286,79.0506826 3410.83865,78.7148424 3411.25286,78.7148424 L3418.75284,78.7148424 Z M3406.13872,74.3321107 C3406.69347,75.1586315 3407.06658,76.0934653 3407.2334,77.074864 L3407.24401,77.2005888 L3407.24401,78.3575317 L3409.78222,80.9478322 C3410.5407,81.7265206 3410.52442,82.9727406 3409.74586,83.7313479 C3409.05903,84.4005746 3408.0084,84.4667533 3407.25001,83.9388381 L3407.25001,91.8961781 C3407.25001,92.3104582 3407.5858,92.6462986 3408.00001,92.6462986 L3415.24999,92.6462986 C3415.66421,92.6462986 3416,92.9821389 3416,93.3964188 C3416,93.8106988 3415.66421,94.146539 3415.24999,94.146539 L3408.00001,94.146539 C3406.75737,94.146539 3405.75002,93.1390182 3405.75002,91.8961782 L3405.75002,87.6794969 L3404.99431,87.0405968 L3404.50991,86.6182933 C3402.81715,85.1110738 3402.0366,84.0378127 3402.00037,82.7538961 L3402.00003,78.3710111 L3401.16232,76.6834467 C3400.90499,76.3588132 3400.95951,75.8870036 3401.28409,75.6296303 C3401.60867,75.3722571 3402.0804,75.4267822 3402.33773,75.7514157 L3403.33773,77.6437189 C3403.44283,77.7763051 3403.50002,77.940535 3403.50002,78.1097344 L3403.49981,82.5952206 C3403.48016,83.4247129 3404.14569,84.3129135 3405.75002,85.711189 L3405.75002,82.4525207 L3405.19436,81.8832632 C3404.905,81.5868269 3404.91071,81.1119113 3405.20709,80.8225096 C3405.50348,80.5331078 3405.97832,80.5388105 3406.26767,80.8352469 L3406.97007,81.5548313 C3407.01688,81.592537 3407.05908,81.6357533 3407.09566,81.683495 L3408.03722,82.6481033 C3408.21762,82.8333077 3408.51398,82.8371795 3408.69915,82.6567516 C3408.88433,82.4763231 3408.8882,82.1799199 3408.70936,81.9963173 L3405.95837,79.1888675 C3405.82097,79.048652 3405.74402,78.86015 3405.74402,78.6638233 L3405.74402,77.2659244 C3405.60795,76.5157993 3405.31841,75.8016265 3404.89332,75.1682847 C3404.66245,74.8243201 3404.75409,74.3582978 3405.098,74.1273947 C3405.44191,73.8964916 3405.90785,73.9881461 3406.13872,74.3321107 Z M3416.63829,83.9369276 C3416.94926,84.2105452 3416.97955,84.6844522 3416.70593,84.9954285 L3413.18646,88.9954285 C3412.88781,89.3348572 3412.35897,89.3348572 3412.06032,88.9954285 L3410.43693,87.1503857 C3410.16331,86.8394094 3410.1936,86.3655023 3410.50457,86.0918847 C3410.81555,85.8182671 3411.28945,85.8485523 3411.56307,86.1595286 L3412.623,87.364 L3415.57978,84.0045715 C3415.8534,83.6935951 3416.32731,83.6633099 3416.63829,83.9369276 Z"></path>
        </g>
    </g>
</svg>