<svg xmlns="http://www.w3.org/2000/svg" width="24" height="24" viewBox="0 0 24 24">
  <path d="M27,76 C27,76.55 27.45,77 28,77 L29,77 L29,80.5 C29,81.33 29.67,82 30.5,82 C31.33,82 32,81.33 32,80.5 L32,77 L34,77 L34,80.5 C34,81.33 34.67,82 35.5,82 C36.33,82 37,81.33 37,80.5 L37,77 L38,77 C38.55,77 39,76.55 39,76 L39,66 L27,66 L27,76 Z M24.5,66 C23.67,66 23,66.67 23,67.5 L23,74.5 C23,75.33 23.67,76 24.5,76 C25.33,76 26,75.33 26,74.5 L26,67.5 C26,66.67 25.33,66 24.5,66 Z M41.5,66 C40.67,66 40,66.67 40,67.5 L40,74.5 C40,75.33 40.67,76 41.5,76 C42.33,76 43,75.33 43,74.5 L43,67.5 C43,66.67 42.33,66 41.5,66 Z M36.53,60.16 L37.83,58.86 C38.03,58.66 38.03,58.35 37.83,58.15 C37.63,57.95 37.32,57.95 37.12,58.15 L35.64,59.63 C34.8216872,59.2155872 33.9172642,58.999759 32.9999998,59 C32.04,59 31.14,59.23 30.34,59.63 L28.85,58.15 C28.65,57.95 28.34,57.95 28.14,58.15 C27.94,58.35 27.94,58.66 28.14,58.86 L29.45,60.17 C27.9096786,61.2970539 26.9995145,63.0913774 26.9999998,65 L38.9999998,65 C38.9999998,63.01 38.03,61.25 36.53,60.16 L36.53,60.16 Z M31,63 L30,63 L30,62 L31,62 L31,63 Z M36,63 L35,63 L35,62 L36,62 L36,63 Z" transform="translate(-21 -58)"/>
</svg>
