<svg xmlns="http://www.w3.org/2000/svg" width="24" height="24" viewBox="0 0 24 24">
  <path fill-rule="evenodd" d="M68.1720131,74.5555572 C66.8469459,74.0533391 65.9597631,72.8496759 65.8601496,71.4156565 C65.7615737,70.0148416 66.4474542,68.7738233 67.6936607,68.0910557 L68.7292261,67.5234663 L67.9893883,66.6020413 C66.7462948,65.0549191 64.9677786,64.1293436 63.2318057,64.1293436 C62.0281425,64.1293436 61.1928418,64.4447863 60.5225259,64.6979707 C60.0493617,64.8774825 59.6758111,65.017564 59.265943,65.017564 C58.7979671,65.017564 58.336217,64.8536168 57.801832,64.6626909 C57.1003869,64.4136571 56.3055541,64.1303812 55.2855533,64.1303812 C53.314036,64.1303812 51.3269541,65.3070658 50.0983875,67.1986847 C48.2648764,70.0210674 48.7691698,74.859586 51.2947872,78.7040447 C52.2961105,80.2273013 53.7000383,81.9778011 55.6881579,81.995441 L55.7265506,81.995441 C57.3535712,81.995441 57.7105196,81.1279734 59.2898088,81.117597 C61.0154052,81.1995706 61.2333098,82.0027045 62.8447658,81.9912904 C64.7872291,81.9736505 66.1880441,80.2376777 67.3014325,78.5411351 C67.9592967,77.5429248 68.2135187,77.0209915 68.7250756,75.8878879 L69.159847,74.9270326 L68.1720131,74.553482 L68.1720131,74.5555572 Z M62.968245,61.1834816 C63.6115822,60.3575197 64.0992734,59.1912115 63.9228744,58 C62.8707068,58.0726348 61.6421402,58.7408755 60.9240928,59.6124936 C60.2724545,60.4042135 59.7349566,61.5767475 59.9435224,62.7181522 C61.091153,62.753432 62.2782139,62.0685892 62.968245,61.1834816 L62.968245,61.1834816 Z" transform="translate(-47 -58)"/>
</svg>
