<svg xmlns="http://www.w3.org/2000/svg" width="24" height="24" viewBox="0 0 24 24">
  <path d="M554.475612,77.2000003 C554.475612,77.0895433 554.383885,77.0000003 554.270734,77.0000003 L548.957073,77.0000004 C548.809736,76.9998862 548.676174,77.0845581 548.651879,77.1266256 L547.588431,80.7366752 C547.552604,80.8414493 547.610569,80.954737 547.717898,80.9897104 C547.738813,80.9965256 547.760718,81.0000002 547.782767,81.0000002 L554.270734,81.0000005 C554.383885,81.0000006 554.475612,80.9104575 554.475612,80.8000006 L554.475612,77.2000003 Z M563.21905,81.0000005 C563.3322,81.0000005 563.423927,80.9104575 563.423927,80.8000005 C563.423927,80.7785192 563.420382,80.7571782 563.413428,80.7367977 L562.382711,77.2159987 C562.32293,77.0846388 562.189491,76.9999825 562.042113,77.0000007 L556.729265,77.0000006 C556.616114,77.0000006 556.524387,77.0895436 556.524387,77.2000006 L556.524387,80.8000005 C556.524387,80.9104575 556.616114,81.0000005 556.729265,81.0000005 L563.21905,81.0000005 Z M545.000024,82.5579455 C545.000024,82.3981974 544.997266,82.242517 545.051243,82.0846614 L546.744034,76.404002 C547.132856,75.5496276 548.001006,74.9992589 548.957886,75.0000007 L562.041983,75.0000008 C562.999091,74.9998822 563.866451,75.5501506 564.290509,76.493237 L565.948756,82.0845226 C566.002773,82.2424198 565.999975,82.3857758 565.999975,82.5579451 L565.999975,93.7 C565.999975,94.9677384 564.942539,96 563.643883,96 L547.356116,96 C546.05746,96 545.000024,94.9677384 545.000024,93.7 L545.000024,82.5579455 Z M552.738702,88.1543494 C552.366445,87.7463754 551.733942,87.7174215 551.325968,88.089679 C550.917994,88.4619365 550.88904,89.0944392 551.261298,89.5024131 L553.470914,91.9240319 C553.867488,92.358656 554.551744,92.358656 554.948318,91.9240319 L559.738702,86.6740319 C560.11096,86.2660579 560.082006,85.6335553 559.674032,85.2612978 C559.266058,84.8890402 558.633555,84.9179941 558.261298,85.3259681 L554.209616,89.7663907 L552.738702,88.1543494 Z" transform="translate(-543 -74)"/>
</svg>
