<?xml version="1.0" encoding="UTF-8"?>
<svg width="24px" height="24px" viewBox="0 0 24 24" version="1.1" xmlns="http://www.w3.org/2000/svg" xmlns:xlink="http://www.w3.org/1999/xlink">
    <!-- Generator: Sketch 54.1 (76490) - https://sketchapp.com -->
    <title>bell copy 6</title>
    <desc>Created with Sketch.</desc>
    <g id="Icons" stroke="none" stroke-width="1" fill="none" fill-rule="evenodd">
        <path d="M20.54,5.23 L19.15,3.55 C18.88,3.21 18.47,3 18,3 L6,3 C5.53,3 5.12,3.21 4.84,3.55 L3.46,5.23 C3.17,5.57 3,6.02 3,6.5 L3,19 C3,20.1 3.9,21 5,21 L19,21 C20.1,21 21,20.1 21,19 L21,6.5 C21,6.02 20.83,5.57 20.54,5.23 Z M6.24,5 L17.76,5 L18.57,5.97 L5.44,5.97 L6.24,5 Z M5,19 L5,8 L19,8 L19,19 L5,19 Z M13.45,10 L10.55,10 L10.55,13 L8,13 L12,17 L16,13 L13.45,13 L13.45,10 L13.45,10 Z" id="Shape" fill="#1D1D1D"></path>
    </g>
</svg>