<svg xmlns="http://www.w3.org/2000/svg" width="24" height="24" viewBox="0 0 24 24">
  <path d="M13,15.5911344 L14.2928932,14.3002664 C14.6834175,13.9103538 15.3165825,13.9103538 15.7071068,14.3002664 C16.0976311,14.690179 16.0976311,15.3223522 15.7071068,15.7122648 L12.7071068,18.7075656 C12.3165825,19.0974781 11.6834175,19.0974781 11.2928932,18.7075656 L8.29289322,15.7122648 C7.90236893,15.3223522 7.90236893,14.690179 8.29289322,14.3002664 C8.68341751,13.9103538 9.31658249,13.9103538 9.70710678,14.3002664 L11,15.5911344 L11,11.4984336 C11,10.947014 11.4477153,10.5 12,10.5 C12.5522847,10.5 13,10.947014 13,11.4984336 L13,15.5911344 L13,15.5911344 Z M11,3 L5.61284245,3.00000012 C5.46901295,2.99988594 5.33863154,3.08455777 5.27901977,3.21872858 L4,6 L11,6 L11,3 Z M20,6.0000003 L18.7188533,3.21599837 C18.6604953,3.08463854 18.5302328,2.99998219 18.3863636,3.00000043 L13,3.0000003 L13,6.0000003 L20,6.0000003 Z M1.30003794,7.21023688 L3.45248996,2.40400167 C3.83205538,1.54962729 4.67953725,0.999258565 5.61363631,1.00000043 L18.3862367,1.00000044 C19.3205589,0.999881892 20.1672686,1.55015025 20.5462811,2.40328247 L22.6447377,7.1167528 C22.8699288,7.4787019 23,7.90598031 23,8.36363668 L23,20.636364 C23,21.9417578 21.9417575,23.0000003 20.6363636,23.0000003 L3.36363636,23.0000003 C2.05824252,23.0000003 1,21.9417578 1,20.636364 L1,8.36363668 C1,7.94479619 1.10894302,7.55139921 1.30003794,7.21023688 Z M3,8.36363668 L3,20.636364 C3,20.8371883 3.16281202,21.0000003 3.36363636,21.0000003 L20.6363636,21.0000003 C20.837188,21.0000003 21,20.8371883 21,20.636364 L21,8.36363668 C21,8.29186896 20.9792072,8.22495579 20.9433175,8.16859295 C20.9391638,8.16262436 20.9350686,8.15660023 20.9310329,8.15052098 C20.8649592,8.05932339 20.7575866,8.00000032 20.6363636,8.00000032 L3.36363636,8.00000032 C3.23986058,8.00000032 3.13052465,8.06184825 3.06484801,8.15632469 C3.05517595,8.17431315 3.04501614,8.19189782 3.03439262,8.20906954 C3.01233132,8.25597865 3,8.30836815 3,8.36363668 Z"/>
</svg>
