<?xml version="1.0" encoding="UTF-8"?>
<svg width="24px" height="24px" viewBox="0 0 24 24" version="1.1" xmlns="http://www.w3.org/2000/svg" xmlns:xlink="http://www.w3.org/1999/xlink">
    <title>archive-g</title>
    <g id="Icons" stroke="none" stroke-width="1" fill="none" fill-rule="evenodd">
        <g transform="translate(-543.000000, -74.000000)" fill="#000000" fill-rule="nonzero" id="Shape">
            <path d="M553.975612,76.9999907 L547.957073,76.9999907 C547.809736,76.9998862 547.676174,77.0845581 547.651879,77.1266256 L546.588431,80.7366752 C546.552604,80.8414493 546.610569,80.954737 546.717898,80.9897104 C546.738813,80.9965256 546.760718,80.9999907 546.782767,80.9999907 L553.975612,80.9999907 L553.975612,76.9999907 Z M563.21905,81.0000006 C563.3322,81.0000006 563.423927,80.9104575 563.423927,80.8000005 L563.421285,80.7679863 L563.421285,80.7679863 L562.382711,77.2159987 C562.32293,77.0846388 562.189491,77.0000006 562.042113,77.0000006 L556.024387,77.0000006 L556.024387,81.0000006 L563.21905,81.0000006 Z M544.181185,81.4187047 L545.744034,76.404002 C546.132856,75.5496276 547.001006,74.9992589 547.957886,74.9999933 L562.041983,74.9999933 C562.999091,74.9999933 563.866451,75.5501506 564.290509,76.493237 L565.820139,81.4206819 C565.939348,81.8046948 565.999975,82.2044871 565.999975,82.6065777 L565.999975,93.7 C565.999975,94.9677384 564.942539,95.9999933 563.643883,95.9999933 L546.356116,95.9999933 C545.05746,95.9999933 544.000024,94.9677384 544.000024,93.7 L544.000024,82.608859 C544.000024,82.2052734 544.061102,81.8040119 544.181185,81.4187047 Z M552.738702,87.6543494 C552.366445,87.2463754 551.733942,87.2174215 551.325968,87.589679 C550.917994,87.9619365 550.88904,88.5944392 551.261298,89.0024131 L553.470914,91.4240319 C553.867488,91.858656 554.551744,91.858656 554.948318,91.4240319 L559.738702,86.1740319 C560.11096,85.7660579 560.082006,85.1335553 559.674032,84.7612978 C559.266058,84.3890402 558.633555,84.4179941 558.261298,84.8259681 L554.209616,89.2663907 L552.738702,87.6543494 Z"></path>
        </g>
    </g>
</svg>