<?xml version="1.0" encoding="UTF-8"?>
<svg width="25px" height="24px" viewBox="0 0 25 24" version="1.1" xmlns="http://www.w3.org/2000/svg" xmlns:xlink="http://www.w3.org/1999/xlink">
    <!-- Generator: Sketch 54.1 (76490) - https://sketchapp.com -->
    <title>bell copy 63</title>
    <desc>Created with Sketch.</desc>
    <g id="Icons" stroke="none" stroke-width="1" fill="none" fill-rule="evenodd">
        <path d="M2.75001827,11.7080599 L2.75001827,4.68335802 C2.74499284,3.75075968 3.28685714,2.90157225 4.15120941,2.50604754 C6.86500118,1.32153446 9.79834702,0.723438669 12.7407062,0.750904872 C15.7016222,0.723439 18.634959,1.32153357 21.3649725,2.51329829 C22.2140663,2.90201037 22.7561742,3.75264352 22.7499529,4.67977807 L22.7499529,11.7080747 C22.7498824,16.669374 19.6944974,21.1182789 15.0636514,22.8996384 L14.1030548,23.2687436 C13.2320615,23.6037652 12.2677481,23.6037652 11.397074,23.2688678 L10.4357859,22.8994967 C5.80533899,21.1181683 2.75001902,16.6692379 2.75001827,11.7080599 Z M4.74999228,4.67308526 L4.75001827,4.67977744 L4.75001827,11.7080598 C4.75001889,15.841743 7.29574163,19.5486357 11.1535116,21.0327161 L12.1147529,21.4020692 C12.5235858,21.5593233 12.9762217,21.5593233 13.3853746,21.4019456 L14.3459472,21.0328495 C18.2041204,19.548716 20.7498941,15.8418491 20.7499529,11.7080605 L20.7499752,4.67309203 C20.7509558,4.52643467 20.6658186,4.39284406 20.5486883,4.33904869 C18.0929725,3.2671812 15.4385936,2.72596494 12.7407061,2.75081883 C10.0613755,2.72596464 7.40698789,3.26718212 4.96749451,4.33179753 C4.83414745,4.39284344 4.74901127,4.52643273 4.74999228,4.67308526 Z M11.3999947,10.285375 L11.3999947,7.13537499 L14.0999947,7.13537499 L14.0999947,10.285375 L17.2499947,10.285375 L17.2499947,12.985375 L14.0999947,12.985375 L14.0999947,16.135375 L11.3999947,16.135375 L11.3999947,12.985375 L8.24999473,12.985375 L8.24999473,10.285375 L11.3999947,10.285375 Z" id="Shape" fill="#000000" fill-rule="nonzero"></path>
    </g>
</svg>