<?xml version="1.0" encoding="UTF-8"?>
<svg width="25px" height="24px" viewBox="0 0 25 24" version="1.1" xmlns="http://www.w3.org/2000/svg" xmlns:xlink="http://www.w3.org/1999/xlink">
    <!-- Generator: Sketch 54.1 (76490) - https://sketchapp.com -->
    <title>bell copy 62</title>
    <desc>Created with Sketch.</desc>
    <g id="Icons" stroke="none" stroke-width="1" fill="none" fill-rule="evenodd">
        <path d="M6.05034544,16.2529936 C5.80054626,15.9225798 5.86589729,15.4522243 6.19631105,15.2024251 C6.5267248,14.952626 6.99708031,15.017977 7.24687948,15.3483907 C8.18308294,16.5867235 9.44553835,17.5399975 10.8910813,18.1007732 L11.6909106,18.4087075 C12.0505303,18.5470604 12.448694,18.5470604 12.8081437,18.4087733 L13.6062507,18.101505 C15.0535242,17.5398032 16.3159884,16.5865212 17.252416,15.3482967 C17.5022671,15.0179222 17.9726329,14.9526451 18.3030074,15.2024962 C18.6333819,15.4523474 18.698659,15.9227131 18.4488078,16.2530876 C17.3445008,17.7132966 15.8557081,18.8374784 14.1470813,19.5006112 L13.34691,19.8086771 C12.6406109,20.0804039 11.8586126,20.0804039 11.1521437,19.8086111 L10.3503587,19.4999213 C8.64340784,18.8377396 7.15448987,17.7134648 6.05034544,16.2529936 Z M20.3957914,11.6017228 C20.3361278,12.0116168 19.9554762,12.2955347 19.5455821,12.2358711 C19.1356881,12.1762076 18.8517702,11.7955559 18.9114337,11.3856618 C18.9664404,11.0077611 18.9955758,10.6265477 18.9986126,10.2506908 L18.9986288,5.18675716 C18.9996502,5.03149081 18.9096165,4.89002898 18.7817733,4.83114473 C16.7240675,3.9336752 14.5002119,3.48031144 12.2418116,3.50065557 C9.99700166,3.4803117 7.77314638,3.93367503 5.7286917,4.82521273 C5.58760225,4.89002739 5.49756997,5.03148761 5.49860838,5.19168635 L5.49855447,10.2416939 C5.50313445,10.6236518 5.53380288,11.0048661 5.59034458,11.3826574 C5.65165453,11.7923084 5.36926829,12.1740977 4.95961726,12.2354077 C4.54996623,12.2967176 4.16817692,12.0143314 4.10686697,11.6046804 C4.0402141,11.1593299 4.00406133,10.7099442 3.99860838,10.2506863 L3.99862464,5.19662388 C3.9937208,4.4517592 4.42564842,3.77310736 5.11577183,3.45622825 C7.36683152,2.4744263 9.79965653,1.97846164 12.2418115,2.00071716 C14.697557,1.97846135 17.1303821,2.47442646 19.3946937,3.46216048 C20.0715683,3.77310875 20.5034963,4.4517579 20.4986126,5.19169079 L20.4985885,10.2567023 C20.4949802,10.7068592 20.4606347,11.1562438 20.3957914,11.6017228 Z M0.355492555,21.8648205 L2.23755862,18.7280442 L0.582587427,17.62473 C-0.0348404601,17.2131114 0.256556605,16.2506923 0.998612575,16.2506923 C2.05077676,16.2506923 2.83189403,15.785703 3.42031627,14.9795262 C3.63453185,14.6860369 3.80637984,14.3677402 3.93780741,14.0496956 C4.01507284,13.8627191 4.06002993,13.7234309 4.07685275,13.6574353 C4.17916738,13.2560569 4.58749122,13.0136179 4.98886959,13.1159325 C5.39024796,13.2182471 5.63268702,13.6265709 5.5303724,14.0279493 C5.40817529,14.5073263 5.12909325,15.1826834 4.63190888,15.8638584 C4.15734222,16.5140456 3.57236118,17.0252089 2.87549393,17.3505587 L3.66463772,17.8766546 C3.99774448,18.0987257 4.09770781,18.5432716 3.89173224,18.8865642 L2.44484724,21.2980388 C3.99404273,20.9217821 5.39370125,20.0485537 6.4169053,18.7912823 C6.67836244,18.4700144 7.15075439,18.4215282 7.47202225,18.6829854 C7.79329011,18.9444425 7.84177629,19.4168345 7.58031915,19.7381023 C5.96778366,21.7195201 3.57853674,22.9085682 1.02551637,23.0002096 C0.430846508,23.0215555 0.0493403568,22.375074 0.355492555,21.8648205 Z M20.8325874,17.8766546 L21.620947,17.3510815 C20.9230593,17.0257136 20.3376427,16.5142508 19.8632129,15.8635453 C19.3663756,15.1821068 19.088079,14.5064931 18.966578,14.0268682 C18.8648605,13.6253382 19.1079065,13.2173753 19.5094366,13.1156578 C19.9109667,13.0139402 20.3189295,13.2569863 20.4206471,13.6585164 C20.4373415,13.7244174 20.4820621,13.8636068 20.5590371,14.0504772 C20.6899798,14.3683635 20.8613896,14.6865017 21.0752623,14.9798393 C21.6628668,15.7857699 22.4442398,16.2506923 23.4986126,16.2506923 C24.2406685,16.2506923 24.5320656,17.2131114 23.9146377,17.62473 L22.2596665,18.7280442 L24.1417323,21.8648205 C24.4478844,22.3750741 24.0663782,23.0215555 23.4717084,23.0002096 C20.9186876,22.9085679 18.5294407,21.71952 16.9169053,19.7381023 C16.6554482,19.4168345 16.7039343,18.9444425 17.0252022,18.6829854 C17.3464701,18.4215282 17.818862,18.4700144 18.0803191,18.7912823 C19.1035232,20.0485537 20.5031818,20.9217821 22.0523777,21.2980388 L20.6054929,18.8865641 C20.3995173,18.5432716 20.4994807,18.0987257 20.8325874,17.8766546 Z M11.2746122,9.2756923 L11.2746122,7.0006923 L13.2246122,7.0006923 L13.2246122,9.2756923 L15.4996122,9.2756923 L15.4996122,11.2256923 L13.2246122,11.2256923 L13.2246122,13.5006923 L11.2746122,13.5006923 L11.2746122,11.2256923 L8.9996122,11.2256923 L8.9996122,9.2756923 L11.2746122,9.2756923 Z" id="Shape" fill="#000000" fill-rule="nonzero"></path>
    </g>
</svg>