<svg xmlns="http://www.w3.org/2000/svg" width="24" height="24" viewBox="0 0 24 24">
  <path d="M11.4157966,12.2457983 L14.9557966,8.70579828 L14.9557966,8.70579827 C15.3435206,8.31576127 15.3435206,7.68583827 14.9557966,7.29579827 L14.9557966,7.29579824 C14.5668766,6.90367624 13.9337166,6.90108024 13.5415966,7.28999998 C13.5396559,7.29192482 13.5377231,7.29385761 13.5357982,7.2957983 L9.29579823,11.5357983 L9.29579825,11.5357983 C8.90367625,11.9247183 8.90108025,12.5578783 9.28999988,12.9499983 C9.29192472,12.951939 9.29385751,12.9538718 9.2957982,12.9557966 L13.5357982,17.2457966 L13.5357981,17.2457965 C13.7245171,17.4329835 13.9799951,17.5373335 14.2457981,17.5357965 L14.2457982,17.5357965 C14.5116012,17.5373333 14.7670792,17.4329835 14.9557982,17.2457965 L14.9557982,17.2457965 C15.3435222,16.8557595 15.3435222,16.2258365 14.9557982,15.8357965 L11.4157966,12.2457983 Z"/>
</svg>
