<svg xmlns="http://www.w3.org/2000/svg" width="24" height="24" viewBox="0 0 24 24">
  <path d="M20.2352814,12.7493398 L2,12.7493398 C1.58578644,12.7493398 1.25,12.4135534 1.25,11.9993398 C1.25,11.5851263 1.58578644,11.2493398 2,11.2493398 L20.1893398,11.2493398 L14.0303301,5.09033009 C13.7374369,4.79743687 13.7374369,4.32256313 14.0303301,4.02966991 C14.3232233,3.7367767 14.798097,3.7367767 15.0909903,4.02966991 L22.5156115,11.4542911 C22.5180774,11.456757 22.5205225,11.4592358 22.5229469,11.4617273 C22.6630025,11.5979858 22.75,11.7885031 22.75,11.9993398 C22.75,12.0716502 22.7397667,12.1415705 22.7206693,12.2077314 C22.6926404,12.3479234 22.6242878,12.4816537 22.5156115,12.5903301 L15.0909903,20.0149513 C14.798097,20.3078445 14.3232233,20.3078445 14.0303301,20.0149513 C13.7374369,19.7220581 13.7374369,19.2471843 14.0303301,18.9542911 L20.2352814,12.7493398 Z"/>
</svg>
