<?xml version="1.0" encoding="UTF-8"?>
<svg width="24px" height="24px" viewBox="0 0 24 24" version="1.1" xmlns="http://www.w3.org/2000/svg" xmlns:xlink="http://www.w3.org/1999/xlink">
    <title>arrow-up-r-g</title>
    <g id="Icons" stroke="none" stroke-width="1" fill="none" fill-rule="evenodd">
        <g id="Glyphs" transform="translate(-837, -58)" fill="#000000" fill-rule="nonzero">
            <path d="M849.381652,77.9905469 C849.502836,77.9417935 849.613289,77.8697585 849.706764,77.7785172 L855.71427,71.7710115 C856.104606,71.3806755 856.104606,70.7478166 855.71427,70.3574807 C855.323934,69.9671448 854.691075,69.9671448 854.300739,70.3574807 L849.996538,74.6616819 L850.003606,62.9364442 C850.005707,62.4238603 849.621588,61.9998144 849.124732,61.9400406 L849,61.9328299 C848.487416,61.9307371 848.06337,62.3148558 848.003596,62.8117121 L847.996394,62.9364441 L848.003462,74.6616818 L843.699261,70.3574806 C843.308925,69.9671447 842.676066,69.9671446 842.28573,70.3574805 C841.895394,70.7478165 841.895394,71.3806754 842.28573,71.7710113 L848.293236,77.7785171 C848.38671,77.8697579 848.497163,77.9417929 848.618347,77.9905463 C848.862762,78.0915253 849.137236,78.0915253 849.381652,77.9905469 Z" id="Path"></path>
        </g>
    </g>
</svg>