<svg xmlns="http://www.w3.org/2000/svg" width="24" height="24" viewBox="0 0 24 24">
  <path d="M3207.24894,62.8457436 L3207.34315,62.9289322 L3213.70711,69.2928932 C3213.7425,69.3282873 3213.77469,69.3656744 3213.80367,69.4046934 L3213.87533,69.5159379 L3213.92877,69.628664 L3213.96415,69.734007 L3213.99317,69.8825258 L3214,70 L3213.99721,70.0752385 L3213.97976,70.2007258 L3213.95026,70.3121425 L3213.90633,70.4232215 L3213.84431,70.5360882 L3213.78031,70.625449 L3213.70711,70.7071068 L3207.34315,77.0710678 C3206.95262,77.4615921 3206.31946,77.4615921 3205.92893,77.0710678 C3205.56845,76.7105839 3205.54072,76.1433528 3205.84574,75.7510616 L3205.92893,75.6568542 L3210.585,70.999 L3195,71 C3194.44772,71 3194,70.5522847 3194,70 C3194,69.4871642 3194.38604,69.0644928 3194.88338,69.0067277 L3195,69 L3210.584,68.999 L3205.92893,64.3431458 C3205.53841,63.9526215 3205.53841,63.3194565 3205.92893,62.9289322 C3206.25938,62.5984886 3206.76354,62.5476511 3207.14744,62.7764197 L3207.24894,62.8457436 Z" transform="translate(-3192 -58)"/>
</svg>
