<?xml version="1.0" encoding="UTF-8"?>
<svg width="24px" height="24px" viewBox="0 0 24 24" version="1.1" xmlns="http://www.w3.org/2000/svg" xmlns:xlink="http://www.w3.org/1999/xlink">
    <!-- Generator: Sketch 54.1 (76490) - https://sketchapp.com -->
    <title>bell copy 24</title>
    <desc>Created with Sketch.</desc>
    <g id="Icons" stroke="none" stroke-width="1" fill="none" fill-rule="evenodd">
        <path d="M21.5330898,11.25 L12.9696699,2.68658009 C12.6767767,2.39368687 12.6767767,1.91881313 12.9696699,1.62591991 C13.2625631,1.3330267 13.7374369,1.3330267 14.0303301,1.62591991 L23.8740801,11.4696699 C24.1669733,11.7625631 24.1669733,12.2374369 23.8740801,12.5303301 L14.0303301,22.3740801 C13.7374369,22.6669733 13.2625631,22.6669733 12.9696699,22.3740801 C12.6767767,22.0811869 12.6767767,21.6063131 12.9696699,21.3134199 L21.5330898,12.75 L0.84375,12.75 C0.429536438,12.75 0.09375,12.4142136 0.09375,12 C0.09375,11.5857864 0.429536438,11.25 0.84375,11.25 L21.5330898,11.25 Z" id="Path" fill="#000000" fill-rule="nonzero" transform="translate(12.093750, 12.000000) scale(1, -1) rotate(90.000000) translate(-12.093750, -12.000000) "></path>
    </g>
</svg>