<svg xmlns="http://www.w3.org/2000/svg" width="24" height="24" viewBox="0 0 24 24">
  <path d="M14.9507914,11.5357983 L10.7107914,7.29579827 L10.7107913,7.29579824 C10.3218713,6.90367624 9.68871132,6.90108024 9.29659132,7.28999998 C9.29465063,7.29192482 9.29271784,7.29385761 9.290793,7.2957983 L9.29079302,7.29579828 C8.90306902,7.68583528 8.90306902,8.31575828 9.29079299,8.70579828 L12.830793,12.2457983 L9.29079299,15.7857983 L9.290793,15.7857983 C8.903069,16.1758353 8.903069,16.8057583 9.29079297,17.1957983 L9.29079292,17.1957982 C9.47951192,17.3829852 9.73498992,17.4873352 10.0007929,17.4857982 L10.000793,17.4857982 C10.266596,17.487335 10.522074,17.3829852 10.710793,17.1957982 L14.950793,12.9557982 L14.950793,12.9557982 C15.342915,12.5668782 15.345511,11.9337182 14.9565914,11.5415982 C14.9546666,11.5396575 14.9527338,11.5377247 14.9507931,11.5357999 L14.9507914,11.5357983 Z"/>
</svg>
