<?xml version="1.0" encoding="UTF-8"?>
<svg width="24px" height="24px" viewBox="0 0 24 24" version="1.1" xmlns="http://www.w3.org/2000/svg" xmlns:xlink="http://www.w3.org/1999/xlink">
    <!-- Generator: Sketch 54.1 (76490) - https://sketchapp.com -->
    <title>bell copy 24</title>
    <desc>Created with Sketch.</desc>
    <g id="Icons" stroke="none" stroke-width="1" fill="none" fill-rule="evenodd">
        <path d="M21.4393398,11.25 L12.8759199,2.68658009 C12.5830267,2.39368687 12.5830267,1.91881313 12.8759199,1.62591991 C13.1688131,1.3330267 13.6436869,1.3330267 13.9365801,1.62591991 L23.7803301,11.4696699 C24.0732233,11.7625631 24.0732233,12.2374369 23.7803301,12.5303301 L13.9365801,22.3740801 C13.6436869,22.6669733 13.1688131,22.6669733 12.8759199,22.3740801 C12.5830267,22.0811869 12.5830267,21.6063131 12.8759199,21.3134199 L21.4393398,12.75 L0.75,12.75 C0.335786438,12.75 0,12.4142136 0,12 C0,11.5857864 0.335786438,11.25 0.75,11.25 L21.4393398,11.25 Z" id="Path" fill="#000000" fill-rule="nonzero" transform="translate(12.000000, 12.000000) scale(-1, 1) translate(-12.000000, -12.000000) "></path>
    </g>
</svg>