<svg xmlns="http://www.w3.org/2000/svg" width="24" height="24" viewBox="0 0 24 24">
  <path d="M12.145404,11.5604076 L8.55540571,15.1004092 C8.16536571,15.4881332 7.53544271,15.4881332 7.1454057,15.1004092 C6.9582187,14.9116902 6.85386895,14.6562122 6.8554057,14.3904092 C6.8538687,14.1246062 6.9582187,13.8691282 7.14540565,13.6804092 L11.4354056,9.44040924 C11.4373305,9.43846855 11.4392633,9.43653576 11.441204,9.43461092 C11.833324,9.04569129 12.466484,9.04828729 12.8554039,9.44040927 L17.0954039,13.6804093 C17.0973446,13.6823341 17.0992774,13.6842669 17.1012023,13.6862076 C17.490122,14.0783276 17.487526,14.7114876 17.095404,15.1004076 C16.705364,15.4881316 16.075441,15.4881316 15.685404,15.1004076 L12.145404,11.5604076 Z"/>
</svg>
