<?xml version="1.0" encoding="UTF-8"?>
<svg width="24px" height="24px" viewBox="0 0 24 24" version="1.1" xmlns="http://www.w3.org/2000/svg" xmlns:xlink="http://www.w3.org/1999/xlink">
    <title>arrow-up-r-g</title>
    <g id="Icons" stroke="none" stroke-width="1" fill="none" fill-rule="evenodd">
        <g id="Glyphs" transform="translate(-837, -58)" fill="#000000" fill-rule="nonzero">
            <path d="M848.618348,62.0085637 C848.497164,62.057317 848.38671,62.129352 848.293236,62.2205933 L842.28573,68.228099 C841.895394,68.618435 841.895394,69.2512939 842.28573,69.6416298 C842.676066,70.0319657 843.308925,70.0319658 843.699261,69.6416298 L848.003462,65.3374287 L847.996394,77.0626664 C847.994293,77.5752503 848.378411,77.9992962 848.875268,78.0590699 L849,78.0662891 C849.512584,78.0683734 849.93663,77.6842548 849.996403,77.1873985 L850.003606,77.0626664 L849.996538,65.3374287 L854.300739,69.6416299 C854.691075,70.0319659 855.323934,70.0319659 855.71427,69.64163 C856.104606,69.251294 856.104606,68.6184351 855.71427,68.2280992 L849.706764,62.2205935 C849.61329,62.1293527 849.502837,62.0573177 849.381653,62.0085642 C849.137238,61.9075853 848.862764,61.9075853 848.618348,62.0085637 Z" id="Path"></path>
        </g>
    </g>
</svg>