<svg xmlns="http://www.w3.org/2000/svg" width="25" height="24" viewBox="0 0 25 24">
  <path d="M17.8857983,6.08000001 C17.7655763,6.028759 17.6364753,6.00158 17.5057983,6 L9.00579828,6 C8.45351323,6.00000002 8.00579823,6.447715 8.00579823,7 C8.00579826,7.552285 8.45351323,8 9.00579823,8 L15.0957982,8 L6.79579823,16.29 C6.40367625,16.67892 6.40108025,17.31208 6.78999988,17.7042 C6.79192472,17.7061407 6.79385751,17.7080735 6.7957982,17.7099983 C7.18471817,18.1021203 7.81787817,18.1047163 8.20999817,17.7157967 C8.21193886,17.7138718 8.21387165,17.711939 8.21579649,17.7099983 L16.5057965,9.40999834 L16.5057965,15.4999983 C16.5057966,16.0522835 16.9535115,16.4999985 17.5057965,16.4999985 C18.0580815,16.4999984 18.5057965,16.0522835 18.5057965,15.4999985 L18.5057965,6.99999849 C18.5042166,6.86932231 18.4770377,6.74022131 18.4257968,6.61999931 C18.3243233,6.37565101 18.1301473,6.18147501 17.8857983,6.08000001 Z"/>
</svg>
