<svg xmlns="http://www.w3.org/2000/svg" width="25" height="24" viewBox="0 0 25 24">
  <path d="M18.4257983,6.61999995 L18.4257983,6.62000001 C18.3243233,6.37565101 18.1301473,6.18147501 17.8857983,6.08000001 L17.8857983,6.08 C17.7655763,6.028759 17.6364753,6.00158 17.5057983,6 L7.50579828,6 L7.50579823,6 C6.95351323,6.00000002 6.50579823,6.447715 6.50579823,7 C6.50579826,7.552285 6.95351323,8 7.50579823,8 L15.0957982,8 L6.79579823,16.29 L6.79579825,16.29 C6.40367625,16.67892 6.40108025,17.31208 6.78999988,17.7042 C6.79192472,17.7061407 6.79385751,17.7080735 6.7957982,17.7099983 L6.79579817,17.7099983 C7.18471817,18.1021203 7.81787817,18.1047163 8.20999817,17.7157967 C8.21193886,17.7138718 8.21387165,17.711939 8.21579649,17.7099983 L16.5057965,9.40999834 L16.5057965,16.9999983 L16.5057965,16.9999985 C16.5057966,17.5522835 16.9535115,17.9999985 17.5057965,17.9999985 C18.0580815,17.9999984 18.5057965,17.5522835 18.5057965,16.9999985 L18.5057965,6.99999849 L18.5057965,6.99999931 C18.5042166,6.86932231 18.4770377,6.74022131 18.4257968,6.61999931 L18.4257983,6.61999995 Z"/>
</svg>
