<svg xmlns="http://www.w3.org/2000/svg" width="24" height="24" viewBox="0 0 24 24">
  <path d="M4.44008329,10.6561629 C6.68374778,10.8731595 8.33316494,12.8487329 8.15616851,15.0868419 C8.29613704,16.739423 7.73568527,18.3761737 6.61315882,19.5925043 C6.52953921,19.6844858 6.57164621,20.804532 6.56475538,20.8026387 C8.0387952,21.281101 9.47239025,21.8762309 10.8519389,22.5823792 C11.2206557,22.7711139 11.36656,23.2230177 11.1778252,23.5917345 C10.9890905,23.9604513 10.5371868,24.1063556 10.16847,23.9176208 C8.85983028,23.2477686 7.49992348,22.683229 6.07294711,22.2193961 C4.88107471,21.7784033 4.79044234,19.3675821 5.50704057,18.5793553 C6.35970513,17.6554144 6.77790219,16.4117078 6.65669701,15.1603028 L6.65668722,15.0157978 C6.79630647,13.5722345 5.73924969,12.2888112 4.29568203,12.1491961 C4.23291632,12.1431255 4.16995238,12.1393178 4.1437092,12.1377747 C2.6938463,12.1735672 1.54752477,13.3779208 1.58332117,14.8277836 C1.58487119,14.8905709 1.58867325,14.9532825 1.59471999,15.0157969 L1.59468575,15.1605644 C1.47305605,16.4118594 1.89125547,17.6555738 2.74815886,18.5835016 C3.46096523,19.3675886 3.37033286,21.7784098 2.17784571,22.2196297 L1.00984571,22.6506297 C0.621245156,22.794026 0.189976528,22.5952486 0.046580264,22.2066481 C-0.0968160002,21.8180475 0.101961347,21.3867789 0.490561896,21.2433826 L1.65794714,20.8126098 C1.67976136,20.8045385 1.72186836,19.6844924 1.64221545,19.59684 C0.515344269,18.3766127 -0.045296979,16.7394414 0.0952356511,15.0866375 C0.0894266557,15.0128134 0.0856058325,14.9388419 0.0837780872,14.8648046 C0.0275344675,12.5867669 1.82865148,10.6944691 4.14348783,10.6382261 C4.24253748,10.6406421 4.34146714,10.6466249 4.44008329,10.6561629 Z M22.3425297,14.3768448 C22.2708184,13.968886 22.5434008,13.5800366 22.9513596,13.5083253 C23.3593184,13.436614 23.7481678,13.7091964 23.8198791,14.1171552 C23.8760931,14.4369513 23.9039757,14.7610852 23.8997113,15.0116964 C24.0621013,16.6883684 23.5017901,18.3547217 22.3631596,19.5885032 C22.27954,19.6804848 22.321647,20.800531 22.3428464,20.8083751 L23.5108464,21.2393751 C23.899447,21.3827714 24.0982243,21.81404 23.9548281,22.2026406 C23.8114318,22.5912411 23.3801632,22.7900185 22.9915626,22.6466222 L21.8229479,22.215395 C20.6310755,21.7744023 20.5404431,19.3635811 21.2570411,18.5753545 C22.1097034,17.6514152 22.5278997,16.4077084 22.4032066,15.0822111 C22.4037698,14.8457618 22.3834653,14.6097238 22.3425297,14.3768448 Z M13.8420164,23.9120922 C13.47304,24.1003189 13.0213377,23.9537924 12.8331109,23.5848161 C12.6448841,23.2158397 12.7914107,22.7641373 13.160387,22.5759105 C14.5366503,21.8738343 15.9659452,21.2809803 17.4069351,20.812605 C17.4290342,20.8044283 17.4716713,19.6842841 17.4041769,19.6095021 C16.5793306,18.7569543 16.0627782,17.6533888 15.9364561,16.4738666 C15.8923477,16.0620082 16.190468,15.6923741 16.6023264,15.6482658 C17.0141848,15.6041574 17.3838189,15.9022777 17.4279272,16.314136 C17.5186662,17.1614039 17.8897117,17.9541075 18.4981468,18.5834968 C19.2109153,19.3675421 19.119146,21.7784696 17.8993088,22.2291785 C16.5048946,22.6830171 15.1482885,23.2457207 13.8420164,23.9120922 Z M9.75120431,12.75 C8.50856371,12.7499999 7.50120428,11.7426406 7.50120428,10.5 L7.50120428,2.25000011 C7.50120409,1.00735978 8.50856359,3.39741016e-07 9.75120428,-1.77635684e-15 L21.7512043,-1.77635684e-15 C22.9938449,-5.43175564e-08 24.0012044,1.00735945 24.0012043,2.24999999 L24.0012043,10.5 C24.0012043,11.7426406 22.9938449,12.75 21.7512043,12.75 L17.5618645,12.75 L13.2815344,17.0303301 C12.8090608,17.5028037 12.0012043,17.1681786 12.0012043,16.5 L12.0012043,12.75 L9.75120431,12.75 Z M16.7208743,11.4696699 C16.8615265,11.3290176 17.052292,11.25 17.2512043,11.25 L21.7512043,11.25 C22.1654178,11.25 22.5012043,10.9142134 22.5012043,10.5 L22.5012043,2.24999994 C22.5012043,1.83578653 22.1654178,1.49999998 21.7512043,1.5 L9.75120448,1.5 C9.33699089,1.50000011 9.00120422,1.83578676 9.00120428,2.25 L9.00120428,10.5 C9.00120428,10.9142134 9.33699084,11.25 9.75120435,11.25 L12.7512043,11.25 C13.1654179,11.25 13.5012043,11.5857864 13.5012043,12 L13.5012043,14.6893398 L16.7208743,11.4696699 Z M14.0315345,5.96966991 L15.0568664,6.99500179 L18.2826831,4.41434839 C18.6061296,4.15559123 19.0780989,4.20803226 19.336856,4.53147871 C19.5956132,4.85492517 19.5431721,5.32689445 19.2197257,5.58565161 L15.4697257,8.58565161 C15.1713074,8.82438626 14.7411036,8.80055937 14.4708743,8.53033009 L12.9708743,7.03033009 C12.6779811,6.73743687 12.6779811,6.26256313 12.9708743,5.96966991 C13.2637675,5.6767767 13.7386413,5.6767767 14.0315345,5.96966991 Z"/>
</svg>
