<svg xmlns="http://www.w3.org/2000/svg" width="24" height="24" viewBox="0 0 24 24">
  <path d="M9.75120431,12.75 C8.50856371,12.7499999 7.50120428,11.7426406 7.50120428,10.5 L7.50120428,2.25000011 C7.50120409,1.00735978 8.50856359,3.39741016e-07 9.75120428,-1.77635684e-15 L21.7512043,-1.77635684e-15 C22.9938449,-5.43175564e-08 24.0012044,1.00735945 24.0012043,2.24999999 L24.0012043,10.5 C24.0012043,11.7426406 22.9938449,12.75 21.7512043,12.75 L17.5618645,12.75 L13.2815344,17.0303301 C12.8090608,17.5028037 12.0012043,17.1681786 12.0012043,16.5 L12.0012043,12.75 L9.75120431,12.75 Z M16.7208743,11.4696699 C16.8615265,11.3290176 17.052292,11.25 17.2512043,11.25 L21.7512043,11.25 C22.1654178,11.25 22.5012043,10.9142134 22.5012043,10.5 L22.5012043,2.24999994 C22.5012043,1.83578653 22.1654178,1.49999998 21.7512043,1.5 L9.75120448,1.5 C9.33699089,1.50000011 9.00120422,1.83578676 9.00120428,2.25 L9.00120428,10.5 C9.00120428,10.9142134 9.33699084,11.25 9.75120435,11.25 L12.7512043,11.25 C13.1654179,11.25 13.5012043,11.5857864 13.5012043,12 L13.5012043,14.6893398 L16.7208743,11.4696699 Z M14.0315345,5.96966991 L15.0568664,6.99500179 L18.2826831,4.41434839 C18.6061296,4.15559123 19.0780989,4.20803226 19.336856,4.53147871 C19.5956132,4.85492517 19.5431721,5.32689445 19.2197257,5.58565161 L15.4697257,8.58565161 C15.1713074,8.82438626 14.7411036,8.80055937 14.4708743,8.53033009 L12.9708743,7.03033009 C12.6779811,6.73743687 12.6779811,6.26256313 12.9708743,5.96966991 C13.2637675,5.6767767 13.7386413,5.6767767 14.0315345,5.96966991 Z M4.03447359,19.4578828 C3.56507957,19.286698 3.12469085,19.0128149 2.74810953,18.6362336 C1.36723413,17.2553582 1.36723413,15.0165319 2.74810953,13.6356565 C4.12898492,12.2547812 6.36781115,12.2547812 7.74868655,13.6356565 C9.12956194,15.0165319 9.12956194,17.2553582 7.74868655,18.6362336 C7.37254521,19.0123749 6.9327455,19.2860578 6.46396766,19.4572823 C8.25825726,19.8637408 9.80904385,21.1581413 10.4594692,23.0233001 C10.5909974,23.4004704 10.3918652,23.8128521 10.014695,23.9443803 C9.63752469,24.0759086 9.22514306,23.8767764 9.0936148,23.4996061 C8.35335393,21.3768349 6.03240861,20.2560939 3.9096341,20.9963577 C2.73706863,21.4052608 1.81528417,22.3270445 1.40638542,23.4996055 C1.2748575,23.8767759 0.862476043,24.0759084 0.485305651,23.9443805 C0.10813526,23.8128526 -0.0909973113,23.4004712 0.0405306049,23.0233008 C0.594735577,21.4340586 1.84408167,20.1847135 3.43332682,19.6305038 C3.63268684,19.560982 3.83333647,19.5035708 4.03447359,19.4578828 L4.03447359,19.4578828 Z M6.72584111,14.658502 C5.90986765,13.8425285 4.58692842,13.8425285 3.77095496,14.658502 C2.9549815,15.4744754 2.9549815,16.7974147 3.77095496,17.6133881 C4.58692842,18.4293616 5.90986765,18.4293616 6.72584111,17.6133881 C7.54181457,16.7974147 7.54181457,15.4744754 6.72584111,14.658502 Z M19.8057532,19.3380367 C21.6532793,19.7565548 23.2500776,21.08936 23.9198011,23.0098581 C24.0552317,23.398219 23.8501913,23.8228359 23.4618304,23.9582666 C23.0734695,24.0936973 22.6488525,23.8886569 22.5134218,23.500296 C21.7511975,21.3145423 19.3613898,20.1605489 17.1756327,20.9227764 C15.9682773,21.3438116 15.0191436,22.2929446 14.5981128,23.5002954 C14.4626825,23.8886564 14.0380657,24.0936972 13.6497046,23.9582669 C13.2613436,23.8228365 13.0563028,23.3982197 13.1917331,23.0098587 C13.7623813,21.3734638 15.0487955,20.0870507 16.6851934,19.5163976 C16.8904685,19.4448132 17.0970713,19.3856986 17.3041762,19.338655 C16.8208553,19.1623911 16.3674003,18.8803819 15.9796458,18.4926275 C15.5456881,18.0586698 15.2340622,17.5312108 15.063289,16.9544825 C14.9465129,16.5601108 15.1715485,16.1457437 15.5659201,16.0289675 C15.9602918,15.9121914 16.3746589,16.137227 16.4914351,16.5315987 C16.5921458,16.8717148 16.7755498,17.1821451 17.032839,17.4394343 C17.8730223,18.2796176 19.2352131,18.2796176 20.0753964,17.4394343 C20.8198925,16.6949382 20.913125,15.5241968 20.3110959,14.675734 C20.0730865,14.3402982 20.1520662,13.875429 20.487502,13.6374196 C20.8229378,13.3994102 21.287807,13.4783899 21.5258164,13.8138257 C22.5464635,15.2522629 22.3887707,17.2324464 21.1285896,18.4926275 C20.7412882,18.8799289 20.2884397,19.161732 19.8057532,19.3380367 L19.8057532,19.3380367 Z"/>
</svg>
