<svg xmlns="http://www.w3.org/2000/svg" width="24" height="24" viewBox="0 0 24 24">
  <path d="M12,2 C17.4292356,2 21.8479256,6.32667 21.9961556,11.7201 L22,12 L22,13 C21.9999974,15.172925 20.4774274,17.000005 18.5,17 C17.3269374,17.000005 16.3139474,16.357029 15.6839374,15.380305 C14.7705924,16.375785 13.4581974,17.000005 12,17 C9.2385774,17.000005 6.9999974,14.761425 7,12 C6.9999974,9.238585 9.2385774,7.000005 12,7 C14.6887474,7.000005 16.8818174,9.122315 16.9953774,11.783115 L17,12 L17,13 C16.9999969,14.140795 17.7160069,15.000005 18.5,15 C19.2447869,15.000005 19.9282269,14.224566 19.9947069,13.168935 L20,13 L20,12 C19.999996,7.581721 16.418276,4.000001 12,4 C7.581716,4.000001 3.999996,7.581721 4,12 C3.999996,16.418281 7.581716,20.000001 12,20 C13.163086,20.000001 14.289276,19.752263 15.322516,19.279834 C15.824788,19.050179 16.418136,19.2711779 16.647786,19.77345 C16.877441,20.275722 16.656442,20.86907 16.15417,21.09872 C14.86122,21.689901 13.45154,22 12,22 C6.47715,22 2,17.52285 2,12 C2,6.47715 6.47715,2 12,2 L12,2 Z M11.9999956,9 C10.3431456,9 8.9999956,10.34315 8.9999956,12 C8.9999956,13.65685 10.3431456,15 11.9999956,15 C13.6568456,15 14.9999956,13.65685 14.9999956,12 C14.9999956,10.34315 13.6568456,9 11.9999956,9 Z"/>
</svg>
