<?xml version="1.0" encoding="UTF-8"?>
<svg width="25px" height="25px" viewBox="0 0 25 25" version="1.1" xmlns="http://www.w3.org/2000/svg" xmlns:xlink="http://www.w3.org/1999/xlink">
    <!-- Generator: Sketch 54.1 (76490) - https://sketchapp.com -->
    <title>bell copy 75</title>
    <desc>Created with Sketch.</desc>
    <g id="Icons" stroke="none" stroke-width="1" fill="none" fill-rule="evenodd">
        <path d="M19.7003991,16.6656878 L19.7003991,8.59999912 C19.7003991,4.42277939 16.5887807,0.999999321 12.7003991,0.999999321 C8.81201741,0.999999321 5.70039907,4.42277939 5.70039907,8.59999912 L5.70039907,19.5999988 C5.70039948,22.5621935 7.91658631,24.9999993 10.7003991,24.9999993 C13.484212,24.9999989 15.7003991,22.5621933 15.7003991,19.5999995 L15.7003991,8.59999979 C15.7003991,6.85283154 14.379643,5.39999985 12.7003991,5.39999985 C11.0211552,5.39999985 9.70039907,6.85283154 9.70039907,8.59999979 L9.70039907,18.1333328 C9.70039907,18.6856176 10.1481143,19.1333328 10.7003991,19.1333328 C11.2526838,19.1333328 11.7003991,18.6856176 11.7003991,18.1333328 L11.7003991,8.59999979 C11.7003991,7.91711655 12.1705052,7.39999985 12.7003991,7.39999985 C13.230293,7.39999985 13.7003991,7.91711655 13.7003991,8.59999979 L13.7003991,19.5999995 C13.7003991,21.4979083 12.3348619,22.999999 10.7003991,22.9999993 C9.06593633,22.9999993 7.70039933,21.4979084 7.70039907,19.5999987 L7.70039907,8.59999912 C7.70039907,5.4870644 9.9613674,2.99999932 12.7003991,2.99999932 C15.4394307,2.99999932 17.7003991,5.4870644 17.7003991,8.59999912 L17.7003991,16.6656878 C17.7003991,17.2179725 18.1481143,17.6656878 18.7003991,17.6656878 C19.2526838,17.6656878 19.7003991,17.2179725 19.7003991,16.6656878 Z" id="Path" fill="#000000" fill-rule="nonzero"></path>
    </g>
</svg>