<?xml version="1.0" encoding="UTF-8"?>
<svg width="24px" height="24px" viewBox="0 0 24 24" version="1.1" xmlns="http://www.w3.org/2000/svg" xmlns:xlink="http://www.w3.org/1999/xlink">
    <!-- Generator: Sketch 54.1 (76490) - https://sketchapp.com -->
    <title>bell copy 23</title>
    <desc>Created with Sketch.</desc>
    <g id="Icons" stroke="none" stroke-width="1" fill="none" fill-rule="evenodd">
        <path d="M19.5,15.749 L19.5,7.5 C19.5,3.35786644 16.1421336,0 12,0 C7.85786644,0 4.5,3.35786644 4.5,7.5 L4.5,18.75 C4.50000044,21.6494944 6.85050666,24.0000008 9.75000021,24 C12.6494936,24.0000004 15,21.6494941 15,18.75 L15,7.5 C15,5.84314712 13.6568536,4.50000068 12,4.5 C10.3431464,4.50000068 9,5.84314712 9,7.5 L9,17.25 C9,17.6642136 9.33578644,18 9.75,18 C10.1642136,18 10.5,17.6642136 10.5,17.25 L10.5,7.5 C10.5,6.67157424 11.1715736,6.00000068 12,6 C12.8284264,6.00000068 13.5,6.67157424 13.5,7.5 L13.5,18.75 C13.5,20.821067 11.8210666,22.5000003 9.75000009,22.5 C7.6789336,22.5000006 6.00000031,20.8210672 6,18.7499999 L6,7.5 C6,4.18629356 8.68629356,1.5 12,1.5 C15.3137064,1.5 18,4.18629356 18,7.5 L18,15.749 C18,16.1632136 18.3357864,16.499 18.75,16.499 C19.1642136,16.499 19.5,16.1632136 19.5,15.749 Z" id="Path" fill="#000000" fill-rule="nonzero"></path>
    </g>
</svg>