<svg xmlns="http://www.w3.org/2000/svg" width="25" height="25" viewBox="0 0 25 25">
  <path d="M14.7458857,7.06877038 L8.19496073,13.6196954 C6.96951925,14.8451369 6.96951926,16.8319669 8.19495949,18.0574115 C9.42040225,19.2828543 11.4072323,19.2828543 12.6326769,18.057414 L19.1836032,11.5064878 C21.2439586,9.44613234 21.2439585,6.10562114 19.1836027,4.04526612 C17.1232476,1.98491104 13.7827364,1.98491126 11.7223815,4.04526696 L5.17145658,10.5961918 C2.2761811,13.4914673 2.27618114,18.1856414 5.17145669,21.0809169 C8.0667322,23.9761924 12.7609063,23.9761924 15.6561818,21.0809168 L22.2071068,14.5299918 C22.5976311,14.1394675 22.5976311,13.5063026 22.2071068,13.1157783 C21.8165825,12.725254 21.1834175,12.725254 20.7928932,13.1157783 L14.2419682,19.6667033 C12.1277413,21.7809302 8.69989717,21.7809303 6.58567024,19.6667033 C4.47144328,17.5524764 4.47144326,14.1246323 6.58567014,12.0104054 L13.1365951,5.4594804 C14.4159017,4.18017341 16.4900827,4.18017327 17.7693893,5.45947981 C19.0486963,6.73878638 19.0486964,8.81296743 17.7693896,10.0922742 L11.2184646,16.6431992 C10.7740697,17.0875925 10.0535677,17.0875925 9.60917432,16.6431992 C9.16478098,16.1988043 9.16478098,15.4783023 9.60917429,15.0339089 L16.1600993,8.48298394 C16.5506236,8.09245965 16.5506236,7.45929467 16.1600993,7.06877038 C15.769575,6.67824609 15.13641,6.67824609 14.7458857,7.06877038 Z"/>
</svg>
