<?xml version="1.0" encoding="UTF-8"?>
<svg width="25px" height="24px" viewBox="0 0 25 24" version="1.1" xmlns="http://www.w3.org/2000/svg" xmlns:xlink="http://www.w3.org/1999/xlink">
    <title>balance-even-g</title>
    <g id="Icons" stroke="none" stroke-width="1" fill="none" fill-rule="evenodd">
        <g transform="translate(-3744.000000, -58.000000)" fill="#000000" fill-rule="nonzero" id="Shape">
            <path d="M3749.68945,61.0015664 L3763.25042,60.9997603 L3763.35659,61.0054232 L3763.35659,61.0054232 L3763.49688,61.0309021 L3763.49688,61.0309021 L3763.60654,61.0657108 L3763.60654,61.0657108 L3763.68264,61.0984014 L3763.79005,61.1582139 L3763.81815,61.1768829 L3763.87963,61.2228114 C3763.92188,61.2569902 3763.96157,61.2948216 3763.99818,61.3361121 L3764.0507,61.4006101 L3764.0507,61.4006101 L3764.11702,61.5015616 L3764.15701,61.5788887 L3767.42561,68.6208364 L3767.46361,68.7321186 L3767.47714,68.786394 L3767.47714,68.786394 L3767.4857,68.8300362 L3767.49909,68.9514926 L3767.49909,68.9514926 L3767.5,69 C3767.5,71.3462847 3765.59628,73.25 3763.25,73.25 C3760.96682,73.25 3759.11202,71.4590572 3759.00489,69.2060544 L3759.00237,68.9278135 L3759.00237,68.9278135 L3759.02273,68.7869754 L3759.02273,68.7869754 L3759.04998,68.6874982 L3759.04998,68.6874982 L3759.07636,68.6162757 L3759.07636,68.6162757 L3761.68276,62.9997603 L3757.49976,62.9997603 L3757.49976,76.9997603 L3761,77 C3761.55228,77 3762,77.4477153 3762,78 C3762,78.5128358 3761.61396,78.9355072 3761.11662,78.9932723 L3761,79 L3752,79 C3751.44772,79 3751,78.5522847 3751,78 C3751,77.4871642 3751.38604,77.0644928 3751.88338,77.0067277 L3752,77 L3755.49976,76.9997603 L3755.49976,62.9997603 L3751.31676,62.9997603 L3753.92561,68.6208364 L3753.96361,68.7321186 L3753.97714,68.786394 L3753.97714,68.786394 L3753.9857,68.8300362 L3753.99909,68.9514926 L3753.99909,68.9514926 L3754,69 C3754,71.3462847 3752.09628,73.25 3749.75,73.25 C3747.46682,73.25 3745.61202,71.4590572 3745.50489,69.2060544 L3745.50237,68.9278135 L3745.50237,68.9278135 L3745.52273,68.7869754 L3745.52273,68.7869754 L3745.54998,68.6874982 L3745.54998,68.6874982 L3745.57636,68.6162757 L3745.57636,68.6162757 L3748.84299,61.5788887 L3748.88298,61.5015616 L3748.95089,61.398473 L3748.95089,61.398473 L3748.9981,61.3403413 L3748.9981,61.3403413 L3749.0427,61.2927021 L3749.14848,61.2008842 L3749.14848,61.2008842 L3749.23476,61.1428551 L3749.23476,61.1428551 L3749.32889,61.092991 L3749.32889,61.092991 L3749.42019,61.0559525 L3749.52417,61.0257884 L3749.58405,61.013611 L3749.58405,61.013611 L3749.68945,61.0015664 L3749.68945,61.0015664 Z M3751.764,70 L3747.733,70 C3748.05908,70.65231 3748.68112,71.1191553 3749.42236,71.2265085 L3749.59545,71.2448216 L3749.75,71.25 C3750.62955,71.25 3751.39198,70.7441071 3751.764,70 Z M3765.264,70 L3761.233,70 C3761.55908,70.65231 3762.18112,71.1191553 3762.92236,71.2265085 L3763.09545,71.2448216 L3763.25,71.25 C3764.12955,71.25 3764.89198,70.7441071 3765.264,70 Z M3749.74976,64.3747603 L3748.06676,67.9997603 L3751.43276,67.9997603 L3749.74976,64.3747603 Z M3763.24976,64.3747603 L3761.56676,67.9997603 L3764.93276,67.9997603 L3763.24976,64.3747603 Z"></path>
        </g>
    </g>
</svg>