<?xml version="1.0" encoding="UTF-8"?>
<svg width="24px" height="24px" viewBox="0 0 24 24" version="1.1" xmlns="http://www.w3.org/2000/svg" xmlns:xlink="http://www.w3.org/1999/xlink">
    <title>balance</title>
    <g id="Icons" stroke="none" stroke-width="1" fill="none" fill-rule="evenodd">
        <g id="Glyphs" transform="translate(-3142.000000, -74.000000)" fill="#000000" fill-rule="nonzero">
            <path d="M3160.69409,74.2518934 L3160.79794,74.2513392 L3160.91627,74.2684836 L3160.99132,74.2897902 L3161.10201,74.3376734 L3161.21056,74.4078445 L3161.28363,74.472699 L3161.34907,74.5485712 L3161.41582,74.6547621 L3164.92082,81.6645898 L3164.94622,81.7210114 L3164.97369,81.8024019 L3164.98952,81.8738968 L3164.99963,81.9710998 L3165,82 C3165,84.3462136 3163.09621,86.25 3160.75,86.25 C3158.46656,86.25 3156.612,84.4593045 3156.50489,82.2060762 L3156.50062,81.9655042 L3156.5159,81.8454913 L3156.53979,81.7586781 L3156.57173,81.679501 L3159.048,76.7268358 L3156.22877,78.1896307 C3156.23588,78.2412002 3156.24125,78.2933276 3156.24481,78.3459512 L3156.25,78.5 C3156.25,79.4795694 3155.62402,80.3129322 3154.75025,80.6218811 L3154.75,94.9998358 L3158.5,95 C3158.91421,95 3159.25,95.3357864 3159.25,95.75 C3159.25,96.1296958 3158.96785,96.443491 3158.60177,96.4931534 L3158.5,96.5 L3149.5,96.5 C3149.08579,96.5 3148.75,96.1642136 3148.75,95.75 C3148.75,95.3703042 3149.03215,95.056509 3149.39823,95.0068466 L3149.5,95 L3153.25,94.9998358 L3153.25077,80.6222411 C3152.95434,80.5175922 3152.68641,80.3525987 3152.46172,80.1420175 L3148.251,82.3248358 L3151.42082,88.6645898 L3151.44622,88.7210114 L3151.47369,88.8024019 L3151.48952,88.8738968 L3151.49963,88.9710998 L3151.5,89 C3151.5,91.3462136 3149.59621,93.25 3147.25,93.25 C3144.96656,93.25 3143.112,91.4593045 3143.00489,89.2060762 L3143.00062,88.9655042 L3143.0159,88.8454913 L3143.03979,88.7586781 L3143.07173,88.679501 L3146.61177,81.6060108 L3146.68806,81.5029911 L3146.75297,81.4380932 L3146.83423,81.3756971 L3146.90476,81.3341841 L3151.77123,78.8103693 C3151.75723,78.7089156 3151.75,78.6053026 3151.75,78.5 C3151.75,77.2573593 3152.75736,76.25 3154,76.25 C3154.59444,76.25 3155.13503,76.4805175 3155.53727,76.8570362 L3160.44282,74.3158206 L3160.51822,74.2866046 L3160.6056,74.2639943 L3160.69409,74.2518934 Z M3149.894,89.75 L3144.604,89.75 L3144.62027,89.8091279 C3144.93053,90.8234459 3145.80968,91.586322 3146.88943,91.7267473 L3147.08198,91.7449913 L3147.25,91.75 C3148.42488,91.75 3149.42865,91.0116691 3149.82223,89.9740763 L3149.87924,89.807823 L3149.894,89.75 Z M3147.25,83.6758358 L3144.963,88.2498358 L3149.536,88.2498358 L3147.25,83.6758358 Z M3163.394,82.75 L3158.104,82.75 L3158.12027,82.8091279 C3158.43053,83.8234459 3159.30968,84.586322 3160.38943,84.7267473 L3160.58198,84.7449913 L3160.75,84.75 C3161.92488,84.75 3162.92865,84.0116691 3163.32223,82.9740763 L3163.37924,82.807823 L3163.394,82.75 Z M3160.75,76.6758358 L3158.463,81.2498358 L3163.036,81.2498358 L3160.75,76.6758358 Z M3154,77.75 C3153.58579,77.75 3153.25,78.0857864 3153.25,78.5 C3153.25,78.9142136 3153.58579,79.25 3154,79.25 C3154.41421,79.25 3154.75,78.9142136 3154.75,78.5 C3154.75,78.0857864 3154.41421,77.75 3154,77.75 Z" id="Shape"></path>
        </g>
    </g>
</svg>