<?xml version="1.0" encoding="UTF-8"?>
<svg width="24px" height="24px" viewBox="0 0 24 24" version="1.1" xmlns="http://www.w3.org/2000/svg" xmlns:xlink="http://www.w3.org/1999/xlink">
    <title>balance-even</title>
    <g id="Icons" stroke="none" stroke-width="1" fill="none" fill-rule="evenodd">
        <g id="Glyphs" transform="translate(-3114.000000, -74.000000)" fill="#000000" fill-rule="nonzero">
            <path d="M3126,76.25 C3126.97995,76.25 3127.81358,76.8764713 3128.12224,77.7507654 L3132.74984,77.75 L3132.8951,77.7639766 L3132.8951,77.7639766 L3132.99056,77.7895193 L3132.99056,77.7895193 L3133.09806,77.8354844 L3133.16837,77.8774673 L3133.16837,77.8774673 L3133.259,77.9489041 L3133.31952,78.0117298 L3133.31952,78.0117298 L3133.36918,78.0766253 L3133.36918,78.0766253 L3133.38184,78.099 L3133.39918,78.1247141 L3133.39918,78.1247141 L3137.17082,85.6645898 L3137.19626,85.7211128 L3137.19626,85.7211128 L3137.2233,85.8009692 L3137.2233,85.8009692 L3137.24032,85.8786553 L3137.24032,85.8786553 L3137.25,86 C3137.25,88.4842136 3135.23421,90.5 3132.75,90.5 C3130.3301,90.5 3128.36519,88.6007286 3128.25488,86.2120041 L3128.251,85.9580048 L3128.251,85.9580048 L3128.26282,85.8609148 L3128.26282,85.8609148 L3128.28979,85.7586781 L3128.28979,85.7586781 L3128.3175,85.6886136 L3128.3175,85.6886136 L3131.53584,79.25 L3128.12156,79.2511694 C3127.89542,79.8898435 3127.38905,80.3960109 3126.75025,80.6218811 L3126.74984,95 L3130.5,95 C3130.91421,95 3131.25,95.3357864 3131.25,95.75 C3131.25,96.1296958 3130.96785,96.443491 3130.60177,96.4931534 L3130.5,96.5 L3121.5,96.5 C3121.08579,96.5 3120.75,96.1642136 3120.75,95.75 C3120.75,95.3703042 3121.03215,95.056509 3121.39823,95.0068466 L3121.5,95 L3125.24984,95 L3125.24983,80.62191 C3124.61088,80.3960144 3124.10441,79.8896927 3123.87832,79.2508325 L3120.46284,79.25 L3123.67082,85.6645898 L3123.69646,85.7216045 L3123.69646,85.7216045 L3123.72926,85.8240915 L3123.72926,85.8240915 L3123.74032,85.8786553 L3123.74032,85.8786553 L3123.75,86 C3123.75,88.4842136 3121.73421,90.5 3119.25,90.5 C3116.8301,90.5 3114.86519,88.6007286 3114.75488,86.2120041 L3114.751,85.9580048 L3114.751,85.9580048 L3114.76282,85.8609148 L3114.76282,85.8609148 L3114.78979,85.7586781 L3114.78979,85.7586781 L3114.8175,85.6886136 L3114.8175,85.6886136 L3118.5937,78.1368488 L3118.5937,78.1368488 L3118.62184,78.089 L3118.68898,78.0019475 L3118.80456,77.8964523 L3118.90141,77.8358689 L3118.99163,77.7956928 L3118.99163,77.7956928 L3119.1056,77.7639943 L3119.1056,77.7639943 L3119.19643,77.7517987 L3119.19643,77.7517987 L3123.87776,77.7507654 C3124.18642,76.8764713 3125.02005,76.25 3126,76.25 Z M3122.153,86.75 L3116.345,86.75 L3116.37222,86.8527045 C3116.70477,87.9820652 3117.6819,88.8320171 3118.88194,88.9778109 L3119.07321,88.9949173 L3119.25,89 C3120.54829,89 3121.65502,88.1735794 3122.0724,87.018531 L3122.12729,86.8513423 L3122.153,86.75 Z M3135.653,86.75 L3129.845,86.75 L3129.87222,86.8527045 C3130.20477,87.9820652 3131.1819,88.8320171 3132.38194,88.9778109 L3132.57321,88.9949173 L3132.75,89 C3134.04829,89 3135.15502,88.1735794 3135.5724,87.018531 L3135.62729,86.8513423 L3135.653,86.75 Z M3132.74984,80.176 L3130.21284,85.25 L3135.28684,85.25 L3132.74984,80.176 Z M3119.24984,80.176 L3116.71284,85.25 L3121.78684,85.25 L3119.24984,80.176 Z M3126,77.75 C3125.58579,77.75 3125.25,78.0857864 3125.25,78.5 C3125.25,78.9142136 3125.58579,79.25 3126,79.25 C3126.41421,79.25 3126.75,78.9142136 3126.75,78.5 C3126.75,78.0857864 3126.41421,77.75 3126,77.75 Z" id="Shape"></path>
        </g>
    </g>
</svg>