<?xml version="1.0" encoding="UTF-8"?>
<svg width="25px" height="24px" viewBox="0 0 25 24" version="1.1" xmlns="http://www.w3.org/2000/svg" xmlns:xlink="http://www.w3.org/1999/xlink">
    <title>balance-g</title>
    <g id="Icons" stroke="none" stroke-width="1" fill="none" fill-rule="evenodd">
        <g transform="translate(-3770.000000, -58.000000)" fill="#000000" fill-rule="nonzero" id="Shape">
            <path d="M3777.764,72.5 L3773.733,72.5 C3774.05908,73.15231 3774.68112,73.6191553 3775.42236,73.7265085 L3775.59545,73.7448216 L3775.75,73.75 C3776.62955,73.75 3777.39198,73.2441071 3777.764,72.5 Z M3775.75,67.2357809 L3774.118,70.4997809 L3777.381,70.4997809 L3775.75,67.2357809 Z M3791.264,66.5 L3787.233,66.5 C3787.55908,67.15231 3788.18112,67.6191553 3788.92236,67.7265085 L3789.09545,67.7448216 L3789.25,67.75 C3790.12955,67.75 3790.89198,67.2441071 3791.264,66.5 Z M3789.25,61.2357809 L3787.618,64.4997809 L3790.881,64.4997809 L3789.25,61.2357809 Z M3789.717,58.1157809 L3789.77578,58.149215 L3789.86511,58.2112655 L3789.86511,58.2112655 L3789.95709,58.2924905 L3789.95709,58.2924905 L3790.03229,58.3767584 L3790.03229,58.3767584 L3790.09436,58.4639475 L3790.14443,58.5527864 L3793.39836,65.0602253 C3793.465,65.1939231 3793.49906,65.3437696 3793.50019,65.4915881 C3793.50019,67.8462847 3791.59628,69.75 3789.25,69.75 C3786.96682,69.75 3785.11202,67.9590572 3785.00489,65.7060544 L3784.99991,65.5155392 C3784.99797,65.3968866 3785.01719,65.2765477 3785.05944,65.1601042 L3785.10164,65.0602253 L3787.108,61.0457809 L3783.5,62.6497809 L3783.5,76.9997809 L3787,77 C3787.55228,77 3788,77.4477153 3788,78 C3788,78.5128358 3787.61396,78.9355072 3787.11662,78.9932723 L3787,79 L3778,79 C3777.44772,79 3777,78.5522847 3777,78 C3777,77.4871642 3777.38604,77.0644928 3777.88338,77.0067277 L3778,77 L3781.5,76.9997809 L3781.5,63.5387809 L3777.112,65.4887809 L3779.89836,71.0602253 C3779.965,71.1939231 3779.99906,71.3437696 3780.00019,71.4915881 C3780,73.8462847 3778.09628,75.75 3775.75,75.75 C3773.39763,75.75 3771.5,73.8488707 3771.5,71.5 C3771.5,71.3101521 3771.5529,71.1326606 3771.64477,70.9814636 L3771.67229,70.9193496 L3774.85557,64.5527864 L3774.902,64.4697809 L3774.96773,64.3766794 L3774.96773,64.3766794 L3775.04249,64.2929123 L3775.10596,64.2347065 L3775.10596,64.2347065 L3775.15778,64.1939593 L3775.15778,64.1939593 L3775.22375,64.149598 L3775.22375,64.149598 L3775.30279,64.1055728 L3775.30279,64.1055728 L3788.86152,58.0785039 L3788.86152,58.0785039 L3788.96932,58.0401934 L3788.96932,58.0401934 L3789.03361,58.0234501 L3789.03361,58.0234501 L3789.10395,58.0104766 L3789.21954,58.000235 L3789.32739,58.00284 L3789.32739,58.00284 L3789.42287,58.0149917 L3789.55467,58.0475198 L3789.55467,58.0475198 L3789.61998,58.0708977 L3789.61998,58.0708977 L3789.717,58.1157809 Z"></path>
        </g>
    </g>
</svg>