<svg xmlns="http://www.w3.org/2000/svg" width="24" height="24" viewBox="0 0 24 24">
  <path d="M2997.70237,78.0195948 C2998.13997,78.520167 2998.53592,79.0509299 2998.88653,79.6072295 C3000.10681,81.5433554 3000.75,83.7413425 3000.75,86.006821 C3000.75,88.2554218 3000.11637,90.4377315 2998.9133,92.3637546 C2998.5602,92.9290322 2998.16041,93.4682156 2997.71772,93.9764498 C2996.66528,95.1847264 2994.80559,95.3453488 2993.54892,94.3403225 C2992.32223,93.3592676 2992.11546,91.6250428 2993.05143,90.4023521 L2993.40353,89.9746487 C2993.55421,89.7822703 2993.6938,89.5832946 2993.8217,89.378544 C2994.46428,88.3498134 2994.79872,87.1990268 2994.79872,86.006821 C2994.79872,84.8056193 2994.45919,83.6464619 2993.80723,82.6120415 C2993.68018,82.4104616 2993.54178,82.2145392 2993.39259,82.0250642 L2993.04271,81.6018061 C2992.10448,80.3807586 2992.30801,78.6461628 2993.53291,77.662962 C2994.78773,76.6557496 2996.6477,76.8131754 2997.70237,78.0195948 Z M2984.45486,77.6498868 C2985.73564,78.6617109 2985.914,80.4898111 2984.84618,81.7141595 C2984.60578,81.9898 2984.38902,82.2809988 2984.19782,82.5850803 C2983.54268,83.6269879 2983.20128,84.7956169 2983.20128,86.006837 C2983.20128,87.2089942 2983.53756,88.3691967 2984.18329,89.4053964 C2984.31162,89.6113122 2984.45164,89.8113833 2984.60276,90.0047839 L2984.95513,90.4338535 C2985.88765,91.6553767 2985.67213,93.3825907 2984.43884,94.3533529 C2983.17841,95.3454744 2981.32207,95.1782264 2980.27532,93.9736488 C2979.8333,93.464988 2979.43417,92.9254336 2979.08171,92.3598451 C2977.88179,90.4343596 2977.25,88.2536234 2977.25,86.006837 C2977.25,83.7431784 2977.89133,81.5467641 2979.10842,79.6111571 C2979.45841,79.0545429 2979.85371,78.5234072 2980.29065,78.0224087 C2981.33963,76.8196709 2983.19626,76.6555875 2984.45486,77.6498868 Z M2981.42111,79.0083421 C2981.03525,79.45077 2980.68658,79.9192506 2980.37825,80.4096102 C2979.31061,82.1075457 2978.75,84.0275008 2978.75,86.006837 C2978.75,87.9714016 2979.30225,89.8775968 2980.35475,91.5665188 C2980.66522,92.0647315 2981.01724,92.5405949 2981.40755,92.9897568 C2981.92757,93.5881746 2982.87708,93.6737219 2983.51108,93.1746866 C2984.12287,92.6931226 2984.20669,91.8504557 2983.70547,91.2736708 C2983.41067,90.9344202 2983.14475,90.5750115 2982.91025,90.1987227 C2982.11713,88.9260116 2981.70128,87.4912805 2981.70128,86.006837 C2981.70128,84.5112238 2982.12344,83.0661494 2982.92798,81.7866272 C2983.16087,81.416253 2983.42427,81.0624044 2983.71573,80.7282261 C2984.21806,80.1522512 2984.13584,79.3094653 2983.52501,78.8269077 C2982.89199,78.3268253 2981.9423,78.4107566 2981.42111,79.0083421 Z M2994.47186,78.8327376 C2993.86122,79.3228839 2993.78241,80.1777977 2994.2901,80.7585353 C2994.58099,81.0912891 2994.84385,81.4435679 2995.07621,81.8122418 C2995.87807,83.084498 2996.29872,84.5205886 2996.29872,86.006821 C2996.29872,87.4819464 2995.88436,88.9077484 2995.0939,90.1732152 C2994.85994,90.547769 2994.59457,90.9055769 2994.30033,91.2433761 C2993.79377,91.8249462 2993.87418,92.6797416 2994.48579,93.1688794 C2995.11649,93.673288 2996.06382,93.5914669 2996.58663,92.9912392 C2996.97751,92.5424819 2997.33009,92.0669806 2997.6411,91.5690835 C2998.69623,89.8799016 2999.25,87.9726324 2999.25,86.006821 C2999.25,84.0262354 2998.68786,82.1052085 2997.61755,80.4070292 C2997.38591,80.0394979 2997.13156,79.6842987 2996.85585,79.3431909 L2996.57306,79.0068453 L2996.47003,78.9005628 C2995.93188,78.3997331 2995.06223,78.3588664 2994.47186,78.8327376 Z M2990.525,87.85 C2991.14632,87.85 2991.65,88.3536797 2991.65,88.975 C2991.65,89.5963203 2991.14632,90.1 2990.525,90.1 C2989.90368,90.1 2989.4,89.5963203 2989.4,88.975 C2989.4,88.3536797 2989.90368,87.85 2990.525,87.85 Z M2992.19636,84.7214569 C2992.33737,85.0739956 2992.19194,85.4701364 2991.87049,85.6522039 L2991.77854,85.6963574 L2986.77854,87.6963574 C2986.39396,87.8501925 2985.95748,87.6631306 2985.80364,87.2785429 C2985.66263,86.9260043 2985.80806,86.5298634 2986.12951,86.347796 L2986.22146,86.3036424 L2991.22146,84.3036424 C2991.60604,84.1498074 2992.04252,84.3368693 2992.19636,84.7214569 Z M2987.525,81.85 C2988.14632,81.85 2988.65,82.3536797 2988.65,82.975 C2988.65,83.5963203 2988.14632,84.1 2987.525,84.1 C2986.90368,84.1 2986.4,83.5963203 2986.4,82.975 C2986.4,82.3536797 2986.90368,81.85 2987.525,81.85 Z" transform="translate(-2977 -74)"/>
</svg>
