<svg xmlns="http://www.w3.org/2000/svg" width="25" height="25" viewBox="0 0 25 25">
  <path d="M11.6813451,22.5000863 L11.6813451,14.2500863 L8.68134507,14.2500863 L8.68134507,22.5000863 L11.6813451,22.5000863 Z M7.18134507,14.2500863 L5.68134504,14.2500863 C5.26713148,14.2500863 4.93134504,13.9142998 4.93134504,13.5000863 C4.93134504,13.0858727 5.26713148,12.7500863 5.68134504,12.7500863 L22.9313451,12.7500863 L22.9313452,12.0898105 L15.5903394,7.19613697 C15.2456857,6.96638336 15.1525408,6.50073426 15.3822944,6.15608058 C15.612048,5.8114269 16.0776971,5.71828199 16.4223508,5.9480356 L23.8260951,10.8835378 C24.2037335,11.1333152 24.4310141,11.555769 24.431345,12.0090863 L24.431345,12.9000863 C24.431345,13.6456708 23.8269296,14.2500863 23.081345,14.2500863 L22.1813451,14.2500863 L22.1813451,22.5000863 L23.6813451,22.5000863 C24.0955586,22.5000863 24.4313451,22.8358727 24.4313451,23.2500863 C24.4313451,23.6642998 24.0955586,24.0000863 23.6813451,24.0000863 L5.68134507,24.0000863 C5.2671315,24.0000863 4.93134507,23.6642998 4.93134507,23.2500863 C4.93134507,22.8358727 5.2671315,22.5000863 5.68134507,22.5000863 L7.18134507,22.5000863 L7.18134507,14.2500863 Z M13.1813451,22.5000863 L16.1813451,22.5000863 L16.1813451,14.2500863 L13.1813451,14.2500863 L13.1813451,22.5000863 Z M20.6813451,22.5000863 L20.6813451,14.2500863 L17.6813451,14.2500863 L17.6813451,22.5000863 L20.6813451,22.5000863 Z M4.22802513,3.00008628 L4.43260133,1.63010776 C4.58893615,0.585217497 5.56272122,-0.135098815 6.60835071,0.021346094 L13.3772306,1.03432812 C14.4221418,1.19052898 15.142586,2.16422336 14.9860693,3.21120542 L14.4556136,6.75152192 C14.2946471,7.74089259 13.4107226,8.4324657 12.4313451,8.37435586 L12.4313451,9.61308628 C12.4313451,10.5171718 11.6984306,11.2500863 10.7943451,11.2500863 L2.06834507,11.2500863 C1.1642595,11.2500863 0.431345067,10.5171718 0.431345067,9.61308628 L0.431345067,4.63708628 C0.431345067,3.73300072 1.1642595,3.00008628 2.06834507,3.00008628 L4.22802513,3.00008628 Z M5.74465705,3.00008628 L10.7943451,3.00008628 C11.6984306,3.00008628 12.4313451,3.73300072 12.4313451,4.63708628 L12.4313451,6.86276605 C12.4452151,6.86645774 12.4593056,6.8694762 12.4735707,6.87179708 C12.7117925,6.91055323 12.936324,6.74885973 12.9736248,6.51996181 L13.5028658,2.98735951 C13.5365884,2.76177762 13.3810515,2.55156653 13.1553437,2.51782609 L6.38565706,1.50472313 C6.16007217,1.47097163 5.94984016,1.62648187 5.91612029,1.85185411 L5.74465705,3.00008628 Z M2.06834507,4.50008628 C1.99268663,4.50008628 1.93134507,4.56142784 1.93134507,4.63708628 L1.93134507,9.61308628 C1.93134507,9.68874472 1.99268663,9.75008628 2.06834507,9.75008628 L10.7943451,9.75008628 C10.8700035,9.75008628 10.9313451,9.68874472 10.9313451,9.61308628 L10.9313451,7.25731997 L10.9313451,4.63708628 C10.9313451,4.56142784 10.8700035,4.50008628 10.7943451,4.50008628 L4.88760573,4.50008628 C4.87940848,4.50022126 4.8711897,4.50022187 4.86294928,4.50008628 L2.06834507,4.50008628 Z M5.30634505,7.12508639 C5.30634496,6.50398105 5.80967554,6.00043535 6.43134503,6.00008628 C7.05266561,6.00008625 7.55634505,6.50376572 7.55634505,7.12508625 C7.55634508,7.74640683 7.05266562,8.25008628 6.43134508,8.25008628 C5.8100245,8.25008631 5.30634505,7.74640685 5.30634505,7.12508639 Z"/>
</svg>
