<svg xmlns="http://www.w3.org/2000/svg" width="24" height="24" viewBox="0 0 24 24">
  <path d="M1,22 C0.44771525,22 0,21.5522847 0,21 L0,2 C0,1.44771525 0.44771525,1 1,1 L5,1 C5.55228475,1 6,1.44771525 6,2 L6,8.5 L9.5,8.5 C10.0522847,8.5 10.5,8.94771525 10.5,9.5 L10.5,11 L14,11 C14.5522847,11 15,11.4477153 15,12 L15,15.5 L18,15.5 L18,6 C18,5.44771525 18.4477153,5 19,5 L23,5 C23.5522847,5 24,5.44771525 24,6 L24,21 C24,21.5522847 23.5522847,22 23,22 L1,22 Z M19.5,20.5 L22.5,20.5 L22.5,6.5 L19.5,6.5 L19.5,20.5 Z M18,20.5 L18,17 L15,17 L15,20.5 L18,20.5 Z M13.5,20.5 L13.5,12.5 L10.5,12.5 L10.5,20.5 L13.5,20.5 Z M9,20.5 L9,10 L6,10 L6,20.5 L9,20.5 Z M4.5,2.5 L1.5,2.5 L1.5,20.5 L4.5,20.5 L4.5,2.5 Z"/>
</svg>
