<?xml version="1.0" encoding="UTF-8"?>
<svg width="24px" height="24px" viewBox="0 0 24 24" version="1.1" xmlns="http://www.w3.org/2000/svg" xmlns:xlink="http://www.w3.org/1999/xlink">
    <title>bell-g</title>
    <g id="Icons" stroke="none" stroke-width="1" fill="none" fill-rule="evenodd">
        <g id="Glyphs" transform="translate(-599.000000, -74.000000)" fill="#000000">
            <path d="M613.190283,93.500994 L613.216016,93.5039682 C613.369645,93.5277249 613.482985,93.6515173 613.5,93.7988083 L613.498202,93.8893905 L613.456362,94.1000191 C613.187018,95.2062558 612.189684,96.0274671 611.000546,96.0274671 C609.813874,96.0274671 608.818212,95.2004481 608.546415,94.0957182 L608.501018,93.8595799 L608.5,93.8335397 C608.5,93.6800382 608.603698,93.5507567 608.744862,93.5119193 L608.833527,93.5 L613.190283,93.500994 Z M620.967086,77.1066123 C621.314769,77.4794574 621.322686,78.0473106 621.004156,78.4287176 L620.91773,78.5199644 L617.394543,81.8049792 C617.67715,82.5827573 617.83161,83.4250553 617.83161,84.303658 C617.83161,86.7222861 618.039054,88.4254874 618.3729,89.5260394 L618.487956,89.8751071 L618.550896,90.0411951 L618.646531,90.2642663 C619.354283,90.8585399 618.927949,92 617.998237,92 L606.499899,92 L606.463261,91.998 L602.810263,95.4054505 C602.406348,95.7821077 601.773568,95.7600106 601.396911,95.3560951 C601.049228,94.98325 601.041311,94.4153968 601.359841,94.0339898 L601.446267,93.942743 L619.553733,77.057257 C619.957649,76.6805997 620.590428,76.7026968 620.967086,77.1066123 Z M615.750122,83.3396755 L608.614261,89.992 L616.438716,89.9927711 C616.054881,88.6955925 615.832085,86.8307609 615.832085,84.2812396 C615.832085,83.959318 615.803931,83.6446235 615.750122,83.3396755 Z M610.999899,75 C611.552053,75 611.999662,75.4412266 611.999662,75.9855072 L611.999662,77.2925436 C612.939478,77.4351899 613.815895,77.7759368 614.589111,78.2721061 C615.106305,78.7196318 615.197068,79.1812141 614.8614,79.6568529 C614.525732,80.1324918 614.011147,80.1813628 613.317646,79.8034662 C612.628289,79.4046529 611.837897,79.1783133 610.999899,79.1783133 C608.43325,79.1783133 606.313178,81.3016057 606.174887,84.0004778 L606.187392,86.9265906 C606.187681,87.6441642 605.857826,88.0029511 605.197829,88.0029511 C604.537831,88.0029511 604.196652,87.6363054 604.174291,86.9030141 L604.174291,84.0005564 C604.313113,80.5855649 606.785823,77.7804163 610.000137,77.2925436 L610.000137,75.9855072 C610.000137,75.4412266 610.447746,75 610.999899,75 Z" id="Shape"></path>
        </g>
    </g>
</svg>