<?xml version="1.0" encoding="UTF-8"?>
<svg width="24px" height="24px" viewBox="0 0 24 24" version="1.1" xmlns="http://www.w3.org/2000/svg" xmlns:xlink="http://www.w3.org/1999/xlink">
    <!-- Generator: Sketch 54.1 (76490) - https://sketchapp.com -->
    <title>bell-g</title>
    <desc>Created with Sketch.</desc>
    <g id="Icons" stroke="none" stroke-width="1" fill="none" fill-rule="evenodd">
        <path d="M10.9999999,2.75 C10.9999999,2.19771525 11.4477152,1.75 11.9999999,1.75 C12.5522847,1.75 12.9999999,2.19771525 12.9999999,2.75 L12.9999999,4.0762575 C16.3097157,4.58587621 18.833333,7.58730784 18.833333,11.1904765 C18.833333,13.6446726 19.0408258,15.3729211 19.374751,16.4896577 C19.5417065,17.0480024 19.6618474,17.250155 19.6484474,17.2387408 C20.3563673,17.8417537 19.9299325,19 18.9999997,19 L4.99999967,19 C4.17959323,19 3.70824169,18.0665436 4.19527935,17.4063459 C4.19344152,17.4088371 4.50747264,16.6921166 4.61988929,16.2878511 C4.9589997,15.0683639 5.16666634,13.3909711 5.16666634,11.1904757 C5.16666685,7.58730956 7.690288,4.58587643 10.9999999,4.07625752 L10.9999999,2.75 Z M16.833333,11.1904765 C16.833333,8.31100379 14.6556568,6.00000042 11.9999995,6 C9.3443475,6 7.16666675,8.31100603 7.16666634,11.1904759 C7.16666634,13.5645365 6.93683298,15.4209773 6.54677673,16.8236727 C6.53002326,16.8839205 6.51317684,16.9426904 6.49625901,17 L17.4401081,17 C17.0561823,15.6805659 16.833333,13.7837397 16.833333,11.1904765 Z M12,22.5 C10.405,22.5 9.25,20.98125 9.25,20.25 L14.75,20.25 C14.75,20.98125 13.595,22.5 12,22.5 Z" id="Shape" fill="#000000"></path>
    </g>
</svg>