<?xml version="1.0" encoding="UTF-8"?>
<svg width="22px" height="24px" viewBox="0 0 22 24" version="1.1" xmlns="http://www.w3.org/2000/svg" xmlns:xlink="http://www.w3.org/1999/xlink">
    <!-- Generator: Sketch 51.2 (57519) - http://www.bohemiancoding.com/sketch -->
    <title>Combined Shape</title>
    <desc>Created with Sketch.</desc>
    <defs></defs>
    <g id="Prototype" stroke="none" stroke-width="1" fill="none" fill-rule="evenodd">
        <path d="M7.59652763,21.6080163 C7.42872383,21.0363918 7.75608521,20.4369667 8.32770975,20.2691629 C8.89933429,20.1013591 9.4987594,20.4287205 9.6665632,21.000345 C9.81313674,21.4996486 10.2712548,21.8426146 10.7916275,21.8426146 C11.3120003,21.8426146 11.7701183,21.4996486 11.9166919,21.000345 C12.0844957,20.4287205 12.6839208,20.1013591 13.2555453,20.2691629 C13.8271699,20.4369667 14.1545312,21.0363918 13.9867274,21.6080163 C13.5704694,23.0260016 12.2694479,24 10.7916275,24 C9.31380718,24 8.01278569,23.0260016 7.59652763,21.6080163 Z M10.7889308,0 C15.8527678,0 19.9578187,4.10505094 19.9578187,9.16888789 C19.9578187,12.391123 20.2475604,14.6652093 20.7163135,16.1424066 C20.9590845,16.9074589 21.1483983,17.2076264 21.172386,17.2268805 C21.9668904,17.8646027 21.515952,19.1467953 20.497165,19.1467953 L1.08069656,19.1467953 C0.181478905,19.1467953 -0.322981895,18.1111968 0.23133294,17.403152 C0.347809916,17.254372 0.58945173,16.7756528 0.855131441,15.8753528 C1.33008666,14.2658879 1.62004291,12.0589342 1.62004291,9.16888789 C1.62004291,4.10505094 5.72509385,0 10.7889308,0 Z M18.6599775,16.7949355 C18.1174562,15.08527 17.8004333,12.5970629 17.8004333,9.16888789 C17.8004333,5.29654198 14.6612767,2.15738539 10.7889308,2.15738539 C6.91658489,2.15738539 3.7774283,5.29654198 3.7774283,9.16888789 C3.7774283,12.2572262 3.46061991,14.6685604 2.92430073,16.4859674 C2.87178024,16.6639418 2.81868982,16.8316622 2.76539866,16.9894099 L18.7237517,16.9894099 C18.702326,16.9261964 18.6810621,16.8613799 18.6599775,16.7949355 Z" id="Combined-Shape" fill="#000000" fill-rule="nonzero"></path>
    </g>
</svg>