<?xml version="1.0" encoding="UTF-8"?>
<svg width="24px" height="24px" viewBox="0 0 24 24" version="1.1" xmlns="http://www.w3.org/2000/svg" xmlns:xlink="http://www.w3.org/1999/xlink">
    <!-- Generator: Sketch 54.1 (76490) - https://sketchapp.com -->
    <title>bell copy 12</title>
    <desc>Created with Sketch.</desc>
    <g id="Icons" stroke="none" stroke-width="1" fill="none" fill-rule="evenodd">
        <path d="M20.2837179,17.6861538 L18.8283332,16.2307692 L18.8283332,10.5897436 C18.8283332,7.12615385 16.9780768,4.22666667 13.7514102,3.45948718 L13.7514102,2.69230769 C13.7514102,1.75589744 12.9955127,1 12.0591025,1 C11.1226922,1 10.3667948,1.75589744 10.3667948,2.69230769 L10.3667948,3.45948718 C7.12884606,4.22666667 5.2898717,7.11487179 5.2898717,10.5897436 L5.2898717,16.2307692 L3.83448708,17.6861538 C3.12371785,18.3969231 3.62012811,19.6153846 4.62423067,19.6153846 L19.4826922,19.6153846 C20.4980768,19.6153846 20.9944871,18.3969231 20.2837179,17.6861538 Z M16.571923,17.3589744 L7.54628196,17.3589744 L7.54628196,10.5897436 C7.54628196,7.79179487 9.2498717,5.51282051 12.0591025,5.51282051 C14.8683332,5.51282051 16.571923,7.79179487 16.571923,10.5897436 L16.571923,17.3589744 Z M12.0591025,23 C13.3001281,23 14.3155127,21.9846154 14.3155127,20.7435897 L9.80269221,20.7435897 C9.80269221,21.9846154 10.8067948,23 12.0591025,23 Z" id="Shape" fill="#1D1D1D"></path>
    </g>
</svg>