<?xml version="1.0" encoding="UTF-8"?>
<svg width="24px" height="24px" viewBox="0 0 24 24" version="1.1" xmlns="http://www.w3.org/2000/svg" xmlns:xlink="http://www.w3.org/1999/xlink">
    <title>bell-bold-g</title>
    <g id="Icons" stroke="none" stroke-width="1" fill="none" fill-rule="evenodd">
        <g id="Glyphs" transform="translate(-626.000000, -74.000000)" fill="#000000">
            <path d="M635.61688,93.5 L640.409311,93.5010934 L640.437618,93.504365 C640.60661,93.5304974 640.731284,93.666669 640.75,93.8286892 L640.748022,93.9283295 L640.701998,94.160021 C640.40572,95.3768813 639.308652,96.2802138 638.0006,96.2802138 C636.695262,96.2802138 635.600033,95.3704929 635.301057,94.15529 L635.25112,93.8955379 L635.25,93.8668937 C635.25,93.698042 635.364068,93.5558323 635.519348,93.5131113 L635.61688,93.5 Z M647.967086,77.1066123 C648.314769,77.4794574 648.322686,78.0473106 648.004156,78.4287176 L647.91773,78.5199644 L644.394543,81.8049792 C644.67715,82.5827573 644.83161,83.4250553 644.83161,84.303658 C644.83161,86.7222861 645.039054,88.4254874 645.3729,89.5260394 L645.487956,89.8751071 L645.550896,90.0411951 L645.646531,90.2642663 C646.354283,90.8585399 645.927949,92 644.998237,92 L633.461261,92 L629.810263,95.4054505 C629.406348,95.7821077 628.773568,95.7600106 628.396911,95.3560951 C628.049228,94.98325 628.041311,94.4153968 628.359841,94.0339898 L628.446267,93.942743 L646.553733,77.057257 C646.957649,76.6805997 647.590428,76.7026968 647.967086,77.1066123 Z M637.999899,75 C638.552053,75 638.999662,75.4412266 638.999662,75.9855072 L638.999662,77.2925436 C640.112899,77.4615119 641.13718,77.9084357 642.006356,78.5623835 L630.673315,89.131 L630.687572,89.0807589 C630.98733,87.9026419 631.168188,86.3276878 631.168188,84.3036572 C631.168188,80.7527109 633.69121,77.7947768 637.000137,77.2925436 L637.000137,75.9855072 C637.000137,75.4412266 637.447746,75 637.999899,75 Z" id="Shape"></path>
        </g>
    </g>
</svg>