<?xml version="1.0" encoding="UTF-8"?>
<svg version="1.1" viewBox="0 0 90 107" xmlns="http://www.w3.org/2000/svg" xmlns:xlink="http://www.w3.org/1999/xlink">
    <!--Generated by IJSVG (https://github.com/iconjar/IJSVG)-->
    <path d="M18.554,94.8408c-11.4734,0 -18.554,-7.22473 -18.554,-18.9417l-6.82121e-13,-56.9574c0,-11.722 7.06812,-18.9417 18.5415,-18.9417h52.917c11.4755,0 18.5415,7.22591 18.5415,18.9741v38.2629c0,2.71458 -2.15164,4.91518 -4.80582,4.91518c-2.65418,0 -4.80582,-2.2006 -4.80582,-4.91518v-38.2629c0,-6.31871 -2.76243,-9.14371 -8.92985,-9.14371h-52.917c-6.16775,0 -8.92985,2.82135 -8.92985,9.11137v56.9574c0,6.28268 2.77229,9.11137 8.94239,9.11137h55.7245v9.83036h-55.7245Zm10.1431,-58.8793c-2.65418,0 -4.80582,-2.2006 -4.80582,-4.91518c0,-2.71458 2.15164,-4.91518 4.80582,-4.91518h33.7892c2.65418,0 4.80582,2.2006 4.80582,4.91518c0,2.71458 -2.15164,4.91518 -4.80582,4.91518h-33.7892Zm0,18.6651c-2.65418,0 -4.80582,-2.2006 -4.80582,-4.91518c0,-2.71458 2.15164,-4.91518 4.80582,-4.91518h33.7892c2.65418,0 4.80582,2.2006 4.80582,4.91518c0,2.71458 -2.15164,4.91518 -4.80582,4.91518h-33.7892Zm43.2719,20.2857l16.1275,11.9907c2.0475,1.5223 2.47326,4.4162 0.950956,6.4637c-0.292863,0.393901 -0.646629,0.738613 -1.04799,1.02117l-16.1275,11.3535c-2.08628,1.46871 -4.96816,0.968077 -6.43688,-1.1182c-0.548046,-0.778489 -0.842189,-1.70729 -0.842189,-2.65934v-23.3442c0,-2.5514 2.06832,-4.61973 4.61973,-4.61973c0.99297,0 1.95951,0.31994 2.75637,0.912398Z" fill="#000"></path>
</svg>