<?xml version="1.0" encoding="UTF-8"?>
<svg version="1.1" viewBox="0 0 137 137" xmlns="http://www.w3.org/2000/svg" xmlns:xlink="http://www.w3.org/1999/xlink">
    <!--Generated by IJSVG (https://github.com/iconjar/IJSVG)-->
    <path d="M108.836,108.836c2.20673,-2.20673 5.78455,-2.20673 7.99128,0c2.20673,2.20673 2.20673,5.78455 0,7.99128c-26.726,26.726 -70.0574,26.726 -96.7831,0c-26.726,-26.726 -26.726,-70.0574 -7.10543e-15,-96.7831c26.726,-26.726 70.0574,-26.726 96.7831,-7.10543e-15c18.3211,18.3211 24.542,45.0905 16.7785,69.3238c-0.952122,2.972 -4.13325,4.60944 -7.10525,3.65732c-2.972,-0.952122 -4.60944,-4.13325 -3.65732,-7.10526c6.48427,-20.2403 1.29138,-42.5859 -14.0073,-57.8846c-22.3122,-22.3125 -58.488,-22.3125 -80.8005,4.1e-05c-22.3125,22.3122 -22.3125,58.488 4.1e-05,80.8005c22.3122,22.3125 58.488,22.3125 80.8005,-2.1e-05Zm-13.0645,-60.5881l-10.9875,32.9624c-0.562442,1.68732 -1.88649,3.01137 -3.57381,3.57381l-32.9624,10.9875c-4.41747,1.47249 -8.62011,-2.73015 -7.14762,-7.14762l10.9875,-32.9624c0.562442,-1.68732 1.88649,-3.01137 3.57381,-3.57381l32.9624,-10.9875c4.41747,-1.47249 8.62011,2.73015 7.14762,7.14762Zm-33.8558,13.6678l-6.52019,19.5606l19.5606,-6.52019l-13.0404,-13.0404Z" fill="#000"></path>
</svg>