<?xml version="1.0" encoding="UTF-8"?>
<svg width="24px" height="24px" viewBox="0 0 24 24" version="1.1" xmlns="http://www.w3.org/2000/svg" xmlns:xlink="http://www.w3.org/1999/xlink">
    <!-- Generator: Sketch 52.3 (67297) - http://www.bohemiancoding.com/sketch -->
    <title>claim</title>
    <desc>Created with Sketch.</desc>
    <g id="Icons" stroke="none" stroke-width="1" fill="none" fill-rule="evenodd">
        <path d="M19.8571429,8.32641196 L19.8571429,17.9964033 C19.8571429,20.3837979 18.3872659,21.8571429 16.0034232,21.8571429 L6.13943389,21.8571429 C3.75458009,21.8571429 2.28571429,20.3863979 2.28571429,17.9990123 L2.28571429,6.57241625 C2.28571429,4.18457436 3.75583894,2.71428571 6.14601157,2.71428571 L12.5031544,2.71428571 C13.0554392,2.71428571 13.5031544,3.16200096 13.5031544,3.71428571 C13.5031544,4.26657046 13.0554392,4.71428571 12.5031544,4.71428571 L6.14601157,4.71428571 C4.86045838,4.71428571 4.28571429,5.28909392 4.28571429,6.57241625 L4.28571429,17.9990123 C4.28571429,19.2824004 4.8597224,19.8571429 6.13943389,19.8571429 L16.0034232,19.8571429 C17.28164,19.8571429 17.8571429,19.2802821 17.8571429,17.9964033 L17.8571429,8.32641196 L16,8.32641196 C15.1622484,8.32641196 14.6958415,7.35800731 15.2181185,6.70298486 L18.0088162,2.20298486 C18.4091595,1.70088766 19.1722359,1.70088766 19.5725792,2.20298486 L22.3632768,6.70298486 C22.8855539,7.35800731 22.4191469,8.32641196 21.5813953,8.32641196 L19.8571429,8.32641196 Z M7.5,12 C6.94771525,12 6.5,11.5522847 6.5,11 C6.5,10.4477153 6.94771525,10 7.5,10 L11.5,10 C12.0522847,10 12.5,10.4477153 12.5,11 C12.5,11.5522847 12.0522847,12 11.5,12 L7.5,12 Z M7.5,16 C6.94771525,16 6.5,15.5522847 6.5,15 C6.5,14.4477153 6.94771525,14 7.5,14 L14.5,14 C15.0522847,14 15.5,14.4477153 15.5,15 C15.5,15.5522847 15.0522847,16 14.5,16 L7.5,16 Z" id="Shape" fill="#000000" fill-rule="nonzero"></path>
    </g>
</svg>