<svg xmlns="http://www.w3.org/2000/svg" width="24" height="24" viewBox="0 0 24 24">
  <path d="M140,82 L140,92.1630999 C140,94.5437074 138.491836,96 136.062347,96 L126.937653,96 C124.507106,96 123,94.5462974 123,92.1656872 L123,80.8343128 C123,78.4532375 124.508383,77 126.944424,77 L132,77 C132.552285,77 133,77.4477153 133,78 C133,78.5522847 132.552285,79 132,79 L126.944424,79 C125.596629,79 125,79.5748169 125,80.8343128 L125,92.1656872 C125,93.4252609 125.595853,94 126.937653,94 L136.062347,94 C137.402626,94 138,93.4231719 138,92.1630999 L138,82 L136.5,82 C135.714564,82 135.235722,81.1360491 135.652002,80.4700011 L138.152002,76.4700011 C138.543669,75.843333 139.456331,75.843333 139.847998,76.4700011 L142.347998,80.4700011 C142.764278,81.1360491 142.285436,82 141.5,82 L140,82 Z M128,87 C127.447715,87 127,86.5522847 127,86 C127,85.4477153 127.447715,85 128,85 L132,85 C132.552285,85 133,85.4477153 133,86 C133,86.5522847 132.552285,87 132,87 L128,87 Z M128,91 C127.447715,91 127,90.5522847 127,90 C127,89.4477153 127.447715,89 128,89 L135,89 C135.552285,89 136,89.4477153 136,90 C136,90.5522847 135.552285,91 135,91 L128,91 Z" transform="translate(-120 -74)"/>
</svg>
