<svg xmlns="http://www.w3.org/2000/svg" width="24" height="24" viewBox="0 0 24 24">
  <path d="M170.678465,91.0119212 L170.671168,91.0089419 C170.906327,91.1020847 171.171751,91.1527108 171.578115,91.1527108 C172.1304,91.1527108 172.578115,91.6004261 172.578115,92.1527108 C172.578115,92.7049956 172.1304,93.1527108 171.578115,93.1527108 C170.909456,93.1527108 170.389721,93.0511864 169.917442,92.8615253 C168.116687,94.4219093 166.035321,94.9866714 163.163592,95.05237 C162.248754,95.0732994 161.788656,93.956262 162.452844,93.3268031 C162.513658,93.2691692 162.627739,93.1566173 162.77688,93.0017422 C163.026942,92.7420668 163.276922,92.4643316 163.50807,92.1823514 C163.736518,91.9036663 163.9331,91.6368514 164.08751,91.3917522 C164.289152,91.0716795 164.399129,90.8150109 164.418906,90.6861796 C162.275508,89.1181806 161,86.8523496 161,84.3929237 C161,79.7055877 165.574129,76 171.125759,76 C175.423093,76 179.236282,78.2345234 180.667377,81.5715331 C180.885054,82.0791106 180.650044,82.667046 180.142466,82.8847234 C179.634888,83.1024008 179.046953,82.8673903 178.829276,82.3598127 C177.731073,79.7990359 174.661038,78 171.125759,78 C166.596877,78 163,80.9138979 163,84.3929237 C163,86.2957136 164.075674,88.0835473 165.932199,89.302425 C166.169866,89.4584624 166.329879,89.7082888 166.372222,89.98943 C166.405219,90.2085125 166.422159,90.4280939 166.422159,90.6484746 C166.422159,91.2236982 166.187108,91.8111265 165.779701,92.4578146 C165.706456,92.5740784 165.627813,92.6915876 165.544165,92.8102127 C166.934667,92.5244132 168.017432,91.9641882 168.996643,90.9878501 C169.215467,90.7696691 169.522865,90.6649071 169.829385,90.7040506 C170.100573,90.7386822 170.847851,91.0786697 170.678465,91.0119212 Z M177.904307,85.9716237 L177.999885,86.0712529 L178.096329,85.9707207 C179.242645,84.7763687 181.063677,84.6442129 182.167697,85.79557 C183.277802,86.9532726 183.277383,88.8215926 182.16683,89.9786755 L181.68575,90.4784331 L178.336011,93.5201619 C178.145363,93.6932794 177.854408,93.6932794 177.66376,93.5201619 L174.289332,90.4544123 L173.832941,89.9786754 C172.722353,88.8210114 172.722353,86.9523282 173.832941,85.7946643 C174.936809,84.6440061 176.758198,84.7769326 177.904307,85.9716237 Z" transform="translate(-160 -74)"/>
</svg>
