<svg xmlns="http://www.w3.org/2000/svg" width="24" height="24" viewBox="0 0 24 24">
  <path d="M181.453986,79.8339609 L181.627086,80.2396341 L181.712125,80.448431 L181.869091,80.8510306 L181.946338,81.0576287 L182.098463,81.4814772 L182.247566,81.9196021 L182.393812,82.3720921 L182.537364,82.8390357 L182.607228,83.0747955 L182.739324,83.5383361 C182.760488,83.6147132 182.781225,83.6906527 182.801534,83.766158 L182.918224,84.2140077 L182.972681,84.4340766 L183.073765,84.8666052 C184.351651,90.5665643 182.825695,93.5975737 177.551835,95.7130751 L177.149254,95.8700485 C176.876162,95.9735896 176.593641,96.0749515 176.301573,96.1743534 L175.856297,96.3220137 L175.279428,96.5027051 L174.692506,96.6755447 L174.234257,96.8025332 C174.083253,96.843152 173.933986,96.8820552 173.786428,96.919228 L173.348853,97.0255407 C173.118374,97.0794122 172.892194,97.1288236 172.6702,97.1737145 L172.231761,97.2574514 C167.108824,98.1765931 164.288813,96.5413042 162.287875,91.5525995 L162.130909,91.1499999 L162.053662,90.9434018 L161.901537,90.5195534 C161.876439,90.4477247 161.851467,90.3753012 161.826618,90.302281 L161.678964,89.8569845 L161.534086,89.3972788 L161.392772,88.926235 L161.260676,88.4626944 C161.197183,88.2335632 161.137533,88.0083702 161.081776,87.7870228 L160.975468,87.3494283 C159.593938,81.4382975 161.145796,78.3542597 166.647693,76.2090499 L167.057335,76.0537314 C167.265695,75.9768825 167.479376,75.9012285 167.698427,75.8266771 L168.143703,75.6790168 L168.371739,75.6062378 L168.838662,75.4626793 L169.307494,75.3254858 L169.765743,75.1984973 C169.916747,75.1578785 170.066014,75.1189754 170.213572,75.0818025 L170.651147,74.9754898 L171.106406,74.8737115 C176.426606,73.7401289 179.381181,75.1272169 181.453986,79.8339609 Z M172.167273,85.2136355 C170.631641,85.2136355 170.231971,85.7521664 170.207033,86.1565496 L170.206858,86.286734 L170.206858,86.286734 L170.282087,88.5333234 L170.282087,88.5333234 L170.391512,91.4245396 L170.391512,91.4245396 C170.401029,91.6923273 170.581397,91.7846736 170.6904,91.7827981 L170.814088,91.7779417 L170.814088,91.7779417 L170.936701,91.767523 L171.391247,91.7141294 L171.614015,91.6825552 C172.224306,91.5880135 172.958928,91.4126241 173.683163,91.2020703 C173.826095,91.160516 173.967978,91.0437822 173.975899,90.8050826 L174.122671,86.5127018 L174.122671,86.5127018 L174.128787,86.1978762 L174.128787,86.1978762 C174.128787,85.7899468 173.755857,85.2136355 172.167273,85.2136355 Z M168.102333,86.67327 C167.04067,86.67327 166.65601,87.0089463 166.51664,87.2521899 L166.499115,87.2847464 L166.465904,87.362674 L166.465904,87.362674 L166.44746,87.4268193 L166.440418,87.465318 L166.437453,87.4987631 L166.433247,87.5237092 C166.430443,87.5543666 166.431845,87.602158 166.437453,87.6670834 C166.443061,87.7320089 166.450101,87.7819512 166.458573,87.8169103 L166.467523,87.8468751 L166.551165,88.1037438 C166.691989,88.5275742 166.839228,88.9279514 166.982543,89.2743832 L167.067979,89.4755248 L167.265075,89.8925362 L167.334684,90.0273586 C167.629598,90.5602942 168.118997,91.0152147 168.686513,91.3283625 L168.850559,91.4151652 C168.933685,91.4525825 169.093268,91.433194 169.106364,91.2148122 L169.106137,91.1502129 L168.965751,87.029836 C168.961962,86.9186154 168.879133,86.804206 168.77263,86.7580029 L168.725698,86.7425856 L168.613596,86.716512 L168.508151,86.6993436 L168.36967,86.6841005 C168.292347,86.6776022 168.203036,86.67327 168.102333,86.67327 Z M176.147814,86.67327 L176.051452,86.6746238 L176.051452,86.6746238 L175.963004,86.6783666 L175.810209,86.6911082 L175.746038,86.6991514 L175.642592,86.7161933 L175.550989,86.736978 L175.487546,86.7573799 C175.398471,86.7967177 175.326239,86.8860658 175.304854,86.9830438 L175.298556,87.0319725 L175.178289,90.4188097 L175.178753,90.4999778 L175.188011,90.5678388 C175.205799,90.6508052 175.251672,90.7330349 175.36671,90.7103905 L175.413172,90.6967795 L175.655981,90.6037646 L175.950069,90.4878016 L176.101972,90.4244173 L176.518965,90.2273126 L176.635207,90.170055 C177.019992,89.9749387 177.376464,89.7320692 177.661184,89.286146 C177.788781,89.0863063 177.837558,88.7526277 177.85056,88.4273337 L177.853843,88.3060193 L177.853299,88.1135579 L177.850857,88.0220723 L177.843013,87.8531552 L177.827991,87.6486082 L177.80973,87.465318 L177.796804,87.4030907 L177.778922,87.3480533 L177.751032,87.2847464 C177.627708,87.0401558 177.257735,86.67327 176.147814,86.67327 Z M168.323377,82.9740639 C167.613005,82.9740639 167.037135,83.549934 167.037135,84.2603057 C167.037135,84.9706775 167.613005,85.5465476 168.323377,85.5465476 C169.033749,85.5465476 169.609619,84.9706775 169.609619,84.2603057 C169.609619,83.549934 169.033749,82.9740639 168.323377,82.9740639 Z M176.010563,82.9740639 C175.300192,82.9740639 174.724322,83.549934 174.724322,84.2603057 C174.724322,84.9706775 175.300192,85.5465476 176.010563,85.5465476 C176.720935,85.5465476 177.296805,84.9706775 177.296805,84.2603057 C177.296805,83.549934 176.720935,82.9740639 176.010563,82.9740639 Z M172.151838,80.7042253 C171.232533,80.7042253 170.48729,81.449469 170.48729,82.3687736 C170.48729,83.2880782 171.232533,84.0333219 172.151838,84.0333219 C173.071142,84.0333219 173.816386,83.2880782 173.816386,82.3687736 C173.816386,81.449469 173.071142,80.7042253 172.151838,80.7042253 Z" transform="translate(-160 -74)"/>
</svg>
