<svg xmlns="http://www.w3.org/2000/svg" width="24" height="24" viewBox="0 0 24 24">
  <path d="M181.865029,79.5658722 L182.045655,79.9891834 L182.134391,80.2070584 L182.298182,80.6271623 L182.378788,80.842743 L182.537527,81.2850197 L182.693113,81.7421935 L182.845717,82.214357 L182.99551,82.7016025 L183.068411,82.9476127 L183.206251,83.4313073 C183.228335,83.5110051 183.249974,83.5902463 183.271166,83.6690345 L183.392929,84.1363559 L183.449754,84.365993 L183.555233,84.8173272 C184.888679,90.7651106 183.296377,93.927903 177.79322,96.1353827 L177.373135,96.2991811 C177.088169,96.4072239 176.793364,96.5129929 176.488598,96.6167166 L176.023962,96.7707969 L175.422012,96.9593445 L174.809571,97.1396989 L174.331399,97.2722085 C174.173829,97.3145934 174.018072,97.355188 173.864098,97.3939771 L173.407498,97.5049121 C173.166999,97.5611258 172.930985,97.6126855 172.699339,97.6595282 L172.241837,97.7469058 C166.896164,98.7060102 163.953544,96.9996218 161.865609,91.7940169 L161.701818,91.373913 L161.621212,91.1583323 L161.462473,90.7160557 C161.436284,90.641104 161.410226,90.5655317 161.384297,90.4893367 L161.230223,90.0246795 L161.079046,89.5449866 L160.931589,89.0534626 L160.793749,88.569768 C160.727495,88.3306746 160.665252,88.0956906 160.607071,87.8647195 L160.496141,87.4080991 C159.054544,81.2399627 160.673874,78.0218362 166.414984,75.7833564 L166.842436,75.6212849 C167.059856,75.5410947 167.282827,75.4621515 167.511402,75.3843587 L167.976038,75.2302784 L168.213989,75.1543351 L168.701213,75.0045349 L169.190429,74.8613765 L169.668601,74.7288668 C169.826171,74.686482 169.981928,74.6458873 170.135902,74.6070983 L170.592502,74.4961633 L171.067554,74.3899599 C176.619067,73.207091 179.702102,74.6544872 181.865029,79.5658722 Z M172.174545,85.1794458 C170.572147,85.1794458 170.155101,85.741391 170.129078,86.1633561 L170.128895,86.2992007 L170.207395,88.6434679 L170.321577,91.6603892 C170.331508,91.9398198 170.519719,92.0361812 170.633461,92.0342241 L170.762527,92.0291566 L170.89047,92.0182849 L171.364779,91.9625698 L171.597233,91.9296228 C172.234059,91.8309706 173.000621,91.6479556 173.756344,91.4282472 C173.905491,91.3848863 174.053542,91.2630771 174.061808,91.0139992 L174.214961,86.5349932 L174.221343,86.2064795 C174.221343,85.7808141 173.832199,85.1794458 172.174545,85.1794458 Z M167.93287,86.7025426 C166.825047,86.7025426 166.423663,87.0528135 166.278233,87.306633 L166.259946,87.3406049 L166.225291,87.4219207 L166.206045,87.488855 L166.198697,87.5290275 L166.195603,87.5639268 L166.191214,87.5899574 C166.188288,87.6219477 166.189751,87.671817 166.195603,87.7395653 C166.201455,87.8073136 166.208801,87.8594273 166.217642,87.8959064 L166.22698,87.927174 L166.314259,88.1952109 C166.461206,88.6374687 166.614847,89.0552536 166.764393,89.4167476 L166.853543,89.6266346 L167.059208,90.0617769 L167.131844,90.2024611 C167.43958,90.7585678 167.950258,91.2332676 168.542448,91.5600304 L168.713627,91.6506072 C168.800367,91.6896513 168.966888,91.6694198 168.980554,91.4415431 L168.980316,91.3741352 L168.833827,87.0746115 C168.829873,86.9585552 168.743443,86.8391715 168.63231,86.7909596 L168.583337,86.774872 L168.466361,86.7476647 L168.356331,86.7297498 L168.211829,86.713844 C168.131145,86.7070632 168.03795,86.7025426 167.93287,86.7025426 Z M176.328154,86.7025426 L176.227602,86.7039552 L176.135309,86.7078608 L175.97587,86.7211564 L175.908909,86.7295493 L175.800965,86.7473321 L175.70538,86.7690206 L175.639179,86.7903094 C175.54623,86.8313576 175.470858,86.9245904 175.448543,87.0257849 L175.441971,87.0768408 L175.316476,90.6109319 L175.31696,90.695629 L175.32662,90.7664405 C175.345182,90.8530141 175.393049,90.938819 175.513089,90.9151901 L175.56157,90.9009873 L175.814937,90.8039283 L176.121811,90.6829234 L176.280319,90.6167833 L176.715442,90.4111088 L176.836737,90.3513618 C177.238253,90.1477622 177.610223,89.8943331 177.907323,89.4290219 C178.040467,89.2204935 178.091365,88.8723072 178.104932,88.53287 L178.108358,88.406281 L178.107791,88.2054517 L178.105242,88.1099884 L178.097057,87.9337272 L178.081382,87.7202869 L178.062327,87.5290275 L178.048839,87.4640947 L178.030179,87.4066643 L178.001077,87.3406049 C177.872391,87.08538 177.486332,86.7025426 176.328154,86.7025426 Z M168.163524,82.8425014 C167.422266,82.8425014 166.821358,83.4434094 166.821358,84.1846668 C166.821358,84.9259243 167.422266,85.5268322 168.163524,85.5268322 C168.904781,85.5268322 169.505689,84.9259243 169.505689,84.1846668 C169.505689,83.4434094 168.904781,82.8425014 168.163524,82.8425014 Z M176.184936,82.8425014 C175.443678,82.8425014 174.84277,83.4434094 174.84277,84.1846668 C174.84277,84.9259243 175.443678,85.5268322 176.184936,85.5268322 C176.926193,85.5268322 177.527101,84.9259243 177.527101,84.1846668 C177.527101,83.4434094 176.926193,82.8425014 176.184936,82.8425014 Z M172.158439,80.4739743 C171.199165,80.4739743 170.42152,81.2516198 170.42152,82.2108942 C170.42152,83.1701686 171.199165,83.9478141 172.158439,83.9478141 C173.117714,83.9478141 173.895359,83.1701686 173.895359,82.2108942 C173.895359,81.2516198 173.117714,80.4739743 172.158439,80.4739743 Z" transform="translate(-160 -74)"/>
</svg>
