<svg xmlns="http://www.w3.org/2000/svg" width="24" height="24" viewBox="0 0 24 24">
  <path d="M131,77 C131.552285,77 132,77.4477153 132,78 C132,78.5128358 131.61396,78.9355072 131.116621,78.9932723 L131,79 L127.661609,79 C127.412819,79 127.193307,79.0033542 126.997487,79.0105983 L126.635782,79.0304321 C126.0245,79.076885 125.681669,79.1804393 125.331879,79.367509 C124.913555,79.5912312 124.591231,79.9135553 124.367509,80.3318794 C124.180439,80.6816694 124.076885,81.0244998 124.030432,81.635782 L124.010598,81.9974873 L124.004631,82.2014113 L124,82.6616095 L124,89.3383905 C124,89.5871812 124.003354,89.806693 124.010598,90.0025127 L124.030432,90.364218 C124.076885,90.9755002 124.180439,91.3183306 124.367509,91.6681206 C124.591231,92.0864447 124.913555,92.4087688 125.331879,92.632491 C125.681669,92.8195607 126.0245,92.923115 126.635782,92.9695679 L126.997487,92.9894017 L127.201411,92.995369 L127.661609,93 L134.338391,93 L134.798589,92.995369 L135.002513,92.9894017 L135.364218,92.9695679 C135.9755,92.923115 136.318331,92.8195607 136.668121,92.632491 C137.086445,92.4087688 137.408769,92.0864447 137.632491,91.6681206 C137.842218,91.2759658 137.94201,90.9099512 137.980842,90.1682888 L137.996272,89.7240763 C138.007595,89.1719077 138.464396,88.7334663 139.016565,88.7447902 C139.568734,88.756114 140.007175,89.2129149 139.995851,89.7650835 C139.968217,91.1125514 139.806747,91.8435086 139.396117,92.6113183 C138.985996,93.3781794 138.378179,93.9859956 137.611318,94.3961174 C136.825563,94.8163438 136.068076,94.9794019 134.634359,94.9981426 L134.338391,95 L127.661609,95 C126.032796,95 125.22682,94.8443589 124.388682,94.3961174 C123.621821,93.9859956 123.014004,93.3781794 122.603883,92.6113183 C122.183656,91.8255633 122.020598,91.0680763 122.001857,89.6343591 L122,82.6616095 C122,81.0327963 122.155641,80.2268204 122.603883,79.3886817 C123.014004,78.6218206 123.621821,78.0140044 124.388682,77.6038826 C125.174437,77.1836562 125.931924,77.0205981 127.365641,77.0018574 L131,77 Z M134,88 C134.552285,88 135,88.4477153 135,89 C135,89.5128358 134.61396,89.9355072 134.116621,89.9932723 L134,90 L127.5,90 C126.947715,90 126.5,89.5522847 126.5,89 C126.5,88.4871642 126.88604,88.0644928 127.383379,88.0067277 L127.5,88 L134,88 Z M130,84 C130.552285,84 131,84.4477153 131,85 C131,85.5128358 130.61396,85.9355072 130.116621,85.9932723 L130,86 L127.5,86 C126.947715,86 126.5,85.5522847 126.5,85 C126.5,84.4871642 126.88604,84.0644928 127.383379,84.0067277 L127.5,84 L130,84 Z M140.752226,84.5008848 L140.772813,84.5035326 C140.895716,84.5246813 140.986388,84.6348836 141,84.7660049 L140.998561,84.8466429 L140.965089,85.0341486 C140.749614,86.0189418 139.951747,86.75 139.000436,86.75 C138.051099,86.75 137.25457,86.0137717 137.037132,85.0303199 L137.000814,84.8201049 L137,84.7969235 C137,84.6602735 137.082958,84.5451846 137.19589,84.5106108 L137.266821,84.5 L140.752226,84.5008848 Z M139.015168,74 C141.067918,74 142.654501,75.8003938 142.654501,77.9205136 C142.654501,80.0406334 143.071655,80.7173746 143.697899,81.2096117 C144.324144,81.7018488 143.870238,83 143.30089,83 L134.729445,83 C134.227155,83 133.673849,81.7399472 134.236759,81.3162411 C134.770041,80.9148353 135.315222,79.9842604 135.371132,78.2219795 L135.375834,77.9205131 C135.375834,75.9617963 136.962417,74 139.015168,74 Z" transform="translate(-120 -74)"/>
</svg>
