<?xml version="1.0" encoding="UTF-8"?>
<svg version="1.1" viewBox="0 0 119 102" xmlns="http://www.w3.org/2000/svg" xmlns:xlink="http://www.w3.org/1999/xlink">
    <!--Generated by IJSVG (https://github.com/iconjar/IJSVG)-->
    <path d="M57.6914,81.4753c2.8541,0 5.1678,2.28064 5.1678,5.09395c0,2.81331 -2.3137,5.09395 -5.1678,5.09395c-3.67317,0 -6.50533,-0.560563 -9.08251,-1.60601c-9.76802,8.42223 -21.0612,11.467 -36.689,11.8205c-4.72414,0.106847 -7.10391,-5.57583 -3.67885,-8.78482c0.333674,-0.312625 0.957123,-0.92071 1.77143,-1.7567c1.36491,-1.40124 2.72941,-2.89997 3.99179,-4.42242c1.24949,-1.5069 2.3255,-2.95071 3.17229,-4.27954c1.20472,-1.8905 1.82553,-3.38998 1.86362,-4.08733c-11.6685,-8.38433 -18.6109,-20.5264 -18.6109,-33.7016c8.88178e-16,-25.0286 24.7433,-44.8453 54.8019,-44.8453c25.2412,0 47.2204,14.0581 53.2221,34.0948c0.808223,2.69815 -0.755578,5.53126 -3.49285,6.32796c-2.73727,0.796673 -5.61145,-0.744781 -6.4197,-3.44293c-4.61893,-15.4197 -22.3987,-26.7918 -43.3098,-26.7918c-24.7683,0 -44.4662,15.7759 -44.4662,34.6574c3.55271e-15,10.3357 5.90343,20.0358 16.076,26.6384c1.22575,0.795583 2.05051,2.06737 2.26846,3.49797c0.177265,1.16355 0.268248,2.32943 0.268248,3.49932c0,3.0241 -1.2601,6.13739 -3.4489,9.57219c-0.516398,0.81036 -1.08279,1.63251 -1.69441,2.46479c7.94415,-1.50101 14.0734,-4.55605 19.6028,-10.0064c1.13154,-1.11537 2.72344,-1.6511 4.31071,-1.45071c1.43699,0.181418 5.46138,1.99375 4.53423,1.63101c1.27979,0.502986 2.75823,0.783449 5.00937,0.783449l3.87e-05,-5.1e-05Zm56.0953,-3.85455l-17.9816,17.7246c-1.66048,1.63675 -4.35266,1.63675 -6.01313,0l-17.9816,-17.7246c-6.03056,-5.94438 -6.03056,-15.5821 2.6e-06,-21.5265c5.71775,-5.63604 16.0481,-3.75009 20.9887,1.53451c4.71645,-5.2846 15.2724,-7.17072 20.9921,-1.53015c6.02801,5.94476 6.02571,15.5808 -0.004509,21.5221Z" fill="#000"></path>
</svg>