<?xml version="1.0" encoding="UTF-8"?>
<svg width="24px" height="24px" viewBox="0 0 24 24" version="1.1" xmlns="http://www.w3.org/2000/svg" xmlns:xlink="http://www.w3.org/1999/xlink">
    <!-- Generator: Sketch 54.1 (76490) - https://sketchapp.com -->
    <title>bell copy 48</title>
    <desc>Created with Sketch.</desc>
    <g id="Icons" stroke="none" stroke-width="1" fill="none" fill-rule="evenodd">
        <path d="M1.75000217,14.2828963 L1.75000217,13.3611111 C1.75000217,12.0724542 2.79467861,11.0277778 4.0833355,11.0277778 L11.2468355,11.0277778 L11.2468355,8.34722222 C11.2468355,7.93300866 11.5826219,7.59722222 11.9968355,7.59722222 C12.4110491,7.59722222 12.7468355,7.93300866 12.7468355,8.34722222 L12.7468355,11.0277778 L19.9166688,11.0277778 C21.2053257,11.0277778 22.2500022,12.0724542 22.2500022,13.3611111 L22.2500022,21.2777778 C22.2500022,22.5664347 21.2053257,23.6111111 19.9166688,23.6111111 L4.0833355,23.6111111 C2.79467861,23.6111111 1.75000217,22.5664347 1.75000217,21.2777778 L1.75000217,14.2938457 L1.75000058,14.2837725 L1.75000217,14.2828963 Z M3.25000217,17.1700182 L3.25000217,21.2777778 C3.25000217,21.7380075 3.62310573,22.1111111 4.0833355,22.1111111 L19.9166688,22.1111111 C20.3768986,22.1111111 20.7500022,21.7380075 20.7500022,21.2777778 L20.7500022,17.1708205 C20.6746639,17.2234849 20.5969203,17.2734305 20.5168726,17.3204797 C19.1501949,18.1237618 17.4629156,17.8976593 16.3549112,16.8758068 C16.168734,17.0479285 15.9636594,17.1999975 15.742888,17.3288131 C14.3807614,18.1235926 12.7033715,17.8946297 11.6028746,16.8766019 C10.3855744,18.0005414 8.57259227,18.1013373 7.24880752,17.1948907 C6.66799699,17.5907424 5.97690516,17.8067007 5.26328493,17.8058123 C4.51416761,17.8048811 3.82003428,17.5698531 3.25000217,17.1700182 L3.25000217,17.1700182 Z M3.25000217,14.292433 C3.25228387,15.4036408 4.15309174,16.3044311 5.26515089,16.3058134 C5.81024071,16.306492 6.33241218,16.0865949 6.71279518,15.6961814 C7.0075245,15.3936802 7.49379642,15.3940803 7.78802754,15.6970661 C8.55946788,16.4914602 9.82882514,16.5100681 10.6232205,15.7386308 C10.7531441,15.6124615 10.8653741,15.4692714 10.9568488,15.3129669 C11.2467038,14.8176865 11.9627323,14.8181546 12.2519395,15.3138135 C12.8085281,16.2677249 14.0330289,16.5898195 14.9869376,16.0332287 C15.2847555,15.859458 15.5325821,15.6116313 15.7063528,15.3138135 C15.9952446,14.8186948 16.710259,14.817554 17.0007291,15.3117484 C17.5641966,16.2704095 18.7981324,16.5907783 19.7567954,16.027312 C20.3736414,15.6647516 20.751737,15.0020666 20.7499896,14.2865367 L20.7500022,14.2798914 L20.7500022,13.3611111 C20.7500022,12.9008813 20.3768986,12.5277778 19.9166688,12.5277778 L4.0833355,12.5277778 C3.62310573,12.5277778 3.25000217,12.9008813 3.25000217,13.3611111 L3.25000217,14.292433 L3.25000217,14.292433 Z M14.3333355,4.125 C14.3333355,5.41366428 13.2886665,6.45833333 12.0000022,6.45833333 C10.7113379,6.45833333 9.66666884,5.41366428 9.66666884,4.125 C9.66666884,3.71510529 9.82952377,3.30056545 10.1110689,2.84763618 C10.2550804,2.61596095 10.4292676,2.37790762 10.6275294,2.13523522 C10.814616,1.90624126 11.0133267,1.68495698 11.2119815,1.47835596 C11.3318659,1.3536762 11.4265702,1.26016248 11.4840125,1.20570715 C11.7733334,0.931430951 12.2266709,0.931430951 12.5159918,1.20570715 C12.5734341,1.26016248 12.6681384,1.3536762 12.7880228,1.47835596 C12.9866776,1.68495698 13.1853884,1.90624126 13.3724749,2.13523522 C13.5707367,2.37790762 13.744924,2.61596095 13.8889355,2.84763618 C14.1704806,3.30056545 14.3333355,3.71510529 14.3333355,4.125 Z M11.7891416,3.08426478 C11.6288687,3.28043876 11.4916192,3.46801103 11.3850038,3.63952613 C11.2382257,3.87565206 11.1666688,4.0577969 11.1666688,4.125 C11.1666688,4.58523716 11.539765,4.95833333 12.0000022,4.95833333 C12.4602393,4.95833333 12.8333355,4.58523716 12.8333355,4.125 C12.8333355,4.0577969 12.7617786,3.87565206 12.6150005,3.63952613 C12.5083851,3.46801103 12.3711356,3.28043876 12.2108627,3.08426478 C12.1426402,3.00076042 12.0720112,2.91780245 12.0000022,2.83614942 C11.9279931,2.91780245 11.8573641,3.00076042 11.7891416,3.08426478 Z" id="Shape" fill="#000000" fill-rule="nonzero"></path>
    </g>
</svg>