<?xml version="1.0" encoding="UTF-8"?>
<svg width="24px" height="24px" viewBox="0 0 24 24" version="1.1" xmlns="http://www.w3.org/2000/svg" xmlns:xlink="http://www.w3.org/1999/xlink">
    <!-- Generator: Sketch 54.1 (76490) - https://sketchapp.com -->
    <title>bell copy 49</title>
    <desc>Created with Sketch.</desc>
    <g id="Icons" stroke="none" stroke-width="1" fill="none" fill-rule="evenodd">
        <path d="M11.0045667,10.0277778 C11.0035596,10.0093872 11.0030495,9.99086428 11.0030495,9.97222222 L11.0030495,7.59722222 C11.0030495,7.04493747 11.4507648,6.59722222 12.0030495,6.59722222 C12.5553343,6.59722222 13.0030495,7.04493747 13.0030495,7.59722222 L13.0030495,9.97222222 C13.0030495,9.99086428 13.0025394,10.0093872 13.0015324,10.0277778 L18.6728829,10.0277778 C20.0032551,10.0277778 21.0062162,11.2187941 21.0062162,12.6111111 L21.0062162,20.5277778 C21.0062162,21.9200948 20.0032551,23.1111111 18.6728829,23.1111111 L5.33954953,23.1111111 C4.00917727,23.1111111 3.00621619,21.9200948 3.00621619,20.5277778 L3.00621619,13.6042305 C2.99813419,13.4279325 2.99813404,13.2464618 3.00621615,13.0600517 L3.00621619,12.6111111 C3.00621619,11.2187941 4.00917727,10.0277778 5.33954953,10.0277778 L11.0045667,10.0277778 Z M5.00621619,16.8595186 L5.00621619,20.5277778 C5.00621619,20.8843474 5.19717512,21.1111111 5.33954953,21.1111111 L18.6728829,21.1111111 C18.8152573,21.1111111 19.0062162,20.8843474 19.0062162,20.5277778 L19.0062162,16.8421207 C17.5913467,17.6006582 15.8856982,17.4005199 14.7004153,16.4411669 C14.5354144,16.5750752 14.3586766,16.6956554 14.1718426,16.8013658 C12.7284879,17.6180207 10.9621418,17.4134164 9.75844913,16.4081797 C8.43785137,17.4630246 6.65329828,17.7224226 5.00621619,16.8595186 Z M5.00621619,13.5821208 C5.05129339,14.3337857 5.32893961,14.7795052 5.85690855,15.0467071 C7.01991592,15.683302 8.23666816,15.3445314 9.0058373,14.3355387 C9.43403179,13.7738351 10.2938052,13.8210224 10.6579565,14.4262127 C11.1661467,15.2707839 12.3030732,15.5607806 13.1869582,15.0606756 C13.4598506,14.9062733 13.6855106,14.6874514 13.8427013,14.4262128 C14.2306141,13.7815324 15.1647183,13.78002 15.5547165,14.423441 C16.0697048,15.2730709 17.2163343,15.5617511 18.1052689,15.0551011 C18.6676405,14.7345751 19.0077521,14.1565298 19.0061871,13.5372573 C19.006178,13.5336816 19.0061878,13.5301102 19.0062162,13.5265433 L19.0062162,12.6111111 C19.0062162,12.2545415 18.8152573,12.0277778 18.6728829,12.0277778 L5.33954953,12.0277778 C5.19717512,12.0277778 5.00621619,12.2545415 5.00621619,12.6111111 L5.00621619,13.0753846 C5.00624336,13.0796625 5.00624341,13.0839462 5.00621619,13.0882355 L5.00621619,13.5821208 Z M13.9228829,3 C13.9228829,4.10456933 13.0274522,5 11.9228829,5 C10.8183135,5 9.92288286,4.10456933 9.92288286,3 C9.92288286,1.896 11.9228829,0 11.9228829,0 C11.9228829,0 13.9228829,1.896 13.9228829,3 Z" id="Combined-Shape" fill="#000000" fill-rule="nonzero"></path>
    </g>
</svg>