<?xml version="1.0" encoding="UTF-8"?>
<svg width="24px" height="24px" viewBox="0 0 24 24" version="1.1" xmlns="http://www.w3.org/2000/svg" xmlns:xlink="http://www.w3.org/1999/xlink">
    <!-- Generator: Sketch 52.3 (67297) - http://www.bohemiancoding.com/sketch -->
    <title>bell copy 4</title>
    <desc>Created with Sketch.</desc>
    <g id="Icons" stroke="none" stroke-width="1" fill="none" fill-rule="evenodd">
        <path d="M10.9962405,19.453475 C10.9822343,19.3859309 10.9748739,19.3159534 10.9748739,19.2442567 L10.9748739,6.66026942 C9.68682564,5.62881256 7.09041362,4.16169678 2.66170812,4.05068803 C2.33346772,4.04135326 2.05980861,4.29987799 2.05047394,4.6281184 C2.05035719,4.63222361 2.05028298,4.63632991 2.05025132,4.64043667 L2.05025132,16.5222461 C2.05150877,16.8441565 2.30969977,17.1060966 2.63155787,17.1119953 C7.10373641,17.2182339 9.7129148,18.5372948 10.9962405,19.453475 Z M11.9450232,20.2679334 C11.9820832,20.3086754 12.0000004,20.3308898 12.0000004,20.3308898 C12.0000003,20.3308899 12.0179174,20.3086754 12.0549775,20.2679333 C12.0367734,20.2688953 12.0184434,20.2693824 11.9999996,20.2693824 C11.9815563,20.2693824 11.9632268,20.2688953 11.9450232,20.2679334 Z M13.0037585,19.4534759 C14.0989761,18.6715877 16.1598511,17.5962694 19.5202591,17.231797 C20.097421,17.1691976 20.7129181,17.1275676 21.3684421,17.1119954 C21.6903002,17.1060972 21.948492,16.8441566 21.9497487,16.5222466 L21.9497487,4.64043719 C21.9479033,4.31273532 21.6807521,4.04857611 21.3530496,4.05042134 C21.3481294,4.05044905 21.3432097,4.05053795 21.3382916,4.05068803 C16.9117682,4.16096283 14.3139453,5.6293866 13.0251253,6.66116644 L13.0251253,19.2442567 C13.0251253,19.3159537 13.0177649,19.3859315 13.0037585,19.4534759 Z M10.4041375,21.6180386 C10.2518103,21.4291768 9.75415907,21.0096509 8.84334329,20.5415002 C7.28506779,19.7405615 5.22498079,19.224433 2.59398922,19.1619024 C1.15775511,19.1355805 0.00562675663,17.9667202 0,16.5222461 L6.09302448e-05,4.62463032 C0.000366826999,4.59722927 0.000366826999,4.59722927 0.00105118752,4.56983584 C0.0425744329,3.10973046 1.25988552,1.95974161 2.71308303,2.00108049 C6.00099387,2.08349438 8.69702973,2.84534417 10.8266647,4.08416781 C11.2543264,4.33294161 11.6452741,4.59329609 12.0006145,4.86078599 C12.3560853,4.59331111 12.7471271,4.33295869 13.1748399,4.08417703 C15.3054054,2.84492121 18.0011999,2.08293516 21.2757543,2.0013907 C21.3086241,2.00052402 21.3086241,2.00052402 21.3415052,2.00020252 C22.8015113,1.99198152 23.9917459,3.16888522 24,4.64043719 L24,15.3040255 C24,15.7777781 24,15.7777781 23.9999844,16.5302504 C23.9943766,17.9667193 22.8422442,19.1355828 21.417133,19.1616684 C20.8344503,19.1755103 20.2760376,19.2121001 19.7413344,19.2700944 C17.6226097,19.4998929 15.9752722,20.04479 14.7350999,20.7730725 C14.3298682,21.011042 14.0073431,21.2467573 13.7612956,21.4648519 C13.6859435,21.5316434 13.6276615,21.5881259 13.585782,21.6323275 C13.5797575,21.638686 13.5749061,21.6439234 13.5718838,21.6472332 C12.74534,22.6354137 11.2168559,22.6256823 10.4041375,21.6180386 Z" id="Shape" fill="#000000" fill-rule="nonzero"></path>
    </g>
</svg>