<?xml version="1.0" encoding="UTF-8"?>
<svg width="24px" height="24px" viewBox="0 0 24 24" version="1.1" xmlns="http://www.w3.org/2000/svg" xmlns:xlink="http://www.w3.org/1999/xlink">
    <title>bookmark-bold-g</title>
    <g id="Icons" stroke="none" stroke-width="1" fill="none" fill-rule="evenodd">
        <g id="Glyphs" transform="translate(-4179, -165)" fill="#000000" fill-rule="nonzero">
            <path d="M4195.625,168 C4196.25637,168 4196.86153,168.252408 4197.3069,168.700975 C4197.75089,169.148164 4198,169.753687 4198,170.384615 L4198,184.931691 C4198,185.622047 4197.44036,186.181699 4196.75,186.181699 C4196.43726,186.181699 4196.13588,186.06446 4195.90534,185.853134 L4191,181 L4186.09466,185.853134 C4185.61968,186.288525 4184.89922,186.287603 4184.426,185.871792 L4184.32856,185.776347 C4184.11723,185.54581 4184,185.244431 4184,184.931691 L4184,170.384615 C4184,169.753645 4184.24908,169.148102 4184.69317,168.700898 C4185.13858,168.252377 4185.74364,168 4186.375,168 L4195.625,168 Z" id="Vector-Copy"></path>
        </g>
    </g>
</svg>