<?xml version="1.0" encoding="UTF-8"?>
<svg width="24px" height="24px" viewBox="0 0 24 24" version="1.1" xmlns="http://www.w3.org/2000/svg" xmlns:xlink="http://www.w3.org/1999/xlink">
    <!-- Generator: Sketch 54.1 (76490) - https://sketchapp.com -->
    <title>bell copy 4</title>
    <desc>Created with Sketch.</desc>
    <g id="Icons" stroke="none" stroke-width="1" fill="none" fill-rule="evenodd">
        <path d="M9.23909935,8.38124207 C9.6317002,8.51329299 9.84291765,8.93860729 9.71086673,9.33120814 C9.5788158,9.72380899 9.1535015,9.93502644 8.76090065,9.80297552 C7.1191856,9.25078622 5.41414064,8.90880449 3.68647584,8.78519617 C3.27331839,8.75563621 2.96235117,8.39674284 2.99191113,7.98358538 C3.02147109,7.57042792 3.38036447,7.25946071 3.79352192,7.28902067 C5.64755176,7.42166996 7.47730706,7.7886649 9.23909935,8.38124207 Z M9.23820917,12.5759433 C9.63097504,12.7075026 9.84272481,13.1325521 9.71116551,13.525318 C9.57960622,13.9180838 9.15455669,14.1298336 8.76179083,13.9982743 C7.11958319,13.448207 5.41445108,13.1078289 3.68690631,12.985227 C3.27373193,12.9559045 2.96255851,12.5971899 2.99188103,12.1840155 C3.02120354,11.7708411 3.37991815,11.4596677 3.79309252,11.4889902 C5.64666797,11.6205363 7.47619585,11.9857463 9.23820917,12.5759433 Z M14.0891227,21.1851548 C16.186995,20.3541937 18.960191,19.8368046 22.499987,19.7717695 L22.5000004,4.5025185 C21.2451357,4.520831 19.9927422,4.61681431 18.7500001,4.78987073 L18.7500001,16.846001 C18.7500001,17.201539 18.5003694,17.5082229 18.1522324,17.5803887 C16.6295779,17.8960221 15.2431934,18.6784847 14.1771729,19.828262 C13.671033,20.3557605 13.2829975,20.9791189 13.0327865,21.6567742 C13.3420925,21.5004314 13.693407,21.3418966 14.0891227,21.1851548 Z M13.0859801,18.7991206 C14.2154185,17.58077 15.6578351,16.7027033 17.2500052,16.2570443 L17.2501328,1.56981638 C16.0760164,1.95201185 15.0204614,2.63735412 14.177139,3.5732959 C13.3960391,4.38725234 12.8961579,5.42948214 12.7499878,6.54729731 L12.7499878,19.2640742 C12.8555024,19.0805344 12.9678036,18.9222652 13.0859801,18.7991206 Z M11.5195904,5.19088403 C11.8308775,4.20263549 12.3643105,3.29613939 13.0786767,2.55211238 C14.1495926,1.36291101 15.5327723,0.498140579 17.0595955,0.0595047923 C17.4341023,-0.0544940298 17.8396519,-0.000310986372 18.166354,0.205047218 C18.5221478,0.424983499 18.7419153,0.810539535 18.7500001,1.24300099 L18.7500001,3.27608203 C20.0681084,3.10129628 21.3953644,3.0090701 22.7204655,3.000089 C23.0542642,2.99496065 23.3765974,3.12178039 23.619973,3.35545575 C23.8609967,3.58906874 23.9979381,3.90980014 23.9999868,4.25000048 L23.9999504,20.0253884 C23.9932178,20.7088338 23.4408239,21.2612294 22.7593022,21.2679427 C19.2816659,21.3111354 16.6100889,21.7999917 14.6415133,22.5797388 C13.9376361,22.8585425 13.3815287,23.1529954 12.9582054,23.4420327 C12.7270366,23.5998704 12.5957308,23.7120827 12.550567,23.7593243 C12.5462925,23.7639354 12.5419498,23.7685048 12.5375388,23.773031 C12.5343259,23.7763457 12.5310962,23.779622 12.5278353,23.7828094 C12.5226758,23.7879154 12.5174271,23.7929637 12.5120893,23.7979523 C12.3119914,23.9849589 12.0367062,24.0412985 11.7913858,23.970527 C11.7629295,23.9621888 11.7349634,23.9522215 11.7079643,23.9410163 C11.6138198,23.9012934 11.5263136,23.8415814 11.4520351,23.762103 C11.4457625,23.7553913 11.4375464,23.7472002 11.4273401,23.7375956 C11.3185639,23.6114689 12.7424735,23.5522892 12.5479385,23.7621041 C12.5444921,23.7657918 12.5410253,23.769434 12.5375388,23.773031 C12.5343402,23.7763133 12.5311057,23.7795729 12.5278501,23.78286 C12.3166514,23.9935295 12.0359208,24.0421803 11.7913858,23.970527 C11.7631275,23.9623749 11.7352667,23.9525362 11.7076541,23.9406908 C11.6008484,23.8955946 11.5040882,23.8265854 11.4273401,23.7375956 C11.3683378,23.6820716 11.2428235,23.5793081 11.0417701,23.4420323 C10.6184479,23.1529952 10.0623415,22.8585424 9.35846497,22.5797387 C7.38989091,21.7999918 4.71831298,21.3111354 1.24259657,21.2679642 C0.559150699,21.2612294 0.00675680814,20.7088339 -1.21927949e-05,20.0180006 L-1.04718044e-05,4.24839387 C0.00070703057,3.91346776 0.135803411,3.59283961 0.380510412,3.35303547 C0.622536557,3.12062283 0.946873382,2.99370849 1.27759198,3.00006204 C4.92276365,3.04674419 7.76881545,3.56840275 9.91092964,4.41708126 C10.5647585,4.67611995 11.0973849,4.94004984 11.5195904,5.19088403 Z M9.91085595,21.1851549 C10.432589,21.3918119 10.8771382,21.6015859 11.2499878,21.8053432 L11.2499878,6.82341341 C11.192616,6.77987533 11.1233817,6.72978777 11.0416808,6.67400429 C10.6183026,6.38493147 10.0622057,6.09044909 9.3584302,5.81162217 C7.43984216,5.0515019 4.85363234,4.56775997 1.49995197,4.50378754 L1.49995197,19.7717559 C5.03882938,19.8366258 7.81262236,20.3540501 9.91085595,21.1851549 Z" id="Shape" fill="#000000" fill-rule="nonzero"></path>
    </g>
</svg>