<?xml version="1.0" encoding="UTF-8"?>
<svg width="24px" height="24px" viewBox="0 0 24 24" version="1.1" xmlns="http://www.w3.org/2000/svg" xmlns:xlink="http://www.w3.org/1999/xlink">
    <!-- Generator: Sketch 54.1 (76490) - https://sketchapp.com -->
    <title>bell copy 4</title>
    <desc>Created with Sketch.</desc>
    <g id="Icons" stroke="none" stroke-width="1" fill="none" fill-rule="evenodd">
        <path d="M11.2637791,7.22305635 C10.1050959,6.11386558 7.21404658,4.57698883 3.05795234,4.47281329 C2.7436399,4.46387461 2.48159275,4.71142957 2.47265417,5.02574202 L2.47244099,5.0375376 L2.47244099,16.4151758 C2.47364508,16.7234268 2.72088048,16.9742522 3.02908143,16.9799006 C7.59155108,17.0882842 10.1291138,18.514892 11.2637791,19.3887621 L11.2637791,7.22305635 Z M19.201158,17.0946189 C19.7538296,17.0346757 20.3432099,16.9948122 20.9709185,16.9799007 C21.2791195,16.9742528 21.5263556,16.7234269 21.527559,16.4151763 L21.527559,5.03753809 C21.525792,4.72374133 21.2699765,4.47079098 20.9561791,4.47255791 L20.9420474,4.47281329 C17.457978,4.5596094 14.3242328,6.07991283 12.7362205,7.22305635 L12.7362201,19.3887626 C13.7147771,18.6351204 15.7367626,17.4703698 19.201158,17.0946189 Z M13.249304,5.00138154 C15.2326608,3.8149574 17.7733159,3.07885578 20.8971346,3.00105743 C20.9225071,3.00038843 20.9225071,3.00038843 20.9478883,3.00014026 C22.0748788,2.99379441 22.9936303,3.9022558 23,5.03753809 L23,15.2486469 L22.9999888,16.4209244 C22.9956606,17.5296243 22.1064179,18.4317803 21.0058872,18.4519264 C20.4342161,18.4655067 19.8857312,18.5014459 19.3599289,18.5584749 C17.2620672,18.7860105 15.6179538,19.3298412 14.3705032,20.0623978 C13.9545996,20.3066343 13.6200443,20.5511417 13.3609937,20.7807623 C13.2780567,20.854277 13.2120103,20.9182842 13.1622036,20.9708525 L13.1328799,21.0027852 C12.5402173,21.7172916 11.4388755,21.7118998 10.8538902,20.9866096 C10.6666381,20.7544464 10.137483,20.3083623 9.20165789,19.8273571 C7.64302224,19.0262333 5.59757585,18.5137728 3.00210054,18.4520944 C1.89358157,18.4317785 1.00434202,17.5296249 1,16.4151758 L1.00004376,5.02618586 L1.00080823,4.98388489 C1.03286387,3.85669434 1.9726191,2.96891139 3.09484856,3.00083464 C6.22803549,3.07937026 8.76847131,3.81500646 10.7507152,5.00053034 C11.2338342,5.28947008 11.6492033,5.58157915 12.0005095,5.86431115 C12.3515867,5.58193258 12.7666328,5.2901106 13.249304,5.00138154 Z" id="Shape" fill="#000000" fill-rule="nonzero"></path>
    </g>
</svg>