<?xml version="1.0" encoding="UTF-8"?>
<svg width="24px" height="24px" viewBox="0 0 24 24" version="1.1" xmlns="http://www.w3.org/2000/svg" xmlns:xlink="http://www.w3.org/1999/xlink">
    <title>bookmark-g</title>
    <g id="Icons" stroke="none" stroke-width="1" fill="none" fill-rule="evenodd">
        <g id="Glyphs" transform="translate(-4205, -165)" fill="#000000" fill-rule="nonzero">
            <path d="M4221.625,168 C4222.25637,168 4222.86153,168.252408 4223.3069,168.700975 C4223.75089,169.148164 4224,169.753687 4224,170.384615 L4224,184.931691 C4224,185.622047 4223.44036,186.181699 4222.75,186.181699 C4222.43726,186.181699 4222.13588,186.06446 4221.90534,185.853134 L4217,181.001297 L4212.09466,185.853134 C4211.61968,186.288525 4210.89922,186.287603 4210.426,185.871792 L4210.32856,185.776347 C4210.11723,185.54581 4210,185.244431 4210,184.931691 L4210,170.384615 C4210,169.753645 4210.24908,169.148102 4210.69317,168.700898 C4211.13858,168.252377 4211.74364,168 4212.375,168 L4221.625,168 Z M4221.625,170 L4212.375,170 C4212.27701,170 4212.18261,170.039377 4212.1123,170.11017 C4212.04065,170.18233 4212,170.281145 4212,170.384615 L4211.999,183.227 L4216.15534,179.062996 C4216.59911,178.656211 4217.26327,178.627155 4217.73852,178.975828 L4217.84466,179.062996 L4221.999,183.226 L4222,170.384615 C4222,170.307048 4221.97712,170.232047 4221.93544,170.168928 L4221.88763,170.110115 C4221.8174,170.039384 4221.72298,170 4221.625,170 Z" id="Vector"></path>
        </g>
    </g>
</svg>