<?xml version="1.0" encoding="UTF-8"?>
<svg width="25px" height="24px" viewBox="0 0 25 24" version="1.1" xmlns="http://www.w3.org/2000/svg" xmlns:xlink="http://www.w3.org/1999/xlink">
    <!-- Generator: Sketch 54.1 (76490) - https://sketchapp.com -->
    <title>bell copy 64</title>
    <desc>Created with Sketch.</desc>
    <g id="Icons" stroke="none" stroke-width="1" fill="none" fill-rule="evenodd">
        <path d="M13.7499947,19.1074143 C14.8059115,18.3417764 16.7638851,17.3078818 19.930323,16.9543854 C20.481396,16.8928645 21.0690714,16.8519517 21.6949644,16.8366477 C22.0022739,16.8308511 22.2487948,16.5734232 22.2499947,16.2570591 L22.2499947,4.57994804 C22.2482328,4.25789178 21.9931573,3.99828348 21.6802676,4.00009691 L21.6661768,4.00035901 C17.4577706,4.10827169 14.9805391,5.53957178 13.7445989,6.5528642 C13.7481663,6.58721486 13.7499947,6.62208213 13.7499947,6.65737646 L13.7499947,19.1074143 L13.7499947,19.1074143 Z M11.7499947,19.1074143 L11.7499947,6.65737646 C11.7499947,6.62180573 11.7518519,6.58666877 11.7554747,6.55205726 C10.5203062,5.53908107 8.04438513,4.10899229 3.83381245,4.00035901 C3.52040917,3.99118506 3.25912001,4.24525595 3.25020728,4.56784148 L3.24999473,4.57994753 L3.24999473,16.2570586 C3.25119533,16.5734231 3.49771559,16.8308506 3.80502505,16.8366476 C8.02726818,16.9398876 10.5103109,18.2085281 11.7499947,19.1074143 L11.7499947,19.1074143 Z M11.6727989,4.05901611 C12.0731701,4.29873842 12.4318502,4.54216493 12.7505932,4.78329012 C13.0694321,4.54218777 13.4281963,4.29876213 13.828629,4.05902407 C15.873251,2.83491411 18.4615592,2.08187496 21.6033866,2.00134491 C21.6360251,2.0004591 21.6360251,2.0004591 21.6686763,2.0001305 C23.0995062,1.99183774 24.2422282,3.15486602 24.2499947,4.57994804 L24.2499947,15.0598253 L24.2499803,16.2646445 C24.2447049,17.6555897 23.1394406,18.8097572 21.7438527,18.8360501 C21.1903182,18.8495848 20.6599583,18.8853546 20.1522215,18.9420376 C18.3757763,19.1403572 16.9401566,19.5819458 15.8043528,20.1828424 C14.9408454,20.6396806 14.4685989,21.0494542 14.3242507,21.2336669 C13.5234994,22.255561 11.9764901,22.255561 11.1757388,21.2336669 C11.0313905,21.0494541 10.559144,20.6396806 9.69563658,20.1828423 C8.21814167,19.4011741 6.26454053,18.8973841 3.76730385,18.8362919 C2.36054805,18.8097549 1.25528776,17.6555906 1.24999473,16.2570586 L1.25005083,4.56496746 L1.25097021,4.51260448 C1.29007341,3.09731089 2.46041582,1.95930023 3.88539552,2.00102433 C7.04052946,2.08242716 9.62906588,2.83533064 11.6727989,4.05901611 Z" id="Shape" fill="#000000" fill-rule="nonzero"></path>
    </g>
</svg>