<svg xmlns="http://www.w3.org/2000/svg" width="14" height="18" viewBox="0 0 14 18">
  <path d="M13.2222221,0 C13.6517769,-8.53412985e-09 13.9999999,0.348222964 13.9999999,0.777777773 L13.9999999,16.3333332 C13.9999999,16.762888 13.6517769,17.111111 13.2222221,17.111111 L2.72222224,17.111111 C1.21878184,17.1111109 0,15.8923292 0,14.3888888 L0,2.72222227 C2.27013516e-07,1.21878179 1.21878187,0 2.72222219,0 L13.2222221,0 Z M3.43286588,1.55555574 L2.72222229,1.55555575 C2.07789148,1.55555555 1.55555564,2.07789145 1.55555555,2.72222239 L1.55555555,14.3888888 C1.55555555,15.0332196 2.07789145,15.5555554 2.72222228,15.5555555 L12.4444444,15.5555555 L12.4444444,1.55555556 L7.47726634,1.55555566 C7.48127749,1.58562432 7.48325915,1.61652723 7.48325915,1.64797812 L7.48325915,6.85545943 L5.45274068,4.82494096 L3.4222222,6.85545943 L3.4222222,1.64797812 C3.4222222,1.61652725 3.42594975,1.58562437 3.43286588,1.55555574 Z M1.55555563,14.3888892 L8.50122888e-08,14.3888894 C-1.42001227e-07,12.885449 1.21878187,11.6666671 2.72222229,11.6666671 L13.2222222,11.6666671 L13.2222222,13.2222226 L2.72222229,13.2222226 C2.0778915,13.2222226 1.55555553,13.7445586 1.55555563,14.3888892 Z"/>
</svg>
