<?xml version="1.0" encoding="UTF-8"?>
<svg width="24px" height="24px" viewBox="0 0 24 24" version="1.1" xmlns="http://www.w3.org/2000/svg" xmlns:xlink="http://www.w3.org/1999/xlink">
    <title>unarchive-g</title>
    <g id="Icons" stroke="none" stroke-width="1" fill="none" fill-rule="evenodd">
        <g transform="translate(-515, -74)" fill="#000000" fill-rule="nonzero" id="Shape">
            <path d="M534.042029,75 C534.999137,75 535.866497,75.5502766 536.290555,76.493363 L537.820388,81.4240722 C537.93948,81.8079109 538.000046,82.2075055 538.000046,82.6093949 L538.000046,93.700126 C538.000046,94.9678644 536.942585,96 535.643929,96 L518.356162,96 C517.057506,96 516,94.9678644 516,93.700126 L516,82.611695 C516,82.2082982 516.061022,81.8072222 516.180994,81.4220785 L517.74408,76.404128 C518.132902,75.5497536 519.001052,74.9993849 519.957932,75 L534.042029,75 Z M535.500046,83.000126 L518.500046,83.000126 C518.223904,83.000126 518.000046,83.2239836 518.000046,83.500126 L518.000046,93.500126 C518.000046,93.7762684 518.223904,94.000126 518.500046,94.000126 L535.500046,94.000126 C535.776188,94.000126 536.000046,93.7762684 536.000046,93.500126 L536.000046,83.500126 C536.000046,83.2239836 535.776188,83.000126 535.500046,83.000126 Z M529,89 C529.552285,89 530,89.4477153 530,90 C530,90.5128358 529.55,91 529,91 L525,91 C524.447715,91 524,90.5522847 524,90 C524,89.4871642 524.45,89 525,89 L529,89 Z M526.000023,77.0001246 L519.957119,77.0001246 C519.809782,77.0000122 519.67622,77.0846841 519.651925,77.1267516 L518.588477,80.7368012 C518.55265,80.8415753 518.610615,80.954863 518.717944,80.9898364 C518.738859,80.9966516 518.760764,81.0001246 518.782813,81.0001246 L526.000023,81.0001246 L526.000023,77.0001246 Z M534.042159,77.0001253 L528.000023,77.0001253 L528.000023,81.0001253 L535.219096,81.0001253 C535.332246,81.0001253 535.423973,80.9105835 535.423973,80.8001265 L535.421331,80.7681123 L534.382757,77.2161247 C534.322976,77.0847648 534.189537,77.0001253 534.042159,77.0001253 Z"></path>
        </g>
    </g>
</svg>