<svg width="23" height="22" viewBox="0 0 23 22" fill="none" xmlns="http://www.w3.org/2000/svg">
<path d="M18.1841 0.788819C19.1412 0.788819 20.009 1.3389 20.4331 2.28198L21.9624 7.21265C22.0815 7.59648 22.1421 7.99631 22.1421 8.39819V19.489C22.1421 20.7567 21.0843 21.7888 19.7856 21.7888H2.49854C1.1999 21.7888 0.142128 20.7567 0.14209 19.489V8.40015C0.142127 7.99687 0.202818 7.59572 0.322754 7.21069L1.88623 2.19312C2.27505 1.33874 3.14322 0.788203 4.1001 0.788819H18.1841ZM2.64209 8.78882C2.36601 8.78884 2.14216 9.01275 2.14209 9.28882V19.2888C2.14209 19.5649 2.36597 19.7888 2.64209 19.7888H19.6421C19.9182 19.7888 20.1421 19.565 20.1421 19.2888V9.28882C20.142 9.01273 19.9182 8.78882 19.6421 8.78882H2.64209ZM4.09912 2.78882C3.95185 2.78874 3.81877 2.8737 3.79443 2.91577L2.73096 6.52515C2.69513 6.62991 2.75256 6.74407 2.85986 6.77905C2.88078 6.78587 2.90324 6.78882 2.92529 6.78882H10.1421V2.78882H4.09912ZM12.1421 6.78882H19.3608C19.474 6.78882 19.5659 6.69908 19.5659 6.58862L19.563 6.55737L18.5249 3.00464C18.4651 2.87341 18.3314 2.78882 18.1841 2.78882H12.1421V6.78882Z" fill="#46285D"/>
<path d="M16.2124 10.6215C16.3959 10.4986 16.6451 10.5474 16.7681 10.7308C16.8906 10.9142 16.8417 11.1626 16.6587 11.2855L6.08936 18.3607C5.90584 18.4836 5.65663 18.4348 5.53369 18.2513C5.41096 18.0678 5.46065 17.8196 5.64404 17.6967L16.2124 10.6215ZM17.0396 11.6244C18.0054 12.2375 18.643 13.3185 18.6343 14.5453C18.6203 16.4396 17.0705 17.9646 15.1733 17.9506L14.2368 17.9437C13.3443 17.9369 12.5131 17.5544 11.9302 16.9027C11.7007 16.6458 11.7238 16.2502 11.981 16.0209C12.2382 15.7921 12.6332 15.8152 12.8628 16.0717C13.2133 16.4633 13.7104 16.6926 14.2466 16.6967L15.1831 16.7035C16.3902 16.7123 17.3762 15.7418 17.3853 14.5365C17.3922 13.5497 16.7418 12.7113 15.8433 12.4349L17.0396 11.6244ZM8.06396 11.0375C8.95667 11.0441 9.78854 11.4277 10.3716 12.0795C10.6008 12.3362 10.5784 12.73 10.3218 12.9594C10.0645 13.1888 9.66872 13.1674 9.43896 12.9105C9.08838 12.5187 8.59157 12.2885 8.05518 12.2845L7.11865 12.2777C5.91175 12.2689 4.9258 13.2396 4.9165 14.4447C4.91004 15.3462 5.45214 16.1245 6.23096 16.4633L5.1001 17.223C5.09466 17.2267 5.08963 17.2309 5.08447 17.2347C4.21924 16.6058 3.65899 15.5848 3.66748 14.4349C3.6819 12.541 5.23163 11.0167 7.12842 11.0306L8.06396 11.0375ZM14.4233 13.891C14.768 13.8936 15.0456 14.1749 15.0435 14.5189C15.0409 14.8632 14.7593 15.1404 14.4146 15.1381L11.8823 15.1185L13.7026 13.8851L14.4233 13.891ZM10.1099 13.8588L8.27197 15.0931L7.85693 15.0902C7.51209 15.0876 7.23427 14.8057 7.23682 14.4613C7.23979 14.1174 7.52125 13.8408 7.86572 13.8431L10.1099 13.8588Z" fill="#46285D"/>
</svg>
