<svg width="24" height="25" viewBox="0 0 24 25" fill="none" xmlns="http://www.w3.org/2000/svg">
<path fill-rule="evenodd" clip-rule="evenodd" d="M21.7002 2.08223C21.2761 1.13914 20.4083 0.589066 19.4511 0.589066H5.36713C4.41025 0.588451 3.54209 1.13899 3.15326 1.99336L1.58978 7.01094C1.46985 7.39597 1.40916 7.79712 1.40912 8.20039V14.9232C1.40912 15.365 1.76729 15.7232 2.20912 15.7232H2.60912C3.05095 15.7232 3.40912 15.365 3.40912 14.9232V9.08907C3.40919 8.813 3.63304 8.58909 3.90912 8.58907H20.9092C21.1853 8.58907 21.4091 8.81298 21.4092 9.08907V19.0891C21.4092 19.3652 21.1853 19.5891 20.9092 19.5891H2.90912L2.90912 21.5891H21.0527C22.3513 21.5891 23.4091 20.557 23.4092 19.2893V8.19844C23.4092 7.79656 23.3486 7.39673 23.2295 7.01289L21.7002 2.08223ZM5.36616 2.58907C5.21889 2.58899 5.08581 2.67395 5.06147 2.71602L3.99799 6.32539C3.96217 6.43016 4.01959 6.54431 4.1269 6.5793C4.14781 6.58612 4.17028 6.58907 4.19233 6.58907H11.4091V2.58907H5.36616ZM13.4091 6.58907H20.6279C20.7411 6.58907 20.833 6.49933 20.833 6.38887L20.8301 6.35762L19.792 2.80489C19.7321 2.67366 19.5984 2.58907 19.4511 2.58907H13.4091V6.58907Z" fill="black"/>
<path d="M5.71237 18.2701C6.11561 17.9305 6.11561 17.3799 5.71237 17.0404C5.30912 16.7008 4.65534 16.7008 4.25209 17.0404L0.711853 20.0218C0.308609 20.3613 0.308609 20.9119 0.711853 21.2515L4.25209 24.2329C4.65534 24.5725 5.30912 24.5725 5.71237 24.2329C6.11561 23.8933 6.11561 23.3428 5.71237 23.0032L2.90226 20.6366L5.71237 18.2701Z" fill="black"/>
<path d="M14.3372 14.5383C14.8895 14.5383 15.3372 14.9861 15.3372 15.5383C15.3372 16.0512 14.8872 16.5383 14.3372 16.5383H10.3372C9.78489 16.5383 9.33717 16.0906 9.33717 15.5383C9.33717 15.0255 9.78717 14.5383 10.3372 14.5383H14.3372Z" fill="black"/>
</svg>
