<svg width="23" height="22" viewBox="0 0 23 22" fill="none" xmlns="http://www.w3.org/2000/svg">
<path d="M8.22706 11.0562C9.11981 11.0471 9.95745 11.4154 10.5519 12.0568C10.7861 12.3095 10.771 12.7041 10.518 12.9381C10.2649 13.1719 9.87005 13.1568 9.63577 12.9042C9.27829 12.5184 8.77645 12.2977 8.23987 12.3032L7.3034 12.3128C6.0963 12.3252 5.12727 13.3125 5.13941 14.5178C5.1518 15.7233 6.14101 16.6912 7.34825 16.6788L8.28473 16.6692C8.8213 16.6637 9.3185 16.4328 9.66798 16.0397C9.89696 15.7823 10.2914 15.7583 10.5493 15.9867C10.8073 16.2154 10.8304 16.6105 10.6013 16.8681C10.0202 17.5215 9.19025 17.907 8.29754 17.9162L7.36106 17.9258C5.46397 17.9453 3.90992 16.4249 3.89046 14.5306C3.87123 12.6365 5.39364 11.0853 7.29059 11.0658L8.22706 11.0562ZM15.3878 10.9827C17.2847 10.9632 18.8378 12.4828 18.8574 14.3769C18.8769 16.2711 17.3553 17.8231 15.4583 17.8427L14.5218 17.8523C13.6291 17.8614 12.7914 17.493 12.197 16.8517C11.9627 16.5989 11.9777 16.2034 12.2309 15.9695C12.4841 15.7358 12.8789 15.7516 13.1131 16.0043C13.4706 16.3901 13.9724 16.6108 14.509 16.6053L15.4455 16.5956C16.6527 16.5832 17.6209 15.5951 17.6085 14.3897C17.5959 13.1845 16.6077 12.2173 15.4006 12.2297L14.4642 12.2393C13.9276 12.2448 13.4304 12.4757 13.0809 12.8688C12.8519 13.1262 12.4575 13.1494 12.1996 12.9208C11.9417 12.6921 11.9186 12.2979 12.1475 12.0404C12.7287 11.387 13.5586 11.0015 14.4513 10.9923L15.3878 10.9827ZM14.6354 13.7972C14.9802 13.7936 15.263 14.0696 15.2668 14.4138C15.2703 14.7582 14.9932 15.0406 14.6483 15.0442L8.09098 15.1115C7.74606 15.1151 7.46314 14.8384 7.4596 14.494C7.4563 14.1498 7.73339 13.8681 8.07817 13.8645L14.6354 13.7972Z" fill="#46285D"/>
<path d="M18.4163 0.788819C19.3734 0.788819 20.2412 1.3389 20.6653 2.28198L22.1946 7.21265C22.3137 7.59648 22.3743 7.99631 22.3743 8.39819V19.489C22.3742 20.7567 21.3165 21.7888 20.0178 21.7888H2.73071C1.43208 21.7888 0.374305 20.7567 0.374268 19.489V8.40015C0.374305 7.99687 0.434996 7.59572 0.554932 7.21069L2.11841 2.19312C2.50723 1.33874 3.3754 0.788203 4.33228 0.788819H18.4163ZM2.87427 8.78882C2.59819 8.78884 2.37434 9.01275 2.37427 9.28882V19.2888C2.37427 19.5649 2.59815 19.7888 2.87427 19.7888H19.8743C20.1504 19.7888 20.3743 19.565 20.3743 19.2888V9.28882C20.3742 9.01273 20.1504 8.78882 19.8743 8.78882H2.87427ZM4.3313 2.78882C4.18403 2.78874 4.05095 2.8737 4.02661 2.91577L2.96313 6.52515C2.92731 6.62991 2.98474 6.74407 3.09204 6.77905C3.11296 6.78587 3.13542 6.78882 3.15747 6.78882H10.3743V2.78882H4.3313ZM12.3743 6.78882H19.593C19.7062 6.78882 19.7981 6.69908 19.7981 6.58862L19.7952 6.55737L18.7571 3.00464C18.6972 2.87341 18.5636 2.78882 18.4163 2.78882H12.3743V6.78882Z" fill="#46285D"/>
</svg>
