<svg width="23" height="25" viewBox="0 0 23 25" fill="none" xmlns="http://www.w3.org/2000/svg">
<path fill-rule="evenodd" clip-rule="evenodd" d="M21.2268 1.70466C20.8028 0.761573 19.9349 0.211495 18.9778 0.211495H4.89381C3.93692 0.21088 3.06876 0.761418 2.67994 1.61579L1.11646 6.63337C0.99652 7.0184 0.935828 7.41955 0.935791 7.82282V14.5456C0.935791 14.9875 1.29396 15.3456 1.73579 15.3456H2.1358C2.57762 15.3456 2.9358 14.9875 2.9358 14.5456V8.7115C2.93586 8.43543 3.15972 8.21152 3.4358 8.2115H20.4358C20.7119 8.2115 20.9358 8.43541 20.9358 8.7115V18.7115C20.9358 18.9876 20.712 19.2115 20.4358 19.2115H3.4358L3.4358 21.2115H20.5794C21.878 21.2115 22.9358 20.1794 22.9358 18.9117V7.82087C22.9358 7.41899 22.8752 7.01916 22.7561 6.63532L21.2268 1.70466ZM4.89283 2.2115C4.74556 2.21142 4.61248 2.29638 4.58814 2.33845L3.52466 5.94782C3.48884 6.05259 3.54626 6.16674 3.65357 6.20173C3.67448 6.20854 3.69695 6.2115 3.719 6.2115H10.9358V2.2115H4.89283ZM12.9358 6.2115H20.1546C20.2677 6.2115 20.3597 6.12176 20.3597 6.0113L20.3567 5.98005L19.3186 2.42732C19.2588 2.29609 19.1251 2.2115 18.9778 2.2115H12.9358V6.2115Z" fill="black"/>
<path d="M6.23904 17.8925C6.64228 17.553 6.64228 17.0024 6.23904 16.6628C5.8358 16.3232 5.18201 16.3232 4.77877 16.6628L1.23853 19.6442C0.835282 19.9838 0.835282 20.5344 1.23853 20.874L4.77877 23.8554C5.18201 24.1949 5.8358 24.1949 6.23904 23.8554C6.64228 23.5158 6.64228 22.9652 6.23904 22.6256L3.42894 20.2591L6.23904 17.8925Z" fill="black"/>
<path d="M13.8638 14.1608C14.4161 14.1608 14.8638 14.6085 14.8638 15.1608C14.8638 15.6736 14.4138 16.1608 13.8638 16.1608H9.86385C9.31156 16.1608 8.86385 15.7131 8.86385 15.1608C8.86385 14.6479 9.31385 14.1608 9.86385 14.1608H13.8638Z" fill="black"/>
</svg>
