<?xml version="1.0" encoding="UTF-8"?>
<svg width="24px" height="24px" viewBox="0 0 24 24" version="1.1" xmlns="http://www.w3.org/2000/svg" xmlns:xlink="http://www.w3.org/1999/xlink">
    <title>unarchive-g</title>
    <g id="Icons" stroke="none" stroke-width="1" fill="none" fill-rule="evenodd">
        <g transform="translate(-515.000000, -74.000000)" fill="#000000" fill-rule="nonzero" id="Shape">
            <path d="M534.041983,74.999875 C534.999091,74.999875 535.866451,75.5501506 536.290509,76.493237 L537.820342,81.4239462 C537.939434,81.8077849 538,82.2073795 538,82.6092689 L538,93.7 C538,94.9677384 536.942539,95.999875 535.643883,95.999875 L518.356116,95.999875 C517.05746,95.999875 515.999954,94.9677384 515.999954,93.7 L515.999954,82.611569 C515.999954,82.2081722 516.060976,81.8070962 516.180948,81.4219525 L517.744034,76.404002 C518.132856,75.5496276 519.001006,74.9992589 519.957886,74.999875 L534.041983,74.999875 Z M535.5,83 L518.5,83 C518.223858,83 518,83.2238576 518,83.5 L518,93.5 C518,93.7761424 518.223858,94 518.5,94 L535.5,94 C535.776142,94 536,93.7761424 536,93.5 L536,83.5 C536,83.2238576 535.776142,83 535.5,83 Z M533,90 C533.552285,90 534,90.4477153 534,91 C534,91.5128358 533.61396,91.9355072 533.116621,91.9932723 L533,92 L529,92 C528.447715,92 528,91.5522847 528,91 C528,90.4871642 528.38604,90.0644928 528.883379,90.0067277 L529,90 L533,90 Z M525.999977,76.9999988 L519.957073,76.9999988 C519.809736,76.9998862 519.676174,77.0845581 519.651879,77.1266256 L518.588431,80.7366752 C518.552604,80.8414493 518.610569,80.954737 518.717898,80.9897104 C518.738813,80.9965256 518.760718,80.9999988 518.782767,80.9999988 L525.999977,80.9999988 L525.999977,76.9999988 Z M534.042113,76.9999993 L527.999977,76.9999993 L527.999977,80.9999993 L535.21905,80.9999993 C535.3322,80.9999993 535.423927,80.9104575 535.423927,80.8000005 L535.421285,80.7679863 L534.382711,77.2159987 C534.32293,77.0846388 534.189491,76.9999993 534.042113,76.9999993 Z"></path>
        </g>
    </g>
</svg>