<?xml version="1.0" encoding="UTF-8"?>
<svg width="24px" height="24px" viewBox="0 0 24 24" version="1.1" xmlns="http://www.w3.org/2000/svg" xmlns:xlink="http://www.w3.org/1999/xlink">
    <title>box</title>
    <g id="Icons" stroke="none" stroke-width="1" fill="none" fill-rule="evenodd">
        <g transform="translate(-543, -109)" fill="#000000" fill-rule="nonzero" id="Shape">
            <path d="M561.616809,110.000022 C562.468584,109.998369 563.240379,110.501719 563.593803,111.302586 L565.831027,116.795398 C565.939897,117.062695 565.998932,117.467916 565.998932,117.738819 L565.998932,129.884334 C565.998932,130.165168 565.934867,130.532086 565.734734,130.914158 C565.384976,131.581878 564.731117,131.997971 563.82036,131.997971 L546.181313,131.997971 C545.900912,131.997971 545.531094,131.939136 545.14398,131.754377 C544.448039,131.422223 544.002741,130.784638 544.002741,129.884334 L544.002741,117.738819 C544.002741,117.457984 544.152553,117.042326 544.313741,116.624154 L546.491419,111.282444 C546.836503,110.501241 547.609003,109.997798 548.459208,110.000022 L561.616809,110.000022 Z M563.82036,117.495037 L546.181313,117.495037 L546.062714,117.499491 C545.857969,117.516013 545.736873,117.57838 545.653326,117.684568 L545.634837,117.73107 C545.612247,117.786533 545.583775,117.837829 545.550435,117.884533 C545.515891,117.977925 545.502741,118.065294 545.502741,118.108673 L545.502741,129.884334 C545.502741,130.177212 545.593158,130.306672 545.790074,130.400655 C545.938674,130.471578 546.104571,130.497971 546.181313,130.497971 L563.82036,130.497971 C564.159604,130.497971 564.309317,130.402699 564.405987,130.218147 C564.473711,130.088855 564.498932,129.944409 564.498932,129.884334 L564.498932,118.108673 C564.498932,117.815795 564.408515,117.686335 564.211599,117.592352 C564.062999,117.521429 563.897103,117.495037 563.82036,117.495037 Z M557.5,125.497586 C557.914214,125.497586 558.25,125.833372 558.25,126.247586 C558.25,126.6618 557.914214,126.997586 557.5,126.997586 L552.5,126.997586 C552.085786,126.997586 551.75,126.6618 551.75,126.247586 C551.75,125.833372 552.085786,125.497586 552.5,125.497586 L557.5,125.497586 Z M554.25,111.500138 L548.457117,111.500138 C548.201266,111.499455 547.968329,111.651262 547.872061,111.868403 L546.341741,115.995009 L554.25,115.995009 L554.25,111.500138 Z M561.618397,111.50015 L555.75,111.50015 L555.75,115.995009 L563.733932,115.995009 L562.213162,111.888547 C562.108408,111.651407 561.875682,111.499628 561.618397,111.50015 Z"></path>
        </g>
    </g>
</svg>