<?xml version="1.0" encoding="UTF-8"?>
<svg width="24px" height="24px" viewBox="0 0 24 24" version="1.1" xmlns="http://www.w3.org/2000/svg" xmlns:xlink="http://www.w3.org/1999/xlink">
    <!-- Generator: Sketch 54.1 (76490) - https://sketchapp.com -->
    <title>bell copy 21</title>
    <desc>Created with Sketch.</desc>
    <g id="Icons" stroke="none" stroke-width="1" fill="none" fill-rule="evenodd">
        <path d="M22.5,13.5 L14.2499999,13.5 C14.2499999,14.742641 13.2426404,15.7500006 11.9999997,15.7500002 C10.7573593,15.7499998 9.74999993,14.7426405 9.74999993,13.5000002 L1.5,13.5 L1.5,20.251 C1.5,20.6652064 1.83579356,21.001 2.25,21.001 L21.75,21.001 C22.1642064,21.001 22.5,20.6652064 22.5,20.251 L22.5,13.5 Z M22.5,12 L22.5,8.251 C22.5,7.83679356 22.1642064,7.501 21.75,7.501 L2.25,7.501 C1.83579356,7.501 1.5,7.83679356 1.5,8.251 L1.5,12 L9.74999993,12 C9.74999999,10.7573595 10.7573595,9.75000023 11.9999998,9.75000023 C13.2426403,9.75000004 14.2499998,10.7573594 14.2499999,11.9999999 L22.5,12 Z M6.98688661,6.001 L7.94659869,3.53749596 C8.25319818,2.61913148 9.1129064,1.99987437 10.081,2.00000001 L13.918907,2.00000002 C14.8803572,1.99988085 15.7348315,2.61054198 16.0469179,3.51835971 L17.01327,6.001 L21.75,6.001 C22.9926336,6.001 24,7.00836644 24,8.251 L24,20.251 C24,21.4936336 22.9926336,22.501 21.75,22.501 L2.25,22.501 C1.00736644,22.501 0,21.4936336 0,20.251 L0,8.251 C0,7.00836644 1.00736644,6.001 2.25,6.001 L6.98688661,6.001 Z M8.59674626,6 L15.4032537,6 L14.6430803,4.04705016 L14.6305973,4.01249993 C14.5283998,3.70637941 14.2418286,3.49996001 13.919,3.50000001 L10.0809027,3.50000001 C9.75817276,3.49995812 9.47160282,3.70637755 9.3569197,4.0470501 L8.59674626,6 Z M12.7499999,13.5000002 L12.7499999,12.0000002 C12.7499999,11.5857868 12.4142134,11.2500002 11.9999999,11.2500002 C11.5857865,11.2500002 11.2499999,11.5857868 11.2499999,12.0000002 L11.2499999,13.5000002 C11.2499999,13.9142135 11.5857866,14.2500001 12.0000002,14.2500002 C12.4142135,14.2500003 12.7499999,13.9142139 12.7499999,13.5000002 Z" id="Shape" fill="#000000" fill-rule="nonzero"></path>
    </g>
</svg>