<?xml version="1.0" encoding="UTF-8"?>
<svg width="24px" height="24px" viewBox="0 0 24 24" version="1.1" xmlns="http://www.w3.org/2000/svg" xmlns:xlink="http://www.w3.org/1999/xlink">
    <!-- Generator: Sketch 54.1 (76490) - https://sketchapp.com -->
    <title>bell copy 17</title>
    <desc>Created with Sketch.</desc>
    <g id="Icons" stroke="none" stroke-width="1" fill="none" fill-rule="evenodd">
        <path d="M7.6249999,6.50000253 L7.6249999,5.25000253 C7.6249999,3.45507728 9.08007464,2.00000261 10.875,2.00000253 L13.1249999,2.00000243 C14.9199252,2.00000243 16.3749999,3.45507721 16.3749999,5.25000253 L16.3749999,6.50000253 L19.875,6.50000253 C21.0485997,6.50000253 22,7.45140278 22,8.62500253 L22,19.8750025 C22,21.0486023 21.0485997,22.0000025 19.875,22.0000025 L4.125,22.0000025 C2.95140025,22.0000025 2,21.0486023 2,19.8750025 L2,8.62500253 C2,7.45140278 2.95140025,6.50000253 4.125,6.50000253 L7.6249999,6.50000253 Z M13,13.0000025 L13,14.2500025 C13,14.8022873 12.5522847,15.2500025 12,15.2500025 C11.4477153,15.2500025 11,14.8022873 11,14.2500025 L11,13.0000025 L4,13.0000025 L4,19.8750025 C4,19.9440328 4.05596975,20.0000025 4.125,20.0000025 L19.875,20.0000025 C19.9440303,20.0000025 20,19.9440328 20,19.8750025 L20,13.0000025 L13,13.0000025 Z M4,11.0000025 L20,11.0000025 L20,8.62500253 C20,8.55597228 19.9440303,8.50000253 19.875,8.50000253 L4.125,8.50000253 C4.05596975,8.50000253 4,8.55597228 4,8.62500253 L4,11.0000025 Z M9.6249999,6.50000243 L14.3749999,6.50000252 L14.3749999,5.25000253 C14.3749999,4.55964669 13.8153557,4.00000243 13.1249999,4.00000243 L10.875,4.00000253 C10.1846442,4.00000256 9.6249999,4.55964679 9.6249999,5.25000253 L9.6249999,6.50000243 Z" id="Shape" fill="#000000" fill-rule="nonzero"></path>
    </g>
</svg>