<?xml version="1.0" encoding="UTF-8"?>
<svg width="24px" height="24px" viewBox="0 0 24 24" version="1.1" xmlns="http://www.w3.org/2000/svg" xmlns:xlink="http://www.w3.org/1999/xlink">
    <!-- Generator: Sketch 51.2 (57519) - http://www.bohemiancoding.com/sketch -->
    <title>Slice</title>
    <desc>Created with Sketch.</desc>
    <defs></defs>
    <g id="Symbols" stroke="none" stroke-width="1" fill="none" fill-rule="evenodd">
        <path d="M4,7 C2.8954305,7 2,7.8954305 2,9 L2,18.7142857 C2,19.8188552 2.8954305,20.7142857 4,20.7142857 L20,20.7142857 C21.1045695,20.7142857 22,19.8188552 22,18.7142857 L22,9 C22,7.8954305 21.1045695,7 20,7 L4,7 Z M6.5,5 L6.5,3 C6.5,1.61928813 7.61928813,0.5 9,0.5 L15,0.5 C16.3807119,0.5 17.5,1.61928813 17.5,3 L17.5,5 L20,5 C22.209139,5 24,6.790861 24,9 L24,18.7142857 C24,20.9234247 22.209139,22.7142857 20,22.7142857 L4,22.7142857 C1.790861,22.7142857 0,20.9234247 0,18.7142857 L0,9 C0,6.790861 1.790861,5 4,5 L6.5,5 Z M8.5,5 L15.5,5 L15.5,3 C15.5,2.72385763 15.2761424,2.5 15,2.5 L9,2.5 C8.72385763,2.5 8.5,2.72385763 8.5,3 L8.5,5 Z M8.5,17.25 C8.5,17.8022847 8.05228475,18.25 7.5,18.25 C6.94771525,18.25 6.5,17.8022847 6.5,17.25 L6.5,10.25 C6.5,9.69771525 6.94771525,9.25 7.5,9.25 C8.05228475,9.25 8.5,9.69771525 8.5,10.25 L8.5,17.25 Z M15.5,10.25 C15.5,9.69771525 15.9477153,9.25 16.5,9.25 C17.0522847,9.25 17.5,9.69771525 17.5,10.25 L17.5,17.25 C17.5,17.8022847 17.0522847,18.25 16.5,18.25 C15.9477153,18.25 15.5,17.8022847 15.5,17.25 L15.5,10.25 Z" id="Combined-Shape" fill="#000000" fill-rule="nonzero"></path>
    </g>
</svg>