<?xml version="1.0" encoding="UTF-8"?>
<svg width="24px" height="24px" viewBox="0 0 24 24" version="1.1" xmlns="http://www.w3.org/2000/svg" xmlns:xlink="http://www.w3.org/1999/xlink">
    <title>briefcase-new-g</title>
    <g id="Icons" stroke="none" stroke-width="1" fill="none" fill-rule="evenodd">
        <g transform="translate(-156.000000, -58.000000)" fill="#000000" fill-rule="nonzero" id="Shape">
            <path d="M167.001569,61 C167.553854,61 168.001569,61.4477153 168.001569,62 C168.001569,62.5128358 167.615529,62.9355072 167.11819,62.9932723 L167.001569,63 L165.375,63 C164.725579,63 164.19519,63.489801 164.131428,64.121806 L164.125,64.25 L164.125,65.5 L166,65.5 C166.552285,65.5 167,65.9477153 167,66.5 C167,67.0128358 166.61396,67.4355072 166.116621,67.4932723 L166,67.5 L160.5,67.5 C159.720304,67.5 159.079551,68.0948881 159.006867,68.85554 L159,69 L159,70 L170.5,70 C171.052285,70 171.5,70.4477153 171.5,71 C171.5,71.5128358 171.11396,71.9355072 170.616621,71.9932723 L170.5,72 L159,72 L159,76.5 C159,77.2796961 159.594888,77.9204487 160.35554,77.9931334 L160.5,78 L173.5,78 C174.279696,78 174.920449,77.4051119 174.993133,76.64446 L175,76.5 L175,73.25 C175,72.6977153 175.447715,72.25 176,72.25 C176.512836,72.25 176.935507,72.6360402 176.993272,73.1333789 L177,73.25 L177,76.5 C177,78.3685634 175.535722,79.8951264 173.692035,79.9948211 L173.5,80 L160.5,80 C158.631437,80 157.104874,78.5357224 157.005179,76.6920352 L157,76.5 L157,69 C157,67.1314366 158.464278,65.6048736 160.307965,65.5051789 L160.5,65.5 L162.125,65.5 L162.125,64.25 C162.125,62.5146906 163.479255,61.100597 165.190349,61.0051367 L165.375,61 L167.001569,61 Z M175.687464,59.7168749 C175.678523,62.1070587 176.761117,63.2378689 179.255752,63.2858837 C180.1962,63.3039848 180.180109,64.7178156 179.239494,64.7143053 C176.915469,64.7056323 175.81024,65.8375812 175.686581,68.321388 C175.640603,69.2449026 174.273961,69.2168006 174.265631,68.2921693 C174.243564,65.8427942 173.205147,64.7143103 170.710935,64.7143103 C169.7695,64.7143103 169.759842,63.2987864 170.701189,63.2858198 C173.133942,63.2523098 174.257016,62.1621254 174.2656,59.7118428 C174.269228,58.7592655 175.690803,58.7645091 175.687464,59.7168749 Z"></path>
        </g>
    </g>
</svg>