<svg xmlns="http://www.w3.org/2000/svg" width="24" height="24" viewBox="0 0 24 24">
  <path d="M19,6.5 L16,6.5 L16,5.5 C16,3.84314575 14.6568542,2.5 13,2.5 L11,2.5 C9.34314575,2.5 8,3.84314575 8,5.5 L8,6.5 L5,6.5 C4.20435053,6.5 3.44128879,6.81607052 2.87867966,7.37867966 C2.31607052,7.94128879 2,8.70435053 2,9.5 L2,18.5 C2,20.1568542 3.34314575,21.5 5,21.5 L19,21.5 C20.6568542,21.5 22,20.1568542 22,18.5 L22,9.5 C22,7.84314575 20.6568542,6.5 19,6.5 Z M10,5.5 C10,4.94771525 10.4477153,4.5 11,4.5 L13,4.5 C13.5522847,4.5 14,4.94771525 14,5.5 L14,6.5 L10,6.5 L10,5.5 Z M20,18.5 C20,19.0522847 19.5522847,19.5 19,19.5 L5,19.5 C4.44771525,19.5 4,19.0522847 4,18.5 L4,13 C6.54625985,14.0101423 9.26068873,14.5292769 12,14.53 C14.7392199,14.5283148 17.4534701,14.0092145 20,13 L20,18.5 Z M20,10.81 C14.9018052,13.0497071 9.09819483,13.0497071 4,10.81 L4,9.5 C4,8.94771525 4.44771525,8.5 5,8.5 L19,8.5 C19.5522847,8.5 20,8.94771525 20,9.5 L20,10.81 Z"/>
</svg>
