<svg xmlns="http://www.w3.org/2000/svg" width="24" height="24" viewBox="0 0 24 24">
  <path d="M3,11 L20.5,11 L20.5,9.33333333 C20.5,8.61297196 19.8432443,8 19,8 L4.5,8 C3.65675567,8 3,8.61297196 3,9.33333333 L3,11 L3,11 Z M3,13 L3,17.6666667 C3,18.387028 3.65675567,19 4.5,19 L19,19 C19.8432443,19 20.5,18.387028 20.5,17.6666667 L20.5,13 L3,13 L3,13 Z M7,6 L7,4.5 C6.99999979,3.11928834 8.11928819,2 9.5,2 L14.5,2 C15.8807116,1.99999994 16.9999999,3.1192882 17,4.5 L17,6 L19,6 C20.9181557,6 22.5,7.47638804 22.5,9.33333333 L22.5,17.6666667 C22.5,19.523612 20.9181557,21 19,21 L4.5,21 C2.58184433,21 1,19.523612 1,17.6666667 L1,9.33333333 C1,7.47638804 2.58184433,6 4.5,6 L7,6 Z M15,6 L15,4.5 C15,4.22385777 14.7761422,3.99999999 14.5,4 L9.5,4 C9.22385772,4 8.99999996,4.22385775 9,4.5 L9,6 L15,6 Z"/>
</svg>
