<?xml version="1.0" encoding="UTF-8"?>
<svg width="25px" height="24px" viewBox="0 0 25 24" version="1.1" xmlns="http://www.w3.org/2000/svg" xmlns:xlink="http://www.w3.org/1999/xlink">
    <!-- Generator: Sketch 54.1 (76490) - https://sketchapp.com -->
    <title>bell copy 26</title>
    <desc>Created with Sketch.</desc>
    <g id="Icons" stroke="none" stroke-width="1" fill="none" fill-rule="evenodd">
        <path d="M16.4393398,19.5000002 L12.2499999,19.5000002 C11.0073593,19.4999998 9.99999993,18.4926405 9.99999993,17.2500002 L9.99999993,9.75000034 C9.99999975,8.50735974 11.0073593,7.50000023 12.2499999,7.50000023 L22.7499999,7.50000023 C23.9926404,7.50000017 24.9999998,8.50735963 24.9999999,9.75000023 L24.9999999,17.2500003 C24.9999998,18.4926408 23.9926404,19.5000002 22.7499999,19.5000002 L21.9999999,19.5000002 L21.9999999,23.2500002 C21.9999999,23.9181789 21.1921435,24.252804 20.7196698,23.7803303 L16.4393398,19.5000002 Z M20.4999999,18.7500002 C20.4999999,18.3357867 20.8357864,18.0000002 21.2499999,18.0000002 L22.7499999,18.0000002 C23.1642133,18.0000002 23.4999999,17.6642136 23.4999999,17.2500002 L23.4999999,9.75000029 C23.4999999,9.3357868 23.1642133,9.00000021 22.7499999,9.00000023 L12.2499999,9.00000023 C11.8357865,9.00000023 11.4999999,9.3357868 11.4999999,9.75000023 L11.4999999,17.2500002 C11.4999999,17.6642135 11.8357866,18.0000001 12.2500002,18.0000002 L16.7499999,18.0000002 C16.9489123,18.0000002 17.1396777,18.0790179 17.28033,18.2196701 L20.4999999,21.4393401 L20.4999999,18.7500002 Z M5.49999993,11.2500002 L5.49999993,13.9393401 L7.21966985,12.2196701 C7.51256307,11.9267769 7.9874368,11.9267769 8.28033002,12.2196701 C8.57322324,12.5125634 8.57322324,12.9874371 8.28033002,13.2803303 L5.28033002,16.2803303 C4.80785637,16.752804 3.99999993,16.4181789 3.99999993,15.7500002 L3.99999993,12.0000002 L3.2499997,12.0000002 C2.00735927,11.9999998 0.999999934,10.9926405 0.999999934,9.75000023 L0.999999934,2.25000034 C0.999999747,1.00735974 2.00735932,2.26493999e-07 3.24999993,2.26493999e-07 L13.7499999,2.26493999e-07 C14.9926404,1.72176447e-07 15.9999998,1.00735963 15.9999999,2.25000023 L15.9999999,5.25000023 C15.9999999,5.66421379 15.6642135,6.00000023 15.2499999,6.00000023 C14.8357864,6.00000023 14.4999999,5.66421379 14.4999999,5.25000023 L14.4999999,2.25000029 C14.4999999,1.8357868 14.1642133,1.50000021 13.7499999,1.50000023 L3.24999993,1.50000023 C2.83578646,1.50000023 2.49999987,1.8357868 2.49999993,2.25000023 L2.49999993,9.75000023 C2.49999993,10.1642135 2.83578657,10.5000001 3.24999993,10.5000002 L4.74999993,10.5000002 C5.1642135,10.5000002 5.49999993,10.8357867 5.49999993,11.2500002 Z" id="Combined-Shape" fill="#000000" fill-rule="nonzero"></path>
    </g>
</svg>