<?xml version="1.0" encoding="UTF-8"?>
<svg width="21px" height="21px" viewBox="0 0 21 21" version="1.1" xmlns="http://www.w3.org/2000/svg" xmlns:xlink="http://www.w3.org/1999/xlink">
    <!-- Generator: Sketch Beta 51 (57336) - http://www.bohemiancoding.com/sketch -->
    <title>Shape Copy 9</title>
    <desc>Created with Sketch Beta.</desc>
    <defs></defs>
    <g id="Prototype" stroke="none" stroke-width="1" fill="none" fill-rule="evenodd">
        <path d="M4.50753787,15.0060336 C4.70445107,14.8091402 4.97152268,14.6985266 5.25,14.6985266 L17.85,14.6985266 C18.4298989,14.6985266 18.9,14.2284728 18.9,13.6486318 L18.8999999,3.14968432 C18.8999999,2.5698429 18.4298994,2.0997895 17.85,2.09978952 L3.15,2.09978952 C2.57010047,2.09978952 2.09999991,2.56984289 2.1,3.149684 L2.1,17.4133303 L4.50753787,15.0060336 Z M1.79246213,20.6903882 C1.13099902,21.351785 0,20.8833568 0,19.9480005 L0,3.14968416 C-2.62686308e-07,1.41016122 1.41030251,0 3.15,0 L17.85,0 C19.5896974,-7.60369824e-08 20.9999999,1.41016118 20.9999999,3.14968431 L21,13.6486318 C21,15.3881546 19.5896967,16.7983161 17.85,16.7983161 L5.68492425,16.7983161 L1.79246213,20.6903882 Z" id="Shape-Copy-9" fill="#393B4F" fill-rule="nonzero"></path>
    </g>
</svg>