<?xml version="1.0" encoding="UTF-8"?>
<svg width="24px" height="24px" viewBox="0 0 24 24" version="1.1" xmlns="http://www.w3.org/2000/svg" xmlns:xlink="http://www.w3.org/1999/xlink">
    <title>bubble-g</title>
    <g id="Icons" stroke="none" stroke-width="1" fill="none" fill-rule="evenodd">
        <g id="Glyphs" transform="translate(-318.000000, -58.000000)" fill="#000000" fill-rule="nonzero">
            <path d="M325.251091,60.0009887 L335.503892,60.0027123 L335.946816,60.00863 L336.508837,60.0263014 L336.825272,60.0454798 L337.103107,60.0718038 L337.229693,60.0879741 L337.462485,60.126989 L337.673816,60.1757797 L337.870544,60.2353984 L338.012629,60.2878511 L338.153248,60.3474303 L338.343457,60.438722 C339.102041,60.8246682 339.715332,61.4379588 340.098803,62.1917109 L340.146526,62.2867568 L340.190723,62.3803512 L340.26907,62.5666393 L340.303485,62.6610601 L340.363466,62.8567732 C340.38762,62.9465603 340.40854,63.0407679 340.426646,63.1421251 L340.451748,63.2998642 L340.482176,63.561059 L340.494428,63.7045911 L340.51367,64.0218427 L340.531377,64.5861414 L340.537295,65.031363 L340.54,71.22 L340.537371,72.0023288 L340.52716,72.6440983 L340.514417,73.0053242 L340.495719,73.3212816 L340.470033,73.5988512 L340.454247,73.7253909 L340.41614,73.9582807 C340.397153,74.0565697 340.37533,74.1485815 340.350262,74.2370345 L340.310176,74.3673847 L340.240251,74.5573607 L340.200601,74.6517151 L340.111278,74.8434572 C339.727676,75.5974341 339.117985,76.2105697 338.368289,76.5988032 L338.273281,76.6465063 L338.179718,76.6906864 L337.993496,76.7690088 L337.89912,76.8034166 L337.703548,76.8633889 C337.613843,76.8875409 337.519748,76.9084616 337.418552,76.9265703 L337.261091,76.9516768 L337.000475,76.9821163 L336.857316,76.9943744 L336.541007,77.0136313 L335.978689,77.0313589 L335.535228,77.0372874 L331.74,77.04 L331.206951,77.0436405 L330.961141,77.0537671 L330.841967,77.0656432 L330.740742,77.0826166 L330.571291,77.1206217 C330.491732,77.1420605 330.413526,77.1701942 330.33309,77.2066428 L330.210317,77.2677545 L330.131576,77.3118379 L329.991245,77.4054547 L329.792671,77.5556708 L326.841724,79.92338 L326.578264,80.1276941 C326.18352,80.4221822 325.983926,80.4975693 325.58,80.52 C325.124919,80.52 324.699027,80.3191078 324.376267,79.9212382 C324.238942,79.728984 324.167375,79.5982943 324.13014,79.3921082 L324.111667,79.2582405 L324.097246,79.040194 L324.091216,78.7626453 L324.09,76.976 L323.905196,76.9741946 L323.508328,76.9642218 L323.174343,76.9475714 C322.983185,76.9347762 322.823056,76.9172193 322.683049,76.8933084 L322.549347,76.8672205 L322.460027,76.8456158 C321.074797,76.4726694 319.99398,75.3918525 319.632925,74.0144933 C319.607451,73.9176918 319.586716,73.8226315 319.569876,73.7223622 L319.547434,73.5671826 L319.523348,73.3083604 L319.50886,73.002637 L319.501839,72.6324199 L319.500542,65.2278327 L319.509745,64.4628222 L319.516359,64.2409195 L319.536273,63.8401415 C319.585929,63.0915389 319.698198,62.6429926 319.938722,62.1765428 C320.327515,61.4123634 320.946106,60.797248 321.702786,60.4255728 L321.789928,60.3835087 L321.966868,60.307746 L322.057922,60.2738562 L322.248335,60.2135821 L322.454005,60.1626777 L322.56413,60.1405002 L322.679953,60.1203784 L322.931199,60.0859195 L323.212764,60.0585362 L323.529669,60.0374638 L323.886933,60.0219376 L324.509487,60.0073745 L325.251091,60.0009887 Z M335.936363,62.0095584 L335.184021,62.0009176 L324.832578,62.0048626 L324.059932,62.0208966 L323.745282,62.0337809 L323.352919,62.0599542 L323.241588,62.07064 L323.045449,62.0951572 L322.88172,62.1240943 L322.746852,62.1577226 L322.637297,62.1963133 L322.590904,62.2175543 C322.219031,62.4002289 321.915146,62.7024062 321.718803,63.0882891 C321.67581,63.1716695 321.640576,63.2660526 321.611928,63.3849143 L321.585432,63.5124348 L321.556484,63.7130235 L321.544571,63.828412 L321.534262,63.9550463 L321.518149,64.245602 L321.507526,64.5917889 L321.501777,65.0007056 L321.500457,72.4140966 L321.505959,72.8672922 L321.51995,73.1824577 L321.534935,73.335054 L321.544338,73.398411 L321.567317,73.5064314 C321.732273,74.1357078 322.204385,74.643536 322.818187,74.8639152 L322.995982,74.9179708 L323.162148,74.9403674 L323.365222,74.9548051 L323.630266,74.9660534 L323.956932,74.9740233 L324.990849,74.9800004 C325.211617,74.9801877 325.424806,75.0533714 325.598144,75.1861685 L325.697107,75.2728932 L325.797107,75.3728932 C325.953387,75.5291735 326.052598,75.7318549 326.081328,75.948556 L326.09,76.08 L326.09,77.962 L328.526889,76.0064263 L328.732767,75.84739 L328.903414,75.7236618 L329.053736,75.6248637 L329.198639,75.5406174 L329.273717,75.500708 C329.540643,75.3561231 329.817612,75.247513 330.080864,75.1803926 L330.275359,75.1379178 L330.514683,75.0887784 L330.678646,75.0673094 L330.866073,75.0531629 L331.094051,75.044873 L331.379664,75.0409739 L334.75,75.04 L335.615699,75.0360519 L336.118486,75.0266298 L336.515555,75.0101035 L336.730352,74.9944429 L336.911389,74.9745806 L337.063958,74.950099 L337.222696,74.9123647 L337.355552,74.8659442 L337.450146,74.8220056 C337.773458,74.6545762 338.045702,74.4033235 338.235151,74.102626 L338.33442,73.9242207 L338.386458,73.7970655 L338.421392,73.6822872 L338.450838,73.5500818 L338.475221,73.3950736 L338.503236,73.1080475 L338.522262,72.7394782 L338.530663,72.4395044 L338.539105,71.6851408 L338.54,65.82 L338.53604,64.9500663 L338.530442,64.6006075 L338.516311,64.1682516 L338.502438,63.9334309 L338.484499,63.7350993 L338.462063,63.5679049 L338.449024,63.4943115 L338.419034,63.3637877 L338.401975,63.3055191 L338.36346,63.1996237 L338.318722,63.1034572 C338.15239,62.7765292 337.903291,62.5044877 337.595804,62.3114754 L337.413479,62.209848 L337.287591,62.1567752 L337.232525,62.1382296 L337.110635,62.1054406 L336.968597,62.0780267 L336.80105,62.0555544 L336.602635,62.0375902 L336.367989,62.0237008 L335.936363,62.0095584 Z M333,69 C333.552285,69 334,69.4477153 334,70 C334,70.5128358 333.61396,70.9355072 333.116621,70.9932723 L333,71 L325,71 C324.447715,71 324,70.5522847 324,70 C324,69.4871642 324.38604,69.0644928 324.883379,69.0067277 L325,69 L333,69 Z M330,65 C330.552285,65 331,65.4477153 331,66 C331,66.5128358 330.61396,66.9355072 330.116621,66.9932723 L330,67 L325,67 C324.447715,67 324,66.5522847 324,66 C324,65.4871642 324.38604,65.0644928 324.883379,65.0067277 L325,65 L330,65 Z" id="Shape"></path>
        </g>
    </g>
</svg>