<svg xmlns="http://www.w3.org/2000/svg" width="24" height="24" viewBox="0 0 24 24">
  <path d="M3.76666663,19.2 C2.51482132,19.2 1.5,18.1851787 1.5,16.9333334 L1.5,4.26666651 C1.50000019,3.01482125 2.51482139,2 3.76666667,2 L20.2333333,2 C21.4851786,1.99999995 22.5,3.01482132 22.5,4.26666666 L22.5,16.9333333 C22.5,18.1851785 21.4851788,19.1999999 20.2333336,19.2 L11.7000001,19.2 L6.90000006,22.8 C6.24076381,23.2944272 5.30000007,22.8240453 5.30000007,22 L5.30000007,19.2 L3.76666663,19.2 Z M10.7666668,17.4 C10.9397629,17.2701779 11.1502965,17.2 11.3666667,17.2 L20.2333334,17.2 C20.3806091,17.2 20.5,17.0806091 20.5,16.9333333 L20.5,4.26666666 C20.5,4.11939083 20.3806092,3.99999999 20.2333333,4 L3.76666667,4 C3.61939086,4 3.50000002,4.11939085 3.5,4.26666666 L3.5,16.9333334 C3.5,17.0806092 3.61939084,17.2 3.76666667,17.2 L6.30000007,17.2 C6.85228482,17.2 7.30000007,17.6477153 7.30000007,18.2 L7.30000007,20 L10.7666668,17.4 Z M7,10.625 C7,10.003679 7.503679,9.50000003 8.125,9.50000005 C8.746321,9.50000005 9.25,10.003679 9.25,10.625 C9.25,11.246321 8.746321,11.75 8.125,11.75 C7.503679,11.75 7.00000003,11.246321 7,10.625 Z M11,10.625 C11,10.003679 11.503679,9.50000003 12.125,9.50000005 C12.746321,9.50000005 13.25,10.003679 13.25,10.625 C13.25,11.246321 12.746321,11.75 12.125,11.75 C11.503679,11.75 11,11.246321 11,10.625 Z M15,10.625 C15,10.003679 15.503679,9.50000003 16.125,9.5 C16.746321,9.5 17.25,10.003679 17.25,10.625 C17.25,11.246321 16.746321,11.75 16.125,11.75 C15.503679,11.75 15,11.246321 15,10.625 Z"/>
</svg>
