<svg xmlns="http://www.w3.org/2000/svg" width="24" height="24" viewBox="0 0 24 24">
  <path d="M3.76666663,19.2 C2.51482132,19.2 1.5,18.1851787 1.5,16.9333334 L1.5,4.26666651 C1.50000019,3.01482125 2.51482139,2 3.76666667,2 L20.2333333,2 C21.4851786,1.99999995 22.5,3.01482132 22.5,4.26666666 L22.5,16.9333333 C22.5,18.1851785 21.4851788,19.1999999 20.2333336,19.2 L11.7000001,19.2 L6.90000006,22.8 C6.24076381,23.2944272 5.30000007,22.8240453 5.30000007,22 L5.30000007,19.2 L3.76666663,19.2 Z M10.7666668,17.4 C10.9397629,17.2701779 11.1502965,17.2 11.3666667,17.2 L20.2333334,17.2 C20.3806091,17.2 20.5,17.0806091 20.5,16.9333333 L20.5,4.26666666 C20.5,4.11939083 20.3806092,3.99999999 20.2333333,4 L3.76666667,4 C3.61939086,4 3.50000002,4.11939085 3.5,4.26666666 L3.5,16.9333334 C3.5,17.0806092 3.61939084,17.2 3.76666667,17.2 L6.30000007,17.2 C6.85228482,17.2 7.30000007,17.6477153 7.30000007,18.2 L7.30000007,20 L10.7666668,17.4 Z M7.00000013,8.99999955 C6.44771538,8.99999955 6.00000013,8.5522843 6.00000013,7.99999955 C6.00000013,7.4477148 6.44771538,6.99999955 7.00000013,6.99999955 L16.0000001,6.99999955 C16.5522849,6.99999955 17.0000001,7.4477148 17.0000001,7.99999955 C17.0000001,8.5522843 16.5522849,8.99999955 16.0000001,8.99999955 L7.00000013,8.99999955 Z M7.00000013,12.9999995 C6.44771538,12.9999995 6.00000013,12.5522843 6.00000013,11.9999995 C6.00000013,11.4477148 6.44771538,10.9999995 7.00000013,10.9999995 L12.0000001,10.9999995 C12.5522849,10.9999995 13.0000001,11.4477148 13.0000001,11.9999995 C13.0000001,12.5522843 12.5522849,12.9999995 12.0000001,12.9999995 L7.00000013,12.9999995 Z"/>
</svg>
