<?xml version="1.0" encoding="UTF-8"?>
<svg width="24px" height="24px" viewBox="0 0 24 24" version="1.1" xmlns="http://www.w3.org/2000/svg" xmlns:xlink="http://www.w3.org/1999/xlink">
    <!-- Generator: Sketch 54.1 (76490) - https://sketchapp.com -->
    <title>bell copy 27</title>
    <desc>Created with Sketch.</desc>
    <g id="Icons" stroke="none" stroke-width="1" fill="none" fill-rule="evenodd">
        <path d="M6.7,22.85 C6.20557281,23.2208204 5.5,22.868034 5.5,22.25 L5.5,18.5 L2.25000011,18.5 C1.00735947,18.5000002 0,17.4926407 0,16.25 L0,3.74999989 C1.87633532e-07,2.50735936 1.00735949,1.5 2.25,1.5 L21.75,1.5 C22.9926405,1.49999995 23.9999999,2.5073594 24,3.75 L24,16.2500001 C23.9999999,17.4926407 22.9926405,18.5000001 21.75,18.5 L12.5,18.5 L6.7,22.85 Z M11.8,17.15 C11.9298221,17.0526334 12.0877223,17 12.25,17 L21.7500001,17 C22.1642134,17 22.5,16.6642135 22.5,16.25 L22.5,3.75000006 C22.5,3.33578658 22.1642134,2.99999998 21.75,3 L2.25,3 C1.8357866,3 1.50000006,3.33578655 1.5,3.75 L1.5,16.25 C1.5,16.6642136 1.8357865,17.0000001 2.25,17 L6.25,17 C6.66421356,17 7,17.3357864 7,17.75 L7,20.75 L11.8,17.15 Z M6,8.5 C5.58578644,8.5 5.25,8.16421356 5.25,7.75 C5.25,7.33578644 5.58578644,7 6,7 L18,7 C18.4142136,7 18.75,7.33578644 18.75,7.75 C18.75,8.16421356 18.4142136,8.5 18,8.5 L6,8.5 Z M6,12.5000025 C5.58578644,12.5000025 5.25,12.1642161 5.25,11.7500025 C5.25,11.3357889 5.58578644,11.0000025 6,11.0000025 L12,11.0000025 C12.4142136,11.0000025 12.75,11.3357889 12.75,11.7500025 C12.75,12.1642161 12.4142136,12.5000025 12,12.5000025 L6,12.5000025 Z" id="Shape" fill="#000000" fill-rule="nonzero"></path>
    </g>
</svg>