<?xml version="1.0" encoding="UTF-8"?>
<svg width="24px" height="24px" viewBox="0 0 24 24" version="1.1" xmlns="http://www.w3.org/2000/svg" xmlns:xlink="http://www.w3.org/1999/xlink">
    <title>bulb-bold-g</title>
    <g id="Icons" stroke="none" stroke-width="1" fill="none" fill-rule="evenodd">
        <g id="Glyphs" transform="translate(-3495.000000, -29.000000)" fill="#000000" fill-rule="nonzero">
            <path d="M3506.91021,29 L3507.26225,29.0037584 C3511.81029,29.1362378 3515.5,32.7541956 3515.5,37.1836735 C3515.5,39.3182579 3514.66479,41.3620491 3513.12271,42.8557946 L3512.7515,43.2015645 C3512.09686,43.8508633 3511.75196,44.7389767 3511.75196,45.7142857 L3511.75196,48.4081633 C3511.75196,51.3647536 3510.04559,53 3507.00391,53 C3503.96223,53 3502.25587,51.3647536 3502.25587,48.4081633 L3502.25587,45.7142857 C3502.25587,44.7948765 3501.86134,43.8617218 3501.14256,43.1066122 L3500.75448,42.7192053 C3499.20068,41.1205156 3498.4055,39.0479081 3498.50906,36.864657 C3498.72276,32.5639443 3502.43301,29.101897 3506.91021,29 Z M3509.75108,48 L3504.25508,48 L3504.25587,48.4081633 C3504.25587,50.1752412 3504.99262,50.9443946 3506.79881,50.9970802 L3507.00391,51 C3508.95962,51 3509.75196,50.2406886 3509.75196,48.4081633 L3509.75108,48 Z M3509.90495,37.7443109 C3509.51969,37.4104265 3508.95193,37.4231809 3508.58237,37.7553803 L3508.43554,37.9046539 C3508.1995,38.1162142 3507.73675,38.25 3507.00002,38.25 C3506.26328,38.25 3505.80053,38.1162142 3505.56449,37.9046539 L3505.41766,37.7553803 C3505.0481,37.4231809 3504.48034,37.4104265 3504.09509,37.7443109 C3503.67773,38.1060191 3503.63262,38.737575 3503.99433,39.1549305 C3504.47314,39.7074117 3505.14973,40.0380524 3505.99998,40.1754278 L3506.00002,44 C3506.00002,44.5522847 3506.44773,45 3507.00002,45 C3507.5523,45 3508.00002,44.5522847 3508.00002,44 L3508.00107,40.1752632 C3508.85084,40.0377884 3509.52708,39.7071911 3510.0057,39.1549305 C3510.36741,38.737575 3510.3223,38.1060191 3509.90495,37.7443109 Z" id="Shape"></path>
        </g>
    </g>
</svg>