<?xml version="1.0" encoding="UTF-8"?>
<svg width="24px" height="24px" viewBox="0 0 24 24" version="1.1" xmlns="http://www.w3.org/2000/svg" xmlns:xlink="http://www.w3.org/1999/xlink">
    <title>bulb</title>
    <g id="Icons" stroke="none" stroke-width="1" fill="none" fill-rule="evenodd">
        <g transform="translate(-3170.000000, -74.000000)" fill="#000000" fill-rule="nonzero" id="Shape">
            <path d="M3182.00018,74.7498562 C3186.16768,74.7498562 3189.5,77.9393839 3189.5,81.9412154 C3189.5,83.982661 3188.78085,85.7651603 3187.40835,87.1218454 L3187.15141,87.3642015 L3186.68487,87.7878277 L3186.39024,88.0623411 C3185.52328,88.8871665 3185.06369,89.5340052 3185.00627,90.0716925 L3185.00012,90.1852657 L3185.00012,91.2605766 C3185.00012,91.6688694 3184.66433,91.9998562 3184.25012,91.9998562 C3183.87042,91.9998562 3183.55663,91.7217354 3183.50696,91.3608924 L3183.50012,91.2605766 L3183.50012,90.1852657 C3183.50012,89.1599013 3184.06367,88.2656812 3185.12883,87.2115394 L3185.44795,86.9045861 L3186.17768,86.2379547 C3187.37564,85.1432993 3188,83.6801474 3188,81.9412154 C3188,78.765862 3185.34897,76.2284752 3181.99809,76.2284723 C3178.76503,76.2196057 3176.13162,78.6527469 3176.00454,81.7192319 L3176.00035,81.9407226 C3176.00035,83.5314514 3176.59355,85.0186409 3177.63146,86.0559914 L3177.86697,86.2772656 L3178.21807,86.5921348 L3178.59136,86.9342107 L3178.65876,86.9977422 C3179.78104,88.061099 3180.41753,88.9658662 3180.49271,89.9803366 L3180.50023,90.1847728 L3180.50023,91.2600837 C3180.50023,91.6683766 3180.16445,91.9993634 3179.75023,91.9993634 C3179.37054,91.9993634 3179.05674,91.7212425 3179.00708,91.3603996 L3179.00023,91.2600837 L3179.00023,90.1847728 C3179.00023,89.6180883 3178.53858,88.93474 3177.61927,88.063697 L3177.35712,87.820339 L3176.8064,87.3249376 C3175.40439,86.0599369 3174.58122,84.216022 3174.50648,82.2626982 L3174.50035,81.9027639 C3174.51187,77.9361496 3177.87576,74.7386019 3182.00018,74.7498562 Z M3184.52965,83.755317 C3184.77686,84.0876679 3184.70785,84.5574997 3184.3755,84.8047157 C3184.21663,84.9228845 3183.96462,85.0891065 3183.6544,85.2559152 C3183.34983,85.419694 3183.04742,85.5500101 3182.74987,85.6343666 L3182.75,91.2246261 C3182.75,91.6388397 3182.41421,91.9746261 3182,91.9746261 C3181.6203,91.9746261 3181.25,91.6346261 3181.25,91.2246261 L3181.24935,85.5928864 L3181.15838,85.5642757 C3180.93205,85.4841497 3180.70333,85.37957 3180.47337,85.2559152 C3180.16316,85.0891065 3179.91114,84.9228845 3179.75228,84.8047157 C3179.41993,84.5574997 3179.35091,84.0876679 3179.59813,83.755317 C3179.84534,83.4229661 3180.31518,83.3539505 3180.64753,83.6011665 C3180.75244,83.6792065 3180.94665,83.8072979 3181.18377,83.9348025 C3181.40124,84.0517422 3181.60902,84.1411338 3181.79032,84.1921684 C3181.89965,84.2229469 3181.99272,84.2377766 3182.06389,84.2377766 C3182.13505,84.2377766 3182.22812,84.2229469 3182.33746,84.1921684 C3182.51875,84.1411338 3182.72654,84.0517422 3182.94401,83.9348025 C3183.08628,83.8582997 3183.2131,83.7815857 3183.31446,83.7155983 L3183.48025,83.6011665 C3183.8126,83.3539505 3184.28243,83.4229661 3184.52965,83.755317 Z M3183.25,96.5 C3183.66421,96.5 3184,96.8357864 3184,97.25 C3184,97.6296958 3183.71785,97.943491 3183.35177,97.9931534 L3183.25,98 L3180.75,98 C3180.33579,98 3180,97.6642136 3180,97.25 C3180,96.8703042 3180.28215,96.556509 3180.64823,96.5068466 L3180.75,96.5 L3183.25,96.5 Z M3184.41839,93.5 C3184.83261,93.5 3185.16839,93.8357864 3185.16839,94.25 C3185.16839,94.6296958 3184.88624,94.943491 3184.52016,94.9931534 L3184.41839,95 L3179.70938,95 C3179.29517,95 3178.95938,94.6642136 3178.95938,94.25 C3178.95938,93.8703042 3179.24153,93.556509 3179.60761,93.5068466 L3179.70938,93.5 L3184.41839,93.5 Z"></path>
        </g>
    </g>
</svg>