<svg xmlns="http://www.w3.org/2000/svg" width="24" height="24" viewBox="0 0 24 24">
  <path d="M3508,80.3 C3508.46944,80.3 3508.85,80.680558 3508.85,81.15 C3508.85,81.5833311 3508.52574,81.9409267 3508.10662,81.9933773 L3508,82 L3506,82 C3505.53056,82 3505.15,81.619442 3505.15,81.15 C3505.15,80.7166689 3505.47426,80.3590733 3505.89338,80.3066227 L3506,80.3 L3508,80.3 Z M3509.5,77.4 C3509.96944,77.4 3510.35,77.780558 3510.35,78.25 C3510.35,78.6833311 3510.02574,79.0409267 3509.60662,79.0933773 L3509.5,79.1 L3504.5,79.1 C3504.03056,79.1 3503.65,78.719442 3503.65,78.25 C3503.65,77.8166689 3503.97426,77.4590733 3504.39338,77.4066227 L3504.5,77.4 L3509.5,77.4 Z M3506.9162,58 L3507.25185,58.0038218 C3511.53835,58.1359871 3515,61.6790962 3515,65.9963485 C3515,68.0647436 3514.22685,70.0477854 3512.79368,71.5063852 L3512.41828,71.8728513 C3511.86952,72.4470851 3511.55674,73.2173179 3511.50843,74.070003 L3511.50183,74.3045124 L3511.50183,75 C3511.50183,75.5128358 3511.11579,75.9355072 3510.61845,75.9932723 L3510.50183,76 L3503.50548,76 C3502.99264,76 3502.56997,75.6139598 3502.5122,75.1166211 L3502.50548,75 L3502.50548,74.3045124 C3502.50548,73.3440199 3502.08436,72.373608 3501.31165,71.6008993 C3499.72342,70.012676 3498.90749,67.9070541 3499.00843,65.6864203 C3499.20416,61.5761951 3502.55381,58.2362979 3506.66365,58.0099479 L3506.9162,58 Z M3506.94,59.9997167 C3503.78711,60.0747854 3501.15592,62.6367319 3501.00627,65.7793931 C3500.93537,67.3391952 3501.46644,68.8122139 3502.52185,69.9727935 L3502.92176,70.3912128 C3503.74791,71.2920316 3504.27707,72.3782871 3504.44646,73.5129376 L3504.47913,73.7755767 L3504.495,74 L3505.99908,74 L3505.99908,68.5 L3504.99999,68.5 C3504.44772,68.5 3503.99999,68.0522847 3503.99999,67.5 C3503.99999,66.9871642 3504.38604,66.5644928 3504.88338,66.5067277 L3504.99999,66.5 L3508.99999,66.5 C3509.55228,66.5 3509.99999,66.9477153 3509.99999,67.5 C3509.99999,68.0128358 3509.61396,68.4355072 3509.11662,68.4932723 L3508.99999,68.5 L3507.99908,68.5 L3507.99908,74 L3509.509,74 L3509.52631,73.7565361 C3509.63217,72.580707 3510.08001,71.4872162 3510.84282,70.6300068 L3511.02443,70.4364537 L3511.21715,70.2517097 C3512.36567,69.1749753 3512.99999,67.6287983 3512.99999,65.9963485 C3512.99999,62.775544 3510.42072,60.1230638 3507.22741,60.0041602 L3506.94,59.9997167 Z" transform="translate(-3495 -58)"/>
</svg>
