<?xml version="1.0" encoding="UTF-8"?>
<svg width="24px" height="24px" viewBox="0 0 24 24" version="1.1" xmlns="http://www.w3.org/2000/svg" xmlns:xlink="http://www.w3.org/1999/xlink">
    <title>bulb-g</title>
    <g id="Icons" stroke="none" stroke-width="1" fill="none" fill-rule="evenodd">
        <g id="Glyphs" transform="translate(-3495.000000, -58.000000)" fill="#000000" fill-rule="nonzero">
            <path d="M3506.9107,58 L3507.26277,58.0037682 C3511.81939,58.1365922 3515.50008,61.7637629 3515.50008,66.1836735 C3515.50008,68.3053834 3514.67493,70.3391515 3513.14605,71.8323874 L3512.76729,72.1874112 C3512.11654,72.8367499 3511.77109,73.7309248 3511.77109,74.7142857 L3511.77109,77.75 C3511.77109,80.0972102 3509.79565,82 3507.35882,82 L3506.64904,82 C3504.21221,82 3502.23676,80.0972102 3502.23676,77.75 L3502.23676,74.7142857 C3502.23676,73.7917704 3501.84707,72.8609187 3501.12783,72.0934751 L3500.73101,71.6944609 C3499.19175,70.0978022 3498.40659,68.0359441 3498.50896,65.8667206 C3498.72116,61.5743646 3502.42286,58.1026402 3506.9107,58 Z M3506.93542,59.9997167 C3503.55994,60.0771293 3500.7433,62.7187835 3500.58308,65.9596934 C3500.5069,67.573915 3501.07982,69.0982321 3502.2176,70.2970153 L3502.63218,70.7142557 C3503.71151,71.8478183 3504.31313,73.2682392 3504.31313,74.7142857 L3504.31313,77.75 C3504.31313,78.9926407 3505.35895,80 3506.64904,80 L3507.35882,80 C3508.64891,80 3509.69473,78.9926407 3509.69473,77.75 L3509.69473,74.7142857 C3509.69473,73.1136202 3510.32265,71.6159491 3511.51445,70.5725036 C3512.7445,69.4617434 3513.42371,67.8670522 3513.42371,66.1836735 C3513.42371,62.8604653 3510.65951,60.1240781 3507.23819,60.004102 L3506.93542,59.9997167 Z M3510.08085,66.7443109 C3510.51414,67.1060191 3510.56098,67.737575 3510.18546,68.1549305 C3509.68836,68.7074117 3508.98594,69.0380524 3508.10323,69.1754278 L3508.10319,75.5 C3508.10319,76.0522847 3507.63838,76.5 3507.065,76.5 C3506.49163,76.5 3506.02682,76.0522847 3506.02682,75.5 L3506.02678,69.1754278 C3505.14407,69.0380524 3504.44165,68.7074117 3503.94455,68.1549305 C3503.56903,67.737575 3503.61586,67.1060191 3504.04915,66.7443109 C3504.44912,66.4104265 3505.03856,66.4231809 3505.42223,66.7553803 L3505.51364,66.8450695 C3505.73472,67.0907838 3506.23061,67.25 3507.065,67.25 C3507.82987,67.25 3508.31029,67.1162142 3508.55534,66.9046539 L3508.61637,66.8450695 C3508.99189,66.4277139 3509.64756,66.3826028 3510.08085,66.7443109 Z" id="Shape"></path>
            <polygon id="Line-39-Copy" points="3511.5 75 3511.5 77 3503.5 77 3503.5 75"></polygon>
        </g>
    </g>
</svg>