<?xml version="1.0" encoding="UTF-8"?>
<svg width="24px" height="24px" viewBox="0 0 24 24" version="1.1" xmlns="http://www.w3.org/2000/svg" xmlns:xlink="http://www.w3.org/1999/xlink">
    <title>bulb-bold-g</title>
    <g id="Icons" stroke="none" stroke-width="1" fill="none" fill-rule="evenodd">
        <g transform="translate(-3495.000000, -29.000000)" fill="#000000" fill-rule="nonzero" id="Shape">
            <path d="M3508.26475,51.226087 C3508.76181,51.226087 3509.16475,51.6231909 3509.16475,52.1130435 C3509.16475,52.5652151 3508.82142,52.9383583 3508.37764,52.9930893 L3508.26475,53 L3506.14709,53 C3505.65003,53 3505.24709,52.602896 3505.24709,52.1130435 C3505.24709,51.6608719 3505.59043,51.2877287 3506.0342,51.2329976 L3506.14709,51.226087 L3508.26475,51.226087 Z M3509.85299,48.2 C3510.35005,48.2 3510.753,48.597104 3510.753,49.0869565 C3510.753,49.5391281 3510.40966,49.9122713 3509.96589,49.9670024 L3509.85299,49.973913 L3504.55885,49.973913 C3504.06179,49.973913 3503.65885,49.5768091 3503.65885,49.0869565 C3503.65885,48.6347849 3504.00218,48.2616417 3504.44596,48.2069107 L3504.55885,48.2 L3509.85299,48.2 Z M3506.91616,29 L3507.25181,29.0037664 C3511.53833,29.1340163 3515,32.6257759 3515,36.8804594 C3515,38.9188777 3514.22685,40.8731798 3512.79367,42.3106405 L3512.41827,42.6717955 C3511.86951,43.237707 3511.55673,43.9967771 3511.50841,44.8371044 L3511.50181,45.0682151 L3511.50181,45.7536232 C3511.50181,46.2590266 3511.11577,46.6755723 3510.61843,46.7325002 L3510.5018,46.7391304 L3503.50542,46.7391304 C3502.99258,46.7391304 3502.56991,46.358685 3502.51215,45.8685542 L3502.50542,45.7536232 L3502.50542,45.0682151 C3502.50542,44.1216428 3502.08429,43.1652948 3501.31158,42.4037848 C3499.72335,40.8385792 3498.90742,38.7634736 3499.00836,36.5750229 C3499.20408,32.5243662 3502.55375,29.2328733 3506.66361,29.0098038 L3506.91616,29 Z M3509.5,36 L3504.5,36 L3504.38338,36.0067277 C3503.88604,36.0644928 3503.5,36.4871642 3503.5,37 C3503.5,37.5128358 3503.88604,37.9355072 3504.38338,37.9932723 L3504.5,38 L3506,38 L3506,42.5 L3506.00673,42.6166211 C3506.06449,43.1139598 3506.48716,43.5 3507,43.5 C3507.51284,43.5 3507.93551,43.1139598 3507.99327,42.6166211 L3508,42.5 L3508,38 L3509.5,38 L3509.61662,37.9932723 C3510.11396,37.9355072 3510.5,37.5128358 3510.5,37 C3510.5,36.4871642 3510.11396,36.0644928 3509.61662,36.0067277 L3509.5,36 Z"></path>
        </g>
    </g>
</svg>