<?xml version="1.0" encoding="UTF-8"?>
<svg width="24px" height="24px" viewBox="0 0 24 24" version="1.1" xmlns="http://www.w3.org/2000/svg" xmlns:xlink="http://www.w3.org/1999/xlink">
    <title>business-g</title>
    <g id="Icons" stroke="none" stroke-width="1" fill="none" fill-rule="evenodd">
        <g id="Glyphs" transform="translate(-2089.000000, -59.000000)" fill="#000000" fill-rule="nonzero">
            <path d="M2092,82 C2091.44772,82 2091,81.5522847 2091,81 C2091,80.4871642 2091.38604,80.0644928 2091.88338,80.0067277 L2092,80 L2093.499,80 L2093.5014,63.6988708 L2093.50699,63.2830218 L2093.51872,62.93568 L2093.5385,62.6451046 C2093.57924,62.2015947 2093.66156,61.9456902 2093.82557,61.6327864 C2094.11134,61.0612439 2094.57689,60.6035197 2095.15279,60.3155728 L2095.32861,60.2334617 C2095.58744,60.1223064 2095.83554,60.063411 2096.22567,60.0325958 L2096.50847,60.015947 L2097.0336,60.0030912 L2097.71,60 L2104.28733,60 L2104.96002,60.0032613 L2105.32362,60.0107451 L2105.63086,60.0243648 C2106.0544,60.0502055 2106.32112,60.1022173 2106.58116,60.2049812 L2106.79954,60.3028928 L2106.84454,60.3255728 C2107.40915,60.6078746 2107.86288,61.0654512 2108.16316,61.635993 L2108.25012,61.8137073 C2108.35475,62.0462062 2108.41565,62.2698687 2108.45081,62.5924325 L2108.47263,62.8545826 L2108.48649,63.1639211 L2108.49406,63.5305483 L2108.49733,64.21 L2108.497,80 L2110,80 C2110.55228,80 2111,80.4477153 2111,81 C2111,81.5128358 2110.61396,81.9355072 2110.11662,81.9932723 L2110,82 L2092,82 Z M2104.28733,62 L2097.15158,62.0023366 L2096.86166,62.0068537 L2096.53105,62.0189406 L2096.24442,62.0468015 L2096.14984,62.0665503 L2096.06195,62.0973857 L2096.04721,62.1044272 C2095.85319,62.2014368 2095.70395,62.3481776 2095.60583,62.544007 L2095.59194,62.5731738 L2095.56763,62.6434101 L2095.54766,62.7358252 L2095.53169,62.8579892 L2095.51449,63.1135743 L2095.50439,63.4786768 L2095.5,64.18 L2095.499,80 L2098,80 L2098,78.5 C2098,76.8431458 2099.34315,75.5 2101,75.5 C2102.59768,75.5 2103.90366,76.74892 2103.99491,78.3237272 L2104,78.5 L2104,80 L2106.497,80 L2106.49622,63.8108994 L2106.4895,63.3331721 L2106.48107,63.0959703 L2106.46901,62.9129861 L2106.44323,62.7199014 L2106.42034,62.6319283 C2106.41189,62.6067505 2106.4026,62.5852046 2106.39241,62.5657464 C2106.28342,62.3586553 2106.13085,62.2047921 2105.94185,62.1102482 L2105.91058,62.0955987 L2105.83689,62.0700376 L2105.74184,62.0491381 L2105.61765,62.0325138 L2105.45655,62.0197786 L2105.25075,62.0105459 L2104.84121,62.0024192 L2104.28733,62 Z M2101,77.5 C2100.48716,77.5 2100.06449,77.8860402 2100.00673,78.3833789 L2100,78.5 L2100,80 L2102,80 L2102,78.5 C2102,77.9477153 2101.55228,77.5 2101,77.5 Z M2103.14286,68 C2103.61624,68 2104,68.4477153 2104,69 C2104,69.5128358 2103.66911,69.9355072 2103.24282,69.9932723 L2103.14286,70 L2098.85714,70 C2098.38376,70 2098,69.5522847 2098,69 C2098,68.4871642 2098.33089,68.0644928 2098.75718,68.0067277 L2098.85714,68 L2103.14286,68 Z M2103.14286,64 C2103.61624,64 2104,64.4477153 2104,65 C2104,65.5128358 2103.66911,65.9355072 2103.24282,65.9932723 L2103.14286,66 L2098.85714,66 C2098.38376,66 2098,65.5522847 2098,65 C2098,64.4871642 2098.33089,64.0644928 2098.75718,64.0067277 L2098.85714,64 L2103.14286,64 Z" id="Shape"></path>
        </g>
    </g>
</svg>