<?xml version="1.0" encoding="UTF-8"?>
<svg width="24px" height="24px" viewBox="0 0 24 24" version="1.1" xmlns="http://www.w3.org/2000/svg" xmlns:xlink="http://www.w3.org/1999/xlink">
    <title>business-g</title>
    <g id="Icons" stroke="none" stroke-width="1" fill="none" fill-rule="evenodd">
        <g id="Glyphs" transform="translate(-2089, -59)" fill="#000000" fill-rule="nonzero">
            <path d="M2106,59 C2107.65685,59 2109,60.3431458 2109,62 L2109,80.999 L2110.5,80.9999851 C2111.05228,80.9999851 2111.5,81.4477153 2111.5,82 C2111.5,82.5128358 2111.04673,83 2110.5,83 L2091.5,83 C2090.94772,83 2090.5,82.5522847 2090.5,82 C2090.5,81.4871642 2090.95,80.9999851 2091.5,80.9999851 L2093,80.999 L2093,62 C2093,60.3431458 2094.34315,59 2096,59 L2106,59 Z M2101,78.0026627 C2100.48716,78.0026627 2100.06449,78.3887029 2100.00673,78.8860416 L2100,79.0026627 L2100,80.999 L2102,80.999 L2102,79.0026627 C2102,78.450378 2101.55228,78.0026627 2101,78.0026627 Z M2106,61 L2096,61 C2095.44772,61 2095,61.4477153 2095,62 L2095,80.999 L2098,80.999 L2098,79.0026627 C2098,77.3458085 2099.34315,76.0026627 2101,76.0026627 C2102.59768,76.0026627 2103.90366,77.2515827 2103.99491,78.8263899 L2104,79.0026627 L2104,80.999 L2107,80.999 L2107,62 C2107,61.4871642 2106.61396,61.0644928 2106.11662,61.0067277 L2106,61 Z M2103,68 C2103.55228,68 2104,68.4477153 2104,69 C2104,69.5522847 2103.55228,70 2103,70 L2099,70 C2098.44772,70 2098,69.5522847 2098,69 C2098,68.4477153 2098.44772,68 2099,68 L2103,68 Z M2103,64 C2103.55228,64 2104,64.4477153 2104,65 C2104,65.5522847 2103.55228,66 2103,66 L2099,66 C2098.44772,66 2098,65.5522847 2098,65 C2098,64.4477153 2098.44772,64 2099,64 L2103,64 Z" id="Shape"></path>
        </g>
    </g>
</svg>