<svg xmlns="http://www.w3.org/2000/svg" width="24" height="24" viewBox="0 0 24 24">
  <path d="M23,22.5 L23.25,22.5 C23.6642136,22.5 24,22.8357864 24,23.25 C24,23.6642136 23.6642136,24 23.25,24 L0.75,24 C0.335786438,24 0,23.6642136 0,23.25 C0,22.8357864 0.335786438,22.5 0.75,22.5 L1,22.5 L1,1.75 C1,0.783786438 1.78378644,0 2.75,0 L9.75,0 C10.7162136,0 11.5,0.783786438 11.5,1.75 L11.5,22.5 L12.5,22.5 L12.5,10.75 C12.5,9.78378644 13.2837864,9 14.25,9 L21.25,9 C22.2162136,9 23,9.78378644 23,10.75 L23,22.5 Z M21.5,22.5 L21.5,13.5 L14,13.5 L14,22.5 L21.5,22.5 Z M10,22.5 L10,1.75 C10,1.61221356 9.88778644,1.5 9.75,1.5 L2.75,1.5 C2.61221356,1.5 2.5,1.61221356 2.5,1.75 L2.5,22.5 L10,22.5 Z M21.5,12 L21.5,10.75 C21.5,10.6122136 21.3877864,10.5 21.25,10.5 L14.25,10.5 C14.1122136,10.5 14,10.6122136 14,10.75 L14,12 L21.5,12 Z M8.5,3.75 L8.5,4.5 C8.5,4.91421356 8.16421356,5.25 7.75,5.25 C7.33578644,5.25 7,4.91421356 7,4.5 L7,3.75 C7,3.33578644 7.33578644,3 7.75,3 C8.16421356,3 8.5,3.33578644 8.5,3.75 Z M5.5,3.75 L5.5,4.5 C5.5,4.91421356 5.16421356,5.25 4.75,5.25 C4.33578644,5.25 4,4.91421356 4,4.5 L4,3.75 C4,3.33578644 4.33578644,3 4.75,3 C5.16421356,3 5.5,3.33578644 5.5,3.75 Z M8.5,7.5 L8.5,8.25 C8.5,8.66421356 8.16421356,9 7.75,9 C7.33578644,9 7,8.66421356 7,8.25 L7,7.5 C7,7.08578644 7.33578644,6.75 7.75,6.75 C8.16421356,6.75 8.5,7.08578644 8.5,7.5 Z M5.5,7.5 L5.5,8.25 C5.5,8.66421356 5.16421356,9 4.75,9 C4.33578644,9 4,8.66421356 4,8.25 L4,7.5 C4,7.08578644 4.33578644,6.75 4.75,6.75 C5.16421356,6.75 5.5,7.08578644 5.5,7.5 Z M8.5,11.25 L8.5,12 C8.5,12.4142136 8.16421356,12.75 7.75,12.75 C7.33578644,12.75 7,12.4142136 7,12 L7,11.25 C7,10.8357864 7.33578644,10.5 7.75,10.5 C8.16421356,10.5 8.5,10.8357864 8.5,11.25 Z M5.5,11.25 L5.5,12 C5.5,12.4142136 5.16421356,12.75 4.75,12.75 C4.33578644,12.75 4,12.4142136 4,12 L4,11.25 C4,10.8357864 4.33578644,10.5 4.75,10.5 C5.16421356,10.5 5.5,10.8357864 5.5,11.25 Z M8.5,15 L8.5,15.75 C8.5,16.1642136 8.16421356,16.5 7.75,16.5 C7.33578644,16.5 7,16.1642136 7,15.75 L7,15 C7,14.5857864 7.33578644,14.25 7.75,14.25 C8.16421356,14.25 8.5,14.5857864 8.5,15 Z M5.5,15 L5.5,15.75 C5.5,16.1642136 5.16421356,16.5 4.75,16.5 C4.33578644,16.5 4,16.1642136 4,15.75 L4,15 C4,14.5857864 4.33578644,14.25 4.75,14.25 C5.16421356,14.25 5.5,14.5857864 5.5,15 Z M8.5,18.75 L8.5,19.5 C8.5,19.9142136 8.16421356,20.25 7.75,20.25 C7.33578644,20.25 7,19.9142136 7,19.5 L7,18.75 C7,18.3357864 7.33578644,18 7.75,18 C8.16421356,18 8.5,18.3357864 8.5,18.75 Z M5.5,18.75 L5.5,19.5 C5.5,19.9142136 5.16421356,20.25 4.75,20.25 C4.33578644,20.25 4,19.9142136 4,19.5 L4,18.75 C4,18.3357864 4.33578644,18 4.75,18 C5.16421356,18 5.5,18.3357864 5.5,18.75 Z M20,15.75 L20,16.5 C20,16.9142136 19.6642136,17.25 19.25,17.25 C18.8357864,17.25 18.5,16.9142136 18.5,16.5 L18.5,15.75 C18.5,15.3357864 18.8357864,15 19.25,15 C19.6642136,15 20,15.3357864 20,15.75 Z M17,15.75 L17,16.5 C17,16.9142136 16.6642136,17.25 16.25,17.25 C15.8357864,17.25 15.5,16.9142136 15.5,16.5 L15.5,15.75 C15.5,15.3357864 15.8357864,15 16.25,15 C16.6642136,15 17,15.3357864 17,15.75 Z M20,19.5 L20,20.25 C20,20.6642136 19.6642136,21 19.25,21 C18.8357864,21 18.5,20.6642136 18.5,20.25 L18.5,19.5 C18.5,19.0857864 18.8357864,18.75 19.25,18.75 C19.6642136,18.75 20,19.0857864 20,19.5 Z M17,19.5 L17,20.25 C17,20.6642136 16.6642136,21 16.25,21 C15.8357864,21 15.5,20.6642136 15.5,20.25 L15.5,19.5 C15.5,19.0857864 15.8357864,18.75 16.25,18.75 C16.6642136,18.75 17,19.0857864 17,19.5 Z"/>
</svg>
