<svg xmlns="http://www.w3.org/2000/svg" width="24" height="24" viewBox="0 0 24 24">
  <path d="M1740,80 L1740,78.5 C1740,76.843146 1741.34315,75.5 1743,75.5 C1744.65685,75.5 1746,76.8431458 1746,78.5 L1746,80 L1748,80 L1748,61 C1748,60.4477153 1747.55228,60 1747,60 L1739,60 C1738.44772,60 1738,60.4477153 1738,61 L1738,79 C1738,79.5522847 1738.44772,80 1739,80 L1740,80 Z M1742,80 L1744,80 L1744,78.5 C1744,77.9477154 1743.55228,77.5 1743,77.5 C1742.44772,77.5 1742,77.9477154 1742,78.5 L1742,80 Z M1746,72.5 C1746,73.0522847 1745.55228,73.5 1745,73.5 C1744.44772,73.5 1744,73.0522847 1744,72.5 L1744,63 C1744,62.4477153 1744.44772,62 1745,62 C1745.55228,62 1746,62.4477153 1746,63 L1746,72.5 Z M1742,72.5 C1742,73.0522847 1741.55228,73.5 1741,73.5 C1740.44772,73.5 1740,73.0522847 1740,72.5 L1740,63 C1740,62.4477153 1740.44772,62 1741,62 C1741.55228,62 1742,62.4477153 1742,63 L1742,72.5 Z M1755.75,80 L1757,80 C1757.55228,80 1758,79.5522847 1758,79 L1758,67 C1758,66.4477153 1757.55228,66 1757,66 L1750,66 L1750,80 L1752.25,80 L1752.25,78.5 C1752.25,77.9477153 1752.69772,77.5 1753.25,77.5 L1754.75,77.5 C1755.30228,77.5 1755.75,77.9477153 1755.75,78.5 L1755.75,80 Z M1750,64 L1758,64 C1759.10457,64 1760,64.8954305 1760,66 L1760,80 C1760,81.1045695 1759.10457,82 1758,82 L1738,82 C1736.89543,82 1736,81.1045695 1736,80 L1736,60 C1736,58.8954305 1736.89543,58 1738,58 L1748,58 C1749.10457,58 1750,58.8954305 1750,60 L1750,64 Z M1753.25,74 C1752.69772,74 1752.25,73.5522847 1752.25,73 C1752.25,72.4477153 1752.69772,72 1753.25,72 L1754.75,72 C1755.30228,72 1755.75,72.4477153 1755.75,73 C1755.75,73.5522847 1755.30228,74 1754.75,74 L1753.25,74 Z M1753.25,70.5 C1752.69772,70.5 1752.25,70.0522847 1752.25,69.5 C1752.25,68.9477153 1752.69772,68.5 1753.25,68.5 L1754.75,68.5 C1755.30228,68.5 1755.75,68.9477153 1755.75,69.5 C1755.75,70.0522847 1755.30228,70.5 1754.75,70.5 L1753.25,70.5 Z" transform="translate(-1736 -58)"/>
</svg>
