<?xml version="1.0" encoding="UTF-8"?>
<svg width="24px" height="24px" viewBox="0 0 24 24" version="1.1" xmlns="http://www.w3.org/2000/svg" xmlns:xlink="http://www.w3.org/1999/xlink">
    <!-- Generator: Sketch 54.1 (76490) - https://sketchapp.com -->
    <title>bell copy 52</title>
    <desc>Created with Sketch.</desc>
    <g id="Icons" stroke="none" stroke-width="1" fill="none" fill-rule="evenodd">
        <path d="M13,9 L13,3 C13,1.9 13.9,1 15,1 L21,1 C22.1,1 23,1.9 23,3 L23,21 C23,22.1 22.1,23 21,23 L3,23 C1.9,23 1,22.1 1,21 L1,11 C1,9.9 1.9,9 3,9 L13,9 Z M19,21 L21,21 L21,19 L19,19 L19,21 Z M19,17 L21,17 L21,15 L19,15 L19,17 Z M19,13 L21,13 L21,11 L19,11 L19,13 Z M19,9 L21,9 L21,7 L19,7 L19,9 Z M15,21 L17,21 L17,19 L15,19 L15,21 Z M15,17 L17,17 L17,15 L15,15 L15,17 Z M15,13 L17,13 L17,11 L15,11 L15,13 Z M15,9 L17,9 L17,7 L15,7 L15,9 Z M4,21 L13,21 L13,11 L4,11 C3.45,11 3,11.45 3,12 L3,20 C3,20.55 3.45,21 4,21 Z M5,13 L7,13 L7,15 L5,15 L5,13 Z M5,17 L7,17 L7,19 L5,19 L5,17 Z M15,3 L15,5 L17,5 L17,3 L15,3 Z M19,3 L19,5 L21,5 L21,3 L19,3 Z M9,13 L11,13 L11,15 L9,15 L9,13 Z M9,17 L11,17 L11,19 L9,19 L9,17 Z" id="Shape" fill="#1D1D1D"></path>
    </g>
</svg>