<?xml version="1.0" encoding="UTF-8"?>
<svg width="24px" height="24px" viewBox="0 0 24 24" version="1.1" xmlns="http://www.w3.org/2000/svg" xmlns:xlink="http://www.w3.org/1999/xlink">
    <!-- Generator: Sketch 51.2 (57519) - http://www.bohemiancoding.com/sketch -->
    <title>Slice</title>
    <desc>Created with Sketch.</desc>
    <defs></defs>
    <g id="Prototype" stroke="none" stroke-width="1" fill="none" fill-rule="evenodd">
        <path d="M21.2914439,11.2941176 L18.8529412,11.2941176 C18.2858895,11.2941176 17.8262032,10.8344314 17.8262032,10.2673797 C17.8262032,9.70032796 18.2858895,9.24064171 18.8529412,9.24064171 L21.2914439,9.24064171 L21.2914439,6.67379679 L18.8529412,6.67379679 C18.2858895,6.67379679 17.8262032,6.21411055 17.8262032,5.64705882 C17.8262032,5.0800071 18.2858895,4.62032086 18.8529412,4.62032086 L21.2914439,4.62032086 L21.2914439,2.18181818 C21.2914439,2.11093672 21.2339831,2.05347594 21.1631016,2.05347594 L10.7673797,2.05347594 C10.6964982,2.05347594 10.6390374,2.11093672 10.6390374,2.18181818 L10.6390374,9.24064171 L13.4625668,9.24064171 C14.4549074,9.24064171 15.2593583,10.0450926 15.2593583,11.0374332 L15.2593583,21.9465241 L17.697861,21.9465241 C18.2649127,21.9465241 18.7245989,22.4062103 18.7245989,22.973262 C18.7245989,23.5403138 18.2649127,24 17.697861,24 L1.52673797,24 C0.959686246,24 0.5,23.5403138 0.5,22.973262 C0.5,22.4062103 0.959686246,21.9465241 1.52673797,21.9465241 L2.81016043,21.9465241 L2.81016043,11.0374332 C2.81016043,10.0450926 3.61461136,9.24064171 4.60695187,9.24064171 L8.5855615,9.24064171 L8.5855615,2.18181818 C8.5855615,0.976833273 9.56239477,0 10.7673797,0 L21.1631016,0 C22.3680865,0 23.3449198,0.976833273 23.3449198,2.18181818 L23.3449198,22.973262 C23.3449198,23.5403138 22.8852335,24 22.3181818,24 C21.7511301,24 21.2914439,23.5403138 21.2914439,22.973262 L21.2914439,11.2941176 Z M13.2058824,13.8609626 L13.2058824,11.2941176 L4.86363636,11.2941176 L4.86363636,21.9465241 L13.2058824,21.9465241 L13.2058824,15.9144385 L9.61229947,15.9144385 C9.04524774,15.9144385 8.5855615,15.4547523 8.5855615,14.8877005 C8.5855615,14.3206488 9.04524774,13.8609626 9.61229947,13.8609626 L13.2058824,13.8609626 Z" id="Combined-Shape" fill="#000000" fill-rule="nonzero"></path>
    </g>
</svg>