<svg xmlns="http://www.w3.org/2000/svg" width="24" height="24" viewBox="0 0 24 24">
  <path d="M19,22 L19,19 C19,18.9423142 19.0048844,18.8857692 19.0142623,18.8307561 C17.9921416,18.4665096 17.2500009,17.5509656 17.25,16.4444503 L17.2554335,16.3403465 C17.4681566,14.3080585 18.1038057,12.3304816 19.1285169,10.5095754 C19.5108661,9.83014304 20.4891328,9.83014247 20.8714827,10.5095744 C21.8961919,12.330472 22.5318419,14.3080492 22.7445665,16.3403394 L22.75,16.444443 C22.75,17.5509628 22.0078597,18.4665093 20.9857378,18.8307563 C20.9951156,18.8857693 21,18.9423143 21,19 L21,22 L23,22 C23.5522847,22 24,22.4477153 24,23 C24,23.5522847 23.5522847,24 23,24 L1,24 C0.44771525,24 0,23.5522847 0,23 C0,22.4477153 0.44771525,22 1,22 L2,22 L2,7.48376899 C2,6.87262261 2.27942734,6.2950177 2.75859411,5.91567734 L7.13789117,2.44873384 C8.22902805,1.58491714 9.77097195,1.58491714 10.8621088,2.44873384 L12,3.34956434 L12,2 C12,1.44771525 12.4477153,1 13,1 C13.5522847,1 14,1.44771525 14,2 L14,4.93289768 L15.2414059,5.91567734 C15.7205727,6.2950177 16,6.87262261 16,7.48376899 L16,22 L19,22 Z M14,22 L14,7.48376899 L9.62070294,4.01682549 C9.25699065,3.72888659 8.74300935,3.72888659 8.37929706,4.01682549 L4,7.48376899 L4,22 L14,22 Z M7.5,14 C6.94771525,14 6.5,13.5522847 6.5,13 C6.5,12.4477153 6.94771525,12 7.5,12 L10.5,12 C11.0522847,12 11.5,12.4477153 11.5,13 C11.5,13.5522847 11.0522847,14 10.5,14 L7.5,14 Z M7.5,10 C6.94771525,10 6.5,9.55228475 6.5,9 C6.5,8.44771525 6.94771525,8 7.5,8 L10.5,8 C11.0522847,8 11.5,8.44771525 11.5,9 C11.5,9.55228475 11.0522847,10 10.5,10 L7.5,10 Z M20.0000006,13.3589855 C19.620243,14.3704422 19.3688675,15.4175836 19.2517938,16.4812398 C19.2776511,16.7471402 19.5805817,17 20.0000003,17 C20.4194197,17 20.7223495,16.7471399 20.7482063,16.4812343 C20.6311321,15.4175787 20.3797567,14.3704387 20.0000006,13.3589855 Z M8,22 L6,22 L6,20 C6,18.3431458 7.34314575,17 9,17 C10.6568542,17 12,18.3431458 12,20 L12,22 L10,22 L10,20 C10,19.4477153 9.55228475,19 9,19 C8.44771525,19 8,19.4477153 8,20 L8,22 Z"/>
</svg>
