<svg xmlns="http://www.w3.org/2000/svg" width="24" height="24" viewBox="0 0 24 24">
  <path d="M3423,58.9985928 C3423.66667,59.0907312 3424,59.4243274 3424,59.9993814 C3424,60.5744354 3423.66667,60.907975 3423,61 L3417.28194,61 C3416.83618,61 3416.67454,61.0464128 3416.51158,61.1335664 C3416.34861,61.2207199 3416.22072,61.3486142 3416.13357,61.5115771 C3416.05731,61.6541697 3416.01224,61.7957518 3416.00216,62.1275433 L3416,62.2819426 L3416,78.7180574 C3416,79.1638168 3416.04641,79.3254599 3416.13357,79.4884229 C3416.22072,79.6513858 3416.34861,79.7792801 3416.51158,79.8664336 C3416.65417,79.942693 3416.79575,79.9877602 3417.12754,79.9978355 L3417.28194,80 L3419.5,80 L3419.5,78 C3419.5,76.3431458 3420.84315,75 3422.5,75 C3424.09768,75 3425.40366,76.24892 3425.49491,77.8237272 L3425.5,78 L3425.5,80 L3427.71806,80 C3428.16382,80 3428.32546,79.9535872 3428.48842,79.8664336 C3428.65139,79.7792801 3428.77928,79.6513858 3428.86643,79.4884229 C3428.94269,79.3458303 3428.98776,79.2042482 3428.99784,78.8724567 L3429,78.7180574 L3429.00037,71.25 C3429.00732,70.4166667 3429.34233,70 3430.0054,70 C3430.66847,70 3431.00018,70.4166667 3431.00018,71.25 L3431,78.7180574 C3431,79.4263951 3430.90525,79.9170653 3430.63006,80.4316206 C3430.35651,80.9431205 3429.94312,81.3565069 3429.43162,81.63006 C3428.97424,81.8746709 3428.53573,81.9767162 3427.94644,81.9963731 L3427.71806,82 L3417.28194,82 C3416.5736,82 3416.08293,81.9052472 3415.56838,81.63006 C3415.05688,81.3565069 3414.64349,80.9431205 3414.36994,80.4316206 C3414.12533,79.9742381 3414.02328,79.5357278 3414.00363,78.9464396 L3414,78.7180574 L3414,62.2819426 C3414,61.5736049 3414.09475,61.0829347 3414.36994,60.5683794 C3414.64349,60.0568795 3415.05688,59.6434931 3415.56838,59.36994 C3416.02576,59.1253291 3416.46427,59.0232838 3417.05356,59.0036269 L3417.28194,59 L3423,58.9985928 Z M3422.5,77 C3421.98716,77 3421.56449,77.3860402 3421.50673,77.8833789 L3421.5,78 L3421.5,80 L3423.5,80 L3423.5,78 C3423.5,77.4477153 3423.05228,77 3422.5,77 Z M3424.5,69 C3425.05228,69 3425.5,69.4477153 3425.5,70 C3425.5,70.5128358 3425.11396,70.9355072 3424.61662,70.9932723 L3424.5,71 L3420.5,71 C3419.94772,71 3419.5,70.5522847 3419.5,70 C3419.5,69.4871642 3419.88604,69.0644928 3420.38338,69.0067277 L3420.5,69 L3424.5,69 Z M3430.71428,58.7168813 C3430.7053,61.1070865 3431.79299,62.2379068 3434.29939,62.2859221 C3435.24427,62.3040233 3435.22811,63.7178667 3434.28306,63.7143564 C3431.94807,63.7056834 3430.83763,64.8376424 3430.71339,67.3214713 C3430.6672,68.2449941 3429.29411,68.216892 3429.28574,67.2922524 C3429.26357,64.8428554 3428.22026,63.7143614 3425.71429,63.7143614 C3424.76841,63.7143614 3424.75871,62.2988249 3425.7045,62.2858582 C3428.14872,62.2523478 3429.27709,61.1621537 3429.28571,58.7118492 C3429.28936,57.7592634 3430.71763,57.764507 3430.71428,58.7168813 Z M3422.5,65 C3423.05228,65 3423.5,65.4477153 3423.5,66 C3423.5,66.5128358 3423.11396,66.9355072 3422.61662,66.9932723 L3422.5,67 L3420.5,67 C3419.94772,67 3419.5,66.5522847 3419.5,66 C3419.5,65.4871642 3419.88604,65.0644928 3420.38338,65.0067277 L3420.5,65 L3422.5,65 Z" transform="translate(-3411 -58)"/>
</svg>
