<svg xmlns="http://www.w3.org/2000/svg" width="24" height="24" viewBox="0 0 24 24">
  <path d="M10,15 C10,15.5522847 9.55228475,16 9,16 C8.44771525,16 8,15.5522847 8,15 L8,5 C8,4.44771525 8.44771525,4 9,4 C9.55228475,4 10,4.44771525 10,5 L10,15 Z M6,15 C6,15.5522847 5.55228475,16 5,16 C4.44771525,16 4,15.5522847 4,15 L4,5 C4,4.44771525 4.44771525,4 5,4 C5.55228475,4 6,4.44771525 6,5 L6,15 Z M19.5,22 L22,22 L22,8 L14,8 L14,22 L16.5,22 L16.5,20 C16.5,19.4477153 16.9477153,19 17.5,19 L18.5,19 C19.0522847,19 19.5,19.4477153 19.5,20 L19.5,22 Z M9,22 L12,22 L12,2 L2,2 L2,22 L5,22 L5,20 C5,19.4477153 5.44771525,19 6,19 L8,19 C8.55228475,19 9,19.4477153 9,20 L9,22 Z M14,6 L22,6 C23.1045695,6 24,6.8954305 24,8 L24,22 C24,23.1045695 23.1045695,24 22,24 L2,24 C0.8954305,24 0,23.1045695 0,22 L0,2 C0,0.8954305 0.8954305,0 2,0 L12,0 C13.1045695,-2.22044605e-16 14,0.8954305 14,2 L14,6 Z M16.75,16 C16.1977153,16 15.75,15.5522847 15.75,15 C15.75,14.4477153 16.1977153,14 16.75,14 L19.25,14 C19.8022847,14 20.25,14.4477153 20.25,15 C20.25,15.5522847 19.8022847,16 19.25,16 L16.75,16 Z M16.75,12 C16.1977153,12 15.75,11.5522847 15.75,11 C15.75,10.4477153 16.1977153,10 16.75,10 L19.25,10 C19.8022847,10 20.25,10.4477153 20.25,11 C20.25,11.5522847 19.8022847,12 19.25,12 L16.75,12 Z"/>
</svg>
