<svg xmlns="http://www.w3.org/2000/svg" width="24" height="24" viewBox="0 0 24 24">
  <path d="M2553.75,82 C2552.55914,82 2551.58436,81.0748384 2551.50519,79.9040488 L2551.5,79.75 L2551.5,74.3904362 C2551.5,73.5845193 2551.82408,72.8155091 2552.39417,72.2537301 L2552.54177,72.1177013 L2557.5473,67.804839 C2557.6872,67.6842961 2557.83962,67.5862304 2557.9999,67.510642 L2558,61 C2558,59.4023191 2559.24892,58.0963391 2560.82373,58.0050927 L2561,58 L2571.5,58 C2573.09768,58 2574.40366,59.24892 2574.49491,60.8237272 L2574.5,61 L2574.5,80 C2574.5,81.0543618 2573.68412,81.9181651 2572.64926,81.9945143 L2572.5,82 L2553.75,82 Z M2571.5,60 L2561,60 C2560.48716,60 2560.06449,60.3860402 2560.00673,60.8833789 L2560,61 L2560.00075,67.6821416 L2560.02228,67.6974688 L2560.15827,67.804839 L2565.1638,72.1177013 C2565.77435,72.6437589 2566.14539,73.3912415 2566.19886,74.1898244 L2566.20557,74.3904362 L2566.20557,79.75 C2566.20557,79.8349638 2566.20086,79.9188277 2566.19169,80.0013449 L2572.5,80 L2572.5,61 C2572.5,60.4871642 2572.11396,60.0644928 2571.61662,60.0067277 L2571.5,60 Z M2558.85279,69.3199956 L2553.84726,73.6328579 C2553.65828,73.7956853 2553.53814,74.0221535 2553.50767,74.2668054 L2553.5,74.3904362 L2553.5,79.75 C2553.5,79.8683467 2553.58223,79.9674868 2553.69268,79.9933973 L2553.75,80 L2557.5,80 L2557.5,77.5 C2557.5,76.6715729 2558.17157,76 2559,76 C2559.82843,76 2560.5,76.6715729 2560.5,77.5 L2560.5,80 L2563.95557,80 C2564.07392,80 2564.17306,79.9177666 2564.19897,79.8073227 L2564.20557,79.75 L2564.20557,74.3904362 C2564.20557,74.1409857 2564.11243,73.9021428 2563.94697,73.7193645 L2563.85831,73.6328579 L2558.85279,69.3199956 Z M2569.5,72.5 C2569.91421,72.5 2570.25,72.8357864 2570.25,73.25 L2570.25,74.25 C2570.25,74.6642136 2569.91421,75 2569.5,75 L2568.5,75 C2568.08579,75 2567.75,74.6642136 2567.75,74.25 L2567.75,73.25 C2567.75,72.8357864 2568.08579,72.5 2568.5,72.5 L2569.5,72.5 Z M2569.5,67.5 C2569.91421,67.5 2570.25,67.8357864 2570.25,68.25 L2570.25,69.25 C2570.25,69.6642136 2569.91421,70 2569.5,70 L2568.5,70 C2568.08579,70 2567.75,69.6642136 2567.75,69.25 L2567.75,68.25 C2567.75,67.8357864 2568.08579,67.5 2568.5,67.5 L2569.5,67.5 Z M2564.5,62.5 C2564.91421,62.5 2565.25,62.8357864 2565.25,63.25 L2565.25,64.25 C2565.25,64.6642136 2564.91421,65 2564.5,65 L2563.5,65 C2563.08579,65 2562.75,64.6642136 2562.75,64.25 L2562.75,63.25 C2562.75,62.8357864 2563.08579,62.5 2563.5,62.5 L2564.5,62.5 Z M2569.5,62.5 C2569.91421,62.5 2570.25,62.8357864 2570.25,63.25 L2570.25,64.25 C2570.25,64.6642136 2569.91421,65 2569.5,65 L2568.5,65 C2568.08579,65 2567.75,64.6642136 2567.75,64.25 L2567.75,63.25 C2567.75,62.8357864 2568.08579,62.5 2568.5,62.5 L2569.5,62.5 Z" transform="translate(-2551 -58)"/>
</svg>
