<?xml version="1.0" encoding="UTF-8"?>
<svg width="24px" height="24px" viewBox="0 0 24 24" version="1.1" xmlns="http://www.w3.org/2000/svg" xmlns:xlink="http://www.w3.org/1999/xlink">
    <!-- Generator: Sketch 54.1 (76490) - https://sketchapp.com -->
    <title>bell copy 7</title>
    <desc>Created with Sketch.</desc>
    <g id="Icons" stroke="none" stroke-width="1" fill="none" fill-rule="evenodd">
        <path d="M1.5,12 L9,12 L9,10.75 C9,10.6122136 8.88778644,10.5 8.75,10.5 L1.75,10.5 C1.61221356,10.5 1.5,10.6122136 1.5,10.75 L1.5,12 Z M10.5,12.7500004 L10.5,22.75 C10.5,23.4402136 9.94021356,24 9.25,24 L1.25,24 C0.559786438,24 0,23.4402136 0,22.75 L0,10.75 C0,9.78378644 0.783786438,9 1.75,9 L8.75,9 C9.71621356,9 10.5,9.78378644 10.5,10.75 L10.5,12.75 L10.5,12.7500004 Z M1.5,13.5 L1.5,22.5 L9,22.5 L9,13.5 L1.5,13.5 Z M4.12661912,1.53931247 C4.64593414,0.60694029 5.63940001,-0.00184187307 6.75070869,-3.98253489e-06 C8.40759682,0.000382864513 9.75,1.3430231 9.75,3 C9.75,4.65721481 8.40721178,6.00000135 6.75,5.99999593 L3.75000368,5.99999593 C2.50778786,6.00000203 1.5,4.99221418 1.5,3.74999593 C1.5,2.50778705 2.50778502,1.50000203 3.77090842,1.50028743 C3.89086895,1.50363298 4.00980343,1.51676688 4.12661912,1.53931247 Z M8.25,3 C8.25,2.17121357 7.57878591,1.49999865 6.74858512,1.4999946 C6.04396274,1.49866532 5.43396138,1.9888213 5.28252202,2.67797047 C5.16738793,3.20190663 4.55543159,3.43908213 4.11728294,3.12958138 C4.00263629,3.04859693 3.86781708,3.00357331 3.75000368,2.99999593 C3.33621498,2.99999797 3,3.33621295 3,3.74999593 C3,4.16378582 3.33621214,4.49999797 3.75,4.49999593 L6.75000245,4.49999593 C7.57878696,4.49999865 8.25,3.82878645 8.25,3 Z M13.75,-8.8817842e-16 L22.25,-8.8817842e-16 C23.2162136,-8.8817842e-16 24,0.783786438 24,1.75 L24,22.75 C24,23.4402136 23.4402136,24 22.75,24 L13.25,24 C12.5597864,24 12,23.4402136 12,22.75 L12,1.75 C12,0.783786438 12.7837864,-8.8817842e-16 13.75,-8.8817842e-16 Z M22.5,22.5 L22.5,1.75 C22.5,1.61221356 22.3877864,1.5 22.25,1.5 L13.75,1.5 C13.6122136,1.5 13.5,1.61221356 13.5,1.75 L13.5,22.5 L22.5,22.5 Z M15,3.75 C15,3.33578644 15.3357864,3 15.75,3 C16.1642136,3 16.5,3.33578644 16.5,3.75 L16.5,4.5 C16.5,4.91421356 16.1642136,5.25 15.75,5.25 C15.3357864,5.25 15,4.91421356 15,4.5 L15,3.75 Z M19.5,3.75 C19.5,3.33578644 19.8357864,3 20.25,3 C20.6642136,3 21,3.33578644 21,3.75 L21,4.5 C21,4.91421356 20.6642136,5.25 20.25,5.25 C19.8357864,5.25 19.5,4.91421356 19.5,4.5 L19.5,3.75 Z M15,7.5 C15,7.08578644 15.3357864,6.75 15.75,6.75 C16.1642136,6.75 16.5,7.08578644 16.5,7.5 L16.5,8.25 C16.5,8.66421356 16.1642136,9 15.75,9 C15.3357864,9 15,8.66421356 15,8.25 L15,7.5 Z M19.5,7.5 C19.5,7.08578644 19.8357864,6.75 20.25,6.75 C20.6642136,6.75 21,7.08578644 21,7.5 L21,8.25 C21,8.66421356 20.6642136,9 20.25,9 C19.8357864,9 19.5,8.66421356 19.5,8.25 L19.5,7.5 Z M15,11.25 C15,10.8357864 15.3357864,10.5 15.75,10.5 C16.1642136,10.5 16.5,10.8357864 16.5,11.25 L16.5,12 C16.5,12.4142136 16.1642136,12.75 15.75,12.75 C15.3357864,12.75 15,12.4142136 15,12 L15,11.25 Z M19.5,11.25 C19.5,10.8357864 19.8357864,10.5 20.25,10.5 C20.6642136,10.5 21,10.8357864 21,11.25 L21,12 C21,12.4142136 20.6642136,12.75 20.25,12.75 C19.8357864,12.75 19.5,12.4142136 19.5,12 L19.5,11.25 Z M15,15 C15,14.5857864 15.3357864,14.25 15.75,14.25 C16.1642136,14.25 16.5,14.5857864 16.5,15 L16.5,15.75 C16.5,16.1642136 16.1642136,16.5 15.75,16.5 C15.3357864,16.5 15,16.1642136 15,15.75 L15,15 Z M19.5,15 C19.5,14.5857864 19.8357864,14.25 20.25,14.25 C20.6642136,14.25 21,14.5857864 21,15 L21,15.75 C21,16.1642136 20.6642136,16.5 20.25,16.5 C19.8357864,16.5 19.5,16.1642136 19.5,15.75 L19.5,15 Z M15,18.75 C15,18.3357864 15.3357864,18 15.75,18 C16.1642136,18 16.5,18.3357864 16.5,18.75 L16.5,19.5 C16.5,19.9142136 16.1642136,20.25 15.75,20.25 C15.3357864,20.25 15,19.9142136 15,19.5 L15,18.75 Z M19.5,18.75 C19.5,18.3357864 19.8357864,18 20.25,18 C20.6642136,18 21,18.3357864 21,18.75 L21,19.5 C21,19.9142136 20.6642136,20.25 20.25,20.25 C19.8357864,20.25 19.5,19.9142136 19.5,19.5 L19.5,18.75 Z M3,15.75 C3,15.3357864 3.33578644,15 3.75,15 C4.16421356,15 4.5,15.3357864 4.5,15.75 L4.5,16.5 C4.5,16.9142136 4.16421356,17.25 3.75,17.25 C3.33578644,17.25 3,16.9142136 3,16.5 L3,15.75 Z M6,15.75 C6,15.3357864 6.33578644,15 6.75,15 C7.16421356,15 7.5,15.3357864 7.5,15.75 L7.5,16.5 C7.5,16.9142136 7.16421356,17.25 6.75,17.25 C6.33578644,17.25 6,16.9142136 6,16.5 L6,15.75 Z M3,19.5 C3,19.0857864 3.33578644,18.75 3.75,18.75 C4.16421356,18.75 4.5,19.0857864 4.5,19.5 L4.5,20.25 C4.5,20.6642136 4.16421356,21 3.75,21 C3.33578644,21 3,20.6642136 3,20.25 L3,19.5 Z M6,19.5 C6,19.0857864 6.33578644,18.75 6.75,18.75 C7.16421356,18.75 7.5,19.0857864 7.5,19.5 L7.5,20.25 C7.5,20.6642136 7.16421356,21 6.75,21 C6.33578644,21 6,20.6642136 6,20.25 L6,19.5 Z" id="Shape" fill="#000000" fill-rule="nonzero"></path>
    </g>
</svg>