<svg xmlns="http://www.w3.org/2000/svg" width="24" height="25" viewBox="0 0 24 25">
  <path d="M9,22.5 L9,20.5 C8.99999975,18.843146 10.3431458,17.5 12,17.5 C13.656854,17.4999997 15,18.8431458 15,20.5 L15,22.5 L18,22.5 C18.2761424,22.5 18.5,22.2761424 18.5,22 L18.5,3.5 C18.5,3.22385763 18.2761424,3 18,3 L6,3 C5.72385763,3 5.5,3.22385763 5.5,3.5 L5.5,22 C5.5,22.2761424 5.72385763,22.5 6,22.5 L9,22.5 Z M11,22.5 L13,22.5 L13,20.5 C13,19.9477154 12.5522846,19.4999999 12,19.5 C11.4477154,19.5 10.9999999,19.9477154 11,20.5 L11,22.5 Z M10,8.5 C9.44771525,8.5 9,8.05228475 9,7.5 C9,6.94771525 9.44771525,6.5 10,6.5 L14,6.5 C14.5522847,6.5 15,6.94771525 15,7.5 C15,8.05228475 14.5522847,8.5 14,8.5 L10,8.5 Z M10,12.5 C9.44771525,12.5 9,12.0522847 9,11.5 C9,10.9477153 9.44771525,10.5 10,10.5 L14,10.5 C14.5522847,10.5 15,10.9477153 15,11.5 C15,12.0522847 14.5522847,12.5 14,12.5 L10,12.5 Z M6,1 L18,1 C19.3807119,1 20.5,2.11928813 20.5,3.5 L20.5,22 C20.5,23.3807119 19.3807119,24.5 18,24.5 L6,24.5 C4.61928813,24.5 3.5,23.3807119 3.5,22 L3.5,3.5 C3.5,2.11928813 4.61928813,1 6,1 Z"/>
</svg>
