<svg xmlns="http://www.w3.org/2000/svg" width="24" height="24" viewBox="0 0 24 24">
  <path fill-rule="evenodd" d="M20,22 L22,22 L22,8 L14,8 L14,22 L16,22 L16,19.5 C16,18.9477153 16.4477153,18.5 17,18.5 L19,18.5 C19.5522847,18.5 20,18.9477153 20,19.5 L20,22 Z M9.5,22 L12,22 L12,2 L2,2 L2,22 L4.5,22 L4.5,19.5 C4.5,18.9477153 4.94771525,18.5 5.5,18.5 L8.5,18.5 C9.05228475,18.5 9.5,18.9477153 9.5,19.5 L9.5,22 Z M14,6 L22,6 C23.1045695,6 24,6.8954305 24,8 L24,22 C24,23.1045695 23.1045695,24 22,24 L2,24 C0.8954305,24 0,23.1045695 0,22 L0,2 C0,0.8954305 0.8954305,0 2,0 L12,0 C13.1045695,-2.22044605e-16 14,0.8954305 14,2 L14,6 Z M10,14.5 C10,15.0522847 9.55228475,15.5 9,15.5 C8.44771525,15.5 8,15.0522847 8,14.5 L8,5.5 C8,4.94771525 8.44771525,4.5 9,4.5 C9.55228475,4.5 10,4.94771525 10,5.5 L10,14.5 Z M16.75,16 C16.1977153,16 15.75,15.5522847 15.75,15 C15.75,14.4477153 16.1977153,14 16.75,14 L19.25,14 C19.8022847,14 20.25,14.4477153 20.25,15 C20.25,15.5522847 19.8022847,16 19.25,16 L16.75,16 Z M16.75,12 C16.1977153,12 15.75,11.5522847 15.75,11 C15.75,10.4477153 16.1977153,10 16.75,10 L19.25,10 C19.8022847,10 20.25,10.4477153 20.25,11 C20.25,11.5522847 19.8022847,12 19.25,12 L16.75,12 Z M6,14.5 C6,15.0522847 5.55228475,15.5 5,15.5 C4.44771525,15.5 4,15.0522847 4,14.5 L4,5.5 C4,4.94771525 4.44771525,4.5 5,4.5 C5.55228475,4.5 6,4.94771525 6,5.5 L6,14.5 Z"/>
</svg>
