<?xml version="1.0" encoding="UTF-8"?>
<svg width="24px" height="24px" viewBox="0 0 24 24" version="1.1" xmlns="http://www.w3.org/2000/svg" xmlns:xlink="http://www.w3.org/1999/xlink">
    <title>business-big-g</title>
    <g id="Icons" stroke="none" stroke-width="1" fill="none" fill-rule="evenodd">
        <g id="Glyphs" transform="translate(-1736.000000, -58.000000)" fill="#000000" fill-rule="nonzero">
            <path d="M1749.71438,59.000287 L1750.39219,59.0066664 L1750.91828,59.0258657 L1750.91828,59.0258657 L1751.20263,59.0486692 C1751.55236,59.0853698 1751.79394,59.1487914 1752.04209,59.2573771 L1752.23121,59.3475728 C1752.83308,59.6485079 1753.31713,60.1366565 1753.63783,60.745993 C1753.8249,61.1031166 1753.91675,61.4048556 1753.96094,61.9287372 L1753.9806,62.2381896 L1753.99252,62.6017119 L1753.99842,63.0293125 L1754,63.531 L1754,67.833 L1756.64846,67.8346505 L1756.9631,67.8422321 C1757.38053,67.8598964 1757.57602,67.9100208 1757.86668,68.0485728 C1758.26733,68.2489005 1758.60197,68.5778631 1758.79533,68.9860664 C1758.90419,69.2146821 1758.95628,69.3848664 1758.98092,69.6685683 L1758.99473,69.9053161 L1759.00215,70.3755179 L1759.002,79 L1759.11662,79.0067277 C1759.61396,79.0644928 1760,79.4871642 1760,80 C1760,80.5128358 1759.61396,80.9355072 1759.11662,80.9932723 L1759,81 L1737,81 C1736.44772,81 1736,80.5522847 1736,80 C1736,79.4871642 1736.38604,79.0644928 1736.88338,79.0067277 L1737,79 L1737.00171,70.230568 L1737.00999,69.9464244 C1737.02522,69.6605017 1737.06294,69.5135921 1737.15488,69.2903374 L1737.21726,69.1549137 C1737.41557,68.7362702 1737.75913,68.4041601 1738.17507,68.2071395 C1738.40399,68.0981278 1738.57372,68.0460635 1738.85927,68.0214595 L1739.09787,68.0076946 L1739.39632,68.0014629 L1742.001,68 L1742.00134,62.9998041 L1742.00665,62.5658965 L1742.02582,62.0394237 L1742.02582,62.0394237 L1742.04861,61.7556883 C1742.08529,61.4072661 1742.1487,61.1688539 1742.25733,60.9257685 L1742.34757,60.7407864 C1742.65211,60.131715 1743.1484,59.6437675 1743.76279,59.3365728 L1743.85284,59.2928971 L1744.02847,59.217092 C1744.29093,59.1143895 1744.55937,59.059585 1744.97495,59.030748 L1745.27534,59.0151298 L1745.62862,59.0057617 L1746.531,59 L1749.71438,59.000287 Z M1754,69.833 L1754,79 L1757.002,79 L1756.99915,70.104298 L1756.98838,69.8466951 L1756.97423,69.8439513 L1756.63201,69.8348629 L1754,69.833 Z M1742.001,70 L1739.39872,70.0018657 L1739.03309,70.0137378 L1739.02447,70.0188656 L1739.0042,70.0519273 L1739.00091,70.2895634 L1739,79 L1742,79 L1742.001,70 Z M1749.463,61 L1745.91612,61.0025635 L1745.45059,61.0115243 L1745.21622,61.0218566 L1745.03227,61.0362383 L1744.8597,61.0606447 L1744.8597,61.0606447 L1744.73467,61.0930741 C1744.70613,61.1028754 1744.6808,61.113633 1744.65721,61.1254272 C1744.4247,61.2416846 1744.24471,61.4186486 1744.12783,61.652007 L1744.09676,61.722408 L1744.07083,61.8094887 L1744.04965,61.9205339 L1744.03282,62.0628281 L1744.01994,62.2436561 L1744.01062,62.4703027 L1744.00243,62.9121173 L1744,63.498 L1744,79 L1752,79 L1751.9987,63.1056033 L1751.9912,62.6014709 L1751.97575,62.2337761 L1751.96031,62.0509353 L1751.94025,61.9084689 L1751.90803,61.7748136 L1751.90803,61.7748136 L1751.86708,61.6757464 C1751.73767,61.4298606 1751.55478,61.2454254 1751.32852,61.1322482 L1751.2541,61.0998135 L1751.16389,61.0728375 L1751.05042,61.0508814 L1750.90623,61.0335067 L1750.72384,61.0202746 L1750.49579,61.0107465 L1750.05177,61.0024399 L1749.463,61 Z M1749.15,71 C1749.70228,71 1750.15,71.4477153 1750.15,72 C1750.15,72.5128358 1749.76396,72.9355072 1749.26662,72.9932723 L1749.15,73 L1746.9,73 C1746.34772,73 1745.9,72.5522847 1745.9,72 C1745.9,71.4871642 1746.28604,71.0644928 1746.78338,71.0067277 L1746.9,71 L1749.15,71 Z M1749.15,67 C1749.70228,67 1750.15,67.4477153 1750.15,68 C1750.15,68.5128358 1749.76396,68.9355072 1749.26662,68.9932723 L1749.15,69 L1746.9,69 C1746.34772,69 1745.9,68.5522847 1745.9,68 C1745.9,67.4871642 1746.28604,67.0644928 1746.78338,67.0067277 L1746.9,67 L1749.15,67 Z M1749.15,63 C1749.70228,63 1750.15,63.4477153 1750.15,64 C1750.15,64.5128358 1749.76396,64.9355072 1749.26662,64.9932723 L1749.15,65 L1746.9,65 C1746.34772,65 1745.9,64.5522847 1745.9,64 C1745.9,63.4871642 1746.28604,63.0644928 1746.78338,63.0067277 L1746.9,63 L1749.15,63 Z" id="Shape"></path>
        </g>
    </g>
</svg>