<svg xmlns="http://www.w3.org/2000/svg" width="24" height="25" viewBox="0 0 24 25">
  <path d="M15.5,22 L18.5,22 L18.5,4 L5.5,4 L5.5,22 L8.5,22 L8.5,20.5 C8.5,18.5670034 10.0670034,17 12,17 C13.9329966,17 15.5,18.5670034 15.5,20.5 L15.5,22 Z M20.5,22 L21.5,22 C22.0522847,22 22.5,22.4477153 22.5,23 C22.5,23.5522847 22.0522847,24 21.5,24 L2.5,24 C1.94771525,24 1.5,23.5522847 1.5,23 C1.5,22.4477153 1.94771525,22 2.5,22 L3.5,22 L3.5,4 C3.5,2.8954305 4.3954305,2 5.5,2 L18.5,2 C19.6045695,2 20.5,2.8954305 20.5,4 L20.5,22 Z M13.5,22 L13.5,20.5 C13.5,19.6715729 12.8284271,19 12,19 C11.1715729,19 10.5,19.6715729 10.5,20.5 L10.5,22 L13.5,22 Z M10,9.5 C9.44771525,9.5 9,9.05228475 9,8.5 C9,7.94771525 9.44771525,7.5 10,7.5 L14,7.5 C14.5522847,7.5 15,7.94771525 15,8.5 C15,9.05228475 14.5522847,9.5 14,9.5 L10,9.5 Z M10,13.5 C9.44771525,13.5 9,13.0522847 9,12.5 C9,11.9477153 9.44771525,11.5 10,11.5 L14,11.5 C14.5522847,11.5 15,11.9477153 15,12.5 C15,13.0522847 14.5522847,13.5 14,13.5 L10,13.5 Z"/>
</svg>
