<?xml version="1.0" encoding="UTF-8"?>
<svg width="24px" height="24px" viewBox="0 0 24 24" version="1.1" xmlns="http://www.w3.org/2000/svg" xmlns:xlink="http://www.w3.org/1999/xlink">
    <title>business-bold-g</title>
    <g id="Icons" stroke="none" stroke-width="1" fill="none" fill-rule="evenodd">
        <g id="Glyphs" transform="translate(-2089, -28)" fill="#000000" fill-rule="nonzero">
            <path d="M2106,28 C2107.65685,28 2109,29.3431458 2109,31 L2109,49.999 L2110.5,49.9999851 C2111.05228,49.9999851 2111.5,50.4477153 2111.5,51 C2111.5,51.5128358 2111.04673,52 2110.5,52 L2091.5,52 C2090.94772,52 2090.5,51.5522847 2090.5,51 C2090.5,50.4871642 2090.95,49.9999851 2091.5,49.9999851 L2093,49.999 L2093,31 C2093,29.3431458 2094.34315,28 2096,28 L2106,28 Z M2101.08619,45 C2099.88811,45 2098.90067,45.9018615 2098.76572,47.063737 L2098.75,47.3361856 L2098.75,50 L2103.42237,50 L2103.42237,47.3361856 C2103.42237,46.0459459 2102.37643,45 2101.08619,45 Z M2103,37 L2099,37 C2098.44772,37 2098,37.4477153 2098,38 C2098,38.5522847 2098.44772,39 2099,39 L2103,39 C2103.55228,39 2104,38.5522847 2104,38 C2104,37.4477153 2103.55228,37 2103,37 Z M2103,32 L2099,32 C2098.44772,32 2098,32.4477153 2098,33 C2098,33.5522847 2098.44772,34 2099,34 L2103,34 C2103.55228,34 2104,33.5522847 2104,33 C2104,32.4477153 2103.55228,32 2103,32 Z" id="Shape"></path>
        </g>
    </g>
</svg>