<?xml version="1.0" encoding="UTF-8"?>
<svg width="24px" height="24px" viewBox="0 0 24 24" version="1.1" xmlns="http://www.w3.org/2000/svg" xmlns:xlink="http://www.w3.org/1999/xlink">
    <!-- Generator: Sketch 51.2 (57519) - http://www.bohemiancoding.com/sketch -->
    <title>Slice</title>
    <desc>Created with Sketch.</desc>
    <defs></defs>
    <g id="Prototype" stroke="none" stroke-width="1" fill="none" fill-rule="evenodd">
        <path d="M18.375,9 L18.375,8 L17,8 C16.4477153,8 16,7.55228475 16,7 C16,6.44771525 16.4477153,6 17,6 L18.375,6 L18.375,2.125 C18.375,2.0961844 18.3652496,2.06964612 18.3488682,2.04850443 L9.55274167,5.90390102 C9.40003024,5.9757945 9.33382196,6.00711041 9.27063076,6.03799747 C9.0328931,6.1542006 9.00299843,6.16157114 9,6.1415633 L9,9.875 C9,10.4272847 8.55228475,10.875 8,10.875 C7.44771525,10.875 7,10.4272847 7,9.875 L7,6.125 C7,5.18325272 7.48567703,4.68433072 8.39235791,4.24115668 C8.468997,4.20369647 8.54879134,4.16595448 8.72352311,4.08413085 L17.8485231,0.084130846 C17.9750975,0.0286461905 18.1117986,0 18.25,0 C19.4236051,0 20.375,0.951394907 20.375,2.125 L20.375,22.875 C20.375,23.4272847 19.9272847,23.875 19.375,23.875 C18.8227153,23.875 18.375,23.4272847 18.375,22.875 L18.375,11 L15,11 C14.4477153,11 14,10.5522847 14,10 C14,9.44771525 14.4477153,9 15,9 L18.375,9 Z M11.125,16 L11.125,14 L4,14 L4,22.5778236 C4,23.1301084 3.55228475,23.5778236 3,23.5778236 C2.44771525,23.5778236 2,23.1301084 2,22.5778236 L2,13.75 C2,12.7835017 2.78350169,12 3.75,12 L11.375,12 C12.3414983,12 13.125,12.7835017 13.125,13.75 L13.125,22.5778236 C13.125,23.1301084 12.6772847,23.5778236 12.125,23.5778236 C11.5727153,23.5778236 11.125,23.1301084 11.125,22.5778236 L11.125,21 L9,21 C8.44771525,21 8,20.5522847 8,20 C8,19.4477153 8.44771525,19 9,19 L11.125,19 L11.125,18 L10,18 C9.44771525,18 9,17.5522847 9,17 C9,16.4477153 9.44771525,16 10,16 L11.125,16 Z" id="Combined-Shape" fill="#000000" fill-rule="nonzero"></path>
    </g>
</svg>