<svg xmlns="http://www.w3.org/2000/svg" width="24" height="24" viewBox="0 0 24 24">
  <path d="M14,22 L14,7.48062485 C14,7.17684113 13.8619103,6.88952822 13.624695,6.69975604 L9.12469505,3.09975604 C8.7594764,2.80758112 8.2405236,2.80758112 7.87530495,3.09975604 L3.37530495,6.69975604 C3.13808972,6.88952822 3,7.17684113 3,7.48062485 L3,21.75 C3,21.8880712 3.11192881,22 3.25,22 L5.5,22 L5.5,20.5 C5.49999975,18.843146 6.84314585,17.5 8.5,17.5 C10.156854,17.4999997 11.5,18.8431458 11.5,20.5 L11.5,22 L14,22 Z M9.5,22 L9.5,20.5 C9.5,19.9477154 9.05228457,19.4999999 8.5,19.5 C7.94771537,19.5 7.49999992,19.9477154 7.5,20.5 L7.5,22 L9.5,22 Z M16,22 L19,22 L19,18.3256312 C17.9852452,17.9579778 17.2500009,17.0458124 17.25,15.9444503 L17.2554335,15.8403465 C17.4681566,13.8080585 18.1038057,11.8304816 19.1285169,10.0095754 C19.5108661,9.33014304 20.4891328,9.33014247 20.8714827,10.0095744 C21.8961919,11.830472 22.5318419,13.8080492 22.7445665,15.8403394 L22.75,15.944443 C22.75,17.0458095 22.0147561,17.9579775 21,18.3256314 L21,22 L22,22 C22.5522847,22 23,22.4477153 23,23 C23,23.5522847 22.5522847,24 22,24 L3.25,24 C2.00735931,24 1,22.9926407 1,21.75 L1,7.48062485 C1,6.56927368 1.41426916,5.70733498 2.12591486,5.13801842 L6.62591486,1.53801842 C7.72157081,0.661493657 9.27842919,0.661493657 10.3740851,1.53801842 L14.8740851,5.13801842 C15.5857308,5.70733498 16,6.56927368 16,7.48062485 L16,22 Z M7,13.5 C6.44771525,13.5 6,13.0522847 6,12.5 C6,11.9477153 6.44771525,11.5 7,11.5 L10,11.5 C10.5522847,11.5 11,11.9477153 11,12.5 C11,13.0522847 10.5522847,13.5 10,13.5 L7,13.5 Z M7,9.5 C6.44771525,9.5 6,9.05228475 6,8.5 C6,7.94771525 6.44771525,7.5 7,7.5 L10,7.5 C10.5522847,7.5 11,7.94771525 11,8.5 C11,9.05228475 10.5522847,9.5 10,9.5 L7,9.5 Z M20.0000006,12.8589855 C19.620243,13.8704422 19.3688675,14.9175836 19.2517938,15.9812398 C19.2776511,16.2471402 19.5805817,16.5 20.0000003,16.5 C20.4194197,16.5 20.7223495,16.2471399 20.7482063,15.9812343 C20.6311321,14.9175787 20.3797567,13.8704387 20.0000006,12.8589855 Z"/>
</svg>
