<?xml version="1.0" encoding="UTF-8"?>
<svg width="24px" height="24px" viewBox="0 0 24 24" version="1.1" xmlns="http://www.w3.org/2000/svg" xmlns:xlink="http://www.w3.org/1999/xlink">
    <title>business-new-g</title>
    <g id="Icons" stroke="none" stroke-width="1" fill="none" fill-rule="evenodd">
        <g id="Glyphs" transform="translate(-3411, -58)" fill="#000000" fill-rule="nonzero">
            <path d="M3422,58.9974301 C3422.83089,59.0018121 3423.24634,59.3351849 3423.24634,59.9975486 C3423.24634,60.6599123 3422.83089,60.9932456 3422,60.9975486 L3419.15158,60.9998852 L3418.86166,61.0044023 L3418.53105,61.0164892 L3418.24442,61.0443501 L3418.14984,61.0640989 L3418.06195,61.0949343 L3418.04721,61.1019758 C3417.85319,61.1989854 3417.70395,61.3457262 3417.60583,61.5415556 L3417.59194,61.5707224 L3417.56763,61.6409587 L3417.54766,61.7333738 L3417.53169,61.8555378 L3417.51449,62.1111229 L3417.50439,62.4762254 L3417.5,63.1775486 L3417.499,80 L3420,80 L3420,78.0031296 C3420,76.3462753 3421.34315,75.0031296 3423,75.0031296 C3424.59768,75.0031296 3425.90366,76.2520495 3425.99491,77.8268568 L3426,78.0031296 L3426,80 L3428.497,80 L3428.496,70.99926 C3428.496,70.1649935 3428.82933,69.7478602 3429.496,69.7478602 C3430.16267,69.7478602 3430.496,70.1649935 3430.496,70.99926 L3430.497,80 L3432,80 C3432.55228,80 3433,80.4477153 3433,81 C3433,81.5128358 3432.61396,81.9355072 3432.11662,81.9932723 L3432,82 L3414,82 C3413.44772,82 3413,81.5522847 3413,81 C3413,80.4871642 3413.38604,80.0644928 3413.88338,80.0067277 L3414,80 L3415.499,80 L3415.5014,62.6964195 L3415.50699,62.2805704 L3415.51872,61.9332286 L3415.5385,61.6426532 C3415.57924,61.1991433 3415.66156,60.9432388 3415.82557,60.630335 C3416.11134,60.0587925 3416.57689,59.6010683 3417.15279,59.3131214 L3417.32861,59.2310103 C3417.58744,59.119855 3417.83554,59.0609596 3418.22567,59.0301444 L3418.50847,59.0134956 L3419.0336,59.0006398 L3419.71,58.9974301 L3422,58.9974301 Z M3423,77.0031296 C3422.48716,77.0031296 3422.06449,77.3891697 3422.00673,77.8865084 L3422,78.0031296 L3422,80 L3424,80 L3424,78.0031296 C3424,77.4508448 3423.55228,77.0031296 3423,77.0031296 Z M3425,68 C3425.55228,68 3426,68.4477153 3426,69 C3426,69.5522847 3425.55228,70 3425,70 L3421,70 C3420.44772,70 3420,69.5522847 3420,69 C3420,68.4477153 3420.44772,68 3421,68 L3425,68 Z M3430.21428,58.7168813 C3430.2053,61.1070865 3431.29299,62.2379068 3433.79939,62.2859221 C3434.74427,62.3040233 3434.72811,63.7178667 3433.78306,63.7143564 C3431.44807,63.7056834 3430.33763,64.8376424 3430.21339,67.3214713 C3430.1672,68.2449941 3428.79411,68.216892 3428.78574,67.2922524 C3428.76357,64.8428554 3427.72026,63.7143614 3425.21429,63.7143614 C3424.26841,63.7143614 3424.25871,62.2988249 3425.2045,62.2858582 C3427.64872,62.2523478 3428.77709,61.1621537 3428.78571,58.7118492 C3428.78936,57.7592634 3430.21763,57.764507 3430.21428,58.7168813 Z M3422.5,64 C3423.05228,64 3423.5,64.4477153 3423.5,65 C3423.5,65.5522847 3423.05228,66 3422.5,66 L3421,66 C3420.44772,66 3420,65.5522847 3420,65 C3420,64.4477153 3420.44772,64 3421,64 L3422.5,64 Z" id="Shape"></path>
        </g>
    </g>
</svg>