<?xml version="1.0" encoding="UTF-8"?>
<svg width="24px" height="24px" viewBox="0 0 24 24" version="1.1" xmlns="http://www.w3.org/2000/svg" xmlns:xlink="http://www.w3.org/1999/xlink">
    <!-- Generator: Sketch 54.1 (76490) - https://sketchapp.com -->
    <title>bell copy 7</title>
    <desc>Created with Sketch.</desc>
    <g id="Icons" stroke="none" stroke-width="1" fill="none" fill-rule="evenodd">
        <path d="M1,22.5 L1,10.75 C1,9.78378644 1.78378644,9 2.75,9 L9.75,9 C10.7162136,9 11.5,9.78378644 11.5,10.75 L11.5,22.5 L12.5,22.5 L12.5,1.75 C12.5,0.783786438 13.2837864,0 14.25,0 L21.25,0 C22.2162136,0 23,0.783786438 23,1.75 L23,22.5 L23.25,22.5 C23.6642136,22.5 24,22.8357864 24,23.25 C24,23.6642136 23.6642136,24 23.25,24 L0.75,24 C0.335786438,24 0,23.6642136 0,23.25 C0,22.8357864 0.335786438,22.5 0.75,22.5 L1,22.5 Z M2.5,22.5 L10,22.5 L10,13.5 L2.5,13.5 L2.5,22.5 Z M14,22.5 L21.5,22.5 L21.5,1.75 C21.5,1.61221356 21.3877864,1.5 21.25,1.5 L14.25,1.5 C14.1122136,1.5 14,1.61221356 14,1.75 L14,22.5 Z M2.5,12 L10,12 L10,10.75 C10,10.6122136 9.88778644,10.5 9.75,10.5 L2.75,10.5 C2.61221356,10.5 2.5,10.6122136 2.5,10.75 L2.5,12 Z M15.5,3.75 C15.5,3.33578644 15.8357864,3 16.25,3 C16.6642136,3 17,3.33578644 17,3.75 L17,4.5 C17,4.91421356 16.6642136,5.25 16.25,5.25 C15.8357864,5.25 15.5,4.91421356 15.5,4.5 L15.5,3.75 Z M18.5,3.75 C18.5,3.33578644 18.8357864,3 19.25,3 C19.6642136,3 20,3.33578644 20,3.75 L20,4.5 C20,4.91421356 19.6642136,5.25 19.25,5.25 C18.8357864,5.25 18.5,4.91421356 18.5,4.5 L18.5,3.75 Z M15.5,7.5 C15.5,7.08578644 15.8357864,6.75 16.25,6.75 C16.6642136,6.75 17,7.08578644 17,7.5 L17,8.25 C17,8.66421356 16.6642136,9 16.25,9 C15.8357864,9 15.5,8.66421356 15.5,8.25 L15.5,7.5 Z M18.5,7.5 C18.5,7.08578644 18.8357864,6.75 19.25,6.75 C19.6642136,6.75 20,7.08578644 20,7.5 L20,8.25 C20,8.66421356 19.6642136,9 19.25,9 C18.8357864,9 18.5,8.66421356 18.5,8.25 L18.5,7.5 Z M15.5,11.25 C15.5,10.8357864 15.8357864,10.5 16.25,10.5 C16.6642136,10.5 17,10.8357864 17,11.25 L17,12 C17,12.4142136 16.6642136,12.75 16.25,12.75 C15.8357864,12.75 15.5,12.4142136 15.5,12 L15.5,11.25 Z M18.5,11.25 C18.5,10.8357864 18.8357864,10.5 19.25,10.5 C19.6642136,10.5 20,10.8357864 20,11.25 L20,12 C20,12.4142136 19.6642136,12.75 19.25,12.75 C18.8357864,12.75 18.5,12.4142136 18.5,12 L18.5,11.25 Z M15.5,15 C15.5,14.5857864 15.8357864,14.25 16.25,14.25 C16.6642136,14.25 17,14.5857864 17,15 L17,15.75 C17,16.1642136 16.6642136,16.5 16.25,16.5 C15.8357864,16.5 15.5,16.1642136 15.5,15.75 L15.5,15 Z M18.5,15 C18.5,14.5857864 18.8357864,14.25 19.25,14.25 C19.6642136,14.25 20,14.5857864 20,15 L20,15.75 C20,16.1642136 19.6642136,16.5 19.25,16.5 C18.8357864,16.5 18.5,16.1642136 18.5,15.75 L18.5,15 Z M15.5,18.75 C15.5,18.3357864 15.8357864,18 16.25,18 C16.6642136,18 17,18.3357864 17,18.75 L17,19.5 C17,19.9142136 16.6642136,20.25 16.25,20.25 C15.8357864,20.25 15.5,19.9142136 15.5,19.5 L15.5,18.75 Z M18.5,18.75 C18.5,18.3357864 18.8357864,18 19.25,18 C19.6642136,18 20,18.3357864 20,18.75 L20,19.5 C20,19.9142136 19.6642136,20.25 19.25,20.25 C18.8357864,20.25 18.5,19.9142136 18.5,19.5 L18.5,18.75 Z M4,15.75 C4,15.3357864 4.33578644,15 4.75,15 C5.16421356,15 5.5,15.3357864 5.5,15.75 L5.5,16.5 C5.5,16.9142136 5.16421356,17.25 4.75,17.25 C4.33578644,17.25 4,16.9142136 4,16.5 L4,15.75 Z M7,15.75 C7,15.3357864 7.33578644,15 7.75,15 C8.16421356,15 8.5,15.3357864 8.5,15.75 L8.5,16.5 C8.5,16.9142136 8.16421356,17.25 7.75,17.25 C7.33578644,17.25 7,16.9142136 7,16.5 L7,15.75 Z M4,19.5 C4,19.0857864 4.33578644,18.75 4.75,18.75 C5.16421356,18.75 5.5,19.0857864 5.5,19.5 L5.5,20.25 C5.5,20.6642136 5.16421356,21 4.75,21 C4.33578644,21 4,20.6642136 4,20.25 L4,19.5 Z M7,19.5 C7,19.0857864 7.33578644,18.75 7.75,18.75 C8.16421356,18.75 8.5,19.0857864 8.5,19.5 L8.5,20.25 C8.5,20.6642136 8.16421356,21 7.75,21 C7.33578644,21 7,20.6642136 7,20.25 L7,19.5 Z" id="Shape" fill="#000000" fill-rule="nonzero"></path>
    </g>
</svg>