<?xml version="1.0" encoding="UTF-8"?>
<svg width="24px" height="24px" viewBox="0 0 24 24" version="1.1" xmlns="http://www.w3.org/2000/svg" xmlns:xlink="http://www.w3.org/1999/xlink">
    <!-- Generator: Sketch 54.1 (76490) - https://sketchapp.com -->
    <title>bell copy 6</title>
    <desc>Created with Sketch.</desc>
    <g id="Icons" stroke="none" stroke-width="1" fill="none" fill-rule="evenodd">
        <path d="M17.6249997,15.7508938 C17.6245169,16.3713988 17.1213988,16.8745169 16.5008938,16.8749997 C15.8790835,16.875 15.3754818,16.3716953 15.3750003,15.7508911 C15.375,15.1290835 15.8783047,14.6254818 16.4991089,14.6250003 C17.1212136,14.625 17.625,15.1287864 17.625,15.75 L17.6249997,15.7508938 Z M17.6249997,11.2508938 C17.6245169,11.8713988 17.1213988,12.3745169 16.5008938,12.3749997 C15.8790835,12.375 15.3754818,11.8716953 15.3750003,11.2508911 C15.375,10.6290835 15.8783047,10.1254818 16.4991089,10.1250003 C17.1212136,10.125 17.625,10.6287864 17.625,11.25 L17.6249997,11.2508938 Z M17.6249997,6.75089377 C17.6245169,7.37139881 17.1213988,7.87451695 16.5008938,7.87499965 C15.8790835,7.875 15.3754818,7.37169527 15.3750003,6.75089111 C15.375,6.1290835 15.8783047,5.62548185 16.4991089,5.62500035 C17.1212136,5.625 17.625,6.12878644 17.625,6.75 L17.6249997,6.75089377 Z M13.1249997,15.7508938 C13.1245169,16.3713988 12.6213988,16.8745169 12.0008938,16.8749997 C11.3790835,16.875 10.8754818,16.3716953 10.8750003,15.7508911 C10.875,15.1290835 11.3783047,14.6254818 11.9991089,14.6250003 C12.6212136,14.625 13.125,15.1287864 13.125,15.75 L13.1249997,15.7508938 Z M13.1249997,11.2508938 C13.1245169,11.8713988 12.6213988,12.3745169 12.0008938,12.3749997 C11.3790835,12.375 10.8754818,11.8716953 10.8750003,11.2508911 C10.875,10.6290835 11.3783047,10.1254818 11.9991089,10.1250003 C12.6212136,10.125 13.125,10.6287864 13.125,11.25 L13.1249997,11.2508938 Z M13.1249997,6.75089377 C13.1245169,7.37139881 12.6213988,7.87451695 12.0008938,7.87499965 C11.3790835,7.875 10.8754818,7.37169527 10.8750003,6.75089111 C10.875,6.1290835 11.3783047,5.62548185 11.9991089,5.62500035 C12.6212136,5.625 13.125,6.12878644 13.125,6.75 L13.1249997,6.75089377 Z M8.62499965,15.7508938 C8.62451695,16.3713988 8.12139881,16.8745169 7.50089377,16.8749997 C6.8790835,16.875 6.37548185,16.3716953 6.37500035,15.7508911 C6.375,15.1290835 6.87830473,14.6254818 7.49910889,14.6250003 C8.12121356,14.625 8.625,15.1287864 8.625,15.75 L8.62499965,15.7508938 Z M8.62499965,11.2508938 C8.62451695,11.8713988 8.12139881,12.3745169 7.50089377,12.3749997 C6.8790835,12.375 6.37548185,11.8716953 6.37500035,11.2508911 C6.375,10.6290835 6.87830473,10.1254818 7.49910889,10.1250003 C8.12121356,10.125 8.625,10.6287864 8.625,11.25 L8.62499965,11.2508938 Z M8.62499965,6.75089377 C8.62451695,7.37139881 8.12139881,7.87451695 7.50089377,7.87499965 C6.8790835,7.875 6.37548185,7.37169527 6.37500035,6.75089111 C6.375,6.1290835 6.87830473,5.62548185 7.49910889,5.62500035 C8.12121356,5.625 8.625,6.12878644 8.625,6.75 L8.62499965,6.75089377 Z M9,22.5 L9,21 C9,19.3427864 10.3427864,18 12,18 C13.6572136,18 15,19.3427864 15,21 L15,22.5 L19.5,22.5 L19.5,4.5 L4.5,4.5 L4.5,22.5 L9,22.5 Z M21,22.5 L23.25,22.5 C23.6642136,22.5 24,22.8357864 24,23.25 C24,23.6642136 23.6642136,24 23.25,24 L0.75,24 C0.335786438,24 0,23.6642136 0,23.25 C0,22.8357864 0.335786438,22.5 0.75,22.5 L3,22.5 L3,3.78740693 C2.99502575,3.69050065 3.00909905,3.59070087 3.04523281,3.49288261 C3.05678143,3.46123567 3.07040088,3.43058502 3.08592719,3.40109463 L4.57917961,0.414589803 C4.70622362,0.160501782 4.96592096,0 5.25,0 L18.75,0 C19.034079,0 19.2937764,0.160501782 19.4208204,0.414589803 L20.9140728,3.40109463 C20.9295991,3.43058502 20.9432186,3.46123567 20.9547672,3.49288261 C20.990901,3.59070087 21.0049742,3.69050064 21,3.78740693 L21,22.5 Z M19.0364745,3 L18.2864745,1.5 L5.71352549,1.5 L4.96352549,3 L19.0364745,3 L19.0364745,3 Z M13.5,22.5 L13.5,21 C13.5,20.1712136 12.8287864,19.5 12,19.5 C11.1712136,19.5 10.5,20.1712136 10.5,21 L10.5,22.5 L13.5,22.5 Z" id="Shape" fill="#000000" fill-rule="nonzero"></path>
    </g>
</svg>