<svg xmlns="http://www.w3.org/2000/svg" width="24" height="24" viewBox="0 0 24 24">
  <path d="M4,22 L4,20 C4,18.8954305 4.8954305,18 6,18 L8,18 C9.1045695,18 10,18.8954305 10,20 L10,22 L12,22 L12,2 L2,2 L2,22 L4,22 Z M15.25,22 L15.25,20 C15.25,18.8954305 16.1454305,18 17.25,18 L18.75,18 C19.8545695,18 20.75,18.8954305 20.75,20 L20.75,22 L22,22 L22,8 L14,8 L14,22 L15.25,22 Z M14,6 L22,6 C23.1045695,6 24,6.8954305 24,8 L24,22 C24,23.1045695 23.1045695,24 22,24 L2,24 C0.8954305,24 0,23.1045695 0,22 L0,2 C0,0.8954305 0.8954305,0 2,0 L12,0 C13.1045695,-2.22044605e-16 14,0.8954305 14,2 L14,6 Z M10,14.5 C10,15.0522847 9.55228475,15.5 9,15.5 C8.44771525,15.5 8,15.0522847 8,14.5 L8,5.5 C8,4.94771525 8.44771525,4.5 9,4.5 C9.55228475,4.5 10,4.94771525 10,5.5 L10,14.5 Z M16.75,16 C16.1977153,16 15.75,15.5522847 15.75,15 C15.75,14.4477153 16.1977153,14 16.75,14 L19.25,14 C19.8022847,14 20.25,14.4477153 20.25,15 C20.25,15.5522847 19.8022847,16 19.25,16 L16.75,16 Z M16.75,12 C16.1977153,12 15.75,11.5522847 15.75,11 C15.75,10.4477153 16.1977153,10 16.75,10 L19.25,10 C19.8022847,10 20.25,10.4477153 20.25,11 C20.25,11.5522847 19.8022847,12 19.25,12 L16.75,12 Z M6,14.5 C6,15.0522847 5.55228475,15.5 5,15.5 C4.44771525,15.5 4,15.0522847 4,14.5 L4,5.5 C4,4.94771525 4.44771525,4.5 5,4.5 C5.55228475,4.5 6,4.94771525 6,5.5 L6,14.5 Z M17.25,20 L17.25,22 L18.75,22 L18.75,20 L17.25,20 Z M6,20 L6,22 L8,22 L8,20 L6,20 Z"/>
</svg>
