<svg xmlns="http://www.w3.org/2000/svg" width="24" height="25" viewBox="0 0 24 25">
  <path d="M9.5,22 L9.5,18.5 C9.5,17.9477153 9.94771525,17.5 10.5,17.5 L13.5,17.5 C14.0522847,17.5 14.5,17.9477153 14.5,18.5 L14.5,22 L18,22 C18.2761424,22 18.5,21.7761424 18.5,21.5 L18.5,3.5 C18.5,3.22385763 18.2761424,3 18,3 L6,3 C5.72385763,3 5.5,3.22385763 5.5,3.5 L5.5,21.5 C5.5,21.7761424 5.72385763,22 6,22 L9.5,22 Z M10,8 C9.44771525,8 9,7.55228475 9,7 C9,6.44771525 9.44771525,6 10,6 L14,6 C14.5522847,6 15,6.44771525 15,7 C15,7.55228475 14.5522847,8 14,8 L10,8 Z M10,12.5 C9.44771525,12.5 9,12.0522847 9,11.5 C9,10.9477153 9.44771525,10.5 10,10.5 L14,10.5 C14.5522847,10.5 15,10.9477153 15,11.5 C15,12.0522847 14.5522847,12.5 14,12.5 L10,12.5 Z M6,1 L18,1 C19.3807119,1 20.5,2.11928813 20.5,3.5 L20.5,21.5 C20.5,22.8807119 19.3807119,24 18,24 L6,24 C4.61928813,24 3.5,22.8807119 3.5,21.5 L3.5,3.5 C3.5,2.11928813 4.61928813,1 6,1 Z"/>
</svg>
