<svg xmlns="http://www.w3.org/2000/svg" width="24" height="24" viewBox="0 0 24 24">
  <path d="M4,22 L4,20.5 C3.99999975,18.843146 5.34314585,17.5 7,17.5 C8.65685398,17.4999997 10,18.8431458 10,20.5 L10,22 L12,22 L12,3 C12,2.44771525 11.5522847,2 11,2 L3,2 C2.44771525,2 2,2.44771525 2,3 L2,21 C2,21.5522847 2.44771525,22 3,22 L4,22 Z M6,22 L8,22 L8,20.5 C8,19.9477154 7.55228457,19.4999999 7,19.5 C6.44771537,19.5 5.99999992,19.9477154 6,20.5 L6,22 Z M10,14.5 C10,15.0522847 9.55228475,15.5 9,15.5 C8.44771525,15.5 8,15.0522847 8,14.5 L8,5 C8,4.44771525 8.44771525,4 9,4 C9.55228475,4 10,4.44771525 10,5 L10,14.5 Z M6,14.5 C6,15.0522847 5.55228475,15.5 5,15.5 C4.44771525,15.5 4,15.0522847 4,14.5 L4,5 C4,4.44771525 4.44771525,4 5,4 C5.55228475,4 6,4.44771525 6,5 L6,14.5 Z M19.75,22 L21,22 C21.5522847,22 22,21.5522847 22,21 L22,9 C22,8.44771525 21.5522847,8 21,8 L14,8 L14,22 L16.25,22 L16.25,20.5 C16.25,19.9477153 16.6977153,19.5 17.25,19.5 L18.75,19.5 C19.3022847,19.5 19.75,19.9477153 19.75,20.5 L19.75,22 Z M14,6 L22,6 C23.1045695,6 24,6.8954305 24,8 L24,22 C24,23.1045695 23.1045695,24 22,24 L2,24 C0.8954305,24 0,23.1045695 0,22 L0,2 C0,0.8954305 0.8954305,0 2,0 L12,0 C13.1045695,-2.22044605e-16 14,0.8954305 14,2 L14,6 Z M16.75,16 C16.1977153,16 15.75,15.5522847 15.75,15 C15.75,14.4477153 16.1977153,14 16.75,14 L19.25,14 C19.8022847,14 20.25,14.4477153 20.25,15 C20.25,15.5522847 19.8022847,16 19.25,16 L16.75,16 Z M16.75,12 C16.1977153,12 15.75,11.5522847 15.75,11 C15.75,10.4477153 16.1977153,10 16.75,10 L19.25,10 C19.8022847,10 20.25,10.4477153 20.25,11 C20.25,11.5522847 19.8022847,12 19.25,12 L16.75,12 Z"/>
</svg>
