<svg xmlns="http://www.w3.org/2000/svg" width="24" height="24" viewBox="0 0 24 24">
  <path d="M1.49999993,6 L16.4999999,6 L16.4999999,3.75000029 C16.4999999,3.3357868 16.1642133,3.00000021 15.7499999,3.00000023 L13.4999999,3 L13.5,3.75 C13.5,4.16421356 13.1642136,4.5 12.75,4.5 C12.3357864,4.5 12,4.16421356 12,3.75 L11.9999999,3 L5.99999993,3 L6,3.75 C6,4.16421356 5.66421356,4.5 5.25,4.5 C4.83578644,4.5 4.5,4.16421356 4.5,3.75 L4.49999993,3 L2.24999993,3.00000023 C1.83578646,3.00000023 1.49999987,3.3357868 1.49999993,3.75000023 L1.49999993,6 Z M1.49999993,7.5 L1.49999993,15.7500002 C1.49999993,16.1642135 1.83578657,16.5000001 2.24999993,16.5000002 L8.24999993,16.5000002 C8.6642135,16.5000002 8.99999993,16.8357867 8.99999993,17.2500002 C8.99999993,17.6642138 8.6642135,18.0000002 8.24999993,18.0000002 L2.2499997,18.0000002 C1.00735927,17.9999998 -6.5567292e-08,16.9926405 -6.5567292e-08,15.7500002 L-6.5567292e-08,3.75000034 C-2.53201051e-07,2.50735974 1.00735932,1.50000023 2.24999993,1.50000023 L4.49999993,1.5 L4.5,0.75 C4.5,0.335786438 4.83578644,1.77635684e-15 5.25,1.77635684e-15 C5.66421356,1.77635684e-15 6,0.335786438 6,0.75 L5.99999993,1.5 L11.9999999,1.5 L12,0.75 C12,0.335786438 12.3357864,1.77635684e-15 12.75,1.77635684e-15 C13.1642136,1.77635684e-15 13.5,0.335786438 13.5,0.75 L13.4999999,1.5 L15.7499999,1.50000023 C16.9926404,1.50000017 17.9999998,2.50735963 17.9999999,3.75000023 L17.9999999,8.25000023 C17.9999999,8.66421379 17.6642135,9.00000023 17.2499999,9.00000023 C16.8357864,9.00000023 16.4999999,8.66421379 16.4999999,8.25000023 L16.4999999,7.5 L1.49999993,7.5 Z M16.125,20.125 C16.125,19.5038271 16.6284401,19.0002394 17.2495571,19.0000001 L17.25,19 C17.8713205,19 18.375,19.5036794 18.375,20.125 C18.375,20.7463206 17.8713206,21.25 17.25,21.25 C16.6286794,21.25 16.125,20.7463206 16.125,20.125 Z M18,17.25 C18,17.6642136 17.6642136,18 17.25,18 C16.8357864,18 16.5,17.6642136 16.5,17.25 L16.5,15 C16.5,14.5857864 16.8357864,14.25 17.25,14.25 C17.6642136,14.25 18,14.5857864 18,15 L18,17.25 Z M23.7338202,20.3475894 C24.3570167,21.5946824 23.8513088,23.1106681 22.6043668,23.7337862 C22.2539825,23.9088795 21.8676548,24.0000209 21.4760001,23.9999981 L13.0240457,23.9999981 C11.6300796,24.0000828 10.4999755,22.8701188 10.4998901,21.4761537 C10.4998663,21.084455 10.5910081,20.6981251 10.7661777,20.3475899 L14.9920568,11.8958318 C15.6150082,10.648805 17.1309272,10.1428895 18.377947,10.7658432 C18.8670555,11.0101776 19.2636017,11.4067234 19.5078143,11.8955895 L23.7338202,20.3475894 Z M18.1660527,12.5661683 C18.0669252,12.3677344 17.9060441,12.2068534 17.7076074,12.1077242 C17.2016893,11.8549908 16.5866741,12.060243 16.3338185,12.5664103 L12.1078935,21.0182602 C12.0368572,21.1604124 11.9998804,21.3171486 11.9998901,21.4760622 C11.9999247,22.0415995 12.4584146,22.5000325 13.0240001,22.4999981 L21.4760437,22.4999981 C21.6349597,22.5000074 21.791696,22.4630306 21.9338498,22.3919938 C22.4397177,22.139203 22.6448898,21.5242027 22.392137,21.0183249 L18.1660527,12.5661683 Z"/>
</svg>
