<svg xmlns="http://www.w3.org/2000/svg" width="24" height="24" viewBox="0 0 24 24">
  <path d="M728,76 C728.512836,76 728.935507,76.3860402 728.993272,76.8833789 L729,77 L729,78 L731,78 C732.597703,78 733.903662,79.248912 733.994907,80.8237264 L734,81 L734,93 C734,94.5977103 732.751108,95.903663 731.176276,95.9949074 L731,96 L717,96 C715.402311,96 714.096339,94.7511009 714.005093,93.176275 L714,93 L714,81 C714,79.4023186 715.248919,78.0963391 716.823727,78.0050927 L717,78 L719,78 L719,77 C719,76.4477153 719.447715,76 720,76 C720.512836,76 720.935507,76.3860402 720.993272,76.8833789 L721,77 L721,78 L727,78 L727,77 C727,76.4477153 727.447715,76 728,76 Z M731,80 L729,80 L729,81 C729,81.5522847 728.552285,82 728,82 C727.487164,82 727.064493,81.6139598 727.006728,81.1166211 L727,81 L727,80 L721,80 L721,81 C721,81.5522847 720.552285,82 720,82 C719.487164,82 719.064493,81.6139598 719.006728,81.1166211 L719,81 L719,80 L717,80 C716.487164,80 716.064493,80.3860398 716.006728,80.8833788 L716,81 L716,93 C716,93.5128524 716.386029,93.9355095 716.883376,93.9932725 L717,94 L731,94 C731.512864,94 731.935511,93.6139861 731.993273,93.1166268 L732,93 L732,81 C732,80.4871519 731.613975,80.0644911 731.116624,80.0067275 L731,80 Z M729,84 C729.552285,84 730,84.4477153 730,85 C730,85.5128358 729.61396,85.9355072 729.116621,85.9932723 L729,86 L719,86 C718.447715,86 718,85.5522847 718,85 C718,84.4871642 718.38604,84.0644928 718.883379,84.0067277 L719,84 L729,84 Z" transform="translate(-712 -74)"/>
</svg>
