<svg xmlns="http://www.w3.org/2000/svg" width="25" height="24" viewBox="0 0 25 24">
  <path d="M3024.25,77.5 C3025.98303,77.5 3027.39925,78.8564548 3027.49486,80.5655761 L3027.5,80.75 L3027.5,91.25 C3027.5,92.9830315 3026.14355,94.3992459 3024.43442,94.4948552 L3024.25,94.5 L3006.75,94.5 C3005.01697,94.5 3003.60075,93.1435452 3003.50514,91.4344239 L3003.5,91.25 L3003.5,80.75 C3003.5,79.0169685 3004.85645,77.6007541 3006.56558,77.5051448 L3006.75,77.5 L3024.25,77.5 Z M3026,83 L3005,83 L3005,91.25 C3005,92.1681734 3005.70711,92.9211923 3006.60647,92.9941988 L3006.75,93 L3024.25,93 C3025.16817,93 3025.92119,92.2928897 3025.9942,91.3935272 L3026,91.25 L3026,83 Z M3013,89 C3013.41421,89 3013.75,89.3357864 3013.75,89.75 C3013.75,90.1296958 3013.46785,90.443491 3013.10177,90.4931534 L3013,90.5 L3008,90.5 C3007.58579,90.5 3007.25,90.1642136 3007.25,89.75 C3007.25,89.3703042 3007.53215,89.056509 3007.89823,89.0068466 L3008,89 L3013,89 Z M3015.5,86 C3015.91421,86 3016.25,86.3357864 3016.25,86.75 C3016.25,87.1296958 3015.96785,87.443491 3015.60177,87.4931534 L3015.5,87.5 L3008,87.5 C3007.58579,87.5 3007.25,87.1642136 3007.25,86.75 C3007.25,86.3703042 3007.53215,86.056509 3007.89823,86.0068466 L3008,86 L3015.5,86 Z M3024.25,79 L3006.75,79 C3005.83183,79 3005.07881,79.7071103 3005.0058,80.6064728 L3005,80.75 L3005,81.5 L3026,81.5 L3026,80.75 C3026,79.8318266 3025.29289,79.0788077 3024.39353,79.0058012 L3024.25,79 Z" transform="translate(-3003 -74)"/>
</svg>
