<svg xmlns="http://www.w3.org/2000/svg" width="24" height="24" viewBox="0 0 24 24">
  <path d="M3598,71 C3600.1422,71 3601.89108,72.6839685 3601.9951,74.8003597 L3602,75 L3602,78 C3602,80.1421954 3600.31603,81.8910789 3598.19964,81.9951047 L3598,82 L3595,82 C3592.8578,82 3591.10892,80.3160315 3591.0049,78.1996403 L3591,78 L3591,75 C3591,72.8578046 3592.68397,71.1089211 3594.80036,71.0048953 L3595,71 L3598,71 Z M3585,71 C3587.1422,71 3588.89108,72.6839685 3588.9951,74.8003597 L3589,75 L3589,78 C3589,80.1421954 3587.31603,81.8910789 3585.19964,81.9951047 L3585,82 L3582,82 C3579.8578,82 3578.10892,80.3160315 3578.0049,78.1996403 L3578,78 L3578,75 C3578,72.8578046 3579.68397,71.1089211 3581.80036,71.0048953 L3582,71 L3585,71 Z M3598,73 L3595,73 C3593.94564,73 3593.08183,73.8158778 3593.00549,74.8507377 L3593,75 L3593,78 C3593,79.0543618 3593.81588,79.9181651 3594.85074,79.9945143 L3595,80 L3598,80 C3599.05436,80 3599.91817,79.1841222 3599.99451,78.1492623 L3600,78 L3600,75 C3600,73.9456382 3599.18412,73.0818349 3598.14926,73.0054857 L3598,73 Z M3585,73 L3582,73 C3580.94564,73 3580.08183,73.8158778 3580.00549,74.8507377 L3580,75 L3580,78 C3580,79.0543618 3580.81588,79.9181651 3581.85074,79.9945143 L3582,80 L3585,80 C3586.05436,80 3586.91817,79.1841222 3586.99451,78.1492623 L3587,78 L3587,75 C3587,73.9456382 3586.18412,73.0818349 3585.14926,73.0054857 L3585,73 Z M3585,58 C3587.1422,58 3588.89108,59.6839685 3588.9951,61.8003597 L3589,62 L3589,65 C3589,67.1421954 3587.31603,68.8910789 3585.19964,68.9951047 L3585,69 L3582,69 C3579.8578,69 3578.10892,67.3160315 3578.0049,65.1996403 L3578,65 L3578,62 C3578,59.8578046 3579.68397,58.1089211 3581.80036,58.0048953 L3582,58 L3585,58 Z M3598,58 C3600.1422,58 3601.89108,59.6839685 3601.9951,61.8003597 L3602,62 L3602,65 C3602,67.1421954 3600.31603,68.8910789 3598.19964,68.9951047 L3598,69 L3595,69 C3592.8578,69 3591.10892,67.3160315 3591.0049,65.1996403 L3591,65 L3591,62 C3591,59.8578046 3592.68397,58.1089211 3594.80036,58.0048953 L3595,58 L3598,58 Z M3585,60 L3582,60 C3580.94564,60 3580.08183,60.8158778 3580.00549,61.8507377 L3580,62 L3580,65 C3580,66.0543618 3580.81588,66.9181651 3581.85074,66.9945143 L3582,67 L3585,67 C3586.05436,67 3586.91817,66.1841222 3586.99451,65.1492623 L3587,65 L3587,62 C3587,60.9456382 3586.18412,60.0818349 3585.14926,60.0054857 L3585,60 Z M3598,60 L3595,60 C3593.94564,60 3593.08183,60.8158778 3593.00549,61.8507377 L3593,62 L3593,65 C3593,66.0543618 3593.81588,66.9181651 3594.85074,66.9945143 L3595,67 L3598,67 C3599.05436,67 3599.91817,66.1841222 3599.99451,65.1492623 L3600,65 L3600,62 C3600,60.9456382 3599.18412,60.0818349 3598.14926,60.0054857 L3598,60 Z" transform="translate(-3578 -58)"/>
</svg>
