<svg xmlns="http://www.w3.org/2000/svg" width="24" height="24" viewBox="0 0 24 24">
  <path d="M3,10.5 L3,17 C3,17.8284153 3.67158475,18.5 4.5,18.5 L19.5,18.5 C20.3284153,18.5 21,17.8284153 21,17 L21,10.5 L3,10.5 Z M3,8.5 L21,8.5 L21,7 C21,6.17158475 20.3284153,5.5 19.5,5.5 L4.5,5.5 C3.67158475,5.5 3,6.17158475 3,7 L3,8.5 Z M4.5,20.5 C2.56701525,20.5 1,18.9329847 1,17 L1,7 C1,5.06701525 2.56701525,3.5 4.5,3.5 L19.5,3.5 C21.4329847,3.5 23,5.06701525 23,7 L23,17 C23,18.9329847 21.4329847,20.5 19.5,20.5 L4.5,20.5 Z M12,15.25 C11.4477153,15.25 11,14.8022847 11,14.25 C11,13.6977153 11.4477153,13.25 12,13.25 L17,13.25 C17.5522847,13.25 18,13.6977153 18,14.25 C18,14.8022847 17.5522847,15.25 17,15.25 L12,15.25 Z"/>
</svg>
