<?xml version="1.0" encoding="UTF-8"?>
<svg width="24px" height="24px" viewBox="0 0 24 24" version="1.1" xmlns="http://www.w3.org/2000/svg" xmlns:xlink="http://www.w3.org/1999/xlink">
    <g stroke="none" stroke-width="1" fill="none" fill-rule="evenodd">
        <g transform="translate(-3578.000000, -58.000000)" fill="#000000">
            <path d="M3583.25,61 L3585.75,61 C3586.99264,61 3588,62.0073593 3588,63.25 L3588,65.75 C3588,66.9926407 3586.99264,68 3585.75,68 L3583.25,68 C3582.00736,68 3581,66.9926407 3581,65.75 L3581,63.25 C3581,62.0073593 3582.00736,61 3583.25,61 Z M3594.25,61 L3596.75,61 C3597.99264,61 3599,62.0073593 3599,63.25 L3599,65.75 C3599,66.9926407 3597.99264,68 3596.75,68 L3594.25,68 C3593.00736,68 3592,66.9926407 3592,65.75 L3592,63.25 C3592,62.0073593 3593.00736,61 3594.25,61 Z M3594.25,72 L3596.75,72 C3597.99264,72 3599,73.0073593 3599,74.25 L3599,76.75 C3599,77.9926407 3597.99264,79 3596.75,79 L3594.25,79 C3593.00736,79 3592,77.9926407 3592,76.75 L3592,74.25 C3592,73.0073593 3593.00736,72 3594.25,72 Z M3583.25,72 L3585.75,72 C3586.99264,72 3588,73.0073593 3588,74.25 L3588,76.75 C3588,77.9926407 3586.99264,79 3585.75,79 L3583.25,79 C3582.00736,79 3581,77.9926407 3581,76.75 L3581,74.25 C3581,73.0073593 3582.00736,72 3583.25,72 Z"></path>
        </g>
    </g>
</svg>