<?xml version="1.0" encoding="UTF-8"?>
<svg width="24px" height="24px" viewBox="0 0 24 24" version="1.1" xmlns="http://www.w3.org/2000/svg" xmlns:xlink="http://www.w3.org/1999/xlink">
    <title>cards-bold-g</title>
    <g id="Icons" stroke="none" stroke-width="1" fill="none" fill-rule="evenodd">
        <g id="Glyphs" transform="translate(-3578.000000, -58.000000)" fill="#000000">
            <path d="M3585.125,63 L3585.875,63 C3587.04861,63 3588,63.9513949 3588,65.125 L3588,65.875 C3588,67.0486051 3587.04861,68 3585.875,68 L3585.125,68 C3583.95139,68 3583,67.0486051 3583,65.875 L3583,65.125 C3583,63.9513949 3583.95139,63 3585.125,63 Z M3594.125,63 L3594.875,63 C3596.04861,63 3597,63.9513949 3597,65.125 L3597,65.875 C3597,67.0486051 3596.04861,68 3594.875,68 L3594.125,68 C3592.95139,68 3592,67.0486051 3592,65.875 L3592,65.125 C3592,63.9513949 3592.95139,63 3594.125,63 Z M3594.125,72 L3594.875,72 C3596.04861,72 3597,72.9513949 3597,74.125 L3597,74.875 C3597,76.0486051 3596.04861,77 3594.875,77 L3594.125,77 C3592.95139,77 3592,76.0486051 3592,74.875 L3592,74.125 C3592,72.9513949 3592.95139,72 3594.125,72 Z M3585.125,72 L3585.875,72 C3587.04861,72 3588,72.9513949 3588,74.125 L3588,74.875 C3588,76.0486051 3587.04861,77 3585.875,77 L3585.125,77 C3583.95139,77 3583,76.0486051 3583,74.875 L3583,74.125 C3583,72.9513949 3583.95139,72 3585.125,72 Z" id="Shape"></path>
        </g>
    </g>
</svg>