<?xml version="1.0" encoding="UTF-8"?>
<svg width="24px" height="24px" viewBox="0 0 24 24" version="1.1" xmlns="http://www.w3.org/2000/svg" xmlns:xlink="http://www.w3.org/1999/xlink">
    <title>cards-bold-g</title>
    <g id="Icons" stroke="none" stroke-width="1" fill="none" fill-rule="evenodd">
        <g transform="translate(-3578.000000, -30.000000)" fill="#000000" fill-rule="nonzero" id="Shape">
            <path d="M3597.86364,43.5 C3599.81109,43.5 3601.40098,45.0308804 3601.49555,46.9548724 L3601.5,47.1363636 L3601.5,49.8636364 C3601.5,51.8110867 3599.96912,53.4009808 3598.04513,53.4955497 L3597.86364,53.5 L3595.13636,53.5 C3593.18891,53.5 3591.59902,51.9691196 3591.50445,50.0451276 L3591.5,49.8636364 L3591.5,47.1363636 C3591.5,45.1889133 3593.03088,43.5990192 3594.95487,43.5044503 L3595.13636,43.5 L3597.86364,43.5 Z M3584.86364,43.5 C3586.81109,43.5 3588.40098,45.0308804 3588.49555,46.9548724 L3588.5,47.1363636 L3588.5,49.8636364 C3588.5,51.8110867 3586.96912,53.4009808 3585.04513,53.4955497 L3584.86364,53.5 L3582.13636,53.5 C3580.18891,53.5 3578.59902,51.9691196 3578.50445,50.0451276 L3578.5,49.8636364 L3578.5,47.1363636 C3578.5,45.1889133 3580.03088,43.5990192 3581.95487,43.5044503 L3582.13636,43.5 L3584.86364,43.5 Z M3584.86364,30.5 C3586.81109,30.5 3588.40098,32.0308804 3588.49555,33.9548724 L3588.5,34.1363636 L3588.5,36.8636364 C3588.5,38.8110867 3586.96912,40.4009808 3585.04513,40.4955497 L3584.86364,40.5 L3582.13636,40.5 C3580.18891,40.5 3578.59902,38.9691196 3578.50445,37.0451276 L3578.5,36.8636364 L3578.5,34.1363636 C3578.5,32.1889133 3580.03088,30.5990192 3581.95487,30.5044503 L3582.13636,30.5 L3584.86364,30.5 Z M3597.86364,30.5 C3599.81109,30.5 3601.40098,32.0308804 3601.49555,33.9548724 L3601.5,34.1363636 L3601.5,36.8636364 C3601.5,38.8110867 3599.96912,40.4009808 3598.04513,40.4955497 L3597.86364,40.5 L3595.13636,40.5 C3593.18891,40.5 3591.59902,38.9691196 3591.50445,37.0451276 L3591.5,36.8636364 L3591.5,34.1363636 C3591.5,32.1889133 3593.03088,30.5990192 3594.95487,30.5044503 L3595.13636,30.5 L3597.86364,30.5 Z"></path>
        </g>
    </g>
</svg>