<?xml version="1.0" encoding="UTF-8"?>
<svg width="24px" height="24px" viewBox="0 0 24 24" version="1.1" xmlns="http://www.w3.org/2000/svg" xmlns:xlink="http://www.w3.org/1999/xlink">
    <title>cards-bold-g</title>
    <g id="Icons" stroke="none" stroke-width="1" fill="none" fill-rule="evenodd">
        <g id="Glyphs" transform="translate(-3578.000000, -58.000000)" fill="#000000">
            <path d="M3584,62 L3586,62 C3587.10457,62 3588,62.8954305 3588,64 L3588,66 C3588,67.1045695 3587.10457,68 3586,68 L3584,68 C3582.89543,68 3582,67.1045695 3582,66 L3582,64 C3582,62.8954305 3582.89543,62 3584,62 Z M3594,62 L3596,62 C3597.10457,62 3598,62.8954305 3598,64 L3598,66 C3598,67.1045695 3597.10457,68 3596,68 L3594,68 C3592.89543,68 3592,67.1045695 3592,66 L3592,64 C3592,62.8954305 3592.89543,62 3594,62 Z M3594,72 L3596,72 C3597.10457,72 3598,72.8954305 3598,74 L3598,76 C3598,77.1045695 3597.10457,78 3596,78 L3594,78 C3592.89543,78 3592,77.1045695 3592,76 L3592,74 C3592,72.8954305 3592.89543,72 3594,72 Z M3584,72 L3586,72 C3587.10457,72 3588,72.8954305 3588,74 L3588,76 C3588,77.1045695 3587.10457,78 3586,78 L3584,78 C3582.89543,78 3582,77.1045695 3582,76 L3582,74 C3582,72.8954305 3582.89543,72 3584,72 Z" id="Shape"></path>
        </g>
    </g>
</svg>