<svg xmlns="http://www.w3.org/2000/svg" width="24" height="24" viewBox="0 0 24 24">
  <path d="M1811,62 C1812.59768,62 1813.90366,63.24892 1813.99491,64.8237272 L1814,65 L1814,76 C1814,77.5976809 1812.75108,78.9036609 1811.17627,78.9949073 L1811,79 L1793,79 C1791.40232,79 1790.09634,77.75108 1790.00509,76.1762728 L1790,76 L1790,65 C1790,63.4023191 1791.24892,62.0963391 1792.82373,62.0050927 L1793,62 L1811,62 Z M1812,69 L1792,69 L1792,76 C1792,76.5128358 1792.38604,76.9355072 1792.88338,76.9932723 L1793,77 L1811,77 C1811.51284,77 1811.93551,76.6139598 1811.99327,76.1166211 L1812,76 L1812,69 Z M1800,73 C1800.55228,73 1801,73.4477153 1801,74 C1801,74.5128358 1800.61396,74.9355072 1800.11662,74.9932723 L1800,75 L1795,75 C1794.44772,75 1794,74.5522847 1794,74 C1794,73.4871642 1794.38604,73.0644928 1794.88338,73.0067277 L1795,73 L1800,73 Z M1811,64 L1793,64 C1792.48716,64 1792.06449,64.3860402 1792.00673,64.8833789 L1792,65 L1792,66 L1812,66 L1812,65 C1812,64.4871642 1811.61396,64.0644928 1811.11662,64.0067277 L1811,64 Z" transform="translate(-1790 -58)"/>
</svg>
