<svg xmlns="http://www.w3.org/2000/svg" width="24" height="24" viewBox="0 0 24 24">
  <path d="M1810,62 C1811.59768,62 1812.90366,63.24892 1812.99491,64.8237272 L1813,65 L1813,75 C1813,76.5976809 1811.75108,77.9036609 1810.17627,77.9949073 L1810,78 L1794,78 C1792.40232,78 1791.09634,76.75108 1791.00509,75.1762728 L1791,75 L1791,65 C1791,63.4023191 1792.24892,62.0963391 1793.82373,62.0050927 L1794,62 L1810,62 Z M1811,68 L1793,68 L1793,75 C1793,75.5128358 1793.38604,75.9355072 1793.88338,75.9932723 L1794,76 L1810,76 C1810.51284,76 1810.93551,75.6139598 1810.99327,75.1166211 L1811,75 L1811,68 Z M1801,72 C1801.55228,72 1802,72.4477153 1802,73 C1802,73.5128358 1801.61396,73.9355072 1801.11662,73.9932723 L1801,74 L1796,74 C1795.44772,74 1795,73.5522847 1795,73 C1795,72.4871642 1795.38604,72.0644928 1795.88338,72.0067277 L1796,72 L1801,72 Z M1810,64 L1794,64 C1793.48716,64 1793.06449,64.3860402 1793.00673,64.8833789 L1793,65 L1793,66 L1811,66 L1811,65 C1811,64.4871642 1810.61396,64.0644928 1810.11662,64.0067277 L1810,64 Z" transform="translate(-1790 -58)"/>
</svg>
