<?xml version="1.0" encoding="UTF-8"?>
<svg width="24px" height="24px" viewBox="0 0 24 24" version="1.1" xmlns="http://www.w3.org/2000/svg" xmlns:xlink="http://www.w3.org/1999/xlink">
    <!-- Generator: Sketch 54.1 (76490) - https://sketchapp.com -->
    <title>bell copy 54</title>
    <desc>Created with Sketch.</desc>
    <g id="Icons" stroke="none" stroke-width="1" fill="none" fill-rule="evenodd">
        <path d="M12.4383421,19.184738 C11.6405204,19.184738 10.9375327,18.7969532 10.465604,18.1915498 C9.26797385,19.5219928 7.30127413,19.5151168 6.11160222,18.1706519 C4.96302986,16.8726359 4.96276943,14.801517 6.11100021,13.5031487 C6.38540362,13.1928655 6.85938574,13.1637792 7.16966891,13.4381826 C7.47995208,13.712586 7.50903837,14.1865681 7.23463496,14.4968513 C6.58832487,15.22767 6.58847807,16.4460389 7.23495675,17.1766325 C7.83393724,17.8535488 8.76239261,17.8533995 9.36122235,17.1762686 C9.66871363,16.8285712 9.84576702,16.3454129 9.8458572,15.8369441 C9.84603457,14.8369441 11.3458572,14.8370771 11.3458572,15.8370771 L11.3458572,16.3519287 C11.3458573,17.1070976 11.8568468,17.684738 12.438342,17.684738 C13.0198374,17.6847379 13.530827,17.1070976 13.530827,16.3519291 C13.530827,15.3519291 15.0308271,15.3519292 15.030827,16.3519292 C15.0308269,17.1070973 15.5418165,17.6847377 16.123312,17.6847377 L17.5000002,17.684738 C17.9142137,17.6847381 18.2500001,18.0205246 18.25,18.4347382 C18.2499999,18.8489517 17.9142134,19.1847381 17.4999998,19.184738 L16.1233119,19.1847377 C15.3959007,19.1847377 14.7473233,18.8623793 14.280827,18.3466346 C13.8143308,18.8623794 13.1657533,19.1847379 12.4383421,19.184738 Z M6,6.8326003 C5.58578644,6.8326003 5.25,6.49681387 5.25,6.0826003 C5.25,5.66838674 5.58578644,5.3326003 6,5.3326003 L8,5.3326003 C8.41421356,5.3326003 8.75,5.66838674 8.75,6.0826003 C8.75,6.49681387 8.41421356,6.8326003 8,6.8326003 L6,6.8326003 Z M6,10.3326003 C5.58578644,10.3326003 5.25,9.99681387 5.25,9.5826003 C5.25,9.16838674 5.58578644,8.8326003 6,8.8326003 L11.5,8.8326003 C11.9142136,8.8326003 12.25,9.16838674 12.25,9.5826003 C12.25,9.99681387 11.9142136,10.3326003 11.5,10.3326003 L6,10.3326003 Z M15.25,2.56066465 L15.25,6.74999989 C15.2500001,7.16421366 15.5857866,7.50000023 16,7.50000023 L20.1893355,7.50000023 L15.25,2.56066465 Z M21.2499999,9 L16,9.00000023 C14.7573594,9.00000023 13.7500002,7.99264081 13.75,6.75 L13.7499999,1.5 L3.49999997,1.5 C3.08578649,1.50000002 2.74999993,1.83578657 2.74999993,2.25 L2.74999993,21.7499999 C2.75,22.1642136 3.08578647,22.5000001 3.49999993,22.5 L20.5000001,22.5 C20.9142134,22.5000001 21.2499999,22.1642136 21.2499999,21.75 L21.2499999,9 Z M1.24999993,2.25 C1.24999993,1.00735945 2.25735935,5.43175525e-08 3.49999996,0 L13.8791562,4.00198511e-07 C14.4754768,0.000127900223 15.047359,0.2369734 15.469326,0.658670344 L22.0918351,7.28117963 C22.5132306,7.70301906 22.7499999,8.27493419 22.7499999,8.87100016 L22.7499999,21.7500001 C22.7499998,22.9926408 21.7426403,24.0000003 20.4999999,24 L3.50000008,24 C2.25735948,24.0000002 1.25000012,22.9926408 1.24999993,21.75 L1.24999993,2.25 Z" id="Shape" fill="#000000" fill-rule="nonzero"></path>
    </g>
</svg>