<svg xmlns="http://www.w3.org/2000/svg" width="25" height="25" viewBox="0 0 25 25">
  <path d="M14.5754162,20.2952316 L17.927839,22.370541 C18.3974274,22.6612386 18.5424471,23.2775723 18.2517495,23.7471607 C17.9610519,24.2167492 17.3447182,24.3617689 16.8751297,24.0710713 L12.6755563,21.4713354 L8.47598294,24.0710713 C8.00639446,24.3617689 7.3900608,24.2167492 7.09936318,23.7471607 C6.80866555,23.2775723 6.95368523,22.6612386 7.42327371,22.370541 L10.7756965,20.2952316 L9.45628889,19.4784555 L5.62835548,19.4784396 C4.82314947,19.4697371 4.10075879,18.9793903 3.80305025,18.2388532 C3.53140758,17.574269 3.63700926,16.8236359 4.06669509,16.2596598 L2.14381178,11.4741846 C1.73198041,10.4492609 2.22898999,9.28454073 3.25391374,8.87270936 C3.49098309,8.77745096 3.74410864,8.72849799 3.9996004,8.72849799 L5.67568909,8.72849799 L5.67568909,4.92565211 C5.67568909,3.35398007 6.89463162,2 8.50902243,2 L16.8423558,2 C18.4567466,2 19.6756891,3.35398007 19.6756891,4.92565211 L19.6756891,8.72849799 L21.3515123,8.72849799 C21.607004,8.72849799 21.8601296,8.77745096 22.0971989,8.87270936 C23.1221227,9.28454073 23.6191323,10.4492609 23.2073009,11.4741846 L21.2692762,16.2973421 C21.6746458,16.854843 21.7705718,17.5874716 21.5064895,18.2335207 C21.2066192,18.9793905 20.484228,19.4697378 19.6682154,19.478498 L15.8947805,19.4784823 L14.5754162,20.2952316 Z M19.7457452,14.7247668 L21.3515123,10.728498 L19.6756891,10.728498 L19.6756891,14.6690025 C19.699809,14.6864965 19.7231876,14.7050982 19.7457452,14.7247668 Z M17.6756891,4.92565211 C17.6756891,4.41442856 17.3025931,4 16.8423558,4 L8.50902243,4 C8.04878513,4 7.67568909,4.41442856 7.67568909,4.92565211 L7.67568909,14.2711093 C9.28100526,13.9034789 10.2417803,13.6104506 12.6539907,13.6104506 C15.0662011,13.6104506 16.0744239,13.9218315 17.6756891,14.2758236 L17.6756891,4.92565211 Z M5.67568909,14.6414785 L5.67568909,10.728498 L3.9996004,10.728498 L5.59536657,14.6998775 C5.62120611,14.679053 5.64801678,14.659568 5.67568909,14.6414785 Z M18.6101437,16.4174427 C16.8423558,15.6104506 16.0026319,15.6104506 12.6539907,15.6104506 C9.30534948,15.6104506 8.50902243,15.6104506 6.70041223,16.4175708 L5.65809831,17.5 C5.65642819,17.5017027 10.3216386,17.5017027 19.6537295,17.5 C19.6537207,17.4985674 19.3058588,17.1377149 18.6101437,16.4174427 Z M11.7061762,8.20710678 C11.3156519,8.59763107 10.6824869,8.59763107 10.2919626,8.20710678 C9.9014383,7.81658249 9.9014383,7.18341751 10.2919626,6.79289322 C10.6824869,6.40236893 11.3156519,6.40236893 11.7061762,6.79289322 C12.0967004,7.18341751 12.0967004,7.81658249 11.7061762,8.20710678 Z M11.7061762,11.2071068 C11.3156519,11.5976311 10.6824869,11.5976311 10.2919626,11.2071068 C9.9014383,10.8165825 9.9014383,10.1834175 10.2919626,9.79289322 C10.6824869,9.40236893 11.3156519,9.40236893 11.7061762,9.79289322 C12.0967004,10.1834175 12.0967004,10.8165825 11.7061762,11.2071068 Z M15.2061762,8.20710678 C14.8156519,8.59763107 14.1824869,8.59763107 13.7919626,8.20710678 C13.4014383,7.81658249 13.4014383,7.18341751 13.7919626,6.79289322 C14.1824869,6.40236893 14.8156519,6.40236893 15.2061762,6.79289322 C15.5967004,7.18341751 15.5967004,7.81658249 15.2061762,8.20710678 Z M15.2061762,11.2071068 C14.8156519,11.5976311 14.1824869,11.5976311 13.7919626,11.2071068 C13.4014383,10.8165825 13.4014383,10.1834175 13.7919626,9.79289322 C14.1824869,9.40236893 14.8156519,9.40236893 15.2061762,9.79289322 C15.5967004,10.1834175 15.5967004,10.8165825 15.2061762,11.2071068 Z"/>
</svg>
