<svg xmlns="http://www.w3.org/2000/svg" width="24" height="24" viewBox="0 0 24 24">
  <path d="M3125.5,58 C3126.05228,58 3126.5,58.4477153 3126.5,59 C3126.5,59.5128358 3126.11396,59.9355072 3125.61662,59.9932723 L3125.5,60 L3119.25,60 C3119.00454,60 3118.80039,60.1768752 3118.75806,60.4101244 L3118.75,60.5 L3118.74998,70 L3129.609,70 C3129.84716,70 3130.07611,70.0849312 3130.25581,70.2373414 L3130.34137,70.319089 L3131.11798,71.155 L3132.42007,66.5032722 C3132.56893,65.9714267 3133.12075,65.6609542 3133.65259,65.8098124 C3134.14645,65.9480379 3134.44943,66.4337147 3134.37101,66.9282171 L3134.34605,67.0423356 L3132.62546,73.1926827 C3132.69097,73.5326153 3132.65592,73.8914305 3132.5113,74.2493275 C3132.23445,74.9459246 3131.59034,75.4239777 3130.84351,75.4918126 L3130.682,75.5 L3124.49998,75.5 L3124.50039,77.5881041 C3126.25334,77.8866906 3127.90773,78.9621867 3128.45399,80.7001523 C3128.61959,81.2270248 3128.32672,81.7883857 3127.79985,81.9539871 C3127.31061,82.1077597 3126.79163,81.8662194 3126.5874,81.4090855 L3126.54601,81.2998477 C3126.20524,80.2156682 3124.80621,79.5028335 3123.5,79.5028335 C3122.25571,79.5028335 3120.92758,80.149258 3120.50977,81.1473375 L3120.45405,81.29965 C3120.28856,81.8265568 3119.72726,82.1195413 3119.20035,81.9540492 C3118.67344,81.7885571 3118.38046,81.2272568 3118.54595,80.70035 C3119.09201,78.9617685 3120.7469,77.8862491 3122.50045,77.5879258 L3122.49998,75.499 L3116.80307,75.4999402 C3116.05312,75.4917408 3115.37746,75.0595814 3115.05127,74.3994898 L3114.98682,74.2546243 C3114.88729,74.0082964 3114.83916,73.7621213 3114.83898,73.5227475 L3113.19644,67.2346042 C3113.16403,67.1106736 3113.14762,66.9831006 3113.14762,66.855 C3113.14762,66.0753039 3113.7425,65.4345513 3114.50316,65.3618666 L3114.64762,65.355 L3116.74962,65.355 L3116.75,60.5 C3116.75,59.1745166 3117.78154,58.0899613 3119.08562,58.0053177 L3119.25,58 L3125.5,58 Z M3129.174,72 L3118.325,72 L3116.927,73.5 L3130.49993,73.5007994 L3130.5024,73.4305189 L3129.174,72 Z M3115.295,67.354 L3116.30862,71.23 L3116.74998,70.757 L3116.74962,67.355 L3115.295,67.354 Z M3130.43746,58.7168749 C3130.42852,61.1070587 3131.51112,62.2378689 3134.00575,62.2858837 C3134.9462,62.3039848 3134.93011,63.7178156 3133.98949,63.7143053 C3131.66547,63.7056323 3130.56024,64.8375812 3130.43658,67.321388 C3130.3906,68.2449026 3129.02396,68.2168006 3129.01563,67.2921693 C3128.99356,64.8427942 3127.95515,63.7143103 3125.46094,63.7143103 C3124.5195,63.7143103 3124.50984,62.2987864 3125.45119,62.2858198 C3127.88394,62.2523098 3129.00702,61.1621254 3129.0156,58.7118428 C3129.01923,57.7592655 3130.4408,57.7645091 3130.43746,58.7168749 Z" transform="translate(-3112 -58)"/>
</svg>
