<?xml version="1.0" encoding="UTF-8"?>
<svg width="25px" height="25px" viewBox="0 0 25 25" version="1.1" xmlns="http://www.w3.org/2000/svg" xmlns:xlink="http://www.w3.org/1999/xlink">
    <!-- Generator: Sketch 54.1 (76490) - https://sketchapp.com -->
    <title>bell copy 76</title>
    <desc>Created with Sketch.</desc>
    <g id="Icons" stroke="none" stroke-width="1" fill="none" fill-rule="evenodd">
        <path d="M17.6012311,18.4641267 L13.4742353,21.0020143 L17.6906809,23.6121949 C18.0428723,23.8302181 18.151637,24.2924684 17.9336138,24.6446597 C17.7155906,24.9968511 17.2533404,25.1056158 16.901149,24.8875926 L12.0446066,21.8811616 L7.15378567,24.888762 C6.8009485,25.1057385 6.33902324,24.9956016 6.12204674,24.6427645 C5.90507023,24.2899273 6.01520707,23.828002 6.36804425,23.6110255 L10.6175946,20.9977732 L6.52472314,18.4640909 L5.11781635,18.4640863 C4.41594631,18.4564126 3.78827672,18.025413 3.53063334,17.3770994 C3.38786019,17.0237429 3.36590759,16.6426277 3.45462075,16.2872737 L2.188379,10.8661762 C1.9685448,9.92501097 2.55329909,8.983835 3.49446428,8.7640008 C3.62495221,8.73352187 3.75850907,8.71813112 3.89250932,8.71813112 L5.31201591,8.71813112 L5.31201591,2.74481657 C5.31201591,1.77831825 6.0955176,0.994816566 7.06201591,0.994816566 L17.0620159,0.994816566 C18.0285142,0.994816566 18.8120159,1.77831825 18.8120159,2.74481657 L18.8120159,8.71813112 L20.1992577,8.71813112 C20.3648398,8.71813112 20.5295838,8.74163117 20.6885618,8.78792829 C21.6165122,9.05816346 22.1496957,10.0294848 21.8794606,10.9574352 L20.4672653,15.8067196 C20.7478872,16.2753333 20.8000887,16.8556448 20.5909903,17.3731268 C20.3317549,18.0254133 19.7040849,18.4564133 18.9940159,18.4641312 L17.6012311,18.4641267 L17.6012311,18.4641267 Z M14.7377087,18.4641174 L9.37452779,18.4641001 L12.0472233,20.1186259 L14.7377087,18.4641174 Z M4.63260382,14.7357825 L5.16690843,14.1896421 C5.210579,14.1450041 5.25937003,14.1062778 5.31201591,14.0741159 L5.31201591,10.2181311 L3.89250932,10.2181311 C3.87336643,10.2181311 3.85428688,10.2203298 3.83564574,10.2246839 C3.70119357,10.2560888 3.61765724,10.3905425 3.64906213,10.5249947 L4.63260382,14.7357825 L4.63260382,14.7357825 Z M19.2795838,14.5202918 L20.4392867,10.5380317 C20.4778917,10.4054674 20.4017227,10.2667072 20.2691583,10.2281021 C20.2464472,10.2214883 20.2229123,10.2181311 20.1992577,10.2181311 L18.8120159,10.2181311 L18.8120159,14.0741159 C18.8649971,14.1064827 18.9140729,14.1454968 18.9579537,14.1904921 L19.2795838,14.5202918 L19.2795838,14.5202918 Z M17.3120159,13.7987586 L17.3120159,2.74481657 C17.3120159,2.60674538 17.2000871,2.49481657 17.0620159,2.49481657 L7.06201591,2.49481657 C6.92394472,2.49481657 6.81201591,2.60674538 6.81201591,2.74481657 L6.81201591,13.7987586 C8.56177286,13.5756884 10.3118343,13.4641311 12.0620159,13.4641311 C13.8121975,13.4641311 15.562259,13.5756884 17.3120159,13.7987586 Z M19.144078,16.5297701 L18.059049,15.4171848 C16.0596648,15.1151244 14.060756,14.9641311 12.0620159,14.9641311 C10.0630586,14.9641311 8.06393247,15.1151573 6.06433079,15.4172833 L4.97747335,16.5282073 C4.90365579,16.6043411 4.88167176,16.7168415 4.92299035,16.8191356 C4.95745481,16.9058548 5.04090287,16.9631558 5.12601587,16.9641312 L18.9858171,16.964176 C19.0791289,16.9631559 19.1625768,16.9058549 19.1986333,16.8151629 C19.23836,16.7168413 19.2163761,16.6043411 19.144078,16.5297701 Z" id="Shape" fill="#000000" fill-rule="nonzero"></path>
        <path d="M12.045915,6.1652503 C11.6317014,6.1652503 11.295915,5.82946386 11.295915,5.4152503 C11.295915,5.00103673 11.6317014,4.6652503 12.045915,4.6652503 C12.4601285,4.6652503 12.795915,5.00103673 12.795915,5.4152503 C12.795915,5.82946386 12.4601285,6.1652503 12.045915,6.1652503 Z M9.54591496,6.1652503 C9.1317014,6.1652503 8.79591496,5.82946386 8.79591496,5.4152503 C8.79591496,5.00103673 9.1317014,4.6652503 9.54591496,4.6652503 C9.96012852,4.6652503 10.295915,5.00103673 10.295915,5.4152503 C10.295915,5.82946386 9.96012852,6.1652503 9.54591496,6.1652503 Z M14.545915,6.1652503 C14.1317014,6.1652503 13.795915,5.82946386 13.795915,5.4152503 C13.795915,5.00103673 14.1317014,4.6652503 14.545915,4.6652503 C14.9601285,4.6652503 15.295915,5.00103673 15.295915,5.4152503 C15.295915,5.82946386 14.9601285,6.1652503 14.545915,6.1652503 Z M12.045915,8.66925024 C11.6317014,8.66925024 11.295915,8.33346381 11.295915,7.91925024 C11.295915,7.50503668 11.6317014,7.16925024 12.045915,7.16925024 C12.4601285,7.16925024 12.795915,7.50503668 12.795915,7.91925024 C12.795915,8.33346381 12.4601285,8.66925024 12.045915,8.66925024 Z M12.045915,11.1692502 C11.6317014,11.1692502 11.295915,10.8334638 11.295915,10.4192502 C11.295915,10.0050367 11.6317014,9.66925024 12.045915,9.66925024 C12.4601285,9.66925024 12.795915,10.0050367 12.795915,10.4192502 C12.795915,10.8334638 12.4601285,11.1692502 12.045915,11.1692502 Z M14.545915,11.1692502 C14.1317014,11.1692502 13.795915,10.8334638 13.795915,10.4192502 C13.795915,10.0050367 14.1317014,9.66925024 14.545915,9.66925024 C14.9601285,9.66925024 15.295915,10.0050367 15.295915,10.4192502 C15.295915,10.8334638 14.9601285,11.1692502 14.545915,11.1692502 Z M9.54591496,11.1692502 C9.1317014,11.1692502 8.79591496,10.8334638 8.79591496,10.4192502 C8.79591496,10.0050367 9.1317014,9.66925024 9.54591496,9.66925024 C9.96012852,9.66925024 10.295915,10.0050367 10.295915,10.4192502 C10.295915,10.8334638 9.96012852,11.1692502 9.54591496,11.1692502 Z M14.545915,8.66925024 C14.1317014,8.66925024 13.795915,8.33346381 13.795915,7.91925024 C13.795915,7.50503668 14.1317014,7.16925024 14.545915,7.16925024 C14.9601285,7.16925024 15.295915,7.50503668 15.295915,7.91925024 C15.295915,8.33346381 14.9601285,8.66925024 14.545915,8.66925024 Z M9.54591496,8.66925024 C9.1317014,8.66925024 8.79591496,8.33346381 8.79591496,7.91925024 C8.79591496,7.50503668 9.1317014,7.16925024 9.54591496,7.16925024 C9.96012852,7.16925024 10.295915,7.50503668 10.295915,7.91925024 C10.295915,8.33346381 9.96012852,8.66925024 9.54591496,8.66925024 Z" id="Shape" fill="#000000"></path>
    </g>
</svg>