<?xml version="1.0" encoding="UTF-8"?>
<svg width="25px" height="25px" viewBox="0 0 25 25" version="1.1" xmlns="http://www.w3.org/2000/svg" xmlns:xlink="http://www.w3.org/1999/xlink">
    <!-- Generator: Sketch 54.1 (76490) - https://sketchapp.com -->
    <title>bell copy 77</title>
    <desc>Created with Sketch.</desc>
    <g id="Icons" stroke="none" stroke-width="1" fill="none" fill-rule="evenodd">
        <path d="M14.5754162,20.1834618 L17.927839,22.2587712 C18.3974274,22.5494688 18.5424471,23.1658025 18.2517495,23.6353909 C17.9610519,24.1049794 17.3447182,24.2499991 16.8751297,23.9593015 L12.6755563,21.3595656 L8.47598294,23.9593015 C8.00639446,24.2499991 7.3900608,24.1049794 7.09936318,23.6353909 C6.80866555,23.1658025 6.95368523,22.5494688 7.42327371,22.2587712 L10.7756965,20.1834618 L9.45628889,19.3666857 L5.62835548,19.3666698 C4.82314947,19.3579673 4.10075879,18.8676205 3.80305025,18.1270834 C3.53140758,17.4624992 3.63700926,16.7118661 4.06669509,16.14789 L2.14381178,11.3624148 C1.73198041,10.3374911 2.22898999,9.17277093 3.25391374,8.76093957 C3.49098309,8.66568117 3.74410864,8.61672819 3.9996004,8.61672819 L5.67568909,8.61672819 L5.67568909,4.81388231 C5.67568909,3.24221027 6.89463162,1.8882302 8.50902243,1.8882302 L16.8423558,1.8882302 C18.4567466,1.8882302 19.6756891,3.24221027 19.6756891,4.81388231 L19.6756891,8.61672819 L21.3515123,8.61672819 C21.607004,8.61672819 21.8601296,8.66568117 22.0971989,8.76093957 C23.1221227,9.17277093 23.6191323,10.3374911 23.2073009,11.3624148 L21.2692762,16.1855723 C21.6746458,16.7430732 21.7705718,17.4757018 21.5064895,18.1217509 C21.2066192,18.8676207 20.484228,19.357968 19.6682154,19.3667282 L15.8947805,19.3667125 L14.5754162,20.1834618 Z M19.7457452,14.612997 L21.3515123,10.6167282 L19.6756891,10.6167282 L19.6756891,14.5572327 C19.699809,14.5747267 19.7231876,14.5933284 19.7457452,14.612997 Z M17.6756891,4.81388231 C17.6756891,4.30265877 17.3025931,3.8882302 16.8423558,3.8882302 L8.50902243,3.8882302 C8.04878513,3.8882302 7.67568909,4.30265877 7.67568909,4.81388231 L7.67568909,14.1593395 C9.33543373,13.9642805 10.9955057,13.8667281 12.6557123,13.8667281 C14.3292405,13.8667281 16.0026319,13.9658523 17.6756891,14.1640538 L17.6756891,4.81388231 Z M5.67568909,14.5297087 L5.67568909,10.6167282 L3.9996004,10.6167282 L5.59536657,14.5881077 C5.62120611,14.5672832 5.64801678,14.5477982 5.67568909,14.5297087 Z M19.6513185,17.3610342 L18.6101437,16.3056729 C16.6248679,16.0130129 14.6401843,15.8667281 12.6557123,15.8667281 C10.6709509,15.8667281 8.68597774,16.0130556 6.70041223,16.305801 L5.65809831,17.3589616 C5.65559313,17.3615158 5.65428268,17.3637229 5.65425188,17.3667281 L19.6537295,17.3667866 C19.6537163,17.3646376 19.6528807,17.3626308 19.6513185,17.3610342 Z M11.6975564,7.8882302 C11.6975564,7.33594545 12.1452716,6.8882302 12.6975564,6.8882302 C13.2498411,6.8882302 13.6975564,7.33594545 13.6975564,7.8882302 L13.6975564,10.3882302 C13.6975564,10.940515 13.2498411,11.3882302 12.6975564,11.3882302 C12.1452716,11.3882302 11.6975564,10.940515 11.6975564,10.3882302 L11.6975564,7.8882302 Z" id="Combined-Shape" fill="#000000" fill-rule="nonzero"></path>
    </g>
</svg>