<svg xmlns="http://www.w3.org/2000/svg" width="24" height="24" viewBox="0 0 24 24">
  <path d="M2482.43539,74 C2483.75517,74 2484.83505,75.0315359 2484.91933,76.3356243 L2484.92463,76.5 L2484.92363,81.5 L2487.00646,81.5 C2487.83132,81.5 2488.5,82.1715729 2488.5,83 C2488.5,83.0911103 2488.49173,83.1819357 2488.47536,83.2713575 L2488.44473,83.4042975 L2486.80715,89.2846578 C2486.84314,89.5464659 2486.82039,89.8182302 2486.7349,90.091158 L2486.67834,90.2493275 C2486.40269,90.9459246 2485.76134,91.4239777 2485.01773,91.4918126 L2484.85692,91.5 L2478.70155,91.5 L2478.70193,93.5881041 C2480.44733,93.8866906 2482.0946,94.9621867 2482.6385,96.7001523 C2482.80339,97.2270248 2482.51178,97.7883857 2481.98718,97.9539871 C2481.50005,98.1077597 2480.98331,97.8662194 2480.77995,97.4090855 L2480.73875,97.2998477 C2480.39945,96.2156682 2479.00643,95.5028335 2477.70585,95.5028335 C2476.46692,95.5028335 2475.14451,96.149258 2474.7285,97.1473375 L2474.67302,97.29965 C2474.50824,97.8265568 2473.94936,98.1195413 2473.42472,97.9540492 C2472.90008,97.7885571 2472.60836,97.2272568 2472.77314,96.70035 C2473.31685,94.9617685 2474.96461,93.8862491 2476.71061,93.5879258 L2476.71016,91.499 L2471.03776,91.4999402 C2470.23771,91.4911551 2469.52257,90.9956813 2469.22934,90.2546243 C2469.06839,89.8545603 2469.04243,89.4548992 2469.13676,89.084123 L2467.55527,83.4042975 L2467.52464,83.2713575 C2467.50827,83.1819357 2467.5,83.0911103 2467.5,83 C2467.5,82.2203039 2468.09233,81.5795513 2468.8497,81.5068666 L2468.99354,81.5 L2470.98393,81.5 L2470.98493,76.5 C2470.98493,75.1745166 2472.01202,74.0899613 2473.31049,74.0053177 L2473.47416,74 L2482.43539,74 Z M2483.35541,88 L2472.55314,88 L2471.28463,89.367 L2471.28726,89.3754683 L2471.27368,89.379 L2471.16116,89.5 L2484.74341,89.5 L2483.35541,88 Z M2486.34946,83.5 L2484.92363,83.5 L2484.92461,86.759 L2485.32191,87.189 L2486.34946,83.5 Z M2470.98393,83.5 L2469.65054,83.5 L2470.65535,87.111 L2470.98491,86.757 L2470.98393,83.5 Z M2482.43539,76 L2473.47416,76 C2473.22975,76 2473.02649,76.1768752 2472.98433,76.4101244 L2472.97629,76.5 L2472.97629,86 L2482.93324,86 L2482.93324,76.5 C2482.93324,76.2545401 2482.75713,76.0503916 2482.52488,76.0080557 L2482.43539,76 Z" transform="translate(-2466 -74)"/>
</svg>
