<svg xmlns="http://www.w3.org/2000/svg" width="25" height="25" viewBox="0 0 25 25">
  <path d="M12.7439022,18.2192944 C12.7457732,18.2292633 12.746733,18.2394985 12.746733,18.25 L12.746733,20.0280182 C14.9942311,20.2511909 16.9413874,21.7915331 17.6853575,24.0106378 C17.8169633,24.4031898 17.6068457,24.8285821 17.2160468,24.9607782 C16.8252478,25.0929744 16.4017551,24.8819142 16.2701494,24.4893622 C15.7349715,22.8930402 14.3714282,21.7711489 12.746733,21.5429193 L12.746733,24.25 C12.746733,24.6642136 12.4124461,25 12.0000823,25 C11.5877185,25 11.2534317,24.6642136 11.2534317,24.25 L11.2534317,21.5378882 C9.64860745,21.7542694 8.26884157,22.8809928 7.73006746,24.4892065 C7.59854734,24.8817874 7.17510072,25.0929408 6.78427295,24.9608307 C6.39344518,24.8287206 6.18323479,24.4033745 6.31475491,24.0107935 C7.06269063,21.7782429 9.02867734,20.2325923 11.2534317,20.0240765 L11.2534317,18.25 C11.2534317,18.2394969 11.2543918,18.2292602 11.2562634,18.2192898 L5.07295653,18.2192698 C4.37292263,18.2115817 3.79967391,17.7819685 3.54263824,17.1322828 C3.47803025,16.971664 3.437469,16.805377 3.42050224,16.6383022 L2.04451273,10.6146941 C1.82932507,9.67267663 2.41512673,8.73379401 3.35293735,8.51764106 C3.4807401,8.48818422 3.61144502,8.47331455 3.74256908,8.47331455 L5.28022628,8.47331455 L5.28022628,3.75 C5.28022628,2.23121694 6.50594489,1 8.01794541,1 L15.9822192,1 C17.4942198,1 18.7199384,2.23121694 18.7199384,3.75 L18.7199384,8.47331455 L20.2574309,8.47331455 C20.388555,8.47331455 20.5192599,8.48818422 20.6470626,8.51764106 C21.5848733,8.73379401 22.1706749,9.67267663 21.9554873,10.6146941 L20.5654294,16.6998885 C20.5502322,16.8446362 20.5153526,16.9884984 20.4591113,17.1283102 C20.2004906,17.7819688 19.6272416,18.2115824 18.9190452,18.2193146 L12.7439017,18.2192946 L12.7439022,18.2192944 Z M18.7199384,13.9579921 L19.4883239,14.7080409 L20.5000104,10.2792259 C20.5307515,10.144652 20.4470655,10.0105259 20.3130926,9.97964691 C20.2948351,9.97543879 20.2761629,9.97331455 20.2574309,9.97331455 L18.7199384,9.97331455 L18.7199384,13.9579921 Z M17.226637,13.567518 L17.226637,3.75 C17.226637,3.05964406 16.6694922,2.5 15.9822192,2.5 L8.01794541,2.5 C7.33067244,2.5 6.77352762,3.05964406 6.77352762,3.75 L6.77352762,13.5594176 C8.50810637,13.3326851 10.2537303,13.2193146 12.0101974,13.2193146 C13.7871733,13.2193146 15.5260579,13.3353488 17.226637,13.567518 Z M5.28022628,13.8693136 L5.28022628,9.97331455 L3.74256908,9.97331455 C3.72383707,9.97331455 3.70516494,9.97543879 3.6869074,9.97964691 C3.55293445,10.0105259 3.4692485,10.144652 3.4999896,10.2792259 L4.49648806,14.641553 L5.20188695,13.9373502 C5.22650637,13.9127725 5.25269289,13.8900561 5.28022628,13.8693136 L5.28022628,13.8693136 Z M4.90545045,16.4318495 L4.9477214,16.6168971 C4.98579654,16.6923183 5.0284895,16.7186983 5.08111944,16.7193146 L18.910883,16.7193594 C18.9699749,16.7187105 19.013434,16.6927775 19.0523836,16.6164372 L19.0787305,16.5010997 C19.0711137,16.439938 19.03679,16.3623799 18.9761996,16.2992741 L17.8206356,15.1716907 C15.9357438,14.8701595 13.9990435,14.7193146 12.0101974,14.7193146 C10.0195733,14.7193146 8.04389506,14.8704304 6.08283371,15.1726762 L4.970075,16.2833908 C4.93265003,16.3221632 4.91007257,16.374036 4.90545045,16.4318495 L4.90545045,16.4318495 Z M12.0000823,6.00466591 C11.5877185,6.00466591 11.2534317,5.66887948 11.2534317,5.25466591 C11.2534317,4.84045235 11.5877185,4.50466591 12.0000823,4.50466591 C12.4124461,4.50466591 12.746733,4.84045235 12.746733,5.25466591 C12.746733,5.66887948 12.4124461,6.00466591 12.0000823,6.00466591 Z M9.51124675,6.00466591 C9.09888297,6.00466591 8.76459608,5.66887948 8.76459608,5.25466591 C8.76459608,4.84045235 9.09888297,4.50466591 9.51124675,4.50466591 C9.92361053,4.50466591 10.2578974,4.84045235 10.2578974,5.25466591 C10.2578974,5.66887948 9.92361053,6.00466591 9.51124675,6.00466591 Z M14.4889179,6.00466591 C14.0765541,6.00466591 13.7422672,5.66887948 13.7422672,5.25466591 C13.7422672,4.84045235 14.0765541,4.50466591 14.4889179,4.50466591 C14.9012817,4.50466591 15.2355686,4.84045235 15.2355686,5.25466591 C15.2355686,5.66887948 14.9012817,6.00466591 14.4889179,6.00466591 Z M12.0000823,8.50866586 C11.5877185,8.50866586 11.2534317,8.17287943 11.2534317,7.75866586 C11.2534317,7.3444523 11.5877185,7.00866586 12.0000823,7.00866586 C12.4124461,7.00866586 12.746733,7.3444523 12.746733,7.75866586 C12.746733,8.17287943 12.4124461,8.50866586 12.0000823,8.50866586 Z M12.0000823,11.0086659 C11.5877185,11.0086659 11.2534317,10.6728794 11.2534317,10.2586659 C11.2534317,9.8444523 11.5877185,9.50866586 12.0000823,9.50866586 C12.4124461,9.50866586 12.746733,9.8444523 12.746733,10.2586659 C12.746733,10.6728794 12.4124461,11.0086659 12.0000823,11.0086659 Z M14.4889179,11.0086659 C14.0765541,11.0086659 13.7422672,10.6728794 13.7422672,10.2586659 C13.7422672,9.8444523 14.0765541,9.50866586 14.4889179,9.50866586 C14.9012817,9.50866586 15.2355686,9.8444523 15.2355686,10.2586659 C15.2355686,10.6728794 14.9012817,11.0086659 14.4889179,11.0086659 Z M9.51124675,11.0086659 C9.09888297,11.0086659 8.76459608,10.6728794 8.76459608,10.2586659 C8.76459608,9.8444523 9.09888297,9.50866586 9.51124675,9.50866586 C9.92361053,9.50866586 10.2578974,9.8444523 10.2578974,10.2586659 C10.2578974,10.6728794 9.92361053,11.0086659 9.51124675,11.0086659 Z M14.4889179,8.50866586 C14.0765541,8.50866586 13.7422672,8.17287943 13.7422672,7.75866586 C13.7422672,7.3444523 14.0765541,7.00866586 14.4889179,7.00866586 C14.9012817,7.00866586 15.2355686,7.3444523 15.2355686,7.75866586 C15.2355686,8.17287943 14.9012817,8.50866586 14.4889179,8.50866586 Z M9.51124675,8.50866586 C9.09888297,8.50866586 8.76459608,8.17287943 8.76459608,7.75866586 C8.76459608,7.3444523 9.09888297,7.00866586 9.51124675,7.00866586 C9.92361053,7.00866586 10.2578974,7.3444523 10.2578974,7.75866586 C10.2578974,8.17287943 9.92361053,8.50866586 9.51124675,8.50866586 Z"/>
</svg>
