<svg xmlns="http://www.w3.org/2000/svg" width="24" height="24" viewBox="0 0 24 24">
  <path d="M3122,59 C3122.55228,59 3123,59.4477153 3123,60 C3123,60.5128358 3122.61396,60.9355072 3122.11662,60.9932723 L3122,61 L3120,61 C3119.4713,61 3119.06223,61.3427473 3119.00648,61.750924 L3119,61.8461538 L3118.99938,71.0876646 C3119.29693,71.0299178 3119.60237,71 3119.91223,71 L3128.08869,71 C3128.39786,71 3128.70264,71.0297851 3128.99956,71.0872802 L3129,71 C3129,70.4477153 3129.44772,70 3130,70 C3130.51284,70 3130.93551,70.3860402 3130.99327,70.8833789 L3131,71 L3131.00025,71.9865485 C3131.5328,72.3941652 3131.98264,72.9157427 3132.31051,73.5277786 C3132.49402,73.8703241 3132.59004,74.252906 3132.59004,74.6415087 C3132.59004,75.9440675 3131.53411,77 3130.23155,77 L3124.99942,76.999 L3125.0006,78.0686865 C3126.61929,78.2969429 3127.91692,79.0929524 3128.82819,80.4395495 C3129.13772,80.8969451 3129.01785,81.5186597 3128.56045,81.828188 C3128.10305,82.1377162 3127.48134,82.017846 3127.17181,81.5604505 C3126.46109,80.5102034 3125.4379,79.9999798 3123.98927,80 C3122.5427,80.0000202 3121.52899,80.5082398 3120.83231,81.5543161 C3120.52617,82.0139861 3119.90535,82.1384466 3119.44568,81.8323063 C3118.98601,81.526166 3118.86155,80.905354 3119.16769,80.4456839 C3120.07084,79.0896025 3121.3707,78.2904964 3122.99937,78.0657955 L3122.99942,76.999 L3117.76937,77 C3117.38077,77 3116.99819,76.9039781 3116.65564,76.7204715 C3115.50746,76.1053754 3115.07531,74.6759581 3115.69041,73.5277786 C3116.01808,72.9161208 3116.46757,72.3948096 3116.99968,71.9873039 L3117,61.8461538 C3117,60.3124024 3118.26481,59.0901127 3119.82543,59.0047626 L3120,59 L3122,59 Z M3128.08869,73 L3119.91223,73 C3118.8839,73 3117.93897,73.5657691 3117.45337,74.4722214 C3117.35988,74.646745 3117.42556,74.8640168 3117.60009,74.9575116 C3117.65215,74.9854046 3117.71031,75 3117.76937,75 L3130.23155,75 C3130.42954,75 3130.59004,74.839498 3130.59004,74.6415087 C3130.59004,74.582441 3130.57545,74.5242884 3130.54755,74.4722214 C3130.06195,73.5657691 3129.11702,73 3128.08869,73 Z M3130.21428,58.7168749 C3130.2053,61.1070587 3131.29299,62.2378689 3133.79939,62.2858837 C3134.74427,62.3039848 3134.72811,63.7178156 3133.78306,63.7143053 C3131.44807,63.7056323 3130.33763,64.8375812 3130.21339,67.321388 C3130.1672,68.2449026 3128.79411,68.2168006 3128.78574,67.2921693 C3128.76357,64.8427942 3127.72026,63.7143103 3125.21429,63.7143103 C3124.26841,63.7143103 3124.25871,62.2987864 3125.2045,62.2858198 C3127.64872,62.2523098 3128.77709,61.1621254 3128.78571,58.7118428 C3128.78936,57.7592655 3130.21763,57.7645091 3130.21428,58.7168749 Z" transform="translate(-3112 -58)"/>
</svg>
