<svg xmlns="http://www.w3.org/2000/svg" width="25" height="25" viewBox="0 0 25 25">
  <path d="M14.5754162,20.1847804 L17.927839,22.2600897 C18.3974274,22.5507873 18.5424471,23.167121 18.2517495,23.6367095 C17.9610519,24.1062979 17.3447182,24.2513176 16.8751297,23.96062 L12.6755563,21.3608841 L8.47598294,23.96062 C8.00639446,24.2513176 7.3900608,24.1062979 7.09936318,23.6367095 C6.80866555,23.167121 6.95368523,22.5507873 7.42327371,22.2600897 L10.7756965,20.1847804 L9.45628889,19.3680042 L5.62835548,19.3679883 C4.82314947,19.3592858 4.10075879,18.868939 3.80305025,18.1284019 C3.53140758,17.4638177 3.63700926,16.7131846 4.06669509,16.1492085 L2.14381178,11.3637334 C1.73198041,10.3388096 2.22898999,9.17408946 3.25391374,8.76225809 C3.49098309,8.66699969 3.74410864,8.61804671 3.9996004,8.61804671 L5.67568909,8.61804671 L5.67568909,4.81520083 C5.67568909,3.24352879 6.89463162,1.88954873 8.50902243,1.88954873 L16.8423558,1.88954873 C18.4567466,1.88954873 19.6756891,3.24352879 19.6756891,4.81520083 L19.6756891,8.61804671 L21.3515123,8.61804671 C21.607004,8.61804671 21.8601296,8.66699969 22.0971989,8.76225809 C23.1221227,9.17408946 23.6191323,10.3388096 23.2073009,11.3637334 L21.2692762,16.1868908 C21.6746458,16.7443917 21.7705718,17.4770203 21.5064895,18.1230694 C21.2066192,18.8689393 20.484228,19.3592866 19.6682154,19.3680467 L15.8947805,19.368031 L14.5754162,20.1847804 Z M19.7457452,14.6143155 L21.3515123,10.6180467 L19.6756891,10.6180467 L19.6756891,14.5585512 C19.699809,14.5760452 19.7231876,14.5946469 19.7457452,14.6143155 Z M17.6756891,4.81520083 C17.6756891,4.30397729 17.3025931,3.88954873 16.8423558,3.88954873 L8.50902243,3.88954873 C8.04878513,3.88954873 7.67568909,4.30397729 7.67568909,4.81520083 L7.67568909,14.160658 C9.33543373,13.965599 10.9955057,13.8680467 12.6557123,13.8680467 C14.3292405,13.8680467 16.0026319,13.9671708 17.6756891,14.1653723 L17.6756891,4.81520083 Z M5.67568909,14.5310272 L5.67568909,10.6180467 L3.9996004,10.6180467 L5.59536657,14.5894262 C5.62120611,14.5686017 5.64801678,14.5491167 5.67568909,14.5310272 Z M19.6513185,17.3623527 L18.6101437,16.3069914 C16.6248679,16.0143315 14.6401843,15.8680467 12.6557123,15.8680467 C10.6709509,15.8680467 8.68597774,16.0143741 6.70041223,16.3071195 L5.65809831,17.3602802 C5.65559313,17.3628343 5.65428268,17.3650414 5.65425188,17.3680467 L19.6537295,17.3681051 C19.6537163,17.3659561 19.6528807,17.3639493 19.6513185,17.3623527 Z M12.0119524,11.2262768 C11.6604806,11.5777487 11.0906321,11.5777487 10.7391602,11.2262768 C10.3876884,10.874805 10.3876884,10.3049565 10.7391602,9.95348464 C11.0906321,9.60201277 11.6604806,9.60201277 12.0119524,9.95348464 C12.3634243,10.3049565 12.3634243,10.874805 12.0119524,11.2262768 Z M14.6119524,11.2262768 C14.2604806,11.5777487 13.6906321,11.5777487 13.3391602,11.2262768 C12.9876884,10.874805 12.9876884,10.3049565 13.3391602,9.95348464 C13.6906321,9.60201277 14.2604806,9.60201277 14.6119524,9.95348464 C14.9634243,10.3049565 14.9634243,10.874805 14.6119524,11.2262768 Z M14.6119524,8.12627684 C14.2604806,8.47774871 13.6906321,8.47774871 13.3391602,8.12627684 C12.9876884,7.77480498 12.9876884,7.2049565 13.3391602,6.85348464 C13.6906321,6.50201277 14.2604806,6.50201277 14.6119524,6.85348464 C14.9634243,7.2049565 14.9634243,7.77480498 14.6119524,8.12627684 Z M12.0119524,8.12627684 C11.6604806,8.47774871 11.0906321,8.47774871 10.7391602,8.12627684 C10.3876884,7.77480498 10.3876884,7.2049565 10.7391602,6.85348464 C11.0906321,6.50201277 11.6604806,6.50201277 12.0119524,6.85348464 C12.3634243,7.2049565 12.3634243,7.77480498 12.0119524,8.12627684 Z"/>
</svg>
