<svg xmlns="http://www.w3.org/2000/svg" width="24" height="24" viewBox="0 0 24 24">
  <path d="M2482,74 C2483.58121,74 2484.90248,75.1675128 2484.99484,76.6770607 L2485,76.8461538 L2485.00025,86.9865485 C2485.5328,87.3941652 2485.98264,87.9157427 2486.31051,88.5277786 C2486.49402,88.8703241 2486.59004,89.252906 2486.59004,89.6415087 C2486.59004,90.9440675 2485.53411,92 2484.23155,92 L2478.99942,92 L2479.00113,95.7880356 C2480.41208,95.8992799 2481.53683,96.2556906 2482.37141,96.8723248 C2482.82937,97.2106967 2482.62878,97.9157801 2482.09718,97.9930784 L2482,98 L2474,98 C2473.39952,98 2473.14455,97.2356992 2473.62476,96.8751801 C2474.4527,96.253605 2475.5785,95.8960363 2476.99814,95.7864748 L2476.99942,92 L2471.76937,92 C2471.38077,92 2470.99819,91.9039781 2470.65564,91.7204715 C2469.50746,91.1053754 2469.07531,89.6759581 2469.69041,88.5277786 C2470.01808,87.9161208 2470.46757,87.3948096 2470.99968,86.9873039 L2471,76.8461538 C2471,75.3124024 2472.26481,74.0901127 2473.82543,74.0047626 L2474,74 L2482,74 Z M2482.08869,88 L2473.91223,88 C2472.8839,88 2471.93897,88.5657691 2471.45337,89.4722214 C2471.35988,89.646745 2471.42556,89.8640168 2471.60009,89.9575116 C2471.65215,89.9854046 2471.71031,90 2471.76937,90 L2484.23155,90 C2484.42954,90 2484.59004,89.839498 2484.59004,89.6415087 C2484.59004,89.582441 2484.57545,89.5242884 2484.54755,89.4722214 C2484.06195,88.5657691 2483.11702,88 2482.08869,88 Z M2482,76 L2474,76 C2473.4713,76 2473.06223,76.3427473 2473.00648,76.750924 L2473,76.8461538 L2472.99938,86.0876646 C2473.29693,86.0299178 2473.60237,86 2473.91223,86 L2482.08869,86 C2482.39786,86 2482.70264,86.0297851 2482.99956,86.0872802 L2483,76.8461538 C2483,76.429552 2482.62869,76.0570475 2482.11978,76.005958 L2482,76 Z" transform="translate(-2466 -74)"/>
</svg>
