<svg xmlns="http://www.w3.org/2000/svg" width="25" height="25" viewBox="0 0 25 25">
  <path d="M11.9983049,20.8304051 L11.9996361,18.9999658 L6.05306726,18.9999402 C5.2221213,18.9908552 4.53476283,18.374342 4.23682326,17.6246243 C4.01239661,17.0691794 4.04834724,16.3630543 4.32301808,15.7960842 L2.9679872,10.2921122 C2.92947019,10.1356608 2.91,9.97512818 2.91,9.81400524 C2.91,8.70943574 3.8054305,7.81400524 4.91,7.81400524 L6.5,7.81400524 L6.5,3.84615385 C6.5,2.27582043 7.76696057,1 9.33333333,1 L16.6666667,1 C18.2330394,1 19.5,2.27582043 19.5,3.84615385 L19.5,7.81400524 L21.0978598,7.81400524 C22.2024293,7.81400524 23.0978598,8.70943574 23.0978598,9.81400524 C23.0978598,9.97512818 23.0783896,10.1356608 23.0398726,10.2921122 L21.6832996,15.8023481 L21.6818395,15.8082042 C21.9480535,16.3680293 21.9832924,17.0699378 21.7612992,17.6193275 C21.4612369,18.3743424 20.7738782,18.990856 19.932,19 L13.9996366,18.9999745 L13.9983134,20.8193776 C15.6534613,21.0664233 16.9658978,21.9707692 17.8617811,23.4927192 C18.1419443,23.9686678 17.9832289,24.5816175 17.5072803,24.8617806 C17.0313318,25.1419438 16.4183821,24.9832284 16.1382189,24.5072799 C15.4355911,23.3136373 14.4423366,22.75 13.035,22.75 C11.6210242,22.75 10.5974224,23.3207815 9.84999676,24.5267875 C9.55905982,24.9962277 8.94265232,25.1409332 8.47321208,24.8499963 C8.00377183,24.5590594 7.85906631,23.9426519 8.15000324,23.4732116 C9.07263736,21.9844987 10.377157,21.0912881 11.9983049,20.8304051 L11.9983049,20.8304051 Z M19.5,9.81400524 L19.5,13.4824557 C19.5221125,13.5009239 19.5435002,13.5204093 19.5640894,13.5408816 L20.0591349,14.0331803 L21.0978598,9.81400524 L19.5,9.81400524 L19.5,9.81400524 Z M17.5,13.25 L17.5,3.84615385 C17.5,3.37728203 17.125338,3 16.6666667,3 L9.33333333,3 C8.87466202,3 8.5,3.37728203 8.5,3.84615385 L8.5,13.25 L17.5,13.25 Z M6.5,13.4824558 L6.5,9.81400524 L4.91,9.81400524 L5.94694793,14.0259627 L6.43671597,13.5400817 C6.45705759,13.5199015 6.47817582,13.5006832 6.5,13.4824558 L6.5,13.4824558 Z M19.9139105,16.7091184 L18.4464543,15.25 L7.55283691,15.25 L6.09494325,16.6961016 C6.10620027,16.6844914 6.07989969,16.8474658 6.09329927,16.8806725 C6.12159435,16.9518684 6.17278572,16.9988757 6.07168177,17 L19.9144887,17.0000597 C19.8230884,16.9989895 19.8744184,16.9518369 19.9048232,16.8753757 C19.9161003,16.8474656 19.8897998,16.6844916 19.9139105,16.7091184 Z"/>
</svg>
