<?xml version="1.0" encoding="UTF-8"?>
<svg width="24px" height="24px" viewBox="0 0 24 24" version="1.1" xmlns="http://www.w3.org/2000/svg" xmlns:xlink="http://www.w3.org/1999/xlink">
    <title>chair-return-g</title>
    <g id="Icons" stroke="none" stroke-width="1" fill="none" fill-rule="evenodd">
        <g transform="translate(-2466, -46)" fill="#000000" fill-rule="nonzero" id="Shape">
            <path d="M2482.95,48 C2484.60685,48 2485.95,49.3431458 2485.94887,51.0474994 L2485.76073,54.5 L2487.52792,54.5 C2488.35635,54.5 2489,55.1715729 2489,56 C2489,56.2925665 2488.94237,56.5787467 2488.78179,56.8233052 L2485.07081,61.9755732 C2484.55916,62.8914148 2483.58128,63.5115701 2482.4577,63.5145663 L2478.94973,63.521 L2478.95065,66.089786 C2480.39605,66.3633164 2481.74367,67.2565003 2482.20274,68.6962102 C2482.37052,69.2223935 2482.07997,69.7849606 2481.55379,69.9527391 C2481.06519,70.1085334 2480.54522,69.869141 2480.3391,69.4128555 L2480.29726,69.3037898 C2480.05154,68.5331506 2478.99001,68 2478,68 C2477.06801,68 2476.07295,68.4721636 2475.75442,69.1701344 L2475.7028,69.30359 C2475.53513,69.8298084 2474.97263,70.1204709 2474.44641,69.9528028 C2473.92019,69.7851347 2473.62953,69.2226285 2473.7972,68.69641 C2474.24545,67.2896027 2475.54202,66.4047147 2476.9495,66.1096584 L2476.94973,63.526 L2473.45775,63.5335189 C2472.27843,63.5363615 2471.25629,62.8584557 2470.76392,61.8860903 L2467.22741,56.8427706 C2467.07604,56.6522127 2467,56.3307429 2467,56 C2467,55.1715729 2467.6383,54.5 2468.46673,54.5 L2470.13873,54.5 L2469.95,51 C2469.95,49.3431458 2471.29315,48 2472.95,48 C2473.50228,48 2473.95,48.4477153 2473.95,49 C2473.95,49.5128358 2473.56396,49.9355072 2473.06662,49.9932723 L2472.95,50 C2472.39772,50 2471.95,50.4477153 2471.94888,50.9526086 L2472.45,60.5359031 C2472.4503,60.6496135 2472.46958,60.7588449 2472.50481,60.86061 L2472.55283,60.975448 C2472.71649,61.3068641 2473.05832,61.5344691 2473.45297,61.5335157 L2482.45267,61.5145727 C2482.96716,61.5132007 2483.39005,61.1234762 2483.44507,60.5847188 L2483.95,51 C2483.95,50.4871642 2483.56396,50.0644928 2483.06662,50.0067277 L2482.95,50 C2482.39772,50 2481.95,49.5522847 2481.95,49 C2481.95,48.4477153 2482.39772,48 2482.95,48 Z M2486.60021,56.5 L2485.66473,56.5 L2485.59173,58.036 L2486.60021,56.5 Z M2470.23373,56.5 L2469.37717,56.5 L2470.30273,57.948 L2470.23373,56.5 Z M2477.95,45.9999745 C2478.50201,46.0022619 2478.94767,46.4515922 2478.94541,47.0036057 L2478.94654,53.5184713 L2480.25074,52.2142701 C2480.64108,51.8239341 2481.27393,51.8239342 2481.66427,52.2142701 C2482.05461,52.604606 2482.05461,53.2374649 2481.66427,53.6278009 L2478.65676,56.6353066 C2478.56329,56.7265479 2478.45284,56.7985829 2478.33165,56.8473363 C2478.08724,56.9483147 2477.81276,56.9483147 2477.56835,56.8473357 C2477.44716,56.7985822 2477.33671,56.7265472 2477.24324,56.6353064 L2474.23573,53.6278007 C2473.84539,53.2374648 2473.84539,52.6046059 2474.23573,52.2142699 C2474.62607,51.823934 2475.25892,51.8239341 2475.64926,52.21427 L2476.95346,53.5184712 L2476.9382,46.9954095 C2476.94046,46.4433977 2477.38979,45.9977369 2477.95,45.9999745 Z"></path>
        </g>
    </g>
</svg>