<svg xmlns="http://www.w3.org/2000/svg" width="24" height="24" viewBox="0 0 24 24">
  <path d="M2482,74 C2483.58121,74 2484.90248,75.1675128 2484.99484,76.6770607 L2485,76.8461538 L2485.00025,86.4865485 C2485.5328,86.8941652 2485.98264,87.4157427 2486.31051,88.0277786 C2486.49402,88.3703241 2486.59004,88.752906 2486.59004,89.1415087 C2486.59004,90.4440675 2485.53411,91.5 2484.23155,91.5 L2478.99942,91.5 L2479.0006,94.0686865 C2480.61929,94.2969429 2481.91692,95.0929524 2482.82819,96.4395495 C2483.13772,96.8969451 2483.01785,97.5186597 2482.56045,97.828188 C2482.10305,98.1377162 2481.48134,98.017846 2481.17181,97.5604505 C2480.46109,96.5102034 2479.4379,95.9999798 2477.98927,96 C2476.5427,96.0000202 2475.52899,96.5082398 2474.83231,97.5543161 C2474.52617,98.0139861 2473.90535,98.1384466 2473.44568,97.8323063 C2472.98601,97.526166 2472.86155,96.905354 2473.16769,96.4456839 C2474.07084,95.0896025 2475.3707,94.2904964 2476.99937,94.0657955 L2476.99942,91.5 L2471.76937,91.5 C2471.38077,91.5 2470.99819,91.4039781 2470.65564,91.2204715 C2469.50746,90.6053754 2469.07531,89.1759581 2469.69041,88.0277786 C2470.01808,87.4161208 2470.46757,86.8948096 2470.99968,86.4873039 L2471,76.8461538 C2471,75.3124024 2472.26481,74.0901127 2473.82543,74.0047626 L2474,74 L2482,74 Z M2482.08869,87.5 L2473.91223,87.5 C2472.8839,87.5 2471.93897,88.0657691 2471.45337,88.9722214 C2471.35988,89.146745 2471.42556,89.3640168 2471.60009,89.4575116 C2471.65215,89.4854046 2471.71031,89.5 2471.76937,89.5 L2484.23155,89.5 C2484.42954,89.5 2484.59004,89.339498 2484.59004,89.1415087 C2484.59004,89.082441 2484.57545,89.0242884 2484.54755,88.9722214 C2484.06195,88.0657691 2483.11702,87.5 2482.08869,87.5 Z M2482,76 L2474,76 C2473.4713,76 2473.06223,76.3427473 2473.00648,76.750924 L2473,76.8461538 L2472.99938,85.5876646 C2473.29693,85.5299178 2473.60237,85.5 2473.91223,85.5 L2482.08869,85.5 C2482.39786,85.5 2482.70264,85.5297851 2482.99956,85.5872802 L2483,76.8461538 C2483,76.429552 2482.62869,76.0570475 2482.11978,76.005958 L2482,76 Z" transform="translate(-2466 -74)"/>
</svg>
