<svg xmlns="http://www.w3.org/2000/svg" width="24" height="24" viewBox="0 0 24 24">
  <path d="M8.21695155,3.52914078 L8.54034119,4.49931759 L14.9587098,4.50000189 L15.9594407,1.49997629 L7.54056888,1.49997629 L8.20601201,3.4963219 C8.20990265,3.50714832 8.21355133,3.51809012 8.21695155,3.52914078 Z M6.95943083,4.50000188 L3.50000003,4.50000188 C3.08578656,4.5000019 2.75,4.83578845 2.75,5.25000188 L2.75,21.7500018 C2.75000006,22.1642155 3.08578652,22.500002 3.5,22.5000019 L20.0000002,22.5000019 C20.4142135,22.500002 20.75,22.1642155 20.75,21.7500019 L20.75,5.25000194 C20.75,4.83578866 20.4142133,4.50000199 20,4.50000188 L16.5405696,4.50000188 L16.3825125,4.97417281 C16.1777856,5.58687975 15.604755,5.99975194 14.9590001,6.00000183 L8.54071044,6.00000177 C7.89524628,5.99975252 7.32221449,5.58687973 7.11748759,4.97417266 L6.95943083,4.50000188 Z M17.0405698,3.00000188 L20.0000002,3.00000188 C21.2426406,3.00000222 22.2499999,4.00736156 22.25,5.25000188 L22.25,21.7500019 C22.2499999,22.9926427 21.2426404,24.0000023 20,24.0000019 L3.50000021,24.0000019 C2.25735957,24.0000022 1.25000019,22.9926428 1.25,21.7500019 L1.25,5.25000188 C1.25,4.00736133 2.25735942,3.00000194 3.5,3.00000188 L6.45943134,3.00000188 L6.11787163,1.97532168 C5.85480626,1.19035439 6.27789105,0.340756958 7.062858,0.0776914991 C7.21755201,0.0258489781 7.3796725,-0.000391794284 7.54100007,2.25871274e-06 L15.9571778,4.47247189e-06 C16.7850501,-0.00200696947 17.4578045,0.667485683 17.4598158,1.49535803 C17.4602122,1.65850737 17.4339715,1.82062669 17.3825129,1.97417319 L17.0405698,3.00000188 Z M8.25000007,9.75100188 C7.8357865,9.75100188 7.50000007,9.41521544 7.50000007,9.00100188 C7.50000007,8.58678832 7.8357865,8.25100188 8.25000007,8.25100188 L13.2500001,8.25100188 C13.6642136,8.25100188 14.0000001,8.58678832 14.0000001,9.00100188 C14.0000001,9.41521544 13.6642136,9.75100188 13.2500001,9.75100188 L8.25000007,9.75100188 Z M8.25000007,12.7510019 C7.8357865,12.7510019 7.50000007,12.4152154 7.50000007,12.0010019 C7.50000007,11.5867883 7.8357865,11.2510019 8.25000007,11.2510019 L13.2500001,11.2510019 C13.6642136,11.2510019 14.0000001,11.5867883 14.0000001,12.0010019 C14.0000001,12.4152154 13.6642136,12.7510019 13.2500001,12.7510019 L8.25000007,12.7510019 Z M8.25000007,15.7510019 C7.8357865,15.7510019 7.50000007,15.4152154 7.50000007,15.0010019 C7.50000007,14.5867883 7.8357865,14.2510019 8.25000007,14.2510019 L9.75000007,14.2510019 C10.1642136,14.2510019 10.5000001,14.5867883 10.5000001,15.0010019 C10.5000001,15.4152154 10.1642136,15.7510019 9.75000007,15.7510019 L8.25000007,15.7510019 Z M4.24205176,6.75000188 C4.24205176,6.33578832 4.5778382,6.00000188 4.99205176,6.00000188 C5.40626533,6.00000188 5.74205176,6.33578832 5.74205176,6.75000188 L5.74205176,19.2501136 C5.74205176,19.3881848 5.85398058,19.5001136 5.99205176,19.5001136 L17.5000001,19.5001136 C17.6380713,19.5001136 17.7500001,19.3881848 17.7500001,19.2501136 L17.7500001,6.75000188 C17.7500001,6.33578832 18.0857865,6.00000188 18.5000001,6.00000188 C18.9142136,6.00000188 19.2500001,6.33578832 19.2500001,6.75000188 L19.2500001,19.2501136 C19.2500001,20.2166119 18.4664984,21.0001136 17.5000001,21.0001136 L5.99205176,21.0001136 C5.02555345,21.0001136 4.24205176,20.2166119 4.24205176,19.2501136 L4.24205176,6.75000188 Z"/>
</svg>
