<?xml version="1.0" encoding="UTF-8"?>
<svg width="24px" height="24px" viewBox="0 0 24 24" version="1.1" xmlns="http://www.w3.org/2000/svg" xmlns:xlink="http://www.w3.org/1999/xlink">
    <!-- Generator: Sketch 54.1 (76490) - https://sketchapp.com -->
    <title>bell copy 29</title>
    <desc>Created with Sketch.</desc>
    <g id="Icons" stroke="none" stroke-width="1" fill="none" fill-rule="evenodd">
        <path d="M6.8855015,11.3248413 L11.4221746,15.3615144 L21.9024351,2.04368659 C22.1527464,1.71366062 22.6232027,1.64903909 22.9532287,1.89935037 C23.2832546,2.14966165 23.3478762,2.62011794 23.0975649,2.95014391 L12.0975649,16.9532287 C11.8227366,17.3155794 11.2912509,17.3519111 10.9696699,17.0303301 L5.82484133,12.3855015 C5.53194811,12.0926083 5.53194811,11.6177345 5.82484133,11.3248413 C6.11773454,11.0319481 6.59260828,11.0319481 6.8855015,11.3248413 Z M16.8391392,3.97268103 C17.1867405,4.19795023 17.2859102,4.66235353 17.060641,5.00995483 C16.8353718,5.35755612 16.3709685,5.45672588 16.0233672,5.23145668 C15.9525881,5.18558698 15.8811869,5.14068707 15.8091836,5.09677099 C15.5212655,4.92116473 15.2239338,4.76141964 14.9184534,4.61834055 C13.7029568,4.04903367 12.3734007,3.75 11,3.75 C5.89136606,3.75 1.75,7.89136606 1.75,13 C1.75,18.1086339 5.89136606,22.25 11,22.25 C16.1086339,22.25 20.25,18.1086339 20.25,13 C20.25,12.4581499 20.2034919,11.9225549 20.1117479,11.3971087 C20.0655131,11.1323083 20.0078278,10.8703146 19.938917,10.6116822 C19.8322731,10.2114324 20.0702879,9.80051382 20.4705377,9.69386998 C20.8707876,9.58722615 21.2817062,9.82524088 21.38835,10.2254908 C21.4685189,10.5263762 21.5356213,10.8311402 21.5893933,11.1391086 C21.6959964,11.7496571 21.75,12.371572 21.75,13 C21.75,18.9370611 16.9370611,23.75 11,23.75 C5.06293894,23.75 0.25,18.9370611 0.25,13 C0.25,7.06293894 5.06293894,2.25 11,2.25 C12.594441,2.25 14.141073,2.59785673 15.5546853,3.25995589 C15.9098994,3.4263289 16.2555759,3.61204779 16.5902454,3.81616862 C16.6739212,3.86720393 16.7568934,3.91938019 16.8391392,3.97268103 Z" id="Shape" fill="#000000" fill-rule="nonzero"></path>
    </g>
</svg>