<svg xmlns="http://www.w3.org/2000/svg" width="24" height="24" viewBox="0 0 24 24">
  <path d="M6.78033009,10.2196699 L11.4352274,14.8745672 L22.4123285,1.03093007 C22.669685,0.706368053 23.1414232,0.65188722 23.4659852,0.909243726 C23.7905472,1.16660023 23.845028,1.6383384 23.5876715,1.96290042 L12.0876715,16.4659852 C11.8091331,16.8172606 11.28667,16.8473301 10.9696699,16.5303301 L5.71966991,11.2803301 C5.4267767,10.9874369 5.4267767,10.5125631 5.71966991,10.2196699 C6.01256313,9.9267767 6.48743687,9.9267767 6.78033009,10.2196699 Z M15.1149898,2.56593654 C15.4976125,2.72459571 15.6791708,3.16339138 15.5205116,3.5460141 C15.3618524,3.92863681 14.9230568,4.11019513 14.5404341,3.95153595 C13.428353,3.490398 12.2315802,3.25 11,3.25 C5.89136606,3.25 1.75,7.39136606 1.75,12.5 C1.75,17.6086339 5.89136606,21.75 11,21.75 C16.1086339,21.75 20.25,17.6086339 20.25,12.5 C20.25,12.0857864 20.5857864,11.75 21,11.75 C21.4142136,11.75 21.75,12.0857864 21.75,12.5 C21.75,18.4370611 16.9370611,23.25 11,23.25 C5.06293894,23.25 0.25,18.4370611 0.25,12.5 C0.25,6.56293894 5.06293894,1.75 11,1.75 C12.4296264,1.75 13.8215609,2.02960048 15.1149898,2.56593654 Z"/>
</svg>
