<svg xmlns="http://www.w3.org/2000/svg" width="24" height="25" viewBox="0 0 24 25">
  <path d="M18.7049918,8.19043479 L18.7049917,8.19043476 C18.3160717,7.79831276 17.6829117,7.79571676 17.2907917,8.1846365 C17.2888511,8.18656134 17.2869183,8.18849413 17.2849934,8.19043482 L9.83499342,15.6504348 L6.70499342,12.5104348 L6.70499341,12.5104348 C6.29906441,12.1183128 5.65211341,12.1295058 5.25999341,12.5354348 C4.86787141,12.9413638 4.87906441,13.5883148 5.28499341,13.9804348 C5.28499342,13.9804348 5.28499342,13.9804348 5.28499343,13.9804348 L9.12499343,17.8204348 L9.1249934,17.8204348 C9.5139134,18.2125568 10.1470734,18.2151528 10.5391934,17.8262332 C10.5411341,17.8243083 10.5430669,17.8223756 10.5449917,17.8204349 L18.7049917,9.66043486 L18.7049917,9.66043486 C19.1109207,9.28594886 19.1364107,8.65329486 18.7619247,8.24736486 C18.7437191,8.22763056 18.724726,8.20863756 18.7049918,8.19043196 L18.7049918,8.19043479 Z"/>
</svg>
