<svg xmlns="http://www.w3.org/2000/svg" width="24" height="25" viewBox="0 0 24 25">
  <path fill-rule="evenodd" d="M12,22 C6.75329488,22 2.5,17.7467051 2.5,12.5 C2.5,7.25329488 6.75329488,3 12,3 C17.2467051,3 21.5,7.25329488 21.5,12.5 C21.5,17.7467051 17.2467051,22 12,22 Z M8.95873342,12.2575897 C8.56910956,11.866167 7.93594626,11.8647088 7.54452361,12.2543327 C7.15310096,12.6439565 7.15164275,13.2771198 7.54126661,13.6685425 L10.066542,16.2054764 C10.4574355,16.5981745 11.0931153,16.5981745 11.4840088,16.2054764 L16.9587334,10.7054764 C17.3483573,10.3140538 17.3468991,9.68089045 16.9554764,9.29126659 C16.5640538,8.90164273 15.9308905,8.90310094 15.5412666,9.2945236 L10.7752754,14.0825181 L8.95873342,12.2575897 Z"/>
</svg>
