<svg xmlns="http://www.w3.org/2000/svg" width="24" height="24" viewBox="0 0 24 24">
  <path fill="#1D1D1D" fill-rule="evenodd" d="M11.99,2 C17.52,2 22,6.48 22,12 C22,17.52 17.52,22 11.99,22 C6.47,22 2,17.52 2,12 C2,6.48 6.47,2 11.99,2 Z M12,20 C16.42,20 20,16.42 20,12 C20,7.58 16.42,4 12,4 C7.58,4 4,7.58 4,12 C4,16.42 7.58,20 12,20 Z M15.6,13.63 L15.580003,13.6299998 C15.895514,13.8087878 16.0895054,14.1443778 16.08697,14.5070158 C16.08311,15.0592868 15.632271,15.503861 15.0799999,15.4999998 C14.9048239,15.5012098 14.7324029,15.4563802 14.5799999,15.3699998 L11.4799999,13.3699998 L11.3899999,13.2799998 L11.2299999,13.1499998 C11.1908992,13.1004958 11.1573641,13.0468394 11.1299998,12.9899997 C11.0974098,12.9363147 11.0705937,12.8793303 11.0499998,12.8199996 C11.0228,12.7564176 11.0059211,12.6889016 11,12.62 L11,12.5 L11,7.5 C11,6.947715 11.447715,6.5 12,6.5 C12.552285,6.5 13,6.947715 13,7.5 L13,11.92 L15.6,13.63 Z"/>
</svg>
