<svg xmlns="http://www.w3.org/2000/svg" width="24" height="24" viewBox="0 0 24 24">
  <path d="M4.40853374,20.0043945 C0.49252616,16.3786687 -0.289486501,10.3374988 2.80513247,5.79242224 C5.25510397,2.19414608 9.60129004,0.38545528 13.8806806,1.18326843 C14.2878781,1.25918288 14.5564362,1.65082256 14.4805217,2.05802014 C14.4046073,2.46521773 14.0129676,2.73377577 13.60577,2.65786132 C9.91167265,1.96916524 6.15991053,3.53048304 4.04501856,6.63662749 C1.40440377,10.5149067 2.03360152,15.6550869 5.31343566,18.7959094 L4.94090424,17.0432868 C4.8547844,16.6381248 5.11341917,16.2398622 5.51858117,16.1537424 C5.92374318,16.0676225 6.3220058,16.3262573 6.40812564,16.7314193 L7.14324198,20.1898698 C7.22936182,20.5950318 6.97072705,20.9932944 6.56556505,21.0794142 L6.34296673,21.126729 C6.29905385,21.1403509 6.25398006,21.149927 6.20835747,21.155341 L3.1071146,21.8145306 C2.7019526,21.9006504 2.30368997,21.6420156 2.21757013,21.2368536 C2.13145029,20.8316916 2.39008506,20.433429 2.79524706,20.3473092 L4.40853374,20.0043945 L4.40853374,20.0043945 Z M19.3054809,3.91264454 C23.2242097,7.53300042 24.0134258,13.57128 20.9257117,18.1192591 C18.4755349,21.7282012 14.1194143,23.541848 9.83201555,22.7380589 C9.42489487,22.6617331 9.15673264,22.2698223 9.23305845,21.8627016 C9.30938425,21.455581 9.70129506,21.1874187 10.1084157,21.2637445 C13.8093773,21.9575901 17.5696609,20.3920168 19.6846985,17.2767116 C22.3202378,13.3947531 21.6836345,8.25497644 18.3986503,5.11901674 L18.7716948,6.87405308 C18.8578146,7.27921508 18.5991798,7.6774777 18.1940178,7.76359755 C17.7888558,7.84971739 17.3905932,7.59108262 17.3044734,7.18592061 L16.569357,3.72747017 C16.4832372,3.32230817 16.7418719,2.92404554 17.147034,2.8379257 L17.3686145,2.7908273 C17.4125256,2.77720609 17.4575986,2.76762989 17.5032214,2.76221572 L20.6054844,2.10280936 C21.0106464,2.01668952 21.408909,2.27532429 21.4950289,2.6804863 C21.5811487,3.0856483 21.3225139,3.48391092 20.9173519,3.57003077 L19.3054809,3.91264454 Z M12.75,11.5 L17.25,11.5 C17.6642136,11.5 18,11.8357864 18,12.25 C18,12.6642136 17.6642136,13 17.25,13 L12,13 C11.5857864,13 11.25,12.6642136 11.25,12.25 L11.25,5.5 C11.25,5.08578644 11.5857864,4.75 12,4.75 C12.4142136,4.75 12.75,5.08578644 12.75,5.5 L12.75,11.5 Z"/>
</svg>
