<svg xmlns="http://www.w3.org/2000/svg" width="24" height="24" viewBox="0 0 24 24">
  <path d="M3.7941177,4.77941159 C3.37990413,4.77941159 3.0441177,4.44362515 3.0441177,4.02941159 C3.0441177,3.61519803 3.37990413,3.27941159 3.7941177,3.27941159 L8.2941177,3.27941159 C8.70833126,3.27941159 9.0441177,3.61519803 9.0441177,4.02941159 C9.0441177,4.44362515 8.70833126,4.77941159 8.2941177,4.77941159 L3.7941177,4.77941159 Z M3.7941177,7.22058806 C3.37990413,7.22058806 3.0441177,6.88480162 3.0441177,6.47058806 C3.0441177,6.0563745 3.37990413,5.72058806 3.7941177,5.72058806 L5.2941177,5.72058806 C5.70833126,5.72058806 6.0441177,6.0563745 6.0441177,6.47058806 C6.0441177,6.88480162 5.70833126,7.22058806 5.2941177,7.22058806 L3.7941177,7.22058806 Z M2.7089283,14.9117645 C3.12314186,14.9117645 3.4589283,15.247551 3.4589283,15.6617645 C3.4589283,16.0759781 3.12314186,16.4117645 2.7089283,16.4117645 L1.89705884,16.4117645 C0.849342255,16.4117645 0,15.5624223 0,14.5147057 L0,1.89705876 C-1.58200237e-07,0.849342284 0.849342263,1.42108547e-14 1.89705882,1.42108547e-14 L10.0252777,1.70870003e-08 C10.5280579,0.000107340681 11.0102331,0.199800682 11.4234713,0.619839217 L12.8892919,2.46920688 C13.146583,2.79382078 13.092007,3.26554796 12.7673931,3.52283901 C12.4427792,3.78013007 11.971052,3.72555411 11.713761,3.40094021 L10.3055456,1.61620573 C10.231111,1.54181884 10.1301903,1.50002245 10.0251176,1.5 L1.89705882,1.5 C1.67776937,1.5 1.49999997,1.67776938 1.5,1.89705865 L1.5,14.5147057 C1.5,14.7339951 1.67776939,14.9117645 1.89705887,14.9117645 L2.7089283,14.9117645 Z M7.35571235,7.35571235 C11.1633289,3.54809578 17.3366524,3.54809578 21.1442597,7.35571235 C24.9518762,11.1633289 24.9518762,17.3366524 21.1442597,21.1442597 C17.3366431,24.9518762 11.1633196,24.9518762 7.35571235,21.1442597 C3.54809578,17.3366431 3.54809578,11.1633196 7.35571235,7.35571235 Z M20.0836001,20.0835988 C23.3054294,16.8617774 23.3054294,11.6382024 20.0835988,8.41637187 C16.8617774,5.1945426 11.6382024,5.1945426 8.41637187,8.41637317 C5.1945426,11.6381946 5.1945426,16.8617696 8.41637317,20.0836001 C11.6381946,23.3054294 16.8617696,23.3054294 20.0836001,20.0835988 Z M13.7196557,14.7803321 C13.5839324,14.6446088 13.4999858,14.4571088 13.4999858,14.250002 L13.4999858,11.2142877 C13.4999858,10.8000742 13.8357723,10.4642877 14.2499858,10.4642877 C14.6641994,10.4642877 14.9999858,10.8000742 14.9999858,11.2142877 L14.9999858,13.9393419 L18.3173676,17.2567236 C18.6102608,17.5496168 18.6102608,18.0244905 18.3173676,18.3173838 C18.0244744,18.610277 17.5496006,18.610277 17.2567074,18.3173838 L13.7196557,14.7803321 L13.7196557,14.7803321 Z M14.25,8.5 C13.8357864,8.5 13.5,8.16421356 13.5,7.75 C13.5,7.33578644 13.8357864,7 14.25,7 C14.6642136,7 15,7.33578644 15,7.75 C15,8.16421356 14.6642136,8.5 14.25,8.5 Z M20.75,15 C20.3357864,15 20,14.6642136 20,14.25 C20,13.8357864 20.3357864,13.5 20.75,13.5 C21.1642136,13.5 21.5,13.8357864 21.5,14.25 C21.5,14.6642136 21.1642136,15 20.75,15 Z M7.75,15 C7.33578644,15 7,14.6642136 7,14.25 C7,13.8357864 7.33578644,13.5 7.75,13.5 C8.16421356,13.5 8.5,13.8357864 8.5,14.25 C8.5,14.6642136 8.16421356,15 7.75,15 Z M14.25,21.5 C13.8357864,21.5 13.5,21.1642136 13.5,20.75 C13.5,20.3357864 13.8357864,20 14.25,20 C14.6642136,20 15,20.3357864 15,20.75 C15,21.1642136 14.6642136,21.5 14.25,21.5 Z"/>
</svg>
