<svg xmlns="http://www.w3.org/2000/svg" width="24" height="24" viewBox="0 0 24 24">
  <path fill-rule="evenodd" d="M3.41048966,19.0571422 C1.42350483,18.3356218 0.00380825341,16.4438678 7.63414937e-06,14.2213443 C-0.00485856183,11.3732488 2.31727122,9.06049206 5.18663724,9.05565775 C6.24525435,9.05387572 7.27915927,9.37312587 8.14994752,9.97067079 C8.96481658,5.66427598 13.1424858,2.82893789 17.4810272,3.63776962 C17.8496235,3.7064868 18.2075224,3.79929669 18.5533815,3.91425032 L3.41048966,19.0571422 L3.41048966,19.0571422 Z M4.42753666,20.8685223 L22.0889522,3.20710678 C22.4794765,2.81658249 23.1126415,2.81658249 23.5031658,3.20710678 C23.89369,3.59763107 23.89369,4.23079605 23.5031658,4.62132034 L21.9707046,6.15378153 C23.5615466,7.9265876 24.3368647,10.3859458 23.861202,12.8997133 C23.2085968,16.3485855 20.3508941,18.9622012 16.8345969,19.3261707 C13.8462159,19.635496 11.5337833,19.4503793 8.7366638,19.3878223 L5.84175022,22.2827359 C5.45122593,22.6732602 4.81806095,22.6732602 4.42753666,22.2827359 C4.03701237,21.8922116 4.03701237,21.2590466 4.42753666,20.8685223 Z"/>
</svg>
