<svg xmlns="http://www.w3.org/2000/svg" width="24" height="24" viewBox="0 0 24 24">
  <path d="M5.75610227,10.5926849 C3.676486,10.5961886 1.99649135,12.2694004 2.00000554,14.3261889 C2.00352279,16.3830073 3.68925531,18.050585 5.77056619,18.0470828 L7.60229296,18.0470828 C8.48308107,18.0470828 9.18789769,18.0635679 10.5250628,18.1074119 C11.3928225,18.1358646 11.665675,18.1441807 12.0879779,18.1535096 C13.7025603,18.1891767 14.9540018,18.1549373 16.3287546,18.0126376 C19.113356,17.7244054 21.3743793,15.6564998 21.8902043,12.9304801 C22.5339985,9.52817671 20.2755575,6.24965305 16.8410032,5.60935111 C13.457169,4.97850489 10.1991442,7.14472986 9.48490567,10.4613408 C9.44205099,10.7510527 9.41995389,11.0432025 9.41884461,11.3344393 C9.41884457,11.5990575 9.43545126,11.8634149 9.46856678,12.1259527 C9.63542623,13.448804 7.65114939,13.6990933 7.48428976,12.376242 C7.46257165,12.2040623 7.44624828,12.0312881 7.43533646,11.8577237 C7.42798557,11.7410165 7.44430334,11.9138558 7.48428975,12.3762419 C7.46249827,12.2034804 7.44613804,12.0301203 7.43522514,11.8564085 C7.42436086,11.6831449 7.42228943,11.0946386 7.427794,10.9776406 C6.91022091,10.7245703 6.33837285,10.5917047 5.75610227,10.5926849 Z M17.2075467,3.64322652 C21.7269846,4.48578268 24.7054657,8.80957102 23.8553327,13.3023274 C23.1747161,16.8992336 20.1966232,19.6229628 16.534673,20.0020087 C15.0665769,20.1539704 13.7354249,20.1903906 12.0438074,20.1530218 C11.6116223,20.1434745 11.3350418,20.1350449 10.4595205,20.1063376 C9.14300576,20.0631708 8.45516868,20.0470828 7.60229296,20.0470828 L5.77224954,20.0470814 C2.5913897,20.0524359 0.00542025823,17.4943166 8.45759041e-06,14.3296076 C-0.00539871738,11.1648868 2.57184673,8.59804685 5.75273411,8.59268769 C6.46832446,8.59148309 7.17379903,8.7227058 7.83437577,8.97566818 C9.18978807,5.21401358 13.1314292,2.88331834 17.2075467,3.64322652 Z"/>
</svg>
