<svg xmlns="http://www.w3.org/2000/svg" width="24" height="24" viewBox="0 0 24 24">
  <path d="M10.9456524,17.604096 L15.6904372,17.6040914 C19.1709644,17.608244 21.9958466,14.7900911 21.9999954,11.3095626 C22.001484,10.0619058 21.6398809,8.8718073 20.9774623,7.85890777 L10.9456524,17.604096 Z M23.999994,11.3119477 C23.9945285,15.8970446 20.2731479,19.6095604 15.6892448,19.6040907 L8.88682748,19.6040959 L6.19678568,22.2172794 C5.80064322,22.6021035 5.16754473,22.5929281 4.78272062,22.1967857 C4.39789651,21.8006432 4.40707185,21.1675447 4.80321432,20.7827206 L22.3032143,3.78272062 C22.6993568,3.39789651 23.3324553,3.40707185 23.7172794,3.80321432 C24.1021035,4.19935678 24.0929281,4.83245527 23.6967857,5.21727938 L22.4322275,6.44570732 C23.4441658,7.84625991 24.0021116,9.53706143 23.999994,11.3119477 Z M9.41884461,11.3334788 C9.4188044,11.598418 9.43541116,11.8630973 9.46856676,12.1259525 L9.41884461,11.3334788 Z M7.48428975,12.3762419 C7.46249827,12.2034804 7.44613804,12.0301203 7.43533646,11.8577237 C7.42436086,11.6831449 7.41886025,11.5077666 7.41885385,11.3290017 C7.41986464,11.0673233 7.43348481,10.8059816 7.45962238,10.5458913 C5.2798071,9.6976099 3.27240124,10.5857037 2.35064505,12.5084659 C1.5012641,14.280255 2.24902241,16.4051241 4.02081528,17.2545068 C4.51883084,17.4932514 4.72901155,18.0905134 4.49026703,18.588529 C4.25152252,19.0865445 3.65426046,19.2967252 3.1562449,19.0579807 C0.388421574,17.7311093 -0.779699125,14.4117165 0.54717115,11.6438955 C1.86533489,8.89423631 4.80171537,7.53950391 7.85974054,8.56400693 C9.00770456,5.27100784 12.1325759,2.99574036 15.7078517,3.00000598 C16.5819561,3.00104792 17.4388332,3.13752528 18.255207,3.4015952 C18.7806849,3.57156992 19.0688772,4.13534567 18.8989024,4.66082358 C18.7289277,5.1863015 18.165152,5.47449378 17.6396741,5.30451906 C17.0207927,5.10433143 16.3707525,5.00079759 15.7054666,5.00000455 C12.7082837,4.99642865 10.1280807,7.10321132 9.52553872,10.030301 C9.54160196,10.0715324 9.54630777,10.114145 9.53761178,10.1577309 C9.46012083,10.5461296 9.42034272,10.9411171 9.41884461,11.3344393 C9.41884457,11.5990575 9.43545126,11.8634149 9.46856678,12.1259527 C9.63542623,13.448804 7.65114939,13.6990933 7.48428976,12.376242 C7.46257165,12.2040623 7.41884458,11.5085654 7.41885385,11.3290017 L7.48428975,12.3762419 Z"/>
</svg>
