<svg xmlns="http://www.w3.org/2000/svg" width="24" height="24" viewBox="0 0 24 24">
  <g fill="none" fill-rule="evenodd">
    <path fill="#000" fill-rule="nonzero" d="M14.657013,0.75 C14.657013,0.335786438 14.9927994,0 15.407013,0 C15.8212265,0 16.157013,0.335786438 16.157013,0.75 L16.157013,1.35 C16.157013,1.76421356 15.8212265,2.1 15.407013,2.1 C14.9927994,2.1 14.657013,1.76421356 14.657013,1.35 L14.657013,0.75 Z M10.9778498,2.40434704 C10.6838857,2.11252865 10.6821463,1.6376581 10.9739647,1.34369398 C11.265783,1.04972987 11.7406536,1.04799041 12.0346177,1.33980881 L12.7443099,2.04432073 C13.038274,2.33613912 13.0400134,2.81100967 12.748195,3.10497378 C12.4563766,3.3989379 11.9815061,3.40067735 11.687542,3.10885896 L10.9778498,2.40434704 Z M18.7794083,1.33980881 C19.0733724,1.04799041 19.5482429,1.04972987 19.8400613,1.34369398 C20.1318797,1.6376581 20.1301403,2.11252865 19.8361761,2.40434704 L19.126484,3.10885896 C18.8325199,3.40067735 18.3576493,3.3989379 18.0658309,3.10497378 C17.7740125,2.81100967 17.775752,2.33613912 18.0697161,2.04432073 L18.7794083,1.33980881 Z M13.8641849,8.7 L13.8641849,8.00988632 C13.0299926,7.46079134 12.5131044,6.52226489 12.514162,5.50113965 C12.515874,3.84428903 13.8604111,2.50253402 15.5172634,2.50425018 C17.1741172,2.50596219 18.5158671,3.85050158 18.5141591,5.50699331 C18.5136255,6.52615849 17.9969435,7.46227399 17.1641839,8.01006925 L17.164184,8.69999993 C17.1641841,9.11421352 16.8283976,9.45 16.414184,9.45 L14.6141849,9.45 C14.1999714,9.45 13.8641849,9.11421356 13.8641849,8.7 Z M15.3641849,7.95 L15.6641839,7.95 L15.6641839,7.56639967 C15.6641839,7.26804385 15.8410267,6.99806251 16.1145353,6.87885998 C16.6606364,6.64085418 17.0138474,6.10192294 17.0141596,5.50582739 C17.0150138,4.67737619 16.3441377,4.00510538 15.5157116,4.00424938 C14.6872848,4.0033913 14.0150172,4.67426785 14.0141612,5.50269147 C14.0135429,6.09969565 14.3670105,6.64022967 14.9141733,6.87902013 C15.1874996,6.99830401 15.3641849,7.26819033 15.3641849,7.56641155 L15.3641849,7.95 Z M14.65,11.35 C14.2357864,11.35 13.9,11.0142136 13.9,10.6 C13.9,10.1857864 14.2357864,9.85 14.65,9.85 L16.4,9.85 C16.8142136,9.85 17.15,10.1857864 17.15,10.6 C17.15,11.0142136 16.8142136,11.35 16.4,11.35 L14.65,11.35 Z M13.15,12.8333333 L13.15,14.4226731 L15.2696699,12.3030032 C15.4103222,12.1623509 15.6010877,12.0833333 15.8,12.0833333 L20.2,12.0833333 C20.5037565,12.0833333 20.75,11.8370898 20.75,11.5333333 L20.75,6.54999999 C20.75,6.24624349 20.5037565,5.99999999 20.2000001,6 C19.7857865,6.00000002 19.4500001,5.6642136 19.4500001,5.25000003 C19.45,4.83578647 19.7857865,4.50000002 20.2,4.5 C21.3321836,4.49999995 22.25,5.41781637 22.25,6.54999999 L22.25,11.5333333 C22.25,12.6655169 21.3321836,13.5833333 20.2,13.5833333 L16.1106602,13.5833333 L12.9303301,16.7636634 C12.4578565,17.236137 11.65,16.9015119 11.65,16.2333333 L11.65,13.5833333 L10.3,13.5833333 C9.16781636,13.5833333 8.25,12.6655169 8.25,11.5333333 L8.25,6.55000011 C8.24999983,5.41781659 9.16781637,4.5000002 10.3,4.5000002 C10.7142136,4.5000002 11.05,4.83578663 11.05,5.2500002 C11.05,5.66421376 10.7142136,6.0000002 10.3,6.0000002 C9.99624348,6.0000002 9.74999995,6.24624368 9.75,6.54999999 L9.75,11.5333333 C9.75,11.8370898 9.9962435,12.0833333 10.3000001,12.0833333 L12.4,12.0833333 C12.8142136,12.0833333 13.15,12.4191197 13.15,12.8333333 Z"/>
    <path fill="#000" fill-rule="nonzero" d="M20.0916749 19.4492251C21.7556966 19.9656785 23.1615 21.2375501 23.7792433 23.00899 23.9147927 23.3976914 23.7095725 23.8226806 23.3208711 23.95823 22.9321697 24.0937795 22.5071805 23.8885593 22.3716311 23.4998579 21.6087384 21.3121879 19.2168356 20.1571828 17.0291621 20.9200785 15.8207482 21.3414828 14.8707823 22.2914479 14.4493824 23.4998572 14.3138333 23.8885588 13.8888443 24.0937793 13.5001428 23.9582303 13.1114412 23.8226812 12.9062207 23.3976921 13.0417697 23.0089906 13.6129182 21.3711611 14.9004602 20.0836201 16.5382929 19.5124667 16.6022324 19.4901694 16.6663007 19.4690809 16.7304727 19.4491891 16.4078887 19.2814615 16.1051315 19.0622216 15.8343793 18.7914694 15.2676371 18.2247272 14.9114645 17.5004124 14.8024701 16.7226998 14.7453357 16.3150258 15.0295042 15.9382241 15.4371781 15.8810897 15.8448521 15.8239553 16.2216538 16.1081237 16.2787882 16.5157977 16.3432061 16.9754414 16.5527845 17.4016415 16.8884959 17.7373529 17.7294158 18.5782728 19.0928009 18.5782728 19.9337208 17.7373529 20.5267867 17.144287 20.7160016 16.2712984 20.4410098 15.494244 20.3036743 15.1061701 20.506938 14.6802416 20.8950119 14.5429061 21.2830858 14.4055706 21.7090143 14.6088343 21.8463498 14.9969082 22.3112658 16.3106385 21.9909876 17.7883192 20.9878374 18.7914694 20.7170659 19.062241 20.4142847 19.2814928 20.0916749 19.4492251L20.0916749 19.4492251zM3.75200626 19.4216368C3.42710273 19.2528115 3.12217305 19.0320639 2.84950317 18.759394 1.41757662 17.3274674 1.41757662 15.0058715 2.84950317 13.5739449 4.28142972 12.1420184 6.60302568 12.1420184 8.03495223 13.5739449 9.46687878 15.0058715 9.46687878 17.3274674 8.03495223 18.759394 7.76273679 19.0316094 7.45836901 19.2520755 7.13407348 19.4207923 8.80904505 19.9401688 10.2241992 21.2201553 10.8459529 23.0030955 10.9823438 23.3942098 10.7758496 23.8218372 10.3847353 23.9582281 9.99362099 24.094619 9.56599355 23.8881248 9.42960267 23.4970105 8.66197426 21.2957602 6.25522325 20.1335852 4.05396947 20.9012167 2.83805409 21.325237 1.88219113 22.2810992 1.45817533 23.4970099 1.32178481 23.8881243.894157548 24.0946189.503043114 23.9582283.11192868 23.8218378-.0945658509 23.3942105.0418246711 23.0030961.61651868 21.3550995 1.91205328 20.0595659 3.56005304 19.484867 3.623918 19.4625957 3.68791058 19.4415229 3.75200626 19.4216368L3.75200626 19.4216368zM6.97429206 14.6346051C6.12815194 13.788465 4.75630346 13.788465 3.91016334 14.6346051 3.06402323 15.4807452 3.06402323 16.8525937 3.91016334 17.6987338 4.75630346 18.5448739 6.12815194 18.5448739 6.97429206 17.6987338 7.82043217 16.8525937 7.82043217 15.4807452 6.97429206 14.6346051z"/>
  </g>
</svg>
