<svg xmlns="http://www.w3.org/2000/svg" width="24" height="24" viewBox="0 0 24 24">
  <path d="M14.6572168,0.75 C14.6572168,0.335786438 14.9930032,0 15.4072168,0 C15.8214304,0 16.1572168,0.335786438 16.1572168,0.75 L16.1572168,1.35 C16.1572168,1.76421356 15.8214304,2.1 15.4072168,2.1 C14.9930032,2.1 14.6572168,1.76421356 14.6572168,1.35 L14.6572168,0.75 Z M10.9780536,2.40434704 C10.6840895,2.11252865 10.6823501,1.6376581 10.9741685,1.34369398 C11.2659868,1.04972987 11.7408574,1.04799041 12.0348215,1.33980881 L12.7445137,2.04432073 C13.0384778,2.33613912 13.0402172,2.81100967 12.7483988,3.10497378 C12.4565804,3.3989379 11.9817099,3.40067735 11.6877458,3.10885896 L10.9780536,2.40434704 Z M18.7796121,1.33980881 C19.0735762,1.04799041 19.5484467,1.04972987 19.8402651,1.34369398 C20.1320835,1.6376581 20.1303441,2.11252865 19.8363799,2.40434704 L19.1266878,3.10885896 C18.8327237,3.40067735 18.3578531,3.3989379 18.0660347,3.10497378 C17.7742163,2.81100967 17.7759558,2.33613912 18.0699199,2.04432073 L18.7796121,1.33980881 Z M13.8643887,8.7 L13.8643887,8.00988632 C13.0301964,7.46079134 12.5133082,6.52226489 12.5143658,5.50113965 C12.5160778,3.84428903 13.8606149,2.50253402 15.5174672,2.50425018 C17.174321,2.50596219 18.5160709,3.85050158 18.5143629,5.50699331 C18.5138293,6.52615849 17.9971473,7.46227399 17.1643877,8.01006925 L17.1643878,8.69999993 C17.1643879,9.11421352 16.8286014,9.45 16.4143878,9.45 L14.6143887,9.45 C14.2001752,9.45 13.8643887,9.11421356 13.8643887,8.7 Z M15.3643887,7.95 L15.6643877,7.95 L15.6643877,7.56639967 C15.6643877,7.26804385 15.8412305,6.99806251 16.1147391,6.87885998 C16.6608402,6.64085418 17.0140512,6.10192294 17.0143634,5.50582739 C17.0152176,4.67737619 16.3443415,4.00510538 15.5159154,4.00424938 C14.6874886,4.0033913 14.015221,4.67426785 14.014365,5.50269147 C14.0137467,6.09969565 14.3672143,6.64022967 14.9143771,6.87902013 C15.1877034,6.99830401 15.3643887,7.26819033 15.3643887,7.56641155 L15.3643887,7.95 Z M14.6502038,11.35 C14.2359902,11.35 13.9002038,11.0142136 13.9002038,10.6 C13.9002038,10.1857864 14.2359902,9.85 14.6502038,9.85 L16.4002038,9.85 C16.8144174,9.85 17.1502038,10.1857864 17.1502038,10.6 C17.1502038,11.0142136 16.8144174,11.35 16.4002038,11.35 L14.6502038,11.35 Z M4.44008329,10.6561629 C6.68374778,10.8731595 8.33316494,12.8487329 8.15616851,15.0868419 C8.29613704,16.739423 7.73568527,18.3761737 6.61315882,19.5925043 C6.52953921,19.6844858 6.57164621,20.804532 6.56475538,20.8026387 C8.0387952,21.281101 9.47239025,21.8762309 10.8519389,22.5823792 C11.2206557,22.7711139 11.36656,23.2230177 11.1778252,23.5917345 C10.9890905,23.9604513 10.5371868,24.1063556 10.16847,23.9176208 C8.85983028,23.2477686 7.49992348,22.683229 6.07294711,22.2193961 C4.88107471,21.7784033 4.79044234,19.3675821 5.50704057,18.5793553 C6.35970513,17.6554144 6.77790219,16.4117078 6.65669701,15.1603028 L6.65668722,15.0157978 C6.79630647,13.5722345 5.73924969,12.2888112 4.29568203,12.1491961 C4.23291632,12.1431255 4.16995238,12.1393178 4.1437092,12.1377747 C2.6938463,12.1735672 1.54752477,13.3779208 1.58332117,14.8277836 C1.58487119,14.8905709 1.58867325,14.9532825 1.59471999,15.0157969 L1.59468575,15.1605644 C1.47305605,16.4118594 1.89125547,17.6555738 2.74815886,18.5835016 C3.46096523,19.3675886 3.37033286,21.7784098 2.17784571,22.2196297 L1.00984571,22.6506297 C0.621245156,22.794026 0.189976528,22.5952486 0.046580264,22.2066481 C-0.0968160002,21.8180475 0.101961347,21.3867789 0.490561896,21.2433826 L1.65794714,20.8126098 C1.67976136,20.8045385 1.72186836,19.6844924 1.64221545,19.59684 C0.515344269,18.3766127 -0.045296979,16.7394414 0.0952356511,15.0866375 C0.0894266557,15.0128134 0.0856058325,14.9388419 0.0837780872,14.8648046 C0.0275344675,12.5867669 1.82865148,10.6944691 4.14348783,10.6382261 C4.24253748,10.6406421 4.34146714,10.6466249 4.44008329,10.6561629 Z M22.3425297,14.3768448 C22.2708184,13.968886 22.5434008,13.5800366 22.9513596,13.5083253 C23.3593184,13.436614 23.7481678,13.7091964 23.8198791,14.1171552 C23.8760931,14.4369513 23.9039757,14.7610852 23.8997113,15.0116964 C24.0621013,16.6883684 23.5017901,18.3547217 22.3631596,19.5885032 C22.27954,19.6804848 22.321647,20.800531 22.3428464,20.8083751 L23.5108464,21.2393751 C23.899447,21.3827714 24.0982243,21.81404 23.9548281,22.2026406 C23.8114318,22.5912411 23.3801632,22.7900185 22.9915626,22.6466222 L21.8229479,22.215395 C20.6310755,21.7744023 20.5404431,19.3635811 21.2570411,18.5753545 C22.1097034,17.6514152 22.5278997,16.4077084 22.4032066,15.0822111 C22.4037698,14.8457618 22.3834653,14.6097238 22.3425297,14.3768448 Z M13.8420164,23.9120922 C13.47304,24.1003189 13.0213377,23.9537924 12.8331109,23.5848161 C12.6448841,23.2158397 12.7914107,22.7641373 13.160387,22.5759105 C14.5366503,21.8738343 15.9659452,21.2809803 17.4069351,20.812605 C17.4290342,20.8044283 17.4716713,19.6842841 17.4041769,19.6095021 C16.5793306,18.7569543 16.0627782,17.6533888 15.9364561,16.4738666 C15.8923477,16.0620082 16.190468,15.6923741 16.6023264,15.6482658 C17.0141848,15.6041574 17.3838189,15.9022777 17.4279272,16.314136 C17.5186662,17.1614039 17.8897117,17.9541075 18.4981468,18.5834968 C19.2109153,19.3675421 19.119146,21.7784696 17.8993088,22.2291785 C16.5048946,22.6830171 15.1482885,23.2457207 13.8420164,23.9120922 Z M13.1502038,12.8333333 L13.1502038,14.4226731 L15.2698737,12.3030032 C15.410526,12.1623509 15.6012915,12.0833333 15.8002038,12.0833333 L20.2002038,12.0833333 C20.5039603,12.0833333 20.7502038,11.8370898 20.7502038,11.5333333 L20.7502038,6.54999999 C20.7502038,6.24624349 20.5039603,5.99999999 20.2002039,6 C19.7859903,6.00000002 19.4502039,5.6642136 19.4502039,5.25000003 C19.4502038,4.83578647 19.7859903,4.50000002 20.2002038,4.5 C21.3323874,4.49999995 22.2502038,5.41781637 22.2502038,6.54999999 L22.2502038,11.5333333 C22.2502038,12.6655169 21.3323874,13.5833333 20.2002038,13.5833333 L16.110864,13.5833333 L12.9305339,16.7636634 C12.4580603,17.236137 11.6502038,16.9015119 11.6502038,16.2333333 L11.6502038,13.5833333 L10.3002038,13.5833333 C9.16802016,13.5833333 8.2502038,12.6655169 8.2502038,11.5333333 L8.2502038,6.55000011 C8.25020363,5.41781659 9.16802017,4.5000002 10.3002038,4.5000002 C10.7144174,4.5000002 11.0502038,4.83578663 11.0502038,5.2500002 C11.0502038,5.66421376 10.7144174,6.0000002 10.3002038,6.0000002 C9.99644728,6.0000002 9.75020375,6.24624368 9.7502038,6.54999999 L9.7502038,11.5333333 C9.7502038,11.8370898 9.9964473,12.0833333 10.3002039,12.0833333 L12.4002038,12.0833333 C12.8144174,12.0833333 13.1502038,12.4191197 13.1502038,12.8333333 Z"/>
</svg>
