<svg xmlns="http://www.w3.org/2000/svg" width="24" height="24" viewBox="0 0 24 24">
  <path d="M5,2 L19,2 C20.6568542,2 22,3.34314575 22,5 L22,19 C22,20.6568542 20.6568542,22 19,22 L5,22 C3.34314575,22 2,20.6568542 2,19 L2,5 C2,3.34314575 3.34314575,2 5,2 Z M5,4 C4.44771525,4 4,4.44771525 4,5 L4,19 C4,19.5522847 4.44771525,20 5,20 L19,20 C19.5522847,20 20,19.5522847 20,19 L20,5 C20,4.44771525 19.5522847,4 19,4 L5,4 Z M8,7.5 C8,6.94771525 8.44771525,6.5 9,6.5 C9.55228475,6.5 10,6.94771525 10,7.5 L10,16.5 C10,17.0522847 9.55228475,17.5 9,17.5 C8.44771525,17.5 8,17.0522847 8,16.5 L8,7.5 Z M14,7.5 C14,6.94771525 14.4477153,6.5 15,6.5 C15.5522847,6.5 16,6.94771525 16,7.5 L16,16.5 C16,17.0522847 15.5522847,17.5 15,17.5 C14.4477153,17.5 14,17.0522847 14,16.5 L14,7.5 Z"/>
</svg>
