<svg width="24" height="24" viewBox="0 0 24 24" xmlns="http://www.w3.org/2000/svg"><path d="M3544.39999,69.9066511 C3545.28365,69.9066511 3546,70.5888857 3546,71.4304629 C3545.99717,74.0305114 3544.38675,76.2724283 3542.0641,77.3031111 L3542.89443,78.9644378 C3543.14142,79.4584163 3542.94119,80.0590894 3542.44721,80.3060786 C3541.98852,80.5354258 3541.43783,80.3791653 3541.16374,79.9601654 L3541.10557,79.858865 L3540.10088,77.8493524 C3539.80582,77.8868471 3539.50478,77.9063458 3539.19902,77.9066511 L3528.80003,77.9066511 C3528.4947,77.9063503 3528.19407,77.8868987 3527.8994,77.8494894 L3526.89443,79.858865 C3526.64744,80.3528435 3526.04676,80.5530679 3525.55279,80.3060786 C3525.09409,80.0767314 3524.88869,79.5424222 3525.05944,79.0717557 L3525.10557,78.9644378 L3525.93656,77.303559 C3523.61374,76.2730336 3522.00283,74.0306365 3522,71.4294804 C3522,70.5888887 3522.71635,69.9066511 3523.60001,69.9066511 C3524.48367,69.9066511 3525.20002,70.5888887 3525.20002,71.4304673 C3525.2017,73.3235721 3526.81201,74.8572743 3528.799,74.8590263 L3539.19997,74.8590267 C3541.18786,74.8573464 3542.79822,73.3236826 3542.79998,71.4313059 C3542.79998,70.5888857 3543.51633,69.9066511 3544.39999,69.9066511 Z M3538.59252,59.9999181 C3540.46031,59.9994724 3542.1249,61.3151099 3542.5,63.1437322 L3542.5,67.40032 C3542.5,69.2500014 3540.80067,69.2500014 3540.80497,70.8154686 L3540.79998,71.0066613 C3540.7992,71.8895955 3540.0829,72.7492154 3539.19908,72.75 L3528.79993,72.75 C3527.96609,72.7492272 3527.28087,71.9669287 3527.20668,71.151464 C3527.20668,69.2500014 3525.55279,69.2500014 3525.5,67.4022853 L3525.5,63.3227899 C3525.78384,61.4771302 3527.36341,60.0979218 3529.21026,60.0049986 L3529.40925,59.9999181 L3538.59252,59.9999181 Z M3532,67.2500014 C3531.44772,67.2500014 3531,67.6977167 3531,68.2500014 C3531,68.8022862 3531.44772,69.2500014 3532,69.2500014 C3532.55228,69.2500014 3533,68.8022862 3533,68.2500014 C3533,67.6977167 3532.55228,67.2500014 3532,67.2500014 Z M3536,67.2500014 C3535.44772,67.2500014 3535,67.6977167 3535,68.2500014 C3535,68.8022862 3535.44772,69.2500014 3536,69.2500014 C3536.55228,69.2500014 3537,68.8022862 3537,68.2500014 C3537,67.6977167 3536.55228,67.2500014 3536,67.2500014 Z M3532,63.2500014 C3531.44772,63.2500014 3531,63.6977167 3531,64.2500014 C3531,64.8022862 3531.44772,65.2500014 3532,65.2500014 C3532.55228,65.2500014 3533,64.8022862 3533,64.2500014 C3533,63.6977167 3532.55228,63.2500014 3532,63.2500014 Z M3536,63.2500014 C3535.44772,63.2500014 3535,63.6977167 3535,64.2500014 C3535,64.8022862 3535.44772,65.2500014 3536,65.2500014 C3536.55228,65.2500014 3537,64.8022862 3537,64.2500014 C3537,63.6977167 3536.55228,63.2500014 3536,63.2500014 Z" transform="translate(-3522 -58)"/></svg>