<svg xmlns="http://www.w3.org/2000/svg" width="24" height="24" viewBox="0 0 24 24">
  <path d="M3538.09252,60 C3539.96031,59.999471 3541.55862,61.3151085 3541.93373,63.1437307 L3541.96919,63.3415809 L3542.60514,68.0885521 C3542.67494,68.0839811 3542.74536,68.0816597 3542.81632,68.0816597 C3544.43372,68.0816597 3545.78065,69.2913569 3545.97729,70.9009969 L3545.99436,71.0814505 L3546,71.2663626 C3545.99716,74.0050425 3544.54569,76.4043719 3542.37025,77.7393803 L3542.95788,78.9138206 C3543.19983,79.3977197 3543.00369,79.9861363 3542.51979,80.2280858 C3542.07046,80.4527533 3541.53101,80.2996812 3541.26251,79.8892308 L3541.20553,79.7899974 L3540.58112,78.5397357 C3540.0075,78.7112311 3539.40539,78.8168191 3538.78359,78.8477095 L3538.40822,78.8572097 L3529.59085,78.8572097 C3528.83681,78.8564297 3528.10796,78.7456436 3527.41971,78.5397932 L3526.79456,79.7899974 C3526.55261,80.2738965 3525.96419,80.4700354 3525.48029,80.2280858 C3525.03096,80.0034184 3524.82974,79.4800115 3524.99701,79.0189487 L3525.0422,78.9138206 L3525.62965,77.7384445 C3523.60252,76.4933007 3522.20108,74.3209086 3522.01952,71.7970883 L3522.00439,71.5152469 L3522,71.2653479 C3522,69.5070485 3523.42539,68.0816597 3525.18369,68.0816597 C3525.25564,68.0816597 3525.32705,68.0840537 3525.39786,68.0887703 L3526.03654,63.3227885 C3526.32038,61.4771287 3527.86341,60.0979204 3529.71026,60.0049971 L3529.90925,60 L3538.09252,60 Z M3542.81632,70.0408506 C3542.64849,70.0408506 3542.48855,70.0746136 3542.34291,70.1362346 L3542.23003,70.191282 C3541.88758,70.3804405 3541.64444,70.7321048 3541.59895,71.1554998 L3541.59124,71.2991636 L3541.58432,71.4830674 C3541.47449,73.088226 3540.18257,74.3542286 3538.58666,74.4439449 L3538.40814,74.4490302 L3529.59087,74.4490302 C3527.89428,74.4474586 3526.50827,73.1197846 3526.41386,71.4755947 L3526.40533,71.180529 C3526.36212,70.5415045 3525.82857,70.0408506 3525.18369,70.0408506 C3524.54968,70.0408506 3524.02808,70.5226917 3523.96535,71.1254325 L3523.95903,71.2474857 L3523.96281,71.4626371 C3524.04073,73.6582476 3525.37177,75.5282239 3527.25631,76.3899229 C3527.29721,76.4022872 3527.33656,76.4188304 3527.37525,76.4381736 L3527.39958,76.4530344 C3527.98962,76.7031701 3528.6307,76.8556441 3529.30225,76.8903927 L3529.59186,76.8980188 L3538.4072,76.8980188 C3539.1833,76.8972052 3539.92268,76.7396394 3540.5954,76.4558036 L3540.62484,76.4381736 C3540.66543,76.4178791 3540.70675,76.4006668 3540.74855,76.386448 C3542.62076,75.5316632 3543.94153,73.6858256 3544.03595,71.5381721 L3544.04137,71.2983369 L3544.03796,71.1805251 C3543.99475,70.5415022 3543.46121,70.0408506 3542.81632,70.0408506 Z M3538.09279,61.9591912 L3529.90925,61.9591912 C3528.99602,61.9591912 3528.21177,62.5885661 3528.0059,63.4478495 L3527.97567,63.601793 L3527.2714,68.8651164 C3527.83928,69.3618508 3528.23179,70.0606467 3528.3395,70.8607789 L3528.36173,71.0814335 L3528.36737,71.2644279 C3528.36791,71.8986468 3528.84979,72.4201767 3529.4667,72.4834064 L3529.59178,72.4898393 L3538.40727,72.4898393 C3539.00937,72.4893049 3539.51432,72.0530855 3539.61315,71.5020855 L3539.628,71.3823742 L3539.63767,71.0846843 C3539.68732,70.1971092 3540.10055,69.4066254 3540.73084,68.8597361 L3540.03006,63.6205861 C3539.89121,62.7176863 3539.14965,62.0380962 3538.25262,61.9656039 L3538.09279,61.9591912 Z M3532.04085,68.3265618 C3532.58187,68.3265618 3533.02045,68.7651417 3533.02045,69.3061573 C3533.02045,69.8471729 3532.58187,70.2857528 3532.04085,70.2857528 C3531.49984,70.2857528 3531.06126,69.8471729 3531.06126,69.3061573 C3531.06126,68.7651417 3531.49984,68.3265618 3532.04085,68.3265618 Z M3535.95924,68.3265618 C3536.50025,68.3265618 3536.93883,68.7651417 3536.93883,69.3061573 C3536.93883,69.8471729 3536.50025,70.2857528 3535.95924,70.2857528 C3535.41822,70.2857528 3534.97964,69.8471729 3534.97964,69.3061573 C3534.97964,68.7651417 3535.41822,68.3265618 3535.95924,68.3265618 Z M3532.04085,64.40818 C3532.58187,64.40818 3533.02045,64.8467598 3533.02045,65.3877755 C3533.02045,65.9287911 3532.58187,66.3673709 3532.04085,66.3673709 C3531.49984,66.3673709 3531.06126,65.9287911 3531.06126,65.3877755 C3531.06126,64.8467598 3531.49984,64.40818 3532.04085,64.40818 Z M3535.95924,64.40818 C3536.50025,64.40818 3536.93883,64.8467598 3536.93883,65.3877755 C3536.93883,65.9287911 3536.50025,66.3673709 3535.95924,66.3673709 C3535.41822,66.3673709 3534.97964,65.9287911 3534.97964,65.3877755 C3534.97964,64.8467598 3535.41822,64.40818 3535.95924,64.40818 Z" transform="translate(-3522 -58)"/>
</svg>
