<svg xmlns="http://www.w3.org/2000/svg" width="25" height="25" viewBox="0 0 25 25">
  <path d="M11.1898399,10 L11.1898399,9 L4.43883988,9 C4.02462632,9 3.68883988,8.66421356 3.68883988,8.25 L3.68883988,2.25 C3.68883988,1.83578644 4.02462632,1.5 4.43883988,1.5 L11.1898399,1.5 L11.1898399,0.75 C11.1898399,0.335786438 11.5256263,0 11.9398399,0 C12.3540534,0 12.6898399,0.335786438 12.6898399,0.75 L12.6898399,1.5 L20.9388399,1.5 C21.1376996,1.5 21.328419,1.57897595 21.4690626,1.71956255 L23.9389997,4.18849973 C24.524974,4.77409803 24.5252783,5.72384582 23.9396807,6.3098192 L21.46917,8.78033007 C21.3285177,8.92098236 21.1377523,9 20.9388399,9 L12.6898399,9 L12.6898399,10 L20.9388399,10 C21.3530534,10 21.6888399,10.3357864 21.6888399,10.75 L21.6888399,16.75 C21.6888399,17.1642136 21.3530534,17.5 20.9388399,17.5 L12.6898399,17.5 L12.6898399,23.25 C12.6898399,23.6642136 12.3540534,24 11.9398399,24 C11.5256263,24 11.1898399,23.6642136 11.1898399,23.25 L11.1898399,17.5 L4.43883988,17.5 C4.23987489,17.5 4.04906343,17.4209407 3.90840243,17.2802227 L1.43968001,14.8105003 C0.853705699,14.2249019 0.853401474,13.2751541 1.43899909,12.6891808 L3.90850978,10.2196699 C4.04916206,10.0790176 4.2399275,10 4.43883988,10 L11.1898399,10 Z M22.8786807,5.24949896 L20.6282687,3 L5.18883988,3 L5.18883988,7.5 L20.6281797,7.5 L22.8786807,5.24949896 Z M2.49999909,13.749501 L4.74958901,16 L20.1888399,16 L20.1888399,11.5 L4.74950005,11.5 L2.49999909,13.749501 Z"/>
</svg>
