<svg xmlns="http://www.w3.org/2000/svg" width="25" height="24" viewBox="0 0 25 24">
  <path fill-rule="evenodd" d="M12.5,22 C6.9771525,22 2.5,17.5228475 2.5,12 C2.5,6.4771525 6.9771525,2 12.5,2 C18.0228475,2 22.5,6.4771525 22.5,12 C22.5,17.5228475 18.0228475,22 12.5,22 Z M12.5,10.6261385 L9.90839757,8.03453604 C9.52901618,7.65515465 8.91391742,7.65515465 8.53453604,8.03453604 C8.15515465,8.41391742 8.15515465,9.02901618 8.53453604,9.40839757 L11.1261385,12 L8.53453604,14.5916024 C8.15515465,14.9709838 8.15515465,15.5860826 8.53453604,15.965464 C8.91391742,16.3448453 9.52901618,16.3448453 9.90839757,15.965464 L12.5,13.3738615 L15.0916024,15.965464 C15.4709838,16.3448453 16.0860826,16.3448453 16.465464,15.965464 C16.8448453,15.5860826 16.8448453,14.9709838 16.465464,14.5916024 L13.8738615,12 L16.465464,9.40839757 C16.8448453,9.02901618 16.8448453,8.41391742 16.465464,8.03453604 C16.0860826,7.65515465 15.4709838,7.65515465 15.0916024,8.03453604 L12.5,10.6261385 Z"/>
</svg>
