<svg xmlns="http://www.w3.org/2000/svg" width="24" height="24" viewBox="0 0 24 24">
  <path d="M4.5,10 C4.50000018,10.552285 4.9477151,11 5.5,11 L9,11 L9,21 L7,21 C6.44771506,21.0000001 6.00000006,21.447715 6,22 C6.00000008,22.552285 6.44771506,23 7,23 L13,23 C13.552285,23.0000001 14,22.552285 14,22 C14,21.447715 13.552285,21 13,21 L11,21 L11,11 L16.5,11 C16.8025881,11.0010289 17.0893701,10.864991 17.2800001,10.63 L19.7800001,8.13000003 C20.0725001,7.764667 20.0725001,7.245333 19.78,6.88 L17.28,4.38 C17.091353,4.141263 16.804272,4.001403 16.5,4 L11,4 L11,2 C11,1.447715 10.552285,1 10,1 C9.44771504,1 9.00000004,1.447715 9,2 L9,4 L5.5,4 C4.947715,4.00000002 4.5,4.447715 4.5,5 L4.5,10 Z M6.5000001,5.99999988 L16.0200001,5.99999988 L17.7200001,7.49999988 L16.0200001,8.99999988 L6.5000001,8.99999988 L6.5000001,5.99999988 Z"/>
</svg>
