<svg xmlns="http://www.w3.org/2000/svg" width="24" height="24" viewBox="0 0 24 24">
  <path d="M4.9999999,6.00000012 L4.9999999,11.0000001 L4.9999999,11.0000001 C5.00000008,11.5522852 5.447715,12.0000002 5.9999999,12.0000001 L8.9999999,12.0000001 L8.9999999,20.0000001 L6.9999999,20.0000001 L6.9999999,20.0000001 C6.44771496,20.0000002 5.99999996,20.4477152 5.9999999,21.0000001 C5.99999998,21.5522852 6.44771496,22.0000002 6.9999999,22.0000001 L12.9999999,22.0000001 L12.9999999,22.0000001 C13.5522849,22.0000002 13.9999999,21.5522852 13.9999999,21.0000001 C13.9999999,20.4477152 13.5522849,20.0000002 12.9999999,20.0000001 L10.9999999,20.0000001 L10.9999999,12.0000001 L15.9999999,12.0000001 L15.9999999,12.0000001 C16.302588,12.001029 16.58937,11.8649912 16.78,11.6300002 L18.78,9.13000015 L18.78,9.13000013 C19.0725,8.76466713 19.0725,8.24533313 18.7799999,7.88000013 L16.7799999,5.38000013 L16.7799999,5.38000012 C16.5913529,5.14126312 16.3042719,5.00140312 15.9999999,5.00000012 L10.9999999,5.00000012 L10.9999999,3.00000012 L10.9999999,3.00000012 C10.9999999,2.44771512 10.5522849,2.00000012 9.9999999,2.00000012 C9.44771494,2.00000012 8.99999994,2.44771512 8.9999999,3.00000012 L8.9999999,5.00000012 L5.9999999,5.00000012 L5.9999999,5.00000012 C5.4477149,5.00000015 4.9999999,5.44771512 4.9999999,6.00000012 C4.9999999,6.00000012 4.9999999,6.00000012 4.9999999,6.00000012 L4.9999999,6.00000012 Z M7,7 L15.52,7 L16.72,8.5 L15.52,10 L7,10 L7,7 Z"/>
</svg>
