<svg xmlns="http://www.w3.org/2000/svg" width="24" height="24" viewBox="0 0 24 24">
  <path d="M2751,68.5857864 L2755.29289,64.2928932 C2755.68342,63.9023689 2756.31658,63.9023689 2756.70711,64.2928932 C2757.09763,64.6834175 2757.09763,65.3165825 2756.70711,65.7071068 L2752.41421,70 L2756.70711,74.2928932 C2757.09763,74.6834175 2757.09763,75.3165825 2756.70711,75.7071068 C2756.31658,76.0976311 2755.68342,76.0976311 2755.29289,75.7071068 L2751,71.4142136 L2746.70711,75.7071068 C2746.31658,76.0976311 2745.68342,76.0976311 2745.29289,75.7071068 C2744.90237,75.3165825 2744.90237,74.6834175 2745.29289,74.2928932 L2749.58579,70 L2745.29289,65.7071068 C2744.90237,65.3165825 2744.90237,64.6834175 2745.29289,64.2928932 C2745.68342,63.9023689 2746.31658,63.9023689 2746.70711,64.2928932 L2751,68.5857864 Z" transform="translate(-2739 -58)"/>
</svg>
