<svg xmlns="http://www.w3.org/2000/svg" width="24" height="24" viewBox="0 0 24 24">
  <path d="M11,22 L11,16 L6,16 C5.73478351,16 5.4804296,15.8946432 5.29289322,15.7071068 L3.29289322,13.7071068 C2.90236893,13.3165825 2.90236893,12.6834175 3.29289322,12.2928932 L5.29289322,10.2928932 C5.4804296,10.1053568 5.73478351,10 6,10 L11,10 L11,8 L9,8 C7.89543018,7.99999995 6.99999996,7.10456974 7,6 L7,4 C6.99999979,2.89543052 7.89543006,2.0000003 9,2 L11,2 L11,1 C11,0.44771525 11.4477153,0 12,0 C12.5522847,0 13,0.44771525 13,1 L13,2 L19,2 C19.2652164,2 19.5195704,2.10535684 19.7071067,2.29289322 L21.7071067,4.29289322 C22.097631,4.68341751 22.097631,5.31658249 21.7071067,5.70710678 L19.7071067,7.70710678 C19.5195704,7.89464316 19.2652164,8 19,8 L13,8 L13,10 C14.1045697,10 14.9999999,10.8954302 15,12 L15,14 C14.9999999,15.1045698 14.1045697,16 13,16 L13,22 L14.5,22 C15.0522847,22 15.5,22.4477153 15.5,23 C15.5,23.5522847 15.0522847,24 14.5,24 L9.5,24 C8.94771525,24 8.5,23.5522847 8.5,23 C8.5,22.4477153 8.94771525,22 9.5,22 L11,22 Z M6.41421356,12 L5.41421356,13 L6.41421356,14 L13,14 L13,12 L6.41421356,12 Z M19.5857864,5 L18.5857864,4 L8.99999996,4 L8.99999996,6 L18.5857864,6 L19.5857864,5 Z"/>
</svg>
