<svg xmlns="http://www.w3.org/2000/svg" width="24" height="24" viewBox="0 0 24 24">
  <path d="M2723.88394,60.8980131 C2724.55494,60.3455906 2725.53672,60.3744148 2726.18564,60.9612639 L2726.30325,61.0778318 L2730.333,65.679 L2734.50996,63.179461 C2734.71749,63.0811714 2734.94174,63.0249023 2735.1694,63.0124251 L2735.34056,63.0113059 L2735.51176,63.0267748 C2736.40675,63.1515921 2737.05934,63.931153 2736.99145,64.8443185 L2736.97468,64.9895368 L2734.48263,78.1855681 C2734.40086,78.6185786 2734.04726,78.9420855 2733.61861,78.9929964 L2733.5,79 L2716.5,79 C2716.05934,79 2715.67584,78.7125804 2715.54626,78.3008305 L2715.51737,78.1855751 L2713.01983,64.9582521 C2712.96443,64.603444 2713.02589,64.2412846 2713.19426,63.9237845 C2713.60543,63.1484316 2714.53926,62.8192717 2715.42113,63.158674 L2715.5761,63.2255539 L2719.663,65.676 L2723.71322,61.0594014 L2723.79579,60.9757947 L2723.88394,60.8980131 Z M2733.049,74.9997142 L2716.95,74.9997142 L2717.328,77 L2732.671,77 L2733.049,74.9997142 Z M2725,62.624 L2721.12661,67.0352672 C2720.58219,67.7850917 2719.52949,67.9702622 2718.7524,67.4663565 L2718.70901,67.4372032 L2715.114,65.275 L2716.573,72.9997142 L2733.427,72.9997142 L2734.885,65.28 L2731.28,67.443 L2731.22889,67.4800958 C2730.59508,67.8800139 2729.76929,67.8301427 2729.1921,67.3691411 L2729.07238,67.2640763 L2728.96123,67.1465105 L2725,62.624 Z" transform="translate(-2713 -58)"/>
</svg>
