<?xml version="1.0" encoding="UTF-8"?>
<svg width="24px" height="24px" viewBox="0 0 24 24" version="1.1" xmlns="http://www.w3.org/2000/svg" xmlns:xlink="http://www.w3.org/1999/xlink">
    <title>crown</title>
    <g id="Icons" stroke="none" stroke-width="1" fill="none" fill-rule="evenodd">
        <g transform="translate(-3430.000000, -74.000000)" fill="#000000" fill-rule="nonzero" id="Shape">
            <path d="M3443.06516,78.4711071 L3446.824,82.762 L3446.84338,82.7383854 L3450.71352,80.4205624 C3450.9684,80.2998451 3451.25429,80.2565112 3451.53417,80.2955431 C3452.30449,80.4029727 3452.85366,81.1016611 3452.72974,81.892784 L3450.46425,93.8891761 C3450.39734,94.2434574 3450.08782,94.5 3449.72727,94.5 L3434.27273,94.5 C3433.91219,94.5 3433.60266,94.2434602 3433.53575,93.8891813 L3431.26612,81.8693206 C3431.22107,81.5808221 3431.27105,81.2863356 3431.40806,81.0279745 C3431.76345,80.3578152 3432.59954,80.0952524 3433.35101,80.4551321 L3437.179,82.755 L3440.94718,78.4572843 C3440.99052,78.410268 3441.03708,78.3662627 3441.08652,78.3255606 C3441.66967,77.845458 3442.54101,77.9021587 3443.06516,78.4711071 Z M3449.577,90.499287 L3434.422,90.499287 L3434.894,93 L3449.105,93 L3449.577,90.499287 Z M3442,79.531 L3438.35,83.6885906 C3437.93299,84.2629445 3437.14909,84.4321445 3436.52867,84.1112219 L3436.40692,84.0404773 L3436.37069,84.0151145 L3432.791,81.864 L3434.139,88.999287 L3449.86,88.999287 L3451.207,81.868 L3447.68632,83.9761395 C3447.1261,84.4067637 3446.33011,84.3616814 3445.82524,83.8875595 L3445.7217,83.779412 L3445.69,83.740287 L3442,79.531 Z"></path>
        </g>
    </g>
</svg>