<?xml version="1.0" encoding="UTF-8"?>
<svg width="24px" height="24px" viewBox="0 0 24 24" version="1.1" xmlns="http://www.w3.org/2000/svg" xmlns:xlink="http://www.w3.org/1999/xlink">
    <title>date-range-g</title>
    <g id="Icons" stroke="none" stroke-width="1" fill="none" fill-rule="evenodd">
        <g transform="translate(-712, -41)" fill="#000000" fill-rule="nonzero" id="Shape">
            <path d="M728.05,42.04 C728.562836,42.04 728.985507,42.4260402 729.043272,42.9233789 L729.05,43.04 L729.049,44.002 L729.554195,44.0107396 L729.785256,44.0181778 L730.200564,44.0407337 C730.909561,44.0924631 731.347996,44.2048986 731.807116,44.4379903 C732.488704,44.7847631 733.052802,45.3153797 733.437887,45.9665992 L733.559535,46.1880523 L733.607181,46.2829434 L733.711183,46.515705 L733.795254,46.7528607 C733.821848,46.83956 733.845056,46.9296465 733.865298,47.0258443 L733.893489,47.175065 L733.928119,47.4205535 L733.942278,47.5549112 L733.954508,47.6981603 L733.973718,48.0147809 L733.991393,48.5779467 L733.9973,49.02227 L734,51.04 L733.998,51.079 L734,58.1906874 L733.997376,58.971429 L733.987184,59.6119003 L733.974463,59.9724 L733.955797,60.2877276 L733.930155,60.5647509 C733.917055,60.6803779 733.901582,60.7866905 733.883329,60.886402 L733.853812,61.0313575 L733.801046,61.2346769 L733.737175,61.4271643 L733.661166,61.6156879 L733.571988,61.8071158 C733.189025,62.5598347 732.580351,63.1719474 731.831903,63.5595349 L731.73705,63.6071608 L731.643642,63.6512692 L731.457737,63.729464 L731.267335,63.7951796 C731.180697,63.8217705 731.090696,63.8449779 730.994625,63.8652208 L730.845628,63.8934142 L730.600617,63.9280537 L730.466575,63.9422179 L730.323698,63.9544551 L730.008018,63.9736787 L729.446828,63.9913749 L729.004262,63.9972926 L719.815997,63.9997297 L719.49239,63.9910569 L718.889445,63.9675804 L718.343963,63.9352757 C717.309212,63.861315 716.608004,63.7296776 716.172929,63.5121206 C715.414559,63.1262832 714.80049,62.512215 714.424863,61.7609608 C714.223673,61.3585796 714.115196,60.9710091 714.058385,60.393161 L714.039422,60.1671481 L714.017583,59.7525469 L714.005318,59.2732134 L714.00052,58.7186169 L714.002193,48.9309021 L714.010745,48.4147669 L714.018186,48.183565 L714.040745,47.768352 C714.09248,47.0600095 714.204917,46.624928 714.43799,46.1729286 C714.826137,45.4100189 715.443705,44.7959205 716.199128,44.4248633 C716.613902,44.2174761 717.012774,44.1086229 717.621584,44.053309 L717.860169,44.0349881 L718.26074,44.0157644 L718.482656,44.0093866 L719.049,44.001 L719.05,43.04 C719.05,42.4877153 719.497715,42.04 720.05,42.04 C720.562836,42.04 720.985507,42.4260402 721.043272,42.9233789 L721.05,43.04 L721.049,44.001 L727.049,44 L727.05,43.04 C727.05,42.4877153 727.497715,42.04 728.05,42.04 Z M732,52 L716.001,52 L716.000516,58.7156485 L716.003964,59.1597889 L716.011866,59.5375462 L716.024828,59.8560394 L716.043458,60.1223874 L716.075641,60.3928386 L716.083359,60.4397099 L716.118815,60.6068404 L716.139428,60.6797499 L716.186804,60.8087066 L716.213718,60.8665336 C716.396849,61.232796 716.700741,61.5366879 717.073599,61.7264154 C717.116187,61.747709 717.182134,61.7688886 717.270294,61.7895287 L717.365816,61.8099732 L717.600267,61.8494049 L717.738686,61.868203 L718.056637,61.9034911 L718.427708,61.9350712 L718.849858,61.962187 L719.321051,61.9840821 L719.839246,62 L728.220621,62 L729.084193,61.9960626 L729.728602,61.9820325 L729.981811,61.9701929 L730.290221,61.9452333 L730.455918,61.9231869 L730.595845,61.89633 L730.715276,61.8642467 L730.819489,61.8265211 L730.91376,61.7827373 C731.236003,61.6158617 731.507347,61.3654396 731.696158,61.0657602 L731.783539,60.9119745 L731.827358,60.8135859 L731.865069,60.7058412 L731.897099,60.5833794 L731.911116,60.5149543 L731.935419,60.3603652 L731.963346,60.0740824 L731.982313,59.7064379 L731.990689,59.4072058 L731.999107,58.6546914 L732,52 Z M728.5,54 C729.052285,54 729.5,54.4477153 729.5,55 L729.5,59 C729.5,59.5522847 729.052285,60 728.5,60 C727.947715,60 727.5,59.5522847 727.5,59 L727.49952,57.999 L720.5,58 L720.5,59 C720.5,59.5522847 720.052285,60 719.5,60 C718.947715,60 718.5,59.5522847 718.5,59 L718.5,55 C718.5,54.4477153 718.947715,54 719.5,54 C720.052285,54 720.5,54.4477153 720.5,55 L720.49952,55.999 L727.49952,55.999 L727.5,55 C727.5,54.4871642 727.88604,54.0644928 728.383379,54.0067277 L728.5,54 Z M727.049,46.001 L721.049,46.001 L721.05,47.04 C721.05,47.5922847 720.602285,48.04 720.05,48.04 C719.537164,48.04 719.114493,47.6539598 719.056728,47.1566211 L719.05,47.04 L719.049,46.001 L718.805141,46.0039665 L718.425758,46.0118979 L718.105895,46.0249496 L717.838317,46.0437611 L717.615788,46.0689723 L717.431073,46.1012229 C717.290891,46.1312092 717.182562,46.1691945 717.087245,46.2168448 C716.71663,46.3989014 716.413768,46.7000616 716.218071,47.0846749 C716.186339,47.1462166 716.158847,47.2137906 716.13512,47.292859 L716.102296,47.4207652 L716.069863,47.6027795 L716.044438,47.8225997 L716.034161,47.9488991 L716.018097,48.238701 L716.007506,48.5840058 L716.001773,49.9918925 L732,50 L731.996051,48.9415154 L731.990469,48.5929184 L731.976381,48.1616383 L731.954143,47.8242844 L731.922307,47.5628429 L731.895034,47.4218264 L731.86242,47.3012051 L731.824037,47.1956417 L731.779454,47.0997987 C731.586043,46.7196465 731.280354,46.4139571 730.900966,46.2209351 C730.850088,46.1951045 730.795564,46.1720568 730.734546,46.1515384 L730.637794,46.1226261 L730.469728,46.0859555 L730.26773,46.0567518 L730.151753,46.0447495 L730.024589,46.0343733 L729.733095,46.0181782 L729.38604,46.0075248 L729.049,46.002 L729.05,47.04 C729.05,47.5922847 728.602285,48.04 728.05,48.04 C727.537164,48.04 727.114493,47.6539598 727.056728,47.1566211 L727.05,47.04 L727.049,46.001 Z"></path>
        </g>
    </g>
</svg>