<svg xmlns="http://www.w3.org/2000/svg" width="24" height="24" viewBox="0 0 24 24">
  <path d="M4.50000004,4.999731 L4.50000004,4.42894757 C4.50000004,3.99851716 4.77543013,3.61637832 5.18377227,3.48026428 L7.1185895,2.83532522 C9.0299935,2.19778135 11.128709,2.47891795 12.8049253,3.59704735 C13.9674334,4.37250653 15.4229646,4.56748425 16.7487729,4.12526432 L18.6837729,3.48026432 C19.331304,3.26442062 20.0000007,3.74638989 20.0000007,4.42894762 L20.0000007,15.4289476 C20.0000007,15.859378 19.7245706,16.2415169 19.3162285,16.3776309 L17.3814112,17.02257 C15.4700073,17.6601138 13.3712917,17.3789773 11.6950756,16.2608479 C10.5325674,15.4853887 9.07703624,15.290411 7.75122777,15.732631 L6.5,16.1497069 L6.5,21.0004477 C6.5,21.5527325 6.05228475,22.0004477 5.5,22.0004477 C4.94771525,22.0004477 4.5,21.5527325 4.5,21.0004477 L4.5,5 L4.50000004,4.999731 Z M6.50000004,5.14970679 L6.5,14.0415218 L7.11858946,13.8353254 C9.02999433,13.1977812 11.1287132,13.478918 12.8049247,14.5970466 C13.9674365,15.3725066 15.4229651,15.5674841 16.7487729,15.1252643 L18.0000007,14.7081884 L18.0000007,5.81637349 L17.3814112,6.02256997 C15.4700065,6.66011409 13.3712876,6.37897727 11.6950761,5.26084869 C10.5325642,4.48538864 9.07703563,4.29041111 7.7512278,4.73263087 L6.50000004,5.14970679 Z M12.25,11.500005 C11.4215729,11.500005 10.75,10.8284321 10.75,10.000005 C10.75,9.17157787 11.4215729,8.500005 12.25,8.500005 C13.0784271,8.500005 13.75,9.17157787 13.75,10.000005 C13.75,10.8284321 13.0784271,11.500005 12.25,11.500005 Z"/>
</svg>
