<svg xmlns="http://www.w3.org/2000/svg" width="24" height="24" viewBox="0 0 24 24">
  <path d="M20,13.9281681 C20.0002713,14.1877989 19.9000599,14.4473285 19.699999,14.6434267 C17.3669358,16.9302781 13.6330647,16.9302782 11.3000013,14.6434268 C9.84117535,13.2134962 7.56081982,13.1247325 6,14.3771358 L6,20.5 C6,21.0522847 5.55228475,21.5 5,21.5 C4.44771525,21.5 4,21.0522847 4,20.5 L4,13.9301405 L4,4.92928261 C4,4.64954267 4.11486421,4.3966307 4.30000105,4.21513829 C6.63306462,1.92828716 10.3669357,1.9282872 12.6999988,4.21513863 C14.2553758,5.73970754 16.7446247,5.73970751 18.3000015,4.21513856 C18.6944123,3.82853991 19.3275456,3.83487297 19.7141443,4.22928383 C19.9051743,4.4241741 20.0002643,4.67735192 20,4.9302715 L20,13.9281681 Z M18,6.81458444 C15.8027065,7.82118537 13.1234927,7.43079948 11.3000013,5.64342677 C9.84117535,4.21349619 7.56081982,4.12473251 6,5.37713575 L6,12.043981 C8.19729366,11.0373799 10.8765076,11.4277658 12.6999988,13.2151386 C14.1588249,14.6450691 16.4391803,14.7338328 18,13.4814297 L18,6.81458444 Z"/>
</svg>
