<svg xmlns="http://www.w3.org/2000/svg" width="24" height="24" viewBox="0 0 24 24">
  <path fill-rule="evenodd" d="M13.25,14.75 C13.25,15.371321 12.746321,15.875 12.125,15.875 C11.503679,15.875 11,15.371321 11,14.75 C11,14.128679 11.503679,13.625 12.125,13.625 C12.746321,13.625 13.25,14.128679 13.25,14.75 Z M12.875,11.25 C12.875,11.6642136 12.5392136,12 12.125,12 C11.7107865,12 11.375,11.6642136 11.375,11.25 L11.375,6.75 C11.375,6.33578644 11.7107865,6 12.125,6 C12.5392136,6 12.875,6.33578644 12.875,6.75 L12.875,11.25 Z M0.000204203467,19.3099728 C-6.22768907e-05,19.2984623 -6.08679902e-05,19.2869785 0.000204203464,19.2755292 L0.000204203469,2.16218338 C-6.87980892e-05,2.15053103 -6.73365739e-05,2.13890764 0.000204203465,2.12731972 L0.000204203469,0.75 C0.000204203469,0.335786438 0.335990641,0 0.750204203,0 C1.16441777,0 1.5002042,0.335786438 1.5002042,0.75 L1.5002042,1.12998059 L3.68354958,0.459194697 C6.53293688,-0.418041561 9.62213496,-0.0252136324 12.1612308,1.53720569 C14.2800806,2.84078642 16.8491697,3.19408204 19.2411483,2.51086188 L21.6110966,1.83359157 C21.7774488,1.7862888 21.9495426,1.76221645 22.122487,1.76205846 C23.1585675,1.76110881 23.9992576,2.60024903 24.0002044,3.63700009 L24.0002043,18.4443241 C23.9998428,19.2811944 23.4452172,20.0166166 22.6401495,20.2471704 L19.6531882,21.1001593 C16.8563585,21.8990148 13.8525681,21.4859414 11.3751486,19.9617545 C9.20363816,18.6255223 6.56171712,18.2895712 4.12467276,19.0398637 L1.5002042,19.8470085 L1.5002042,23.25 C1.5002042,23.6642136 1.16441777,24 0.750204203,24 C0.335990641,24 0.000204203469,23.6642136 0.000204203469,23.25 L0.000204203469,19.3099748 L0.000204203467,19.3099728 Z M1.5002042,2.69917655 L1.5002042,18.2776726 L3.68352353,17.6062015 C6.53291224,16.7289605 9.62211109,17.1217883 12.1612063,18.6842127 C14.2800522,19.9877937 16.8491407,20.3410881 19.2412591,19.6578298 L22.2277208,18.8049838 C22.3889702,18.7588054 22.500132,18.6114072 22.5002044,18.4440001 L22.5002047,3.63768521 C22.500015,3.43005295 22.3315189,3.2618675 22.1238595,3.26205784 C22.0891964,3.2620895 22.0547042,3.26691424 22.0223104,3.27612482 L19.6532138,3.95315242 C16.856388,4.75200896 13.8525972,4.33893407 11.3751746,2.81474851 C9.20366297,1.47852021 6.56174098,1.1425687 4.12448989,1.89292112 L1.5002042,2.69917655 Z"/>
</svg>
