<?xml version="1.0" encoding="UTF-8"?>
<svg width="24px" height="24px" viewBox="0 0 24 24" version="1.1" xmlns="http://www.w3.org/2000/svg" xmlns:xlink="http://www.w3.org/1999/xlink">
    <title>dna-g</title>
    <g id="Icons" stroke="none" stroke-width="1" fill="none" fill-rule="evenodd">
        <g id="Glyphs" transform="translate(-4042, -58)" fill="#000000" fill-rule="nonzero">
            <path d="M4047.5,58 C4048.05228,58 4048.5,58.4477153 4048.5,59 L4048.5,61.9086538 C4048.5,64.4240689 4049.86081,66.7172058 4052.00404,67.8332334 L4056.91967,70.3928534 C4059.73112,71.8568384 4061.5,74.8376334 4061.5,78.0913462 L4061.5,81 C4061.5,81.5522847 4061.05228,82 4060.5,82 C4059.94772,82 4059.5,81.5522847 4059.5,81 L4059.5,78.0913462 C4059.5,75.5759311 4058.13919,73.2827942 4055.99596,72.1667666 L4051.08033,69.6071466 C4048.26888,68.1431616 4046.5,65.1623666 4046.5,61.9086538 L4046.5,59 C4046.5,58.4477153 4046.94772,58 4047.5,58 Z M4051.2782,71.3460291 C4051.61373,71.7847077 4051.53011,72.4123268 4051.09143,72.7478555 C4050.62033,73.1081823 4050.20475,73.5306152 4049.85203,74.0003301 L4055,74 C4055.55228,74 4056,74.4477153 4056,75 C4056,75.5522847 4055.55228,76 4055,76 L4048.8237,76.0002223 C4048.62084,76.6379656 4048.50963,77.3116659 4048.5006,78.0001508 L4057,78 C4057.55228,78 4058,78.4477153 4058,79 C4058,79.5522847 4057.55228,80 4057,80 L4048.5,80 L4048.5,81 C4048.5,81.5522847 4048.05228,82 4047.5,82 C4046.94772,82 4046.5,81.5522847 4046.5,81 L4046.5,78.0913462 C4046.5,75.3583811 4047.75119,72.7847351 4049.87638,71.1592599 C4050.31506,70.8237311 4050.94268,70.9073506 4051.2782,71.3460291 Z M4060.5,58 C4061.05228,58 4061.5,58.4477153 4061.5,59 L4061.5,61.9090603 C4061.49889,64.6407756 4060.24782,67.2128472 4058.12362,68.8375671 C4057.68494,69.1730958 4057.05732,69.0894763 4056.7218,68.6507977 C4056.38627,68.2121191 4056.46989,67.5845 4056.90857,67.2489713 C4057.37802,66.8899005 4057.79236,66.4691513 4058.14429,66.0014021 L4052,66 C4051.44772,66 4051,65.5522847 4051,65 C4051,64.4477153 4051.44772,64 4052,64 L4059.17491,64.0010626 C4059.37828,63.3632506 4059.48994,62.6894228 4059.49935,62.0007907 L4051,62 C4050.44772,62 4050,61.5522847 4050,61 C4050,60.4477153 4050.44772,60 4051,60 L4059.499,60 L4059.5,59 C4059.5,58.4477153 4059.94772,58 4060.5,58 Z" id="Shape"></path>
        </g>
    </g>
</svg>