<?xml version="1.0" encoding="UTF-8"?>
<svg width="24px" height="24px" viewBox="0 0 24 24" version="1.1" xmlns="http://www.w3.org/2000/svg" xmlns:xlink="http://www.w3.org/1999/xlink">
    <title>dna</title>
    <g id="Icons" stroke="none" stroke-width="1" fill="none" fill-rule="evenodd">
        <g id="Glyphs" transform="translate(-4068, -58)" fill="#000000" fill-rule="nonzero">
            <path d="M4073.5,58 C4073.91421,58 4074.25,58.3357864 4074.25,58.75 L4074.25,61.7247596 C4074.25,64.4019371 4075.66591,66.8421535 4077.89472,68.0291243 L4082.81035,70.6469163 C4085.53622,72.098596 4087.25,75.0521735 4087.25,78.2752404 L4087.25,81.25 C4087.25,81.6642136 4086.91421,82 4086.5,82 C4086.08579,82 4085.75,81.6642136 4085.75,81.25 L4085.75,78.2752404 C4085.75,75.5980629 4084.33409,73.1578465 4082.10528,71.9708757 L4077.18965,69.3530837 C4074.46378,67.901404 4072.75,64.9478265 4072.75,61.7247596 L4072.75,58.75 C4072.75,58.3357864 4073.08579,58 4073.5,58 Z M4077.07464,71.5358586 C4077.32985,71.8621113 4077.27226,72.3334798 4076.946,72.5886896 C4076.27326,73.1149374 4075.70929,73.765835 4075.27394,74.5005461 L4082.04242,74.5 C4082.45664,74.5 4082.79242,74.8357864 4082.79242,75.25 C4082.79242,75.6642136 4082.45664,76 4082.04242,76 L4074.60233,76.0003548 C4074.42355,76.5613811 4074.3101,77.1490964 4074.26822,77.7506644 L4083.25,77.75 C4083.66421,77.75 4084,78.0857864 4084,78.5 C4084,78.9142136 4083.66421,79.25 4083.25,79.25 L4074.25,79.25 L4074.25,81.25 C4074.25,81.6642136 4073.91421,82 4073.5,82 C4073.08579,82 4072.75,81.6642136 4072.75,81.25 L4072.75,78.2752404 C4072.75,75.5682136 4073.96202,73.0184864 4076.02181,71.4072239 C4076.34806,71.1520141 4076.81943,71.2096058 4077.07464,71.5358586 Z M4086.5,58 C4086.91421,58 4087.25,58.3357864 4087.25,58.75 L4087.25,61.7250577 C4087.24892,64.4308484 4086.03703,66.979017 4083.97819,68.589531 C4083.65194,68.8447407 4083.18057,68.7871489 4082.92536,68.4608962 C4082.67015,68.1346434 4082.72774,67.6632749 4083.054,67.4080652 C4083.72533,66.8829152 4084.28836,66.2336262 4084.72334,65.5007952 L4077.95758,65.5 C4077.54336,65.5 4077.20758,65.1642136 4077.20758,64.75 C4077.20758,64.3357864 4077.54336,64 4077.95758,64 L4085.39615,64.0012392 C4085.60016,63.3625551 4085.71948,62.6892244 4085.74487,62.0002097 L4076.75,62 C4076.33579,62 4076,61.6642136 4076,61.25 C4076,60.8357864 4076.33579,60.5 4076.75,60.5 L4085.75,60.5 L4085.75,58.75 C4085.75,58.3357864 4086.08579,58 4086.5,58 Z" id="Shape"></path>
        </g>
    </g>
</svg>