<svg xmlns="http://www.w3.org/2000/svg" width="24" height="24" viewBox="0 0 24 24">
  <path d="M19.5,12.9749585 L19.4999999,16.62 C19.4999999,17.2922723 18.6836785,17.6250132 18.2137117,17.1443042 L16.4627885,15.3533583 C16.2823889,15.1681835 15.9860332,15.1643124 15.8008583,15.3447114 C15.6156835,15.5251111 15.6118123,15.8214667 15.7903583,16.0047463 L18.5453583,18.8127463 C18.682931,18.9529656 18.7599999,19.1415624 18.7599999,19.338 L18.7599999,20.7342468 C18.8967336,21.4829478 19.1862342,22.1957 19.6106944,22.8279679 C19.8415678,23.1718725 19.7499379,23.6378221 19.4060333,23.8686954 C19.0621287,24.0995688 18.5961791,24.0079389 18.3653058,23.6640343 C17.8114111,22.8389634 17.4383882,21.9060251 17.2707486,20.9265209 L17.2599999,20.8 L17.2599999,19.6444823 L14.7177873,17.0533571 C13.959304,16.2747935 13.9755803,15.0287731 14.7541429,14.2702874 C15.5327065,13.511804 16.7787268,13.5280803 17.5362882,14.3056958 L17.9999999,14.7800067 L18,11.308558 C17.9999784,11.3052692 17.9999784,11.3019799 18,11.2986903 L18,5.25000006 C18,4.83578658 17.6642134,4.49999998 17.25,4.5 L9.75,4.5 C9.33578644,4.5 9,4.16421356 9,3.75 C9,3.33578644 9.33578644,3 9.75,3 L17.25,3 C18.4926405,2.99999995 19.4999999,4.0073594 19.5,5.25 L19.5,10.9574112 C21.6708753,12.8187763 22.5359271,13.9350017 22.5,15.424 L22.5,19.6287651 L23.8377067,21.3160592 C24.0950387,21.6406406 24.0405223,22.1123747 23.7159408,22.3697067 C23.3913594,22.6270387 22.9196253,22.5725223 22.6622933,22.2479408 L21.1622933,20.3559408 C21.0571942,20.2233759 21,20.0591723 21,19.89 L21.0002157,15.4060134 C21.0168057,14.7144489 20.5805345,14.0092594 19.5,12.9749585 L19.5,12.9749585 Z M5.25,11.7092367 L5.25,8.45109042 L4.69434049,7.88192421 C4.40498514,7.58553535 4.41068693,7.11069584 4.70707579,6.82134049 C5.00346465,6.53198514 5.47830416,6.53768693 5.76765951,6.83407579 L6.47005485,7.55354487 C6.51687025,7.5912446 6.55906194,7.6344539 6.59564517,7.68218802 L7.53721142,8.64664172 C7.71761102,8.83181645 8.01396674,8.83568763 8.19914164,8.65528869 C8.38431644,8.47488901 8.38818764,8.1785333 8.20935384,7.99496018 L5.45835384,5.18796018 C5.32095765,5.04776711 5.24400011,4.85929532 5.24400011,4.66300011 L5.24400011,3.26532518 C5.10792968,2.51532029 4.81839173,1.80126195 4.39329816,1.1680216 C4.16243209,0.824112116 4.25407189,0.358164467 4.59798137,0.127298398 C4.94189086,-0.103567671 5.4078385,-0.0119278759 5.63870457,0.331981609 C6.19345818,1.15836995 6.56656857,2.09305399 6.73339063,3.07429542 L6.74400011,3.20000011 L6.74400011,4.35675758 L9.28221274,6.94664306 C10.040696,7.72520669 10.0244196,8.97122698 9.24585696,9.72971273 C8.55902288,10.3988323 7.5083937,10.4650003 6.75,9.93716968 L6.75,20.2499999 C6.75000006,20.6642137 7.08578658,21.0000002 7.5,21.0000002 L14.25,21.0000002 C14.6642136,21.0000002 15,21.3357867 15,21.7500002 C15,22.1642138 14.6642136,22.5000002 14.25,22.5000002 L7.5,22.5000002 C6.25735944,22.5000002 5.25000019,21.4926408 5.25,20.25 L5.25,13.6772292 C5.23189998,13.6619865 5.21246926,13.6456259 5.19144391,13.6279245 C4.75333247,13.259203 4.68013766,13.1974198 4.49429092,13.0384314 C2.38065602,11.230257 1.46467016,10.0580341 1.5,8.576 L1.5,4.37023486 L0.162293312,2.68294082 C-0.095038698,2.35835938 -0.0405222621,1.88662532 0.284059179,1.62929331 C0.608640621,1.3719613 1.08037468,1.42647774 1.33770669,1.75105918 L2.83770669,3.64305918 C2.94280575,3.77562413 3,3.93982766 3,4.109 L2.99978951,8.59376752 C2.98013645,9.42312693 3.645673,10.3111852 5.25,11.7092367 Z M12.48,17 C12.8942136,17 13.23,17.3357864 13.23,17.75 C13.23,18.1642136 12.8942136,18.5 12.48,18.5 L9,18.5 C8.58578644,18.5 8.25,18.1642136 8.25,17.75 C8.25,17.3357864 8.58578644,17 9,17 L12.48,17 Z M10.5,13.75 C10.9142136,13.75 11.25,14.0857864 11.25,14.5 C11.25,14.9142136 10.9142136,15.25 10.5,15.25 L9,15.25 C8.58578644,15.25 8.25,14.9142136 8.25,14.5 C8.25,14.0857864 8.58578644,13.75 9,13.75 L10.5,13.75 Z"/>
</svg>
