<svg xmlns="http://www.w3.org/2000/svg" width="24" height="24" viewBox="0 0 24 24">
  <path d="M2853.879,60 C2854.43128,60 2854.879,60.4477157 2854.879,61 C2854.879,61.5522852 2854.43128,62 2853.879,62 L2848.5,62 C2848.22386,62 2848,62.2238578 2848,62.5 L2848,77.5 C2848,77.7761424 2848.22386,78 2848.5,78 L2859.5,78 C2859.77614,78 2860,77.7761424 2860,77.5 L2860,72.1210002 C2860,71.5687154 2860.44772,71.1210002 2861,71.1210002 C2861.55228,71.1210002 2862,71.5687154 2862,72.1210002 L2862,77.5 C2862,78.880712 2860.88071,80 2859.5,80 L2848.5,80 C2847.11929,80 2846,78.880712 2846,77.5 L2846,62.5 C2846,61.1192883 2847.11929,60 2848.5,60 L2853.879,60 Z M2862.71428,58.7168813 C2862.7053,61.1070865 2863.79299,62.2379068 2866.29939,62.2859221 C2867.24427,62.3040233 2867.22811,63.7178667 2866.28306,63.7143564 C2863.94807,63.7056834 2862.83763,64.8376424 2862.71339,67.3214713 C2862.6672,68.2449941 2861.29411,68.216892 2861.28574,67.2922524 C2861.26357,64.8428554 2860.22026,63.7143614 2857.71429,63.7143614 C2856.76841,63.7143614 2856.75871,62.2988249 2857.7045,62.2858582 C2860.14872,62.2523478 2861.27709,61.1621537 2861.28571,58.7118492 C2861.28936,57.7592634 2862.71763,57.764507 2862.71428,58.7168813 Z M2851,71.0000005 C2850.44772,71.0000005 2850,70.5522852 2850,70.0000005 C2850,69.4477157 2850.44772,69.0000005 2851,69.0000005 L2854,69.0000005 C2854.55228,69.0000005 2855,69.4477157 2855,70.0000005 C2855,70.5522852 2854.55228,71.0000005 2854,71.0000005 L2851,71.0000005 Z M2851,75 C2850.44772,75 2850,74.5522847 2850,74 C2850,73.4477153 2850.44772,73 2851,73 L2857,73 C2857.55228,73 2858,73.4477153 2858,74 C2858,74.5522847 2857.55228,75 2857,75 L2851,75 Z" transform="translate(-2843 -58)"/>
</svg>
