<svg xmlns="http://www.w3.org/2000/svg" width="24" height="24" viewBox="0 0 24 24">
  <path d="M2898.25818,73.999441 L2908.15833,74.0000207 C2908.70358,73.9966216 2909.23255,74.1739655 2909.66804,74.5049077 L2909.82682,74.6361579 L2913.77115,78.2521229 C2914.18447,78.6220056 2914.44015,79.133332 2914.49078,79.6855502 L2914.5,79.8709995 L2914.49922,95.7841742 C2914.44337,97.0085102 2913.44922,97.9689019 2912.26892,98.0011161 L2912.11397,97.9999996 L2898.20668,97.9985934 C2897.06875,97.9432251 2896.14315,97.0686897 2896.0131,95.9164381 L2896,95.75 L2896.00078,76.2158254 C2896.05663,74.9914894 2897.05078,74.0310978 2898.25818,73.999441 L2898.25818,73.999441 Z M2898.35518,75.4993666 C2897.9373,75.4821815 2897.57914,75.7797676 2897.51089,76.1547731 L2897.5,76.25 L2897.49922,95.7158275 C2897.51698,96.1051575 2897.8042,96.4227361 2898.14811,96.4880553 L2898.24315,96.4994796 L2912.14482,96.5006329 C2912.5627,96.5178181 2912.92086,96.220232 2912.98913,95.8452265 L2913.00002,95.7499995 L2913.00002,81.4996349 L2909.46361,81.5 C2908.15775,81.4992631 2907.08943,80.4831676 2907.00533,79.1979941 L2907,79.036 L2907,75.4996349 L2898.35518,75.4993666 Z M2909.75,91.25 C2910.16421,91.25 2910.5,91.5857864 2910.5,92 C2910.5,92.3796958 2910.21785,92.693491 2909.85177,92.7431534 L2909.75,92.75 L2907.75,92.75 C2907.33579,92.75 2907,92.4142136 2907,92 C2907,91.6203042 2907.28215,91.306509 2907.64823,91.2568466 L2907.75,91.25 L2909.75,91.25 Z M2904.75,91.25 C2905.16421,91.25 2905.5,91.5857864 2905.5,92 C2905.5,92.3796958 2905.21785,92.693491 2904.85177,92.7431534 L2904.75,92.75 L2900.75,92.75 C2900.33579,92.75 2900,92.4142136 2900,92 C2900,91.6203042 2900.28215,91.306509 2900.64823,91.2568466 L2900.75,91.25 L2904.75,91.25 Z M2909.75,87.5 C2910.16421,87.5 2910.5,87.8357864 2910.5,88.25 C2910.5,88.6296958 2910.21785,88.943491 2909.85177,88.9931534 L2909.75,89 L2900.75,89 C2900.33579,89 2900,88.6642136 2900,88.25 C2900,87.8703042 2900.28215,87.556509 2900.64823,87.5068466 L2900.75,87.5 L2909.75,87.5 Z M2904.75,83.75 C2905.16421,83.75 2905.5,84.0857864 2905.5,84.5 C2905.5,84.8796958 2905.21785,85.193491 2904.85177,85.2431534 L2904.75,85.25 L2900.75,85.25 C2900.33579,85.25 2900,84.9142136 2900,84.5 C2900,84.1203042 2900.28215,83.806509 2900.64823,83.7568466 L2900.75,83.75 L2904.75,83.75 Z M2908.50102,75.5574236 L2908.5,79.0355514 C2908.5003,79.5300528 2908.87248,79.9375264 2909.35167,79.9934544 L2909.46403,80 L2913.00002,79.9996349 L2913.00002,79.8770282 C2912.99878,79.7220082 2912.94528,79.5731569 2912.84658,79.4505628 L2912.76419,79.3638543 L2908.819,75.7471208 C2908.72564,75.6633113 2908.61771,75.5992854 2908.50102,75.5574236 Z" transform="translate(-2893 -74)"/>
</svg>
