<?xml version="1.0" encoding="UTF-8"?>
<svg width="24px" height="24px" viewBox="0 0 24 24" version="1.1" xmlns="http://www.w3.org/2000/svg" xmlns:xlink="http://www.w3.org/1999/xlink">
    <title>document-pdf-g</title>
    <g id="Icons" stroke="none" stroke-width="1" fill="none" fill-rule="evenodd">
        <g id="Glyphs" transform="translate(-4122, -58)" fill="#000000" fill-rule="nonzero">
            <path d="M4145,73 C4145.55228,73 4146,73.4477153 4146,74 C4146,74.5522847 4145.55228,75 4145,75 L4142,75 L4142,77 L4144,77 C4144.55228,77 4145,77.4477153 4145,78 C4145,78.5522847 4144.55228,79 4144,79 L4142,79 L4142,81 C4142,81.5128358 4141.61396,81.9355072 4141.11662,81.9932723 L4141,82 C4140.44772,82 4140,81.5522847 4140,81 L4140,74 C4140,73.4477153 4140.44772,73 4141,73 L4145,73 Z M4126,73 C4127.933,73 4129.5,74.5670034 4129.5,76.5 C4129.5,78.4329966 4127.933,80 4126,80 L4125,80 L4125,81 C4125,81.5128358 4124.61396,81.9355072 4124.11662,81.9932723 L4124,82 C4123.44772,82 4123,81.5522847 4123,81 L4123,74 C4123,73.4477153 4123.44772,73 4124,73 L4126,73 Z M4125,78 L4126,78 C4126.82843,78 4127.5,77.3284271 4127.5,76.5 C4127.5,75.6715729 4126.82843,75 4126,75 L4125,75 L4125,78 Z M4134,73 C4136.48528,73 4138.5,75.0147186 4138.5,77.5 C4138.5,79.9852814 4136.48528,82 4134,82 L4132,82 C4131.44772,82 4131,81.5522847 4131,81 L4131,74 C4131,73.4477153 4131.44772,73 4132,73 L4134,73 Z M4133,80 L4134,80 C4135.38071,80 4136.5,78.8807119 4136.5,77.5 C4136.5,76.1192881 4135.38071,75 4134,75 L4133,75 L4133,80 Z M4125,58 L4137.0634,58.0019773 L4137.15677,58.012361 L4137.20369,58.0207796 L4137.27993,58.0399762 L4137.39804,58.0826309 L4137.51175,58.1408647 L4137.62545,58.2196888 L4137.70711,58.2928932 L4144.70711,65.2928932 C4144.74295,65.3287373 4144.77579,65.3670224 4144.80547,65.4073576 L4144.83319,65.4468321 L4144.8773,65.5200503 L4144.92866,65.6290723 L4144.96833,65.7503259 L4144.9792,65.796279 L4144.99209,65.8744695 L4145,66 L4145,69 C4145,69.5522847 4144.55228,70 4144,70 C4143.44772,70 4143,69.5522847 4143,69 L4143,67 L4137,67 C4136.44772,67 4136,66.5522847 4136,66 L4136,60 L4125,60 L4125,69 C4125,69.5522847 4124.55228,70 4124,70 C4123.44772,70 4123,69.5522847 4123,69 L4123,60 C4123,58.8954305 4123.89543,58 4125,58 Z M4141.585,65 L4138,61.415 L4138,65 L4141.585,65 Z" id="Shape"></path>
        </g>
    </g>
</svg>