<?xml version="1.0" encoding="UTF-8"?>
<svg width="24px" height="24px" viewBox="0 0 24 24" version="1.1" xmlns="http://www.w3.org/2000/svg" xmlns:xlink="http://www.w3.org/1999/xlink">
    <title>document-csv-g</title>
    <g id="Icons" stroke="none" stroke-width="1" fill="none" fill-rule="evenodd">
        <g id="Glyphs" transform="translate(-4095, -58)" fill="#000000" fill-rule="nonzero">
            <path d="M4099.01211,73.0000733 C4100.04821,73.0126202 4101.03333,73.4516173 4101.73544,74.213656 C4102.10966,74.6198263 4102.08376,75.2524614 4101.67759,75.6266862 C4101.30267,75.9721245 4100.73478,75.9766307 4100.35529,75.6558161 L4100.26456,75.568844 C4099.93542,75.2116067 4099.4736,75.0058086 4099,75 C4097.93237,75 4097,76.0880337 4097,77.5 C4097,78.9119663 4097.93237,80 4098.98789,80.0000733 C4099.41964,79.994845 4099.8325,79.8316581 4100.15009,79.5445598 L4100.26456,79.431156 C4100.63879,79.0249858 4101.27142,78.999089 4101.67759,79.3733138 C4102.08376,79.7475386 4102.10966,80.3801737 4101.73544,80.786344 C4101.03333,81.5483827 4100.04821,81.9873798 4099,82 C4096.75337,82 4095,79.9538973 4095,77.5 C4095,75.0461027 4096.75337,73.0000733 4099.01211,73.0000733 Z M4106.41161,73.0182294 C4106.98919,72.9724953 4107.58634,73.0156028 4108.16969,73.1141322 C4108.4235,73.1570017 4108.62094,73.200923 4108.74308,73.2332112 C4109.27702,73.3743622 4109.59544,73.9216338 4109.45429,74.4555765 C4109.32322,74.9513805 4108.84198,75.2613516 4108.34639,75.1900902 L4108.03841,75.1233167 C4107.98013,75.1116364 4107.91239,75.0990023 4107.8366,75.0861999 C4107.40228,75.0128425 4106.961,74.9809872 4106.56948,75.0119888 C4105.86043,75.0681341 4105.55916,75.2681307 4105.50463,75.700205 C4105.47998,75.8955697 4105.64814,76.0293507 4106.54958,76.3050607 L4107.02695,76.4453825 C4109.25037,77.0855416 4110.20759,77.7487369 4109.97679,79.5428564 C4109.77556,81.1038359 4108.62948,81.8741507 4107.08395,81.9901777 C4106.50859,82.0333713 4105.91422,81.9861517 4105.33274,81.8823397 C4105.07261,81.8358985 4104.86993,81.7883383 4104.7443,81.7533624 C4104.21225,81.6052378 4103.90101,81.0538471 4104.04914,80.5217968 C4104.18668,80.02775 4104.67194,79.7241016 4105.16655,79.8018407 L4105.47838,79.8734723 C4105.53786,79.8860599 4105.60698,79.899676 4105.68425,79.9134711 C4106.11373,79.990148 4106.54888,80.0247183 4106.93422,79.9957899 C4107.63558,79.9431374 4107.93454,79.742194 4107.99317,79.2874106 C4108.03539,78.9592257 4107.83776,78.7846728 4106.85424,78.4805053 L4106.37031,78.3376055 C4104.19412,77.7118002 4103.30822,77.1308555 4103.52037,75.449795 C4103.71567,73.9021891 4104.86246,73.1408956 4106.41161,73.0182294 Z M4109,58 C4109.26522,58 4109.51957,58.1053568 4109.70711,58.2928932 L4117.70711,66.2928932 C4117.74295,66.3287373 4117.77579,66.3670224 4117.80547,66.4073576 L4117.83319,66.4468321 L4117.8773,66.5200503 L4117.92866,66.6290723 L4117.96833,66.7503259 L4117.9792,66.796279 L4117.99209,66.8744695 L4118,67 L4118,70 C4118,70.5522847 4117.55228,71 4117,71 C4116.44772,71 4116,70.5522847 4116,70 L4115.999,68 L4110,68 C4108.89543,68 4108,67.1045695 4108,66 L4108,60 L4099,60 C4098.48716,60 4098.06449,60.3860402 4098.00673,60.8833789 L4098,61 L4098,70 C4098,70.5522847 4097.55228,71 4097,71 C4096.44772,71 4096,70.5522847 4096,70 L4096,61 C4096,59.3431458 4097.34315,58 4099,58 L4109,58 Z M4114.584,66 L4109.999,61.415 L4110,66 L4114.584,66 Z M4116.05826,73.6636636 C4116.24401,73.1435539 4116.81623,72.8725046 4117.33634,73.0582581 C4117.85645,73.2440116 4118.1275,73.8162267 4117.94174,74.3363364 L4115.44174,81.3363364 C4115.12571,82.2212212 4113.87429,82.2212212 4113.55826,81.3363364 L4111.05826,74.3363364 C4110.8725,73.8162267 4111.14355,73.2440116 4111.66366,73.0582581 C4112.18377,72.8725046 4112.75599,73.1435539 4112.94174,73.6636636 L4114.5,78.027 L4116.05826,73.6636636 Z" id="Shape"></path>
        </g>
    </g>
</svg>