<?xml version="1.0" encoding="UTF-8"?>
<svg width="24px" height="24px" viewBox="0 0 24 24" version="1.1" xmlns="http://www.w3.org/2000/svg" xmlns:xlink="http://www.w3.org/1999/xlink">
    <!-- Generator: Sketch 54.1 (76490) - https://sketchapp.com -->
    <title>bell copy 55</title>
    <desc>Created with Sketch.</desc>
    <g id="Icons" stroke="none" stroke-width="1" fill="none" fill-rule="evenodd">
        <path d="M14.5000001,3.41421803 L14.5000001,7.49999985 C14.5000001,7.77614246 14.7238578,8.00000023 15.0000001,8.00000023 L19.0857822,8.00000023 L14.5000001,3.41421803 L14.5000001,3.41421803 Z M20,10 L15,10 C13.6192883,10.0000002 12.5000003,8.88071201 12.5,7.5 L12.5,2 L4.5,2 C4.22385775,2.00000001 4,2.22385776 4,2.5 L4,21.5 C4.00000004,21.7761424 4.22385771,22.0000001 4.5,22 L19.5,22 C19.7761423,22.0000001 20,21.7761424 20,21.5 L20,10 Z M2,2.5 C2,1.11928827 3.11928822,6.03528359e-08 4.5,0 L12.8792097,4.05912914e-07 C13.5417882,0.000142072605 14.1772127,0.263303713 14.6461027,0.731893649 L21.2687049,7.35449603 C21.7369228,7.82320715 22,8.45866888 21.9999999,9.12100016 L22,21.5 C21.9999999,22.880712 20.8807116,24.0000003 19.5,24 L4.5,24 C3.11928838,24.0000003 2.00000021,22.880712 2,21.5 L2,2.5 Z" id="Shape" fill="#000000" fill-rule="nonzero"></path>
    </g>
</svg>