<?xml version="1.0" encoding="UTF-8"?>
<svg width="24px" height="24px" viewBox="0 0 24 24" version="1.1" xmlns="http://www.w3.org/2000/svg" xmlns:xlink="http://www.w3.org/1999/xlink">
    <title>document-new-g</title>
    <g id="Icons" stroke="none" stroke-width="1" fill="none" fill-rule="evenodd">
        <g id="Glyphs" transform="translate(-2843, -58)" fill="#000000" fill-rule="nonzero">
            <path d="M2855,60 C2855.55228,60 2856,60.4477153 2856,61 C2856,61.5522847 2855.55228,62 2855,62 L2848.5,62 C2847.67157,62 2847,62.6715729 2847,63.5 L2847,78.5 C2847,79.3284271 2847.67157,80 2848.5,80 L2859.5,80 C2860.32843,80 2861,79.3284271 2861,78.5 L2861,71 C2861,70.4477153 2861.44772,70 2862,70 C2862.55228,70 2863,70.4477153 2863,71 L2863,78.5 C2863,80.4329966 2861.433,82 2859.5,82 L2848.5,82 C2846.567,82 2845,80.4329966 2845,78.5 L2845,63.5 C2845,61.5670034 2846.567,60 2848.5,60 L2855,60 Z M2858,75 C2858.55228,75 2859,75.4477153 2859,76 C2859,76.5522847 2858.55228,77 2858,77 L2850,77 C2849.44772,77 2849,76.5522847 2849,76 C2849,75.4477153 2849.44772,75 2850,75 L2858,75 Z M2853,71.0000005 C2853.55228,71.0000005 2854,71.4477157 2854,72.0000005 C2854,72.5522852 2853.55228,73.0000005 2853,73.0000005 L2850,73.0000005 C2849.44772,73.0000005 2849,72.5522852 2849,72.0000005 C2849,71.4477157 2849.44772,71.0000005 2850,71.0000005 L2853,71.0000005 Z M2862.71428,58.7168813 C2862.7053,61.1070865 2863.79299,62.2379068 2866.29939,62.2859221 C2867.24427,62.3040233 2867.22811,63.7178667 2866.28306,63.7143564 C2863.94807,63.7056834 2862.83763,64.8376424 2862.71339,67.3214713 C2862.6672,68.2449941 2861.29411,68.216892 2861.28574,67.2922524 C2861.26357,64.8428554 2860.22026,63.7143614 2857.71429,63.7143614 C2856.76841,63.7143614 2856.75871,62.2988249 2857.7045,62.2858582 C2860.14872,62.2523478 2861.27709,61.1621537 2861.28571,58.7118492 C2861.28936,57.7592634 2862.71763,57.764507 2862.71428,58.7168813 Z" id="Shape"></path>
        </g>
    </g>
</svg>