<?xml version="1.0" encoding="UTF-8"?>
<svg width="24px" height="24px" viewBox="0 0 24 24" version="1.1" xmlns="http://www.w3.org/2000/svg" xmlns:xlink="http://www.w3.org/1999/xlink">
    <title>document-warn-g</title>
    <g id="Icons" stroke="none" stroke-width="1" fill="none" fill-rule="evenodd">
        <g transform="translate(-2949, -74)" fill="#000000" fill-rule="nonzero" id="Shape">
            <path d="M2963.5,76 C2964.05228,76 2964.5,76.4477153 2964.5,77 C2964.5,77.5522847 2964.05228,78 2963.5,78 L2954.5,78 C2953.67157,78 2953,78.6715729 2953,79.5 L2953,94.5 C2953,95.3284271 2953.67157,96 2954.5,96 L2965.5,96 C2966.32843,96 2967,95.3284271 2967,94.5 L2967,89.5 C2967,88.9477153 2967.44772,88.5 2968,88.5 C2968.55228,88.5 2969,88.9477153 2969,89.5 L2969,94.5 C2969,96.4329966 2967.433,98 2965.5,98 L2954.5,98 C2952.567,98 2951,96.4329966 2951,94.5 L2951,79.5 C2951,77.5670034 2952.567,76 2954.5,76 L2963.5,76 Z M2964,91 C2964.55228,91 2965,91.4477153 2965,92 C2965,92.5522847 2964.55228,93 2964,93 L2956,93 C2955.44772,93 2955,92.5522847 2955,92 C2955,91.4477153 2955.44772,91 2956,91 L2964,91 Z M2959,87.0000005 C2959.55228,87.0000005 2960,87.4477157 2960,88.0000005 C2960,88.5522852 2959.55228,89.0000005 2959,89.0000005 L2956,89.0000005 C2955.44772,89.0000005 2955,88.5522852 2955,88.0000005 C2955,87.4477157 2955.44772,87.0000005 2956,87.0000005 L2959,87.0000005 Z M2968,83 C2968.82843,83 2969.5,83.6715729 2969.5,84.5 C2969.5,85.3284271 2968.82843,86 2968,86 C2967.17157,86 2966.5,85.3284271 2966.5,84.5 C2966.5,83.6715729 2967.17157,83 2968,83 Z M2968,74 C2968.64721,74 2969.17953,74.4918747 2969.24355,75.1221948 L2969.25,75.25 L2969.25,80.25 C2969.25,80.9403559 2968.69036,81.5 2968,81.5 C2967.35279,81.5 2966.82047,81.0081253 2966.75645,80.3778052 L2966.75,80.25 L2966.75,75.25 C2966.75,74.5596441 2967.30964,74 2968,74 Z"></path>
        </g>
    </g>
</svg>