<svg xmlns="http://www.w3.org/2000/svg" width="24" height="24" viewBox="0 0 24 24">
  <path d="M10.878996,2.00000038 C11.4312807,2.00000042 11.878996,2.4477157 11.8789959,3.00000045 C11.8789959,3.5522852 11.4312806,4.00000042 10.8789959,4.00000038 L5.5,4 C5.22385775,4.00000001 5,4.22385776 5,4.5 L5,19.5 C5.00000004,19.7761424 5.22385771,20.0000001 5.5,20 L16.5,20 C16.7761423,20.0000001 17,19.7761424 17,19.5 L16.9999999,13.1210002 C16.9999999,12.5687154 17.4477152,12.1210002 17.9999999,12.1210002 C18.5522847,12.1210002 18.9999999,12.5687154 18.9999999,13.1210002 L19,19.5 C18.9999999,20.880712 17.8807116,22.0000003 16.5,22 L5.5,22 C4.11928838,22.0000003 3.00000021,20.880712 3,19.5 L3,4.5 C3,3.11928827 4.11928822,2.00000006 5.5,2 L10.878996,2.00000038 Z M18.7142789,0.716881286 C18.7052958,3.10708646 19.7929942,4.23790681 22.2993903,4.28592206 C23.2442728,4.30402326 23.2281054,5.71786672 22.283056,5.71435642 C19.948074,5.70568336 18.8376334,6.83764237 18.7133914,9.32147132 C18.6671965,10.2449941 17.2941119,10.216892 17.2857423,9.2922524 C17.263571,6.84285535 16.2202587,5.71436135 13.7142872,5.71436135 C12.7684129,5.71436135 12.7587098,4.29882488 13.7044953,4.28585815 C16.1487175,4.25234783 17.2770862,3.16215367 17.285711,0.711849171 C17.2893563,-0.24073661 18.7176336,-0.235493019 18.7142789,0.716881286 Z M7.99999984,13.0000005 C7.44771509,13.0000005 6.99999984,12.5522852 6.99999984,12.0000005 C6.99999984,11.4477157 7.44771509,11.0000005 7.99999984,11.0000005 L10.9999998,11.0000005 C11.5522846,11.0000005 11.9999998,11.4477157 11.9999998,12.0000005 C11.9999998,12.5522852 11.5522846,13.0000005 10.9999998,13.0000005 L7.99999984,13.0000005 Z M7.99999984,17 C7.44771509,17 6.99999984,16.5522847 6.99999984,16 C6.99999984,15.4477153 7.44771509,15 7.99999984,15 L13.9999998,15 C14.5522846,15 14.9999998,15.4477153 14.9999998,16 C14.9999998,16.5522847 14.5522846,17 13.9999998,17 L7.99999984,17 Z"/>
</svg>
