<?xml version="1.0" encoding="UTF-8"?>
<svg width="24px" height="24px" viewBox="0 0 24 24" version="1.1" xmlns="http://www.w3.org/2000/svg" xmlns:xlink="http://www.w3.org/1999/xlink">
    <title>document-g</title>
    <g id="Icons" stroke="none" stroke-width="1" fill="none" fill-rule="evenodd">
        <g transform="translate(-1862, -74)" fill="#000000" fill-rule="nonzero" id="Shape">
            <path d="M1868.5,75 L1875.06403,75.0019773 L1875.15677,75.012361 L1875.20369,75.0207796 L1875.27993,75.0399762 L1875.39804,75.0826309 L1875.51175,75.1408647 L1875.62545,75.2196888 L1875.70711,75.2928932 L1882.70711,82.2928932 C1882.74295,82.3287373 1882.77579,82.3670224 1882.80547,82.4073576 L1882.8773,82.5200503 L1882.92549,82.6212284 L1882.94421,82.6699189 L1882.96833,82.7503259 L1882.9792,82.796279 L1882.99209,82.8744695 L1883,83 L1883,93.5 C1883,95.4329966 1881.433,97 1879.5,97 L1868.5,97 C1866.567,97 1865,95.4329966 1865,93.5 L1865,78.5 C1865,76.5670034 1866.567,75 1868.5,75 Z M1873.999,77 L1868.5,77 C1867.67157,77 1867,77.6715729 1867,78.5 L1867,93.5 C1867,94.3284271 1867.67157,95 1868.5,95 L1879.5,95 C1880.32843,95 1881,94.3284271 1881,93.5 L1881,84 L1876.42566,84 C1875.08601,84 1874,82.913994 1874,81.5743379 L1873.999,77 Z M1878,90 C1878.55228,90 1879,90.4477153 1879,91 C1879,91.5522847 1878.55228,92 1878,92 L1870,92 C1869.44772,92 1869,91.5522847 1869,91 C1869,90.4477153 1869.44772,90 1870,90 L1878,90 Z M1873,86.0000005 C1873.55228,86.0000005 1874,86.4477157 1874,87.0000005 C1874,87.5522852 1873.55228,88.0000005 1873,88.0000005 L1870,88.0000005 C1869.44772,88.0000005 1869,87.5522852 1869,87.0000005 C1869,86.4477157 1869.44772,86.0000005 1870,86.0000005 L1873,86.0000005 Z M1875.999,78.414 L1876,81.5743379 C1876,81.8094246 1876.19058,82 1876.42566,82 L1879.585,82 L1875.999,78.414 Z"></path>
        </g>
    </g>
</svg>