<svg xmlns="http://www.w3.org/2000/svg" width="24" height="24" viewBox="0 0 24 24">
  <path d="M8.99999984,13.0000005 C8.44771509,13.0000005 7.99999984,12.5522852 7.99999984,12.0000005 C7.99999984,11.4477157 8.44771509,11.0000005 8.99999984,11.0000005 L10.9999998,11.0000005 C11.5522846,11.0000005 11.9999998,11.4477157 11.9999998,12.0000005 C11.9999998,12.5522852 11.5522846,13.0000005 10.9999998,13.0000005 L8.99999984,13.0000005 Z M8.99999984,17 C8.44771509,17 7.99999984,16.5522847 7.99999984,16 C7.99999984,15.4477153 8.44771509,15 8.99999984,15 L14.9999998,15 C15.5522846,15 15.9999998,15.4477153 15.9999998,16 C15.9999998,16.5522847 15.5522846,17 14.9999998,17 L8.99999984,17 Z M19.9400001,8.67000097 C19.9694717,8.75763197 19.9895837,8.84813597 19.9999999,8.94000045 L20,9 L20,19 C19.9999999,20.6568505 18.6568499,22.0000005 17,22 L7,22 C5.34315,22.0000005 4.00000025,20.6568505 4,19 L4,5 C4,3.34315 5.34315,2.00000007 7,2 L13.0600001,2 C13.2028949,2 13.3243614,2.0197875 13.4243995,2.05936249 C13.5272195,2.10744349 13.6673353,2.22221717 13.7500001,2.300001 L19.7500001,8.300001 C19.8277841,8.382666 19.891919,8.477181 19.9400001,8.58000097 L19.9400001,8.67000097 Z M13.9999998,5.41000046 L13.9999998,7.00000046 C13.9999998,7.55228546 14.4477148,8.00000044 14.9999998,8.00000046 L16.5899998,8.00000046 L13.9999998,5.41000046 Z M17.9999998,19.0000006 L17.9999998,10.0000006 L14.9999998,10.0000006 C13.3431498,10.0000011 12,8.65685106 11.9999998,7.00000061 L11.9999998,4.00000061 L6.99999979,4.00000061 C6.44771479,4.00000061 5.99999971,4.44771561 5.99999979,5.00000061 L5.99999979,19.0000006 C5.99999979,19.5522855 6.44771479,20.0000004 6.99999979,20.0000006 L16.9999998,20.0000006 C17.5522848,20.0000005 17.9999998,19.5522855 17.9999998,19.0000006 Z"/>
</svg>
