<?xml version="1.0" encoding="UTF-8"?>
<svg width="24px" height="24px" viewBox="0 0 24 24" version="1.1" xmlns="http://www.w3.org/2000/svg" xmlns:xlink="http://www.w3.org/1999/xlink">
    <title>document-xls-g</title>
    <g id="Icons" stroke="none" stroke-width="1" fill="none" fill-rule="evenodd">
        <g id="Glyphs" transform="translate(-4150, -58)" fill="#000000" fill-rule="nonzero">
            <path d="M4164,58 C4164.26522,58 4164.51957,58.1053568 4164.70711,58.2928932 L4172.70711,66.2928932 C4172.74295,66.3287373 4172.77579,66.3670224 4172.80547,66.4073576 L4172.83319,66.4468321 L4172.8773,66.5200503 L4172.92866,66.6290723 L4172.96833,66.7503259 L4172.9792,66.796279 L4172.99209,66.8744695 L4173,67 L4173,70 C4173,70.5522847 4172.55228,71 4172,71 C4171.44772,71 4171,70.5522847 4171,70 L4170.999,68 L4165,68 C4163.89543,68 4163,67.1045695 4163,66 L4163,60 L4154,60 C4153.48716,60 4153.06449,60.3860402 4153.00673,60.8833789 L4153,61 L4153,70 C4153,70.5522847 4152.55228,71 4152,71 C4151.44772,71 4151,70.5522847 4151,70 L4151,61 C4151,59.3431458 4152.34315,58 4154,58 L4164,58 Z M4169.584,66 L4164.999,61.415 L4165,66 L4169.584,66 Z M4160.99979,73 C4161.55207,73 4161.99979,73.4477153 4161.99979,74 L4161.99979,79.999 L4164.4997,79.9998341 C4165.01254,79.9998341 4165.43521,80.3858743 4165.49298,80.883213 L4165.4997,80.9998341 C4165.4997,81.5521188 4165.05199,81.9998341 4164.4997,81.9998341 L4160.99979,81.9998341 C4160.4475,81.9998341 4159.99979,81.5521188 4159.99979,80.9998341 L4159.99979,74 C4159.99979,73.4477153 4160.4475,73 4160.99979,73 Z M4156.18615,73.4187618 C4156.50716,72.9693492 4157.13171,72.8652575 4157.58112,73.1862665 C4158.03053,73.5072755 4158.13462,74.1318256 4157.81361,74.5812382 L4152.81373,81.5810723 C4152.49272,82.0304849 4151.86817,82.1345765 4151.41876,81.8135675 C4150.96935,81.4925586 4150.86526,80.8680085 4151.18627,80.4185959 L4156.18615,73.4187618 Z M4169.4112,73.0182291 C4169.98876,72.9724958 4170.5859,73.0156025 4171.16923,73.1141298 C4171.42304,73.1569984 4171.62048,73.2009189 4171.74261,73.2332064 C4172.27656,73.3743574 4172.59498,73.9216291 4172.45383,74.4555718 C4172.32276,74.9513757 4171.84151,75.2613468 4171.34593,75.1900854 L4171.03795,75.1233133 C4170.97968,75.1116333 4170.91194,75.0989996 4170.83614,75.0861976 C4170.40184,75.0128421 4169.96058,74.9809878 4169.56907,75.0119884 C4168.86004,75.0681316 4168.55879,75.2681169 4168.50426,75.7001677 C4168.47807,75.9077214 4168.66954,76.0457653 4169.72692,76.3583912 L4170.02653,76.4453018 C4172.24991,77.0854488 4173.20711,77.7486342 4172.97632,79.542728 C4172.77509,81.1036836 4171.62903,81.8739869 4170.08352,81.990012 C4169.50817,82.0332046 4168.91382,81.9859861 4168.33235,81.8821762 C4168.07223,81.835736 4167.86955,81.7881767 4167.74392,81.7532014 C4167.21187,81.6050769 4166.90063,81.0536862 4167.04876,80.5216358 C4167.1863,80.0275891 4167.67156,79.7239407 4168.16617,79.8016798 L4168.47799,79.8733099 C4168.53748,79.8858971 4168.60659,79.8995129 4168.68386,79.9133076 C4169.11333,79.9899823 4169.54847,80.0245517 4169.9338,79.9956241 C4170.63513,79.9429736 4170.93407,79.7420418 4170.9927,79.2872822 C4171.0374,78.9398166 4170.81321,78.7645748 4169.67198,78.4253429 L4169.36989,78.3375255 C4167.19375,77.7117317 4166.30786,77.1307957 4166.52,75.4497577 C4166.7153,73.9021752 4167.86208,73.1408932 4169.4112,73.0182291 Z" id="Shape"></path>
            <path d="M4151.41876,73.1862665 C4151.86817,72.8652575 4152.49272,72.9693492 4152.81373,73.4187618 L4157.81361,80.4185959 C4158.13462,80.8680085 4158.03053,81.4925586 4157.58112,81.8135675 C4157.13171,82.1345765 4156.50716,82.0304849 4156.18615,81.5810723 L4151.18627,74.5812382 C4150.86526,74.1318256 4150.96935,73.5072755 4151.41876,73.1862665 Z" id="Path"></path>
        </g>
    </g>
</svg>