<svg xmlns="http://www.w3.org/2000/svg" width="24" height="24" viewBox="0 0 24 24">
  <path d="M2962.5,76 C2963.05228,76 2963.5,76.4477153 2963.5,77 C2963.5,77.5128358 2963.11396,77.9355072 2962.61662,77.9932723 L2962.5,78 L2955,78 C2954.75454,78 2954.55039,78.1768753 2954.50806,78.4101244 L2954.5,78.5 L2954.5,93.5 C2954.5,93.7454599 2954.67688,93.9496084 2954.91012,93.9919443 L2955,94 L2966.5,94 C2966.74546,94 2966.94961,93.8231248 2966.99194,93.5898756 L2967,93.5 L2967,90.5 C2967,89.9477153 2967.44772,89.5 2968,89.5 C2968.51284,89.5 2968.93551,89.8860402 2968.99327,90.3833789 L2969,90.5 L2969,93.5 C2969,94.8254834 2967.96846,95.9100387 2966.66438,95.9946823 L2966.5,96 L2955,96 C2953.67452,96 2952.58996,94.9684641 2952.50532,93.6643757 L2952.5,93.5 L2952.5,78.5 C2952.5,77.1745167 2953.53154,76.0899613 2954.83562,76.0053177 L2955,76 L2962.5,76 Z M2963.5,88.9999998 C2964.05228,88.9999998 2964.5,89.4477151 2964.5,89.9999998 C2964.5,90.5522847 2964.05228,90.9999998 2963.5,90.9999998 L2957.5,90.9999998 C2956.94772,90.9999998 2956.5,90.5522847 2956.5,89.9999998 C2956.5,89.4477151 2956.94772,88.9999998 2957.5,88.9999998 L2963.5,88.9999998 Z M2961,85 C2961.55228,85 2962,85.4477153 2962,86 C2962,86.5522849 2961.55228,87 2961,87 L2957.5,87 C2956.94772,87 2956.5,86.5522849 2956.5,86 C2956.5,85.4477153 2956.94772,85 2957.5,85 L2961,85 Z M2968,83 C2968.9665,83 2969.75,83.7835017 2969.75,84.75 C2969.75,85.7164983 2968.9665,86.5 2968,86.5 C2967.0335,86.5 2966.25,85.7164983 2966.25,84.75 C2966.25,83.7835017 2967.0335,83 2968,83 Z M2968,74 C2968.64721,74 2969.17953,74.4918747 2969.24355,75.1221948 L2969.25,75.25 L2969.25,80.25 C2969.25,80.9403559 2968.69036,81.5 2968,81.5 C2967.35279,81.5 2966.82047,81.0081253 2966.75645,80.3778052 L2966.75,80.25 L2966.75,75.25 C2966.75,74.5596441 2967.30964,74 2968,74 Z" transform="translate(-2949 -74)"/>
</svg>
