<svg xmlns="http://www.w3.org/2000/svg" width="24" height="24" viewBox="0 0 24 24">
  <path d="M3234.91737,59.2115098 L3234.95728,59.3564027 L3234.98341,59.5603914 L3235,80.2677668 C3234.99937,81.2410234 3234.18461,82.0005424 3233.21382,82.0000082 L3233.09216,81.9959574 L3232.97102,81.9838594 L3223.54366,80.7266107 C3222.72241,80.6180876 3222.07921,79.9719834 3222.00679,79.1631915 L3222,79.0097281 L3222,61.9065219 C3221.99936,61.1237812 3222.53227,60.4592064 3223.25076,60.249338 L3223.39683,60.2135268 L3232.85388,58.0357811 C3233.74658,57.8574172 3234.64272,58.3610731 3234.91737,59.2115098 Z M3240.5,60 C3241.82548,60 3242.91004,61.0315361 3242.99468,62.3356243 L3243,62.5 L3243,77.5 C3243,78.8254833 3241.96846,79.9100387 3240.66438,79.9946823 L3240.5,80 L3237.5,80 C3236.94772,80 3236.5,79.5522847 3236.5,79 C3236.5,78.4871642 3236.88604,78.0644928 3237.38338,78.0067277 L3237.5,78 L3240.5,78 C3240.74546,78 3240.94961,77.8231247 3240.99194,77.5898756 L3241,77.5 L3241,62.5 C3241,62.2545402 3240.82312,62.0503917 3240.58988,62.0080557 L3240.5,62 L3237.5,62 C3236.94772,62 3236.5,61.5522847 3236.5,61 C3236.5,60.4871642 3236.88604,60.0644928 3237.38338,60.0067277 L3237.5,60 L3240.5,60 Z M3232.985,60.057 L3223.999,62.126 L3223.999,78.77 L3232.999,79.97 L3232.999,77.0136057 L3232.985,60.057 Z M3230.25,68.75 C3230.94036,68.75 3231.5,69.3096441 3231.5,70 C3231.5,70.6903559 3230.94036,71.25 3230.25,71.25 C3229.55964,71.25 3229,70.6903559 3229,70 C3229,69.3096441 3229.55964,68.75 3230.25,68.75 Z" transform="translate(-3220 -58)"/>
</svg>
