<svg xmlns="http://www.w3.org/2000/svg" width="24" height="24" viewBox="0 0 24 24">
  <path d="M3233.91737,59.2115098 L3233.95728,59.3564027 L3233.98341,59.5603914 L3234,80.2677668 C3233.99937,81.2410234 3233.18461,82.0005424 3232.21382,82.0000082 L3232.09216,81.9959574 L3231.97102,81.9838594 L3222.54366,80.7266107 C3221.72241,80.6180876 3221.07921,79.9719834 3221.00679,79.1631915 L3221,79.0097281 L3221,61.9065219 C3220.99936,61.1237812 3221.53227,60.4592064 3222.25076,60.249338 L3222.39683,60.2135268 L3231.85388,58.0357811 C3232.74658,57.8574172 3233.64272,58.3610731 3233.91737,59.2115098 Z M3241.5,60 C3242.82548,60 3243.91004,61.0315361 3243.99468,62.3356243 L3244,62.5 L3244,77.5 C3244,78.8254833 3242.96846,79.9100387 3241.66438,79.9946823 L3241.5,80 L3237,80 C3236.44772,80 3236,79.5522847 3236,79 C3236,78.4871642 3236.38604,78.0644928 3236.88338,78.0067277 L3237,78 L3241.5,78 C3241.74546,78 3241.94961,77.8231247 3241.99194,77.5898756 L3242,77.5 L3242,62.5 C3242,62.2545402 3241.82312,62.0503917 3241.58988,62.0080557 L3241.5,62 L3237,62 C3236.44772,62 3236,61.5522847 3236,61 C3236,60.4871642 3236.38604,60.0644928 3236.88338,60.0067277 L3237,60 L3241.5,60 Z M3231.985,60.057 L3222.999,62.126 L3222.999,78.77 L3231.999,79.97 L3231.999,77.0136057 L3231.985,60.057 Z M3229.25,68.75 C3229.94036,68.75 3230.5,69.3096441 3230.5,70 C3230.5,70.6903559 3229.94036,71.25 3229.25,71.25 C3228.55964,71.25 3228,70.6903559 3228,70 C3228,69.3096441 3228.55964,68.75 3229.25,68.75 Z" transform="translate(-3220 -58)"/>
</svg>
