<svg xmlns="http://www.w3.org/2000/svg" width="25" height="25" viewBox="0 0 25 25">
  <path fill-rule="evenodd" d="M18,12.5 C18,11.3954305 18.8954305,10.5 20,10.5 C21.1045695,10.5 22,11.3954305 22,12.5 C22,13.6045695 21.1045695,14.5 20,14.5 C18.8954305,14.5 18,13.6045695 18,12.5 Z M10.5,12.5 C10.5,11.3954305 11.3954305,10.5 12.5,10.5 C13.6045695,10.5 14.5,11.3954305 14.5,12.5 C14.5,13.6045695 13.6045695,14.5 12.5,14.5 C11.3954305,14.5 10.5,13.6045695 10.5,12.5 Z M3,12.5 C3,11.3954305 3.8954305,10.5 5,10.5 C6.1045695,10.5 7,11.3954305 7,12.5 C7,13.6045695 6.1045695,14.5 5,14.5 C3.8954305,14.5 3,13.6045695 3,12.5 Z"/>
</svg>
