<svg xmlns="http://www.w3.org/2000/svg" width="25" height="25" viewBox="0 0 25 25">
  <path fill-rule="evenodd" d="M12.5,7.5 C11.3954305,7.5 10.5,6.6045695 10.5,5.5 C10.5,4.3954305 11.3954305,3.5 12.5,3.5 C13.6045695,3.5 14.5,4.3954305 14.5,5.5 C14.5,6.6045695 13.6045695,7.5 12.5,7.5 Z M12.5,14.5 C11.3954305,14.5 10.5,13.6045695 10.5,12.5 C10.5,11.3954305 11.3954305,10.5 12.5,10.5 C13.6045695,10.5 14.5,11.3954305 14.5,12.5 C14.5,13.6045695 13.6045695,14.5 12.5,14.5 Z M12.5,21.5 C11.3954305,21.5 10.5,20.6045695 10.5,19.5 C10.5,18.3954305 11.3954305,17.5 12.5,17.5 C13.6045695,17.5 14.5,18.3954305 14.5,19.5 C14.5,20.6045695 13.6045695,21.5 12.5,21.5 Z"/>
</svg>
