<svg xmlns="http://www.w3.org/2000/svg" width="25" height="25" viewBox="0 0 25 25">
  <path fill-rule="evenodd" d="M12.5,7 C11.3954305,7 10.5,6.1045695 10.5,5 C10.5,3.8954305 11.3954305,3 12.5,3 C13.6045695,3 14.5,3.8954305 14.5,5 C14.5,6.1045695 13.6045695,7 12.5,7 Z M12.5,14.5 C11.3954305,14.5 10.5,13.6045695 10.5,12.5 C10.5,11.3954305 11.3954305,10.5 12.5,10.5 C13.6045695,10.5 14.5,11.3954305 14.5,12.5 C14.5,13.6045695 13.6045695,14.5 12.5,14.5 Z M12.5,22 C11.3954305,22 10.5,21.1045695 10.5,20 C10.5,18.8954305 11.3954305,18 12.5,18 C13.6045695,18 14.5,18.8954305 14.5,20 C14.5,21.1045695 13.6045695,22 12.5,22 Z"/>
</svg>
