<svg xmlns="http://www.w3.org/2000/svg" width="24" height="24" viewBox="0 0 24 24">
  <path d="M14.7635327,18.3789069 C15.1607736,17.9891518 15.8048284,17.9891518 16.2020693,18.3789069 C16.5993102,18.768662 16.5993102,19.4005798 16.2020693,19.7903348 L12.7192683,23.2075037 C12.3220274,23.5972588 11.6779726,23.5972588 11.2807317,23.2075037 L7.79793069,19.7903348 C7.40068977,19.4005798 7.40068977,18.768662 7.79793069,18.3789069 C8.19517162,17.9891518 8.83922641,17.9891518 9.23646734,18.3789069 L11,20.1092064 L11,11.9773478 C11,11.4261509 11.4477153,10.9793175 12,10.9793175 C12.5522847,10.9793175 13,11.4261509 13,11.9773478 L13,20.1092064 L14.7635327,18.3789069 Z M7.13308266,0.635457054 C10.9446579,-0.0790268049 14.6294235,2.09478904 15.9227817,5.6115246 C16.5275209,5.38759403 17.170793,5.27159077 17.823031,5.27269474 C20.8253521,5.27778077 23.2550837,7.71096394 23.249992,10.7073666 C23.2448959,13.7037741 20.8069106,16.1287197 17.8062867,16.1236395 L16.0990101,16.1236395 C15.5482352,16.1236395 15.1017438,15.6780276 15.1017438,15.1283375 C15.1017438,14.5786474 15.5482352,14.1330355 16.0990101,14.1330355 L17.807978,14.133037 C19.708745,14.1362542 21.2522359,12.6010187 21.2554622,10.7039893 C21.2586858,8.80696645 19.7204204,7.2665158 17.819647,7.26329583 C17.1183798,7.26210888 16.4334822,7.47475104 15.8566382,7.87275725 C15.2626527,8.28259066 14.4426933,7.94608553 14.3093962,7.23778085 C13.7148521,4.07853371 10.6667436,1.99847919 7.50126006,2.59185247 C4.33577683,3.18522568 2.25161691,6.22733009 2.84616135,9.38657889 C3.32231424,11.9167301 5.40734715,13.8341273 7.97290905,14.1011422 C8.52071347,14.1581558 8.91848683,14.6475829 8.86136071,15.1943083 C8.80423458,15.7410337 8.31384149,16.1380236 7.76603707,16.08101 C4.32303539,15.7226742 1.52490546,13.1495126 0.885904732,9.75403086 C0.0880215936,5.51429502 2.88497953,1.43176853 7.13308266,0.635457054 Z"/>
</svg>
