<svg xmlns="http://www.w3.org/2000/svg" width="24" height="24" viewBox="0 0 24 24">
  <path d="M9.23646734,18.8789069 L11,20.6092064 L11,12.4773478 C11,11.9261509 11.4477153,11.4793175 12,11.4793175 C12.5522847,11.4793175 13,11.9261509 13,12.4773478 L13,20.6092064 L14.7635327,18.8789069 C15.1607736,18.4891518 15.8048284,18.4891518 16.2020693,18.8789069 C16.5993102,19.268662 16.5993102,19.9005798 16.2020693,20.2903348 L12.7192683,23.7075037 C12.3220274,24.0972588 11.6779726,24.0972588 11.2807317,23.7075037 L7.79793069,20.2903348 C7.40068977,19.9005798 7.40068977,19.268662 7.79793069,18.8789069 C8.19517162,18.4891518 8.83922641,18.4891518 9.23646734,18.8789069 Z M16.8669173,1.63545705 C21.1150205,2.43176853 23.9119784,6.51429502 23.1140953,10.7540309 C22.4750945,14.1495126 19.6769646,16.7226742 16.2339629,17.08101 C15.6861585,17.1380236 15.1957654,16.7410337 15.1386393,16.1943083 C15.0815132,15.6475829 15.4792865,15.1581558 16.0270909,15.1011422 C18.5926528,14.8341273 20.6776858,12.9167301 21.1538387,10.3865789 C21.7483831,7.22733009 19.6642232,4.18522568 16.4987399,3.59185247 C13.3332564,2.99847919 10.2851479,5.07853371 9.6906038,8.23778085 C9.55730673,8.94608553 8.7373473,9.28259066 8.14336176,8.87275725 C7.56651779,8.47475104 6.8816202,8.26210888 6.18035303,8.26329583 C4.27957964,8.2665158 2.74131421,9.80696645 2.74453775,11.7039893 C2.74776408,13.6010187 4.29125501,15.1362542 6.19202201,15.133037 L7.90098987,15.1330355 C8.45176485,15.1330355 8.89825619,15.5786474 8.89825619,16.1283375 C8.89825619,16.6780276 8.45176485,17.1236395 7.90098987,17.1236395 L6.19371329,17.1236395 C3.19308942,17.1287197 0.755104058,14.7037741 0.750007988,11.7073666 C0.744916301,8.71096394 3.17464786,6.27778077 6.17696901,6.27269474 C6.82920705,6.27159077 7.47247909,6.38759403 8.0772183,6.6115246 C9.37057651,3.09478904 13.0553421,0.920973195 16.8669173,1.63545705 Z"/>
</svg>
