<?xml version="1.0" encoding="UTF-8"?>
<svg width="24px" height="24px" viewBox="0 0 24 24" version="1.1" xmlns="http://www.w3.org/2000/svg" xmlns:xlink="http://www.w3.org/1999/xlink">
    <!-- Generator: Sketch 54.1 (76490) - https://sketchapp.com -->
    <title>bell copy 55</title>
    <desc>Created with Sketch.</desc>
    <g id="Icons" stroke="none" stroke-width="1" fill="none" fill-rule="evenodd">
        <path d="M13,12.17 L14.88,10.29 C15.27,9.9 15.9,9.9 16.29,10.29 C16.68,10.68 16.68,11.31 16.29,11.7 L12.7,15.29 C12.31,15.68 11.68,15.68 11.29,15.29 L7.7,11.7 C7.31,11.31 7.31,10.68 7.7,10.29 C8.09,9.9 8.72,9.9 9.11,10.29 L11,12.17 L11,3.5 C11,2.95 11.45,2.5 12,2.5 C12.55,2.5 13,2.95 13,3.5 L13,12.17 Z M3.19877071,17.0983574 C2.86830702,16.6558507 2.95913584,16.0292344 3.40164255,15.6987707 C3.84414927,15.368307 4.47076559,15.4591358 4.80122929,15.9016426 C6.47911596,18.1484132 9.12460754,19.5 12,19.5 C14.8753925,19.5 17.520884,18.1484132 19.1987707,15.9016426 C19.5292344,15.4591358 20.1558507,15.368307 20.5983574,15.6987707 C21.0408642,16.0292344 21.131693,16.6558507 20.8012293,17.0983574 C18.7491472,19.8461937 15.5121145,21.5 12,21.5 C8.48788552,21.5 5.25085281,19.8461937 3.19877071,17.0983574 Z" id="Shape" fill="#000000"></path>
    </g>
</svg>