<svg xmlns="http://www.w3.org/2000/svg" width="25" height="24" viewBox="0 0 25 24">
  <path d="M12.7510454,21.4393398 L15.2186724,18.9696699 C15.5113234,18.6767767 15.9858043,18.6767767 16.2784552,18.9696699 C16.5711062,19.2625631 16.5711062,19.7374369 16.2784552,20.0303301 L12.5315572,23.7803301 C12.2389063,24.0732233 11.7644254,24.0732233 11.4717744,23.7803301 L7.72487641,20.0303301 C7.43222547,19.7374369 7.43222547,19.2625631 7.72487641,18.9696699 C8.01752735,18.6767767 8.49200827,18.6767767 8.78465921,18.9696699 L11.2522862,21.4393398 L11.2522862,11.7519 C11.2522862,11.3376865 11.5877949,11.0019 12.0016658,11.0019 C12.4155367,11.0019 12.7510454,11.3376865 12.7510454,11.7519 L12.7510454,21.4393398 Z M6.72302138,0.143126015 C10.858003,-0.634153435 14.851289,1.82496636 16.0965441,5.73691514 C16.8146904,5.41740438 17.5955154,5.250564 18.3891809,5.25191111 C21.4932123,5.25718418 24.0052559,7.77984797 23.9999917,10.8864431 C23.994723,13.9930442 21.4741459,16.5071675 18.3713924,16.5019 L16.4979434,16.5019 C16.0840725,16.5019 15.7485638,16.1661136 15.7485638,15.7519 C15.7485638,15.3376865 16.0840725,15.0019 16.4979434,15.0019 L18.3726633,15.0019011 C20.6489472,15.0057647 22.497371,13.1620737 22.5012347,10.8838981 C22.5050951,8.60572987 20.6629292,6.75577588 18.3866381,6.75190895 C17.5468283,6.75048352 16.7266224,7.0058491 16.0358175,7.48382123 C15.5894767,7.79264716 14.9733314,7.53907703 14.8731675,7.00534102 C14.1855881,3.34148762 10.6605064,0.929199544 6.99968231,1.6173485 C3.33885859,2.3054974 0.928565756,5.83349732 1.61614554,9.49735244 C2.16680767,12.4316283 4.57811019,14.6552789 7.5451354,14.9649423 C7.95677415,15.0079044 8.25567448,15.3767074 8.21274799,15.7886869 C8.16982149,16.2006664 7.80132355,16.4998142 7.3896848,16.4568522 C3.7633217,16.0783749 0.81617399,13.3605794 0.143142498,9.77424225 C-0.697232859,5.29619677 2.24868049,0.984197038 6.72302138,0.143126015 Z"/>
</svg>
