<svg xmlns="http://www.w3.org/2000/svg" width="24" height="24" viewBox="0 0 24 24">
  <path d="M11.2900004,15.71 L11.2900004,15.71 C11.3851041,15.8010406 11.4972494,15.872406 11.6200004,15.92 L11.6200004,15.92 C11.8634614,16.020018 12.1365394,16.020018 12.3800004,15.92 L12.3800004,15.92 C12.5027514,15.8724056 12.6148964,15.801041 12.7100004,15.71 L15.7100004,12.71 L15.7100004,12.71 C16.1021224,12.317878 16.1021224,11.68212 15.7100003,11.29 C15.3178783,10.897878 14.6821203,10.897878 14.2900003,11.2900001 L13.0000003,12.5900001 L13.0000003,9.00000009 L13.0000003,9.00000009 C13.0000003,8.44771509 12.5522853,8.00000009 12.0000003,8.00000009 C11.4477153,8.00000009 11.0000003,8.44771509 11.0000003,9.00000009 L11.0000003,12.5900001 L9.71000031,11.2900001 L9.71000028,11.2900001 C9.32108028,10.8978781 8.68792028,10.8952821 8.29580028,11.2842018 C8.29385959,11.2861266 8.2919268,11.2880594 8.29000196,11.2900001 L8.29000198,11.2900001 C7.89787998,11.6789201 7.89528398,12.3120801 8.28420361,12.7042001 C8.28612845,12.7061408 8.28806124,12.7080736 8.29000193,12.7099984 L11.2900004,15.71 Z M12,22 L12,22 C17.52285,22.0000002 22,17.52285 22,12 C22.0000002,6.47715 17.52285,2 12,2 C6.47715,1.99999976 2,6.47715 2,12 L2,12 C1.99999917,17.5228489 6.47715,21.9999989 12,22 C12,22 12,22 12,22 L12,22 Z M12.0000001,4 L12.0000001,4 C16.4182801,3.99999981 20.0000001,7.58172 20.0000001,12 C20.0000003,16.41828 16.4182801,20 12.0000001,20 C7.58172009,20.0000002 4.00000009,16.41828 4.00000009,12 L4.00000009,12 C3.99999942,7.58172086 7.58172009,4.00000086 12.0000001,4 C12.0000001,4 12.0000001,4 12.0000001,4 L12.0000001,4 Z"/>
</svg>
