<svg xmlns="http://www.w3.org/2000/svg" width="24" height="24" viewBox="0 0 24 24">
  <path d="M14.7635327,18.8789069 C15.1607736,18.4891518 15.8048284,18.4891518 16.2020693,18.8789069 C16.5993102,19.268662 16.5993102,19.9005798 16.2020693,20.2903348 L12.7192683,23.7075037 C12.3220274,24.0972588 11.6779726,24.0972588 11.2807317,23.7075037 L7.79793069,20.2903348 C7.40068977,19.9005798 7.40068977,19.268662 7.79793069,18.8789069 C8.19517162,18.4891518 8.83922641,18.4891518 9.23646734,18.8789069 L11,20.6092064 L11,12.4773478 C11,11.9261509 11.4477153,11.4793175 12,11.4793175 C12.5522847,11.4793175 13,11.9261509 13,12.4773478 L13,20.6092064 L14.7635327,18.8789069 Z M7.13308266,1.63545705 C10.9446579,0.920973195 14.6294235,3.09478904 15.9227817,6.6115246 C16.5275209,6.38759403 17.170793,6.27159077 17.823031,6.27269474 C20.8253521,6.27778077 23.2550837,8.71096394 23.249992,11.7073666 C23.2448959,14.7037741 20.8069106,17.1287197 17.8062867,17.1236395 L16.0990101,17.1236395 C15.5482352,17.1236395 15.1017438,16.6780276 15.1017438,16.1283375 C15.1017438,15.5786474 15.5482352,15.1330355 16.0990101,15.1330355 L17.807978,15.133037 C19.708745,15.1362542 21.2522359,13.6010187 21.2554622,11.7039893 C21.2586858,9.80696645 19.7204204,8.2665158 17.819647,8.26329583 C17.1183798,8.26210888 16.4334822,8.47475104 15.8566382,8.87275725 C15.2626527,9.28259066 14.4426933,8.94608553 14.3093962,8.23778085 C13.7148521,5.07853371 10.6667436,2.99847919 7.50126006,3.59185247 C4.33577683,4.18522568 2.25161691,7.22733009 2.84616135,10.3865789 C3.32231424,12.9167301 5.40734715,14.8341273 7.97290905,15.1011422 C8.52071347,15.1581558 8.91848683,15.6475829 8.86136071,16.1943083 C8.80423458,16.7410337 8.31384149,17.1380236 7.76603707,17.08101 C4.32303539,16.7226742 1.52490546,14.1495126 0.885904732,10.7540309 C0.0880215936,6.51429502 2.88497953,2.43176853 7.13308266,1.63545705 Z"/>
</svg>
