<?xml version="1.0" encoding="UTF-8"?>
<svg width="24px" height="24px" viewBox="0 0 24 24" version="1.1" xmlns="http://www.w3.org/2000/svg" xmlns:xlink="http://www.w3.org/1999/xlink">
    <!-- Generator: Sketch 54.1 (76490) - https://sketchapp.com -->
    <title>bell copy 41</title>
    <desc>Created with Sketch.</desc>
    <g id="Icons" stroke="none" stroke-width="1" fill="none" fill-rule="evenodd">
        <path d="M11.25,16.1893398 L11.25,6.75 C11.25,6.33578644 11.5857864,6 12,6 C12.4142136,6 12.75,6.33578644 12.75,6.75 L12.75,16.1893398 L15.2196699,13.7196699 C15.5125631,13.4267767 15.9874369,13.4267767 16.2803301,13.7196699 C16.5732233,14.0125631 16.5732233,14.4874369 16.2803301,14.7803301 L12.5303301,18.5303301 C12.2374369,18.8232233 11.7625631,18.8232233 11.4696699,18.5303301 L7.71966991,14.7803301 C7.4267767,14.4874369 7.4267767,14.0125631 7.71966991,13.7196699 C8.01256313,13.4267767 8.48743687,13.4267767 8.78033009,13.7196699 L11.25,16.1893398 Z M3.51476991,3.51471991 C8.20106313,-1.1715733 15.7990369,-1.1715733 20.4853301,3.51471991 C25.1716233,8.20101313 25.1716233,15.7989869 20.4853301,20.4852801 C15.7990369,25.1715733 8.20106313,25.1715733 3.51476991,20.4852801 C-1.1715233,15.7989869 -1.1715233,8.20101313 3.51476991,3.51471991 Z M19.4246699,19.4246199 C23.5251767,15.3241131 23.5251767,8.67588687 19.4246699,4.57538009 C15.3241631,0.474873305 8.67593687,0.474873305 4.57543009,4.57538009 C0.474923305,8.67588687 0.474923305,15.3241131 4.57543009,19.4246199 C8.67593687,23.5251267 15.3241631,23.5251267 19.4246699,19.4246199 Z" id="Shape" fill="#000000" fill-rule="nonzero"></path>
    </g>
</svg>