<?xml version="1.0" encoding="UTF-8"?>
<svg width="25px" height="24px" viewBox="0 0 25 24" version="1.1" xmlns="http://www.w3.org/2000/svg" xmlns:xlink="http://www.w3.org/1999/xlink">
    <!-- Generator: Sketch 54.1 (76490) - https://sketchapp.com -->
    <title>bell copy 36</title>
    <desc>Created with Sketch.</desc>
    <g id="Icons" stroke="none" stroke-width="1" fill="none" fill-rule="evenodd">
        <path d="M15.2500001,5.99999625 C15.2500001,5.58578269 15.5857865,5.24999625 16,5.24999625 L19.6284132,5.24999625 C20.5363082,5.24999625 21.3303056,5.86153107 21.5621201,6.73933253 L23.9130849,16.7455977 C23.969356,16.9032285 24,17.0730336 24,17.2499962 L24,21.7499962 C24,22.5784237 23.3284276,23.2499962 22.5,23.2499962 L1.50000003,23.2499962 C0.671572475,23.2499961 -9.23062089e-08,22.5784237 3.27829639e-08,21.7499962 L3.27829639e-08,17.2499962 C3.27829639e-08,17.0869872 0.0260020339,16.9300514 0.0740846499,16.7831101 L2.46557709,6.73933253 C2.69739161,5.86153107 3.49138901,5.24999625 4.39928403,5.24999625 L8.00000003,5.24999625 C8.41421363,5.24999625 8.75000007,5.58578269 8.75000007,5.99999625 C8.75000007,6.41420981 8.41421363,6.74999625 8.00000003,6.74999625 L4.39928403,6.74999625 C4.17231028,6.74999625 3.97381093,6.90287995 3.91573201,7.12280442 L1.95963511,15.7499962 L9.00000003,15.7499962 C9.41421363,15.7499962 9.75000007,16.0857827 9.75000007,16.4999962 C9.75000007,17.7426327 10.7573636,18.7499962 12,18.7499962 C13.2426365,18.7499962 14.2500001,17.7426327 14.2500001,16.4999962 C14.2500001,16.0857827 14.5857865,15.7499963 15,15.7499962 L22.0524012,15.7499961 L20.1118399,7.12233032 C20.0538863,6.90287995 19.8553869,6.74999625 19.6284132,6.74999625 L16,6.74999625 C15.5857865,6.74999625 15.2500001,6.41420981 15.2500001,5.99999625 Z M22.5,17.2499961 L15.6749861,17.2499962 C15.3275321,18.9616738 13.8142144,20.2499962 12,20.2499961 C10.1857858,20.2499962 8.67246804,18.9616738 8.32501407,17.2499962 L1.50000003,17.2499961 L1.50000003,21.7499961 L22.5,21.7499961 L22.5,17.2499961 Z M11.25,11.4393436 L11.25,1.50000375 C11.25,1.08579019 11.5857865,0.750003752 12,0.750003752 C12.4142136,0.750003752 12.75,1.08579019 12.75,1.50000375 L12.75,11.4393436 L14.7196699,9.46967367 C15.0125632,9.17678045 15.4874369,9.17678045 15.7803301,9.46967367 C16.0732233,9.76256688 16.0732233,10.2374406 15.7803301,10.5303338 L12.5303301,13.7803338 C12.2374369,14.0732271 11.7625632,14.0732271 11.4696699,13.7803338 L8.21966995,10.5303338 C7.92677673,10.2374406 7.92677673,9.76256688 8.21966995,9.46967367 C8.51256317,9.17678045 8.9874369,9.17678045 9.28033012,9.46967367 L11.25,11.4393436 Z" id="Shape" fill="#000000" fill-rule="nonzero"></path>
    </g>
</svg>