<svg xmlns="http://www.w3.org/2000/svg" width="24" height="24" viewBox="0 0 24 24">
  <path d="M2935,66 L2942,66 C2944.20914,66 2946,67.790861 2946,70 L2946,77 C2946,79.209139 2944.20914,81 2942,81 L2935,81 C2932.79086,81 2931,79.209139 2931,77 L2931,70 C2931,67.790861 2932.79086,66 2935,66 Z M2935,68 C2933.89543,68 2933,68.8954305 2933,70 L2933,77 C2933,78.1045695 2933.89543,79 2935,79 L2942,79 C2943.10457,79 2944,78.1045695 2944,77 L2944,70 C2944,68.8954305 2943.10457,68 2942,68 L2935,68 Z M2927.76923,71 C2928.32152,71 2928.76923,71.4477153 2928.76923,72 C2928.76923,72.5522847 2928.32152,73 2927.76923,73 C2925.68754,73 2924,71.3124579 2924,69.2307692 L2924,62.7692308 C2924,60.6875421 2925.68754,59 2927.76923,59 L2934.23077,59 C2936.31246,59 2938,60.6875421 2938,62.7692308 C2938,63.3215155 2937.55228,63.7692308 2937,63.7692308 C2936.44772,63.7692308 2936,63.3215155 2936,62.7692308 C2936,61.7921116 2935.20789,61 2934.23077,61 L2927.76923,61 C2926.79211,61 2926,61.7921116 2926,62.7692308 L2926,69.2307692 C2926,70.2078884 2926.79211,71 2927.76923,71 Z" transform="translate(-2923 -58)"/>
</svg>
