<svg xmlns="http://www.w3.org/2000/svg" width="25" height="25" viewBox="0 0 25 25">
  <path d="M19.9993283,19.0029959 L19.2712587,19.0029959 C18.0491188,19.0033792 17.0058423,18.1201198 16.8045287,16.9142602 L16.1527007,12.9999958 L14.9208357,12.9999958 C14.71641,12.9999735 14.5127581,12.9748775 14.3144437,12.9252703 C12.9750056,12.5902191 12.1607887,11.2327749 12.4958075,9.8934645 L13.2458388,6.89333961 C13.5241563,5.78067782 14.5238969,5.00012584 15.6716062,5.00000022 L18.0041376,5.00153078 C14.0865149,2.05302418 8.49570849,2.3621584 4.92893345,5.92893345 C3.61758702,7.24027988 2.74657906,8.8252166 2.31590959,10.5 L6.80385471,10.5000052 C7.91541234,10.5001345 8.88430285,11.2565997 9.15407432,12.3350637 L9.86548132,15.1806917 C9.91355843,15.3728893 9.93788024,15.5702588 9.93790198,15.7683793 C9.93804736,17.1064956 8.85340162,18.1913727 7.51517939,18.1915195 L7.29405585,18.1915207 L6.58053648,21.406605 C10.4539771,23.9090763 15.6782363,23.4638968 19.0710666,20.0710666 C19.4098826,19.7322505 19.7193032,19.3751706 19.9993283,19.0029959 Z M21.1667659,17.002996 C22.5820666,13.7596653 22.1943841,9.91883935 20.0037184,7.00284329 L15.6710598,6.99999999 C15.4416705,7.00002516 15.2417231,7.15613493 15.1860925,7.37853566 L14.4360599,10.3786661 C14.3690497,10.6465539 14.5318922,10.9180413 14.7997772,10.9850509 C14.8394394,10.9949722 14.8801696,10.9999913 14.920945,10.9999958 L16.999945,10.9999958 C17.4888358,10.9999958 17.9060541,11.3534816 17.9863614,11.8357315 L18.7772942,16.5853287 C18.8175435,16.8264202 19.0261995,17.0030726 19.2709451,17.0029959 L21.1667659,17.002996 L21.1667659,17.002996 Z M4.84672495,19.9879111 L5.51540564,16.9748678 C5.61697491,16.5172015 6.0228465,16.1915277 6.49164788,16.1915251 L7.51506417,16.1915195 C7.7486158,16.1914939 7.93792737,16.002142 7.937902,15.7685977 C7.9378982,15.734019 7.93365317,15.699571 7.92522923,15.6658946 L7.21382224,12.8202666 C7.16674324,12.6320591 6.9976358,12.5000278 6.80373846,12.5000052 L2.01243006,12.5000052 C1.87873741,15.1870711 2.82350237,17.9177885 4.84672495,19.9879111 Z M3.51471989,4.51471989 C8.20101307,-0.171573295 15.7989869,-0.171573295 20.4852801,4.51471989 C25.1715733,9.20101307 25.1715733,16.7989869 20.4852801,21.4852801 C15.7989869,26.1715733 8.20101307,26.1715733 3.51471989,21.4852801 C-1.1715733,16.7989869 -1.1715733,9.20101307 3.51471989,4.51471989 Z"/>
</svg>
