<svg width="24" height="24" viewBox="0 0 24 24" xmlns="http://www.w3.org/2000/svg"><path d="M1443.26243,76.0048634 C1444.82514,74.5877451 1446.37452,74.6696796 1448.35689,76.6520443 C1450.50947,78.8046275 1450.3692,80.3104931 1448.61085,82.1521703 L1448.45619,82.3108736 L1435.32436,95.4429672 C1435.202,95.5653313 1435.05053,95.6533157 1434.88521,95.699298 L1434.75885,95.7257903 L1429.1911,96.9507303 C1428.56994,97.0395866 1428.0322,96.5437675 1428.04963,95.9348753 L1428.05952,95.8194981 L1429.2831,90.250379 C1429.30756,90.0789891 1429.37598,89.9176482 1429.48071,89.781619 L1429.56596,89.6845816 L1443.06653,76.1865442 L1443.26243,76.0048634 Z M1441.85922,80.2229247 L1431.21549,90.8626959 L1430.22749,94.7816959 L1434.14549,93.7926959 L1444.78722,83.1509247 L1441.85922,80.2229247 Z M1446.40921,77.5606487 C1445.62477,76.8736578 1445.27812,76.9061517 1444.70885,77.3953822 L1444.51123,77.5729563 L1443.27422,78.8089247 L1446.20122,81.7359247 L1447.0398,80.898846 L1447.28688,80.6451731 C1448.08245,79.8061942 1448.17031,79.429058 1447.44754,78.5990664 L1447.33303,78.4710569 L1447.08038,78.2053301 L1446.79751,77.9226867 L1446.66056,77.7906962 L1446.40921,77.5606487 Z" transform="translate(-1427 -74)"/></svg>