<svg xmlns="http://www.w3.org/2000/svg" width="24" height="24" viewBox="0 0 24 24">
  <path d="M22.0000198,7.24001978 L22.0000198,7.24001571 C22.0015555,6.97421271 21.8972038,6.71873471 21.7100168,6.53001671 L17.4700168,2.29001671 L17.4700169,2.29001674 C17.2812979,2.10282974 17.0258199,1.99847974 16.7600169,2.00001674 L16.7600169,2.00001674 C16.4942139,1.99847999 16.2387359,2.10282974 16.0500169,2.29001674 L13.2200169,5.12001674 L13.2200169,5.12001674 L2.29001686,16.0500167 L2.29001674,16.0500169 C2.10283074,16.2387359 1.99847974,16.4942139 2.00001674,16.7600169 L2.00001674,21.0000169 L2.00001674,21.000017 C2.00001682,21.552302 2.44773174,22.000017 3.00001674,22.000017 L7.24001674,22.000017 L7.24001678,22.000017 C7.52299778,22.0154093 7.79922178,21.9100084 8.00001678,21.710017 L18.8700168,10.780017 L18.8700168,10.780017 L21.7100168,8.00001702 L21.7100168,8.00001698 C21.8012936,7.90309798 21.8756598,7.79154898 21.9300168,7.67001698 L21.9300168,7.67001699 C21.9396516,7.59030709 21.9396516,7.50972699 21.9300168,7.43001699 L21.9300168,7.43001705 C21.9346952,7.38346765 21.9346952,7.33656645 21.9300168,7.29001705 L22.0000198,7.24001978 Z M6.83001982,20.0000198 L4.00001982,20.0000198 L4.00001982,17.1700198 L13.9300198,7.24001978 L16.7600198,10.0700198 L6.83001982,20.0000198 Z M18.1700198,8.66001978 L15.3400198,5.83001978 L16.7600198,4.42001978 L19.5800198,7.24001978 L18.1700198,8.66001978 Z"/>
</svg>
