<svg width="24" height="24" viewBox="0 0 24 24" xmlns="http://www.w3.org/2000/svg"><path d="M1440.88737,79.7539359 L1445.02642,83.8841757 L1445.12167,83.9681006 C1445.18593,84.0179501 1445.25483,84.0589902 1445.32673,84.0912208 L1434.53398,94.8587442 L1429.57716,95.9948524 C1429.30076,96.0343025 1429.04463,95.8427199 1429.00509,95.5669407 C1428.99831,95.5196118 1428.9983,95.4715608 1429.00507,95.4242299 L1430.14144,90.4761132 L1440.88737,79.7539359 Z M1447.7116,77.3282203 C1449.45066,79.0633562 1449.17502,80.0616245 1448.36801,81.0168772 L1448.19394,81.2141295 L1448.00764,81.4115198 L1447.812,81.6104137 L1446.66389,82.7570765 C1446.63127,82.6846497 1446.58966,82.6152751 1446.53904,82.5506375 L1446.45637,82.4574444 L1442.31711,78.3274201 L1443.69422,76.9551663 L1443.87804,76.7795991 L1444.06126,76.614998 C1444.09182,76.5886308 1444.12242,76.5628348 1444.15309,76.5376673 L1444.33809,76.3946613 C1445.17625,75.7891875 1446.10498,75.725223 1447.7116,77.3282203 Z" transform="translate(-1427 -74)" fill-rule="evenodd"/></svg>