<?xml version="1.0" encoding="UTF-8"?>
<svg width="24px" height="24px" viewBox="0 0 24 24" version="1.1" xmlns="http://www.w3.org/2000/svg" xmlns:xlink="http://www.w3.org/1999/xlink">
    <title>excel-file</title>
    <g id="Icons" stroke="none" stroke-width="1" fill="none" fill-rule="evenodd">
        <g id="Glyphs" transform="translate(-4205, -58)" fill="#000000" fill-rule="nonzero">
            <path d="M4225.43508,58 C4226.32026,58 4226.99989,58.7645813 4226.99989,59.6666667 L4226.99989,80.332372 C4226.99989,81.2344574 4226.32026,81.9990387 4225.43508,81.9990387 L4210.56481,81.9990387 C4209.67963,81.9990387 4209,81.2344574 4209,80.332372 L4209,76.5 L4208.75,76.5 C4207.23122,76.5 4206,75.2687831 4206,73.75 L4206,65.75 C4206,64.2312169 4207.23122,63 4208.75,63 L4209,63 L4209,59.6666667 C4209,58.7645813 4209.67963,58 4210.56481,58 L4225.43508,58 Z M4217.249,76.5 L4210.5,76.5 L4210.5,80.332372 C4210.5,80.4428087 4210.54998,80.4990387 4210.56481,80.4990387 L4217.249,80.4990387 L4217.249,76.5 Z M4225.499,74.5 L4220.39633,74.5005538 C4220.16065,75.3331384 4219.54265,76.0051353 4218.744,76.3148636 L4218.74836,76.3649169 L4218.749,80.4990387 L4225.43508,80.4990387 C4225.44991,80.4990387 4225.49989,80.4428087 4225.49989,80.332372 L4225.499,74.5 Z M4217.75,64.5 L4208.75,64.5 C4208.05964,64.5 4207.5,65.0596441 4207.5,65.75 L4207.5,73.75 C4207.5,74.4403559 4208.05964,75 4208.75,75 L4217.75,75 C4218.44036,75 4219,74.4403559 4219,73.75 L4219,65.75 C4219,65.0596441 4218.44036,64.5 4217.75,64.5 Z M4216.06347,66.423834 C4216.38168,66.6890071 4216.42467,67.1619306 4216.1595,67.4801383 L4214.267,69.75 L4216.1595,72.0198617 C4216.42467,72.3380694 4216.38168,72.8109929 4216.06347,73.076166 C4215.74526,73.341339 4215.27234,73.298346 4215.00717,72.9801383 L4213.291,70.921 L4211.57617,72.9801383 C4211.31099,73.298346 4210.83807,73.341339 4210.51986,73.076166 C4210.20165,72.8109929 4210.15866,72.3380694 4210.42383,72.0198617 L4212.315,69.75 L4210.42383,67.4801383 C4210.15866,67.1619306 4210.20165,66.6890071 4210.51986,66.423834 C4210.83807,66.158661 4211.31099,66.201654 4211.57617,66.5198617 L4213.291,68.578 L4215.00717,66.5198617 C4215.27234,66.201654 4215.74526,66.158661 4216.06347,66.423834 Z M4225.499,67 L4220.5,67 L4220.5,73 L4225.499,73 L4225.499,67 Z M4225.43508,59.5 L4218.749,59.5 L4218.7498,63.1873907 C4219.70026,63.5584884 4220.39362,64.4431117 4220.48881,65.5001936 L4225.499,65.5 L4225.49989,59.6666667 C4225.49989,59.55623 4225.44991,59.5 4225.43508,59.5 Z M4217.249,59.5 L4210.56481,59.5 C4210.54998,59.5 4210.5,59.55623 4210.5,59.6666667 L4210.5,63 L4217.249,63 L4217.249,59.5 Z" id="Shape"></path>
        </g>
    </g>
</svg>