<?xml version="1.0" encoding="UTF-8"?>
<svg width="24px" height="24px" viewBox="0 0 24 24" version="1.1" xmlns="http://www.w3.org/2000/svg" xmlns:xlink="http://www.w3.org/1999/xlink">
    <title>excel-file-g</title>
    <g id="Icons" stroke="none" stroke-width="1" fill="none" fill-rule="evenodd">
        <g id="Glyphs" transform="translate(-4178, -58)" fill="#000000" fill-rule="nonzero">
            <path d="M4197.18519,58 C4198.21543,58 4199,58.8826399 4199,59.9166667 L4199,80.0833333 C4199,81.1173601 4198.21543,82 4197.18519,82 L4182.81481,82 C4181.78457,82 4181,81.1173601 4181,80.0833333 L4181,77 C4179.34315,77 4178,75.6568542 4178,74 L4178,66 C4178,64.3431458 4179.34315,63 4181,63 L4181,59.9166667 C4181,58.8826399 4181.78457,58 4182.81481,58 L4197.18519,58 Z M4189,77 L4183,77 L4183,80 L4189,80 L4189,77 Z M4197,75 L4192.82898,75.0009007 C4192.52764,75.8525891 4191.85259,76.5276396 4191.0009,76.8289758 L4191,80 L4197,80 L4197,75 Z M4189.69915,65.0015177 L4181,65 C4180.44772,65 4180,65.4477153 4180,66 L4180,74 C4180,74.5522847 4180.44772,75 4181,75 L4190,75 C4190.55228,75 4191,74.5522847 4191,74 L4191,66 C4191,65.5217256 4190.66424,65.1218723 4190.21557,65.0232945 C4190.14614,65.039524 4190.07401,65.0475641 4190,65.0475641 C4189.89517,65.0475641 4189.7941,65.031433 4189.69915,65.0015177 Z M4188.47352,66.4817787 C4188.89779,66.8353428 4188.95512,67.4659075 4188.60155,67.8901844 L4186.843,70 L4188.60155,72.1098156 C4188.95512,72.5340925 4188.89779,73.1646572 4188.47352,73.5182213 C4188.04924,73.8717854 4187.41868,73.8144613 4187.06511,73.3901844 L4185.541,71.562 L4184.01822,73.3901844 C4183.66466,73.8144613 4183.03409,73.8717854 4182.60982,73.5182213 C4182.18554,73.1646572 4182.12821,72.5340925 4182.48178,72.1098156 L4184.239,70 L4182.48178,67.8901844 C4182.12821,67.4659075 4182.18554,66.8353428 4182.60982,66.4817787 C4183.03409,66.1282146 4183.66466,66.1855387 4184.01822,66.6098156 L4185.541,68.437 L4187.06511,66.6098156 C4187.41868,66.1855387 4188.04924,66.1282146 4188.47352,66.4817787 Z M4197,67 L4192.999,67 L4192.999,73 L4197,73 L4197,67 Z M4197,60 L4191,60 L4191.00087,63.1710142 C4191.8529,63.4724621 4192.52816,64.1479243 4192.82933,65.0000889 L4197,65 L4197,60 Z M4189,60 L4183,60 L4183,63 L4189,63 L4189,60 Z" id="Shape"></path>
        </g>
    </g>
</svg>