<svg xmlns="http://www.w3.org/2000/svg" width="24" height="24" viewBox="0 0 24 24">
  <path d="M2984.41421,75 L2985.70711,76.2928932 C2986.09763,76.6834175 2986.09763,77.3165825 2985.70711,77.7071068 C2985.31658,78.0976311 2984.68342,78.0976311 2984.29289,77.7071068 L2981.29289,74.7071068 C2980.90237,74.3165825 2980.90237,73.6834175 2981.29289,73.2928932 L2984.29289,70.2928932 C2984.68342,69.9023689 2985.31658,69.9023689 2985.70711,70.2928932 C2986.09763,70.6834175 2986.09763,71.3165825 2985.70711,71.7071068 L2984.41421,73 L2994,73 C2994.55228,73 2995,73.4477153 2995,74 C2995,74.5522847 2994.55228,75 2994,75 L2984.41421,75 Z M2993.58579,65 L2992.29289,63.7071068 C2991.90237,63.3165825 2991.90237,62.6834175 2992.29289,62.2928932 C2992.68342,61.9023689 2993.31658,61.9023689 2993.70711,62.2928932 L2996.70711,65.2928932 C2997.09763,65.6834175 2997.09763,66.3165825 2996.70711,66.7071068 L2993.70711,69.7071068 C2993.31658,70.0976311 2992.68342,70.0976311 2992.29289,69.7071068 C2991.90237,69.3165825 2991.90237,68.6834175 2992.29289,68.2928932 L2993.58579,67 L2984,67 C2983.44772,67 2983,66.5522847 2983,66 C2983,65.4477153 2983.44772,65 2984,65 L2993.58579,65 Z" transform="translate(-2977 -58)"/>
</svg>
