<svg xmlns="http://www.w3.org/2000/svg" width="24" height="24" viewBox="0 0 24 24">
  <path d="M795.733052,60.4592601 C796.177651,60.0897676 796.755766,59.9334732 797.319188,60.0260345 L797.487625,60.0613042 L803.486104,61.6067037 C804.347508,61.8257543 804.951485,62.5888981 804.997546,63.444813 L804.999571,63.6062741 L804.999571,76.4253884 C804.998917,77.2969127 804.45052,78.0694229 803.643428,78.3464754 L803.489138,78.3925198 L797.487625,79.9386958 C796.872724,80.0956537 796.222111,79.9471816 795.733052,79.5407399 C795.295851,79.177395 795.033654,78.6463528 795.002718,78.1026757 L795.000431,77.9393486 L795,76.9999795 L792.5,77 C791.947715,77 791.5,76.5522847 791.5,76 C791.5,75.4871642 791.88604,75.0644928 792.383379,75.0067277 L792.5,75 L795,74.9999795 L795,64.9999795 L792.5,65 C791.947715,65 791.5,64.5522847 791.5,64 C791.5,63.4871642 791.88604,63.0644928 792.383379,63.0067277 L792.5,63 L795,62.9999795 L795.000836,62.0891168 C794.984589,61.5185857 795.205563,60.9687084 795.607198,60.5731608 L795.733052,60.4592601 Z M797.007,62.002 L797.001733,62.0248238 L797.001733,62.0248238 L796.999999,77.967814 C796.999711,77.978866 797.002252,77.9884722 797.004719,77.9931839 L797.008,77.9961493 L802.992767,76.4550964 L802.999571,76.4246384 L802.998162,63.5596372 L802.990168,63.5442376 L797.007,62.002 Z M788.612899,66.2097046 L788.707107,66.2928932 L791.707107,69.2928932 C792.067591,69.6533772 792.09532,70.2206082 791.790295,70.6128994 L791.707107,70.7071068 L788.707107,73.7071068 C788.316582,74.0976311 787.683418,74.0976311 787.292893,73.7071068 C786.932409,73.3466228 786.90468,72.7793918 787.209705,72.3871006 L787.292893,72.2928932 L788.585,70.9999795 L783,71 C782.447715,71 782,70.5522847 782,70 C782,69.4871642 782.38604,69.0644928 782.883379,69.0067277 L783,69 L788.585,68.9999795 L787.292893,67.7071068 C786.932409,67.3466228 786.90468,66.7793918 787.209705,66.3871006 L787.292893,66.2928932 C787.653377,65.9324093 788.220608,65.9046797 788.612899,66.2097046 Z" transform="translate(-782 -58)"/>
</svg>
