<svg xmlns="http://www.w3.org/2000/svg" width="25" height="24" viewBox="0 0 25 24">
  <path d="M18.2890193,8.75705429 C18.6815473,8.36452425 19.3179669,8.36452425 19.7104969,8.75705428 L22.2130983,11.2596557 C22.304234,11.3548586 22.3756729,11.4671203 22.4233168,11.589999 C22.5234389,11.8337133 22.5234389,12.1070755 22.4233168,12.3507899 C22.3756733,12.4736686 22.3042336,12.5859306 22.2130982,12.6811333 L19.7046925,15.189539 C19.3121645,15.5788635 18.6783457,15.5762648 18.2890209,15.1837347 C17.8938923,14.7854023 17.896491,14.1515835 18.289021,13.7622588 L19.0898534,12.9714368 L13.9950773,12.9714368 C13.4422176,12.9714368 12.9940368,12.5232559 12.9940367,11.9703962 C12.9940367,11.4175365 13.4422176,10.9693558 13.9950774,10.9693557 L19.0898536,10.9693557 L18.2890211,10.1785336 C17.8964893,9.78600385 17.8964893,9.14958431 18.2890193,8.75705429 Z M4.99681124,17.9766439 C1.67965574,14.6792764 1.66360906,9.3171526 4.96096658,5.99999451 C8.2583341,2.68283901 13.6204579,2.66679233 16.9376163,5.96415014 C17.3356752,6.36220391 17.3356752,7.00758977 16.9376164,7.40564854 C16.5395626,7.80370745 15.8941768,7.80370745 15.4961179,7.4056486 C12.9724673,4.88292641 8.88430775,4.8836872 6.3632672,7.40564871 C3.84222414,9.92762023 3.84298493,14.0157798 6.36494644,16.5368203 C8.88691796,19.0578634 12.9750775,19.0571026 15.496118,16.5351411 C15.8941818,16.1370825 16.5395577,16.1370825 16.9376164,16.5351412 C17.3356751,16.933205 17.3356751,17.5785809 16.9376164,17.9766396 C13.6344799,21.2600569 8.29993474,21.2600569 4.99681124,17.9766439 Z"/>
</svg>
