<?xml version="1.0" encoding="UTF-8"?>
<svg width="24px" height="24px" viewBox="0 0 24 24" version="1.1" xmlns="http://www.w3.org/2000/svg" xmlns:xlink="http://www.w3.org/1999/xlink">
    <title>expand-g</title>
    <g id="Icons" stroke="none" stroke-width="1" fill="none" fill-rule="evenodd">
        <g id="Glyphs" transform="translate(-3906.000000, -58.000000)" fill="#000000" fill-rule="nonzero">
            <path d="M3915.70711,72.2928932 C3916.09763,72.6834175 3916.09763,73.3165825 3915.70711,73.7071068 L3909.414,80 L3914,80 C3914.55228,80 3915,80.4477205 3915,81 C3915,81.55229 3914.55228,82 3914,82 L3907,82 C3906.44772,82 3906,81.55229 3906,81 L3906,74 C3906,73.4477205 3906.44772,73 3907,73 C3907.55228,73 3908,73.4477205 3908,74 L3908,78.5840053 L3914.29289,72.2928932 C3914.68342,71.9023689 3915.31658,71.9023689 3915.70711,72.2928932 Z M3929,58.0000053 C3929.55228,58.0000053 3930,58.4477205 3930,59.0000053 L3930,66.0000053 C3930,66.55229 3929.55228,67.0000053 3929,67.0000053 C3928.44772,67.0000053 3928,66.55229 3928,66.0000053 L3928,61.4130053 L3921.70691,67.7034749 C3921.31628,68.0938924 3920.68312,68.0937194 3920.2927,67.7030884 C3919.90228,67.3124574 3919.90246,66.6792924 3920.29309,66.2888749 L3926.585,60.0000053 L3922,60.0000053 C3921.44772,60.0000053 3921,59.55229 3921,59.0000053 C3921,58.4477205 3921.44772,58.0000053 3922,58.0000053 L3929,58.0000053 Z" id="Shape"></path>
        </g>
    </g>
</svg>