<svg xmlns="http://www.w3.org/2000/svg" width="25" height="24" viewBox="0 0 25 24">
  <path d="M3296.5,72.5 C3297.01284,72.5 3297.43551,72.8860402 3297.49327,73.3833789 L3297.5,73.5 L3297.5,76.5 C3297.5,78.0863709 3296.30648,79.402853 3294.77659,79.494864 L3294.60526,79.5 L3280.39474,79.5 C3278.84111,79.5 3277.5921,78.240174 3277.50487,76.6751043 L3277.5,76.5 L3277.5,73.5 C3277.5,72.9477153 3277.94772,72.5 3278.5,72.5 C3279.01284,72.5 3279.43551,72.8860402 3279.49327,73.3833789 L3279.5,73.5 L3279.5,76.5 C3279.5,77.0237269 3279.85614,77.437063 3280.29269,77.493439 L3280.39474,77.5 L3294.60526,77.5 C3295.05255,77.5 3295.44064,77.124073 3295.4938,76.6187882 L3295.5,76.5 L3295.5,73.5 C3295.5,72.9477153 3295.94772,72.5 3296.5,72.5 Z M3287.5,60 C3288.01284,60 3288.43551,60.3860402 3288.49327,60.8833789 L3288.5,61 L3288.5,70.584 L3290.79289,68.2928932 L3290.8871,68.2097046 C3291.27939,67.9046797 3291.84662,67.9324093 3292.20711,68.2928932 C3292.56759,68.6533772 3292.59532,69.2206082 3292.2903,69.6128994 L3292.20711,69.7071068 L3288.20711,73.7071068 L3288.16315,73.7485042 L3288.16315,73.7485042 L3288.09531,73.8036654 L3288.09531,73.8036654 L3287.98406,73.8753288 L3287.98406,73.8753288 L3287.87134,73.9287745 L3287.87134,73.9287745 L3287.76599,73.9641549 L3287.76599,73.9641549 L3287.61747,73.9931658 L3287.61747,73.9931658 L3287.5,74 L3287.5,74 L3287.42476,73.9972121 L3287.42476,73.9972121 L3287.29927,73.9797599 L3287.29927,73.9797599 L3287.18786,73.9502619 L3287.18786,73.9502619 L3287.07678,73.9063266 L3287.07678,73.9063266 L3286.97929,73.8540045 L3286.97929,73.8540045 L3286.88325,73.787214 C3286.85153,73.7623312 3286.82136,73.7355731 3286.79289,73.7071068 L3282.79289,69.7071068 L3282.7097,69.6128994 C3282.4301,69.2532992 3282.4301,68.7467008 3282.7097,68.3871006 L3282.79289,68.2928932 L3282.8871,68.2097046 C3283.2467,67.9300985 3283.7533,67.9300985 3284.1129,68.2097046 L3284.20711,68.2928932 L3286.5,70.586 L3286.5,61 C3286.5,60.4477153 3286.94772,60 3287.5,60 Z" transform="translate(-3275 -58)"/>
</svg>
