<svg xmlns="http://www.w3.org/2000/svg" width="24" height="24" viewBox="0 0 24 24">
  <path d="M1.62623347,10.3107307 C4.51300378,7.00069173 8.43265583,4.69609298 11.9986676,4.75098218 C15.5641468,4.69610077 19.4827714,6.9996371 22.3765432,10.3139281 C23.2078187,11.2752766 23.2078187,12.7219335 22.3737135,13.6865447 C19.4849933,16.9982798 15.579174,19.3117987 12.016195,19.2487214 C8.41791234,19.311803 4.5123563,16.9978223 1.62345687,13.6832865 C0.792181323,12.7219381 0.792181308,11.2752811 1.62623347,10.3107307 Z M12.0162366,6.75096306 L11.9810967,6.75096303 C9.09982701,6.70033138 5.67410229,8.71220643 3.13631005,11.6220852 C2.95456358,11.8322713 2.95456358,12.1649443 3.13373265,12.3721604 C5.66954838,15.2815805 9.07617871,17.2999556 12.016195,17.2490287 C14.9211027,17.2999547 18.3282943,15.2817861 20.86369,12.3751293 C21.0454364,12.1649433 21.0454364,11.8322703 20.8668408,11.6257115 C18.32237,8.71149687 14.897178,6.70033718 12.0162366,6.75096306 Z M12,15.25 C10.2050746,15.25 8.75,13.7949254 8.75,12 C8.75,10.2050746 10.2050746,8.75 12,8.75 C13.7949254,8.75 15.25,10.2050746 15.25,12 C15.25,13.7949254 13.7949254,15.25 12,15.25 Z"/>
</svg>
