<svg xmlns="http://www.w3.org/2000/svg" width="24" height="24" viewBox="0 0 24 24">
  <path d="M15.8151468,11.2799313 C15.8151468,13.4731136 14.0392418,15.25 11.8474525,15.25 C11.2435703,15.25 10.660385,15.1140373 10.1339309,14.861779 L8.47647674,16.4534502 C9.68749076,16.9940264 10.8713822,17.268518 12.016195,17.2490287 C14.9211027,17.2999547 18.3282943,15.2817861 20.86369,12.3751293 C21.0454364,12.1649433 21.0454364,11.8322703 20.8668408,11.6257115 C19.7616515,10.3599242 18.4112093,9.19852486 17.0046331,8.33608594 C16.98932,8.32669675 16.9743488,8.31696164 16.9597233,8.30689685 L15.4935632,9.71486627 C15.7028955,10.2017188 15.814856,10.7323388 15.8151468,11.2799313 Z M18.4447719,6.88078867 C19.8835778,7.81923873 21.2419905,9.01449442 22.3765432,10.3139281 C23.2078187,11.2752765 23.2078187,12.7219335 22.3737135,13.6865447 C19.4849933,16.9982798 15.579174,19.3117987 12.016195,19.2487214 C10.5098296,19.2751296 8.95725628,18.8931983 7.41014019,18.1645798 C7.36516466,18.1433985 7.2631729,18.0860459 7.07976568,17.9820302 C7.02822306,17.9530588 6.98783782,17.9303578 6.95676295,17.9128477 L3.44264976,21.2874886 C3.04430041,21.6700278 2.41126516,21.6572111 2.02872597,21.2588617 C1.64618678,20.8605124 1.65900345,20.2274771 2.05735281,19.8449379 L20.0892358,2.52872597 C20.4875851,2.14618678 21.1206204,2.15900345 21.5031596,2.55735281 C21.8856987,2.95570216 21.8728821,3.58873741 21.4745327,3.9712766 L18.4447719,6.88078867 Z M12.5501175,4.76069887 C13.101708,4.78838027 13.5264204,5.25797301 13.498739,5.8095636 C13.4710576,6.3611542 13.0014648,6.78586651 12.4498742,6.75818511 C12.3040214,6.75086553 12.1594584,6.74844624 11.9810967,6.75096303 C9.09982702,6.70033135 5.6741023,8.7122064 3.13631005,11.6220852 C2.95456358,11.8322713 2.95456358,12.1649443 3.13373265,12.3721604 C3.55740524,12.8582531 4.02385222,13.335914 4.51933315,13.7887869 C4.92699183,14.1613897 4.95541024,14.7939166 4.58280744,15.2015753 C4.21020464,15.609234 3.57767774,15.6376524 3.17001906,15.2650496 C2.61868274,14.7611244 2.09935968,14.2293163 1.62345687,13.6832865 C0.792181324,12.7219381 0.792181309,11.2752811 1.62623347,10.3107307 C4.51774541,6.99525484 8.44553496,4.6885249 11.9810967,4.75127176 C12.1697607,4.74795642 12.3594691,4.75113124 12.5501175,4.76069887 Z"/>
</svg>
