<svg xmlns="http://www.w3.org/2000/svg" width="25" height="24" viewBox="0 0 25 24">
  <path d="M4.00060807,14.9501143 C4.00873151,14.9583978 4.01690442,14.9666509 4.02512678,14.9748732 C5.39196249,16.3417089 7.60803751,16.3417089 8.97487322,14.9748732 C10.3417089,13.6080375 10.3417089,11.3919625 8.97487322,10.0251268 C7.60803751,8.65829107 5.39196249,8.65829107 4.02512678,10.0251268 C4.01690442,10.0333491 4.00873151,10.0416022 4.00060807,10.0498857 C4.16197453,10.017172 4.3289819,10 4.5,10 C5.88071187,10 7,11.1192881 7,12.5 C7,13.8807119 5.88071187,15 4.5,15 C4.3289819,15 4.16197453,14.982828 4.00060807,14.9501143 L4.00060807,14.9501143 Z M16.0006081,14.9501143 C16.0087315,14.9583978 16.0169044,14.9666509 16.0251268,14.9748732 C17.3919625,16.3417089 19.6080375,16.3417089 20.9748732,14.9748732 C22.3417089,13.6080375 22.3417089,11.3919625 20.9748732,10.0251268 C19.6080375,8.65829107 17.3919625,8.65829107 16.0251268,10.0251268 C16.0169044,10.0333491 16.0087315,10.0416022 16.0006081,10.0498857 C16.1619745,10.017172 16.3289819,10 16.5,10 C17.8807119,10 19,11.1192881 19,12.5 C19,13.8807119 17.8807119,15 16.5,15 C16.3289819,15 16.1619745,14.982828 16.0006081,14.9501143 L16.0006081,14.9501143 Z M8.69863656,7.45696565 C8.74517921,7.39475954 8.79976375,7.33702348 8.86224612,7.28528849 C10.9320133,5.57153477 14.0679871,5.57153477 16.1377539,7.28528854 C16.2002363,7.33702352 16.2548208,7.39475956 16.3013634,7.45696565 C18.3135702,6.58033431 20.7431571,6.9649835 22.3890868,8.61091322 C24.5369711,10.7587975 24.5369711,14.2412025 22.3890868,16.3890868 C20.2412025,18.5369711 16.7587975,18.5369711 14.6109132,16.3890868 C12.4681053,14.2462788 12.4630409,10.7752508 14.5957202,8.6261646 C13.3603751,7.79124274 11.6396251,7.79124273 10.4042799,8.62616462 C12.5369591,10.7752508 12.5318947,14.2462788 10.3890868,16.3890868 C8.24120249,18.5369711 4.75879751,18.5369711 2.61091322,16.3890868 C0.463028927,14.2412025 0.463028927,10.7587975 2.61091322,8.61091322 C4.25684294,6.9649835 6.68642984,6.58033431 8.69863656,7.45696565 L8.69863656,7.45696565 Z"/>
</svg>
