<svg xmlns="http://www.w3.org/2000/svg" width="25" height="24" viewBox="0 0 25 24">
  <path d="M3.59940658,12.4598722 C3.72238881,12.6414526 3.86429554,12.814042 4.02512678,12.9748732 C5.39196249,14.3417089 7.60803751,14.3417089 8.97487322,12.9748732 C10.3417089,11.6080375 10.3417089,9.39196249 8.97487322,8.02512678 C7.60803751,6.65829107 5.39196249,6.65829107 4.02512678,8.02512678 C3.86429554,8.18595802 3.72238881,8.35854739 3.59940658,8.5401278 C3.7288345,8.51381429 3.862804,8.5 4,8.5 C5.1045695,8.5 6,9.3954305 6,10.5 C6,11.6045695 5.1045695,12.5 4,12.5 C3.862804,12.5 3.7288345,12.4861857 3.59940658,12.4598722 Z M16,8.5 C17.1045695,8.5 18,9.3954305 18,10.5 C18,11.6045695 17.1045695,12.5 16,12.5 C15.862804,12.5 15.7288345,12.4861857 15.5994066,12.4598722 C15.7223888,12.6414526 15.8642955,12.814042 16.0251268,12.9748732 C17.3919625,14.3417089 19.6080375,14.3417089 20.9748732,12.9748732 C22.3417089,11.6080375 22.3417089,9.39196249 20.9748732,8.02512678 C19.6080375,6.65829107 17.3919625,6.65829107 16.0251268,8.02512678 C15.8642955,8.18595802 15.7223888,8.35854739 15.5994066,8.5401278 C15.7288345,8.51381429 15.862804,8.5 16,8.5 Z M8.86224612,5.28528849 C10.9320133,3.57153477 14.0679871,3.57153477 16.1377539,5.28528854 C16.2002363,5.33702352 16.2548208,5.39475956 16.3013634,5.45696565 C18.3135702,4.58033431 20.7431571,4.9649835 22.3890868,6.61091322 C24.5369711,8.75879751 24.5369711,12.2412025 22.3890868,14.3890868 C20.2412025,16.5369711 16.7587975,16.5369711 14.6109132,14.3890868 C12.4681053,12.2462788 12.4630409,8.77525082 14.5957202,6.6261646 C13.3603751,5.79124274 11.6396251,5.79124273 10.4042799,6.62616462 C12.5369591,8.77525084 12.5318947,12.2462788 10.3890868,14.3890868 C8.24120249,16.5369711 4.75879751,16.5369711 2.61091322,14.3890868 C0.463028927,12.2412025 0.463028927,8.75879751 2.61091322,6.61091322 C4.25684294,4.9649835 6.68642984,4.58033431 8.69863656,5.45696565 C8.74517921,5.39475954 8.79976375,5.33702348 8.86224612,5.28528849 Z M9.5,20.0000002 C8.94771525,20.0000002 8.5,19.552285 8.5,19.0000002 C8.5,18.4477155 8.94771525,18.0000002 9.5,18.0000002 L15.5,18.0000002 C16.0522847,18.0000002 16.5,18.4477155 16.5,19.0000002 C16.5,19.552285 16.0522847,20.0000002 15.5,20.0000002 L9.5,20.0000002 Z"/>
</svg>
