<svg xmlns="http://www.w3.org/2000/svg" width="24" height="24" viewBox="0 0 24 24">
  <path d="M3.09940658,12.4598722 C3.22238881,12.6414526 3.36429554,12.814042 3.52512678,12.9748732 C4.89196249,14.3417089 7.10803751,14.3417089 8.47487322,12.9748732 C9.84170893,11.6080375 9.84170893,9.39196249 8.47487322,8.02512678 C7.10803751,6.65829107 4.89196249,6.65829107 3.52512678,8.02512678 C3.36429554,8.18595802 3.22238881,8.35854739 3.09940658,8.5401278 C3.2288345,8.51381429 3.362804,8.5 3.5,8.5 C4.6045695,8.5 5.5,9.3954305 5.5,10.5 C5.5,11.6045695 4.6045695,12.5 3.5,12.5 C3.362804,12.5 3.2288345,12.4861857 3.09940658,12.4598722 Z M15.5,8.5 C16.6045695,8.5 17.5,9.3954305 17.5,10.5 C17.5,11.6045695 16.6045695,12.5 15.5,12.5 C15.362804,12.5 15.2288345,12.4861857 15.0994066,12.4598722 C15.2223888,12.6414526 15.3642955,12.814042 15.5251268,12.9748732 C16.8919625,14.3417089 19.1080375,14.3417089 20.4748732,12.9748732 C21.8417089,11.6080375 21.8417089,9.39196249 20.4748732,8.02512678 C19.1080375,6.65829107 16.8919625,6.65829107 15.5251268,8.02512678 C15.3642955,8.18595802 15.2223888,8.35854739 15.0994066,8.5401278 C15.2288345,8.51381429 15.362804,8.5 15.5,8.5 Z M8.36224612,5.28528849 C10.4320133,3.57153477 13.5679871,3.57153477 15.6377539,5.28528854 C15.7002363,5.33702352 15.7548208,5.39475956 15.8013634,5.45696565 C17.8135702,4.58033431 20.2431571,4.9649835 21.8890868,6.61091322 C24.0369711,8.75879751 24.0369711,12.2412025 21.8890868,14.3890868 C19.7412025,16.5369711 16.2587975,16.5369711 14.1109132,14.3890868 C11.9681053,12.2462788 11.9630409,8.77525082 14.0957202,6.6261646 C12.8603751,5.79124274 11.1396251,5.79124273 9.90427986,6.62616462 C12.0369591,8.77525084 12.0318947,12.2462788 9.88908678,14.3890868 C7.74120249,16.5369711 4.25879751,16.5369711 2.11091322,14.3890868 C-0.0369710729,12.2412025 -0.0369710729,8.75879751 2.11091322,6.61091322 C3.75684294,4.9649835 6.18642984,4.58033431 8.19863656,5.45696565 C8.24517921,5.39475954 8.29976375,5.33702348 8.36224612,5.28528849 Z M8.38281079,19.7868148 C7.94826499,19.4459506 7.87232104,18.8173566 8.21318523,18.3828108 C8.55404942,17.948265 9.18264342,17.872321 9.61718921,18.2131852 C10.9546017,19.2622715 13.0453985,19.2622715 14.3828107,18.2131853 C14.8173565,17.8723211 15.4459505,17.948265 15.7868147,18.3828107 C16.1276789,18.8173565 16.051735,19.4459505 15.6171893,19.7868147 C13.5550407,21.404395 10.4449596,21.404395 8.38281079,19.7868148 Z"/>
</svg>
