<svg xmlns="http://www.w3.org/2000/svg" width="24" height="24" viewBox="0 0 24 24">
  <path d="M3,8 C2.44771525,8 2,7.55228475 2,7 C2,6.44771525 2.44771525,6 3,6 L21,6 C21.5522847,6 22,6.44771525 22,7 C22,7.55228475 21.5522847,8 21,8 L3,8 Z M6.5,13 C5.94771525,13 5.5,12.5522847 5.5,12 C5.5,11.4477153 5.94771525,11 6.5,11 L17.5,11 C18.0522847,11 18.5,11.4477153 18.5,12 C18.5,12.5522847 18.0522847,13 17.5,13 L6.5,13 Z M10.5,18 C9.94771525,18 9.5,17.5522847 9.5,17 C9.5,16.4477153 9.94771525,16 10.5,16 L13.5,16 C14.0522847,16 14.5,16.4477153 14.5,17 C14.5,17.5522847 14.0522847,18 13.5,18 L10.5,18 Z"/>
</svg>
