<?xml version="1.0" encoding="UTF-8"?>
<svg width="24px" height="24px" viewBox="0 0 24 24" version="1.1" xmlns="http://www.w3.org/2000/svg" xmlns:xlink="http://www.w3.org/1999/xlink">
    <!-- Generator: Sketch 54.1 (76490) - https://sketchapp.com -->
    <title>bell copy 33</title>
    <desc>Created with Sketch.</desc>
    <g id="Icons" stroke="none" stroke-width="1" fill="none" fill-rule="evenodd">
        <path d="M11.1007377,1.9353834 C11.5484148,2.43231981 12.3119354,2.47213876 12.8074178,2.02577393 C12.8385888,1.99769297 12.8682751,1.96800667 12.8992612,1.9336295 L13.8435071,0.897564298 C14.8469832,-0.213013466 16.560761,-0.299836102 17.6713454,0.70363956 C18.2757671,1.24977275 18.6024747,2.03881274 18.561049,2.85220854 L18.490035,4.2524846 C18.4565165,4.9190877 18.9697322,5.48664732 19.6363356,5.52016855 C19.6761821,5.52217213 19.7161034,5.5222013 19.754535,5.52032654 L21.15619,5.44924335 C22.6511494,5.37554015 23.9228056,6.52769813 23.9965154,8.02266278 C24.0365461,8.83462988 23.7099678,9.62168492 23.1063304,10.167236 L22.064236,11.107321 C21.5681108,11.5554486 21.5292007,12.3209194 21.9773279,12.8170392 C22.0048068,12.8474613 22.0338133,12.8764678 22.063884,12.9036294 L23.1067748,13.8444334 C24.2173529,14.8479097 24.3041751,16.5616878 23.3006985,17.6722716 C22.754566,18.2766927 21.9655267,18.6033997 21.1521296,18.5619753 L19.7509891,18.4909172 C19.0844219,18.4566296 18.5162714,18.9691897 18.4819847,19.6357554 C18.4798571,19.677117 18.4798571,19.7185606 18.4820124,19.7604643 L18.5532623,21.1656723 C18.6198795,22.6609633 17.4617086,23.9271419 15.96641,23.9937684 C15.1648193,24.0294803 14.388611,23.7081565 13.8436125,23.1128191 L12.9019281,22.0710618 C12.4542611,21.5752628 11.6894341,21.5362442 11.1936306,21.9839109 C11.1631178,22.0114615 11.1340299,22.0405494 11.1051348,22.0725472 L10.1591827,23.1145965 C9.15193065,24.2217509 7.43786112,24.3027368 6.33070737,23.2954841 C5.73410658,22.7527156 5.41025395,21.9724228 5.44738693,21.1625338 L5.51941816,19.7619265 C5.55370555,19.0953595 5.041145,18.5272086 4.3745802,18.4929219 C4.33321867,18.4907943 4.29177516,18.4907944 4.24987108,18.4929497 L2.85037861,18.5639231 C1.35619016,18.6419115 0.0816842032,17.4938528 0.00368858227,15.999659 C-0.0387756975,15.1860782 0.287140174,14.396578 0.891807032,13.8492816 L1.93316721,12.9089564 C2.4292924,12.4608288 2.46820248,11.695358 2.02007528,11.1992382 C1.99259637,11.1688161 1.96358984,11.1398096 1.93178509,11.1110787 L0.890544528,10.1658602 C-0.21766596,9.16059224 -0.301118118,7.44727915 0.70414932,6.33907066 C1.24802271,5.73950184 2.03151425,5.41455147 2.84226334,5.4533067 L4.24425326,5.52440891 C4.91077815,5.55945202 5.47951369,5.04753341 5.51455323,4.38100823 C5.51679624,4.33834578 5.51677548,4.29559426 5.51427406,4.24865341 L5.44721309,2.84637199 C5.37707105,1.35123364 6.53225694,0.0823282693 8.02739556,0.0121880066 C8.83415592,-0.0256600258 9.61576337,0.298278345 10.160333,0.896954175 L11.1007377,1.9353834 Z M9.04913208,1.90549502 C8.80659414,1.63886072 8.45776894,1.4942896 8.09771767,1.5111809 C7.43044926,1.54248394 6.91490221,2.10878277 6.94617373,2.77536895 L7.01298552,4.17268975 C7.01810664,4.26832242 7.01815318,4.36415935 7.01312517,4.45979285 C6.93457623,5.95395792 5.65962873,7.10153758 4.16685578,7.02305249 L2.76843739,6.95212952 C2.40774882,6.93488939 2.05824451,7.07984508 1.8156299,7.34730466 C1.36719501,7.84166003 1.4044218,8.60594409 1.8989834,9.05456556 L2.93904537,9.99871718 C3.00718024,10.0602603 3.07214528,10.1252253 3.13368646,10.193358 C4.13734823,11.3045079 4.05020243,13.0189112 2.93895953,14.022647 L1.89817091,14.9624554 C1.62873394,15.2063286 1.48334747,15.5585135 1.50229,15.9214369 C1.53708276,16.587976 2.10562432,17.100111 2.77326612,17.0652646 L4.17332273,16.9942619 C4.26604404,16.9894924 4.35894877,16.9894924 4.45166887,16.9942618 C5.94592077,17.0711228 7.09494089,18.3447613 7.01807867,19.8390082 L6.94625121,21.2354257 C6.92976993,21.5950038 7.07430227,21.9432411 7.34055948,22.1854734 C7.83467097,22.6350001 8.59964512,22.5988568 9.04862227,22.1053494 L9.99268017,21.0653901 C10.0544118,20.9970212 10.1195891,20.9318439 10.1879612,20.8701093 C11.2989013,19.8670287 13.0126439,19.9544575 14.0154454,21.0650776 L14.9536596,22.1030181 C15.1954651,22.3671482 15.5418791,22.5105518 15.8996162,22.4946142 C16.5669559,22.4648793 17.0838384,21.8997939 17.0543274,21.2370701 L16.9833246,19.8370123 C16.9785551,19.744291 16.9785551,19.6513864 16.9833246,19.5586666 C17.0601856,18.0644138 18.333824,16.915394 19.8275371,16.9922295 L21.2282953,17.063268 C21.5913808,17.081759 21.9435216,16.9359528 22.1872539,16.6662071 C22.6350975,16.1705624 22.5963495,15.4057189 22.1011544,14.958279 L21.0583578,14.0175602 C20.9902229,13.9560171 20.9252579,13.891052 20.8637167,13.8229194 C19.8600549,12.7117695 19.9472007,10.9973662 21.0587097,9.99339034 L22.1006452,9.05344889 C22.369811,8.81018402 22.5155596,8.45892919 22.4976944,8.09655935 C22.4647984,7.42937039 21.8972684,6.91517146 21.2311399,6.9480116 L19.8291229,7.01911255 C19.7397916,7.02347344 19.6502994,7.02340804 19.5609717,7.01891642 C18.0666337,6.94377121 16.9161479,5.67146167 16.9913032,4.17680106 L17.0623418,2.77604154 C17.0808334,2.41295763 16.935027,2.06081695 16.6652812,1.8170846 C16.1696364,1.36924148 15.4047927,1.40798965 14.9547924,1.90600847 L14.0112932,2.94124595 C13.9483151,3.01115426 13.8817365,3.0777329 13.8118287,3.14071051 C12.7008451,4.14156145 10.9890033,4.05253486 9.98781863,2.94202969 L9.04913208,1.90549502 Z M8.28532499,8.29223282 C10.336455,6.24110279 13.6619904,6.24110279 15.7131204,8.29223282 C17.7642504,10.3433629 17.7642504,13.6688982 15.7131204,15.7200282 C13.6619904,17.7711583 10.336455,17.7711583 8.28532499,15.7200282 C6.23419496,13.6688982 6.23419496,10.3433629 8.28532499,8.29223282 Z M14.6520066,14.6589145 C16.1170997,13.1938214 16.1170997,10.8184397 14.6520066,9.3533466 C13.1869135,7.88825352 10.8115318,7.88825352 9.34643877,9.3533466 C7.88134569,10.8184397 7.88134569,13.1938214 9.34643877,14.6589145 C10.8115318,16.1240075 13.1869135,16.1240075 14.6520066,14.6589145 Z" id="Shape" fill="#000000" fill-rule="nonzero"></path>
    </g>
</svg>