<svg xmlns="http://www.w3.org/2000/svg" width="24" height="24" viewBox="0 0 24 24">
  <path d="M2699.38202,66.0731434 C2699.83137,66.4794862 2700.09306,67.0498659 2700.11162,67.6500282 L2700.10984,67.8308361 L2700.06566,68.7085064 C2700.06014,68.8065341 2700.12171,68.8928225 2700.21047,68.9226941 L2700.26666,68.9334897 L2700.29658,68.9331732 L2701.16666,68.8893907 C2702.38998,68.8258101 2703.43322,69.7659612 2703.4968,70.9892805 C2703.52836,71.5964626 2703.30931,72.1871195 2702.89674,72.6249096 L2702.76722,72.7515243 L2702.11912,73.3370495 C2702.04432,73.4045616 2702.02693,73.511954 2702.0701,73.5978202 L2702.10329,73.6462655 L2702.766,74.246531 C2703.67629,75.066241 2703.74972,76.46868 2702.93001,77.3789606 C2702.52315,77.8307707 2701.95071,78.0937582 2701.34943,78.111823 L2701.16832,78.1098386 L2700.29492,78.0658867 C2700.19472,78.0606771 2700.10681,78.1239769 2700.07668,78.2148023 L2700.06589,78.2722728 L2700.10983,79.1680058 C2700.17179,80.3919195 2699.22985,81.434327 2698.00594,81.4962908 C2697.40088,81.5269232 2696.81244,81.3088666 2696.37224,80.8949569 L2696.24476,80.7649612 L2695.66324,80.1157052 C2695.59502,80.0403836 2695.48669,80.0230292 2695.40016,80.0667084 L2695.35136,80.1002645 L2694.75122,80.7684853 C2693.92926,81.6774352 2692.52608,81.7479553 2691.61714,80.9259954 C2691.16779,80.519652 2690.9061,79.9492722 2690.88754,79.3491099 L2690.88932,79.168302 L2690.93318,78.2965978 C2690.93826,78.1955357 2690.87427,78.1069857 2690.78262,78.0767463 L2690.72464,78.0659664 L2689.83115,78.1098162 C2688.60724,78.1717805 2687.56484,77.229842 2687.50286,76.0059226 C2687.47222,75.4008718 2687.69028,74.812429 2688.1022,74.3740217 L2688.23153,74.2471339 L2688.87877,73.6632236 C2688.9541,73.5950085 2688.97145,73.4866722 2688.92777,73.4001481 L2688.89421,73.3513465 L2688.23066,72.7512065 C2687.32171,71.9292468 2687.25119,70.5260697 2688.07315,69.6171222 C2688.47949,69.1677747 2689.04987,68.9060831 2689.65004,68.8875216 L2689.83084,68.8893025 L2690.70424,68.9332544 C2690.80444,68.9384639 2690.89234,68.8751642 2690.92248,68.7843388 L2690.93327,68.7268683 L2690.88933,67.8311356 C2690.82737,66.6072218 2691.76931,65.5648142 2692.99322,65.5028504 C2693.59828,65.472218 2694.18672,65.6902746 2694.62692,66.1041853 L2694.7544,66.2341813 L2695.33592,66.8834327 C2695.40413,66.9587543 2695.51247,66.9761088 2695.59899,66.9324296 L2695.64779,66.8988735 L2696.24793,66.2306527 C2697.06989,65.3217027 2698.47307,65.2511827 2699.38202,66.0731434 Z M2697.77613,67.533336 L2697.73452,67.568575 L2697.14565,68.2259834 C2697.09648,68.2802824 2697.04464,68.3321148 2696.99034,68.3812903 C2696.12453,69.1654118 2694.80946,69.1396827 2693.97178,68.346616 L2693.84983,68.2219063 L2693.26781,67.5721057 C2693.22371,67.5233338 2693.16002,67.4969675 2693.09435,67.5002922 C2692.99372,67.5053868 2692.91241,67.577658 2692.89165,67.6716656 L2692.88679,67.7303151 L2692.93057,68.6003824 C2692.93456,68.6771084 2692.93456,68.7539897 2692.93057,68.8307113 C2692.86973,70.0008406 2691.91258,70.9118753 2690.76033,70.9332943 L2690.60206,70.9306417 L2689.73002,70.8867596 C2689.66435,70.8834348 2689.60067,70.9098001 2689.55656,70.9585701 C2689.48898,71.0333035 2689.48255,71.1418991 2689.53368,71.2224974 L2689.57123,71.2670019 L2690.22133,71.8534908 C2690.27562,71.9026664 2690.32746,71.9544984 2690.37663,72.0087964 C2691.16075,72.8746072 2691.13502,74.18968 2690.34425,75.0252975 L2690.2199,75.1469281 L2689.57211,75.7313343 C2689.52334,75.7754393 2689.49697,75.8391271 2689.5003,75.9047824 C2689.50539,76.0054204 2689.57767,76.0867352 2689.67168,76.1074977 L2689.73033,76.112359 L2690.60209,76.0684909 C2690.67638,76.0647548 2690.75081,76.0647549 2690.8251,76.0684912 C2691.99631,76.127399 2692.90973,77.0838073 2692.93305,78.2384682 L2692.93066,78.3970851 L2692.88677,79.2691238 C2692.88345,79.3347939 2692.90981,79.3984787 2692.95858,79.4425812 C2693.03033,79.5074592 2693.13328,79.5159819 2693.21149,79.4726829 L2693.26463,79.430563 L2693.8535,78.7731533 C2693.90268,78.7188548 2693.95451,78.6670227 2694.00881,78.6178477 C2694.87462,77.8337261 2696.18969,77.8594552 2697.02737,78.6525207 L2697.14932,78.7772303 L2697.73135,79.4270356 C2697.77545,79.4758074 2697.83914,79.5021737 2697.90481,79.4988491 C2698.00544,79.4937544 2698.08675,79.4214832 2698.10751,79.3274756 L2698.11237,79.2688261 L2698.06859,78.3987588 C2698.0646,78.3220328 2698.0646,78.2451515 2698.06859,78.1684298 C2698.12943,76.9983005 2699.08658,76.0872657 2700.23883,76.0658468 L2700.3971,76.0684994 L2701.27048,76.1124502 C2701.33612,76.1158618 2701.3998,76.0894702 2701.44379,76.0406205 C2701.51092,75.9660662 2701.5171,75.8579199 2701.46482,75.7766855 L2701.42645,75.7316583 L2700.77908,75.1467843 C2700.72289,75.0960634 2700.66932,75.0425002 2700.6186,74.9863054 C2699.8366,74.1198977 2699.86454,72.8059735 2700.65452,71.9737885 L2700.77872,71.8526899 L2701.42767,71.2663921 C2701.47652,71.2224093 2701.50291,71.1587325 2701.49949,71.0930897 C2701.49429,70.9928912 2701.42221,70.9120208 2701.3278,70.8915124 L2701.26882,70.8867791 L2700.40303,70.9303293 C2700.32017,70.9349926 2700.23712,70.9349926 2700.15427,70.9303289 C2698.98687,70.8646174 2698.08186,69.9056004 2698.0652,68.7594412 L2698.0685,68.6020531 L2698.11238,67.7300142 C2698.1146,67.6862342 2698.10362,67.6433365 2698.0816,67.6065353 L2698.04057,67.5565575 L2697.98179,67.5183941 C2697.91471,67.4888071 2697.8366,67.4945589 2697.77613,67.533336 Z M2697.62037,71.3827271 C2698.79195,72.5542989 2698.79195,74.4537979 2697.62037,75.6253663 C2696.4488,76.7969395 2694.5493,76.7969395 2693.37773,75.6253663 C2692.20616,74.4537931 2692.20616,72.5542941 2693.37773,71.3827257 C2694.54931,70.2111525 2696.4488,70.2111525 2697.62037,71.3827271 Z M2694.79194,72.7969407 C2694.40142,73.1874618 2694.40142,73.8206286 2694.79195,74.2111542 C2695.18247,74.6016768 2695.81563,74.6016768 2696.20616,74.2111513 C2696.56664,73.8506703 2696.59437,73.2834379 2696.28935,72.8911466 L2696.20616,72.7969392 L2696.11195,72.7137495 C2695.71966,72.4087259 2695.15243,72.4364556 2694.79194,72.7969407 Z M2705.12187,58.6562502 C2705.36827,57.8210227 2706.5093,57.7830578 2706.83702,58.5423555 L2706.87812,58.6562502 L2706.94062,58.8687503 C2706.95896,58.9310359 2706.98388,58.9911922 2707.01495,59.0482034 C2707.23818,59.4577901 2707.72889,59.6287473 2708.15206,59.462417 L2708.25625,59.4137505 L2708.45062,59.3081255 C2709.21982,58.8887253 2710.05872,59.6800776 2709.73864,60.4535047 L2709.6925,60.5500008 L2709.58625,60.7437509 C2709.55518,60.8007622 2709.53026,60.8609187 2709.51192,60.9232041 C2709.38018,61.3706773 2709.60631,61.8385326 2710.02316,62.0201182 L2710.13125,62.0593732 L2710.34375,62.1218732 C2711.17898,62.3682653 2711.21694,63.5093 2710.45764,63.8370233 L2710.34375,63.8781238 L2710.13125,63.9406238 C2710.06896,63.9589615 2710.00881,63.9838769 2709.9518,64.0149488 C2709.54221,64.2381777 2709.37125,64.7288878 2709.53758,65.1520577 L2709.58625,65.2562492 L2709.69187,65.4506243 C2710.11127,66.2198245 2709.31992,67.0587208 2708.5465,66.7386356 L2708.45,66.6924997 L2708.25625,66.5862496 C2708.19924,66.5551778 2708.13908,66.5302624 2708.0768,66.5119246 C2707.62932,66.3801784 2707.16147,66.6063091 2706.97988,67.0231603 L2706.94063,67.1312497 L2706.87813,67.3437498 C2706.63173,68.1789773 2705.4907,68.2169422 2705.16298,67.4576444 L2705.12188,67.3437498 L2705.05938,67.1312497 C2705.04104,67.068964 2705.01612,67.0088078 2704.98505,66.9517965 C2704.76182,66.5422098 2704.27111,66.3712527 2703.84794,66.537583 L2703.74375,66.5862495 L2703.54938,66.6918746 C2702.78018,67.1112747 2701.94128,66.3199224 2702.26136,65.5464953 L2702.3075,65.4499992 L2702.41375,65.2562491 C2702.44482,65.1992378 2702.46974,65.1390813 2702.48808,65.0767959 C2702.61982,64.6293227 2702.39369,64.1614674 2701.97684,63.9798818 L2701.86875,63.9406268 L2701.65625,63.8781268 C2700.82102,63.6317347 2700.78306,62.4907 2701.54236,62.1629767 L2701.65625,62.1218762 L2701.86875,62.0593762 C2702.39083,61.9053762 2702.65594,61.3392316 2702.46233,60.8477484 L2702.41375,60.7437508 L2702.30813,60.5493758 C2701.88873,59.7801755 2702.68008,58.9412793 2703.4535,59.2613645 L2703.55,59.3075004 L2703.74375,59.4137504 C2703.80076,59.4448222 2703.86092,59.4697376 2703.9232,59.4880754 C2704.37068,59.6198216 2704.83853,59.393691 2705.02012,58.9768397 L2705.05937,58.8687503 L2705.12187,58.6562502 Z M2706,61.168751 C2704.98897,61.168751 2704.16937,61.9883513 2704.16937,62.9993766 C2704.16937,64.0104019 2704.98897,64.8300064 2706,64.8300064 C2707.01137,64.8312522 2707.83125,64.0113706 2707.83125,63.0000016 C2707.83125,61.9886325 2707.01137,61.168751 2706,61.168751 Z" transform="translate(-2687 -58)"/>
</svg>
