<?xml version="1.0" encoding="UTF-8"?>
<svg width="24px" height="24px" viewBox="0 0 24 24" version="1.1" xmlns="http://www.w3.org/2000/svg" xmlns:xlink="http://www.w3.org/1999/xlink">
    <title>gear-g</title>
    <g id="Icons" stroke="none" stroke-width="1" fill="none" fill-rule="evenodd">
        <g id="Glyphs" transform="translate(-1258.000000, -74.000000)" fill="#000000" fill-rule="nonzero">
            <path d="M1271.38634,75.9026709 C1272.40181,74.7797283 1274.13534,74.6926059 1275.25828,75.7080792 C1275.82195,76.21781 1276.14661,76.93648 1276.16049,77.6905113 L1276.15744,77.8796554 L1276.09446,79.1309253 C1276.0717,79.5352921 1276.38105,79.8815465 1276.78542,79.904308 L1276.82737,79.9054273 L1276.82737,79.9054273 L1278.11746,79.8414091 C1279.62869,79.762865 1280.91745,80.9242782 1280.99599,82.4355023 C1281.03558,83.1971225 1280.75598,83.9376948 1280.23079,84.4811 L1280.09442,84.6127417 L1279.16873,85.4490667 C1278.86479,85.7233911 1278.84079,86.1921669 1279.11511,86.496102 L1279.16909,86.5500431 L1280.09321,87.3849488 C1281.21773,88.397575 1281.30843,90.1300733 1280.29581,91.2545856 C1279.78547,91.8213147 1279.06423,92.1475499 1278.30863,92.1607243 L1278.11912,92.1574538 L1276.87212,92.094702 C1276.46398,92.0734813 1276.11592,92.3871407 1276.0947,92.7952796 L1276.09478,92.8737929 L1276.15744,94.1188209 C1276.23399,95.6308781 1275.07028,96.9186976 1273.55823,96.9952494 C1272.79923,97.0336757 1272.06139,96.7553383 1271.51554,96.2292241 L1271.38317,96.0925735 L1270.55084,95.1633178 C1270.27502,94.8587562 1269.80452,94.8354617 1269.49996,95.1112884 L1269.4516,95.1592411 L1268.61243,96.0960976 C1267.59696,97.2190402 1265.86343,97.3061626 1264.74049,96.2906902 C1264.17682,95.7809587 1263.85216,95.0622887 1263.83828,94.3082573 L1263.84133,94.1191132 L1263.90399,92.8738096 C1263.92459,92.4641657 1263.60921,92.1153824 1263.19957,92.0947787 L1263.12499,92.0947773 L1261.87996,92.1574284 C1260.36791,92.233981 1259.08009,91.0702827 1259.00352,89.5582194 C1258.96509,88.7992222 1259.24343,88.061379 1259.76746,87.5174024 L1259.90354,87.3855471 L1260.82878,86.5508371 C1261.13335,86.2750104 1261.15664,85.8045108 1260.88081,85.4999486 L1260.83021,85.4492085 L1259.90267,84.6124202 C1258.77973,83.5969479 1258.69261,81.8634239 1259.70808,80.7404846 C1260.21781,80.1768074 1260.93648,79.8521538 1261.69051,79.8382733 L1261.87966,79.8413191 L1263.12665,79.904071 C1263.53479,79.9252917 1263.88286,79.6116323 1263.90408,79.2034934 L1263.90506,79.1648615 L1263.90506,79.1648615 L1263.84134,77.8799525 C1263.76479,76.3678951 1264.9285,75.0800756 1266.44055,75.0035238 C1267.19955,74.9650975 1267.93739,75.2434349 1268.48324,75.7695501 L1268.61561,75.906201 L1269.44792,76.8354506 C1269.72375,77.1400123 1270.19425,77.1633068 1270.49881,76.8874802 L1270.54717,76.8395274 L1271.38634,75.9026709 Z M1273.83019,77.1239753 C1273.56296,76.9457324 1273.20942,76.9609119 1272.96085,77.1581269 L1272.87293,77.2405932 L1272.03326,78.1780014 C1271.9725,78.2450926 1271.90845,78.3091362 1271.84136,78.3698969 C1270.76489,79.3448055 1269.12635,79.306523 1268.09308,78.3094149 L1267.96184,78.1739243 L1267.12902,77.2441253 C1266.97968,77.0789852 1266.76404,76.989708 1266.54168,77.0009656 C1266.16685,77.019942 1265.87118,77.3141583 1265.84047,77.6782547 L1265.8388,77.779132 L1265.90138,79.0227992 C1265.90631,79.1175824 1265.90631,79.2125575 1265.90138,79.3073364 C1265.82572,80.7625855 1264.62783,81.8934383 1263.19124,81.9051221 L1263.02447,81.9014583 L1261.77883,81.8387762 C1261.55647,81.8275183 1261.34083,81.9167944 1261.19149,82.0819326 C1260.94185,82.3579979 1260.93862,82.7705233 1261.1676,83.0489734 L1261.24324,83.1282157 L1262.17134,83.9655043 C1262.23843,84.0262653 1262.30247,84.0903084 1262.36323,84.1573986 C1263.33814,85.2338725 1263.29986,86.8724112 1262.30508,87.9035816 L1262.16991,88.0345415 L1261.24412,88.8697475 C1261.07898,89.0190848 1260.9897,89.2347329 1261.00096,89.4570792 C1261.01994,89.831913 1261.31417,90.1275845 1261.67826,90.1583024 L1261.77914,90.1599713 L1263.0245,90.0973032 C1263.11629,90.0926872 1263.20824,90.0926873 1263.30003,90.0973035 C1264.75682,90.1705749 1265.8908,91.3677011 1265.90486,92.807178 L1265.90147,92.9742969 L1265.83878,94.2199351 C1265.82753,94.4422974 1265.9168,94.6579422 1266.08194,94.8072761 C1266.35801,95.0569215 1266.77053,95.0601454 1267.04719,94.8331607 L1267.12584,94.7581753 L1267.96551,93.8207659 C1268.02627,93.753675 1268.09032,93.6896318 1268.15741,93.6288717 C1269.23388,92.6539629 1270.87242,92.6922454 1271.90569,93.6893524 L1272.03693,93.8248429 L1272.86976,94.7546479 C1273.01909,94.919788 1273.23474,95.0090652 1273.4571,94.9978076 C1273.83192,94.9788312 1274.12759,94.6846149 1274.15831,94.3205185 L1274.15998,94.2196412 L1274.0974,92.975974 C1274.09247,92.8811907 1274.09247,92.7862155 1274.0974,92.6914366 C1274.17306,91.2361874 1275.37095,90.1053345 1276.80754,90.0936508 L1276.9743,90.0973147 L1278.22128,90.1600655 C1278.44411,90.1716467 1278.66027,90.0820606 1278.80959,89.9162456 C1279.05821,89.6401574 1279.06056,89.2283669 1278.82985,88.9494848 L1278.75366,88.8700761 L1277.82869,88.0344023 C1277.75926,87.9717401 1277.69309,87.9055666 1277.63043,87.8361419 C1276.65828,86.7590674 1276.6993,85.1221851 1277.69328,84.095118 L1277.82833,83.9647071 L1278.75488,83.1276096 C1278.92069,82.978301 1279.01027,82.7621425 1278.99869,82.5393115 C1278.97924,82.1651804 1278.68515,81.8704346 1278.32063,81.8403125 L1278.21963,81.8387975 L1276.98023,81.9011476 C1276.87791,81.9069066 1276.77535,81.9069066 1276.67302,81.9011473 C1275.22166,81.819451 1274.09869,80.6196687 1274.09296,79.1903602 L1274.0973,79.0244719 L1274.15999,77.7788336 C1274.16937,77.5935317 1274.10893,77.4128947 1273.99296,77.2714099 L1273.91683,77.1914933 L1273.83019,77.1239753 Z M1272.82843,83.1715744 C1274.39052,84.7336704 1274.39052,87.266336 1272.82843,88.8284271 C1271.26633,90.3905246 1268.73366,90.3905246 1267.17157,88.8284271 C1265.60948,87.2663296 1265.60948,84.733664 1267.17157,83.1715729 C1268.73367,81.6094754 1271.26634,81.6094754 1272.82843,83.1715744 Z M1268.58579,84.5857879 C1267.80474,85.3668317 1267.80474,86.6331651 1268.58579,87.414215 C1269.36683,88.1952619 1270.63317,88.1952619 1271.41421,87.4142121 C1272.15415,86.6742758 1272.1931,85.4987889 1271.53105,84.7130013 L1271.41421,84.5857865 L1271.287,84.4689525 C1270.50121,83.8069016 1269.32573,83.845846 1268.58579,84.5857879 Z" id="Shape"></path>
        </g>
    </g>
</svg>