<?xml version="1.0" encoding="UTF-8"?>
<svg width="24px" height="24px" viewBox="0 0 24 24" version="1.1" xmlns="http://www.w3.org/2000/svg" xmlns:xlink="http://www.w3.org/1999/xlink">
    <!-- Generator: Sketch 54.1 (76490) - https://sketchapp.com -->
    <title>bell copy 34</title>
    <desc>Created with Sketch.</desc>
    <g id="Icons" stroke="none" stroke-width="1" fill="none" fill-rule="evenodd">
        <path d="M9.70291047,9.58265453 C10.9725833,8.31345166 13.0311243,8.31345164 14.3008058,9.58265453 C15.5704786,10.8518574 15.5704786,12.9096365 14.3008058,14.1788481 C13.031133,15.448051 10.972592,15.448051 9.70291047,14.1788481 C8.43323765,12.9096452 8.43323765,10.8518661 9.70291047,9.58265453 Z M12.8860662,12.7646369 C13.3744045,12.2764761 13.3744045,11.4850232 12.8860686,10.9968681 C12.3977268,10.508713 11.6059827,10.5087138 11.1176501,10.9968657 C10.6293118,11.4850265 10.6293118,12.2764794 11.1176452,12.7646321 C11.6059868,13.2527896 12.3977328,13.2527896 12.8860662,12.7646369 Z M15.5357189,5.07209584 C15.6104992,5.31905085 15.8637348,5.46601548 16.1121561,5.40922191 L18.3288536,4.89476325 C19.9503788,4.52957671 21.5610345,5.54755659 21.9263444,7.16848008 C22.1448937,8.13817869 21.8701866,9.15320012 21.1940313,9.87867989 L19.6474083,11.5463112 C19.468865,11.7382289 19.4688651,12.0353937 19.6484593,12.2284428 L21.1963413,13.897442 C22.3222401,15.1197488 22.2437189,17.0230038 21.0209601,18.1484844 C20.2960244,18.8157476 19.2902236,19.0859749 18.3201003,18.8700403 L16.1105159,18.3587098 C15.8598523,18.3009012 15.6073251,18.4474545 15.5325733,18.6959958 L14.8729109,20.8705704 C14.3956785,22.4552413 12.7236995,23.3531407 11.1384441,22.8760849 C10.1755,22.5863048 9.42207414,21.8331571 9.13307939,20.8735195 L8.46904139,18.6929041 C8.39460988,18.4460627 8.14140682,18.299242 7.89095875,18.3570068 L5.67968879,18.8690715 C4.0602752,19.2397934 2.44684432,18.2280153 2.07597966,16.6091955 C1.85310645,15.6363477 2.12762194,14.6163474 2.8065589,13.888937 L4.3531818,12.2213056 C4.53172509,12.029388 4.53172508,11.7322231 4.35213091,11.5391741 L2.80822314,9.8744642 C1.67519524,8.6587591 1.74258263,6.75508423 2.95873819,5.62246048 C3.68628897,4.94488998 4.70168276,4.67028577 5.67825786,4.89024693 L7.87921955,5.40145571 C8.13384101,5.45843504 8.38950235,5.31018871 8.46526636,5.06477182 L9.12699333,2.89030938 C9.60046427,1.30451178 11.2703058,0.402650796 12.8566876,0.875945388 C13.8268634,1.16539509 14.5852093,1.92480222 14.8731714,2.8948863 L15.5357189,5.07209584 Z M12.9579382,3.47334192 L12.9555319,3.46531355 C12.860094,3.14198621 12.6076203,2.88881404 12.2844909,2.7924091 C11.756934,2.63501331 11.2016213,2.93493088 11.0426478,3.46733296 L10.3782318,5.65065197 C9.9935649,6.896813 8.71525518,7.63804641 7.43428942,7.35135797 L5.23199542,6.83985009 C4.9068229,6.76661674 4.56644737,6.85866827 4.32256552,7.08579627 C3.91488361,7.46547648 3.89229422,8.1036206 4.2737698,8.51293689 L5.81829102,10.1783056 C6.71100932,11.1378959 6.71100936,12.6237151 5.81934196,13.5821741 L4.27160951,15.2509961 C4.04352676,15.4953656 3.95159656,15.836945 4.02623266,16.1627336 C4.15043127,16.7048591 4.69074617,17.0436891 5.23061193,16.9201043 L7.44028511,16.4084066 C8.71836842,16.1136201 10.0061066,16.8603195 10.3838582,18.1130915 L11.0479969,20.2940409 C11.1444003,20.6141533 11.3949551,20.8646156 11.7151868,20.9609834 C12.2423705,21.1196304 12.7983947,20.8210299 12.9576824,20.292115 L13.6172377,18.1178965 C13.9948415,16.8623556 15.2823177,16.115173 16.5610207,16.4100705 L18.7631094,16.9197026 C19.0855486,16.9914605 19.4227092,16.900876 19.6657201,16.677198 C20.0756089,16.2999184 20.1019304,15.6619183 19.7268203,15.2546799 L18.1822992,13.5893113 C17.2895808,12.629721 17.2895808,11.1439019 18.1812482,10.1854428 L19.7284895,8.51714737 C19.9557013,8.27335936 20.0477869,7.93311009 19.9745244,7.60804595 C19.8520663,7.06468473 19.3121507,6.72344284 18.7749683,6.8444007 L16.5614526,7.35813731 C15.2849143,7.65000528 14.0001681,6.90440609 13.6211837,5.65284191 L12.9579382,3.47334192 Z" id="Shape" fill="#000000" fill-rule="nonzero"></path>
    </g>
</svg>