<svg xmlns="http://www.w3.org/2000/svg" width="24" height="24" viewBox="0 0 24 24">
  <path d="M9.35332536,4.08071069 C10.0263998,1.30625294 13.9736163,1.30625267 14.6468866,4.08151705 C14.7410451,4.47012616 15.1324094,4.70882828 15.5210153,4.61467107 C15.5938265,4.59702916 15.6634596,4.56819234 15.7277441,4.52899749 C18.1660469,3.04357641 20.9570915,5.83394638 19.4720525,8.27320188 C19.2640489,8.61469583 19.3722649,9.0601553 19.7137589,9.2681585 C19.7774769,9.3069691 19.8468099,9.33569751 19.9187654,9.35319594 C22.6937542,10.0263994 22.6937542,13.9736159 19.9184895,14.6468862 C19.5298804,14.7410448 19.2911783,15.1324091 19.3853355,15.5210149 C19.4029774,15.5938262 19.4318142,15.6634593 19.4710091,15.7277437 C20.9564302,18.1660466 18.1660602,20.9570912 15.7268048,19.4720522 C15.3853108,19.2640486 14.9398513,19.3722646 14.7318481,19.7137586 C14.6930375,19.7774765 14.6643091,19.8468095 14.6468107,19.9187651 C13.9736073,22.6937538 10.0263908,22.6937539 9.35312048,19.9184894 C9.25896195,19.5298803 8.86759763,19.2911782 8.47899177,19.3853354 C8.40618054,19.4029773 8.33654744,19.4318142 8.27226302,19.471009 C5.83396017,20.9564301 3.04291551,18.1660602 4.52795446,15.7268047 C4.73595807,15.3853108 4.62774206,14.9398513 4.28624809,14.7318481 C4.22253014,14.6930375 4.15319712,14.6643091 4.08124158,14.6468107 C1.30625278,13.9736072 1.30625283,10.0263907 4.08151753,9.35312039 C4.47012663,9.25896185 4.70882875,8.86759753 4.61467154,8.47899168 C4.59702964,8.40618044 4.56819281,8.33654734 4.52899796,8.27226293 C3.04357689,5.83396004 5.83394684,3.04291544 8.27403806,4.52846403 C8.69175124,4.78345361 9.23736468,4.55757101 9.35332536,4.08071069 Z M11.2968198,4.55275842 C10.8606967,6.34621015 8.80644896,7.19666356 7.23298693,6.23615579 C6.58441744,5.8413013 5.84221436,6.58368383 6.23681727,7.23142045 C6.38355625,7.47209008 6.49205173,7.73407718 6.55842896,8.00802768 C6.91269176,9.47014189 6.01459803,10.9426124 4.5527585,11.2968107 C3.8157472,11.4756072 3.81574719,12.5243907 4.55329513,12.7033177 C4.82604917,12.7696464 5.08691235,12.8777361 5.32664448,13.023757 C6.61149146,13.8063544 7.01864423,15.4823547 6.23615582,16.7670201 C5.84130139,17.4155895 6.58368393,18.1577926 7.23142054,17.7631897 C7.47209017,17.6164507 7.73407727,17.5079552 8.00802777,17.441578 C9.47014198,17.0873152 10.9426125,17.9854089 11.2968108,19.4472485 C11.4756073,20.1842595 12.5243907,20.1842594 12.7033177,19.4467115 C12.7696465,19.1739575 12.8777362,18.9130943 13.023757,18.6733622 C13.8063544,17.3885152 15.4823547,16.9813624 16.7670202,17.7638508 C17.4155896,18.1587053 18.1577927,17.4163228 17.7631898,16.7685862 C17.6164508,16.5279165 17.5079553,16.2659294 17.4415781,15.9919789 C17.0873153,14.5298647 17.985409,13.0573942 19.4472486,12.7031959 C20.1842598,12.5243994 20.1842598,11.4756159 19.4467119,11.296689 C19.1739578,11.2303602 18.9130946,11.1222705 18.6733625,10.9762496 C17.3885155,10.1936523 16.9813628,8.51765192 17.7638512,7.23298649 C18.1587057,6.58441697 17.4163232,5.84221388 16.7685865,6.2368168 C16.5279169,6.38355578 16.2659298,6.49205126 15.9919793,6.55842849 C14.5298651,6.91269129 13.0573945,6.01459756 12.7031963,4.55275802 C12.5243998,3.81574716 11.4756164,3.81574723 11.2968198,4.55275842 Z M13.4142013,10.5857868 L14.8284149,9.17157322 C16.3905092,10.7336675 16.3905092,13.2663325 14.8284149,14.8284268 C13.2663206,16.3905211 10.7336556,16.3905211 9.17156133,14.8284268 C7.60946704,13.2663325 7.60946704,10.7336675 9.17156133,9.17157322 C10.7336556,7.60947893 13.2663206,7.60947893 14.8284149,9.17157322 L13.4142013,10.5857868 C12.6331556,9.80474107 11.3668206,9.80474107 10.5857749,10.5857868 C9.80472918,11.3668325 9.80472918,12.6331675 10.5857749,13.4142132 C11.3668206,14.1952589 12.6331556,14.1952589 13.4142013,13.4142132 C14.195247,12.6331675 14.195247,11.3668325 13.4142013,10.5857868 Z"/>
</svg>
