<svg xmlns="http://www.w3.org/2000/svg" width="24" height="24" viewBox="0 0 24 24">
  <path d="M1271.38634,75.9026709 C1272.40181,74.7797283 1274.13534,74.6926059 1275.25828,75.7080792 C1275.86893,76.2602876 1276.19906,77.0577093 1276.15744,77.8796554 L1276.15744,77.8796554 L1276.09446,79.1309253 C1276.0717,79.5352921 1276.38105,79.8815465 1276.78542,79.904308 C1276.81287,79.9058531 1276.84039,79.9058531 1276.87378,79.9039915 L1276.87378,79.9039915 L1278.11746,79.8414091 C1279.62869,79.762865 1280.91745,80.9242782 1280.99599,82.4355023 C1281.03888,83.2605908 1280.70716,84.0609773 1280.09442,84.6127417 L1280.09442,84.6127417 L1279.16873,85.4490667 C1278.86479,85.7233911 1278.84079,86.1921669 1279.11511,86.496102 C1279.13206,86.5148759 1279.14995,86.5327712 1279.16909,86.5500431 L1279.16909,86.5500431 L1280.09321,87.3849488 C1281.21773,88.397575 1281.30843,90.1300733 1280.29581,91.2545856 C1279.74294,91.8685421 1278.94256,92.2002524 1278.11912,92.1574538 L1278.11912,92.1574538 L1276.87212,92.094702 C1276.46398,92.0734813 1276.11592,92.3871407 1276.0947,92.7952796 C1276.09337,92.8208781 1276.09337,92.8465284 1276.09478,92.8737929 L1276.09478,92.8737929 L1276.15744,94.1188209 C1276.23399,95.6308781 1275.07028,96.9186976 1273.55823,96.9952494 C1272.73598,97.0368779 1271.93856,96.706749 1271.38317,96.0925735 L1271.38317,96.0925735 L1270.55084,95.1633178 C1270.27502,94.8587562 1269.80452,94.8354617 1269.49996,95.1112884 C1269.48177,95.1277621 1269.4644,95.1451265 1269.4516,95.1592411 L1269.4516,95.1592411 L1268.61243,96.0960976 C1267.59696,97.2190402 1265.86343,97.3061626 1264.74049,96.2906902 C1264.12984,95.7384811 1263.79971,94.9410594 1263.84133,94.1191132 L1263.84133,94.1191132 L1263.90399,92.8738096 C1263.92459,92.4641657 1263.60921,92.1153824 1263.19957,92.0947787 C1263.17472,92.0935288 1263.14981,92.0935288 1263.12499,92.0947773 L1263.12499,92.0947773 L1261.87996,92.1574284 C1260.36791,92.233981 1259.08009,91.0702827 1259.00352,89.5582194 C1258.96189,88.7359725 1259.29202,87.9385521 1259.90354,87.3855471 L1259.90354,87.3855471 L1260.82878,86.5508371 C1261.13335,86.2750104 1261.15664,85.8045108 1260.88081,85.4999486 C1260.86434,85.4817587 1260.84698,85.4643944 1260.83021,85.4492085 L1260.83021,85.4492085 L1259.90267,84.6124202 C1258.77973,83.5969479 1258.69261,81.8634239 1259.70808,80.7404846 C1260.26029,80.1298342 1261.05771,79.7997048 1261.87966,79.8413191 L1261.87966,79.8413191 L1263.12665,79.904071 C1263.53479,79.9252917 1263.88286,79.6116323 1263.90408,79.2034934 C1263.90541,79.177895 1263.90541,79.1522446 1263.90399,79.1249801 L1263.90399,79.1249801 L1263.84134,77.8799525 C1263.76479,76.3678951 1264.9285,75.0800756 1266.44055,75.0035238 C1267.2628,74.9618953 1268.06022,75.2920242 1268.61561,75.906201 L1268.61561,75.906201 L1269.44792,76.8354506 C1269.72375,77.1400123 1270.19425,77.1633068 1270.49881,76.8874802 C1270.517,76.8710061 1270.53437,76.8536421 1270.54717,76.8395274 L1270.54717,76.8395274 Z M1273.83019,77.1239753 C1273.52955,76.923452 1273.11969,76.967729 1272.87293,77.2405932 L1272.87293,77.2405932 L1272.03326,78.1780014 C1271.9725,78.2450926 1271.90845,78.3091362 1271.84136,78.3698969 C1270.71809,79.3871929 1268.98281,79.3012788 1267.96184,78.1739243 L1267.96184,78.1739243 L1267.12902,77.2441253 C1266.97968,77.0789852 1266.76404,76.989708 1266.54168,77.0009656 C1266.13278,77.0216672 1265.81808,77.3699268 1265.8388,77.779132 L1265.8388,77.779132 L1265.90138,79.0227992 C1265.90631,79.1175824 1265.90631,79.2125575 1265.90138,79.3073364 C1265.82281,80.8185566 1264.53403,81.9799471 1263.02447,81.9014583 L1263.02447,81.9014583 L1261.77883,81.8387762 C1261.55647,81.8275183 1261.34083,81.9167944 1261.19149,82.0819326 C1260.91688,82.3856044 1260.94044,82.8543929 1261.24324,83.1282157 L1261.24324,83.1282157 L1262.17134,83.9655043 C1262.23843,84.0262653 1262.30247,84.0903084 1262.36323,84.1573986 C1263.38053,85.2806757 1263.29461,87.0159553 1262.16991,88.0345415 L1262.16991,88.0345415 L1261.24412,88.8697475 C1261.07898,89.0190848 1260.9897,89.2347329 1261.00096,89.4570792 C1261.02167,89.8659888 1261.36993,90.1806887 1261.77914,90.1599713 L1261.77914,90.1599713 L1263.0245,90.0973032 C1263.11629,90.0926872 1263.20824,90.0926873 1263.30003,90.0973035 C1264.81285,90.173393 1265.97755,91.4614503 1265.90147,92.9742969 L1265.90147,92.9742969 L1265.83878,94.2199351 C1265.82753,94.4422974 1265.9168,94.6579422 1266.08194,94.8072761 C1266.38561,95.081886 1266.8544,95.0583259 1267.12584,94.7581753 L1267.12584,94.7581753 L1267.96551,93.8207659 C1268.02627,93.753675 1268.09032,93.6896318 1268.15741,93.6288717 C1269.28068,92.6115756 1271.01596,92.6974896 1272.03693,93.8248429 L1272.03693,93.8248429 L1272.86976,94.7546479 C1273.01909,94.919788 1273.23474,95.0090652 1273.4571,94.9978076 C1273.866,94.977106 1274.1807,94.6288464 1274.15998,94.2196412 L1274.15998,94.2196412 L1274.0974,92.975974 C1274.09247,92.8811907 1274.09247,92.7862155 1274.0974,92.6914366 C1274.17597,91.1802163 1275.46475,90.0188257 1276.9743,90.0973147 L1276.9743,90.0973147 L1278.22128,90.1600655 C1278.44411,90.1716467 1278.66027,90.0820606 1278.80959,89.9162456 C1279.08307,89.6125486 1279.05857,89.1446517 1278.75366,88.8700761 L1278.75366,88.8700761 L1277.82869,88.0344023 C1277.75926,87.9717401 1277.69309,87.9055666 1277.63043,87.8361419 C1276.61602,86.712238 1276.70478,84.9787893 1277.82833,83.9647071 L1277.82833,83.9647071 L1278.75488,83.1276096 C1278.92069,82.978301 1279.01027,82.7621425 1278.99869,82.5393115 C1278.97747,82.1311685 1278.62941,81.8175006 1278.21963,81.8387975 L1278.21963,81.8387975 L1276.98023,81.9011476 C1276.87791,81.9069066 1276.77535,81.9069066 1276.67302,81.9011473 C1275.16584,81.8163089 1274.01279,80.5257237 1274.0973,79.0244719 L1274.0973,79.0244719 L1274.15999,77.7788336 C1274.17124,77.5564713 1274.08197,77.3408265 1273.91683,77.1914933 L1273.91683,77.1914933 Z M1272.82843,83.1715744 C1274.39052,84.7336704 1274.39052,87.266336 1272.82843,88.8284271 C1271.26633,90.3905246 1268.73366,90.3905246 1267.17157,88.8284271 C1265.60948,87.2663296 1265.60948,84.733664 1267.17157,83.1715729 C1268.73367,81.6094754 1271.26634,81.6094754 1272.82843,83.1715744 Z M1268.58579,84.5857879 C1267.80474,85.3668317 1267.80474,86.6331651 1268.58579,87.414215 C1269.36683,88.1952619 1270.63317,88.1952619 1271.41421,87.4142121 C1272.15415,86.6742758 1272.1931,85.4987889 1271.53105,84.7130013 L1271.41421,84.5857865 L1271.287,84.4689525 C1270.50121,83.8069016 1269.32573,83.845846 1268.58579,84.5857879 Z" transform="translate(-1258 -74)"/>
</svg>
