<?xml version="1.0" encoding="UTF-8"?>
<svg width="24px" height="24px" viewBox="0 0 24 24" version="1.1" xmlns="http://www.w3.org/2000/svg" xmlns:xlink="http://www.w3.org/1999/xlink">
    <title>gear-g</title>
    <g id="Icons" stroke="none" stroke-width="1" fill="none" fill-rule="evenodd">
        <g id="Glyphs" transform="translate(-1258.000000, -74.000000)" fill="#000000" fill-rule="nonzero">
            <path d="M1272.00276,76.4470964 C1271.42345,74.5176345 1268.69241,74.5176345 1268.1269,76.4470964 L1267.98897,76.91568 C1267.67172,77.976884 1266.54069,78.5832863 1265.47862,78.2800852 C1265.34069,78.2387396 1265.20276,78.1836121 1265.07862,78.1147028 L1264.65103,77.880411 C1262.88138,76.9184364 1260.94621,78.8451419 1261.91034,80.6188686 L1262.13103,81.0461066 C1262.73793,82.17622 1262.15862,83.5819708 1260.91724,83.9402994 L1260.44828,84.0781181 C1258.51724,84.6431748 1258.51724,87.3719852 1260.44828,87.9508238 L1260.91724,88.0886425 L1260.9131,88.0886425 C1261.97517,88.3918436 1262.58207,89.521957 1262.27862,90.5831611 C1262.23724,90.7071979 1262.18207,90.8450166 1262.1131,90.9690534 L1261.87862,91.3962914 C1260.91586,93.1603709 1262.84414,95.0981019 1264.61931,94.1347491 L1265.0469,93.9004573 C1266.01241,93.3615862 1267.24,93.7199148 1267.77793,94.6984276 C1267.8331,94.8224644 1267.88828,94.9465013 1267.92966,95.08432 L1268.06759,95.5529036 C1268.6331,97.4823655 1271.36414,97.4823655 1271.94345,95.5529036 L1272.08138,95.08432 C1272.38483,94.0093341 1273.51586,93.4029318 1274.57793,93.7061329 C1274.70207,93.7336967 1274.84,93.7888242 1274.96414,93.8577335 L1275.39172,94.0920253 C1277.15724,95.0429744 1279.09655,93.1135125 1278.13241,91.3535676 L1277.89793,90.9125478 C1277.35862,89.934035 1277.71724,88.7074485 1278.69655,88.1699555 C1278.82069,88.1010462 1278.94483,88.0459187 1279.08276,88.0045731 L1279.55172,87.8667544 C1281.48276,87.2879158 1281.48276,84.5591054 1279.55172,83.9940487 L1279.08276,83.85623 C1278.00552,83.539247 1277.39862,82.4091336 1277.70207,81.3479296 C1277.72966,81.2101109 1277.78483,81.0722922 1277.85379,80.9482553 L1278.08828,80.5210174 C1279.04,78.7528034 1277.10897,76.8192069 1275.34759,77.7825597 L1274.90621,78.0030696 C1273.9269,78.5267807 1272.69931,78.168452 1272.16138,77.1899392 C1272.09241,77.0521205 1272.03724,76.9280837 1271.99586,76.790265 L1271.85793,76.3216814 L1272.00276,76.4470964 Z M1270.00641,89.7567022 C1267.92949,89.7567022 1266.25,88.0657727 1266.25,86.0033511 C1266.25,83.9281194 1267.92949,82.25 1270.00641,82.25 C1272.07051,82.25 1273.75,83.9281194 1273.75,85.990541 C1273.75,88.0529626 1272.05769,89.7310821 1269.99359,89.7310821 L1270.00641,89.7567022 Z" id="Shape"></path>
        </g>
    </g>
</svg>