<?xml version="1.0" encoding="UTF-8"?>
<svg width="24px" height="24px" viewBox="0 0 24 24" version="1.1" xmlns="http://www.w3.org/2000/svg" xmlns:xlink="http://www.w3.org/1999/xlink">
    <!-- Generator: Sketch 51.2 (57519) - http://www.bohemiancoding.com/sketch -->
    <title>Slice</title>
    <desc>Created with Sketch.</desc>
    <defs></defs>
    <g id="Symbols" stroke="none" stroke-width="1" fill="none" fill-rule="evenodd">
        <path d="M15.8024013,4.76203465 C15.8922869,5.05898363 16.1966763,5.23570077 16.4959251,5.16726045 L18.8591023,4.61860176 C20.2036669,4.31567809 21.5886992,4.92427027 22.2749455,6.11954544 C22.9611918,7.31482061 22.7884656,8.81777256 21.8506224,9.82441842 L20.2015718,11.6031498 C19.9873985,11.8334517 19.9873985,12.190048 20.2026224,12.4214813 L21.8529314,14.2015804 C22.7832303,15.2119123 22.9496354,16.7093442 22.2638441,17.8992672 C21.5780529,19.0891903 20.1989614,19.6959024 18.8501527,19.3955847 L16.4940855,18.8501541 C16.1925801,18.7805944 15.8888325,18.9569389 15.7990573,19.2555403 L15.0956391,21.5752147 C14.6975601,22.8975432 13.4798371,23.802661 12.0988884,23.802661 C10.7179396,23.802661 9.50021668,22.8975432 9.10303048,21.5781639 L8.39503815,19.2523482 C8.30554057,18.9554322 8.00108611,18.7788279 7.69976952,18.8483511 L5.34211818,19.3945157 C3.99691174,19.7025796 2.60820687,19.0964595 1.91939984,17.9006215 C1.23059282,16.7047835 1.40307287,15.1994153 2.34235442,14.1926813 L3.99140498,12.4139498 C4.20557825,12.183648 4.20557825,11.8270517 3.99035442,11.5956184 L2.34401818,9.81980863 C1.40451117,8.81137256 1.23178497,7.30842061 1.91803128,6.11314544 C2.60427758,4.91787027 3.98930989,4.30927809 5.34039749,4.61369431 L7.68774389,5.15910293 C7.99317725,5.227478 8.29985884,5.04958178 8.39097465,4.75431923 L9.09665662,2.43455708 C9.49290242,1.10691749 10.7149359,0.197832239 12.1004441,0.200003882 C13.4844201,0.202173124 14.7024333,1.11306909 15.0959082,2.43955512 L15.8024013,4.76203465 Z M13.1813747,3.01798045 C13.0374465,2.53029221 12.5973956,2.20078526 12.0973093,2.20000143 C11.597223,2.19921759 11.1561414,2.52734345 11.0116021,3.01158045 L10.3032329,5.34019676 C9.90333101,6.63620509 8.57437746,7.4070887 7.2429793,7.10900538 L4.8943023,6.56329793 C4.40549419,6.45317191 3.9019743,6.67442182 3.65249372,7.10895668 C3.40301313,7.54349155 3.46580667,8.08988039 3.80902237,8.45828126 L5.45597181,10.2347498 C6.38405597,11.2327243 6.38405597,12.7779753 5.45702237,13.7748184 L3.80686817,15.5547347 C3.46492029,15.9212415 3.40227216,16.4680206 3.65246035,16.9023724 C3.90264854,17.3367242 4.40705331,17.5568788 4.89320727,17.4455486 L7.24926271,16.8997508 C8.57783426,16.593206 9.91644109,17.3696892 10.3091463,18.6725358 L11.0172391,20.998685 C11.160922,21.4759671 11.6004478,21.802661 12.0988884,21.802661 C12.597329,21.802661 13.0368548,21.4759671 13.1811195,20.9967594 L13.8844316,18.6774375 C14.2769501,17.3718389 15.6152603,16.5948659 16.9444241,16.9015149 L19.2929953,17.4452465 C19.7803548,17.5537459 20.281715,17.3331795 20.5310301,16.9005903 C20.7803453,16.4680012 20.7198497,15.9236191 20.3839544,15.5588184 L18.737005,13.7823498 C17.8089208,12.7843753 17.8089208,11.2391243 18.7359544,10.2422813 L20.3856182,8.46289106 C20.7271701,8.09628039 20.7899637,7.54989155 20.5404831,7.11535668 C20.2910025,6.68082182 19.7874826,6.45957191 19.3050517,6.56823924 L16.945056,7.1161757 C15.6180704,7.41969121 14.2825515,6.64433877 13.8885747,5.34278045 L13.1813747,3.01798045 Z M12.0980884,15.4053498 C10.2203202,15.4053498 8.6980884,13.883118 8.6980884,12.0053498 C8.6980884,10.1275817 10.2203202,8.60534984 12.0980884,8.60534984 C13.9758565,8.60534984 15.4980884,10.1275817 15.4980884,12.0053498 C15.4980884,13.883118 13.9758565,15.4053498 12.0980884,15.4053498 Z M12.0980884,13.4053498 C12.871287,13.4053498 13.4980884,12.7785485 13.4980884,12.0053498 C13.4980884,11.2321512 12.871287,10.6053498 12.0980884,10.6053498 C11.3248897,10.6053498 10.6980884,11.2321512 10.6980884,12.0053498 C10.6980884,12.7785485 11.3248897,13.4053498 12.0980884,13.4053498 Z" id="Combined-Shape" fill="#000000" fill-rule="nonzero"></path>
    </g>
</svg>