<svg xmlns="http://www.w3.org/2000/svg" width="24" height="24" viewBox="0 0 24 24">
  <path d="M1267.08021,77.0725112 C1267.18694,75.8987657 1268.17109,75 1269.3497,75 L1270.6503,75 C1271.82891,75 1272.81306,75.8987657 1272.91979,77.0725095 C1272.93124,77.1984091 1273.042,77.3322423 1273.22178,77.3996178 C1273.36831,77.4545391 1273.51334,77.513181 1273.6568,77.5755072 C1273.84406,77.6568918 1274.02875,77.637936 1274.13433,77.5499442 C1275.05246,76.7848697 1276.40253,76.846115 1277.24748,77.6911601 L1278.16553,78.6091464 C1278.98824,79.4319113 1279.04781,80.7462727 1278.30296,81.6400587 C1278.22876,81.7291067 1278.21492,81.8906443 1278.29242,82.0531767 C1278.40542,82.2902802 1278.5082,82.5321732 1278.60038,82.7781839 C1278.66777,82.9579761 1278.80163,83.0687613 1278.92746,83.0802093 C1280.10122,83.1869472 1281,84.1711005 1281,85.3497 L1281,86.6503 C1281,87.8288995 1280.10122,88.8130528 1278.9275,88.9197872 C1278.80161,88.9312404 1278.66776,89.0420121 1278.60037,89.2218195 C1278.51756,89.4427153 1278.42625,89.6602768 1278.32663,89.8741582 C1278.26286,90.0110103 1278.27512,90.1437195 1278.33399,90.2143838 C1279.06133,91.0871103 1279.00313,92.3704791 1278.19981,93.1738068 L1277.17381,94.1998068 C1276.37048,95.0031345 1275.08711,95.0613281 1274.21447,94.3340696 C1274.14372,94.2751169 1274.01101,94.2628616 1273.87401,94.3267001 C1273.66028,94.426245 1273.44272,94.5175602 1273.22178,94.6003821 C1273.04201,94.667765 1272.93124,94.8016097 1272.91979,94.927463 C1272.81305,96.1012237 1271.8289,97 1270.6503,97 L1269.3497,97 C1268.1711,97 1267.18695,96.1012237 1267.08021,94.9275022 C1267.06876,94.8016276 1266.95797,94.6677714 1266.77828,94.6004166 C1266.53217,94.5081948 1266.29027,94.4054117 1266.05306,94.2923544 C1265.89066,94.2149223 1265.72911,94.2287604 1265.64012,94.3029086 C1264.74627,95.047811 1263.4319,94.9882408 1262.60909,94.1654798 L1261.69123,93.247551 C1260.84611,92.4025359 1260.78487,91.0524687 1261.55,90.134269 C1261.63794,90.0287508 1261.65689,89.844063 1261.57544,89.6566552 C1261.51301,89.5129454 1261.45438,89.3679551 1261.39959,89.2217176 C1261.33225,89.0420035 1261.19841,88.9312412 1261.07255,88.9197911 C1259.89877,88.8130558 1259,87.8289082 1259,86.6503 L1259,85.3497 C1259,84.1710918 1259.89877,83.1869442 1261.07251,83.0802125 C1261.19841,83.0687594 1261.33225,82.9579896 1261.39961,82.7782402 C1261.46414,82.6060409 1261.53383,82.4359212 1261.60858,82.2680819 C1261.70329,82.0554026 1261.68286,81.8424049 1261.57999,81.718953 C1260.7979,80.7804395 1260.8605,79.4004087 1261.72434,78.5365432 L1262.53653,77.7243532 C1263.40039,76.8604929 1264.78044,76.7978932 1265.71894,77.5799959 C1265.84239,77.6828684 1266.05539,77.7032903 1266.26808,77.6085742 C1266.43591,77.5338348 1266.60603,77.4641424 1266.77823,77.3996074 C1266.95799,77.3322429 1267.06876,77.1984009 1267.08021,77.0725112 Z M1269.07199,77.2536689 C1268.98798,78.1771339 1268.35188,78.9457001 1267.48009,79.2724118 C1267.34563,79.3228041 1267.21277,79.3772302 1267.08169,79.4356036 C1266.20042,79.8280537 1265.17448,79.7296875 1264.43857,79.1164355 C1264.29471,78.996549 1264.08317,79.0061446 1263.95075,79.1385668 L1263.13856,79.9507497 C1263.00614,80.0831738 1262.99655,80.2947232 1263.11643,80.438589 C1263.72968,81.1744875 1263.82805,82.200428 1263.43561,83.0816933 C1263.37723,83.2127811 1263.3228,83.3456357 1263.27241,83.4800977 C1262.9457,84.3518842 1262.17713,84.9879808 1261.25367,85.0719911 C1261.11,85.0850554 1261,85.2055038 1261,85.3497 L1261,86.6503 C1261,86.7944962 1261.11,86.9149446 1261.25371,86.9280127 C1262.17713,87.0120202 1262.94571,87.6481049 1263.27245,88.5199904 C1263.31521,88.6341497 1263.361,88.7473689 1263.40975,88.8595952 C1263.78092,89.7135954 1263.67936,90.7032223 1263.08642,91.414667 C1262.98353,91.5381396 1262.99176,91.7196718 1263.10542,91.8333202 L1264.0233,92.75127 C1264.11461,92.8425685 1264.2605,92.8491805 1264.35979,92.766433 C1265.07392,92.1714155 1266.0724,92.0858852 1266.91368,92.4869902 C1267.09894,92.57529 1267.28789,92.6555737 1267.48015,92.7276179 C1268.3519,93.0543737 1268.98798,93.8229096 1269.07199,94.746337 C1269.08505,94.8899905 1269.20551,95 1269.3497,95 L1270.6503,95 C1270.79449,95 1270.91495,94.8899905 1270.92801,94.7462978 C1271.01202,93.8229108 1271.64807,93.0543724 1272.51978,92.7276318 C1272.69239,92.6629248 1272.86246,92.5915421 1273.02944,92.513771 C1273.84375,92.1343385 1274.80535,92.2231399 1275.49482,92.7976052 C1275.57289,92.8626722 1275.68772,92.8574652 1275.75959,92.7855932 L1276.78559,91.7595932 C1276.85747,91.6877212 1276.86267,91.57289 1276.79753,91.4947264 C1276.22314,90.805352 1276.13434,89.8437473 1276.5137,89.0295945 C1276.59154,88.8624626 1276.66292,88.6923909 1276.72762,88.5198178 C1277.05437,87.6480722 1277.82291,87.0120192 1278.74634,86.9280093 C1278.88999,86.9149459 1279,86.7944863 1279,86.6503 L1279,85.3497 C1279,85.2055137 1278.88999,85.0850541 1278.7463,85.0719872 C1277.82291,84.9879803 1277.05437,84.3518958 1276.72758,83.4800501 C1276.65558,83.2878852 1276.57529,83.0989329 1276.48705,82.9137833 C1276.08588,82.0723904 1276.17141,81.0738988 1276.76649,80.3597204 C1276.84918,80.2604977 1276.84257,80.1146183 1276.75132,80.0233599 L1275.83326,79.1053599 C1275.71967,78.9917654 1275.53814,78.9835299 1275.41472,79.0863714 C1274.70321,79.6793517 1273.71359,79.7809195 1272.85974,79.4098178 C1272.74774,79.3611578 1272.63436,79.3153167 1272.51987,79.2724003 C1271.6481,78.9456877 1271.01202,78.1771218 1270.92801,77.2536689 C1270.91494,77.1099986 1270.7945,77 1270.6503,77 L1269.3497,77 C1269.2055,77 1269.08506,77.1099986 1269.07199,77.2536689 Z M1274,86 C1274,88.2091847 1272.20918,90 1270,90 C1267.79082,90 1266,88.2091847 1266,86 C1266,83.7908153 1267.79082,82 1270,82 C1272.20918,82 1274,83.7908153 1274,86 Z M1272,86 C1272,84.8953847 1271.10462,84 1270,84 C1268.89538,84 1268,84.8953847 1268,86 C1268,87.1046153 1268.89538,88 1270,88 C1271.10462,88 1272,87.1046153 1272,86 Z" transform="translate(-1258 -74)"/>
</svg>
