<?xml version="1.0" encoding="UTF-8"?>
<svg width="24px" height="24px" viewBox="0 0 24 24" version="1.1" xmlns="http://www.w3.org/2000/svg" xmlns:xlink="http://www.w3.org/1999/xlink">
    <!-- Generator: Sketch 54.1 (76490) - https://sketchapp.com -->
    <title>bell copy 3</title>
    <desc>Created with Sketch.</desc>
    <g id="Icons" stroke="none" stroke-width="1" fill="none" fill-rule="evenodd">
        <path d="M7.00451115,19 L7.00451115,17.5945491 C6.02608568,17.4308455 5.07474032,17.0218037 4.24589651,16.3569477 C1.6610203,14.2834947 1.24642917,10.5071719 3.31988321,7.9222969 C3.68359446,7.46887559 4.1112643,7.07071104 4.58948683,6.74028329 C5.04385961,6.42633453 5.66670728,6.54017068 5.98065604,6.99454345 C6.29460481,7.44891623 6.18076866,8.0717639 5.72639588,8.38571266 C5.40757675,8.60600067 5.12246046,8.87144655 4.87998435,9.17372985 C3.49767808,10.8969843 3.77407295,13.41454 5.49732915,14.7968464 C7.22058361,16.1791526 9.73813933,15.9027578 11.1204457,14.1795016 C12.4519428,12.5195884 12.2487114,10.1095036 10.6699102,8.69768012 C10.2582227,8.32953364 10.2229257,7.69735327 10.5910722,7.28566576 C10.9592187,6.87397824 11.5913991,6.83868126 12.0030866,7.20682774 C14.3732197,9.32629006 14.6780138,12.9407889 12.680547,15.4309342 C11.7232415,16.6243619 10.4029464,17.3551641 9.00451115,17.5920681 L9.00451115,19 L10.5,19 C11.0522847,19 11.5,19.4477153 11.5,20 C11.5,20.5522847 11.0522847,21 10.5,21 L9.00451115,21 L9.00451115,23 C9.00451115,23.5522847 8.5567959,24 8.00451115,24 C7.4522264,24 7.00451115,23.5522847 7.00451115,23 L7.00451115,21 L5.5,21 C4.94771525,21 4.5,20.5522847 4.5,20 C4.5,19.4477153 4.94771525,19 5.5,19 L7.00451115,19 Z M19.5045112,3.41421356 L17.9826807,4.93604398 C19.8114106,7.43550722 19.4384662,10.9429647 17.0801695,12.9985601 C16.6638412,13.3614502 16.0321599,13.31813 15.6692698,12.9018017 C15.3063798,12.4854735 15.3497,11.8537922 15.7660283,11.4909021 C17.3862218,10.0786699 17.6008077,7.63854092 16.2519605,5.96521624 C14.8655362,4.24527826 12.3473362,3.9749111 10.6273991,5.36133408 C8.90746112,6.74775839 8.63709393,9.26595839 10.023517,10.9858956 C10.3701207,11.4158773 10.3025294,12.0454242 9.87254764,12.392028 C9.44256588,12.7386317 8.81301897,12.6710404 8.46641526,12.2410586 C6.38678468,9.66115778 6.79233477,5.88386425 9.37223583,3.80423254 C11.4921269,2.09541092 14.4204763,2.06453927 16.5511261,3.53917153 L18.0902976,2 L16.7545112,2 C16.2022264,2 15.7545112,1.55228475 15.7545112,1 C15.7545112,0.44771525 16.2022264,0 16.7545112,0 L20.5045112,0 C21.0567959,0 21.5045112,0.44771525 21.5045112,1 L21.5045112,4.75 C21.5045112,5.30228475 21.0567959,5.75 20.5045112,5.75 C19.9522264,5.75 19.5045112,5.30228475 19.5045112,4.75 L19.5045112,3.41421356 Z" id="Shape" fill="#000000" fill-rule="nonzero"></path>
    </g>
</svg>