<svg xmlns="http://www.w3.org/2000/svg" width="24" height="25" viewBox="0 0 24 25">
  <path d="M13,21.75 L18.6111111,21.75 C19.1369811,21.75 19.4999999,21.4452472 19.4999999,21.1642857 L19.5,14.5 L13,14.5 L13,21.75 Z M11,21.75 L11,14.5 L4.5,14.5 L4.5,21.1642853 C4.50000005,21.4452472 4.86301885,21.75 5.38888889,21.75 L11,21.75 Z M13,12.25 L21,12.25 L21,10 L13,10 L13,12.25 L13,12.25 Z M11,12.25 L11,10 L3,10 L3,12.25 L11,12.25 L11,12.25 Z M15.9048925,8 L21.0909091,8 C22.0983404,8 23,8.70254311 23,9.70833333 L23,12.5416667 C23,13.408606 22.3301074,14.0502463 21.5,14.2108829 L21.4999999,21.1642858 C21.4999999,22.6348556 20.1716497,23.7500001 18.6111111,23.75 L5.38888889,23.75 C3.8283502,23.75 2.50000026,22.6348557 2.5,21.1642855 L2.5,14.2108829 C1.66989262,14.0502463 1,13.408606 1,12.5416667 L1,9.70833333 C1,8.70254311 1.9016596,8 2.90909091,8 L8.07054371,8 C7.24212059,7.55025818 6.4507735,7.03076566 5.70541603,6.44598334 L5.61530804,6.36606913 C3.68828193,4.43760835 3.52177331,2.77226263 4.90303224,1.39934679 C6.28485442,0.0258711126 7.94454089,0.186007048 9.86870879,2.11160748 L9.94826497,2.20140375 C10.8031995,3.29170943 11.5183694,4.4806574 12.0797849,5.74024333 C12.5403054,4.77384521 13.1068954,3.85860118 13.7708216,3.01197752 L13.8508781,2.92168944 C15.552786,1.22107182 17.064063,1.07540701 18.3087578,2.31166531 C19.5543283,3.54879124 19.4021108,5.06561009 17.6972718,6.76915634 L17.6075203,6.84867631 C17.0664818,7.27296213 16.4974196,7.65749649 15.9048925,8 L15.9048925,8 Z M16.8993621,3.73068031 C16.508115,3.34208511 16.2480784,3.36081351 15.3075849,4.29359995 C14.6942069,5.08350797 14.1785198,5.94177504 13.7699486,6.84955131 C14.6778405,6.4409279 15.5362121,5.92515909 16.3262057,5.31167411 C17.2622595,4.3694538 17.2820216,4.11074556 16.8993621,3.73068031 Z M6.31295532,2.81783786 C5.79407132,3.33358769 5.82792278,3.74042533 6.9874249,4.90956796 C8.03436138,5.72413136 9.18312705,6.39317658 10.4022144,6.90094124 C9.89494601,5.68042694 9.22604501,4.53048087 8.41135644,3.48280942 C7.24629405,2.3256628 6.84058609,2.29339409 6.31295532,2.81783786 Z"/>
</svg>
