<?xml version="1.0" encoding="UTF-8"?>
<svg width="24px" height="24px" viewBox="0 0 24 24" version="1.1" xmlns="http://www.w3.org/2000/svg" xmlns:xlink="http://www.w3.org/1999/xlink">
    <title>gift-g</title>
    <g id="Icons" stroke="none" stroke-width="1" fill="none" fill-rule="evenodd">
        <g id="Glyphs" transform="translate(-1983, -59)" fill="#000000" fill-rule="nonzero">
            <path d="M1986.76495,81.9443355 C1985.93692,81.233098 1985.46875,78.1499669 1985.46875,74.6722118 C1985.46875,73.1894155 1985.588,71.8525222 1985.78765,70.6814256 L1985.86,70.2816734 L1985.82055,70.2666211 C1984.91953,69.874679 1984.3102,68.7096588 1984.25422,67.4870391 L1984.25,67.3033035 C1984.25,65.8927239 1984.99909,64.5110086 1986.09932,64.2463187 L1986.2526,64.2177788 C1986.53088,64.1756597 1987.02286,64.13676 1987.6755,64.1025774 L1988.071,64.0829511 L1988.02311,64.0294888 C1987.29139,63.1565078 1987.13584,62.0419927 1987.77537,60.808647 L1987.87729,60.6227692 C1989.06418,58.569384 1991.08143,58.5670033 1992.9613,60.0409622 C1993.66011,60.5888794 1994.32922,61.3311433 1994.87413,62.1246701 L1994.956,62.2476255 L1995.03836,62.1246661 C1995.52273,61.4193088 1996.10523,60.7544563 1996.71949,60.2306005 L1996.9512,60.0409601 C1998.83108,58.5670069 2000.84834,58.5693876 2002.03529,60.6227665 C2002.79086,61.9299403 2002.65777,63.1128628 2001.88945,64.0294924 L2001.845,64.0789526 L2002.5518,64.1150431 C2003.09706,64.1464105 2003.51035,64.1813628 2003.75444,64.218848 L2003.90061,64.2463052 C2005.00094,64.5109883 2005.75,65.8926849 2005.75,67.3033035 C2005.75,68.5912597 2005.12554,69.855105 2004.1795,70.2666126 L2004.139,70.2816734 L2004.21235,70.6814256 C2004.412,71.8525222 2004.53125,73.1894155 2004.53125,74.6722118 L2004.52543,75.3398675 C2004.46934,78.5379204 2004.00965,81.2789928 2003.23502,81.9443438 C2002.53119,82.5488742 1999.55585,82.9286087 1996.03571,82.9909141 L1995,83 L1994.30658,82.9959493 C1990.63845,82.9528737 1987.49147,82.5683747 1986.76495,81.9443355 Z M1988.46709,70.5248027 L1987.854,70.5035918 L1987.79456,70.8165707 L1987.75923,71.0172904 C1987.57801,72.0802526 1987.46875,73.3051587 1987.46875,74.6722118 C1987.46875,76.1792161 1987.57404,77.6650339 1987.75365,78.8478629 C1987.83592,79.389625 1987.93057,79.8434657 1988.02752,80.1710065 C1988.04866,80.2424593 1988.06933,80.3058185 1988.08892,80.3602002 L1988.129,80.4621137 C1988.62198,80.640811 1991.22657,80.9299343 1994.00015,80.9897111 L1993.99995,70.6070342 L1991.82104,70.59058 C1990.56043,70.5759392 1989.40483,70.5531791 1988.46709,70.5248027 L1988.46709,70.5248027 Z M2002.17062,70.6309378 L2002.145,70.5035918 L2000.87677,70.5428591 C1999.50487,70.5771999 1997.79029,70.6005684 1996.00044,70.6070329 L1996.0007,80.9896927 L1996.57142,80.9741569 C1999.02856,80.8936264 2001.2416,80.6476687 2001.80517,80.4814187 L2001.872,80.4579341 L2001.91106,80.3601923 L2001.97247,80.1709998 C2002.06942,79.84346 2002.16408,79.3896203 2002.24634,78.8478591 C2002.42596,77.6650314 2002.53125,76.1792148 2002.53125,74.6722118 C2002.53125,73.3051587 2002.42199,72.0802526 2002.24077,71.0172904 L2002.17062,70.6309378 Z M1996.00018,65.9596772 L1996.00085,68.6077491 L1998.64341,68.585301 C2000.43495,68.560967 2001.96419,68.5201342 2002.86763,68.4710715 L2003.29117,68.434991 L2003.43269,68.4165238 C2003.46996,68.4075598 2003.75,67.8910032 2003.75,67.3033035 C2003.75,66.7156038 2003.46996,66.1990473 2003.43262,66.1900649 L2003.32948,66.1723649 C2002.62201,66.0774773 1999.44221,65.976663 1996.00018,65.9596772 Z M1986.56732,66.1900773 C1986.53007,66.199039 1986.25,66.7156323 1986.25,67.3033035 C1986.25,67.8909748 1986.53007,68.407568 1986.56735,68.4165364 L1986.83308,68.4470533 L1987.135,68.4703389 L1987.31768,68.4805959 C1988.6963,68.5477911 1991.25723,68.5977621 1993.99998,68.6077521 L1994.00083,65.9596723 L1991.80253,65.9819074 C1989.08401,66.0235558 1986.8963,66.1109203 1986.56732,66.1900773 Z M1998.18552,61.6140547 C1997.45338,62.1881106 1996.73819,63.0799721 1996.26875,63.9314441 L1996.256,63.9549981 L1996.37349,63.9585492 C1997.23085,63.9656068 1998.19865,63.8265014 1998.99437,63.5537539 L1999.25285,63.4579056 C2000.47123,62.9694389 2000.77611,62.4404909 2000.30359,61.6230092 C1999.83068,60.8048854 1999.21846,60.8041629 1998.18552,61.6140547 Z M1989.609,61.6229919 C1989.13646,62.440498 1989.44133,62.9694438 1990.65969,63.4579074 C1991.49745,63.7937853 1992.58639,63.9663911 1993.53901,63.9585491 L1993.656,63.9549981 L1993.64374,63.9314461 C1993.21699,63.1573808 1992.58712,62.3499339 1991.92606,61.7782242 L1991.72697,61.6140526 C1990.69405,60.8041666 1990.08187,60.804889 1989.609,61.6229919 Z" id="Shape"></path>
        </g>
    </g>
</svg>