<?xml version="1.0" encoding="UTF-8"?>
<svg width="25px" height="25px" viewBox="0 0 25 25" version="1.1" xmlns="http://www.w3.org/2000/svg" xmlns:xlink="http://www.w3.org/1999/xlink">
    <!-- Generator: Sketch 54.1 (76490) - https://sketchapp.com -->
    <title>bell copy 87</title>
    <desc>Created with Sketch.</desc>
    <g id="Icons" stroke="none" stroke-width="1" fill="none" fill-rule="evenodd">
        <path d="M17.6158031,15.4293478 L22.2610599,15.4293478 C22.6563892,13.8394487 22.6563892,12.1714209 22.2610599,10.5815217 L17.6158031,10.5815217 C17.677739,11.3716008 17.7096819,12.1822068 17.7096819,13.0054348 C17.7096819,13.8286628 17.677739,14.6392688 17.6158031,15.4293478 L17.6158031,15.4293478 Z M15.6088995,15.4293478 C15.6750536,14.6436867 15.7096819,13.8323291 15.7096819,13.0054348 C15.7096819,12.1785405 15.6750536,11.3671829 15.6088995,10.5815217 L9.49524691,10.5815217 C9.4290928,11.3671829 9.3944645,12.1785405 9.3944645,13.0054348 C9.3944645,13.8323291 9.4290928,14.6436867 9.49524691,15.4293478 L15.6088995,15.4293478 L15.6088995,15.4293478 Z M16.0577733,3.63164256 C16.6561252,5.03212341 17.1097793,6.72243551 17.388876,8.58152174 L21.5294357,8.58152174 C21.0576626,7.62439603 20.4235279,6.72702154 19.6270316,5.93052526 C18.5803688,4.88386239 17.3595078,4.11756816 16.0577733,3.63164256 L16.0577733,3.63164256 Z M13.5055105,3.04524963 C12.8714362,2.98491348 12.2327033,2.98491679 11.5986296,3.04525955 C10.7617785,4.34936054 10.1108482,6.2973443 9.7397969,8.58152174 L15.3643495,8.58152174 C14.9932972,6.29733851 14.3423646,4.34935066 13.5055105,3.04524963 Z M16.0577733,22.379227 C17.3595078,21.8933014 18.5803688,21.1270072 19.6270316,20.0803443 C20.4235279,19.283848 21.0576626,18.3864735 21.5294357,17.4293478 L17.388876,17.4293478 C17.1097793,19.2884341 16.6561252,20.9787462 16.0577733,22.379227 L16.0577733,22.379227 Z M13.5055105,22.9656199 C14.3423646,21.6615189 14.9932972,19.7135311 15.3643495,17.4293478 L9.7397969,17.4293478 C10.1108482,19.7135253 10.7617785,21.661509 11.5986296,22.96561 C12.2327033,23.0259528 12.8714362,23.0259561 13.5055105,22.9656199 L13.5055105,22.9656199 Z M2.84611772,10.5697549 C2.4468772,12.1671112 2.4468772,13.8437584 2.84611772,15.4411147 C2.89627838,15.4333674 2.94766978,15.4293478 3,15.4293478 L7.48834326,15.4293478 C7.42640735,14.6392688 7.3944645,13.8286628 7.3944645,13.0054348 C7.3944645,12.1822068 7.42640735,11.3716008 7.48834326,10.5815217 L3,10.5815217 C2.94766978,10.5815217 2.89627838,10.5775022 2.84611772,10.5697549 L2.84611772,10.5697549 Z M3.57480851,8.58152174 L7.71527038,8.58152174 C7.99436422,6.72245474 8.44801182,5.03215837 9.04635458,3.63168601 C7.74466368,4.11761383 6.52384426,4.88389358 5.47721259,5.93052526 C4.6807163,6.72702154 4.04658161,7.62439603 3.57480851,8.58152174 Z M3.57480851,17.4293478 C4.04658161,18.3864735 4.6807163,19.283848 5.47721259,20.0803443 C6.52384426,21.126976 7.74466368,21.8932557 9.04635458,22.3791836 C8.44801182,20.9787112 7.99436422,19.2884148 7.71527038,17.4293478 L3.57480851,17.4293478 Z M4.06299903,4.5163117 C8.75141462,-0.172103899 16.3528296,-0.172103899 21.0412452,4.5163117 C25.7296608,9.20472729 25.7296608,16.8061423 21.0412452,21.4945579 C16.3528296,26.1829735 8.75141462,26.1829735 4.06299903,21.4945579 C-0.625416569,16.8061423 -0.625416569,9.20472729 4.06299903,4.5163117 Z" id="Shape" fill="#000000" fill-rule="nonzero"></path>
    </g>
</svg>