<?xml version="1.0" encoding="UTF-8"?>
<svg width="25px" height="25px" viewBox="0 0 25 25" version="1.1" xmlns="http://www.w3.org/2000/svg" xmlns:xlink="http://www.w3.org/1999/xlink">
    <!-- Generator: Sketch 54.1 (76490) - https://sketchapp.com -->
    <title>bell copy 86</title>
    <desc>Created with Sketch.</desc>
    <g id="Icons" stroke="none" stroke-width="1" fill="none" fill-rule="evenodd">
        <path d="M12.754535,3.1 C7.23453497,3.1 2.76453497,7.58 2.76453497,13.1 C2.76453497,18.62 7.23453497,23.1 12.754535,23.1 C18.284535,23.1 22.764535,18.62 22.764535,13.1 C22.764535,7.58 18.284535,3.1 12.754535,3.1 Z M19.684535,9.1 L16.734535,9.1 C16.414535,7.85 15.954535,6.65 15.354535,5.54 C17.194535,6.17 18.724535,7.45 19.684535,9.1 Z M12.764535,5.14 C13.594535,6.34 14.244535,7.67 14.674535,9.1 L10.854535,9.1 C11.284535,7.67 11.934535,6.34 12.764535,5.14 Z M5.02453497,15.1 C4.86453497,14.46 4.76453497,13.79 4.76453497,13.1 C4.76453497,12.41 4.86453497,11.74 5.02453497,11.1 L8.40453497,11.1 C8.32453497,11.76 8.26453497,12.42 8.26453497,13.1 C8.26453497,13.78 8.32453497,14.44 8.40453497,15.1 L5.02453497,15.1 Z M5.84453497,17.1 L8.79453497,17.1 C9.11453497,18.35 9.57453497,19.55 10.174535,20.66 C8.33453497,20.03 6.80453497,18.76 5.84453497,17.1 L5.84453497,17.1 Z M8.79453497,9.1 L5.84453497,9.1 C6.80453497,7.44 8.33453497,6.17 10.174535,5.54 C9.57453497,6.65 9.11453497,7.85 8.79453497,9.1 Z M12.764535,21.06 C11.934535,19.86 11.284535,18.53 10.854535,17.1 L14.674535,17.1 C14.244535,18.53 13.594535,19.86 12.764535,21.06 Z M15.104535,15.1 L10.424535,15.1 C10.334535,14.44 10.264535,13.78 10.264535,13.1 C10.264535,12.42 10.334535,11.75 10.424535,11.1 L15.104535,11.1 C15.194535,11.75 15.264535,12.42 15.264535,13.1 C15.264535,13.78 15.194535,14.44 15.104535,15.1 Z M15.354535,20.66 C15.954535,19.55 16.414535,18.35 16.734535,17.1 L19.684535,17.1 C18.724535,18.75 17.194535,20.03 15.354535,20.66 Z M17.124535,15.1 C17.204535,14.44 17.264535,13.78 17.264535,13.1 C17.264535,12.42 17.204535,11.76 17.124535,11.1 L20.504535,11.1 C20.664535,11.74 20.764535,12.41 20.764535,13.1 C20.764535,13.79 20.664535,14.46 20.504535,15.1 L17.124535,15.1 Z" id="Shape" fill="#1D1D1D"></path>
    </g>
</svg>