<?xml version="1.0" encoding="UTF-8"?>
<svg width="25px" height="25px" viewBox="0 0 25 25" version="1.1" xmlns="http://www.w3.org/2000/svg" xmlns:xlink="http://www.w3.org/1999/xlink">
    <!-- Generator: Sketch 54.1 (76490) - https://sketchapp.com -->
    <title>bell copy 86</title>
    <desc>Created with Sketch.</desc>
    <g id="Icons" stroke="none" stroke-width="1" fill="none" fill-rule="evenodd">
        <path d="M15.609351,24.6561819 C13.7330012,25.1145679 11.7675821,25.114606 9.89121751,24.6562964 C9.86949469,24.6519321 9.84796206,24.6466107 9.82668836,24.6403453 C7.78867728,24.1305714 5.85837285,23.078883 4.26476991,21.4852801 C3.62691908,20.8474293 3.07588605,20.1556369 2.61167083,19.424587 C2.60052778,19.4083903 2.59000463,19.391734 2.58013563,19.3746523 C1.36173791,17.4347425 0.751710501,15.2220777 0.750053385,13.009042 C0.750017828,13.0060322 0.75,13.0030182 0.75,13 C0.75,12.9969818 0.750017828,12.9939678 0.750053385,12.990958 C0.751710501,10.7779223 1.36173791,8.56525754 2.58013563,6.62534772 C2.59000463,6.60826603 2.60052778,6.5916097 2.61167083,6.57541298 C3.07588605,5.84436308 3.62691908,5.15257075 4.26476991,4.51471991 C5.85837285,2.92111698 7.78867728,1.86942856 9.82668836,1.35965465 C9.84796206,1.35338927 9.86949469,1.34806792 9.89121751,1.3437036 C11.7675821,0.885393986 13.7330012,0.885432136 15.609351,1.34381805 C15.6306875,1.34812182 15.6518399,1.35334905 15.672743,1.35948743 C17.7110005,1.86919854 19.6415529,2.9209427 21.2353301,4.51471991 C21.8737536,5.15314342 22.4252033,5.84560533 22.8896793,6.57738211 C22.8998747,6.59230269 22.9095453,6.60761035 22.9186645,6.62327851 C25.3605118,10.5093731 25.3605118,15.4906269 22.9186645,19.3767215 C22.9095453,19.3923896 22.8998747,19.4076973 22.8896793,19.4226179 C22.4252033,20.1543947 21.8737536,20.8468566 21.2353301,21.4852801 C19.6415529,23.0790573 17.7110005,24.1308015 15.672743,24.6405126 C15.6518399,24.6466509 15.6306875,24.6518782 15.609351,24.6561819 L15.609351,24.6561819 Z M18.7412425,12.25 L23.223395,12.25 C23.1122095,10.6879164 22.6531856,9.14595302 21.846323,7.75 L18.2982052,7.75 C18.5519269,9.15620255 18.7043832,10.6749815 18.7412425,12.25 L18.7412425,12.25 Z M17.2407729,12.25 C17.2015759,10.6600404 17.0385724,9.13692773 16.772388,7.75 L8.72761197,7.75 C8.46142757,9.13692773 8.29842408,10.6600404 8.25922707,12.25 L17.2407729,12.25 L17.2407729,12.25 Z M17.0339918,3.41056102 C17.4039896,4.25554994 17.7212206,5.2112646 17.978637,6.25 L20.7937178,6.25 C20.5989511,6.01844022 20.3926018,5.79331193 20.1746699,5.57538009 C19.2400272,4.64073739 18.1730212,3.91913103 17.0339918,3.41056102 L17.0339918,3.41056102 Z M14.9985991,2.74226429 C13.5183043,2.41923681 11.9816769,2.41924524 10.501385,2.74228956 C9.92816822,3.65761195 9.44198264,4.85699342 9.06972917,6.25 L16.4302708,6.25 C16.0580139,4.85698059 15.5718228,3.65758987 14.9985991,2.74226429 L14.9985991,2.74226429 Z M18.7412425,13.75 C18.7043832,15.3250185 18.5519269,16.8437974 18.2982052,18.25 L21.846323,18.25 C22.6531856,16.854047 23.1122095,15.3120836 23.223395,13.75 L18.7412425,13.75 L18.7412425,13.75 Z M17.2407729,13.75 L8.25922707,13.75 C8.29842408,15.3399596 8.46142757,16.8630723 8.72761197,18.25 L16.772388,18.25 C17.0385724,16.8630723 17.2015759,15.3399596 17.2407729,13.75 L17.2407729,13.75 Z M17.0339918,22.589439 C18.1730212,22.080869 19.2400272,21.3592626 20.1746699,20.4246199 C20.3926018,20.2066881 20.5989511,19.9815598 20.7937178,19.75 L17.978637,19.75 C17.7212206,20.7887354 17.4039896,21.7444501 17.0339918,22.589439 L17.0339918,22.589439 Z M14.9985991,23.2577357 C15.5718228,22.3424101 16.0580139,21.1430194 16.4302708,19.75 L9.06972917,19.75 C9.44198264,21.1430066 9.92816822,22.342388 10.501385,23.2577104 C11.9816769,23.5807548 13.5183043,23.5807632 14.9985991,23.2577357 L14.9985991,23.2577357 Z M3.653777,7.75 C2.84691445,9.14595302 2.38789046,10.6879164 2.27670503,12.25 L6.75875751,12.25 C6.79561684,10.6749815 6.94807311,9.15620255 7.20179484,7.75 L3.653777,7.75 L3.653777,7.75 Z M4.70638218,6.25 L7.52136302,6.25 C7.77877373,5.21128735 8.09599648,4.25559179 8.46598388,3.41061652 C7.32700122,3.91918353 6.26003879,4.64077138 5.32543009,5.57538009 C5.10749824,5.79331193 4.90114894,6.01844022 4.70638218,6.25 L4.70638218,6.25 Z M3.653777,18.25 L7.20179484,18.25 C6.94807311,16.8437974 6.79561684,15.3250185 6.75875751,13.75 L2.27670503,13.75 C2.38789046,15.3120836 2.84691445,16.854047 3.653777,18.25 Z M4.70638218,19.75 C4.90114894,19.9815598 5.10749824,20.2066881 5.32543009,20.4246199 C6.26003879,21.3592286 7.32700122,22.0808165 8.46598388,22.5893835 C8.09599648,21.7444082 7.77877373,20.7887127 7.52136302,19.75 L4.70638218,19.75 L4.70638218,19.75 Z" id="Shape" fill="#000000" fill-rule="nonzero"></path>
    </g>
</svg>