<?xml version="1.0" encoding="UTF-8"?>
<svg width="24px" height="24px" viewBox="0 0 24 24" version="1.1" xmlns="http://www.w3.org/2000/svg" xmlns:xlink="http://www.w3.org/1999/xlink">
    <title>group-g</title>
    <g id="Icons" stroke="none" stroke-width="1" fill="none" fill-rule="evenodd">
        <g transform="translate(-1774, -74)" fill="#000000" fill-rule="nonzero" id="Shape">
            <path d="M1786,86.5 C1789.28667,86.5 1792,88.8800443 1792,91.8858439 L1792,92.9982086 C1792,93.5504934 1791.55228,93.9982086 1791,93.9982086 C1790.44772,93.9982086 1790,93.5504934 1790,92.9982086 L1790,91.8858439 C1790,90.0471768 1788.23617,88.5 1786,88.5 C1783.76383,88.5 1782,90.0471767 1782,91.8858433 L1782,92.9982086 C1782,93.5504934 1781.55228,93.9982086 1781,93.9982086 C1780.44772,93.9982086 1780,93.5504934 1780,92.9982086 L1780,91.8858433 C1780,88.8800442 1782.71333,86.5 1786,86.5 Z M1792.2673,86.5 C1795.43338,86.5 1798,89.1105993 1798,92.3309338 C1798,92.8932146 1797.55186,93.3490333 1796.99905,93.3490333 C1796.4831,93.3490333 1796.05832,92.9519646 1796.00398,92.4418669 L1795.9981,92.3309338 C1795.9981,90.235161 1794.32776,88.5361988 1792.2673,88.5361991 C1791.71449,88.5361992 1791.26635,88.0803806 1791.26635,87.5180995 C1791.26635,86.9558188 1791.71449,86.5 1792.2673,86.5 Z M1779.7327,86.5 C1780.28551,86.5 1780.73365,86.9558188 1780.73365,87.5180995 C1780.73365,88.0803806 1780.28551,88.5361992 1779.7327,88.5361991 C1777.73663,88.5361988 1776.10667,90.130635 1776.00675,92.1356573 L1776.0019,92.3309338 C1776.0019,92.8932146 1775.55376,93.3490333 1775.00095,93.3490333 C1774.44814,93.3490333 1774,92.8932146 1774,92.3309338 C1774,89.1105993 1776.56662,86.5 1779.7327,86.5 Z M1793.34606,78.1941588 C1794.32823,78.1941588 1795.27558,78.5849071 1795.98414,79.30561 C1797.44111,80.7875449 1797.44111,83.190242 1795.98414,84.672177 C1795.27558,85.3928799 1794.32823,85.7836281 1793.34606,85.7836281 C1792.8569,85.7836281 1792.37147,85.6862592 1791.91839,85.4955777 C1791.6957,85.4018556 1791.48203,85.2861089 1791.28026,85.1494426 C1790.82015,84.8377803 1790.69554,84.205737 1791.00195,83.7377345 C1791.30837,83.269732 1791.92976,83.1429932 1792.38988,83.4546555 C1792.48285,83.5176305 1792.5812,83.5709066 1792.68378,83.6140763 C1792.89326,83.7022379 1793.11855,83.747429 1793.34606,83.747429 C1793.80256,83.747429 1794.23931,83.5672829 1794.56859,83.2323668 C1795.24377,82.5456171 1795.24377,81.4321699 1794.56859,80.7454202 C1794.23931,80.410504 1793.80256,80.2303579 1793.34606,80.2303579 C1793.11855,80.2303579 1792.89326,80.275549 1792.68378,80.3637106 C1792.5812,80.4068803 1792.48285,80.4601564 1792.38988,80.5231314 C1791.92976,80.8347937 1791.30837,80.7080549 1791.00195,80.2400524 C1790.69554,79.7720499 1790.82015,79.1400066 1791.28026,78.8283443 C1791.48203,78.691678 1791.6957,78.5759314 1791.91839,78.4822093 C1792.37147,78.2915277 1792.8569,78.1941588 1793.34606,78.1941588 Z M1778.54966,78.1941588 C1779.03882,78.1941588 1779.52425,78.2915277 1779.97733,78.4822093 C1780.20002,78.5759314 1780.41369,78.691678 1780.61546,78.8283443 C1781.07557,79.1400066 1781.20018,79.7720499 1780.89377,80.2400524 C1780.58735,80.7080549 1779.96596,80.8347937 1779.50584,80.5231314 C1779.41287,80.4601564 1779.31452,80.4068803 1779.21194,80.3637106 C1779.00246,80.275549 1778.77716,80.2303579 1778.54966,80.2303579 C1778.09316,80.2303579 1777.65641,80.410504 1777.32713,80.7454202 C1776.65195,81.4321699 1776.65195,82.5456171 1777.32713,83.2323668 C1777.65641,83.5672829 1778.09316,83.747429 1778.54966,83.747429 C1778.77716,83.747429 1779.00246,83.7022379 1779.21194,83.6140763 C1779.31452,83.5709066 1779.41287,83.5176305 1779.50584,83.4546555 C1779.96596,83.1429932 1780.58735,83.269732 1780.89377,83.7377345 C1781.20018,84.205737 1781.07557,84.8377803 1780.61546,85.1494426 C1780.41369,85.2861089 1780.20002,85.4018556 1779.97733,85.4955777 C1779.52425,85.6862592 1779.03882,85.7836281 1778.54966,85.7836281 C1777.56749,85.7836281 1776.62014,85.3928799 1775.91158,84.672177 C1774.45461,83.190242 1774.45461,80.7875449 1775.91158,79.30561 C1776.62014,78.5849071 1777.56749,78.1941588 1778.54966,78.1941588 Z M1788.84248,78.6927769 C1790.40606,80.283146 1790.40606,82.8616504 1788.84248,84.4520195 C1787.27891,86.0423887 1784.74384,86.0423887 1783.18027,84.4520195 C1781.61669,82.8616504 1781.61669,80.283146 1783.18027,78.6927769 C1784.74384,77.1024077 1787.27891,77.1024077 1788.84248,78.6927769 Z M1784.59582,80.132587 C1783.81403,80.927771 1783.81403,82.2170254 1784.59582,83.0122093 C1785.37761,83.8073933 1786.64514,83.8073933 1787.42693,83.0122093 C1788.20872,82.2170254 1788.20872,80.927771 1787.42693,80.132587 C1786.64514,79.3374031 1785.37761,79.3374031 1784.59582,80.132587 Z"></path>
        </g>
    </g>
</svg>