<?xml version="1.0" encoding="UTF-8"?>
<svg width="24px" height="24px" viewBox="0 0 24 24" version="1.1" xmlns="http://www.w3.org/2000/svg" xmlns:xlink="http://www.w3.org/1999/xlink">
    <title>group-g</title>
    <g id="Icons" stroke="none" stroke-width="1" fill="none" fill-rule="evenodd">
        <g id="Glyphs" transform="translate(-1774.000000, -74.000000)" fill="#000000" fill-rule="nonzero">
            <path d="M1786.02784,77 L1785.88103,77.0001391 L1785.66976,77.0041356 L1785.4605,77.0129933 L1785.3193,77.022041 C1783.22981,77.179143 1782.1855,78.237071 1782.02493,80.3349892 L1782.00726,80.6458091 L1782.00089,80.8981579 L1782.00117,81.1913778 L1782.00697,81.4086451 L1782.01776,81.6170638 L1782.02755,81.748481 C1782.18643,83.6194523 1783.09481,84.6558085 1784.86518,84.9227406 L1785.02934,84.9450063 L1785.2881,84.9714705 L1785.53707,84.9880282 L1785.82474,84.9980755 L1786.00763,85.0000913 L1786.18963,84.9989932 L1786.43072,84.9922748 L1786.7485,84.9725837 L1786.95828,84.951677 C1788.84398,84.7287147 1789.80148,83.6830446 1789.96947,81.7353078 L1789.98823,81.4586737 L1789.9962,81.2519778 L1789.99979,80.8808884 L1789.99329,80.5953286 L1789.98236,80.3828891 L1789.96581,80.1752837 L1789.95139,80.0392283 C1789.73583,78.2223536 1788.75085,77.2586448 1786.92406,77.0493216 L1786.75411,77.0321488 L1786.60399,77.0203294 L1786.39622,77.0088159 L1786.02784,77 Z M1785.73311,79.0029881 L1786.008,78.9989277 L1786.31198,79.0068973 L1786.47321,79.0159203 L1786.71026,79.0378117 C1787.60916,79.1409113 1787.85993,79.3862596 1787.96404,80.2634835 L1787.98704,80.518929 L1787.99822,80.7840981 L1788,81.0172057 L1787.99703,81.1985622 L1787.97646,81.5684096 C1787.88845,82.5886543 1787.64288,82.8568321 1786.73467,82.9642492 L1786.48098,82.987056 L1786.15929,82.9992927 L1786.01111,83.0001679 L1785.74786,82.9953517 L1785.45156,82.9782188 L1785.2708,82.9598076 L1785.14796,82.9428932 C1784.33666,82.8204456 1784.10313,82.5540143 1784.02114,81.5888621 L1784.01036,81.4349044 L1784.00085,81.1593147 L1784.00069,80.9224981 L1784.00947,80.6391822 L1784.01944,80.4829561 C1784.10066,79.4219243 1784.34621,79.1265731 1785.30994,79.030115 L1785.56982,79.0098818 L1785.73311,79.0029881 Z M1779.52522,78 L1779.65433,78.0017168 L1779.83922,78.0075787 L1780.01613,78.01742 L1780.1451,78.0276136 L1780.27517,78.0406811 C1780.82469,78.0958897 1781.22541,78.5861179 1781.1702,79.1356363 C1781.11893,79.6459033 1780.69257,80.0278673 1780.19195,80.035627 L1780.07524,80.0306631 L1779.96845,80.01966 L1779.75499,80.0056601 L1779.51477,79.9999264 L1779.28489,80.0023191 L1779.15248,80.0078633 L1779.06248,80.0137413 C1778.28627,80.0721178 1778.10135,80.2166356 1778.02828,80.9387827 L1778.01296,81.1190114 L1778.0025,81.3406279 L1777.99996,81.5342051 L1778.00414,81.76323 L1778.01043,81.8883664 L1778.01702,81.9766217 C1778.07487,82.6576026 1778.19926,82.8405233 1778.69925,82.9349108 L1778.81226,82.9539309 L1779.05536,82.982333 L1779.29429,82.9962086 L1779.50813,83.0001681 L1779.77466,82.995591 L1780.00551,82.980626 L1780.10397,82.970114 C1780.65313,82.9114859 1781.14585,83.3091439 1781.20448,83.858308 C1781.25892,84.368246 1780.91993,84.8295094 1780.43153,84.9397434 L1780.31628,84.9588131 L1780.13627,84.9767077 L1780.01704,84.9854476 L1779.78241,84.9964241 L1779.50466,85.0000915 L1779.22614,84.9949875 L1778.89189,84.9755847 L1778.66885,84.9526999 L1778.52948,84.9337782 C1777.04308,84.7096637 1776.23442,83.851049 1776.04537,82.3455471 L1776.02343,82.1362406 L1776.00591,81.8464353 L1776.00098,81.6609212 L1776.00077,81.4119553 L1776.0104,81.1044649 L1776.02126,80.9331074 C1776.15593,79.1736149 1777.02565,78.2301304 1778.71514,78.0381498 L1778.92182,78.0187152 L1779.22153,78.0034666 L1779.52522,78 Z M1792.68576,78 L1792.55665,78.0017168 L1792.37176,78.0075787 L1792.19485,78.01742 L1792.06587,78.0276136 L1791.93581,78.0406811 C1791.38629,78.0958897 1790.98557,78.5861179 1791.04078,79.1356363 C1791.09205,79.6459033 1791.5184,80.0278673 1792.01903,80.035627 L1792.13574,80.0306631 L1792.24252,80.01966 L1792.45599,80.0056601 L1792.6962,79.9999264 L1792.92609,80.0023191 L1793.0585,80.0078633 L1793.1485,80.0137413 C1793.92471,80.0721178 1794.10963,80.2166356 1794.1827,80.9387827 L1794.19802,81.1190114 L1794.20848,81.3406279 L1794.21101,81.5342051 L1794.20684,81.76323 L1794.20054,81.8883664 L1794.19396,81.9766217 C1794.13611,82.6576026 1794.01171,82.8405233 1793.51172,82.9349108 L1793.39872,82.9539309 L1793.15562,82.982333 L1792.91668,82.9962086 L1792.70284,83.0001681 L1792.43632,82.995591 L1792.20547,82.980626 L1792.10701,82.970114 C1791.55784,82.9114859 1791.06513,83.3091439 1791.0065,83.858308 C1790.95206,84.368246 1791.29105,84.8295094 1791.77945,84.9397434 L1791.8947,84.9588131 L1792.07471,84.9767077 L1792.19394,84.9854476 L1792.42857,84.9964241 L1792.70632,85.0000915 L1792.98484,84.9949875 L1793.31909,84.9755847 L1793.54213,84.9526999 L1793.6815,84.9337782 C1795.16789,84.7096637 1795.97656,83.851049 1796.16561,82.3455471 L1796.18755,82.1362406 L1796.20506,81.8464353 L1796.21,81.6609212 L1796.21021,81.4119553 L1796.20058,81.1044649 L1796.18972,80.9331074 C1796.05505,79.1736149 1795.18533,78.2301304 1793.49583,78.0381498 L1793.28915,78.0187152 L1792.98944,78.0034666 L1792.68576,78 Z M1786,86.4999277 C1789.21024,86.4999277 1791.87349,88.7705594 1791.99562,91.677102 L1792,91.8857716 L1792,93.4999277 C1792,94.0522124 1791.55228,94.4999277 1791,94.4999277 C1790.48716,94.4999277 1790.06449,94.1138875 1790.00673,93.6165488 L1790,93.4999277 L1790,91.8857716 C1790,90.0471045 1788.23617,88.4999277 1786,88.4999277 C1783.83596,88.4999277 1782.11429,89.9488965 1782.00546,91.7087876 L1782,91.8857709 L1782,93.4999277 C1782,94.0522124 1781.55228,94.4999277 1781,94.4999277 C1780.48716,94.4999277 1780.06449,94.1138875 1780.00673,93.6165488 L1780,93.4999277 L1780,91.8857709 C1780,88.8799718 1782.71333,86.4999277 1786,86.4999277 Z M1792,86.4999277 C1795.31371,86.4999277 1798,89.1862207 1798,92.4999277 C1798,93.0522124 1797.55228,93.4999277 1797,93.4999277 C1796.44772,93.4999277 1796,93.0522124 1796,92.4999277 C1796,90.2907902 1794.20914,88.4999277 1792,88.4999277 C1791.44772,88.4999277 1791,88.0522124 1791,87.4999277 C1791,86.9476429 1791.44772,86.4999277 1792,86.4999277 Z M1780,86.4999277 C1780.55228,86.4999277 1781,86.9476429 1781,87.4999277 C1781,88.0522124 1780.55228,88.4999277 1780,88.4999277 C1777.79086,88.4999277 1776,90.2907902 1776,92.4999277 C1776,93.0522124 1775.55228,93.4999277 1775,93.4999277 C1774.44772,93.4999277 1774,93.0522124 1774,92.4999277 C1774,89.1862207 1776.68629,86.4999277 1780,86.4999277 Z" id="Shape"></path>
        </g>
    </g>
</svg>