<svg xmlns="http://www.w3.org/2000/svg" width="24" height="24" viewBox="0 0 24 24">
  <path d="M9.18026537,10.0784281 C7.6166888,8.51633216 7.6166888,5.98366784 9.18026537,4.42157193 C10.7438419,2.85947602 13.2789069,2.85947602 14.8424834,4.42157193 C16.40606,5.98366784 16.40606,8.51633216 14.8424834,10.0784281 C13.2789069,11.640524 10.7438419,11.640524 9.18026537,10.0784281 Z M13.4269294,5.8357855 C12.6451417,5.05473817 11.3776071,5.05473817 10.5958194,5.8357855 C9.81403176,6.61683282 9.81403176,7.88316718 10.5958194,8.6642145 C11.3776071,9.44526183 12.6451417,9.44526183 13.4269294,8.6642145 C14.2087171,7.88316718 14.2087171,6.61683282 13.4269294,5.8357855 Z M18.3898788,6.21938683 C17.9297606,6.52550848 17.3083652,6.40102283 17.0019534,5.94134036 C16.6955416,5.48165788 16.8201452,4.86085097 17.2802634,4.55472932 C17.4820288,4.42049264 17.6956971,4.30680369 17.918392,4.21474776 C18.371474,4.02745607 18.8569002,3.93181818 19.3460628,3.93181818 C20.3282305,3.93181818 21.2755803,4.31561983 21.9841417,5.02351023 C23.4411108,6.47909963 23.4411108,8.83908219 21.9841417,10.2946716 C21.2755803,11.002562 20.3282305,11.3863636 19.3460628,11.3863636 C18.8569002,11.3863636 18.371474,11.2907257 17.918392,11.1034341 C17.6956971,11.0113781 17.4820288,10.8976892 17.2802634,10.7634525 C16.8201452,10.4573308 16.6955416,9.83652394 17.0019534,9.37684146 C17.3083652,8.91715898 17.9297606,8.79267334 18.3898788,9.09879499 C18.482851,9.16065045 18.5811986,9.21297939 18.683775,9.25538164 C18.8932574,9.34197592 19.1185547,9.38636364 19.3460628,9.38636364 C19.8025584,9.38636364 20.2393137,9.20942012 20.5685877,8.88045802 C21.2437678,8.20591721 21.2437678,7.11226461 20.5685877,6.43772379 C20.2393137,6.1087617 19.8025584,5.93181818 19.3460628,5.93181818 C19.1185547,5.93181818 18.8932574,5.9762059 18.683775,6.06280017 C18.5811986,6.10520243 18.482851,6.15753137 18.3898788,6.21938683 Z M8.25781991,19.93 C8.25781991,20.4822847 7.80968028,20.93 7.25687204,20.93 C6.7040638,20.93 6.25592417,20.4822847 6.25592417,19.93 L6.25592417,18.1818202 C6.25592369,15.0061849 8.83272845,12.4318207 12.0113743,12.4318207 C15.1900202,12.4318203 17.7668246,15.0061847 17.7668246,18.1818207 L17.7668246,19.93 C17.7668246,20.4822847 17.318685,20.93 16.7658768,20.93 C16.2130685,20.93 15.7649289,20.4822847 15.7649289,19.93 L15.7649289,18.1818207 C15.7649289,16.1107543 14.0844038,14.4318204 12.0113744,14.4318207 C9.93834491,14.4318207 8.25781959,16.1107544 8.25781991,18.18182 L8.25781991,19.93 Z M18.2672986,14.4318207 C17.7144905,14.4318208 17.2663508,13.9841056 17.2663507,13.4318207 C17.2663506,12.8795361 17.7144902,12.4318208 18.2672986,12.4318207 C21.4333805,12.4318203 24,14.9960094 24,18.1590935 C24,18.7113782 23.5518604,19.1590935 22.9990521,19.1590935 C22.4462439,19.1590935 21.9981043,18.7113782 21.9981043,18.1590935 C21.9981043,16.1005789 20.3277641,14.4318204 18.2672986,14.4318207 Z M5.73270142,14.4318207 C3.67223587,14.4318204 2.00189573,16.1005789 2.00189573,18.1590935 C2.00189573,18.7113782 1.55375611,19.1590935 1.00094787,19.1590935 C0.448139625,19.1590935 0,18.7113782 0,18.1590935 C0,14.9960094 2.56661948,12.4318203 5.73270142,12.4318207 C6.28550982,12.4318208 6.73364937,12.8795361 6.73364929,13.4318207 C6.73364921,13.9841056 6.28550951,14.4318208 5.73270142,14.4318207 Z M5.50584029,6.21938683 C5.41286803,6.15753137 5.3145204,6.10520243 5.21194403,6.06280017 C5.00246164,5.9762059 4.77716432,5.93181818 4.5496562,5.93181818 C4.09316061,5.93181818 3.6564053,6.1087617 3.32713139,6.43772379 C2.6519512,7.11226461 2.6519512,8.20591721 3.32713139,8.88045802 C3.6564053,9.20942012 4.09316061,9.38636364 4.5496562,9.38636364 C4.77716432,9.38636364 5.00246164,9.34197592 5.21194403,9.25538164 C5.3145204,9.21297939 5.41286803,9.16065045 5.50584029,9.09879499 C5.96595848,8.79267334 6.58735383,8.91715898 6.89376565,9.37684146 C7.20017746,9.83652394 7.07557381,10.4573308 6.61545562,10.7634525 C6.41369028,10.8976892 6.20002192,11.0113781 5.97732709,11.1034341 C5.52424504,11.2907257 5.03881889,11.3863636 4.5496562,11.3863636 C3.56748855,11.3863636 2.62013873,11.002562 1.91157734,10.2946716 C0.454608232,8.83908219 0.454608232,6.47909963 1.91157734,5.02351023 C2.62013873,4.31561983 3.56748855,3.93181818 4.5496562,3.93181818 C5.03881889,3.93181818 5.52424504,4.02745607 5.97732709,4.21474776 C6.20002192,4.30680369 6.41369028,4.42049264 6.61545562,4.55472932 C7.07557381,4.86085097 7.20017746,5.48165788 6.89376565,5.94134036 C6.58735383,6.40102283 5.96595848,6.52550848 5.50584029,6.21938683 Z"/>
</svg>
