<svg xmlns="http://www.w3.org/2000/svg" width="24" height="24" viewBox="0 0 24 24">
  <path d="M3167.74065,66.0155419 C3168.37979,65.1806237 3169.18421,64.9334837 3170.03568,65.0628138 L3170.17753,65.0879736 L3170.06366,64.9048923 C3169.87949,64.5931295 3169.74077,64.2945563 3169.64737,63.9872495 C3169.36558,63.0600989 3169.51529,62.0659745 3170.37193,61.3616963 C3171.26916,60.624058 3172.30972,60.697719 3173.20108,61.1862062 L3173.38667,61.2950102 C3173.7551,61.5252001 3174.10975,61.831512 3174.49981,62.2276805 L3174.47361,62.1028925 C3174.44442,61.9425374 3174.42559,61.7857287 3174.4177,61.6296007 C3174.3674,60.63432 3174.77667,59.6747221 3175.85691,59.23117 C3177.45144,58.576443 3178.66789,59.3821816 3179.56929,60.7713397 C3179.91064,61.2973959 3180.22174,61.9248317 3180.56255,62.7416421 L3180.79481,63.3152036 L3180.9963,63.835904 L3181.82102,66.0322386 L3181.88124,66.1846653 L3181.88124,66.1846653 L3181.95699,66.3657009 L3181.96857,66.2503483 C3182.03473,65.6383043 3182.10611,65.3183574 3182.26962,64.895941 C3182.77132,63.5997815 3183.82902,62.6792826 3185.07044,62.5182676 C3186.80008,62.2939311 3188.25297,63.66702 3187.9629,65.4780548 L3187.77475,66.67793 L3187.70382,67.1704559 L3187.62572,67.8132798 L3187.62572,67.8132798 L3187.59218,68.1977113 C3187.58344,68.3218641 3187.57713,68.4427824 3187.5732,68.5627358 L3187.56855,68.921971 L3187.58254,69.3836192 L3187.58254,69.3836192 L3187.6181,69.884096 L3187.6618,70.3303069 L3187.7522,71.1079224 L3187.87175,72.0563493 C3188.01354,73.1675799 3187.96626,74.0978572 3187.64517,75.3557641 C3186.77839,78.751474 3183.90548,81 3180.36206,81 C3178.10577,81 3176.53786,80.3099832 3174.83063,78.9508836 L3173.71716,78.0352203 L3173.62995,77.970027 L3173.54605,77.9266406 L3173.2917,77.7867397 L3172.74291,77.5010361 L3172.14023,77.207115 L3170.61867,76.4944575 L3169.96714,76.1780399 L3169.60387,75.9911893 L3169.28499,75.8160567 C3168.98473,75.6446239 3168.73499,75.4810518 3168.48762,75.2961904 C3167.25913,74.3781354 3166.62727,73.1167724 3167.23243,71.6474036 L3167.31092,71.4707384 C3167.61032,70.8452776 3168.03607,70.4634436 3168.54122,70.2657628 L3168.57694,70.2528169 L3168.49215,70.1711478 C3167.22794,68.9191719 3166.63366,67.624116 3167.6296,66.169025 L3167.74065,66.0155419 Z M3175.3292,73.6686226 C3175.14183,74.1553281 3174.35844,73.9468736 3173.40423,73.5448479 L3172.98606,73.3621622 L3171.57245,72.7107815 L3171.57245,72.7107815 L3171.04489,72.4820138 L3170.87723,72.4142174 L3170.87723,72.4142174 L3170.55416,72.2935647 C3169.8218,72.0381408 3169.25105,71.9787508 3169.0794,72.3955411 C3168.81141,73.0462443 3169.36689,73.5792066 3170.31274,74.1161625 L3170.64188,74.2954627 L3170.99638,74.4760606 L3171.97015,74.9398083 L3173.02439,75.4335842 L3173.67239,75.7507758 L3173.67239,75.7507758 L3174.1034,75.9730434 L3174.52947,76.2051252 C3174.69655,76.2989997 3174.86547,76.4179084 3175.04041,76.5535067 L3175.30784,76.7683782 L3176.03646,77.3740106 C3177.0282,78.1741772 3178.32071,79.0214175 3180.36206,79.0214175 C3183.00921,79.0214175 3185.07273,77.3710725 3185.71109,74.8702101 L3185.75492,74.6920962 L3185.82775,74.3564841 C3185.85944,74.1951261 3185.88424,74.0430167 3185.90309,73.8982488 L3185.93311,73.6179369 L3185.94892,73.3538126 C3185.95201,73.2680925 3185.953,73.1845054 3185.95217,73.1024862 L3185.94451,72.8605675 L3185.92762,72.6246667 L3185.90314,72.3913939 L3185.87273,72.157359 L3185.72503,71.1458008 L3185.68988,70.8571068 L3185.65876,70.5473112 L3185.62326,70.0356367 L3185.62326,70.0356367 L3185.60946,69.658256 L3185.60551,69.2479089 L3185.61304,68.8012054 L3185.62164,68.5631606 L3185.62164,68.5631606 L3185.64952,68.0555664 L3185.69305,67.503141 L3185.75388,66.9024944 L3185.83366,66.2502368 L3185.88118,65.9036944 L3185.88118,65.9036944 L3185.99252,65.167664 C3186.15053,64.181108 3184.68568,64.1750511 3184.13219,65.6050016 C3184.03325,65.8606251 3183.97879,66.2122513 3183.93822,66.5996434 L3183.848,67.6077764 C3183.77064,68.4181177 3183.64683,69.170733 3183.23179,69.3837277 C3182.43628,69.7919676 3181.00531,69.3692033 3180.02586,66.9120529 L3179.87779,66.533199 L3179.18288,64.6747544 L3178.94078,64.0460973 L3178.77646,63.6374103 L3178.60979,63.2422442 L3178.44078,62.8650446 L3178.26941,62.5102573 C3177.75175,61.4839593 3177.20221,60.820243 3176.62011,61.0592587 C3176.30279,61.1895524 3176.3721,61.7087247 3176.63461,62.4299518 L3176.75838,62.7508751 C3176.78079,62.8062426 3176.80405,62.8625047 3176.82808,62.9195935 L3177.01585,63.3491774 L3177.33562,64.0356026 L3178.15361,65.7310939 L3178.37853,66.2133175 L3178.48575,66.4504051 L3178.48575,66.4504051 L3178.68588,66.912875 L3178.82893,67.2683838 C3179.23185,68.3122505 3179.38467,69.1386978 3178.91053,69.3837277 C3178.47589,69.6083418 3177.80585,69.1172551 3177.04066,68.3163673 L3176.76687,68.0214982 C3176.67444,67.9193612 3176.58092,67.8135973 3176.48654,67.7048674 L3176.13328,67.2895948 L3175.59427,66.6321203 L3174.51537,65.2852413 L3174.16494,64.85423 L3173.82343,64.4446516 L3173.56727,64.147571 L3173.56727,64.147571 L3173.31916,63.8712007 C3173.27855,63.8270565 3173.23832,63.7839189 3173.1985,63.7418598 L3172.96471,63.503022 C3172.39352,62.9411567 3171.92576,62.6542886 3171.64522,62.8849308 C3171.37648,63.1058732 3171.55284,63.5796406 3171.971,64.1957765 L3172.16442,64.4682291 L3172.3839,64.7561824 L3172.75418,65.2129495 L3173.16307,65.6937245 L3174.58213,67.3071673 L3175.16954,67.9918591 L3175.51309,68.4097586 L3175.51309,68.4097586 L3175.82994,68.8152927 L3176.05941,69.1282143 C3176.67546,69.9982296 3176.98688,70.7192217 3176.62011,71.0882191 C3176.25059,71.4599874 3175.59515,71.2071941 3174.81984,70.6833089 L3174.52381,70.4748349 L3174.21848,70.2450882 L3173.90581,69.9982111 L3173.42729,69.604837 L3172.24507,68.6054936 L3171.79516,68.2348309 L3171.5034,68.0034206 L3171.22016,67.788798 L3170.94715,67.5945883 L3170.68608,67.4244165 C3170.04974,67.0320554 3169.54124,66.8990352 3169.28032,67.2802444 C3168.96339,67.743289 3169.44914,68.3911546 3170.26325,69.1066057 L3170.56345,69.3617334 L3170.56345,69.3617334 L3170.94895,69.6704066 L3171.35861,69.9834614 L3171.78467,70.2989797 L3173.39595,71.4713725 L3173.39595,71.4713725 L3173.8893,71.8463928 L3174.21007,72.1028254 C3174.9782,72.7340069 3175.47618,73.2868203 3175.3292,73.6686226 Z" transform="translate(-3166 -58)"/>
</svg>
