<svg xmlns="http://www.w3.org/2000/svg" width="24" height="24" viewBox="0 0 24 24">
  <path d="M3170.01241,62.1385483 L3169.89994,62.2584035 C3169.1442,63.1159386 3169.05014,64.3524554 3169.61752,65.3043194 L3169.64772,65.3542939 L3169.52724,65.3513091 C3168.63692,65.3593335 3167.77168,65.8164652 3167.2798,66.63574 L3167.1977,66.7827165 C3166.58204,67.9710978 3166.95192,69.4471039 3168.08029,70.1995965 L3168.13239,70.2326236 L3168.11629,70.2343584 C3167.09797,70.3742671 3166.23314,71.1422255 3166.01954,72.2068513 L3166,72.4035668 C3166,73.507978 3166.66377,74.3364311 3167.85699,75.0848082 C3168.22243,75.3140082 3168.63876,75.5384743 3169.16603,75.7960486 L3170.18519,76.2751767 L3171.22621,76.7552923 C3173.12319,77.6398752 3174.37597,78.3559709 3175.42931,79.2507503 L3175.63745,79.4321914 C3179.39143,82.7899594 3184.20638,81.4370369 3187.47101,77.2243298 L3187.60952,77.0380688 C3189.36512,74.5768642 3189.36751,70.562925 3187.76146,64.9805141 L3187.66268,64.64648 L3187.67506,64.7813732 C3187.61128,63.5648329 3186.73061,62.5464442 3185.536,62.3077971 L3185.3401,62.288421 C3184.04581,62.288421 3183.24775,63.1491819 3182.82948,64.4963448 C3182.70527,64.8963865 3182.61474,65.3278896 3182.53843,65.8407613 L3182.45483,66.4856647 L3182.16089,66.0976525 L3181.85093,65.6758045 L3181.51408,65.205682 L3180.95856,64.4102135 L3180.55487,63.8198644 L3180.12461,63.1816084 L3179.50538,62.2496502 L3178.97679,61.4437972 L3178.12664,60.1316587 C3177.25913,58.9708639 3175.73343,58.6717838 3174.55196,59.380121 L3174.46229,59.4365313 L3174.32153,59.5367948 C3173.63832,60.0558554 3173.26515,60.8356592 3173.24714,61.6330061 L3173.2476,61.792597 L3173.19584,61.7583962 C3172.23271,61.1776789 3171.00201,61.2678843 3170.14503,62.0146714 L3170.01241,62.1385483 Z M3171.42764,63.5517441 C3171.66103,63.3183543 3172.04025,63.3183545 3172.27415,63.552253 L3173.2139,64.5634154 L3174.33842,65.7599899 L3175.31359,66.7806268 L3175.74432,67.2240711 L3176.13668,67.622454 L3176.88305,68.3627462 L3177.14334,68.6144872 L3177.36989,68.8264821 L3177.56767,69.0016143 C3178.06111,69.4220468 3178.30054,69.480037 3178.70924,69.4216523 C3179.1756,69.3550283 3179.51143,68.9959703 3179.58177,68.5634249 C3179.614,68.3652387 3179.59143,68.2047416 3179.54156,68.0399498 C3179.49657,67.89125 3179.42608,67.7419129 3179.32467,67.5607493 L3179.1888,67.3297003 L3179.01671,67.0571444 L3178.68939,66.5679516 L3178.42877,66.1930351 L3177.80508,65.3231842 L3177.23999,64.5545886 L3176.11238,63.0516511 L3175.32414,62.0163933 C3175.15039,61.7523063 3175.23573,61.3244975 3175.55223,61.1132693 L3175.601,61.0827495 C3175.8831,60.9139621 3176.27402,60.9905939 3176.48582,61.2729491 L3176.81701,61.7884195 L3177.4686,62.7916665 L3178.09272,63.7391956 L3179.03046,65.1375277 L3179.70907,66.1279063 L3180.16348,66.7732331 L3180.57569,67.3389423 L3180.82907,67.6735906 L3181.18002,68.1144376 L3181.39634,68.3691085 L3181.59997,68.5936164 L3181.79211,68.7890057 L3181.97397,68.956321 C3182.35775,69.2891783 3182.67771,69.4317028 3182.98933,69.4317028 C3183.55137,69.4317028 3183.89979,69.0990772 3184.09396,68.6594255 C3184.16016,68.5095456 3184.20837,68.3463126 3184.24871,68.1528205 L3184.29821,67.8750763 L3184.39596,67.1072643 L3184.47741,66.417288 C3184.54957,65.8639866 3184.63081,65.4395671 3184.73953,65.0893817 C3184.89612,64.585048 3185.06163,64.3057237 3185.2284,64.3057237 C3185.39517,64.3057237 3185.61211,64.5285692 3185.66513,64.7869684 C3185.68537,64.9580215 3185.70303,65.068854 3185.71813,65.1194661 C3187.32599,70.5120667 3187.32727,74.1447522 3185.89014,75.9992385 C3183.31087,79.3275511 3179.85992,80.351453 3177.1432,78.0903 L3176.97081,77.9415003 C3175.77186,76.8690915 3174.4375,76.0683121 3172.47292,75.1318931 L3170.55544,74.2264679 L3169.77991,73.8450875 L3169.31084,73.6022559 L3169.04711,73.4580746 L3168.71884,73.2645401 L3168.46398,73.0937036 L3168.33076,72.9898744 C3168.21118,72.889433 3168.1313,72.7983901 3168.08006,72.7098656 L3168.03794,72.6219258 L3168.00794,72.5109216 L3168.04331,72.4408233 C3168.14659,72.2740451 3168.34599,72.1804937 3168.54962,72.2213482 L3168.56372,72.2252505 L3169.85581,72.8344113 L3170.7597,73.2505293 L3171.56154,73.6091233 L3172.03959,73.8162934 L3172.47257,73.9979951 L3172.8606,74.1542674 L3173.07604,74.2374504 L3173.46285,74.3775939 C3173.70171,74.4594438 3173.90331,74.5182361 3174.07233,74.5545741 C3174.30248,74.6040573 3174.49665,74.6216957 3174.70672,74.5854868 C3175.25532,74.4909268 3175.69261,74.0075898 3175.5976,73.3726982 C3175.57508,73.2222541 3175.50757,73.064487 3175.38501,72.8902798 L3175.28262,72.7563994 L3175.15865,72.6154993 L3175.08828,72.5421496 L3174.8422,72.3092205 L3174.64784,72.1421324 L3174.42814,71.9646055 L3174.049,71.6768728 L3173.60755,71.3608448 L3173.27705,71.1330154 L3172.52496,70.6323642 L3171.87749,70.214142 L3170.35428,69.25531 L3169.15954,68.5161715 C3168.90289,68.344233 3168.81683,67.961077 3168.99445,67.6652895 C3169.17822,67.3592028 3169.57523,67.2600694 3169.88124,67.4437912 L3169.90558,67.4591507 L3171.23562,68.4817313 L3172.40424,69.36425 L3173.17176,69.9320464 L3173.84356,70.4174953 L3174.42453,70.8238776 L3174.76605,71.0535733 L3175.06449,71.245365 L3175.32116,71.3998614 L3175.43423,71.4633141 C3175.62361,71.5665222 3175.78139,71.6373198 3175.94168,71.6797575 C3176.49807,71.8270636 3177.14767,71.6794303 3177.2895,70.8592604 C3177.36101,70.4457945 3177.2948,70.1799192 3176.89901,69.699595 L3176.72266,69.4951699 L3176.50843,69.2627212 L3176.25359,68.9971 L3175.7892,68.5252062 L3175.13328,67.8754382 L3174.71973,67.4747179 L3173.77263,66.5732668 L3172.95705,65.8094083 L3171.39662,64.3684658 C3171.19417,64.1646791 3171.19403,63.7856898 3171.42764,63.5517441 Z" transform="translate(-3166 -58)"/>
</svg>
