<svg xmlns="http://www.w3.org/2000/svg" width="25" height="25" viewBox="0 0 25 25">
  <path d="M12.8999722,4.89563271 C15.1613369,2.63450273 18.8275479,2.63469552 21.0886691,4.89606245 C21.5284835,5.33592379 21.8945502,5.84377907 22.1728356,6.40018359 C23.2873814,8.62911169 22.8507672,11.3211503 21.1035557,13.0685688 L13.0065983,21.5151069 C12.612968,21.9257319 11.9565612,21.9257639 11.5628908,21.5151774 L3.48176973,13.0864759 C1.71777662,11.3238709 1.28061896,8.62978012 2.39662406,6.40010715 C3.8270884,3.53999501 7.3052901,2.38103846 10.1654043,3.81150381 C10.7217355,4.08974957 11.2295959,4.45581919 11.6692603,4.89544385 L12.2847107,5.51050125 L12.8999722,4.89563271 Z M19.6744565,11.6695565 C20.827776,10.5158949 21.1135809,8.75370314 20.3840479,7.29474397 C20.2019087,6.93057458 19.9622818,6.59813308 19.6743794,6.31019985 C18.1942653,4.82992494 15.794387,4.82979874 14.3139232,6.31010878 L12.9915916,7.63159592 C12.6011191,8.02181914 11.9683024,8.02181914 11.5778298,7.63159592 L10.2553046,6.30991521 C9.96738126,6.02201789 9.63494172,5.78239295 9.27077189,5.60025559 C7.39855866,4.66388172 5.12174905,5.42252761 4.18523982,7.29501137 C3.45467777,8.75460554 3.74081631,10.5180041 4.91041804,11.6870099 L12.2846538,19.3781193 L19.6744565,11.6695565 Z"/>
</svg>
