<svg xmlns="http://www.w3.org/2000/svg" width="25" height="25" viewBox="0 0 25 25">
  <path d="M22.7760404,17.25 C22.7760404,16.8357864 23.1118269,16.5 23.5260404,16.5 C23.940254,16.5 24.2760404,16.8357864 24.2760404,17.25 C24.2760404,20.9779236 21.253964,24 17.5260404,24 C13.7981169,24 10.7760404,20.9779236 10.7760404,17.25 C10.7760404,13.5220764 13.7981169,10.5 17.5260404,10.5 C17.940254,10.5 18.2760404,10.8357864 18.2760404,11.25 C18.2760404,11.6642136 17.940254,12 17.5260404,12 C14.626544,12 12.2760404,14.3505036 12.2760404,17.25 C12.2760404,20.1494964 14.626544,22.5 17.5260404,22.5 C20.4255369,22.5 22.7760404,20.1494964 22.7760404,17.25 Z M22.9957104,12.2196699 C23.2886036,11.9267767 23.7634773,11.9267767 24.0563705,12.2196699 C24.3492637,12.5125631 24.3492637,12.9874369 24.0563705,13.2803301 L18.5875407,18.7491598 C18.0019424,19.3351342 17.0521946,19.3354384 16.4654019,18.7490213 L14.7484019,17.0300213 C14.4556792,16.7369576 14.4559556,16.262084 14.7490192,15.9693613 C15.0420829,15.6766386 15.5169565,15.676915 15.8096792,15.9699787 L17.5267104,17.6886699 L22.9957104,12.2196699 Z M11.2432005,1.8825007 L12.2790399,2.9176786 L13.3145638,1.88281612 C15.8218165,-0.625817972 19.8880103,-0.626938019 22.3966441,1.88031564 C22.8852771,2.36868032 23.2919087,2.9326872 23.6009335,3.55073809 C24.5124395,5.37474859 24.5044577,7.52305663 23.5794235,9.3402414 C23.3915145,9.70937966 22.9399384,9.85629495 22.5708001,9.66838587 C22.2016619,9.4804768 22.0547466,9.02890071 22.2426556,8.65976245 C22.9518287,7.26662631 22.957948,5.61963434 22.2592191,4.22141107 C22.0224307,3.74783351 21.7107774,3.31556356 21.3362756,2.94126735 C19.4135898,1.01963938 16.2971436,1.02049781 14.3752005,2.94349958 L12.8092005,4.50849958 C12.5163461,4.80116699 12.0417336,4.80116699 11.7488792,4.50849958 L10.1825654,2.94318578 C9.80826723,2.5686837 9.37599633,2.25702973 8.90241776,2.02023957 C6.47106324,0.804553641 3.51454738,1.79005345 2.29885129,4.22142828 C1.35104495,6.11691079 1.72263638,8.40623949 3.23258921,9.91613109 L9.04358921,15.9811311 C9.33015259,16.2802202 9.31999847,16.7549854 9.02090934,17.0415488 C8.72182022,17.3281121 8.24705506,17.317958 7.96049168,17.0188689 L2.1607641,10.9653838 C0.205446341,9.01046233 -0.279366312,6.02359169 0.957220674,3.55058754 C2.54339414,0.378263254 6.40092007,-0.907571576 9.57324105,0.678600238 C10.1911434,0.987552563 10.7551494,1.39418343 11.2432005,1.8825007 Z"/>
</svg>
