<?xml version="1.0" encoding="UTF-8"?>
<svg width="24px" height="24px" viewBox="0 0 24 24" version="1.1" xmlns="http://www.w3.org/2000/svg" xmlns:xlink="http://www.w3.org/1999/xlink">
    <title>heart-check-g</title>
    <g id="Icons" stroke="none" stroke-width="1" fill="none" fill-rule="evenodd">
        <g id="Glyphs" transform="translate(-3304.000000, -58.000000)" fill="#000000" fill-rule="nonzero">
            <path d="M3316.11996,62.0771047 C3318.55435,60.0478912 3321.91101,59.9160809 3324.46334,62.0380129 C3327.40367,64.4825246 3327.83325,68.6931651 3325.51428,71.6983441 L3325.38329,71.8631664 L3325.0902,72.2144658 L3324.92843,72.4007243 L3324.92843,72.4007243 L3324.75671,72.5939098 L3324.3841,73.0006245 L3323.97367,73.4337359 L3323.52671,73.89237 L3322.79063,74.6262643 L3322.25803,75.1448813 L3321.39953,75.9646533 L3320.47342,76.832019 L3319.48405,77.7440286 L3318.79149,78.3753805 L3317.43819,79.5973409 C3317.07993,79.9126919 3316.89498,80.0277767 3316.54684,80.1427097 C3316.19137,80.241451 3315.7959,80.241451 3315.39184,80.127875 C3315.15403,80.0486034 3315.00467,79.9711035 3314.77588,79.7903596 L3314.65408,79.6908978 L3314.42733,79.4951053 L3313.26485,78.4561629 L3312.26866,77.5518584 L3311.31239,76.6697283 L3310.40478,75.8168978 L3309.83105,75.2681404 L3309.2854,74.7376828 L3308.77044,74.2276364 L3308.28874,73.7401122 L3307.84289,73.2772214 L3307.33994,72.7364648 L3307.33994,72.7364648 L3307.247,72.633691 L3306.9021,72.24162 C3306.74066,72.0534143 3306.59606,71.8772169 3306.46976,71.7142155 C3304.16752,68.7307009 3304.60933,64.5529325 3307.51294,62.0773489 C3309.96458,59.9787436 3313.25819,60.0744443 3315.68486,61.9695031 L3315.8907,62.1363341 L3315.97,62.206 L3316.11996,62.0771047 Z M3323.18475,63.5759375 C3321.27364,61.9870973 3318.77651,62.1988328 3317.03376,63.947686 L3316.96354,64.02022 L3316.92104,64.1125677 C3316.65552,64.6095005 3315.98987,64.8926478 3315.45472,64.5009959 L3315.35604,64.4195408 L3315.27448,64.3366217 L3315.09656,64.1366586 C3313.4512,62.3662101 3311.04594,62.0050666 3309.17805,63.3138919 L3308.9931,63.4503506 L3308.81202,63.5980004 C3306.71755,65.3837186 3306.40339,68.3544362 3308.05192,70.4907933 C3308.20078,70.6829106 3308.38136,70.8988082 3308.59021,71.1355607 L3308.75208,71.3169896 L3309.10634,71.7022122 L3309.49911,72.115426 L3309.9278,72.554437 L3310.38983,73.0170511 L3310.8826,73.5010743 L3311.67374,74.2624514 L3312.23205,74.7903982 L3313.10937,75.6073762 L3314.02673,76.4478413 L3314.97542,77.3043887 L3315.96703,78.1883848 L3315.986,78.21 L3317.04902,77.2552494 L3318.03959,76.3543655 L3319.27908,75.2104939 L3320.41504,74.1402316 L3321.19208,73.3911667 L3321.6717,72.9194042 L3322.1189,72.4710239 L3322.53223,72.0471327 L3322.91024,71.6488371 L3323.25147,71.2772438 L3323.69118,70.7723416 L3323.93412,70.4723458 C3325.5968,68.3176439 3325.29175,65.3276439 3323.18475,63.5759375 Z M3320.24271,66.3382085 C3320.60319,66.6986924 3320.63092,67.2659235 3320.3259,67.6582147 L3320.24271,67.752422 L3315.73384,72.2612944 C3315.37335,72.6217783 3314.80612,72.6495079 3314.41383,72.344483 L3314.31963,72.2612944 L3312.31568,70.2573511 C3311.92516,69.8668268 3311.92516,69.2336618 3312.31568,68.8431375 C3312.67617,68.4826536 3313.2434,68.4549241 3313.63569,68.7599489 L3313.7299,68.8431375 L3315.026,70.14 L3318.8285,66.3382085 C3319.21902,65.9476842 3319.85219,65.9476842 3320.24271,66.3382085 Z" id="Shape"></path>
        </g>
    </g>
</svg>