<svg xmlns="http://www.w3.org/2000/svg" width="24" height="24" viewBox="0 0 24 24">
  <path d="M3312.69443,62.6333014 C3313.05689,62.8315083 3313.3953,63.0725054 3313.70387,63.351944 L3313.9296,63.5686629 L3314.382,64.031 L3314.83668,63.5670562 C3316.86827,61.5000675 3320.10389,61.4845005 3322.15381,63.488159 L3322.32656,63.6648454 C3322.68107,64.0442062 3322.98038,64.4745767 3323.22087,64.9535396 C3323.56625,65.6630058 3323.7579,66.3697959 3323.7579,67.0738929 C3323.7579,67.6261777 3323.31019,68.0738929 3322.7579,68.0738929 C3322.24507,68.0738929 3321.8224,67.6878527 3321.76463,67.1905141 L3321.7579,67.0738929 C3321.7579,66.7030382 3321.64443,66.2845504 3321.42814,65.8400894 C3321.27866,65.5424859 3321.08899,65.2697602 3320.8653,65.0303934 C3319.65009,63.7300074 3317.70014,63.6584681 3316.40569,64.8318913 L3316.26463,64.9673958 L3315.09712,66.1606109 C3314.73508,66.5306218 3314.15755,66.5590847 3313.76236,66.2459993 L3313.66759,66.1606123 L3312.50165,64.9690033 C3312.27369,64.7370666 3312.01536,64.5414594 3311.73485,64.3880691 C3310.14498,63.5186609 3308.18116,64.1585209 3307.34207,65.8289584 C3306.74582,67.0537268 3306.94466,68.5318234 3307.83253,69.5477654 L3314.412,76.562 L3315.09285,75.9023212 L3315.22214,75.7720091 L3315.27005,75.7218069 C3315.64754,75.3186677 3316.28036,75.2978735 3316.6835,75.6753616 C3317.08664,76.0528498 3317.10744,76.6856732 3316.72995,77.0888123 L3316.59412,77.229453 L3315.48334,78.3117106 L3315.11869,78.6835027 L3315.11869,78.6835027 C3314.75199,79.075117 3314.14887,79.1033469 3313.74809,78.7679965 L3313.6594,78.6841538 L3306.53039,71.0838177 C3304.94484,69.4800806 3304.54783,66.9994779 3305.54933,64.9424143 C3306.89697,62.2593131 3310.10129,61.2152672 3312.69443,62.6333014 Z M3327.67403,67.7612978 C3328.05062,68.1049201 3328.10426,68.6702897 3327.8175,69.076119 L3327.7387,69.1740319 L3321.57964,75.9240319 C3321.21139,76.3276115 3320.59509,76.3564386 3320.19141,76.0105132 L3320.10223,75.9240319 L3317.2613,72.8105221 C3316.88904,72.4025481 3316.91799,71.7700455 3317.32597,71.3977879 C3317.70256,71.0541656 3318.27047,71.0524039 3318.6484,71.3750487 L3318.7387,71.4624583 L3320.84,73.766 L3326.2613,67.8259681 C3326.63356,67.4179941 3327.26606,67.3890402 3327.67403,67.7612978 Z" transform="translate(-3304 -58)"/>
</svg>
