<?xml version="1.0" encoding="UTF-8"?>
<svg width="24px" height="24px" viewBox="0 0 24 24" version="1.1" xmlns="http://www.w3.org/2000/svg" xmlns:xlink="http://www.w3.org/1999/xlink">
    <!-- Generator: Sketch 54.1 (76490) - https://sketchapp.com -->
    <title>bell copy 30</title>
    <desc>Created with Sketch.</desc>
    <g id="Icons" stroke="none" stroke-width="1" fill="none" fill-rule="evenodd">
        <path d="M11.9999499,6.75057244 C10.7574709,6.75057244 9.75020513,7.75768097 9.74994994,9.00064411 C9.74985438,10.0006441 8.24994979,10.0005723 8.24994995,9.00057233 C8.24995026,6.92950876 9.92888648,5.25057244 11.9999501,5.25057244 C14.0710136,5.25057275 15.7499499,6.92950898 15.7499499,9.00057256 C15.7499497,10.5894939 14.7485786,12.0059327 13.2504902,12.5359191 C12.9506952,12.6419128 12.7503248,12.9254375 12.75049,13.2438124 L12.75049,14.2500024 C12.75049,14.664216 12.4147035,15.0000024 12.00049,15.0000024 C11.5862764,15.0000024 11.25049,14.664216 11.25049,14.2500024 L11.2504901,13.2442016 C11.2499951,12.290258 11.8511039,11.439687 12.7503506,11.121755 C13.6491262,10.8037905 14.2499498,9.95392583 14.2499499,9.00057244 C14.2499499,7.75793608 13.2425864,6.75057263 11.9999499,6.75057244 Z M10.87495,17.625 C10.87495,17.0038608 11.3783354,16.5002941 11.999406,16.5000002 L11.99995,16.5 C12.6212705,16.5 13.12495,17.0036794 13.12495,17.625 C13.12495,18.2463206 12.6212706,18.75 11.99995,18.75 C11.3786294,18.75 10.87495,18.2463206 10.87495,17.625 Z M12,24 C5.372583,24 0,18.627417 0,12 C0,5.372583 5.372583,0 12,0 C18.627417,0 24,5.372583 24,12 C24,18.627417 18.627417,24 12,24 Z M12,22.5 C17.7989899,22.5 22.5,17.7989899 22.5,12 C22.5,6.20101013 17.7989899,1.5 12,1.5 C6.20101013,1.5 1.5,6.20101013 1.5,12 C1.5,17.7989899 6.20101013,22.5 12,22.5 Z" id="Shape" fill="#000000" fill-rule="nonzero"></path>
    </g>
</svg>