<svg xmlns="http://www.w3.org/2000/svg" width="25" height="24" viewBox="0 0 25 24">
  <path d="M12.5053858,7.13642956 C11.436979,7.13642956 10.5708302,8.00243851 10.5706032,9.07130773 C10.5704758,10.4046411 8.57060301,10.4045454 8.57060328,9.07043635 C8.57102275,6.89767658 10.3325282,5.13642956 12.505386,5.13642956 C14.6785022,5.13642989 16.4401684,6.898096 16.4401684,9.07121232 C16.4401682,10.7384282 15.3894543,12.2246623 13.8175086,12.7807776 C13.6306799,12.8468316 13.5058111,13.0235214 13.5059141,13.2222078 L13.5059141,14.2065241 C13.5059141,14.7588089 13.0581988,15.2065241 12.5059141,15.2065241 C11.9536293,15.2065241 11.5059141,14.7588089 11.5059141,14.2065241 L11.5059142,13.2227267 C11.5053714,12.1766155 12.1645583,11.2438638 13.1506558,10.8952254 C13.9235177,10.621806 14.4401683,9.89100413 14.4401684,9.07121217 C14.4401684,8.00266547 13.5739326,7.13642972 12.5053858,7.13642956 Z M11.138538,17.5081522 C11.138538,16.7534673 11.7501648,16.1416361 12.5059587,16.1413045 C13.2605848,16.141614 13.8722337,16.7534537 13.8722337,17.5081522 C13.8722337,18.2630416 13.2602753,18.875 12.5053859,18.875 C11.7504964,18.875 11.1385381,18.2630416 11.138538,17.5081522 Z M12.5,24 C5.872583,24 0.5,18.627417 0.5,12 C0.5,5.372583 5.872583,0 12.5,0 C19.127417,0 24.5,5.372583 24.5,12 C24.5,18.627417 19.127417,24 12.5,24 Z M12.5,22 C18.0228475,22 22.5,17.5228475 22.5,12 C22.5,6.4771525 18.0228475,2 12.5,2 C6.9771525,2 2.5,6.4771525 2.5,12 C2.5,17.5228475 6.9771525,22 12.5,22 Z"/>
</svg>
