<svg xmlns="http://www.w3.org/2000/svg" width="25" height="25" viewBox="0 0 25 25">
  <path d="M13,23 C6.92486775,23 2,18.0751323 2,12 C2,5.92486775 6.92486775,1 13,1 C19.0751323,1 24,5.92486775 24,12 C24,18.0751323 19.0751323,23 13,23 Z M13.0053858,7.13642956 C14.0739326,7.13642972 14.9401684,8.00266547 14.9401684,9.07121217 C14.9401683,9.89100413 14.4235177,10.621806 13.6506558,10.8952254 C12.6645583,11.2438638 12.0053714,12.1766155 12.0059142,13.2227267 L12.0059141,14.2065241 C12.0059141,14.7588089 12.4536293,15.2065241 13.0059141,15.2065241 C13.5581988,15.2065241 14.0059141,14.7588089 14.0059141,14.2065241 L14.0059141,13.2222078 C14.0058111,13.0235214 14.1306799,12.8468316 14.3175086,12.7807776 C15.8894543,12.2246623 16.9401682,10.7384282 16.9401684,9.07121232 C16.9401684,6.898096 15.1785022,5.13642989 13.005386,5.13642956 C10.8325282,5.13642956 9.07102275,6.89767658 9.07060328,9.07043635 C9.07060301,10.4045454 11.0704758,10.4046411 11.0706032,9.07130773 C11.0708302,8.00243851 11.936979,7.13642956 13.0053858,7.13642956 Z M11.638538,17.5081522 C11.6385381,18.2630416 12.2504964,18.875 13.0053859,18.875 C13.7602753,18.875 14.3722337,18.2630416 14.3722337,17.5081522 C14.3722337,16.7534537 13.7605848,16.141614 13.0059587,16.1413045 C12.2501648,16.1416361 11.638538,16.7534673 11.638538,17.5081522 Z"/>
</svg>
