<?xml version="1.0" encoding="UTF-8"?>
<svg width="25px" height="25px" viewBox="0 0 25 25" version="1.1" xmlns="http://www.w3.org/2000/svg" xmlns:xlink="http://www.w3.org/1999/xlink">
    <!-- Generator: Sketch 54.1 (76490) - https://sketchapp.com -->
    <title>bell copy 84</title>
    <desc>Created with Sketch.</desc>
    <g id="Icons" stroke="none" stroke-width="1" fill="none" fill-rule="evenodd">
        <path d="M13,1 C19.072,1 24,5.928 24,12 C24,18.072 19.072,23 13,23 C6.928,23 2,18.072 2,12 C2,5.928 6.928,1 13,1 Z M8.61165868,7.94884603 C8.40848046,8.60353136 8.90513833,9.26950437 9.59368673,9.26950437 L9.81944031,9.26950437 C10.2822351,9.26950437 10.6547285,8.94216171 10.812756,8.51322994 C11.1739618,7.50862658 12.2462912,6.82007821 13.4089222,7.06840713 C14.4812516,7.29416069 15.2713892,8.34391476 15.1810877,9.43881955 C15.0682109,10.9513684 13.3524838,11.2787111 12.4156064,12.6896709 C12.4156064,12.7009585 12.4043187,12.7009585 12.4043187,12.7122462 C12.3930311,12.7348216 12.3817434,12.7461093 12.3704557,12.7686846 C12.2688666,12.9379998 12.1672775,13.1298903 12.0882637,13.3330685 C12.0769761,13.3669316 12.0544007,13.3895069 12.043113,13.42337 C12.0318253,13.4459453 12.0318253,13.4685207 12.0205377,13.5023837 C11.8460378,13.9968 12.1053813,14.5390636 12.5997975,14.7135635 C12.7012882,14.7493837 12.8081311,14.7676851 12.9157575,14.7676851 L13.3770299,14.7676266 C13.7536298,14.7676266 14.085333,14.5198171 14.1921324,14.158678 C14.2507269,13.9605427 14.3094744,13.8095039 14.3683749,13.7055619 C14.3909502,13.6716989 14.4022379,13.6378358 14.4248132,13.6039728 C14.5151147,13.4459453 14.6279915,13.2992055 14.7408683,13.1637534 C14.7521559,13.1524657 14.7634436,13.1298903 14.7747313,13.1186026 C14.8876081,12.9831505 15.0117725,12.858986 15.1472247,12.7348216 C16.2308419,11.7076429 17.6982401,10.8723547 17.3934728,8.71640814 C17.1225685,6.75235214 15.5761565,5.09306344 13.6121004,4.79958381 C11.2868385,4.46095346 9.23248101,5.89448859 8.61165868,7.94884603 Z M13,19.25 C13.7597703,19.25 14.3756859,18.6340845 14.3756859,17.8743141 C14.3756859,17.1145438 13.7597703,16.4986283 13,16.4986283 C12.2402297,16.4986283 11.6243141,17.1145438 11.6243141,17.8743141 C11.6243141,18.6340845 12.2402297,19.25 13,19.25 Z" id="Shape" fill="#000000"></path>
    </g>
</svg>