<?xml version="1.0" encoding="UTF-8"?>
<svg width="25px" height="24px" viewBox="0 0 25 24" version="1.1" xmlns="http://www.w3.org/2000/svg" xmlns:xlink="http://www.w3.org/1999/xlink">
    <!-- Generator: Sketch 54.1 (76490) - https://sketchapp.com -->
    <title>bell copy 61</title>
    <desc>Created with Sketch.</desc>
    <g id="Icons" stroke="none" stroke-width="1" fill="none" fill-rule="evenodd">
        <path d="M12.2352451,18.6295526 C12.5108024,18.6146157 12.7864591,18.6071429 13.0622095,18.6071429 C16.5766842,18.6071427 20.0759144,19.8210229 23.5485228,22.2303136 C23.8888484,22.466431 23.9733258,22.9337303 23.7372084,23.2740558 C23.5010911,23.6143813 23.0337918,23.6988588 22.6934662,23.4627414 C19.4602187,21.219519 16.2535922,20.1071427 13.0622096,20.1071429 C9.87082696,20.107143 6.66420044,21.2195192 3.43095286,23.4627414 C3.09062731,23.6988588 2.62332803,23.6143813 2.38721068,23.2740558 C2.15109334,22.9337302 2.23557078,22.4664309 2.57589633,22.2303136 C5.2706782,20.3606781 7.98149145,19.21091 10.7030194,18.7896406 L9.19090248,14.4333037 L3.54830414,16.3969177 C3.38358894,16.4540877 3.21037247,16.482918 3.03602037,16.4821832 C2.18411536,16.4785939 1.49642015,15.7850778 1.50001402,14.9324193 C1.51367868,12.3146265 2.70914296,9.84309883 4.75293533,8.20726916 C5.33896096,7.73822033 5.96719001,7.35754548 6.62152265,7.06346209 L6.33844865,6.24520133 C6.2030277,5.85375013 6.41058122,5.42663586 6.80203242,5.29121491 C7.19348362,5.15579395 7.62059789,5.36334747 7.75601884,5.75479867 L8.03479669,6.56064089 L8.05293472,6.5663804 C11.243214,5.76481175 14.7526251,6.82295659 16.9428606,9.55942533 C17.0513885,9.69535367 17.1361444,9.84865833 17.1935419,10.0128531 C17.4746645,10.8170448 17.0506323,11.6968663 16.2454473,11.9783348 L10.6075724,13.9403051 L12.2352451,18.6295526 L12.2352451,18.6295526 Z M8.02767322,8.13169383 C7.99371706,8.14231996 7.95981703,8.15320791 7.92597612,8.164358 L7.67307547,8.54730827 C6.99385665,9.57580322 6.66459443,10.5234361 6.66459443,11.3937938 C6.66459443,12.2571437 6.76277585,13.0002714 6.95482249,13.6232236 L12.0287732,11.8574977 C11.7940468,11.2010335 11.3808383,10.5029326 10.7846776,9.76673545 C10.2369438,9.09034053 9.38469425,8.56110287 8.20958924,8.18925844 L8.02767322,8.13169383 L8.02767322,8.13169383 Z M10.9047097,7.84321704 C11.3072135,8.13308207 11.6561473,8.45938733 11.9503965,8.82275487 C12.6488027,9.68521469 13.1480629,10.5295723 13.4436712,11.3593965 L13.4454838,11.364485 L15.7516439,10.5619453 C15.7736914,10.5541244 15.785293,10.5299444 15.7775649,10.5078371 L15.7712167,10.4960415 C14.5206497,8.93358995 12.7497556,8.03282588 10.9047097,7.84321704 L10.9047097,7.84321704 Z M5.49676403,9.53885163 C3.92475614,10.8899673 3.01085649,12.8591968 2.99999714,14.939495 C2.99989817,14.9629793 3.01885597,14.9820975 3.04234106,14.9821965 C3.04714735,14.9822167 3.05192248,14.9814219 3.05588391,14.9800473 L5.53744932,14.1164669 C5.28736133,13.3283021 5.16459443,12.4207279 5.16459443,11.3937938 C5.16459443,10.7848373 5.27624373,10.1663627 5.49676403,9.53885163 L5.49676403,9.53885163 Z M22.5673155,1.87867991 C23.7388887,3.05025313 23.7388887,4.94974687 22.5673155,6.12132009 C21.3957423,7.2928933 19.4962486,7.2928933 18.3246753,6.12132009 C17.1531021,4.94974687 17.1531021,3.05025313 18.3246753,1.87867991 C19.4962486,0.707106695 21.3957423,0.707106695 22.5673155,1.87867991 Z M21.5066553,2.93934009 C20.9208686,2.3535533 19.9711223,2.3535533 19.3853355,2.93934009 C18.7995487,3.52512687 18.7995487,4.47487313 19.3853355,5.06065991 C19.9711223,5.6464467 20.9208686,5.6464467 21.5066553,5.06065991 C22.0924421,4.47487313 22.0924421,3.52512687 21.5066553,2.93934009 Z" id="Shape" fill="#000000" fill-rule="nonzero"></path>
    </g>
</svg>