<svg xmlns="http://www.w3.org/2000/svg" width="25" height="24" viewBox="0 0 25 24">
  <path d="M15.7376867,12.9984328 C14.9764562,12.9491437 14.5026439,12.6693389 13.973068,12.102062 C14.017072,12.1491987 13.680267,11.7812544 13.5922171,11.6927743 C13.5354234,11.6357032 13.4812058,11.5846402 13.4266707,11.5372013 C13.2654121,11.3969259 12.8868957,11.3811231 12.2550449,11.5850776 L11.0136245,13.4419309 C10.7834086,13.786276 10.317635,13.8787961 9.97328986,13.6485803 C9.62894477,13.4183644 9.53642472,12.9525908 9.76664055,12.6082457 L11.035677,10.7100857 C11.0763309,10.6008259 11.1421924,10.5013249 11.2290493,10.4208492 L13.7950428,6.58276707 C14.1971046,5.98138362 15.0106869,5.81912829 15.6130992,6.21959831 C15.757274,6.31544245 15.8810471,6.43886483 15.9772546,6.58276707 L18.725288,10.6931352 C18.762814,10.7270756 18.7974489,10.7653438 18.8284565,10.807825 C18.8722037,10.8677597 18.9057633,10.9320145 18.929458,10.9985222 L23.9191767,18.4618889 C24.322092,19.0645492 24.1587104,19.8791424 23.5550212,20.2804612 C23.3396444,20.4236389 23.086724,20.5 22.8280707,20.5 L14.8861487,20.5 C14.4719352,20.5 14.1361487,20.1642136 14.1361487,19.75 C14.1361487,19.3357864 14.4719352,19 14.8861487,19 L22.4745833,19 L17.9970589,12.3027474 C17.1690181,12.8033923 16.421534,13.0427113 15.7376867,12.9984328 Z M17.162279,11.0541262 L14.8861487,7.64960671 L13.3480372,9.95023538 C13.7558709,9.99683514 14.1116227,10.1449243 14.4111407,10.4054687 C14.4942743,10.4777848 14.574419,10.5532662 14.655459,10.6347022 C14.7694649,10.7492651 15.1345429,11.1480963 15.0695377,11.0784634 C15.3618094,11.3915421 15.5128426,11.4807332 15.8346075,11.5015672 C16.1628022,11.5228176 16.6099656,11.3797338 17.162279,11.0541262 Z M2.59203575,2.95190325 C3.86124008,1.68269892 5.91902492,1.68269892 7.18822925,2.95190325 C8.45743358,4.22110758 8.45743358,6.27889242 7.18822925,7.54809675 C5.91902492,8.81730108 3.86124008,8.81730108 2.59203575,7.54809675 C1.32283142,6.27889242 1.32283142,4.22110758 2.59203575,2.95190325 Z M6.12756908,6.48743658 C6.81098697,5.80401869 6.81098697,4.69598131 6.12756908,4.01256342 C5.44415119,3.32914553 4.33611381,3.32914553 3.65269592,4.01256342 C2.96927803,4.69598131 2.96927803,5.80401869 3.65269592,6.48743658 C4.33611381,7.17085447 5.44415119,7.17085447 6.12756908,6.48743658 Z M11.7165107,18.4217826 C12.1739225,18.9388569 12.1255566,19.7288339 11.6084824,20.1862457 C11.3799542,20.3884052 11.0853774,20.5 10.780265,20.5 L1.5,20.5 C0.809644063,20.5 0.25,19.9403559 0.25,19.25 C0.25,18.9448876 0.361594807,18.6503108 0.563754297,18.4217826 L5.2038868,13.1764155 C5.66129861,12.6593412 6.45127563,12.6109753 6.96834985,13.0683871 C7.02456663,13.1201987 7.02456663,13.1201987 7.0763782,13.1764155 L11.7165107,18.4217826 Z M2.05493375,19 L10.2253313,19 L6.1401325,14.3819492 L2.05493375,19 Z"/>
</svg>
