<svg xmlns="http://www.w3.org/2000/svg" width="24" height="24" viewBox="0 0 24 24">
  <path d="M11.2042272,8.87795887 C10.3968897,9.31317687 9.59098972,9.91588556 9.09174852,10.0756427 L9.09174852,2.81926841 C9.5464306,2.58778305 10.0252881,2.40723064 10.5196159,2.28089221 C10.9947258,2.15194433 11.4804207,2.06577255 11.9708908,2.02340795 L15.739524,8.32006826 C15.2023723,8.47047073 14.0538317,8.2855954 13.0361324,8.32664079 L15.6776753,17.2645707 C17.9932191,17.8173504 20.2982908,18.8916247 22.588825,20.480794 C23.0228635,20.7819293 23.1306028,21.3779054 22.8294675,21.8119439 C22.5283323,22.2459824 21.9323561,22.3537218 21.4983176,22.0525865 C18.3031267,19.8357677 15.1418873,18.7391362 12.0000895,18.7391363 C8.85829171,18.7391364 5.69705233,19.8357679 2.50186134,22.0525865 C2.06782281,22.3537218 1.4718467,22.2459824 1.17071143,21.8119439 C0.869576168,21.3779053 0.977315549,20.7819292 1.41135408,20.480794 C4.911817,18.0521782 8.44623215,16.8260923 12.0000895,16.8260922 C12.5261822,16.8260921 13.0518489,16.8529608 13.5770425,16.9066216 L11.2042272,8.87795887 L11.2042272,8.87795887 Z M7.92136567,10.0522349 C7.47753095,9.94342421 7.01829141,9.91175225 6.56372169,9.95860431 C5.90830723,10.1224579 5.25289278,11.0587643 4.62088598,11.2928409 C3.93236366,8.2422608 5.25858779,5.09130899 7.92136585,3.45127476 L7.92136567,10.0522349 Z M16.7226455,7.66465366 L13.3285349,2 C16.4655123,2.07167425 19.2025114,4.14802725 20.1167561,7.14968517 C19.4145263,7.2433158 18.4079969,6.77516262 17.7759901,6.93901624 C17.3743873,7.09787934 17.0141832,7.34601925 16.7226455,7.66465366 Z"/>
</svg>
