<svg xmlns="http://www.w3.org/2000/svg" width="24" height="24" viewBox="0 0 24 24">
  <path d="M11.0172903,17.5397234 C11.5476364,18.1761387 11.4616503,19.1219858 10.825235,19.6523319 C10.5556625,19.8769757 10.2158631,20 9.86495839,20 L2,20 C1.17157288,20 0.5,19.3284271 0.5,18.5 C0.5,18.1490952 0.623024329,17.8092959 0.847668081,17.5397234 L4.78014727,12.8207484 C5.3104934,12.184333 6.25634045,12.0983469 6.89275579,12.628693 C6.96245039,12.6867719 7.02673228,12.7510538 7.08481111,12.8207484 L11.0172903,17.5397234 Z M3.06752081,18 L8.79743758,18 L5.93247919,14.5620499 L3.06752081,18 Z M20.9738273,18 L14.56553,8.38755405 L11.4193297,13.1068545 C11.1129773,13.5663832 10.4921079,13.690557 10.0325793,13.3842046 C9.57305057,13.0778521 9.4488767,12.4569828 9.75522916,11.9974541 L13.3030594,6.67570877 C13.7678882,5.97846548 14.7099338,5.79005635 15.4071771,6.25488521 C15.5738561,6.36600453 15.7168814,6.50902979 15.8280007,6.67570877 L23.1382295,17.641052 C23.6030584,18.3382953 23.4146492,19.2803409 22.7174059,19.7451698 C22.4681627,19.9113319 22.1753119,20 21.8757588,20 L14.0482291,20 C13.4959444,20 13.0482291,19.5522847 13.0482291,19 C13.0482291,18.4477153 13.4959444,18 14.0482291,18 L20.9738273,18 Z M4.43247919,8 C3.32790969,8 2.43247919,7.1045695 2.43247919,6 C2.43247919,4.8954305 3.32790969,4 4.43247919,4 C5.53704869,4 6.43247919,4.8954305 6.43247919,6 C6.43247919,7.1045695 5.53704869,8 4.43247919,8 Z"/>
</svg>
