<?xml version="1.0" encoding="UTF-8"?>
<svg width="24px" height="24px" viewBox="0 0 24 24" version="1.1" xmlns="http://www.w3.org/2000/svg" xmlns:xlink="http://www.w3.org/1999/xlink">
    <!-- Generator: Sketch 54.1 (76490) - https://sketchapp.com -->
    <title>bell copy 60</title>
    <desc>Created with Sketch.</desc>
    <g id="Icons" stroke="none" stroke-width="1" fill="none" fill-rule="evenodd">
        <path d="M6.92209634,5.49584126 C10.2729184,2.74435973 14.9720097,2.47536996 18.5898764,4.68887195 C19.6698764,5.33887195 19.7898764,6.87887195 18.8998764,7.76887195 L17.6298764,9.03887195 C14.5022008,5.91119641 10.1263812,4.86043264 6.19863285,6.15597954 L6.18291975,6.1684884 C9.19249134,5.7899168 13.0709312,7.33992673 16.1998764,10.468872 L10.4698764,16.198872 C7.33987638,13.058872 5.78987638,9.18887195 6.16987638,6.17887195 L6.15794373,6.19472006 C4.86091847,10.1232166 5.91142388,14.5004244 9.02987638,17.628872 L7.75987638,18.898872 C6.86987638,19.798872 5.33987638,19.668872 4.67987638,18.588872 C2.47681817,14.9728819 2.74503615,10.2767886 5.49256247,6.92630739 L4.96167534,6.39542025 C4.57167534,6.00542025 4.57167534,5.36542025 4.96167534,4.96542025 C5.35167534,4.57542025 5.99167534,4.57542025 6.39167534,4.96542025 L6.92209634,5.49584126 L6.92209634,5.49584126 Z M13.3398764,14.768872 L14.7698764,13.338872 L20.4998764,19.068872 C20.8898764,19.458872 20.8898764,20.098872 20.4998764,20.498872 C20.1098764,20.888872 19.4698764,20.888872 19.0698764,20.498872 L13.3398764,14.768872 L13.3398764,14.768872 Z" id="Shape" fill="#000000"></path>
    </g>
</svg>