<svg xmlns="http://www.w3.org/2000/svg" width="24" height="24" viewBox="0 0 24 24">
  <path d="M13.9740004,17.1182985 L11.237656,9.98987755 C10.9836898,10.1982858 10.7651367,10.4584878 10.5992337,10.7653443 C10.535747,10.8827708 10.4813724,11.0048981 10.4365888,11.1306506 C10.2308899,11.7082547 9.5585904,11.9664194 9.01916332,11.6749457 L8.77431431,11.5426406 C7.76229611,10.9990886 6.50125101,11.3788573 5.95770025,12.3908758 C5.87970393,12.5360941 5.81924678,12.6900685 5.77760082,12.8495594 C5.69615397,13.1614751 5.469332,13.4149968 5.1683642,13.5305104 C4.64292974,13.7321761 4.06080979,13.4694514 3.8667361,12.9481941 C2.17835014,8.41340443 4.48581087,3.36852641 9.02059972,1.68014314 C13.4907407,0.0158313161 18.4709376,2.23315743 20.2252129,6.66875826 C20.5845868,7.57741783 19.561405,8.4091266 18.7453171,7.87171385 C17.7859083,7.23992087 16.4959789,7.50550755 15.8641877,8.46492088 C15.7735296,8.60258979 15.6995577,8.75054785 15.6446764,8.90331309 L15.5504011,9.16783719 C15.3445629,9.74539199 14.6722007,10.0033947 14.1328438,9.71179052 C13.8208761,9.54312465 13.4897821,9.44460819 13.1576746,9.41084075 L16.3077939,17.583075 C18.4450587,18.1704707 20.572767,19.2004928 22.6876077,20.6677661 C23.141375,20.9825893 23.2540116,21.605655 22.9391885,22.0594224 C22.6243653,22.5131898 22.0012996,22.6258263 21.5475322,22.3110032 C18.3541781,20.0954588 15.1963189,18.9999999 12.058785,19 C8.92125104,19.0000001 5.76339179,20.095459 2.57003769,22.3110032 C2.11627029,22.6258263 1.49320458,22.5131897 1.17838145,22.0594223 C0.863558333,21.605655 0.97619492,20.9825892 1.42996231,20.6677661 C4.94246424,18.2307977 8.49046164,17.0000001 12.0587849,17 C12.6978711,17 13.3363053,17.03948 13.9740004,17.1182985 Z M9.03329267,9.48865054 C10.1301032,7.80256547 12.1833296,7.04616561 14.0778062,7.55194245 C14.114771,7.48862165 14.1534587,7.42626982 14.1938336,7.36495851 C14.9093575,6.27839212 16.0552309,5.64551152 17.2582005,5.5431656 C15.5511512,3.50882326 12.7430988,2.61458693 10.1011817,3.42462345 C9.97316202,3.4638755 9.70812133,3.14571538 9.581026,3.1930352 C9.41050428,3.25652349 9.38147461,3.6875756 9.21927272,3.76301843 C6.71817952,4.92631896 5.22493831,7.46976656 5.31840167,10.1277939 C6.36129949,9.33509287 7.74950735,9.07675186 9.03329267,9.48865054 Z M7.94624563,2.39967169 L7.7319688,1.84381272 C7.53331857,1.32849095 7.79003157,0.749702278 8.30535334,0.551052041 C8.82067511,0.352401805 9.39946378,0.609114806 9.59811402,1.12443658 L9.74507904,1.5056809 C11.758287,1.60423721 14.0263564,4.53452154 15.5401235,8.47801969 C15.7380447,8.99362192 15.4805133,9.57204691 14.9649111,9.76996807 C14.4493088,9.96788922 13.8708838,9.71035782 13.6729627,9.19475559 C12.328135,5.6913596 10.2588609,3.2627603 9.62700507,3.50562326 C8.99392834,3.74895548 9.08085037,6.93783533 10.4261757,10.4409154 C10.6241762,10.9564872 10.3667339,11.5349518 9.85116213,11.7329524 C9.33559038,11.9309529 8.75712575,11.6735106 8.55912521,11.1579388 C7.14196857,7.4678178 6.81045983,3.99461312 7.94624563,2.39967169 Z"/>
</svg>
