<svg xmlns="http://www.w3.org/2000/svg" width="24" height="24" viewBox="0 0 24 24">
  <path d="M2509,77.9641374 C2509,79.0885133 2508.10457,80 2507,80 L2503.25,80 C2501.45507,80 2500,78.5188341 2500,76.6917233 L2500,69.7570513 C2500,68.5684134 2500.51025,67.4391224 2501.39683,66.6655671 L2508.04763,60.7351807 C2509.1711,59.7549398 2510.8289,59.7549398 2511.95237,60.7351807 L2518.60317,66.6655671 C2519.48975,67.4391224 2520,68.5684134 2520,69.7570513 L2520,76.6917233 C2520,78.5188341 2518.54493,80 2516.75,80 L2513,80 C2511.89543,80 2511,79.0885133 2511,77.9641374 L2511,74.04 L2509,74.04 L2509,77.9641374 Z M2502.69842,68.2113092 C2502.25513,68.5980868 2502,69.1627323 2502,69.7570513 L2502,76.6917233 C2502,77.3944582 2502.55964,77.9641374 2503.25,77.9641374 L2507,77.9641374 L2507,73.53 C2507,72.6867181 2507.67157,72 2508.5,72 L2511.5,72 C2512.32843,72 2513,72.6867181 2513,73.53 L2513,77.9641374 L2516.75,77.9641374 C2517.44036,77.9641374 2518,77.3944582 2518,76.6917233 L2518,69.7570513 C2518,69.1627323 2517.74487,68.5980868 2517.30158,68.2113092 L2510.65079,62.2809228 C2510.2763,61.9541759 2509.7237,61.9541759 2509.34921,62.2809228 L2502.69842,68.2113092 Z" transform="translate(-2498 -58)"/>
</svg>
