<svg xmlns="http://www.w3.org/2000/svg" width="24" height="24" viewBox="0 0 24 24">
  <path d="M9.98414776,3.77847663 C11.1277652,2.74085998 12.8722348,2.74085998 14.0158522,3.77847663 L19.687803,8.92469992 C20.5234458,9.68288785 21,10.7587447 21,11.8870833 L21,17.501177 C21,19.4341736 19.4329966,21.001177 17.5,21.001177 L6.5,21.001177 C4.56700338,21.001177 3,19.4341736 3,17.501177 L3,11.8870833 C3,10.7587447 3.47655418,9.68288785 4.31219701,8.92469992 L9.98414776,3.77847663 Z M5.65609851,10.4058916 C5.23827709,10.7849856 5,11.322914 5,11.8870833 L5,17.501177 C5,18.3296041 5.67157288,19.001177 6.5,19.001177 L17.5,19.001177 C18.3284271,19.001177 19,18.3296041 19,17.501177 L19,11.8870833 C19,11.322914 18.7617229,10.7849856 18.3439015,10.4058916 L12.6719507,5.2596683 C12.2907449,4.91379608 11.7092551,4.91379608 11.3280493,5.2596683 L5.65609851,10.4058916 Z"/>
</svg>
