<svg width="24" height="24" viewBox="0 0 24 24" xmlns="http://www.w3.org/2000/svg"><path d="M2508,77.9641374 C2508,79.0885133 2507.10457,80 2506,80 L2503.25,80 C2501.45507,80 2500,78.5188341 2500,76.6917233 L2500,69.7570513 C2500,68.5684134 2500.51025,67.4391224 2501.39683,66.6655671 L2508.04763,60.7351807 C2509.1711,59.7549398 2510.8289,59.7549398 2511.95237,60.7351807 L2518.60317,66.6655671 C2519.48975,67.4391224 2520,68.5684134 2520,69.7570513 L2520,76.6917233 C2520,78.5188341 2518.54493,80 2516.75,80 L2514,80 C2512.89543,80 2512,79.0885133 2512,77.9641374 L2512,74 C2512,73.4477153 2511.55228,73 2511,73 L2509,73 C2508.44772,73 2508,73.4477153 2508,74 L2508,77.9641374 Z" transform="translate(-2498 -58)"/></svg>