<svg xmlns="http://www.w3.org/2000/svg" width="24" height="24" viewBox="0 0 24 24">
  <path d="M2509,77.0029222 C2509,78.1074917 2508.10457,79.0029222 2507,79.0029222 L2504.25,79.0029222 C2502.45507,79.0029222 2501,77.5478477 2501,75.7529222 L2501,69.9227921 C2501,68.7550925 2501.51025,67.6456944 2502.39683,66.8857657 L2508.04763,62.0422302 C2509.1711,61.0792566 2510.8289,61.0792566 2511.95237,62.0422302 L2517.60317,66.8857657 C2518.48975,67.6456944 2519,68.7550925 2519,69.9227921 L2519,75.7529222 C2519,77.5478477 2517.54493,79.0029222 2515.75,79.0029222 L2513,79.0029222 C2511.89543,79.0029222 2511,78.1074917 2511,77.0029222 L2511,75.0029222 L2509,75.0029222 L2509,77.0029222 Z M2503.69842,68.4042789 C2503.25513,68.7842433 2503,69.3389423 2503,69.9227921 L2503,75.7529222 C2503,76.4432782 2503.55964,77.0029222 2504.25,77.0029222 L2507,77.0029222 L2507,74.5029222 C2507,73.6744951 2507.67157,73.0029222 2508.5,73.0029222 L2511.5,73.0029222 C2512.32843,73.0029222 2513,73.6744951 2513,74.5029222 L2513,77.0029222 L2515.75,77.0029222 C2516.44036,77.0029222 2517,76.4432782 2517,75.7529222 L2517,69.9227921 C2517,69.3389423 2516.74487,68.7842433 2516.30158,68.4042789 L2510.65079,63.5607434 C2510.2763,63.2397522 2509.7237,63.2397522 2509.34921,63.5607434 L2503.69842,68.4042789 Z" transform="translate(-2498 -58)"/>
</svg>
