<svg xmlns="http://www.w3.org/2000/svg" width="24" height="24" viewBox="0 0 24 24">
  <path d="M9,15.5 C9,14.9477153 9.44771525,14.5 10,14.5 L14,14.5 C14.5522847,14.5 15,14.9477153 15,15.5 L15,20.5 C15.8888889,20.5 16.5555556,20.5 17,20.5 C17.4444444,20.5 18.1111111,20.5 19,20.5 C19.5522847,20.5 20,20.0401728 20,19.4851553 L20,10.4356351 C20,9.8044203 19.7049289,9.20987197 19.2031985,8.83013364 L12.6015992,3.71209403 C12.2453938,3.44249732 11.7546062,3.44249732 11.3984008,3.71209403 L4.79680151,8.83013364 C4.29507106,9.20987197 4,9.8044203 4,10.4356351 L4,19.4851553 C4,20.0401728 4.44771525,20.5 5,20.5 L9,20.5 L9,15.5 Z M10.1952023,2.10659259 C11.2638187,1.29780247 12.7361813,1.29780247 13.8047977,2.10659259 L20.406397,7.2246322 C21.4098579,7.98410886 22,9.17320553 22,10.4356351 L22,19.4851553 C22,21.150208 20.6568542,22.5 19,22.5 L5,22.5 C3.34314575,22.5 2,21.150208 2,19.4851553 L2,10.4356351 C2,9.17320553 2.59014212,7.98410886 3.59360303,7.2246322 L10.1952023,2.10659259 Z"/>
</svg>
