<svg xmlns="http://www.w3.org/2000/svg" width="24" height="24" viewBox="0 0 24 24">
  <path d="M2509,76.9641374 C2509,78.0885133 2508.10457,79 2507,79 L2504.25,79 C2502.45507,79 2501,77.5188341 2501,75.6917233 L2501,69.7570513 C2501,68.5684134 2501.51025,67.4391224 2502.39683,66.6655671 L2508.04763,61.7351807 C2509.1711,60.7549398 2510.8289,60.7549398 2511.95237,61.7351807 L2517.60317,66.6655671 C2518.48975,67.4391224 2519,68.5684134 2519,69.7570513 L2519,75.6917233 C2519,77.5188341 2517.54493,79 2515.75,79 L2513,79 C2511.89543,79 2511,78.0885133 2511,76.9641374 L2511,74.04 L2509,74.04 L2509,76.9641374 Z M2503.69842,68.2113092 C2503.25513,68.5980868 2503,69.1627323 2503,69.7570513 L2503,75.6917233 C2503,76.3944582 2503.55964,76.9641374 2504.25,76.9641374 L2507,76.9641374 L2507,73.53 C2507,72.6867181 2507.67157,72 2508.5,72 L2511.5,72 C2512.32843,72 2513,72.6867181 2513,73.53 L2513,76.9641374 L2515.75,76.9641374 C2516.44036,76.9641374 2517,76.3944582 2517,75.6917233 L2517,69.7570513 C2517,69.1627323 2516.74487,68.5980868 2516.30158,68.2113092 L2510.65079,63.2809228 C2510.2763,62.9541759 2509.7237,62.9541759 2509.34921,63.2809228 L2503.69842,68.2113092 Z" transform="translate(-2498 -58)"/>
</svg>
