<svg xmlns="http://www.w3.org/2000/svg" width="24" height="24" viewBox="0 0 24 24">
  <path d="M9,16 C9,15.4477153 9.44771525,15 10,15 L14,15 C14.5522847,15 15,15.4477153 15,16 L15,21 C15.8888889,21 16.5555556,21 17,21 C17.4444444,21 18.1111111,21 19,21 C19.5522847,21 20,20.5401728 20,19.9851553 L20,9.93563507 C20,9.3044203 19.7049289,8.70987197 19.2031985,8.33013364 L12.6015992,3.21209403 C12.2453938,2.94249732 11.7546062,2.94249732 11.3984008,3.21209403 L4.79680151,8.33013364 C4.29507106,8.70987197 4,9.3044203 4,9.93563507 L4,19.9851553 C4,20.5401728 4.44771525,21 5,21 L9,21 L9,16 Z M10.1952023,1.60659259 C11.2638187,0.797802469 12.7361813,0.797802469 13.8047977,1.60659259 L20.406397,6.7246322 C21.4098579,7.48410886 22,8.67320553 22,9.93563507 L22,19.9851553 C22,21.650208 20.6568542,23 19,23 L5,23 C3.34314575,23 2,21.650208 2,19.9851553 L2,9.93563507 C2,8.67320553 2.59014212,7.48410886 3.59360303,6.7246322 L10.1952023,1.60659259 Z"/>
</svg>
