<svg xmlns="http://www.w3.org/2000/svg" width="24" height="24" viewBox="0 0 24 24">
  <path d="M21.6187799,14.6187225 L21.3634697,14.6843638 L21.4822753,14.9203795 C21.7854699,15.5266688 21.8763455,16.1788558 21.757462,16.8070897 C21.6547731,17.3497437 21.1316193,17.706406 20.5889652,17.6037171 C20.0463112,17.5010282 19.6896489,16.9778744 19.7923378,16.4352203 C19.8298256,16.2371178 19.800939,16.0298076 19.6946657,15.8172881 L19.5344548,15.4990186 C19.4733707,15.3769072 19.4254337,15.2486506 19.3914505,15.1164083 C19.1264844,14.085313 19.7475508,13.034647 20.7785297,12.7697095 L21.120997,12.6816597 C22.0753633,12.4365289 22.1221839,11.0957627 21.1870171,10.7845809 L20.8518626,10.6729683 C20.7223163,10.629844 20.597718,10.5730778 20.4801626,10.5036236 C19.5635918,9.96208901 19.2595601,8.780063 19.8010356,7.86358591 L19.9809449,7.55900257 C20.4833505,6.70933787 19.5689723,5.72878732 18.6883144,6.1686657 L18.3700449,6.32887652 C18.2479335,6.38996061 18.119677,6.43789768 17.9874347,6.47188089 C16.9563394,6.73684698 15.9056733,6.11578053 15.6407359,5.08480172 L15.552686,4.74233437 C15.3075552,3.78796805 13.9667889,3.74114747 13.6556071,4.67631435 L13.5439945,5.01146886 C13.5008701,5.14101509 13.4441039,5.26561346 13.3746498,5.38316868 C12.8331154,6.29973966 11.6510893,6.6037714 10.7346123,6.06229596 L10.4302131,5.88249557 C9.58098552,5.38059359 8.60007566,6.29488378 9.03969201,7.17501708 L9.19990283,7.49328659 C9.26098692,7.61539797 9.30892399,7.74365453 9.3429067,7.87589489 C9.60787517,8.9069909 8.98680741,9.95765802 7.95582808,10.2225956 L7.61336073,10.3106454 C7.45185636,10.3521281 7.31878573,10.4197251 7.21078739,10.5094549 C6.78599104,10.8623947 6.15551131,10.8041435 5.80257151,10.3793471 C5.44963171,9.95455079 5.50788295,9.32407106 5.93267931,8.97113126 C6.26941178,8.69135886 6.6693578,8.48819511 7.11557789,8.37358266 L7.37088831,8.30794123 L7.25187209,8.0715048 C5.92011391,5.40529306 8.88217209,2.64440664 11.4475854,4.16059153 L11.6746931,4.29473789 L11.7579865,4.04462135 C12.6988995,1.21697944 16.7484333,1.35839224 17.4897488,4.24455152 L17.5553903,4.49986201 L17.7918267,4.38084577 C20.4583355,3.04893923 23.220043,6.01050784 21.70274,8.5765591 L21.5685935,8.80366691 L21.81871,8.88696032 C24.646352,9.82787311 24.5049391,13.877407 21.6187799,14.6187225 Z M11.6464115,4.37966295 L11.6527325,4.36581888 C11.6730664,4.33140275 11.7174484,4.31998716 11.7518651,4.34032131 L11.6746931,4.29473789 L11.6464115,4.37966295 Z M1.93199687,20.1767944 C1.7314314,20.6913738 1.15169196,20.9459324 0.637112577,20.7453669 C0.122533196,20.5448015 -0.132025381,19.965062 0.0685400831,19.4504826 C1.84064432,14.9038958 4.12993304,12.5056311 7.02164314,12.5056311 C8.6576278,12.5056311 9.68885326,12.843842 10.7336415,13.6588479 C11.089841,13.9367077 12.3636275,15.1011229 12.5497857,15.2618012 C13.4155898,16.0091008 14.3244811,16.6758293 15.5016082,17.3845839 C17.6519848,18.6793372 20.1718347,19.4948351 23.0705241,19.8273714 C23.6192101,19.8903164 24.012981,20.3861413 23.950036,20.9348274 C23.887091,21.4835134 23.3912661,21.8772843 22.84258,21.8143393 C19.6689682,21.450264 16.8749746,20.5460451 14.4699655,19.0979763 C13.1920414,18.3285313 12.19193,17.5948871 11.2429871,16.7758281 C11.0046624,16.5701235 9.78646034,15.45652 9.50351119,15.2358005 C8.81843562,14.7013949 8.22153988,14.5056311 7.02164314,14.5056311 C5.16304811,14.5056311 3.43808704,16.3127047 1.93199687,20.1767944 Z M16.7383493,14.9251513 C16.347825,15.3156756 15.71466,15.3156756 15.3241357,14.9251513 C14.9336114,14.534627 14.9336114,13.9014621 15.3241357,13.5109378 C15.9270077,12.9080658 15.9270077,11.9306173 15.3241357,11.3277453 C14.7212638,10.7248734 13.7438152,10.7248734 13.1409433,11.3277453 C12.9977375,11.470951 12.8867234,11.6364061 12.8102355,11.8174335 C12.5952833,12.3261711 12.0086168,12.5643312 11.4998791,12.349379 C10.9911415,12.1344268 10.7529814,11.5477603 10.9679336,11.0390226 C11.1443692,10.6214441 11.4003905,10.2398709 11.7267297,9.91353174 C13.1106502,8.52961121 15.3544287,8.52961121 16.7383493,9.91353174 C18.1222698,11.2974523 18.1222698,13.5412308 16.7383493,14.9251513 Z"/>
</svg>
