<?xml version="1.0" encoding="UTF-8"?>
<svg width="24px" height="24px" viewBox="0 0 24 24" version="1.1" xmlns="http://www.w3.org/2000/svg" xmlns:xlink="http://www.w3.org/1999/xlink">
    <!-- Generator: Sketch 54.1 (76490) - https://sketchapp.com -->
    <title>bell copy 36</title>
    <desc>Created with Sketch.</desc>
    <g id="Icons" stroke="none" stroke-width="1" fill="none" fill-rule="evenodd">
        <path d="M1.95963505,13 L8.99999997,12.9999999 C9.41421356,13 9.75,13.3357864 9.75,13.75 C9.75,14.9926364 10.7573636,16 12,15.9999999 C13.2426364,16 14.25,14.9926364 14.25,13.75 C14.25,13.3357864 14.5857864,13 15,12.9999999 L22.0524011,12.9999999 L20.1118399,5.37233407 C20.0538862,5.15288371 19.8553869,5 19.6284131,5 L4.39928397,5 C4.17231021,5 3.97381086,5.15288371 3.91573194,5.37280818 L1.95963505,13 Z M2.46557702,4.98933628 C2.69739154,4.11153482 3.49138895,3.5 4.39928397,3.5 L19.6284131,3.5 C20.5363081,3.5 21.3303055,4.11153482 21.5621201,4.98933628 L23.9130848,13.9956015 C23.9693559,14.1532322 24,14.3230374 24,14.5 L24,19 C23.9999999,19.8284274 23.3284275,20.4999999 22.5,20.5 L1.49999997,20.5 C0.671572409,20.4999999 -1.57872591e-07,19.8284274 -3.27834186e-08,19 L-3.27834186e-08,14.5 C-3.27834186e-08,14.3369909 0.0260019684,14.1800551 0.0740845843,14.0331138 L2.46557702,4.98933628 Z M22.5,14.4999999 L15.674986,14.5 C15.327532,16.2116776 13.8142143,17.5 12,17.4999999 C10.1857857,17.5 8.67246798,16.2116776 8.325014,14.5 L1.49999997,14.4999999 L1.49999997,18.9999999 L22.5,18.9999999 L22.5,14.4999999 Z" id="Shape" fill="#000000" fill-rule="nonzero"></path>
    </g>
</svg>