<?xml version="1.0" encoding="UTF-8"?>
<svg width="25px" height="25px" viewBox="0 0 25 25" version="1.1" xmlns="http://www.w3.org/2000/svg" xmlns:xlink="http://www.w3.org/1999/xlink">
    <!-- Generator: Sketch 54.1 (76490) - https://sketchapp.com -->
    <title>bell copy 78</title>
    <desc>Created with Sketch.</desc>
    <g id="Icons" stroke="none" stroke-width="1" fill="none" fill-rule="evenodd">
        <path d="M12.9980621,13.4770692 C15.6341052,10.8410262 19.9079689,10.8410258 22.5440023,13.4770692 C25.1800457,16.1131126 25.1800457,20.3869772 22.5440023,23.0230094 C19.9079589,25.6590528 15.6340943,25.6590528 12.9980621,23.0230094 C10.3620187,20.386966 10.3620187,16.1131014 12.9980621,13.4770692 Z M21.4833433,21.9623481 C23.5335987,19.9121014 23.5335987,16.587986 21.483341,14.5377283 C19.4330943,12.4874728 16.1089789,12.4874728 14.0587212,14.5377305 C12.0084657,16.5879772 12.0084657,19.9120926 14.0587234,21.9623504 C16.1089702,24.0126058 19.4330855,24.0126058 21.4833433,21.9623481 Z M8.52107216,20.4999995 C8.93528575,20.4999993 9.27107221,20.8357857 9.27107222,21.2499993 C9.27107224,21.6642129 8.93528581,21.9999993 8.52107216,21.9999995 L2.77107192,21.9999995 C1.52843149,21.9999992 0.521072156,20.9926398 0.521072156,19.7499995 L0.521072156,3.24999966 C0.521071969,2.00735906 1.52843154,0.999999547 2.77107216,0.999999547 L13.4002323,0.999999564 C13.9965528,1.00012685 14.5684351,1.23697246 14.9904022,1.65866946 L17.8625719,4.53083928 C18.2840991,4.95263642 18.5209446,5.52451859 18.5210721,6.12099953 L18.5210722,9.24999953 C18.5210722,9.66421309 18.1852857,9.99999954 17.7710722,9.99999955 C17.3568586,9.99999956 17.0210722,9.66421313 17.0210722,9.24999957 L17.0210721,6.12115991 C17.0210296,5.9223863 16.9420809,5.73175852 16.801742,5.59132963 L13.9299118,2.7194994 C13.789313,2.57899062 13.5986853,2.50004196 13.4000722,2.49999955 L2.77107216,2.49999955 C2.35685868,2.49999955 2.02107209,2.83578612 2.02107216,3.24999955 L2.02107216,19.7499995 C2.02107216,20.1642128 2.3568588,20.4999994 2.77107213,20.4999995 L8.52107216,20.4999995 Z M4.27107222,7.99999932 C3.85685866,7.99999932 3.52107222,7.66421288 3.52107222,7.24999932 C3.52107222,6.83578576 3.85685866,6.49999932 4.27107222,6.49999932 L14.2710722,6.49999932 C14.6852858,6.49999932 15.0210722,6.83578576 15.0210722,7.24999932 C15.0210722,7.66421288 14.6852858,7.99999932 14.2710722,7.99999932 L4.27107222,7.99999932 Z M4.27107222,14.9999993 C3.85685866,14.9999993 3.52107222,14.6642129 3.52107222,14.2499993 C3.52107222,13.8357858 3.85685866,13.4999993 4.27107222,13.4999993 L8.02107222,13.4999993 C8.43528578,13.4999993 8.77107222,13.8357858 8.77107222,14.2499993 C8.77107222,14.6642129 8.43528578,14.9999993 8.02107222,14.9999993 L4.27107222,14.9999993 Z M4.27107222,11.4999993 C3.85685866,11.4999993 3.52107222,11.1642129 3.52107222,10.7499993 C3.52107222,10.3357858 3.85685866,9.99999932 4.27107222,9.99999932 L10.2710722,9.99999932 C10.6852858,9.99999932 11.0210722,10.3357858 11.0210722,10.7499993 C11.0210722,11.1642129 10.6852858,11.4999993 10.2710722,11.4999993 L4.27107222,11.4999993 Z M18.5205877,14.8314047 C19.1113736,14.9809386 19.6430133,15.3265394 20.0209706,15.8236877 C20.2716567,16.153429 20.2075698,16.6239585 19.8778285,16.8746445 C19.5480871,17.1253306 19.0775577,17.0612437 18.8268716,16.7315024 C18.584791,16.4130803 18.20241,16.2330034 17.7723656,16.2498172 C17.1352867,16.2498172 16.6894767,16.5841001 16.6894767,16.8749284 C16.6894767,17.1661101 17.1356021,17.5009284 17.7723656,17.5009284 C19.1588645,17.5009284 20.3525878,18.3974226 20.3525878,19.6251506 C20.3525878,20.6286266 19.5535858,21.4112294 18.5205877,21.6634723 L18.5205877,21.916706 C18.5205877,22.3309195 18.1848012,22.666706 17.7705877,22.666706 C17.3563741,22.666706 17.0205877,22.3309195 17.0205877,21.916706 L17.0205877,21.6683806 C16.4300807,21.5187689 15.8986526,21.1734552 15.5205258,20.676813 C15.2696067,20.3472489 15.333361,19.8766743 15.6629251,19.6257552 C15.9924892,19.3748361 16.4630638,19.4385905 16.7139829,19.7681546 C16.956451,20.0866189 17.3390175,20.2667838 17.76881,20.2502617 C18.4062198,20.2502617 18.8525878,19.915523 18.8525878,19.6251506 C18.8525878,19.3343694 18.4085957,19.0009284 17.7723656,19.0009284 C16.3854681,19.0009284 15.1894767,18.103334 15.1894767,16.8749284 C15.1894767,15.8710163 15.988162,15.0886592 17.0205877,14.8365576 L17.0205877,14.5833727 C17.0205877,14.1691591 17.3563741,13.8333727 17.7705877,13.8333727 C18.1848012,13.8333727 18.5205877,14.1691591 18.5205877,14.5833727 L18.5205877,14.8314047 Z" id="Shape" fill="#000000" fill-rule="nonzero"></path>
    </g>
</svg>