<svg xmlns="http://www.w3.org/2000/svg" width="24" height="25" viewBox="0 0 24 25">
  <path d="M6,8 C5.44771525,8 5,7.55228475 5,7 C5,6.44771525 5.44771525,6 6,6 L12.5,6 C13.0522847,6 13.5,6.44771525 13.5,7 C13.5,7.55228475 13.0522847,8 12.5,8 L6,8 Z M6,12 C5.44771525,12 5,11.5522847 5,11 C5,10.4477153 5.44771525,10 6,10 L9,10 C9.55228475,10 10,10.4477153 10,11 C10,11.5522847 9.55228475,12 9,12 L6,12 Z M12,19 C12.5522847,19 13,19.4477153 13,20 C13,20.5522847 12.5522847,21 12,21 L3,21 C1.61928812,20.9999996 0.5,19.8807115 0.5,18.5 L0.5,3 C0.499999792,1.61928834 1.61928819,0.5 3,0.5 L13.6292135,0.500000023 C14.2917919,0.500141457 14.9272166,0.763303223 15.396884,1.23267135 L18.0457154,4.0323214 C18.43581,4.42327497 18.4351136,5.05643957 18.04416,5.44653411 C17.6532065,5.83662865 17.0200419,5.83593227 16.6299473,5.44497869 L13.9821196,2.64633313 C13.8883872,2.55266076 13.7613019,2.50002826 13.629,2.5 L3,2.5 C2.72385772,2.5 2.49999996,2.72385775 2.5,3 L2.5,18.5 C2.5,18.7761421 2.72385786,18.9999999 3,19 L12,19 Z M23.068066,11.9443905 C23.4023142,12.3840456 23.3168649,13.0114182 22.8772098,13.3456663 C22.4375547,13.6799144 21.8101821,13.5944652 21.475934,13.15481 C20.9709776,12.4906129 20.1733708,12.1149913 19.2992,12.1496003 C17.9774684,12.1496003 17,12.8825379 17,13.6248003 C17,14.367613 17.9779946,15.1016003 19.2992,15.1016003 C21.6198353,15.1016003 23.5936,16.5839108 23.5936,18.5752003 C23.5936,20.2792804 22.1449678,21.6115664 20.2968,21.9601283 L20.2968,22.7 C20.2968,23.2522847 19.8490847,23.7 19.2968,23.7 C18.7445153,23.7 18.2968,23.2522847 18.2968,22.7 L18.2968,21.9724966 C17.2044101,21.7640277 16.2125171,21.1600146 15.5243617,20.2561723 C15.1898029,19.8167535 15.2748087,19.1893207 15.7142275,18.8547619 C16.1536463,18.5202031 16.7810791,18.605209 17.1156379,19.0446277 C17.6212502,19.708713 18.4190074,20.0844067 19.2928,20.0504003 C20.6151324,20.0504003 21.5936,19.3166314 21.5936,18.5752003 C21.5936,17.8331732 20.6194769,17.1016003 19.2992,17.1016003 C16.9778159,17.1016003 15,15.6172448 15,13.6248003 C15,11.9194179 16.448837,10.5873727 18.2968,10.2395125 L18.2968,9.5 C18.2968,8.94771525 18.7445153,8.5 19.2968,8.5 C19.8490847,8.5 20.2968,8.94771525 20.2968,9.5 L20.2968,10.2273596 C21.3889909,10.4358411 22.3806125,11.0401447 23.068066,11.9443905 Z"/>
</svg>
