<?xml version="1.0" encoding="UTF-8"?>
<svg width="24px" height="24px" viewBox="0 0 24 24" version="1.1" xmlns="http://www.w3.org/2000/svg" xmlns:xlink="http://www.w3.org/1999/xlink">
    <title>indicator-g</title>
    <g id="Icons" stroke="none" stroke-width="1" fill="none" fill-rule="evenodd">
        <g transform="translate(-2172.000000, -8.000000)" fill="#000000" fill-rule="nonzero" id="Shape">
            <path d="M2191.07106,12.9289374 C2194.97631,16.8341849 2194.97631,23.165837 2191.07106,27.0710633 C2187.16581,30.9763119 2180.83416,30.9763119 2176.92894,27.0710633 C2173.02369,23.1658147 2173.02369,16.8341626 2176.92894,12.9289363 C2180.83418,9.02368772 2187.16584,9.02368772 2191.07106,12.9289374 Z M2188.45119,16.7126905 C2188.67955,16.0276254 2188.06971,15.3742904 2187.38974,15.5207462 L2187.28731,15.548809 L2181.91989,17.3379489 C2181.68439,17.4164504 2181.49234,17.5860653 2181.3846,17.8059483 L2181.33795,17.9198897 L2179.54881,23.2873095 C2179.32045,23.9723746 2179.93029,24.6257096 2180.61026,24.4792538 L2180.71269,24.451191 L2186.08011,22.6620511 C2186.31561,22.5835496 2186.50766,22.4139347 2186.6154,22.1940517 L2186.66205,22.0801103 L2188.45119,16.7126905 Z M2184.935,19.064 C2185.24683,19.3758333 2185.24683,19.9995 2184.935,20.935 L2184.25372,21.2742714 L2183.84753,21.4688009 L2183.47975,21.638009 C2183.42165,21.6641003 2183.36515,21.6891365 2183.31025,21.7131177 L2183.00007,21.844344 L2182.72829,21.9502491 L2182.4949,22.030833 C2182.17363,22.1327179 2181.98196,22.1491437 2181.91989,22.0801103 C2181.87851,22.0340881 2181.87388,21.9316532 2181.906,21.7728058 L2181.95036,21.5951542 C2181.9598,21.5624116 2181.97026,21.5281019 2181.98173,21.4922253 L2182.06285,21.2581611 L2182.16846,20.9864885 L2182.29857,20.6772076 L2182.53967,20.1427705 L2182.83589,19.5237145 L2183.064,19.064 C2183.9995,18.7521667 2184.62317,18.7521667 2184.935,19.064 Z"></path>
        </g>
    </g>
</svg>