<?xml version="1.0" encoding="UTF-8"?>
<svg width="24px" height="24px" viewBox="0 0 24 24" version="1.1" xmlns="http://www.w3.org/2000/svg" xmlns:xlink="http://www.w3.org/1999/xlink">
    <title>indicator-g</title>
    <g id="Icons" stroke="none" stroke-width="1" fill="none" fill-rule="evenodd">
        <g transform="translate(-2172.000000, -8.000000)" fill="#000000" fill-rule="nonzero" id="Shape">
            <path d="M2191.07107,12.9289382 C2194.97631,16.8341847 2194.97631,23.1658375 2191.07106,27.0710639 C2187.16582,30.9763124 2180.83416,30.9763124 2176.92894,27.0710639 C2173.02369,23.1658153 2173.02369,16.8341625 2176.92894,12.9289361 C2180.83418,9.02368762 2187.16584,9.02368762 2191.07107,12.9289382 Z M2178.34315,14.3431517 C2175.21895,17.4673312 2175.21895,22.532651 2178.34315,25.6568523 C2181.46733,28.7810496 2186.53265,28.7810496 2189.65685,25.6568483 C2192.71458,22.5991407 2192.77964,17.6820158 2189.85202,14.5451655 L2189.65685,14.3431497 L2189.45483,14.1479738 C2186.318,11.2203647 2181.40088,11.2854228 2178.34315,14.3431517 Z M2188.94577,16.3474339 L2186.95783,22.3112337 C2186.85607,22.6165172 2186.61652,22.8560734 2186.31123,22.9578345 L2180.34743,24.9457678 C2179.54819,25.212182 2178.78782,24.4518087 2179.05423,23.6525661 L2181.04217,17.6887663 C2181.14393,17.3834828 2181.38348,17.1439266 2181.68877,17.0421655 L2187.65257,15.0542322 C2188.45181,14.787818 2189.21218,15.5481913 2188.94577,16.3474339 Z M2182.791,18.783 L2182.785,18.785 L2181.57,22.43 L2185.215,21.215 L2185.221,21.196 L2182.791,18.783 Z"></path>
        </g>
    </g>
</svg>