<svg xmlns="http://www.w3.org/2000/svg" width="25" height="24" viewBox="0 0 25 24">
  <path d="M11.5004037,15.3997284 L11.5004037,11.9990946 L11.033224,11.9990946 C10.4811893,11.9990946 10.0336767,11.551582 10.0336767,10.9995473 C10.0336767,10.4475126 10.4811893,10 11.033224,10 L11.7665875,10 C12.7236482,10 13.4994984,10.7758502 13.4994984,11.7329108 L13.4994984,15.3997284 C13.4994984,15.6577445 13.708662,15.8669081 13.9666781,15.8669081 L14.7000416,15.8669081 C15.2520764,15.8669081 15.699589,16.3144207 15.699589,16.8664554 C15.699589,17.4184901 15.2520764,17.8660027 14.7000416,17.8660027 L13.9666781,17.8660027 C12.6045925,17.8660027 11.5004037,16.761814 11.5004037,15.3997284 Z M10.7670403,7.36622897 C10.7670403,6.61184814 11.3784511,6.00027048 12.1337699,6 C12.8880875,6.00027044 13.4994984,6.61184814 13.4994984,7.36622897 C13.4994984,8.12077666 12.887817,8.732458 12.1332693,8.73245804 C11.3787217,8.73245804 10.7670403,8.12077668 10.7670403,7.36622897 Z M4.01471989,3.51471989 C8.70101307,-1.1715733 16.2989869,-1.1715733 20.9852801,3.51471989 C25.6715733,8.20101307 25.6715733,15.7989869 20.9852801,20.4852801 C16.2989869,25.1715733 8.70101307,25.1715733 4.01471989,20.4852801 C-0.671573295,15.7989869 -0.671573295,8.20101307 4.01471989,3.51471989 Z M19.5717068,19.0717068 C23.4773049,15.1661086 23.4773049,8.83389142 19.5717068,4.92829324 C15.6661086,1.02269507 9.33389142,1.02269507 5.42829324,4.92829324 C1.52269507,8.83389142 1.52269507,15.1661086 5.42829324,19.0717068 C9.33389142,22.9773049 15.6661086,22.9773049 19.5717068,19.0717068 Z"/>
</svg>
