<?xml version="1.0" encoding="UTF-8"?>
<svg width="24px" height="24px" viewBox="0 0 24 24" version="1.1" xmlns="http://www.w3.org/2000/svg" xmlns:xlink="http://www.w3.org/1999/xlink">
    <title>info-g</title>
    <g id="Icons" stroke="none" stroke-width="1" fill="none" fill-rule="evenodd">
        <g id="Glyphs" transform="translate(-650.000000, -58.000000)" fill="#000000" fill-rule="nonzero">
            <path d="M662,58 C668.627417,58 674,63.372583 674,70 C674,76.627417 668.627417,82 662,82 C655.372583,82 650,76.627417 650,70 C650,63.372583 655.372583,58 662,58 Z M662,60 C656.477153,60 652,64.4771525 652,70 C652,75.5228475 656.477153,80 662,80 C667.522847,80 672,75.5228475 672,70 C672,64.4771525 667.522847,60 662,60 Z M662,69 C662.647209,69 663.179534,69.4918747 663.243546,70.1221948 L663.25,70.25 L663.25,75.25 C663.25,75.9403559 662.690356,76.5 662,76.5 C661.352791,76.5 660.820466,76.0081253 660.756454,75.3778052 L660.75,75.25 L660.75,70.25 C660.75,69.5596441 661.309644,69 662,69 Z M662.000937,64 C662.756399,64.0003336 663.368704,64.6000709 663.368704,65.3398368 C663.368704,66.0798085 662.756058,66.6796737 662.00032,66.6796737 C661.244583,66.6796737 660.631937,66.0798085 660.631937,65.3398368 C660.631937,64.6000416 661.24429,64.0002862 662.000937,64 Z" id="Shape"></path>
        </g>
    </g>
</svg>