<?xml version="1.0" encoding="UTF-8"?>
<svg width="24px" height="24px" viewBox="0 0 24 24" version="1.1" xmlns="http://www.w3.org/2000/svg" xmlns:xlink="http://www.w3.org/1999/xlink">
    <title>info-g</title>
    <g id="Icons" stroke="none" stroke-width="1" fill="none" fill-rule="evenodd">
        <g id="Glyphs" transform="translate(-650.000000, -58.000000)" fill="#000000" fill-rule="nonzero">
            <path d="M662,59 C668.075132,59 673,63.9248678 673,70 C673,76.0751322 668.075132,81 662,81 C655.924868,81 651,76.0751322 651,70 C651,63.9248678 655.924868,59 662,59 Z M662,69 C661.352791,69 660.820466,69.4918747 660.756454,70.1221948 L660.75,70.25 L660.75,75.25 L660.756454,75.3778052 C660.820466,76.0081253 661.352791,76.5 662,76.5 C662.647209,76.5 663.179534,76.0081253 663.243546,75.3778052 L663.25,75.25 L663.25,70.25 L663.243546,70.1221948 C663.179534,69.4918747 662.647209,69 662,69 Z M662.000676,64 C661.171252,64.0003204 660.5,64.6717702 660.5,65.5 C660.5,66.3284273 661.171573,67 662,67 C662.828427,67 663.5,66.3284273 663.5,65.5 C663.5,64.6718029 662.828801,64.0003734 662.000676,64 Z" id="Shape"></path>
        </g>
    </g>
</svg>