<svg xmlns="http://www.w3.org/2000/svg" width="24" height="24" viewBox="0 0 24 24">
  <path d="M662,58 C668.627417,58 674,63.372583 674,70 C674,76.627417 668.627417,82 662,82 C655.372583,82 650,76.627417 650,70 C650,63.372583 655.372583,58 662,58 Z M662.00006,68 L660.5,68 L660.383379,68.0067277 C659.924297,68.0600494 659.560049,68.424297 659.506728,68.8833789 L659.5,69 L659.506728,69.1166211 C659.560049,69.575703 659.924297,69.9399506 660.383379,69.9932723 L660.5,70 L661,70 L661,75 L660.5,75 L660.383379,75.0067277 C659.88604,75.0644928 659.5,75.4871642 659.5,76 C659.5,76.5128358 659.88604,76.9355072 660.383379,76.9932723 L660.5,77 L663.5,77 L663.633175,76.9930296 C664.744489,76.8738082 664.787232,75.2622713 663.761403,75.0282564 L663.633175,75.0069704 L663.5,75 L663,75 L663.00006,69 L662.993332,68.8833789 C662.940011,68.424297 662.575763,68.0600494 662.116681,68.0067277 L662.00006,68 Z M661.625,63 C660.727537,63 660,63.7275373 660,64.625 C660,65.5224627 660.727537,66.25 661.625,66.25 C662.522463,66.25 663.25,65.5224627 663.25,64.625 C663.25,63.7275373 662.522463,63 661.625,63 Z" transform="translate(-650 -58)"/>
</svg>
