<svg xmlns="http://www.w3.org/2000/svg" width="25" height="24" viewBox="0 0 25 24">
  <path d="M12.5,23.5 C6.14872538,23.5 1,18.3512746 1,12 C1,5.64872538 6.14872538,0.5 12.5,0.5 C18.8512746,0.5 24,5.64872538 24,12 C24,18.3512746 18.8512746,23.5 12.5,23.5 Z M12.5,21.5 C17.7467051,21.5 22,17.2467051 22,12 C22,6.75329488 17.7467051,2.5 12.5,2.5 C7.25329488,2.5 3,6.75329488 3,12 C3,17.2467051 7.25329488,21.5 12.5,21.5 Z M11.50006,17 L11.50006,12 L11,12 C10.4477153,12 10,11.5522847 10,11 C10,10.4477153 10.4477153,10 11,10 L12.50006,10 C13.0523447,10 13.50006,10.4477153 13.50006,11 L13.50006,16 L14,16 C14.5522847,16 15,16.4477153 15,17 C15,17.5522847 14.5522847,18 14,18 L12.50006,18 C11.9477753,18 11.50006,17.5522847 11.50006,17 Z M12.25,8.5 C11.4215729,8.5 10.75,7.82842712 10.75,7 C10.75,6.17157288 11.4215729,5.5 12.25,5.5 C13.0784271,5.5 13.75,6.17157288 13.75,7 C13.75,7.82842712 13.0784271,8.5 12.25,8.5 Z"/>
</svg>
