<svg xmlns="http://www.w3.org/2000/svg" width="24" height="24" viewBox="0 0 24 24">
  <path d="M662,58 C668.627417,58 674,63.372583 674,70 C674,76.627417 668.627417,82 662,82 C655.372583,82 650,76.627417 650,70 C650,63.372583 655.372583,58 662,58 Z M662,60 C656.477153,60 652,64.4771525 652,70 C652,75.5228475 656.477153,80 662,80 C667.522847,80 672,75.5228475 672,70 C672,64.4771525 667.522847,60 662,60 Z M662.00006,68 C662.512896,68 662.935567,68.3860402 662.993332,68.8833789 L663.00006,69 L663,75 L663.5,75 L663.633175,75.0069704 C664.788942,75.1309607 664.788942,76.8690393 663.633175,76.9930296 L663.5,77 L660.5,77 C659.947715,77 659.5,76.5522847 659.5,76 C659.5,75.4871642 659.88604,75.0644928 660.383379,75.0067277 L660.5,75 L661,75 L661,70 L660.5,70 C659.987164,70 659.564493,69.6139598 659.506728,69.1166211 L659.5,69 C659.5,68.4871642 659.88604,68.0644928 660.383379,68.0067277 L660.5,68 L662.00006,68 Z M661.625,63 C662.522463,63 663.25,63.7275373 663.25,64.625 C663.25,65.5224627 662.522463,66.25 661.625,66.25 C660.727537,66.25 660,65.5224627 660,64.625 C660,63.7275373 660.727537,63 661.625,63 Z" transform="translate(-650 -58)"/>
</svg>
