<svg xmlns="http://www.w3.org/2000/svg" width="24" height="24" viewBox="0 0 24 24">
  <path d="M10.966727,15.3997284 L10.966727,11.4990946 L9.99954731,11.4990946 C9.44751257,11.4990946 9,11.051582 9,10.4995473 C9,9.94751257 9.44751257,9.5 9.99954731,9.5 L11.2329108,9.5 C12.1899715,9.5 12.9658216,10.2758502 12.9658216,11.2329108 L12.9658216,15.3997284 C12.9658216,15.6577445 13.1749852,15.8669081 13.4330014,15.8669081 L14.1663649,15.8669081 C14.7183997,15.8669081 15.1659122,16.3144207 15.1659122,16.8664554 C15.1659122,17.4184901 14.7183997,17.8660027 14.1663649,17.8660027 L13.4330014,17.8660027 C12.0709158,17.8660027 10.966727,16.761814 10.966727,15.3997284 Z M10.25,6.86622897 C10.25,6.11184814 10.8614109,5.50027048 11.6167296,5.5 C12.3710472,5.50027044 12.9824581,6.11184814 12.9824581,6.86622897 C12.9824581,7.62077666 12.3707768,8.232458 11.6162291,8.23245804 C10.8616814,8.23245804 10.25,7.62077668 10.25,6.86622897 Z M19.7781732,19.7781732 C24.0739423,15.4824042 24.0739423,8.51759585 19.7781732,4.22182679 C15.4824042,-0.0739422642 8.51759585,-0.0739422642 4.22182679,4.22182679 C-0.0739422642,8.51759585 -0.0739422642,15.4824042 4.22182679,19.7781732 C8.51759585,24.0739423 15.4824042,24.0739423 19.7781732,19.7781732 Z"/>
</svg>
