<svg xmlns="http://www.w3.org/2000/svg" width="24" height="24" viewBox="0 0 24 24">
  <g fill="none" fill-rule="evenodd">
    <path fill="#D12F2F" fill-rule="nonzero" d="M16.1920409,22.9408931 C16.3093877,23.2375756 16.2273669,23.5881409 15.9662875,23.7995212 C15.6443605,24.0601662 15.1720925,24.0104873 14.9114474,23.6885602 C14.8686295,23.6356751 14.8247401,23.5841685 14.7798356,23.5340463 C14.7664683,23.5204221 14.7536691,23.5063297 14.7414538,23.4918088 C13.3244351,21.9544146 10.9373556,21.7629358 9.28942192,23.0971662 C9.07215329,23.2730753 8.87393805,23.4712907 8.69802982,23.6885589 C8.4373855,24.0104866 7.96511761,24.0601665 7.64318996,23.7995222 C7.38233678,23.588326 7.30023107,23.2381858 7.41712966,22.9416673 C6.71013687,21.788521 5.24610098,21.2973838 3.96551483,21.8451856 C3.77924793,21.924866 3.60227753,22.0247291 3.43777665,22.1429845 C3.10144857,22.3847618 2.6328015,22.3081133 2.39102413,21.9717853 C2.14924677,21.6354572 2.22589527,21.1668101 2.56222335,20.9250327 C2.81351454,20.7443861 3.08368648,20.5915878 3.36797835,20.4693243 C3.26466129,20.3913765 3.1655067,20.3053386 3.07137861,20.2112105 C1.97620974,19.1160416 1.97620974,17.3404331 3.07137861,16.2452643 C4.16654748,15.1500954 5.942156,15.1500954 7.03732487,16.2452643 C8.13249374,17.3404331 8.13249374,19.1160416 7.03732487,20.2112105 C6.94348303,20.3050524 6.84464521,20.3908532 6.74166759,20.4686129 C7.41715205,20.7586567 8.01901366,21.2223281 8.47413338,21.8303225 C9.13602758,21.3256985 9.87820156,20.9939145 10.6448977,20.8291051 C10.1929035,20.6650424 9.76880731,20.4017801 9.40634557,20.0393183 C8.08195844,18.7149312 8.08195844,16.5676775 9.40634557,15.2432903 C10.7307327,13.9189032 12.8779864,13.9189032 14.2023736,15.2432903 C15.5267607,16.5676775 15.5267607,18.7149312 14.2023736,20.0393183 C13.8395177,20.4021742 13.4148933,20.6656147 12.962347,20.8296399 C13.7392405,20.9964806 14.4835055,21.331676 15.1355818,21.8289612 C15.5905863,21.2216285 16.1920628,20.7584289 16.8670532,20.4686024 C16.7640806,20.3908454 16.6652475,20.3050481 16.5714099,20.2112105 C15.476241,19.1160416 15.476241,17.3404331 16.5714099,16.2452643 C17.6665788,15.1500954 19.4421873,15.1500954 20.5373562,16.2452643 C21.632525,17.3404331 21.632525,19.1160416 20.5373562,20.2112105 C20.4432237,20.305343 20.3440643,20.3913845 20.240742,20.4693352 C20.5250244,20.5915966 20.7951882,20.7443915 21.0464722,20.9250329 C21.3828003,21.1668103 21.4594488,21.6354574 21.2176714,21.9717854 C20.9758941,22.3081135 20.507247,22.384762 20.1709189,22.1429847 C20.006418,22.0247293 19.8294476,21.9248662 19.6431814,21.8451861 C18.3628813,21.2975066 16.8992142,21.7883013 16.1920409,22.9408931 L16.1920409,22.9408931 Z M5.9766647,19.1505503 C6.48604713,18.6411679 6.48604713,17.8153069 5.9766647,17.3059244 C5.46728226,16.796542 4.64142122,16.796542 4.13203878,17.3059244 C3.62265635,17.8153069 3.62265635,18.6411679 4.13203878,19.1505503 C4.64142122,19.6599328 5.46728226,19.6599328 5.9766647,19.1505503 Z M19.476696,19.1505503 C19.9860784,18.6411679 19.9860784,17.8153069 19.476696,17.3059244 C18.9673136,16.796542 18.1414525,16.796542 17.6320701,17.3059244 C17.1226877,17.8153069 17.1226877,18.6411679 17.6320701,19.1505503 C18.1414525,19.6599328 18.9673136,19.6599328 19.476696,19.1505503 Z M13.1417134,16.3039505 C12.4031127,15.5653498 11.2056064,15.5653498 10.4670057,16.3039505 C9.72840504,17.0425512 9.72840504,18.2400575 10.4670057,18.9786582 C11.2056064,19.7172589 12.4031127,19.7172589 13.1417134,18.9786582 C13.8803141,18.2400575 13.8803141,17.0425512 13.1417134,16.3039505 Z"/>
    <path fill="#000" fill-rule="nonzero" d="M11.25,1.12202559 L11.25,0.75 C11.25,0.335786438 11.5857864,0 12,0 C12.4142136,0 12.75,0.335786438 12.75,0.75 L12.75,1.12225761 C18.1654203,1.49716949 22.4444001,5.88805542 22.4999575,11.2726925 C22.5072021,11.9748476 21.587278,12.2693299 21.1694101,11.6986218 C20.1585608,10.3180421 18.1959358,10.0011253 16.7857753,10.9907754 C16.5834264,11.1327829 16.3990368,11.2978365 16.2376917,11.4810913 L16.0334056,11.7143053 C15.8993395,11.8869117 15.6873468,11.9983473 15.4487692,11.9983473 C15.2007392,11.9983473 14.9814423,11.8779067 14.8485678,11.6935044 C14.2777068,11.0641021 13.5356521,10.667997 12.75,10.5147966 L12.75,12.5 C12.75,12.9142136 12.4142136,13.25 12,13.25 C11.5857864,13.25 11.25,12.9142136 11.25,12.5 L11.25,10.5159103 C10.6334732,10.6373638 10.0391865,10.9103957 9.52776567,11.3395709 C9.38908103,11.4559529 9.2591491,11.5819493 9.13897158,11.7165793 C9.0048372,11.88786 8.79370944,11.9983115 8.5562218,11.9983473 C8.30605084,11.998385 8.08509197,11.8758895 7.95255032,11.688806 L7.77180351,11.4824621 C6.63901025,10.1958187 4.65531151,10.0518337 3.3411006,11.1608643 C3.15251941,11.320003 2.98392985,11.5005238 2.83887929,11.698628 C2.70101857,11.8869127 2.47889845,11.9985834 2.24227168,11.998572 L2.23397769,11.9985716 C1.82570901,11.9985519 1.49591422,11.6723813 1.50003826,11.2726985 C1.55570813,5.87742882 5.84685601,1.4949363 11.25,1.12202559 Z M14.6656814,9.7096816 C14.432795,6.00721476 13.4072975,3.11464158 12.3719816,2.54097296 C12.2787578,2.53726012 12.185169,2.53492899 12.091236,2.53399993 C11.9380705,2.53248506 11.785757,2.53471156 11.634386,2.54059247 C10.5976091,3.11348712 9.57100232,6.00767714 9.33880657,9.7124666 C10.9947996,8.76043731 13.0408887,8.77987342 14.6656814,9.7096816 Z M20.8359577,9.53421462 C20.1429103,6.33292298 17.682147,3.77230839 14.5001294,2.87688021 C15.3943135,4.44880706 15.9772926,6.88177693 16.1377893,9.68522514 C17.5941623,8.774365 19.398674,8.7625337 20.8359577,9.53421462 Z M3.16278154,9.5395266 C4.64264069,8.73725313 6.45567726,8.80243313 7.86706516,9.68215202 C8.02760875,6.87882117 8.61109414,4.44620451 9.50595018,2.87491989 C6.32383483,3.768306 3.85529307,6.32963053 3.16278154,9.5395266 Z"/>
  </g>
</svg>
