<svg xmlns="http://www.w3.org/2000/svg" width="24" height="24" viewBox="0 0 24 24">
  <path d="M11.25,1.12202559 L11.25,0.75 C11.25,0.335786438 11.5857864,0 12,0 C12.4142136,0 12.75,0.335786438 12.75,0.75 L12.75,1.12225761 C18.1654203,1.49716949 22.4444001,5.88805542 22.4999575,11.2726925 C22.5072021,11.9748476 21.587278,12.2693299 21.1694101,11.6986218 C20.1585608,10.3180421 18.1959358,10.0011253 16.7857753,10.9907754 C16.5834264,11.1327829 16.3990368,11.2978365 16.2376917,11.4810913 L16.0334056,11.7143053 C15.8993395,11.8869117 15.6873468,11.9983473 15.4487692,11.9983473 C15.2007392,11.9983473 14.9814423,11.8779067 14.8485678,11.6935044 C14.2777068,11.0641021 13.5356521,10.667997 12.75,10.5147966 L12.75,15.5 C12.75,15.9142136 12.4142136,16.25 12,16.25 C11.5857864,16.25 11.25,15.9142136 11.25,15.5 L11.25,10.5159103 C10.6334732,10.6373638 10.0391865,10.9103957 9.52776567,11.3395709 C9.38908103,11.4559529 9.2591491,11.5819493 9.13897158,11.7165793 C9.0048372,11.88786 8.79370944,11.9983115 8.5562218,11.9983473 C8.30605084,11.998385 8.08509197,11.8758895 7.95255032,11.688806 L7.77180351,11.4824621 C6.63901025,10.1958187 4.65531151,10.0518337 3.3411006,11.1608643 C3.15251941,11.320003 2.98392985,11.5005238 2.83887929,11.698628 C2.70101857,11.8869127 2.47889845,11.9985834 2.24227168,11.998572 L2.23397769,11.9985716 C1.82570901,11.9985519 1.49591422,11.6723813 1.50003826,11.2726985 C1.55570813,5.87742882 5.84685601,1.4949363 11.25,1.12202559 Z M14.6656814,9.7096816 C14.432795,6.00721476 13.4072975,3.11464158 12.3719816,2.54097296 C12.2787578,2.53726012 12.185169,2.53492899 12.091236,2.53399993 C11.9380705,2.53248506 11.785757,2.53471156 11.634386,2.54059247 C10.5976091,3.11348712 9.57100232,6.00767714 9.33880657,9.7124666 C10.9947996,8.76043731 13.0408887,8.77987342 14.6656814,9.7096816 Z M20.8359577,9.53421462 C20.1429103,6.33292298 17.682147,3.77230839 14.5001294,2.87688021 C15.3943135,4.44880706 15.9772926,6.88177693 16.1377893,9.68522514 C17.5941623,8.774365 19.398674,8.7625337 20.8359577,9.53421462 Z M3.16278154,9.5395266 C4.64264069,8.73725313 6.45567726,8.80243313 7.86706516,9.68215202 C8.02760875,6.87882117 8.61109414,4.44620451 9.50595018,2.87491989 C6.32383483,3.768306 3.85529307,6.32963053 3.16278154,9.5395266 Z M4.55588266,18.9138708 C4.55967602,18.8130228 4.55174917,18.7069153 4.53566299,18.624296 C4.53261013,18.6086164 4.53429099,18.6130561 4.60328367,18.6889914 C3.8551183,17.8782086 3.48660393,16.7809661 3.59423266,15.677196 C3.5906923,14.0128742 4.76890862,12.75 6.33414549,12.75 C7.89955224,12.75 9.07819249,14.0118469 9.07819249,15.7487957 C9.18209619,16.780032 8.81331066,17.8772888 8.06097684,18.6922058 C8.13408354,18.6117778 8.13579175,18.6072623 8.13275873,18.6228674 C8.11670187,18.705481 8.10880624,18.8116139 8.11262466,18.9125127 C8.11420775,18.9543447 8.11772688,18.9927119 8.12240791,19.0256995 C8.21579036,19.0601081 8.32964397,19.1019949 8.48283622,19.1583468 C8.69751423,19.237449 8.85285379,19.2952079 9.00126227,19.3513615 C9.38348069,19.4959822 9.67980267,19.6154073 9.94090549,19.732471 C10.088553,19.7986677 10.2234411,19.8635614 10.3476725,19.9285903 C10.7146501,20.1206849 10.8564208,20.5739024 10.6643262,20.94088 C10.4722317,21.3078576 10.0190142,21.4496283 9.65203656,21.2575338 C9.55640375,21.2074747 9.44854245,21.1555835 9.32724503,21.1012006 C8.92821907,20.9223001 9.07252956,20.9769031 7.41706482,20.3642619 C6.46310589,20.0103527 6.39807173,18.2918741 6.95481031,17.6791115 C7.4211255,17.1739707 7.64773171,16.4997436 7.58171918,15.8214428 C7.57819249,14.8182705 7.04739398,14.25 6.33414549,14.25 C5.6214889,14.25 5.0906923,14.8189357 5.0906923,15.7499834 C5.02101784,16.500999 5.24745765,17.175218 5.7095796,17.6760373 C6.27040959,18.2932699 6.20576702,20.0118163 5.25147461,20.3653564 C3.6625305,20.9522822 3.74659581,20.9204932 3.34693439,21.0994676 C2.92780613,21.2871595 2.66854833,21.4471024 2.55946051,21.569356 C2.28368225,21.8784178 1.80957566,21.9053995 1.50051382,21.6296213 C1.19145197,21.353843 1.1644703,20.8797364 1.44024856,20.5706746 C1.72421427,20.2524371 2.13712211,19.9977036 2.73387581,19.7304682 C2.99466349,19.6136836 3.29062029,19.4944755 3.67105719,19.3506142 C3.81947856,19.294489 3.97545856,19.2365371 4.18782488,19.15837 C4.33908931,19.1027925 4.45312031,19.0608943 4.54617202,19.0266602 C4.5508218,18.9937787 4.55431492,18.9555498 4.55588266,18.9138708 Z M19.8677503,20.550107 C19.8718628,20.6598125 19.8855554,20.7558631 19.9042647,20.8247839 C20.0375137,20.8740325 20.2047347,20.935685 20.4504236,21.0262642 C20.7154072,21.124132 20.9099201,21.1966473 21.0948303,21.2668096 C21.5671954,21.446044 21.9339869,21.5942885 22.2559941,21.738981 C22.979733,22.0641902 23.4766616,22.3718062 23.809759,22.7463811 C24.0855372,23.0564994 24.0585556,23.5322266 23.7494937,23.8089476 C23.4404319,24.0856686 22.9663253,24.0585946 22.690547,23.7484763 C22.5323275,23.5705552 22.189049,23.3580539 21.6429355,23.11266 C21.1374025,22.8855009 21.2443113,22.9260664 19.2507653,22.1871712 C18.2040654,21.798071 18.1293278,19.8043515 18.750796,19.1180406 C19.3646915,18.4504643 19.6655006,17.551751 19.5741058,16.5746569 C19.5741058,15.305767 18.8296826,14.5051275 17.8322893,14.5051275 C16.8342089,14.5051275 16.0897305,15.3048871 16.0862039,16.6460627 C15.998511,17.5502167 16.2995411,18.4489409 16.9176836,19.1208278 C17.5350165,19.8026048 17.4598242,21.7962967 16.4135648,22.1857753 C16.2506245,22.2462811 16.0642402,22.3150991 15.7298706,22.4385167 C15.465722,22.53618 15.2756034,22.6071123 15.0955773,22.6754619 C14.6465466,22.8459433 14.3045917,22.9842307 14.0142073,23.1148676 C13.8592918,23.1845603 13.7210868,23.251277 13.597971,23.3159423 C13.2309934,23.5086935 12.7777758,23.3664382 12.5856813,22.9982061 C12.3935867,22.6299741 12.5353574,22.1752073 12.902335,21.9824561 C13.0540495,21.9027697 13.2192812,21.8230062 13.4005469,21.7414592 C13.722926,21.5964287 14.0901677,21.4479152 14.5647471,21.2677339 C14.7496483,21.1975333 14.9433721,21.125256 15.2112531,21.0262127 C15.4595831,20.9345522 15.6253335,20.8733604 15.7599206,20.8235317 C15.7786775,20.7545102 15.7924127,20.6583088 15.7965562,20.5484466 C15.8018664,20.4076483 15.7909273,20.2601024 15.7680785,20.1421419 C15.7585944,20.0931786 15.7504871,20.0708942 15.8059025,20.1312718 C14.9055217,19.1491798 14.4644067,17.8288558 14.5897305,16.5731672 C14.5897305,14.495707 15.9820506,13 17.8322893,13 C19.6822629,13 21.0741058,14.4969501 21.0705654,16.5016207 C21.1999145,17.8326751 20.7570309,19.1558579 19.8570919,20.1344573 C19.914555,20.0709956 19.9061851,20.0931786 19.8963484,20.143873 C19.8734575,20.261844 19.8624744,20.4093642 19.8677503,20.550107 Z"/>
</svg>
