<?xml version="1.0" encoding="UTF-8"?>
<svg width="24px" height="24px" viewBox="0 0 24 24" version="1.1" xmlns="http://www.w3.org/2000/svg" xmlns:xlink="http://www.w3.org/1999/xlink">
    <title>integrate-g</title>
    <g id="Icons" stroke="none" stroke-width="1" fill="none" fill-rule="evenodd">
        <g transform="translate(-3225.000000, -74.000000)" fill="#000000" fill-rule="nonzero" id="Shape">
            <path d="M3246,81 C3247.65685,81 3249,82.3431458 3249,84 L3249,95 C3249,96.6568542 3247.65685,98 3246,98 L3235,98 C3233.34315,98 3232,96.6568542 3232,95 L3232,94 C3232,92.3431458 3233.34315,91 3235,91 L3237,91 L3237,89 C3237,87.3431458 3238.34315,86 3240,86 L3242.074,86 L3242.074,84 C3242.074,82.3431458 3243.41715,81 3245.074,81 L3246,81 Z M3246,83 L3245.074,83 C3244.56117,83 3244.13849,83.3860402 3244.08073,83.8833789 L3244.074,84 L3244.074,86 C3244.074,87.0543618 3243.25812,87.9181651 3242.22326,87.9945143 L3242.074,88 L3240,88 C3239.48716,88 3239.06449,88.3860402 3239.00673,88.8833789 L3239,89 L3239,91 C3239,92.0543618 3238.18412,92.9181651 3237.14926,92.9945143 L3237,93 L3235,93 C3234.48716,93 3234.06449,93.3860402 3234.00673,93.8833789 L3234,94 L3234,95 C3234,95.5128358 3234.38604,95.9355072 3234.88338,95.9932723 L3235,96 L3246,96 C3246.51284,96 3246.93551,95.6139598 3246.99327,95.1166211 L3247,95 L3247,84 C3247,83.4871642 3246.61396,83.0644928 3246.11662,83.0067277 L3246,83 Z M3237,74 C3238.65685,74 3240,75.3431458 3240,77 L3240,79 C3240,80.6568542 3238.65685,82 3237,82 L3235,82 C3233.34315,82 3232,80.6568542 3232,79 L3232,77 C3232,75.3431458 3233.34315,74 3235,74 L3237,74 Z M3237,76 L3235,76 C3234.48716,76 3234.06449,76.3860402 3234.00673,76.8833789 L3234,77 L3234,79 C3234,79.5128358 3234.38604,79.9355072 3234.88338,79.9932723 L3235,80 L3237,80 C3237.51284,80 3237.93551,79.6139598 3237.99327,79.1166211 L3238,79 L3238,77 C3238,76.4871642 3237.61396,76.0644928 3237.11662,76.0067277 L3237,76 Z M3229,84 L3227,84 C3225.89543,84 3225,84.8954305 3225,86 L3225,88 C3225,89.1045695 3225.89543,90 3227,90 L3229,90 C3230.10457,90 3231,89.1045695 3231,88 L3231,86 C3231,84.8954305 3230.10457,84 3229,84 Z M3227,86 L3229,86 L3229,88 L3227,88 L3227,86 Z"></path>
        </g>
    </g>
</svg>