<?xml version="1.0" encoding="UTF-8"?>
<svg width="24px" height="24px" viewBox="0 0 24 24" version="1.1" xmlns="http://www.w3.org/2000/svg" xmlns:xlink="http://www.w3.org/1999/xlink">
    <title>integrate</title>
    <g id="Icons" stroke="none" stroke-width="1" fill="none" fill-rule="evenodd">
        <g transform="translate(-3199.000000, -74.000000)" fill="#000000" fill-rule="nonzero" id="Shape">
            <path d="M3205,79 C3205.47352,79 3205.9086,79.1645583 3206.25118,79.4396068 C3206.59224,79.1642383 3207.02694,79 3207.5,79 L3210.5,79 C3211.60457,79 3212.5,79.8954305 3212.5,81 L3212.5,84 C3212.5,84.2049218 3212.46918,84.4026454 3212.41192,84.5887886 C3212.59735,84.5308193 3212.79508,84.5 3213,84.5 L3216,84.5 C3217.10457,84.5 3218,85.3954305 3218,86.5 L3218,89.5 C3218,89.9735185 3217.83544,90.4086024 3217.56039,90.7511836 C3217.83576,91.0922441 3218,91.5269421 3218,92 L3218,95 C3218,96.1045695 3217.10457,97 3216,97 L3213,97 C3212.52694,97 3212.09224,96.8357617 3211.74982,96.5611955 C3211.4086,96.8354417 3210.97352,97 3210.5,97 L3207.5,97 C3207.02694,97 3206.59224,96.8357617 3206.24982,96.5611955 C3205.9086,96.8354417 3205.47352,97 3205,97 L3202,97 C3200.89543,97 3200,96.1045695 3200,95 L3200,92 C3200,91.5269421 3200.16424,91.0922441 3200.4388,90.7498164 C3200.16456,90.4086024 3200,89.9735185 3200,89.5 L3200,86.5 C3200,86.0269421 3200.16424,85.5922441 3200.4388,85.2498164 C3200.16456,84.9086024 3200,84.4735185 3200,84 L3200,81 C3200,79.8954305 3200.89543,79 3202,79 L3205,79 Z M3205,91.5 L3202,91.5 C3201.75454,91.5 3201.55039,91.6768752 3201.50806,91.9101244 L3201.5,92 L3201.5,95 C3201.5,95.2454599 3201.67688,95.4496084 3201.91012,95.4919443 L3202,95.5 L3205,95.5 C3205.24546,95.5 3205.44961,95.3231248 3205.49194,95.0898756 L3205.5,95 L3205.5,92 C3205.5,91.7545401 3205.32312,91.5503916 3205.08988,91.5080557 L3205,91.5 Z M3210.5,91.5 L3207.5,91.5 C3207.25454,91.5 3207.05039,91.6768752 3207.00806,91.9101244 L3207,92 L3207,95 C3207,95.2454599 3207.17688,95.4496084 3207.41012,95.4919443 L3207.5,95.5 L3210.5,95.5 C3210.74546,95.5 3210.94961,95.3231248 3210.99194,95.0898756 L3211,95 L3211,92 C3211,91.7545401 3210.82312,91.5503916 3210.58988,91.5080557 L3210.5,91.5 Z M3216,91.5 L3213,91.5 C3212.75454,91.5 3212.55039,91.6768752 3212.50806,91.9101244 L3212.5,92 L3212.5,95 C3212.5,95.2454599 3212.67688,95.4496084 3212.91012,95.4919443 L3213,95.5 L3216,95.5 C3216.24546,95.5 3216.44961,95.3231248 3216.49194,95.0898756 L3216.5,95 L3216.5,92 C3216.5,91.7545401 3216.32312,91.5503916 3216.08988,91.5080557 L3216,91.5 Z M3205,86 L3202,86 C3201.75454,86 3201.55039,86.1768752 3201.50806,86.4101244 L3201.5,86.5 L3201.5,89.5 C3201.5,89.7454599 3201.67688,89.9496084 3201.91012,89.9919443 L3202,90 L3205,90 C3205.24546,90 3205.44961,89.8231248 3205.49194,89.5898756 L3205.5,89.5 L3205.5,86.5 C3205.5,86.2545401 3205.32312,86.0503916 3205.08988,86.0080557 L3205,86 Z M3210.5,86 L3207.5,86 C3207.25454,86 3207.05039,86.1768752 3207.00806,86.4101244 L3207,86.5 L3207,89.5 C3207,89.7454599 3207.17688,89.9496084 3207.41012,89.9919443 L3207.5,90 L3210.5,90 C3210.74546,90 3210.94961,89.8231248 3210.99194,89.5898756 L3211,89.5 L3211,86.5 C3211,86.2545401 3210.82312,86.0503916 3210.58988,86.0080557 L3210.5,86 Z M3216,86 L3213,86 C3212.75454,86 3212.55039,86.1768752 3212.50806,86.4101244 L3212.5,86.5 L3212.5,89.5 C3212.5,89.7454599 3212.67688,89.9496084 3212.91012,89.9919443 L3213,90 L3216,90 C3216.24546,90 3216.44961,89.8231248 3216.49194,89.5898756 L3216.5,89.5 L3216.5,86.5 C3216.5,86.2545401 3216.32312,86.0503916 3216.08988,86.0080557 L3216,86 Z M3205,80.5 L3202,80.5 C3201.75454,80.5 3201.55039,80.6768752 3201.50806,80.9101244 L3201.5,81 L3201.5,84 C3201.5,84.2454599 3201.67688,84.4496084 3201.91012,84.4919443 L3202,84.5 L3205,84.5 C3205.24546,84.5 3205.44961,84.3231248 3205.49194,84.0898756 L3205.5,84 L3205.5,81 C3205.5,80.7545401 3205.32312,80.5503916 3205.08988,80.5080557 L3205,80.5 Z M3210.5,80.5 L3207.5,80.5 C3207.25454,80.5 3207.05039,80.6768752 3207.00806,80.9101244 L3207,81 L3207,84 C3207,84.2454599 3207.17688,84.4496084 3207.41012,84.4919443 L3207.5,84.5 L3210.5,84.5 C3210.74546,84.5 3210.94961,84.3231248 3210.99194,84.0898756 L3211,84 L3211,81 C3211,80.7545401 3210.82312,80.5503916 3210.58988,80.5080557 L3210.5,80.5 Z M3219.11989,74.1881502 L3221.84299,75.4579521 C3222.8456,75.9254803 3223.27938,77.1172687 3222.81185,78.1198861 L3221.54205,80.8429851 C3221.07452,81.8456024 3219.88273,82.2793779 3218.88011,81.8118498 L3216.15701,80.5420479 C3215.1544,80.0745197 3214.72062,78.8827313 3215.18815,77.8801139 L3216.45795,75.1570149 C3216.92548,74.1543976 3218.11727,73.7206221 3219.11989,74.1881502 Z M3217.8666,75.7111176 L3217.82131,75.7891681 L3216.55346,78.5080915 C3216.44972,78.7305537 3216.52375,78.9903258 3216.71725,79.1272705 L3216.7953,79.1725545 L3219.51423,80.4404093 C3219.73669,80.5441452 3219.99646,80.4701187 3220.1334,80.2766151 L3220.17869,80.1985646 L3221.44654,77.4796412 C3221.55028,77.257179 3221.47625,76.997407 3221.28275,76.8604622 L3221.2047,76.8151782 L3218.48577,75.5473234 C3218.26331,75.4435876 3218.00354,75.517614 3217.8666,75.7111176 Z"></path>
        </g>
    </g>
</svg>