<?xml version="1.0" encoding="UTF-8"?>
<svg width="24px" height="24px" viewBox="0 0 24 24" version="1.1" xmlns="http://www.w3.org/2000/svg" xmlns:xlink="http://www.w3.org/1999/xlink">
    <title>integrate</title>
    <g id="Icons" stroke="none" stroke-width="1" fill="none" fill-rule="evenodd">
        <g transform="translate(-3199.000000, -74.000000)" fill="#000000" fill-rule="nonzero" id="Shape">
            <path d="M3221,81.5 C3222.10457,81.5 3223,82.3954305 3223,83.5 L3223,96 C3223,97.1045695 3222.10457,98 3221,98 L3208.5,98 C3207.39543,98 3206.5,97.1045695 3206.5,96 L3206.5,94 C3206.5,92.8954305 3207.39543,92 3208.5,92 L3211,92 L3211,88 C3211,86.8954305 3211.89543,86 3213,86 L3216.074,86 L3216.074,83.5 C3216.074,82.3954305 3216.96943,81.5 3218.074,81.5 L3221,81.5 Z M3221,83 L3218.074,83 C3217.82854,83 3217.62439,83.1768752 3217.58206,83.4101244 L3217.574,83.5 L3217.574,86 C3217.574,86.7796961 3216.97911,87.4204487 3216.21846,87.4931334 L3216.074,87.5 L3213,87.5 C3212.75454,87.5 3212.55039,87.6768752 3212.50806,87.9101244 L3212.5,88 L3212.5,92 C3212.5,92.7796961 3211.90511,93.4204487 3211.14446,93.4931334 L3211,93.5 L3208.5,93.5 C3208.25454,93.5 3208.05039,93.6768752 3208.00806,93.9101244 L3208,94 L3208,96 C3208,96.2454599 3208.17688,96.4496084 3208.41012,96.4919443 L3208.5,96.5 L3221,96.5 C3221.24546,96.5 3221.44961,96.3231248 3221.49194,96.0898756 L3221.5,96 L3221.5,83.5 C3221.5,83.2545401 3221.32312,83.0503916 3221.08988,83.0080557 L3221,83 Z M3204.5,83 C3205.60457,83 3206.5,83.8954305 3206.5,85 L3206.5,87 C3206.5,88.1045695 3205.60457,89 3204.5,89 L3202.5,89 C3201.39543,89 3200.5,88.1045695 3200.5,87 L3200.5,85 C3200.5,83.8954305 3201.39543,83 3202.5,83 L3204.5,83 Z M3204.5,84.5 L3202.5,84.5 C3202.25454,84.5 3202.05039,84.6768752 3202.00806,84.9101244 L3202,85 L3202,87 C3202,87.2454599 3202.17688,87.4496084 3202.41012,87.4919443 L3202.5,87.5 L3204.5,87.5 C3204.74546,87.5 3204.94961,87.3231248 3204.99194,87.0898756 L3205,87 L3205,85 C3205,84.7545401 3204.82312,84.5503916 3204.58988,84.5080557 L3204.5,84.5 Z M3212,77 C3213.10457,77 3214,77.8954305 3214,79 L3214,81 C3214,82.1045695 3213.10457,83 3212,83 L3210,83 C3208.89543,83 3208,82.1045695 3208,81 L3208,79 C3208,77.8954305 3208.89543,77 3210,77 L3212,77 Z M3212,78.5 L3210,78.5 C3209.75454,78.5 3209.55039,78.6768752 3209.50806,78.9101244 L3209.5,79 L3209.5,81 C3209.5,81.2454599 3209.67688,81.4496084 3209.91012,81.4919443 L3210,81.5 L3212,81.5 C3212.24546,81.5 3212.44961,81.3231248 3212.49194,81.0898756 L3212.5,81 L3212.5,79 C3212.5,78.7545401 3212.32312,78.5503916 3212.08988,78.5080557 L3212,78.5 Z M3203,74 C3204.10457,74 3205,74.8954305 3205,76 L3205,78 C3205,79.1045695 3204.10457,80 3203,80 L3201,80 C3199.89543,80 3199,79.1045695 3199,78 L3199,76 C3199,74.8954305 3199.89543,74 3201,74 L3203,74 Z M3203,75.5 L3201,75.5 C3200.75454,75.5 3200.55039,75.6768752 3200.50806,75.9101244 L3200.5,76 L3200.5,78 C3200.5,78.2454599 3200.67688,78.4496084 3200.91012,78.4919443 L3201,78.5 L3203,78.5 C3203.24546,78.5 3203.44961,78.3231248 3203.49194,78.0898756 L3203.5,78 L3203.5,76 C3203.5,75.7545401 3203.32312,75.5503916 3203.08988,75.5080557 L3203,75.5 Z"></path>
        </g>
    </g>
</svg>