<?xml version="1.0" encoding="UTF-8"?>
<svg width="24px" height="24px" viewBox="0 0 24 24" version="1.1" xmlns="http://www.w3.org/2000/svg" xmlns:xlink="http://www.w3.org/1999/xlink">
    <title>job_assignment-g</title>
    <g id="Icons" stroke="none" stroke-width="1" fill="none" fill-rule="evenodd">
        <g transform="translate(-1817.000000, -58.000000)" fill="#000000" fill-rule="nonzero" id="Shape">
            <path d="M1834.7498,67.0000014 C1836.1305,67.0000014 1837.24977,68.1192895 1837.24977,69.5000014 L1837.24977,70.0000014 L1839.24975,70.0000014 C1840.21623,70.0000014 1840.99973,70.7835063 1840.99973,71.750001 L1840.99973,79.2500002 C1840.99973,80.2164948 1840.21623,81.0000014 1839.24975,81.0000014 L1828.74987,81.0000014 C1827.78338,81.0000014 1826.99989,80.2164948 1826.99989,79.2500002 L1826.99989,71.750001 C1826.99989,70.7835063 1827.78338,70.0000014 1828.74987,70.0000014 L1830.74984,70.0000014 L1830.74984,69.5000014 C1830.74984,68.1192896 1831.86912,67.0000014 1833.24982,67.0000014 L1834.7498,67.0000014 Z M1838.99975,75.3415227 C1837.33577,75.7801778 1835.66852,76.0000005 1833.99981,76.0000005 C1832.3311,76.0000005 1830.66384,75.7801778 1828.99986,75.3415227 L1828.99986,79.0000002 L1838.99975,79.0000002 L1838.99975,75.3415227 Z M1824.61146,58.0002464 L1824.95398,58.002323 L1825.20324,58.0101255 L1825.44188,58.0233112 L1825.61313,58.0367565 L1825.8091,58.0565428 C1827.78807,58.2833039 1828.87023,59.2787771 1829.16385,61.1742122 L1829.19424,61.3969177 L1829.21079,61.5529048 L1829.22973,61.7902987 L1829.24225,62.0331869 L1829.24723,62.1957671 L1829.24988,62.533899 L1829.24568,62.787748 L1829.23651,63.0261874 L1829.215,63.3436217 C1829.07339,64.985566 1828.44606,66.0456404 1827.25295,66.5805472 L1827.41911,66.6526406 C1827.92055,66.8841104 1828.1394,67.4782496 1827.90793,67.9796877 C1827.67646,68.4811259 1827.08233,68.6999784 1826.58089,68.4685087 C1825.91167,68.1595896 1825.19387,68.0005433 1824.46931,67.9999983 C1821.46946,67.9977529 1819.00212,70.6671775 1819,74.0006375 C1818.99965,74.5529221 1818.55165,75.0003519 1817.99936,74.9999987 C1817.44708,74.9996477 1816.99965,74.5516472 1817,73.9993625 C1817.00222,70.5203147 1819.07846,67.5438857 1821.99245,66.4486915 C1821.02104,65.9170906 1820.47617,64.9865723 1820.30867,63.6218069 L1820.28167,63.360816 L1820.27041,63.209815 L1820.25803,62.9709477 L1820.25135,62.721926 L1820.25001,62.5547468 L1820.25426,62.2181898 L1820.26387,61.9696711 L1820.2786,61.7369578 C1820.45365,59.4498498 1821.5374,58.2816379 1823.73543,58.0464485 L1823.96679,58.0254392 L1824.12786,58.0150842 L1824.368,58.004877 L1824.61146,58.0002464 Z M1838.99975,72.0000009 L1828.99986,72.0000009 L1828.99986,73.2656006 C1830.66998,73.7556547 1832.3358,74.0000009 1833.99981,74.0000009 C1835.66382,74.0000009 1837.32963,73.7556547 1838.99975,73.2656006 L1838.99975,72.0000009 Z M1834.7498,69.0000012 L1833.24982,69.0000012 C1832.97368,69.0000012 1832.74982,69.223859 1832.74982,69.5000012 L1832.74982,70.0000012 L1835.24979,70.0000012 L1835.24979,69.5000012 C1835.24979,69.2238589 1835.02594,69.0000012 1834.7498,69.0000012 Z M1824.761,59.999 L1824.43135,60.0037294 L1824.23718,60.0119728 L1823.94338,60.0346881 C1822.77919,60.1501656 1822.40805,60.5241692 1822.28853,61.7099461 L1822.26882,61.9433552 L1822.25683,62.1700071 L1822.24996,62.5514005 L1822.2542,62.8272051 L1822.2624,63.0176499 L1822.27527,63.2011971 C1822.37216,64.341853 1822.67365,64.7373205 1823.58469,64.9069768 L1823.73367,64.9319638 L1823.8813,64.9522224 L1824.00393,64.9656913 L1824.19329,64.9814499 L1824.45144,64.9946033 L1824.7641,65.0002764 L1825.07573,64.9961052 L1825.32365,64.9845135 L1825.44584,64.9754346 L1825.62669,64.9572215 C1826.7125,64.8287997 1827.07787,64.4801311 1827.20469,63.3518782 L1827.22199,63.1767235 L1827.23554,62.9900113 L1827.24652,62.7343324 L1827.25,62.5198989 L1827.24784,62.2429796 L1827.23775,61.9824638 L1827.22535,61.8042118 L1827.20688,61.6211729 C1827.08277,60.5754339 1826.75731,60.210789 1825.75864,60.0661153 L1825.59529,60.0450328 L1825.43648,60.0288028 L1825.31109,60.0189021 L1825.119,60.0082069 L1824.91182,60.0017966 L1824.761,59.999 Z"></path>
        </g>
    </g>
</svg>