<?xml version="1.0" encoding="UTF-8"?>
<svg width="24px" height="24px" viewBox="0 0 24 24" version="1.1" xmlns="http://www.w3.org/2000/svg" xmlns:xlink="http://www.w3.org/1999/xlink">
    <!-- Generator: Sketch 54.1 (76490) - https://sketchapp.com -->
    <title>bell copy 20</title>
    <desc>Created with Sketch.</desc>
    <g id="Icons" stroke="none" stroke-width="1" fill="none" fill-rule="evenodd">
        <path d="M8.87559603,4.12500219 C9.50043074,4.12549919 10.1203807,4.02988789 10.7139445,3.84259205 C10.5553139,3.34736689 10.2794891,2.88153174 9.88646992,2.48851259 C8.56845314,1.1704958 6.43151687,1.1704958 5.11350009,2.48851259 C5.0508707,2.55114197 4.99121733,2.61562044 4.93453998,2.68177226 C6.03074654,3.6095744 7.4256628,4.12522023 8.87559603,4.12500219 Z M8.87511241,5.62500195 C7.18363057,5.62525665 5.55169556,5.06156704 4.22933612,4.04012853 C3.9456573,5.15586382 4.24037862,6.38836095 5.11350009,7.26148241 C6.43151687,8.5794992 8.56845314,8.5794992 9.88646992,7.26148241 C10.4197154,6.72823695 10.7372195,6.06094555 10.8389822,5.36807328 C10.1997483,5.53874399 9.53950271,5.62553062 8.87511241,5.62500195 Z M10.9471301,1.42785241 C12.8509333,3.33165563 12.8509333,6.41833937 10.9471301,8.32214259 C9.04332687,10.2259458 5.95664314,10.2259458 4.05283992,8.32214259 C2.1490367,6.41833937 2.1490367,3.33165563 4.05283992,1.42785241 C5.95664314,-0.475950805 9.04332687,-0.475950805 10.9471301,1.42785241 Z M14.2499999,13.5000001 L14.2499999,12.75 C14.2499999,11.5073595 15.2573593,10.5000002 16.5,10.5 L18,10.5 C19.2426405,10.5 20.2499999,11.5073594 20.2499999,12.75 L20.2499999,13.5000001 L22.5,13.5 C23.3284236,13.5000001 24,14.1715765 24,15 L24,22.5 C24,23.3284236 23.3284236,24.0000001 22.5,24 L12,24 C11.1715764,24.0000001 10.5,23.3284236 10.5,22.5 L10.5,15 C10.5,14.1715765 11.1715764,13.5000001 12,13.5 L14.2499999,13.5000001 Z M18,18.0000001 L18,18.7500001 C18,19.1642136 17.6642136,19.5000001 17.25,19.5000001 C16.8357864,19.5000001 16.5,19.1642136 16.5,18.7500001 L16.5,18.0000001 L12,18.0000001 L12,22.5000001 L22.5,22.5000001 L22.5,18.0000001 L18,18.0000001 Z M12,16.5000001 L22.5,16.5000001 L22.5,15.0000001 L12,15.0000001 L12,16.5000001 Z M15.7499999,13.5 L18.7499999,13.5 L18.7499999,12.75 C18.7499999,12.3357866 18.4142134,12 17.9999999,12 L16.5,12 C16.0857865,12.0000001 15.7499999,12.3357866 15.7499999,12.75 L15.7499999,13.5 Z M1.49999983,17.2489139 C1.49971376,17.6631273 1.16369551,17.9986818 0.749482046,17.9983957 C0.335268582,17.9981097 -0.00028587769,17.6620914 1.82764211e-07,17.247878 C0.00286197047,13.1040301 3.36437484,9.74713529 7.50817801,9.75000183 C8.51721953,9.75069869 9.51575483,9.95491928 10.4440467,10.3504461 C10.8251119,10.5128104 11.002404,10.9533471 10.8400397,11.3344123 C10.6776753,11.7154775 10.2371386,11.8927696 9.85607341,11.7304053 C9.11336507,11.4139519 8.31445635,11.250559 7.50714122,11.2500015 C4.19176736,11.247708 1.50228949,13.9334911 1.49999983,17.2489139 Z" id="Shape" fill="#000000" fill-rule="nonzero"></path>
    </g>
</svg>