<svg xmlns="http://www.w3.org/2000/svg" width="24" height="24" viewBox="0 0 24 24">
  <path d="M20.2499999,13.0000025 L22.25,13.0000025 C23.2164947,13.0000025 24,13.7835078 24,14.7500025 L24,16.9769432 C24.0003627,16.9924474 24.0003608,17.0079184 24,17.0233448 L24,22.2500025 C24,23.2164972 23.2164947,24.0000025 22.25,24.0000025 L11.75,24.0000025 C10.7835053,24.0000025 10,23.2164972 10,22.2500025 L10,17.0233448 C9.9996392,17.0079184 9.99963733,16.9924474 10,16.9769432 L10,14.7500025 C10,13.7835078 10.7835053,13.0000025 11.75,13.0000025 L13.7499999,13.0000025 L13.7499999,12.5000024 C13.7499999,11.1192908 14.8692881,10.0000026 16.2499999,10.0000024 L17.7499999,10.0000024 C19.1307117,10.0000024 20.2499999,11.1192907 20.2499999,12.5000024 L20.2499999,13.0000025 L20.2499999,13.0000025 Z M12,18.3415246 L12,22.0000025 L22,22.0000025 L22,18.3415246 C20.3360033,18.7801798 18.6687314,19.0000025 17,19.0000025 C15.3312686,19.0000025 13.6639967,18.7801798 12,18.3415246 L12,18.3415246 Z M12,16.2656023 C13.6701367,16.7556564 15.3359708,17.0000025 17,17.0000025 C18.6640292,17.0000025 20.3298633,16.7556564 22,16.2656023 L22,15.0000025 L12,15.0000025 L12,16.2656023 L12,16.2656023 Z M5.65146789,9.5397981 C5.13105795,9.29930318 4.64347855,8.96454887 4.21446484,8.53553516 C2.26184505,6.58291538 2.26184505,3.41708462 4.21446484,1.46446484 C6.16708462,-0.488154946 9.33291538,-0.488154946 11.2855352,1.46446484 C13.2381549,3.41708462 13.2381549,6.58291538 11.2855352,8.53553516 C10.8563823,8.96468799 10.3686258,9.29952027 9.84802584,9.54003202 C10.1688147,9.63006502 10.4841672,9.74087996 10.7920422,9.87205943 C11.3001292,10.0885452 11.5365186,10.6759275 11.3200328,11.1840144 C11.1035471,11.6921014 10.5161648,11.9284908 10.0080779,11.712005 C9.2963001,11.4087306 8.53066248,11.2521423 7.75696828,11.251608 C4.57966611,11.24941 2.00219408,13.8233412 1.99999976,17.0006931 C1.99961835,17.5529777 1.55159401,18.0003837 0.999309389,18.0000023 C0.447024771,17.9996208 -0.000381175467,17.5515965 2.3847224e-07,16.9993119 C0.00245308745,13.4476044 2.39270246,10.4553708 5.65146789,9.5397981 L5.65146789,9.5397981 Z M9.8713216,7.1213216 C11.0428928,5.9497504 11.0428928,4.0502496 9.8713216,2.8786784 C8.6997504,1.7071072 6.8002496,1.7071072 5.6286784,2.8786784 C4.4571072,4.0502496 4.4571072,5.9497504 5.6286784,7.1213216 C6.8002496,8.2928928 8.6997504,8.2928928 9.8713216,7.1213216 Z M15.7499999,13.0000024 L18.2499999,13.0000024 L18.2499999,12.5000024 C18.2499999,12.2238602 18.0261422,12.0000024 17.7499999,12.0000024 L16.2499999,12.0000024 C15.9738577,12.0000025 15.7499999,12.2238602 15.7499999,12.5000024 L15.7499999,13.0000024 Z"/>
</svg>
