<svg xmlns="http://www.w3.org/2000/svg" width="24" height="24" viewBox="0 0 24 24">
  <path d="M11.0255266,20.8038319 L8.03619284,20.8109036 C8.00947048,20.8119845 7.98271573,20.8119845 7.95599338,20.8109036 C7.40632146,20.7886694 6.97867646,20.3232913 7.00082277,19.7714545 C7.0019018,19.5056488 7.10834622,19.2512122 7.29664215,19.0643478 C7.48277313,18.8753099 7.73621149,18.7684462 8.00097401,18.7673629 L10.9903092,18.774434 L10.9903092,16.7662507 L9.03226639,16.8086772 L9.02409851,16.8086772 C8.47398726,16.8064142 8.02986089,16.3568669 8.03211616,15.8045867 C8.0331952,15.538781 8.13963965,15.2843444 8.32793562,15.0974799 C8.5140666,14.908442 8.76750495,14.8015783 9.03226748,14.800495 L11.0255269,14.8075661 L11.0184836,9.89913286 C9.06587808,9.49728419 7.53998519,7.96537978 7.13971335,6.00508179 C6.58734384,3.29991328 8.32392777,0.657395839 11.0184834,0.102847346 C13.7130363,-0.451698319 16.3451839,1.29172719 16.8975562,3.99689853 C17.4499258,6.70206705 15.7133418,9.34458448 13.018786,9.89913301 L13.018786,22.9959083 C13.0187875,23.5504512 12.5710029,24 12.0186348,24 C11.466268,24.0000015 11.0184833,23.5504527 11.0184833,22.9959084 L11.0255266,20.8038319 Z M14.1316306,2.88463374 C12.9646582,1.71306387 11.0726113,1.71306392 9.90563892,2.88463374 C8.73866663,4.05620371 8.73866663,5.95570465 9.90563892,7.12727443 C11.0726113,8.2988443 12.9646581,8.29884425 14.1316306,7.12727443 C15.298603,5.95570456 15.2986029,4.05620366 14.1316306,2.88463374 Z"/>
</svg>
