<?xml version="1.0" encoding="UTF-8"?>
<svg width="26px" height="26px" viewBox="0 0 26 26" version="1.1" xmlns="http://www.w3.org/2000/svg" xmlns:xlink="http://www.w3.org/1999/xlink">
    <!-- Generator: Sketch 51.2 (57519) - http://www.bohemiancoding.com/sketch -->
    <title>Shape</title>
    <desc>Created with Sketch.</desc>
    <defs></defs>
    <g id="Prototype" stroke="none" stroke-width="1" fill="none" fill-rule="evenodd">
        <path d="M12.10479,24.008283 C9.21442977,25.9569798 5.3485011,25.5843268 2.88358714,23.1194129 C0.418673174,20.6544989 0.0460202302,16.7885702 1.99471704,13.89821 C3.81404963,11.1997262 7.1804232,10.0580946 10.2310575,11.0257289 L19.5197871,1.73699932 C20.8303592,0.426033903 22.9555353,0.425715047 24.2665007,1.73628713 C25.4304115,2.89984872 25.5612219,4.70551143 24.658761,6.0134008 L24.9949431,7.26924546 C25.232601,8.15643377 24.9789302,9.10301961 24.3294749,9.75247491 C23.6800196,10.4019302 22.7334338,10.655601 21.8458965,10.4178496 L20.696509,10.1095093 L21.0052273,11.2603087 C21.2417401,12.1471262 20.9877622,13.0927765 20.3387693,13.7417693 C19.6897765,14.3907622 18.7441262,14.6447401 17.8558965,14.4078496 L16.6617197,14.0874939 L14.9772711,15.7719425 C15.9449054,18.8225768 14.8032738,22.1889504 12.10479,24.008283 Z M13.1108932,14.8098932 L15.6558932,12.2648932 C15.9085925,12.0121939 16.276937,11.9135544 16.6221035,12.0061504 L18.3726913,12.4757727 C18.569915,12.528372 18.780223,12.4718885 18.9245558,12.3275558 C19.0688885,12.183223 19.125372,11.972915 19.0731504,11.7771035 L18.6031504,10.0251035 C18.5105544,9.67993705 18.6091939,9.31159253 18.8618932,9.05889322 L19.6458932,8.27489322 C19.8985925,8.0221939 20.266937,7.92355441 20.6121035,8.01615043 L22.3637545,8.48605689 C22.5607925,8.53883894 22.7710222,8.48250054 22.9152613,8.33826135 C23.0595005,8.19402215 23.1158389,7.98379247 23.0630126,7.7865891 L22.5940126,6.0345891 C22.5016635,5.68960897 22.6002981,5.32156409 22.8527871,5.06899932 C23.3824278,4.53919966 23.382299,3.68035356 22.8524993,3.15071287 C22.3226997,2.62107217 21.4638536,2.62120103 20.9341068,3.15110678 L11.1931068,12.8921068 C10.9049685,13.1802451 10.4708143,13.2647299 10.0956524,13.1056675 C7.76761527,12.1186188 5.06658616,12.9196181 3.65302509,15.0162504 C2.23946403,17.1128827 2.50978196,19.9171806 4.2978007,21.7051993 C6.08581944,23.493218 8.89011727,23.763536 10.9867496,22.3499749 C13.0833819,20.9364138 13.8843812,18.2353847 12.8973325,15.9073476 C12.7382701,15.5321857 12.8227549,15.0980315 13.1108932,14.8098932 Z M6.922,21.652 C5.50207591,21.652 4.351,20.5009241 4.351,19.081 C4.351,17.6610759 5.50207591,16.51 6.922,16.51 C8.34192409,16.51 9.493,17.6610759 9.493,19.081 C9.493,20.5009241 8.34192409,21.652 6.922,21.652 Z M6.922,19.652 C7.23735459,19.652 7.493,19.3963546 7.493,19.081 C7.493,18.7656454 7.23735459,18.51 6.922,18.51 C6.60664541,18.51 6.351,18.7656454 6.351,19.081 C6.351,19.3963546 6.60664541,19.652 6.922,19.652 Z" id="Shape" fill="#000000" fill-rule="nonzero"></path>
    </g>
</svg>