<svg xmlns="http://www.w3.org/2000/svg" width="24" height="24" viewBox="0 0 24 24">
  <path d="M9.07099817,16.2263552 C9.04968561,16.2263703 9.02846586,16.2254782 9.00739057,16.2237002 C7.94377111,16.1914468 7.09131834,15.3192079 7.09106593,14.2477122 C7.09081081,13.1556372 7.97590217,12.2701285 9.07001203,12.2698735 L9.95270498,12.2720611 L9.95425382,9.68705381 C8.58264047,9.10306928 7.52903021,7.93575664 7.09708111,6.48863086 C6.30020991,3.81894248 7.81842496,1.0087447 10.4881129,0.211873657 C13.1578012,-0.584997534 15.967999,0.933217515 16.7648701,3.60290541 C17.5067926,6.0885041 16.2418968,8.69590253 13.9093005,9.68680361 L13.908745,21.9648056 C13.9072001,23.0573599 13.0202598,23.9417973 11.9277052,23.9402533 C10.8351508,23.9387084 9.95071353,23.0517682 9.95225761,21.959172 L9.95346861,21.1349831 L7.5568544,21.1340158 C6.49173993,21.1154989 5.63275433,20.2565134 5.61424197,19.1913991 C5.59526668,18.0995462 6.46500226,17.1990424 7.56988838,17.1799517 L9.95439146,17.1799517 L9.95416657,16.2257296 L9.07099817,16.2263552 Z M10.7034585,14.7251985 C11.1178104,14.724905 11.453892,15.0606696 11.4539897,15.4750216 L11.4545682,17.9297749 C11.4546659,18.3440575 11.1188508,18.6799517 10.7045682,18.6799517 L7.58292214,18.6798384 C7.31937122,18.6844192 7.10943523,18.901782 7.11401548,19.1653333 C7.11848399,19.4224304 7.32582635,19.6297728 7.57016794,19.6341292 L10.7048478,19.6352863 C11.1193836,19.6354393 11.4551792,19.9718528 11.4545702,20.3863882 L11.452256,21.9613339 C11.4518828,22.2254617 11.6656972,22.4398813 11.9298256,22.4402548 C12.1939534,22.4406281 12.408373,22.2268135 12.4087458,21.9637111 L12.4093243,9.16096068 C12.4093393,8.82938214 12.6270837,8.53716427 12.9448102,8.44232657 C14.820679,7.88240136 15.8874596,5.90780343 15.3275341,4.03193362 C14.7676088,2.15606468 12.7930109,1.08928415 10.9171411,1.64920966 C9.04127213,2.2091349 7.9744916,4.18373282 8.53441728,6.05960321 C8.87638936,7.2052859 9.77289677,8.10137096 10.9187448,8.44280637 C11.2368124,8.53758294 11.4547675,8.83013673 11.4545687,9.16202458 L11.4522545,13.0243704 C11.452006,13.4391344 11.1151587,13.7749466 10.7003959,13.7739187 L9.06832998,13.7698712 C8.80468221,13.7699333 8.5910043,13.983712 8.59106589,14.2473603 C8.591128,14.5110082 8.80490664,14.7246862 9.06855648,14.7246246 C9.08549351,14.7246206 9.10237169,14.7251896 9.11916511,14.7263207 L10.7034585,14.7251985 Z M9.64754763,5.05680401 C9.64754763,3.79533523 10.6701721,2.77271077 11.9316383,2.77271335 C13.1931071,2.77271335 14.2157315,3.79533782 14.2157289,5.05680401 C14.2157289,6.31827279 13.1931045,7.34089726 11.9316367,7.34089467 C10.6701695,7.34089467 9.64754504,6.3182702 9.64754763,5.05680401 Z M12.7157289,5.05680247 C12.7157298,4.62376376 12.3646794,4.27271335 11.9316367,4.27271335 C11.498598,4.27271246 11.1475476,4.62376287 11.1475476,5.05680555 C11.1475467,5.48984426 11.4985971,5.84089467 11.9316383,5.84089467 C12.3646785,5.84089556 12.7157289,5.48984515 12.7157289,5.05680247 Z"/>
</svg>
