<?xml version="1.0" encoding="UTF-8"?>
<svg width="24px" height="24px" viewBox="0 0 24 24" version="1.1" xmlns="http://www.w3.org/2000/svg" xmlns:xlink="http://www.w3.org/1999/xlink">
    <!-- Generator: Sketch 54.1 (76490) - https://sketchapp.com -->
    <title>bell copy 15</title>
    <desc>Created with Sketch.</desc>
    <g id="Icons" stroke="none" stroke-width="1" fill="none" fill-rule="evenodd">
        <path d="M18.0415344,14.01 L20.3415344,14.01 C20.7815344,14.01 21.0115344,14.55 20.6915344,14.86 L17.4015344,18.14 C17.2015344,18.33 16.8915344,18.33 16.6915344,18.14 L13.4015344,14.86 C13.0815344,14.55 13.3015344,14.01 13.7515344,14.01 L16.0415344,14.01 L16.0415344,6.5 C16.0415344,5.95 16.4915344,5.5 17.0415344,5.5 C17.5915344,5.5 18.0415344,5.95 18.0415344,6.5 L18.0415344,14.01 Z" id="Path" fill="#1D1D1D"></path>
        <path d="M8.04153441,9.7725 L8.04153441,17.2825 C8.04153441,17.8325 7.59153441,18.2825 7.04153441,18.2825 C6.49153441,18.2825 6.04153441,17.8325 6.04153441,17.2825 L6.04153441,9.7725 L3.75153441,9.7725 C3.30153441,9.7725 3.08153441,9.2325 3.40153441,8.9225 L6.69153441,5.6425 C6.89153441,5.4525 7.20153441,5.4525 7.40153441,5.6425 L10.6915344,8.9225 C11.0115344,9.2325 10.7815344,9.7725 10.3415344,9.7725 L8.04153441,9.7725 Z" id="Path" fill="#1D1D1D"></path>
    </g>
</svg>