<svg xmlns="http://www.w3.org/2000/svg" width="24" height="24" viewBox="0 0 24 24">
  <path d="M6.78877239,12.45 L15.65,12.45 C17.0859403,12.45 18.25,11.2859403 18.25,9.85 C18.25,8.41405965 17.0859403,7.25 15.65,7.25 C15.0977153,7.25 14.65,6.80228475 14.65,6.25 C14.65,5.69771525 15.0977153,5.25 15.65,5.25 C18.1905098,5.25 20.25,7.30949015 20.25,9.85 C20.25,12.3905098 18.1905098,14.45 15.65,14.45 L6.78876384,14.45 L10.2337607,18.1705966 C10.6089874,18.5758414 10.5846529,19.2085386 10.179408,19.5837653 C9.7741632,19.958992 9.14146602,19.9346575 8.76623933,19.5294126 L3.76623933,14.1294126 C3.41125356,13.746028 3.41125356,13.1539812 3.76623933,12.7705966 L8.76623933,7.37059659 C9.14146602,6.96535176 9.7741632,6.94101725 10.179408,7.31624394 C10.5846529,7.69147064 10.6089874,8.32416782 10.2337607,8.72941265 L6.78877239,12.45 Z"/>
</svg>
