<svg xmlns="http://www.w3.org/2000/svg" width="24" height="24" viewBox="0 0 24 24">
  <path d="M3,6.5 L9,6.5 C10.6568542,6.5 12,7.84314575 12,9.5 L12,15.5 C12,17.1568542 10.6568542,18.5 9,18.5 L3,18.5 C1.34314575,18.5 0,17.1568542 0,15.5 L0,9.5 C0,7.84314575 1.34314575,6.5 3,6.5 Z M3,8.5 C2.44771525,8.5 2,8.94771525 2,9.5 L2,15.5 C2,16.0522847 2.44771525,16.5 3,16.5 L9,16.5 C9.55228475,16.5 10,16.0522847 10,15.5 L10,9.5 C10,8.94771525 9.55228475,8.5 9,8.5 L3,8.5 Z M3.90664321,14 C3.54178401,14 3.3634084,13.5260386 3.62286383,13.2539497 L5.7130341,10.3750731 C5.87519375,10.208309 6.1265412,10.208309 6.28870085,10.3750731 L8.37887111,13.2539497 C8.63832655,13.5260386 8.45184295,14 8.09509173,14 L3.90664321,14 Z M15.9066432,10.75 L20.0950917,10.75 C20.451843,10.75 20.6383265,11.2239614 20.3788711,11.4960503 L18.2887008,14.3749269 C18.1265412,14.541691 17.8751937,14.541691 17.7130341,14.3749269 L15.6228638,11.4960503 C15.3634084,11.2239614 15.541784,10.75 15.9066432,10.75 Z M15,6.5 L21,6.5 C22.6568542,6.5 24,7.84314575 24,9.5 L24,15.5 C24,17.1568542 22.6568542,18.5 21,18.5 L15,18.5 C13.3431458,18.5 12,17.1568542 12,15.5 L12,9.5 C12,7.84314575 13.3431458,6.5 15,6.5 Z M15,8.5 C14.4477153,8.5 14,8.94771525 14,9.5 L14,15.5 C14,16.0522847 14.4477153,16.5 15,16.5 L21,16.5 C21.5522847,16.5 22,16.0522847 22,15.5 L22,9.5 C22,8.94771525 21.5522847,8.5 21,8.5 L15,8.5 Z"/>
</svg>
