<svg xmlns="http://www.w3.org/2000/svg" width="24" height="24" viewBox="0 0 24 24">
  <path d="M6.78877239,12 L15.65,12 C17.0859403,12 18.25,10.8359403 18.25,9.4 C18.25,7.96405965 17.0859403,6.8 15.65,6.8 C15.0977153,6.8 14.65,6.35228475 14.65,5.8 C14.65,5.24771525 15.0977153,4.8 15.65,4.8 C18.1905098,4.8 20.25,6.85949015 20.25,9.4 C20.25,11.9405098 18.1905098,14 15.65,14 L6.78876384,14 L10.2337607,17.7205966 C10.6089874,18.1258414 10.5846529,18.7585386 10.179408,19.1337653 C9.7741632,19.508992 9.14146602,19.4846575 8.76623933,19.0794126 L3.76623933,13.6794126 C3.41125356,13.296028 3.41125356,12.7039812 3.76623933,12.3205966 L8.76623933,6.92059659 C9.14146602,6.51535176 9.7741632,6.49101725 10.179408,6.86624394 C10.5846529,7.24147064 10.6089874,7.87416782 10.2337607,8.27941265 L6.78877239,12 Z"/>
</svg>
