<svg xmlns="http://www.w3.org/2000/svg" width="24" height="24" viewBox="0 0 24 24">
  <path d="M3,5 L21,5 C22.6568542,5 24,6.34314575 24,8 L24,17 C24,18.6568542 22.6568542,20 21,20 L3,20 C1.34314575,20 0,18.6568542 0,17 L0,8 C0,6.34314575 1.34314575,5 3,5 Z M3,7 C2.44771525,7 2,7.44771525 2,8 L2,17 C2,17.5522847 2.44771525,18 3,18 L21,18 C21.5522847,18 22,17.5522847 22,17 L22,8 C22,7.44771525 21.5522847,7 21,7 L3,7 Z M9.23,12.51 C9.23,12.63 9.21,12.87 9.19,12.99 L5.98,12.99 C6.06,13.46 6.47,13.69 7.01,13.69 C7.32,13.69 7.74,13.58 8.11,13.18 L9.07,14.24 C8.66,14.74 7.93,15.1 6.8,15.1 C5.33,15.1 4.23,14.06 4.23,12.55 C4.23,11.07 5.29,10 6.77,10 C8.18,10 9.23,11.04 9.23,12.51 Z M6.76,11.36 C6.36,11.36 6.06,11.6 5.98,12.02 L7.5,12.02 C7.42,11.6 7.15,11.36 6.76,11.36 Z M11.9845455,15.1 C11.2245455,15.1 10.5445455,14.87 9.98454547,14.37 L10.7945455,13.27 C11.2145455,13.64 11.6445455,13.82 12.0145455,13.82 C12.2645455,13.82 12.3845455,13.75 12.3845455,13.62 C12.3845455,13.5 12.3145455,13.42 11.7145455,13.24 C10.8845455,13 10.1545455,12.58 10.1545455,11.65 C10.1545455,10.57 11.0145455,10 12.0345455,10 C12.8345455,10 13.3745455,10.21 13.9545455,10.62 L13.1245455,11.81 C12.8145455,11.48 12.4045455,11.3 12.0945455,11.3 C11.9445455,11.3 11.7845455,11.36 11.7845455,11.5 C11.7845455,11.6 11.9045455,11.69 12.3945455,11.85 C13.5045455,12.2 14.0545455,12.52 14.0545455,13.48 C14.0545455,14.44 13.3745455,15.1 11.9845455,15.1 Z M17.5290909,15.1 C16.0290909,15.1 14.9390909,14.08 14.9390909,12.57 C14.9390909,11.03 15.9790909,10.01 17.5690909,10.01 C18.3190909,10.01 19.1490909,10.21 19.7090909,10.82 L18.5790909,11.99 C18.3690909,11.71 18.0090909,11.59 17.7390909,11.59 C17.1590909,11.59 16.7390909,11.97 16.7390909,12.56 C16.7390909,13.14 17.1690909,13.52 17.7490909,13.52 C18.1490909,13.52 18.4090909,13.4 18.6990909,13.12 L19.7490909,14.28 C19.2990909,14.78 18.5390909,15.1 17.5290909,15.1 Z"/>
</svg>
