<svg xmlns="http://www.w3.org/2000/svg" width="24" height="24" viewBox="0 0 24 24">
  <path d="M8.41421356,12 L16.3333334,12 C16.4714041,12 16.5833333,11.8880708 16.5833333,11.75 L16.5833333,10.25 C16.5833333,10.1119292 16.4714041,10 16.3333333,10 L16.0416666,10 C15.4893819,10 15.0416666,9.55228475 15.0416666,9 C15.0416666,8.44771525 15.4893819,8 16.0416666,8 L16.3333333,8 C17.5759736,8 18.5833333,9.00735969 18.5833333,10.25 L18.5833333,11.75 C18.5833333,12.9926403 17.5759736,14.0000001 16.3333333,14 L8.41421356,14 L9.20710678,14.7928932 C9.59763107,15.1834175 9.59763107,15.8165825 9.20710678,16.2071068 C8.81658249,16.5976311 8.18341751,16.5976311 7.79289322,16.2071068 L5.29289322,13.7071068 C4.90236893,13.3165825 4.90236893,12.6834175 5.29289322,12.2928932 L7.79289322,9.79289322 C8.18341751,9.40236893 8.81658249,9.40236893 9.20710678,9.79289322 C9.59763107,10.1834175 9.59763107,10.8165825 9.20710678,11.2071068 L8.41421356,12 Z M3,4 L21,4 C22.6568542,4 24,5.34314575 24,7 L24,17 C24,18.6568542 22.6568542,20 21,20 L3,20 C1.34314575,20 0,18.6568542 0,17 L0,7 C0,5.34314575 1.34314575,4 3,4 Z M3,6 C2.44771525,6 2,6.44771525 2,7 L2,17 C2,17.5522847 2.44771525,18 3,18 L21,18 C21.5522847,18 22,17.5522847 22,17 L22,7 C22,6.44771525 21.5522847,6 21,6 L3,6 Z"/>
</svg>
