<?xml version="1.0" encoding="UTF-8"?>
<svg width="24px" height="24px" viewBox="0 0 24 24" version="1.1" xmlns="http://www.w3.org/2000/svg" xmlns:xlink="http://www.w3.org/1999/xlink">
    <!-- Generator: Sketch 54.1 (76490) - https://sketchapp.com -->
    <title>bell copy 13</title>
    <desc>Created with Sketch.</desc>
    <g id="Icons" stroke="none" stroke-width="1" fill="none" fill-rule="evenodd">
        <path d="M9.59220907,12.4457594 C9.59220907,12.5838264 9.57248521,12.8106509 9.56262327,12.9092702 L6.27859961,12.9092702 C6.37721893,13.4615385 6.84072978,13.7475345 7.43244576,13.7475345 C7.82692308,13.7376726 8.23126233,13.5897436 8.55670611,13.2248521 L9.44428008,14.1321499 C9.03994083,14.6351085 8.36932939,15 7.27465483,15 C5.81508876,15 4.75,13.9940828 4.75,12.495069 C4.75,11.035503 5.77564103,10 7.2352071,10 C8.59615385,10 9.59220907,11.0157791 9.59220907,12.4457594 Z M7.21548323,11.2228797 C6.74211045,11.2228797 6.38708087,11.5088757 6.28846154,11.9921105 L8.09319527,11.9921105 C7.99457594,11.5187377 7.67899408,11.2228797 7.21548323,11.2228797 Z M12.3067061,15 C11.5473373,15 10.8767258,14.7633136 10.3441815,14.2899408 L11.0641026,13.2938856 C11.4684418,13.6587771 11.882643,13.8362919 12.32643,13.8362919 C12.6321499,13.8362919 12.7899408,13.7278107 12.7899408,13.5502959 C12.7899408,13.3925049 12.6420118,13.2938856 12.0404339,13.1065089 C11.2317554,12.8599606 10.5216963,12.4654832 10.5216963,11.5384615 C10.5216963,10.5621302 11.3205128,10 12.32643,10 C13.056213,10 13.5887574,10.1873767 14.1508876,10.6015779 L13.4211045,11.6765286 C13.0857988,11.3412229 12.6715976,11.17357 12.3461538,11.17357 C12.1686391,11.17357 11.9615385,11.2524655 11.9615385,11.4398422 C11.9615385,11.5877712 12.1390533,11.6962525 12.622288,11.8639053 C13.6873767,12.2287968 14.2692308,12.504931 14.2692308,13.4516765 C14.2692308,14.3491124 13.6282051,15 12.3067061,15 Z M17.6543393,15 C16.1947732,15 15.1296844,13.9940828 15.1296844,12.5147929 C15.1296844,11.0059172 16.1553254,10 17.693787,10 C18.433432,10 19.2421105,10.2366864 19.7746548,10.8382643 L18.7785996,11.8244576 C18.5517751,11.5285996 18.1770217,11.3708087 17.8219921,11.3708087 C17.1513807,11.3708087 16.6878698,11.8244576 16.6878698,12.504931 C16.6878698,13.1854043 17.1612426,13.6291913 17.831854,13.6291913 C18.2657791,13.6291913 18.5813609,13.4714004 18.8574951,13.1755424 L19.8042406,14.1617357 C19.3703156,14.6646943 18.6602564,15 17.6543393,15 Z" id="esc" fill="#000000" fill-rule="nonzero"></path>
        <path d="M3,6 L21,6 C22.6568542,6 24,7.34314575 24,9 L24,16 C24,17.6568542 22.6568542,19 21,19 L3,19 C1.34314575,19 0,17.6568542 0,16 L0,9 C0,7.34314575 1.34314575,6 3,6 Z M3,8 C2.44771525,8 2,8.44771525 2,9 L2,16 C2,16.5522847 2.44771525,17 3,17 L21,17 C21.5522847,17 22,16.5522847 22,16 L22,9 C22,8.44771525 21.5522847,8 21,8 L3,8 Z" id="Rectangle" fill="#000000" fill-rule="nonzero"></path>
    </g>
</svg>