<svg xmlns="http://www.w3.org/2000/svg" width="24" height="24" viewBox="0 0 24 24">
  <path d="M3,4 L21,4 C22.6568542,4 24,5.34314575 24,7 L24,17 C24,18.6568542 22.6568542,20 21,20 L3,20 C1.34314575,20 0,18.6568542 0,17 L0,7 C0,5.34314575 1.34314575,4 3,4 Z M3,6 C2.44771525,6 2,6.44771525 2,7 L2,17 C2,17.5522847 2.44771525,18 3,18 L21,18 C21.5522847,18 22,17.5522847 22,17 L22,7 C22,6.44771525 21.5522847,6 21,6 L3,6 Z M9.23,12.01 C9.23,12.13 9.21,12.37 9.19,12.49 L5.98,12.49 C6.06,12.96 6.47,13.19 7.01,13.19 C7.32,13.19 7.74,13.08 8.11,12.68 L9.07,13.74 C8.66,14.24 7.93,14.6 6.8,14.6 C5.33,14.6 4.23,13.56 4.23,12.05 C4.23,10.57 5.29,9.5 6.77,9.5 C8.18,9.5 9.23,10.54 9.23,12.01 Z M6.76,10.86 C6.36,10.86 6.06,11.1 5.98,11.52 L7.5,11.52 C7.42,11.1 7.15,10.86 6.76,10.86 Z M11.9845455,14.6 C11.2245455,14.6 10.5445455,14.37 9.98454547,13.87 L10.7945455,12.77 C11.2145455,13.14 11.6445455,13.32 12.0145455,13.32 C12.2645455,13.32 12.3845455,13.25 12.3845455,13.12 C12.3845455,13 12.3145455,12.92 11.7145455,12.74 C10.8845455,12.5 10.1545455,12.08 10.1545455,11.15 C10.1545455,10.07 11.0145455,9.5 12.0345455,9.5 C12.8345455,9.5 13.3745455,9.71 13.9545455,10.12 L13.1245455,11.31 C12.8145455,10.98 12.4045455,10.8 12.0945455,10.8 C11.9445455,10.8 11.7845455,10.86 11.7845455,11 C11.7845455,11.1 11.9045455,11.19 12.3945455,11.35 C13.5045455,11.7 14.0545455,12.02 14.0545455,12.98 C14.0545455,13.94 13.3745455,14.6 11.9845455,14.6 Z M17.5290909,14.6 C16.0290909,14.6 14.9390909,13.58 14.9390909,12.07 C14.9390909,10.53 15.9790909,9.51 17.5690909,9.51 C18.3190909,9.51 19.1490909,9.71 19.7090909,10.32 L18.5790909,11.49 C18.3690909,11.21 18.0090909,11.09 17.7390909,11.09 C17.1590909,11.09 16.7390909,11.47 16.7390909,12.06 C16.7390909,12.64 17.1690909,13.02 17.7490909,13.02 C18.1490909,13.02 18.4090909,12.9 18.6990909,12.62 L19.7490909,13.78 C19.2990909,14.28 18.5390909,14.6 17.5290909,14.6 Z"/>
</svg>
