<svg xmlns="http://www.w3.org/2000/svg" width="24" height="24" viewBox="0 0 24 24">
  <path d="M3,5 L21,5 C22.6568542,5 24,6.34314575 24,8 L24,16 C24,17.6568542 22.6568542,19 21,19 L3,19 C1.34314575,19 0,17.6568542 0,16 L0,8 C0,6.34314575 1.34314575,5 3,5 Z M3,7 C2.44771525,7 2,7.44771525 2,8 L2,16 C2,16.5522847 2.44771525,17 3,17 L21,17 C21.5522847,17 22,16.5522847 22,16 L22,8 C22,7.44771525 21.5522847,7 21,7 L3,7 Z M14,11 C13.4477153,11 13,10.5522847 13,10 C13,9.44771525 13.4477153,9 14,9 C14.5522847,9 15,9.44771525 15,10 C15,10.5522847 14.5522847,11 14,11 Z M6,11 C5.44771525,11 5,10.5522847 5,10 C5,9.44771525 5.44771525,9 6,9 C6.55228475,9 7,9.44771525 7,10 C7,10.5522847 6.55228475,11 6,11 Z M6,15 C5.44771525,15 5,14.5522847 5,14 C5,13.4477153 5.44771525,13 6,13 C6.55228475,13 7,13.4477153 7,14 C7,14.5522847 6.55228475,15 6,15 Z M18,11 C17.4477153,11 17,10.5522847 17,10 C17,9.44771525 17.4477153,9 18,9 C18.5522847,9 19,9.44771525 19,10 C19,10.5522847 18.5522847,11 18,11 Z M18,15 C17.4477153,15 17,14.5522847 17,14 C17,13.4477153 17.4477153,13 18,13 C18.5522847,13 19,13.4477153 19,14 C19,14.5522847 18.5522847,15 18,15 Z M10,11 C9.44771525,11 9,10.5522847 9,10 C9,9.44771525 9.44771525,9 10,9 C10.5522847,9 11,9.44771525 11,10 C11,10.5522847 10.5522847,11 10,11 Z M9.99750219,15 C9.44521744,15 8.99750219,14.5522847 8.99750219,14 C8.99750219,13.4477153 9.44521744,13 9.99750219,13 L14,13 C14.5522847,13 15,13.4477153 15,14 C15,14.5522847 14.5522847,15 14,15 L9.99750219,15 Z"/>
</svg>
