<svg xmlns="http://www.w3.org/2000/svg" width="24" height="24" viewBox="0 0 24 24">
  <path d="M6.92000135,9.61999911 C6.96889885,9.73901911 6.99436659,9.86635811 6.99500755,9.99503011 C6.99775855,10.5473091 6.55227955,10.997249 6.00000161,11.0000001 C5.86882561,11.0033802 5.73868061,10.9759815 5.62000162,10.9200001 C5.49881662,10.8693581 5.38720252,10.798331 5.29000161,10.7100001 C5.00625711,10.4224391 4.92340461,9.99239711 5.08000164,9.62000004 C5.12759564,9.49724904 5.19896104,9.38510374 5.29000165,9.29000003 L5.29579997,9.28420171 C5.68791997,8.89528197 6.32107997,8.89787797 6.71,9.29 C6.80104235,9.3851031 6.87240695,9.4972481 6.92000135,9.61999911 Z M8.99999984,9.99999902 C8.99858084,9.72831102 9.10252884,9.46664902 9.28999975,9.26999911 L9.43999975,9.14999911 L9.61999975,9.05999911 C9.67954675,9.02954951 9.74376505,9.00926994 9.80999981,8.99999911 C10.1396398,8.93976611 10.4775378,9.04864411 10.7099998,9.28999907 C10.8010408,9.38510307 10.8724054,9.49724807 10.9199997,9.619999 C10.9688972,9.739019 10.994365,9.866358 10.9950059,9.99503 C10.9977569,10.547309 10.5522779,10.9972489 10,11 C9.44771484,10.9999992 8.99999993,10.5522842 8.99999984,9.99999902 Z M6.70999997,13.2899966 C6.89718697,13.4787146 7.00153865,13.7341926 7.00000295,13.9999996 C7.00153895,14.2658036 6.89718795,14.5212816 6.71000094,14.7100006 C6.61279994,14.7983316 6.50118594,14.8693588 6.38000099,14.9200006 C6.26098099,14.9688978 6.13364199,14.9943654 6.00496999,14.9950061 C5.45268899,14.9977561 5.00275009,14.5522761 5,14 C5.002015,13.596298 5.246575,13.233404 5.61999992,13.08 C5.86346092,12.979982 6.13653892,12.979982 6.38,13.08 C6.50364503,13.1258136 6.61613173,13.1973953 6.70999997,13.2899966 Z M14,13 C14.5522849,13 14.9999999,13.447715 15,14 C14.9999999,14.552285 14.5522849,15 14,15 L9.99999996,15 C9.44771496,15 8.99999998,14.552285 8.99999996,14 C8.99999996,13.447715 9.44771496,13 9.99999996,13 L14,13 Z M14.9200064,9.62000499 C14.9759877,9.73868399 15.0033865,9.86882799 15.0000064,10.000005 C15.0016357,10.13859 14.9744398,10.276 14.9201446,10.403517 C14.7037746,10.911657 14.1164546,11.148191 13.6083146,10.93183 C13.1001746,10.71546 12.8636406,10.12814 13.0800016,9.62000004 C13.1275956,9.49724904 13.198961,9.38510374 13.2900016,9.29000003 L13.2958,9.28420171 C13.68792,8.89528197 14.32108,8.89787797 14.71,9.29 C14.8010475,9.38510906 14.8724121,9.49725406 14.9200064,9.62000499 Z M18.56,13.17 L18.7100009,13.2900019 C18.8927349,13.4816359 18.9963168,13.7352349 18.9999998,14.0000002 C18.9999998,14.5522852 18.5522848,15.0000001 17.9999998,15.0000002 C17.4477148,15.0000002 16.9999999,14.5522852 16.9999998,14 C17.0036828,13.735233 17.1072658,13.481634 17.2899998,13.29 C17.3872008,13.201669 17.4988148,13.1306418 17.6199999,13.08 C17.8634609,12.9799819 18.1365389,12.9799819 18.38,13.08 C18.443724,13.1018883 18.5042548,13.1321536 18.56,13.17 Z M19.9999999,4.99999955 C21.6568497,4.99999955 22.9999997,6.34314955 22.9999999,7.99999955 L22.9999999,15.9999995 C22.9999997,17.6568495 21.6568497,18.9999996 19.9999999,18.9999995 L3.99999987,18.9999995 C2.34314987,18.9999995 0.999999619,17.6568495 0.999999869,15.9999995 L0.999999869,7.99999955 C0.999999869,6.34315 2.34314987,5.00000007 3.99999987,4.99999955 L19.9999999,4.99999955 Z M21,16.0000002 L21,8.00000015 C20.9999999,7.44771515 20.5522849,7.00000013 20,7.00000015 L3.99999996,7.00000015 C3.44771496,7.00000015 2.99999987,7.44771515 2.99999996,8.00000015 L2.99999996,16.0000002 C2.99999996,16.552285 3.44771496,17 3.99999996,17.0000002 L20,17.0000002 C20.552285,17 21,16.552285 21,16.0000002 Z M18.9200064,9.62000264 C18.9743019,9.74751864 19.0014981,9.88492964 18.999869,10.0235146 C18.993369,10.5757616 18.540426,11.0181833 17.988179,11.0116916 C17.435932,11.0051916 16.9935104,10.5522486 17.000002,9.9999997 C16.998439,9.7313417 17.105045,9.4733557 17.2958,9.2841677 C17.68793,8.89525702 18.32109,8.89786802 18.71,9.29 C18.8010474,9.38510763 18.872412,9.49725163 18.9200064,9.62000264 Z"/>
</svg>
