<svg xmlns="http://www.w3.org/2000/svg" width="25" height="25" viewBox="0 0 25 25">
  <path d="M20.75,19.0419782 L20.75,21.7509999 L21.2500002,21.7509999 C21.8022849,21.7509999 22.2500002,22.1987151 22.2500002,22.7509999 C22.2500002,23.3032846 21.8022849,23.7509999 21.2500002,23.7509999 L6.00000013,23.7509999 C4.20507532,23.751 2.75,22.2959247 2.75,20.5 L2.75000005,4.05 C2.75000005,2.41286839 4.07582765,0.999999877 5.70700016,1 L19.75,1 C21.1307119,1 22.2500003,2.11928832 22.25,3.5 L22.25,9.25 L22.2500002,16.75 C22.2500002,17.7751595 21.6329524,18.6561999 20.75,19.0419782 Z M18.75,19.25 L6.00000022,19.25 C5.30955906,19.25 4.75000002,19.8097307 4.75,20.5009999 C4.75,21.1913552 5.30964476,21.7509999 6.00000005,21.7509999 L18.75,21.7509999 L18.75,19.25 Z M4.75000005,4.05 L4.75000001,17.4990886 C5.13478177,17.3386134 5.55703066,17.25 6.00000022,17.25 L19.7500003,17.25 C20.0261424,17.25 20.2500002,17.0261423 20.2500002,16.75 L20.25,9.25 L20.25,3.5 C20.2500001,3.22385768 20.0261424,3 19.75,3 L5.70700008,3 C5.20982446,2.99999996 4.75000005,3.49001196 4.75000005,4.05 Z"/>
</svg>
