<svg xmlns="http://www.w3.org/2000/svg" width="25" height="25" viewBox="0 0 25 25">
  <path d="M21.0000001,19.7919782 L21.0000001,22.5009999 L21.5000002,22.5009999 C22.0522849,22.5009999 22.5000002,22.9487151 22.5000002,23.5009999 C22.5000002,24.0532846 22.0522849,24.5009999 21.5000002,24.5009999 L5.75000013,24.5009999 C3.95507532,24.501 2.5,23.0459247 2.5000003,21.2495773 L2.50000005,3.457 C2.50000005,1.82389446 3.82389511,0.499999877 5.45700016,0.5 L20,0.5 C21.3929311,0.5 22.5000002,1.86196914 22.5000002,3.24999992 L22.5,10 L22.5,17.5 C22.5000002,18.5251594 21.8829525,19.4061998 21.0000001,19.7919782 Z M19,20 L5.75000022,20 C5.05955906,20 4.50000002,20.5597307 4.5,21.2509999 C4.5,21.9413552 5.05964476,22.5009999 5.75000005,22.5009999 L19.0000001,22.5009999 L19,20 Z M4.50000005,3.45699999 L4.50000005,18.2490885 C4.88478195,18.0886133 5.30703075,18 5.75000022,18 L20,18 C20.2761424,18 20.5000001,17.7761423 20.5,17.5 L20.5,10 L20.5000002,3.24999988 C20.5000002,2.88580485 20.1864008,2.5 20,2.5 L5.45700008,2.5 C4.92846439,2.49999996 4.50000005,2.92846414 4.50000005,3.45699999 Z M11.0000001,9.5 L13.5000001,9.5 L13.5000001,7.25 C13.5000001,6.69771525 13.9477153,6.25 14.5000001,6.25 C15.0522848,6.25 15.5000001,6.69771525 15.5000001,7.25 L15.5000001,13.75 C15.5000001,14.3022847 15.0522848,14.75 14.5000001,14.75 C13.9477153,14.75 13.5000001,14.3022847 13.5000001,13.75 L13.5000001,11.5 L11.0000001,11.5 L11.0000001,13.75 C11.0000001,14.3022847 10.5522848,14.75 10.0000001,14.75 C9.4477153,14.75 9.00000005,14.3022847 9.00000005,13.75 L9.00000005,7.25 C9.00000005,6.69771525 9.4477153,6.25 10.0000001,6.25 C10.5522848,6.25 11.0000001,6.69771525 11.0000001,7.25 L11.0000001,9.5 Z"/>
</svg>
