<svg xmlns="http://www.w3.org/2000/svg" width="24" height="25" viewBox="0 0 24 25">
  <path d="M20.25,23.001 L21.0000001,23.001 C21.4142137,23.001 21.7500001,23.3367864 21.7500001,23.751 C21.7500001,24.1652136 21.4142137,24.501 21.0000001,24.501 L5.25000006,24.501 C3.59314645,24.5010001 2.24999995,23.1578536 2.25000025,21.4996331 L2.25,3.20700012 C2.25,1.71196579 3.46196622,0.500000007 4.9570001,0.50000012 L19.4999999,0.50000012 C20.7426407,0.50000012 21.7500002,1.50735961 21.7499999,2.75000012 L21.7499999,17.75 C21.7500001,18.7296641 21.1238943,19.5630935 20.25,19.8719708 L20.25,23.001 Z M18.7499999,20.0000001 L5.24999995,20.0000001 C4.42147065,20.0000001 3.74999997,20.6716768 3.74999995,21.501 C3.74999995,22.3294265 4.42157353,23.0010001 5.25,23.001 L18.75,23.001 L18.7499999,20.0000001 Z M3.75,3.20700011 L3.75,18.9013749 C4.19124013,18.6460939 4.70353943,18.5000001 5.25,18.5000001 L19.5,18.5000001 C19.9142135,18.5000001 20.25,18.1642136 20.2499999,17.7500001 L20.2499999,2.74999998 C20.25,2.33578663 19.9142135,2.00000012 19.4999999,2.00000012 L4.95700005,2.00000012 C4.29039318,2.00000007 3.75,2.54039305 3.75,3.20700011 Z M10.25,13.25 L10.5,13.25 C10.9142136,13.25 11.25,13.5857864 11.25,14 C11.25,14.4142136 10.9142136,14.75 10.5,14.75 L8.5,14.75 C8.08578644,14.75 7.75,14.4142136 7.75,14 C7.75,13.5857864 8.08578644,13.25 8.5,13.25 L8.75,13.25 L8.75,7.25 L8.5,7.25 C8.08578644,7.25 7.75,6.91421356 7.75,6.5 C7.75,6.08578644 8.08578644,5.75 8.5,5.75 L10.5,5.75 C10.9142136,5.75 11.25,6.08578644 11.25,6.5 C11.25,6.91421356 10.9142136,7.25 10.5,7.25 L10.25,7.25 L10.25,9.5 L13.75,9.5 L13.75,7.25 L13.5,7.25 C13.0857864,7.25 12.75,6.91421356 12.75,6.5 C12.75,6.08578644 13.0857864,5.75 13.5,5.75 L15.5,5.75 C15.9142136,5.75 16.25,6.08578644 16.25,6.5 C16.25,6.91421356 15.9142136,7.25 15.5,7.25 L15.25,7.25 L15.25,13.25 L15.5,13.25 C15.9142136,13.25 16.25,13.5857864 16.25,14 C16.25,14.4142136 15.9142136,14.75 15.5,14.75 L13.5,14.75 C13.0857864,14.75 12.75,14.4142136 12.75,14 C12.75,13.5857864 13.0857864,13.25 13.5,13.25 L13.75,13.25 L13.75,11 L10.25,11 L10.25,13.25 Z"/>
</svg>
