<svg xmlns="http://www.w3.org/2000/svg" width="24" height="25" viewBox="0 0 24 25">
  <path d="M12.5228891,19.2142857 L11.7709545,20.9061385 C11.5466505,21.4108226 10.9556887,21.6381156 10.4510045,21.4138115 C9.94632034,21.1895075 9.71902736,20.5985457 9.94333144,20.0938615 L11.3937047,16.8305216 C9.92464589,16.6568913 8.57755812,16.2683902 7.45359718,15.7113434 C6.74472209,16.2637661 5.94406315,16.6510545 5.07342055,16.8270542 C4.71382528,16.8997457 4.34996648,16.9337059 3.98562979,16.9284701 C3.43340206,16.9205342 2.99216637,16.4664318 3.00010229,15.9142041 C3.00803821,15.3619763 3.46214057,14.9207406 4.0143683,14.9286766 C4.23568118,14.931857 4.45706581,14.9111944 4.67713888,14.8667071 C5.01709728,14.7979847 5.34546971,14.6752044 5.65834002,14.5047284 C4.70137186,13.6244297 4.14094712,12.5493948 4.14285402,11.3555475 C4.14373617,10.8032634 4.59216598,10.3562639 5.14445002,10.357146 C5.69673407,10.3580282 6.14373362,10.806458 6.14285147,11.358742 C6.14183922,11.9924788 6.51295319,12.6201823 7.16604287,13.1685301 C8.17720161,11.8441143 8.80461678,9.90053212 8.77258383,7.78571429 L4.00000014,7.78571429 C3.44771539,7.78571429 3.00000014,7.33799904 3.00000014,6.78571429 C3.00000014,6.23342954 3.44771539,5.78571429 4.00000014,5.78571429 L8.71428585,5.78571429 L8.71428585,4.5 C8.71428585,3.94771525 9.1620011,3.5 9.71428585,3.5 C10.2665706,3.5 10.7142859,3.94771525 10.7142859,4.5 L10.7142859,5.78571429 L12.0000001,5.78571429 C12.5522849,5.78571429 13.0000001,6.23342954 13.0000001,6.78571429 C13.0000001,7.33799904 12.5522849,7.78571429 12.0000001,7.78571429 L10.7726849,7.78571429 C10.8030769,10.2104177 10.1091064,12.4944269 8.90992082,14.1737733 C9.85405436,14.5528139 10.9927858,14.8160852 12.2507106,14.9022584 L14.51476,9.80814725 C14.866678,9.01633187 15.9904652,9.01633187 16.3423831,9.80814725 L20.9138117,20.0938615 C21.1381158,20.5985457 20.9108228,21.1895075 20.4061386,21.4138115 C19.9014544,21.6381156 19.3104927,21.4108226 19.0861886,20.9061385 L18.334254,19.2142857 L12.5228891,19.2142857 Z M13.411778,17.2142857 L17.4453651,17.2142857 L15.4285716,12.6765002 L13.411778,17.2142857 Z"/>
</svg>
