<svg xmlns="http://www.w3.org/2000/svg" width="24" height="24" viewBox="0 0 24 24">
  <path d="M6.10791926,8.48491657 C5.67992595,8.9295555 5.16320652,9.23545854 4.56756935,9.35711311 C4.42871161,9.38547365 4.28775773,9.3893889 4.0822031,9.38361863 C4.00519215,9.38114373 4.00519215,9.38114373 3.93556982,9.378225 C3.83326771,9.37374475 3.80344316,9.3725487 3.77970759,9.37220407 C3.36553768,9.36619051 3.03466159,9.0255645 3.04067516,8.61139459 C3.04668873,8.19722468 3.38731474,7.86634859 3.80148464,7.87236216 C3.84762069,7.87303204 3.89910087,7.87509654 3.99964039,7.87959397 C4.06291526,7.88223954 4.06291526,7.88223954 4.12429405,7.8842093 C4.21361302,7.88671663 4.28004408,7.88487139 4.26740274,7.88745328 C5.16808099,7.70349629 5.87584214,6.44191757 6.01550309,4.75 L4.00000073,4.75 C3.58578716,4.75 3.25000073,4.41421356 3.25000073,4 C3.25000073,3.58578644 3.58578716,3.25 4.00000073,3.25 L6.04059447,3.25 L6.04059611,3 C6.04059611,2.58578644 6.37638255,2.25 6.79059611,2.25 C7.20480968,2.25 7.54059611,2.58578644 7.54059611,3 L7.54059447,3.25 L10.0000007,3.25 C10.4142143,3.25 10.7500007,3.58578644 10.7500007,4 C10.7500007,4.41421356 10.4142143,4.75 10.0000007,4.75 L7.51999148,4.75 C7.4581793,5.66591287 7.25834996,6.51491164 6.93479147,7.23069744 C7.09058851,7.31939087 7.26367186,7.40404944 7.44949078,7.48098726 C7.83219672,7.6394456 8.01398531,8.07814592 7.85552697,8.46085185 C7.69706863,8.84355778 7.25836831,9.02534637 6.87566238,8.86688804 C6.60106118,8.75319016 6.34291506,8.62444879 6.10791926,8.48491657 L6.10791926,8.48491657 Z M17.25,15 L15.75,15 L15.75,15.75 C15.75,16.1642136 15.4142136,16.5 15,16.5 C14.5857864,16.5 14.25,16.1642136 14.25,15.75 L14.25,12.7500001 C14.2499998,11.5073595 15.2573594,10.5 16.4999999,10.5 C17.7426405,10.4999998 18.75,11.5073594 18.75,12.75 L18.75,15.75 C18.75,16.1642136 18.4142136,16.5 18,16.5 C17.5857864,16.5 17.25,16.1642136 17.25,15.75 L17.25,15 Z M17.25,13.5 L17.25,12.75 C17.25,12.3357865 16.9142134,11.9999999 16.5,12 C16.0857865,12 15.7499999,12.3357866 15.75,12.75 L15.75,13.5 L17.25,13.5 Z M11.2499999,19.5 C10.0073593,19.4999996 8.99999993,18.4926403 8.99999993,17.25 L8.99999993,9.75000011 C8.99999975,8.50735951 10.0073593,7.5 11.2499999,7.5 L21.7499999,7.5 C22.9926404,7.49999995 23.9999998,8.5073594 23.9999999,9.75 L23.9999999,17.2500001 C23.9999998,18.4926406 22.9926404,19.5 21.7499999,19.5 L20.9999999,19.5 L20.9999999,23.25 C20.9999999,23.9181786 20.1921435,24.2528037 19.7196698,23.7803301 L15.4393398,19.5 L11.2499999,19.5 Z M19.4999999,18.75 C19.4999999,18.3357864 19.8357864,18 20.2499999,18 L21.7499999,18 C22.1642133,18 22.4999999,17.6642134 22.4999999,17.25 L22.4999999,9.75000006 C22.4999999,9.33578658 22.1642133,8.99999998 21.7499999,9 L11.2499999,9 C10.8357865,9 10.4999999,9.33578657 10.4999999,9.75 L10.4999999,17.25 C10.4999999,17.6642132 10.8357866,17.9999999 11.2500002,18 L15.7499999,18 C15.9489123,18 16.1396777,18.0790176 16.28033,18.2196699 L19.4999999,21.4393398 L19.4999999,18.75 Z M4.49999993,11.25 L4.49999993,13.9393398 L6.21966985,12.2196699 C6.51256307,11.9267767 6.9874368,11.9267767 7.28033002,12.2196699 C7.57322324,12.5125631 7.57322324,12.9874369 7.28033002,13.2803301 L4.28033002,16.2803301 C3.80785637,16.7528037 2.99999993,16.4181786 2.99999993,15.75 L2.99999993,12 L2.2499997,12 C1.00735927,11.9999996 -6.5567292e-08,10.9926403 -6.5567292e-08,9.75 L-6.5567292e-08,2.25000011 C-2.53201506e-07,1.00735951 1.00735932,0 2.24999993,0 L12.7499999,6.66133815e-16 C13.9926404,-5.43175513e-08 14.9999998,1.0073594 14.9999999,2.25 L14.9999999,5.25 C14.9999999,5.66421356 14.6642135,6 14.2499999,6 C13.8357864,6 13.4999999,5.66421356 13.4999999,5.25 L13.4999999,2.25000006 C13.4999999,1.83578658 13.1642133,1.49999998 12.7499999,1.5 L2.24999993,1.5 C1.83578646,1.5 1.49999987,1.83578657 1.49999993,2.25 L1.49999993,9.75 C1.49999993,10.1642132 1.83578657,10.4999999 2.24999993,10.5 L3.74999993,10.5 C4.1642135,10.5 4.49999993,10.8357864 4.49999993,11.25 Z"/>
</svg>
