<?xml version="1.0" encoding="UTF-8"?>
<svg width="24px" height="24px" viewBox="0 0 24 24" version="1.1" xmlns="http://www.w3.org/2000/svg" xmlns:xlink="http://www.w3.org/1999/xlink">
    <!-- Generator: Sketch 54.1 (76490) - https://sketchapp.com -->
    <title>bell copy 22</title>
    <desc>Created with Sketch.</desc>
    <g id="Icons" stroke="none" stroke-width="1" fill="none" fill-rule="evenodd">
        <path d="M1.50005046,3.92895886 C1.49415495,3.04851047 2.00527671,2.24649276 2.81800491,1.87455821 C5.71494275,0.610105721 8.8462519,-0.028353881 11.9930725,0.000965939374 C15.1538124,-0.0283535273 18.2851119,0.610104754 21.1942172,1.8799962 C21.9947799,2.2464909 22.5059028,3.04850496 22.5000328,3.92393763 L22.5000328,11.5379483 C22.4999584,16.7747907 19.2748823,21.4707806 14.3869526,23.3510331 L13.3461949,23.75094 C12.4796436,24.084253 11.5202475,24.084253 10.6539347,23.7510331 L9.61265833,23.3509269 C4.72503539,21.4706631 1.50003444,16.7746408 1.50003365,11.5378872 L1.50005046,3.92895886 Z M10.1509526,21.9508415 L11.1921939,22.3509342 C11.7121258,22.5509216 12.2877637,22.5509216 12.8079347,22.3508415 L13.8486745,21.9509415 C18.1570995,20.2936084 20.9999672,16.1541471 21.0000328,11.5379376 L21.0000495,3.9189231 C21.001989,3.62884833 20.8335941,3.36461616 20.5820041,3.249309 C17.8786219,2.06934048 14.9565409,1.47354092 11.9930724,1.50090141 C9.04352325,1.4735406 6.12143278,2.06934147 3.43021874,3.2438707 C3.16646668,3.36461566 2.99807452,3.62884527 3.00003365,3.92393695 L3.00003365,11.5378871 C3.00003434,16.1540205 5.84283821,20.293514 10.1509526,21.9508415 Z M16.4577262,11.1437941 C16.5168995,10.733829 16.8972113,10.4494561 17.3071765,10.5086295 C17.7171416,10.5678028 18.0015145,10.9481147 17.9423411,11.3580798 C17.4689539,14.6378041 14.4264558,16.9127884 11.1467409,16.439394 C7.8670162,15.9660067 5.59203183,12.9235087 6.06542622,9.64379368 C6.49127321,6.69343842 9.01855927,4.50311957 11.9994845,4.50093671 C12.413698,4.50063339 12.7497302,4.83617385 12.7500335,5.2503873 C12.7503368,5.66460075 12.4147964,6.00063299 12.0005829,6.00093631 C9.76489061,6.00257345 7.86942656,7.64531217 7.55004093,9.85808121 C7.19499535,12.317866 8.90123286,14.5997385 11.3610284,14.9547793 C13.8208131,15.3098249 16.1026857,13.6035874 16.4577262,11.1437941 Z M10.5672454,9.31449005 L12.0001426,10.7521678 L16.7197036,6.03260687 C17.0125968,5.73971365 17.4874705,5.73971365 17.7803637,6.03260687 C18.073257,6.32550008 18.073257,6.80037382 17.7803637,7.09326704 L12.9937142,11.8799158 C12.4445263,12.427761 11.5555412,12.427761 11.0048219,11.8783839 L9.50482192,10.3733839 C9.21241645,10.0800038 9.21320658,9.60513069 9.50658674,9.31272522 C9.7999669,9.02031975 10.27484,9.02110989 10.5672454,9.31449005 Z" id="Shape" fill="#000000" fill-rule="nonzero"></path>
    </g>
</svg>