<?xml version="1.0" encoding="UTF-8"?>
<svg width="107px" height="129px" viewBox="0 0 107 129" version="1.1" xmlns="http://www.w3.org/2000/svg" xmlns:xlink="http://www.w3.org/1999/xlink">
    <!-- Generator: Sketch 48.2 (47327) - http://www.bohemiancoding.com/sketch -->
    <title>shield-18-icon copy 2</title>
    <desc>Created with Sketch.</desc>
    <defs></defs>
    <g id="FS-Icons" stroke="none" stroke-width="1" fill="none" fill-rule="evenodd">
        <path d="M95.5782602,74.6963427 C95.5782602,83.559796 92.9130319,88.1376391 88.9117784,92.2852002 C82.0991629,99.3457713 69.6372545,106.322796 53.7489318,116.062949 C37.8591726,106.32172 25.3987004,99.3454126 18.5860852,92.2852002 C14.5844725,88.1379977 11.9196031,83.559796 11.9196031,74.6963427 L11.9196031,30.1819825 C26.5745893,28.8323308 39.11118,24.7349693 53.7489318,14.2127786 C68.3866833,24.7349693 80.923274,28.8319724 95.5782602,30.1819825 L95.5782602,74.6963427 Z M0.59298556,19.3343447 L0.59298556,73.8896552 C0.59298556,100.686379 19.9519395,107.683715 53.7489318,129 C87.5459238,107.683715 106.904878,100.686379 106.904878,73.8896552 L106.904878,19.3343447 C86.4124963,19.3343447 73.401687,16.6868962 53.7489318,0 C34.0961765,16.6868962 21.085367,19.3343447 0.59298556,19.3343447 Z" id="shield-18-icon-copy-2" fill="#000000"></path>
        <polygon id="Shape-Copy-2" fill="#000000" fill-rule="nonzero" points="49.1865926 85.4492754 29 65.4439026 39.0145502 55.5196815 49.1865926 65.6008331 70.9854498 44 81 53.9242211"></polygon>
    </g>
</svg>