<svg xmlns="http://www.w3.org/2000/svg" width="24" height="24" viewBox="0 0 24 24">
  <path d="M3388.98532,68.3443067 L3388.88817,68.4659307 C3388.12528,69.4989395 3388.52502,70.9992676 3389.7375,71.4992919 L3391.949,72.411 L3390.53338,78.009515 C3390.01585,80.0553571 3392.60892,81.404246 3393.98698,79.806043 L3401.01468,71.6556933 L3401.11183,71.5340693 C3401.87472,70.5010605 3401.47498,69.0007324 3400.2625,68.5007081 L3398.05,67.588 L3399.46662,61.990485 C3399.98415,59.9446429 3397.39108,58.595754 3396.01302,60.193957 L3388.98532,68.3443067 Z M3397.5277,61.5 L3395.68683,68.7770979 L3399.5,70.3496503 L3392.4723,78.5 L3394.31317,71.2229021 L3390.5,69.6503497 L3397.5277,61.5 Z" transform="translate(-3383 -58)"/>
</svg>
