<svg xmlns="http://www.w3.org/2000/svg" width="24" height="24" viewBox="0 0 24 24">
  <path d="M1.5,9.14287871 L7.9029827,5.79928673 C8.07657115,5.70864008 8.27872924,5.68948386 8.4662543,5.7459119 L14.7712099,7.643132 L18.8762089,2.98205081 L17.7320508,2.98205081 C17.3178372,2.98205081 16.9820508,2.64626437 16.9820508,2.23205081 C16.9820508,1.81783725 17.3178372,1.48205081 17.7320508,1.48205081 L20.7320508,1.48205081 C21.1462644,1.48205081 21.4820508,1.81783725 21.4820508,2.23205081 L21.4820508,5.23205081 C21.4820508,5.64626437 21.1462644,5.98205081 20.7320508,5.98205081 C20.3178372,5.98205081 19.9820508,5.64626437 19.9820508,5.23205081 L19.9820508,3.9959614 L15.5788045,8.99569189 C15.3849837,9.21576849 15.0806736,9.302691 14.7998539,9.21818972 L8.32653937,7.27030884 L1.5,10.8350791 L1.5,15.1322339 L6.25789252,12.5885879 C6.36668066,12.530428 6.48813511,12.5 6.61149407,12.5 L14.2538393,12.5 L20.3880237,9.33355295 C20.7560923,9.1435571 21.2084928,9.28791354 21.3984887,9.65598209 C21.5884845,10.0240506 21.4441281,10.4764512 21.0760595,10.6664471 L14.7800126,13.9164471 C14.6736503,13.971351 14.5556917,14 14.4359947,14 L6.79939182,14 L1.5,16.8331402 L1.5,21.2209441 C1.5,21.6351576 1.16421356,21.9709441 0.75,21.9709441 C0.335786438,21.9709441 0,21.6351576 0,21.2209441 L0,4 C0,3.58578644 0.335786438,3.25 0.75,3.25 C1.16421356,3.25 1.5,3.58578644 1.5,4 L1.5,9.14287871 Z M9.21468283,18.3192378 L8.98028619,18.2108672 L8.72885821,18.2697734 L9.21468283,18.3192378 Z M16.12893,16.5360376 C16.5322231,16.4415516 16.9357527,16.6918891 17.0302388,17.0951821 C17.1247248,17.4984751 16.8743873,17.9020048 16.4710943,17.9964909 L9.07102246,19.7302266 C8.9080974,19.7683977 8.73708661,19.7509862 8.58519784,19.6807622 L4.83526966,17.9470264 C4.45929508,17.773199 4.29542248,17.3274963 4.46924996,16.9515217 C4.64307744,16.5755472 5.08878007,16.4116746 5.46475465,16.5855021 L8.98028619,18.2108672 L16.12893,16.5360376 Z"/>
</svg>
