<svg xmlns="http://www.w3.org/2000/svg" width="24" height="24" viewBox="0 0 24 24">
  <path d="M3348,71 C3349.59768,71 3350.90366,72.24892 3350.99491,73.8237272 L3351,74 L3351,77 C3351,78.5976809 3349.75108,79.9036609 3348.17627,79.9949073 L3348,80 L3336,80 C3334.40232,80 3333.09634,78.75108 3333.00509,77.1762728 L3333,77 L3333,74 C3333,72.4023191 3334.24892,71.0963391 3335.82373,71.0050927 L3336,71 L3348,71 Z M3348,73 L3336,73 C3335.48716,73 3335.06449,73.3860402 3335.00673,73.8833789 L3335,74 L3335,77 C3335,77.5128358 3335.38604,77.9355072 3335.88338,77.9932723 L3336,78 L3348,78 C3348.51284,78 3348.93551,77.6139598 3348.99327,77.1166211 L3349,77 L3349,74 C3349,73.4871642 3348.61396,73.0644928 3348.11662,73.0067277 L3348,73 Z M3348,60 C3349.59768,60 3350.90366,61.24892 3350.99491,62.8237272 L3351,63 L3351,66 C3351,67.5976809 3349.75108,68.9036609 3348.17627,68.9949073 L3348,69 L3336,69 C3334.40232,69 3333.09634,67.75108 3333.00509,66.1762728 L3333,66 L3333,63 C3333,61.4023191 3334.24892,60.0963391 3335.82373,60.0050927 L3336,60 L3348,60 Z M3348,62 L3336,62 C3335.48716,62 3335.06449,62.3860402 3335.00673,62.8833789 L3335,63 L3335,66 C3335,66.5128358 3335.38604,66.9355072 3335.88338,66.9932723 L3336,67 L3348,67 C3348.51284,67 3348.93551,66.6139598 3348.99327,66.1166211 L3349,66 L3349,63 C3349,62.4871642 3348.61396,62.0644928 3348.11662,62.0067277 L3348,62 Z" transform="translate(-3330 -58)"/>
</svg>
