<svg xmlns="http://www.w3.org/2000/svg" width="24" height="24" viewBox="0 0 24 24">
  <path d="M3375.5,71 C3376.82548,71 3377.91004,72.0315359 3377.99468,73.3356243 L3378,73.5 L3378,74.5 C3378,75.8254834 3376.96846,76.9100387 3375.66438,76.9946823 L3375.5,77 L3362.5,77 C3361.17452,77 3360.08996,75.9684641 3360.00532,74.6643757 L3360,74.5 L3360,73.5 C3360,72.1745166 3361.03154,71.0899613 3362.33562,71.0053177 L3362.5,71 L3375.5,71 Z M3375.5,73 L3362.5,73 C3362.25454,73 3362.05039,73.1768752 3362.00806,73.4101244 L3362,73.5 L3362,74.5 C3362,74.7454599 3362.17688,74.9496084 3362.41012,74.9919443 L3362.5,75 L3375.5,75 C3375.74546,75 3375.94961,74.8231248 3375.99194,74.5898756 L3376,74.5 L3376,73.5 C3376,73.2545401 3375.82312,73.0503916 3375.58988,73.0080557 L3375.5,73 Z M3375.5,63 C3376.82548,63 3377.91004,64.0315359 3377.99468,65.3356243 L3378,65.5 L3378,66.5 C3378,67.8254834 3376.96846,68.9100387 3375.66438,68.9946823 L3375.5,69 L3362.5,69 C3361.17452,69 3360.08996,67.9684641 3360.00532,66.6643757 L3360,66.5 L3360,65.5 C3360,64.1745166 3361.03154,63.0899613 3362.33562,63.0053177 L3362.5,63 L3375.5,63 Z M3375.5,65 L3362.5,65 C3362.25454,65 3362.05039,65.1768752 3362.00806,65.4101244 L3362,65.5 L3362,66.5 C3362,66.7454599 3362.17688,66.9496084 3362.41012,66.9919443 L3362.5,67 L3375.5,67 C3375.74546,67 3375.94961,66.8231248 3375.99194,66.5898756 L3376,66.5 L3376,65.5 C3376,65.2545401 3375.82312,65.0503916 3375.58988,65.0080557 L3375.5,65 Z" transform="translate(-3357 -58)"/>
</svg>
