<svg xmlns="http://www.w3.org/2000/svg" width="24" height="24" viewBox="0 0 24 24">
  <path d="M3375.5,74 C3376.82548,74 3377.91004,75.0315359 3377.99468,76.3356243 L3378,76.5 L3378,77.5 C3378,78.8254834 3376.96846,79.9100387 3375.66438,79.9946823 L3375.5,80 L3362.5,80 C3361.17452,80 3360.08996,78.9684641 3360.00532,77.6643757 L3360,77.5 L3360,76.5 C3360,75.1745166 3361.03154,74.0899613 3362.33562,74.0053177 L3362.5,74 L3375.5,74 Z M3375.5,76 L3362.5,76 C3362.25454,76 3362.05039,76.1768752 3362.00806,76.4101244 L3362,76.5 L3362,77.5 C3362,77.7454599 3362.17688,77.9496084 3362.41012,77.9919443 L3362.5,78 L3375.5,78 C3375.74546,78 3375.94961,77.8231248 3375.99194,77.5898756 L3376,77.5 L3376,76.5 C3376,76.2545401 3375.82312,76.0503916 3375.58988,76.0080557 L3375.5,76 Z M3375.5,67 C3376.82548,67 3377.91004,68.0315359 3377.99468,69.3356243 L3378,69.5 L3378,70.5 C3378,71.8254834 3376.96846,72.9100387 3375.66438,72.9946823 L3375.5,73 L3362.5,73 C3361.17452,73 3360.08996,71.9684641 3360.00532,70.6643757 L3360,70.5 L3360,69.5 C3360,68.1745166 3361.03154,67.0899613 3362.33562,67.0053177 L3362.5,67 L3375.5,67 Z M3375.5,69 L3362.5,69 C3362.25454,69 3362.05039,69.1768752 3362.00806,69.4101244 L3362,69.5 L3362,70.5 C3362,70.7454599 3362.17688,70.9496084 3362.41012,70.9919443 L3362.5,71 L3375.5,71 C3375.74546,71 3375.94961,70.8231248 3375.99194,70.5898756 L3376,70.5 L3376,69.5 C3376,69.2545401 3375.82312,69.0503916 3375.58988,69.0080557 L3375.5,69 Z M3375.5,60 C3376.82548,60 3377.91004,61.0315359 3377.99468,62.3356243 L3378,62.5 L3378,63.5 C3378,64.8254834 3376.96846,65.9100387 3375.66438,65.9946823 L3375.5,66 L3362.5,66 C3361.17452,66 3360.08996,64.9684641 3360.00532,63.6643757 L3360,63.5 L3360,62.5 C3360,61.1745166 3361.03154,60.0899613 3362.33562,60.0053177 L3362.5,60 L3375.5,60 Z M3375.5,62 L3362.5,62 C3362.25454,62 3362.05039,62.1768752 3362.00806,62.4101244 L3362,62.5 L3362,63.5 C3362,63.7454599 3362.17688,63.9496084 3362.41012,63.9919443 L3362.5,64 L3375.5,64 C3375.74546,64 3375.94961,63.8231248 3375.99194,63.5898756 L3376,63.5 L3376,62.5 C3376,62.2545401 3375.82312,62.0503916 3375.58988,62.0080557 L3375.5,62 Z" transform="translate(-3357 -58)"/>
</svg>
