<svg xmlns="http://www.w3.org/2000/svg" width="24" height="24" viewBox="0 0 24 24">
  <path d="M3348.5,71 C3349.82548,71 3350.91004,72.0315359 3350.99468,73.3356243 L3351,73.5 L3351,78.5 C3351,79.8254834 3349.96846,80.9100387 3348.66438,80.9946823 L3348.5,81 L3335.5,81 C3334.17452,81 3333.08996,79.9684641 3333.00532,78.6643757 L3333,78.5 L3333,73.5 C3333,72.1745166 3334.03154,71.0899613 3335.33562,71.0053177 L3335.5,71 L3348.5,71 Z M3348.5,73 L3335.5,73 C3335.25454,73 3335.05039,73.1768752 3335.00806,73.4101244 L3335,73.5 L3335,78.5 C3335,78.7454599 3335.17688,78.9496084 3335.41012,78.9919443 L3335.5,79 L3348.5,79 C3348.74546,79 3348.94961,78.8231248 3348.99194,78.5898756 L3349,78.5 L3349,73.5 C3349,73.2545401 3348.82312,73.0503916 3348.58988,73.0080557 L3348.5,73 Z M3348.5,59 C3349.82548,59 3350.91004,60.0315359 3350.99468,61.3356243 L3351,61.5 L3351,66.5 C3351,67.8254834 3349.96846,68.9100387 3348.66438,68.9946823 L3348.5,69 L3335.5,69 C3334.17452,69 3333.08996,67.9684641 3333.00532,66.6643757 L3333,66.5 L3333,61.5 C3333,60.1745166 3334.03154,59.0899613 3335.33562,59.0053177 L3335.5,59 L3348.5,59 Z M3348.5,61 L3335.5,61 C3335.25454,61 3335.05039,61.1768752 3335.00806,61.4101244 L3335,61.5 L3335,66.5 C3335,66.7454599 3335.17688,66.9496084 3335.41012,66.9919443 L3335.5,67 L3348.5,67 C3348.74546,67 3348.94961,66.8231248 3348.99194,66.5898756 L3349,66.5 L3349,61.5 C3349,61.2545401 3348.82312,61.0503916 3348.58988,61.0080557 L3348.5,61 Z" transform="translate(-3330 -58)"/>
</svg>
