<svg xmlns="http://www.w3.org/2000/svg" width="24" height="24" viewBox="0 0 24 24">
  <path d="M3625,75 C3625.55228,75 3626,75.4477153 3626,76 C3626,76.5522847 3625.55228,77 3625,77 L3611,77 C3610.44772,77 3610,76.5522847 3610,76 C3610,75.4477153 3610.44772,75 3611,75 L3625,75 Z M3625,71 C3625.55228,71 3626,71.4477153 3626,72 C3626,72.5522847 3625.55228,73 3625,73 L3611,73 C3610.44772,73 3610,72.5522847 3610,72 C3610,71.4477153 3610.44772,71 3611,71 L3625,71 Z M3625,67 C3625.55228,67 3626,67.4477153 3626,68 C3626,68.5522847 3625.55228,69 3625,69 L3611,69 C3610.44772,69 3610,68.5522847 3610,68 C3610,67.4477153 3610.44772,67 3611,67 L3625,67 Z M3625,63 C3625.55228,63 3626,63.4477153 3626,64 C3626,64.5522847 3625.55228,65 3625,65 L3611,65 C3610.44772,65 3610,64.5522847 3610,64 C3610,63.4477153 3610.44772,63 3611,63 L3625,63 Z" transform="translate(-3606 -58)"/>
</svg>
