<svg xmlns="http://www.w3.org/2000/svg" width="24" height="24" viewBox="0 0 24 24">
  <path d="M6.72456198,13 C6.1714628,13 5.72308732,12.5522847 5.72308732,12 C5.72308732,11.4477153 6.1714628,11 6.72456198,11 L17.240046,11 C17.7931452,11 18.2415207,11.4477153 18.2415207,12 C18.2415207,12.5522847 17.7931452,13 17.240046,13 L6.72456198,13 Z M14.7626995,9.48621099 C14.3912626,9.89542858 13.7579278,9.92649922 13.3481068,9.5556092 C12.9382857,9.18471918 12.9071692,8.55231701 13.2786062,8.14309942 C14.221221,7.10460671 15.5579051,6.5 16.9896773,6.5 L18.4918893,6.5 C21.5339349,6.5 24,8.96243388 24,12 C24,15.0375661 21.5339349,17.5 18.4918893,17.5 L16.9896773,17.5 C15.5579051,17.5 14.221221,16.8953933 13.2786062,15.8569006 C12.9071692,15.447683 12.9382857,14.8152808 13.3481068,14.4443908 C13.7579278,14.0735008 14.3912626,14.1045714 14.7626995,14.513789 C15.3295126,15.1382554 16.1292693,15.5 16.9896773,15.5 L18.4918893,15.5 C20.4277365,15.5 21.9970507,13.9329966 21.9970507,12 C21.9970507,10.0670034 20.4277365,8.5 18.4918893,8.5 L16.9896773,8.5 C16.1292693,8.5 15.3295126,8.86174458 14.7626995,9.48621099 Z M9.23730048,9.48621099 C8.67048735,8.86174458 7.87073074,8.5 7.01032267,8.5 L5.50811067,8.5 C3.57226352,8.5 2.00294934,10.0670034 2.00294934,12 C2.00294934,13.9329966 3.57226352,15.5 5.50811067,15.5 L7.01032267,15.5 C7.87073074,15.5 8.67048735,15.1382554 9.23730048,14.513789 C9.60873744,14.1045714 10.2420722,14.0735008 10.6518932,14.4443908 C11.0617143,14.8152808 11.0928308,15.447683 10.7213938,15.8569006 C9.77877896,16.8953933 8.4420949,17.5 7.01032267,17.5 L5.50811067,17.5 C2.46606515,17.5 0,15.0375661 0,12 C0,8.96243388 2.46606515,6.5 5.50811067,6.5 L7.01032267,6.5 C8.4420949,6.5 9.77877896,7.10460671 10.7213938,8.14309942 C11.0928308,8.55231701 11.0617143,9.18471918 10.6518932,9.5556092 C10.2420722,9.92649922 9.60873744,9.89542858 9.23730048,9.48621099 Z"/>
</svg>
