<svg xmlns="http://www.w3.org/2000/svg" width="24" height="24" viewBox="0 0 24 24">
  <path d="M3080.5,71 C3081.82548,71 3082.91004,72.0315359 3082.99468,73.3356243 L3083,73.5 L3083,74.5 C3083,75.8254834 3081.96846,76.9100387 3080.66438,76.9946823 L3080.5,77 L3069.5,77 C3068.17452,77 3067.08996,75.9684641 3067.00532,74.6643757 L3067,74.5 L3067,73.5 C3067,72.1745166 3068.03154,71.0899613 3069.33562,71.0053177 L3069.5,71 L3080.5,71 Z M3062,71 C3063.65685,71 3065,72.3431458 3065,74 C3065,75.6568542 3063.65685,77 3062,77 C3060.34315,77 3059,75.6568542 3059,74 C3059,72.3431458 3060.34315,71 3062,71 Z M3080.5,73 L3069.5,73 C3069.25454,73 3069.05039,73.1768752 3069.00806,73.4101244 L3069,73.5 L3069,74.5 C3069,74.7454599 3069.17688,74.9496084 3069.41012,74.9919443 L3069.5,75 L3080.5,75 C3080.74546,75 3080.94961,74.8231248 3080.99194,74.5898756 L3081,74.5 L3081,73.5 C3081,73.2545401 3080.82312,73.0503916 3080.58988,73.0080557 L3080.5,73 Z M3062,73 C3061.44772,73 3061,73.4477153 3061,74 C3061,74.5522847 3061.44772,75 3062,75 C3062.55228,75 3063,74.5522847 3063,74 C3063,73.4477153 3062.55228,73 3062,73 Z M3080.5,63 C3081.82548,63 3082.91004,64.0315359 3082.99468,65.3356243 L3083,65.5 L3083,66.5 C3083,67.8254834 3081.96846,68.9100387 3080.66438,68.9946823 L3080.5,69 L3069.5,69 C3068.17452,69 3067.08996,67.9684641 3067.00532,66.6643757 L3067,66.5 L3067,65.5 C3067,64.1745166 3068.03154,63.0899613 3069.33562,63.0053177 L3069.5,63 L3080.5,63 Z M3062,63 C3063.65685,63 3065,64.3431458 3065,66 C3065,67.6568542 3063.65685,69 3062,69 C3060.34315,69 3059,67.6568542 3059,66 C3059,64.3431458 3060.34315,63 3062,63 Z M3080.5,65 L3069.5,65 C3069.25454,65 3069.05039,65.1768752 3069.00806,65.4101244 L3069,65.5 L3069,66.5 C3069,66.7454599 3069.17688,66.9496084 3069.41012,66.9919443 L3069.5,67 L3080.5,67 C3080.74546,67 3080.94961,66.8231248 3080.99194,66.5898756 L3081,66.5 L3081,65.5 C3081,65.2545401 3080.82312,65.0503916 3080.58988,65.0080557 L3080.5,65 Z M3062,65 C3061.44772,65 3061,65.4477153 3061,66 C3061,66.5522847 3061.44772,67 3062,67 C3062.55228,67 3063,66.5522847 3063,66 C3063,65.4477153 3062.55228,65 3062,65 Z" transform="translate(-3059 -58)"/>
</svg>
