<svg xmlns="http://www.w3.org/2000/svg" width="24" height="24" viewBox="0 0 24 24">
  <path d="M3080,71 C3081.05436,71 3081.91817,71.8158778 3081.99451,72.8507377 L3082,73 L3082,74 C3082,75.0543618 3081.18412,75.9181651 3080.14926,75.9945143 L3080,76 L3069,76 C3067.94564,76 3067.08183,75.1841222 3067.00549,74.1492623 L3067,74 L3067,73 C3067,71.9456382 3067.81588,71.0818349 3068.85074,71.0054857 L3069,71 L3080,71 Z M3062.5,71 C3063.88071,71 3065,72.1192881 3065,73.5 C3065,74.8807119 3063.88071,76 3062.5,76 C3061.11929,76 3060,74.8807119 3060,73.5 C3060,72.1192881 3061.11929,71 3062.5,71 Z M3080,73 L3069,73 L3069,74 L3080,74 L3080,73 Z M3062.5,73 C3062.22386,73 3062,73.2238576 3062,73.5 C3062,73.7761424 3062.22386,74 3062.5,74 C3062.77614,74 3063,73.7761424 3063,73.5 C3063,73.2238576 3062.77614,73 3062.5,73 Z M3080,64 C3081.05436,64 3081.91817,64.8158778 3081.99451,65.8507377 L3082,66 L3082,67 C3082,68.0543618 3081.18412,68.9181651 3080.14926,68.9945143 L3080,69 L3069,69 C3067.94564,69 3067.08183,68.1841222 3067.00549,67.1492623 L3067,67 L3067,66 C3067,64.9456382 3067.81588,64.0818349 3068.85074,64.0054857 L3069,64 L3080,64 Z M3062.5,64 C3063.88071,64 3065,65.1192881 3065,66.5 C3065,67.8807119 3063.88071,69 3062.5,69 C3061.11929,69 3060,67.8807119 3060,66.5 C3060,65.1192881 3061.11929,64 3062.5,64 Z M3080,66 L3069,66 L3069,67 L3080,67 L3080,66 Z M3062.5,66 C3062.22386,66 3062,66.2238576 3062,66.5 C3062,66.7761424 3062.22386,67 3062.5,67 C3062.77614,67 3063,66.7761424 3063,66.5 C3063,66.2238576 3062.77614,66 3062.5,66 Z" transform="translate(-3059 -58)"/>
</svg>
