<svg xmlns="http://www.w3.org/2000/svg" width="24" height="24" viewBox="0 0 24 24">
  <path d="M1644,58 C1648.97929,58 1653,62.0865528 1653,67.1174377 C1653,70.1770997 1651.83563,73.2557063 1649.84157,76.2281699 C1648.4907,78.2563307 1646.90933,80.0280823 1645.36074,81.4657404 C1644.59342,82.1780865 1643.40658,82.1780865 1642.63926,81.4657404 C1641.09067,80.0280823 1639.5093,78.2563307 1638.16211,76.2336675 C1636.16437,73.2557063 1635,70.1770997 1635,67.1174377 C1635,62.0865528 1639.02071,58 1644,58 Z M1644,60 C1640.134,60 1637,63.1825114 1637,67.1174377 C1637,69.9949161 1638.261,72.7910524 1639.823,75.1194713 C1640.66819,76.3884087 1641.58259,77.493226 1642.38584,78.3706195 L1642.64923,78.654574 L1643.03494,79.0573323 L1643.21748,79.2427038 L1643.55855,79.5802461 L1644,80 L1644.28427,79.7319425 L1644.60776,79.4170875 L1645.05904,78.9606001 L1645.05904,78.9606001 L1645.55259,78.4376617 C1646.37047,77.5497754 1647.31014,76.4209456 1648.177,75.1194713 C1649.739,72.7910524 1651,69.9949161 1651,67.1174377 C1651,63.1825114 1647.866,60 1644,60 Z M1646.82843,64.1715715 C1648.39052,65.7336667 1648.39052,68.2663333 1646.82843,69.8284285 C1645.26633,71.3905238 1642.73367,71.3905238 1641.17157,69.8284285 C1639.60948,68.2663333 1639.60948,65.7336667 1641.17157,64.1715715 C1642.73367,62.6094762 1645.26633,62.6094762 1646.82843,64.1715715 Z M1642.58579,65.585785 C1641.80474,66.3668317 1641.80474,67.6331683 1642.58579,68.414215 C1643.36683,69.1952617 1644.63317,69.1952617 1645.41421,68.414215 C1646.15415,67.674276 1646.1931,66.498786 1645.53105,65.7129995 L1645.41421,65.585785 L1645.287,65.4689525 C1644.50121,64.8069019 1643.32572,64.845846 1642.58579,65.585785 Z" transform="translate(-1632 -58)"/>
</svg>
