<svg xmlns="http://www.w3.org/2000/svg" width="24" height="24" viewBox="0 0 24 24">
  <path d="M9.34832991,4.84834991 C10.8127931,3.3838867 13.1871669,3.3838867 14.6516301,4.84834991 C16.1160933,6.31281313 16.1160933,8.68718687 14.6516301,10.1516501 C13.1871669,11.6161133 10.8127931,11.6161133 9.34832991,10.1516501 C7.8838667,8.68718687 7.8838667,6.31281313 9.34832991,4.84834991 Z M13.5909699,9.09098991 C14.4696467,8.21231313 14.4696467,6.78768687 13.5909699,5.90901009 C12.7122931,5.0303333 11.2876669,5.0303333 10.4089901,5.90901009 C9.5303133,6.78768687 9.5303133,8.21231313 10.4089901,9.09098991 C11.2876669,9.9696667 12.7122931,9.9696667 13.5909699,9.09098991 Z M19.4999998,7.5 C19.4999997,9.13090482 18.4615516,11.5478374 16.6656104,14.5901413 C15.4841808,16.5914695 14.1411321,18.5830375 12.9087742,20.2805626 C12.5406612,20.7824656 11.8353734,20.8909239 11.3334734,20.5228106 C11.240851,20.4548783 11.1591584,20.3731855 11.089071,20.2776102 C9.85886742,18.5830376 8.51581869,16.5914695 7.33438911,14.5901414 C5.53844795,11.5478377 4.4999998,9.13090541 4.4999998,7.5 C4.49999918,3.35786786 7.85786582,1.1364546e-06 11.9999998,5.32907052e-15 C16.1421332,-1.81058892e-07 19.4999997,3.35786638 19.4999998,7.5 Z M15.373889,13.8276087 C17.0318598,11.0190251 17.9999997,8.76573121 17.9999998,7.5 C17.9999997,4.18629351 15.3137061,1.49999986 11.9999998,1.5 C8.68629315,1.50000091 5.9999993,4.18629482 5.9999998,7.5 C5.9999998,8.76573176 6.96813971,11.0190254 8.62611049,13.8276089 C9.68410162,15.6198337 10.8810573,17.4132488 11.999984,18.9761986 C13.1201041,17.4115079 14.3164114,15.6189638 15.373889,13.8276087 Z M17.8333114,18.5197138 C17.4269879,18.4392523 17.1628246,18.044635 17.2432862,17.6383114 C17.3237477,17.2319879 17.718365,16.9678246 18.1246886,17.0482862 C21.2850175,17.6741053 23.25,18.7232378 23.25,20.25 C23.25,22.5720594 18.2523723,24 12,24 C5.74762771,24 0.75,22.5720594 0.75,20.25 C0.75,18.7263546 2.70567188,17.678929 5.85338113,17.051471 C6.25960257,16.9704956 6.65455363,17.2341597 6.735529,17.6403811 C6.81650437,18.0466026 6.55284032,18.4415536 6.14661887,18.522529 C3.69907926,19.0104166 2.25,19.7865196 2.25,20.25 C2.25,20.5842933 3.129112,21.1782368 4.78104711,21.6502338 C6.66519198,22.1885786 9.24247217,22.5 12,22.5 C14.7575278,22.5 17.334808,22.1885786 19.2189529,21.6502338 C20.870888,21.1782368 21.75,20.5842933 21.75,20.25 C21.75,19.7849351 20.2923094,19.006653 17.8333114,18.5197138 Z"/>
</svg>
