<svg xmlns="http://www.w3.org/2000/svg" width="24" height="24" viewBox="0 0 24 24">
  <path fill-rule="evenodd" d="M14.1213218,6.62867823 C15.2928927,7.80024921 15.2928927,9.69975079 14.1213218,10.8713218 C12.9497508,12.0428927 11.0502492,12.0428927 9.87867823,10.8713218 C8.70710726,9.69975079 8.70710726,7.80024921 9.87867823,6.62867823 C11.0502492,5.45710726 12.9497508,5.45710726 14.1213218,6.62867823 Z M20.5,9.15 C20.5,11.0026913 19.3383567,13.7063541 17.3275365,17.1126607 C16.0117275,19.341626 14.5167364,21.5585051 13.1441438,23.4491947 C12.6283071,24.1525112 11.3716948,24.1525113 10.8558572,23.4491961 C9.55844101,21.6802428 7.99508038,19.3640939 6.66951986,17.1162513 C4.6619479,13.7118758 3.5,11.0030289 3.5,9.15 C3.49999929,4.45558338 7.30558161,0.650001288 12,0.65 C16.694418,0.649999795 20.5,4.45558187 20.5,9.15 Z M15.6052413,16.0959506 C17.432101,13.001271 18.5,10.5157932 18.5,9.15 C18.5,5.56015138 15.5898485,2.64999984 12,2.65 C8.41015134,2.65000098 5.49999946,5.5601527 5.5,9.15 C5.5,11.5524512 8.54102251,16.813221 11.9975429,21.617898 C13.2007987,19.9277173 14.4749009,18.0107344 15.6052413,16.0959506 Z"/>
</svg>
