<svg xmlns="http://www.w3.org/2000/svg" width="25" height="24" viewBox="0 0 25 24">
  <path d="M13.5,15.9363279 L13.5,18 C13.5,18.5522847 13.0522847,19 12.5,19 C11.9477153,19 11.5,18.5522847 11.5,18 L11.5,15.9363279 C11.0466289,15.6200915 10.75,15.0946867 10.75,14.5000002 C10.7499999,13.5335014 11.5335013,12.7500001 12.5,12.7500001 C13.4664987,12.75 14.25,13.5335013 14.25,14.5 C14.25,15.0946866 13.9533711,15.6200915 13.5,15.9363279 L13.5,15.9363279 Z M6.49999978,8.64494163 L6.5,7 C6.49999978,3.68629863 9.18629831,1.00000014 12.5,1 C15.8137012,1 18.4999998,3.68629858 18.5,7 L18.4999998,8.6449415 C19.9457385,9.07521996 21,10.4145009 21,12 L21,19.5 C21,21.4329847 19.4329847,23 17.5,23 L7.5,23 C5.56701525,23 4,21.4329847 4,19.5 L4,12 C4,10.4145011 5.05426131,9.07522023 6.49999978,8.64494163 L6.49999978,8.64494163 Z M8.49999978,8.5 L16.4999998,8.5 L16.4999998,7 C16.4999998,4.79086808 14.7091317,3 12.4999998,3 C10.2908678,3.0000001 8.49999978,4.79086812 8.49999978,7 L8.49999978,8.5 Z M7.5,10.5 C6.67158475,10.5 6,11.1715847 6,12 L6,19.5 C6,20.3284153 6.67158475,21 7.5,21 L17.5,21 C18.3284153,21 19,20.3284153 19,19.5 L19,12 C19,11.1715847 18.3284153,10.5 17.5,10.5 L7.5,10.5 Z"/>
</svg>
