<?xml version="1.0" encoding="UTF-8"?>
<svg width="24px" height="24px" viewBox="0 0 24 24" version="1.1" xmlns="http://www.w3.org/2000/svg" xmlns:xlink="http://www.w3.org/1999/xlink">
    <!-- Generator: Sketch 54.1 (76490) - https://sketchapp.com -->
    <title>bell copy 35</title>
    <desc>Created with Sketch.</desc>
    <g id="Icons" stroke="none" stroke-width="1" fill="none" fill-rule="evenodd">
        <path d="M17.2633645,16.2027043 L23.7803301,22.7196699 C24.0732233,23.0125631 24.0732233,23.4874369 23.7803301,23.7803301 C23.4874369,24.0732233 23.0125631,24.0732233 22.7196699,23.7803301 L16.202183,17.2628432 C13.5091276,19.5683075 9.65572737,20.3304372 6.14099481,18.9121666 C1.11517331,16.8841554 -1.31503572,11.1658856 0.71298395,6.14008406 C2.74099515,1.11426255 8.45926488,-1.31594647 13.4850664,0.712073199 C18.5108879,2.7400844 20.941097,8.45835412 18.9130773,13.4841557 C18.5023811,14.5019438 17.9403437,15.4132831 17.2633645,16.2027043 L17.2633645,16.2027043 Z M15.7428046,15.6413268 C16.4881141,14.8837655 17.0995997,13.9697867 17.5220573,12.9228513 C19.2400758,8.66528889 17.1813453,3.82110618 12.9237621,2.10309322 C8.66619964,0.385074671 3.82201693,2.44380522 2.10400397,6.70138844 C0.385985422,10.9589509 2.44471597,15.8031336 6.7022992,17.5211465 C9.86601319,18.7977736 13.353641,17.9889951 15.6418001,15.7422325 C15.6567774,15.7241501 15.672734,15.7066058 15.6896699,15.6896699 C15.7067843,15.6725555 15.7245201,15.6564411 15.7428046,15.6413268 L15.7428046,15.6413268 Z" id="Shape" fill="#000000" fill-rule="nonzero"></path>
    </g>
</svg>