<svg xmlns="http://www.w3.org/2000/svg" width="25" height="25" viewBox="0 0 25 25">
  <path d="M19.2025552,4.99481657 L5.20255523,4.99481657 L5.20255523,4.99481657 C3.54570523,4.99481709 2.20255523,6.33796702 2.20255523,7.99481657 C2.20255523,7.99481657 2.20255523,7.99481657 2.20255523,7.99481657 L2.20255523,17.9948166 L2.20255523,17.9948166 C2.20255498,19.6516666 3.54570523,20.9948166 5.20255523,20.9948166 L19.2025552,20.9948166 L19.2025552,20.9948166 C20.8594051,20.9948166 22.2025551,19.6516666 22.2025552,17.9948166 L22.2025552,7.99481657 L22.2025552,7.99481657 C22.2025551,6.33796657 20.8594051,4.99481657 19.2025552,4.99481657 L19.2025552,4.99481657 Z M18.7925554,6.99481699 L12.9125554,12.874817 L12.9125553,12.874817 C12.5236353,13.266939 11.8904753,13.269535 11.4983553,12.8806153 C11.4964146,12.8786905 11.4944819,12.8767577 11.492557,12.874817 L5.61255701,6.99481699 L18.7925554,6.99481699 Z M20.2025554,17.994817 L20.2025554,17.994817 C20.2025554,18.547102 19.7548404,18.994817 19.2025554,18.994817 L5.20255536,18.994817 L5.20255532,18.994817 C4.65027032,18.994817 4.20255532,18.547102 4.20255532,17.994817 C4.20255532,17.994817 4.20255532,17.994817 4.20255532,17.994817 L4.20255532,8.40481693 L10.0825553,14.284817 L10.0825554,14.2848171 C11.2538254,15.4546271 13.1512854,15.4546271 14.3225554,14.2848169 L20.2025553,8.40481693 L20.2025554,17.994817 Z"/>
</svg>
