<svg xmlns="http://www.w3.org/2000/svg" width="25" height="25" viewBox="0 0 25 25">
  <path d="M16.5358905,8.7208693 L16.5358904,8.72086927 C16.9248104,9.11299127 17.5579704,9.11558727 17.9500904,8.72666766 C17.9520311,8.72474282 17.9539639,8.72281003 17.9558887,8.72086934 L21.9558887,4.72086934 L21.9558888,4.72086927 C22.3480108,4.32874727 22.3480108,3.69298927 21.9558887,3.30086927 C21.5637667,2.90874727 20.9280087,2.90874727 20.5358887,3.30086941 L17.2458887,6.60086941 L15.9558887,5.30086941 L15.9558887,5.30086948 C15.5637667,4.90874748 14.9280087,4.90874748 14.5358887,5.30086934 C14.1437667,5.69299134 14.1437667,6.32874934 14.5358886,6.72086934 C14.5358886,6.72086934 14.5358886,6.72086934 14.5358886,6.72086934 L16.5358905,8.7208693 Z M21.2458904,8.01086957 L21.2458904,8.01086957 C20.6936054,8.01086933 20.2458904,8.4585843 20.2458904,9.01086957 C20.2458904,9.01086957 20.2458904,9.01086957 20.2458904,9.01086957 L20.2458904,18.0108696 L20.2458904,18.0108696 C20.2458904,18.5631543 19.7981754,19.0108693 19.2458904,19.0108696 L5.24589042,19.0108696 L5.24589042,19.0108696 C4.69360537,19.0108693 4.24589037,18.5631543 4.24589042,18.0108696 C4.24589042,18.0108696 4.24589042,18.0108696 4.24589042,18.0108696 L4.24589037,8.4208693 L10.1258904,14.3108693 L10.1258906,14.3108695 C10.6871356,14.8675315 11.4454006,15.1801825 12.2358906,15.1808695 L12.2358907,15.1808695 C13.0462527,15.176708 13.8223307,14.8533445 14.3958907,14.2808695 L16.1158907,12.5608695 L16.1158907,12.5608694 C16.5080127,12.1687474 16.5080127,11.5329894 16.1158906,11.1408694 C15.7237686,10.7487474 15.0880106,10.7487474 14.6958906,11.1408696 L12.9458906,12.8908696 L12.9458906,12.8908696 C12.5570466,13.2720126 11.9347306,13.2720126 11.5458906,12.8908696 L5.6558906,7.01086957 L11.2458904,7.01086957 L11.2458904,7.01086957 C11.7981756,7.01086959 12.2458906,6.56315457 12.2458904,6.01086957 C12.2458906,5.45858457 11.7981756,5.01086957 11.2458904,5.01086957 L5.24589042,5.01086957 L5.24589042,5.01086957 C3.58904042,5.01086964 2.24589042,6.35401957 2.24589042,8.01086957 L2.24589042,18.0108696 L2.24589042,18.0108696 C2.24589017,19.6677191 3.58904042,21.0108691 5.24589042,21.0108696 L19.2458904,21.0108696 L19.2458904,21.0108696 C20.9027403,21.0108692 22.2458903,19.6677191 22.2458904,18.0108696 L22.2458904,9.01086957 L22.2458904,9.01086957 C22.2458903,8.45858411 21.7981753,8.01086911 21.2458904,8.01086957 L21.2458904,8.01086957 Z"/>
</svg>
