<svg xmlns="http://www.w3.org/2000/svg" width="24" height="25" viewBox="0 0 24 25">
  <path d="M4.53008739,7 L11.334503,13.0668741 C11.7137419,13.4050067 12.2862581,13.4050067 12.665497,13.0668741 L19.4699126,7 L4.53008739,7 Z M20.5,8.76109191 L13.996491,14.5596751 C12.8587742,15.574073 11.1412258,15.574073 10.003509,14.5596751 L3.5,8.76109191 L3.5,18 C3.5,18.5522847 3.94771525,19 4.5,19 L19.5,19 C20.0522847,19 20.5,18.5522847 20.5,18 L20.5,8.76109191 Z M4.5,5 L19.5,5 C21.1568542,5 22.5,6.34314575 22.5,8 L22.5,18 C22.5,19.6568542 21.1568542,21 19.5,21 L4.5,21 C2.84314575,21 1.5,19.6568542 1.5,18 L1.5,8 C1.5,6.34314575 2.84314575,5 4.5,5 Z"/>
</svg>
