<svg xmlns="http://www.w3.org/2000/svg" width="25" height="25" viewBox="0 0 25 25">
  <path d="M5.03008739,7 L11.834503,13.0668741 C12.2137419,13.4050067 12.7862581,13.4050067 13.165497,13.0668741 L15.5002745,10.9851668 C15.9125001,10.617623 16.5446282,10.6538448 16.912172,11.0660704 C17.2797159,11.478296 17.2434941,12.1104241 16.8312685,12.4779679 L14.496491,14.5596751 C13.3587742,15.574073 11.6412258,15.574073 10.503509,14.5596751 L4,8.76109191 L4,18 C4,18.5522847 4.44771525,19 5,19 L20,19 C20.5522847,19 21,18.5522847 21,18 L21,10 C21,9.44771525 21.4477153,9 22,9 C22.5522847,9 23,9.44771525 23,10 L23,18 C23,19.6568542 21.6568542,21 20,21 L5,21 C3.34314575,21 2,19.6568542 2,18 L2,8 C2,6.34314575 3.34314575,5 5,5 L11.5,5 C12.0522847,5 12.5,5.44771525 12.5,6 C12.5,6.55228475 12.0522847,7 11.5,7 L5.03008739,7 Z M17.0440932,8.71409151 L15.0440914,6.71409155 C14.6519695,6.32197155 14.6519695,5.68621355 15.0440915,5.29409155 C15.4362115,4.90196969 16.0719695,4.90196969 16.4640914,5.29409162 L17.7540914,6.59409162 L21.0440914,3.29409162 C21.4362114,2.90196948 22.0719694,2.90196948 22.4640914,3.29409148 C22.8562136,3.68621148 22.8562136,4.32196948 22.4640915,4.71409155 L18.4582932,8.71988987 C18.0661732,9.10880948 17.4330132,9.10621348 17.0440932,8.71409151 Z"/>
</svg>
