<?xml version="1.0" encoding="UTF-8"?>
<svg width="25px" height="25px" viewBox="0 0 25 25" version="1.1" xmlns="http://www.w3.org/2000/svg" xmlns:xlink="http://www.w3.org/1999/xlink">
    <!-- Generator: Sketch 54.1 (76490) - https://sketchapp.com -->
    <title>bell copy 74</title>
    <desc>Created with Sketch.</desc>
    <g id="Icons" stroke="none" stroke-width="1" fill="none" fill-rule="evenodd">
        <path d="M21.2025552,9.80329333 L14.0492192,14.269666 C12.9142658,14.9790089 11.4741685,14.9790089 10.3388713,14.2694451 L3.20255523,9.80513043 L3.20255523,18 C3.20255523,18.8284269 3.87412831,19.5 4.70255523,19.5 L19.7025552,19.5 C20.5309822,19.5 21.2025553,18.8284269 21.2025552,18 L21.2025552,9.80329333 Z M1.20255523,8 C1.20255523,6.06700361 2.76955878,4.50000008 4.70255523,4.5 L19.7025552,4.5 C21.6355518,4.5 23.2025554,6.06700361 23.2025552,8 L23.2025552,18 C23.2025554,19.9329964 21.6355518,21.5 19.7025552,21.5 L4.70255523,21.5 C2.76955878,21.4999999 1.20255523,19.9329964 1.20255523,18 L1.20255523,8 Z M12.9896035,12.5734307 L21.1168405,7.4989773 C20.9106338,6.91691549 20.3552823,6.5 19.7025552,6.5 L4.70255528,6.5 C4.04962405,6.50000003 3.49412933,6.9171764 3.28807661,7.49952362 L11.3992224,12.5736693 C11.8856285,12.8776744 12.5028112,12.8776744 12.9896035,12.5734307 Z" id="Shape" fill="#000000" fill-rule="nonzero"></path>
    </g>
</svg>