<?xml version="1.0" encoding="UTF-8"?>
<svg width="24px" height="24px" viewBox="0 0 24 24" version="1.1" xmlns="http://www.w3.org/2000/svg" xmlns:xlink="http://www.w3.org/1999/xlink">
    <title>mails-g</title>
    <g id="Icons" stroke="none" stroke-width="1" fill="none" fill-rule="evenodd">
        <g id="Glyphs" transform="translate(-3990, -58)" fill="#000000" fill-rule="nonzero">
            <path d="M3995.86683,62.9930296 C3994.66825,62.8644471 3994.71264,61 3996,61 L4009,61 C4010.33333,61 4010.33333,63 4009,63 L3996,63 L3995.86683,62.9930296 Z M3997.86683,59.9930296 C3996.66825,59.8644471 3996.71264,58 3998,58 L4007,58 C4008.33333,58 4008.33333,60 4007,60 L3998,60 L3997.86683,59.9930296 Z M4010,64 C4011.65685,64 4013,65.3431458 4013,67 L4013,77 C4013,78.6568542 4011.65685,80 4010,80 L3995,80 C3993.34315,80 3992,78.6568542 3992,77 L3992,67 C3992,65.3431458 3993.34315,64 3995,64 L4010,64 Z M4011,67.773 L4004.48396,73.5187388 C4003.35018,74.5183195 4001.64982,74.5183195 4000.51604,73.5187388 L3994,67.774 L3994,77 C3994,77.5522847 3994.44772,78 3995,78 L4010,78 C4010.55228,78 4011,77.5522847 4011,77 L4011,67.773 Z M4009.986,66 L3995.013,66 L4001.83868,72.0185292 C4002.21661,72.3517228 4002.78339,72.3517228 4003.16132,72.0185292 L4009.986,66 Z" id="Shape"></path>
        </g>
    </g>
</svg>