<?xml version="1.0" encoding="UTF-8"?>
<svg width="24px" height="24px" viewBox="0 0 24 24" version="1.1" xmlns="http://www.w3.org/2000/svg" xmlns:xlink="http://www.w3.org/1999/xlink">
    <title>mails</title>
    <g id="Icons" stroke="none" stroke-width="1" fill="none" fill-rule="evenodd">
        <g id="Glyphs" transform="translate(-4016, -58)" fill="#000000" fill-rule="nonzero">
            <path d="M4017.5,66.5109259 L4017.5,77.6818182 C4017.5,78.1085763 4017.83579,78.4545455 4018.25,78.4545455 L4037.75,78.4545455 C4038.16421,78.4545455 4038.5,78.1085763 4038.5,77.6818182 L4038.5,66.5109259 L4032.8826,70.5019694 L4036.00895,73.4778804 C4036.31319,73.7674836 4036.33197,74.256365 4036.05088,74.5698275 C4035.7698,74.8832901 4035.29529,74.9026319 4034.99105,74.6130287 L4031.61689,71.401231 L4029.79312,72.6969806 C4028.71383,73.4647306 4027.28616,73.4647306 4026.20723,72.6972314 L4024.38311,71.4012311 L4021.00895,74.6130287 C4020.70471,74.9026319 4020.2302,74.8832901 4019.94912,74.5698275 C4019.66803,74.256365 4019.68681,73.7674836 4019.99105,73.4778804 L4023.1174,70.5019694 L4017.5,66.5109259 Z M4018.78337,65.5454545 L4027.05912,71.425202 C4027.62544,71.8280507 4028.37456,71.8280507 4028.94123,71.4249504 L4037.21663,65.5454545 L4018.78337,65.5454545 Z M4018.25,80 C4017.00737,80 4016,78.9621073 4016,77.6818182 L4016,66.3181818 C4016,65.0378927 4017.00737,64 4018.25,64 L4037.75,64 C4038.99263,64 4040,65.0378927 4040,66.3181818 L4040,77.6818182 C4040,78.9621073 4038.99263,80 4037.75,80 L4018.25,80 Z M4036,61 C4036.9665,61 4037.75,61.7835017 4037.75,62.75 L4037.75,63 C4037.75,63.4142136 4037.41421,63.75 4037,63.75 C4036.58579,63.75 4036.25,63.4142136 4036.25,63 L4036.25,62.75 C4036.25,62.6119288 4036.13807,62.5 4036,62.5 L4020,62.5 C4019.86193,62.5 4019.75,62.6119288 4019.75,62.75 L4019.75,63 C4019.75,63.4142136 4019.41421,63.75 4019,63.75 C4018.58579,63.75 4018.25,63.4142136 4018.25,63 L4018.25,62.75 C4018.25,61.7835017 4019.0335,61 4020,61 L4036,61 Z M4033,58 C4033.9665,58 4034.75,58.7835017 4034.75,59.75 L4034.75,60 C4034.75,60.4142136 4034.41421,60.75 4034,60.75 C4033.58579,60.75 4033.25,60.4142136 4033.25,60 L4033.25,59.75 C4033.25,59.6119288 4033.13807,59.5 4033,59.5 L4023,59.5 C4022.86193,59.5 4022.75,59.6119288 4022.75,59.75 L4022.75,60 C4022.75,60.4142136 4022.41421,60.75 4022,60.75 C4021.58579,60.75 4021.25,60.4142136 4021.25,60 L4021.25,59.75 C4021.25,58.7835017 4022.0335,58 4023,58 L4033,58 Z" id="Shape"></path>
        </g>
    </g>
</svg>