<svg xmlns="http://www.w3.org/2000/svg" width="25" height="25" viewBox="0 0 25 25">
  <path d="M4.52533544,5.99472643 L11.3118432,12.0574209 C11.6920236,12.3970531 12.2664168,12.3955001 12.6447622,12.053817 L15.1920736,9.7533437 C15.6016663,9.38344117 16.232989,9.41626318 16.6021723,9.82665372 C16.9713557,10.2370443 16.9385975,10.8695968 16.5290048,11.2394993 L13.9816934,13.5399726 C12.8466573,14.565022 11.1234776,14.5696811 9.9829366,13.5507842 L3.49686349,7.75648171 L3.49686349,16.9988699 C3.49686349,17.5513627 3.94387661,17.9992466 4.49529523,17.9992466 L19.4717714,17.9992466 C20.02319,17.9992466 20.4702032,17.5513627 20.4702032,16.9988699 L20.4702032,10.4963543 C20.4702032,9.94386153 20.9172163,9.49597764 21.4686349,9.49597764 C22.0200535,9.49597764 22.4670666,9.94386153 22.4670666,10.4963543 L22.4670666,16.9988699 C22.4670666,18.6563483 21.1260273,20 19.4717714,20 L4.49529523,20 C2.84103936,20 1.5,18.6563483 1.5,16.9988699 L1.5,6.99510311 C1.5,5.33762475 2.84103936,3.99397306 4.49529523,3.99397306 L12.9819651,3.99397306 C13.5333837,3.99397306 13.9803968,4.44185696 13.9803968,4.99434975 C13.9803968,5.54684253 13.5333837,5.99472643 12.9819651,5.99472643 L4.52533544,5.99472643 Z M20.9067079,5.00522314 L22.2046656,6.29570908 L22.2104548,6.30150958 C22.5987646,6.69377729 22.5961727,7.32717579 22.2046656,7.71624233 L22.1988764,7.72204283 C21.8073713,8.11110894 21.1752043,8.10851197 20.7868942,7.71624229 L19.4989173,6.4157526 L18.2109403,7.71624229 L18.2051511,7.7220428 C17.8136461,8.11110891 17.181479,8.10851193 16.793169,7.71624225 L16.7873797,7.71044175 C16.39907,7.31817404 16.401662,6.68477554 16.793169,6.29570907 L18.0911303,5.00522314 L16.793169,3.71473722 C16.4016621,3.32246952 16.4016621,2.68647204 16.7931691,2.29420233 C17.1846742,1.90193276 17.8194352,1.90193276 18.2109421,2.2942024 L19.4989191,3.59469209 L20.786896,2.2942024 C21.1784011,1.90193256 21.8131621,1.90193256 22.2046691,2.29420226 C22.5961763,2.68646997 22.5961763,3.32246745 22.2046692,3.71473722 L20.9067079,5.00522314 Z"/>
</svg>
