<svg xmlns="http://www.w3.org/2000/svg" width="25" height="25" viewBox="0 0 25 25">
  <path d="M21.0271904,10.0108696 L21.0271904,10.0108696 C20.4749054,10.0108693 20.0271904,10.4585843 20.0271904,11.0108696 C20.0271904,11.0108696 20.0271904,11.0108696 20.0271904,11.0108696 L20.0271904,17.0108696 L20.0271904,17.0108696 C20.0271904,17.5631543 19.5794754,18.0108693 19.0271904,18.0108696 L5.02719036,18.0108696 L5.02719036,18.0108696 C4.47490531,18.0108693 4.02719031,17.5631543 4.02719036,17.0108696 C4.02719036,17.0108696 4.02719036,17.0108696 4.02719036,17.0108696 L4.02719031,7.4208693 L9.90719031,13.3108693 L9.90719051,13.3108695 C10.4684355,13.8675315 11.2267005,14.1801825 12.0171905,14.1808695 L12.0171906,14.1808695 C12.8275526,14.176708 13.6036306,13.8533445 14.1771906,13.2808695 L15.8971906,11.5608695 L15.8971907,11.5608694 C16.2893127,11.1687474 16.2893127,10.5329894 15.8971905,10.1408694 C15.5050685,9.74874743 14.8693105,9.74874743 14.4771905,10.1408696 L12.7271905,11.8908696 L12.7271905,11.8908696 C12.3383465,12.2720126 11.7160305,12.2720126 11.3271905,11.8908696 L5.43719054,6.01086957 L13.0271904,6.01086957 L13.0271904,6.01086957 C13.5794755,6.01086959 14.0271905,5.56315457 14.0271904,5.01086957 C14.0271905,4.45858457 13.5794755,4.01086957 13.0271904,4.01086957 L5.02719036,4.01086957 L5.02719036,4.01086957 C3.37034036,4.01086964 2.02719036,5.35401957 2.02719036,7.01086957 L2.02719036,17.0108696 L2.02719036,17.0108696 C2.02719011,18.6677191 3.37034036,20.0108691 5.02719036,20.0108696 L19.0271904,20.0108696 L19.0271904,20.0108696 C20.6840402,20.0108692 22.0271902,18.6677191 22.0271904,17.0108696 L22.0271904,11.0108696 L22.0271904,11.0108696 C22.0271902,10.4585841 21.5794752,10.0108691 21.0271904,10.0108696 L21.0271904,10.0108696 Z M20.4371904,5.0108693 L21.7371904,3.7208693 L21.7371905,3.72086924 C22.1293125,3.32874724 22.1293125,2.69298924 21.7371903,2.30086924 C21.3450683,1.90874724 20.7093103,1.90874724 20.3171903,2.30086937 L19.0271903,3.60086937 L17.7371903,2.30086937 L17.7371904,2.30086944 C17.3450684,1.90874744 16.7093104,1.90874744 16.3171904,2.3008693 C15.9250684,2.6929913 15.9250684,3.3287493 16.3171903,3.7208693 C16.3171903,3.7208693 16.3171903,3.7208693 16.3171903,3.7208693 L17.6171903,5.0108693 L16.3171903,6.3008693 L16.3171903,6.30086928 C15.9250683,6.68978928 15.9224723,7.32294928 16.3113919,7.71506928 C16.3133168,7.71700997 16.3152495,7.71894276 16.3171902,7.7208676 L16.3171902,7.72086757 C16.7061102,8.11298957 17.3392702,8.11558557 17.7313902,7.72666596 C17.7333309,7.72474112 17.7352637,7.72280833 17.7371885,7.72086764 L19.0271885,6.42086764 L20.3171885,7.72086764 L20.3171885,7.72086761 C20.7061085,8.11298961 21.3392685,8.11558561 21.7313885,7.726666 C21.7333292,7.72474116 21.735262,7.72280837 21.7371868,7.72086768 L21.7371869,7.72086764 C22.1293089,7.33194764 22.1319049,6.69878764 21.7429851,6.30666764 C21.7410603,6.30472695 21.7391275,6.30279416 21.7371868,6.30086932 L20.4371904,5.0108693 Z"/>
</svg>
