<svg xmlns="http://www.w3.org/2000/svg" width="24" height="24" viewBox="0 0 24 24">
  <path d="M1.5,6.43707509 L1.5,18.25 C1.5,18.6642064 1.83579356,19 2.25,19 L21.75,19 C22.1642064,19 22.5,18.6642064 22.5,18.25 L22.5,6.43707509 L16.8826025,10.310735 L20.0089502,13.1991192 C20.3131933,13.4802047 20.3319663,13.9547072 20.0508808,14.2589502 C19.7697953,14.5631933 19.2952928,14.5819663 18.9910498,14.3008808 L15.616891,11.1835477 L13.7931223,12.441187 C12.7138342,13.1863561 11.2861619,13.1863561 10.2072306,12.4414305 L8.38310896,11.1835478 L5.00895024,14.3008808 C4.70470718,14.5819663 4.23020466,14.5631933 3.9491192,14.2589502 C3.66803375,13.9547072 3.6868067,13.4802047 3.99104976,13.1991192 L7.11739739,10.310735 L1.5,6.43707509 Z M2.78337369,5.5 L11.0591233,11.2068137 C11.6254381,11.5978139 12.3745598,11.5978139 12.9412306,11.2065695 L21.2166263,5.5 L2.78337369,5.5 Z M2.25,20.5 C1.00736644,20.5 0,19.4926336 0,18.25 L0,6.25 C0,5.00736644 1.00736644,4 2.25,4 L21.75,4 C22.9926336,4 24,5.00736644 24,6.25 L24,18.25 C24,19.4926336 22.9926336,20.5 21.75,20.5 L2.25,20.5 Z"/>
</svg>
