<svg xmlns="http://www.w3.org/2000/svg" width="24" height="25" viewBox="0 0 24 25">
  <path d="M11.989937,16 C8.70010357,16 6.02867116,13.352266 5.99035446,10.0715125 L5.49499064,5.16290744 C5.41958274,4.41568365 6.16402396,3.8551018 6.86132772,4.13402331 L9.50810592,5.19273459 L11.1324441,2.48550424 C11.5208475,1.83816525 12.4590266,1.83816525 12.84743,2.48550424 L14.4717682,5.19273459 L17.1185464,4.13402331 C17.8158501,3.8551018 18.5602914,4.41568365 18.4848835,5.16290744 L17.9895196,10.0715125 C17.9512029,13.352266 15.2797705,16 11.989937,16 Z M7.8923787,9 L16.0874954,9 L16.3293156,6.60378154 L14.4238277,7.36597669 C13.9681129,7.54826262 13.4474689,7.37287032 13.1949441,6.95199576 L11.989937,4.94365063 L10.78493,6.95199576 C10.5324052,7.37287032 10.0117612,7.54826262 9.55604637,7.36597669 L7.65055848,6.60378154 L7.8923787,9 Z M6.42698654,22.7470459 C6.2194669,23.2588604 5.6363314,23.5055401 5.12451694,23.2980205 C4.61270247,23.0905008 4.36602277,22.5073653 4.57354241,21.9955509 C4.65459785,21.7956404 4.74370654,21.5992241 4.84061491,21.4067412 C5.04588888,20.9990185 5.28574292,20.6097734 5.55723795,20.2431605 C7.05613494,18.2191271 9.42238892,17 11.9899369,17 C14.557485,16.9999996 16.9237389,18.2191267 18.4226359,20.2431604 C18.6941309,20.6097733 18.933985,20.9990184 19.1392589,21.4067411 C19.2361673,21.5992241 19.3252761,21.7956405 19.4063315,21.995551 C19.6138511,22.5073655 19.3671713,23.0905009 18.8553568,23.2980205 C18.3435423,23.5055401 17.7604068,23.2588603 17.5528873,22.7470458 C17.4922019,22.597375 17.4254737,22.4502904 17.3528871,22.3061162 C17.1990108,22.0004814 17.0191098,21.7085306 16.8153745,21.433417 C15.6897391,19.9134166 13.9168507,18.9999997 11.989937,19 C10.0630234,19 8.29013473,19.913417 7.16449932,21.4334172 C6.96076404,21.7085308 6.78086306,22.0004816 6.62698676,22.3061163 C6.55440019,22.4502904 6.4876719,22.5973751 6.42698654,22.7470459 Z M8.11595523,11 C8.55999951,12.7252246 10.1261021,14 11.989937,14 C13.8537719,14 15.4198746,12.7252246 15.8639189,11 L8.11595523,11 Z"/>
</svg>
