<svg width="24" height="24" viewBox="0 0 24 24" xmlns="http://www.w3.org/2000/svg"><path d="M1623.96345,97.0188367 C1624.09064,97.4129161 1623.87521,97.835788 1623.48228,97.9633477 C1623.08934,98.0909074 1622.6677,97.8748506 1622.54051,97.4807712 C1621.41754,94.0014207 1618.38242,91.6781214 1614.97869,91.301809 L1616.46681,97.0616837 C1616.5704,97.4626522 1616.33028,97.8719253 1615.93047,97.9758207 C1615.53067,98.0797161 1615.12258,97.8388908 1615.01899,97.4379223 L1613.99899,93.4899347 L1612.97899,97.4379223 C1612.87539,97.8388908 1612.46731,98.0797161 1612.0675,97.9758207 C1611.6677,97.8719253 1611.42757,97.4626522 1611.53117,97.0616837 L1613.01911,91.3024901 C1612.42426,91.3686846 1611.82718,91.495857 1611.23552,91.6879304 C1608.49496,92.5776062 1606.34659,94.7322345 1605.45949,97.4807717 C1605.3323,97.8748509 1604.91066,98.0909075 1604.51772,97.9633476 C1604.12479,97.8357876 1603.90936,97.4129155 1604.03655,97.0188363 C1605.07144,93.8123625 1607.57776,91.2987488 1610.77493,90.2608439 C1616.27757,88.4744859 1622.18229,91.5001512 1623.96345,97.0188367 Z M1620.75,81.5 C1620.75,85.2279234 1617.72792,88.25 1614,88.25 C1610.35139,88.25 1607.37892,85.3551544 1607.25408,81.7369717 L1607.25,81.5 L1607.25,74.75 C1607.25,74.168321 1607.87501,73.8216017 1608.36074,74.0919793 L1608.45,74.15 L1611,76.062 L1613.55,74.15 C1613.75741,73.9944444 1614.02531,73.9598765 1614.2596,74.0462963 L1614.35768,74.0907407 L1614.45,74.15 L1617,76.062 L1619.55,74.15 C1620.01534,73.8009926 1620.66772,74.0929656 1620.74286,74.6437819 L1620.75,74.75 L1620.75,81.5 Z M1619.24575,81.6962818 C1615.78763,82.4345727 1612.21237,82.4345727 1608.75425,81.6962818 L1608.7674,81.9305818 C1608.98642,84.6286705 1611.24548,86.75 1614,86.75 C1616.75261,86.75 1619.01045,84.6316075 1619.23214,81.9361864 L1619.24575,81.6962818 Z M1614,75.687 L1611.45,77.5999999 C1611.21296,77.7777777 1610.89691,77.7975308 1610.64232,77.6592592 L1610.55,77.5999999 L1608.75,76.25 L1608.75,80.159 L1609.22967,80.2633821 C1612.19159,80.8740399 1615.24168,80.9099609 1618.21398,80.3711452 L1618.77033,80.2633821 L1619.25,80.158 L1619.25,76.249 L1617.45,77.5999999 C1617.24259,77.7555555 1616.97469,77.7901234 1616.7404,77.7037036 L1616.64232,77.6592592 L1616.55,77.5999999 L1614,75.687 Z" transform="translate(-1602 -74)"/></svg>