<svg xmlns="http://www.w3.org/2000/svg" width="24" height="25" viewBox="0 0 24 25">
  <path d="M17.3967515,8.16880738 C17.3989033,8.1955877 17.4,8.22266578 17.4,8.25 C17.4,11.2185264 14.9935264,13.625 12.025,13.625 C9.13868588,13.625 6.78372397,11.3499735 6.65549807,8.49530443 C6.6469442,8.46138634 6.6400945,8.4267293 6.63505051,8.39142136 L6.01005051,4.01642136 C5.90125941,3.25488371 6.65714217,2.66082391 7.37139068,2.94652331 L9.70566887,3.88023459 L11.1425071,1.48550424 C11.5309105,0.838165252 12.4690895,0.838165252 12.8574929,1.48550424 L14.2943311,3.88023459 L16.6286093,2.94652331 C17.3428578,2.66082391 18.0987406,3.25488371 17.9899495,4.01642136 L17.3967515,8.16880738 L17.3967515,8.16880738 Z M8.4922954,7.25 L15.5077046,7.25 L15.7654393,5.44585725 L14.2463907,6.05347669 C13.7906759,6.23576262 13.2700318,6.06037032 13.0175071,5.63949576 L12,3.94365063 L10.9824929,5.63949576 C10.7299682,6.06037032 10.2093241,6.23576262 9.75360932,6.05347669 L8.23456072,5.44585725 L8.4922954,7.25 Z M8.80060991,9.25 C9.22679778,10.6257227 10.5092051,11.625 12.025,11.625 C13.5407949,11.625 14.8232022,10.6257227 15.2493901,9.25 L8.80060991,9.25 Z M11.9971103,14.750004 L12.0028895,14.750004 C16.4198371,14.7515645 20,18.3326906 20,22.750004 C20,23.3022883 19.5522847,23.7500035 19,23.750004 C18.4477153,23.7500035 18,23.3022883 18,22.750004 C18,19.9754741 16.1167669,17.6407939 13.55883,16.9544925 L14.9284767,20.3786093 C15.1335901,20.8913928 14.8841742,21.4733633 14.3713907,21.6784767 C13.8586072,21.8835901 13.2766367,21.6341742 13.0715233,21.1213907 L12,18.4425824 L10.9284767,21.1213907 C10.7233633,21.6341742 10.1413928,21.8835901 9.62860932,21.6784767 C9.11582581,21.4733633 8.8664099,20.8913928 9.07152331,20.3786093 L10.44117,16.9544926 C7.88323278,17.6407943 5.99999958,19.9754744 6,22.750004 C6.00000008,23.3022881 5.5522849,23.7500034 5,23.750004 C4.4477154,23.7500036 4.00000008,23.3022884 4,22.750004 C3.99999933,18.3326912 7.58016234,14.7515653 11.9971103,14.750004 L11.9971103,14.750004 Z"/>
</svg>
