<?xml version="1.0" encoding="UTF-8"?>
<svg width="24px" height="24px" viewBox="0 0 24 24" version="1.1" xmlns="http://www.w3.org/2000/svg" xmlns:xlink="http://www.w3.org/1999/xlink">
    <!-- Generator: Sketch 54.1 (76490) - https://sketchapp.com -->
    <title>bell copy 46</title>
    <desc>Created with Sketch.</desc>
    <g id="Icons" stroke="none" stroke-width="1" fill="none" fill-rule="evenodd">
        <path d="M17.9792456,5.5 C18.1203544,7.19759395 17.5414826,8.94378757 16.2426301,10.2426401 C13.8994869,12.5857833 10.1004931,12.5857833 7.75734991,10.2426401 C5.4142067,7.89949687 5.4142067,4.10050313 7.75734991,1.75735991 C10.1004931,-0.585783305 13.8994869,-0.585783305 16.2426301,1.75735991 C16.8976176,2.4123474 17.369514,3.18109371 17.6583193,4 L21.4999925,4.0000025 C21.9142136,4 22.25,4.33578644 22.25,4.75 C22.25,5.16421356 21.9142136,5.5 21.4999925,5.5000025 L17.9792456,5.5 Z M16.032482,4.0000025 C15.8208379,3.57339642 15.5373339,3.17338407 15.1819699,2.81802009 C13.4246131,1.0606633 10.5753669,1.0606633 8.81801009,2.81802009 C8.4626461,3.17338407 8.17914207,3.57339642 7.96749797,4.0000025 L16.032482,4.0000025 Z M16.4722913,5.5 L7.52768871,5.5 C7.38185094,6.81202697 7.81195806,8.17592789 8.81801009,9.18197991 C10.5753669,10.9393367 13.4246131,10.9393367 15.1819699,9.18197991 C16.1880219,8.17592789 16.6181291,6.81202697 16.4722913,5.5 L16.4722913,5.5 Z M12.8352416,19.422632 L12.7498186,23.2666673 C12.7406162,23.6807787 12.3974525,24.0090221 11.9833412,23.9998197 C11.5692299,23.9906172 11.2409864,23.6474535 11.2501889,23.2333422 L11.3342389,19.4510915 C9.307786,19.1505738 7.72183907,17.4991073 7.52140232,15.4416965 C4.81949658,16.9947688 2.9999995,19.9098995 3,23.25 C3.00000006,23.6642134 2.66421368,23.9999999 2.25000011,24 C1.83578655,24.0000001 1.50000006,23.6642137 1.5,23.25 C1.49999912,17.4510068 6.20100615,12.75 12,12.75 C17.7989932,12.7499991 22.5,17.4510061 22.5,23.25 C22.5,23.6642136 22.1642136,24 21.75,24 C21.3357864,24 21,23.6642136 21,23.25 C21,19.9098993 19.1805031,16.9947686 16.4785978,15.4416964 C16.2837843,17.4413914 14.7801036,19.0575984 12.8352416,19.422632 Z M15,14.7621159 C14.0616634,14.4304621 13.0519065,14.2499998 12,14.25 C10.9480935,14.25 9.9383366,14.4304623 9,14.7621162 L9,14.9999984 C9.00000025,16.6568555 10.3431436,17.9999991 11.9999999,17.9999991 C13.6568565,17.9999988 15,16.6568554 15,14.9999991 L15,14.7621159 Z" id="Shape" fill="#000000" fill-rule="nonzero"></path>
    </g>
</svg>