<svg xmlns="http://www.w3.org/2000/svg" width="24" height="24" viewBox="0 0 24 24">
  <path d="M13.0053567,14.3055213 L15.4698566,23.0464709 C15.5822612,23.4451413 15.350197,23.8594495 14.9515266,23.9718541 C14.5528562,24.0842587 14.138548,23.8521945 14.0261434,23.4535241 L11.999,16.2637659 L9.97185659,23.4535241 C9.85945197,23.8521945 9.44514382,24.0842587 9.04647343,23.9718541 C8.64780304,23.8594495 8.41573879,23.4451413 8.52814341,23.0464709 L10.9925785,14.3057511 C6.4961987,14.8065666 2.9999993,18.6199889 3,23.249999 C3.00000006,23.6642124 2.66421368,23.9999989 2.25000011,23.999999 C1.83578655,23.999999 1.50000006,23.6642126 1.5,23.249999 C1.49999912,17.4510057 6.20100615,12.749999 12,12.749999 C17.7989932,12.7499981 22.5,17.4510051 22.5,23.249999 C22.5,23.6642125 22.1642136,23.999999 21.75,23.999999 C21.3357864,23.999999 21,23.6642125 21,23.249999 C21,18.6192798 17.5027304,14.8053985 13.0053567,14.3055213 L13.0053567,14.3055213 Z M16.0911065,4.8192335 C15.8925459,4.08618899 15.5055004,3.39354809 14.9299699,2.81801759 C13.1726131,1.0606608 10.3233669,1.0606608 8.56601009,2.81801759 C8.4337447,2.95028297 8.31143411,3.08873352 8.19907832,3.2324382 C9.65307538,4.52841095 11.5384687,5.25106948 13.500749,5.2499976 C14.3834419,5.25087943 15.2587504,5.10487111 16.0911065,4.8192335 L16.0911065,4.8192335 Z M16.2345472,6.34860433 C15.3492562,6.61513347 14.4279646,6.75092441 13.5004097,6.74999712 C11.2907567,6.75120503 9.16220392,5.97939161 7.47460436,4.58686548 C6.95918659,6.14965318 7.3229885,7.93895583 8.56601009,9.18197741 C10.3233669,10.9393342 13.1726131,10.9393342 14.9299699,9.18197741 C15.7199176,8.39202971 16.1547767,7.38145661 16.2345472,6.34860433 L16.2345472,6.34860433 Z M15.9906301,1.75735741 C18.3337733,4.10050063 18.3337733,7.89949437 15.9906301,10.2426376 C13.6474869,12.5857808 9.84849313,12.5857808 7.50534991,10.2426376 C5.1622067,7.89949437 5.1622067,4.10050063 7.50534991,1.75735741 C9.84849313,-0.585785805 13.6474869,-0.585785805 15.9906301,1.75735741 Z"/>
</svg>
