<?xml version="1.0" encoding="UTF-8"?>
<svg width="24px" height="24px" viewBox="0 0 24 24" version="1.1" xmlns="http://www.w3.org/2000/svg" xmlns:xlink="http://www.w3.org/1999/xlink">
    <title>manager-g</title>
    <g id="Icons" stroke="none" stroke-width="1" fill="none" fill-rule="evenodd">
        <g transform="translate(-1845.000000, -59.000000)" fill="#000000" fill-rule="nonzero" id="Shape">
            <path d="M1857,75 C1859.55057,75 1861.9095,76.1103563 1863.41487,77.9675111 C1863.68994,78.3068606 1863.93332,78.6677006 1864.14191,79.0462225 C1864.24059,79.2252928 1864.33139,79.4081396 1864.41403,79.5943533 C1864.63806,80.0991581 1864.41045,80.6899975 1863.90565,80.91403 C1863.40084,81.1380624 1862.81,80.9104515 1862.58597,80.4056467 C1862.52665,80.2719725 1862.46136,80.1404954 1862.39027,80.0115042 C1862.23915,79.7372612 1862.0621,79.4747661 1861.86118,79.2268973 C1860.73784,77.841049 1858.95105,77 1857,77 C1855.04895,77 1853.26216,77.8410492 1852.13882,79.2268975 C1851.9379,79.4747663 1851.76085,79.7372613 1851.60973,80.0115043 C1851.53864,80.1404955 1851.47335,80.2719726 1851.41403,80.4056468 C1851.19,80.9104516 1850.59916,81.1380625 1850.09435,80.9140299 C1849.58955,80.6899973 1849.36194,80.0991579 1849.58597,79.5943532 C1849.66861,79.4081395 1849.75941,79.2252928 1849.85809,79.0462225 C1850.06668,78.6677007 1850.31006,78.3068607 1850.58513,77.9675113 C1852.0905,76.1103564 1854.44943,75 1857,75 Z M1857.7777,60.3468612 L1857.85191,60.4523407 L1859.476,63.095 L1862.13632,62.0575828 C1862.79683,61.7997101 1863.49409,62.2906098 1863.5002,62.9760138 L1863.4947,63.0919538 L1863.03175,67.5600349 L1862.98838,68.7287717 L1862.96744,69.0601593 L1862.93248,69.4322052 C1862.63099,72.1118203 1861.34447,73.5146532 1858.78277,73.8931607 L1858.53088,73.9266013 L1858.31756,73.9492409 L1857.98451,73.9756934 L1857.54517,73.9964937 L1857.31522,74.0017592 L1857.02313,74.0036105 L1856.72883,74.0004451 L1856.49722,73.9942166 L1856.27038,73.9845927 L1856.05002,73.9715896 L1855.87577,73.9585039 L1855.70161,73.9427276 L1855.47388,73.9176966 L1855.21039,73.8820306 C1852.65788,73.4971708 1851.36773,72.1067706 1851.07049,69.4663926 L1851.04406,69.1981791 L1851.02838,68.9882892 L1851.01121,68.6578619 L1850.98975,67.7740349 L1850.5053,63.0919538 C1850.43238,62.3866488 1851.09103,61.8450556 1851.75338,62.021442 L1851.86368,62.0575828 L1854.523,63.095 L1856.14809,60.4523407 C1856.51553,59.8546236 1857.35476,59.8194637 1857.7777,60.3468612 Z M1853.065,69.31 L1853.08139,69.4432059 C1853.28777,70.9820747 1853.88621,71.6144588 1855.30361,71.870832 L1855.49317,71.9021832 L1855.71535,71.9324979 L1855.89862,71.9525416 L1856.18259,71.9760518 L1856.3705,71.9871688 L1856.56537,71.9954377 L1856.76551,72.0008461 L1857.02661,72.0036871 L1857.28488,72.0020586 L1857.60694,71.9931056 L1857.85581,71.9799528 L1858.03689,71.9664445 L1858.30727,71.9391735 C1859.94516,71.7454547 1860.63736,71.1626902 1860.89135,69.6125058 L1860.928,69.351 L1853.065,69.31 Z M1857,62.884 L1855.78941,64.8548489 C1855.55724,65.2325152 1855.10783,65.4082743 1854.68754,65.2994699 L1854.57382,65.2626786 L1852.663,64.516 L1852.95175,67.3090349 L1861.04275,67.3520349 L1861.336,64.516 L1859.42618,65.2626786 C1859.01322,65.4239049 1858.54874,65.2930535 1858.27911,64.9527807 L1858.21059,64.8548489 L1857,62.884 Z"></path>
        </g>
    </g>
</svg>