<svg xmlns="http://www.w3.org/2000/svg" width="24" height="24" viewBox="0 0 24 24">
  <path d="M11.0162601,17.3026359 C10.4196769,17.368831 9.82085377,17.4960045 9.22746941,17.6880796 C6.47891026,18.5777628 4.32426411,20.7324092 3.43457956,23.4809697 C3.30701854,23.8750522 2.88414287,24.0911106 2.49006031,23.9635496 C2.09597776,23.8359886 1.87991936,23.4131129 2.00748038,23.0190303 C3.04539616,19.8125295 5.55903071,17.2988947 8.76552828,16.260981 C14.2842331,14.474608 20.2061892,17.5002988 21.9925497,23.0190308 C22.1201105,23.4131134 21.9040518,23.835989 21.5099692,23.9635497 C21.1158866,24.0911105 20.693011,23.8750518 20.5654503,23.4809692 C19.4392084,20.0015893 16.3952285,17.6782705 12.9815634,17.3019549 L14.4740238,23.0618781 C14.5779201,23.46285 14.3370927,23.8721265 13.9361209,23.9760228 C13.535149,24.0799191 13.1258725,23.8390917 13.0219762,23.4381199 L11.999,19.490099 L10.9760238,23.4381199 C10.8721275,23.8390917 10.462851,24.0799191 10.0618791,23.9760228 C9.66090727,23.8721265 9.42007993,23.46285 9.52397621,23.0618781 L11.0162601,17.3026359 L11.0162601,17.3026359 Z M17.9997529,8.30503074 C17.9702084,11.5933934 15.2953406,14.25 12,14.25 C8.7046594,14.25 6.02979161,11.5933934 6.00024713,8.30503074 L5.25753788,3.10606602 C5.17594456,2.53491279 5.74285663,2.08936793 6.27854301,2.30364248 L9.43550165,3.56642594 L11.3568803,0.364128183 C11.6481829,-0.121376061 12.3518171,-0.121376061 12.6431197,0.364128183 L14.5644983,3.56642594 L17.721457,2.30364248 C18.2571434,2.08936793 18.8240554,2.53491279 18.7424621,3.10606602 L17.9997529,8.30503074 L17.9997529,8.30503074 Z M7.40047155,7.5 L16.5995284,7.5 L17.0740795,4.17814294 L14.528543,5.19635752 C14.1867569,5.33307196 13.7962739,5.20152774 13.6068803,4.88587182 L12,2.20773797 L10.3931197,4.88587182 C10.2037261,5.20152774 9.8132431,5.33307196 9.47145699,5.19635752 L6.92592054,4.17814294 L7.40047155,7.5 Z M7.56221918,9 C7.91927902,11.1282817 9.77025764,12.75 12,12.75 C14.2297424,12.75 16.080721,11.1282817 16.4377808,9 L7.56221918,9 L7.56221918,9 Z"/>
</svg>
