<?xml version="1.0" encoding="UTF-8"?>
<svg width="25px" height="24px" viewBox="0 0 25 24" version="1.1" xmlns="http://www.w3.org/2000/svg" xmlns:xlink="http://www.w3.org/1999/xlink">
    <!-- Generator: Sketch 54.1 (76490) - https://sketchapp.com -->
    <title>bell copy 68</title>
    <desc>Created with Sketch.</desc>
    <g id="Icons" stroke="none" stroke-width="1" fill="none" fill-rule="evenodd">
        <path d="M12.0942834,3.75000001 C8.44784852,3.75015059 5.13836716,6.47734023 4.85484403,10.0508312 C4.81358859,10.5708097 4.37958925,10.9717391 3.85797672,10.9717391 L3.84458546,10.9717391 C3.01015267,10.9717392 2.33371574,11.6481761 2.33371574,12.4826087 C2.33371578,13.3170413 3.01015268,13.9934783 3.8445853,13.9934783 L3.85797661,13.9934783 C4.29824346,13.9934783 4.68671569,14.2814204 4.81475427,14.7026579 C6.03683033,18.723198 10.2868139,20.9918037 14.3073655,19.7697293 C16.7358169,19.0315825 18.636291,17.1311087 19.3744355,14.7026598 C19.5024738,14.2814218 19.8909462,13.9934793 20.3312134,13.9934793 L20.3446048,13.9934793 C21.1790373,13.9934793 21.8554742,13.3170423 21.8554742,12.4826097 C21.8554742,11.6481771 21.1790373,10.9717401 20.3445854,10.9717391 L20.3311941,10.9717391 C19.8095816,10.9717391 19.3755822,10.5708097 19.3343268,10.0508312 C19.1358204,7.54888064 17.4539935,5.46178579 15.2117355,4.43503197 C15.2344247,4.58776549 15.2461574,4.74407202 15.2461087,4.90312638 C15.2455829,6.64402509 13.8338767,8.05488015 12.0929824,8.05434778 C11.067896,8.05403817 10.1127541,7.55607652 9.52441755,6.7282731 C9.20447231,6.27810259 9.31004075,5.65380043 9.76021126,5.33385519 C10.2103818,5.01390995 10.8346839,5.11947839 11.1546292,5.5696489 C11.369645,5.87218126 11.7188423,6.05423469 12.0935902,6.05434787 C12.7299138,6.05454246 13.2459166,5.53885073 13.2461088,4.90251855 C13.2463034,4.26619502 12.7306117,3.75019215 12.0942834,3.74999995 L12.0942834,3.75000001 Z M12.0945854,1.75 C16.4655572,1.75 20.4603825,4.8301258 21.2235811,9.08267182 C22.7372055,9.47285284 23.8554743,10.8471365 23.8554742,12.4826097 C23.8554742,14.1725983 22.6614121,15.5836948 21.0709285,15.9182584 C20.0165431,18.6799011 17.741114,20.8163641 14.8890049,21.6832851 C10.0269534,23.1611392 4.8992154,20.5967355 3.1178682,15.9181746 C1.52758101,15.5834611 0.333715813,14.1724581 0.333715739,12.4826087 C0.333715739,10.8471427 1.45197468,9.47286395 2.96558903,9.08267598 C3.72878575,4.83012781 7.7236122,1.75 12.0945854,1.75 Z M9.09459497,12.4995518 C8.26616784,12.4995518 7.59459497,11.8279789 7.59459497,10.9995518 C7.59459497,10.1711246 8.26616784,9.49955175 9.09459497,9.49955175 C9.92302209,9.49955175 10.594595,10.1711246 10.594595,10.9995518 C10.594595,11.8279789 9.92302209,12.4995518 9.09459497,12.4995518 Z M15.094595,12.4995518 C14.2661678,12.4995518 13.594595,11.8279789 13.594595,10.9995518 C13.594595,10.1711246 14.2661678,9.49955175 15.094595,9.49955175 C15.9230221,9.49955175 16.594595,10.1711246 16.594595,10.9995518 C16.594595,11.8279789 15.9230221,12.4995518 15.094595,12.4995518 Z M13.4332605,15.2493967 C13.8475244,14.8849181 14.4794412,14.9245724 14.8446861,15.3379672 C15.2099311,15.751362 15.1701933,16.381953 14.7559294,16.7464317 C13.2350643,18.0845228 10.9541256,18.0845228 9.43326053,16.7464317 C9.01899662,16.381953 8.97925888,15.751362 9.3445038,15.3379672 C9.70974873,14.9245724 10.3416655,14.8849181 10.7559294,15.2493967 C11.5209312,15.9224624 12.6682587,15.9224624 13.4332605,15.2493967 Z" id="Shape" fill="#000000" fill-rule="nonzero"></path>
    </g>
</svg>