<svg xmlns="http://www.w3.org/2000/svg" width="25" height="24" viewBox="0 0 25 24">
  <path d="M3.74972642,15.0693992 L8.55897075,17.8791479 C8.9166186,18.0880998 9.03716052,18.5474197 8.82820864,18.9050675 C8.61925677,19.2627154 8.15993693,19.3832573 7.80228908,19.1743054 L3.7752553,16.8215547 C4.07904809,20.018308 6.76945817,22.5001058 10.0259415,22.5000006 C11.1163069,22.5013693 12.193195,22.2590306 13.1778664,21.790704 C13.5519267,21.6127945 13.9993866,21.7718061 14.1772961,22.1458664 C14.3552056,22.5199266 14.196194,22.9673866 13.8221337,23.145296 C12.6356036,23.7096301 11.3379514,24.0016487 10.0250245,24 C5.82104176,24.0001366 2.37776073,20.6597867 2.25,16.435 L2.25,15.5127943 C2.24983813,15.503805 2.24983774,15.4948059 2.25,15.4858007 L2.25,10.3611412 C1.23155562,10.0063796 0.50000005,9.04391047 0.5,7.9098895 C0.5,6.69981793 1.33296601,5.68507923 2.45863587,5.39559485 C3.02911071,2.27699296 5.97784118,0.0186228347 9.20997529,0.000114604573 C9.21445791,3.69748125e-05 9.21895011,-1.32537681e-06 9.22345156,3.42089207e-08 L9.23269699,2.14201262e-05 C9.23846377,7.14265089e-06 9.24423145,-1.82080913e-15 9.25,-1.82080913e-15 C12.4977711,-1.82080913e-15 15.4685194,2.26412502 16.0413493,5.39559175 C17.1670267,5.68507101 18.0000001,6.69981337 18,7.90989024 C18,9.34603114 16.8267265,10.5070362 15.3833351,10.5070362 L15.3733795,10.5070362 C14.959166,10.5070362 14.6233795,10.1712497 14.6233795,9.75703617 C14.6233795,9.34282261 14.959166,9.00703617 15.3733795,9.00703617 L15.3833351,9.00703617 C16.0018084,9.0070362 16.5,8.51405396 16.5,7.9098902 C16.5,7.30572652 16.0018084,6.8127443 15.3832794,6.81274429 L15.3733096,6.81274356 C14.9823617,6.81271459 14.6570099,6.51238279 14.6257644,6.12268549 C14.4754336,4.24774694 13.1743421,2.6886687 11.4534465,1.95376787 C11.4662239,2.05092343 11.4728023,2.15003087 11.4727716,2.25067982 C11.4723962,3.4933213 10.46473,4.50037989 9.22209176,4.49999989 C8.49039371,4.4997789 7.80862204,4.14433837 7.38867064,3.55345684 C7.14871171,3.21582896 7.22788804,2.74760233 7.56551592,2.5076434 C7.90314381,2.26768447 8.37137043,2.3468608 8.61132936,2.68448868 C8.75129022,2.88141692 8.97860343,2.99992628 9.22254764,2.99999996 C9.63675788,3.00012663 9.97264651,2.66444053 9.97277162,2.25022395 C9.97289755,1.83840828 9.64108221,1.50401128 9.23017437,1.50003575 C6.52877494,1.50977774 4.08374973,3.50943093 3.87422142,6.12268549 C3.84297415,6.51240408 3.51758989,6.81274356 3.12662062,6.81274356 L3.1166651,6.81274356 C2.49819163,6.81274358 2,7.30572578 2,7.90988946 C2.00000003,8.51405322 2.49819164,9.00703544 3.11666499,9.00703544 L3.12662054,9.00703544 C3.45600638,9.00703544 3.74684242,9.2219468 3.84355994,9.53681305 C4.58178451,11.9401214 6.84456543,13.5443102 9.34999493,13.4990767 C9.76414101,13.4915996 10.1059341,13.82127 10.1134112,14.235416 C10.1208882,14.6495621 9.79121787,14.9913552 9.3770718,14.9988323 C7.17099816,15.0386611 5.11262898,14.0662602 3.74986528,12.4423392 L3.74972642,15.0693992 Z M10.15,10.0500001 C10.398528,9.71862922 10.868629,9.65147184 11.1999999,9.89999991 C11.5313708,10.148528 11.5985282,10.618629 11.3500002,10.9499999 C10.4801521,12.1097977 8.83480182,12.3448478 7.67500007,11.475 C7.47600982,11.3257573 7.29924276,11.1489902 7.15000007,10.95 C6.90147193,10.6186291 6.96862922,10.1485281 7.30000007,9.89999999 C7.63137092,9.65147185 8.10147193,9.71862914 8.35000007,10.05 C8.41396138,10.1352817 8.48971832,10.2110387 8.57499891,10.2749991 C9.07205821,10.6477921 9.77720792,10.5470564 10.15,10.0500001 Z M11.052,6.37391316 C11.2586461,6.73289832 11.7171797,6.8563935 12.0761642,6.64974778 C12.1908289,6.58374245 12.2859932,6.4885782 12.3520004,6.37391158 C12.5586478,6.01492727 13.0171828,5.89143379 13.3761672,6.09808117 C13.7351515,6.30472855 13.8586449,6.76326363 13.6519976,7.12224794 C13.4539794,7.46624168 13.1684887,7.75173243 12.8244948,7.94974829 C11.7475407,8.56968575 10.3719381,8.19919968 9.75200008,7.12224468 C9.54535403,6.7632596 9.66884922,6.30472498 10.0278343,6.09807893 C10.3868194,5.89143289 10.845354,6.01492808 11.052,6.37391316 Z M6.15000005,6.37391316 C6.35664614,6.73289832 6.81517969,6.8563935 7.17416421,6.64974778 C7.28882891,6.58374245 7.38399316,6.4885782 7.45000038,6.37391158 C7.65664776,6.01492727 8.11518284,5.89143379 8.47416715,6.09808117 C8.83315146,6.30472855 8.95664495,6.76326363 8.74999757,7.12224794 C8.55197943,7.46624168 8.26648867,7.75173243 7.9224948,7.94974829 C6.84554074,8.56968575 5.46993808,8.19919968 4.85000008,7.12224468 C4.64335403,6.7632596 4.76684922,6.30472498 5.1258343,6.09807893 C5.48481938,5.89143289 5.943354,6.01492808 6.15000005,6.37391316 Z M18.2347983,13.0327217 C19.6108962,11.6566354 21.8419891,11.6566538 23.2180787,13.0327557 C23.4857374,13.3004178 23.7085197,13.6094597 23.8779311,13.9481404 C24.5560463,15.3045153 24.2900614,16.9426437 23.228795,18.0033783 L18.5411703,22.8935755 C18.2459257,23.2015789 17.7535637,23.2015789 17.4583191,22.8935754 L12.7819499,18.0148689 C11.7090818,16.9426542 11.4434594,15.3038598 12.1224726,13.9481392 C12.992487,12.2079124 15.1085008,11.5024693 16.8487248,12.3724881 C17.1875912,12.5419027 17.4969106,12.7648695 17.7646905,13.0327239 L17.9997433,13.2677767 L18.2347983,13.0327217 Z M22.1571122,16.9539779 C22.7729073,16.338352 22.9256363,15.3977358 22.5363323,14.6190448 C22.4390774,14.4246167 22.3111308,14.2471301 22.1574127,14.09341 C21.3671063,13.3030965 20.085761,13.303086 19.2954562,14.0933841 L18.5300734,14.858767 C18.2371802,15.1516602 17.7623064,15.1516602 17.4694132,14.858767 L16.7039566,14.0933103 C16.5501545,13.9394654 16.3725422,13.8114371 16.1779626,13.714158 C15.1787232,13.2145918 13.9637076,13.6196574 13.4639004,14.6193851 C13.074021,15.3978202 13.2264832,16.338457 13.8535441,16.96538 L17.9997584,21.2907717 L22.1571122,16.9539779 Z"/>
</svg>
