<?xml version="1.0" encoding="UTF-8"?>
<svg width="25px" height="24px" viewBox="0 0 25 24" version="1.1" xmlns="http://www.w3.org/2000/svg" xmlns:xlink="http://www.w3.org/1999/xlink">
    <!-- Generator: Sketch 54.1 (76490) - https://sketchapp.com -->
    <title>bell copy 67</title>
    <desc>Created with Sketch.</desc>
    <g id="Icons" stroke="none" stroke-width="1" fill="none" fill-rule="evenodd">
        <path d="M12.2989529,3.15739942 C8.33939447,3.15751232 4.74504421,6.11941842 4.43582996,10.0167185 C4.40488839,10.4067024 4.07938888,10.7073994 3.68817947,10.7073994 L3.6741795,10.7073994 C2.63864292,10.7073995 1.79917936,11.546863 1.79917936,12.5823994 C1.7991794,13.6179359 2.63864294,14.4573994 3.67417936,14.4573994 L3.68817936,14.4573994 C4.0183795,14.4573994 4.30973367,14.673356 4.4057626,14.9892841 C5.73084218,19.3486982 10.3390383,21.8085149 14.6984646,20.4834372 C17.3315997,19.683075 19.3922567,17.6224186 20.1926162,14.9892858 C20.2886449,14.6733574 20.5799993,14.4574005 20.9101997,14.4574005 L20.9241997,14.4574005 C21.959736,14.4574005 22.7991996,13.6179369 22.7991996,12.5824004 C22.7991996,11.546864 21.959736,10.7074005 20.9241795,10.7073994 L20.9101795,10.7073994 C20.5189701,10.7073994 20.1934706,10.4067024 20.162529,10.0167185 C19.929996,7.08590235 17.8396468,4.68407206 15.1332657,3.67301307 C15.2404264,3.98164518 15.2986049,4.31317856 15.2984993,4.65830594 C15.2979989,6.31516125 13.954444,7.65790605 12.2975928,7.65739938 C11.0265747,7.65701549 9.89373834,6.85572355 9.4700715,5.65739638 C9.33200199,5.26687149 9.5366575,4.83836107 9.92718239,4.70029156 C10.3177073,4.56222205 10.7462177,4.76687757 10.8842872,5.15740245 C11.0961192,5.75656206 11.6625366,6.1572075 12.2980487,6.15739945 C13.1264718,6.15765278 13.7982492,5.48628048 13.7984994,4.65785006 C13.7987527,3.82942696 13.1273804,3.15764959 12.2989529,3.15739938 L12.2989529,3.15739942 Z M12.2991794,1.65739941 C16.796092,1.65739941 20.89979,4.87304326 21.5844089,9.2719447 C23.1322858,9.57891115 24.2991996,10.94438 24.2991996,12.5824005 C24.2991996,14.262275 23.0718909,15.6554917 21.4650237,15.9143004 C20.4219575,18.7912663 18.0817138,21.0228342 15.1346941,21.918604 C10.1478974,23.4343752 4.88565679,20.7594328 3.13312053,15.9142615 C1.52636854,15.6553549 0.299179429,14.2621922 0.299179355,12.5823994 C0.299179355,10.9443862 1.46608279,9.57892225 3.0139495,9.27194775 C3.69856685,4.87304478 7.80226587,1.65739941 12.2991794,1.65739941 Z M13.7871786,16.519831 C14.0978766,16.2458973 14.5718141,16.2757006 14.8457478,16.5863986 C15.1196815,16.8970965 15.0898782,17.3710341 14.7791803,17.6449678 C13.3619416,18.8945076 11.2364174,18.8945076 9.81917864,17.6449678 C9.50848071,17.3710341 9.47867741,16.8970965 9.7526111,16.5863986 C10.0265448,16.2757007 10.5004824,16.2458973 10.8111803,16.519831 C11.6615216,17.2695532 12.9368374,17.2695532 13.7871786,16.519831 Z M16.7991795,11.0823994 C16.7991795,10.6681859 17.1349659,10.3323994 17.5491795,10.3323994 C17.963393,10.3323994 18.2991795,10.6681859 18.2991795,11.0823994 C18.2991795,12.32504 17.29182,13.3323994 16.0491795,13.3323994 C14.8065389,13.3323994 13.7991795,12.32504 13.7991795,11.0823994 C13.7991795,10.6681859 14.1349659,10.3323994 14.5491795,10.3323994 C14.963393,10.3323994 15.2991795,10.6681859 15.2991795,11.0823994 C15.2991795,11.4966129 15.634966,11.8323994 16.0491795,11.8323994 C16.4633929,11.8323994 16.7991795,11.4966129 16.7991795,11.0823994 Z M9.29917947,11.0823994 C9.29917947,10.6681859 9.63496591,10.3323994 10.0491795,10.3323994 C10.463393,10.3323994 10.7991795,10.6681859 10.7991795,11.0823994 C10.7991795,12.32504 9.79182003,13.3323994 8.54917947,13.3323994 C7.30653891,13.3323994 6.29917947,12.32504 6.29917947,11.0823994 C6.29917947,10.6681859 6.63496591,10.3323994 7.04917947,10.3323994 C7.46339303,10.3323994 7.79917947,10.6681859 7.79917947,11.0823994 C7.79917947,11.4966129 8.13496603,11.8323994 8.54917947,11.8323994 C8.96339291,11.8323994 9.29917947,11.4966129 9.29917947,11.0823994 Z" id="Shape" fill="#000000" fill-rule="nonzero"></path>
    </g>
</svg>