<svg xmlns="http://www.w3.org/2000/svg" width="25" height="24" viewBox="0 0 25 24">
  <path d="M12.4996887,3.78203869 C8.85662692,3.78218913 5.55020695,6.50685602 5.26694609,10.0770414 C5.22572882,10.5965389 4.79213094,10.9970974 4.27100091,10.9970974 L4.25762204,10.9970974 C3.42396113,10.9970975 2.74814993,11.6729086 2.74814993,12.5065694 C2.74814997,13.3402302 3.42396114,14.0160414 4.25762189,14.0160414 L4.2710008,14.0160414 C4.7108604,14.0160414 5.09897327,14.3037171 5.22689341,14.7245649 C6.44783901,18.7413859 10.6938912,21.0078931 14.7107236,19.7869492 C17.1369286,19.0494851 19.0356448,17.1507694 19.7731064,14.7245668 C19.9010263,14.3037186 20.2891394,14.0160424 20.7289993,14.0160424 L20.7423783,14.0160424 C21.5760389,14.0160424 22.2518501,13.3402312 22.2518501,12.5065704 C22.2518501,11.6729097 21.5760389,10.9970984 20.7423589,10.9970974 L20.72898,10.9970974 C20.20785,10.9970974 19.7742521,10.5965389 19.7330348,10.0770414 C19.534712,7.57740522 17.8544409,5.49224101 15.614257,4.46643697 C15.6369253,4.61902921 15.6486471,4.77519115 15.6485985,4.93409838 C15.6480732,6.6733867 14.2376728,8.08293666 12.4983889,8.08240479 C11.4742508,8.08209546 10.5199924,7.58459445 9.93220009,6.75755677 C9.61255081,6.30780269 9.7180216,5.68407802 10.1677757,5.36442874 C10.6175298,5.04477946 11.2412544,5.15025025 11.5609037,5.60000433 C11.7757207,5.90225685 12.1245949,6.08414187 12.4989962,6.08425495 C13.1347311,6.08444936 13.6502567,5.56923466 13.6504487,4.93349111 C13.6506431,4.2977562 13.1354284,3.78223065 12.4996887,3.78203863 L12.4996887,3.78203869 Z M12.4999905,1.78388875 C16.8669189,1.78388875 20.8580489,4.86116533 21.6205415,9.10977759 C23.1327657,9.49959768 24.2500001,10.8726101 24.25,12.5065704 C24.25,14.1949957 23.0570425,15.6047869 21.4680302,15.939041 C20.41462,18.6981291 18.1412958,20.8326158 15.291825,21.6987349 C10.4342711,23.1752219 5.31127642,20.6131904 3.53157702,15.9389573 C1.94276091,15.6045534 0.750000074,14.1948556 0.75,12.5065694 C0.75,10.8726163 1.86722452,9.49960878 3.37943871,9.10978174 C4.14192945,4.86116733 8.13306055,1.78388875 12.4999905,1.78388875 Z M13.939584,15.5861638 C14.3534647,15.2212567 14.9847969,15.2609577 15.349704,15.6748384 C15.714611,16.0887191 15.67491,16.7200513 15.2610293,17.0849584 C13.7415711,18.4246223 11.4627424,18.4246223 9.94328412,17.0849584 C9.52940342,16.7200514 9.48970244,16.0887191 9.8546095,15.6748384 C10.2195166,15.2609577 10.8508488,15.2212567 11.2647295,15.5861638 C12.0290237,16.2600206 13.1752898,16.2600206 13.939584,15.5861638 Z M8.49678079,10.6059775 C8.73071261,10.9811029 9.29818777,11.1221823 9.73828578,10.888332 C9.87106768,10.8177773 9.97743918,10.7195882 10.04829,10.6059752 C10.3402631,10.1377807 10.9565007,9.99492501 11.4246952,10.2868981 C11.8928897,10.5788712 12.0357454,11.1951089 11.7437723,11.6633034 C11.4848965,12.0784245 11.1158892,12.4190466 10.675878,12.6528501 C9.32271249,13.3718676 7.59963731,12.9434957 6.80129439,11.6632991 C6.50932309,11.1951035 6.65218114,10.5788664 7.12037678,10.2868951 C7.58857241,9.99492381 8.20480948,10.1377819 8.49678079,10.6059775 Z M14.9907681,10.6059775 C15.2246999,10.9811029 15.792175,11.1221823 16.2322731,10.888332 C16.365055,10.8177773 16.4714264,10.7195882 16.5422772,10.6059752 C16.8342503,10.1377807 17.450488,9.99492501 17.9186825,10.2868981 C18.386877,10.5788712 18.5297327,11.1951089 18.2377595,11.6633034 C17.9788838,12.0784245 17.6098765,12.4190466 17.1698652,12.6528501 C15.8166998,13.3718676 14.0936246,12.9434957 13.2952817,11.6632991 C13.0033104,11.1951035 13.1461684,10.5788664 13.614364,10.2868951 C14.0825597,9.99492381 14.6987968,10.1377819 14.9907681,10.6059775 Z"/>
</svg>
