<?xml version="1.0" encoding="UTF-8"?>
<svg width="24px" height="24px" viewBox="0 0 24 24" version="1.1" xmlns="http://www.w3.org/2000/svg" xmlns:xlink="http://www.w3.org/1999/xlink">
    <!-- Generator: Sketch 54.1 (76490) - https://sketchapp.com -->
    <title>bell copy 37</title>
    <desc>Created with Sketch.</desc>
    <g id="Icons" stroke="none" stroke-width="1" fill="none" fill-rule="evenodd">
        <path d="M3.51476991,3.51471991 C8.20106313,-1.1715733 15.7990369,-1.1715733 20.4853301,3.51471991 C25.1716233,8.20101313 25.1716233,15.7989869 20.4853301,20.4852801 C15.7990369,25.1715733 8.20106313,25.1715733 3.51476991,20.4852801 C-1.1715233,15.7989869 -1.1715233,8.20101313 3.51476991,3.51471991 Z M19.4246699,19.4246199 C23.5251767,15.3241131 23.5251767,8.67588687 19.4246699,4.57538009 C15.3241631,0.474873305 8.67593687,0.474873305 4.57543009,4.57538009 C0.474923305,8.67588687 0.474923305,15.3241131 4.57543009,19.4246199 C8.67593687,23.5251267 15.3241631,23.5251267 19.4246699,19.4246199 Z M14.9999999,6 L14.9999999,9 L17.9999999,9 C18.8284274,9.00000019 19.4999999,9.67157264 19.4999999,10.5 L19.4999999,13.5 C19.4999999,14.3284278 18.8284274,15.0000003 17.9999999,15 L14.9999999,15 L14.9999999,18 C14.9999999,18.8284278 14.3284275,19.5000003 13.4999999,19.5 L10.4999999,19.5 C9.67157318,19.5000002 9.00000006,18.8284276 8.99999993,18 L8.99999993,15 L5.99999993,15 C5.17157318,15.0000001 4.50000006,14.3284275 4.49999993,13.5 L4.49999993,10.5 C4.49999993,9.67157244 5.17157237,9.00000004 5.99999993,9 L8.99999993,9 L8.99999993,6 C8.99999997,5.17157244 9.6715724,4.50000004 10.4999999,4.5 L13.4999999,4.5 C14.3284276,4.5 15,5.17157244 14.9999999,6 Z M17.9999999,13.5 L17.9999999,10.5 L14.2499999,10.5 C13.8357864,10.5 13.4999999,10.1642136 13.4999999,9.74999999 L13.4999999,6 L10.4999999,6 L10.4999999,9.75000001 C10.4999999,10.1642136 10.1642135,10.5 9.74999993,10.5 L5.99999991,10.5 L5.99999991,13.5 L9.74999991,13.5 C10.1642135,13.5 10.4999999,13.8357864 10.4999999,14.25 L10.4999999,18 L13.4999999,18 L13.4999999,14.25 C13.4999999,13.8357864 13.8357864,13.5 14.25,13.5 L17.9999999,13.5 Z" id="Shape" fill="#000000" fill-rule="nonzero"></path>
    </g>
</svg>