<svg xmlns="http://www.w3.org/2000/svg" width="25" height="24" viewBox="0 0 25 24">
  <path d="M12.7497298,15.7139989 L13.9239628,15.7139989 C15.4020777,15.7139988 16.6003321,16.9089518 16.6003321,18.3829989 C16.6003321,19.8570439 15.4020799,21.0519989 13.9239628,21.0519989 L12.7497298,21.0519329 L12.7497298,23.25 C12.7497298,23.6642136 12.4130162,24 11.9976589,24 C11.5823017,24 11.2455881,23.6642136 11.2455881,23.25 L11.2455881,21.0518483 L10.414503,21.0518016 C9.92288001,21.0630503 9.53347221,21.4695893 9.54489423,21.9810604 C9.54345924,22.2453146 9.65153333,22.4984139 9.84355761,22.6805077 C10.1445556,22.9659395 10.1565355,23.4406629 9.87031555,23.7408321 C9.58409559,24.0410013 9.10806142,24.0529482 8.80706346,23.7675164 C8.31438335,23.3003152 8.03709296,22.6509272 8.04096001,21.9941365 C8.01074253,20.6757058 9.05793313,19.5824461 10.3972521,19.5519989 L11.2455881,19.5519989 L11.2455881,17.2138423 L8.77252507,17.2136977 C7.2996237,17.1720569 6.12509203,15.9732922 6.11753246,14.4901729 C6.13672111,13.0298678 7.33703164,11.8603085 8.80142257,11.8750381 C9.21675868,11.8792158 9.55005909,12.2183719 9.54586987,12.6325644 C9.54168065,13.0467569 9.20158817,13.3791395 8.78625206,13.3749619 C8.15076008,13.3685697 7.62987206,13.8761129 7.62159947,14.4961245 C7.62502232,15.1566876 8.15302192,15.6955809 8.7938372,15.7139989 L11.2455881,15.7139989 L11.2455881,6.78487689 C10.6299816,6.64752506 10.0448613,6.33996946 9.56578276,5.86221009 C9.37619516,5.67314452 9.21333598,5.46751795 9.0772052,5.25 L1.62108735,5.25 C1.45247267,5.25 1.48782736,5.20638383 1.51017322,5.37814323 C1.56291909,5.78356953 1.9060962,6.38260995 2.44929343,6.92965323 C3.8763017,8.36676527 5.96868435,8.93736451 8.14071965,8.10040907 C8.52815986,7.95111583 8.96360244,8.14330728 9.11330789,8.52968068 C9.26301334,8.91605408 9.07029124,9.35029769 8.68285104,9.49959093 C5.9195893,10.564365 3.20714117,9.824672 1.38049926,7.98509677 C0.62371583,7.22295502 0.118759734,6.3415177 0.0185335054,5.57113802 C-0.117005225,4.52933204 0.514710974,3.75 1.62108735,3.75 L8.57172932,3.75 C8.48136938,2.7690706 8.81272053,1.75678861 9.56578276,1.00579991 C10.9105488,-0.335263305 13.0908358,-0.335263305 14.4356018,1.00579991 C15.1886641,1.75678861 15.5200152,2.7690706 15.4296553,3.75 L22.3792443,3.75 C23.4857528,3.75 24.1176887,4.52922055 23.982229,5.571078 C23.882062,6.34148958 23.3770665,7.22295146 22.6201836,7.98512179 C20.7934021,9.82466483 18.0807397,10.564364 15.3174807,9.49959093 C14.9300405,9.35029769 14.7373184,8.91605408 14.8870238,8.52968068 C15.0367293,8.14330728 15.4721718,7.95111583 15.859612,8.10040907 C18.0316654,8.93737147 20.1242908,8.36674638 21.5514391,6.92962821 C22.0946881,6.38258421 22.4378694,5.78356662 22.4905737,5.37820325 C22.5129005,5.20648175 22.5481931,5.25 22.3792443,5.25 L14.9241794,5.25 C14.7880486,5.46751795 14.6251894,5.67314452 14.4356018,5.86221009 C13.9549498,6.34153862 13.3675583,6.6495435 12.7497298,6.78622474 L12.7497298,15.7139989 Z M12.7497298,17.2139302 L12.7497298,19.5519989 L13.9239628,19.5519989 C14.5713648,19.5519989 15.0961905,19.0286174 15.0961905,18.3829989 C15.0961905,17.7373795 14.5713638,17.2139989 13.9239629,17.2139989 L12.7497298,17.2139302 L12.7497298,17.2139302 Z M13.8016262,4.15286134 C14.0808258,3.45628232 13.9376214,2.63051104 13.3720131,2.06646009 C12.6146509,1.3111833 11.3867336,1.3111833 10.6293715,2.06646009 C9.87200933,2.82173687 9.87200933,4.04627313 10.6293715,4.80154991 C11.3867336,5.5568267 12.6146509,5.5568267 13.3720131,4.80154991 C13.5363763,4.63763926 13.6650693,4.45162744 13.7580921,4.25310727 C13.7701978,4.21846449 13.7847796,4.1849789 13.8016262,4.15286134 L13.8016262,4.15286134 Z M15.2186494,13.374902 C14.8033464,13.3815966 14.4612348,13.051281 14.4545218,12.6371215 C14.4478088,12.222962 14.7790364,11.8817925 15.1943394,11.875098 C16.6545506,11.8515599 17.8574127,13.0129506 17.8810107,14.4691384 C17.8861542,14.7864621 17.8338158,15.1021049 17.7265127,15.4008856 C17.5864644,15.7908436 17.1559366,15.993748 16.7649019,15.8540854 C16.3738673,15.7144227 16.1704026,15.2850804 16.3104508,14.8951224 C16.3567166,14.7662974 16.3792833,14.6302022 16.3770655,14.493379 C16.3668907,13.8655097 15.8482529,13.3647531 15.2186494,13.374902 Z"/>
</svg>
