<?xml version="1.0" encoding="UTF-8"?>
<svg width="25px" height="24px" viewBox="0 0 25 24" version="1.1" xmlns="http://www.w3.org/2000/svg" xmlns:xlink="http://www.w3.org/1999/xlink">
    <title>medical-g</title>
    <g id="Icons" stroke="none" stroke-width="1" fill="none" fill-rule="evenodd">
        <g transform="translate(-3824.000000, -58.000000)" fill="#000000" fill-rule="nonzero" id="Shape">
            <path d="M3836.47662,58 C3837.79315,58 3839.00967,58.702357 3839.66793,59.8425 C3839.96525,60.3574805 3840.12828,60.9264377 3840.15701,61.500611 L3846.58,61.5 C3847.82246,61.5 3848.57416,62.3905215 3848.45608,63.5648874 C3848.37248,64.3963314 3847.86681,65.324641 3847.09761,66.1209903 C3845.26629,68.016945 3842.49032,68.7746265 3839.63521,67.6729567 C3839.11995,67.4741404 3838.86342,66.8952691 3839.06224,66.3800113 C3839.26105,65.8647536 3839.83992,65.6082271 3840.35518,65.8070433 C3842.42166,66.6044082 3844.36144,66.074957 3845.65909,64.7315097 C3846.04419,64.3328113 3846.30827,63.9096631 3846.41558,63.5864902 L3846.439,63.5 L3839.68318,63.5008225 L3839.66793,63.5275 C3839.18103,64.3708264 3838.38871,64.9746367 3837.47641,65.2318651 L3837.47567,72.996 L3838.88762,72.9953539 C3840.49256,72.9953539 3841.79762,74.2957056 3841.79762,75.9053539 C3841.79762,77.4526852 3840.57946,78.7217322 3839.04892,78.8104048 L3838.87762,78.8153539 L3837.47567,78.815 L3837.47662,81.01 C3837.47662,81.5622847 3837.02891,82.01 3836.47662,82.01 C3835.96379,82.01 3835.54112,81.6239598 3835.48335,81.1266211 L3835.47662,81.01 L3835.47567,78.815 L3833.87957,78.815113 C3833.52181,78.8229674 3833.24473,79.1118625 3833.2564,79.5066257 C3833.25326,79.6541656 3833.29965,79.7940258 3833.38768,79.907479 L3833.46139,79.9873251 C3833.869,80.3599898 3833.89732,80.9925211 3833.52465,81.4001231 C3833.15199,81.8077252 3832.51946,81.8360475 3832.11186,81.4633827 C3831.59694,80.9926003 3831.29402,80.3430676 3831.25981,79.695187 L3831.25718,79.5186688 C3831.21041,78.115653 3832.28314,76.9413353 3833.68755,76.8242735 L3835.47567,76.821 L3835.47567,75 L3833.24333,75 C3831.64222,74.9546855 3830.36167,73.6365639 3830.36167,72.0258757 C3830.37693,70.4159119 3831.6937,69.1299264 3833.30067,69.1605353 C3833.85285,69.1710531 3834.29196,69.6272135 3834.28144,70.1793981 C3834.27168,70.6921409 3833.87766,71.1073838 3833.37931,71.155667 L3833.26258,71.1601726 C3832.76965,71.1507835 3832.36632,71.544687 3832.36162,72.0353539 C3832.36162,72.5156408 3832.72191,72.9333025 3833.16742,73 L3835.47567,72.997 L3835.47596,65.2323168 C3834.53376,64.9666893 3833.7449,64.33527 3833.27238,63.5010725 L3826.553,63.499 L3826.5782,63.5870271 C3826.67193,63.8695481 3826.88576,64.2287369 3827.1958,64.5812048 L3827.33449,64.7316078 C3828.63254,66.0751486 3830.57345,66.6048076 3832.64001,65.8074097 C3833.15527,65.6085935 3833.73414,65.86512 3833.93296,66.3803777 C3834.13177,66.8956355 3833.87525,67.4745068 3833.35999,67.6733231 C3830.50486,68.7749979 3827.72785,68.017178 3825.89613,66.1212586 C3825.12647,65.3246167 3824.62074,64.3960081 3824.53772,63.564215 C3824.42558,62.4405996 3825.10978,61.5778892 3826.2573,61.5049949 L3826.41662,61.5 L3832.80076,61.5 C3832.89316,59.7471652 3834.20354,58.3225874 3835.89853,58.0551458 L3836.0884,58.0302344 L3836.314,58.014 L3836.36,58.0067277 L3836.47662,58 Z M3837.47567,75 L3837.47567,76.817 L3838.87762,76.8153539 C3839.38459,76.8153539 3839.79762,76.4038076 3839.79762,75.9053539 C3839.79762,75.4378587 3839.44581,75.053926 3838.99364,75.0014637 L3837.47567,75 Z M3836.56467,60.004 L3836.33167,60.0161666 C3835.4717,60.0896615 3834.79662,60.8109952 3834.79662,61.69 C3834.79662,62.6178384 3835.54879,63.37 3836.47662,63.37 C3837.07862,63.37 3837.63488,63.0488408 3837.93588,62.5275 C3838.23687,62.0061592 3838.23687,61.3638408 3837.93588,60.8425 C3837.65996,60.3646042 3837.16956,60.0549167 3836.62605,60.0066208 L3836.56467,60.004 Z"></path>
        </g>
    </g>
</svg>