<svg xmlns="http://www.w3.org/2000/svg" width="24" height="24" viewBox="0 0 24 24">
  <path d="M12,23 C5.92486775,23 1,18.0751322 1,12 C1,5.92486775 5.92486775,1 12,1 C18.0751322,1 23,5.92486775 23,12 C23,18.0751322 18.0751322,23 12,23 Z M12,21 C16.9705627,21 21,16.9705627 21,12 C21,7.02943725 16.9705627,3 12,3 C7.02943725,3 3,7.02943725 3,12 C3,16.9705627 7.02943725,21 12,21 Z M15.1428572,7.71428571 L15.1428572,8.85714284 L16.2857143,8.85714284 C17.2324886,8.85714284 18,9.62465428 18,10.5714286 L17.9999999,13.4285716 C17.9999999,14.3753459 17.2324884,15.1428574 16.2857142,15.1428573 L15.1428571,15.1428573 L15.1428571,16.2857144 C15.1428571,17.2324887 14.3753456,18.0000002 13.4285714,18.0000002 L10.5714285,18.0000002 C9.6246551,18.0000002 8.85714298,17.2324886 8.85714284,16.2857143 L8.85714284,15.1428572 L7.71428571,15.1428572 C6.76751226,15.1428572 6.00000014,14.3753457 6,13.4285714 L6,10.5714285 C6,9.62465428 6.76751143,8.85714288 7.71428574,8.85714284 L8.85714287,8.85714284 L8.85714287,7.71428571 C8.85714287,6.76751144 9.6246543,6.00000004 10.5714286,6 L13.4285715,6 C14.3753457,6 15.1428572,6.76751144 15.1428572,7.71428571 Z M15.9999999,13.1428573 L16,10.8571428 L14.1428572,10.8571428 C13.5905724,10.8571428 13.1428572,10.4094276 13.1428572,9.85714284 L13.1428572,8 L10.8571429,8 L10.8571429,9.85714284 C10.8571429,10.4094276 10.4094276,10.8571428 9.85714287,10.8571428 L8,10.8571428 L8,13.1428572 L9.85714284,13.1428572 C10.4094276,13.1428572 10.8571428,13.5905725 10.8571428,14.1428572 L10.8571428,16.0000002 L13.1428571,16.0000002 L13.1428571,14.1428573 C13.1428571,13.5905726 13.5905723,13.1428573 14.1428571,13.1428573 L15.9999999,13.1428573 Z"/>
</svg>
