<?xml version="1.0" encoding="UTF-8"?>
<svg width="25px" height="25px" viewBox="0 0 25 25" version="1.1" xmlns="http://www.w3.org/2000/svg" xmlns:xlink="http://www.w3.org/1999/xlink">
    <!-- Generator: Sketch Beta 51 (57336) - http://www.bohemiancoding.com/sketch -->
    <title>Shape Copy 11</title>
    <desc>Created with Sketch Beta.</desc>
    <defs></defs>
    <g id="Prototype" stroke="none" stroke-width="1" fill="none" fill-rule="evenodd">
        <path d="M2.2,17.1 C1.48202983,17.1 0.9,16.5179702 0.9,15.8 L0.9,9.2 C0.9,8.48202983 1.48202983,7.9 2.2,7.9 L7.9,7.9 L7.9,2.2 C7.9,1.48202983 8.48202983,0.9 9.2,0.9 L15.8,0.9 C16.5179702,0.9 17.1,1.48202983 17.1,2.2 L17.1,7.9 L22.8,7.9 C23.5179702,7.9 24.1,8.48202983 24.1,9.2 L24.1,15.8 C24.1,16.5179702 23.5179702,17.1 22.8,17.1 L17.1,17.1 L17.1,22.8 C17.1,23.5179702 16.5179702,24.1 15.8,24.1 L9.2,24.1 C8.48202983,24.1 7.9,23.5179702 7.9,22.8 L7.9,17.1 L2.2,17.1 Z M8.8,14.9 C9.51797017,14.9 10.1,15.4820298 10.1,16.2 L10.1,21.9 L14.9,21.9 L14.9,16.2 C14.9,15.4820298 15.4820298,14.9 16.2,14.9 L21.9,14.9 L21.9,10.1 L16.2,10.1 C15.4820298,10.1 14.9,9.51797017 14.9,8.8 L14.9,3.1 L10.1,3.1 L10.1,8.8 C10.1,9.51797017 9.51797017,10.1 8.8,10.1 L3.1,10.1 L3.1,14.9 L8.8,14.9 Z" id="Shape-Copy-11" fill="#393B4F" fill-rule="nonzero"></path>
    </g>
</svg>