<?xml version="1.0" encoding="UTF-8"?>
<svg width="25px" height="25px" viewBox="0 0 25 25" version="1.1" xmlns="http://www.w3.org/2000/svg" xmlns:xlink="http://www.w3.org/1999/xlink">
    <!-- Generator: Sketch 54.1 (76490) - https://sketchapp.com -->
    <title>bell copy 83</title>
    <desc>Created with Sketch.</desc>
    <g id="Icons" stroke="none" stroke-width="1" fill="none" fill-rule="evenodd">
        <path d="M9.74793549,23.0023898 L9.74793536,19.7523898 L9.24793536,19.7523898 C7.86722374,19.7523901 6.74793557,18.6331018 6.74793536,17.2523898 L6.74793536,13.7523898 C6.74793536,13.200105 7.19565061,12.7523898 7.74793536,12.7523898 C8.30022011,12.7523898 8.74793536,13.200105 8.74793536,13.7523898 L8.74793536,17.2523898 C8.7479354,17.5285322 8.97179307,17.7523898 9.24793536,17.7523898 L10.7479354,17.7523898 C11.3002201,17.7523898 11.7479353,18.200105 11.7479354,18.7523898 L11.7479354,20.6824544 L14.5613118,18.0253766 C14.7469419,17.8500594 14.9926029,17.7523898 15.2479354,17.7523898 L22.2479354,17.7523898 C22.5240777,17.7523898 22.7479354,17.5285321 22.7479354,17.2523898 L22.7479354,11.7523898 C22.7479354,11.4762475 22.5240777,11.2523898 22.2479354,11.2523898 L18.7661604,11.2523898 C18.2138756,11.2523898 17.7661604,10.8046745 17.7661604,10.2523898 C17.7661604,9.70010503 18.2138756,9.25238978 18.7661604,9.25238978 L22.2479354,9.25238978 C23.6286472,9.25238978 24.7479355,10.3716781 24.7479354,11.7523898 L24.7479354,17.2523898 C24.7479355,18.6331015 23.6286472,19.7523898 22.2479354,19.7523898 L15.645514,19.7523898 L11.434559,23.7294029 C10.7968246,24.3317077 9.74793552,23.8795877 9.74793549,23.0023898 Z M13.7479354,13.2523895 C13.7479354,14.1295875 12.6990464,14.5817074 12.0613119,13.9794027 L7.85035675,10.0023898 L3.74793536,10.0023898 C2.36722348,10.0023893 1.24793536,8.88310125 1.24793536,7.50238978 L1.24793536,2.50238978 C1.24793515,1.12167812 2.36722356,0.00238978437 3.74793536,0.00238978437 L14.2479354,0.00238978437 C15.628647,0.00238972402 16.7479353,1.12167799 16.7479354,2.50238978 L16.7479354,7.50238978 C16.7479353,8.91596152 15.1612113,10.0023899 13.7479354,10.0023898 L13.7479354,13.2523895 Z M11.7479354,9.00238978 C11.7479354,8.45010504 12.1956506,8.00238978 12.7479354,8.00238978 L13.7479354,8.00238978 C14.1822568,8.00238982 14.7479354,7.61507026 14.7479354,7.50238978 L14.7479354,2.50238978 C14.7479353,2.22624756 14.5240776,2.00238977 14.2479354,2.00238978 L3.74793536,2.00238978 C3.47179308,2.00238978 3.24793532,2.22624753 3.24793536,2.50238978 L3.24793536,7.50238978 C3.24793536,7.77853184 3.47179322,8.0023897 3.74793536,8.00238978 L8.24793536,8.00238978 C8.50326778,8.00238978 8.74892884,8.10005937 8.93455887,8.27537661 L11.7479354,10.9324543 L11.7479354,9.00238978 Z" id="Shape" fill="#000000" fill-rule="nonzero"></path>
    </g>
</svg>