<svg xmlns="http://www.w3.org/2000/svg" width="24" height="24" viewBox="0 0 24 24">
  <g fill-rule="evenodd" transform="translate(-3004 -58)">
    <path fill-rule="nonzero" d="M3011.75,75 L3004.75,75 C3004.33579,75 3004,74.6642136 3004,74.25 C3004,73.8357864 3004.33579,73.5 3004.75,73.5 L3005,73.5 L3005,59.5 C3005,58.6715724 3005.67157,58 3006.5,58 L3013,58 C3013.82843,58 3014.5,58.6715724 3014.5,59.5 L3014.5,62.4447762 L3014.5,66.1435603 L3014.5,68.75 C3014.5,69.1642136 3014.16421,69.5 3013.75,69.5 C3013.33579,69.5 3013,69.1642135 3013,68.75 L3013,66.1435603 L3013,62.4447762 L3013,59.5 L3006.5,59.5 L3006.5,73.5 L3011.75,73.5 C3012.16421,73.5 3012.5,73.8357864 3012.5,74.25 C3012.5,74.6642136 3012.16421,75 3011.75,75 Z M3023.75,64.18934 L3024.71967,63.2196699 C3025.01256,62.9267767 3025.48744,62.9267767 3025.78033,63.2196699 C3026.07322,63.5125631 3026.07322,63.9874369 3025.78033,64.2803301 L3023.53033,66.5303301 C3023.23744,66.8232233 3022.76256,66.8232233 3022.46967,66.5303301 L3020.21967,64.2803301 C3019.92678,63.9874369 3019.92678,63.5125631 3020.21967,63.2196699 C3020.51256,62.9267767 3020.98744,62.9267767 3021.28033,63.2196699 L3022.25,64.1893397 L3022.25,62.75 C3022.25,61.5073636 3021.24264,60.4999999 3020,60.5 L3017.75,60.5 C3017.33579,60.5 3017,60.1642136 3017,59.75 C3017,59.3357864 3017.33579,59 3017.75,59 L3020,59 C3022.07106,58.9999999 3023.75,60.6789364 3023.75,62.75 L3023.75,64.18934 Z M3020.5,78.4991718 C3019.80909,78.4792779 3019.17349,78.1029754 3018.82528,77.4991202 C3018.61837,77.1402902 3018.74152,76.6816631 3019.10035,76.4747479 C3019.45918,76.2678326 3019.9178,76.3909839 3020.12472,76.7498139 C3020.21698,76.9098107 3020.39005,77.0059312 3020.6,76.9992894 L3021.85,76.9992894 C3022.12619,76.9992894 3022.35,76.7755434 3022.35,76.4996447 C3022.35,76.223746 3022.12619,76 3021.85,76 L3020.6,75.9999982 C3019.49548,76 3018.6,75.1047765 3018.6,74.0003553 C3018.6,72.9294639 3019.44193,72.0552601 3020.5,72.0031668 L3020.5,71.5 C3020.5,71.0857864 3020.83579,70.75 3021.25,70.75 C3021.66421,70.75 3022,71.0857864 3022,71.5 L3022,72.0028937 C3022.67146,72.0390463 3023.28493,72.4116201 3023.62472,73.0008776 C3023.83163,73.3597068 3023.70848,73.8183344 3023.34966,74.0252509 C3022.99083,74.2321674 3022.5322,74.1090177 3022.32528,73.7501884 C3022.23302,73.59019 3022.05995,73.4940687 3021.85,73.5007107 L3020.6,73.5007107 C3020.32381,73.5007107 3020.1,73.724457 3020.1,74.0003553 C3020.1,74.2762538 3020.32381,74.5 3020.6,74.4999982 L3021.85,74.5 C3022.95452,74.5 3023.85,75.3952234 3023.85,76.4996447 C3023.85,77.5536125 3023.03447,78.4170595 3022,78.4937499 L3022,79 C3022,79.4142136 3021.66421,79.75 3021.25,79.75 C3020.83579,79.75 3020.5,79.4142136 3020.5,79 L3020.5,78.4991718 Z M3016.47699,70.4770699 C3019.11303,67.8410269 3023.3869,67.8410265 3026.02293,70.4770699 C3028.65897,73.1131133 3028.65897,77.3869779 3026.02293,80.0230101 C3023.38689,82.6590535 3019.11302,82.6590535 3016.47699,80.0230101 C3013.84095,77.3869667 3013.84095,73.1131021 3016.47699,70.4770699 Z M3024.96227,78.9623488 C3027.01253,76.9121021 3027.01253,73.5879867 3024.96227,71.537729 C3022.91202,69.4874735 3019.58791,69.4874735 3017.53765,71.5377312 C3015.48739,73.5879779 3015.48739,76.9120933 3017.53765,78.962351 C3019.5879,81.0126065 3022.91201,81.0126065 3024.96227,78.9623488 Z M3008.75,62.5 C3008.33579,62.5 3008,62.1642136 3008,61.75 C3008,61.3357864 3008.33579,61 3008.75,61 L3010.75,61 C3011.16421,61 3011.5,61.3357864 3011.5,61.75 C3011.5,62.1642136 3011.16421,62.5 3010.75,62.5 L3008.75,62.5 Z M3008.75,65.5 C3008.33579,65.5 3008,65.1642136 3008,64.75 C3008,64.3357864 3008.33579,64 3008.75,64 L3010.75,64 C3011.16421,64 3011.5,64.3357864 3011.5,64.75 C3011.5,65.1642136 3011.16421,65.5 3010.75,65.5 L3008.75,65.5 Z"/>
    <path d="M3009,72 L3010.5,72 C3010.91421,72 3011.25,72.3357864 3011.25,72.75 L3011.25,74.25 C3011.25,74.6642136 3010.91421,75 3010.5,75 L3009,75 C3008.58579,75 3008.25,74.6642136 3008.25,74.25 L3008.25,72.75 C3008.25,72.3357864 3008.58579,72 3009,72 Z"/>
  </g>
</svg>
