<svg xmlns="http://www.w3.org/2000/svg" width="24" height="24" viewBox="0 0 24 24">
  <path d="M3456.06962,66.5011206 C3455.16223,67.4261446 3453.89813,68 3452.5,68 C3449.73858,68 3447.5,65.7614237 3447.5,63 C3447.5,60.2385763 3449.73858,58 3452.5,58 C3455.26142,58 3457.5,60.2385763 3457.5,63 C3457.5,63.5227722 3457.41977,64.026806 3457.27095,64.5004604 L3457.78571,64.5 C3459.03329,64.5 3460.05449,65.469217 3460.13742,66.6957584 L3460.14286,66.8571429 L3460.14331,69.2819921 C3460.89887,69.6366715 3461.43541,70.3806338 3461.49456,71.2555203 L3461.5,71.4169048 L3461.5,79.65 C3461.5,80.8978376 3460.53055,81.912233 3459.30421,81.9945996 L3459.14286,82 L3444.03571,82 C3442.41751,82 3441.09738,80.7682611 3441.00515,79.1781136 L3441,79 L3441,67.535714 C3441,65.9190139 3442.26379,64.5974861 3443.85734,64.5051533 L3444.03571,64.5 L3445.77657,64.5 C3446.32885,64.5 3446.77657,64.9477153 3446.77657,65.5 C3446.77657,66.0128358 3446.39053,66.4355072 3445.89319,66.4932723 L3445.77657,66.5 L3444.03571,66.5 C3443.50184,66.5 3443.06231,66.9039392 3443.00608,67.4228617 L3443,67.535714 L3443,79 C3443,79.5223219 3443.39314,79.940754 3443.9207,79.9942236 L3444.03571,80 L3459.14286,80 C3459.31807,80 3459.4601,79.8807475 3459.49287,79.7208077 L3459.5,79.65 L3459.5,71.4169048 C3459.5,71.2443159 3459.37758,71.10032 3459.21483,71.0670178 L3459.14286,71.0597619 L3446.99535,71.0586581 C3446.0164,71.1046916 3445.09538,70.5939664 3444.61593,69.7392182 C3444.34575,69.2575368 3444.5172,68.6480264 3444.99888,68.3778386 C3445.44615,68.1269499 3446.00365,68.2568608 3446.29734,68.6623606 L3446.36026,68.7607818 C3446.45372,68.9274095 3446.62097,69.0365513 3446.83663,69.057046 L3446.94838,69.0597619 L3458.142,69.059 L3458.14286,66.8571429 C3458.14286,66.684554 3458.02043,66.5405581 3457.85769,66.5072559 L3457.78571,66.5 L3456.06962,66.5011206 Z M3457,73.5 C3457.51284,73.5 3457.93551,73.8860402 3457.99327,74.3833789 L3458,74.5 L3458,76.5 C3458,77.0522847 3457.55228,77.5 3457,77.5 C3456.48716,77.5 3456.06449,77.1139598 3456.00673,76.6166211 L3456,76.5 L3456,74.5 C3456,73.9477153 3456.44772,73.5 3457,73.5 Z M3452.5,60 C3450.84315,60 3449.5,61.3431458 3449.5,63 C3449.5,64.6568542 3450.84315,66 3452.5,66 C3454.15685,66 3455.5,64.6568542 3455.5,63 C3455.5,61.3431458 3454.15685,60 3452.5,60 Z" transform="translate(-3439 -58)"/>
</svg>
