<svg xmlns="http://www.w3.org/2000/svg" width="24" height="24" viewBox="0 0 24 24">
  <g fill-rule="evenodd" transform="translate(-3004 -58)">
    <path fill-rule="nonzero" d="M3017,58 C3020.45178,58 3023.25,60.7982203 3023.25,64.25 L3023.24481,64.5102436 C3024.26107,64.6103539 3025.0653,65.4324652 3025.13757,66.4566593 L3025.14286,66.6071429 L3025.14217,68.387498 C3025.89131,68.6733341 3026.43584,69.3750417 3026.49471,70.2094938 L3026.5,70.36 L3026.5,79.9 C3026.5,81.0130185 3025.63699,81.9181453 3024.54336,81.9947479 L3024.39286,82 L3008.78571,82 C3007.30138,82 3006.09258,80.8741391 3006.00507,79.4192827 L3006,79.25 L3006,67.285714 L3006.00352,67.1665163 L3006,67 C3006,66.8928758 3006.02246,66.7909972 3006.06293,66.6988159 C3006.33122,65.442304 3007.44842,64.5 3008.78571,64.5 C3009.19993,64.5 3009.53571,64.8357864 3009.53571,65.25 C3009.53571,65.6296958 3009.25356,65.943491 3008.88748,65.9931534 L3008.78571,66 C3008.16439,66 3007.64601,66.4407202 3007.52612,67.026598 L3007.5057,67.1640569 C3007.55839,67.8869476 3007.98202,68.2142967 3009.01716,68.2472208 L3009.19838,68.25 L3012.19707,68.2504108 C3011.28034,67.1503928 3010.75,65.746085 3010.75,64.25 C3010.75,60.7982203 3013.54822,58 3017,58 Z M3007.50051,69.445711 L3007.5,79.25 C3007.5,79.9053999 3007.99622,80.4305578 3008.65244,80.4936424 L3008.78571,80.5 L3024.39286,80.5 C3024.69697,80.5 3024.94547,80.2835056 3024.99212,79.9976517 L3025,79.9 L3025,70.36 C3025,70.0572873 3024.77898,69.8053575 3024.49109,69.7579986 L3024.39286,69.75 L3009.19838,69.75 C3008.53915,69.75 3007.96916,69.6468755 3007.50051,69.445711 Z M3023.00144,65.99875 C3022.76028,66.8276174 3022.35059,67.5932726 3021.80293,68.2504082 L3023.642,68.249 L3023.64286,66.6071429 C3023.64286,66.3053588 3023.42268,66.0550003 3023.1342,66.0079465 L3023.00144,65.99875 Z M3017,59.5 C3014.37665,59.5 3012.25,61.6266474 3012.25,64.25 C3012.25,65.7959978 3012.9942,67.2119992 3014.20959,68.0946811 L3014.437,68.249 L3019.561,68.249 L3019.61191,68.2182205 C3020.93291,67.3475138 3021.75,65.8700005 3021.75,64.25 C3021.75,61.6266474 3019.62335,59.5 3017,59.5 Z M3017,60.5 C3017.3797,60.5 3017.69349,60.7821539 3017.74315,61.1482294 L3017.75,61.25 L3017.75105,61.3510084 C3018.22239,61.4932824 3018.64431,61.780972 3018.95037,62.1828939 C3019.20131,62.5124381 3019.1376,62.9830177 3018.80805,63.233963 C3018.50847,63.462095 3018.09232,63.4301756 3017.8306,63.1748953 L3017.75698,63.091647 C3017.58564,62.8666302 3017.31471,62.739251 3017.00109,62.7513275 C3016.54706,62.7513275 3016.25,62.9737074 3016.25,63.1256747 C3016.25,63.2627358 3016.49084,63.4568969 3016.8698,63.4943585 L3017.00109,63.5007488 C3018.20435,63.5007488 3019.25,64.2847617 3019.25,65.3743692 C3019.25,66.2325675 3018.60021,66.9014537 3017.75065,67.1467181 L3017.75,67.25 C3017.75,67.6642136 3017.41421,68 3017,68 C3016.6203,68 3016.30651,67.7178461 3016.25685,67.3517706 L3016.25,67.25 L3016.25016,67.1493588 C3015.7783,67.0072711 3015.35582,66.7196066 3015.04922,66.3175717 C3014.79805,65.988205 3014.86143,65.5175805 3015.1908,65.2664023 C3015.49022,65.0380584 3015.90639,65.0696836 3016.16829,65.3247788 L3016.24197,65.407975 C3016.41365,65.6330997 3016.68479,65.7605842 3016.99818,65.7487165 C3017.45248,65.7487165 3017.75,65.5259681 3017.75,65.3743692 C3017.75,65.2223813 3017.4544,65.0007488 3017.00109,65.0007488 C3015.79752,65.0007488 3014.75,64.2158616 3014.75,63.1256747 C3014.75,62.2667035 3015.40019,61.5977561 3016.24989,61.3529098 L3016.25,61.25 C3016.25,60.8357864 3016.58579,60.5 3017,60.5 Z"/>
    <circle cx="3022.5" cy="75" r="1"/>
  </g>
</svg>
