<?xml version="1.0" encoding="UTF-8"?>
<svg width="24px" height="24px" viewBox="0 0 24 24" version="1.1" xmlns="http://www.w3.org/2000/svg" xmlns:xlink="http://www.w3.org/1999/xlink">
    <title>money-new-g</title>
    <g id="Icons" stroke="none" stroke-width="1" fill="none" fill-rule="evenodd">
        <g transform="translate(-3467.000000, -58.000000)" fill="#000000" fill-rule="nonzero" id="Shape">
            <path d="M3480.5,63.5 C3485.19442,63.5 3489,67.3055796 3489,72 C3489,76.6944204 3485.19442,80.5 3480.5,80.5 C3475.80558,80.5 3472,76.6944204 3472,72 C3472,67.3055796 3475.80558,63.5 3480.5,63.5 Z M3480.5,65.5 C3476.91015,65.5 3474,68.4101491 3474,72 C3474,75.5898509 3476.91015,78.5 3480.5,78.5 C3484.08985,78.5 3487,75.5898509 3487,72 C3487,68.4101491 3484.08985,65.5 3480.5,65.5 Z M3480.5,67 C3481.01284,67 3481.43551,67.3860402 3481.49327,67.8833789 L3481.5,68 L3481.50067,68.1344559 C3482.12941,68.3240772 3482.69225,68.7077537 3483.10049,69.2438586 C3483.43509,69.6832508 3483.35013,70.3106903 3482.91074,70.645284 C3482.50514,70.9541397 3481.93932,70.9055092 3481.59151,70.5506062 L3481.50931,70.4555294 C3481.28085,70.155507 3480.91962,69.9856679 3480.50146,70.00177 C3479.89608,70.00177 3479.5,70.2982765 3479.5,70.5008996 C3479.5,70.687032 3479.83312,70.9521435 3480.35466,70.9950362 L3480.50146,71.0009984 C3482.10579,71.0009984 3483.5,72.046349 3483.5,73.499159 C3483.5,74.6433785 3482.63368,75.5352018 3481.501,75.8622523 L3481.5,76 C3481.5,76.5522847 3481.05228,77 3480.5,77 C3479.98716,77 3479.56449,76.6139598 3479.50673,76.1166211 L3479.5,76 L3479.5003,75.8658347 C3478.87111,75.6763924 3478.30778,75.2928303 3477.89897,74.7567623 C3477.56406,74.3176067 3477.64857,73.6901073 3478.08773,73.355203 C3478.4931,73.0460606 3479.05896,73.094291 3479.40703,73.448948 L3479.48929,73.5439666 C3479.7182,73.844133 3480.07973,74.0141123 3480.49757,73.9982886 C3481.10331,73.9982886 3481.5,73.7012908 3481.5,73.499159 C3481.5,73.2965085 3481.10587,73.0009984 3480.50146,73.0009984 C3478.8967,73.0009984 3477.5,71.9544822 3477.5,70.5008996 C3477.5,69.3555742 3478.36697,68.4636273 3479.49994,68.137187 L3479.5,68 C3479.5,67.4477153 3479.94772,67 3480.5,67 Z M3475.94365,58 C3477.94382,58 3479.82081,58.7938975 3481.20711,60.1801948 C3481.59763,60.5707191 3481.59763,61.2038841 3481.20711,61.5944084 C3480.81658,61.9849327 3480.18342,61.9849327 3479.79289,61.5944084 C3478.77795,60.5794656 3477.40794,60 3475.94365,60 C3472.93721,60 3470.5,62.4372055 3470.5,65.4436508 C3470.5,66.1690143 3470.6414,66.8729429 3470.91264,67.5270576 C3471.12418,68.0372212 3470.8821,68.6222821 3470.37194,68.8338277 C3469.86178,69.0453732 3469.27672,68.8032955 3469.06517,68.2931318 C3468.69367,67.39722 3468.5,66.4330759 3468.5,65.4436508 C3468.5,61.332636 3471.83264,58 3475.94365,58 Z"></path>
        </g>
    </g>
</svg>