<svg xmlns="http://www.w3.org/2000/svg" width="24" height="24" viewBox="0 0 24 24">
  <path d="M3487.45486,70.0938687 C3487.91036,70.9103406 3488.22093,71.8045974 3488.37005,72.7461169 C3489.06273,77.1195274 3486.07891,81.2264053 3481.7055,81.9190855 C3478.41023,82.441005 3475.17331,80.8711055 3473.52148,78.0361407 C3473.24344,77.5589499 3473.40488,76.9467127 3473.88207,76.6686706 C3474.35926,76.3906285 3474.9715,76.5520705 3475.24954,77.0292613 C3476.48933,79.1570612 3478.91907,80.3354815 3481.39263,79.9437088 C3484.67507,79.4238214 3486.91456,76.3414259 3486.39467,73.0589859 C3486.28247,72.3505718 3486.04964,71.6801456 3485.70828,71.068273 C3485.4392,70.5859687 3485.61206,69.976856 3486.09437,69.7077816 C3486.57667,69.4387073 3487.18578,69.6115644 3487.45486,70.0938687 Z M3479.79086,59.149885 C3480.26949,59.42545 3480.4341,60.0368422 3480.15854,60.5154677 C3479.88297,60.9940932 3479.27158,61.1587063 3478.79295,60.8831413 C3476.1581,59.3661421 3472.78625,59.882628 3470.72497,62.1719201 C3468.32289,64.8396992 3468.53828,68.9496313 3471.20606,71.3517104 C3473.87384,73.7537895 3477.98377,73.5383971 3480.38585,70.870618 C3481.17204,69.9974676 3481.69485,68.9516377 3481.92415,67.8268961 C3482.03448,67.2857431 3482.56261,66.936489 3483.10376,67.0468153 C3483.64491,67.1571415 3483.99417,67.6852698 3483.88384,68.2264228 C3483.58375,69.6983509 3482.89866,71.0688106 3481.87214,72.2088792 C3478.73096,75.6975134 3473.35643,75.9791804 3469.8678,72.838 C3466.37916,69.6968197 3466.0975,64.3222931 3469.23868,60.8336589 C3471.93443,57.8397263 3476.3425,57.1645147 3479.79086,59.149885 Z M3475.5,61.5 C3476.01284,61.5 3476.43551,61.8860402 3476.49327,62.3833789 L3476.5,62.5 L3476.49984,62.6342084 C3477.12892,62.8237432 3477.69207,63.2075203 3478.10049,63.7438586 C3478.43509,64.1832508 3478.35013,64.8106903 3477.91074,65.145284 C3477.50514,65.4541397 3476.93932,65.4055092 3476.59151,65.0506062 L3476.50931,64.9555294 C3476.28085,64.655507 3475.91962,64.4856679 3475.50146,64.50177 C3474.89608,64.50177 3474.5,64.7982765 3474.5,65.0008996 C3474.5,65.187032 3474.83312,65.4521435 3475.35466,65.4950362 L3475.50146,65.5009984 C3477.10579,65.5009984 3478.5,66.546349 3478.5,67.999159 C3478.5,69.1435279 3477.63346,70.0354347 3476.50056,70.3623804 L3476.5,70.5 C3476.5,71.0522847 3476.05228,71.5 3475.5,71.5 C3474.98716,71.5 3474.56449,71.1139598 3474.50673,70.6166211 L3474.5,70.5 L3474.49929,70.3655315 C3473.87051,70.1759834 3473.30756,69.7925446 3472.89897,69.2567623 C3472.56406,68.8176067 3472.64857,68.1901073 3473.08773,67.855203 C3473.4931,67.5460606 3474.05896,67.594291 3474.40703,67.948948 L3474.48929,68.0439666 C3474.7182,68.344133 3475.07973,68.5141123 3475.49757,68.4982886 C3476.10331,68.4982886 3476.5,68.2012908 3476.5,67.999159 C3476.5,67.7965085 3476.10587,67.5009984 3475.50146,67.5009984 C3473.8967,67.5009984 3472.5,66.4544822 3472.5,65.0008996 C3472.5,63.855758 3473.36669,62.9639135 3474.4994,62.6373443 L3474.5,62.5 C3474.5,61.9477153 3474.94772,61.5 3475.5,61.5 Z M3486.71428,58.7168813 C3486.7053,61.1070865 3487.79299,62.2379068 3490.29939,62.2859221 C3491.24427,62.3040233 3491.22811,63.7178667 3490.28306,63.7143564 C3487.94807,63.7056834 3486.83763,64.8376424 3486.71339,67.3214713 C3486.6672,68.2449941 3485.29411,68.216892 3485.28574,67.2922524 C3485.26357,64.8428554 3484.22026,63.7143614 3481.71429,63.7143614 C3480.76841,63.7143614 3480.75871,62.2988249 3481.7045,62.2858582 C3484.14872,62.2523478 3485.27709,61.1621537 3485.28571,58.7118492 C3485.28936,57.7592634 3486.71763,57.764507 3486.71428,58.7168813 Z" transform="translate(-3467 -58)"/>
</svg>
