<?xml version="1.0" encoding="UTF-8"?>
<svg width="24" height="24" viewBox="0 0 24 24" version="1.1" xmlns="http://www.w3.org/2000/svg"
  xmlns:xlink="http://www.w3.org/1999/xlink">
  <title>no-mic-g</title>
  <g id="Icons" stroke="none" stroke-width="1" fill="none" fill-rule="evenodd">
    <g fill="#000000" fill-rule="nonzero" id="Shape">
      <rect x="7.09082" y="21" width="9.81818" height="1" rx="0.5" />
      <rect x="11.4541" y="22" width="4" height="1.09091" rx="0.545455" transform="rotate(-90 11.4541 22)" />
      <path fill-rule="evenodd" clip-rule="evenodd"
        d="M8.39339 14.4326C8.91134 15.927 10.3314 17 12.002 17C14.1108 17 15.8203 15.2905 15.8203 13.1817L15.8203 7.81827C15.8203 7.56487 15.7956 7.31724 15.7485 7.07765L8.39339 14.4326ZM8.18378 11.2L14.475 4.90895C13.8088 4.34208 12.9454 4 12.002 4C9.89327 4 8.18378 5.7095 8.18378 7.81827L8.18378 11.2Z" />
      <path fill-rule="evenodd" clip-rule="evenodd"
        d="M5.99958 13.4878C6.00024 13.2105 6.23535 13 6.51259 13L6.61923 13C6.8243 13 6.99278 13.1382 7.05957 13.3234L17.4882 2.89493C17.6835 2.69967 18.0001 2.69967 18.1954 2.89493C18.3906 3.09019 18.3906 3.40677 18.1954 3.60203L7.22947 14.5677C7.75237 16.5376 9.68965 18 11.9996 18C14.7108 18 16.9087 15.9853 16.9087 13.5C16.9087 13.2335 17.1134 13 17.3799 13L17.4865 13C17.7638 13 17.9989 13.2105 17.9995 13.4878L17.9996 13.5C17.9996 16.5376 15.3133 19 11.9996 19C9.42312 19 7.22597 17.5114 6.37582 15.4213L5.27606 16.521C5.08079 16.7163 4.76421 16.7163 4.56894 16.521C4.37368 16.3258 4.37368 16.0092 4.56894 15.8139L6.06539 14.3175C6.02203 14.0508 5.99956 13.7778 5.99956 13.5L5.99958 13.4878Z" />
    </g>
  </g>
</svg>