<svg width="24" height="24" viewBox="0 0 24 24" xmlns="http://www.w3.org/2000/svg"><path d="M3707.83333,60 C3709.79305,60 3711.39369,61.5374233 3711.49492,63.4719342 L3711.5,63.6666667 L3711.5,72.396 C3711.5,73.2931521 3711.17083,74.156747 3710.5795,74.8250602 L3710.42624,74.9879765 L3705.48821,79.9268888 C3704.85316,80.5615342 3704.00937,80.939269 3703.11867,80.9932801 L3702.89511,81 L3694.16667,81 C3692.20695,81 3690.60631,79.4625765 3690.50508,77.5280655 L3690.5,77.333333 L3690.5,63.6666663 C3690.5,61.7069501 3692.03742,60.1063103 3693.97193,60.0050825 L3694.16667,60 L3707.83333,60 Z M3707.83333,62 L3694.16667,62 C3693.29464,62 3692.57903,62.6697159 3692.50612,63.5228605 L3692.5,63.6666663 L3692.5,77.333333 C3692.5,78.2053581 3693.16972,78.9209703 3694.02286,78.9938823 L3694.16667,79 L3701.833,79 L3701.83333,74.6666663 C3701.83333,72.7069501 3703.37076,71.1063103 3705.30527,71.0050825 L3705.5,71 L3709.5,70.999 L3709.5,63.6666667 C3709.5,62.7946417 3708.83028,62.0790297 3707.97714,62.0061177 L3707.83333,62 Z M3709.3866,72.9997737 L3705.5,73 C3704.62798,73 3703.91236,73.6697159 3703.83945,74.5228605 L3703.83333,74.6666663 L3703.83382,78.7113788 L3703.95825,78.6179314 L3704.07416,78.5125119 L3709.01192,73.5738716 C3709.17684,73.408929 3709.30363,73.2129681 3709.3866,72.9997737 Z M3699,69 C3699.55228,69 3700,69.4477153 3700,70 C3700,70.5128358 3699.61396,70.9355072 3699.11662,70.9932723 L3699,71 L3696.5,71 C3695.94772,71 3695.5,70.5522847 3695.5,70 C3695.5,69.4871642 3695.88604,69.0644928 3696.38338,69.0067277 L3696.5,69 L3699,69 Z M3704,65 C3704.55228,65 3705,65.4477153 3705,66 C3705,66.5128358 3704.61396,66.9355072 3704.11662,66.9932723 L3704,67 L3696.5,67 C3695.94772,67 3695.5,66.5522847 3695.5,66 C3695.5,65.4871642 3695.88604,65.0644928 3696.38338,65.0067277 L3696.5,65 L3704,65 Z" transform="translate(-3689 -58)"/></svg>