<?xml version="1.0" encoding="UTF-8"?>
<svg width="25px" height="24px" viewBox="0 0 25 24" version="1.1" xmlns="http://www.w3.org/2000/svg" xmlns:xlink="http://www.w3.org/1999/xlink">
    <title>notification-bold-g</title>
    <g id="Icons" stroke="none" stroke-width="1" fill="none" fill-rule="evenodd">
        <g transform="translate(-3716.000000, -30.000000)" fill="#000000" id="Shape">
            <path d="M3728.41593,33.5 C3728.69208,33.5 3728.91593,33.7238576 3728.91593,34 L3728.91593,34.5403025 L3728.90578,34.7299155 C3728.89102,34.9244541 3728.86412,35.0933049 3728.82954,35.2268832 L3728.79533,35.3439103 L3728.68926,35.4394745 L3728.56776,35.5611992 C3726.89088,37.3428919 3727.98213,40.6797913 3730.35783,41.1050293 C3730.78594,41.2596806 3731.03904,41.5845581 3731.11712,42.0796618 C3731.61316,43.9393608 3732.65201,44.5156625 3734.50044,44.5156625 L3735,44.5156625 C3735.27614,44.5156625 3735.5,44.7395201 3735.5,45.0156625 L3735.5,47 C3735.5,49.4852814 3733.48528,51.5 3731,51.5 L3722,51.5 C3719.51472,51.5 3717.5,49.4852814 3717.5,47 L3717.5,38 C3717.5,35.5147186 3719.51472,33.5 3722,33.5 L3728.41593,33.5 Z M3729.5,44.5 L3723,44.5 L3722.88338,44.5067277 C3722.38604,44.5644928 3722,44.9871642 3722,45.5 C3722,46.0128358 3722.38604,46.4355072 3722.88338,46.4932723 L3723,46.5 L3729.5,46.5 L3729.61662,46.4932723 C3730.11396,46.4355072 3730.5,46.0128358 3730.5,45.5 C3730.5,44.9477153 3730.05229,44.5 3729.5,44.5 Z M3736.25223,40.5008848 L3736.27281,40.5035326 C3736.39572,40.5246813 3736.48639,40.6348836 3736.5,40.7660049 L3736.49856,40.8466429 L3736.46509,41.0341486 C3736.24961,42.0189418 3735.45175,42.75 3734.50044,42.75 C3733.5511,42.75 3732.75457,42.0137717 3732.53713,41.0303199 L3732.50081,40.8201049 L3732.5,40.7969235 C3732.5,40.6602735 3732.58296,40.5451846 3732.69589,40.5106108 L3732.76682,40.5 L3736.25223,40.5008848 Z M3725.5,40.5 L3723,40.5 L3722.88338,40.5067277 C3722.38604,40.5644928 3722,40.9871642 3722,41.5 C3722,42.0128358 3722.38604,42.4355072 3722.88338,42.4932723 L3723,42.5 L3725.5,42.5 L3725.61662,42.4932723 C3726.11396,42.4355072 3726.5,42.0128358 3726.5,41.5 C3726.5,40.9477153 3726.05229,40.5 3725.5,40.5 Z M3734.51289,30.5 C3736.51981,30.5 3738.10633,32.236784 3738.10633,34.3324365 C3738.10633,35.8009699 3738.30699,36.3458247 3738.8022,36.7350679 C3739.62627,37.3828029 3739.21168,39.0224091 3738.26706,39.1429729 L3738.15576,39.1499999 L3730.87003,39.1499999 C3729.95946,39.1499999 3729.3641,37.5693444 3730.06399,36.8931875 L3730.23219,36.7509943 C3730.57752,36.4316471 3730.8378,35.7893184 3730.90328,34.8278882 L3730.91552,34.5808849 L3730.92449,34.1391484 C3731.02464,32.2128317 3732.6078,30.5 3734.51289,30.5 Z"></path>
        </g>
    </g>
</svg>