<svg width="23" height="26" viewBox="0 0 23 26" fill="none" xmlns="http://www.w3.org/2000/svg">
<path d="M18.25 13.75C18.6295 13.7502 18.9435 14.0325 18.9932 14.3984L19 14.5L18.999 21.7842C18.9432 23.0085 17.9488 23.9688 16.7686 24.001L16.6133 24L4.41602 23.999L3.23145 24.0039C3.28086 24.0486 3.35029 24.111 3.42578 24.1797L3.44043 24.1934C3.60755 24.3455 3.80239 24.5229 3.88672 24.5967C3.91616 24.6224 3.92687 24.6316 3.93652 24.6406L3.9541 24.6572C3.976 24.6786 4.01976 24.7219 4.15234 24.8467C4.61327 25.2998 4.13281 25.7412 4.13281 25.7412C3.56341 26.1553 3.13595 25.6551 3.13281 25.6514C2.62622 25.1799 1.42261 24.063 0.957031 23.6318C0.491895 23.2009 0.763065 22.7935 0.957031 22.6436L3.26172 20.499C3.42967 20.3727 3.8508 20.214 4.19141 20.5889C4.53202 20.9639 4.26823 21.3467 4.09375 21.4912L3.02344 22.5039L4.41602 22.5L16.6445 22.501C17.0622 22.5181 17.4198 22.2204 17.4883 21.8457L17.5 21.75V14.5C17.5 14.0859 17.8359 13.7502 18.25 13.75ZM14.25 18C14.6641 18.0001 15 18.3358 15 18.75C15 19.1297 14.7176 19.4435 14.3516 19.4932L14.25 19.5H6.75C6.33579 19.5 6 19.1642 6 18.75C6 18.3703 6.28236 18.0565 6.64844 18.0068L6.75 18H14.25ZM4.38574 2.5H9.25C9.66406 2.50017 10 2.8359 10 3.25C10 3.62967 9.71761 3.94347 9.35156 3.99316L9.25 4L4.35449 3.99902C3.93697 3.98206 3.57918 4.27964 3.51074 4.6543L3.5 4.75L3.49902 17.7461C3.49892 18.16 3.16297 18.4951 2.74902 18.4951C2.33529 18.4949 2.0001 18.1599 2 17.7461V4.71582C2.05585 3.49154 3.05026 2.53132 4.23047 2.49902L4.38574 2.5ZM10.75 14.5C11.1641 14.5001 11.5 14.8358 11.5 15.25C11.5 15.6297 11.2176 15.9435 10.8516 15.9932L10.75 16H6.75C6.33579 16 6 15.6642 6 15.25C6 14.8703 6.28236 14.5565 6.64844 14.5068L6.75 14.5H10.75ZM9.25 11C9.66414 11.0001 10 11.3358 10 11.75C10 12.1297 9.71764 12.4435 9.35156 12.4932L9.25 12.5H6.75C6.33579 12.5 6 12.1642 6 11.75C6 11.3703 6.28236 11.0565 6.64844 11.0068L6.75 11H9.25ZM17.7861 9.66406C18.1096 9.4054 18.5821 9.45784 18.8408 9.78125C19.0995 10.1047 19.0471 10.5772 18.7236 10.8359C18.1817 11.2695 17.6045 11.5 17.0049 11.5C16.4053 11.5 15.8281 11.2695 15.2861 10.8359C14.9627 10.5772 14.9102 10.1047 15.1689 9.78125C15.4277 9.45782 15.9002 9.40536 16.2236 9.66406C16.515 9.89714 16.7712 10 17.0049 10C17.2385 9.99995 17.4949 9.89708 17.7861 9.66406ZM17.0449 0C19.2486 6.2087e-05 21.0409 1.75686 21.041 3.93164V6.47754C21.0412 6.76266 21.2837 6.99993 21.5898 7L21.71 7.00781C22.5497 7.11794 22.5497 8.38206 21.71 8.49219L21.5898 8.5H12.5L12.3799 8.49219C11.5016 8.37725 11.5417 7 12.5 7L12.5898 6.99316C12.8523 6.95211 13.0487 6.73414 13.0488 6.47754V3.93164C13.0489 1.75682 14.8412 0 17.0449 0ZM17.0449 1.5C15.6629 1.5 14.5489 2.59208 14.5488 3.93164V6.47754C14.5488 6.63025 14.5314 6.77901 14.499 6.92188L14.4775 7H19.6113L19.5908 6.92188C19.5692 6.82665 19.5544 6.72876 19.5469 6.62891L19.541 6.47754V3.93164C19.5409 2.59211 18.4269 1.50006 17.0449 1.5Z" fill="black"/>
</svg>
