<svg width="25" height="24" viewBox="0 0 25 24" xmlns="http://www.w3.org/2000/svg"><g transform="translate(-3030 -74)"><path d="M3036.23106,76.4988835 L3036.386,76.5 L3041.25,76.5000062 C3041.66421,76.5000067 3042,76.8357936 3042,77.2500071 C3042,77.6297029 3041.71785,77.9434977 3041.35177,77.9931597 L3041.25,78.0000062 L3036.35518,77.9993666 C3035.9373,77.9821815 3035.57914,78.2797676 3035.51089,78.6547731 L3035.5,78.75 L3035.49922,95.7158275 C3035.51828,96.1336303 3035.84575,96.4646767 3036.27633,96.4979948 L3036.386,96.4999996 L3048.64482,96.5006329 C3049.0627,96.5178181 3049.42086,96.220232 3049.48911,95.8452265 L3049.5,95.7499995 L3049.5,88.5 C3049.5,88.0857864 3049.83579,87.75 3050.25,87.75 C3050.6297,87.75 3050.94349,88.0321539 3050.99315,88.3982294 L3051,88.5 L3050.99922,95.7841742 C3050.94337,97.0085102 3049.94922,97.9689019 3048.76894,98.0011161 L3048.614,97.9999996 L3036.41681,97.9993663 C3035.19224,98.0497213 3034.14939,97.1424435 3034.01264,95.9122404 L3034,95.75 L3034.00078,78.7158254 C3034.05663,77.4914894 3035.05078,76.5310978 3036.23106,76.4988835 Z M3046.25,92 C3046.66421,92 3047,92.3357864 3047,92.75 C3047,93.1296958 3046.71785,93.443491 3046.35177,93.4931534 L3046.25,93.5 L3038.75,93.5 C3038.33579,93.5 3038,93.1642136 3038,92.75 C3038,92.3703042 3038.28215,92.056509 3038.64823,92.0068466 L3038.75,92 L3046.25,92 Z M3042.75,88.5 C3043.16421,88.5 3043.5,88.8357864 3043.5,89.25 C3043.5,89.6296958 3043.21785,89.943491 3042.85177,89.9931534 L3042.75,90 L3038.75,90 C3038.33579,90 3038,89.6642136 3038,89.25 C3038,88.8703042 3038.28215,88.556509 3038.64823,88.5068466 L3038.75,88.5 L3042.75,88.5 Z M3041.25,85 C3041.66421,85 3042,85.3357864 3042,85.75 C3042,86.1296958 3041.71785,86.443491 3041.35177,86.4931534 L3041.25,86.5 L3038.75,86.5 C3038.33579,86.5 3038,86.1642136 3038,85.75 C3038,85.3703042 3038.28215,85.056509 3038.64823,85.0068466 L3038.75,85 L3041.25,85 Z M3050.84065,83.7815063 C3051.09941,84.1049528 3051.04697,84.5769221 3050.72352,84.8356792 C3050.18153,85.2692715 3049.60464,85.5000276 3049.005,85.5000276 C3048.40536,85.5000276 3047.82847,85.2692715 3047.28648,84.8356792 C3046.96303,84.5769221 3046.91059,84.1049528 3047.16935,83.7815063 C3047.42811,83.4580599 3047.90007,83.4056188 3048.22352,83.664376 C3048.51486,83.8974504 3048.77131,84.0000276 3049.005,84.0000276 C3049.23869,84.0000276 3049.49514,83.8974504 3049.78648,83.664376 C3050.10993,83.4056188 3050.58189,83.4580599 3050.84065,83.7815063 Z"/><path d="M3044.38021,82.4924045 L3044.5,82.5 L3053.59,82.5 L3053.70979,82.4924045 C3054.55007,82.3825955 3054.55007,81.1174045 3053.70979,81.0075955 L3053.59,81 C3053.2837,81 3053.04143,80.7625548 3053.04143,80.4772729 L3053.04143,77.9318182 C3053.04143,75.756921 3051.24883,74 3049.045,74 C3046.84117,74 3045.04857,75.7569214 3045.04857,77.9318183 L3045.04857,80.4772727 C3045.04857,80.7340266 3044.85234,80.9520326 3044.58979,80.9930663 L3044.5,81 C3043.54167,81 3043.50174,82.3776042 3044.38021,82.4924045 Z M3049.045,75.5 C3050.42708,75.5 3051.54143,76.5921724 3051.54143,77.9318182 L3051.54143,80.4772728 L3051.54707,80.6286552 C3051.55454,80.728589 3051.56935,80.8264614 3051.59097,80.9217587 L3051.611,81 L3046.478,81 L3046.49903,80.9217586 C3046.53145,80.7788127 3046.54857,80.6300727 3046.54857,80.4772727 L3046.54857,77.9318182 C3046.54857,76.5921726 3047.66292,75.5 3049.045,75.5 Z"/></g></svg>