<svg width="20" height="25" viewBox="0 0 20 25" fill="none" xmlns="http://www.w3.org/2000/svg">
<path d="M14.5408 16.4453C14.955 16.4453 15.2908 16.7811 15.2908 17.1953C15.2908 17.575 15.0086 17.8888 14.6426 17.9385L14.5408 17.9453H7.04076C6.62655 17.9453 6.29076 17.6095 6.29076 17.1953C6.29076 16.8156 6.57287 16.5018 6.93895 16.4522L7.04076 16.4453H14.5408ZM11.0408 12.9453C11.455 12.9453 11.7908 13.2811 11.7908 13.6953C11.7908 14.075 11.5086 14.3888 11.1426 14.4385L11.0408 14.4453H7.04076C6.62655 14.4453 6.29076 14.1095 6.29076 13.6953C6.29076 13.3156 6.57287 13.0018 6.93895 12.9522L7.04076 12.9453H11.0408ZM9.54076 9.44534C9.95497 9.44534 10.2908 9.78112 10.2908 10.1953C10.2908 10.575 10.0086 10.8888 9.64256 10.9385L9.54076 10.9453H7.04076C6.62655 10.9453 6.29076 10.6095 6.29076 10.1953C6.29076 9.81564 6.57287 9.50184 6.93895 9.45218L7.04076 9.44534H9.54076Z" fill="black"/>
<path fill-rule="evenodd" clip-rule="evenodd" d="M4.2002 23.099L4.18296 23.0824C4.18793 23.0871 4.19283 23.0918 4.2002 23.099Z" fill="black"/>
<path fill-rule="evenodd" clip-rule="evenodd" d="M3.79066 3.19533L3.80165 3.1001C3.8699 2.72509 4.228 2.42751 4.64588 2.44469C4.64588 2.44469 15.9394 2.44469 16.8295 2.44469C17.7197 2.44469 17.8186 2.80796 17.8035 3.16116C17.7885 3.51435 17.7908 20.1952 17.7908 20.1952L17.7798 20.2904C17.7115 20.6654 17.3534 20.963 16.9355 20.9458H3.25417L4.3401 19.9326C4.51458 19.7881 4.77838 19.4053 4.43776 19.0303C4.09713 18.6553 3.67604 18.8141 3.50807 18.9404L1.20338 21.0849C1.00937 21.2347 0.73776 21.642 1.20338 22.0732C1.66901 22.5045 2.87265 23.6214 3.37915 24.0928C3.37915 24.0928 3.80747 24.5987 4.37915 24.1826C4.37915 24.1826 4.85962 23.7412 4.39868 23.2881C4.26598 23.1632 4.22211 23.1204 4.2002 23.099L4.18296 23.0824C4.1732 23.0732 4.16311 23.0644 4.13329 23.0383C4.04917 22.9647 3.85416 22.7872 3.68677 22.6348L3.67204 22.6214C3.59643 22.5526 3.52747 22.4899 3.478 22.4452H16.9048L17.0598 22.4463C18.2401 22.4141 19.2342 21.4537 19.29 20.2293V3.1001C19.29 1.87801 18.8542 0.94545 16.985 0.945455C15.9284 0.945457 4.67665 0.945328 4.67665 0.945328L4.52162 0.944214C3.34134 0.976428 2.34724 1.93682 2.29139 3.16116L2.29079 16.2384C2.29077 16.6251 2.60417 16.9385 2.99079 16.9385H3.09005C3.47664 16.9385 3.79004 16.6251 3.79005 16.2385L3.79066 3.19533Z" fill="black"/>
</svg>
