<svg width="25" height="24" viewBox="0 0 25 24" xmlns="http://www.w3.org/2000/svg"><path d="M3036.23106,76.4988835 L3036.386,76.5 L3041.25,76.5000062 C3041.66421,76.5000067 3042,76.8357936 3042,77.2500071 C3042,77.6297029 3041.71785,77.9434977 3041.35177,77.9931597 L3041.25,78.0000062 L3036.35518,77.9993666 C3035.9373,77.9821815 3035.57914,78.2797676 3035.51089,78.6547731 L3035.5,78.75 L3035.49922,95.7158275 C3035.51828,96.1336303 3035.84575,96.4646767 3036.27633,96.4979948 L3036.386,96.4999996 L3048.64482,96.5006329 C3049.0627,96.5178181 3049.42086,96.220232 3049.48911,95.8452265 L3049.5,95.7499995 L3049.5,88.5 C3049.5,88.0857864 3049.83579,87.75 3050.25,87.75 C3050.6297,87.75 3050.94349,88.0321539 3050.99315,88.3982294 L3051,88.5 L3050.99922,95.7841742 C3050.94337,97.0085102 3049.94922,97.9689019 3048.76894,98.0011161 L3048.614,97.9999996 L3036.41681,97.9993663 C3035.19224,98.0497213 3034.14939,97.1424435 3034.01264,95.9122404 L3034,95.75 L3034.00078,78.7158254 C3034.05663,77.4914894 3035.05078,76.5310978 3036.23106,76.4988835 Z M3046.25,92 C3046.66421,92 3047,92.3357864 3047,92.75 C3047,93.1296958 3046.71785,93.443491 3046.35177,93.4931534 L3046.25,93.5 L3038.75,93.5 C3038.33579,93.5 3038,93.1642136 3038,92.75 C3038,92.3703042 3038.28215,92.056509 3038.64823,92.0068466 L3038.75,92 L3046.25,92 Z M3042.75,88.5 C3043.16421,88.5 3043.5,88.8357864 3043.5,89.25 C3043.5,89.6296958 3043.21785,89.943491 3042.85177,89.9931534 L3042.75,90 L3038.75,90 C3038.33579,90 3038,89.6642136 3038,89.25 C3038,88.8703042 3038.28215,88.556509 3038.64823,88.5068466 L3038.75,88.5 L3042.75,88.5 Z M3041.25,85 C3041.66421,85 3042,85.3357864 3042,85.75 C3042,86.1296958 3041.71785,86.443491 3041.35177,86.4931534 L3041.25,86.5 L3038.75,86.5 C3038.33579,86.5 3038,86.1642136 3038,85.75 C3038,85.3703042 3038.28215,85.056509 3038.64823,85.0068466 L3038.75,85 L3041.25,85 Z M3050.84065,83.5315063 C3051.09941,83.8549528 3051.04697,84.3269221 3050.72352,84.5856792 C3050.18153,85.0192715 3049.60464,85.2500276 3049.005,85.2500276 C3048.40536,85.2500276 3047.82847,85.0192715 3047.28648,84.5856792 C3046.96303,84.3269221 3046.91059,83.8549528 3047.16935,83.5315063 C3047.42811,83.2080599 3047.90007,83.1556188 3048.22352,83.414376 C3048.51486,83.6474504 3048.77131,83.7500276 3049.005,83.7500276 C3049.23869,83.7500276 3049.49514,83.6474504 3049.78648,83.414376 C3050.10993,83.1556188 3050.58189,83.2080599 3050.84065,83.5315063 Z M3048.995,74 C3051.13205,74 3052.89047,75.6520543 3052.99508,77.735289 L3053,77.9318182 L3053,79.9772729 C3053,80.2340266 3053.18929,80.4520326 3053.45045,80.4930663 L3053.65979,80.5075955 C3054.46188,80.6124132 3054.49833,81.7699653 3053.76917,81.9704861 L3053.65979,81.9924045 L3053.54,82 L3044.45,82 L3044.33021,81.9924045 C3043.48993,81.8825955 3043.48993,80.6174045 3044.33021,80.5075955 L3044.53979,80.4930663 C3044.77316,80.4565919 3044.95414,80.2802875 3044.99148,80.0612326 L3044.99857,79.9772727 L3044.99857,77.9318183 C3044.99857,75.7569214 3046.79117,74 3048.995,74 Z M3048.995,75.5 C3047.6682,75.5 3046.58815,76.5065463 3046.50387,77.7723026 L3046.49857,77.9318182 L3046.49857,79.9772727 C3046.49857,80.0791394 3046.49096,80.1792016 3046.47628,80.2769456 L3046.44903,80.4217586 L3046.428,80.5 L3051.561,80.5 L3051.54097,80.4217587 L3051.51372,80.2769456 L3051.49707,80.1286552 L3051.5,79.9772728 L3051.5,77.9318182 C3051.5,76.5921724 3050.37708,75.5 3048.995,75.5 Z" transform="translate(-3030 -74)"/></svg>