<svg width="24" height="25" viewBox="0 0 24 25" fill="none" xmlns="http://www.w3.org/2000/svg">
<path d="M19.4088 16.9072L19.4148 16.6392C19.4274 16.0826 18.9803 15.6228 18.4235 15.6167C17.8669 15.6105 17.4098 16.0599 17.4098 16.6166V17.1865C17.2658 19.081 16.2385 19.9131 13.8908 19.8662H4.04317L5.74616 18.4404C6.14913 18.1008 6.14932 17.5494 5.74616 17.2099C5.34299 16.8706 4.68842 16.8706 4.28523 17.2099L0.745188 20.1913C0.341981 20.5309 0.342054 21.0822 0.745188 21.4218L4.28523 24.4033C4.68846 24.7428 5.34292 24.7428 5.74616 24.4033C6.14914 24.0637 6.14932 23.5123 5.74616 23.1728L4.32833 21.8935L14.7541 21.8506C17.2893 21.8506 19.4558 19.8994 19.4088 16.9072Z" fill="black"/>
<path d="M10.4475 5.86667C11.0081 5.86426 11.4571 5.39895 11.4428 4.83853C11.4288 4.2916 10.9778 3.85495 10.4308 3.86167L6.32862 3.91205C2.64424 3.91205 1.42836 6.72313 1.42823 8.98627L1.40284 14.9706C1.40284 15.4509 1.8648 15.8408 2.43506 15.8408C3.00511 15.8407 3.43092 15.4858 3.43116 15.0058V8.90033C3.43139 7.41734 4.13334 6.03022 6.00802 5.91306L6.92989 5.88181L10.4475 5.86667Z" fill="black"/>
<path d="M20.1802 11.3692L20.2008 11.3718C20.3237 11.393 20.4144 11.5032 20.428 11.6343L20.4266 11.7149L20.3931 11.9024C20.1776 12.8872 19.3798 13.6183 18.4284 13.6183C17.4791 13.6183 16.6826 12.8821 16.4651 11.8986L16.4288 11.6884L16.428 11.6652C16.428 11.5286 16.511 11.4135 16.6239 11.3789L16.6948 11.3683L20.1802 11.3692Z" fill="black"/>
<path d="M18.4432 0.868286C20.4959 0.868286 22.0825 2.66868 22.0825 4.7888C22.0825 6.90892 22.4997 7.58566 23.1259 8.0779C23.7521 8.57014 23.2982 9.86829 22.7289 9.86829H14.1575C13.6552 9.86829 13.1019 8.60823 13.6648 8.18453C14.198 7.78312 14.7432 6.85255 14.7991 5.09027L14.8038 4.7888C14.8038 2.83008 16.3904 0.868286 18.4432 0.868286Z" fill="black"/>
<path d="M13.6478 14.8683C14.2001 14.8683 14.6478 15.316 14.6478 15.8683C14.6478 16.3811 14.2618 16.8038 13.7644 16.8616L13.6478 16.8683H7.14779C6.59551 16.8683 6.14779 16.4206 6.14779 15.8683C6.14779 15.3555 6.53383 14.9328 7.03117 14.875L7.14779 14.8683H13.6478Z" fill="black"/>
<path d="M9.64779 10.8683C10.2001 10.8683 10.6478 11.316 10.6478 11.8683C10.6478 12.3811 10.2618 12.8038 9.76441 12.8616L9.64779 12.8683H7.14779C6.59551 12.8683 6.14779 12.4206 6.14779 11.8683C6.14779 11.3555 6.53383 10.9328 7.03117 10.875L7.14779 10.8683H9.64779Z" fill="black"/>
</svg>
