<svg width="25" height="24" viewBox="0 0 25 24" xmlns="http://www.w3.org/2000/svg"><path d="M3726.5,61.5 C3727.05229,61.5 3727.5,61.9477153 3727.5,62.5 C3727.5,63.0128358 3727.11396,63.4355072 3726.61662,63.4932723 L3726.5,63.5 L3723.16161,63.5 C3722.91282,63.5 3722.69331,63.5033542 3722.49749,63.5105983 L3722.13578,63.5304321 C3721.5245,63.576885 3721.18167,63.6804393 3720.83188,63.867509 C3720.41356,64.0912312 3720.09123,64.4135553 3719.86751,64.8318794 C3719.68044,65.1816694 3719.57688,65.5244998 3719.53043,66.135782 L3719.5106,66.4974873 L3719.50463,66.7014113 L3719.5,67.1616095 L3719.5,73.8383905 C3719.5,74.0871812 3719.50335,74.306693 3719.5106,74.5025127 L3719.53043,74.864218 C3719.57688,75.4755002 3719.68044,75.8183306 3719.86751,76.1681206 C3720.09123,76.5864447 3720.41356,76.9087688 3720.83188,77.132491 C3721.18167,77.3195607 3721.5245,77.423115 3722.13578,77.4695679 L3722.49749,77.4894017 L3722.70141,77.495369 L3723.16161,77.5 L3729.83839,77.5 L3730.29859,77.495369 L3730.50251,77.4894017 L3730.86422,77.4695679 C3731.4755,77.423115 3731.81833,77.3195607 3732.16812,77.132491 C3732.58644,76.9087688 3732.90877,76.5864447 3733.13249,76.1681206 C3733.34222,75.7759658 3733.44201,75.4099512 3733.48084,74.6682888 L3733.49627,74.2240763 C3733.5076,73.6719077 3733.9644,73.2334663 3734.51656,73.2447902 C3735.06873,73.256114 3735.50718,73.7129149 3735.49585,74.2650835 C3735.46822,75.6125514 3735.30675,76.3435086 3734.89612,77.1113183 C3734.486,77.8781794 3733.87818,78.4859956 3733.11132,78.8961174 C3732.32556,79.3163438 3731.56808,79.4794019 3730.13436,79.4981426 L3729.83839,79.5 L3723.16161,79.5 C3721.5328,79.5 3720.72682,79.3443589 3719.88868,78.8961174 C3719.12182,78.4859956 3718.514,77.8781794 3718.10388,77.1113183 C3717.68366,76.3255633 3717.5206,75.5680763 3717.50186,74.1343591 L3717.5,67.1616095 C3717.5,65.5327963 3717.65564,64.7268204 3718.10388,63.8886817 C3718.514,63.1218206 3719.12182,62.5140044 3719.88868,62.1038826 C3720.67444,61.6836562 3721.43192,61.5205981 3722.86564,61.5018574 L3726.5,61.5 Z M3729.5,72.5 C3730.05229,72.5 3730.5,72.9477153 3730.5,73.5 C3730.5,74.0128358 3730.11396,74.4355072 3729.61662,74.4932723 L3729.5,74.5 L3723,74.5 C3722.44771,74.5 3722,74.0522847 3722,73.5 C3722,72.9871642 3722.38604,72.5644928 3722.88338,72.5067277 L3723,72.5 L3729.5,72.5 Z M3736.25223,69.0008848 L3736.27281,69.0035326 C3736.39572,69.0246813 3736.48639,69.1348836 3736.5,69.2660049 L3736.49856,69.3466429 L3736.46509,69.5341486 C3736.24961,70.5189418 3735.45175,71.25 3734.50044,71.25 C3733.5511,71.25 3732.75457,70.5137717 3732.53713,69.5303199 L3732.50081,69.3201049 L3732.5,69.2969235 C3732.5,69.1602735 3732.58296,69.0451846 3732.69589,69.0106108 L3732.76682,69 L3736.25223,69.0008848 Z M3725.5,68.5 C3726.05229,68.5 3726.5,68.9477153 3726.5,69.5 C3726.5,70.0128358 3726.11396,70.4355072 3725.61662,70.4932723 L3725.5,70.5 L3723,70.5 C3722.44771,70.5 3722,70.0522847 3722,69.5 C3722,68.9871642 3722.38604,68.5644928 3722.88338,68.5067277 L3723,68.5 L3725.5,68.5 Z M3734.51289,58 C3736.80656,58 3738.60633,59.9702344 3738.60633,62.3324365 C3738.60633,63.583022 3738.7367,64.0105981 3739.05023,64.2909585 L3739.21634,64.4323879 C3740.25056,65.4044807 3739.66849,67.5127972 3738.29147,67.6436177 L3738.15576,67.6499999 L3730.87003,67.6499999 C3729.49367,67.6499999 3728.67968,65.4764955 3729.74449,64.5070953 L3729.90941,64.3685997 C3730.14537,64.1393661 3730.35104,63.6185691 3730.40526,62.7873659 L3730.41558,62.5730873 L3730.42447,62.1269229 C3730.53104,59.9418312 3732.32256,58 3734.51289,58 Z M3734.51289,60 C3733.46259,60 3732.50621,61.0251087 3732.42492,62.1885991 L3732.41496,62.6203925 C3732.37605,63.8467723 3732.07996,64.8229347 3731.57574,65.4906794 L3731.446,65.649 L3737.578,65.649 L3737.503,65.5730907 C3736.94451,64.9697462 3736.6753,64.1640314 3736.6181,62.8893224 L3736.60906,62.6088949 L3736.60633,62.3324365 C3736.60633,61.0364329 3735.65957,60 3734.51289,60 Z" transform="translate(-3716 -58)"/></svg>