<?xml version="1.0" encoding="UTF-8"?>
<svg width="22px" height="26px" viewBox="0 0 22 26" version="1.1" xmlns="http://www.w3.org/2000/svg" xmlns:xlink="http://www.w3.org/1999/xlink">
    <!-- Generator: Sketch 51.2 (57519) - http://www.bohemiancoding.com/sketch -->
    <title>Combined Shape</title>
    <desc>Created with Sketch.</desc>
    <defs></defs>
    <g id="Prototype" stroke="none" stroke-width="1" fill="none" fill-rule="evenodd">
        <path d="M9.90909091,1.54327273 C9.90909091,0.990987977 10.3568062,0.543272727 10.9090909,0.543272727 C11.4613757,0.543272727 11.9090909,0.990987977 11.9090909,1.54327273 L11.9090909,12.1796364 C11.9090909,12.7319211 11.4613757,13.1796364 10.9090909,13.1796364 C10.3568062,13.1796364 9.90909091,12.7319211 9.90909091,12.1796364 L9.90909091,1.54327273 Z M7.3030303,4.43282732 C7.82372936,4.24873241 8.39507776,4.52160397 8.57917268,5.04230303 C8.76326759,5.56300209 8.49039603,6.13435049 7.96969697,6.31844541 C3.92054459,7.75003696 1.49164872,11.8905552 2.21790361,16.1234789 C2.9441585,20.3564027 6.61431625,23.4504888 10.9090909,23.4504888 C15.2038656,23.4504888 18.8740233,20.3564027 19.6002782,16.1234789 C20.3265331,11.8905552 17.8976372,7.75003696 13.8484848,6.31844541 C13.3277858,6.13435049 13.0549142,5.56300209 13.2390091,5.04230303 C13.4231041,4.52160397 13.9944525,4.24873241 14.5151515,4.43282732 C19.4826684,6.18910974 22.4624478,11.2687146 21.5714753,16.4616829 C20.6805028,21.6546512 16.1779382,25.4504888 10.9090909,25.4504888 C5.64024365,25.4504888 1.13767899,21.6546512 0.246706491,16.4616829 C-0.644266006,11.2687146 2.33551347,6.18910974 7.3030303,4.43282732 Z" id="Combined-Shape" fill="#000000" fill-rule="nonzero"></path>
    </g>
</svg>