<svg xmlns="http://www.w3.org/2000/svg" width="24" height="24" viewBox="0 0 24 24">
  <path d="M11.25,11 L11.25,8.5 L8.91666667,8.5 C7.45874433,8.5 6.25,7.37183862 6.25,5.94444444 L6.25,2.55555556 C6.25,1.12816138 7.45874433,0 8.91666667,0 L15.5833333,0 C17.0412557,0 18.25,1.12816138 18.25,2.55555556 L18.25,5.94444444 C18.25,7.37183862 17.0412557,8.5 15.5833333,8.5 L13.25,8.5 L13.25,11 L17.75,11 C18.8545695,11 19.75,11.8954305 19.75,13 L19.75,15 L20.9444444,15 C22.3558314,15 23.5,16.1441686 23.5,17.5555556 L23.5,21.4444444 C23.5,22.8558314 22.3558314,24 20.9444444,24 L16.5555556,24 C15.1441686,24 14,22.8558314 14,21.4444444 L14,17.5555556 C14,16.1441686 15.1441686,15 16.5555556,15 L17.75,15 L17.75,13 L6.25,13 L6.25,15 L7.44444444,15 C8.85583142,15 10,16.1441686 10,17.5555556 L10,21.4444444 C10,22.8558314 8.85583142,24 7.44444444,24 L3.05555556,24 C1.64416858,24 0.5,22.8558314 0.5,21.4444444 L0.5,17.5555556 C0.5,16.1441686 1.64416858,15 3.05555556,15 L4.25,15 L4.25,13 C4.25,11.8954305 5.1454305,11 6.25,11 L11.25,11 Z M3.05555556,22 L7.44444444,22 C7.75126192,22 8,21.7512619 8,21.4444444 L8,17.5555556 C8,17.2487381 7.75126192,17 7.44444444,17 L3.05555556,17 C2.74873808,17 2.5,17.2487381 2.5,17.5555556 L2.5,21.4444444 C2.5,21.7512619 2.74873808,22 3.05555556,22 Z M16.5555556,22 L20.9444444,22 C21.2512619,22 21.5,21.7512619 21.5,21.4444444 L21.5,17.5555556 C21.5,17.2487381 21.2512619,17 20.9444444,17 L16.5555556,17 C16.2487381,17 16,17.2487381 16,17.5555556 L16,21.4444444 C16,21.7512619 16.2487381,22 16.5555556,22 Z M8.91666667,6.5 L15.5833333,6.5 C15.9663443,6.5 16.25,6.23525471 16.25,5.94444444 L16.25,2.55555556 C16.25,2.26474529 15.9663443,2 15.5833333,2 L8.91666667,2 C8.53365567,2 8.25,2.26474529 8.25,2.55555556 L8.25,5.94444444 C8.25,6.23525471 8.53365567,6.5 8.91666667,6.5 Z"/>
</svg>
