<svg xmlns="http://www.w3.org/2000/svg" width="24" height="24" viewBox="0 0 24 24">
  <path d="M12.7514167,13.3850127 L12.7514167,14.5 C12.7514167,14.9142136 12.4156302,15.25 12.0014167,15.25 C11.5872031,15.25 11.2514167,14.9142136 11.2514167,14.5 L11.2514167,13.3850127 L4,13.3850127 L4,14.5 C4,14.9142136 3.66421356,15.25 3.25,15.25 C2.83578644,15.25 2.5,14.9142136 2.5,14.5 L2.5,12.6350127 C2.5,12.2207991 2.83578644,11.8850127 3.25,11.8850127 L11.2514167,11.8850127 L11.2514167,11.25 C11.2514167,10.8357864 11.5872031,10.5 12.0014167,10.5 C12.4156302,10.5 12.7514167,10.8357864 12.7514167,11.25 L12.7514167,11.8850127 L20.75,11.8850127 C21.1642136,11.8850127 21.5,12.2207991 21.5,12.6350127 L21.5,14.5 C21.5,14.9142136 21.1642136,15.25 20.75,15.25 C20.3357864,15.25 20,14.9142136 20,14.5 L20,13.3850127 L12.7514167,13.3850127 Z M1.86111111,23.25 C0.833253104,23.25 0,22.4167469 0,21.3888889 L0,18.6111111 C0,17.5832531 0.833253104,16.75 1.86111111,16.75 L4.63888889,16.75 C5.6667469,16.75 6.5,17.5832531 6.5,18.6111111 L6.5,21.3888889 C6.5,22.4167469 5.6667469,23.25 4.63888889,23.25 L1.86111111,23.25 Z M1.86111111,21.75 L4.63888889,21.75 C4.83831977,21.75 5,21.5883198 5,21.3888889 L5,18.6111111 C5,18.4116802 4.83831977,18.25 4.63888889,18.25 L1.86111111,18.25 C1.66168023,18.25 1.5,18.4116802 1.5,18.6111111 L1.5,21.3888889 C1.5,21.5883198 1.66168023,21.75 1.86111111,21.75 Z M10.6111111,23.25 C9.5832531,23.25 8.75,22.4167469 8.75,21.3888889 L8.75,18.6111111 C8.75,17.5832531 9.5832531,16.75 10.6111111,16.75 L13.3888889,16.75 C14.4167469,16.75 15.25,17.5832531 15.25,18.6111111 L15.25,21.3888889 C15.25,22.4167469 14.4167469,23.25 13.3888889,23.25 L10.6111111,23.25 Z M10.6111111,21.75 L13.3888889,21.75 C13.5883198,21.75 13.75,21.5883198 13.75,21.3888889 L13.75,18.6111111 C13.75,18.4116802 13.5883198,18.25 13.3888889,18.25 L10.6111111,18.25 C10.4116802,18.25 10.25,18.4116802 10.25,18.6111111 L10.25,21.3888889 C10.25,21.5883198 10.4116802,21.75 10.6111111,21.75 Z M19.3611111,23.25 C18.3332531,23.25 17.5,22.4167469 17.5,21.3888889 L17.5,18.6111111 C17.5,17.5832531 18.3332531,16.75 19.3611111,16.75 L22.1388889,16.75 C23.1667469,16.75 24,17.5832531 24,18.6111111 L24,21.3888889 C24,22.4167469 23.1667469,23.25 22.1388889,23.25 L19.3611111,23.25 Z M19.3611111,21.75 L22.1388889,21.75 C22.3383198,21.75 22.5,21.5883198 22.5,21.3888889 L22.5,18.6111111 C22.5,18.4116802 22.3383198,18.25 22.1388889,18.25 L19.3611111,18.25 C19.1616802,18.25 19,18.4116802 19,18.6111111 L19,21.3888889 C19,21.5883198 19.1616802,21.75 19.3611111,21.75 Z M8.66666667,9.25 C7.34310825,9.25 6.25,8.22976564 6.25,6.94444444 L6.25,3.05555556 C6.25,1.77023436 7.34310825,0.75 8.66666667,0.75 L15.3333333,0.75 C16.6568918,0.75 17.75,1.77023436 17.75,3.05555556 L17.75,6.94444444 C17.75,8.22976564 16.6568918,9.25 15.3333333,9.25 L8.66666667,9.25 Z M8.66666667,7.75 L15.3333333,7.75 C15.8507082,7.75 16.25,7.3773277 16.25,6.94444444 L16.25,3.05555556 C16.25,2.6226723 15.8507082,2.25 15.3333333,2.25 L8.66666667,2.25 C8.14929175,2.25 7.75,2.6226723 7.75,3.05555556 L7.75,6.94444444 C7.75,7.3773277 8.14929175,7.75 8.66666667,7.75 Z"/>
</svg>
