<svg xmlns="http://www.w3.org/2000/svg" width="24" height="24" viewBox="0 0 24 24">
  <path d="M12.2188299,13.0000002 L6.93125001,13.0000002 C6.74485399,13.0000002 6.59374997,13.1511042 6.59375,13.3375 L6.59375,14.5 L7.6,14.5 C8.92547675,14.5 10,15.5745233 10,16.9 L10,21.1 C10,22.4254767 8.92547675,23.5 7.6,23.5 L3.4,23.5 C2.07452325,23.5 1,22.4254767 1,21.1 L1,16.9 C1,15.5745233 2.07452325,14.5 3.4,14.5 L4.59375,14.5 L4.59375,13.3375002 C4.59374981,12.0465348 5.64028451,11.0000002 6.93125001,11.0000002 L11.28125,11.0000002 L11.28125,9.5 L10.0875,9.5 C8.76202325,9.5 7.6875,8.42547675 7.6875,7.1 L7.6875,2.9 C7.6875,1.57452325 8.76202325,0.5 10.0875,0.5 L14.2875,0.5 C15.6129767,0.5 16.6875,1.57452325 16.6875,2.9 L16.6875,7.1 C16.6875,8.42547675 15.6129767,9.5 14.2875,9.5 L13.28125,9.5 L13.28125,11.0000002 L17.63125,11.0000002 C18.9222155,11.0000002 19.96875,12.0465347 19.96875,13.3375002 L19.96875,14.5 L20.975,14.5 C22.3004767,14.5 23.375,15.5745233 23.375,16.9 L23.375,21.1 C23.375,22.4254767 22.3004767,23.5 20.975,23.5 L16.775,23.5 C15.4495233,23.5 14.375,22.4254767 14.375,21.1 L14.375,16.9 C14.375,15.5745233 15.4495233,14.5 16.775,14.5 L17.96875,14.5 L17.96875,13.3375002 C17.96875,13.1511042 17.817646,13.0000002 17.6312501,13.0000002 L12.3436701,13.0000002 C12.3230266,13.0012716 12.3022136,13.0019167 12.28125,13.0019167 C12.2602864,13.0019167 12.2394734,13.0012716 12.2188299,13.0000002 Z M3.4,21.5 L7.6,21.5 C7.82090725,21.5 8,21.3209073 8,21.1 L8,16.9 C8,16.6790927 7.82090725,16.5 7.6,16.5 L3.4,16.5 C3.17909275,16.5 3,16.6790927 3,16.9 L3,21.1 C3,21.3209073 3.17909275,21.5 3.4,21.5 Z M10.0875,7.5 L14.2875,7.5 C14.5084073,7.5 14.6875,7.32090725 14.6875,7.1 L14.6875,2.9 C14.6875,2.67909275 14.5084073,2.5 14.2875,2.5 L10.0875,2.5 C9.86659275,2.5 9.6875,2.67909275 9.6875,2.9 L9.6875,7.1 C9.6875,7.32090725 9.86659275,7.5 10.0875,7.5 Z M16.775,21.5 L20.975,21.5 C21.1959073,21.5 21.375,21.3209073 21.375,21.1 L21.375,16.9 C21.375,16.6790927 21.1959073,16.5 20.975,16.5 L16.775,16.5 C16.5540927,16.5 16.375,16.6790927 16.375,16.9 L16.375,21.1 C16.375,21.3209073 16.5540927,21.5 16.775,21.5 Z"/>
</svg>
