<?xml version="1.0" encoding="UTF-8"?>
<svg width="24px" height="24px" viewBox="0 0 24 24" version="1.1" xmlns="http://www.w3.org/2000/svg" xmlns:xlink="http://www.w3.org/1999/xlink">
    <!-- Generator: Sketch 54.1 (76490) - https://sketchapp.com -->
    <title>bell</title>
    <desc>Created with Sketch.</desc>
    <g id="Icons" stroke="none" stroke-width="1" fill="none" fill-rule="evenodd">
        <path d="M16.75,17.5 L22.25,17.5 C23.2164947,17.5 24,18.2835053 24,19.25 L24,22.25 C24,23.2164947 23.2164947,24 22.25,24 L10.25,24 C9.28350525,24 8.5,23.2164947 8.5,22.25 L8.5,21.6977234 L7.25,21.6977234 C5.86928825,21.6977234 4.74999979,20.5784351 4.75,19.1977236 L4.75,6.5 L1.75,6.5 C0.78350525,6.5 0,5.71649475 0,4.75 L0,1.75 C0,0.78350525 0.78350525,0 1.75,0 L13.75,0 C14.7164947,0 15.5,0.78350525 15.5,1.75 L15.5,4.75 C15.5,5.71649475 14.7164947,6.5 13.75,6.5 L6.75,6.5 L6.75,11.25 C6.74999996,11.5261421 6.97385782,11.7499999 7.25,11.75 L8.5,11.75 L8.5,11.25 C8.5,10.2835053 9.28350525,9.5 10.25,9.5 L22.25,9.5 C23.2164947,9.5 24,10.2835053 24,11.25 L24,14.25 C24,15.2164947 23.2164947,16 22.25,16 L16.75,16 L16.75,17.5 Z M14.75,17.5 L14.75,16 L10.25,16 C9.28350525,16 8.5,15.2164947 8.5,14.25 L8.5,13.75 L7.25,13.75 C7.07876708,13.75 6.91155497,13.7327848 6.75,13.6999908 L6.75,19.1977238 C6.74999996,19.4738657 6.97385773,19.6977234 7.25,19.6977234 L8.5,19.6977234 L8.5,19.25 C8.5,18.2835053 9.28350525,17.5 10.25,17.5 L14.75,17.5 Z M22,22 L22,19.5 L10.5,19.5 L10.5,22 L22,22 Z M22,14 L22,11.5 L10.5,11.5 L10.5,14 L22,14 Z M13.5,4.5 L13.5,2 L2,2 L2,4.5 L13.5,4.5 Z" id="Shape" fill="#000000" fill-rule="nonzero"></path>
    </g>
</svg>