<?xml version="1.0" encoding="UTF-8"?>
<svg width="25px" height="24px" viewBox="0 0 25 24" version="1.1" xmlns="http://www.w3.org/2000/svg" xmlns:xlink="http://www.w3.org/1999/xlink">
    <!-- Generator: Sketch 54.1 (76490) - https://sketchapp.com -->
    <title>bell copy 66</title>
    <desc>Created with Sketch.</desc>
    <g id="Icons" stroke="none" stroke-width="1" fill="none" fill-rule="evenodd">
        <path d="M20.0811824,5.96582001 C19.5023211,4.92649669 18.1825171,4.55097111 17.1368608,5.13338422 L17.0961049,5.15666655 L15.5495112,6.07892901 L15.5495112,4.19954858 C15.5600884,2.99959345 14.5892013,2.01091912 13.3804711,1.99959563 L10.9279117,1.99955175 C9.70981134,2.01092958 8.73893382,2.99960472 8.7495505,4.20833457 L8.74953061,6.08042571 L7.20665953,5.16189612 C6.16771867,4.55334705 4.84009405,4.90020746 4.23516741,5.93299882 L4.21188976,5.97374631 L3.03917375,8.04629668 C2.44504475,9.08937454 2.79486427,10.4192081 3.82779184,11.0363874 L5.46437597,11.9993218 L3.83219874,12.9591533 C2.79333461,13.5814616 2.44487112,14.911073 3.04091708,15.9558732 L4.21689823,18.0330247 C4.79590309,19.0726013 6.11570709,19.4481269 7.16136329,18.8657138 L7.20211923,18.8424314 L8.74951295,17.9199332 L8.74951295,19.7995494 C8.75750337,21.0141904 9.73485011,21.991546 10.942896,21.9995299 L13.3495044,21.9995518 C14.5641571,21.9915557 15.5415132,21.0142011 15.5494825,19.8061486 L15.5494938,17.9202666 L17.0916925,18.8400116 C18.1312975,19.4489565 19.4589222,19.1020961 20.0638488,18.0693047 L20.0871265,18.0285572 L21.2619744,15.9548804 C21.8563715,14.911329 21.506552,13.5814954 20.4736244,12.9643161 L18.8351821,11.9999382 L20.4676255,11.0399502 C21.5055676,10.4173896 21.8536453,9.08962576 21.2594634,8.0456099 L20.0811824,5.96582001 Z M19.521086,9.0345715 C19.5780397,9.13432595 19.5448211,9.26131265 19.4463142,9.32040159 L16.3561997,11.1375556 C15.6988973,11.5240942 15.6987144,12.4745632 16.355868,12.8613548 L19.4534596,14.6845545 C19.5464422,14.7401374 19.5798547,14.8671548 19.522973,14.9670196 L18.3434345,17.0490238 L18.3380834,17.0584963 C18.2914126,17.1381773 18.1889859,17.1649377 18.1093051,17.1182678 L15.0617156,15.300693 C14.3951496,14.9031627 13.5495043,15.3834464 13.5495043,16.1595524 L13.5495043,19.7995519 C13.5487753,19.9067535 13.4567063,19.9988223 13.3429036,19.9995735 L10.9495047,19.9995518 C10.842312,19.9988215 10.7502418,19.9067505 10.7494912,19.7929532 L10.749513,16.1595499 C10.749513,15.3835135 9.90400387,14.9032199 9.23743564,15.3006106 L6.18463607,17.1206103 C6.1897473,17.1175742 6.1897473,17.1175742 6.18816809,17.1184613 C6.10749334,17.1633958 6.00567136,17.1344243 5.96073692,17.0537504 L4.77972547,14.9676755 C4.72117702,14.8650359 4.75446018,14.7380394 4.85301752,14.6789972 L7.9436245,12.8615479 C8.6009876,12.4749736 8.60109491,11.5243908 7.94381912,11.1376681 L4.84781956,9.31606831 C4.75497408,9.26056608 4.7215615,9.13354866 4.77844324,9.03368389 L5.95584984,6.95280618 L5.96093284,6.94380726 C6.0076036,6.86412626 6.11003036,6.83736584 6.18971107,6.88403575 L9.23796476,8.69880626 C9.90454149,9.09564463 10.7495119,8.61531213 10.7495119,7.83955106 L10.7495119,4.19955158 C10.748554,4.08610005 10.8326237,4.0004892 10.937288,3.99950779 L13.3711034,3.99955175 C13.4664005,4.00048838 13.550469,4.08609707 13.5495497,4.19076638 L13.5495112,7.83954806 C13.5495112,8.61563593 14.3951209,9.09592222 15.0616875,8.69842837 L18.1136871,6.87842863 C18.1907308,6.83570217 18.2925528,6.86467372 18.3374873,6.94534766 L19.5194422,9.03167599 L19.521086,9.0345715 Z" id="Path-Copy-12" fill="#000000" fill-rule="nonzero"></path>
    </g>
</svg>