<?xml version="1.0" encoding="UTF-8"?>
<svg width="25px" height="24px" viewBox="0 0 25 24" version="1.1" xmlns="http://www.w3.org/2000/svg" xmlns:xlink="http://www.w3.org/1999/xlink">
    <!-- Generator: Sketch 54.1 (76490) - https://sketchapp.com -->
    <title>bell copy 65</title>
    <desc>Created with Sketch.</desc>
    <g id="Icons" stroke="none" stroke-width="1" fill="none" fill-rule="evenodd">
        <path d="M16.6814709,2.24993626 C16.6922873,1.02165096 15.7004093,0.0116012181 14.4655456,3.29082266e-05 L11.404652,0 C10.1627623,0.0116118834 9.17089358,1.02166299 9.1817398,2.25652726 L9.18171928,5.48041072 L6.49752392,3.88240757 C5.44022706,3.26311455 4.08703136,3.61665577 3.47045249,4.66934098 L3.44672643,4.71087346 L1.97924808,7.30438257 C1.3705632,8.37301761 1.72872632,9.73456921 2.78629016,10.3664688 L5.56157065,11.9993807 L2.78879541,13.6299616 C1.72706825,14.2659759 1.37029347,15.6273002 1.98055561,16.6970197 L3.45128274,19.2947796 C4.04235849,20.3560154 5.38758258,20.7387738 6.45338031,20.1451422 L6.49491913,20.1214126 L9.18171216,18.5196349 L9.18171216,21.7491603 C9.18988458,22.9905687 10.1902222,23.9909154 11.4266855,23.9990871 L14.4315222,23.9991035 C15.6729424,23.9909253 16.6732892,22.9905802 16.6814459,21.754111 L16.6814575,18.5198829 L19.3651511,20.120399 C20.4229461,20.7399888 21.7761418,20.3864476 22.3927207,19.3337624 L22.4164467,19.2922299 L23.8867239,16.697076 C24.4956099,15.6280858 24.1374468,14.2665342 23.0798829,13.6346346 L20.3024127,11.9998403 L23.0753877,10.3691419 C24.1364825,9.73268227 24.4927146,8.37237712 23.8832965,7.30325652 L22.4107928,4.70412711 C21.8198246,3.6430812 20.4746005,3.2603228 19.4088028,3.85395441 L19.3672639,3.87768397 L16.6814709,5.4792847 L16.6814709,2.24993626 Z M22.5798617,8.04558968 C22.7858743,8.40642109 22.6657189,8.86574675 22.3094042,9.07948049 L18.4431729,11.3530551 C17.9501961,11.6429591 17.9500589,12.3558108 18.4429241,12.6459045 L22.3147593,14.9248134 C22.6673644,15.1355157 22.7882223,15.5949552 22.5824728,15.9561805 L21.1086777,18.5575799 L21.0983966,18.5756561 C20.9005096,18.9135085 20.4662123,19.0269747 20.1283605,18.8290911 L16.3156208,16.5552009 C15.8156962,16.2570531 15.1814622,16.6172659 15.1814622,17.1993454 L15.1814622,21.7491635 C15.1787358,22.1599944 14.8423543,22.4963753 14.4265716,22.4991198 L11.4316421,22.4991035 C11.0208186,22.496372 10.6844384,22.1599888 10.6816958,21.7442132 L10.6817122,17.1993423 C10.6817122,16.617315 10.0475803,16.2570948 9.54765417,16.5551378 L5.73180677,18.8300468 L5.72348391,18.8347029 C5.38142227,19.0252255 4.94968469,18.9023827 4.75916176,18.5603239 L3.2846619,15.9558714 C3.0775229,15.5927724 3.19791242,15.1334093 3.5544095,14.9198445 L7.42101024,12.6460484 C7.91403256,12.3561176 7.91411304,11.6431805 7.4211562,11.3531385 L3.55131095,9.07622952 C3.19880868,8.86558773 3.07795076,8.4061482 3.2837002,8.04492299 L4.7546965,5.44516836 L4.76477656,5.42744731 C4.96266352,5.08959487 5.39696083,4.97612865 5.73481258,5.17401229 L9.5480505,7.44419948 C10.0479831,7.74182826 10.6817109,7.38157888 10.6817109,6.79975808 L10.6817109,2.24994002 C10.6781087,1.83653448 11.0048716,1.5037816 11.4116842,1.49996703 L14.4585198,1.5 C14.8583087,1.50377817 15.1850727,1.83652868 15.1814998,2.24334961 L15.1814709,6.79975432 C15.1814709,7.38182023 15.8156782,7.74203494 16.3156031,7.44391456 L20.1304506,5.16900553 L20.1386992,5.16439374 C20.4807608,4.9738711 20.9124984,5.09671396 21.1030214,5.43877284 L22.5786288,8.04341534 L22.5798617,8.04558968 Z" id="Path" fill="#000000" fill-rule="nonzero"></path>
    </g>
</svg>