<svg xmlns="http://www.w3.org/2000/svg" width="24" height="25" viewBox="0 0 24 25">
  <path d="M4.57538005,5.07538005 C8.67588711,0.974872982 15.3241162,0.974872982 19.4246,5.07538005 C23.525107,9.17588711 23.525107,15.8241162 19.4246,19.9246 C15.3240929,24.025107 8.67586378,24.025107 4.57538005,19.9246 C0.474872982,15.8240929 0.474872982,9.17586378 4.57538005,5.07538005 Z M18.0103884,18.5103844 C21.3298442,15.1909475 21.3298442,9.80905142 18.0103844,6.4895916 C14.6909475,3.1701358 9.30905142,3.1701358 5.9895916,6.48959562 C2.6701358,9.80903253 2.6701358,15.1909286 5.98959562,18.5103884 C9.30903253,21.8298442 14.6909286,21.8298442 18.0103884,18.5103844 Z M12.7028332,10.3828932 L15.2928332,7.79289322 C15.6833575,7.40236893 16.3165225,7.40236893 16.7070468,7.79289322 C17.0975711,8.18341751 17.0975711,8.81658249 16.7070468,9.20710678 L14.1170468,11.7971068 C14.0573945,11.8567591 13.9920808,11.9072995 13.9228353,11.9487281 C14.1159114,12.6245039 13.9463486,13.3820204 13.4141468,13.9142168 C12.6330979,14.6952657 11.3667641,14.6952657 10.5857232,13.9142168 C9.80467432,13.1331679 9.80467432,11.8668341 10.5857232,11.0857932 C11.1179238,10.5535926 11.87544,10.3840293 12.5512126,10.5771034 C12.5926411,10.5078584 12.6431813,10.4425451 12.7028332,10.3828932 Z M7.99994,12.5000008 C7.99994008,13.0522854 7.5522249,13.5000007 6.99994,13.5000008 C6.4476554,13.5000008 5.99994008,13.0522857 5.99994,12.5000008 C5.9999395,9.18629619 8.68623509,6.50000075 11.99994,6.50000075 C12.5522247,6.50000075 12.99994,6.94771601 12.99994,7.50000075 C12.99994,8.0522855 12.5522247,8.50000075 11.99994,8.50000075 C9.79080462,8.50000075 7.99993967,10.2908656 7.99994,12.5000008 Z"/>
</svg>
