<svg xmlns="http://www.w3.org/2000/svg" width="24" height="24" viewBox="0 0 24 24">
  <path d="M14.1642136,6.03164722 C14.4228777,5.70812634 14.8948319,5.65554953 15.2183528,5.91421363 C15.5418737,6.17287773 15.5944505,6.6448319 15.3357864,6.96835278 L12.2836434,10.7857823 C12.6796628,11.6210736 12.532125,12.6498904 11.8410301,13.3409901 C10.9623512,14.219669 9.53773483,14.219669 8.65904991,13.3409901 C7.780371,12.4623112 7.780371,11.0376948 8.65904991,10.1590099 C9.35092446,9.46713537 10.3812822,9.32004502 11.2170797,9.71773797 L14.1642136,6.03164722 Z M9.7197119,11.2196683 C9.426817,11.5125652 9.426817,11.9874368 9.71970828,12.2803281 C10.0126052,12.573223 10.4874768,12.573223 10.7803681,12.2803317 C11.073263,11.9874348 11.073263,11.5125632 10.7803699,11.2196701 C10.4874748,10.926777 10.0126032,10.926777 9.7197119,11.2196683 Z M12.1972298,19.7711294 C12.5997739,19.673502 13.0052431,19.9206857 13.1028706,20.3232298 C13.200498,20.7257739 12.9533143,21.1312431 12.5507702,21.2288706 C7.31769912,22.4980273 2.04659921,19.2846467 0.777430071,14.05158 C-0.491726806,8.81850844 2.72165369,3.54740844 7.95472052,2.27823926 C12.9779012,1.05998703 18.0788825,3.97342103 19.581595,8.91895398 C19.7020184,9.31527592 19.4783584,9.73418079 19.0820365,9.8546042 C18.6857146,9.9750276 18.2668097,9.75136765 18.1463863,9.35504571 C16.8748605,5.17036439 12.5586459,2.70515125 8.3082626,3.73597998 C3.88028396,4.80989213 1.16126895,9.27005487 2.23517077,13.6980379 C3.30908289,18.1260164 7.76924557,20.8450315 12.1972298,19.7711294 Z M17.8286315,15.799004 C17.8704779,16.0865849 18.0597682,16.3183715 18.3107599,16.4258001 C18.8114212,15.1946851 18.6005641,13.7702623 17.7297835,12.7319349 C17.2602447,12.1720523 17.7870093,11.3396743 18.4939964,11.5243481 C21.9714815,12.4327087 24.289105,15.7138541 23.9853789,19.241134 C23.9502893,21.8381091 21.8535528,23.9348466 19.2464472,23.9700012 C16.6291736,23.9700012 14.5074476,21.8482748 14.5090239,19.2796068 C14.4011712,17.6189249 15.266405,16.0464614 16.7269523,15.2487731 C17.185586,14.998287 17.7533828,15.2818717 17.8286315,15.799004 Z M22.4881774,19.1670668 C22.6743247,16.9913632 21.6448449,14.9546122 19.9169503,13.7890496 C20.2407743,15.0540896 20.076963,16.425755 19.3992257,17.6088113 C19.2758266,17.8242163 19.0538355,17.9646051 18.8063288,17.9837635 C17.9944971,18.0466038 17.2431324,17.6804179 16.7833829,17.070038 C16.2462885,17.6265925 15.9546436,18.4000061 16.0074472,19.2310005 C16.0074475,21.0198476 17.4576008,22.4700012 19.2363153,22.4700696 C21.0207198,22.4459616 22.4614054,21.0052753 22.4881774,19.1670668 Z M10.25,7.25 C9.69771525,7.25 9.25,6.80228475 9.25,6.25 C9.25,5.69771525 9.69771525,5.25 10.25,5.25 C10.8022847,5.25 11.25,5.69771525 11.25,6.25 C11.25,6.80228475 10.8022847,7.25 10.25,7.25 Z M6.5,9 C5.94771525,9 5.5,8.55228475 5.5,8 C5.5,7.44771525 5.94771525,7 6.5,7 C7.05228475,7 7.5,7.44771525 7.5,8 C7.5,8.55228475 7.05228475,9 6.5,9 Z M5,12.75 C4.44771525,12.75 4,12.3022847 4,11.75 C4,11.1977153 4.44771525,10.75 5,10.75 C5.55228475,10.75 6,11.1977153 6,11.75 C6,12.3022847 5.55228475,12.75 5,12.75 Z"/>
</svg>
