<svg xmlns="http://www.w3.org/2000/svg" width="24" height="25" viewBox="0 0 24 25">
  <path d="M12.5512126,10.5771034 C12.5926411,10.5078584 12.6431813,10.4425451 12.7028332,10.3828932 L15.2928332,7.79289322 C15.6833575,7.40236893 16.3165225,7.40236893 16.7070468,7.79289322 C17.0975711,8.18341751 17.0975711,8.81658249 16.7070468,9.20710678 L14.1170468,11.7971068 C14.0573945,11.8567591 13.9920808,11.9072995 13.9228353,11.9487281 C14.1159114,12.6245039 13.9463486,13.3820204 13.4141468,13.9142168 C12.6330979,14.6952657 11.3667641,14.6952657 10.5857232,13.9142168 C9.80467432,13.1331679 9.80467432,11.8668341 10.5857232,11.0857932 C11.1179238,10.5535926 11.87544,10.3840293 12.5512126,10.5771034 L12.5512126,10.5771034 Z M4.92893322,5.42893322 C8.83417718,1.52368926 15.1658222,1.52368859 19.0710468,5.42893322 C22.9762914,9.33417785 22.9762914,15.6658244 19.0710468,19.5710468 C15.1658022,23.4762914 8.83415562,23.4762914 4.92893322,19.5710468 C1.02368859,15.6658022 1.02368859,9.33415562 4.92893322,5.42893322 Z M17.6568352,18.1568312 C20.7810286,15.0326556 20.7810286,9.96734215 17.6568312,6.84314477 C14.5326556,3.71895141 9.46734215,3.71895141 6.34314477,6.84314879 C3.21895141,9.96732438 3.21895141,15.0326378 6.34314879,18.1568352 C9.46732438,21.2810286 14.5326378,21.2810286 17.6568352,18.1568312 Z M7.99994,12.5000008 C7.99994008,13.0522854 7.5522249,13.5000007 6.99994,13.5000008 C6.4476554,13.5000008 5.99994008,13.0522857 5.99994,12.5000008 C5.9999395,9.18629619 8.68623509,6.50000075 11.99994,6.50000075 C12.5522247,6.50000075 12.99994,6.94771601 12.99994,7.50000075 C12.99994,8.0522855 12.5522247,8.50000075 11.99994,8.50000075 C9.79080462,8.50000075 7.99993967,10.2908656 7.99994,12.5000008 Z"/>
</svg>
