<?xml version="1.0" encoding="UTF-8"?>
<svg width="24px" height="24px" viewBox="0 0 24 24" version="1.1" xmlns="http://www.w3.org/2000/svg" xmlns:xlink="http://www.w3.org/1999/xlink">
    <title>overload-bold-g</title>
    <g id="Icons" stroke="none" stroke-width="1" fill="none" fill-rule="evenodd">
        <g transform="translate(-2172.000000, -34.000000)" fill="#000000" fill-rule="nonzero" id="Shape">
            <path d="M2191.07106,38.9289363 C2194.97631,42.8341848 2194.97631,49.1658374 2191.07106,53.0710637 C2187.16582,56.9763121 2180.83416,56.9763121 2176.92894,53.0710637 C2173.02369,49.1658152 2173.02369,42.8341626 2176.92894,38.9289363 C2180.83418,35.0236879 2187.16584,35.0236879 2191.07106,38.9289363 Z M2188.70706,41.2928988 C2188.34658,40.9324146 2187.77935,40.904685 2187.38705,41.2097102 L2187.29285,41.2928988 L2184.70284,43.8829013 C2184.64319,43.9425532 2184.59265,44.0078665 2184.55122,44.0771116 C2183.87545,43.8840374 2183.11793,44.0536008 2182.58573,44.5858019 C2181.80468,45.3668435 2181.80468,46.6331785 2182.58573,47.4142281 C2183.36677,48.1952777 2184.63311,48.1952777 2185.41416,47.4142281 C2185.94636,46.8820313 2186.11592,46.124514 2185.92285,45.4487376 L2186.02355,45.3797608 L2186.02355,45.3797608 L2186.11706,45.2971161 L2188.70706,42.7071137 C2189.09759,42.3165891 2189.09759,41.6834235 2188.70706,41.2928988 Z M2183.99994,40.0000052 C2180.68624,40.0000052 2177.99994,42.6863031 2177.99994,46.0000052 C2177.99994,46.5522962 2178.44766,47.0000052 2178.99994,47.0000052 C2179.55223,47.0000052 2179.99994,46.5522959 2179.99994,46.0000052 C2179.99994,43.7908736 2181.79081,42.0000052 2183.99994,42.0000052 C2184.55224,42.0000052 2184.99994,41.5522914 2184.99994,41.0000052 C2184.99994,40.4477209 2184.55224,40.0000052 2183.99994,40.0000052 Z"></path>
        </g>
    </g>
</svg>