<svg xmlns="http://www.w3.org/2000/svg" width="25" height="24" viewBox="0 0 25 24">
  <path d="M8.75,14.75 C9.16421356,14.75 9.5,15.0857864 9.5,15.5 C9.5,15.9142136 9.16421356,16.25 8.75,16.25 L2.75000011,16.25 C1.50735947,16.2500002 0.5,15.2426407 0.5,14 L0.5,4.99999989 C0.500000188,3.75735936 1.50735949,2.75 2.75,2.75 L18.25,2.75 C19.4926405,2.74999995 20.4999999,3.7573594 20.5,5 L20.5,8.5 C20.5,8.91421356 20.1642136,9.25 19.75,9.25 C19.3357864,9.25 19,8.91421356 19,8.5 L19,5.00000006 C19,4.58578658 18.6642134,4.24999998 18.25,4.25 L2.75,4.25 C2.3357866,4.25 2.00000006,4.58578655 2,5 L2,14 C2,14.4142136 2.3357865,14.7500001 2.75,14.75 L8.75,14.75 Z M14.9709936,8.50000216 L14.976007,8.5 C15.5968653,8.50054306 16.1000014,9.00401422 16.1000014,9.62499953 C16.1000015,10.2463201 15.596322,10.7499996 14.9750015,10.7499996 C14.3536809,10.7499996 13.8500014,10.2463201 13.8500041,9.62700543 C13.8483439,9.00623938 14.3502269,8.50166413 14.9709936,8.50000216 Z M10.4709936,8.50000216 L10.476007,8.5 C11.0968653,8.50054306 11.6000014,9.00401422 11.6000014,9.62499953 C11.6000015,10.2463201 11.096322,10.7499996 10.4750015,10.7499996 C9.85368088,10.7499996 9.35000142,10.2463201 9.35000411,9.62700543 C9.34834387,9.00623938 9.85022691,8.50166413 10.4709936,8.50000216 Z M5.97099355,8.50000216 L5.97600696,8.5 C6.59686533,8.50054306 7.10000142,9.00401422 7.10000142,9.62499953 C7.10000145,10.2463201 6.59632199,10.7499996 5.97500146,10.7499996 C5.35368088,10.7499996 4.85000142,10.2463201 4.85000411,9.62700543 C4.84834387,9.00623938 5.35022691,8.50166413 5.97099355,8.50000216 Z M21.1029391,12.8673104 L21.6325199,13.3968912 C21.9250877,13.689459 21.9250877,14.163805 21.6325199,14.4563728 C21.3399521,14.7489405 20.8656061,14.7489405 20.5730383,14.4563728 L20.0434575,13.926792 L17.870893,16.0993565 C18.8349148,17.5538202 18.6761286,19.5330455 17.3945343,20.8146398 C15.9316983,22.2774757 13.5599629,22.2774757 12.097127,20.8146398 C10.634291,19.3518039 10.634291,16.9800685 12.097127,15.5172325 C13.3783684,14.2359911 15.3568566,14.0769395 16.8112086,15.0400776 L21.6318605,10.2194258 C21.9244282,9.92685806 22.3987743,9.92685806 22.6913421,10.2194258 L24.2805742,11.8086579 C24.5731419,12.1012257 24.5731419,12.5755718 24.2805742,12.8681395 C23.9880064,13.1607073 23.5136603,13.1607073 23.2210926,12.8681395 L22.1616013,11.8086482 L21.1029391,12.8673104 Z M16.3350527,19.7551582 C17.2127531,18.8774578 17.2127531,17.4544145 16.3350527,16.5767141 C15.4573522,15.6990137 14.034309,15.6990137 13.1566086,16.5767141 C12.2789081,17.4544145 12.2789081,18.8774578 13.1566086,19.7551582 C14.034309,20.6328586 15.4573522,20.6328586 16.3350527,19.7551582 Z"/>
</svg>
