<?xml version="1.0" encoding="UTF-8"?>
<svg width="24px" height="24px" viewBox="0 0 24 24" version="1.1" xmlns="http://www.w3.org/2000/svg" xmlns:xlink="http://www.w3.org/1999/xlink">
    <title>pause-g</title>
    <g id="Icons" stroke="none" stroke-width="1" fill="none" fill-rule="evenodd">
      <g fill="#000000" fill-rule="nonzero" id="Shape">
        <path d="M13.675 3.79102C13.2412 4.25435 12.9999 4.86528 13 5.5L13 18.5L13.005 18.6641C13.0466 19.2974 13.3276 19.8911 13.791 20.325C14.2543 20.7588 14.8653 21.0001 15.5 21H16.5L16.664 20.9951C17.2974 20.9535 17.8912 20.6723 18.325 20.209C18.7588 19.7457 19.0001 19.1347 19 18.5V5.5L18.995 5.33594C18.9534 4.70259 18.6724 4.10886 18.209 3.67505C17.7457 3.24124 17.1347 2.9999 16.5 3H15.5L15.336 3.00488C14.7026 3.04652 14.1088 3.32768 13.675 3.79102Z" />
        <path d="M5.67504 3.79102C5.24123 4.25435 4.9999 4.86528 5 5.5L5 18.5L5.005 18.6641C5.04664 19.2974 5.32762 19.8911 5.79095 20.325C6.25429 20.7588 6.86528 21.0001 7.5 21H8.5L8.664 20.9951C9.29735 20.9535 9.89115 20.6723 10.325 20.209C10.7588 19.7457 11.0001 19.1347 11 18.5V5.5L10.995 5.33594C10.9534 4.70259 10.6724 4.10886 10.209 3.67505C9.74571 3.24124 9.13472 2.9999 8.5 3H7.5L7.336 3.00488C6.70265 3.04652 6.10885 3.32768 5.67504 3.79102Z" />
      </g>
    </g>
</svg>