<?xml version="1.0" encoding="UTF-8"?>
<svg width="24px" height="24px" viewBox="0 0 24 24" version="1.1" xmlns="http://www.w3.org/2000/svg" xmlns:xlink="http://www.w3.org/1999/xlink">
    <!-- Generator: Sketch 51.2 (57519) - http://www.bohemiancoding.com/sketch -->
    <title>Combined Shape</title>
    <desc>Created with Sketch.</desc>
    <defs></defs>
    <g id="Prototype" stroke="none" stroke-width="1" fill="none" fill-rule="evenodd">
        <path d="M22.6726522,1.3240596 C23.531199,2.18565206 24.0081055,3.35106944 23.9998957,4.56353381 C23.991686,5.77599818 23.4990415,6.9348506 22.6398493,7.77396494 L8.43672413,21.9770901 C8.31262103,22.1011932 8.1574533,22.1896727 7.98744764,22.2332759 L1.22382149,23.9680162 C0.502502304,24.1530208 -0.153286182,23.4973214 0.0316203281,22.7759771 L1.76538112,16.0123509 C1.80897243,15.8422956 1.89746496,15.6870805 2.02160001,15.5629455 L16.2168715,1.36776411 C17.0643692,0.500712414 18.2232304,0.00831214717 19.4356509,0.000104270867 C20.6480715,-0.00810360544 21.8134931,0.468561672 22.6726522,1.3240596 Z M19.4489131,1.95911113 C18.7592002,1.96378036 18.0999559,2.24389338 17.6099839,2.74507911 L3.59648756,16.7585755 L2.34027986,21.659205 L7.24104527,20.4022527 L21.2627873,6.38060529 C21.7560598,5.89880531 22.0362201,5.23978141 22.0408889,4.55026911 C22.0455534,3.86139548 21.7748495,3.19922731 21.2889963,2.7109217 C20.8003745,2.22510175 20.1379873,1.95444621 19.4489131,1.95911113 Z M2.02318683,16.9478315 C1.64032308,16.5656383 1.63977952,15.945437 2.02197276,15.5625733 C2.404166,15.1797095 3.02436724,15.1791659 3.407231,15.5613592 L8.44101446,20.5863269 C8.82387822,20.9685202 8.82442178,21.5887214 8.44222854,21.9715852 C8.06003529,22.3544489 7.43983405,22.3549925 7.05697029,21.9727992 L2.02318683,16.9478315 Z M15.8192014,3.15158235 C15.4366728,2.7690537 15.4366728,2.14885222 15.8192014,1.76632357 C16.2017301,1.38379492 16.8219316,1.38379492 17.2044602,1.76632357 L22.233346,6.7952094 C22.6158747,7.17773805 22.6158747,7.79793953 22.233346,8.18046817 C21.8508174,8.56299682 21.2306159,8.56299682 20.8480873,8.18046817 L15.8192014,3.15158235 Z" id="Combined-Shape" fill="#000000" fill-rule="nonzero"></path>
    </g>
</svg>