<?xml version="1.0" encoding="UTF-8"?>
<svg width="24px" height="24px" viewBox="0 0 24 24" version="1.1" xmlns="http://www.w3.org/2000/svg" xmlns:xlink="http://www.w3.org/1999/xlink">
    <!-- Generator: Sketch 54.1 (76490) - https://sketchapp.com -->
    <title>bell copy 38</title>
    <desc>Created with Sketch.</desc>
    <g id="Icons" stroke="none" stroke-width="1" fill="none" fill-rule="evenodd">
        <path d="M7.66148616,20.4118544 L18.5863665,9.4870267 L14.512999,5.41365922 L3.58417878,16.3424795 L7.66148616,20.4118544 Z M6.20433163,21.0767926 L2.92190196,17.800749 L1.79136401,22.2086341 L6.20433163,21.0767926 L6.20433163,21.0767926 Z M1.78115861,16.2107364 C1.80668522,16.0640814 1.87601012,15.9235508 1.98915378,15.8101866 C2.00847925,15.7908234 2.02859978,15.7727371 2.04941049,15.7559277 L13.9256935,3.879702 C13.9424194,3.85897351 13.9604115,3.83892833 13.9796699,3.81966991 C13.9989292,3.80041062 14.0189754,3.78241772 14.0397049,3.76569123 L16.4846122,1.32079564 L16.513683,1.29132855 C18.2237865,-0.425806249 21.0021092,-0.431516873 22.7214154,1.28075881 L22.7504874,1.31022714 C24.4443049,3.04341587 24.4123893,5.821568 22.6853282,7.50933009 L20.2340811,9.96057718 C20.217419,9.98120648 20.199502,10.0011581 20.1803301,10.0203301 C20.1611581,10.039502 20.1412065,10.057419 20.1205772,10.0740811 L8.18532819,22.0093301 C8.09030534,22.1043529 7.97149706,22.1720996 7.84132771,22.2054856 L0.936327706,23.9764856 C0.383986906,24.1181504 -0.118152283,23.6160112 0.0235125334,23.0636704 L1.78115861,16.2107364 L1.78115861,16.2107364 Z M19.6470293,8.42636908 L20.6813716,7.39203175 L16.607999,3.31865922 L15.5736592,4.35299905 L19.6470293,8.42636908 L19.6470293,8.42636908 Z M21.7403349,6.32967476 C22.7716531,5.2075799 22.7556302,3.46160554 21.6777128,2.358633 L21.6590819,2.33974809 C20.5597112,1.24663374 18.8008846,1.22082718 17.6703392,2.25967905 L21.7403349,6.32967476 L21.7403349,6.32967476 Z" id="Shape" fill="#000000" fill-rule="nonzero"></path>
    </g>
</svg>