<svg xmlns="http://www.w3.org/2000/svg" width="24" height="24" viewBox="0 0 24 24">
  <path d="M3.51476991,3.51471991 C8.20106313,-1.1715733 15.7990369,-1.1715733 20.4853301,3.51471991 C25.1716233,8.20101313 25.1716233,15.7989869 20.4853301,20.4852801 C15.7990369,25.1715733 8.20106313,25.1715733 3.51476991,20.4852801 C-1.1715233,15.7989869 -1.1715233,8.20101313 3.51476991,3.51471991 Z M19.4246699,19.4246199 C23.5251767,15.3241131 23.5251767,8.67588687 19.4246699,4.57538009 C15.3241631,0.474873305 8.67593687,0.474873305 4.57543009,4.57538009 C0.474923305,8.67588687 0.474923305,15.3241131 4.57543009,19.4246199 C8.67593687,23.5251267 15.3241631,23.5251267 19.4246699,19.4246199 Z M8.78033009,16.2803301 C8.48743687,16.5732233 8.01256313,16.5732233 7.71966991,16.2803301 C7.4267767,15.9874369 7.4267767,15.5125631 7.71966991,15.2196699 L15.2196699,7.71966991 C15.5125631,7.4267767 15.9874369,7.4267767 16.2803301,7.71966991 C16.5732233,8.01256313 16.5732233,8.48743687 16.2803301,8.78033009 L8.78033009,16.2803301 Z M7.40904991,7.40900991 C8.28772877,6.53033106 9.71234496,6.530331 10.5910301,7.40900991 C11.469709,8.28768883 11.469709,9.71230517 10.5910301,10.5909901 C9.71235117,11.469669 8.28773483,11.469669 7.40904991,10.5909901 C6.530371,9.71231117 6.530371,8.28769483 7.40904991,7.40900991 Z M9.5303681,9.53033172 C9.823263,9.23743483 9.823263,8.76256317 9.5303699,8.46967007 C9.23747286,8.176777 8.76260256,8.17677761 8.4697119,8.46966828 C8.176817,8.76256517 8.176817,9.23743683 8.46970828,9.5303281 C8.76260517,9.823223 9.23747683,9.823223 9.5303681,9.53033172 Z M13.4090499,13.4089699 C14.2877288,12.5302911 15.712345,12.530291 16.5910301,13.4089699 C17.469709,14.2876488 17.469709,15.7122652 16.5910301,16.5909501 C15.7123512,17.469629 14.2877348,17.469629 13.4090499,16.5909501 C12.530371,15.7122712 12.530371,14.2876548 13.4090499,13.4089699 Z M15.5303681,15.5302917 C15.823263,15.2373948 15.823263,14.7625232 15.5303699,14.4696301 C15.2374729,14.176737 14.7626026,14.1767376 14.4697119,14.4696283 C14.176817,14.7625252 14.176817,15.2373968 14.4697083,15.5302881 C14.7626052,15.823183 15.2374768,15.823183 15.5303681,15.5302917 Z"/>
</svg>
