<?xml version="1.0" encoding="UTF-8"?>
<svg width="26px" height="20px" viewBox="0 0 26 20" version="1.1" xmlns="http://www.w3.org/2000/svg" xmlns:xlink="http://www.w3.org/1999/xlink">
    <!-- Generator: Sketch 51.2 (57519) - http://www.bohemiancoding.com/sketch -->
    <title>Combined Shape</title>
    <desc>Created with Sketch.</desc>
    <defs></defs>
    <g id="Symbols" stroke="none" stroke-width="1" fill="none" fill-rule="evenodd">
        <path d="M16.7546856,12.0312588 C15.3292426,11.3101146 14.352,9.83168095 14.352,8.125 C14.352,5.70875422 16.3107542,3.75 18.727,3.75 C21.1432458,3.75 23.102,5.70875422 23.102,8.125 C23.102,9.83257831 22.1237294,11.3116693 20.6970655,12.0323957 C21.3156796,12.2285563 21.908893,12.5182503 22.4548589,12.8986719 C24.2051088,14.118222 25.2488221,16.1162166 25.2499998,18.2494479 C25.2503048,18.8017326 24.8028367,19.2496949 24.2505521,19.2499998 C23.6982674,19.2503048 23.2503051,18.8028367 23.2500002,18.2505521 C23.2491834,16.7710846 22.5253331,15.3854083 21.3114761,14.5396093 C20.0976191,13.6938103 18.5470058,13.4946715 17.1588199,14.0063009 C16.6406106,14.197292 16.0656902,13.9320292 15.8746991,13.4138199 C15.683708,12.8956106 15.9489708,12.3206902 16.4671801,12.1296991 C16.56251,12.0945643 16.6583711,12.0617543 16.7546856,12.0312588 Z M6.75835894,10.6964747 C4.78523991,9.98360284 3.375,8.09399101 3.375,5.875 C3.375,3.04454066 5.66954066,0.75 8.5,0.75 C11.3304593,0.75 13.625,3.04454066 13.625,5.875 C13.625,8.09399101 12.2147601,9.98360284 10.2416411,10.6964747 C13.683196,11.4867718 16.25,14.5686313 16.25,18.25 C16.25,18.8022847 15.8022847,19.25 15.25,19.25 C14.6977153,19.25 14.25,18.8022847 14.25,18.25 C14.25,15.0743627 11.6756373,12.5 8.5,12.5 C5.32436269,12.5 2.75,15.0743627 2.75,18.25 C2.75,18.8022847 2.30228475,19.25 1.75,19.25 C1.19771525,19.25 0.75,18.8022847 0.75,18.25 C0.75,14.5686313 3.31680405,11.4867718 6.75835894,10.6964747 Z M8.5,9 C10.2258898,9 11.625,7.60088984 11.625,5.875 C11.625,4.14911016 10.2258898,2.75 8.5,2.75 C6.77411016,2.75 5.375,4.14911016 5.375,5.875 C5.375,7.60088984 6.77411016,9 8.5,9 Z M18.727,10.5 C20.0386763,10.5 21.102,9.43667628 21.102,8.125 C21.102,6.81332372 20.0386763,5.75 18.727,5.75 C17.4153237,5.75 16.352,6.81332372 16.352,8.125 C16.352,9.43667628 17.4153237,10.5 18.727,10.5 Z" id="Combined-Shape" fill="#000000" fill-rule="nonzero"></path>
    </g>
</svg>