<?xml version="1.0" encoding="UTF-8"?>
<svg width="16px" height="18px" viewBox="0 0 16 18" version="1.1" xmlns="http://www.w3.org/2000/svg" xmlns:xlink="http://www.w3.org/1999/xlink">
    <!-- Generator: Sketch 51.1 (57501) - http://www.bohemiancoding.com/sketch -->
    <title>Combined Shape</title>
    <desc>Created with Sketch.</desc>
    <defs></defs>
    <g id="Prototype" stroke="none" stroke-width="1" fill="none" fill-rule="evenodd">
        <path d="M16,16.8888889 C16,17.3798087 15.6020309,17.7777778 15.1111111,17.7777778 C14.6201913,17.7777778 14.2222222,17.3798087 14.2222222,16.8888889 L14.2222222,15.1111111 C14.2222222,13.6383518 13.0283149,12.4444444 11.5555556,12.4444444 L4.44444444,12.4444444 C2.97168511,12.4444444 1.77777778,13.6383518 1.77777778,15.1111111 L1.77777778,16.8888889 C1.77777778,17.3798087 1.37980867,17.7777778 0.888888889,17.7777778 C0.397969111,17.7777778 0,17.3798087 0,16.8888889 L0,15.1111111 C0,12.6565122 1.98984556,10.6666667 4.44444444,10.6666667 L11.5555556,10.6666667 C14.0101544,10.6666667 16,12.6565122 16,15.1111111 L16,16.8888889 Z M8,8.88888889 C5.54540111,8.88888889 3.55555556,6.89904333 3.55555556,4.44444444 C3.55555556,1.98984556 5.54540111,0 8,0 C10.4545989,0 12.4444444,1.98984556 12.4444444,4.44444444 C12.4444444,6.89904333 10.4545989,8.88888889 8,8.88888889 Z M8,7.11111111 C9.47275933,7.11111111 10.6666667,5.91720378 10.6666667,4.44444444 C10.6666667,2.97168511 9.47275933,1.77777778 8,1.77777778 C6.52724067,1.77777778 5.33333333,2.97168511 5.33333333,4.44444444 C5.33333333,5.91720378 6.52724067,7.11111111 8,7.11111111 Z" id="Combined-Shape" fill="#000000" fill-rule="nonzero"></path>
    </g>
</svg>