<?xml version="1.0" encoding="UTF-8"?>
<svg width="24px" height="24px" viewBox="0 0 24 24" version="1.1" xmlns="http://www.w3.org/2000/svg" xmlns:xlink="http://www.w3.org/1999/xlink">
    <title>person</title>
    <g id="Icons" stroke="none" stroke-width="1" fill="none" fill-rule="evenodd">
        <g id="Glyphs" transform="translate(-571.000000, -74.000000)" fill="#000000" fill-rule="nonzero">
            <path d="M587.478598,89.441696 C587.256674,91.7196712 585.336248,93.4999985 583,93.4999989 C580.663752,93.4999989 578.743327,91.7196717 578.521402,89.4416962 C575.819497,90.9947685 574,93.9098993 574,97.2499995 C574,97.6642134 573.664214,98 573.25,98 C572.835787,98 572.5,97.6642137 572.5,97.2499995 C572.5,91.4510065 577.201006,86.7499995 583,86.7499995 C588.798993,86.7499995 593.5,91.4510059 593.5,97.2499995 C593.5,97.6642135 593.164214,98 592.75,98 C592.335786,98 592,97.6642135 592,97.2499995 C592,94.0142773 590.292445,91.1773789 587.729288,89.5912584 L587.478598,89.441696 Z M586,88.7621155 C585.061663,88.4304617 584.051906,88.2499996 583,88.2499996 C581.948094,88.2499996 580.938337,88.4304619 580,88.7621158 L580,88.999998 C580,90.6568552 581.343144,91.9999988 583,91.9999988 C584.656857,91.9999988 586,90.6568551 586,88.9999987 L586,88.7621155 Z M582.975708,74 L583.219692,74.0030573 L583.571698,74.0138856 L583.908972,74.0323511 L584.145827,74.0507735 L584.426215,74.0790168 C587.050901,74.3797675 588.394364,75.6210786 588.766189,78.1269212 L588.800145,78.3817325 L588.823499,78.600946 L588.849986,78.9317669 L588.867538,79.2700939 L588.874648,79.4998505 L588.878307,79.7348884 L588.878575,79.9781448 L588.872788,80.3381722 L588.853369,80.7963142 L588.829488,81.12713 C588.585504,83.9559444 587.348654,85.3843303 584.741391,85.7677865 L584.492934,85.8006851 L584.160578,85.8340729 L583.941344,85.850392 L583.648392,85.8660349 L583.260647,85.8770183 L582.962643,85.878947 L582.662016,85.8757487 L582.426234,85.8694398 L582.195722,85.8596966 L581.971748,85.846514 L581.795324,85.8332953 L581.620028,85.8174604 L581.39128,85.7924045 L581.122426,85.7560459 C578.606235,85.3766621 577.363136,84.0387846 577.070953,81.4261706 L577.044893,81.1606484 L577.028899,80.9469593 L577.011446,80.6116479 L577.001982,80.2620238 L577.001354,79.7819451 L577.005943,79.544922 L577.011613,79.3696521 L577.032364,78.9737051 L577.063102,78.6053557 C577.353014,75.722676 578.710088,74.3461881 581.562741,74.0591843 L581.826205,74.0360827 L582.048903,74.0216119 L582.387382,74.0070346 L582.735086,74.0003102 L582.975708,74 Z M579.039156,76.9222099 L579.0198,76.9570762 C578.779896,77.4039047 578.636092,77.9745795 578.561098,78.6968288 L578.536148,78.9748315 L578.517321,79.2723494 L578.505421,79.5832697 L578.499972,80.0217858 L578.501748,80.2379764 L578.506679,80.4503042 L578.519747,80.7515194 L578.54009,81.0409342 C578.712804,83.0741451 579.401993,83.9260129 581.137357,84.2386136 L581.334508,84.2711604 L581.572378,84.3035055 L581.917924,84.3383565 L582.270809,84.3616287 L582.47735,84.3703556 L582.689531,84.3760494 L582.965249,84.3790044 L583.237894,84.3772429 L583.449192,84.3723428 L583.844821,84.3535865 L584.036896,84.3392227 L584.325227,84.3101142 C586.299064,84.0766625 587.088245,83.2810954 587.312798,81.226897 L587.334725,81.0019564 L587.356156,80.7054375 L587.373417,80.2981105 L587.378667,79.9676447 L587.378403,79.747976 L587.37511,79.5352598 L587.365628,79.280534 C586.549327,79.4725525 585.707608,79.5485508 584.864258,79.5046479 C582.667194,79.3800544 580.597897,78.4579966 579.039156,76.9222099 Z M583.188072,75.5026625 L582.96,75.4989458 L582.434896,75.506174 L582.130893,75.5192783 L581.931695,75.5323523 C581.203613,75.5871098 580.619769,75.7056027 580.154917,75.9134832 C581.44756,77.1590345 583.146512,77.9048268 584.945707,78.0068649 C585.697158,78.0459787 586.448655,77.9700012 587.174428,77.782875 C586.840997,76.4300098 586.067332,75.8224034 584.486471,75.5985632 L584.265861,75.5703844 L584.013339,75.5448083 L583.810883,75.5290442 L583.508523,75.5124466 L583.188072,75.5026625 Z" id="Shape"></path>
        </g>
    </g>
</svg>