<?xml version="1.0" encoding="UTF-8"?>
<svg width="22px" height="26px" viewBox="0 0 22 26" version="1.1" xmlns="http://www.w3.org/2000/svg" xmlns:xlink="http://www.w3.org/1999/xlink">
    <!-- Generator: Sketch 51.2 (57519) - http://www.bohemiancoding.com/sketch -->
    <title>Combined Shape</title>
    <desc>Created with Sketch.</desc>
    <defs></defs>
    <g id="Symbols" stroke="none" stroke-width="1" fill="none" fill-rule="evenodd">
        <path d="M11,13.25 C7.54822031,13.25 4.75,10.4517797 4.75,7 C4.75,3.54822031 7.54822031,0.75 11,0.75 C14.4517797,0.75 17.25,3.54822031 17.25,7 C17.25,10.4517797 14.4517797,13.25 11,13.25 Z M11,11.25 C13.3472102,11.25 15.25,9.34721019 15.25,7 C15.25,4.65278981 13.3472102,2.75 11,2.75 C8.65278981,2.75 6.75,4.65278981 6.75,7 C6.75,9.34721019 8.65278981,11.25 11,11.25 Z M2.25,24.25 C2.25,24.8022847 1.80228475,25.25 1.25,25.25 C0.69771525,25.25 0.25,24.8022847 0.25,24.25 C0.25,18.3129389 5.06293894,13.5 11,13.5 C16.9370611,13.5 21.75,18.3129389 21.75,24.25 C21.75,24.8022847 21.3022847,25.25 20.75,25.25 C20.1977153,25.25 19.75,24.8022847 19.75,24.25 C19.75,19.4175084 15.8324916,15.5 11,15.5 C6.16750844,15.5 2.25,19.4175084 2.25,24.25 Z" id="Combined-Shape" fill="#000000" fill-rule="nonzero"></path>
    </g>
</svg>