<?xml version="1.0" encoding="UTF-8"?>
<svg width="24px" height="24px" viewBox="0 0 24 24" version="1.1" xmlns="http://www.w3.org/2000/svg" xmlns:xlink="http://www.w3.org/1999/xlink">
    <title>person-new-g</title>
    <g id="Icons" stroke="none" stroke-width="1" fill="none" fill-rule="evenodd">
        <g transform="translate(-2870.000000, -58.000000)" fill="#000000" fill-rule="nonzero" id="Shape">
            <path d="M2881.01951,61.9999974 C2881.57179,61.9991299 2882.02021,62.4461382 2882.02108,62.9984223 C2882.02189,63.5112575 2881.63652,63.9345373 2881.13927,63.993087 L2881.02266,63.9999974 L2880.6296,64.0043984 L2880.40454,64.0139914 L2880.25494,64.0237912 C2878.70019,64.1407206 2878.19207,64.5993864 2878.04299,66.1015125 L2878.02176,66.3554985 L2878.00788,66.6182882 L2878.00092,66.895011 L2877.99996,67.0599713 L2878.00488,67.3789966 L2878.01838,67.666454 L2878.02939,67.8134597 C2878.14609,69.1872437 2878.53895,69.6894012 2879.66171,69.8947462 L2879.81938,69.9209621 L2879.99181,69.9445648 L2880.24401,69.9701349 L2880.50232,69.9872776 L2880.8118,69.9980473 L2881.01709,70.0003125 L2881.22022,69.9990613 L2881.47163,69.9921379 L2881.80809,69.9713468 L2882.01871,69.9501214 C2883.33353,69.7946141 2883.79799,69.3407325 2883.94949,67.9691257 L2883.97322,67.7159026 L2883.98698,67.5016686 L2883.9966,67.24772 C2884.01751,66.6958313 2884.48186,66.2653889 2885.03375,66.2863 C2885.54622,66.3057175 2885.95397,66.7074844 2885.99286,67.2066536 L2885.99517,67.3234459 L2885.97955,67.68891 L2885.96053,67.9518633 C2885.80457,69.7601277 2885.12972,70.9228031 2883.83698,71.5176275 C2886.85469,72.6622336 2889,75.5805864 2889,78.9999974 C2889,79.5522847 2888.55228,79.9999974 2888,79.9999974 C2887.44772,79.9999974 2887,79.5522847 2887,78.9999974 C2887,75.6862936 2884.31371,72.9999974 2881,72.9999974 C2877.68629,72.9999974 2875,75.6862936 2875,78.9999974 C2875,79.5522847 2874.55228,79.9999974 2874,79.9999974 C2873.44772,79.9999974 2873,79.5522847 2873,78.9999974 C2873,75.5775823 2875.14908,72.6571062 2878.17136,71.5144527 C2876.92768,70.9501055 2876.25075,69.8707978 2876.05959,68.2114832 L2876.03579,67.9730786 L2876.01745,67.7092551 L2876.00578,67.4378006 L2876.00154,67.2524019 L2876.00112,66.8706708 L2876.0048,66.6825081 L2876.01561,66.4022459 L2876.03227,66.1388542 C2876.22757,63.5871382 2877.41875,62.306864 2879.87284,62.0503968 L2880.11429,62.0287651 L2880.29522,62.0171029 L2880.56624,62.005546 L2881.01951,61.9999974 Z M2889.71428,58.7168812 C2889.7053,61.107086 2890.79299,62.2379061 2893.29939,62.2859214 C2894.24427,62.3040226 2894.22811,63.7178658 2893.28306,63.7143555 C2890.94807,63.7056824 2889.83763,64.8376413 2889.71339,67.3214698 C2889.6672,68.2449925 2888.29411,68.2168903 2888.28574,67.2922509 C2888.26357,64.8428543 2887.22026,63.7143604 2884.71429,63.7143604 C2883.76841,63.7143604 2883.75871,62.2988242 2884.7045,62.2858575 C2887.14872,62.2523472 2888.27709,61.1621532 2888.28571,58.7118491 C2888.28936,57.7592634 2889.71763,57.764507 2889.71428,58.7168812 Z"></path>
        </g>
    </g>
</svg>