<?xml version="1.0" encoding="UTF-8"?>
<svg width="24px" height="24px" viewBox="0 0 24 24" version="1.1" xmlns="http://www.w3.org/2000/svg" xmlns:xlink="http://www.w3.org/1999/xlink">
    <title>persons</title>
    <g id="Icons" stroke="none" stroke-width="1" fill="none" fill-rule="evenodd">
        <g id="Glyphs" transform="translate(-1172.000000, -74.000000)" fill="#000000" fill-rule="nonzero">
            <path d="M1179.35106,77.5 L1179.70785,77.5020793 L1179.96721,77.5101144 L1180.21563,77.5237662 L1180.39163,77.5375083 L1180.59714,77.5582283 C1182.57601,77.7849782 1183.62081,78.743899 1183.91092,80.630277 L1183.94106,80.852063 L1183.95827,81.0138997 L1183.983,81.3439071 L1183.99605,81.6788825 L1183.99889,82.0310577 L1183.99459,82.2958676 L1183.98501,82.5461202 L1183.96931,82.7945004 L1183.93913,83.1079776 C1183.71162,85.0459198 1182.78791,86.0841566 1180.9695,86.3953682 C1184.40752,87.0763587 1187,90.1104277 1187,93.7500016 C1187,94.1642136 1186.66421,94.5 1186.25,94.5 C1185.83579,94.5 1185.5,94.1642136 1185.5,93.7500016 C1185.5,90.4362942 1182.81371,87.7500016 1179.5,87.7500016 C1176.18629,87.7500016 1173.5,90.4362945 1173.5,93.7500016 C1173.5,94.1642135 1173.16421,94.5 1172.75,94.5 C1172.33579,94.5 1172,94.1642137 1172,93.7500016 C1172,90.1040441 1174.60159,87.0657169 1178.04965,86.3901249 L1178.15501,86.4088408 C1176.25118,86.1217871 1175.2842,85.0883796 1175.05517,83.1282331 L1175.03201,82.8979393 L1175.02025,82.7406252 L1175.00738,82.4929653 L1175.00042,82.2347515 L1175,81.8820699 L1175.00758,81.5789909 L1175.02291,81.2870729 L1175.04999,80.9731237 C1175.27797,78.8316242 1176.32444,77.7720948 1178.44915,77.5472112 L1178.68094,77.5262991 L1178.84644,77.5155915 L1179.09603,77.5048994 L1179.35106,77.5 Z M1189.38142,80.5 L1189.67161,80.5017314 L1189.88269,80.508311 L1190.08482,80.5194545 L1190.22912,80.5307578 L1190.3956,80.5475576 C1192.03678,80.735613 1192.92549,81.5460535 1193.17401,83.1077231 L1193.20281,83.31569 L1193.22328,83.5200774 L1193.24341,83.8530185 L1193.24979,84.1311377 L1193.24638,84.4923733 L1193.2386,84.6950106 L1193.22577,84.8977452 L1193.19801,85.1793431 C1193.03735,86.4949219 1192.47651,87.3209029 1191.43926,87.7171525 C1193.3006,88.2459292 1194.89214,89.6274152 1195.61278,91.582685 C1195.8685,92.2765328 1195.99959,93.0101168 1196,93.7495854 C1196.00023,94.1637988 1195.66463,94.4997703 1195.25041,94.5 C1194.8362,94.5002271 1194.50023,94.1646259 1194.5,93.7504125 C1194.49969,93.1876821 1194.39993,92.6294283 1194.20533,92.101415 C1193.29315,89.6264462 1190.54733,88.35955 1188.07237,89.2717253 C1187.68371,89.4149692 1187.25252,89.2160228 1187.10928,88.8273661 C1186.96603,88.4387095 1187.16498,88.0075189 1187.55363,87.864275 L1187.78267,87.7877876 C1186.60673,87.4296499 1185.9746,86.595057 1185.80146,85.2147192 L1185.77684,84.9795979 L1185.75681,84.6496724 L1185.75116,84.4390903 L1185.75084,84.152792 L1185.7536,84.01167 L1185.76171,83.8014733 L1185.76952,83.6689106 L1185.79429,83.3885982 C1185.98916,81.6288426 1186.87335,80.733738 1188.62175,80.5411159 L1188.83572,80.5213628 L1188.97142,80.5126161 L1189.17468,80.5039484 L1189.38142,80.5 Z M1189.51,81.9987889 L1189.2222,82.0030877 L1189.05341,82.0102825 L1188.94121,82.0176323 C1187.78362,82.1046916 1187.39964,82.4443386 1187.28472,83.551467 L1187.27008,83.7149047 L1187.25971,83.878092 L1187.25069,84.1710471 L1187.25092,84.4150429 L1187.26083,84.7000312 L1187.28945,85.032881 C1187.39421,85.9211504 1187.69491,86.2665005 1188.46465,86.4149076 L1188.61454,86.4405104 L1188.74385,86.4582125 L1188.933,86.4773901 L1189.24127,86.4951259 L1189.51282,86.5000233 L1189.66517,86.4990849 L1189.85372,86.4938923 L1190.10606,86.478299 L1190.26403,86.46238 C1191.23886,86.3470839 1191.59044,86.0130987 1191.70812,85.0116738 L1191.72564,84.8385127 L1191.73745,84.6755948 L1191.747,84.4523116 L1191.75,84.2666788 L1191.7481,84.0261306 L1191.7393,83.7996441 L1191.72843,83.6437629 L1191.71229,83.4838813 C1191.60096,82.545813 1191.28924,82.1947585 1190.39852,82.0604517 L1190.23525,82.0389252 L1189.98673,82.0161476 L1189.81952,82.0068721 L1189.51,81.9987889 Z M1176.74659,80.1679381 L1176.72662,80.2201564 C1176.64236,80.4559395 1176.58523,80.7343574 1176.54845,81.0623237 L1176.5197,81.3845751 L1176.50286,81.7464428 L1176.49896,82.057571 L1176.50368,82.3616712 L1176.51286,82.5739885 L1176.54592,82.9677346 C1176.68493,84.1913824 1177.11991,84.6921397 1178.1924,84.8944327 L1178.36709,84.9239553 L1178.53359,84.9466736 L1178.67094,84.9616949 L1178.88376,84.979314 L1179.17062,84.9938424 L1179.51629,85.000025 L1179.85979,84.9953465 L1180.13772,84.9822382 L1180.27342,84.9721147 L1180.47605,84.9516774 C1181.793,84.7959175 1182.29395,84.3046007 1182.44889,82.9420723 L1182.46791,82.7508226 L1182.48302,82.5421369 L1182.49522,82.2558059 L1182.49898,82.0205576 L1182.49475,81.734515 C1181.94638,81.8479337 1181.38389,81.8910329 1180.82006,81.8616799 C1179.30243,81.7756161 1177.86739,81.173975 1176.74659,80.1679381 Z M1179.51298,78.9987364 L1179.14354,79.0040387 L1178.92843,79.0132579 L1178.78643,79.0225687 C1178.43609,79.0489168 1178.13703,79.0948684 1177.88223,79.1675684 C1178.73018,79.8775779 1179.78819,80.3007546 1180.90151,80.3638969 C1181.3673,80.3881415 1181.83311,80.3478587 1182.28588,80.2450478 C1182.04103,79.5363144 1181.55508,79.2118061 1180.62812,79.0745984 L1180.43679,79.0495959 L1180.25915,79.0315431 L1180.11754,79.0204593 L1179.90403,79.0086755 L1179.51298,78.9987364 Z" id="Shape"></path>
        </g>
    </g>
</svg>