<?xml version="1.0" encoding="UTF-8"?>
<svg width="24px" height="24px" viewBox="0 0 24 24" version="1.1" xmlns="http://www.w3.org/2000/svg" xmlns:xlink="http://www.w3.org/1999/xlink">
    <!-- Generator: Sketch 54.1 (76490) - https://sketchapp.com -->
    <title>bell copy 9</title>
    <desc>Created with Sketch.</desc>
    <g id="Icons" stroke="none" stroke-width="1" fill="none" fill-rule="evenodd">
        <path d="M16.4785978,15.4416979 C16.2566738,17.7196729 14.3362481,19.5000002 12,19.5000006 C9.66375228,19.5000006 7.74332689,17.7196734 7.52140232,15.441698 C4.81949658,16.9947702 2.9999995,19.9099009 3,23.2500015 C3.00000006,23.6642149 2.66421368,24.0000014 2.25000011,24.0000015 C1.83578655,24.0000015 1.50000006,23.6642151 1.5,23.2500015 C1.49999912,17.4510082 6.20100615,12.7500015 12,12.7500015 C17.7989932,12.7500006 22.5,17.4510076 22.5,23.2500015 C22.5,23.664215 22.1642136,24.0000015 21.75,24.0000015 C21.3357864,24.0000015 21,23.664215 21,23.2500015 C21,19.9099008 19.1805031,16.99477 16.4785978,15.4416979 L16.4785978,15.4416979 Z M15,14.7621174 C14.0616634,14.4304635 13.0519065,14.2500013 12,14.2500015 C10.9480935,14.2500015 9.9383366,14.4304638 9,14.7621177 L9,14.9999999 C9.00000025,16.656857 10.3431436,18.0000006 11.9999999,18.0000006 C13.6568565,18.0000003 15,16.6568569 15,15.0000006 L15,14.7621174 Z M16.3425306,4.81711186 C16.143798,4.08485349 15.7569445,3.39299465 15.1819699,2.81802009 C13.4246131,1.0606633 10.5753669,1.0606633 8.81801009,2.81802009 C8.68582529,2.95020488 8.56358316,3.08856731 8.4512837,3.23217803 C9.90461353,4.52756756 11.7890876,5.25042237 13.7502972,5.24999987 C14.633775,5.2503502 15.5097238,5.10360775 16.3425306,4.81711186 L16.3425306,4.81711186 Z M16.4867096,6.34649801 C15.600961,6.61385295 14.6789455,6.75036819 13.7501614,6.74999979 C11.5410574,6.75047584 9.41350847,5.97844142 7.72671598,4.5865296 C7.21113408,6.14939739 7.57489878,7.93886861 8.81801009,9.18197991 C10.5753669,10.9393367 13.4246131,10.9393367 15.1819699,9.18197991 C15.9724552,8.39149459 16.4073685,7.38008348 16.4867096,6.34649801 L16.4867096,6.34649801 Z M16.2426301,1.75735991 C18.5857733,4.10050313 18.5857733,7.89949687 16.2426301,10.2426401 C13.8994869,12.5857833 10.1004931,12.5857833 7.75734991,10.2426401 C5.4142067,7.89949687 5.4142067,4.10050313 7.75734991,1.75735991 C10.1004931,-0.585783305 13.8994869,-0.585783305 16.2426301,1.75735991 Z" id="Shape" fill="#000000" fill-rule="nonzero"></path>
    </g>
</svg>