<svg xmlns="http://www.w3.org/2000/svg" width="25" height="24" viewBox="0 0 25 24">
  <path d="M4.46446484,3.46446484 C6.41708462,1.51184505 9.58291538,1.51184505 11.5355352,3.46446484 C13.4881549,5.41708462 13.4881549,8.58291538 11.5355352,10.5355352 C9.58291538,12.4881549 6.41708462,12.4881549 4.46446484,10.5355352 C2.51184505,8.58291538 2.51184505,5.41708462 4.46446484,3.46446484 Z M10.1213216,9.1213216 C11.2928928,7.9497504 11.2928928,6.0502496 10.1213216,4.8786784 C8.9497504,3.7071072 7.0502496,3.7071072 5.8786784,4.8786784 C4.7071072,6.0502496 4.7071072,7.9497504 5.8786784,9.1213216 C7.0502496,10.2928928 8.9497504,10.2928928 10.1213216,9.1213216 Z M15.5542823,4.70828361 C15.0945998,5.01440526 14.4737929,4.88991961 14.1676712,4.43023713 C13.8615496,3.97055466 13.9860352,3.34974775 14.4457177,3.0436261 C14.702503,2.87262215 14.9744166,2.72780484 15.2578311,2.61053799 C15.8345973,2.37189269 16.4526982,2.25 17.0756462,2.25 C18.3263777,2.25 19.5321044,2.73894137 20.4344046,3.64124161 C22.2893934,5.49623043 22.2893934,8.50376957 20.4344046,10.3587584 C19.5321044,11.2610586 18.3263777,11.75 17.0756462,11.75 C16.4526982,11.75 15.8345973,11.6281073 15.2578311,11.389462 C14.9744166,11.2721952 14.702503,11.1273779 14.4457177,10.9563739 C13.9860352,10.6502522 13.8615496,10.0294453 14.1676712,9.56976287 C14.4737929,9.11008039 15.0945998,8.98559474 15.5542823,9.29171639 C15.7023775,9.39033913 15.8590796,9.47379642 16.0224894,9.54140959 C16.3558866,9.67935748 16.714105,9.75 17.0756462,9.75 C17.8012034,9.75 18.4968191,9.46791677 19.0201911,8.94454483 C20.0941313,7.87060459 20.0941313,6.12939541 19.0201911,5.05545517 C18.4968191,4.53208323 17.8012034,4.25 17.0756462,4.25 C16.714105,4.25 16.3558866,4.32064252 16.0224894,4.45859041 C15.8590796,4.52620358 15.7023775,4.60966087 15.5542823,4.70828361 Z M2.5,20.7500035 C2.50000008,21.3022881 2.0522849,21.7500034 1.5,21.7500035 C0.947715401,21.7500036 0.500000083,21.3022884 0.5,20.7500035 C0.499999375,16.6078701 3.85786616,13.2500035 8,13.2500035 C12.1421334,13.2500029 15.5,16.6078697 15.5,20.7500035 C15.5,21.3022883 15.0522847,21.7500035 14.5,21.7500035 C13.9477153,21.7500035 13.5,21.3022883 13.5,20.7500035 C13.5,17.7124392 11.037564,15.2500031 8,15.2500035 C4.96243569,15.2500035 2.49999954,17.7124395 2.5,20.7500035 Z M16.1955074,15.308288 C15.6490422,15.3882517 15.1412212,15.0100776 15.0612574,14.4636124 C14.9812936,13.9171471 15.3594678,13.4093261 15.905933,13.3293623 C16.2662541,13.2766369 16.6316278,13.2500035 16.9999998,13.2500035 C21.1421334,13.2500029 24.5,16.6078697 24.5,20.7500035 C24.5,21.3022883 24.0522847,21.7500035 23.5,21.7500035 C22.9477153,21.7500035 22.5,21.3022883 22.5,20.7500035 C22.5,17.7124392 20.037564,15.2500031 17,15.2500035 C16.7286133,15.2500035 16.4600182,15.2695823 16.1955074,15.308288 Z"/>
</svg>
