<?xml version="1.0" encoding="UTF-8"?>
<svg width="24px" height="24px" viewBox="0 0 24 24" version="1.1" xmlns="http://www.w3.org/2000/svg" xmlns:xlink="http://www.w3.org/1999/xlink">
    <title>persons-g</title>
    <g id="Icons" stroke="none" stroke-width="1" fill="none" fill-rule="evenodd">
        <g transform="translate(-1474.000000, -58.000000)" fill="#000000" fill-rule="nonzero" id="Shape">
            <path d="M1481.5919,61.5002815 L1481.97882,61.50259 L1482.26026,61.5113628 L1482.52976,61.5262207 L1482.72215,61.5412919 L1482.94413,61.5636916 C1485.14878,61.8163117 1486.33502,62.9112667 1486.65599,65.0242412 L1486.68708,65.2545348 L1486.70577,65.4304536 L1486.72711,65.697636 L1486.74122,65.9709728 L1486.74972,66.3417985 L1486.74988,66.5365199 L1486.74517,66.8234459 L1486.7348,67.0936289 L1486.71769,67.3639418 L1486.68629,67.6922645 C1486.4769,69.4985126 1485.71015,70.6209448 1484.27723,71.1449988 C1487.30917,72.1222538 1489.5,74.8116522 1489.5,78 C1489.5,78.5522847 1489.05228,79 1488.5,79 C1487.94772,79 1487.5,78.5522847 1487.5,78 C1487.5,75.1184316 1484.94209,72.75 1481.75,72.75 C1478.55791,72.75 1476,75.1184316 1476,78 C1476,78.5522847 1475.55228,79 1475,79 C1474.44772,79 1474,78.5522847 1474,78 C1474,74.8081628 1476.19563,72.1163676 1479.23304,71.141158 C1477.79287,70.6217145 1477.01897,69.5089129 1476.8107,67.7210675 L1476.78579,67.4730786 L1476.77306,67.3024939 L1476.75909,67.033178 L1476.75154,66.7524019 L1476.75001,66.5633175 L1476.7548,66.1825081 L1476.76561,65.9022459 L1476.77603,65.7254956 L1476.80428,65.3958747 C1477.05546,63.008261 1478.24527,61.8012745 1480.61493,61.5512277 L1480.86429,61.5287651 L1481.04522,61.5171029 L1481.31624,61.505546 L1481.5919,61.5002815 Z M1491.77784,64.2500723 L1492.14622,64.2588882 L1492.35399,64.2704017 L1492.50411,64.2822211 L1492.67406,64.2993939 C1494.42778,64.5003442 1495.40568,65.3965362 1495.67183,67.0753645 L1495.70139,67.2893006 L1495.71581,67.4253561 L1495.73236,67.6329614 L1495.74329,67.8454009 L1495.74979,68.1309607 L1495.7462,68.5020501 L1495.73823,68.708746 L1495.71947,68.9853801 C1495.58461,70.5490256 1494.94091,71.5312983 1493.71663,71.9732583 L1493.68566,71.9610864 C1495.44172,72.5869837 1496.90765,73.9465124 1497.59716,75.7908025 C1497.8632,76.5024058 1497.99958,77.254762 1498,78.0131538 C1498.0003,78.5578728 1497.55262,78.9996983 1497.00007,78.9999997 C1496.44752,79.000299 1495.99934,78.5589605 1495.99904,78.0142415 C1495.99874,77.4882726 1495.90416,76.9664875 1495.71965,76.4729679 C1494.93158,74.3650245 1492.67973,73.1697583 1490.47855,73.6605737 C1489.93961,73.7807449 1489.4039,73.4474606 1489.282,72.9161624 C1489.19314,72.5288781 1489.3487,72.1432824 1489.6483,71.9161529 C1488.56638,71.4776959 1487.96636,70.5877632 1487.80022,69.2190679 L1487.77755,68.9985533 L1487.76776,68.8671361 L1487.75697,68.6587175 L1487.75117,68.4414501 L1487.75089,68.1482302 L1487.75726,67.8958814 L1487.77493,67.5850615 C1487.92977,65.562069 1488.90634,64.5061082 1490.84942,64.292399 L1491.0693,64.2721133 L1491.2105,64.2630656 L1491.41976,64.2542079 L1491.63103,64.2500723 L1491.77784,64.2500723 Z M1491.758,66.249 L1491.48311,66.2530604 L1491.31982,66.2599542 L1491.05994,66.2801873 C1490.14693,66.3715687 1489.8785,66.641458 1489.78371,67.5717775 L1489.76944,67.7330284 L1489.75947,67.8892545 L1489.75069,68.1725704 L1489.75085,68.409387 L1489.76036,68.6849767 L1489.77114,68.8389344 C1489.84831,69.7473129 1490.05971,70.0367553 1490.7607,70.1697496 L1490.89796,70.1929655 L1491.0208,70.2098799 L1491.20156,70.2282911 L1491.49786,70.245424 L1491.76111,70.2502402 L1491.90929,70.249365 L1492.23098,70.2371283 L1492.48467,70.2143215 C1493.34243,70.112872 1493.60912,69.868028 1493.71024,68.9816605 L1493.72646,68.8184819 L1493.74703,68.4486346 L1493.75,68.267278 L1493.74822,68.0341704 L1493.73704,67.7690013 L1493.71404,67.5135558 C1493.61605,66.6879333 1493.38816,66.4220345 1492.61226,66.3076543 L1492.46026,66.287884 L1492.22321,66.2659926 L1492.06198,66.2569696 L1491.758,66.249 Z M1481.763,63.499 L1481.3796,63.5043984 L1481.15454,63.5139914 L1481.00494,63.5237912 C1479.45019,63.6407206 1478.94207,64.0993864 1478.79299,65.6015125 L1478.77678,65.7868211 L1478.75788,66.1182882 L1478.75092,66.395011 L1478.74996,66.5599713 L1478.75488,66.8789966 L1478.76443,67.1003231 L1478.77939,67.3134597 C1478.89609,68.6872437 1479.28895,69.1894012 1480.41171,69.3947462 L1480.56938,69.4209621 L1480.74181,69.4445648 L1480.99401,69.4701349 L1481.25232,69.4872776 L1481.5618,69.4980473 L1481.76709,69.5003125 L1481.97022,69.4990613 L1482.22163,69.4921379 L1482.55809,69.4713468 L1482.76871,69.4501214 C1484.08353,69.2946141 1484.54799,68.8407325 1484.69949,67.4691257 L1484.71751,67.2849651 L1484.73327,67.0677411 L1484.746,66.7700303 L1484.75,66.5225198 L1484.74747,66.2017889 L1484.73573,65.8998069 L1484.72124,65.6919654 L1484.69973,65.4787899 C1484.54939,64.2120378 1484.12498,63.7481163 1482.90209,63.5741546 L1482.73033,63.5521817 L1482.5455,63.5333382 L1482.39898,63.5218116 L1482.17602,63.5094442 L1481.763,63.499 Z"></path>
        </g>
    </g>
</svg>