<svg xmlns="http://www.w3.org/2000/svg" width="24" height="24" viewBox="0 0 24 24">
  <path d="M13.4243946,13.3739507 C16.6574745,14.4008644 19,17.4268726 19,21 C19,21.5522883 18.5522847,22.0000035 18,22 C17.4477153,22.0000035 17,21.5522883 17,21 C17,17.686297 14.3137062,15.000003 11,15 C7.68629345,15.0000035 4.9999995,17.6862973 5,21 C5.00000008,21.5522881 4.5522849,22.0000034 4,22 C3.4477154,22.0000036 3.00000008,21.5522884 3,21 C2.99999946,17.4268727 5.34252527,14.4008647 8.57560568,13.3739508 C7.0395069,12.5207004 6,10.8817451 6,9 C6,6.23857625 8.23857625,4 11,4 C11.5522847,4 12,4.44771525 12,5 C12,5.55228475 11.5522847,6 11,6 C9.34314575,6 8,7.34314575 8,9 C8,10.6568542 9.34314575,12 11,12 C12.6568542,12 14,10.6568542 14,9 C14,8.44771525 14.4477153,8 15,8 C15.5522847,8 16,8.44771525 16,9 C16,10.881745 14.9604932,12.5207002 13.4243946,13.3739507 L13.4243946,13.3739507 Z M19.7142789,0.716881286 C19.7052958,3.10708646 20.7929942,4.23790681 23.2993903,4.28592206 C24.2442728,4.30402326 24.2281054,5.71786672 23.283056,5.71435642 C20.948074,5.70568336 19.8376334,6.83764237 19.7133914,9.32147132 C19.6671965,10.2449941 18.2941119,10.216892 18.2857423,9.2922524 C18.263571,6.84285535 17.2202587,5.71436135 14.7142872,5.71436135 C13.7684129,5.71436135 13.7587098,4.29882488 14.7044953,4.28585815 C17.1487175,4.25234783 18.2770862,3.16215367 18.285711,0.711849171 C18.2893563,-0.24073661 19.7176336,-0.235493019 19.7142789,0.716881286 Z"/>
</svg>
