<?xml version="1.0" encoding="UTF-8"?>
<svg width="24px" height="24px" viewBox="0 0 24 24" version="1.1" xmlns="http://www.w3.org/2000/svg" xmlns:xlink="http://www.w3.org/1999/xlink">
    <title>person-g</title>
    <g id="Icons" stroke="none" stroke-width="1" fill="none" fill-rule="evenodd">
        <g id="Glyphs" transform="translate(-2416, -58)" fill="#000000" fill-rule="nonzero">
            <path d="M2428.49502,71.500812 C2429.83909,71.5078252 2430.76692,71.5626343 2431.84817,71.7471012 C2434.98792,72.2827556 2437,73.7475868 2437,76.5001 C2437,78.4330847 2435.43298,80.0001 2433.5,80.0001 L2422.5,80.0001 C2420.56701,80.0001 2419,78.4330876 2419,76.5001 C2419,73.7475868 2421.01208,72.2827556 2424.15183,71.7471012 C2425.23308,71.5626343 2426.16091,71.5078252 2427.50498,71.500812 L2428.49502,71.500812 Z M2428.46994,73.5007354 L2427.53006,73.5007354 L2426.82558,73.5102836 C2425.94007,73.5313838 2425.24795,73.5889937 2424.48817,73.7186156 C2422.19169,74.1104066 2421,74.9779764 2421,76.5001 C2421,77.3285193 2421.67158,78.0001 2422.5,78.0001 L2433.5,78.0001 C2434.32842,78.0001 2435,77.3285153 2435,76.5001 C2435,74.9779764 2433.80831,74.1104066 2431.51183,73.7186156 C2430.5621,73.5565883 2429.7181,73.5070795 2428.46994,73.5007354 Z M2428,60 C2430.7614,60 2433,62.2385875 2433,65 C2433,67.7614125 2430.7614,70 2428,70 C2425.23858,70 2423,67.7614247 2423,65 C2423,62.2385753 2425.23858,60 2428,60 Z M2428,62 C2426.34314,62 2425,63.3431447 2425,65 C2425,66.6568553 2426.34314,68 2428,68 C2429.65683,68 2431,66.6568399 2431,65 C2431,63.3431601 2429.65683,62 2428,62 Z" id="Shape"></path>
        </g>
    </g>
</svg>