<svg xmlns="http://www.w3.org/2000/svg" width="24" height="24" viewBox="0 0 24 24">
  <path d="M15.7979329,13.9726954 C15.4354953,13.776228 15.09495,13.5248593 14.7885323,13.2185893 C13.0791646,11.510045 13.0791646,8.73995001 14.7885323,7.03140572 C16.4979,5.32286143 19.2693301,5.32286143 20.9786978,7.03140572 C22.6880656,8.73995001 22.6880656,11.510045 20.9786978,13.2185893 C20.5935111,13.6035905 20.1543955,13.901836 19.6856554,14.1133258 C21.4417238,14.7479163 22.9076528,16.1263276 23.5971591,17.9962332 C23.8631976,18.71772 23.9995757,19.4805258 23.9999998,20.249451 C24.0003045,20.8017356 23.5526205,21.2496977 23.0000697,21.2500022 C22.4475188,21.2503067 21.9993409,20.8028384 21.9990362,20.2505537 C21.998742,19.7172796 21.9041591,19.1882474 21.719653,18.6878733 C20.9315772,16.5506525 18.6797309,15.3387851 16.4785495,15.8364175 C15.9396124,15.9582577 15.403899,15.6203444 15.282,15.081667 C15.1793429,14.6280202 15.4029071,14.1766585 15.7979329,13.9726954 L15.7979329,13.9726954 Z M5.55817333,12.8150826 C4.99388434,12.5663689 4.46528862,12.2109811 4.00300409,11.7489193 C2.00060518,9.74748499 2.00060518,6.50251001 4.00300409,4.50107572 C6.00540299,2.49964143 9.25194193,2.49964143 11.2543408,4.50107572 C13.2567397,6.50251001 13.2567397,9.74748499 11.2543408,11.7489193 C10.8184261,12.184624 10.3235496,12.5254774 9.79538277,12.7714796 C13.087125,13.6671594 15.5074704,16.6760684 15.5074704,20.2500035 C15.5074704,20.8022883 15.0595394,21.2500035 14.5069884,21.2500035 C13.9544375,21.2500035 13.5065065,20.8022883 13.5065065,20.2500035 C13.5065065,17.0743681 10.9309008,14.500003 7.75373521,14.5000035 C4.57656924,14.5000035 2.00096344,17.0743684 2.00096392,20.2500034 C2.00096401,20.8022881 1.55303304,21.2500034 1.00048211,21.2500035 C0.447931183,21.2500036 8.34326707e-08,20.8022884 0,20.2500037 C-5.31459133e-07,16.7320055 2.34517466,13.7614851 5.55817333,12.8150826 Z M9.83944567,10.3347057 C11.0604196,9.11432001 11.0604196,7.13567499 9.83944567,5.91528928 C8.61847179,4.69490357 6.63887313,4.69490357 5.41789924,5.91528928 C4.19692536,7.13567499 4.19692536,9.11432001 5.41789924,10.3347057 C6.63887313,11.5550914 8.61847179,11.5550914 9.83944567,10.3347057 Z M19.5638027,11.8043757 C20.4917454,10.87688 20.4917454,9.37311499 19.5638027,8.44561928 C18.63586,7.51812357 17.1313702,7.51812357 16.2034275,8.44561928 C15.2754847,9.37311499 15.2754847,10.87688 16.2034275,11.8043757 C17.1313702,12.7318714 18.63586,12.7318714 19.5638027,11.8043757 Z"/>
</svg>
