<?xml version="1.0" encoding="UTF-8"?>
<svg width="24px" height="24px" viewBox="0 0 24 24" version="1.1" xmlns="http://www.w3.org/2000/svg" xmlns:xlink="http://www.w3.org/1999/xlink">
    <title>person-assign-g</title>
    <g id="Icons" stroke="none" stroke-width="1" fill="none" fill-rule="evenodd">
        <g transform="translate(-3032.000000, -58.000000)" fill="#000000" fill-rule="nonzero" id="Shape">
            <path d="M3050,71 C3053.31371,71 3056,73.686293 3056,77 C3056,77.5522847 3055.55228,78 3055,78 C3054.44772,78 3054,77.5522847 3054,77 C3054,74.7908625 3052.20914,73 3050,73 C3047.79086,73 3046,74.7908625 3046,77 C3046,77.5522847 3045.55228,78 3045,78 C3044.44772,78 3044,77.5522847 3044,77 C3044,73.686293 3046.68629,71 3050,71 Z M3039.6129,65.2097046 L3039.70711,65.2928932 L3043.70711,69.2928932 C3044.06759,69.6533772 3044.09532,70.2206082 3043.7903,70.6128994 L3043.70711,70.7071068 L3039.70711,74.7071068 C3039.31658,75.0976311 3038.68342,75.0976311 3038.29289,74.7071068 C3037.93241,74.3466228 3037.90468,73.7793918 3038.2097,73.3871006 L3038.29289,73.2928932 L3040.585,70.9990723 L3033,71 C3032.44772,71 3032,70.5522847 3032,70 C3032,69.4871642 3032.38604,69.0644928 3032.88338,69.0067277 L3033,69 L3040.585,68.9990723 L3038.29289,66.7071068 C3037.93241,66.3466228 3037.90468,65.7793918 3038.2097,65.3871006 L3038.29289,65.2928932 C3038.65338,64.9324093 3039.22061,64.9046797 3039.6129,65.2097046 Z M3050.02784,62.0000723 L3050.39622,62.0088882 L3050.60399,62.0204017 L3050.75411,62.0322211 L3050.92406,62.0493939 C3052.67778,62.2503442 3053.65568,63.1465362 3053.92183,64.8253645 L3053.95139,65.0393006 L3053.96581,65.1753561 L3053.98236,65.3829614 L3053.99329,65.5954009 L3053.99979,65.8809607 L3053.9962,66.2520501 L3053.98823,66.458746 L3053.96947,66.7353801 C3053.80794,68.6082039 3052.91647,69.6470164 3051.17175,69.9223673 L3050.95828,69.9517493 L3050.7485,69.972656 L3050.43072,69.9923471 L3050.18963,69.9990656 L3050.00763,70.0001636 L3049.82474,69.9981478 L3049.53707,69.9881005 L3049.2881,69.9715428 L3049.02934,69.9450787 L3048.86518,69.9228129 C3047.16562,69.6665581 3046.26048,68.701202 3046.05022,66.9690679 L3046.02755,66.7485533 L3046.01776,66.6171361 L3046.00697,66.4087175 L3046.00117,66.1914501 L3046.00089,65.8982302 L3046.00726,65.6458814 L3046.02493,65.3350615 C3046.17977,63.312069 3047.15634,62.2561082 3049.09942,62.042399 L3049.3193,62.0221133 L3049.4605,62.0130656 L3049.66976,62.0042079 L3049.88103,62.0002114 L3050.02784,62.0000723 Z M3050.008,63.999 L3049.73311,64.0030604 L3049.56982,64.0099542 L3049.30994,64.0301873 C3048.39693,64.1215687 3048.1285,64.391458 3048.03371,65.3217775 L3048.01944,65.4830284 L3048.00947,65.6392545 L3048.00069,65.9225704 L3048.00085,66.159387 L3048.01036,66.4349767 L3048.02114,66.5889344 C3048.09831,67.4973129 3048.30971,67.7867553 3049.0107,67.9197496 L3049.14796,67.9429655 L3049.2708,67.9598799 L3049.45156,67.9782911 L3049.74786,67.995424 L3050.01111,68.0002402 L3050.15929,67.999365 L3050.48098,67.9871283 L3050.73467,67.9643215 C3051.59243,67.862872 3051.85912,67.618028 3051.96024,66.7316605 L3051.97646,66.5684819 L3051.99703,66.1986346 L3052,66.017278 L3051.99822,65.7841704 L3051.98704,65.5190013 L3051.96404,65.2635558 C3051.86605,64.4379333 3051.63816,64.1720345 3050.86226,64.0576543 L3050.71026,64.037884 L3050.47321,64.0159926 L3050.31198,64.0069696 L3050.008,63.999 Z"></path>
        </g>
    </g>
</svg>