<?xml version="1.0" encoding="UTF-8"?>
<svg width="24px" height="24px" viewBox="0 0 24 24" version="1.1" xmlns="http://www.w3.org/2000/svg" xmlns:xlink="http://www.w3.org/1999/xlink">
    <!-- Generator: Sketch 54.1 (76490) - https://sketchapp.com -->
    <title>bell copy 31</title>
    <desc>Created with Sketch.</desc>
    <g id="Icons" stroke="none" stroke-width="1" fill="none" fill-rule="evenodd">
        <path d="M10.8746998,7.9188106 C10.2703045,8.08435653 9.64512488,8.16858495 9.01594652,8.16808428 C7.3264419,8.16833868 5.70121149,7.55987622 4.43190147,6.46656851 C3.86008751,7.71260514 4.08728705,9.23526688 5.11350009,10.2614799 C6.43151687,11.5794967 8.56845313,11.5794967 9.88646991,10.2614799 C10.5343347,9.61361514 10.8637447,8.76788578 10.8746998,7.9188106 L10.8746998,7.9188106 Z M10.5599832,6.4490826 C10.3979727,6.101336 10.1734683,5.77550845 9.88646991,5.48851009 C8.64397512,4.24601529 6.67371981,4.17482069 5.34782408,5.2749263 C6.35494209,6.16932679 7.65904055,6.66828861 9.01643014,6.66808452 C9.53987027,6.66850087 10.0595253,6.59444327 10.5599832,6.4490826 L10.5599832,6.4490826 Z M16.5654878,14.0838941 C15.9228814,13.8959788 15.3170073,13.5486174 14.8101999,13.0418101 C13.1992867,11.4308969 13.1992867,8.81909313 14.8101999,7.20817991 C16.4211131,5.5972667 19.0329169,5.5972667 20.6438301,7.20817991 C22.2547433,8.81909313 22.2547433,11.4308969 20.6438301,13.0418101 C20.1363795,13.5492607 19.5296104,13.8968603 18.8860952,14.0846088 C20.981178,14.4813675 22.8217078,15.9363145 23.6127763,18.0826855 C23.8685001,18.7765334 23.9995906,19.5101175 23.9999983,20.2495863 C24.0002267,20.6637998 23.6646255,20.9997713 23.250412,20.9999997 C22.8361985,21.0002281 22.500227,20.6646269 22.4999986,20.2504134 C22.4996883,19.6876829 22.3999291,19.1294289 22.2053251,18.6014155 C21.293148,16.1264463 18.5473274,14.8595499 16.072366,15.7717253 C15.6837093,15.9149692 15.2525186,15.7160228 15.1092747,15.327366 C14.9660308,14.9387093 15.1649772,14.5075186 15.553634,14.3642747 C15.8881561,14.2409828 16.2264438,14.1479854 16.5654878,14.0838941 L16.5654878,14.0838941 Z M4.05283991,4.42784991 C5.95664313,2.5240467 9.04332687,2.5240467 10.9471301,4.42784991 C12.8509333,6.33165313 12.8509333,9.41833687 10.9471301,11.3221401 C9.04332687,13.2259433 5.95664313,13.2259433 4.05283991,11.3221401 C2.1490367,9.41833687 2.1490367,6.33165313 4.05283991,4.42784991 Z M1.5,20.250001 C1.50000006,20.6642145 1.16421368,21.000001 0.750000113,21.000001 C0.335786551,21.0000011 6.25445864e-08,20.6642147 0,20.250001 C-6.25445409e-07,16.1078677 3.35786623,12.750001 7.5,12.750001 C11.6421333,12.7500004 15,16.1078673 15,20.250001 C15,20.6642146 14.6642136,21.000001 14.25,21.000001 C13.8357864,21.000001 13.5,20.6642146 13.5,20.250001 C13.5,16.9362944 10.8137063,14.2500005 7.5,14.250001 C4.18629338,14.250001 1.4999995,16.9362947 1.5,20.250001 Z M19.5831699,11.9811499 C20.6082967,10.9560231 20.6082967,9.29396687 19.5831699,8.26884009 C18.5580431,7.2437133 16.8959869,7.2437133 15.8708601,8.26884009 C14.8457333,9.29396687 14.8457333,10.9560231 15.8708601,11.9811499 C16.8959869,13.0062767 18.5580431,13.0062767 19.5831699,11.9811499 Z" id="Shape" fill="#000000" fill-rule="nonzero"></path>
    </g>
</svg>