<svg xmlns="http://www.w3.org/2000/svg" width="24" height="24" viewBox="0 0 24 24">
  <path d="M9.57511148,12.3741078 C9.17692668,12.1531087 8.8025142,11.8735845 8.46446484,11.5355352 C6.51184505,9.58291538 6.51184505,6.41708462 8.46446484,4.46446484 C10.4170846,2.51184505 13.5829154,2.51184505 15.5355352,4.46446484 C17.4881549,6.41708462 17.4881549,9.58291538 15.5355352,11.5355352 C15.1974859,11.8735845 14.8230735,12.1531086 14.4248888,12.3741076 C17.6577132,13.4011728 20,16.4270546 20,20 C20,20.5522883 19.5522847,21.0000035 19,21 C18.4477153,21.0000035 18,20.5522883 18,20 C18,16.686297 15.3137062,14.000003 12,14 C8.68629345,14.0000035 5.9999995,16.6862973 6,20 C6.00000008,20.5522881 5.5522849,21.0000034 5,21 C4.4477154,21.0000036 4.00000008,20.5522884 4,20 C3.99999946,16.4270548 6.34228656,13.4011731 9.57511148,12.3741078 L9.57511148,12.3741078 Z M14.1213216,10.1213216 C15.2928928,8.9497504 15.2928928,7.0502496 14.1213216,5.8786784 C12.9497504,4.7071072 11.0502496,4.7071072 9.8786784,5.8786784 C8.7071072,7.0502496 8.7071072,8.9497504 9.8786784,10.1213216 C11.0502496,11.2928928 12.9497504,11.2928928 14.1213216,10.1213216 Z"/>
</svg>
