<?xml version="1.0" encoding="UTF-8"?>
<svg width="24px" height="24px" viewBox="0 0 24 24" version="1.1" xmlns="http://www.w3.org/2000/svg" xmlns:xlink="http://www.w3.org/1999/xlink">
    <title>person-return-g</title>
    <g id="Icons" stroke="none" stroke-width="1" fill="none" fill-rule="evenodd">
        <g transform="translate(-2438, -46)" fill="#000000" fill-rule="nonzero" id="Shape">
            <path d="M2450.34571,46 C2452.41678,46 2454.09571,47.6789322 2454.09571,49.75 C2454.09571,51.1694823 2453.30702,52.4047571 2452.14395,53.0415222 C2452.83912,53.3092802 2453.44384,53.6768324 2454.00958,54.1437932 L2454.2498,54.3500043 C2454.44778,54.5264951 2455.00425,55.062739 2455.06911,55.1221766 C2455.48739,55.5054971 2455.75641,55.6582999 2456.13265,55.6875237 L2456.27926,55.6928987 C2457.68756,55.6928987 2458.82921,56.8345506 2458.82921,58.2428496 C2458.82921,59.6511485 2457.68756,60.7928004 2456.27926,60.7928004 C2455.16245,60.7928004 2454.44704,60.6114488 2453.72343,60.1583421 L2453.50448,60.0140788 C2453.42941,59.9622367 2453.3504,59.905439 2453.26195,59.8400819 L2452.49407,59.2637233 L2452.24606,59.0859635 L2452.026,58.934 L2452.00519,59.2679883 C2451.99167,59.4450012 2451.97558,59.621827 2451.95691,59.7984093 L2451.915,60.141 L2453.91374,61.1799396 C2454.48079,61.4811312 2454.94712,61.7432471 2455.1024,61.8772202 C2455.42568,62.1561294 2455.66182,62.4704502 2455.95713,62.9905945 L2456.40823,63.8394481 C2456.70808,64.4157118 2457.12308,65.215628 2457.34157,65.6258604 L2457.38685,65.7231297 C2457.91116,67.0281389 2457.27988,68.5112625 2455.99637,69.0295221 C2455.36106,69.3027346 2454.64226,69.3073246 2454.00352,69.0422475 C2453.42284,68.8012684 2452.95325,68.3560583 2452.68095,67.7941873 L2452.636,67.693 L2451.554,65.665 L2450.538,65.118 L2450.52216,65.1579783 C2450.05746,66.2726308 2449.49748,67.3443541 2448.85018,68.3582804 L2448.51929,68.8603583 C2448.01526,69.6194404 2447.14455,70.0519642 2446.23515,69.995002 C2445.32575,69.9380398 2444.51582,69.4002456 2444.11045,68.5842012 C2443.70508,67.7681569 2443.76586,66.797839 2444.27097,66.0371399 C2445.78728,63.7631272 2446.68867,61.146189 2446.90223,58.4403287 L2446.909,58.329 L2446.7893,58.4340771 C2446.41174,58.782757 2446.15479,59.1925824 2446.1077,59.5738827 L2446.0999,59.6998033 C2446.0999,61.1081023 2444.95825,62.2497542 2443.54995,62.2497542 C2442.14165,62.2497542 2441,61.1081023 2441,59.6998033 C2441,56.0675342 2444.15904,52.975424 2447.8533,52.5498968 C2447.08143,51.8644772 2446.59571,50.8639614 2446.59571,49.75 L2446.60091,49.5508414 C2446.70098,47.6383104 2448.23402,46.1052753 2450.14655,46.005198 L2450.34571,46 Z M2448.71952,54.5 C2445.72568,54.5 2443,56.9427843 2443,59.6998033 C2443,60.0035328 2443.24622,60.2497542 2443.54995,60.2497542 C2443.85368,60.2497542 2444.0999,60.0035328 2444.0999,59.7015571 C2444.09669,57.8703559 2445.77721,56.2197025 2447.69454,55.7246525 C2448.31596,55.5642043 2448.9255,56.0223598 2448.94412,56.6638865 C2449.05214,60.3856262 2448.00057,64.0489111 2445.93604,67.1450793 C2445.82726,67.308904 2445.81414,67.5183175 2445.90163,67.6944357 C2445.98912,67.8705539 2446.16392,67.9866203 2446.36018,67.9989139 C2446.55645,68.0112074 2446.74436,67.9178604 2446.85931,67.744859 C2447.78216,66.3878236 2448.52445,64.9164392 2449.06747,63.3677863 C2449.27081,62.7878832 2449.94418,62.5268618 2450.48524,62.8182054 L2452.76884,64.0478331 C2452.94233,64.1412538 2453.08436,64.2838495 2453.17709,64.4577159 L2454.41705,66.7826422 L2454.46413,66.8842471 C2454.51998,67.0249066 2454.63034,67.1369939 2454.77012,67.1950025 C2454.9099,67.2530111 2455.0672,67.2520066 2455.22672,67.183674 C2455.47671,67.0826817 2455.61206,66.818726 2455.55963,66.5636426 L2455.54,66.497 L2454.31406,64.1513502 L2454.16569,63.8871623 C2454.00912,63.6196245 2453.90493,63.4855701 2453.79594,63.3915337 C2453.75704,63.3579749 2453.61063,63.2756709 2453.3942,63.160903 L2451.53241,62.2010116 C2451.10155,61.9776508 2450.6797,61.7550029 2450.33915,61.5644451 C2449.97151,61.3587317 2449.77222,60.944675 2449.84079,60.5290118 C2450.02119,59.4353672 2450.0897,58.3261869 2450.04525,57.2186539 C2450.01419,56.4448219 2450.83666,55.9309099 2451.51854,56.2980789 C2452.24405,56.6887334 2452.83367,57.0545247 2453.39506,57.4489475 L2453.74601,57.7036792 C2453.97084,57.8731342 2454.63181,58.3674081 2454.78485,58.463237 C2455.16997,58.7043901 2455.51874,58.7928004 2456.27926,58.7928004 C2456.58299,58.7928004 2456.82921,58.546579 2456.82921,58.2428496 C2456.82921,57.9391201 2456.58299,57.6928987 2456.27926,57.6928987 C2455.24554,57.6928987 2454.52433,57.3357242 2453.71787,56.5966748 L2452.98593,55.90399 C2452.95965,55.879696 2452.93693,55.8589577 2452.91891,55.8428944 C2451.89811,54.9328631 2450.79151,54.5 2448.71952,54.5 Z M2450.34571,48 C2449.37921,48 2448.59571,48.7835017 2448.59571,49.75 C2448.59571,50.6681734 2449.30282,51.4211923 2450.20218,51.4941988 L2450.34571,51.5 C2451.31221,51.5 2452.09571,50.7164983 2452.09571,49.75 C2452.09571,48.7835017 2451.31221,48 2450.34571,48 Z"></path>
        </g>
    </g>
</svg>