<?xml version="1.0" encoding="UTF-8"?>
<svg width="24px" height="24px" viewBox="0 0 24 24" version="1.1" xmlns="http://www.w3.org/2000/svg" xmlns:xlink="http://www.w3.org/1999/xlink">
    <title>person-g</title>
    <g id="Icons" stroke="none" stroke-width="1" fill="none" fill-rule="evenodd">
        <g transform="translate(-2416.000000, -58.000000)" fill="#000000" fill-rule="nonzero" id="Shape">
            <path d="M2427.8419,61.0002815 L2428.22882,61.00259 L2428.51026,61.0113628 L2428.77976,61.0262207 L2428.97215,61.0412919 L2429.19413,61.0636916 C2431.39878,61.3163117 2432.58502,62.4112667 2432.90599,64.5242412 L2432.93708,64.7545348 L2432.95577,64.9304536 L2432.97711,65.197636 L2432.99122,65.4709728 L2432.99972,65.8417985 L2432.99988,66.0365199 L2432.99517,66.3234459 L2432.9848,66.5936289 L2432.96769,66.8639418 L2432.93629,67.1922645 C2432.74248,68.8641508 2432.07114,69.9501715 2430.83599,70.5180814 C2433.85422,71.6615927 2436,74.5802109 2436,78 C2436,78.5522847 2435.55228,79 2435,79 C2434.44772,79 2434,78.5522847 2434,78 C2434,74.6862936 2431.31371,72 2428,72 C2424.68629,72 2422,74.6862936 2422,78 C2422,78.5522847 2421.55228,79 2421,79 C2420.44772,79 2420,78.5522847 2420,78 C2420,74.5775823 2422.14908,71.6571062 2425.17136,70.5144527 C2423.93423,69.9530394 2423.25787,68.8820954 2423.06263,67.2375241 L2423.03579,66.9730786 L2423.02306,66.8024939 L2423.00909,66.533178 L2423.00154,66.2524019 L2423.00001,66.0633175 L2423.0048,65.6825081 L2423.01561,65.4022459 L2423.02603,65.2254956 L2423.05428,64.8958747 C2423.30546,62.508261 2424.49527,61.3012745 2426.86493,61.0512277 L2427.11429,61.0287651 L2427.29522,61.0171029 L2427.56624,61.005546 L2427.8419,61.0002815 Z M2428.013,62.999 L2427.6296,63.0043984 L2427.40454,63.0139914 L2427.25494,63.0237912 C2425.70019,63.1407206 2425.19207,63.5993864 2425.04299,65.1015125 L2425.02678,65.2868211 L2425.00788,65.6182882 L2425.00092,65.895011 L2424.99996,66.0599713 L2425.00488,66.3789966 L2425.01443,66.6003231 L2425.02939,66.8134597 C2425.14609,68.1872437 2425.53895,68.6894012 2426.66171,68.8947462 L2426.81938,68.9209621 L2426.99181,68.9445648 L2427.24401,68.9701349 L2427.50232,68.9872776 L2427.8118,68.9980473 L2428.01709,69.0003125 L2428.22022,68.9990613 L2428.47163,68.9921379 L2428.80809,68.9713468 L2429.01871,68.9501214 C2430.33353,68.7946141 2430.79799,68.3407325 2430.94949,66.9691257 L2430.96751,66.7849651 L2430.98327,66.5677411 L2430.996,66.2700303 L2431,66.0225198 L2430.99747,65.7017889 L2430.98573,65.3998069 L2430.97124,65.1919654 L2430.94973,64.9787899 C2430.79939,63.7120378 2430.37498,63.2481163 2429.15209,63.0741546 L2428.98033,63.0521817 L2428.7955,63.0333382 L2428.64898,63.0218116 L2428.42602,63.0094442 L2428.013,62.999 Z"></path>
        </g>
    </g>
</svg>