<svg xmlns="http://www.w3.org/2000/svg" width="24" height="24" viewBox="0 0 24 24">
  <path d="M3.96446484,3.46446484 C5.91708462,1.51184505 9.08291538,1.51184505 11.0355352,3.46446484 C12.9881549,5.41708462 12.9881549,8.58291538 11.0355352,10.5355352 C9.08291538,12.4881549 5.91708462,12.4881549 3.96446484,10.5355352 C2.01184505,8.58291538 2.01184505,5.41708462 3.96446484,3.46446484 Z M9.6213216,9.1213216 C10.7928928,7.9497504 10.7928928,6.0502496 9.6213216,4.8786784 C8.4497504,3.7071072 6.5502496,3.7071072 5.3786784,4.8786784 C4.2071072,6.0502496 4.2071072,7.9497504 5.3786784,9.1213216 C6.5502496,10.2928928 8.4497504,10.2928928 9.6213216,9.1213216 Z M15.0542823,4.70828361 C14.5945998,5.01440526 13.9737929,4.88991961 13.6676712,4.43023713 C13.3615496,3.97055466 13.4860352,3.34974775 13.9457177,3.0436261 C14.202503,2.87262215 14.4744166,2.72780484 14.7578311,2.61053799 C15.3345973,2.37189269 15.9526982,2.25 16.5756462,2.25 C17.8263777,2.25 19.0321044,2.73894137 19.9344046,3.64124161 C21.7893934,5.49623043 21.7893934,8.50376957 19.9344046,10.3587584 C19.0321044,11.2610586 17.8263777,11.75 16.5756462,11.75 C15.9526982,11.75 15.3345973,11.6281073 14.7578311,11.389462 C14.4744166,11.2721952 14.202503,11.1273779 13.9457177,10.9563739 C13.4860352,10.6502522 13.3615496,10.0294453 13.6676712,9.56976287 C13.9737929,9.11008039 14.5945998,8.98559474 15.0542823,9.29171639 C15.2023775,9.39033913 15.3590796,9.47379642 15.5224894,9.54140959 C15.8558866,9.67935748 16.214105,9.75 16.5756462,9.75 C17.3012034,9.75 17.9968191,9.46791677 18.5201911,8.94454483 C19.5941313,7.87060459 19.5941313,6.12939541 18.5201911,5.05545517 C17.9968191,4.53208323 17.3012034,4.25 16.5756462,4.25 C16.214105,4.25 15.8558866,4.32064252 15.5224894,4.45859041 C15.3590796,4.52620358 15.2023775,4.60966087 15.0542823,4.70828361 Z M2,20.7500035 C2.00000008,21.3022881 1.5522849,21.7500034 1,21.7500035 C0.447715401,21.7500036 8.33924787e-08,21.3022884 0,20.7500035 C-6.25444954e-07,16.6078701 3.35786616,13.2500035 7.5,13.2500035 C11.6421334,13.2500029 15,16.6078697 15,20.7500035 C15,21.3022883 14.5522847,21.7500035 14,21.7500035 C13.4477153,21.7500035 13,21.3022883 13,20.7500035 C13,17.7124392 10.537564,15.2500031 7.5,15.2500035 C4.46243569,15.2500035 1.99999954,17.7124395 2,20.7500035 Z M15.6955074,15.308288 C15.1490422,15.3882517 14.6412212,15.0100776 14.5612574,14.4636124 C14.4812936,13.9171471 14.8594678,13.4093261 15.405933,13.3293623 C15.7662541,13.2766369 16.1316278,13.2500035 16.4999998,13.2500035 C20.6421334,13.2500029 24,16.6078697 24,20.7500035 C24,21.3022883 23.5522847,21.7500035 23,21.7500035 C22.4477153,21.7500035 22,21.3022883 22,20.7500035 C22,17.7124392 19.537564,15.2500031 16.5,15.2500035 C16.2286133,15.2500035 15.9600182,15.2695823 15.6955074,15.308288 Z"/>
</svg>
