<svg xmlns="http://www.w3.org/2000/svg" width="24" height="24" viewBox="0 0 24 24">
  <path d="M3040.58579,69 L3038.29289,66.7071068 C3037.90237,66.3165825 3037.90237,65.6834175 3038.29289,65.2928932 C3038.68342,64.9023689 3039.31658,64.9023689 3039.70711,65.2928932 L3043.70711,69.2928932 C3044.09763,69.6834175 3044.09763,70.3165825 3043.70711,70.7071068 L3039.70711,74.7071068 C3039.31658,75.0976311 3038.68342,75.0976311 3038.29289,74.7071068 C3037.90237,74.3165825 3037.90237,73.6834175 3038.29289,73.2928932 L3040.58579,71 L3033,71 C3032.44772,71 3032,70.5522847 3032,70 C3032,69.4477153 3032.44772,69 3033,69 L3040.58579,69 Z M3050,70 C3047.79086,70 3046,68.209139 3046,66 C3046,63.790861 3047.79086,62 3050,62 C3052.20914,62 3054,63.790861 3054,66 C3054,68.209139 3052.20914,70 3050,70 Z M3050,68 C3051.10457,68 3052,67.1045695 3052,66 C3052,64.8954305 3051.10457,64 3050,64 C3048.89543,64 3048,64.8954305 3048,66 C3048,67.1045695 3048.89543,68 3050,68 Z M3046,77 C3046,77.5522846 3045.55228,77.9999999 3045,78 C3044.44772,78.0000001 3044,77.5522849 3044,77 C3044,73.6862932 3046.68629,71 3050,71 C3053.31371,70.9999995 3056,73.6862929 3056,77 C3056,77.5522847 3055.55228,78 3055,78 C3054.44772,78 3054,77.5522847 3054,77 C3054,74.7908624 3052.20914,72.9999997 3050,73 C3047.79086,73 3046,74.7908626 3046,77 Z" transform="translate(-3032 -58)"/>
</svg>
