<svg xmlns="http://www.w3.org/2000/svg" width="24" height="24" viewBox="0 0 24 24">
  <path d="M2589.24172,77 C2590.44794,77 2591.52548,77.7334755 2591.97355,78.8393176 L2592.03899,79.016966 L2593.13284,82.2994702 C2593.46625,83.2969341 2593.24213,84.3911322 2592.55558,85.175436 L2592.42146,85.3187621 L2591.952,85.788 L2592.07009,85.9624017 C2592.8429,87.0797394 2593.58017,87.8407884 2594.72491,88.6835395 L2595.01984,88.8961829 L2595.222,89.037 L2595.68124,88.5785437 C2596.37772,87.8820605 2597.36798,87.5856828 2598.32089,87.7674153 L2598.51087,87.8101597 L2598.69927,87.8657924 L2601.98181,88.9606032 C2603.12701,89.3414048 2603.91775,90.3776736 2603.99396,91.5689666 L2604,91.7582808 L2604,95.1365058 C2604,96.825912 2602.59257,98.1531812 2600.95052,97.986751 C2591.48079,97.0489557 2583.95104,89.5192135 2583.01371,80.0540568 C2582.85257,78.4642063 2584.08433,77.0973483 2585.69007,77.0049726 L2585.86349,77 L2589.24172,77 Z M2589.24172,79 L2585.86349,79 L2585.74828,79.0064355 C2585.26302,79.0615144 2584.96385,79.461043 2585.00351,79.8523872 C2585.84736,88.3734114 2592.62659,95.1526423 2601.14761,95.9964866 C2601.53896,96.0361499 2601.93849,95.7369756 2601.99356,95.2517212 L2602,95.1365058 L2602,91.7582808 L2601.9923,91.637388 C2601.95161,91.3196545 2601.75242,91.043109 2601.46326,90.9039781 L2601.35074,90.8584333 L2598.06649,89.7630493 L2597.95182,89.7328024 C2597.68221,89.6793916 2597.40188,89.745353 2597.18453,89.9141619 L2597.09545,89.9927573 L2596.56959,90.5186175 L2596.44754,90.6304544 C2595.81687,91.1595616 2594.89145,91.2350902 2594.18044,90.7483254 C2592.38454,89.5200526 2591.33946,88.4816209 2590.22415,86.8034243 C2589.75162,86.0915197 2589.83805,85.1810604 2590.35986,84.5616546 L2590.46999,84.4417993 L2591.00724,83.9045485 L2591.08584,83.8154677 C2591.25464,83.5981151 2591.32053,83.3177907 2591.26653,83.0481849 L2591.236,82.9335106 L2590.14157,79.6492571 L2590.09602,79.5367391 C2589.95689,79.2475805 2589.68035,79.0483915 2589.36261,79.0076971 L2589.24172,79 Z M2599,79 C2600.65685,79 2602,80.3431458 2602,82 C2602,82.5522847 2601.55228,83 2601,83 C2600.48716,83 2600.06449,82.6139598 2600.00673,82.1166211 L2600,82 C2600,81.4871642 2599.61396,81.0644928 2599.11662,81.0067277 L2599,81 C2598.44772,81 2598,80.5522847 2598,80 C2598,79.4477153 2598.44772,79 2599,79 Z M2599,75 C2602.86599,75 2606,78.1340068 2606,82 C2606,82.5522847 2605.55228,83 2605,83 C2604.44772,83 2604,82.5522847 2604,82 C2604,79.2385763 2601.76142,77 2599,77 C2598.44772,77 2598,76.5522847 2598,76 C2598,75.4477153 2598.44772,75 2599,75 Z" transform="translate(-2583 -74)"/>
</svg>
