<?xml version="1.0" encoding="UTF-8"?>
<svg width="24px" height="24px" viewBox="0 0 24 24" version="1.1" xmlns="http://www.w3.org/2000/svg" xmlns:xlink="http://www.w3.org/1999/xlink">
    <title>phone-call-g</title>
    <g id="Icons" stroke="none" stroke-width="1" fill="none" fill-rule="evenodd">
        <g transform="translate(-2583.000000, -74.000000)" fill="#000000" fill-rule="nonzero" id="Shape">
            <path d="M2586.37196,77.7221744 C2587.18459,77.3759942 2588.11002,77.4050467 2588.90942,77.8117824 L2588.98447,77.8516215 L2589.12418,77.9332522 L2589.25918,78.0248798 L2589.32835,78.0772149 L2589.47687,78.2004728 L2589.64812,78.3559075 L2589.85307,78.5523913 L2590.70489,79.4038577 L2590.91779,79.6311876 C2591.04137,79.7693915 2591.13305,79.886916 2591.22159,80.0198774 C2591.82718,80.9634789 2591.86083,82.1505208 2591.45597,82.6661605 L2591.38,82.75 L2591.23328,83.27145 L2591.1671,83.3761527 L2591.06265,83.5192445 L2590.97142,83.6266366 L2590.77104,83.8422451 L2590.39047,84.2353654 L2590.359,84.274 L2590.42182,84.4078798 C2591.01055,85.6365363 2591.79225,86.7808738 2592.75099,87.8057431 L2592.996,88.058 L2593.2473,88.3016777 C2593.92621,88.9357645 2594.66192,89.4947912 2595.43814,89.97096 L2595.82956,90.2021034 L2596.22727,90.4192207 L2596.758,90.687 L2596.787,90.68 L2596.88289,90.5928932 L2597.12372,90.3547645 L2597.31625,90.1719919 L2597.4752,90.0324073 L2597.61524,89.923843 L2597.68276,89.8773909 L2597.68276,89.8773909 L2597.93089,89.724704 C2598.84327,89.2117647 2599.94672,89.211756 2600.85889,89.7245549 L2601.03866,89.8339521 L2601.131,89.8936405 L2601.18724,89.9334623 L2601.30153,90.0233333 L2601.43008,90.1368486 L2601.5871,90.2860177 L2602.39231,91.0856039 L2602.62748,91.3269899 L2602.72688,91.4336666 L2602.89545,91.6268818 C2603.04632,91.8098292 2603.14897,91.968288 2603.24755,92.1590961 C2603.6321,92.941927 2603.66168,93.8505298 2603.32895,94.667276 L2603.23822,94.8694229 L2603.16001,95.0092915 L2603.0788,95.1387246 L2602.99403,95.2596621 L2602.89491,95.384876 L2602.77068,95.5271386 L2602.61056,95.6992222 L2602.13954,96.1839411 L2601.96711,96.3671068 L2601.45458,96.8710999 L2601.26117,97.0503745 L2601.09264,97.1951248 L2600.93619,97.3158184 L2600.85851,97.3704151 L2600.85851,97.3704151 L2600.77906,97.422923 L2600.60847,97.5269063 C2600.06079,97.8418225 2599.26972,98.05 2598.64,98.05 C2598.52326,98.05 2598.41979,98.0468584 2598.31884,98.0388994 L2598.16794,98.0231383 L2597.93095,97.9831978 L2597.80029,97.9547443 L2597.49758,97.8782192 L2597.11696,97.7720017 C2593.85191,96.8452887 2590.8526,95.0968104 2588.40289,92.6471068 C2586.06374,90.3079575 2584.37358,87.4866177 2583.41653,84.3997203 L2583.27848,83.9347211 L2583.17204,83.5533399 L2583.09538,83.2501421 L2583.06688,83.1193199 L2583.02688,82.8821447 C2583.00707,82.7303474 2583,82.5851145 2583,82.41 C2583,81.8396538 2583.16519,81.1485415 2583.41736,80.6371272 L2583.51584,80.4543571 L2583.62707,80.2656578 L2583.74652,80.0896981 L2583.81306,80.0018911 L2583.81306,80.0018911 L2583.88614,79.9117435 L2584.05787,79.7170595 L2584.27365,79.4909115 L2584.70606,79.0604628 L2584.84289,78.9328932 L2585.34883,78.4346642 L2585.53802,78.2586096 L2585.73675,78.0896707 L2585.73675,78.0896707 L2585.91366,77.9616528 L2586.054,77.8772617 L2586.20525,77.7994484 L2586.37196,77.7221744 Z M2587.99654,79.591278 C2587.75219,79.4669603 2587.47268,79.4492006 2587.21828,79.537999 L2587.09346,79.591278 L2587.02564,79.628481 L2586.96442,79.6728273 L2586.77791,79.8369106 L2586.23394,80.3695372 L2586.09034,80.5038088 L2585.85466,80.7366299 L2585.5968,81.0001402 L2585.47527,81.133844 L2585.38331,81.2461143 L2585.31174,81.3473587 L2585.25137,81.447985 C2585.13588,81.6438157 2585.03369,81.997397 2585.00685,82.2772747 L2585,82.41 L2585.00075,82.4720909 L2585.00841,82.5908055 L2585.02795,82.7201481 L2585.06378,82.8816201 L2585.15775,83.2311043 L2585.34001,83.8496997 C2586.20436,86.6130076 2587.72037,89.1361522 2589.81711,91.2328932 C2591.90791,93.3237003 2594.44119,94.8463877 2597.20244,95.7105602 L2597.66472,95.8484761 L2598.16881,95.9863405 L2598.36447,96.0283279 L2598.36447,96.0283279 L2598.51855,96.0466349 L2598.64,96.05 C2598.92228,96.05 2599.36934,95.9323548 2599.60613,95.7962211 L2599.65412,95.7673876 L2599.74786,95.7047608 L2599.84782,95.6274089 L2599.96502,95.5255973 L2600.1105,95.3895915 L2600.53046,94.9760589 L2600.69632,94.7995323 L2600.92403,94.5667462 L2601.22656,94.2504083 L2601.35384,94.1064184 L2601.40753,94.0370668 L2601.45232,93.9679913 L2601.50515,93.8411337 C2601.59312,93.5802313 2601.5767,93.2937779 2601.46178,93.0594229 C2601.44865,93.0340388 2601.43218,93.0069382 2601.41028,92.9759371 L2601.37309,92.9262372 L2601.26806,92.8027334 L2601.19709,92.7256536 L2601.01043,92.5326484 L2600.30247,91.8277486 L2600.06663,91.6029098 L2599.99638,91.5442713 L2599.94134,91.5060479 L2599.82616,91.44049 C2599.55123,91.3067599 2599.23608,91.3080838 2598.94469,91.4525703 L2598.79795,91.5387503 L2598.73778,91.5856441 L2598.59702,91.7129962 L2598.26572,92.0371541 L2598.04654,92.2356148 C2598.00241,92.2728032 2597.96312,92.3029404 2597.92802,92.3260245 C2597.44014,92.6716066 2596.77702,92.7748788 2596.12888,92.5863292 C2596.04831,92.5561175 2595.97584,92.5259228 2595.89355,92.4876823 L2595.7605,92.4232793 L2595.31363,92.1982625 C2594.22741,91.6290835 2593.20869,90.9331383 2592.26798,90.111321 L2591.86963,89.7514098 L2591.749,89.635 L2591.66289,89.5571068 C2590.62472,88.5189321 2589.75047,87.3614683 2589.05173,86.1083675 L2588.82534,85.6871576 L2588.61204,85.2590582 L2588.51831,85.0551665 L2588.44494,84.8663992 C2588.27977,84.3342 2588.35537,83.7375848 2588.59502,83.3226463 L2588.71825,83.1260915 C2588.74832,83.0784817 2588.77765,83.0378812 2588.81282,82.9955074 L2588.87078,82.9295189 L2589.2296,82.5628421 L2589.32121,82.4779473 C2589.41057,82.4030794 2589.44003,82.4148653 2589.42418,82.5347019 L2589.41466,82.5927382 L2589.38,82.75 L2589.53841,82.2098774 C2589.7572,81.8689848 2589.7572,81.4410152 2589.54795,81.1147002 L2589.52177,81.0778155 L2589.44625,80.9858971 L2589.24977,80.7762135 L2588.71545,80.2399004 L2588.29723,79.831638 L2588.14924,79.6987202 L2588.07855,79.6428213 L2587.99654,79.591278 Z M2596.41222,80.0286488 C2597.58867,80.2590865 2598.66698,80.8308709 2599.49711,81.6728932 C2600.33775,82.5135378 2600.91317,83.5928278 2601.14135,84.7577766 C2601.24751,85.2997619 2600.89421,85.8251891 2600.35222,85.9313512 C2599.81024,86.0375133 2599.28481,85.6842087 2599.17865,85.1422234 C2599.02694,84.3676849 2598.64262,83.6468326 2598.0779,83.0820742 C2597.52797,82.5242869 2596.81296,82.1451507 2596.02778,81.9913512 C2595.48579,81.8851891 2595.13249,81.3597619 2595.23865,80.8177766 C2595.34481,80.2757913 2595.87024,79.9224867 2596.41222,80.0286488 Z M2596.20161,75.9999401 L2596.31827,76.0058785 C2598.56577,76.2506554 2600.67674,77.2625268 2602.27711,78.8628932 C2603.87745,80.4632357 2604.88821,82.5629549 2605.14364,84.8174198 C2605.20582,85.3661935 2604.81135,85.8614663 2604.26258,85.9236426 C2603.71381,85.985819 2603.21853,85.5913539 2603.15636,85.0425802 C2602.95185,83.2375697 2602.14292,81.5571366 2600.86289,80.2771068 C2599.58469,78.9989018 2597.89624,78.1895633 2596.10173,77.9941215 C2595.55269,77.9343252 2595.15608,77.4407675 2595.21588,76.8917293 C2595.2714,76.3819082 2595.70094,76.0035184 2596.20161,75.9999401 Z"></path>
        </g>
    </g>
</svg>