<?xml version="1.0" encoding="UTF-8"?>
<svg width="25px" height="25px" viewBox="0 0 25 25" version="1.1" xmlns="http://www.w3.org/2000/svg" xmlns:xlink="http://www.w3.org/1999/xlink">
    <!-- Generator: Sketch 54.1 (76490) - https://sketchapp.com -->
    <title>bell copy 81</title>
    <desc>Created with Sketch.</desc>
    <g id="Icons" stroke="none" stroke-width="1" fill="none" fill-rule="evenodd">
        <path d="M10.3156418,23.2464816 C8.6873452,22.2106214 7.17739845,20.9995319 5.81283817,19.6348979 L4.36870094,18.1907595 C3.00307998,16.8255442 1.79084794,15.3148931 0.75376076,13.6858858 C0.733816202,13.6545579 0.715696919,13.6222462 0.699450294,13.5891135 C-0.450247191,11.6965346 -0.161486638,9.25674002 1.41063746,7.68467473 L2.43007915,6.66523303 C3.31774822,5.77836243 4.75558735,5.77836241 5.64294449,6.66491061 L7.89050648,8.91247245 C8.7773771,9.8001415 8.77737713,11.2379806 7.89082892,12.1253378 L7.40565802,12.6105088 L7.40442258,12.6117434 C7.29852873,12.7178777 7.2987233,12.8897603 7.40485665,12.9956535 L11.0036066,16.5944026 C10.920023,16.5109405 10.9910797,16.5168843 11.1772451,16.4663935 C11.4579379,16.3902655 11.7534447,16.2303318 11.8749129,16.1090401 C12.7620677,15.2226835 14.1999068,15.2226835 15.0872639,16.1092317 L17.3348259,18.3567935 C18.2216965,19.2444626 18.2216965,20.6823017 17.3351483,21.5696589 L16.315371,22.5894363 C14.7415498,24.162516 12.2992906,24.4503065 10.4059957,23.297577 C10.3751066,23.2821674 10.3449443,23.2651227 10.3156418,23.2464816 Z M7.22708054,18.2207131 C8.46821296,19.4619127 9.83945832,20.5656836 11.3170133,21.5129358 C11.3445047,21.5270349 11.371403,21.5424392 11.397613,21.559121 C12.5112325,22.2679031 13.967689,22.1082513 14.9013241,21.1750562 L15.9206124,20.1557679 C16.0266479,20.0496354 16.0266479,19.8771383 15.9202942,19.7706888 L13.6733729,17.5237676 C13.5672405,17.4177321 13.3947433,17.4177321 13.2882938,17.5240858 C12.3593355,18.4516943 10.5299881,18.9478402 9.5899091,18.0091318 L5.99144444,14.4106676 C5.10417966,13.5254113 5.10255166,12.0872013 5.9922521,11.1954886 L6.47629297,10.7114468 C6.58232848,10.6053144 6.58232847,10.4328172 6.47597478,10.3263677 L4.22905346,8.07944656 C4.12292106,7.97341105 3.95042388,7.97341105 3.84397442,8.07976475 L2.8248378,9.09890151 C1.89141959,10.0322848 1.73176082,11.4888156 2.44080587,12.6022363 C2.45864032,12.6302419 2.47501596,12.6590339 2.48989892,12.6884962 C3.43774459,14.1651748 4.5417188,15.5357189 5.78280976,16.7764412 L7.22708054,18.2207131 Z M18.3349455,9.00000524 L14.9227814,11.5746261 C14.3937437,11.9738072 13.6412736,11.8685377 13.2420924,11.3394999 C13.0849867,11.1312866 13,10.8775536 13,10.6167185 L13,2.50000524 C12.9999998,1.11929358 14.1192882,5.24448644e-06 15.5,5.24448644e-06 L21.5,5.24448644e-06 C22.8807116,5.1841336e-06 23.9999999,1.11929345 24,2.50000524 L24,6.50000524 C23.9999999,7.88071718 22.8807116,9.00000546 21.5,9.00000524 L18.3349455,9.00000524 Z M17.3976821,7.20174891 C17.5711932,7.07082751 17.7826374,7.00000524 18,7.00000524 L21.5,7.00000524 C21.7761423,7.00000529 22,6.77614757 22,6.50000524 L22,2.50000524 C22,2.22386302 21.7761422,2.00000523 21.5,2.00000524 L15.5,2.00000524 C15.2238577,2.00000524 15,2.22386299 15,2.50000524 L15,9.01090059 L17.3976821,7.20174891 Z M18.5,5.5 C17.9477153,5.5 17.5,5.05228475 17.5,4.5 C17.5,3.94771525 17.9477153,3.5 18.5,3.5 C19.0522847,3.5 19.5,3.94771525 19.5,4.5 C19.5,5.05228475 19.0522847,5.5 18.5,5.5 Z" id="Shape" fill="#000000" fill-rule="nonzero"></path>
    </g>
</svg>