<svg xmlns="http://www.w3.org/2000/svg" width="25" height="24" viewBox="0 0 25 24">
  <path d="M7.5,17 L17.5,17 L17.5,4 C17.5,3.44771525 17.0522847,3 16.5,3 L15,3 C15,3.55228475 14.5522847,4 14,4 L11,4 C10.4477153,4 10,3.55228475 10,3 L8.5,3 C7.94771525,3 7.5,3.44771525 7.5,4 L7.5,17 Z M7.5,19 L7.5,20 C7.5,20.5522847 7.94771525,21 8.5,21 L16.5,21 C17.0522847,21 17.5,20.5522847 17.5,20 L17.5,19 L7.5,19 Z M8.5,1 L16.5,1 C18.1568542,1 19.5,2.34314575 19.5,4 L19.5,20 C19.5,21.6568542 18.1568542,23 16.5,23 L8.5,23 C6.84314575,23 5.5,21.6568542 5.5,20 L5.5,4 C5.5,2.34314575 6.84314575,1 8.5,1 Z"/>
</svg>
