<svg xmlns="http://www.w3.org/2000/svg" width="24" height="24" viewBox="0 0 24 24">
  <path d="M3.74999969,6.25 L3.74999968,17.4999994 L14.2499997,17.4999994 L14.2499997,14.9999994 C14.25,14.5857864 14.5857864,14.25 15,14.25 C15.4142136,14.25 15.75,14.5857864 15.7499997,14.9999994 L15.75,20.518 C15.75,22.4410537 14.1910536,24.0000002 12.2669998,24 L5.73327436,23.9999999 C3.81021998,24.0007039 2.2507009,22.4423269 2.24999968,20.5179998 L2.24999968,4.98299971 C2.24999997,3.05939581 3.80939612,1.49999941 5.73299968,1.49999941 L8.99999968,1.49999941 C9.41421324,1.49999941 9.74999968,1.83578584 9.74999968,2.24999941 C9.74999968,2.66421297 9.41421324,2.99999941 8.99999968,2.99999941 L5.73299968,2.99999941 C4.71664859,2.99999941 3.8788762,3.76462005 3.76354384,4.75 L9,4.75 C9.41421356,4.75 9.75,5.08578644 9.74999968,5.49999941 C9.75,5.91421356 9.41421356,6.25 9,6.25 L3.74999969,6.25 Z M3.7499998,19 L3.74999981,20.5187266 C3.75039882,21.6133515 4.63809818,22.5004007 5.73299982,22.5 L12.268,22.5000002 C13.3626265,22.5000002 14.25,21.6126266 14.25,20.518 L14.2499998,19 L3.7499998,19 Z M9.9375,20.75 C9.9375,21.2677675 9.5177675,21.6875 9,21.6875 C8.4822325,21.6875 8.06250002,21.2677675 8.0625,20.75 C8.0625,20.2322325 8.4822325,19.8125 9.00000004,19.8125 C9.5177675,19.8125 9.9375,20.2322325 9.9375,20.75 Z M10.5,8.24999994 C10.9142134,8.24999996 11.2499999,7.91421338 11.2499999,7.49999994 L11.2499999,4.50000055 C11.2499996,2.01471711 13.2647161,5.25709164e-07 15.7499998,1.59872116e-14 C18.2352834,-1.08635137e-07 20.2499998,2.0147164 20.2499998,4.5 L20.2499998,7.50000005 C20.2499998,7.91421338 20.5857864,8.24999994 21,8.24999994 C22,8.24999994 22,9.74999994 21,9.74999994 L10.4999999,9.74999994 M18.7499998,7.49999994 L18.7499998,4.5 C18.7499998,2.84314353 17.4068563,1.49999993 15.7499999,1.5 C14.0931434,1.50000035 12.7499997,2.84314409 12.7499999,4.50000044 L12.7499999,7.49999994 C12.7499999,7.7629765 12.7048843,8.01541574 12.6219706,8.24999994 L18.8780291,8.24999994 C18.7951155,8.01541574 18.7499998,7.76297649 18.7499998,7.49999994 Z M10.4999999,9.74999994 C9.4999999,9.74999989 9.49999993,8.24999994 10.4999999,8.24999994 M13.8088712,11.8565521 C13.4738818,11.6129234 13.3998192,11.1438607 13.6434479,10.8088712 C13.8870766,10.4738818 14.3561393,10.3998192 14.6911288,10.6434479 C15.0277086,10.8882332 15.3350672,11 15.625,11 C15.9149328,11 16.2222914,10.8882332 16.5588712,10.6434479 C16.8938607,10.3998192 17.3629234,10.4738818 17.6065521,10.8088712 C17.8501808,11.1438607 17.7761182,11.6129234 17.4411288,11.8565521 C16.8610419,12.2784334 16.2517338,12.5 15.625,12.5 C14.9982662,12.5 14.3889581,12.2784334 13.8088712,11.8565521 Z"/>
</svg>
