<svg xmlns="http://www.w3.org/2000/svg" width="25" height="25" viewBox="0 0 25 25">
  <path d="M13.7787261,22.0971673 C11.7587576,20.8121404 9.88560697,19.3097345 8.1928121,17.6168481 L6.38763821,15.8116728 C4.69348279,14.1180205 3.18964048,12.2439726 1.90307542,10.2230973 C1.88119303,10.1887255 1.86150783,10.1531695 1.84408242,10.1166442 C0.459543284,7.84777341 0.803746964,4.91886137 2.69005548,3.03262341 L3.9643609,1.75831798 C4.976255,0.747334114 6.61538616,0.747334092 7.62696982,1.75799555 L10.4363417,4.56736726 C11.4473256,5.57926133 11.4473256,7.21839251 10.4366641,8.22997617 L9.82853666,8.83810286 C9.59864904,9.06851258 9.59907143,9.44165681 9.82947972,9.67154374 L14.3277168,14.16978 C14.3865766,14.2285535 15.3714623,13.9614381 15.7702745,13.5632054 C16.7816543,12.5527354 18.4207854,12.5527354 19.4323691,13.5633969 L22.2417409,16.3727686 C23.2527248,17.3846627 23.2527249,19.0237939 22.2420634,20.0353775 L20.9674223,21.3100187 C19.0792723,23.1972791 16.1477561,23.5404351 13.8780998,22.1527059 C13.8440575,22.1361487 13.8108743,22.1176188 13.7787261,22.0971673 Z M9.60705447,16.2026634 C11.1741729,17.7698665 12.9058939,19.1632121 14.7720466,20.3585033 C14.8030641,20.373969 14.8333491,20.3910832 14.8627671,20.4098068 C16.3536298,21.3586918 18.3034679,21.1449572 19.5533754,19.8956386 L20.8275274,18.6214865 C21.0576762,18.3911276 21.0576762,18.0173384 20.8272092,17.7866639 L18.0184781,14.9779329 C17.7881192,14.7477841 17.4143299,14.7477841 17.1836554,14.978251 C16.1071889,16.0531534 13.9651488,16.6341061 12.9140193,15.5845092 L8.41606751,11.0865578 C7.4045278,10.0773078 7.40267197,8.4378362 8.41272094,7.42549328 L8.41687517,7.42133907 L9.02212818,6.81608514 C9.25227694,6.58572623 9.25227693,6.21193703 9.02180997,5.98126254 L6.21307879,3.1725315 C5.98271987,2.94238273 5.60893066,2.94238274 5.37825617,3.1728497 L4.10425581,4.44685019 C2.85460702,5.69645225 2.64085712,7.64644421 3.59012053,9.13708222 C3.61014009,9.16851914 3.62832147,9.200947 3.64461676,9.23420139 C4.84074902,11.0995049 6.23449471,12.8305676 7.80174703,14.3973545 L9.60705447,16.2026634 Z"/>
</svg>
