<?xml version="1.0" encoding="UTF-8"?>
<svg width="25px" height="25px" viewBox="0 0 25 25" version="1.1" xmlns="http://www.w3.org/2000/svg" xmlns:xlink="http://www.w3.org/1999/xlink">
    <!-- Generator: Sketch 54.1 (76490) - https://sketchapp.com -->
    <title>bell copy 80</title>
    <desc>Created with Sketch.</desc>
    <g id="Icons" stroke="none" stroke-width="1" fill="none" fill-rule="evenodd">
        <path d="M1.65627967,13.5136531 C1.64013073,13.4882871 1.62557731,13.4620612 1.61266415,13.4351289 C0.607317669,11.7863976 0.857682073,9.65852257 2.22821855,8.28803736 L2.71060749,7.80564841 C3.45205892,7.06486394 4.65310059,7.06486393 5.39431898,7.80540659 L7.42234336,9.83343086 C8.16312785,10.5748823 8.16312787,11.775924 7.42110663,12.5186203 C7.26612754,12.6739514 7.26641229,12.9255072 7.42174233,13.0804857 L10.6689298,16.3276725 C10.8244864,16.483002 11.0770743,16.483002 11.2330159,16.327287 C11.9740815,15.586888 13.1751232,15.586888 13.9163416,16.3274307 L15.944366,18.3554549 C16.6851504,19.0969064 16.6851505,20.297948 15.9446078,21.0391664 L15.4619672,21.5218071 C14.0900692,22.8930588 11.9602593,23.1426479 10.3109483,22.1349293 C10.2858455,22.1226636 10.2613688,22.1089659 10.2376435,22.0938728 C8.77774606,21.1651417 7.42395862,20.0793037 6.20051369,18.8557926 L4.89748919,17.5527681 C3.67299373,16.3286352 2.58611989,14.9742019 1.65627967,13.5136531 Z M7.26118819,17.7951468 C8.39068199,18.9247016 9.63876026,19.9289763 10.9837048,20.7905556 C11.0064926,20.8019757 11.0287504,20.8145838 11.050383,20.8283523 C12.1154804,21.5062517 13.5084772,21.3535561 14.401432,20.461022 L14.8837058,19.9787482 C15.038864,19.8234483 15.038864,19.5714131 14.8834672,19.4158764 L12.8559233,17.3883326 C12.7006235,17.2331745 12.4485883,17.2331745 12.2930516,17.3885713 C11.5513539,18.1291912 10.3502096,18.1291912 9.60865667,17.3887194 L6.36168318,14.1417462 C5.62050457,13.4022454 5.61914474,12.2009441 6.36228893,11.4561191 C6.51684138,11.3014242 6.51684138,11.049389 6.36144458,10.8938523 L4.33390071,8.86630856 C4.17860087,8.71115041 3.92656566,8.71115041 3.77102894,8.8665472 L3.2888688,9.34870745 C2.39610221,10.2414406 2.24339636,11.6345416 2.9215632,12.6994739 C2.9362844,12.7225908 2.94968033,12.7464221 2.96171713,12.7708516 C3.82389128,14.1151531 4.82843733,15.3627304 5.95807082,16.4920294 L7.26118819,17.7951468 Z M15.9058221,14.6900391 C15.535267,14.9782486 15.0012328,14.9114944 14.7130232,14.5409392 C14.5714452,14.3589103 14.509903,14.1271693 14.5425155,13.8988816 L14.8852129,11.5 L13.7499699,11.5 C12.5073295,11.4999996 11.4999702,10.4926403 11.4999702,9.25 L11.4999702,3.25000011 C11.49997,2.00735951 12.5073296,1 13.7499702,1 L22.7499701,1 C23.9926106,0.999999946 24.9999701,2.0073594 24.9999702,3.25 L24.9999702,9.25000006 C24.9999701,10.4926407 23.9926106,11.5000002 22.7499702,11.5 L20.007301,11.5 L15.9058221,14.6900391 Z M19.2895147,10.1579858 C19.4211644,10.0555917 19.5831883,10 19.7499702,10 L22.7499703,10 C23.1641836,10.0000001 23.4999701,9.66421353 23.4999702,9.25 L23.4999702,3.25000006 C23.4999701,2.83578658 23.1641836,2.49999998 22.7499702,2.5 L13.7499702,2.5 C13.3357567,2.5 12.9999701,2.83578657 12.9999702,3.25 L12.9999702,9.25 C12.9999702,9.66421324 13.3357568,9.99999987 13.7499702,10 L15.7499702,10 C16.2063822,10 16.5569787,10.4042412 16.4924323,10.856066 L16.2549885,12.5181729 L19.2895147,10.1579858 Z M15.2499702,5.5073047 C14.8357566,5.5073047 14.4999702,5.17151827 14.4999702,4.7573047 C14.4999702,4.34309114 14.8357566,4.0073047 15.2499702,4.0073047 L20.9999702,4.0073047 C21.4141837,4.0073047 21.7499702,4.34309114 21.7499702,4.7573047 C21.7499702,5.17151827 21.4141837,5.5073047 20.9999702,5.5073047 L15.2499702,5.5073047 Z M15.2499702,8.25 C14.8357566,8.25 14.4999702,7.91421356 14.4999702,7.5 C14.4999702,7.08578644 14.8357566,6.75 15.2499702,6.75 L18.9999702,6.75 C19.4141837,6.75 19.7499702,7.08578644 19.7499702,7.5 C19.7499702,7.91421356 19.4141837,8.25 18.9999702,8.25 L15.2499702,8.25 Z" id="Shape" fill="#000000" fill-rule="nonzero"></path>
    </g>
</svg>