<svg xmlns="http://www.w3.org/2000/svg" width="24" height="24" viewBox="0 0 24 24">
  <path d="M2963,76.4291115 L2963,80 C2963,80.5522847 2962.55229,81 2962,81 C2961.44772,81 2961,80.5522847 2961,80 L2961,76.4291114 C2957.6077,75.9438819 2955,73.0264735 2955,69.5 L2955,66.5 C2955,65.1192886 2956.11929,64.0000002 2957.5,64 L2958,64 L2958,60.5 C2958,59.9477153 2958.44772,59.5 2959,59.5 C2959.55229,59.5 2960,59.9477153 2960,60.5 L2960,64 L2964,64 L2964,60.5 C2964,59.9477153 2964.44772,59.5 2965,59.5 C2965.55229,59.5 2966,59.9477153 2966,60.5 L2966,64 L2966.5,64 C2967.88071,64 2969,65.1192884 2969,66.5 L2969,69.5 C2969,73.026474 2966.3923,75.9438826 2963,76.4291115 Z M2957,69.5000002 C2957,72.2614252 2959.23857,74.4999999 2962,74.5000002 C2964.76143,74.5000006 2967,72.261426 2967,69.5000002 L2967,66.5000002 C2967,66.223858 2966.77614,66.0000002 2966.5,66.0000002 L2957.5,66.0000002 C2957.22386,66.0000002 2957,66.223858 2957,66.5000002 L2957,69.5000002 Z" transform="translate(-2950 -58)"/>
</svg>
