<?xml version="1.0" encoding="UTF-8"?>
<svg width="24px" height="24px" viewBox="0 0 24 24" version="1.1" xmlns="http://www.w3.org/2000/svg" xmlns:xlink="http://www.w3.org/1999/xlink">
    <title>plus-minus-g</title>
    <g id="Icons" stroke="none" stroke-width="1" fill="none" fill-rule="evenodd">
        <g transform="translate(-3373.000000, -74.000000)" fill="#000000" fill-rule="nonzero" id="Shape">
            <path d="M3392.70711,78.2928932 C3393.09763,78.6834175 3393.09763,79.3165825 3392.70711,79.7071068 L3378.70711,93.7071068 C3378.31658,94.0976311 3377.68342,94.0976311 3377.29289,93.7071068 C3376.90237,93.3165825 3376.90237,92.6834175 3377.29289,92.2928932 L3391.29289,78.2928932 C3391.68342,77.9023689 3392.31658,77.9023689 3392.70711,78.2928932 Z M3393,90 C3393.55228,90 3394,90.4477153 3394,91 C3394,91.5522847 3393.55228,92 3393,92 L3387,92 C3386.44772,92 3386,91.5522847 3386,91 C3386,90.4477153 3386.44772,90 3387,90 L3393,90 Z M3380,77 C3380.55228,77 3381,77.4477153 3381,78 L3381,80 L3383,80 C3383.55228,80 3384,80.4477153 3384,81 C3384,81.5522847 3383.55228,82 3383,82 L3381,82 L3381,84 C3381,84.5522847 3380.55228,85 3380,85 C3379.44772,85 3379,84.5522847 3379,84 L3379,82 L3377,82 C3376.44772,82 3376,81.5522847 3376,81 C3376,80.4477153 3376.44772,80 3377,80 L3379,80 L3379,78 C3379,77.4477153 3379.44772,77 3380,77 Z"></path>
        </g>
    </g>
</svg>