<svg xmlns="http://www.w3.org/2000/svg" width="24" height="24" viewBox="0 0 24 24">
  <path d="M5.42734398,0.895454436 C6.6206066,-0.297798089 8.5552646,-0.297782293 9.74851965,0.895483443 C9.98061582,1.12758265 10.1737981,1.3955636 10.3207876,1.68941952 C10.9085564,2.86576277 10.6779843,4.28619795 9.75925081,5.20503668 L5.86285774,9.26904813 C5.56762256,9.57698399 5.07533883,9.57698395 4.78010369,9.26904805 L0.894747085,5.21630687 C-0.0353304258,4.28619805 -0.265592248,2.86515692 0.323010987,1.68926307 C1.07743867,0.18023604 2.91232773,-0.431484734 4.42135245,0.322946842 C4.71519831,0.469853615 4.98342275,0.663197886 5.21561671,0.895456464 L5.32147933,1.00131908 L5.42734398,0.895454436 Z M8.68744671,4.1557555 C9.16085184,3.68217711 9.2782612,2.95887882 8.97911125,2.36016868 C8.90435584,2.21072057 8.80600925,2.07429493 8.68785364,1.95613778 C8.08038179,1.34866048 7.09547146,1.34865244 6.48800191,1.95611685 L5.85180942,2.59230934 C5.5589162,2.88520256 5.08404246,2.88520256 4.79114924,2.59230934 L4.15488277,1.95604286 C4.03666662,1.83779381 3.90014938,1.73938806 3.7505903,1.66461675 C2.98255012,1.28063777 2.04865928,1.59198108 1.66451726,2.36035232 C1.36485368,2.95901131 1.48204906,3.68227257 1.96646316,4.16693766 L5.32149651,7.66630173 L8.68744671,4.1557555 Z M18,6.75060789 L18,18.7499999 C18.0000002,21.6494935 15.6494938,24 12.75,24 L0.749999984,24 C-0.250000016,24 -0.249999984,22.5 0.750000016,22.5 C2.82106639,22.5000001 4.49999998,20.8210665 4.49999998,18.75 L4.49999998,12.75 C4.49999998,12.3357864 4.83578642,12 5.24999998,12 C5.66421355,12 5.99999998,12.3357864 5.99999998,12.75 L5.99999998,18.75 C5.99999998,20.2190157 5.39664902,21.547112 4.42423604,22.5 L12.75,22.5 C14.8210666,22.5 16.5000001,20.8210665 16.5,18.75 L16.5,3.7614276 C16.4975878,2.96488651 16.7473835,2.16772344 17.2493872,1.5 L12.7500002,1.5 C12.3357866,1.5 12.0000002,1.16421356 12.0000002,0.75 C12.0000002,0.335786438 12.3357866,2.22044605e-16 12.7500002,2.22044605e-16 L20.2500002,2.22044605e-16 C21.2111678,0.000566743385 22.1699627,0.366682331 22.9016303,1.09834991 C24.3660935,2.56281313 24.3660935,4.93718687 22.9016303,6.40165009 C21.5645699,7.73871046 19.4690301,7.85502973 18,6.75060789 Z M18.6589903,5.34098991 C19.537667,6.2196667 20.9622933,6.2196667 21.8409701,5.34098991 C22.7196469,4.46231313 22.7196469,3.03768687 21.8409701,2.15901009 C20.9622933,1.2803333 19.537667,1.2803333 18.6589903,2.15901009 C18.2207838,2.59721654 18.0011161,3.17120797 17.9999871,3.74554924 L18,3.75885178 C18.0022397,4.33172338 18.2219031,4.90390275 18.6589903,5.34098991 Z M8.25000018,18 C7.83578662,18 7.50000018,17.6642136 7.50000018,17.25 C7.50000018,16.8357864 7.83578662,16.5 8.25000018,16.5 L12.7500002,16.5 C13.1642137,16.5 13.5000002,16.8357864 13.5000002,17.25 C13.5000002,17.6642136 13.1642137,18 12.7500002,18 L8.25000018,18 Z M8.25000018,15 C7.83578662,15 7.50000018,14.6642136 7.50000018,14.25 C7.50000018,13.8357864 7.83578662,13.5 8.25000018,13.5 L14.2500002,13.5 C14.6642137,13.5 15.0000002,13.8357864 15.0000002,14.25 C15.0000002,14.6642136 14.6642137,15 14.2500002,15 L8.25000018,15 Z M10.5000002,12 C10.0857866,12 9.75000018,11.6642136 9.75000018,11.25 C9.75000018,10.8357864 10.0857866,10.5 10.5000002,10.5 L14.2500002,10.5 C14.6642137,10.5 15.0000002,10.8357864 15.0000002,11.25 C15.0000002,11.6642136 14.6642137,12 14.2500002,12 L10.5000002,12 Z M12.2500002,9 C11.8357866,9 11.5000002,8.66421356 11.5000002,8.25 C11.5000002,7.83578644 11.8357866,7.5 12.2500002,7.5 L14.2500002,7.5 C14.6642137,7.5 15.0000002,7.83578644 15.0000002,8.25 C15.0000002,8.66421356 14.6642137,9 14.2500002,9 L12.2500002,9 Z"/>
</svg>
