<svg xmlns="http://www.w3.org/2000/svg" width="24" height="25" viewBox="0 0 24 25">
  <path d="M21.9999399,5.0000006 C21.9999401,6.65685525 20.6567947,8.0000006 18.9999399,8.0000006 L17.9999399,8.0000006 L17.9999399,20.0000006 C17.9999399,21.6568542 16.6567946,22.9999999 14.9999399,23.0000006 L5.99993987,23.0000006 C3.79080494,22.9999997 1.99993987,21.2091347 1.99993987,19.0000006 L1.99993987,18.0000006 C1.99993987,17.4477159 2.44765512,17.0000006 2.99993987,17.0000006 L3.99993987,17.0000006 L3.99993987,6.0000006 C3.99993974,3.79086588 5.79080495,2.0000007 7.99993987,2.0000006 L18.9999399,2.0000006 C20.6567945,2.00000035 21.9999399,3.34314578 21.9999399,5.0000006 Z M7.99993974,4.0000006 C6.89537448,4.00000065 5.99993974,4.89543538 5.99993974,6.0000006 L5.99993974,17.0000006 L12.9999397,17.0000006 C13.5522246,17.0000006 13.9999399,17.4477159 13.9999397,18.0000006 L13.9999397,20.0000006 C13.99994,20.5522852 14.4476553,21.0000005 14.9999397,21.0000006 C15.5522246,21.0000004 15.9999399,20.552285 15.9999397,20.0000006 L15.9999397,5.0000006 C15.9999398,4.64936516 16.060094,4.31277951 16.1706454,4.0000006 L7.99993974,4.0000006 Z M5.99993987,21.0000006 L12.1706457,21.0000006 C12.0600942,20.6872217 11.9999399,20.350636 11.9999399,20.0000006 L11.9999399,19.0000006 L3.99993987,19.0000006 C3.99993987,20.1045653 4.89537475,21.0000002 5.99993987,21.0000006 Z M17.9999399,5.0000006 L17.9999399,6.0000006 L18.9999399,6.0000006 C19.5522252,6.0000006 19.99994,5.55228584 19.9999399,5.0000006 C19.9999399,4.44771531 19.5522251,4.00000052 18.9999399,4.0000006 C18.4476546,4.0000006 17.9999398,4.44771537 17.9999399,5.0000006 Z M8.99994,8 C8.44765525,8 7.99994,7.55228475 7.99994,7 C7.99994,6.44771525 8.44765525,6 8.99994,6 L12.99994,6 C13.5522247,6 13.99994,6.44771525 13.99994,7 C13.99994,7.55228475 13.5522247,8 12.99994,8 L8.99994,8 Z M8.99994,12 C8.44765525,12 7.99994,11.5522847 7.99994,11 C7.99994,10.4477153 8.44765525,10 8.99994,10 L12.99994,10 C13.5522247,10 13.99994,10.4477153 13.99994,11 C13.99994,11.5522847 13.5522247,12 12.99994,12 L8.99994,12 Z"/>
</svg>
