<svg xmlns="http://www.w3.org/2000/svg" width="24" height="24" viewBox="0 0 24 24">
  <path d="M17.9999998,6.75060789 L17.9999998,18.7500024 C18,21.6494934 15.6494939,23.9999996 12.7499998,24.0000025 L0.749999803,24.0000025 C-0.250000197,24.0000025 -0.250000918,22.5000035 0.749999082,22.5000025 C2.82106592,22.5000005 4.4999998,20.8210666 4.4999998,18.7500025 L4.4999998,3.7500025 C4.4999998,1.67893469 6.17893199,2.50000001e-06 8.2499998,2.50000001e-06 L10.2480426,2.50000001e-06 L10.25,0 L20.25,0 L20.2521977,3.15168818e-06 C21.2111676,0.000566743385 22.1699625,0.366682331 22.9016301,1.09834991 C24.3660933,2.56281313 24.3660933,4.93718687 22.9016301,6.40165009 C21.5645697,7.73871046 19.4690299,7.85502973 17.9999998,6.75060789 Z M16.4999998,3.7614276 C16.4975876,2.96488651 16.7473833,2.16772344 17.249387,1.5 L11.2519572,1.5 L11.2499998,1.5000025 L8.2499998,1.5000025 C7.00735912,1.5000025 5.9999998,2.50736181 5.9999998,3.7500025 L5.9999998,18.7500025 C5.9999998,20.2190179 5.39664804,21.5471144 4.42423394,22.5 L12.749999,22.5000025 C14.8210661,22.5000004 16.5,20.8210666 16.4999998,18.7500025 L16.4999998,3.7614276 Z M17.9999998,3.75885178 C18.0022395,4.33172338 18.2219029,4.90390275 18.6589901,5.34098991 C19.5376669,6.2196667 20.9622931,6.2196667 21.8409699,5.34098991 C22.7196467,4.46231313 22.7196467,3.03768687 21.8409699,2.15901009 C20.9622931,1.2803333 19.5376669,1.2803333 18.6589901,2.15901009 C18.2207832,2.59721702 18.0011154,3.17120921 17.9999869,3.74555111 L17.9999998,3.7500025 L17.9999998,3.75885178 L17.9999998,3.75885178 Z M8.25,18 C7.83578644,18 7.5,17.6642136 7.5,17.25 C7.5,16.8357864 7.83578644,16.5 8.25,16.5 L11.25,16.5 C11.6642136,16.5 12,16.8357864 12,17.25 C12,17.6642136 11.6642136,18 11.25,18 L8.25,18 Z M8.25,15 C7.83578644,15 7.5,14.6642136 7.5,14.25 C7.5,13.8357864 7.83578644,13.5 8.25,13.5 L14.25,13.5 C14.6642136,13.5 15,13.8357864 15,14.25 C15,14.6642136 14.6642136,15 14.25,15 L8.25,15 Z M8.25,12 C7.83578644,12 7.5,11.6642136 7.5,11.25 C7.5,10.8357864 7.83578644,10.5 8.25,10.5 L14.25,10.5 C14.6642136,10.5 15,10.8357864 15,11.25 C15,11.6642136 14.6642136,12 14.25,12 L8.25,12 Z M8.25,8.75 C7.83578644,8.75 7.5,8.41421356 7.5,8 C7.5,7.58578644 7.83578644,7.25 8.25,7.25 L14.25,7.25 C14.6642136,7.25 15,7.58578644 15,8 C15,8.41421356 14.6642136,8.75 14.25,8.75 L8.25,8.75 Z M8.25,5.75140586 C7.83578644,5.75140586 7.5,5.41561943 7.5,5.00140586 C7.5,4.5871923 7.83578644,4.25140586 8.25,4.25140586 L11.25,4.25140586 C11.6642136,4.25140586 12,4.5871923 12,5.00140586 C12,5.41561943 11.6642136,5.75140586 11.25,5.75140586 L8.25,5.75140586 Z"/>
</svg>
