<svg xmlns="http://www.w3.org/2000/svg" width="24" height="25" viewBox="0 0 24 25">
  <path d="M18.9999399,2.5000006 C20.6567945,2.50000035 21.9999399,3.84314578 21.9999399,5.5000006 C21.9999401,7.15685525 20.6567947,8.5000006 18.9999399,8.5000006 L17.9999399,8.5000006 L17.9999399,19.5000006 C17.9999399,21.1568542 16.6567946,22.4999999 14.9999399,22.5000006 L5.99993987,22.5000006 C3.79080494,22.4999997 1.99993987,20.7091347 1.99993987,18.5000006 L1.99993987,17.5000006 C1.99993987,16.9477159 2.44765512,16.5000006 2.99993987,16.5000006 L3.99993987,16.5000006 L3.99993987,6.5000006 C3.99993974,4.29086588 5.79080495,2.5000007 7.99993987,2.5000006 L18.9999399,2.5000006 L18.9999399,2.5000006 Z M16.1706454,4.5000006 L7.99993974,4.5000006 C6.89537448,4.50000065 5.99993974,5.39543538 5.99993974,6.5000006 L5.99993974,16.5000006 L12.9999397,16.5000006 C13.5522246,16.5000006 13.9999399,16.9477159 13.9999397,17.5000006 L13.9999397,19.5000006 C13.99994,20.0522852 14.4476553,20.5000005 14.9999397,20.5000006 C15.5522246,20.5000004 15.9999399,20.052285 15.9999397,19.5000006 L15.9999397,5.5000006 C15.9999398,5.14936516 16.060094,4.81277951 16.1706454,4.5000006 L16.1706454,4.5000006 Z M5.99993987,20.5000006 L12.1706457,20.5000006 C12.0600942,20.1872217 11.9999399,19.850636 11.9999399,19.5000006 L11.9999399,18.5000006 L3.99993987,18.5000006 C3.99993987,19.6045653 4.89537475,20.5000002 5.99993987,20.5000006 Z M17.9999399,5.5000006 L17.9999399,6.5000006 L18.9999399,6.5000006 C19.5522252,6.5000006 19.99994,6.05228584 19.9999399,5.5000006 C19.9999399,4.94771531 19.5522251,4.50000052 18.9999399,4.5000006 C18.4476546,4.5000006 17.9999398,4.94771537 17.9999399,5.5000006 Z M8.99994,8.5 C8.44765525,8.5 7.99994,8.05228475 7.99994,7.5 C7.99994,6.94771525 8.44765525,6.5 8.99994,6.5 L12.99994,6.5 C13.5522247,6.5 13.99994,6.94771525 13.99994,7.5 C13.99994,8.05228475 13.5522247,8.5 12.99994,8.5 L8.99994,8.5 Z M8.99994,12.5 C8.44765525,12.5 7.99994,12.0522847 7.99994,11.5 C7.99994,10.9477153 8.44765525,10.5 8.99994,10.5 L12.99994,10.5 C13.5522247,10.5 13.99994,10.9477153 13.99994,11.5 C13.99994,12.0522847 13.5522247,12.5 12.99994,12.5 L8.99994,12.5 Z"/>
</svg>
