<svg xmlns="http://www.w3.org/2000/svg" width="24" height="24" viewBox="0 0 24 24">
  <path d="M17.9999998,6.75060789 L17.9999998,18.7499999 C18,21.6494935 15.6494936,24 12.7499998,24 L0.749999803,24 C-0.250000197,24 -0.250000164,22.5 0.749999836,22.5 C2.82106621,22.5000001 4.4999998,20.8210665 4.4999998,18.75 L4.4999998,12.75 C4.4999998,12.3357864 4.83578624,12 5.2499998,12 C5.66421337,12 5.9999998,12.3357864 5.9999998,12.75 L5.9999998,18.75 C5.9999998,20.2190157 5.39664884,21.547112 4.42423586,22.5 L12.7499998,22.5 C14.8210664,22.5 16.5,20.8210665 16.4999998,18.75 L16.4999998,3.7614276 C16.4975876,2.96488651 16.7473833,2.16772344 17.249387,1.5 L9.75,1.5 C9.33578644,1.5 9,1.16421356 9,0.75 C9,0.335786438 9.33578644,0 9.75,0 L20.25,0 L20.2521977,3.15168818e-06 C21.2111676,0.000566743385 22.1699625,0.366682331 22.9016301,1.09834991 C24.3660933,2.56281313 24.3660933,4.93718687 22.9016301,6.40165009 C21.5645697,7.73871046 19.4690299,7.85502973 17.9999998,6.75060789 Z M17.9999998,3.75885178 C18.0022395,4.33172338 18.2219029,4.90390275 18.6589901,5.34098991 C19.5376669,6.2196667 20.9622931,6.2196667 21.8409699,5.34098991 C22.7196467,4.46231313 22.7196467,3.03768687 21.8409699,2.15901009 C20.9622931,1.2803333 19.5376669,1.2803333 18.6589901,2.15901009 C18.2207836,2.59721654 18.0011159,3.17120797 17.9999869,3.74554924 L17.9999998,3.75 L17.9999998,3.75885178 L17.9999998,3.75885178 Z M4.14226105,0.684433238 C4.45512731,0.0682894782 5.20089661,-0.17513391 5.81101089,0.134704395 C6.04531652,0.253692903 6.23572101,0.444097851 6.35773893,0.684433311 L7.30918394,2.60046796 L9.44464053,2.90862022 C9.90597044,2.97488883 10.2906064,3.29541861 10.4404772,3.7417434 C10.5871189,4.18774515 10.4657279,4.67832588 10.1291094,5.00342535 L8.58296172,6.50272003 L8.94725131,8.61447952 C9.02685124,9.07957689 8.83224203,9.5490462 8.44752267,9.82101151 C8.06695439,10.0905898 7.56731112,10.1238342 7.15582876,9.9078099 L5.25009757,8.91260675 L3.34861889,9.90705186 C2.93568925,10.1238347 2.43604494,10.0905903 2.05606269,9.82142574 C1.67075841,9.54904559 1.47614945,9.07957724 1.55591629,8.61350397 L1.92007812,6.50251431 L0.378978133,5.00447762 C0.041272062,4.67832469 -0.0801195867,4.18774374 0.0677167469,3.73814246 C0.215765553,3.29542077 0.601145926,2.97427016 1.06183632,2.90869539 L3.19031497,2.60146854 L4.14226105,0.684433238 Z M7.37065615,2.72426164 L7.30918394,2.60046796 L7.17211745,2.58068889 C7.25724021,2.59286735 7.3317584,2.6465612 7.37065615,2.72426164 Z M4.4714066,3.39423512 C4.29313386,3.75234662 3.95244912,4.00192929 3.54816369,4.06530435 L1.8212958,4.31460457 L3.06809172,5.52655748 C3.35781007,5.80747802 3.49073021,6.21298024 3.42308376,6.61349597 L3.12693526,8.33024079 L4.67269161,7.52183786 C5.03391378,7.33102607 5.46608639,7.3310261 5.82417119,7.52019018 L7.37613501,8.33064469 L7.07947263,6.61089729 C7.01226934,6.21298074 7.14518968,5.8074779 7.43489059,5.52657477 L8.68482973,4.31451418 L6.95877482,4.06543941 C6.55790509,4.00808464 6.21062124,3.75785032 6.028261,3.39356679 L5.25001297,1.82627311 L4.4714066,3.39423512 Z M8.25,18 C7.83578644,18 7.5,17.6642136 7.5,17.25 C7.5,16.8357864 7.83578644,16.5 8.25,16.5 L14.25,16.5 C14.6642136,16.5 15,16.8357864 15,17.25 C15,17.6642136 14.6642136,18 14.25,18 L8.25,18 Z M8.25,15 C7.83578644,15 7.5,14.6642136 7.5,14.25 C7.5,13.8357864 7.83578644,13.5 8.25,13.5 L14.25,13.5 C14.6642136,13.5 15,13.8357864 15,14.25 C15,14.6642136 14.6642136,15 14.25,15 L8.25,15 Z M12,12 C11.5857864,12 11.25,11.6642136 11.25,11.25 C11.25,10.8357864 11.5857864,10.5 12,10.5 L14.25,10.5 C14.6642136,10.5 15,10.8357864 15,11.25 C15,11.6642136 14.6642136,12 14.25,12 L12,12 Z M11.25,9 C10.8357864,9 10.5,8.66421356 10.5,8.25 C10.5,7.83578644 10.8357864,7.5 11.25,7.5 L14.25,7.5 C14.6642136,7.5 15,7.83578644 15,8.25 C15,8.66421356 14.6642136,9 14.25,9 L11.25,9 Z"/>
</svg>
