<svg xmlns="http://www.w3.org/2000/svg" width="24" height="24" viewBox="0 0 24 24">
  <path d="M4.5,0.801399144 L4.5,0.75 C4.5,0.335786438 4.83578644,-2.33360122e-12 5.25,0 C5.66421356,2.33360122e-12 6,0.335786438 6,0.75 L6,0.801399144 C7.3869768,0.992884438 8.63372987,1.71008747 9.47252386,2.7962585 C9.82028706,3.24658399 10.0890858,3.75007316 10.2661863,4.28760358 C10.348611,4.53777661 10.4108825,4.79442575 10.4522208,5.05568382 C10.4724317,5.18341666 10.4876218,5.31214389 10.4977273,5.44165755 C10.5317378,5.87754178 10.1872091,6.25 9.75,6.25 L6,6.25 L6,9.45053632 C6.00000002,9.61592557 6.13407444,9.75 6.2994633,9.75 C6.46485239,9.74999998 6.59892682,9.61592556 6.59892682,9.45053659 C6.59892682,9.03632303 6.93471326,8.70053659 7.34892682,8.70053659 C7.76314038,8.70053659 8.09892682,9.03632303 8.09892682,9.45053659 C8.09892682,10.4443527 7.29327959,11.2499998 6.29946341,11.25 C5.3056473,11.25 4.50000015,10.4443527 4.5,9.45053643 L4.5,6.25 L0.75,6.25 C0.312790921,6.25 -0.0317377952,5.87754178 0.00227267117,5.44165755 C0.0123781523,5.31214389 0.0275682757,5.18341666 0.0477791698,5.05568382 C0.0891174788,4.79442575 0.151388975,4.53777661 0.233813662,4.28760358 C0.410914197,3.75007316 0.679712938,3.24658399 1.02747614,2.7962585 C1.86627013,1.71008747 3.1130232,0.992884438 4.5,0.801399144 L4.5,0.801399144 Z M1.66079213,4.75 L8.83920787,4.75 C8.71568851,4.37779946 8.5283645,4.02779516 8.28532142,3.71307385 C7.58096737,2.80099176 6.46574683,2.25 5.25,2.25 C4.03425317,2.25 2.91903263,2.80099176 2.21467858,3.71307385 C1.9716355,4.02779516 1.78431149,4.37779946 1.66079213,4.75 Z M18,6.75060789 L18,18.7499999 C18.0000002,21.6494935 15.6494938,24 12.75,24 L0.749999984,24 C-0.250000016,24 -0.249999984,22.5 0.750000016,22.5 C2.82106639,22.5000001 4.49999998,20.8210665 4.49999998,18.75 L4.5,14 C4.49999998,13.5857864 4.83578642,13.25 5.24999998,13.25 C5.66421355,13.25 5.99999998,13.5857864 6,14 L5.99999998,18.75 C5.99999998,20.2190157 5.39664902,21.547112 4.42423604,22.5 L12.75,22.5 C14.8210666,22.5 16.5000001,20.8210665 16.5,18.75 L16.5,3.7614276 C16.4975878,2.96488651 16.7473835,2.16772344 17.2493872,1.5 L10.7500002,1.5 C10.3357866,1.5 10.0000002,1.16421356 10.0000002,0.75 C10.0000002,0.335786438 10.3357866,0 10.7500002,0 L20.2500002,0 C21.2111678,0.000566743385 22.1699627,0.366682331 22.9016303,1.09834991 C24.3660935,2.56281313 24.3660935,4.93718687 22.9016303,6.40165009 C21.5645699,7.73871046 19.4690301,7.85502973 18,6.75060789 Z M18.6589903,5.34098991 C19.537667,6.2196667 20.9622933,6.2196667 21.8409701,5.34098991 C22.7196469,4.46231313 22.7196469,3.03768687 21.8409701,2.15901009 C20.9622933,1.2803333 19.537667,1.2803333 18.6589903,2.15901009 C18.2207838,2.59721654 18.0011161,3.17120797 17.9999871,3.74554924 L18,3.75885178 C18.0022397,4.33172339 18.2219031,4.90390275 18.6589903,5.34098991 Z M8.25000018,18 C7.83578662,18 7.50000018,17.6642136 7.50000018,17.25 C7.50000018,16.8357864 7.83578662,16.5 8.25000018,16.5 L14.2500002,16.5 C14.6642137,16.5 15.0000002,16.8357864 15.0000002,17.25 C15.0000002,17.6642136 14.6642137,18 14.2500002,18 L8.25000018,18 Z M8.25000018,15 C7.83578662,15 7.50000018,14.6642136 7.50000018,14.25 C7.50000018,13.8357864 7.83578662,13.5 8.25000018,13.5 L14.2500002,13.5 C14.6642137,13.5 15.0000002,13.8357864 15.0000002,14.25 C15.0000002,14.6642136 14.6642137,15 14.2500002,15 L8.25000018,15 Z M11.7500002,12 C11.3357866,12 11.0000002,11.6642136 11.0000002,11.25 C11.0000002,10.8357864 11.3357866,10.5 11.7500002,10.5 L14.2500002,10.5 C14.6642137,10.5 15.0000002,10.8357864 15.0000002,11.25 C15.0000002,11.6642136 14.6642137,12 14.2500002,12 L11.7500002,12 Z M11.7500002,9 C11.3357866,9 11.0000002,8.66421356 11.0000002,8.25 C11.0000002,7.83578644 11.3357866,7.5 11.7500002,7.5 L14.2500002,7.5 C14.6642137,7.5 15.0000002,7.83578644 15.0000002,8.25 C15.0000002,8.66421356 14.6642137,9 14.2500002,9 L11.7500002,9 Z"/>
</svg>
