<svg xmlns="http://www.w3.org/2000/svg" width="24" height="24" viewBox="0 0 24 24">
  <path d="M7.04673027,19.1482647 C6.76318381,19.4502155 6.28854451,19.4651352 5.98659372,19.1815887 C5.68464293,18.8980423 5.66972327,18.423403 5.95326973,18.1214522 C7.51304634,16.4604341 9.68540492,15.5 12.0096032,15.5 C14.3230314,15.4999997 16.4862426,16.4515083 18.0448357,18.0990641 C18.3294923,18.3999686 18.3163208,18.8746596 18.0154164,19.1593162 C17.7145119,19.4439728 17.2398209,19.4308013 16.9551643,19.1298968 C15.6770269,17.7788049 13.9064492,16.9999997 12.0096033,17 C10.1039369,17 8.32584999,17.7861204 7.04673027,19.1482647 Z M12,24 C5.372583,24 0,18.627417 0,12 C0,5.372583 5.372583,0 12,0 C18.627417,0 24,5.372583 24,12 C24,18.627417 18.627417,24 12,24 Z M12,22.5 C17.7989899,22.5 22.5,17.7989899 22.5,12 C22.5,6.20101013 17.7989899,1.5 12,1.5 C6.20101013,1.5 1.5,6.20101013 1.5,12 C1.5,17.7989899 6.20101013,22.5 12,22.5 Z M12,14.5 C9.23857625,14.5 7,12.2614237 7,9.5 C7,6.73857625 9.23857625,4.5 12,4.5 C14.7614237,4.5 17,6.73857625 17,9.5 C17,12.2614237 14.7614237,14.5 12,14.5 Z M12,13 C13.9329966,13 15.5,11.4329966 15.5,9.5 C15.5,7.56700338 13.9329966,6 12,6 C10.0670034,6 8.5,7.56700338 8.5,9.5 C8.5,11.4329966 10.0670034,13 12,13 Z"/>
</svg>
