<svg xmlns="http://www.w3.org/2000/svg" width="24" height="24" viewBox="0 0 24 24">
  <path d="M17.7240883,20.8051026 C14.4112938,18.0663512 9.59276615,18.0632088 6.27589356,20.8050908 C9.74450088,23.0649658 14.2554773,23.0649697 17.7240883,20.8051026 Z M5.055026,19.8755789 C9.01756904,16.3725157 14.9877236,16.3767177 18.9449519,19.8755984 C19.108354,19.7312286 19.2683374,19.5809025 19.4246199,19.4246199 C23.5251267,15.3241131 23.5251267,8.67588687 19.4246199,4.57538009 C15.3241131,0.474873305 8.67588687,0.474873305 4.57538009,4.57538009 C0.474873305,8.67588687 0.474873305,15.3241131 4.57538009,19.4246199 C4.73165559,19.5808954 4.89163159,19.7312151 5.055026,19.8755789 L5.055026,19.8755789 Z M16.2425801,5.50735991 C18.5857233,7.85050313 18.5857233,11.6494969 16.2425801,13.9926401 C13.8994369,16.3357833 10.1004431,16.3357833 7.75729991,13.9926401 C5.4141567,11.6494969 5.4141567,7.85050313 7.75729991,5.50735991 C10.1004431,3.1642167 13.8994369,3.1642167 16.2425801,5.50735991 Z M15.1819199,6.56802009 C13.4245631,4.8106633 10.5753169,4.8106633 8.81796009,6.56802009 C7.0606033,8.32537687 7.0606033,11.1746231 8.81796009,12.9319799 C10.5753169,14.6893367 13.4245631,14.6893367 15.1819199,12.9319799 C16.9392767,11.1746231 16.9392767,8.32537687 15.1819199,6.56802009 Z M3.51471991,3.51471991 C8.20101313,-1.1715733 15.7989869,-1.1715733 20.4852801,3.51471991 C25.1715733,8.20101313 25.1715733,15.7989869 20.4852801,20.4852801 C15.7989869,25.1715733 8.20101313,25.1715733 3.51471991,20.4852801 C-1.1715733,15.7989869 -1.1715733,8.20101313 3.51471991,3.51471991 Z"/>
</svg>
