<?xml version="1.0" encoding="UTF-8"?>
<svg width="24px" height="24px" viewBox="0 0 24 24" version="1.1" xmlns="http://www.w3.org/2000/svg" xmlns:xlink="http://www.w3.org/1999/xlink">
    <!-- Generator: Sketch 54.1 (76490) - https://sketchapp.com -->
    <title>bell copy 42</title>
    <desc>Created with Sketch.</desc>
    <g id="Icons" stroke="none" stroke-width="1" fill="none" fill-rule="evenodd">
        <path d="M9.44831318,6.89676155 C11.0388639,8.24171102 13.2126752,8.67815812 15.1986746,8.05209144 C15.0405928,7.56021934 14.7663246,7.09757474 14.3758699,6.70712008 C13.0637029,5.39496303 10.9362666,5.39496358 9.62411174,6.70711843 C9.56263162,6.76859894 9.5040321,6.83186922 9.44831318,6.89676155 L9.44831318,6.89676155 Z M15.3236054,9.5775561 C13.0465037,10.1847786 10.6092737,9.69523815 8.74308264,8.25497569 C8.46201121,9.36492775 8.7556868,10.5904566 9.62410843,11.4588783 C10.9362753,12.771037 13.0637129,12.771037 14.3758683,11.4588816 C14.905801,10.9289455 15.2217134,10.2660343 15.3236054,9.5775561 Z M3.75,24 C2.50736644,24 1.5,22.9926336 1.5,21.75 L1.5,2.25 C1.5,1.00736644 2.50736644,0 3.75,0 L20.25,0 C21.4926336,0 22.5,1.00736644 22.5,2.25 L22.5,21.75 C22.5,22.9926336 21.4926336,24 20.25,24 L3.75,24 Z M3.75,22.5 L20.25,22.5 C20.6642064,22.5 21,22.1642064 21,21.75 L21,2.25 C21,1.83579356 20.6642064,1.5 20.25,1.5 L3.75,1.5 C3.33579356,1.5 3,1.83579356 3,2.25 L3,21.75 C3,22.1642064 3.33579356,22.5 3.75,22.5 Z M8.56344991,5.64645991 C10.4613928,3.74851703 13.5385751,3.74851697 15.4365301,5.64645991 C17.334473,7.54440286 17.334473,10.6215853 15.4365301,12.5195401 C13.5385871,14.417483 10.4614047,14.417483 8.56344991,12.5195401 C6.66550697,10.6215971 6.66550697,7.54441468 8.56344991,5.64645991 Z M19.4134995,18.6773311 C19.6066164,19.0437718 19.4661096,19.4973827 19.0996689,19.6904995 C18.7332282,19.8836164 18.2796173,19.7431096 18.0865005,19.3766689 C16.3149777,16.0151904 12.1538491,14.7262758 8.79236906,16.4977993 C7.56428984,17.1450062 6.56071774,18.1485799 5.91349799,19.3766718 C5.72037961,19.7431116 5.26676803,19.8836164 4.90032818,19.690498 C4.53388833,19.4973797 4.39338352,19.0437681 4.5865019,18.6773282 C5.37482791,17.1814889 6.59720098,15.9591139 8.09303103,15.1708004 C12.1873924,13.0130432 17.255743,14.582971 19.4134995,18.6773311 Z" id="Shape" fill="#000000" fill-rule="nonzero"></path>
    </g>
</svg>