<?xml version="1.0" encoding="UTF-8"?>
<svg width="24px" height="24px" viewBox="0 0 24 24" version="1.1" xmlns="http://www.w3.org/2000/svg" xmlns:xlink="http://www.w3.org/1999/xlink">
    <!-- Generator: Sketch 51.2 (57519) - http://www.bohemiancoding.com/sketch -->
    <title>Slice 2</title>
    <desc>Created with Sketch.</desc>
    <defs></defs>
    <g id="Prototype" stroke="none" stroke-width="1" fill="none" fill-rule="evenodd">
        <path d="M8.70121263,1.00448993 C16.9477972,-1.4696006 20.5214195,0.454628057 22.9955101,8.70121263 C25.4696006,16.9477972 23.5453719,20.5214195 15.2987874,22.9955101 C7.05220279,25.4696006 3.47858045,23.5453719 1.00448993,15.2987874 C-1.4696006,7.05220279 0.454628057,3.47858045 8.70121263,1.00448993 Z M9.27593294,2.92013513 C2.08731724,5.07682023 0.7634577,7.53547688 2.92013513,14.7240671 C5.07682023,21.9126828 7.53547688,23.2365423 14.7240671,21.0798649 C21.9126828,18.9231798 23.2365423,16.4645231 21.0798649,9.27593294 C18.9231798,2.08731724 16.4645231,0.7634577 9.27593294,2.92013513 Z M12.125,13.40625 C9.90476599,13.40625 8.10491071,11.6063947 8.10491071,9.38616071 C8.10491071,7.16592671 9.90476599,5.36607143 12.125,5.36607143 C14.345234,5.36607143 16.1450893,7.16592671 16.1450893,9.38616071 C16.1450893,11.6063947 14.345234,13.40625 12.125,13.40625 Z M12.125,11.40625 C13.2406645,11.40625 14.1450893,10.5018252 14.1450893,9.38616071 C14.1450893,8.27049621 13.2406645,7.36607143 12.125,7.36607143 C11.0093355,7.36607143 10.1049107,8.27049621 10.1049107,9.38616071 C10.1049107,10.5018252 11.0093355,11.40625 12.125,11.40625 Z M18.0362348,17.1022171 C18.1720953,17.6375304 17.8482748,18.1816243 17.3129615,18.3174848 C16.7776482,18.4533453 16.2335543,18.1295248 16.0976938,17.5942115 C15.6363797,15.7765563 14.0002816,14.5038234 12.125,14.5038234 C10.2497184,14.5038234 8.61362031,15.7765563 8.15230625,17.5942115 C8.01644574,18.1295248 7.47235183,18.4533453 6.9370385,18.3174848 C6.40172516,18.1816243 6.07790467,17.6375304 6.21376518,17.1022171 C6.900185,14.3976072 9.33464398,12.5038234 12.125,12.5038234 C14.915356,12.5038234 17.349815,14.3976072 18.0362348,17.1022171 Z" id="Combined-Shape" fill="#000000" fill-rule="nonzero"></path>
    </g>
</svg>