<?xml version="1.0" encoding="UTF-8"?>
<svg width="24px" height="24px" viewBox="0 0 24 24" version="1.1" xmlns="http://www.w3.org/2000/svg" xmlns:xlink="http://www.w3.org/1999/xlink">
    <title>profile</title>
    <g id="Icons" stroke="none" stroke-width="1" fill="none" fill-rule="evenodd">
        <g id="Glyphs" transform="translate(-1542.000000, -74.000000)" fill="#000000" fill-rule="nonzero">
            <path d="M1554,74 C1560.62742,74 1566,79.372583 1566,86 C1566,92.627417 1560.62742,98 1554,98 C1547.37258,98 1542,92.627417 1542,86 C1542,79.372583 1547.37258,74 1554,74 Z M1554,75.5 C1548.20101,75.5 1543.5,80.2010101 1543.5,86 C1543.5,91.7989899 1548.20101,96.5 1554,96.5 C1559.79899,96.5 1564.5,91.7989899 1564.5,86 C1564.5,80.2010101 1559.79899,75.5 1554,75.5 Z M1554.0096,89.5 C1556.32303,89.5 1558.48624,90.4515083 1560.04484,92.0990641 C1560.32949,92.3999686 1560.31632,92.8746596 1560.01542,93.1593162 C1559.71451,93.4439728 1559.23982,93.4308013 1558.95516,93.1298968 C1557.67703,91.7788049 1555.90645,91 1554.0096,91 C1552.10394,91 1550.32585,91.7861204 1549.04673,93.1482647 C1548.76318,93.4502155 1548.28854,93.4651352 1547.98659,93.1815887 C1547.68464,92.8980423 1547.66972,92.423403 1547.95327,92.1214522 C1549.51305,90.4604341 1551.6854,89.5 1554.0096,89.5 Z M1553.84229,78.7502811 L1554.22128,78.7524765 L1554.49673,78.7609967 L1554.76059,78.7754846 L1554.94716,78.7900396 L1555.16567,78.8120663 C1557.25734,79.0517404 1558.35409,80.0602792 1558.65799,82.0553857 L1558.6885,82.2811352 L1558.71508,82.5457957 L1558.72757,82.7129017 L1558.74134,82.9788016 L1558.74972,83.3421866 L1558.74991,83.5326318 L1558.74535,83.8139801 L1558.73516,84.0801045 L1558.71851,84.3436999 L1558.68758,84.66707 C1558.44457,86.7602075 1557.44033,87.8550932 1555.44193,88.158497 L1555.21578,88.1889619 L1554.95424,88.2151847 L1554.55286,88.2401896 L1554.43186,88.2445708 L1554.01619,88.2502492 L1553.78171,88.2477333 L1553.41679,88.2351273 L1553.10285,88.2143839 L1552.78376,88.1820075 L1552.57388,88.1536036 C1550.56309,87.8504225 1549.5481,86.7635322 1549.30853,84.6889216 L1549.28509,84.4543343 L1549.2726,84.2872283 L1549.25893,84.024344 L1549.25153,83.7502531 L1549.25001,83.5646297 L1549.25467,83.1905179 L1549.26518,82.916834 L1549.28154,82.6579333 C1549.46758,80.2273204 1550.56513,79.0431262 1552.89373,78.7994678 L1553.1307,78.7782257 L1553.30614,78.7668644 L1553.57116,78.7554975 L1553.84229,78.7502811 Z M1551.03546,81.4821125 C1550.92054,81.7629769 1550.84598,82.1032498 1550.80097,82.5139494 L1550.77742,82.7689085 L1550.76319,82.9934527 L1550.75093,83.3936988 L1550.74997,83.56212 L1550.7513,83.7262057 L1550.7649,84.1155887 L1550.78029,84.3346201 C1550.90608,85.8155531 1551.37652,86.410423 1552.61262,86.6396739 L1552.78596,86.6687181 L1552.96486,86.6931085 L1553.22545,86.719445 L1553.49188,86.7370593 L1553.80922,86.748034 L1554.0188,86.7503067 L1554.38669,86.7452838 L1554.68507,86.7311944 L1554.83056,86.7203345 L1555.04807,86.698391 C1556.48112,86.5289004 1557.03156,85.983594 1557.19787,84.4960929 L1557.21669,84.305207 L1557.2329,84.0812655 L1557.24597,83.7739185 L1557.25,83.5221317 L1557.24867,83.2880346 C1556.63552,83.4394914 1556.00161,83.5002611 1555.36592,83.4671669 C1553.7447,83.3752287 1552.21956,82.6835409 1551.08393,81.532938 L1551.03546,81.4821125 Z M1554.015,80.249 L1553.61868,80.2546369 L1553.38813,80.2645309 L1553.23619,80.2744953 C1552.88992,80.3005379 1552.58949,80.3447333 1552.32929,80.412789 L1552.142,80.468 L1552.17341,80.5012944 C1553.04608,81.3746203 1554.21183,81.8993102 1555.44737,81.9693839 C1555.99675,81.9979799 1556.54618,81.9345469 1557.0731,81.7825329 C1556.82537,80.8902663 1556.29181,80.4911057 1555.21388,80.3307618 L1555.00532,80.3034339 L1554.81468,80.2840744 L1554.6625,80.2721777 L1554.43356,80.2595577 L1554.015,80.249 Z" id="Shape"></path>
        </g>
    </g>
</svg>