<?xml version="1.0" encoding="UTF-8"?>
<svg width="24px" height="24px" viewBox="0 0 24 24" version="1.1" xmlns="http://www.w3.org/2000/svg" xmlns:xlink="http://www.w3.org/1999/xlink">
    <!-- Generator: Sketch 54.1 (76490) - https://sketchapp.com -->
    <title>bell copy 32</title>
    <desc>Created with Sketch.</desc>
    <g id="Icons" stroke="none" stroke-width="1" fill="none" fill-rule="evenodd">
        <path d="M18.2076567,10.6 C16.3576567,8.99 13.9576567,8 11.3076567,8 C7.14765674,8 3.56765674,10.42 1.86765674,13.93 C1.54765674,14.6 1.90765674,15.4 2.61765674,15.64 C3.20765674,15.84 3.84765674,15.56 4.11765674,15 C5.41765674,12.34 8.14765674,10.5 11.3076567,10.5 C13.2576567,10.5 15.0376567,11.22 16.4276567,12.38 L14.5176567,14.29 C13.8876567,14.92 14.3276567,16 15.2176567,16 L20.8076567,16 C21.3576567,16 21.8076567,15.55 21.8076567,15 L21.8076567,9.41 C21.8076567,8.52 20.7276567,8.07 20.0976567,8.7 L18.2076567,10.6 Z" id="Path" fill="#1D1D1D"></path>
    </g>
</svg>