<svg xmlns="http://www.w3.org/2000/svg" width="24" height="24" viewBox="0 0 24 24">
  <path d="M18.1553197,13.815567 C17.9397223,13.3798503 17.6822637,12.9643816 17.3862988,12.5744792 C15.8980165,10.613825 13.5531788,9.43521557 11.0052304,9.43521557 C8.45728203,9.43521557 6.11244434,10.613825 4.62416205,12.5744792 C4.10340978,13.2605152 3.70186764,14.0257008 3.43781128,14.8410668 C3.27278802,15.3506336 2.71559127,15.6332062 2.19327752,15.4722103 C1.67096377,15.3112144 1.38132261,14.7676158 1.54634587,14.258049 C1.87686369,13.2374601 2.37917087,12.2802549 3.03005967,11.4227778 C4.88854761,8.97441691 7.82189275,7.5 11.0052304,7.5 C14.1885681,7.5 17.1219132,8.97441691 18.9804012,11.4227778 C19.2827116,11.8210397 19.5529698,12.2408151 19.7888505,12.6784625 L20.5759183,10.4934118 C20.7632643,9.97330349 21.3324084,9.70513356 21.8471373,9.89443751 C22.3618662,10.0837414 22.6272624,10.6588337 22.4399165,11.178942 L20.7608635,15.8403142 C20.5735175,16.3604225 20.0043734,16.6285925 19.4896445,16.4392885 L14.8764845,14.7426878 C14.3617556,14.5533838 14.0963593,13.9782916 14.2837053,13.4581833 C14.4710513,12.938075 15.0401955,12.669905 15.5549243,12.859209 L18.1553197,13.815567 L18.1553197,13.815567 Z"/>
</svg>
