<svg xmlns="http://www.w3.org/2000/svg" width="24" height="24" viewBox="0 0 24 24">
  <path d="M7.48959543,3.48959543 C10.8090557,0.170135109 16.1909563,0.170134606 19.5104046,3.48959543 C22.8298654,6.80905625 22.8298654,12.1909579 19.5104046,15.5104046 C16.1909437,18.8298654 10.8090421,18.8298654 7.48959543,15.5104046 C4.17013461,12.1909437 4.17013461,6.80904208 7.48959543,3.48959543 Z M18.0961925,14.0961895 C20.6346027,11.5577901 20.6346027,7.44222073 18.0961895,4.90380748 C15.5577901,2.36539725 11.4422207,2.36539725 8.90380748,4.9038105 C6.36539725,7.44220989 6.36539725,11.5577793 8.9038105,14.0961925 C11.4422099,16.6346027 15.5577793,16.6346027 18.0961925,14.0961895 Z M11.2071068,12.863961 C10.8165825,13.2544853 10.1834175,13.2544853 9.79289322,12.863961 C9.40236893,12.4734367 9.40236893,11.8402718 9.79289322,11.4497475 L15.4497475,5.79289322 C15.8402718,5.40236893 16.4734367,5.40236893 16.863961,5.79289322 C17.2544853,6.18341751 17.2544853,6.81658249 16.863961,7.20710678 L11.2071068,12.863961 Z M11.3636731,22.1096849 C11.8553806,22.361165 12.0501234,22.9636375 11.7986433,23.4553449 C11.5471632,23.9470524 10.9446907,24.1417952 10.4529832,23.8903151 C9.1357164,23.2166089 7.76684095,22.6488198 6.32109314,22.1790704 C4.9246722,21.6628252 4.82489839,19.0110539 5.65406592,18.0997714 C5.7457721,18.0004821 5.83252058,17.8970571 5.91408647,17.7898307 C6.24845661,17.3502683 6.87585285,17.2649932 7.3154152,17.5993634 C7.75497754,17.9337335 7.84025268,18.5611297 7.50588254,19.0006921 C7.38583296,19.158509 7.25817825,19.3107042 7.1283291,19.4512492 C7.20535039,19.3665963 7.19424421,19.3959308 7.18117043,19.463106 C7.15064649,19.6199429 7.13600252,19.816116 7.1430448,20.0032844 C7.14836282,20.1446258 7.16567374,20.2689276 7.1894418,20.3598862 C8.6230377,20.836755 10.018462,21.4216868 11.3636731,22.1096849 Z M0.0849176038,14.5003911 C0.0461406965,12.9311174 0.836231069,11.4830437 2.13658175,10.6561589 C2.6026223,10.3598067 3.22066377,10.4973663 3.51701601,10.9634068 C3.81336825,11.4294474 3.67580869,12.0474888 3.20976814,12.3438411 C2.4954196,12.7980908 2.06304568,13.5905435 2.08430736,14.4509886 C2.08573912,14.5089371 2.0892511,14.5668158 2.09483651,14.6245125 L2.09479078,14.8176954 C1.97793583,16.018867 2.37973102,17.2127997 3.20459081,18.1052961 C4.02869987,19.0110605 3.92892606,21.6628318 2.53168589,22.1793794 L1.34593521,22.6165649 C0.827749403,22.8076196 0.252796338,22.5424275 0.0617415971,22.0242417 C-0.129313144,21.5060559 0.135878983,20.9311028 0.65406479,20.740048 L1.66186869,20.3684718 C1.68681099,20.2768256 1.70506627,20.1491288 1.71055347,20.003291 C1.71759574,19.8161226 1.70295177,19.6199495 1.67242784,19.4631126 C1.65977706,19.3981109 1.64896862,19.3685408 1.72286144,19.4486226 C0.542854116,18.1674881 -0.0463217893,16.4520138 0.0957113951,14.7186419 C0.0903163815,14.6459959 0.0867170941,14.5732231 0.0849176038,14.5003911 Z"/>
</svg>
