<svg xmlns="http://www.w3.org/2000/svg" width="24" height="24" viewBox="0 0 24 24">
  <path d="M4.44008329,10.6561629 C6.68374778,10.8731595 8.33316494,12.8487329 8.15616851,15.0868419 C8.29613704,16.739423 7.73568527,18.3761737 6.61315882,19.5925043 C6.52953921,19.6844858 6.57164621,20.804532 6.56475538,20.8026387 C8.0387952,21.281101 9.47239025,21.8762309 10.8519389,22.5823792 C11.2206557,22.7711139 11.36656,23.2230177 11.1778252,23.5917345 C10.9890905,23.9604513 10.5371868,24.1063556 10.16847,23.9176208 C8.85983028,23.2477686 7.49992348,22.683229 6.07294711,22.2193961 C4.88107471,21.7784033 4.79044234,19.3675821 5.50704057,18.5793553 C6.35970513,17.6554144 6.77790219,16.4117078 6.65669701,15.1603028 L6.65668722,15.0157978 C6.79630647,13.5722345 5.73924969,12.2888112 4.29568203,12.1491961 C4.23291632,12.1431255 4.16995238,12.1393178 4.1437092,12.1377747 C2.6938463,12.1735672 1.54752477,13.3779208 1.58332117,14.8277836 C1.58487119,14.8905709 1.58867325,14.9532825 1.59471999,15.0157969 L1.59468575,15.1605644 C1.47305605,16.4118594 1.89125547,17.6555738 2.74815886,18.5835016 C3.46096523,19.3675886 3.37033286,21.7784098 2.17784571,22.2196297 L1.00984571,22.6506297 C0.621245156,22.794026 0.189976528,22.5952486 0.046580264,22.2066481 C-0.0968160002,21.8180475 0.101961347,21.3867789 0.490561896,21.2433826 L1.65794714,20.8126098 C1.67976136,20.8045385 1.72186836,19.6844924 1.64221545,19.59684 C0.515344269,18.3766127 -0.045296979,16.7394414 0.0952356511,15.0866375 C0.0894266557,15.0128134 0.0856058325,14.9388419 0.0837780872,14.8648046 C0.0275344675,12.5867669 1.82865148,10.6944691 4.14348783,10.6382261 C4.24253748,10.6406421 4.34146714,10.6466249 4.44008329,10.6561629 Z M9.72703241,1.97703241 C12.3630754,-0.659010616 16.6369392,-0.659010993 19.2729726,1.97703241 C21.909016,4.61307582 21.909016,8.88694043 19.2729726,11.5229726 C16.6369292,14.159016 12.3630646,14.159016 9.72703241,11.5229726 C7.09098901,8.88692918 7.09098901,4.61306457 9.72703241,1.97703241 Z M18.2123135,10.4623113 C20.262569,8.41206457 20.262569,5.08794918 18.2123113,3.03769145 C16.1620646,0.987435993 12.8379492,0.987435993 10.7876915,3.03769372 C8.73743599,5.08794043 8.73743599,8.41205582 10.7876937,10.4623135 C12.8379404,12.512569 16.1620558,12.512569 18.2123135,10.4623113 Z M12.717981,9.59568416 C12.4250878,9.88857737 11.9502141,9.88857737 11.6573208,9.59568416 C11.3644276,9.30279094 11.3644276,8.8279172 11.6573208,8.53502398 L16.2984188,3.89392598 C16.5913121,3.60103277 17.0661858,3.60103277 17.359079,3.89392598 C17.6519722,4.1868192 17.6519722,4.66169294 17.359079,4.95458616 L12.717981,9.59568416 Z M13.1461422,22.4673358 C13.3647312,22.3503897 13.6062795,22.2332042 13.8751774,22.1127876 C14.2992151,21.9228971 14.7840626,21.7276061 15.4096384,21.4910461 C15.6553622,21.3981262 15.9140954,21.301998 16.2667729,21.1721855 C16.250616,21.1781325 16.9646443,20.9157689 17.1726851,20.8389226 C17.2033934,20.8275456 17.2464313,19.6833672 17.1565541,19.5844457 C16.2056914,18.5539922 15.5774528,17.1258714 15.5087266,15.6932484 C15.4888787,15.2795106 15.8081895,14.92802 16.2219272,14.9081721 C16.635665,14.8883241 16.9871557,15.2076349 17.0070036,15.6213727 C17.0583768,16.6922664 17.5408511,17.7890338 18.26285,18.5714916 C18.9853801,19.3666961 18.8938177,21.8009175 17.6931081,22.2457486 C15.0252379,23.231209 15.1702184,23.176385 14.488236,23.481787 C14.2496474,23.5886305 14.0391855,23.6907347 13.8537449,23.7899463 C13.4885161,23.9853454 13.0340374,23.8476712 12.8386383,23.4824424 C12.6432392,23.1172136 12.7809134,22.6627349 13.1461422,22.4673358 Z M22.6945161,11.9169315 C23.3749886,12.7235724 23.7446458,13.7996505 23.7446458,15.0203693 C23.9063632,16.6456601 23.3391159,18.3334048 22.1819139,19.5868692 C22.0963455,19.6810836 22.1396646,20.8257594 22.170809,20.8373137 C22.3582773,20.9066902 23.2070266,21.2188976 23.4301925,21.3016726 C23.8185522,21.44572 24.0166064,21.8773212 23.872559,22.2656809 C23.7285116,22.6540405 23.2969104,22.8520947 22.9085507,22.7080473 C22.6877667,22.6261558 21.8397198,22.3142068 21.6496388,22.2438631 C20.449548,21.7986414 20.3574258,19.3643804 21.0757474,18.5737749 C21.9469308,17.6300868 22.3719987,16.3653718 22.2481725,15.0930164 C22.2446458,14.1438895 21.9931788,13.4118652 21.5479872,12.8841293 C21.2809029,12.5675241 21.3210476,12.0943503 21.6376528,11.827266 C21.954258,11.5601817 22.4274318,11.6003263 22.6945161,11.9169315 Z"/>
</svg>
