<svg xmlns="http://www.w3.org/2000/svg" width="24" height="24" viewBox="0 0 24 24">
  <path d="M10.5502559,2.05025587 C13.2839306,-0.683418873 17.7160871,-0.683418873 20.4497501,2.05025587 C23.1834249,4.7839306 23.1834249,9.21608706 20.4497501,11.9497501 C17.7160754,14.6834249 13.2839189,14.6834249 10.5502559,11.9497501 C7.81658113,9.2160754 7.81658113,4.78391894 10.5502559,2.05025587 Z M19.0355381,10.5355351 C20.9881622,8.58291925 20.9881622,5.41709508 19.0355351,3.46446792 C17.0829193,1.51184378 13.9170951,1.51184378 11.9644679,3.46447094 C10.0118438,5.41708675 10.0118438,8.58291092 11.9644709,10.5355381 C13.9170867,12.4881622 17.0829109,12.4881622 19.0355381,10.5355351 Z M14.5093662,9.4083532 C14.1188419,9.79887749 13.4856769,9.79887749 13.0951526,9.4083532 C12.7046283,9.0178289 12.7046283,8.38466392 13.0951526,7.99413963 L16.6306865,4.45860573 C17.0212108,4.06808144 17.6543758,4.06808144 18.0449001,4.45860573 C18.4354244,4.84913002 18.4354244,5.482295 18.0449001,5.87281929 L14.5093662,9.4083532 Z M14,22.8888897 C14,23.4411744 13.5522847,23.8888897 13,23.8888897 C12.4477153,23.8888897 12,23.4411744 12,22.8888897 C12,20.6797521 10.2091374,18.8888894 8,18.8888897 C5.7908624,18.8888897 3.99999967,20.6797523 4,22.8888897 C4.00000008,23.4411743 3.5522849,23.8888896 3,23.8888897 C2.4477154,23.8888898 2.00000008,23.4411746 2,22.8888897 C1.99999958,20.0768624 3.93447998,17.7166544 6.54524776,17.066459 C6.50853977,17.0449132 6.47202714,17.0227661 6.43572163,17.0000149 C4.40777672,15.7291881 3.79400991,13.055001 5.06483751,11.0270582 C5.46688339,10.3854875 6.03001019,9.86045354 6.69812416,9.5042573 C7.18547396,9.24443311 7.79117816,9.42887906 8.05100236,9.91622887 C8.31082655,10.4035787 8.1263806,11.0092829 7.63903079,11.2691071 C7.27927821,11.4609045 6.97605617,11.743615 6.7595696,12.0890767 C6.07527914,13.1810437 6.40576906,14.620991 7.49773933,15.3052824 C8.58970639,15.9895728 10.0296537,15.6590829 10.7139446,14.5671133 C11.0072125,14.0991257 11.624332,13.9574874 12.0923196,14.2507554 C12.5603072,14.5440233 12.7019455,15.1611428 12.4086775,15.6291304 C11.8980708,16.4439402 11.1609114,17.0304509 10.3301436,17.3581496 C12.4864681,18.2677342 14,20.4015608 14,22.8888897 Z"/>
</svg>
