<svg xmlns="http://www.w3.org/2000/svg" width="24" height="24" viewBox="0 0 24 24">
  <path d="M9.47703256,1.97703241 C12.1130756,-0.659010616 16.3869393,-0.659010993 19.0229727,1.97703241 C21.6590161,4.61307582 21.6590161,8.88694043 19.0229727,11.5229726 C16.3869293,14.159016 12.1130647,14.159016 9.47703256,11.5229726 C6.84098915,8.88692918 6.84098915,4.61306457 9.47703256,1.97703241 Z M17.9623137,10.4623113 C20.0125691,8.41206457 20.0125691,5.08794918 17.9623114,3.03769145 C15.9120647,0.987435993 12.5879493,0.987435993 10.5376916,3.03769372 C8.48743613,5.08794043 8.48743613,8.41205582 10.5376939,10.4623135 C12.5879406,12.512569 15.912056,12.512569 17.9623137,10.4623113 Z M12.4679812,9.59568416 C12.1750879,9.88857737 11.7002142,9.88857737 11.407321,9.59568416 C11.1144278,9.30279094 11.1144278,8.8279172 11.407321,8.53502398 L16.048419,3.89392598 C16.3413122,3.60103277 16.8161859,3.60103277 17.1090792,3.89392598 C17.4019724,4.1868192 17.4019724,4.66169294 17.1090792,4.95458616 L12.4679812,9.59568416 Z M20.1319455,18.1837616 C22.3609854,18.790364 24,20.828766 24,23.2499782 C24,23.6641917 23.6642136,23.9999782 23.25,23.9999782 C22.8357864,23.9999782 22.5,23.6641917 22.5,23.2499782 C22.5,21.1789116 20.8210663,19.4999779 18.75,19.4999782 C16.6789334,19.4999782 14.9999997,21.1789118 15,23.2499781 C15.0000001,23.6641916 14.6642137,23.9999781 14.2500001,23.9999782 C13.8357866,23.9999782 13.5000001,23.6641919 13.5,23.2499783 C13.4999996,20.8968832 15.0480895,18.9053616 17.1813474,18.2383355 C16.6697969,18.0310266 16.1962929,17.7070962 15.8026596,17.2687902 C15.3648627,16.7813085 15.0624314,16.1876276 14.9254924,15.5468854 C14.838922,15.1418195 15.0971136,14.7432694 15.5021796,14.656699 C15.9072456,14.5701286 16.3057956,14.8283202 16.392366,15.2333862 C16.4745292,15.6178305 16.655988,15.974039 16.9186664,16.2665284 C17.7489649,17.191056 19.1715385,17.2674428 20.0960675,16.4371418 C21.0205951,15.6068432 21.096982,14.1842697 20.2666813,13.2597411 C19.9899141,12.9515646 20.0153764,12.477374 20.323553,12.2006068 C20.6317295,11.9238395 21.1059202,11.9493019 21.3826874,12.2574784 C22.7665225,13.7983601 22.6392111,16.1693155 21.0983298,17.5531482 C20.8025095,17.8188185 20.4760953,18.0287928 20.1319455,18.1837616 L20.1319455,18.1837616 Z M3.79066347,18.2054652 C3.35734081,18.0226403 2.95140345,17.7547011 2.59834991,17.4016476 C1.1338867,15.9371844 1.1338867,13.5628106 2.59834991,12.0983474 C4.06281313,10.6338842 6.43718687,10.6338842 7.90165009,12.0983474 C9.3661133,13.5628106 9.3661133,15.9371844 7.90165009,17.4016476 C7.54859659,17.7547011 7.14265928,18.0226403 6.70933667,18.2054652 C8.89881947,18.8377436 10.5,20.8568741 10.5,23.2499782 C10.5,23.6641917 10.1642136,23.9999782 9.75,23.9999782 C9.33578644,23.9999782 9,23.6641917 9,23.2499782 C9,21.1789116 7.32106634,19.4999779 5.25,19.4999782 C3.17893344,19.4999782 1.49999969,21.1789118 1.5,23.2499781 C1.50000006,23.6641916 1.16421368,23.9999781 0.750000113,23.9999782 C0.335786551,23.9999782 6.25445864e-08,23.6641919 0,23.2499783 C-3.61349066e-07,20.8568742 1.6011804,18.8377437 3.79066347,18.2054652 Z M6.84098991,13.1590076 C5.96231313,12.2803308 4.53768687,12.2803308 3.65901009,13.1590076 C2.7803333,14.0376844 2.7803333,15.4623106 3.65901009,16.3409874 C4.53768687,17.2196642 5.96231313,17.2196642 6.84098991,16.3409874 C7.7196667,15.4623106 7.7196667,14.0376844 6.84098991,13.1590076 Z"/>
</svg>
