<svg xmlns="http://www.w3.org/2000/svg" width="24" height="24" viewBox="0 0 24 24">
  <path d="M20.4130978,12.446187 C20.2750535,12.7654382 19.9809567,12.9692665 19.5916767,12.9968026 C19.5611879,12.99896 19.5305939,13 19.5,13 C19.1712307,13 18.902511,12.8799008 18.7267449,12.6726066 L15.5,10.3 C15.1,10 15,9.3 15.3,8.9 C15.6,8.5 16.2,8.4 16.7,8.7 L18.1416571,9.76004199 C17.2190477,6.97719668 14.614646,5 11.5,5 C9.6,5 7.9,5.7 6.5,7 C5.2,8.3 4.5,10.1 4.5,12 C4.5,15.9 7.6,19 11.5,19 C13.4,19 15.1,18.3 16.5,17 C16.9,16.6 17.5,16.6 17.9,17 C18.3,17.4 18.3,18 17.9,18.4 C16.2,20.1 13.9,21 11.5,21 C6.5,21 2.5,17 2.5,12 C2.5,9.6 3.4,7.3 5.1,5.6 C6.8,3.9 9.1,3 11.5,3 C15.6110755,3 19.0461134,5.70415073 20.1375684,9.44490701 L21.2,8 C21.5,7.6 22.2,7.5 22.6,7.8 C23,8.1 23.1,8.8 22.8,9.2 L20.4130978,12.446187 Z"/>
</svg>
