<?xml version="1.0" encoding="UTF-8"?>
<svg width="24px" height="24px" viewBox="0 0 24 24" version="1.1" xmlns="http://www.w3.org/2000/svg" xmlns:xlink="http://www.w3.org/1999/xlink">
    <!-- Generator: Sketch 54.1 (76490) - https://sketchapp.com -->
    <title>bell</title>
    <desc>Created with Sketch.</desc>
    <g id="Icons" stroke="none" stroke-width="1" fill="none" fill-rule="evenodd">
        <path d="M1.91767113,18.0000038 L17.4351854,18.0000038 C17.1287642,17.3684286 16.904689,16.6980128 16.7700068,16.0051035 C16.6909744,15.5984995 16.9565236,15.2048135 17.3631276,15.1257811 C17.7697315,15.0467487 18.1634175,15.3122979 18.2424499,15.7189018 C18.4242046,16.6539885 18.805653,17.5388269 19.3607361,18.3129679 C19.7165722,18.809231 19.3618808,19.5000038 18.7512285,19.5000038 L0.751228464,19.5000038 C0.15756821,19.5000038 -0.200760675,18.8430048 0.120687831,18.3439022 C0.147680285,18.3019919 0.212049684,18.1838986 0.302270959,17.9844594 C0.462715987,17.6297867 0.625732945,17.1836309 0.779680239,16.6407613 C1.22918591,15.0556543 1.50122846,13.0224988 1.50122846,10.5000032 C1.50122781,6.19646764 4.79634975,2.66255687 9.00122846,2.28363601 L9.00122846,0.750003844 C9.00122846,0.335790281 9.3370149,3.84356326e-06 9.75122846,3.84356325e-06 C10.165442,3.84356325e-06 10.5012285,0.335790281 10.5012285,0.750003844 L10.5012285,3.00000384 C10.5012285,3.41421741 10.165442,3.75000384 9.75122846,3.75000384 C6.02330193,3.75000384 3.0012279,6.77207748 3.00122846,10.500003 C3.00122846,13.1583823 2.71077101,15.3291646 2.22277669,17.0499955 C2.12105011,17.4087174 2.01813375,17.7249092 1.91767113,18.0000038 Z M12.4782183,1.97703256 C15.1142617,-0.659010852 19.3881263,-0.659010852 22.0241585,1.97703256 C24.6602019,4.61307596 24.6602019,8.88694057 22.0241585,11.5229727 C19.3881151,14.1590161 15.1142505,14.1590161 12.4782183,11.5229727 C9.84217489,8.88692932 9.84217489,4.61306471 12.4782183,1.97703256 Z M20.9634994,10.4623114 C23.0137549,8.41206471 23.0137549,5.08794932 20.9634972,3.0376916 C18.9132505,0.987436135 15.5891351,0.987436135 13.5388773,3.03769386 C11.4886219,5.08794057 11.4886219,8.41205596 13.5388796,10.4623137 C15.5891263,12.5125691 18.9132417,12.5125691 20.9634994,10.4623114 Z M18.0012284,7.50000264 L19.5012284,7.50000264 C19.9154419,7.50000264 20.2512284,7.83578908 20.2512284,8.25000264 C20.2512284,8.6642162 19.9154419,9.00000264 19.5012284,9.00000264 L17.2512284,9.00000264 C16.8370148,9.00000264 16.5012284,8.6642162 16.5012284,8.25000264 L16.5012284,4.50000264 C16.5012284,4.08578908 16.8370148,3.75000264 17.2512284,3.75000264 C17.6654419,3.75000264 18.0012284,4.08578908 18.0012284,4.50000264 L18.0012284,7.50000264 Z M7.02959483,21.961255 C6.91292326,21.5638124 7.14053315,21.1470405 7.53797575,21.0303689 C7.93541835,20.9136973 8.35219023,21.1413072 8.4688618,21.5387498 C8.67684771,22.2472554 9.41981611,22.6530073 10.1283253,22.445019 C10.5649624,22.3168414 10.906424,21.9753806 11.0345927,21.538757 C11.1512604,21.1413132 11.56803,20.9136992 11.9654737,21.0303668 C12.3629175,21.1470344 12.5905315,21.5638041 12.4738639,21.9612478 C12.2018941,22.887749 11.4773374,23.6123039 10.5508321,23.8842855 C9.04743895,24.325618 7.47092446,23.4646478 7.02959483,21.961255 Z" id="Shape" fill="#000000" fill-rule="nonzero"></path>
    </g>
</svg>