<?xml version="1.0" encoding="UTF-8"?>
<svg width="25px" height="24px" viewBox="0 0 25 24" version="1.1" xmlns="http://www.w3.org/2000/svg" xmlns:xlink="http://www.w3.org/1999/xlink">
    <!-- Generator: Sketch 54.1 (76490) - https://sketchapp.com -->
    <title>bell copy 71</title>
    <desc>Created with Sketch.</desc>
    <g id="Icons" stroke="none" stroke-width="1" fill="none" fill-rule="evenodd">
        <path d="M11.0558569,2.07826765 C10.6362,2.91704459 10.3397612,3.81405717 10.1763023,4.73990358 C9.26444915,9.90471596 12.6012792,14.801193 17.6144078,15.6863024 C18.9218419,15.9167156 20.2653207,15.8523082 21.5518274,15.497316 C22.3867349,15.2669359 23.0997962,16.1346609 22.7119596,16.9090822 C21.2509022,19.8264813 18.6456023,21.9802952 15.5478137,22.8273829 C9.53446537,24.4717337 3.40033313,20.8264154 1.84931693,14.7005005 C0.301881691,8.58876834 3.89886805,2.30663095 9.89777944,0.666238074 C10.7319824,0.438126596 11.4428183,1.30484002 11.0558569,2.07826765 Z M15.0202819,20.8982094 C16.8854958,20.3881683 18.5370214,19.2990518 19.7619528,17.8051658 C18.9292764,17.8508512 18.0923851,17.8013585 17.2669802,17.6558948 C11.1546642,16.5767147 7.10477997,10.6338992 8.20676225,4.39217949 C8.26554601,4.05922279 8.33860362,3.72934533 8.42562762,3.40348129 C4.71725173,5.43687963 2.69046039,9.87423598 3.78813788,14.2096102 C5.06621332,19.2575145 10.0939248,22.2453224 15.0202819,20.8982094 Z" id="Shape" fill="#000000" fill-rule="nonzero"></path>
    </g>
</svg>