<?xml version="1.0" encoding="UTF-8"?>
<svg width="25px" height="24px" viewBox="0 0 25 24" version="1.1" xmlns="http://www.w3.org/2000/svg" xmlns:xlink="http://www.w3.org/1999/xlink">
    <!-- Generator: Sketch 54.1 (76490) - https://sketchapp.com -->
    <title>bell copy 69</title>
    <desc>Created with Sketch.</desc>
    <g id="Icons" stroke="none" stroke-width="1" fill="none" fill-rule="evenodd">
        <path d="M10.5411945,3.48016051 C10.1161809,4.31522411 9.81733965,5.20870696 9.65442409,6.13144647 C8.74427403,11.2864473 12.1854083,16.2032279 17.3401572,17.1133123 C18.6867122,17.3506229 20.0687999,17.2917068 21.3902717,16.9406629 C22.0171555,16.7741336 22.5455408,17.4280372 22.2511003,18.0059818 C20.8317583,20.7919474 18.2912392,22.8400325 15.267542,23.635907 C9.40747256,25.1783553 3.40653612,21.6782079 1.864093,15.818121 C0.321644728,9.95805153 3.82179214,3.9571151 9.6818802,2.41467167 C10.3082232,2.2498109 10.834974,2.90294462 10.5411945,3.48016051 Z M14.8857275,22.1853148 C16.9682205,21.6371769 18.7852266,20.4010032 20.0570787,18.7022511 C19.0669091,18.8010333 18.0650884,18.7641869 17.079589,18.5905069 C11.1087992,17.5363485 7.12308368,11.8414563 8.17727049,5.87064532 C8.26489086,5.37437118 8.38645679,4.88540332 8.54083735,4.40712337 C4.41843601,6.28292626 2.12286109,10.9083284 3.31468531,15.436307 C4.64625933,20.4952549 9.82679911,23.5168921 14.8857275,22.1853148 Z M16.235,2.25 L16.235,0.75 C16.235,0.335786438 16.5707864,0 16.985,0 C17.3992136,0 17.735,0.335786438 17.735,0.75 L17.735,2.25 L19.24,2.25 C19.6542136,2.25 19.99,2.58578644 19.99,3 C19.99,3.41421356 19.6542136,3.75 19.24,3.75 L17.735,3.75 L17.735,5.25 C17.735,5.66421356 17.3992136,6 16.985,6 C16.5707864,6 16.235,5.66421356 16.235,5.25 L16.235,3.75 L14.73,3.75 C14.3157864,3.75 13.98,3.41421356 13.98,3 C13.98,2.58578644 14.3157864,2.25 14.73,2.25 L16.235,2.25 Z M21,9 L21,8.25 C21,7.83578644 21.3357864,7.5 21.75,7.5 C22.1642136,7.5 22.5,7.83578644 22.5,8.25 L22.5,9 L23.25,9 C23.6642136,9 24,9.33578644 24,9.75 C24,10.1642136 23.6642136,10.5 23.25,10.5 L22.5,10.5 L22.5,11.25 C22.5,11.6642136 22.1642136,12 21.75,12 C21.3357864,12 21,11.6642136 21,11.25 L21,10.5 L20.25,10.5 C19.8357864,10.5 19.5,10.1642136 19.5,9.75 C19.5,9.33578644 19.8357864,9 20.25,9 L21,9 Z" id="Shape" fill="#000000" fill-rule="nonzero"></path>
    </g>
</svg>