<?xml version="1.0" encoding="UTF-8"?>
<svg width="24px" height="24px" viewBox="0 0 24 24" version="1.1" xmlns="http://www.w3.org/2000/svg" xmlns:xlink="http://www.w3.org/1999/xlink">
    <title>rocket-g</title>
    <g id="Icons" stroke="none" stroke-width="1" fill="none" fill-rule="evenodd">
        <g transform="translate(-3251.000000, -74.000000)" fill="#000000" fill-rule="nonzero" id="Shape">
            <path d="M3255.73706,89.7605461 L3255.95188,89.7618619 C3256.80617,89.7940987 3257.62531,90.1368011 3258.24208,90.7377857 C3259.49982,91.9796078 3259.54851,94.0248156 3258.40673,95.3756509 C3257.75461,96.1519799 3256.71414,96.7347774 3255.37954,97.1989067 C3254.80871,97.3974222 3254.21045,97.5640224 3253.60728,97.7020148 L3253.15433,97.8001969 L3252.79059,97.8715494 L3252.48103,97.9266239 L3252.13251,97.9800506 C3251.47914,98.0674002 3250.92147,97.5097326 3251.00882,96.8563582 L3251.02284,96.7567108 L3251.08779,96.3602396 L3251.18867,95.8345407 C3251.34354,95.0792601 3251.54182,94.3228691 3251.78996,93.60933 C3252.14341,92.5929775 3252.56569,91.747205 3253.08984,91.113625 L3253.26838,90.9103477 L3253.46,90.718 L3253.50719,90.6615042 L3253.59587,90.5759969 C3254.07904,90.1635351 3254.66657,89.897912 3255.28879,89.8008701 L3255.52361,89.7724241 L3255.73706,89.7605461 Z M3274.00455,74 C3274.55505,74.0026638 3275,74.4496407 3275,75.0001511 C3275,79.8496646 3273.13124,84.3905164 3268.38723,87.8233949 L3268.49068,88.2800415 C3268.66742,89.1059355 3268.77639,89.9336035 3268.78325,90.7222027 C3268.79328,91.8747641 3268.58613,92.8606506 3268.07322,93.6300196 C3267.54639,94.4175418 3266.67262,95.0200856 3265.54841,95.5055168 C3264.96833,95.7559937 3264.35488,95.9594686 3263.74245,96.1217278 L3263.40153,96.2079215 L3263.12061,96.2718766 L3262.90783,96.3143294 C3262.33243,96.4187744 3261.80003,96.0108594 3261.73572,95.4454782 L3261.72923,95.3304075 L3261.72877,90.103 L3258.90777,87.282 L3253.69231,87.2822024 C3253.06876,87.2822024 3252.59727,86.7177615 3252.70828,86.1041716 L3252.75066,85.8910853 L3252.8145,85.6097238 L3252.90055,85.2682345 C3253.06254,84.6547621 3253.26568,84.0402587 3253.51573,83.4592036 C3254.00129,82.3308718 3254.60411,81.4544706 3255.39402,80.9260496 C3256.16206,80.4140183 3257.14795,80.206867 3258.30051,80.2168978 C3259.08911,80.2237611 3259.91678,80.332728 3260.74267,80.5094715 L3261.20815,80.6159951 C3262.56143,78.6769771 3264.3453,77.0756496 3266.43155,75.9298347 C3268.74675,74.6516535 3271.35157,73.9881025 3274.00455,74 Z M3255.87786,91.7604916 C3255.56675,91.7489691 3255.26373,91.8360876 3255.01438,92.0055866 L3254.997,92.018 L3254.9894,92.0282763 L3254.79024,92.2137536 C3254.39046,92.6105607 3254.00541,93.3276424 3253.67899,94.2662692 C3253.60697,94.4733704 3253.53933,94.6863044 3253.47603,94.9031679 L3253.38432,95.2311725 L3253.259,95.729 L3253.7577,95.6045489 L3254.0042,95.5363782 L3254.24758,95.4645521 L3254.7226,95.3098776 C3255.74656,94.9537809 3256.50686,94.5279153 3256.87729,94.0869243 C3257.35832,93.517826 3257.33779,92.6555264 3256.84162,92.1656115 C3256.58899,91.9194563 3256.24186,91.7742276 3255.87786,91.7604916 Z M3266.59136,88.9762903 L3266.06578,89.2617999 C3265.30392,89.6650985 3264.52422,90.0331498 3263.72948,90.3645515 L3263.729,94.043 L3264.00916,93.9546232 C3264.13714,93.9113567 3264.26375,93.8659471 3264.38837,93.8184033 L3264.75557,93.669379 C3265.55848,93.3226829 3266.14153,92.9206223 3266.41,92.5192971 C3266.66097,92.1428399 3266.79019,91.5278636 3266.78333,90.7396081 C3266.77851,90.1863407 3266.70842,89.5859068 3266.59136,88.9762903 Z M3272.966,76.035 L3272.7008,76.0559512 C3270.98432,76.2122018 3269.31406,76.6939611 3267.77756,77.4791711 L3267.39627,77.6817828 C3265.36506,78.7973659 3263.6661,80.405076 3262.4433,82.3761279 C3261.68784,83.556531 3261.04487,84.7859093 3260.51658,86.0631504 L3262.96811,88.5151208 C3264.20234,87.9999448 3265.39771,87.3894882 3266.54193,86.6898777 C3266.5809,86.6481489 3266.62552,86.6122468 3266.67387,86.5798289 C3270.80078,83.8127446 3272.6311,80.2199209 3272.94895,76.2870029 L3272.966,76.035 Z M3258.28311,82.2168221 C3257.49485,82.2099619 3256.87988,82.3391787 3256.50474,82.5892672 C3256.10219,82.8585625 3255.69976,83.4436269 3255.35284,84.2497789 C3255.24933,84.4903132 3255.15431,84.7414519 3255.06786,84.9980216 L3254.977,85.282 L3258.67513,85.2825393 C3259.08283,84.298718 3259.55263,83.3420852 3260.08167,82.4161712 L3260.32414,82.4651897 C3259.61992,82.314484 3258.92024,82.2223671 3258.28311,82.2168221 Z"></path>
        </g>
    </g>
</svg>