<?xml version="1.0" encoding="UTF-8"?>
<svg width="24px" height="24px" viewBox="0 0 24 24" version="1.1" xmlns="http://www.w3.org/2000/svg" xmlns:xlink="http://www.w3.org/1999/xlink">
    <!-- Generator: Sketch 52.2 (67145) - http://www.bohemiancoding.com/sketch -->
    <title>bell copy</title>
    <desc>Created with Sketch.</desc>
    <g id="Finals" stroke="none" stroke-width="1" fill="none" fill-rule="evenodd">
        <path d="M5.38119913,22.0835586 C6.03275381,19.5954818 8.02637632,17.6639979 10.5500123,17.1011674 C9.99789584,16.8936265 9.48013213,16.5677396 9.03589908,16.1235065 C7.36839161,14.4559991 7.36839161,11.7524379 9.03589908,10.0849304 C10.7034066,8.41742291 13.4069678,8.41742291 15.0744752,10.0849304 C16.7419827,11.7524379 16.7419827,14.4559991 15.0744752,16.1235065 C14.6310152,16.5669666 14.1142801,16.8924921 13.5632439,17.1000829 C16.0367904,17.6542731 18.0686469,19.5517446 18.7295529,22.0835207 C18.9913513,22.0590093 19.1962432,21.8386578 19.1962432,21.5704515 L19.1962432,5.37420821 C19.1962432,5.08959667 18.9655197,4.8588732 18.6809082,4.8588732 L14.2637509,4.8588732 C13.7351864,4.8588732 13.3067002,4.43038699 13.3067002,3.90182246 C13.3067002,3.37325793 13.7351864,2.94477172 14.2637509,2.94477172 L18.6809082,2.94477172 C20.0226488,2.94477172 21.1103447,4.03246761 21.1103447,5.37420821 L21.1103447,21.5704515 C21.1103447,22.9121921 20.0226488,23.999888 18.6809082,23.999888 L17.9581567,23.999888 C17.948369,24.0000377 17.9386063,24.000037 17.9288709,23.999888 L6.1814773,23.999888 C6.17173872,24.000037 6.16197582,24.0000377 6.15218803,23.999888 L5.42943649,23.999888 C4.08769589,23.999888 3.0000002,22.9121921 3,21.5704513 L3,5.37420799 C3,4.03246739 4.08769588,2.94477156 5.42943655,2.9447715 L9.84659381,2.9447715 C10.3751583,2.9447715 10.8036445,3.37325771 10.8036445,3.90182224 C10.8036445,4.43038677 10.3751583,4.85887298 9.84659381,4.85887298 L5.4294366,4.85887298 C5.14482495,4.85887299 4.91410148,5.08959645 4.91410148,5.37420799 L4.91410148,21.5704511 C4.91410152,21.8387968 5.11920594,22.0592378 5.38119913,22.0835586 Z M7.38609115,22.0857865 L16.7249828,22.0857865 C15.9288624,19.9542663 13.7411335,18.5777038 11.3907775,18.8937458 C9.54130411,19.1424362 8.01973691,20.3931222 7.38609115,22.0857865 Z M10.3893732,11.4384045 C9.46936887,12.3584089 9.46936887,13.850028 10.3893732,14.7700324 C11.3093776,15.6900367 12.8009967,15.6900367 13.7210011,14.7700324 C14.6410054,13.850028 14.6410054,12.3584089 13.7210011,11.4384045 C12.8009967,10.5184002 11.3093776,10.5184002 10.3893732,11.4384045 Z M15.2208018,6.11040098 C15.2208018,7.04555316 14.4627112,7.80364441 13.5275582,7.80364459 L10.5827867,7.80364459 C9.64763446,7.80364459 8.88954321,7.04555392 8.88954307,6.11040087 L8.88954307,3.16562936 C8.88954307,1.41730122 10.3068443,0 12.0551724,0 C13.8035006,0 15.2208018,1.41730122 15.2208018,3.16562936 L15.2208018,6.11040098 Z M13.3067003,3.16562937 C13.3067003,2.47443027 12.7463715,1.91410148 12.0551724,1.91410148 C11.3639733,1.91410148 10.8036445,2.47443027 10.8036445,3.16562936 L10.8036445,5.88954311 L13.3067004,5.88954311 L13.3067003,3.16562937 Z" id="Shape" fill="#000000" fill-rule="nonzero"></path>
    </g>
</svg>