<?xml version="1.0" encoding="UTF-8"?>
<svg width="24px" height="24px" viewBox="0 0 24 24" version="1.1" xmlns="http://www.w3.org/2000/svg" xmlns:xlink="http://www.w3.org/1999/xlink">
    <!-- Generator: Sketch 52.2 (67145) - http://www.bohemiancoding.com/sketch -->
    <title>bell copy 2</title>
    <desc>Created with Sketch.</desc>
    <g id="Finals" stroke="none" stroke-width="1" fill="none" fill-rule="evenodd">
        <path d="M8.88957056,4.85889566 L5.42944794,4.85889566 C5.14483496,4.85889567 4.91411041,5.08962021 4.91411041,5.37423308 L4.91411041,21.5705518 C4.91411045,21.855165 5.14483497,22.0858896 5.42944783,22.0858896 L18.6809815,22.0858896 C18.9655943,22.0858896 19.1963188,21.855165 19.1963188,21.5705522 L19.1963188,5.3742333 C19.1963188,5.08962043 18.9655943,4.85889588 18.6809814,4.85889588 L15.2208589,4.85889588 L15.2208589,6.1104295 C15.2208589,7.04558605 14.4627647,7.80368084 13.5276073,7.80368102 L10.5828221,7.80368102 C9.64766549,7.80368102 8.8895707,7.04558681 8.88957056,6.11042939 L8.88957056,4.85889566 Z M15.2132744,2.94478547 L18.6809814,2.94478547 C20.0227283,2.94478547 21.1104292,4.03248644 21.1104292,5.3742333 L21.1104292,21.5705522 C21.1104292,22.912299 20.0227282,24.0000001 18.6809814,24 L5.42944783,24 C4.08770096,24 3.0000002,22.9122991 3,21.5705519 L3,5.37423308 C3,4.03248621 4.08770096,2.94478531 5.42944789,2.94478525 L8.89715502,2.94478525 C9.01054144,1.29948979 10.3811227,0 12.0552147,0 C13.7293068,0 15.0998881,1.29948991 15.2132744,2.94478547 Z M13.3067484,3.16564415 C13.3067484,2.47444182 12.746417,1.91411041 12.0552147,1.91411041 C11.3640124,1.91411041 10.803681,2.47444182 10.803681,3.16564414 L10.803681,5.88957061 L13.3067485,5.88957061 L13.3067484,3.16564415 Z M8.96319019,19.8404906 C8.4346232,19.8404906 8.00613499,19.4120024 8.00613499,18.8834354 C8.00613499,18.3548684 8.4346232,17.9263802 8.96319019,17.9263802 L15.3521941,17.9263802 C15.8807611,17.9263802 16.3092493,18.3548684 16.3092493,18.8834354 C16.3092493,19.4120024 15.8807611,19.8404906 15.3521941,19.8404906 L8.96319019,19.8404906 Z" id="Shape" fill="#000000" fill-rule="nonzero"></path>
    </g>
</svg>