<svg xmlns="http://www.w3.org/2000/svg" width="24" height="25" viewBox="0 0 24 25">
  <path d="M11.0000708,18.5000074 L9.50007885,18.5000074 C8.9477941,18.5000074 8.50007885,18.0522922 8.50007885,17.5000074 C8.50007885,16.9477227 8.9477941,16.5000074 9.50007885,16.5000074 L12.884381,16.5000077 C13.3888237,16.4996556 13.8424936,16.1929467 14.0307897,15.7249667 C14.2857351,15.0913285 13.978756,14.3710024 13.3468616,14.1167521 L9.90514092,12.739395 C8.68030025,12.2465848 7.87755983,11.0592056 7.87663763,9.73893909 C7.8754097,7.9887325 9.26357879,6.5620146 11.0000708,6.50197092 L11.0000708,6.25000417 C11.0000708,5.69771942 11.4477861,5.25000417 12.0000708,5.25000417 C12.5523556,5.25000417 13.0000708,5.69771942 13.0000708,6.25000417 L13.0000708,6.50000417 L14.5000708,6.50000417 C15.0523556,6.50000417 15.5000708,6.94771942 15.5000708,7.50000417 C15.5000708,8.05228892 15.0523556,8.50000417 14.5000708,8.50000417 L11.112436,8.50000392 C10.4294436,8.50048099 9.87615795,9.05454153 9.87663714,9.73753901 C9.87698949,10.2419873 10.1836988,10.6956586 10.6499532,10.8832562 L14.0916839,12.2606174 C15.7500395,12.9278716 16.5534802,14.8131441 15.8862322,16.4715143 C15.4077522,17.6606999 14.2745702,18.4519987 13.0000708,18.4978985 L13.0000708,18.7500042 C13.0000708,19.3022889 12.5523556,19.7500042 12.0000708,19.7500042 C11.4477861,19.7500042 11.0000708,19.3022889 11.0000708,18.7500042 L11.0000708,18.5000074 Z M4.22183072,4.72183072 C8.51760476,0.426056679 15.4824198,0.426056176 19.7781776,4.72183072 C24.0739522,9.01760526 24.0739522,15.9824214 19.7781776,20.2781776 C15.4824031,24.5739522 8.51758693,24.5739522 4.22183072,20.2781776 C-0.0739438244,15.9824031 -0.0739438244,9.01758693 4.22183072,4.72183072 Z M18.3639656,18.8639625 C21.8786895,15.3492536 21.8786895,9.65076974 18.3639625,6.13604277 C14.8492536,2.62131882 9.15076974,2.62131882 5.63604277,6.13604579 C2.12131882,9.65075474 2.12131882,15.3492386 5.63604579,18.8639656 C9.15075474,22.3786895 14.8492386,22.3786895 18.3639656,18.8639625 Z"/>
</svg>
