<?xml version="1.0" encoding="UTF-8"?>
<svg width="25px" height="24px" viewBox="0 0 25 24" version="1.1" xmlns="http://www.w3.org/2000/svg" xmlns:xlink="http://www.w3.org/1999/xlink">
    <!-- Generator: Sketch 54.1 (76490) - https://sketchapp.com -->
    <title>bell copy 10</title>
    <desc>Created with Sketch.</desc>
    <g id="Icons" stroke="none" stroke-width="1" fill="none" fill-rule="evenodd">
        <path d="M14,1.5 L4.25,1.5 C3.83621356,1.5 3.5,1.83621356 3.5,2.25 L3.5,21.75 C3.5,22.1637864 3.83621356,22.5 4.25,22.5 L20.75,22.5 C21.1637864,22.5 21.5,22.1637864 21.5,21.75 L21.5,9.5 L16.25,9.5 C15.0077864,9.5 14,8.49221356 14,7.25 L14,1.5 Z M15.5,1.81066017 L15.5,7.25 C15.5,7.66378644 15.8362136,8 16.25,8 L21.4901882,8 C21.4650462,7.84611144 21.3923309,7.70299111 21.2806699,7.59133009 L15.5,1.81066017 Z M23,21.75 C23,22.9922136 21.9922136,24 20.75,24 L4.25,24 C3.00778644,24 2,22.9922136 2,21.75 L2,2.25 C2,1.00778644 3.00778644,0 4.25,0 L14.879,0 C15.4757462,0 16.0475602,0.236900066 16.4693301,0.658669914 L22.3413301,6.53066991 C22.7630999,6.95243976 23,7.52425382 23,8.121 L23,21.75 Z M13.5,16.25 C13.0857864,16.25 12.75,15.9142136 12.75,15.5 C12.75,15.0857864 13.0857864,14.75 13.5,14.75 L18.5,14.75 C18.9142136,14.75 19.25,15.0857864 19.25,15.5 C19.25,15.9142136 18.9142136,16.25 18.5,16.25 L13.5,16.25 Z M7.25,19.75 C6.83578644,19.75 6.5,19.4142136 6.5,19 C6.5,18.5857864 6.83578644,18.25 7.25,18.25 L18.5,18.25 C18.9142136,18.25 19.25,18.5857864 19.25,19 C19.25,19.4142136 18.9142136,19.75 18.5,19.75 L7.25,19.75 Z M8.55768645,12.2190121 C9.3219596,12.219 9.871,11.8072656 9.871,11.422 C9.871,11.036312 9.32465068,10.626 8.562,10.626 C7.04862374,10.626 5.75,9.65137984 5.75,8.328 C5.75,7.00462658 7.04845868,6.031 8.53202397,6.03159928 C9.50224372,5.99279049 10.4302799,6.42953478 11.017261,7.20237097 C11.2677934,7.53222911 11.2034872,8.00272861 10.873629,8.253261 C10.5437709,8.5037934 10.0732714,8.43948717 9.822739,8.10962903 C9.53243432,7.72740556 9.07293963,7.51116217 8.562,7.531 C7.79841403,7.531 7.25,7.94221869 7.25,8.328 C7.25,8.714156 7.79875778,9.126 8.562,9.126 C10.0749195,9.126 11.371,10.0993652 11.371,11.422 C11.371,12.5235159 10.4702265,13.3832954 9.312,13.6397901 L9.312,14 C9.312,14.4142136 8.97621356,14.75 8.562,14.75 C8.14778644,14.75 7.812,14.4142136 7.812,14 L7.812,13.6471995 C7.13940939,13.4945962 6.53188279,13.1103949 6.10361608,12.5487815 C5.85244719,12.2194078 5.91584475,11.748785 6.2452185,11.4976161 C6.57459224,11.2464472 7.04521504,11.3098448 7.29638392,11.6392185 C7.58184007,12.0135553 8.02713123,12.2288398 8.52319261,12.2199867 C8.53462485,12.219404 8.54612467,12.2190773 8.55768645,12.2190121 Z" id="Shape" fill="#000000" fill-rule="nonzero"></path>
        <path d="M8.062,5.5 L8.062,6.531 C8.062,6.94521356 8.39778644,7.281 8.812,7.281 C9.22621356,7.281 9.562,6.94521356 9.562,6.531 L9.562,5.5 C9.562,5.08578644 9.22621356,4.75 8.812,4.75 C8.39778644,4.75 8.062,5.08578644 8.062,5.5 Z" id="Path" fill="#000000" fill-rule="nonzero"></path>
    </g>
</svg>