<svg xmlns="http://www.w3.org/2000/svg" width="24" height="25" viewBox="0 0 24 25">
  <path d="M11.8800382,17.5000059 L13.0644217,17.500006 C13.7513348,17.4995266 14.3691087,17.0818733 14.6255171,16.4446111 C14.9726816,15.5817726 14.5546605,14.6008866 13.6939559,14.2545716 L9.5656974,12.6044682 C8.16564236,12.0444012 7.24825333,10.6876457 7.25000249,9.17972151 C7.25233985,7.16534715 8.87098105,5.53045284 10.8765609,5.50041984 L10.8765609,4.5 C10.8765609,3.94771525 11.3242761,3.5 11.8765609,3.5 C12.4288456,3.5 12.8765609,3.94771525 12.8765609,4.5 L12.8765609,5.50000185 L15.0031218,5.50000185 C15.5554065,5.50000185 16.0031218,5.9477171 16.0031218,6.50000185 C16.0031218,7.05228659 15.5554065,7.50000185 15.0031218,7.50000185 L10.9359618,7.50000117 C10.0059127,7.49892233 9.25108031,8.25200176 9.25000115,9.18204183 C9.24920158,9.87133298 9.66855206,10.4915236 10.3082718,10.7474321 L14.4383903,12.3982817 C16.325944,13.1577558 17.2404266,15.3035882 16.4809596,17.1911586 C15.9200229,18.5852771 14.5685495,19.4989568 13.0651196,19.5000057 L12.8765609,19.5000057 L12.8765609,20.5 C12.8765609,21.0522847 12.4288456,21.5 11.8765609,21.5 C11.3242761,21.5 10.8765609,21.0522847 10.8765609,20.5 L10.8765609,19.5000057 L9.00311957,19.5000057 C8.45083482,19.5000057 8.00311957,19.0522905 8.00311957,18.5000057 C8.00311957,17.947721 8.45083482,17.5000057 9.00311957,17.5000057 L11.8730837,17.5000059 L11.8765609,17.5 C11.8777204,17.5 11.8788795,17.500002 11.8800382,17.5000059 L11.8800382,17.5000059 Z"/>
</svg>
