<svg xmlns="http://www.w3.org/2000/svg" width="24" height="25" viewBox="0 0 24 25">
  <path d="M4.22188688,4.72182688 C8.51765638,0.426057372 15.4824681,0.426057372 19.7782131,4.72182688 C24.0739826,9.01759638 24.0739826,15.9824081 19.7782131,20.2781531 C15.4824436,24.5739226 8.51763194,24.5739226 4.22188688,20.2781531 C-0.0738826278,15.9823836 -0.0738826278,9.01757194 4.22188688,4.72182688 Z M18.3640016,18.8639375 C21.8787198,15.3492393 21.8787198,9.65076069 18.3639975,6.13603843 C14.8492993,2.62132019 9.15082069,2.62132019 5.63609843,6.13604245 C2.12138019,9.65074069 2.12138019,15.3492193 5.63610245,18.8639416 C9.15080069,22.3786598 14.8492793,22.3786598 18.3640016,18.8639375 Z M11,17.5003785 C9.90463684,17.5250131 8.88173364,16.9501881 8.33364622,15.999431 C8.05781811,15.520957 8.22209501,14.9094744 8.70056894,14.6336463 C9.17904287,14.3578182 9.79052548,14.5220951 10.0663536,15.000569 C10.2509169,15.3207275 10.5970093,15.5130009 11,15.5 L13,15.5 C13.5522851,15.5 13.9999999,15.0522852 14,14.5 C13.9999999,13.9477147 13.5522851,13.5 13,13.5 L11,13.5 C9.34314596,13.5 8.00000003,12.1568545 7.99999996,10.5 C7.99999996,8.843146 9.34314545,7.50000008 11,7.5 L11,6.5 C11,5.94771525 11.4477153,5.5 12,5.5 C12.5522847,5.5 13,5.94771525 13,6.5 L13,7.49961981 C14.0953587,7.47498631 15.1182615,8.04981132 15.6663519,9.00056599 C15.9421817,9.47903894 15.777907,10.0905221 15.299434,10.3663519 C14.8209611,10.6421817 14.2094779,10.477907 13.9336481,9.99943401 C13.749082,9.67927327 13.4029876,9.48699876 13,9.5 L11,9.5 C10.4477151,9.50000003 9.99999996,9.94771534 9.99999996,10.5 C9.99999998,11.0522848 10.4477153,11.5 11,11.5 L13,11.5 C14.6568546,11.4999999 15.9999999,12.8431453 16,14.5 C15.9999999,16.1568547 14.6568547,17.4999999 13,17.5 L13,18.5 C13,19.0522847 12.5522847,19.5 12,19.5 C11.4477153,19.5 11,19.0522847 11,18.5 L11,17.5003802 L11,17.5003785 Z"/>
</svg>
