<svg xmlns="http://www.w3.org/2000/svg" width="24" height="25" viewBox="0 0 24 25">
  <path d="M12,24 C5.64872538,24 0.5,18.8512746 0.5,12.5 C0.5,6.14872538 5.64872538,1 12,1 C18.3512746,1 23.5,6.14872538 23.5,12.5 C23.5,18.8512746 18.3512746,24 12,24 Z M12,22 C17.2467051,22 21.5,17.7467051 21.5,12.5 C21.5,7.25329488 17.2467051,3 12,3 C6.75329488,3 2.5,7.25329488 2.5,12.5 C2.5,17.7467051 6.75329488,22 12,22 Z M11,17.75 L9.56259038,17.7499987 C9.01030563,17.7499987 8.56259038,17.3022835 8.56259038,16.7499987 C8.56259038,16.197714 9.01030563,15.7499987 9.56259038,15.7499987 L12.6071856,15.7499993 C13.0353954,15.7504683 13.4099193,15.5112972 13.5566259,15.164936 C13.7442174,14.7220531 13.5127066,14.2118301 13.0027677,14.0191695 L9.90638065,12.849704 C8.76288506,12.4151826 8.00088638,11.3506838 8.00000078,10.1532422 C7.9988035,8.54152911 9.35288366,7.25711107 11,7.25002874 L11,6.75 C11,6.19771525 11.4477153,5.75 12,5.75 C12.5522847,5.75 13,6.19771525 13,6.75 L13,7.25 L14.0625906,7.25 C14.6148754,7.25 15.0625906,7.69771525 15.0625906,8.25 C15.0625906,8.80228475 14.6148754,9.25 14.0625906,9.25 L11.0122503,9.24999978 C10.4404397,9.250377 9.99964032,9.66727085 10.0000002,10.1517597 C10.0002617,10.5053259 10.2367678,10.8357208 10.6149193,10.9794182 L13.7095214,12.1482074 C15.2639186,12.7354761 16.0364904,14.4381343 15.3982362,15.9449818 C14.9836087,16.9238803 14.0586743,17.5923927 13,17.7255694 L13,18.5 C13,19.0522847 12.5522847,19.5 12,19.5 C11.4477153,19.5 11,19.0522847 11,18.5 L11,17.75 Z"/>
</svg>
