<?xml version="1.0" encoding="UTF-8"?>
<svg width="24px" height="24px" viewBox="0 0 24 24" version="1.1" xmlns="http://www.w3.org/2000/svg" xmlns:xlink="http://www.w3.org/1999/xlink">
    <title>save-bold-g</title>
    <g id="Icons" stroke="none" stroke-width="1" fill="none" fill-rule="evenodd">
        <g transform="translate(-3536, -74)" fill="#000000" fill-rule="nonzero" id="Shape">
            <path d="M3556.66667,75 C3557.95533,75 3559,76.0446689 3559,77.3333334 L3559,94.6666667 C3559,95.9553311 3557.95533,97 3556.66667,97 L3539.33333,97 C3538.04467,97 3537,95.9553311 3537,94.6666667 L3537,81.7715556 C3537,80.7991781 3537.38655,79.8665892 3538.07413,79.1792167 L3541.17812,76.0743334 C3541.86583,75.3864129 3542.79875,75 3543.77156,75 L3556.66667,75 Z M3554.59086,87 L3542.40625,87 C3541.6296,87 3541,87.6295996 3541,88.40625 L3541,94.5036926 C3541,94.779835 3541.22386,95.0036926 3541.5,95.0036926 L3555.49711,95.0036926 C3555.77325,95.0036926 3555.99711,94.779835 3555.99711,94.5036926 L3555.99711,88.40625 C3555.99711,87.6295996 3555.36751,87 3554.59086,87 Z M3548,91 C3548.55228,91 3549,91.4477153 3549,92 C3549,92.5522847 3548.55228,93 3548,93 L3544,93 C3543.44772,93 3543,92.5522847 3543,92 C3543,91.4477153 3543.44772,91 3544,91 L3548,91 Z M3554.49711,77 L3544.5,77 C3544.22386,77 3544,77.2238576 3544,77.5 L3544,78.5974426 C3544,79.3740931 3544.6296,80.0036926 3545.40625,80.0036926 L3553.59086,80.0036926 C3554.36751,80.0036926 3554.99711,79.3740931 3554.99711,78.5974426 L3554.99711,77.5 C3554.99711,77.2238576 3554.77325,77 3554.49711,77 Z"></path>
        </g>
    </g>
</svg>