<?xml version="1.0" encoding="UTF-8"?>
<svg width="24px" height="24px" viewBox="0 0 24 24" version="1.1" xmlns="http://www.w3.org/2000/svg" xmlns:xlink="http://www.w3.org/1999/xlink">
    <title>save-g</title>
    <g id="Icons" stroke="none" stroke-width="1" fill="none" fill-rule="evenodd">
        <g transform="translate(-3510, -74)" fill="#000000" fill-rule="nonzero" id="Shape">
            <path d="M3530.66667,75 C3531.95533,75 3533,76.0446689 3533,77.3333334 L3533,94.6666667 C3533,95.9553311 3531.95533,97 3530.66667,97 L3513.33333,97 C3512.04467,97 3511,95.9553311 3511,94.6666667 L3511,81.7715556 C3511,80.799178 3511.38655,79.8665892 3512.07413,79.1792167 L3515.17812,76.0743334 C3515.86583,75.3864129 3516.79875,75 3517.77156,75 L3530.66667,75 Z M3518,77 L3517.77156,77 C3517.32922,77 3516.90512,77.1756611 3516.59254,77.4883389 L3513.48833,80.5934358 C3513.17567,80.9060061 3513,81.3298287 3513,81.7715556 L3513,94.6666667 C3513,94.8507616 3513.14924,95 3513.33333,95 L3514.999,95 L3515,89.40625 C3515,88.1326871 3515.98941,87.0902131 3517.2415,87.0055513 L3517.40625,87 L3526.59807,87 C3527.92701,87 3529.00432,88.0773148 3529.00432,89.40625 L3529.004,95 L3530.66667,95 C3530.85076,95 3531,94.8507616 3531,94.6666667 L3531,77.3333334 C3531,77.1492384 3530.85076,77 3530.66667,77 L3529.004,77 L3529.00432,78.5965641 C3529.00432,79.9254993 3527.92701,81.0028141 3526.59807,81.0028141 L3520.40625,81.0028141 C3519.07731,81.0028141 3518,79.9254993 3518,78.5965641 L3518,77 Z M3526.59807,89 L3517.40625,89 C3517.18188,89 3517,89.1818843 3517,89.40625 L3516.999,95 L3527.004,95 L3527.00432,89.40625 C3527.00432,89.20993 3526.86507,89.0461349 3526.67995,89.0082536 L3526.59807,89 Z M3522,92 C3522.55228,92 3523,92.4477153 3523,93 C3523,93.5522847 3522.55228,94 3522,94 L3519,94 C3518.44772,94 3518,93.5522847 3518,93 C3518,92.4477153 3518.44772,92 3519,92 L3522,92 Z M3527.004,77 L3520,77 L3520,78.5965641 C3520,78.8209298 3520.18188,79.0028141 3520.40625,79.0028141 L3526.59807,79.0028141 C3526.82244,79.0028141 3527.00432,78.8209298 3527.00432,78.5965641 L3527.004,77 Z"></path>
        </g>
    </g>
</svg>