<?xml version="1.0" encoding="UTF-8"?>
<svg width="25px" height="24px" viewBox="0 0 25 24" version="1.1" xmlns="http://www.w3.org/2000/svg" xmlns:xlink="http://www.w3.org/1999/xlink">
    <title>scissors-g</title>
    <g id="Icons" stroke="none" stroke-width="1" fill="none" fill-rule="evenodd">
        <g transform="translate(-3797.000000, -58.000000)" fill="#000000" fill-rule="nonzero" id="Shape">
            <path d="M3802.5,59 C3804.70914,59 3806.5,60.790861 3806.5,63 C3806.5,64.5436877 3805.62555,65.8831368 3804.34498,66.5500218 L3807.929,68.816 L3818.46556,62.1547909 C3818.93236,61.8596302 3819.55005,61.9987681 3819.84521,62.4655642 C3820.11929,62.8990177 3820.01889,63.462577 3819.62941,63.7771962 L3819.53444,63.8452091 L3809.801,70 L3819.53444,76.1547909 C3820.00123,76.4499517 3820.14037,77.0676397 3819.84521,77.5344358 C3819.57113,77.9678893 3819.01896,78.1188212 3818.56773,77.9018492 L3818.46556,77.8452091 L3807.929,71.183 L3804.34498,73.4499782 C3805.57002,74.0879431 3806.42339,75.341404 3806.4951,76.8003597 L3806.5,77 C3806.5,79.209139 3804.70914,81 3802.5,81 C3800.29086,81 3798.5,79.209139 3798.5,77 C3798.5,75.5682436 3799.25224,74.3121814 3800.38305,73.6054734 L3800.42059,73.5728038 L3800.42059,73.5728038 L3800.51556,73.5047909 L3806.057,70 L3800.51556,66.4952091 C3800.4681,66.4651969 3800.42402,66.4318502 3800.38345,66.3956665 C3800.12729,66.2348449 3799.88823,66.0450845 3799.67157,65.8284271 C3798.92692,65.0837717 3798.5,64.0744255 3798.5,63 C3798.5,60.790861 3800.29086,59 3802.5,59 Z M3802.5,75 C3801.39543,75 3800.5,75.8954305 3800.5,77 C3800.5,78.1045695 3801.39543,79 3802.5,79 C3803.60457,79 3804.5,78.1045695 3804.5,77 C3804.5,75.8954305 3803.60457,75 3802.5,75 Z M3820.5,69 C3821.05228,69 3821.5,69.4477153 3821.5,70 C3821.5,70.5128358 3821.11396,70.9355072 3820.61662,70.9932723 L3820.5,71 L3819,71 C3818.44772,71 3818,70.5522847 3818,70 C3818,69.4871642 3818.38604,69.0644928 3818.88338,69.0067277 L3819,69 L3820.5,69 Z M3816,69 C3816.55228,69 3817,69.4477153 3817,70 C3817,70.5128358 3816.61396,70.9355072 3816.11662,70.9932723 L3816,71 L3814.5,71 C3813.94772,71 3813.5,70.5522847 3813.5,70 C3813.5,69.4871642 3813.88604,69.0644928 3814.38338,69.0067277 L3814.5,69 L3816,69 Z M3802.5,61 C3801.39543,61 3800.5,61.8954305 3800.5,63 C3800.5,63.5385404 3800.71249,64.0409127 3801.08579,64.4142136 C3801.45909,64.7875145 3801.96146,65 3802.5,65 C3803.60457,65 3804.5,64.1045695 3804.5,63 C3804.5,61.8954305 3803.60457,61 3802.5,61 Z"></path>
        </g>
    </g>
</svg>