<?xml version="1.0" encoding="UTF-8"?>
<svg width="24px" height="24px" viewBox="0 0 24 24" version="1.1" xmlns="http://www.w3.org/2000/svg" xmlns:xlink="http://www.w3.org/1999/xlink">
    <title>screen-bell</title>
    <g id="Icons" stroke="none" stroke-width="1" fill="none" fill-rule="evenodd">
        <g id="Glyphs" transform="translate(-2362.000000, -58.000000)" fill="#000000" fill-rule="nonzero">
            <path d="M2373,61.0531919 C2373.41421,61.0531919 2373.75,61.3961227 2373.75,61.8191493 C2373.75,62.2421759 2373.41421,62.5851068 2373,62.5851068 L2365.75,62.5851068 C2364.50736,62.5851068 2363.5,63.6139036 2363.5,64.8829791 L2363.5,74.3404257 L2384.5,74.3404257 L2384.5,71.276596 C2384.5,70.8535689 2384.83579,70.510638 2385.25,70.5106381 C2385.66421,70.5106381 2386,70.8535689 2386,71.276596 L2386,75.1063831 C2386,77.2215113 2384.32106,78.9361697 2382.25,78.9361703 L2377.96058,78.9361703 L2378.33558,80.4680847 L2380,80.4680851 C2380.41421,80.4680847 2380.75,80.8110155 2380.75,81.2340421 C2380.75,81.6570687 2380.41421,82 2380,82 L2368,82 C2367.58579,82 2367.25,81.6570687 2367.25,81.2340421 C2367.25,80.8110155 2367.58579,80.4680847 2368,80.4680851 L2369.66442,80.4680847 L2370.03942,78.9361703 L2365.75,78.9361703 C2363.67894,78.9361696 2362,77.2215113 2362,75.1063831 L2362,64.8829792 C2362,62.7678505 2363.67894,61.0531919 2365.75,61.0531919 L2373,61.0531919 Z M2376.41442,78.9361698 L2371.58558,78.9361698 L2371.21058,80.4680847 L2376.78942,80.4680847 L2376.41442,78.9361698 Z M2384.37197,75.8723401 L2363.62803,75.8723401 C2363.93691,76.7648259 2364.77034,77.4042554 2365.75,77.4042554 L2382.25,77.4042554 C2383.22966,77.4042554 2384.06309,76.7648259 2384.37197,75.8723401 Z M2382.58565,67.2874958 C2382.84441,67.6178241 2382.79197,68.0998353 2382.46852,68.3640979 C2381.92653,68.8069156 2381.34964,69.0425814 2380.75,69.0425814 C2380.15036,69.0425814 2379.57347,68.8069156 2379.03148,68.3640979 C2378.70803,68.0998353 2378.65559,67.6178241 2378.91435,67.2874958 C2379.17311,66.9571675 2379.64507,66.9036107 2379.96852,67.1678734 C2380.25986,67.4059068 2380.51631,67.5106665 2380.75,67.5106665 C2380.98369,67.5106665 2381.24014,67.4059068 2381.53148,67.1678734 C2381.85493,66.9036107 2382.32689,66.9571675 2382.58565,67.2874958 Z M2380.75,58 C2382.86936,58 2384.60285,59.6504228 2384.70912,61.7293364 L2384.71429,61.9318182 L2384.71429,63.9772729 C2384.71429,64.2323662 2384.90246,64.4469793 2385.15326,64.4915217 L2385.25,64.5 L2385.36979,64.5075955 C2386.17188,64.6124132 2386.20833,65.7699653 2385.47917,65.9704861 L2385.36979,65.9924045 L2385.25,66 L2376.25,66 L2376.13021,65.9924045 C2375.28993,65.8825955 2375.28993,64.6174045 2376.13021,64.5075955 L2376.25,64.5 L2376.34674,64.4915217 C2376.56619,64.4525471 2376.73769,64.2833621 2376.77714,64.0707822 L2376.78571,63.9772727 L2376.78571,61.9318183 C2376.78571,59.7586195 2378.56228,58 2380.75,58 Z M2380.75,59.5 C2379.44182,59.5 2378.37426,60.5049813 2378.29095,61.7721148 L2378.28571,61.9318182 L2378.28571,63.9772727 C2378.28571,64.078985 2378.27817,64.1789209 2378.2636,64.2765628 L2378.23656,64.4212405 L2378.215,64.5 L2383.284,64.5 L2383.26344,64.4212405 L2383.2364,64.2765629 L2383.2364,64.2765629 L2383.21988,64.1284442 L2383.21429,63.9772728 L2383.21429,61.9318182 C2383.21429,60.5904743 2382.11268,59.5 2380.75,59.5 Z" id="Shape"></path>
        </g>
    </g>
</svg>