<?xml version="1.0" encoding="UTF-8"?>
<svg width="24px" height="24px" viewBox="0 0 24 24" version="1.1" xmlns="http://www.w3.org/2000/svg" xmlns:xlink="http://www.w3.org/1999/xlink">
    <title>screen-bell</title>
    <g id="Icons" stroke="none" stroke-width="1" fill="none" fill-rule="evenodd">
        <g id="Glyphs" transform="translate(-2362.000000, -58.000000)" fill="#000000" fill-rule="nonzero">
            <path d="M2373,61.0531919 C2373.41421,61.0531919 2373.75,61.3961227 2373.75,61.8191493 C2373.75,62.2421759 2373.41421,62.5851068 2373,62.5851068 L2365.75,62.5851068 C2364.50736,62.5851068 2363.5,63.6139036 2363.5,64.8829791 L2363.5,74.3404257 L2384.5,74.3404257 L2384.5,71.276596 C2384.5,70.8535689 2384.83579,70.510638 2385.25,70.5106381 C2385.66421,70.5106381 2386,70.8535689 2386,71.276596 L2386,75.1063831 C2386,77.2215113 2384.32106,78.9361697 2382.25,78.9361703 L2377.96058,78.9361703 L2378.33558,80.4680847 L2380,80.4680851 C2380.41421,80.4680847 2380.75,80.8110155 2380.75,81.2340421 C2380.75,81.6570687 2380.41421,82 2380,82 L2368,82 C2367.58579,82 2367.25,81.6570687 2367.25,81.2340421 C2367.25,80.8110155 2367.58579,80.4680847 2368,80.4680851 L2369.66442,80.4680847 L2370.03942,78.9361703 L2365.75,78.9361703 C2363.67894,78.9361696 2362,77.2215113 2362,75.1063831 L2362,64.8829792 C2362,62.7678505 2363.67894,61.0531919 2365.75,61.0531919 L2373,61.0531919 Z M2376.41442,78.9361698 L2371.58558,78.9361698 L2371.21058,80.4680847 L2376.78942,80.4680847 L2376.41442,78.9361698 Z M2384.37197,75.8723401 L2363.62803,75.8723401 C2363.93691,76.7648259 2364.77034,77.4042554 2365.75,77.4042554 L2382.25,77.4042554 C2383.22966,77.4042554 2384.06309,76.7648259 2384.37197,75.8723401 Z M2382,68.5 C2382.41421,68.5 2382.75,68.8357864 2382.75,69.25 C2382.75,69.6296958 2382.46785,69.943491 2382.10177,69.9931534 L2382,70 L2380,70 C2379.58579,70 2379.25,69.6642136 2379.25,69.25 C2379.25,68.8703042 2379.53215,68.556509 2379.89823,68.5068466 L2380,68.5 L2382,68.5 Z M2380.9581,58 L2381.20699,58.004919 C2383.45073,58.1127213 2385.25,59.9787357 2385.25,62.2481743 C2385.25,63.3246138 2384.85499,64.3592141 2384.11816,65.1336822 L2383.85084,65.4019022 C2383.65533,65.6257575 2383.53789,65.9150933 2383.50833,66.2380964 L2383.50091,66.4022562 L2383.50091,66.75 C2383.50091,67.1296958 2383.21876,67.443491 2382.85268,67.4931534 L2382.75091,67.5 L2379.25274,67.5 C2378.87304,67.5 2378.55925,67.2178461 2378.50959,66.8517706 L2378.50274,66.75 L2378.50274,66.4022562 C2378.50274,65.9898783 2378.31954,65.5677159 2377.97905,65.2272263 C2377.13524,64.3834222 2376.70082,63.2623234 2376.7545,62.0813189 C2376.86061,59.8531041 2378.70902,58.053337 2380.9581,58 Z M2380.97595,59.4997875 C2379.53046,59.5342038 2378.32143,60.7114183 2378.25288,62.1510485 C2378.22154,62.8405908 2378.4465,63.4911871 2378.89762,64.013733 L2379.20376,64.3422081 C2379.57017,64.7625132 2379.82078,65.2539886 2379.93464,65.775015 L2379.975,66 L2380.24906,66 L2380.24906,63.25 L2380,63.25 C2379.58579,63.25 2379.25,62.9142136 2379.25,62.5 C2379.25,62.1203042 2379.53215,61.806509 2379.89823,61.7568466 L2380,61.75 L2382,61.75 C2382.41421,61.75 2382.75,62.0857864 2382.75,62.5 C2382.75,62.8796958 2382.46785,63.193491 2382.10177,63.2431534 L2382,63.25 L2381.74906,63.25 L2381.74906,66 L2382.025,66 L2382.06102,65.7766391 C2382.1541,65.3020454 2382.35438,64.8609195 2382.65524,64.4915768 L2382.79031,64.3377936 L2382.93759,64.1934705 C2383.46009,63.703625 2383.75,62.9969785 2383.75,62.2481743 C2383.75,60.7943098 2382.60164,59.592105 2381.16841,59.5050471 L2380.97595,59.4997875 Z" id="Shape"></path>
        </g>
    </g>
</svg>