<svg xmlns="http://www.w3.org/2000/svg" width="24" height="24" viewBox="0 0 24 24">
  <path d="M14.25,7 C14.5475616,7.00000001 14.7857143,6.76425291 14.7857143,6.47727272 L14.7857143,3.93181869 C14.7857139,1.75861969 16.5622782,4.58091812e-07 18.75,0 C20.9377214,-9.46623547e-08 22.7142856,1.75861909 22.7142856,3.93181821 L22.7142856,6.47727283 C22.7142855,6.76425291 22.9524382,7 23.25,7 C24.25,7 24.25,8.5 23.25,8.5 L14.25,8.5 C13.25,8.49999996 13.25,7 14.25,7 Z M21.2142856,6.47727272 L21.2142856,3.93181821 C21.2142856,2.59047425 20.112684,1.49999994 18.75,1.5 C17.3873157,1.50000029 16.2857141,2.5904747 16.2857143,3.93181858 L16.2857143,6.47727272 C16.2857143,6.65809922 16.2618627,6.83331116 16.21713,7 L21.2828698,7 C21.2381371,6.83331116 21.2142856,6.65809922 21.2142856,6.47727272 Z M17.0314787,10.8356516 C16.7080323,10.5768944 16.6555912,10.1049252 16.9143484,9.78147871 C17.1731056,9.45803226 17.6450748,9.40559123 17.9685213,9.66434839 C18.2598642,9.89742275 18.5163074,10 18.75,10 C18.9836926,10 19.2401358,9.89742275 19.5314787,9.66434839 C19.8549252,9.40559123 20.3268944,9.45803226 20.5856516,9.78147871 C20.8444088,10.1049252 20.7919677,10.5768944 20.4685213,10.8356516 C19.9265309,11.2692439 19.3496407,11.5 18.75,11.5 C18.1503593,11.5 17.5734691,11.2692439 17.0314787,10.8356516 Z M8.03941758,20.5000005 L3.74999963,20.5000005 C1.67893619,20.4999998 -1.31134584e-07,18.8210635 -1.31134584e-07,16.7500005 L-1.31134584e-07,6.25000057 C-4.43857971e-07,4.17893701 1.67893621,2.50000045 3.74999987,2.50000045 L10.9999999,2.50000045 C11.4142136,2.50000045 11.75,2.83578689 11.75,3.25000045 C11.75,3.66421402 11.4142136,4.00000045 10.9999999,4.00000045 L3.74999987,4.00000045 C2.50736335,4.00000045 1.49999968,5.00736407 1.49999987,6.25000045 L1.49999987,16.0000005 L22.4999999,16.0000005 L22.4999999,13.0000005 C22.5,12.5857864 22.8357865,12.25 23.25,12.25 C23.6642136,12.25 24,12.5857865 23.9999999,13.0000005 L23.9999999,16.7500004 C24,18.8210635 22.3210637,20.4999999 20.2499999,20.5000005 L15.9605824,20.5000005 L16.3355823,22 L17.9999999,22.0000005 C18.4142136,22 18.75,22.3357864 18.75,22.75 C18.75,23.1642136 18.4142136,23.5 17.9999999,23.5000005 L5.99999987,23.5000005 C5.58578644,23.5 5.25,23.1642136 5.25,22.75 C5.25,22.3357864 5.58578644,22 5.99999987,22.0000005 L7.6644177,22 L8.03941758,20.5000005 Z M15,19 L20.2499997,19.0000005 C21.2296601,19.0000002 22.063091,18.3738924 22.3719697,17.5 L1.62803012,17.5 C1.93690881,18.3738924 2.77033969,19.0000001 3.74999987,19.0000005 L8.99917105,19.0000005 L15,19 Z M14.7894177,22 L14.4144177,20.5 L9.5855823,20.5 L9.2105823,22 L14.7894177,22 Z"/>
</svg>
