<svg xmlns="http://www.w3.org/2000/svg" width="24" height="24" viewBox="0 0 24 24">
  <path d="M13.7192236,18 L10.2807764,18 L9.78077641,20 L14.2192236,20 L13.7192236,18 Z M15.7807764,18 L16.2807764,20 L18,20 C18.5522847,20 19,20.4477153 19,21 C19,21.5522847 18.5522847,22 18,22 L15.5209183,22 C15.5064298,22.0003163 15.4919792,22.0003146 15.4775749,22 L8.52242694,22 C8.50802079,22.0003146 8.49357023,22.0003163 8.47908197,22 L6,22 C5.44771525,22 5,21.5522847 5,21 C5,20.4477153 5.44771525,20 6,20 L7.71922359,20 L8.21922359,18 L3.33333333,18 C2.05026219,18 1,16.9759944 1,15.7 L1,5.3 C1,4.02400564 2.05026219,3 3.33333333,3 L20.6666667,3 C21.9497378,3 23,4.02400564 23,5.3 L23,15.7 C23,16.9759944 21.9497378,18 20.6666667,18 L15.7807764,18 Z M14.479082,16 C14.4935702,15.9996837 14.5080208,15.9996854 14.5224251,16 L20.6666667,16 C20.8563422,16 21,15.8599336 21,15.7 L21,5.3 C21,5.14006636 20.8563422,5 20.6666667,5 L3.33333333,5 C3.14365781,5 3,5.14006636 3,5.3 L3,15.7 C3,15.8599336 3.14365781,16 3.33333333,16 L9.47757306,16 C9.49197921,15.9996854 9.50642977,15.9996837 9.52091803,16 L14.4790811,16 L14.479082,16 Z"/>
</svg>
