<?xml version="1.0" encoding="UTF-8"?>
<svg width="24px" height="24px" viewBox="0 0 24 24" version="1.1" xmlns="http://www.w3.org/2000/svg" xmlns:xlink="http://www.w3.org/1999/xlink">
    <!-- Generator: Sketch 54.1 (76490) - https://sketchapp.com -->
    <title>bell copy 35</title>
    <desc>Created with Sketch.</desc>
    <g id="Icons" stroke="none" stroke-width="1" fill="none" fill-rule="evenodd">
        <path d="M13.8357828,15.3742052 C10.7001688,17.7592607 6.20642146,17.5201433 3.3431473,14.6568529 C0.218950899,11.5326565 0.218950899,6.4673258 3.3431473,3.34314705 C6.46734371,0.218950649 11.5326744,0.218950649 14.6568532,3.34314705 C17.5628841,6.24917796 17.7658149,10.8347065 15.2656456,13.9752849 L22.7011485,21.2878945 C23.0949133,21.6751512 23.1001891,22.3082942 22.7129325,22.702059 C22.3256758,23.0958238 21.6925328,23.1010996 21.298768,22.713843 L13.8357828,15.3742052 Z M13.2426416,13.2426374 C15.5857868,10.8995055 15.5857868,7.10050777 13.2426376,4.75735862 C10.8995057,2.41421346 7.10050802,2.41421346 4.75735887,4.75736261 C2.41421371,7.10049453 2.41421371,10.8994922 4.75736286,13.2426414 C7.10049478,15.5857865 10.8994925,15.5857865 13.2426416,13.2426374 Z" id="Shape" fill="#000000" fill-rule="nonzero"></path>
    </g>
</svg>