<svg xmlns="http://www.w3.org/2000/svg" width="24" height="24" viewBox="0 0 24 24">
  <path d="M16.1201224,17.534336 C14.6728297,18.6766071 12.8451805,19.3583108 10.8583108,19.3583108 C6.16389042,19.3583108 2.35831079,15.5527312 2.35831079,10.8583108 C2.35831079,6.16389042 6.16389042,2.35831079 10.8583108,2.35831079 C15.5527312,2.35831079 19.3583108,6.16389042 19.3583108,10.8583108 C19.3583108,12.8451805 18.6766071,14.6728297 17.534336,16.1201224 L22.348796,20.9345824 C22.7393203,21.3251067 22.7393203,21.9582717 22.348796,22.348796 C21.9582717,22.7393203 21.3251067,22.7393203 20.9345824,22.348796 L16.1201224,17.534336 L16.1201224,17.534336 Z M10.8583108,17.3583108 C14.4481617,17.3583108 17.3583108,14.4481617 17.3583108,10.8583108 C17.3583108,7.26845992 14.4481617,4.35831079 10.8583108,4.35831079 C7.26845992,4.35831079 4.35831079,7.26845992 4.35831079,10.8583108 C4.35831079,14.4481617 7.26845992,17.3583108 10.8583108,17.3583108 Z"/>
</svg>
