<svg xmlns="http://www.w3.org/2000/svg" width="24" height="24" viewBox="0 0 24 24">
  <path d="M10.7573602,17.2426398 C8.41421292,14.8994924 8.41421292,11.1004943 10.7573602,8.75736024 C13.1005069,6.41421359 16.8995035,6.41421292 19.2426398,8.75736024 C21.3448666,10.859587 21.5610158,14.1336768 19.8910876,16.476874 L23.7071068,20.2928932 C24.0976311,20.6834175 24.0976311,21.3165825 23.7071068,21.7071068 C23.3165825,22.0976311 22.6834175,22.0976311 22.2928932,21.7071068 L18.4768725,17.891086 C16.1336656,19.561016 12.8595758,19.3448672 10.7573602,17.2426398 Z M17.8284282,15.8284242 C19.3905243,14.2663369 19.3905243,11.7336719 17.8284242,10.1715718 C16.2663369,8.60947573 13.7336719,8.60947573 12.1715718,10.1715758 C10.6094757,11.7336631 10.6094757,14.2663281 12.1715758,15.8284282 C13.7336631,17.3905243 16.2663281,17.3905243 17.8284282,15.8284242 Z M6.5,7 C7.05,7 7.5,7.45 7.5,8 C7.5,8.55 7.05,9 6.5,9 L1,9 C0.45,9 0,8.55 0,8 C0,7.45 0.45,7 1,7 L6.5,7 Z M11.5,3 C12.05,3 12.5,3.45 12.5,4 C12.5,4.55 12.05,5 11.5,5 L1,5 C0.45,5 0,4.55 0,4 C0,3.45 0.45,3 1,3 L11.5,3 Z M1,13 C0.45,13 0,12.55 0,12 C0,11.45 0.45,11 1,11 L5,11 C5.55,11 6,11.45 6,12 C6,12.55 5.55,13 5,13 L1,13 Z"/>
</svg>
