<?xml version="1.0" encoding="UTF-8"?>
<svg width="19px" height="14px" viewBox="0 0 19 14" version="1.1" xmlns="http://www.w3.org/2000/svg" xmlns:xlink="http://www.w3.org/1999/xlink">
    <!-- Generator: Sketch 51.1 (57501) - http://www.bohemiancoding.com/sketch -->
    <title>Combined Shape</title>
    <desc>Created with Sketch.</desc>
    <defs></defs>
    <g id="Prototype" stroke="none" stroke-width="1" fill="none" fill-rule="evenodd">
        <path d="M0.875,5.75 C0.391750844,5.75 0,5.35824916 0,4.875 C0,4.39175084 0.391750844,4 0.875,4 L5.71323529,4 C6.19648445,4 6.58823529,4.39175084 6.58823529,4.875 C6.58823529,5.35824916 6.19648445,5.75 5.71323529,5.75 L0.875,5.75 Z M0.875,1.75 C0.391750844,1.75 0,1.35824916 0,0.875 C0,0.391750844 0.391750844,0 0.875,0 L13.125,0 C13.6082492,0 14,0.391750844 14,0.875 C14,1.35824916 13.6082492,1.75 13.125,1.75 L0.875,1.75 Z M0.875,9.75 C0.391750844,9.75 0,9.35824916 0,8.875 C0,8.39175084 0.391750844,8 0.875,8 L5,8 C5.48324916,8 5.87,8.39175084 5.87,8.875 C5.87,9.35824916 5.48324916,9.75 5,9.75 L0.875,9.75 Z M15.6170749,10.638222 L17.8665631,12.8331823 C18.1311083,13.0977275 18.1311083,13.5300331 17.8665631,13.7945783 C17.6020178,14.0591235 17.1697123,14.0591235 16.905167,13.7945783 L14.6502458,11.6022403 C13.784049,12.217096 12.6454984,12.5258589 11.4782053,12.3303517 C9.68445976,12.0270925 8.25204422,10.5301538 8.03266526,8.72350354 C7.69714451,5.99417123 9.99417123,3.69714451 12.7235035,4.03266526 C14.5301538,4.25204422 16.0270925,5.68445976 16.3303517,7.47820534 C16.5244088,8.63684063 16.2226726,9.77493171 15.6170749,10.638222 Z M12.1944131,11.0979581 C13.8010414,11.0979581 15.0979581,9.80104135 15.0979581,8.19441311 C15.0979581,6.58778487 13.8010414,5.2908681 12.1944131,5.2908681 C10.5877849,5.2908681 9.2908681,6.58778487 9.2908681,8.19441311 C9.2908681,9.80104135 10.5877849,11.0979581 12.1944131,11.0979581 Z" id="Combined-Shape" fill="#000000" fill-rule="nonzero"></path>
    </g>
</svg>