<svg xmlns="http://www.w3.org/2000/svg" width="24" height="24" viewBox="0 0 24 24">
  <path d="M9.25,18.5 C4.14136606,18.5 0,14.3586339 0,9.25 C0,4.14136606 4.14136606,0 9.25,0 C14.3586339,0 18.5,4.14136606 18.5,9.25 C18.5,14.3586339 14.3586339,18.5 9.25,18.5 Z M9.25,17 C13.5302068,17 17,13.5302068 17,9.25 C17,4.96979319 13.5302068,1.5 9.25,1.5 C4.96979319,1.5 1.5,4.96979319 1.5,9.25 C1.5,13.5302068 4.96979319,17 9.25,17 Z M23.5303301,22.4696699 C23.8232233,22.7625631 23.8232233,23.2374369 23.5303301,23.5303301 C23.2374369,23.8232233 22.7625631,23.8232233 22.4696699,23.5303301 L17.1663691,18.2270292 C16.8734758,17.934136 16.8734758,17.4592623 17.1663691,17.1663691 C17.4592623,16.8734758 17.934136,16.8734758 18.2270292,17.1663691 L23.5303301,22.4696699 Z"/>
</svg>
