<svg xmlns="http://www.w3.org/2000/svg" width="24" height="24" viewBox="0 0 24 24">
  <path d="M1323.75736,91.2426398 C1321.41421,88.8994924 1321.41421,85.1004943 1323.75736,82.7573602 C1326.10051,80.4142136 1329.8995,80.4142129 1332.24264,82.7573602 C1334.34487,84.859587 1334.56102,88.1336768 1332.89109,90.476874 L1336.70711,94.2928932 C1337.09763,94.6834175 1337.09763,95.3165825 1336.70711,95.7071068 C1336.31658,96.0976311 1335.68342,96.0976311 1335.29289,95.7071068 L1331.47687,91.891086 C1329.13367,93.561016 1325.85958,93.3448672 1323.75736,91.2426398 Z M1330.82843,89.8284242 C1332.39052,88.2663369 1332.39052,85.7336719 1330.82842,84.1715718 C1329.26634,82.6094757 1326.73367,82.6094757 1325.17157,84.1715758 C1323.60948,85.7336631 1323.60948,88.2663281 1325.17158,89.8284282 C1326.73366,91.3905243 1329.26633,91.3905243 1330.82843,89.8284242 Z M1319.5,81 C1320.05,81 1320.5,81.45 1320.5,82 C1320.5,82.55 1320.05,83 1319.5,83 L1314,83 C1313.45,83 1313,82.55 1313,82 C1313,81.45 1313.45,81 1314,81 L1319.5,81 Z M1324.5,77 C1325.05,77 1325.5,77.45 1325.5,78 C1325.5,78.55 1325.05,79 1324.5,79 L1314,79 C1313.45,79 1313,78.55 1313,78 C1313,77.45 1313.45,77 1314,77 L1324.5,77 Z M1314,87 C1313.45,87 1313,86.55 1313,86 C1313,85.45 1313.45,85 1314,85 L1318,85 C1318.55,85 1319,85.45 1319,86 C1319,86.55 1318.55,87 1318,87 L1314,87 Z" transform="translate(-1313 -74)"/>
</svg>
