<?xml version="1.0" encoding="UTF-8"?>
<svg width="24px" height="24px" viewBox="0 0 24 24" version="1.1" xmlns="http://www.w3.org/2000/svg" xmlns:xlink="http://www.w3.org/1999/xlink">
    <!-- Generator: Sketch 54.1 (76490) - https://sketchapp.com -->
    <title>bell copy 43</title>
    <desc>Created with Sketch.</desc>
    <g id="Icons" stroke="none" stroke-width="1" fill="none" fill-rule="evenodd">
        <path d="M10.7573602,17.2426398 C8.41421292,14.8994924 8.41421292,11.1004943 10.7573602,8.75736024 C13.1005069,6.41421359 16.8995035,6.41421292 19.2426398,8.75736024 C21.3448666,10.859587 21.5610158,14.1336768 19.8910876,16.476874 L23.7071068,20.2928932 C24.0976311,20.6834175 24.0976311,21.3165825 23.7071068,21.7071068 C23.3165825,22.0976311 22.6834175,22.0976311 22.2928932,21.7071068 L18.4768725,17.891086 C16.1336656,19.561016 12.8595758,19.3448672 10.7573602,17.2426398 Z M17.8284282,15.8284242 C19.3905243,14.2663369 19.3905243,11.7336719 17.8284242,10.1715718 C16.2663369,8.60947573 13.7336719,8.60947573 12.1715718,10.1715758 C10.6094757,11.7336631 10.6094757,14.2663281 12.1715758,15.8284282 C13.7336631,17.3905243 16.2663281,17.3905243 17.8284282,15.8284242 Z M6.5,7.5 C7.05,7.5 7.5,7.95 7.5,8.5 C7.5,9.05 7.05,9.5 6.5,9.5 L1,9.5 C0.45,9.5 0,9.05 0,8.5 C0,7.95 0.45,7.5 1,7.5 L6.5,7.5 Z M11.5,3.5 C12.05,3.5 12.5,3.95 12.5,4.5 C12.5,5.05 12.05,5.5 11.5,5.5 L1,5.5 C0.45,5.5 0,5.05 0,4.5 C0,3.95 0.45,3.5 1,3.5 L11.5,3.5 Z M1,13.5 C0.45,13.5 0,13.05 0,12.5 C0,11.95 0.45,11.5 1,11.5 L5.5,11.5 C6.05,11.5 6.5,11.95 6.5,12.5 C6.5,13.05 6.05,13.5 5.5,13.5 L1,13.5 Z" id="Shape" fill="#000000" fill-rule="nonzero"></path>
    </g>
</svg>