<svg xmlns="http://www.w3.org/2000/svg" width="24" height="24" viewBox="0 0 24 24">
  <path d="M22,8.72222222 C22,9.15177703 21.651777,9.5 21.2222222,9.5 L15.7777778,9.5 C15.348223,9.5 15,9.15177703 15,8.72222222 L15,3.27777778 C15,2.84822297 15.348223,2.5 15.7777778,2.5 C17.4280137,2.5 19.0106603,3.15555367 20.1775533,4.32244669 C21.3444463,5.48933971 22,7.07198628 22,8.72222222 Z M13,11.5 L21,11.5 C21.5522847,11.5 22,11.9477153 22,12.5 C22,18.0228475 17.5228475,22.5 12,22.5 C6.47715251,22.5 2,18.0228475 2,12.5 C2,6.9771525 6.4771525,2.5 12,2.5 C12.5522847,2.5 13,2.94771525 13,3.5 L13,11.5 Z M4,12.5 C4,16.918278 7.58172201,20.5 12,20.5 C16.0796176,20.5 19.4460081,17.4463115 19.9381062,13.5 L12,13.5 C11.4477153,13.5 11,13.0522847 11,12.5 L11,4.56189375 C7.05368842,5.05399184 4,8.42038235 4,12.5 Z"/>
</svg>
