<svg xmlns="http://www.w3.org/2000/svg" width="24" height="24" viewBox="0 0 24 24">
  <path d="M12,22.5 C6.20101013,22.5 1.5,17.7989899 1.5,12 C1.5,9.1781947 2.61960396,6.53115364 4.5753788,4.5753788 C5.54957533,3.60118227 6.70648314,2.82540975 7.98063655,2.29706649 C8.61473697,2.03412901 9.27449174,1.83384079 9.95196376,1.69982138 C10.2882382,1.63329863 10.6284563,1.58318562 10.971711,1.54978297 C11.1422569,1.53318688 11.3135006,1.52072094 11.4853359,1.51241415 C11.5709091,1.50827741 11.6566226,1.50517244 11.7424637,1.50310237 C12.3040246,1.48956027 12.7665718,1.94108758 12.7665718,2.50281173 L12.7665718,10.4663789 C12.7665718,11.0186637 13.2142871,11.4663789 13.7665718,11.4663789 L21.4887523,11.4663789 C22.0599966,11.4663789 22.5151685,11.9440861 22.4875858,12.5146641 C22.4792791,12.6864994 22.4668131,12.8577431 22.450217,13.028289 C22.4168144,13.3715437 22.3667014,13.7117618 22.3001786,14.0480362 C22.1661592,14.7255083 21.965871,15.385263 21.7029335,16.0193634 C21.1745903,17.2935169 20.3988177,18.4504247 19.4246212,19.4246212 C17.4688464,21.380396 14.8218053,22.5 12,22.5 Z M10.7665718,10.4663789 L10.7665718,3.5887079 C10.6235836,3.60947136 10.4813907,3.63384696 10.3400878,3.66179989 C9.79242943,3.77013921 9.2592503,3.93200163 8.74671083,4.14453238 C7.71584946,4.57199162 6.77894606,5.20023866 5.98959236,5.98959236 C4.40517209,7.57401263 3.5,9.71407981 3.5,12 C3.5,16.6944204 7.30557963,20.5 12,20.5 C14.2859202,20.5 16.4259874,19.5948279 18.0104076,18.0104076 C18.7997613,17.2210539 19.4280084,16.2841505 19.8554676,15.2532892 C20.0679984,14.7407497 20.2298608,14.2075706 20.3382001,13.6599122 C20.350926,13.5955826 20.3629104,13.5310685 20.3741501,13.4663789 L13.7665718,13.4663789 C12.1097176,13.4663789 10.7665718,12.1232332 10.7665718,10.4663789 Z M22.5,8.61111111 C22.5,9.10203089 22.1020309,9.5 21.6111111,9.5 L15.3888889,9.5 C14.8979691,9.5 14.5,9.10203089 14.5,8.61111111 L14.5,2.38888889 C14.5,1.89796911 14.8979691,1.5 15.3888889,1.5 C17.2748728,1.5 19.0836117,2.24920419 20.4172038,3.58279622 C21.7507958,4.91638824 22.5,6.72512718 22.5,8.61111111 Z M19.0029902,4.99700979 C18.3108408,4.3048604 17.4406161,3.8317276 16.5,3.62221552 L16.5,7.5 L20.3777845,7.5 C20.1682724,6.55938388 19.6951396,5.68915917 19.0029902,4.99700979 Z"/>
</svg>
