<?xml version="1.0" encoding="UTF-8"?>
<svg width="24px" height="24px" viewBox="0 0 24 24" version="1.1" xmlns="http://www.w3.org/2000/svg" xmlns:xlink="http://www.w3.org/1999/xlink">
    <!-- Generator: Sketch 54.1 (76490) - https://sketchapp.com -->
    <title>bell copy 16</title>
    <desc>Created with Sketch.</desc>
    <g id="Icons" stroke="none" stroke-width="1" fill="none" fill-rule="evenodd">
        <path d="M22.5,9.5 C22.5,10.0522847 22.0522847,10.5 21.5,10.5 L14.5,10.5 C13.9477153,10.5 13.5,10.0522847 13.5,9.5 L13.5,2.5 C13.5,1.94771525 13.9477153,1.5 14.5,1.5 C16.6217319,1.5 18.6565632,2.34285472 20.1568542,3.84314575 C21.6571453,5.34343677 22.5,7.37826807 22.5,9.5 Z M11.5,12.5 L19.5,12.5 C20.0522847,12.5 20.5,12.9477153 20.5,13.5 C20.5,19.0228475 16.0228475,23.5 10.5,23.5 C4.97715251,23.5 0.5,19.0228475 0.5,13.5 C0.5,7.9771525 4.9771525,3.5 10.5,3.5 C11.0522847,3.5 11.5,3.94771525 11.5,4.5 L11.5,12.5 Z M2.5,13.5 C2.5,17.918278 6.08172201,21.5 10.5,21.5 C14.5796176,21.5 17.9460081,18.4463115 18.4381062,14.5 L10.5,14.5 C9.94771525,14.5 9.5,14.0522847 9.5,13.5 L9.5,5.56189375 C5.55368842,6.05399184 2.5,9.42038235 2.5,13.5 Z" id="Shape" fill="#000000" fill-rule="nonzero"></path>
    </g>
</svg>