<svg xmlns="http://www.w3.org/2000/svg" width="24" height="24" viewBox="0 0 24 24">
  <path d="M12.75,0.75 C12.75,0.335786438 13.0857864,0 13.5,0 C18.8847736,0 23.25,4.36522644 23.25,9.75 C23.25,10.1642136 22.9142136,10.5 22.5,10.5 L13.5,10.5 C13.0857864,10.5 12.75,10.1642136 12.75,9.75 L12.75,0.75 Z M21.7163677,9 C21.359706,5.04214877 18.2078512,1.89029402 14.25,1.53363232 L14.25,9 L21.7163677,9 Z M11.2499996,12 L19.4999996,12 C19.9142132,12 20.2499996,12.3357864 20.2499996,12.75 C20.2499996,18.1347735 15.8847733,22.4999998 10.4999996,22.5 C5.11522612,22.5 0.749999842,18.1347736 0.749999607,12.75 C0.749999607,7.36522652 5.11522596,3.00000024 10.4999996,3 C10.9142131,2.99999998 11.2499996,3.33578642 11.2499996,3.75 L11.2499996,12 Z M9.74999961,12.75 L9.74999961,4.53363235 C5.54512677,4.91255456 2.24999961,8.44647089 2.24999961,12.75 C2.24999981,17.3063465 5.94365324,21 10.4999996,21 C14.8035288,20.9999998 18.3374452,17.7048727 18.7163673,13.5 L10.4999996,13.5 C10.085786,13.5 9.74999961,13.1642136 9.74999961,12.75 Z"/>
</svg>
