<svg xmlns="http://www.w3.org/2000/svg" width="24" height="24" viewBox="0 0 24 24">
  <path d="M12.05,11.95 L20.45,11.95 C21.029899,11.95 21.5,12.420101 21.5,13 C21.5,18.7989898 16.7989898,23.5 11,23.5 C5.20101014,23.5 0.5,18.7989898 0.5,13 C0.5,7.20101013 5.20101013,2.5 11,2.5 C11.579899,2.5 12.05,2.97010101 12.05,3.55 L12.05,11.95 Z M2.6,13 C2.6,17.6391919 6.36080812,21.4 11,21.4 C15.2835985,21.4 18.8183086,18.1936271 19.3350116,14.05 L11,14.05 C10.420101,14.05 9.95,13.579899 9.95,13 L9.95,4.66498844 C5.80637284,5.18169143 2.6,8.71640146 2.6,13 Z M23,9 C23,9.55228475 22.5522847,10 22,10 L15,10 C14.4477153,10 14,9.55228475 14,9 L14,2 C14,1.44771525 14.4477153,1 15,1 C17.1217319,1 19.1565632,1.84285472 20.6568542,3.34314575 C22.1571453,4.84343677 23,6.87826807 23,9 Z"/>
</svg>
