<?xml version="1.0" encoding="UTF-8"?>
<svg width="24px" height="24px" viewBox="0 0 24 24" version="1.1" xmlns="http://www.w3.org/2000/svg" xmlns:xlink="http://www.w3.org/1999/xlink">
    <title>send-bold-g</title>
    <g id="Icons" stroke="none" stroke-width="1" fill="none" fill-rule="evenodd">
        <g id="Glyphs" transform="translate(-2009.000000, -59.000000)" fill="#000000">
            <path d="M2011,71.7784983 L2020.77574,71.7784983 C2021.48195,71.7784983 2022.05446,71.2059948 2022.05446,70.4997759 C2022.05446,69.793557 2021.48195,69.2210535 2020.77574,69.2210535 L2011,69.2210535 C2010.44772,69.2210535 2010,68.7733383 2010,68.2210535 L2010,62.0459559 C2010,60.9160056 2010.91601,60 2012.04596,60 C2012.36358,60 2012.67684,60.0739513 2012.96094,60.2159973 L2029.86858,68.6698174 C2030.87923,69.1751465 2031.28888,70.404097 2030.78355,71.4147552 C2030.58558,71.8107037 2030.26452,72.1317602 2029.86858,72.3297345 L2012.96094,80.7835545 C2011.95028,81.2888836 2010.72133,80.8792334 2010.216,79.8685752 C2010.07395,79.5844831 2010,79.2712206 2010,78.953596 L2010,72.7784983 C2010,72.2262136 2010.44772,71.7784983 2011,71.7784983 Z" id="Path"></path>
        </g>
    </g>
</svg>