<svg xmlns="http://www.w3.org/2000/svg" width="24" height="25" viewBox="0 0 24 25">
  <path fill-rule="evenodd" d="M2.5,13.7784983 L12.2757351,13.7784983 C12.981954,13.7784983 13.5544575,13.2059948 13.5544575,12.4997759 C13.5544575,11.793557 12.981954,11.2210535 12.2757351,11.2210535 L2.5,11.2210535 C1.94771525,11.2210535 1.5,10.7733383 1.5,10.2210535 L1.5,4.04595586 C1.5,2.91600564 2.41600564,2 3.54595586,2 C3.86358047,2 4.17684304,2.07395126 4.46093513,2.21599731 L21.3685752,10.6698174 C22.3792334,11.1751465 22.7888836,12.404097 22.2835545,13.4147552 C22.0855803,13.8107037 21.7645238,14.1317602 21.3685752,14.3297345 L4.46093513,22.7835545 C3.45027693,23.2888836 2.22132641,22.8792334 1.71599731,21.8685752 C1.57395126,21.5844831 1.5,21.2712206 1.5,20.953596 L1.5,14.7784983 C1.5,14.2262136 1.94771525,13.7784983 2.5,13.7784983 Z"/>
</svg>
