<?xml version="1.0" encoding="UTF-8"?>
<svg width="24px" height="24px" viewBox="0 0 24 24" version="1.1" xmlns="http://www.w3.org/2000/svg" xmlns:xlink="http://www.w3.org/1999/xlink">
    <title>send-g</title>
    <g id="Icons" stroke="none" stroke-width="1" fill="none" fill-rule="evenodd">
        <g transform="translate(-3259.000000, -74.000000)" fill="#000000" fill-rule="nonzero" id="Shape">
            <path d="M3261.79878,76.4280084 C3261.97867,76.3895455 3262.11844,76.3879336 3262.31209,76.4405399 L3262.4355,76.4787488 L3262.65475,76.5622838 L3262.92848,76.6797859 L3280.38838,84.5413425 L3280.56053,84.6225217 L3280.68896,84.689442 L3280.79464,84.7531184 L3280.89855,84.8245662 C3281.09715,84.9671734 3281.25588,85.1401669 3281.37712,85.3992415 C3281.54486,85.790629 3281.54486,86.2451987 3281.35244,86.6898171 C3281.28184,86.8310149 3281.19043,86.9503153 3281.08171,87.054272 L3280.96736,87.1533568 L3280.88995,87.2137276 L3280.82111,87.2632619 L3280.74408,87.3109847 L3280.64208,87.365921 L3280.01859,87.6642599 L3262.96039,95.3500626 L3262.69012,95.4641042 C3262.24357,95.642457 3262.04167,95.6558367 3261.67861,95.5703384 C3261.24835,95.4627754 3260.89255,95.173992 3260.7182,94.813887 L3260.62924,94.5947675 C3260.52934,94.3220411 3260.51807,94.1203964 3260.60116,93.7873464 L3260.64256,93.6359751 L3260.73309,93.3514719 L3260.85386,93.0022014 L3263.08285,86.3616336 L3263.07723,86.3214098 C3263.07263,86.2629388 3263.07317,86.2039848 3263.07895,86.1452404 L3263.09157,86.0573675 L3263.11182,85.9770914 L3260.74154,78.8359729 L3260.59965,78.3858456 C3260.48175,77.9786138 3260.47099,77.7818104 3260.55403,77.5309047 L3260.59533,77.4192901 L3260.63244,77.3313126 C3260.79553,76.9507528 3261.10637,76.6539324 3261.49804,76.5115186 L3261.64858,76.4654892 L3261.79878,76.4280084 Z M3262.84514,78.831597 L3264.90975,85.053699 L3269.73854,85.0541372 C3270.29016,85.0541372 3270.73735,85.5013201 3270.73735,86.0529483 C3270.73735,86.5651744 3270.35177,86.9873432 3269.85502,87.0450396 L3269.73854,87.0517593 L3264.95869,87.0513212 L3262.89807,93.1875084 L3278.80414,86.0200403 L3262.84514,78.831597 Z"></path>
        </g>
    </g>
</svg>