<svg xmlns="http://www.w3.org/2000/svg" width="24" height="24" viewBox="0 0 24 24">
  <path d="M3269,72.8205128 C3269.51284,72.8205128 3269.93551,73.2164515 3269.99327,73.7265424 L3270,73.8461538 L3270,76.9230769 C3270,78.550124 3268.80648,79.9003621 3267.27659,79.9947323 L3267.10526,80 L3252.89474,80 C3251.34111,80 3250.0921,78.7078708 3250.00487,77.1026711 L3250,76.9230769 L3250,73.8461538 C3250,73.2797079 3250.44772,72.8205128 3251,72.8205128 C3251.51284,72.8205128 3251.93551,73.2164515 3251.99327,73.7265424 L3252,73.8461538 L3252,76.9230769 C3252,77.4602327 3252.35614,77.8841672 3252.79269,77.9419887 L3252.89474,77.9487179 L3267.10526,77.9487179 C3267.55255,77.9487179 3267.94064,77.5631517 3267.9938,77.044911 L3268,76.9230769 L3268,73.8461538 C3268,73.2797079 3268.44772,72.8205128 3269,72.8205128 Z M3260,74.3589744 C3260.51284,74.3589744 3260.93551,73.9630357 3260.99327,73.4529447 L3261,73.3333333 L3261,63.5035897 L3263.29289,65.8534429 L3263.3871,65.9387645 C3263.77939,66.2516105 3264.34662,66.22317 3264.70711,65.8534429 C3265.06759,65.4837157 3265.09532,64.9019403 3264.7903,64.4995903 L3264.70711,64.4029674 L3260.70711,60.3004033 L3260.66315,60.2579444 L3260.59531,60.2013688 L3260.48406,60.1278679 L3260.37134,60.0730518 L3260.26599,60.0367642 L3260.11747,60.0070095 L3260,60 L3259.92476,60.0028593 L3259.79927,60.020759 L3259.68786,60.0510134 L3259.57678,60.0960752 L3259.47929,60.1497389 L3259.38325,60.218242 C3259.35153,60.2437629 3259.32136,60.2712071 3259.29289,60.3004033 L3255.29289,64.4029674 L3255.2097,64.4995903 C3254.9301,64.8684111 3254.9301,65.3879991 3255.2097,65.7568199 L3255.29289,65.8534429 L3255.3871,65.9387645 C3255.7467,66.22554 3256.2533,66.22554 3256.6129,65.9387645 L3256.70711,65.8534429 L3259,63.5015385 L3259,73.3333333 C3259,73.8997792 3259.44772,74.3589744 3260,74.3589744 Z" transform="translate(-3248 -58)"/>
</svg>
