<svg xmlns="http://www.w3.org/2000/svg" width="24" height="24" viewBox="0 0 24 24">
  <path d="M3255.5,66 C3256.05228,66 3256.5,66.4477153 3256.5,67 C3256.5,67.5128358 3256.11396,67.9355072 3255.61662,67.9932723 L3255.5,68 L3252.89474,68 C3252.44745,68 3252.05936,68.375927 3252.0062,68.8812118 L3252,69 L3252,79 C3252,79.5237269 3252.35614,79.937063 3252.79269,79.993439 L3252.89474,80 L3267.10526,80 C3267.55255,80 3267.94064,79.624073 3267.9938,79.1187882 L3268,79 L3268,69 C3268,68.4762731 3267.64386,68.062937 3267.20731,68.006561 L3267.10526,68 L3264.5,68 C3263.94772,68 3263.5,67.5522847 3263.5,67 C3263.5,66.4871642 3263.88604,66.0644928 3264.38338,66.0067277 L3264.5,66 L3267.10526,66 C3268.65889,66 3269.9079,67.259826 3269.99513,68.8248957 L3270,69 L3270,79 C3270,80.5863709 3268.80648,81.902853 3267.27659,81.994864 L3267.10526,82 L3252.89474,82 C3251.34111,82 3250.0921,80.740174 3250.00487,79.1751043 L3250,79 L3250,69 C3250,67.4136291 3251.19352,66.097147 3252.72341,66.005136 L3252.89474,66 L3255.5,66 Z M3260.6129,58.2097046 L3260.70711,58.2928932 L3264.45711,62.0428932 C3264.84763,62.4334175 3264.84763,63.0665825 3264.45711,63.4571068 C3264.09662,63.8175907 3263.52939,63.8453203 3263.1371,63.5402954 L3263.04289,63.4571068 L3261,61.414 L3261,74 C3261,74.5522847 3260.55228,75 3260,75 C3259.48716,75 3259.06449,74.6139598 3259.00673,74.1166211 L3259,74 L3259,61.414 L3256.95711,63.4571068 C3256.59662,63.8175907 3256.02939,63.8453203 3255.6371,63.5402954 L3255.54289,63.4571068 C3255.18241,63.0966228 3255.15468,62.5293918 3255.4597,62.1371006 L3255.54289,62.0428932 L3259.29289,58.2928932 C3259.65338,57.9324093 3260.22061,57.9046797 3260.6129,58.2097046 Z" transform="translate(-3248 -58)"/>
</svg>
