<svg xmlns="http://www.w3.org/2000/svg" width="25" height="24" viewBox="0 0 25 24">
  <defs>
    <linearGradient id="shield-person-a" x1="86.706%" x2="22.878%" y1="0%" y2="100%">
      <stop offset="0%" stop-color="#00BEB9"/>
      <stop offset="100%" stop-color="#8C50B9"/>
    </linearGradient>
  </defs>
  <g fill="none" fill-rule="evenodd">
    <path fill="#000" fill-rule="nonzero" d="M1.50003753,11.537937 L1.50003753,3.92688669 C1.49495981,3.04725306 2.00591825,2.24620094 2.8180088,1.87455821 C5.71494663,0.610105721 8.84625579,-0.028353881 11.9930764,0.000965939374 C15.1538163,-0.0283535273 18.2851157,0.610104754 21.1942211,1.8799962 C21.9947838,2.2464909 22.5059067,3.04850496 22.5000367,3.92393763 L22.5000367,11.5379483 C22.4999622,16.7747907 19.2748862,21.4707806 14.3869565,23.3510331 L13.3461988,23.75094 C12.4796475,24.084253 11.5202514,24.084253 10.6539386,23.7510331 L9.61266221,23.3509269 C4.72504631,21.4706658 1.50003832,16.7746483 1.50003753,11.537937 Z M3.43022262,3.2438707 C3.1664704,3.36461574 2.99807645,3.62884684 3.00003753,3.92393695 L3.00003753,11.5379368 C3.00003823,16.1540272 5.84284829,20.2935163 10.1509565,21.9508415 L11.1921977,22.3509342 C11.7121297,22.5509216 12.2877676,22.5509216 12.8079386,22.3508415 L13.8486783,21.9509415 C18.1571034,20.2936084 20.9999711,16.1541471 21.0000367,11.5379376 L21.0000534,3.9189231 C21.0019929,3.62884833 20.833598,3.36461616 20.5820079,3.249309 C17.8786258,2.06934048 14.9565448,1.47354092 11.9930763,1.50090141 C9.04352713,1.4735406 6.12143666,2.06934147 3.43022262,3.2438707 Z"/>
    <path fill="url(#shield-person-a)" fill-rule="nonzero" d="M12,12.5 C9.790861,12.5 8,10.709139 8,8.5 C8,6.290861 9.790861,4.5 12,4.5 C14.209139,4.5 16,6.290861 16,8.5 C16,10.709139 14.209139,12.5 12,12.5 Z M12,11 C13.3807119,11 14.5,9.88071187 14.5,8.5 C14.5,7.11928813 13.3807119,6 12,6 C10.6192881,6 9.5,7.11928813 9.5,8.5 C9.5,9.88071187 10.6192881,11 12,11 Z M17.6232362,16.2548261 C17.8536632,16.5990299 17.7614287,17.0648602 17.4172249,17.2952872 C17.073021,17.5257141 16.6071907,17.4334797 16.3767638,17.0892758 C16.1849145,16.8026979 15.9652523,16.5353871 15.7212628,16.2913975 C14.7402054,15.3103402 13.4154125,14.75 12,14.75 C10.5845875,14.75 9.25979455,15.3103402 8.27873722,16.2913975 C8.03474766,16.5353871 7.81508552,16.8026979 7.62323623,17.0892758 C7.39280929,17.4334797 6.92697899,17.5257141 6.58277512,17.2952872 C6.23857126,17.0648602 6.14633683,16.5990299 6.37676377,16.2548261 C6.62308275,15.8868832 6.90499349,15.5438209 7.21807705,15.2307373 C8.47765031,13.9711641 10.1826737,13.25 12,13.25 C13.8173263,13.25 15.5223497,13.9711641 16.781923,15.2307373 C17.0950065,15.5438209 17.3769173,15.8868832 17.6232362,16.2548261 Z"/>
  </g>
</svg>
