<svg xmlns="http://www.w3.org/2000/svg" width="24" height="24" viewBox="0 0 24 24">
  <path d="M1.50005046,3.92895886 C1.49415495,3.04851047 2.00527671,2.24649276 2.81800491,1.87455821 C5.71494275,0.610105721 8.8462519,-0.028353881 11.9930725,0.000965939374 C15.1538124,-0.0283535273 18.2851119,0.610104754 21.1942172,1.8799962 C21.9947799,2.2464909 22.5059028,3.04850496 22.5000328,3.92393763 L22.5000328,11.5379483 C22.4999584,16.7747907 19.2748823,21.4707806 14.3869526,23.3510331 L13.3461949,23.75094 C12.4796436,24.084253 11.5202475,24.084253 10.6539347,23.7510331 L9.61265833,23.3509269 C4.72503539,21.4706631 1.50003444,16.7746408 1.50003365,11.5378872 L1.50005046,3.92895886 Z M10.1509526,21.9508415 L11.1921939,22.3509342 C11.7121258,22.5509216 12.2877637,22.5509216 12.8079347,22.3508415 L13.8486745,21.9509415 C18.1570995,20.2936084 20.9999672,16.1541471 21.0000328,11.5379376 L21.0000495,3.9189231 C21.001989,3.62884833 20.8335941,3.36461616 20.5820041,3.249309 C17.8786219,2.06934048 14.9565409,1.47354092 11.9930724,1.50090141 C9.04352325,1.4735406 6.12143278,2.06934147 3.43021874,3.2438707 C3.16646668,3.36461566 2.99807452,3.62884527 3.00003365,3.92393695 L3.00003365,11.5378871 C3.00003434,16.1540205 5.84283821,20.293514 10.1509526,21.9508415 Z M8.21621622,9.05629262 L8.21621622,7.81818147 C8.2162159,5.70945647 9.91027214,4 12,4 C14.0897277,3.99999968 15.7837838,5.70945634 15.7837838,7.81818182 L15.7837838,9.05629262 C16.4974048,9.35172227 17,10.0598192 17,10.8863632 L17,15.7954541 C17,16.8874658 16.1227143,17.7727268 15.0405405,17.7727268 L8.95945946,17.7727268 C7.87728566,17.7727268 7,16.8874658 7,15.7954541 L7,10.8863632 C7,10.0598192 7.50259524,9.35172227 8.21621622,9.05629262 L8.21621622,9.05629262 Z M9.7027027,8.90909045 L14.2972973,8.90909045 L14.2972973,7.81818182 C14.2972973,6.53788348 13.268764,5.49999981 12,5.5 C10.7312359,5.5 9.70270251,6.53788356 9.7027027,7.81818135 L9.7027027,8.90909045 Z M8.95945946,16.2727268 L15.0405405,16.2727268 C15.3017505,16.2727268 15.5135135,16.0590387 15.5135135,15.7954541 L15.5135135,10.8863632 C15.5135135,10.6227786 15.3017505,10.4090904 15.0405405,10.4090904 L8.95945946,10.4090904 C8.69824948,10.4090904 8.48648649,10.6227786 8.48648649,10.8863632 L8.48648649,15.7954541 C8.48648649,16.0590387 8.69824948,16.2727268 8.95945946,16.2727268 Z M12.5714288,14.5000004 C12.5714288,14.8155917 12.2595215,15 12,15 C11.7404788,15 11.4285715,14.8155917 11.4285715,14.5000004 L11.4285715,13.320759 C11.1695023,13.1400524 11,12.8398211 11,12.5 C10.9999999,11.9477151 11.4477151,11.5 12,11.5 C12.5522852,11.4999999 13.0000003,11.947715 13,12.5 C13.0000003,12.839821 12.830498,13.1400524 12.5714288,13.320759 L12.5714288,14.5000004 Z"/>
</svg>
