<svg xmlns="http://www.w3.org/2000/svg" width="24" height="24" viewBox="0 0 24 24">
  <path d="M1.5000587,4.10995018 C1.49361958,3.14497987 2.05226817,2.2653435 2.94457465,1.85560459 C5.80227607,0.60394834 8.89126219,-0.0280680124 11.9906902,0.000956199028 C15.1087396,-0.0280676618 18.1977162,0.603947399 21.0716676,1.86289307 C21.9477254,2.26534125 22.5063748,3.14497297 22.4999674,4.10327812 L22.4999674,11.5477863 C22.4998933,16.777554 19.2898204,21.4679225 14.4233623,23.3464135 L13.409382,23.7373836 C12.5021934,24.0875387 11.4976398,24.0875387 10.5907711,23.7375085 L9.57609776,23.346271 C4.71003494,21.4678035 1.50003722,16.7774033 1.50003644,11.5477229 L1.5000587,4.10995018 Z M10.2959925,21.4803258 L11.3106189,21.8715452 C11.754358,22.0428182 12.2454732,22.0428182 12.6895328,21.8714209 L13.7034891,21.48046 C17.7976438,19.9000842 20.499905,15.9517 20.4999674,11.5477721 L20.4999896,4.09661521 C20.5011856,3.91711995 20.397743,3.75424264 20.2530246,3.68758663 C17.6540235,2.54924052 14.8448558,1.9744753 11.9906901,2.00086956 C9.15514587,1.97447499 6.34596892,2.54924149 3.76321858,3.68029772 C3.60225599,3.75424173 3.49881647,3.91711545 3.50003644,4.10327746 L3.50003644,11.5477228 C3.5000371,15.9515803 6.20223825,19.8999959 10.2959925,21.4803258 Z M10.0105958,13.2877337 C9.58001917,13.0755372 9.17632378,12.7902864 8.81801871,12.4319813 C7.06066043,10.674623 7.06066043,7.82537698 8.81801871,6.06801871 C10.575377,4.31066043 13.424623,4.31066043 15.1819813,6.06801871 C16.9393396,7.82537698 16.9393396,10.674623 15.1819813,12.4319813 C14.8253058,12.7886568 14.423652,13.072941 13.9952774,13.2848339 C15.2286883,13.6467363 16.3463906,14.3420439 17.2348524,15.3046834 C17.6094268,15.7105312 17.5840749,16.3431884 17.1782271,16.7177629 C16.7723794,17.0923374 16.1397221,17.0669854 15.7651476,16.6611376 C14.7913795,15.6060696 13.4470949,14.9999998 12.0078573,15 C10.5619185,15 9.2118971,15.6117786 8.23734085,16.6755209 C7.86426096,17.082743 7.23170121,17.1104207 6.82447911,16.7373408 C6.417257,16.364261 6.38957927,15.7317012 6.76265915,15.3244791 C7.65152367,14.3542706 8.77250446,13.6529731 10.0105958,13.2877337 L10.0105958,13.2877337 Z M13.7677677,11.0177677 C14.7440774,10.041458 14.7440774,8.45854196 13.7677677,7.48223227 C12.791458,6.50592258 11.208542,6.50592258 10.2322323,7.48223227 C9.25592258,8.45854196 9.25592258,10.041458 10.2322323,11.0177677 C11.208542,11.9940774 12.791458,11.9940774 13.7677677,11.0177677 Z"/>
</svg>
