<svg xmlns="http://www.w3.org/2000/svg" width="24" height="24" viewBox="0 0 24 24">
  <path d="M2.00003466,11.7080599 L2.00003466,4.68335802 C1.99500923,3.75075968 2.53687352,2.90157225 3.40122579,2.50604754 C6.11501757,1.32153446 9.04836341,0.723438669 11.9907226,0.750904872 C14.9516386,0.723439 17.8849754,1.32153357 20.6149889,2.51329829 C21.4640827,2.90201037 22.0061906,3.75264352 21.9999692,4.67977807 L21.9999692,11.7080747 C21.9998987,16.669374 18.9445138,21.1182789 14.3136678,22.8996384 L13.3530712,23.2687436 C12.4820779,23.6037652 11.5177644,23.6037652 10.6470904,23.2688678 L9.68580228,22.8994967 C5.05535538,21.1181683 2.0000354,16.6692379 2.00003466,11.7080599 Z M4.00000867,4.67308526 L4.00003466,4.67977744 L4.00003466,11.7080598 C4.00003528,15.841743 6.54575802,19.5486357 10.403528,21.0327161 L11.3647693,21.4020692 C11.7736022,21.5593233 12.2262381,21.5593233 12.6353909,21.4019456 L13.5959636,21.0328495 C17.4541367,19.548716 19.9999105,15.8418491 19.9999692,11.7080605 L19.9999916,4.67309203 C20.0009722,4.52643467 19.915835,4.39284406 19.7987047,4.33904869 C17.3429888,3.2671812 14.6886099,2.72596494 11.9907225,2.75081883 C9.31139187,2.72596464 6.65700427,3.26718212 4.21751089,4.33179753 C4.08416384,4.39284344 3.99902765,4.52643273 4.00000867,4.67308526 Z M15.3177213,8.29000032 C15.7098413,7.90108058 16.3430013,7.90367658 16.7319214,8.29579579 C16.7516556,8.31400139 16.7706487,8.33299439 16.7888543,8.35272869 C17.1633403,8.75865869 17.1378503,9.39131269 16.7319213,9.76579869 L11.566123,14.931597 C11.174003,15.3205166 10.540843,15.3179206 10.151923,14.9257986 L7.811923,12.5857986 C7.405994,12.1936786 7.394801,11.5467276 7.786923,11.1407986 C8.179043,10.7348696 8.825994,10.7236766 9.23192301,11.1157986 L10.861923,12.7557986 L15.311923,8.29579864 C15.3138478,8.29385795 15.3157806,8.29192516 15.3177213,8.29000032 Z"/>
</svg>
