<?xml version="1.0" encoding="UTF-8"?>
<svg width="24px" height="24px" viewBox="0 0 24 24" version="1.1" xmlns="http://www.w3.org/2000/svg" xmlns:xlink="http://www.w3.org/1999/xlink">
    <!-- Generator: Sketch 54.1 (76490) - https://sketchapp.com -->
    <title>bell copy 47</title>
    <desc>Created with Sketch.</desc>
    <g id="Icons" stroke="none" stroke-width="1" fill="none" fill-rule="evenodd">
        <path d="M2.00003452,11.4580599 L2.00003452,4.43335801 C1.99500909,3.50075967 2.53687339,2.65157224 3.40122566,2.25604753 C6.11501743,1.07153445 9.04836327,0.473438658 11.9907225,0.500904862 C14.9516384,0.47343899 17.8849753,1.07153356 20.6149887,2.26329828 C21.4640826,2.65201036 22.0061905,3.50264351 21.9999691,4.42977806 L21.9999691,11.4580747 C21.9998986,16.419374 18.9445136,20.8682789 14.3136677,22.6496383 L13.3530711,23.0187436 C12.4820778,23.3537652 11.5177643,23.3537652 10.6470902,23.0188678 L9.68580215,22.6494967 C5.05535524,20.8681682 2.00003527,16.4192379 2.00003452,11.4580599 Z M4.00000853,4.42308525 L4.00003452,4.42977743 L4.00003452,11.4580597 C4.00003514,15.591743 6.54575788,19.2986357 10.4035279,20.7827161 L11.3647691,21.1520692 C11.7736021,21.3093233 12.226238,21.3093233 12.6353908,21.1519456 L13.5959635,20.7828495 C17.4541366,19.298716 19.9999104,15.5918491 19.9999691,11.4580605 L19.9999915,4.42309202 C20.000972,4.27643466 19.9158348,4.14284405 19.7987046,4.08904868 C17.3429887,3.01718119 14.6886098,2.47596493 11.9907224,2.50081882 C9.31139173,2.47596463 6.65700414,3.01718211 4.21751076,4.08179752 C4.0841637,4.14284343 3.99902752,4.27643272 4.00000853,4.42308525 Z M7.0500374,15.5525922 C7.86473852,15.1875135 8.89250444,14.8223794 10.0324018,14.4005357 C10.6818681,14.1595901 10.5749824,12.4639126 10.2878404,12.1468789 C9.36145431,11.1434309 8.90734879,9.79232377 9.03963355,8.43305344 C9.03963355,6.31164493 10.424618,5.00093694 12.0813457,5.00093694 C13.7380733,5.00093694 15.122152,6.31164493 15.122152,8.43305344 C15.2546811,9.79218606 14.8009062,11.1432751 13.8748507,12.1468771 C13.5868029,12.4639108 13.4799173,14.1595883 14.1302893,14.4005339 C15.2409131,14.8107771 16.2454902,15.1681194 17.0500374,15.5242646 C16.1353616,16.9232607 14.791922,18.038939 13.1603187,18.6665721 L12.2912245,19.0005178 C12.1297778,19.0626171 11.9516578,19.0626299 11.7907594,19.0007417 L10.9204548,18.6663306 C9.30025522,18.0430413 7.96417299,16.938249 7.0500374,15.5525922 L7.0500374,15.5525922 Z" id="Shape" fill="#000000" fill-rule="nonzero"></path>
    </g>
</svg>