<svg xmlns="http://www.w3.org/2000/svg" width="24" height="24" viewBox="0 0 24 24">
  <path d="M1.50005046,3.92895886 C1.49415495,3.04851047 2.00527671,2.24649276 2.81800491,1.87455821 C5.71494275,0.610105721 8.8462519,-0.028353881 11.9930725,0.000965939374 C15.1538124,-0.0283535273 18.2851119,0.610104754 21.1942172,1.8799962 C21.9947799,2.2464909 22.5059028,3.04850496 22.5000328,3.92393763 L22.5000328,11.5379483 C22.4999584,16.7747907 19.2748823,21.4707806 14.3869526,23.3510331 L13.3461949,23.75094 C12.4796436,24.084253 11.5202475,24.084253 10.6539347,23.7510331 L9.61265833,23.3509269 C4.72503539,21.4706631 1.50003444,16.7746408 1.50003365,11.5378872 L1.50005046,3.92895886 Z M10.1509526,21.9508415 L11.1921939,22.3509342 C11.7121258,22.5509216 12.2877637,22.5509216 12.8079347,22.3508415 L13.8486745,21.9509415 C18.1570995,20.2936084 20.9999672,16.1541471 21.0000328,11.5379376 L21.0000495,3.9189231 C21.001989,3.62884833 20.8335941,3.36461616 20.5820041,3.249309 C17.8786219,2.06934048 14.9565409,1.47354092 11.9930724,1.50090141 C9.04352325,1.4735406 6.12143278,2.06934147 3.43021874,3.2438707 C3.16646668,3.36461566 2.99807452,3.62884527 3.00003365,3.92393695 L3.00003365,11.5378871 C3.00003434,16.1540205 5.84283821,20.293514 10.1509526,21.9508415 Z M16.4577262,11.6437941 C16.5168995,11.233829 16.8972113,10.9494561 17.3071765,11.0086295 C17.7171416,11.0678028 18.0015145,11.4481147 17.9423411,11.8580798 C17.4689539,15.1378041 14.4264558,17.4127884 11.1467409,16.939394 C7.8670162,16.4660067 5.59203183,13.4235087 6.06542622,10.1437937 C6.49127321,7.19343842 9.01855927,5.00311957 11.9994845,5.00093671 C12.413698,5.00063339 12.7497302,5.33617385 12.7500335,5.7503873 C12.7503368,6.16460075 12.4147964,6.50063299 12.0005829,6.50093631 C9.76489061,6.50257345 7.86942656,8.14531217 7.55004093,10.3580812 C7.19499535,12.817866 8.90123286,15.0997385 11.3610284,15.4547793 C13.8208131,15.8098249 16.1026857,14.1035874 16.4577262,11.6437941 Z M10.5672454,9.81449005 L12.0001426,11.2521678 L16.7197036,6.53260687 C17.0125968,6.23971365 17.4874705,6.23971365 17.7803637,6.53260687 C18.073257,6.82550008 18.073257,7.30037382 17.7803637,7.59326704 L12.9937142,12.3799158 C12.4445263,12.927761 11.5555412,12.927761 11.0048219,12.3783839 L9.50482192,10.8733839 C9.21241645,10.5800038 9.21320658,10.1051307 9.50658674,9.81272522 C9.7999669,9.52031975 10.27484,9.52110989 10.5672454,9.81449005 Z"/>
</svg>
