<?xml version="1.0" encoding="UTF-8"?>
<svg width="24px" height="24px" viewBox="0 0 24 24" version="1.1" xmlns="http://www.w3.org/2000/svg" xmlns:xlink="http://www.w3.org/1999/xlink">
    <title>shield-person-g</title>
    <g id="Icons" stroke="none" stroke-width="1" fill="none" fill-rule="evenodd">
        <g id="Glyphs" transform="translate(-1630.000000, -74.000000)" fill="#000000" fill-rule="nonzero">
            <path d="M1642.006,74 L1642.5406,74.002688 C1645.28945,74.0455928 1648.00512,74.6016904 1650.59846,75.6649176 L1651.11547,75.884323 L1651.28389,75.9732204 C1651.99021,76.3854136 1652.44248,77.122587 1652.49498,77.9294103 L1652.50005,78.103274 L1652.50005,85.5477721 C1652.50005,90.6707752 1649.41955,95.2762365 1644.71923,97.2279091 L1644.42336,97.3464138 L1643.40938,97.7373836 C1642.57779,98.0583591 1641.66439,98.0851071 1640.81941,97.8177237 L1640.59077,97.7375085 L1639.5761,97.346271 C1634.80933,95.5061332 1631.63168,90.9676594 1631.50397,85.8671673 L1631.49991,85.547674 L1631.49991,78.1098834 C1631.49404,77.2052465 1631.98467,76.3756171 1632.79066,75.9337861 L1632.956,75.8506832 L1633.45122,75.6411705 C1635.99729,74.600733 1638.71315,74.0455232 1641.45692,74.0018964 L1642.006,74 Z M1641.99685,76.0009079 C1639.50142,75.977697 1637.03055,76.4179744 1634.7134,77.2935086 L1634.21927,77.4877749 L1633.76322,77.6802978 C1633.62908,77.7419205 1633.53487,77.8653132 1633.50789,78.0124484 L1633.49999,78.1032743 L1633.49999,85.547674 C1633.49999,89.8514726 1636.08079,93.7202797 1640.01904,95.3689285 L1640.29599,95.4803258 L1641.31062,95.8715452 C1641.69889,96.0214091 1642.12343,96.040142 1642.52099,95.9276609 L1642.68953,95.8714209 L1643.70349,95.4804603 C1647.70464,93.9359857 1650.37648,90.129908 1650.49586,85.8473088 L1650.50004,85.5477721 L1650.50004,78.0966681 C1650.50093,77.9601634 1650.44114,77.8324326 1650.36552,77.7603655 L1650.31861,77.72418 L1650.25303,77.6875868 C1647.97103,76.6880867 1645.52597,76.1226285 1643.0523,76.0179336 L1642.52184,76.0025613 L1641.99685,76.0009079 Z M1641.86146,79.0002464 L1642.20398,79.002323 L1642.45324,79.0101255 L1642.69188,79.0233112 L1642.86313,79.0367565 L1643.0591,79.0565428 C1645.03807,79.2833039 1646.12023,80.2787771 1646.41385,82.1742122 L1646.44424,82.3969177 L1646.46079,82.5529048 L1646.47973,82.7902987 L1646.49225,83.0331869 L1646.49723,83.1957671 L1646.49988,83.533899 L1646.49568,83.787748 L1646.48651,84.0261874 L1646.465,84.3436217 C1646.32918,85.9183574 1645.7466,86.9578828 1644.64662,87.5122187 C1645.62206,87.9046237 1646.50567,88.5146165 1647.23485,89.3046834 C1647.60943,89.7105312 1647.58407,90.3431884 1647.17823,90.7177629 C1646.77238,91.0923374 1646.13972,91.0669854 1645.76515,90.6611376 C1644.79138,89.6060697 1643.4471,89 1642.00786,89 C1640.56192,89 1639.2119,89.6117786 1638.23734,90.6755209 C1637.86426,91.082743 1637.2317,91.1104207 1636.82448,90.7373408 C1636.41726,90.364261 1636.38958,89.7317012 1636.76266,89.3244791 C1637.49438,88.5257974 1638.38339,87.9093482 1639.36555,87.5125903 C1638.31611,86.9936337 1637.73189,86.0416185 1637.55809,84.6171122 L1637.53167,84.360816 L1637.52041,84.209815 L1637.50803,83.9709477 L1637.50135,83.721926 L1637.50001,83.5547468 L1637.50426,83.2181898 L1637.51387,82.9696711 L1637.5286,82.7369578 C1637.70365,80.4498498 1638.7874,79.2816379 1640.98543,79.0464485 L1641.21679,79.0254392 L1641.37786,79.0150842 L1641.618,79.004877 L1641.86146,79.0002464 Z M1642.011,80.999 L1641.68135,81.0037294 L1641.48718,81.0119728 L1641.19338,81.0346881 C1640.02919,81.1501656 1639.65805,81.5241692 1639.53853,82.7099461 L1639.51882,82.9433552 L1639.50683,83.1700071 L1639.49996,83.5514005 L1639.5042,83.8272051 L1639.5124,84.0176499 L1639.52527,84.2011971 C1639.62216,85.341853 1639.92365,85.7373205 1640.83469,85.9069768 L1640.98367,85.9319638 L1641.1313,85.9522224 L1641.25393,85.9656913 L1641.44329,85.9814499 L1641.70144,85.9946033 L1642.0141,86.0002764 L1642.32573,85.9961052 L1642.57365,85.9845135 L1642.69584,85.9754346 L1642.87669,85.9572215 C1643.9625,85.8287997 1644.32787,85.4801311 1644.45469,84.3518782 L1644.47199,84.1767235 L1644.48554,83.9900113 L1644.49652,83.7343324 L1644.5,83.5198989 L1644.49784,83.2429796 L1644.48775,82.9824638 L1644.47535,82.8042118 L1644.45688,82.6211729 C1644.33277,81.5754339 1644.00731,81.210789 1643.00864,81.0661153 L1642.84529,81.0450328 L1642.68648,81.0288028 L1642.56109,81.0189021 L1642.369,81.0082069 L1642.16182,81.0017966 L1642.011,80.999 Z" id="Shape"></path>
        </g>
    </g>
</svg>