<svg xmlns="http://www.w3.org/2000/svg" width="24" height="24" viewBox="0 0 24 24">
  <path d="M1.5000587,4.10995018 C1.49361958,3.14497987 2.05226817,2.2653435 2.94457465,1.85560459 C5.80227607,0.60394834 8.89126219,-0.0280680124 11.9906902,0.000956199028 C15.1087396,-0.0280676618 18.1977162,0.603947399 21.0716676,1.86289307 C21.9477254,2.26534125 22.5063748,3.14497297 22.4999674,4.10327812 L22.4999674,11.5477863 C22.4998933,16.777554 19.2898204,21.4679225 14.4233623,23.3464135 L13.409382,23.7373836 C12.5021934,24.0875387 11.4976398,24.0875387 10.5907711,23.7375085 L9.57609776,23.346271 C4.71003494,21.4678035 1.50003722,16.7774033 1.50003644,11.5477229 L1.5000587,4.10995018 Z M10.2959925,21.4803258 L11.3106189,21.8715452 C11.754358,22.0428182 12.2454732,22.0428182 12.6895328,21.8714209 L13.7034891,21.48046 C17.7976438,19.9000842 20.499905,15.9517 20.4999674,11.5477721 L20.4999896,4.09661521 C20.5011856,3.91711995 20.397743,3.75424264 20.2530246,3.68758663 C17.6540235,2.54924052 14.8448558,1.9744753 11.9906901,2.00086956 C9.15514587,1.97447499 6.34596892,2.54924149 3.76321858,3.68029772 C3.60225599,3.75424173 3.49881647,3.91711545 3.50003644,4.10327746 L3.50003644,11.5477228 C3.5000371,15.9515803 6.20223825,19.8999959 10.2959925,21.4803258 Z M12,13.5 C9.51471863,13.5 7.5,11.4852814 7.5,9 C7.5,6.51471863 9.51471863,4.5 12,4.5 C14.4852814,4.5 16.5,6.51471863 16.5,9 C16.5,11.4852814 14.4852814,13.5 12,13.5 Z M12,11.5 C13.3807119,11.5 14.5,10.3807119 14.5,9 C14.5,7.61928813 13.3807119,6.5 12,6.5 C10.6192881,6.5 9.5,7.61928813 9.5,9 C9.5,10.3807119 10.6192881,11.5 12,11.5 Z M16.7366846,16.5929363 C17.1101597,16.9997959 17.0830962,17.6323823 16.6762365,18.0058574 C16.2693768,18.3793325 15.6367905,18.3522689 15.2633154,17.9454092 C14.4228487,17.0298141 13.2430709,16.5 11.975839,16.5 C10.7288805,16.5 9.56634866,17.0128471 8.72789004,17.9029027 C8.34919176,18.3049053 7.71630869,18.3237971 7.31430612,17.9450988 C6.91230355,17.5664006 6.89341169,16.9335175 7.27210996,16.5315149 C8.48466459,15.2443422 10.1719542,14.5 11.975839,14.5 C13.809117,14.5 15.5212949,15.2689041 16.7366846,16.5929363 Z"/>
</svg>
