<svg xmlns="http://www.w3.org/2000/svg" width="25" height="24" viewBox="0 0 25 24">
  <path d="M12.3028605,4.7673876 C14.4784147,4.97659777 16.0789364,6.89063712 15.9097554,9.06061384 C16.0457607,10.6610214 15.5035438,12.2463503 14.4168444,13.4247781 C14.435762,13.4039622 14.366266,13.7610983 14.3786835,14.0913707 C14.3904933,14.4054813 14.459263,14.5823714 14.3873712,14.5557983 C14.5739957,14.6250042 14.7897184,14.7046522 15.179447,14.8485153 C15.4899365,14.9632793 15.7155446,15.0472585 15.9312232,15.1286305 C16.481781,15.3363469 16.9123844,15.5068447 17.2957612,15.6713609 C17.6764073,15.8347053 17.8525652,16.2756967 17.6892209,16.6563429 C17.5258765,17.036989 17.084885,17.2131469 16.7042389,17.0498025 C16.3447264,16.8955271 15.9332049,16.7325848 15.4017294,16.5320678 C15.1898141,16.4521157 14.9670047,16.3691782 14.6594004,16.2554806 C14.2705938,16.1119584 14.0536321,16.0318529 13.8665727,15.9624853 C12.6965897,15.5300223 12.6083995,13.1843989 13.3104498,12.4119299 C14.1271837,11.5262339 14.5273038,10.3341801 14.410347,9.13507695 L14.4102488,8.99047663 C14.5425203,7.61502487 13.53472,6.39276792 12.1592753,6.26049954 C12.100162,6.25481486 12.0408669,6.25123672 12.0185026,6.24977174 C10.637128,6.2838607 9.54493165,7.43132598 9.57902328,8.8127055 C9.5804883,8.8720724 9.5840665,8.93136808 9.58975107,8.99048006 L9.58965279,9.13508171 C9.47269449,10.3341828 9.87281508,11.5262367 10.6932237,12.4159469 C11.3928892,13.1858209 11.307071,15.5313202 10.1341681,15.9622153 C10.2466012,15.9205218 8.92348121,16.4088091 8.59601981,16.5321889 C8.0624101,16.7332406 7.65297446,16.8955327 7.29736095,17.0491138 C6.91709516,17.2133417 6.47569581,17.0382084 6.31146791,16.6579426 C6.14724001,16.2776768 6.32237332,15.8362775 6.70263912,15.6720496 C7.08369498,15.5074805 7.51327821,15.3372023 8.06714895,15.1285167 C8.38510043,15.00872 9.61118616,14.5561309 9.6217289,14.5524171 L9.61346791,14.5554738 C9.54384039,14.5792301 9.61142628,14.4040815 9.62284009,14.0921303 C9.63491784,13.7620328 9.56483083,13.4046186 9.58682915,13.428795 C8.49648951,12.2463909 7.9542189,10.6609689 8.09025161,9.06053281 C8.08480821,8.99037005 8.08121614,8.9200718 8.07947984,8.8497119 C8.02494933,6.64015704 9.77194759,4.80475458 12.0185012,4.75022823 C12.1134626,4.75257147 12.2083084,4.75829489 12.3028605,4.7673876 Z M1.50003753,11.537937 L1.50003753,3.92688669 C1.49495981,3.04725306 2.00591825,2.24620094 2.8180088,1.87455821 C5.71494663,0.610105721 8.84625579,-0.028353881 11.9930764,0.000965939374 C15.1538163,-0.0283535273 18.2851157,0.610104754 21.1942211,1.8799962 C21.9947838,2.2464909 22.5059067,3.04850496 22.5000367,3.92393763 L22.5000367,11.5379483 C22.4999622,16.7747907 19.2748862,21.4707806 14.3869565,23.3510331 L13.3461988,23.75094 C12.4796475,24.084253 11.5202514,24.084253 10.6539386,23.7510331 L9.61266221,23.3509269 C4.72504631,21.4706658 1.50003832,16.7746483 1.50003753,11.537937 Z M3.43022262,3.2438707 C3.1664704,3.36461574 2.99807645,3.62884684 3.00003753,3.92393695 L3.00003753,11.5379368 C3.00003823,16.1540272 5.84284829,20.2935163 10.1509565,21.9508415 L11.1921977,22.3509342 C11.7121297,22.5509216 12.2877676,22.5509216 12.8079386,22.3508415 L13.8486783,21.9509415 C18.1571034,20.2936084 20.9999711,16.1541471 21.0000367,11.5379376 L21.0000534,3.9189231 C21.0019929,3.62884833 20.833598,3.36461616 20.5820079,3.249309 C17.8786258,2.06934048 14.9565448,1.47354092 11.9930763,1.50090141 C9.04352713,1.4735406 6.12143666,2.06934147 3.43022262,3.2438707 Z"/>
</svg>
