<?xml version="1.0" encoding="UTF-8"?>
<svg width="25px" height="24px" viewBox="0 0 25 24" version="1.1" xmlns="http://www.w3.org/2000/svg" xmlns:xlink="http://www.w3.org/1999/xlink">
    <!-- Generator: Sketch 54.1 (76490) - https://sketchapp.com -->
    <title>bell copy 73</title>
    <desc>Created with Sketch.</desc>
    <g id="Icons" stroke="none" stroke-width="1" fill="none" fill-rule="evenodd">
        <path d="M10.5556486,17.514356 C10.7419543,18.6906443 9.9394171,19.795242 8.76312547,19.9815524 C7.58683722,20.1678582 6.48223948,19.365321 6.29592908,18.1890293 C6.10962332,17.0127411 6.91216055,15.9081433 8.08845218,15.7218329 C8.30892875,15.6869129 8.52688673,15.6867324 8.73675139,15.7172413 L15.1220481,6.92863435 C15.4476406,6.48049471 16.0748744,6.38115062 16.5230141,6.70674314 C16.9711537,7.03233565 17.0704978,7.6595695 16.7449053,8.10770915 L10.359635,16.8962797 C10.4535254,17.0864691 10.5207223,17.2938453 10.5556486,17.514356 Z M21.6422409,6.99814194 L14.3250007,17.0694591 C14.3339235,17.1352542 14.3417491,17.2012045 14.3484732,17.2672824 C14.6821374,20.546242 12.2944997,23.4748492 9.01554448,23.808505 C5.73658493,24.1421691 2.80797769,21.7545314 2.47432194,18.4755762 C2.15648121,15.3521153 4.30795697,12.5465649 7.34696643,11.9990909 L14.6639548,1.92812034 C16.0639999,0.00112364281 18.761112,-0.426056946 20.6881087,0.973988104 C22.6151054,2.37403315 23.042286,5.07114525 21.6422409,6.99814194 Z M12.4527891,16.2335911 L20.0193837,5.81906715 C20.7682437,4.78834975 20.5397513,3.34570535 19.5090339,2.59684533 C18.4783165,1.84798531 17.0356721,2.07647773 16.2868121,3.10719513 L8.7202175,13.5217191 C8.55245705,13.7526215 8.29426948,13.9011166 8.01032462,13.9300099 C5.83353939,14.1515125 4.24846995,16.0957128 4.46997821,18.2725024 C4.69148074,20.4492875 6.63568102,22.034357 8.81247061,21.8128487 C10.9892558,21.5913462 12.5743252,19.6471459 12.3528173,17.4703595 C12.3379278,17.32404 12.3149024,17.178663 12.2838497,17.034905 C12.2235862,16.7559298 12.2850293,16.4644926 12.4527891,16.2335911 Z" id="Shape" fill="#000000" fill-rule="nonzero"></path>
    </g>
</svg>