<?xml version="1.0" encoding="UTF-8"?>
<svg width="25px" height="24px" viewBox="0 0 25 24" version="1.1" xmlns="http://www.w3.org/2000/svg" xmlns:xlink="http://www.w3.org/1999/xlink">
    <!-- Generator: Sketch 54.1 (76490) - https://sketchapp.com -->
    <title>bell copy 72</title>
    <desc>Created with Sketch.</desc>
    <g id="Icons" stroke="none" stroke-width="1" fill="none" fill-rule="evenodd">
        <path d="M10.5002329,16.6117481 C10.8083918,16.719859 11.0976988,16.8969918 11.3440824,17.1431465 C12.2227613,18.0210151 12.2227613,19.4443177 11.3440824,20.3221923 C10.4654035,21.200061 9.04078715,21.200061 8.16210223,20.3221923 C7.28342331,19.4443237 7.28342331,18.0210211 8.16210223,17.1431465 C8.40696019,16.8985143 8.69421278,16.7220528 9.00023225,16.613762 L9.00309235,6.75532719 C9.00321241,6.34149562 9.33909616,6.00611608 9.7533097,6.00623603 C10.1675232,6.00635598 10.5032123,6.34192999 10.5030923,6.75576156 L10.5002329,16.6117481 L10.5002329,16.6117481 Z M9.75686704,17.9833707 L9.74983493,17.983401 L9.74630227,17.9833918 C9.55663038,17.9850962 9.36748304,18.0582414 9.22276421,18.2028267 C8.92986932,18.4954535 8.92986932,18.9698873 9.22276059,19.2625084 C9.51565748,19.5551332 9.99052915,19.5551332 10.2834204,19.2625121 C10.5763153,18.9698853 10.5763153,18.4954515 10.2834222,18.2028285 C10.1379341,18.0574765 9.9475474,17.9843241 9.75686704,17.9833707 L9.75686704,17.9833707 Z M13.5000523,3.74654187 L13.5000523,15.083947 C13.5557272,15.1407176 13.6101139,15.1987558 13.6631688,15.2580181 C15.596169,17.4171809 15.411208,20.7330894 13.2500508,22.664299 C11.088895,24.5955166 7.7699259,24.4107262 5.83693375,22.251562 C3.98130395,20.1788219 4.07748117,17.040083 6.00005231,15.0836684 L6.00005231,3.74654187 C6.00005231,1.67738818 7.67898875,0 9.75005231,0 C11.8211159,0 13.5000523,1.67738818 13.5000523,3.74654187 Z M12.0000523,15.403782 L12.0000523,3.74654187 C12.0000523,2.50505135 10.9926888,1.49861675 9.75005231,1.49861675 C8.50741588,1.49861675 7.50005231,2.50505135 7.50005231,3.74654187 L7.50005231,15.403782 C7.50005231,15.6170074 7.40912719,15.8201342 7.25005151,15.9622842 C5.70636784,17.3417196 5.57425292,19.7102245 6.95496799,21.2524844 C8.33567659,22.7947445 10.7063677,22.9267376 12.2500511,21.5472958 C13.7937347,20.1678604 13.9258496,17.7993555 12.5451362,16.2570974 C12.4523272,16.15343 12.3538124,16.055006 12.2500513,15.9622826 C12.0909767,15.8201327 12.0000523,15.6170065 12.0000523,15.403782 Z M17.0968034,10.75115 C16.6825899,10.75115 16.3468034,10.4156732 16.3468034,10.0018416 C16.3468034,9.58801001 16.6825899,9.25253322 17.0968034,9.25253322 L21.2500524,9.25253322 C21.664266,9.25253322 22.0000524,9.58801001 22.0000524,10.0018416 C22.0000524,10.4156732 21.664266,10.75115 21.2500524,10.75115 L17.0968034,10.75115 Z M17.0968034,13.818958 C16.6825899,13.818958 16.3468034,13.4834812 16.3468034,13.0696496 C16.3468034,12.655818 16.6825899,12.3203413 17.0968034,12.3203413 L19.2500523,12.3203413 C19.6642659,12.3203413 20.0000523,12.655818 20.0000523,13.0696496 C20.0000523,13.4834812 19.6642659,13.818958 19.2500523,13.818958 L17.0968034,13.818958 Z M20.0000523,3.75760503 L21.5000523,3.75760503 C21.9142659,3.75760503 22.2500523,4.09308181 22.2500523,4.5069134 C22.2500523,4.92074499 21.9142659,5.25622178 21.5000523,5.25622178 L20.0000523,5.25622178 L20.0000523,6.75483853 C20.0000523,7.16867011 19.6642659,7.5041469 19.2500523,7.5041469 C18.8358388,7.5041469 18.5000523,7.16867011 18.5000523,6.75483853 L18.5000523,5.25622178 L17.0000523,5.25622178 C16.5858388,5.25622178 16.2500523,4.92074499 16.2500523,4.5069134 C16.2500523,4.09308181 16.5858388,3.75760503 17.0000523,3.75760503 L18.5000523,3.75760503 L18.5000523,2.25898828 C18.5000523,1.84515669 18.8358388,1.50967991 19.2500523,1.50967991 C19.6642659,1.50967991 20.0000523,1.84515669 20.0000523,2.25898828 L20.0000523,3.75760503 Z" id="Shape" fill="#000000" fill-rule="nonzero"></path>
    </g>
</svg>