<?xml version="1.0" encoding="UTF-8"?>
<svg width="24px" height="24px" viewBox="0 0 24 24" version="1.1" xmlns="http://www.w3.org/2000/svg" xmlns:xlink="http://www.w3.org/1999/xlink">
    <title>sick-g</title>
    <g id="Icons" stroke="none" stroke-width="1" fill="none" fill-rule="evenodd">
        <g transform="translate(-2350, -74)" fill="#000000" fill-rule="nonzero" id="Shape">
            <path d="M2357.83692,96.2346355 C2356.00754,94.1714028 2356.07516,91.0620611 2357.9196,89.0817927 L2357.9196,77.8639777 C2357.9196,75.7299658 2359.63453,74 2361.75,74 C2363.86547,74 2365.5804,75.7299658 2365.5804,77.8639778 L2365.5804,89.0822613 C2365.60831,89.1122942 2365.63587,89.1426582 2365.66308,89.1733473 C2367.59606,91.3534253 2367.4111,94.7014539 2365.24997,96.6513702 C2363.08883,98.601295 2359.76989,98.4147146 2357.83692,96.2346355 Z M2363.59778,89.5019678 L2363.59778,77.8639777 C2363.59778,76.8345353 2362.7705,76 2361.75,76 C2360.7295,76 2359.90222,76.8345353 2359.90222,77.8639777 L2359.90222,89.5019679 C2359.90222,89.7865308 2359.78204,90.0576166 2359.57178,90.2473249 C2358.22679,91.4608631 2358.11168,93.5445211 2359.31468,94.9013026 C2360.51767,96.2580835 2362.58323,96.3742025 2363.92822,95.1606579 C2365.27321,93.9471197 2365.38832,91.8634618 2364.18532,90.5066827 C2364.10446,90.4154824 2364.01862,90.3288951 2363.92822,90.2473228 C2363.71796,90.0576145 2363.59778,89.7865296 2363.59778,89.5019678 Z M2360.767,82.673913 C2360.767,82.1216283 2361.21082,81.673913 2361.75831,81.673913 C2362.3058,81.673913 2362.74962,82.1216283 2362.74962,82.673913 L2362.74962,90.496668 C2363.009,90.6144312 2363.25198,90.7807758 2363.46504,90.9957019 C2364.40762,91.9465428 2364.40762,93.4881567 2363.46504,94.4390042 C2362.52246,95.3898451 2360.99424,95.3898451 2360.05166,94.4390042 C2359.10908,93.4881632 2359.10908,91.9465493 2360.05166,90.9957019 C2360.26469,90.7807959 2360.50765,90.6144622 2360.767,90.4967009 L2360.767,82.673913 Z M2368.50005,79 C2367.94777,79 2367.50005,78.5522847 2367.50005,78 C2367.50005,77.4477153 2367.94777,77 2368.50005,77 L2373.00005,77 C2373.55234,77 2374.00005,77.4477153 2374.00005,78 C2374.00005,78.5522847 2373.55234,79 2373.00005,79 L2368.50005,79 Z M2368.50005,83 C2367.94777,83 2367.50005,82.5522847 2367.50005,82 C2367.50005,81.4477153 2367.94777,81 2368.50005,81 L2370.00005,81 C2370.55234,81 2371.00005,81.4477153 2371.00005,82 C2371.00005,82.5522847 2370.55234,83 2370.00005,83 L2368.50005,83 Z"></path>
        </g>
    </g>
</svg>