<svg xmlns="http://www.w3.org/2000/svg" width="25" height="24" viewBox="0 0 25 24">
  <path d="M6.33692075,22.2346355 C4.50754098,20.1714028 4.57515612,17.0620611 6.41959819,15.0817927 L6.41959819,3.86397767 C6.41959819,1.72996579 8.13453192,0 10.2500009,0 C12.3654699,0 14.0804036,1.72996579 14.0804036,3.86397784 L14.0804017,15.0822613 C14.1083073,15.1122942 14.1358683,15.1426582 14.1630791,15.1733473 C16.0960605,17.3534253 15.9111013,20.7014539 13.7499655,22.6513702 C11.5888307,24.601295 8.26989379,24.4147146 6.33692075,22.2346355 Z M12.0977801,15.5019678 L12.0977821,3.86397767 C12.0977821,2.83453529 11.2704982,2 10.2500009,2 C9.22950357,2 8.40221974,2.83453529 8.40221974,3.86397767 L8.40221974,15.5019679 C8.40221974,15.7865308 8.28203966,16.0576166 8.07178175,16.2473249 C6.72679015,17.4608631 6.61168012,19.5445211 7.81467993,20.9013026 C9.01767346,22.2580835 11.083226,22.3742025 12.4282181,21.1606579 C13.7732097,19.9471197 13.8883197,17.8634618 12.685322,16.5066827 C12.6044585,16.4154824 12.5186236,16.3288951 12.4282157,16.2473228 C12.2179592,16.0576145 12.0977801,15.7865296 12.0977801,15.5019678 Z M9.26699869,8.67391304 C9.26699869,8.12162829 9.71082364,7.67391304 10.2583095,7.67391304 C10.8057953,7.67391304 11.2496202,8.12162829 11.2496202,8.67391304 L11.2496202,16.496668 C11.5089969,16.6144312 11.7519787,16.7807758 11.9650387,16.9957019 C12.9076176,17.9465428 12.9076176,19.4881567 11.9650387,20.4390042 C11.0224599,21.3898451 9.49424138,21.3898451 8.55165608,20.4390042 C7.60907721,19.4881632 7.60907721,17.9465493 8.55165608,16.9957019 C8.76469477,16.7807959 9.00765005,16.6144622 9.26699869,16.4967009 L9.26699869,8.67391304 Z M17.0000547,5 C16.44777,5 16.0000547,4.55228475 16.0000547,4 C16.0000547,3.44771525 16.44777,3 17.0000547,3 L21.5000547,3 C22.0523395,3 22.5000547,3.44771525 22.5000547,4 C22.5000547,4.55228475 22.0523395,5 21.5000547,5 L17.0000547,5 Z M17.0000547,9 C16.44777,9 16.0000547,8.55228475 16.0000547,8 C16.0000547,7.44771525 16.44777,7 17.0000547,7 L18.5000547,7 C19.0523395,7 19.5000547,7.44771525 19.5000547,8 C19.5000547,8.55228475 19.0523395,9 18.5000547,9 L17.0000547,9 Z"/>
</svg>
