<svg xmlns="http://www.w3.org/2000/svg" width="24" height="24" viewBox="0 0 24 24">
  <path d="M3,9.74999995 C2.44771525,9.74999996 2,9.30228471 2,8.74999995 C2,8.19771521 2.44771525,7.74999996 3,7.74999995 L14.6348083,7.74999995 C15.0724312,6.16440691 16.5252353,5 18.25,5 C20.3210668,5 21.9999999,6.67893295 21.9999999,8.7504425 C21.9990833,10.8215318 20.3198678,12.5000002 18.248335,12.4999998 C16.5242168,12.4992365 15.072279,11.3350294 14.6348096,9.74999995 L3,9.74999995 Z M21,15.2500001 C21.5522847,15.2500001 22,15.6977153 22,16.2500001 C22,16.8022848 21.5522847,17.2500001 21,17.2500001 L12.6158897,17.2500001 C12.1779013,18.836128 10.7253684,20.0000001 9.00099991,20.0000001 C7.27623524,20.0000001 5.82343108,18.8355931 5.38580829,17.2500001 L3,17.2500001 C2.44771525,17.2500001 2,16.8022848 2,16.2500001 C2,15.6977153 2.44771525,15.2500001 3,15.2500001 L5.38580967,15.2500001 C5.823279,13.6649707 7.27521649,12.5007637 8.99933302,12.5000004 C10.724681,12.4992333 12.1784037,13.663782 12.6161919,15.2500001 L21,15.2500001 Z M10.7509998,16.2500002 C10.750572,15.2827253 9.9667203,14.4995705 9.00022034,14.5000002 C8.03402828,14.500428 7.251,15.283805 7.251,16.2500002 C7.251,17.2164976 8.03450249,18.0000001 9.00099991,18.0000001 C9.96749733,18.0000001 10.7509998,17.2164976 10.7509998,16.2500002 Z M18.2487779,10.4999999 C19.2155714,10.5000001 19.9994527,9.71654128 19.9999999,8.74977854 C19.9998804,7.78338297 19.2164237,7 18.25,7 C17.2835025,7 16.5,7.78350251 16.5,8.74999995 C16.5,9.71619519 17.2830283,10.4995722 18.2487779,10.4999999 Z"/>
</svg>
