<?xml version="1.0" encoding="UTF-8"?>
<svg width="24px" height="24px" viewBox="0 0 24 24" version="1.1" xmlns="http://www.w3.org/2000/svg" xmlns:xlink="http://www.w3.org/1999/xlink">
    <title>sliders-g</title>
    <g id="Icons" stroke="none" stroke-width="1" fill="none" fill-rule="evenodd">
        <g id="Glyphs" transform="translate(-1087.000000, -58.000000)" fill="#000000" fill-rule="nonzero">
            <path d="M1093,70 C1094.86063,70 1096.42906,71.2747409 1096.8738,73.0001723 L1108,73 C1108.55228,73 1109,73.4477153 1109,74 C1109,74.5128358 1108.61396,74.9355072 1108.11662,74.9932723 L1108,75 L1096.8728,75.0006531 C1096.42634,76.7218045 1094.857,78 1093,78 C1090.79065,78 1089,76.2052264 1089,74 C1089,71.7877153 1090.78772,70 1093,70 Z M1093,72 C1091.89228,72 1091,72.8922847 1091,74 C1091,75.101686 1091.89625,76 1093,76 C1094.09772,76 1095,75.0977153 1095,74 C1095,72.8962489 1094.10169,72 1093,72 Z M1105,62 C1107.20523,62 1109,63.7906477 1109,66 C1109,68.2022847 1107.20228,70 1105,70 C1103.13668,70 1101.57118,68.7233975 1101.1265,67.0006277 L1090,67 C1089.44772,67 1089,66.5522847 1089,66 C1089,65.4871642 1089.38604,65.0644928 1089.88338,65.0067277 L1090,65 L1101.1255,65.0001992 C1101.56848,63.2731475 1103.13306,62 1105,62 Z M1105,64 C1103.89228,64 1103,64.8922847 1103,66 C1103,67.101686 1103.89625,68 1105,68 C1106.09772,68 1107,67.0977153 1107,66 C1107,64.8962489 1106.10169,64 1105,64 Z" id="Shape"></path>
        </g>
    </g>
</svg>