<?xml version="1.0" encoding="UTF-8"?>
<svg width="24px" height="24px" viewBox="0 0 24 24" version="1.1" xmlns="http://www.w3.org/2000/svg" xmlns:xlink="http://www.w3.org/1999/xlink">
    <title>smile</title>
    <g id="Icons" stroke="none" stroke-width="1" fill="none" fill-rule="evenodd">
        <g id="Glyphs" transform="translate(-3550, -30)" fill="#000000" fill-rule="nonzero">
            <path d="M3562.06041,31.5 L3562.50688,31.5054925 L3563.15245,31.5251713 L3563.77125,31.5588896 L3564.20092,31.5921421 L3564.71859,31.6442236 C3569.51314,32.1936094 3571.79656,34.4277125 3572.35523,39.1350886 L3572.39901,39.5446945 L3572.44733,40.1472266 L3572.47941,40.763286 L3572.49252,41.1848028 L3572.49932,41.6169494 L3572.4999,42.062718 L3572.48942,42.7244514 L3572.4654,43.3556269 L3572.42677,43.969171 L3572.41003,44.1751047 C3571.96352,49.3520878 3569.74155,51.7786502 3564.84901,52.3572573 L3564.45281,52.3994543 L3564.24509,52.4181205 L3563.84723,52.4478756 L3563.308,52.4767602 L3563.02731,52.4870097 L3562.59918,52.4969673 L3562.05059,52.5006106 L3561.49633,52.4947956 L3561.06349,52.4832885 L3560.6413,52.4655292 L3560.23097,52.4414576 L3559.90938,52.4174318 L3559.59225,52.388891 L3559.17954,52.3438914 L3558.68456,52.2770293 C3554.11042,51.5873547 3552.00177,49.1816032 3551.58248,44.2453005 L3551.55306,43.8529817 L3551.54058,43.6479753 L3551.51363,43.0274823 L3551.50369,42.6006713 L3551.5,42.1631394 L3551.50241,41.7169227 L3551.51082,41.2801249 L3551.52118,40.9585744 L3551.53516,40.64139 L3551.57372,40.0296871 C3552.0019,34.4354137 3554.42357,31.9821571 3559.95186,31.5664196 L3560.35578,31.5400246 L3560.97593,31.513137 L3561.61728,31.5006297 L3562.06041,31.5 Z M3554.58095,35.288494 L3554.53751,35.3421899 C3553.68064,36.4466994 3553.23316,38.0038475 3553.0696,40.1406623 L3553.0559,40.3305034 L3553.03317,40.7180087 L3553.02007,41.0154578 L3553.0103,41.3184727 L3553.00227,41.7351778 L3552.99996,42.1606297 L3553.00345,42.5766239 L3553.01295,42.9833793 L3553.01976,43.1775339 L3553.04955,43.7509517 L3553.07768,44.1255864 C3553.43929,48.3825247 3555.04181,50.2108325 3558.89664,50.7921438 L3559.36064,50.8549923 L3559.74001,50.8962515 L3560.03198,50.922493 L3560.3304,50.9448043 L3560.71639,50.9674613 L3561.11461,50.9842043 L3561.52385,50.9950963 L3562.05319,51.0006681 L3562.57643,50.9971919 L3562.98215,50.9877227 L3563.24019,50.9783479 L3563.75071,50.9510701 L3564.12141,50.9232703 L3564.30577,50.9067292 L3564.6813,50.8666864 C3568.84073,50.3747383 3570.52874,48.5312951 3570.91527,44.0499311 L3570.95673,43.475104 L3570.96704,43.2866567 L3570.99005,42.6843897 L3570.99999,42.0522179 L3570.99941,41.630037 L3570.99299,41.2202121 L3570.98063,40.8226744 L3570.96207,40.433932 L3570.92603,39.907145 C3569.21487,40.4006367 3567.43026,40.6065235 3565.64345,40.5135114 C3561.41493,40.2737161 3557.44849,38.3981541 3554.58095,35.288494 Z M3559.03024,45.1193071 C3560.53339,46.6220086 3562.97,46.6220086 3564.47315,45.1193069 C3564.76608,44.8264575 3565.24096,44.8265284 3565.53381,45.1194654 C3565.82666,45.4124024 3565.82659,45.8872762 3565.53365,46.1801256 C3563.44475,48.2684023 3560.05864,48.2684024 3557.96974,46.1801258 C3557.6768,45.8872764 3557.67673,45.4124027 3557.96958,45.1194657 C3558.26243,44.8265287 3558.7373,44.8264577 3559.03024,45.1193071 Z M3562.05257,32.9999448 L3561.63323,33.0004834 L3561.02345,33.0122763 L3560.43777,33.0376911 L3560.05735,33.0626892 C3558.30101,33.1947796 3556.9419,33.5299682 3555.90685,34.1423339 L3555.69,34.277 L3555.82365,34.4213436 C3558.41567,37.1553414 3561.95712,38.8020538 3565.7249,39.0157284 C3567.4178,39.103846 3569.11083,38.8951604 3570.72791,38.4013094 C3570.09952,35.0391225 3568.33141,33.5680097 3564.55823,33.1355912 L3564.06844,33.0861768 L3563.67316,33.0555828 L3563.08928,33.0237324 L3562.47526,33.0050977 L3562.05257,32.9999448 Z" id="Shape"></path>
        </g>
    </g>
</svg>