<?xml version="1.0" encoding="UTF-8"?>
<svg width="24px" height="24px" viewBox="0 0 24 24" version="1.1" xmlns="http://www.w3.org/2000/svg" xmlns:xlink="http://www.w3.org/1999/xlink">
    <title>smile-g</title>
    <g id="Icons" stroke="none" stroke-width="1" fill="none" fill-rule="evenodd">
        <g transform="translate(-3550.000000, -57.000000)" fill="#000000" fill-rule="nonzero" id="Shape">
            <path d="M3562.06342,58.2500723 L3562.51442,58.2556603 L3563.16599,58.2755917 L3563.79044,58.30968 L3564.22593,58.3434486 L3564.74706,58.3959031 C3569.5536,58.9466621 3571.93099,61.1862139 3572.56658,65.8182155 L3572.60479,66.1171311 L3572.64801,66.5222646 L3572.66722,66.7362176 L3572.69688,67.1320152 L3572.70953,67.3403198 L3572.72929,67.7555115 L3572.7425,68.1808826 L3572.74933,68.6166155 L3572.74988,69.0666604 L3572.73925,69.7339714 L3572.71505,70.3692055 L3572.70339,70.5828028 L3572.65912,71.1966416 C3572.21179,76.3830948 3569.9834,78.9106324 3565.17329,79.567983 L3564.87556,79.6058989 L3564.4753,79.6484962 L3564.26385,79.6674705 L3563.86067,79.6975692 L3563.31719,79.7266458 L3563.0332,79.7369949 L3562.6009,79.7470157 L3562.04802,79.7506515 L3561.48975,79.7447629 L3561.05306,79.7331244 L3560.62673,79.7151578 L3560.21242,79.6908219 L3559.88708,79.6664888 L3559.56532,79.6374889 L3559.14613,79.5917016 L3558.6473,79.5242894 C3554.05295,78.831568 3551.85465,76.418308 3551.36231,71.5764584 L3551.3332,71.2640991 L3551.30353,70.8683015 L3551.29088,70.6599969 L3551.2637,70.0334036 L3551.25371,69.6028743 L3551.25001,69.1618815 L3551.25247,68.7122041 L3551.26096,68.2721694 L3551.27143,67.9476772 L3551.2856,67.6268561 L3551.30976,67.2151429 L3551.35039,66.7019763 C3551.8453,61.3037577 3554.29075,58.8269291 3559.63013,58.3423224 L3559.93546,58.3170133 L3560.34488,58.2903173 L3560.97102,58.2632397 L3561.6169,58.2506843 L3562.06342,58.2500723 Z M3554.81826,62.3912499 L3554.72862,62.5032416 C3553.95316,63.5058842 3553.5299,64.9003438 3553.34989,66.7970784 L3553.31897,67.1586291 L3553.28294,67.7290143 L3553.26995,68.0235217 L3553.26026,68.3232998 L3553.25227,68.7365442 L3553.24996,69.1585352 L3553.2534,69.5708111 L3553.2628,69.9745995 L3553.28786,70.5510649 L3553.29885,70.7322616 L3553.32679,71.1044802 C3553.6707,75.1530057 3555.12707,76.8996001 3558.67321,77.5032522 L3558.93007,77.544442 L3559.38759,77.6065029 L3559.76232,77.6473029 L3560.05055,77.6732371 L3560.34499,77.6952842 L3560.72684,77.7177339 L3561.12121,77.7343455 L3561.52644,77.7451638 L3562.05149,77.7507281 L3562.57056,77.7473152 L3562.97298,77.7379455 L3563.22678,77.7287627 L3563.73197,77.7018286 L3564.09894,77.6743369 L3564.27924,77.658196 L3564.65195,77.6184711 C3568.60085,77.1514219 3570.21735,75.4715355 3570.63918,71.316866 L3570.6661,71.0297434 L3570.68149,70.841428 L3570.70711,70.4616339 L3570.71723,70.2772452 L3570.74009,69.6805558 L3570.75,69.0526603 L3570.74945,68.6340656 L3570.74312,68.2280951 L3570.73093,67.834696 L3570.71255,67.4492519 L3570.70156,67.2680552 L3570.68566,67.0582693 C3569.12231,67.448646 3567.50572,67.6057742 3565.88677,67.5214981 C3561.67327,67.2825547 3557.71606,65.4439753 3554.81826,62.3912499 Z M3559.457,71.6925582 C3560.86253,73.0976639 3563.14088,73.0976638 3564.54641,71.692558 C3564.93699,71.3020921 3565.57015,71.3021867 3565.96062,71.6927694 C3566.35109,72.0833521 3566.35099,72.716517 3565.96041,73.1069829 C3563.77388,75.2928555 3560.22953,75.2928556 3558.043,73.1069832 C3557.65242,72.7165173 3557.65232,72.0833523 3558.04279,71.6927696 C3558.43325,71.302187 3559.06642,71.3020923 3559.457,71.6925582 Z M3562.041,60.249 L3561.63816,60.2504892 L3561.03437,60.2620921 L3560.4542,60.2872059 L3560.07611,60.3120394 C3558.56267,60.4258618 3557.35728,60.689197 3556.40718,61.1555367 C3558.94144,63.7557689 3562.36183,65.3183898 3565.99536,65.5244541 C3567.48296,65.6018849 3568.97065,65.4461298 3570.40499,65.0653641 C3569.75786,62.1711081 3568.14386,60.8628147 3564.83008,60.4211343 L3564.53325,60.3843932 L3564.04928,60.3354949 L3563.65965,60.3052709 L3563.08175,60.2736731 L3562.47226,60.2551339 L3562.041,60.249 Z"></path>
        </g>
    </g>
</svg>