<svg xmlns="http://www.w3.org/2000/svg" width="24" height="24" viewBox="0 0 24 24">
  <path d="M3562,59 C3568.07513,59 3573,63.9248678 3573,70 C3573,76.0751322 3568.07513,81 3562,81 C3555.92487,81 3551,76.0751322 3551,70 C3551,63.9248678 3555.92487,59 3562,59 Z M3555.11809,64.1990112 L3554.9772,64.3709591 C3553.7401,65.9123774 3553,67.8697588 3553,70 C3553,74.9705627 3557.02944,79 3562,79 C3566.97056,79 3571,74.9705627 3571,70 C3571,69.4914571 3570.95782,68.9927655 3570.87677,68.5072326 C3569.25426,68.9354185 3567.57179,69.1092137 3565.88677,69.0214981 C3561.81682,68.7906951 3557.98599,67.0673935 3555.11809,64.1990112 Z M3559.457,73.1925582 C3560.86253,74.5976639 3563.14088,74.5976638 3564.54641,73.192558 C3564.93699,72.8020921 3565.57015,72.8021867 3565.96062,73.1927694 C3566.35109,73.5833521 3566.35099,74.216517 3565.96041,74.6069829 C3563.77388,76.7928555 3560.22953,76.7928556 3558.043,74.6069832 C3557.65242,74.2165173 3557.65232,73.5833523 3558.04279,73.1927696 C3558.43325,72.802187 3559.06642,72.8020923 3559.457,73.1925582 Z M3562,61 C3559.96075,61 3558.07991,61.6782263 3556.57074,62.8214155 C3559.08731,65.3217503 3562.43926,66.8227809 3565.99536,67.0244541 C3567.45674,67.1005204 3568.91822,66.9515466 3570.32912,66.5852831 C3568.98394,63.3075055 3565.76145,61 3562,61 Z" transform="translate(-3550 -58)"/>
</svg>
