<?xml version="1.0" encoding="UTF-8"?>
<svg width="24px" height="24px" viewBox="0 0 24 24" version="1.1" xmlns="http://www.w3.org/2000/svg" xmlns:xlink="http://www.w3.org/1999/xlink">
    <!-- Generator: Sketch 54.1 (76490) - https://sketchapp.com -->
    <title>bell copy 53</title>
    <desc>Created with Sketch.</desc>
    <g id="Icons" stroke="none" stroke-width="1" fill="none" fill-rule="evenodd">
        <path d="M5.7519455,9.73621473 C5.7519455,9.73043694 5.75201084,9.72467441 5.75214081,9.71892784 C5.75340435,9.5125961 5.76434814,9.30653921 5.78490341,9.10144114 C4.41527104,8.72585584 2.93100628,9.37054133 2.29533849,10.6965304 C1.5802979,12.1880887 2.20978827,13.9768821 3.7013498,14.6919239 C4.1069006,14.8863416 4.55102643,14.9869278 5.00195578,14.9862175 L9.50195578,14.9862175 C9.91616934,14.9862175 10.2519558,15.322004 10.2519558,15.7362175 C10.2519558,16.1504311 9.91616934,16.4862175 9.50195578,16.4862175 L5.00313871,16.4862166 C4.32814615,16.4872812 3.66158588,16.3363178 3.05292203,16.0445293 C0.814337604,14.9713711 -0.130424506,12.2866847 0.942733,10.0481028 C1.8839731,8.08469654 4.06489806,7.11657658 6.09722524,7.63229064 C6.85564601,5.33613114 8.80079948,3.59526808 11.2180451,3.12532079 C14.8774487,2.41388133 18.4207212,4.80367803 19.1321612,8.46308436 C19.2112101,8.86968508 18.9456769,9.26338188 18.5390762,9.34243078 C18.1324755,9.42147968 17.7387787,9.15594646 17.6597298,8.74934574 C17.1063876,5.90314125 14.3505091,4.0444105 11.5043067,4.59775221 C9.40720911,5.00545813 7.76695369,6.64302874 7.35492488,8.73802627 C7.35359837,8.7459869 7.35214066,8.75395413 7.35055023,8.76192568 C7.28628802,9.08401955 7.25330109,9.41157747 7.25205929,9.73723137 C7.25205433,9.76987168 7.25235417,9.80250724 7.25295791,9.83513644 C7.25422361,9.90709279 7.25704915,9.9789 7.26135499,10.0505366 C7.26248826,10.0696008 7.26372483,10.0886617 7.26506451,10.1077188 C7.27182032,10.2031145 7.2811838,10.2982742 7.29316559,10.3932789 C7.41822055,11.3853904 5.92998792,11.5729859 5.80494831,10.5809203 C5.7942185,10.4958493 5.78511605,10.4106108 5.77769813,10.3254107 C5.77343479,10.2766163 5.7697025,10.2277538 5.76650182,10.1788175 C5.75677578,10.0315916 5.75194544,9.88404777 5.7519455,9.73621473 Z M17.7075144,11.7240672 C19.06262,10.4027324 21.2323057,10.4301044 22.5536383,11.7852063 C22.7853629,12.0228516 22.9813335,12.2929021 23.1397891,12.5953807 C23.7965394,13.8882801 23.5343584,15.4582181 22.5075674,16.4531805 L18.0405646,21.0251788 C17.7465104,21.3261447 17.2624482,21.326361 16.9681251,21.0256582 L12.5070904,16.4675562 C11.4658675,15.4582211 11.2036883,13.8882815 11.8648107,12.5868976 C12.7433854,10.9104855 14.814604,10.263718 16.4910177,11.1422948 C16.7850108,11.2963713 17.0550614,11.4923424 17.2939157,11.7252472 L17.5001124,11.9272127 L17.7075144,11.7240672 Z M21.4490926,15.3905346 C22.0180366,14.8390133 22.1612967,13.9811732 21.8068146,13.2831944 C21.7201757,13.1178794 21.6099816,12.9660304 21.4796826,12.8324022 C20.7366984,12.0704296 19.5166842,12.0550383 18.7559156,12.796845 L18.0249157,13.5128449 C17.7333309,13.7984464 17.2668919,13.7984464 16.975307,13.5128449 L16.2455141,12.7980245 C16.1118844,12.6677248 15.9600348,12.5575301 15.7947236,12.4708935 C14.8520744,11.9768688 13.6874321,12.340545 13.1977875,13.274707 C12.8389298,13.9811719 12.9821892,14.8390151 13.5650957,15.4044303 L17.5036541,19.4283609 L21.4490926,15.3905346 Z" id="Shape" fill="#000000" fill-rule="nonzero"></path>
    </g>
</svg>