<svg xmlns="http://www.w3.org/2000/svg" width="24" height="24" viewBox="0 0 24 24">
  <path d="M2.57432446,11.2058105 L9.48685454,18.1413955 L10.2815231,17.3426494 C10.5736659,17.0490076 11.048538,17.0477924 11.3421798,17.3399352 C11.6358216,17.6320779 11.6370368,18.1069501 11.344894,18.4005919 L10.0190152,19.7332739 C9.72599953,20.0277931 9.24939638,20.0280062 8.95611748,19.7337491 L1.5259871,12.2784711 C-0.0543077454,10.7740734 -0.453024163,8.42940378 0.549680994,6.49100027 C1.88511639,3.98859382 5.02475996,3.02579509 7.56610584,4.33375732 C8.01227757,4.56339025 8.4223205,4.85560959 8.78458195,5.20250519 L9.48067783,5.87207765 L10.17799,5.20133676 C12.2341781,3.23238321 15.5210474,3.27310495 17.5262269,5.29261462 C17.8787368,5.64764164 18.1770261,6.05130981 18.4116738,6.49100141 C18.6066919,6.85643375 18.4685439,7.31076864 18.1031116,7.5057868 C17.7376793,7.70080495 17.2833444,7.56265696 17.0883262,7.19722462 C16.9225377,6.88656381 16.7115183,6.60099602 16.4617985,6.34949315 C15.0329607,4.91044405 12.6810225,4.88130537 11.2166369,6.28356117 L10.0006094,7.45325424 C9.71024983,7.73255026 9.25110466,7.73255026 8.96074505,7.45325424 L7.74593455,6.28472916 C7.48935521,6.03903488 7.19756192,5.83108678 6.87967488,5.66747864 C5.06417777,4.7330912 2.82092702,5.42100336 1.87751724,7.18868062 C1.18626837,8.52507801 1.46200419,10.1465548 2.57432446,11.2058105 Z M23.9999968,13.4052628 C23.9971003,15.8351705 22.0250514,17.8026768 19.5952023,17.8000296 L14.5326363,17.8000292 C14.0780629,17.8007462 13.6291672,17.6990798 13.2192639,17.5025751 C11.7116909,16.7798571 11.0754408,14.9718557 11.7981583,13.4642837 C12.4777754,12.046618 13.9626172,11.3125773 15.529622,11.7277776 C16.196429,10.1025946 17.7914739,8.9978392 19.6052305,9.00000317 C22.0352935,9.00289985 24.0028961,10.9752007 23.9999968,13.4052628 Z M15.2301684,13.9506732 C15.2167386,13.8288358 15.2081306,13.7376686 15.2043443,13.6771717 C15.198541,13.584893 15.1956286,13.4920929 15.1956184,13.3967223 C15.1958903,13.327055 15.1978527,13.257433 15.2014994,13.187918 C14.3104067,12.9277413 13.525616,13.3176971 13.1456646,14.110267 C12.7797141,14.8736313 13.1018809,15.7891173 13.8652478,16.1550691 C14.0728037,16.2545699 14.3001031,16.3060489 14.5314578,16.3056849 L19.5965192,16.3056849 C21.201278,16.3075995 22.5037397,15.0082404 22.5056526,13.4034807 C22.5075673,11.7987219 21.2082082,10.4962602 19.6034484,10.4943473 C18.2078363,10.4926822 17.0083134,11.4834346 16.7460856,12.8539275 C16.745511,12.8570047 16.7449167,12.8600826 16.7443025,12.8631612 C16.7088425,13.0408929 16.69064,13.2216397 16.6899565,13.4005675 C16.6899564,13.5219576 16.6975745,13.6432282 16.7127658,13.7636639 M16.7127659,13.763664 C16.8374387,14.7558025 15.354745,14.9245421 15.230072,13.9324036"/>
</svg>
