<?xml version="1.0" encoding="UTF-8"?>
<svg width="24px" height="24px" viewBox="0 0 24 24" version="1.1" xmlns="http://www.w3.org/2000/svg" xmlns:xlink="http://www.w3.org/1999/xlink">
    <title>sort-desc-g</title>
    <g id="Icons" stroke="none" stroke-width="1" fill="none" fill-rule="evenodd">
        <g id="Glyphs" transform="translate(-2524, -28)" fill="#000000" fill-rule="nonzero">
            <path d="M2543,34 C2543.55228,34 2544,34.4477153 2544,35 C2544,35.5522847 2543.55228,36 2543,36 L2529,36 C2528.44772,36 2528,35.5522847 2528,35 C2528,34.4477153 2528.44772,34 2529,34 L2543,34 Z M2537,39 C2537.55228,39 2538,39.4477153 2538,40 C2538,40.5522847 2537.55228,41 2537,41 L2529,41 C2528.44772,41 2528,40.5522847 2528,40 C2528,39.4477153 2528.44772,39 2529,39 L2537,39 Z M2532,44 C2532.55228,44 2533,44.4477153 2533,45 C2533,45.5522847 2532.55228,46 2532,46 L2529,46 C2528.44772,46 2528,45.5522847 2528,45 C2528,44.4477153 2528.44772,44 2529,44 L2532,44 Z" id="Shape"></path>
        </g>
    </g>
</svg>