<svg xmlns="http://www.w3.org/2000/svg" width="24" height="24" viewBox="0 0 24 24">
  <path d="M12,5.66421356 L8.20710678,9.45710678 C7.81658249,9.84763107 7.18341751,9.84763107 6.79289322,9.45710678 C6.40236893,9.06658249 6.40236893,8.43341751 6.79289322,8.04289322 L11.2928932,3.54289322 C11.6834175,3.15236893 12.3165825,3.15236893 12.7071068,3.54289322 L17.2071068,8.04289322 C17.5976311,8.43341751 17.5976311,9.06658249 17.2071068,9.45710678 C16.8165825,9.84763107 16.1834175,9.84763107 15.7928932,9.45710678 L12,5.66421356 Z M15.7928932,14.5428932 C16.1834175,14.1523689 16.8165825,14.1523689 17.2071068,14.5428932 C17.5976311,14.9334175 17.5976311,15.5665825 17.2071068,15.9571068 L12.7071068,20.4571068 C12.3165825,20.8476311 11.6834175,20.8476311 11.2928932,20.4571068 L6.79289322,15.9571068 C6.40236893,15.5665825 6.40236893,14.9334175 6.79289322,14.5428932 C7.18341751,14.1523689 7.81658249,14.1523689 8.20710678,14.5428932 L12,18.3357864 L15.7928932,14.5428932 Z"/>
</svg>
