<?xml version="1.0" encoding="UTF-8"?>
<svg width="24px" height="24px" viewBox="0 0 24 24" version="1.1" xmlns="http://www.w3.org/2000/svg" xmlns:xlink="http://www.w3.org/1999/xlink">
    <title>spades-g</title>
    <g id="Icons" stroke="none" stroke-width="1" fill="none" fill-rule="evenodd">
      <g fill="#000000" fill-rule="nonzero" id="Shape">
        <path d="M11.385 19.1041C10.7364 19.7529 9.9428 20.2382 9.06975 20.5201C8.19671 20.8021 7.26917 20.8725 6.36357 20.7256C5.45796 20.5787 4.60023 20.2187 3.86104 19.6753C3.12186 19.1319 2.52239 18.4206 2.11203 17.6001C1.56906 16.5166 1.38024 15.2898 1.57224 14.0932C1.76423 12.8965 2.32734 11.7904 3.18203 10.9311L11.278 2.4851C11.3714 2.3877 11.4835 2.31019 11.6075 2.25724C11.7316 2.20429 11.8651 2.177 12 2.177C12.1349 2.177 12.2684 2.20429 12.3925 2.25724C12.5166 2.31019 12.6287 2.3877 12.722 2.4851L20.802 10.9141C21.8882 11.9998 22.4986 13.4725 22.499 15.0082C22.4994 16.5439 21.8897 18.0169 20.804 19.1031C19.7184 20.1893 18.2457 20.7997 16.7099 20.8001C15.1742 20.8005 13.7012 20.1908 12.615 19.1051L12 18.4891L11.385 19.1041Z"/>
        <path d="M13.5 23L10.5 23L11.278 18.6001L12.722 18.6001L13.5 23Z" />
      </g>
    </g>
</svg>