<svg xmlns="http://www.w3.org/2000/svg" width="24" height="24" viewBox="0 0 24 24">
  <path d="M2618.5007,62.0040614 C2618.4838,66.3179991 2620.48619,68.3987822 2625.02253,68.5010398 C2626.34309,68.5308079 2626.31708,70.5057861 2624.99618,70.5007579 C2620.77071,70.4846728 2618.72307,72.5725062 2618.49946,77.0498674 C2618.43492,78.3421659 2616.51382,78.3039283 2616.50076,77.0100851 C2616.45608,72.5860439 2614.52436,70.4947957 2610.00132,70.5007642 C2608.67652,70.5025124 2608.66118,68.5196423 2609.98584,68.5008861 C2614.39762,68.4384191 2616.48473,66.4224249 2616.50071,61.9965314 L2616.50071,61.9965314 M2616.50071,61.9962255 C2616.50594,60.6629162 2618.50552,60.6704447 2618.50073,62.0037555 M2614.69059,69.4710676 C2615.98205,70.1347059 2616.94124,71.1316068 2617.57429,72.4396129 C2618.22854,71.150542 2619.17349,70.1671174 2620.40171,69.5053092 C2619.11638,68.8627859 2618.14557,67.9160371 2617.49388,66.6812753 C2616.85369,67.9016657 2615.91386,68.8333319 2614.69059,69.4710676 Z" transform="translate(-2606 -58)"/>
</svg>
