<svg xmlns="http://www.w3.org/2000/svg" width="24" height="24" viewBox="0 0 24 24">
  <path d="M13.0007022,4.50391799 C12.9837999,8.8179005 14.9861933,10.8987052 19.5225364,11.0009639 C20.8431046,11.0307322 20.8170875,13.0057309 19.4961933,13.0007026 C15.2707189,12.9846174 13.223077,15.0724725 12.9994651,19.5498801 C12.9349241,20.842192 11.0138261,20.803954 11.0007609,19.5100974 C10.9560868,15.0860103 9.02436179,12.9947404 4.50131961,13.000709 C3.17651923,13.0024572 3.16117338,11.0195665 4.48584213,11.0008101 C8.89761913,10.9383425 10.9847294,8.92232739 11.0007164,4.49638791 L11.0007164,4.49638791 M11.0007176,4.49608201 C11.0059416,3.16275891 13.0055195,3.17028746 13.0007293,4.50361209 M9.19059218,11.9710017 C10.4820485,12.6346469 11.4412461,13.6315581 12.074294,14.9395778 C12.728547,13.6504936 13.6734974,12.6670587 14.9017124,12.0052437 C13.6163871,11.3627137 12.6455776,10.4159551 11.9938882,9.18118042 C11.3536937,10.4015835 10.413861,11.3332594 9.19059218,11.9710017 Z"/>
</svg>
