<svg xmlns="http://www.w3.org/2000/svg" width="24" height="24" viewBox="0 0 24 24">
  <path d="M3653.98974,78.0908073 L3652.6775,72.5808469 C3652.68257,72.6041975 3652.68668,72.6110794 3652.69123,72.6104643 L3656.32654,69.5174727 C3656.9396,68.9280833 3657.14323,68.1050712 3656.89724,67.3568463 C3656.64569,66.6076599 3655.99873,66.0684847 3655.22275,65.9570092 L3650.17197,65.2281132 C3650.14552,65.2243282 3650.12363,65.2085538 3650.11219,65.1857121 L3647.86496,60.6509198 C3647.66018,60.2475407 3647.3395,59.9268408 3646.94489,59.7264256 C3645.9173,59.2045427 3644.66125,59.6145575 3644.13942,60.6421769 L3641.88601,65.1893112 C3641.8765,65.2082819 3641.85454,65.224062 3641.82922,65.2276263 L3636.77656,65.9571092 C3636.00134,66.0674623 3635.3533,66.6075414 3635.10435,67.3520452 C3634.85676,68.1050688 3635.0604,68.9280813 3635.62692,69.4752584 L3639.34035,72.6386939 C3639.30607,72.6083737 3639.31235,72.6275483 3639.30917,72.6463683 L3638.02323,78.0274512 C3637.8767,78.8712753 3638.20325,79.6590851 3638.84979,80.1161769 C3639.44088,80.5349151 3640.20358,80.6148512 3640.86458,80.3374021 L3645.92583,77.9264518 C3645.98602,77.8956143 3646.01398,77.8956143 3646.03737,77.9079679 L3651.00701,80.277881 C3651.66811,80.6258201 3652.50986,80.569809 3653.15099,80.1156245 C3653.79676,79.659086 3654.1233,78.871275 3653.98974,78.0908073 Z M3650.71875,72.9794022 L3652.031,78.49 C3652.02669,78.4704333 3652.02214,78.4652267 3652.01657,78.4668412 L3651.99565,78.4830815 C3651.96758,78.5029679 3651.93176,78.5053512 3651.90216,78.4898067 L3646.93478,76.1210807 C3646.41558,75.8459304 3645.76729,75.8209167 3645.19697,76.0599268 L3640.13239,78.4725098 C3640.06823,78.5053515 3640.03242,78.5029684 3640.00513,78.4836358 C3639.98684,78.4707011 3639.97798,78.4493388 3639.9816,78.4281691 L3641.26792,73.0449223 L3641.29222,72.8627551 C3641.35503,72.1995042 3641.13043,71.5915528 3640.68468,71.1593051 L3636.96981,67.9944892 C3636.98571,68.0084705 3636.99233,68.0100967 3636.99578,68.0057896 L3637.00271,67.9814901 C3637.00994,67.9599051 3637.03289,67.9407805 3637.06039,67.9368661 L3642.11154,67.2075973 C3642.78412,67.112907 3643.37027,66.6916788 3643.67609,66.0812731 L3645.92707,61.5389693 C3645.94438,61.5049815 3645.99656,61.487949 3646.03925,61.5096286 C3646.05565,61.5179585 3646.06898,61.5312951 3646.07732,61.5477147 L3648.32196,66.0773612 C3648.62873,66.6902299 3649.21303,67.1112712 3649.88749,67.2077776 L3654.93771,67.9365941 C3654.96661,67.9407454 3654.99019,67.9603933 3654.99929,67.9874981 C3655.0037,68.0009946 3654.99839,68.0224521 3654.98364,68.0367024 L3651.3633,71.1157109 C3650.82905,71.630848 3650.60596,72.3114936 3650.71875,72.9794022 Z" transform="translate(-3634 -58)"/>
</svg>
