<svg xmlns="http://www.w3.org/2000/svg" width="24" height="24" viewBox="0 0 24 24">
  <path d="M3644.04166,59.7065192 L3641.56338,64.7313622 C3641.53746,64.7833231 3641.48505,64.821165 3641.42544,64.8295986 L3635.86783,65.6358216 C3635.05166,65.7525615 3634.37042,66.3230194 3634.10917,67.1080536 C3633.84999,67.9001039 3634.06323,68.7660521 3634.65737,69.3426498 L3638.73741,72.8347643 L3638.73554,72.8417451 L3638.74124,72.9018684 C3638.74154,72.915055 3638.74093,72.9291702 3638.73856,72.9432325 L3637.32257,78.8979169 C3637.16985,79.7822695 3637.51201,80.6116958 3638.19066,81.0937833 C3638.81695,81.539577 3639.62689,81.6225806 3640.32626,81.3225712 L3645.87705,78.664995 C3645.96795,78.6177133 3646.03205,78.6177133 3646.08607,78.6463878 L3651.54906,81.2639432 C3652.24742,81.6332027 3653.13487,81.5738678 3653.81012,81.0932283 C3654.48799,80.6116967 3654.83015,79.7822693 3654.69028,78.9610078 L3653.24822,72.8779859 L3653.25393,72.8736593 L3653.28446,72.8222787 C3653.29187,72.8116033 3653.30051,72.8007504 3653.31048,72.7910377 L3657.29617,69.3849936 C3657.93677,68.7660542 3658.15001,67.9001065 3657.89241,67.1128386 C3657.62852,66.3231711 3656.94839,65.7536397 3656.13147,65.6357206 L3650.57555,64.83009 C3650.51487,64.8213659 3650.46263,64.783536 3650.43484,64.7277702 L3647.9627,59.7152455 C3647.74794,59.2902093 3647.41094,58.951564 3646.99581,58.739725 C3645.91329,58.1873107 3644.59011,58.6213062 3644.04166,59.7065192 Z M3646.08673,60.521177 C3646.12373,60.5400563 3646.15413,60.5706092 3646.17335,60.6086239 L3648.64291,65.6160125 C3648.96497,66.2624881 3649.57953,66.7074544 3650.28974,66.8095623 L3655.8451,67.6151128 C3655.91348,67.624983 3655.97094,67.6730982 3655.99356,67.7407841 C3656.01163,67.7960715 3655.99503,67.8634849 3655.94976,67.9074122 L3651.96265,71.3148409 C3651.40467,71.855568 3651.17098,72.5719577 3651.2891,73.2747242 L3652.73152,79.3599008 L3652.71006,79.3984203 C3652.69666,79.4194593 3652.67701,79.4448902 3652.65111,79.4632919 C3652.59031,79.5065699 3652.51244,79.511776 3652.44763,79.4775855 L3646.9869,76.861225 C3646.43366,76.5666757 3645.74329,76.5421299 3645.13879,76.8019199 L3639.58699,79.4601731 C3639.48756,79.5117765 3639.40969,79.5065704 3639.34967,79.4638488 C3639.29708,79.426489 3639.2703,79.3615671 3639.28133,79.2968084 L3640.69769,73.3399695 C3640.82902,72.5719569 3640.59533,71.8555681 3640.08524,71.3585681 L3636.00377,67.8650696 L3635.99903,67.8223164 C3635.99754,67.7976055 3635.99846,67.7654335 3636.00842,67.7347961 C3636.02914,67.6725794 3636.086,67.62497 3636.15299,67.6153873 L3641.70908,66.8093804 C3642.41748,66.7091691 3643.03399,66.2640019 3643.35515,65.6199168 L3645.83101,60.5998952 C3645.86707,60.5286317 3645.94844,60.4900564 3646.02807,60.5022394 L3646.08673,60.521177 Z" transform="translate(-3634 -58)"/>
</svg>
