<svg xmlns="http://www.w3.org/2000/svg" width="24" height="24" viewBox="0 0 24 24">
  <path d="M3679.98974,78.0908073 L3678.6775,72.5808469 C3678.68257,72.6041975 3678.68668,72.6110794 3678.69123,72.6104643 L3682.32654,69.5174727 C3682.9396,68.9280833 3683.14323,68.1050712 3682.89724,67.3568463 C3682.64569,66.6076599 3681.99873,66.0684847 3681.22275,65.9570092 L3676.17197,65.2281132 C3676.14552,65.2243282 3676.12363,65.2085538 3676.11219,65.1857121 L3673.86496,60.6509198 C3673.66018,60.2475407 3673.3395,59.9268408 3672.94489,59.7264256 C3671.9173,59.2045427 3670.66125,59.6145575 3670.13942,60.6421769 L3667.88601,65.1893112 C3667.8765,65.2082819 3667.85454,65.224062 3667.82922,65.2276263 L3662.77656,65.9571092 C3662.00134,66.0674623 3661.3533,66.6075414 3661.10435,67.3520452 C3660.85676,68.1050688 3661.0604,68.9280813 3661.62692,69.4752584 L3665.34035,72.6386939 C3665.30607,72.6083737 3665.31235,72.6275483 3665.30917,72.6463683 L3664.02323,78.0274512 C3663.8767,78.8712753 3664.20325,79.6590851 3664.84979,80.1161769 C3665.44088,80.5349151 3666.20358,80.6148512 3666.86458,80.3374021 L3671.92583,77.9264518 C3671.98602,77.8956143 3672.01398,77.8956143 3672.03737,77.9079679 L3677.00701,80.277881 C3677.66811,80.6258201 3678.50986,80.569809 3679.15099,80.1156245 C3679.79676,79.659086 3680.1233,78.871275 3679.98974,78.0908073 Z" transform="translate(-3660 -58)"/>
</svg>
