<svg xmlns="http://www.w3.org/2000/svg" width="24" height="24" viewBox="0 0 24 24">
  <path d="M18.8846154,16.8653846 C18.8846154,19.977302 16.3619173,22.5 13.25,22.5 C10.1380827,22.5 7.61538462,19.977302 7.61558838,16.8754761 C7.54357393,15.0928964 6.74593236,13.4173103 5.43124306,12.2558717 C3.910978,11.2084957 3.00209327,9.48102324 3,7.63461538 L3,4.55769231 C3,3.14515958 4.14515958,2 5.55769231,2 L6.32692308,2 C6.8897635,2 7.34615385,2.45639035 7.34615385,3.01923077 C7.34615385,3.58207119 6.8897635,4.03846154 6.32692308,4.03846154 L5.55769231,4.03846154 C5.27099426,4.03846154 5.03846154,4.27099426 5.03846154,4.55769231 L5.03846154,7.63461538 C5.03846154,9.62069804 6.64853273,11.2307692 8.63461538,11.2307692 C10.620698,11.2307692 12.2307692,9.62069804 12.2307692,7.63461538 L12.2307692,4.55769231 C12.2307692,4.27099426 11.9982365,4.03846154 11.7115385,4.03846154 L10.9423077,4.03846154 C10.3794673,4.03846154 9.92307692,3.58207119 9.92307692,3.01923077 C9.92307692,2.45639035 10.3794673,2 10.9423077,2 L11.7115385,2 C13.1240712,2 14.2692308,3.14515958 14.2692308,4.55769231 L14.2692307,7.63439701 C14.2708407,9.47751588 13.3683253,11.2042346 11.8762762,12.2380465 C10.5325709,13.4151964 9.72933759,15.0912442 9.65384615,16.8653846 C9.65384615,18.8514673 11.2639173,20.4615385 13.25,20.4615385 C15.2360827,20.4615385 16.8461538,18.8514673 16.8461538,16.8653846 L16.8461538,16.1762173 C15.7647299,15.828388 14.9303396,14.9495992 14.64409,13.8409523 C14.1848087,12.0618818 15.2545864,10.2473854 17.0336631,9.78793615 C18.8127336,9.32865485 20.62723,10.3984325 21.0866792,12.1775093 C21.5295984,13.8931996 20.5504707,15.6419269 18.8846154,16.1763071 L18.8846154,16.8653846 Z M17.8653846,14.5576923 C18.7150769,14.5576923 19.4038462,13.8689231 19.4038462,13.0192308 C19.4038462,12.1695385 18.7150769,11.4807692 17.8653846,11.4807692 C17.0156923,11.4807692 16.3269231,12.1695385 16.3269231,13.0192308 C16.3269231,13.8689231 17.0156923,14.5576923 17.8653846,14.5576923 Z"/>
</svg>
