<?xml version="1.0" encoding="UTF-8"?>
<svg width="24px" height="24px" viewBox="0 0 24 24" version="1.1" xmlns="http://www.w3.org/2000/svg" xmlns:xlink="http://www.w3.org/1999/xlink">
    <!-- Generator: Sketch 54.1 (76490) - https://sketchapp.com -->
    <title>bell copy 25</title>
    <desc>Created with Sketch.</desc>
    <g id="Icons" stroke="none" stroke-width="1" fill="none" fill-rule="evenodd">
        <path d="M7.5,16.4588035 L7.5,16.5 C7.5000005,19.8137065 10.1862936,22.5 13.5,22.5 C16.8137066,22.4999995 19.5,19.8137063 19.5,16.5 L19.5,13.6746554 C18.8031636,13.5331061 18.1387841,13.1921043 17.5983299,12.6516501 C16.1338667,11.1871869 16.1338667,8.81281313 17.5983299,7.34834991 C19.0627931,5.8838867 21.4371669,5.8838867 22.9016301,7.34834991 C24.3660933,8.81281313 24.3660933,11.1871869 22.9016301,12.6516501 C22.3611862,13.192094 21.6968219,13.5330931 21,13.6746473 L21,16.5 C21,20.6421334 17.6421338,23.9999994 13.5,24 C9.35786647,24 6.00000063,20.6421336 6,16.5 L6,16.4588035 C2.62503599,16.0857205 0,13.2244167 0,9.75 L0,3.75000011 C-1.87633418e-07,2.50735978 1.00735931,1.50000034 2.25,1.5 L3,1.5 L3.00000007,0.75 C3.00000007,0.335786438 3.3357865,0 3.75000007,0 C4.16421363,0 4.50000007,0.335786438 4.50000007,0.75 L4.5,4.5 C4.50000007,4.91421356 4.16421363,5.25 3.75000007,5.25 C3.3357865,5.25 3.00000007,4.91421356 3,4.5 L3,3 L2.25000021,3 C1.83578661,3.00000011 1.49999994,3.33578676 1.5,3.75 L1.5,9.75 C1.5,12.6494964 3.85050356,15 6.75,15 C9.64949644,15 12,12.6494964 12,9.75 L12,3.75 C12,3.33578655 11.6642134,2.99999998 11.25,3 L10.5,3 L10.5,4.5 C10.5000001,4.91421356 10.1642136,5.25 9.75000007,5.25 C9.3357865,5.25 9.00000007,4.91421356 9,4.5 L9.00000007,0.75 C9.00000007,0.335786438 9.3357865,0 9.75000007,0 C10.1642136,0 10.5000001,0.335786438 10.5000001,0.75 L10.5,1.5 L11.25,1.5 C12.4926405,1.49999995 13.5,2.50735942 13.5,3.75 L13.5,9.75 C13.5,13.2244167 10.874964,16.0857205 7.5,16.4588035 L7.5,16.4588035 Z M21.8409699,11.5909899 C22.7196467,10.7123131 22.7196467,9.28768687 21.8409699,8.40901009 C20.9622931,7.5303333 19.5376669,7.5303333 18.6589901,8.40901009 C17.7803133,9.28768687 17.7803133,10.7123131 18.6589901,11.5909899 C19.5376669,12.4696667 20.9622931,12.4696667 21.8409699,11.5909899 Z" id="Shape" fill="#000000" fill-rule="nonzero"></path>
    </g>
</svg>