<?xml version="1.0" encoding="UTF-8"?>
<svg width="24px" height="24px" viewBox="0 0 24 24" version="1.1" xmlns="http://www.w3.org/2000/svg"
  xmlns:xlink="http://www.w3.org/1999/xlink">
  <title>tag-g</title>
  <g id="Icons" stroke="none" stroke-width="1" fill="none" fill-rule="evenodd">
    <g fill="#000000" fill-rule="nonzero" id="Shape">
      <path fill-rule="evenodd" clip-rule="evenodd"
        d="M12.331 0.00855957C11.6777 -0.0419682 11.0405 0.229146 10.6251 0.734512L0.454089 13.1061C-0.247376 13.9593 -0.122286 15.2171 0.733488 15.9155L10.0527 23.5205C10.9085 24.2189 12.1709 24.0934 12.8724 23.2401L23.0434 10.8686C23.4589 10.3633 23.6002 9.68758 23.4218 9.05932L21.423 2.0203C21.1947 1.21623 20.4878 0.639335 19.6516 0.574669L12.331 0.00855957ZM12.5805 2.50737C12.2729 2.50105 11.9794 2.6359 11.7844 2.87313L2.91247 13.6645C2.56174 14.0912 2.62428 14.7201 3.05217 15.0692L10.4441 21.1015C10.872 21.4507 11.5032 21.3879 11.8539 20.9613L20.7259 10.17C20.9209 9.93275 20.9958 9.61947 20.929 9.32028L19.6101 3.41281C19.5099 2.96403 19.115 2.64172 18.6536 2.63224L12.5805 2.50737Z" />
    </g>
  </g>
</svg>