<svg xmlns="http://www.w3.org/2000/svg" width="24" height="25" viewBox="0 0 24 25">
  <path d="M16.6375599,6.51148009 C15.3195367,5.19345687 15.3195367,3.05653313 16.6375599,1.73850991 C17.9555831,0.420486695 20.0925069,0.420486695 21.4105301,1.73850991 C22.7285533,3.05653313 22.7285533,5.19345687 21.4105301,6.51148009 C21.2028926,6.71911757 20.9749317,6.89404445 20.7330508,7.03626074 C22.1899093,7.54152165 23.4100087,8.6839888 23.9571752,10.2530427 C24.0935661,10.644157 23.8870719,11.0717844 23.4959576,11.2081753 C23.1048433,11.3445662 22.6772158,11.138072 22.540825,10.7469577 C21.8635985,8.80494393 19.7402854,7.77963578 17.7982684,8.45686502 C16.7255488,8.83094931 15.8822557,9.67424173 15.5081754,10.7469571 C15.3717849,11.1380715 14.9441576,11.3445661 14.5530432,11.2081755 C14.1619287,11.071785 13.9554342,10.6441577 14.0918247,10.2530433 C14.6165833,8.74824204 15.799548,7.56527826 17.304352,7.04051528 C17.3081067,7.03920591 17.311862,7.03790108 17.3156177,7.03660078 C17.0735217,6.89432331 16.8453629,6.71928308 16.6375599,6.51148009 Z M3.26537711,19.7870305 C3.022984,19.6446686 2.79455163,19.4694718 2.58651991,19.2614401 C1.2684967,17.9434169 1.2684967,15.8064931 2.58651991,14.4884699 C3.90454313,13.1704467 6.04146687,13.1704467 7.35949009,14.4884699 C8.6775133,15.8064931 8.6775133,17.9434169 7.35949009,19.2614401 C7.15205685,19.4688733 6.92434017,19.6436603 6.68272454,19.785801 C8.14016879,20.2908284 9.36084269,21.4335127 9.90817518,23.0030427 C10.0445661,23.394157 9.83807191,23.8217844 9.4469576,23.9581753 C9.05584329,24.0945662 8.62821584,23.888072 8.49182496,23.4969577 C7.8145985,21.5549439 5.6912854,20.5296358 3.74926843,21.206865 C2.67654879,21.5809493 1.83325571,22.4242417 1.4591754,23.4969571 C1.32278488,23.8880715 0.895157618,24.0945661 0.504043184,23.9581755 C0.11292875,23.821785 -0.0935657809,23.3941577 0.0428247411,23.0030433 C0.567583259,21.498242 1.75054798,20.3152783 3.255352,19.7905153 C3.25869332,19.7893501 3.26203503,19.7881885 3.26537711,19.7870305 Z M13.4989999,23.25 L13.4989999,21.75 L12.749,21.75 C11.5063594,21.7500002 10.4990001,20.7426408 10.4989999,19.5 L10.4989999,15 C10.4989999,13.7573595 11.5063593,12.7500001 12.7489999,12.75 L21.7489999,12.75 C22.9916405,12.75 23.999,13.7573595 23.9989999,15 L23.9989999,19.4999999 C23.999,20.7426406 22.9916405,21.7500001 21.7489999,21.75 L17.4989999,21.75 L14.699,23.85 C14.2045728,24.2208204 13.499,23.868034 13.4989999,23.25 Z M14.9989999,21 L14.9989999,21.75 L16.7989999,20.4 C16.928822,20.3026334 17.0867222,20.25 17.2489999,20.25 L21.7489999,20.25 C22.1632134,20.25 22.4989999,19.9142135 22.4989999,19.5 L22.4989999,14.9999999 C22.4989999,14.5857865 22.1632134,14.25 21.7489999,14.25 L12.7489999,14.25 C12.3347864,14.25 11.9989999,14.5857866 11.9989999,15 L11.9989999,19.4999999 C11.9989999,19.9142136 12.3347864,20.2500001 12.7489999,20.25 L14.2489999,20.25 C14.6632134,20.25 14.9989998,20.5857864 14.9989999,21 Z M6.29882991,15.5491301 C5.56659313,14.8168933 4.37941687,14.8168933 3.64718009,15.5491301 C2.9149433,16.2813669 2.9149433,17.4685431 3.64718009,18.2007799 C4.37941687,18.9330167 5.56659313,18.9330167 6.29882991,18.2007799 C7.0310667,17.4685431 7.0310667,16.2813669 6.29882991,15.5491301 Z M20.3498699,2.79917009 C19.6176331,2.0669333 18.4304569,2.0669333 17.6982201,2.79917009 C16.9659833,3.53140687 16.9659833,4.71858313 17.6982201,5.45081991 C18.4304569,6.1830567 19.6176331,6.1830567 20.3498699,5.45081991 C21.0821067,4.71858313 21.0821067,3.53140687 20.3498699,2.79917009 Z M17.5,16.75 C17.0857864,16.75 16.75,16.4142136 16.75,16 C16.75,15.5857864 17.0857864,15.25 17.5,15.25 L20.25,15.25 C20.6642136,15.25 21,15.5857864 21,16 C21,16.4142136 20.6642136,16.75 20.25,16.75 L17.5,16.75 Z M14.25,19 C13.8357864,19 13.5,18.6642136 13.5,18.25 C13.5,17.8357864 13.8357864,17.5 14.25,17.5 L20.25,17.5 C20.6642136,17.5 21,17.8357864 21,18.25 C21,18.6642136 20.6642136,19 20.25,19 L14.25,19 Z M2.2489997,9.00000023 C1.00635927,8.99999983 -0.00100006557,7.99264051 -0.00100006557,6.75000023 L-0.00100006557,2.25000034 C-0.0010002532,1.00735974 1.00635932,2.26493997e-07 2.24899993,2.26493997e-07 L11.2489999,2.26493998e-07 C12.4916404,1.72176446e-07 13.4989998,1.00735963 13.4989999,2.25000023 L13.4989999,6.75000029 C13.4989998,7.99264089 12.4916404,9.00000032 11.2489999,9.00000023 L10.4989999,9.00000023 L10.4989999,10.5000002 C10.499,11.118034 9.79342724,11.4708204 9.29900004,11.1 L6.49899993,9.00000023 L2.2489997,9.00000023 Z M8.99899993,8.25000025 C8.99899992,7.83578668 9.33478636,7.50000023 9.74899993,7.50000023 L11.2489999,7.50000023 C11.6632133,7.50000026 11.9989999,7.1642137 11.9989999,6.75000023 L11.9989999,2.25000029 C11.9989999,1.8357868 11.6632133,1.50000021 11.2489999,1.50000023 L2.24899993,1.50000023 C1.83478646,1.50000023 1.49899987,1.8357868 1.49899993,2.25000023 L1.49899993,6.75000023 C1.49899993,7.16421346 1.83478657,7.5000001 2.24899993,7.50000023 L6.74899993,7.50000023 C6.91127758,7.50000023 7.06917778,7.55263362 7.1989999,7.6500002 L8.99899993,9.00000023 L8.99899993,8.25000025 Z M6.75,2.5 C7.16421356,2.5 7.5,2.83578644 7.5,3.25 C7.5,3.66421356 7.16421356,4 6.75,4 L3.75,4 C3.33578644,4 3,3.66421356 3,3.25 C3,2.83578644 3.33578644,2.5 3.75,2.5 L6.75,2.5 Z M9.75,4.75 C10.1642136,4.75 10.5,5.08578644 10.5,5.5 C10.5,5.91421356 10.1642136,6.25 9.75,6.25 L3.75,6.25 C3.33578644,6.25 3,5.91421356 3,5.5 C3,5.08578644 3.33578644,4.75 3.75,4.75 L9.75,4.75 Z"/>
</svg>
