<?xml version="1.0" encoding="UTF-8"?>
<svg width="24px" height="25px" viewBox="0 0 24 25" version="1.1" xmlns="http://www.w3.org/2000/svg" xmlns:xlink="http://www.w3.org/1999/xlink">
    <!-- Generator: Sketch 54.1 (76490) - https://sketchapp.com -->
    <title>bell copy 82</title>
    <desc>Created with Sketch.</desc>
    <g id="Icons" stroke="none" stroke-width="1" fill="none" fill-rule="evenodd">
        <path d="M13.5,22.75 L13.5,21.25 L12.7500001,21.25 C11.5073595,21.2500002 10.5000002,20.2426408 10.5,19 L10.5,14.5 C10.5,13.2573595 11.5073594,12.2500001 12.75,12.25 L21.75,12.25 C22.9926406,12.25 24.0000001,13.2573595 24,14.5 L24,18.9999999 C24.0000001,20.2426406 22.9926406,21.2500001 21.75,21.25 L17.5,21.25 L14.7000001,23.35 C14.205573,23.7208204 13.5000002,23.368034 13.5,22.75 Z M15,20.5 L15,21.25 L16.8,19.9 C16.9298221,19.8026334 17.0877223,19.75 17.25,19.75 L21.75,19.75 C22.1642135,19.75 22.5,19.4142135 22.5,19 L22.5,14.4999999 C22.5,14.0857865 22.1642135,13.75 21.75,13.75 L12.75,13.75 C12.3357866,13.75 12,14.0857866 12,14.5 L12,18.9999999 C12.0000001,19.4142136 12.3357865,19.7500001 12.75,19.75 L14.25,19.75 C14.6642135,19.75 15,20.0857864 15,20.5 Z M20.2510001,14.75 C20.6652137,14.75 21.0010001,15.0857864 21.0010001,15.5 C21.0010001,15.9142136 20.6652137,16.25 20.2510001,16.25 L17.5010001,16.25 C17.0867866,16.25 16.7510001,15.9142136 16.7510001,15.5 C16.7510001,15.0857864 17.0867866,14.75 17.5010001,14.75 L20.2510001,14.75 Z M20.25,17 C20.6642136,17 21,17.3357864 21,17.75 C21,18.1642136 20.6642136,18.5 20.25,18.5 L14.25,18.5 C13.8357864,18.5 13.5,18.1642136 13.5,17.75 C13.5,17.3357864 13.8357864,17 14.25,17 L20.25,17 Z M2.24999976,9.00000023 C1.00735934,8.99999983 0,7.99264051 0,6.75000023 L0,2.25000034 C-1.87633759e-07,1.00735974 1.00735939,2.26493997e-07 2.25,2.26493997e-07 L11.25,2.26493998e-07 C12.4926405,1.72176446e-07 13.4999999,1.00735963 13.5,2.25000023 L13.5,6.75000029 C13.4999999,7.99264089 12.4926405,9.00000032 11.2499999,9.00000023 L10.5,9.00000023 L10.5,10.5000002 C10.5000001,11.118034 9.79442731,11.4708204 9.3000001,11.1 L6.5,9.00000023 L2.24999976,9.00000023 Z M9,8.25000025 C8.99999999,7.83578668 9.33578643,7.50000023 9.75,7.50000023 L11.25,7.50000023 C11.6642134,7.50000026 12,7.1642137 12,6.75000023 L12,2.25000029 C12,1.8357868 11.6642134,1.50000021 11.25,1.50000023 L2.25,1.50000023 C1.83578653,1.50000023 1.49999994,1.8357868 1.5,2.25000023 L1.5,6.75000023 C1.5,7.16421346 1.83578664,7.5000001 2.25,7.50000023 L6.75,7.50000023 C6.91227765,7.50000023 7.07017784,7.55263362 7.19999996,7.6500002 L9,9.00000023 L9,8.25000025 Z M6,2.5 C6.41421356,2.5 6.75,2.83578644 6.75,3.25 C6.75,3.66421356 6.41421356,4 6,4 L3.25,4 C2.83578644,4 2.5,3.66421356 2.5,3.25 C2.5,2.83578644 2.83578644,2.5 3.25,2.5 L6,2.5 Z M9.25,4.75 C9.66421356,4.75 10,5.08578644 10,5.5 C10,5.91421356 9.66421356,6.25 9.25,6.25 L3.25,6.25 C2.83578644,6.25 2.5,5.91421356 2.5,5.5 C2.5,5.08578644 2.83578644,4.75 3.25,4.75 L9.25,4.75 Z M7.23915651,20.6245255 C7.24297619,20.726073 7.25532051,20.8152758 7.27213566,20.8804127 C7.4011438,20.9279255 7.56289439,20.9873579 7.79831442,21.0738556 C8.05753277,21.1692679 8.24782364,21.2399675 8.42873574,21.308379 C8.89102824,21.4831938 9.25005847,21.6278071 9.56535781,21.7690029 C10.275183,22.0868734 10.7629054,22.387762 11.0906195,22.7550278 C11.3663978,23.0640896 11.3394161,23.5381962 11.0303542,23.8139745 C10.7212924,24.0897527 10.2471858,24.0627711 9.97140754,23.7537092 C9.81857138,23.5824273 9.48449901,23.3763294 8.95229923,23.1380023 C8.45836657,22.9168118 8.56277238,22.9562926 6.61355852,22.23629 C5.57698371,21.8522664 5.50335218,19.8947453 6.11817629,19.2180852 C6.71544202,18.5708054 7.00810248,17.699416 6.91908756,16.7500572 C6.91908756,15.5220336 6.19807135,14.7492105 5.23187661,14.7492105 C4.26500516,14.7492105 3.54393965,15.52118 3.54041296,16.8212523 C3.45509559,17.6979169 3.74797115,18.5693169 4.34947795,19.2208953 C4.96017156,19.8930424 4.88609227,21.8505315 3.84994621,22.2349314 C3.69055973,22.2939158 3.50824228,22.3610029 3.18121264,22.4813001 C2.92289355,22.5764827 2.73698061,22.6456096 2.56095306,22.7122135 C2.1220423,22.878285 1.78785809,23.0129695 1.50418774,23.1401511 C1.35295572,23.207955 1.21807549,23.2728448 1.09797096,23.3357136 C0.730993368,23.5278082 0.277775838,23.3860374 0.085681277,23.0190598 C-0.106413284,22.6520823 0.0353574259,22.1988647 0.40233502,22.0067702 C0.551038168,21.9289314 0.712945188,21.8510392 0.890527271,21.7714215 C1.20619241,21.6298952 1.5656634,21.4850195 2.03012286,21.3092811 C2.21102556,21.2408326 2.40054362,21.1703653 2.66259515,21.0738074 C2.90060019,20.9862571 3.06104029,20.9272279 3.19123416,20.8791967 C3.208096,20.8139599 3.22048186,20.7246077 3.22433076,20.6229033 C3.22947753,20.4869038 3.2188719,20.3443431 3.19676727,20.2306134 C3.18803651,20.185693 3.18100385,20.1663011 3.23694257,20.2270768 C2.35370535,19.2664352 1.92102617,17.9752605 2.04393965,16.7486052 C2.04393965,14.7147564 3.41284691,13.2492105 5.23187661,13.2492105 C7.05065164,13.2492105 8.41908756,14.7159722 8.4155472,16.6772699 C8.54251639,17.9793831 8.10778136,19.273796 7.22447222,20.2310393 C7.28319856,20.1664034 7.27592997,20.185602 7.26683658,20.2323061 C7.2446912,20.3460458 7.234043,20.4885809 7.23915651,20.6245255 Z M20.288822,7.87531498 C20.2926416,7.97686249 20.304986,8.06606526 20.3218011,8.13120218 C20.4508093,8.17871497 20.6125599,8.23814735 20.8479799,8.3246451 C21.1071983,8.4200574 21.2974892,8.49075699 21.4784013,8.55916847 C21.9406938,8.7339833 22.299724,8.8785966 22.6150234,9.0197924 C23.0542624,9.21649023 23.403277,9.40485876 23.685262,9.60585292 C24.0225609,9.84627398 24.101096,10.3146086 23.8606749,10.6519076 C23.6202538,10.9892065 23.1519192,11.0677416 22.8146203,10.8273205 C22.625823,10.692749 22.358314,10.5483703 22.0019649,10.3887918 C21.5080322,10.1676012 21.612438,10.2070821 19.663224,9.48707945 C18.6266491,9.10305592 18.5530176,7.14553478 19.1678418,6.46887466 C19.7651075,5.82159483 20.057768,4.95020548 19.9687531,4.00084667 C19.9687531,2.77282311 19.2477368,2 18.281542,2 C17.3146704,2 16.5936049,2.77196947 16.5900782,4.07204176 C16.5047608,4.94870639 16.7976364,5.82010635 17.3991432,6.47168477 C18.0098369,7.14383182 17.9357576,9.10132102 16.8996115,9.48572082 C16.7375063,9.5457114 16.2073,9.74076264 16.1422318,9.76477909 C15.8577572,9.86977779 15.6460425,9.94898518 15.4492553,10.0244554 C15.0625081,10.1727776 14.6287486,9.97949595 14.4804264,9.59274874 C14.3321042,9.20600153 14.5253859,8.77224208 14.9121331,8.62391989 C15.1159054,8.54577078 15.3329466,8.46457062 15.6228366,8.35757315 C15.6756067,8.33809585 16.0211951,8.21094833 16.2409112,8.12994061 C16.2577671,8.06470771 16.2701481,7.97537347 16.2739961,7.87369275 C16.2791428,7.73769328 16.2685372,7.59513259 16.2464326,7.48140284 C16.2377018,7.4364825 16.2306691,7.41709057 16.2866079,7.47786626 C15.4033706,6.51722471 14.9706914,5.22604997 15.0936049,3.99939465 C15.0936049,1.96554588 16.4625122,0.5 18.281542,0.5 C20.1003171,0.5 21.4687531,1.9667616 21.4652127,3.92805932 C21.5921819,5.23017258 21.1574469,6.52458549 20.2741377,7.48182876 C20.332864,7.41719285 20.3255954,7.4363915 20.316502,7.48309555 C20.2943566,7.59683524 20.2837084,7.73937033 20.288822,7.87531498 Z" id="Shape" fill="#000000" fill-rule="nonzero"></path>
    </g>
</svg>