<?xml version="1.0" encoding="UTF-8"?>
<svg width="24px" height="25px" viewBox="0 0 24 25" version="1.1" xmlns="http://www.w3.org/2000/svg" xmlns:xlink="http://www.w3.org/1999/xlink">
    <!-- Generator: Sketch 54.1 (76490) - https://sketchapp.com -->
    <title>bell copy 82</title>
    <desc>Created with Sketch.</desc>
    <g id="Icons" stroke="none" stroke-width="1" fill="none" fill-rule="evenodd">
        <path d="M13.5,22.7365569 L13.5,21.2365569 L12.7500001,21.2365569 C11.5073595,21.2365572 10.5000002,20.2291977 10.5,18.9865569 L10.5,14.4865569 C10.5,13.2439164 11.5073594,12.236557 12.75,12.2365569 L21.75,12.2365569 C22.9926406,12.2365569 24.0000001,13.2439164 24,14.4865569 L24,18.9865569 C24.0000001,20.2291975 22.9926406,21.236557 21.75,21.2365569 L17.5,21.2365569 L14.7000001,23.3365569 C14.205573,23.7073773 13.5000002,23.3545909 13.5,22.7365569 Z M15,20.4865569 L15,21.2365569 L16.8,19.8865569 C16.9298221,19.7891903 17.0877223,19.7365569 17.25,19.7365569 L21.75,19.7365569 C22.1642135,19.7365569 22.5,19.4007704 22.5,18.9865569 L22.5,14.4865569 C22.5,14.0723435 22.1642135,13.7365569 21.75,13.7365569 L12.75,13.7365569 C12.3357866,13.7365569 12,14.0723435 12,14.4865569 L12,18.9865568 C12.0000001,19.4007705 12.3357865,19.736557 12.75,19.7365569 L14.25,19.7365569 C14.6642135,19.7365569 15,20.0723433 15,20.4865569 Z M20.2510001,14.7365569 C20.6652137,14.7365569 21.0010001,15.0723434 21.0010001,15.4865569 C21.0010001,15.9007705 20.6652137,16.2365569 20.2510001,16.2365569 L17.5010001,16.2365569 C17.0867866,16.2365569 16.7510001,15.9007705 16.7510001,15.4865569 C16.7510001,15.0723434 17.0867866,14.7365569 17.5010001,14.7365569 L20.2510001,14.7365569 Z M20.25,16.9865569 C20.6642136,16.9865569 21,17.3223434 21,17.7365569 C21,18.1507705 20.6642136,18.4865569 20.25,18.4865569 L14.25,18.4865569 C13.8357864,18.4865569 13.5,18.1507705 13.5,17.7365569 C13.5,17.3223434 13.8357864,16.9865569 14.25,16.9865569 L20.25,16.9865569 Z M2.24999976,8.98655714 C1.00735934,8.98655674 0,7.97919743 0,6.73655714 L0,2.23655725 C-1.87633759e-07,0.993916654 1.00735939,-0.0134428611 2.25,-0.0134428611 L11.25,-0.0134428611 C12.4926405,-0.0134429154 13.4999999,0.993916538 13.5,2.23655714 L13.5,6.7365572 C13.4999999,7.9791978 12.4926405,8.98655724 11.2499999,8.98655714 L10.5,8.98655714 L10.5,10.4865571 C10.5000001,11.1045909 9.79442731,11.4573773 9.3000001,11.0865569 L6.5,8.98655714 L2.24999976,8.98655714 Z M9,8.23655716 C8.99999999,7.82234359 9.33578643,7.48655714 9.75,7.48655714 L11.25,7.48655714 C11.6642134,7.48655717 12,7.15077061 12,6.73655714 L12,2.2365572 C12,1.82234371 11.6642134,1.48655712 11.25,1.48655714 L2.25,1.48655714 C1.83578653,1.48655714 1.49999994,1.82234371 1.5,2.23655714 L1.5,6.73655714 C1.5,7.15077037 1.83578664,7.48655701 2.25,7.48655714 L6.75,7.48655714 C6.91227765,7.48655714 7.07017784,7.53919053 7.19999996,7.63655711 L9,8.98655714 L9,8.23655716 Z M6,2.48655691 C6.41421356,2.48655691 6.75,2.82234335 6.75,3.23655691 C6.75,3.65077047 6.41421356,3.98655691 6,3.98655691 L3.25,3.98655691 C2.83578644,3.98655691 2.5,3.65077047 2.5,3.23655691 C2.5,2.82234335 2.83578644,2.48655691 3.25,2.48655691 L6,2.48655691 Z M9.25,4.73655691 C9.66421356,4.73655691 10,5.07234335 10,5.48655691 C10,5.90077047 9.66421356,6.23655691 9.25,6.23655691 L3.25,6.23655691 C2.83578644,6.23655691 2.5,5.90077047 2.5,5.48655691 C2.5,5.07234335 2.83578644,4.73655691 3.25,4.73655691 L9.25,4.73655691 Z M7.23915651,20.6110824 C7.24297619,20.7126299 7.25532051,20.8018327 7.27213566,20.8669696 C7.4011438,20.9144824 7.56289439,20.9739148 7.79831442,21.0604126 C8.05753277,21.1558249 8.24782364,21.2265244 8.42873574,21.2949359 C8.89102824,21.4697508 9.25005847,21.6143641 9.56535781,21.7555599 C10.275183,22.0734303 10.7629054,22.3743189 11.0906195,22.7415847 C11.3663978,23.0506465 11.3394161,23.5247531 11.0303542,23.8005314 C10.7212924,24.0763096 10.2471858,24.049328 9.97140754,23.7402661 C9.81857138,23.5689842 9.48449901,23.3628863 8.95229923,23.1245592 C8.45836657,22.9033687 8.56277238,22.9428495 6.61355852,22.2228469 C5.57698371,21.8388234 5.50335218,19.8813022 6.11817629,19.2046421 C6.71544202,18.5573623 7.00810248,17.6859729 6.91908756,16.7366141 C6.91908756,15.5085905 6.19807135,14.7357674 5.23187661,14.7357674 C4.26500516,14.7357674 3.54393965,15.5077369 3.54041296,16.8078092 C3.45509559,17.6844739 3.74797115,18.5558738 4.34947795,19.2074522 C4.96017156,19.8795993 4.88609227,21.8370885 3.84994621,22.2214883 C3.69055973,22.2804727 3.50824228,22.3475599 3.18121264,22.4678571 C2.92289355,22.5630396 2.73698061,22.6321665 2.56095306,22.6987704 C2.1220423,22.8648419 1.78785809,22.9995264 1.50418774,23.126708 C1.35295572,23.1945119 1.21807549,23.2594017 1.09797096,23.3222705 C0.730993368,23.5143651 0.277775838,23.3725944 0.085681277,23.0056168 C-0.106413284,22.6386392 0.0353574259,22.1854216 0.40233502,21.9933271 C0.551038168,21.9154884 0.712945188,21.8375961 0.890527271,21.7579784 C1.20619241,21.6164521 1.5656634,21.4715764 2.03012286,21.295838 C2.21102556,21.2273895 2.40054362,21.1569222 2.66259515,21.0603643 C2.90060019,20.972814 3.06104029,20.9137848 3.19123416,20.8657536 C3.208096,20.8005168 3.22048186,20.7111646 3.22433076,20.6094602 C3.22947753,20.4734607 3.2188719,20.3309 3.19676727,20.2171703 C3.18803651,20.1722499 3.18100385,20.152858 3.23694257,20.2136337 C2.35370535,19.2529921 1.92102617,17.9618174 2.04393965,16.7351621 C2.04393965,14.7013133 3.41284691,13.2357674 5.23187661,13.2357674 C7.05065164,13.2357674 8.41908756,14.7025291 8.4155472,16.6638268 C8.54251639,17.96594 8.10778136,19.2603529 7.22447222,20.2175962 C7.28319856,20.1529603 7.27592997,20.1721589 7.26683658,20.218863 C7.2446912,20.3326027 7.234043,20.4751378 7.23915651,20.6110824 Z M20.288822,7.86187189 C20.2926416,7.9634194 20.304986,8.05262217 20.3218011,8.11775909 C20.4508093,8.16527188 20.6125599,8.22470426 20.8479799,8.31120201 C21.1071983,8.40661432 21.2974892,8.4773139 21.4784013,8.54572539 C21.9406938,8.72054021 22.299724,8.86515351 22.6150234,9.00634932 C23.0542624,9.20304714 23.403277,9.39141568 23.685262,9.59240983 C24.0225609,9.8328309 24.101096,10.3011655 23.8606749,10.6384645 C23.6202538,10.9757634 23.1519192,11.0542985 22.8146203,10.8138774 C22.625823,10.6793059 22.358314,10.5349272 22.0019649,10.3753487 C21.5080322,10.1541582 21.612438,10.193639 19.663224,9.47363636 C18.6266491,9.08961283 18.5530176,7.13209169 19.1678418,6.45543157 C19.7651075,5.80815174 20.057768,4.93676239 19.9687531,3.98740358 C19.9687531,2.75938002 19.2477368,1.98655691 18.281542,1.98655691 C17.3146704,1.98655691 16.5936049,2.75852638 16.5900782,4.05859867 C16.5047608,4.93526331 16.7976364,5.80666326 17.3991432,6.45824168 C18.0098369,7.13038874 17.9357576,9.08787793 16.8996115,9.47227773 C16.7375063,9.53226831 16.2073,9.72731956 16.1422318,9.751336 C15.8577572,9.8563347 15.6460425,9.9355421 15.4492553,10.0110123 C15.0625081,10.1593345 14.6287486,9.96605286 14.4804264,9.57930565 C14.3321042,9.19255844 14.5253859,8.75879899 14.9121331,8.6104768 C15.1159054,8.53232769 15.3329466,8.45112753 15.6228366,8.34413006 C15.6756067,8.32465276 16.0211951,8.19750524 16.2409112,8.11649752 C16.2577671,8.05126463 16.2701481,7.96193038 16.2739961,7.86024966 C16.2791428,7.72425019 16.2685372,7.58168951 16.2464326,7.46795975 C16.2377018,7.42303941 16.2306691,7.40364748 16.2866079,7.46442317 C15.4033706,6.50378162 14.9706914,5.21260688 15.0936049,3.98595157 C15.0936049,1.95210279 16.4625122,0.486556912 18.281542,0.486556912 C20.1003171,0.486556912 21.4687531,1.95331852 21.4652127,3.91461623 C21.5921819,5.21672949 21.1574469,6.5111424 20.2741377,7.46838567 C20.332864,7.40374976 20.3255954,7.42294842 20.316502,7.46965246 C20.2943566,7.58339215 20.2837084,7.72592724 20.288822,7.86187189 Z" id="Shape-Copy-19" fill="#000000" fill-rule="nonzero"></path>
    </g>
</svg>