<svg xmlns="http://www.w3.org/2000/svg" width="24" height="24" viewBox="0 0 24 24">
  <path d="M14,8.25 L5.25,8.25 C4.83578644,8.25 4.5,7.91421356 4.5,7.5 C4.5,7.08578644 4.83578644,6.75 5.25,6.75 L14,6.75 L14,3 C14,2.58578644 14.3357864,2.25 14.75,2.25 C15.1642136,2.25 15.5,2.58578644 15.5,3 L15.5,11.2164261 L20.7468589,11.1944513 C21.1610688,11.1927165 21.4982586,11.5270937 21.4999934,11.9413037 C21.5017282,12.3555136 21.167351,12.6927034 20.7531411,12.6944382 L15.5,12.7164392 L15.5,21 C15.5,21.4142136 15.1642136,21.75 14.75,21.75 C14.3357864,21.75 14,21.4142136 14,21 L14,11.9699728 L14,8.25 Z M1.25,12.75 C0.835786438,12.75 0.5,12.4142136 0.5,12 C0.5,11.5857864 0.835786438,11.25 1.25,11.25 L5.25,11.25 C5.66421356,11.25 6,11.5857864 6,12 C6,12.4142136 5.66421356,12.75 5.25,12.75 L1.25,12.75 Z M9.24993992,12.7497597 C8.83572636,12.7497265 8.49996682,12.4139132 8.5,11.9996996 C8.50003318,11.5854861 8.83584652,11.2497265 9.25006008,11.2497597 L12.2500601,11.25 C12.6642736,11.2500332 13.0000332,11.5858465 13,12.0000601 C12.9999668,12.4142736 12.6641535,12.7500332 12.2499399,12.75 L9.24993992,12.7497597 Z M2.25,17.25 C1.83578644,17.25 1.5,16.9142136 1.5,16.5 C1.5,16.0857864 1.83578644,15.75 2.25,15.75 L11.25,15.75 C11.6642136,15.75 12,16.0857864 12,16.5 C12,16.9142136 11.6642136,17.25 11.25,17.25 L2.25,17.25 Z M20.25,8.25 C19.8357864,8.25 19.5,7.91421356 19.5,7.5 C19.5,7.08578644 19.8357864,6.75 20.25,6.75 L22.75,6.75 C23.1642136,6.75 23.5,7.08578644 23.5,7.5 C23.5,7.91421356 23.1642136,8.25 22.75,8.25 L20.25,8.25 Z M17.25,17.25 C16.8357864,17.25 16.5,16.9142136 16.5,16.5 C16.5,16.0857864 16.8357864,15.75 17.25,15.75 L19.25,15.75 C19.6642136,15.75 20,16.0857864 20,16.5 C20,16.9142136 19.6642136,17.25 19.25,17.25 L17.25,17.25 Z"/>
</svg>
