<svg xmlns="http://www.w3.org/2000/svg" width="24" height="24" viewBox="0 0 24 24">
  <path d="M1090,79 L1106,79 C1107.10457,79 1108,79.8954305 1108,81 L1108,83 C1108,84.1045695 1107.10457,85 1106,85 L1090,85 C1088.89543,85 1088,84.1045695 1088,83 L1088,81 C1088,79.8954305 1088.89543,79 1090,79 Z M1090,81 L1090,83 L1106,83 L1106,81 L1090,81 Z M1106,87 L1108,87 C1109.10457,87 1110,87.8954305 1110,89 L1110,91 C1110,92.1045695 1109.10457,93 1108,93 L1106,93 C1104.89543,93 1104,92.1045695 1104,91 L1104,89 C1104,87.8954305 1104.89543,87 1106,87 Z M1106,89 L1106,91 L1108,91 L1108,89 L1106,89 Z M1092,87 L1100,87 C1101.10457,87 1102,87.8954305 1102,89 L1102,91 C1102,92.1045695 1101.10457,93 1100,93 L1092,93 C1090.89543,93 1090,92.1045695 1090,91 L1090,89 C1090,87.8954305 1090.89543,87 1092,87 Z M1092,89 L1092,91 L1100,91 L1100,89 L1092,89 Z" transform="translate(-1087 -74)"/>
</svg>
