<?xml version="1.0" encoding="UTF-8"?>
<svg width="24px" height="24px" viewBox="0 0 24 24" version="1.1" xmlns="http://www.w3.org/2000/svg" xmlns:xlink="http://www.w3.org/1999/xlink">
    <!-- Generator: Sketch 54.1 (76490) - https://sketchapp.com -->
    <title>bell copy 28</title>
    <desc>Created with Sketch.</desc>
    <g id="Icons" stroke="none" stroke-width="1" fill="none" fill-rule="evenodd">
        <path d="M1.5,10.5 C0.94771525,10.5 0.5,10.0522847 0.5,9.5 C0.5,8.94771525 0.94771525,8.5 1.5,8.5 L8.5,8.5 C9.05228475,8.5 9.5,8.94771525 9.5,9.5 C9.5,10.0522847 9.05228475,10.5 8.5,10.5 L1.5,10.5 Z M12.5,10.5 C11.9477153,10.5 11.5,10.0522847 11.5,9.5 C11.5,8.94771525 11.9477153,8.5 12.5,8.5 L22.5,8.5 C23.0522847,8.5 23.5,8.94771525 23.5,9.5 C23.5,10.0522847 23.0522847,10.5 22.5,10.5 L12.5,10.5 Z M20.5,16.5 C19.9477153,16.5 19.5,16.0522847 19.5,15.5 C19.5,14.9477153 19.9477153,14.5 20.5,14.5 L22.5,14.5 C23.0522847,14.5 23.5,14.9477153 23.5,15.5 C23.5,16.0522847 23.0522847,16.5 22.5,16.5 L20.5,16.5 Z M1.5,16.5 C0.94771525,16.5 0.5,16.0522847 0.5,15.5 C0.5,14.9477153 0.94771525,14.5 1.5,14.5 L16.5,14.5 C17.0522847,14.5 17.5,14.9477153 17.5,15.5 C17.5,16.0522847 17.0522847,16.5 16.5,16.5 L1.5,16.5 Z" id="Shape" fill="#000000" fill-rule="nonzero"></path>
    </g>
</svg>