<svg xmlns="http://www.w3.org/2000/svg" width="17" height="14" viewBox="0 0 17 14">
  <path d="M12.45,12 L13.95,12 C14.4746705,12 14.9,12.4253295 14.9,12.95 C14.9,13.4746705 14.4746705,13.9 13.95,13.9 L6.95,13.9 C6.42532949,13.9 6,13.4746705 6,12.95 C6,12.4253295 6.42532949,12 6.95,12 L11.45,12 L11.45,7.9 L3.95,7.9 C3.42532949,7.9 3,7.47467051 3,6.95 C3,6.42532949 3.42532949,6 3.95,6 L11.45,6 L11.45,1.9 L0.95,1.9 C0.425329488,1.9 0,1.47467051 0,0.95 C0,0.425329488 0.425329488,0 0.95,0 L15.95,0 C16.4746705,0 16.9,0.425329488 16.9,0.95 C16.9,1.47467051 16.4746705,1.9 15.95,1.9 L12.45,1.9 L12.45,12 Z M0.95,13.9 C0.425329488,13.9 0,13.4746705 0,12.95 C0,12.4253295 0.425329488,12 0.95,12 L2.45,12 C2.97467051,12 3.4,12.4253295 3.4,12.95 C3.4,13.4746705 2.97467051,13.9 2.45,13.9 L0.95,13.9 Z"/>
</svg>
