<svg xmlns="http://www.w3.org/2000/svg" width="24" height="24" viewBox="0 0 24 24">
  <path d="M3,7.00033214 C2.44771525,7.00033214 2,6.55261689 2,6.00033214 C2,5.44804739 2.44771525,5.00033214 3,5.00033214 L8.5,5.00033214 C9.05228475,5.00033214 9.5,5.44804739 9.5,6.00033214 C9.5,6.55261689 9.05228475,7.00033214 8.5,7.00033214 L3,7.00033214 Z M13.4999359,6.99975969 C12.9476512,6.9997243 12.4999646,6.55198036 12.5,5.99969561 C12.5000354,5.44741087 12.9477793,4.99972431 13.5000641,4.9997597 L21.0000641,5.00024031 C21.5523488,5.0002757 22.0000354,5.44801964 22,6.00030439 C21.9999646,6.55258913 21.5522207,7.00027569 20.9999359,7.0002403 L13.4999359,6.99975969 Z M3,19.0003321 C2.44771525,19.0003321 2,18.5526169 2,18.0003321 C2,17.4480474 2.44771525,17.0003321 3,17.0003321 L6,17.0003321 C6.55228475,17.0003321 7,17.4480474 7,18.0003321 C7,18.5526169 6.55228475,19.0003321 6,19.0003321 L3,19.0003321 Z M10.9999399,18.9997597 C10.4476552,18.9997265 9.99996682,18.5519844 10,17.9996996 C10.0000332,17.4474149 10.4477753,16.9997265 11.0000601,16.9997597 L21.0000601,17.0003605 C21.5523448,17.0003936 22.0000332,17.4481358 22,18.0004205 C21.9999668,18.5527053 21.5522247,19.0003936 20.9999399,19.0003605 L10.9999399,18.9997597 Z M3,13.0003321 C2.44771525,13.0003321 2,12.5526169 2,12.0003321 C2,11.4480474 2.44771525,11.0003321 3,11.0003321 L15,11.0003321 C15.5522847,11.0003321 16,11.4480474 16,12.0003321 C16,12.5526169 15.5522847,13.0003321 15,13.0003321 L3,13.0003321 Z M19.6280204,13.0003321 C19.0757356,13.0003321 18.6280204,12.5526169 18.6280204,12.0003321 C18.6280204,11.4480474 19.0757356,11.0003321 19.6280204,11.0003321 L20.8780204,11.0003321 C21.4303051,11.0003321 21.8780204,11.4480474 21.8780204,12.0003321 C21.8780204,12.5526169 21.4303051,13.0003321 20.8780204,13.0003321 L19.6280204,13.0003321 Z"/>
</svg>
