<?xml version="1.0" encoding="UTF-8"?>
<svg width="19px" height="13px" viewBox="0 0 19 13" version="1.1" xmlns="http://www.w3.org/2000/svg" xmlns:xlink="http://www.w3.org/1999/xlink">
    <!-- Generator: Sketch Beta 51 (57336) - http://www.bohemiancoding.com/sketch -->
    <title>Combined Shape Copy 5</title>
    <desc>Created with Sketch Beta.</desc>
    <defs></defs>
    <g id="Symbols" stroke="none" stroke-width="1" fill="none" fill-rule="evenodd">
        <path d="M8.12352447,2 C7.50301904,2 7,1.55228475 7,1 C7,0.44771525 7.50301904,0 8.12352447,0 L9.24647542,0 C9.86698085,0 10.3699999,0.44771525 10.3699999,1 C10.3699999,1.55228475 9.86698085,2 9.24647542,2 L8.12352447,2 Z M13.1235245,2 C12.503019,2 12,1.55228475 12,1 C12,0.44771525 12.503019,0 13.1235245,0 L17.2464754,0 C17.8669808,0 18.3699999,0.44771525 18.3699999,1 C18.3699999,1.55228475 17.8669808,2 17.2464754,2 L13.1235245,2 Z M1.12352447,2 C0.503019038,2 0,1.55228475 0,1 C0,0.44771525 0.503019038,0 1.12352447,0 L4.24647542,0 C4.86698085,0 5.36999989,0.44771525 5.36999989,1 C5.36999989,1.55228475 4.86698085,2 4.24647542,2 L1.12352447,2 Z M1.12352447,7.5 C0.503019038,7.5 0,7.05228475 0,6.5 C0,5.94771525 0.503019038,5.5 1.12352447,5.5 L8.24647542,5.5 C8.86698085,5.5 9.36999989,5.94771525 9.36999989,6.5 C9.36999989,7.05228475 8.86698085,7.5 8.24647542,7.5 L1.12352447,7.5 Z M12.1235245,7.5 C11.503019,7.5 11,7.05228475 11,6.5 C11,5.94771525 11.503019,5.5 12.1235245,5.5 L17.2464754,5.5 C17.8669808,5.5 18.3699999,5.94771525 18.3699999,6.5 C18.3699999,7.05228475 17.8669808,7.5 17.2464754,7.5 L12.1235245,7.5 Z M1.12352447,13 C0.503019038,13 0,12.5522847 0,12 C0,11.4477153 0.503019038,11 1.12352447,11 L12.2464754,11 C12.8669808,11 13.3699999,11.4477153 13.3699999,12 C13.3699999,12.5522847 12.8669808,13 12.2464754,13 L1.12352447,13 Z M16.1235245,13 C15.503019,13 15,12.5522847 15,12 C15,11.4477153 15.503019,11 16.1235245,11 L17.2464754,11 C17.8669808,11 18.3699999,11.4477153 18.3699999,12 C18.3699999,12.5522847 17.8669808,13 17.2464754,13 L16.1235245,13 Z" id="Combined-Shape-Copy-5" fill="#393B4F" fill-rule="nonzero"></path>
    </g>
</svg>