<svg xmlns="http://www.w3.org/2000/svg" width="24" height="24" viewBox="0 0 24 24">
  <path d="M3.5,10.0005724 C2.94771525,10.0005724 2.5,9.55285719 2.5,9.00057244 C2.5,8.44828769 2.94771525,8.00057244 3.5,8.00057244 L8.5,8.00057244 C9.05228475,8.00057244 9.5,8.44828769 9.5,9.00057244 C9.5,9.55285719 9.05228475,10.0005724 8.5,10.0005724 L3.5,10.0005724 Z M12.9999399,10 C12.4476552,9.99996682 11.9999668,9.55222467 12,8.99993992 C12.0000332,8.44765517 12.4477753,7.99996682 13.0000601,8 L20.5000601,8.00048061 C21.0523448,8.00051379 21.5000332,8.44825593 21.5,9.00054068 C21.4999668,9.55282543 21.0522247,10.0005138 20.4999399,10.0004806 L12.9999399,10 Z M3.5,16 C2.94771525,16 2.5,15.5522847 2.5,15 C2.5,14.4477153 2.94771525,14 3.5,14 L15.5,14 C16.0522847,14 16.5,14.4477153 16.5,15 C16.5,15.5522847 16.0522847,16 15.5,16 L3.5,16 Z M19.6280204,16 C19.0757356,16 18.6280204,15.5522847 18.6280204,15 C18.6280204,14.4477153 19.0757356,14 19.6280204,14 L20.5,14 C21.0522847,14 21.5,14.4477153 21.5,15 C21.5,15.5522847 21.0522847,16 20.5,16 L19.6280204,16 Z"/>
</svg>
