<?xml version="1.0" encoding="UTF-8"?>
<svg width="24px" height="24px" viewBox="0 0 24 24" version="1.1" xmlns="http://www.w3.org/2000/svg" xmlns:xlink="http://www.w3.org/1999/xlink">
    <title>timelines-bold-g</title>
    <g id="Icons" stroke="none" stroke-width="1" fill="none" fill-rule="evenodd">
        <g id="Glyphs" transform="translate(-1087.000000, -46.000000)" fill="#000000" fill-rule="nonzero">
            <path d="M1090,51.5 L1106,51.5 C1107.10457,51.5 1108,52.3954305 1108,53.5 L1108,55 C1108,56.1045695 1107.10457,57 1106,57 L1090,57 C1088.89543,57 1088,56.1045695 1088,55 L1088,53.5 C1088,52.3954305 1088.89543,51.5 1090,51.5 Z M1106,59 L1108,59 C1109.10457,59 1110,59.8954305 1110,61 L1110,62.5 C1110,63.6045695 1109.10457,64.5 1108,64.5 L1106,64.5 C1104.89543,64.5 1104,63.6045695 1104,62.5 L1104,61 C1104,59.8954305 1104.89543,59 1106,59 Z M1092,59 L1100,59 C1101.10457,59 1102,59.8954305 1102,61 L1102,62.5 C1102,63.6045695 1101.10457,64.5 1100,64.5 L1092,64.5 C1090.89543,64.5 1090,63.6045695 1090,62.5 L1090,61 C1090,59.8954305 1090.89543,59 1092,59 Z" id="Shape"></path>
        </g>
    </g>
</svg>