<svg xmlns="http://www.w3.org/2000/svg" width="24" height="24" viewBox="0 0 24 24">
  <path d="M13,12.75 C12.5857864,12.75 12.25,12.4142136 12.25,12 C12.25,11.5857864 12.5857864,11.25 13,11.25 L14.5,11.25 C14.9142136,11.25 15.25,11.5857864 15.25,12 C15.25,12.4142136 14.9142136,12.75 14.5,12.75 L13,12.75 Z M18,12.7497597 C17.5857864,12.7497597 17.25,12.4139733 17.25,11.9997597 C17.25,11.5855461 17.5857864,11.2497597 18,11.2497597 L22.75,11.2497597 C23.1642136,11.2497597 23.5,11.5855461 23.5,11.9997597 C23.5,12.4139733 23.1642136,12.7497597 22.75,12.7497597 L18,12.7497597 Z M13,17.25 C12.5857864,17.25 12.25,16.9142136 12.25,16.5 C12.25,16.0857864 12.5857864,15.75 13,15.75 L20,15.75 C20.4142136,15.75 20.75,16.0857864 20.75,16.5 C20.75,16.9142136 20.4142136,17.25 20,17.25 L13,17.25 Z M12,8.25 C11.5857864,8.25 11.25,7.91421356 11.25,7.5 C11.25,7.08578644 11.5857864,6.75 12,6.75 L20,6.75 C20.4142136,6.75 20.75,7.08578644 20.75,7.5 C20.75,7.91421356 20.4142136,8.25 20,8.25 L12,8.25 Z M4.08925652,8.97556452 C3.63769185,8.79250663 3.21456998,8.51786765 2.84834991,8.15164759 C1.3838867,6.68718437 1.3838867,4.31281063 2.84834991,2.84834741 C4.31281313,1.3838842 6.68718687,1.3838842 8.15165009,2.84834741 C9.6161133,4.31281063 9.6161133,6.68718437 8.15165009,8.15164759 C7.78543002,8.51786765 7.36230815,8.79250663 6.91074348,8.97556452 C8.70500003,9.56741334 10,11.2574721 10,13.25 L10,15.4999975 C10,15.9142111 9.66421356,16.2499975 9.25,16.2499975 L8.41208666,16.2499975 L7.74420841,21.5930236 C7.69729321,21.9683452 7.37824245,22.2499975 7,22.25 L4,22.25 C3.62175755,22.2499975 3.30270679,21.9683452 3.25579159,21.5930236 L2.58791334,16.2499975 L1.75,16.2499975 C1.33578644,16.2499975 1,15.9142111 1,15.4999975 L1,13.25 C1,11.2574721 2.29499997,9.56741334 4.08925652,8.97556452 Z M7.09098991,7.09098741 C7.9696667,6.21231063 7.9696667,4.78768437 7.09098991,3.90900759 C6.21231313,3.0303308 4.78768687,3.0303308 3.90901009,3.90900759 C3.0303333,4.78768437 3.0303333,6.21231063 3.90901009,7.09098741 C4.78768687,7.9696642 6.21231313,7.9696642 7.09098991,7.09098741 Z M7.75,14.7499975 L8.5,14.7499975 L8.5,13.2499975 C8.5,11.5931411 7.15685644,10.2499975 5.5,10.2499975 C3.84314356,10.2499975 2.5,11.5931411 2.5,13.2499975 L2.5,14.7499975 L3.25,14.7499975 C3.62824245,14.7499975 3.94729321,15.0316498 3.99420841,15.4069714 L4.66208666,20.7499975 L6.33791334,20.7499975 L7.00579159,15.4069714 C7.05270679,15.0316498 7.37175755,14.7499975 7.75,14.7499975 Z"/>
</svg>
