<svg xmlns="http://www.w3.org/2000/svg" width="24" height="24" viewBox="0 0 24 24">
  <path d="M3.5,11.0005724 C2.94771525,11.0005724 2.5,10.5528572 2.5,10.0005724 C2.5,9.44828769 2.94771525,9.00057244 3.5,9.00057244 L8.5,9.00057244 C9.05228475,9.00057244 9.5,9.44828769 9.5,10.0005724 C9.5,10.5528572 9.05228475,11.0005724 8.5,11.0005724 L3.5,11.0005724 Z M12.9999399,11 C12.4476552,10.9999668 11.9999668,10.5522247 12,9.99993992 C12.0000332,9.44765517 12.4477753,8.99996682 13.0000601,9 L20.5000601,9.00048061 C21.0523448,9.00051379 21.5000332,9.44825593 21.5,10.0005407 C21.4999668,10.5528254 21.0522247,11.0005138 20.4999399,11.0004806 L12.9999399,11 Z M3.5,15 C2.94771525,15 2.5,14.5522847 2.5,14 C2.5,13.4477153 2.94771525,13 3.5,13 L15.5,13 C16.0522847,13 16.5,13.4477153 16.5,14 C16.5,14.5522847 16.0522847,15 15.5,15 L3.5,15 Z M19.6280204,15 C19.0757356,15 18.6280204,14.5522847 18.6280204,14 C18.6280204,13.4477153 19.0757356,13 19.6280204,13 L20.5,13 C21.0522847,13 21.5,13.4477153 21.5,14 C21.5,14.5522847 21.0522847,15 20.5,15 L19.6280204,15 Z"/>
</svg>
