<?xml version="1.0" encoding="UTF-8"?>
<svg width="24px" height="24px" viewBox="0 0 24 24" version="1.1" xmlns="http://www.w3.org/2000/svg"
  xmlns:xlink="http://www.w3.org/1999/xlink">
  <title>time-events-g</title>
  <g id="Icons" stroke="none" stroke-width="1" fill="none" fill-rule="evenodd">
    <g fill="#000000" fill-rule="nonzero" id="Shape"
      transform="matrix(0.00518311, 0, 0, -0.00518311, -1.1654, 434.681)">
      <path
        d="m3804.46,83559.95c-299,-66 -536,-297 -616,-600c-29,-111 -29,-280 0,-390c70,-271 269,-489 523,-575c438,-149 906,90 1048,535c34,106 39,301 11,417c-72,304 -303,536 -604,608c-96,23 -268,25 -362,5zm383,-178c104,-36 176,-82 252,-158c75,-76 132,-166 161,-259c30,-91 36,-252 15,-345c-45,-193 -174,-355 -347,-438c-112,-54 -169,-67 -292,-67c-179,0 -334,64 -457,189c-130,132 -190,276 -190,461c0,116 17,190 70,295c83,167 231,286 413,336c105,28 274,22 375,-14z" />
      <path
        d="m3944.46,83202.95c-43,-25 -44,-34 -45,-273c0,-186 3,-235 15,-251c25,-36 284,-197 316,-197c41,0 79,38 79,79c0,39 -26,63 -158,149l-92,60l0,192c0,185 -1,193 -22,217c-27,30 -66,40 -93,24z" />
      <path
        d="m607.46,82815.95c-82,-27 -138,-62 -196,-126c-129,-141 -156,-330 -71,-504c39,-79 125,-166 198,-200l51,-24l0,-176l0,-176l-58,-30c-167,-86 -265,-282 -234,-466c7,-39 24,-95 38,-125c35,-75 120,-164 194,-203l60,-32l0,-174l0,-174l-60,-32c-74,-39 -164,-134 -198,-207c-122,-268 48,-585 341,-634c85,-14 175,0 262,40c281,132 343,512 119,728c-31,29 -81,66 -110,80l-54,26l0,174l0,173l62,33c278,148 321,521 86,733c-28,25 -72,55 -99,67l-49,23l0,175l0,175l65,34c157,80 243,238 232,424c-4,76 -10,99 -41,162c-81,165 -226,256 -404,254c-46,0 -100,-8 -134,-18zm210,-301c100,-61 96,-207 -8,-261c-45,-24 -84,-24 -135,1c-103,50 -112,193 -16,257c44,29 113,31 159,3zm-7,-1200c138,-71 85,-280 -71,-280c-114,0 -181,109 -131,214c16,32 33,50 64,65c53,26 87,26 138,1zm36,-1232c31,-31 37,-45 40,-90c5,-72 -18,-116 -77,-146c-75,-39 -146,-18 -197,58c-43,62 -21,152 47,198c29,20 44,23 93,20c51,-4 63,-9 94,-40z" />
      <path
        d="m1738.46,82810.95c-98,-40 -165,-101 -210,-191c-22,-46 -24,-64 -27,-215c-3,-148 -1,-171 18,-222c27,-74 76,-136 142,-181c99,-68 86,-67 931,-67l760,0l-79,83c-44,45 -101,112 -128,150l-48,67l-623,0c-748,0 -675,-16 -675,151c0,96 2,111 20,129c20,20 33,20 593,20l572,0l-3,105c-2,57 1,125 6,150l10,45l-602,0l-601,0l-56,-24z" />
      <path
        d="m1786.46,81623.95c-106,-25 -209,-109 -255,-207c-26,-55 -27,-63 -27,-237c0,-171 1,-183 25,-230c31,-64 121,-154 185,-185l50,-25l930,0l930,0l57,27c79,37 142,98 181,177l32,66l0,175c0,172 -1,176 -28,232c-39,79 -104,143 -185,181l-67,32l-895,2c-501,1 -912,-3 -933,-8zm1787,-310c25,-20 26,-24 26,-130c0,-96 -2,-111 -20,-129c-20,-20 -33,-20 -878,-20c-760,0 -860,2 -880,16c-21,14 -22,23 -22,129c0,174 -110,155 900,155c842,0 847,0 874,-21z" />
      <path
        d="m1750.46,80408.95c-94,-33 -184,-115 -224,-202c-20,-43 -22,-64 -22,-227c0,-179 0,-180 29,-239c39,-79 102,-140 184,-179l67,-32l880,-3c652,-3 894,0 935,9c117,25 215,100 267,207c27,56 28,60 28,232l0,175l-33,67c-37,75 -103,142 -179,179l-48,24l-920,2c-811,2 -925,0 -964,-13zm1829,-304c18,-18 20,-33 20,-129c0,-169 109,-151 -900,-151c-1008,0 -900,-18 -900,149c0,80 4,112 16,129l15,22l865,0c851,0 864,0 884,-20z" />
    </g>
  </g>
</svg>