<svg xmlns="http://www.w3.org/2000/svg" width="24" height="24" viewBox="0 0 24 24">
  <path d="M1090,91 L1108,91 C1109.10457,91 1110,91.8954305 1110,93 L1110,95 C1110,96.1045695 1109.10457,97 1108,97 L1090,97 C1088.89543,97 1088,96.1045695 1088,95 L1088,93 C1088,91.8954305 1088.89543,91 1090,91 Z M1090,93 L1090,95 L1108,95 L1108,93 L1090,93 Z M1105,83 L1108,83 C1109.10457,83 1110,83.8954305 1110,85 L1110,87 C1110,88.1045695 1109.10457,89 1108,89 L1105,89 C1103.89543,89 1103,88.1045695 1103,87 L1103,85 C1103,83.8954305 1103.89543,83 1105,83 Z M1105,85 L1105,87 L1108,87 L1108,85 L1105,85 Z M1092,83 L1099,83 C1100.10457,83 1101,83.8954305 1101,85 L1101,87 C1101,88.1045695 1100.10457,89 1099,89 L1092,89 C1090.89543,89 1090,88.1045695 1090,87 L1090,85 C1090,83.8954305 1090.89543,83 1092,83 Z M1092,85 L1092,87 L1099,87 L1099,85 L1092,85 Z M1093.5,75 L1104.5,75 C1105.60457,75 1106.5,75.8954305 1106.5,77 L1106.5,79 C1106.5,80.1045695 1105.60457,81 1104.5,81 L1093.5,81 C1092.39543,81 1091.5,80.1045695 1091.5,79 L1091.5,77 C1091.5,75.8954305 1092.39543,75 1093.5,75 Z M1093.5,77 L1093.5,79 L1104.5,79 L1104.5,77 L1093.5,77 Z" transform="translate(-1087 -74)"/>
</svg>
