<svg xmlns="http://www.w3.org/2000/svg" width="24" height="24" viewBox="0 0 24 24">
  <path d="M19,10 L19,7 C19,6.44772475 18.5522753,6 18,6 L17,6 L17,7 C17,7.55228475 16.5522847,8 16,8 C15.4477153,8 15,7.55228475 15,7 L15,6 L9,6 L9,7 C9,7.55228475 8.55228475,8 8,8 C7.44771525,8 7,7.55228475 7,7 L7,6 L6,6 C5.44772475,6 5,6.44772475 5,7 L5,10 L19,10 Z M19,12 L5,12 L5,19 C5,19.5522753 5.44772475,20 6,20 L18,20 C18.5522753,20 19,19.5522753 19,19 L19,12 Z M9,4 L15,4 L15,3 C15,2.44771525 15.4477153,2 16,2 C16.5522847,2 17,2.44771525 17,3 L17,4 L18,4 C19.6568447,4 21,5.34315525 21,7 L21,19 C21,20.6568447 19.6568447,22 18,22 L6,22 C4.34315525,22 3,20.6568447 3,19 L3,7 C3,5.34315525 4.34315525,4 6,4 L7,4 L7,3 C7,2.44771525 7.44771525,2 8,2 C8.55228475,2 9,2.44771525 9,3 L9,4 Z M7,15 C7,14.4477153 7.44771525,14 8,14 L10,14 C10.5522847,14 11,14.4477153 11,15 L11,17 C11,17.5522847 10.5522847,18 10,18 L8,18 C7.44771525,18 7,17.5522847 7,17 L7,15 Z"/>
</svg>
