<svg xmlns="http://www.w3.org/2000/svg" width="24" height="24" viewBox="0 0 24 24">
  <path d="M700,76 C700.512836,76 700.935507,76.3860402 700.993272,76.8833789 L701,77 L701,78 L703,78 C704.597703,78 705.903662,79.248912 705.994907,80.8237264 L706,81 L706,93 C706,94.5977103 704.751108,95.903663 703.176276,95.9949074 L703,96 L689,96 C687.402311,96 686.096339,94.7511009 686.005093,93.176275 L686,93 L686,81 C686,79.4023186 687.248919,78.0963391 688.823727,78.0050927 L689,78 L691,78 L691,77 C691,76.4477153 691.447715,76 692,76 C692.512836,76 692.935507,76.3860402 692.993272,76.8833789 L693,77 L693,78 L699,78 L699,77 C699,76.4477153 699.447715,76 700,76 Z M691,80 L689,80 C688.487164,80 688.064493,80.3860398 688.006728,80.8833788 L688,81 L688,93 C688,93.5128524 688.386029,93.9355095 688.883376,93.9932725 L689,94 L703,94 C703.512864,94 703.935511,93.6139861 703.993273,93.1166268 L704,93 L704,81 C704,80.4871519 703.613975,80.0644911 703.116624,80.0067275 L703,80 L701,80 L701,81 C701,81.5522847 700.552285,82 700,82 C699.487164,82 699.064493,81.6139598 699.006728,81.1166211 L699,81 L699,80 L693,80 L693,81 C693,81.5522847 692.552285,82 692,82 C691.487164,82 691.064493,81.6139598 691.006728,81.1166211 L691,81 L691,80 Z M693,88 C693.512836,88 693.935507,88.3860402 693.993272,88.8833789 L694,89 L694,91 C694,91.5128358 693.61396,91.9355072 693.116621,91.9932723 L693,92 L691,92 C690.487164,92 690.064493,91.6139598 690.006728,91.1166211 L690,91 L690,89 C690,88.4871642 690.38604,88.0644928 690.883379,88.0067277 L691,88 L693,88 Z" transform="translate(-684 -74)"/>
</svg>
