<?xml version="1.0" encoding="UTF-8"?>
<svg width="24px" height="24px" viewBox="0 0 24 24" version="1.1" xmlns="http://www.w3.org/2000/svg" xmlns:xlink="http://www.w3.org/1999/xlink">
    <!-- Generator: Sketch 51.2 (57519) - http://www.bohemiancoding.com/sketch -->
    <title>Combined Shape</title>
    <desc>Created with Sketch.</desc>
    <defs></defs>
    <g id="Prototype" stroke="none" stroke-width="1" fill="none" fill-rule="evenodd">
        <g id="New-Person" transform="translate(-1186.000000, -416.000000)">
            <circle id="Oval" fill="#FFFFFF" cx="1190.5" cy="419.5" r="1"></circle>
            <path d="M1188.78571,416 L1207.07143,416 C1208.33379,416 1209.35714,417.023349 1209.35714,418.285714 L1209.35714,437.714286 C1209.35714,438.976651 1208.33379,440 1207.07143,440 L1188.78571,440 C1187.52335,440 1186.5,438.976651 1186.5,437.714286 L1186.5,418.285714 C1186.5,417.023349 1187.52335,416 1188.78571,416 Z M1191.07143,422.857143 C1190.44025,422.857143 1189.92857,423.368817 1189.92857,424 L1189.92857,435.428571 C1189.92857,436.059754 1190.44025,436.571429 1191.07143,436.571429 L1204.78571,436.571429 C1205.4169,436.571429 1205.92857,436.059754 1205.92857,435.428571 L1205.92857,424 C1205.92857,423.368817 1205.4169,422.857143 1204.78571,422.857143 L1191.07143,422.857143 Z M1198.57143,425.142857 L1202,425.142857 C1202.63118,425.142857 1203.14286,425.654532 1203.14286,426.285714 L1203.14286,429.714286 C1203.14286,430.345468 1202.63118,430.857143 1202,430.857143 L1198.57143,430.857143 C1197.94025,430.857143 1197.42857,430.345468 1197.42857,429.714286 L1197.42857,426.285714 C1197.42857,425.654532 1197.94025,425.142857 1198.57143,425.142857 Z" id="Combined-Shape" fill="#000000"></path>
        </g>
    </g>
</svg>