<svg xmlns="http://www.w3.org/2000/svg" width="24" height="24" viewBox="0 0 24 24">
  <path d="M4.75,8 L19.25,8 L19.25,6.5 C19.25,6.22385763 19.0261424,6 18.75,6 L5.25,6 C4.97385763,6 4.75,6.22385763 4.75,6.5 L4.75,8 Z M19.25,10 L4.75,10 L4.75,19.5 C4.75,19.7761424 4.97385763,20 5.25,20 L18.75,20 C19.0261424,20 19.25,19.7761424 19.25,19.5 L19.25,10 Z M6.75,4 L6.75,2.25 C6.75,1.69771525 7.19771525,1.25 7.75,1.25 C8.30228475,1.25 8.75,1.69771525 8.75,2.25 L8.75,4 L15.25,4 L15.25,2.25 C15.25,1.69771525 15.6977153,1.25 16.25,1.25 C16.8022847,1.25 17.25,1.69771525 17.25,2.25 L17.25,4 L18.75,4 C20.1307119,4 21.25,5.11928813 21.25,6.5 L21.25,19.5 C21.25,20.8807119 20.1307119,22 18.75,22 L5.25,22 C3.86928813,22 2.75,20.8807119 2.75,19.5 L2.75,6.5 C2.75,5.11928813 3.86928813,4 5.25,4 L6.75,4 Z M6.75,12 L11.75,12 L11.75,17 L6.75,17 L6.75,12 Z"/>
</svg>
