<?xml version="1.0" encoding="UTF-8"?>
<svg width="24px" height="24px" viewBox="0 0 24 24" version="1.1" xmlns="http://www.w3.org/2000/svg" xmlns:xlink="http://www.w3.org/1999/xlink">
    <title>today-g</title>
    <g id="Icons" stroke="none" stroke-width="1" fill="none" fill-rule="evenodd">
        <g transform="translate(-684.000000, -74.000000)" fill="#000000" fill-rule="nonzero" id="Shape">
            <path d="M700.05,75.04 C700.562836,75.04 700.985507,75.4260402 701.043272,75.9233789 L701.05,76.04 L701.049,77.002 L701.554195,77.0107396 L701.785256,77.0181778 L702.200564,77.0407337 C702.909561,77.0924631 703.347996,77.2048986 703.807116,77.4379903 C704.488704,77.7847631 705.052802,78.3153797 705.437887,78.9665992 L705.559535,79.1880523 L705.607181,79.2829434 L705.711183,79.515705 L705.795254,79.7528607 C705.821848,79.83956 705.845056,79.9296465 705.865298,80.0258443 L705.893489,80.175065 L705.928119,80.4205535 L705.942278,80.5549112 L705.954508,80.6981603 L705.973718,81.0147809 L705.991393,81.5779467 L705.9973,82.02227 L706,84.04 L705.998,84.079 L706,91.1906874 L705.997376,91.971429 L705.987184,92.6119003 L705.974463,92.9724 L705.955797,93.2877276 L705.930155,93.5647509 C705.917055,93.6803779 705.901582,93.7866905 705.883329,93.886402 L705.853812,94.0313575 L705.801046,94.2346769 L705.737175,94.4271643 L705.661166,94.6156879 L705.571988,94.8071158 C705.189025,95.5598347 704.580351,96.1719474 703.831903,96.5595349 L703.73705,96.6071608 L703.643642,96.6512692 L703.457737,96.729464 L703.267335,96.7951796 C703.180697,96.8217705 703.090696,96.8449779 702.994625,96.8652208 L702.845628,96.8934142 L702.600617,96.9280537 L702.466575,96.9422179 L702.323698,96.9544551 L702.008018,96.9736787 L701.446828,96.9913749 L701.004262,96.9972926 L691.815997,96.9997297 L691.49239,96.9910569 L690.889445,96.9675804 L690.343963,96.9352757 C689.309212,96.861315 688.608004,96.7296776 688.172929,96.5121206 C687.414559,96.1262832 686.80049,95.512215 686.424863,94.7609608 C686.223673,94.3585796 686.115196,93.9710091 686.058385,93.393161 L686.039422,93.1671481 L686.017583,92.7525469 L686.005318,92.2732134 L686.00052,91.7186169 L686.002193,81.9309021 L686.010745,81.4147669 L686.018186,81.183565 L686.040745,80.768352 C686.09248,80.0600095 686.204917,79.624928 686.43799,79.1729286 C686.826137,78.4100189 687.443705,77.7959205 688.199128,77.4248633 C688.613902,77.2174761 689.012774,77.1086229 689.621584,77.053309 L689.860169,77.0349881 L690.26074,77.0157644 L690.482656,77.0093866 L691.049,77.001 L691.05,76.04 C691.05,75.4877153 691.497715,75.04 692.05,75.04 C692.562836,75.04 692.985507,75.4260402 693.043272,75.9233789 L693.05,76.04 L693.049,77.001 L699.049,77 L699.05,76.04 C699.05,75.4877153 699.497715,75.04 700.05,75.04 Z M704,85 L688.001,85 L688.000516,91.7156485 L688.003964,92.1597889 L688.011866,92.5375462 L688.024828,92.8560394 L688.043458,93.1223874 L688.075641,93.3928386 L688.083359,93.4397099 L688.118815,93.6068404 L688.139428,93.6797499 L688.186804,93.8087066 L688.213718,93.8665336 C688.396849,94.232796 688.700741,94.5366879 689.073599,94.7264154 C689.116187,94.747709 689.182134,94.7688886 689.270294,94.7895287 L689.365816,94.8099732 L689.600267,94.8494049 L689.738686,94.868203 L690.056637,94.9034911 L690.427708,94.9350712 L690.849858,94.962187 L691.321051,94.9840821 L691.839246,95 L700.220621,95 L701.084193,94.9960626 L701.728602,94.9820325 L701.981811,94.9701929 L702.290221,94.9452333 L702.455918,94.9231869 L702.595845,94.89633 L702.715276,94.8642467 L702.819489,94.8265211 L702.91376,94.7827373 C703.236003,94.6158617 703.507347,94.3654396 703.696158,94.0657602 L703.783539,93.9119745 L703.827358,93.8135859 L703.865069,93.7058412 L703.897099,93.5833794 L703.911116,93.5149543 L703.935419,93.3603652 L703.963346,93.0740824 L703.982313,92.7064379 L703.990689,92.4072058 L703.999107,91.6546914 L704,85 Z M693,89 C693.512836,89 693.935507,89.3860402 693.993272,89.8833789 L694,90 L694,92 C694,92.5128358 693.61396,92.9355072 693.116621,92.9932723 L693,93 L691,93 C690.487164,93 690.064493,92.6139598 690.006728,92.1166211 L690,92 L690,90 C690,89.4871642 690.38604,89.0644928 690.883379,89.0067277 L691,89 L693,89 Z M699.049,79.001 L693.049,79.001 L693.05,80.04 C693.05,80.5922847 692.602285,81.04 692.05,81.04 C691.537164,81.04 691.114493,80.6539598 691.056728,80.1566211 L691.05,80.04 L691.049,79.001 L690.805141,79.0039665 L690.425758,79.0118979 L690.105895,79.0249496 L689.838317,79.0437611 L689.615788,79.0689723 L689.431073,79.1012229 C689.290891,79.1312092 689.182562,79.1691945 689.087245,79.2168448 C688.71663,79.3989014 688.413768,79.7000616 688.218071,80.0846749 C688.186339,80.1462166 688.158847,80.2137906 688.13512,80.292859 L688.102296,80.4207652 L688.069863,80.6027795 L688.044438,80.8225997 L688.034161,80.9488991 L688.018097,81.238701 L688.007506,81.5840058 L688.001773,81.9918925 L688.001,83 L704,83 L703.996051,81.9415154 L703.990469,81.5929184 L703.976381,81.1616383 L703.954143,80.8242844 L703.922307,80.5628429 L703.895034,80.4218264 L703.86242,80.3012051 L703.824037,80.1956417 L703.779454,80.0997987 C703.586043,79.7196465 703.280354,79.4139571 702.900966,79.2209351 C702.850088,79.1951045 702.795564,79.1720568 702.734546,79.1515384 L702.637794,79.1226261 L702.469728,79.0859555 L702.26773,79.0567518 L702.151753,79.0447495 L702.024589,79.0343733 L701.733095,79.0181782 L701.38604,79.0075248 L701.049,79.002 L701.05,80.04 C701.05,80.5922847 700.602285,81.04 700.05,81.04 C699.537164,81.04 699.114493,80.6539598 699.056728,80.1566211 L699.05,80.04 L699.049,79.001 Z"></path>
        </g>
    </g>
</svg>