<?xml version="1.0" encoding="UTF-8"?>
<svg width="24px" height="24px" viewBox="0 0 24 24" version="1.1" xmlns="http://www.w3.org/2000/svg" xmlns:xlink="http://www.w3.org/1999/xlink">
    <title>tooth</title>
    <g id="Icons" stroke="none" stroke-width="1" fill="none" fill-rule="evenodd">
        <g id="Glyphs" transform="translate(-3934, -58)" fill="#000000" fill-rule="nonzero">
            <path d="M3948.96584,59.25 L3948.99098,59.2504214 C3952.3837,59.3642016 3955.05821,62.2082517 3954.95206,65.6504697 C3954.77536,67.5235256 3954.02303,69.341938 3952.84375,70.9166656 L3952.68899,71.115 L3952.8262,71.4429519 C3953.32705,72.7029968 3953.60463,74.044228 3953.65095,75.4124624 L3953.65791,75.8236886 L3953.65791,77.3570621 C3953.65791,78.9852009 3952.33502,80.3118536 3950.71219,80.3118536 C3949.07009,80.3118536 3947.75449,78.9737644 3947.76813,77.2618068 L3947.77427,77.1278265 C3947.7755,77.0811449 3947.77611,77.0292713 3947.77667,76.9626945 C3947.70887,75.7287402 3946.65996,74.7809302 3945.4784,74.846958 C3944.20711,74.9575053 3943.26949,76.0392139 3943.33259,77.3752085 C3943.33259,78.9997601 3942.01457,80.3177829 3940.38687,80.33 C3938.75949,80.33 3937.44115,79.0078915 3937.44116,77.3797908 L3937.45022,75.8690547 C3937.45022,74.4552388 3937.69547,73.0700582 3938.19169,71.743327 L3938.297,71.475 L3938.13324,71.2361634 C3937.1023,69.673506 3936.4696,67.8826288 3936.28548,65.9914726 L3936.25291,65.5847366 C3936.14938,62.1889231 3938.81217,59.3636897 3942.25595,59.25 C3943.21784,59.25 3943.98484,59.5767204 3944.79898,60.1828688 L3945.48505,60.7144609 L3945.592,60.789 L3945.63327,60.7591841 L3946.25027,60.243856 C3946.27361,60.2248609 3946.29462,60.2080001 3946.31244,60.1940425 C3947.09194,59.5833881 3947.9027,59.25 3948.96584,59.25 Z M3942.28079,60.7495786 C3939.68679,60.8355344 3937.67392,62.9711931 3937.75107,65.5146778 C3937.86926,67.3888469 3938.50186,69.1783102 3939.58417,70.7003236 C3939.81867,71.0325253 3939.88771,71.4611004 3939.77109,71.823242 L3939.71861,71.9556131 C3939.20883,73.1840969 3938.95022,74.5092003 3938.95021,75.8735456 L3938.94115,77.3842817 C3938.94115,78.1804209 3939.58888,78.8300212 3940.38123,78.8300212 C3941.18179,78.8240019 3941.83259,78.1732056 3941.83345,77.4110717 C3941.7328,75.3087319 3943.27185,73.5331719 3945.37136,73.3509583 C3947.40699,73.2365975 3949.16131,74.821827 3949.27554,76.9215477 L3949.27023,77.2609694 C3949.26917,77.2805108 3949.26793,77.2989478 3949.26645,77.3170916 C3949.26042,78.1551988 3949.90604,78.8118536 3950.71219,78.8118536 C3951.50564,78.8118536 3952.15791,78.1577276 3952.15791,77.3570621 L3952.15791,75.8236886 C3952.15791,74.3819704 3951.8662,72.9706228 3951.31162,71.7041498 C3951.08373,71.248374 3951.11246,70.7312018 3951.42331,70.3022639 C3952.57986,68.8521241 3953.29972,67.1947274 3953.45572,65.557242 C3953.5316,63.0610427 3951.61904,60.9556693 3949.15337,60.7615053 L3948.95899,60.75 L3948.74171,60.7576375 C3948.23388,60.7933014 3947.82698,60.954024 3947.41477,61.2430936 L3947.23748,61.3748482 L3946.62599,61.886909 C3946.31699,62.1341833 3946.06274,62.2747513 3945.73894,62.3112711 L3945.65461,62.3177224 C3945.642,62.3181523 3945.62679,62.3184477 3945.60396,62.3188907 C3945.25005,62.3188907 3944.95988,62.1839088 3944.61038,61.9330421 L3943.9032,61.3860219 C3943.32462,60.9552576 3942.84276,60.75 3942.28079,60.7495786 Z M3941.45282,65.03 C3941.58282,64.63 3942.00282,64.42 3942.40282,64.55 C3944.88282,65.36 3946.18282,65.36 3948.59282,64.56 C3948.98282,64.43 3949.38282,64.61 3949.52282,65.01 C3949.65282,65.4 3949.44282,65.82 3949.05282,65.96 C3946.33282,66.86 3944.72282,66.87 3941.93282,65.97 C3941.53282,65.84 3941.32282,65.42 3941.45282,65.03 Z" id="Shape"></path>
        </g>
    </g>
</svg>