<?xml version="1.0" encoding="UTF-8"?>
<svg width="24px" height="24px" viewBox="0 0 24 24" version="1.1" xmlns="http://www.w3.org/2000/svg" xmlns:xlink="http://www.w3.org/1999/xlink">
    <title>tooth-g</title>
    <g id="Icons" stroke="none" stroke-width="1" fill="none" fill-rule="evenodd">
        <g id="Glyphs" transform="translate(-3962, -58)" fill="#000000" fill-rule="nonzero">
            <path d="M3970.47693,59.5005491 L3970.51081,59.5000003 C3971.324,59.5006104 3972.02551,59.7813464 3972.82619,60.3779748 L3973.54026,60.9313988 C3973.74676,61.0796964 3973.8572,61.1337325 3973.9411,61.1462636 L3974.03022,61.1474249 C3974.11789,61.137533 3974.20096,61.1019808 3974.34072,60.9989168 L3974.43186,60.9286421 L3975.11969,60.3545723 L3975.32822,60.200003 C3975.92017,59.784684 3976.52158,59.560438 3977.26118,59.5090865 L3977.58366,59.5021917 L3977.80725,59.5156224 C3980.93744,59.7622333 3983.34289,62.4345523 3983.24321,65.6469748 C3983.07934,67.3677897 3982.18077,68.9215915 3980.42282,71.1251413 C3980.33904,71.2408058 3980.31777,71.3599936 3980.37086,71.5139534 L3980.53091,71.8787883 L3980.80722,72.4865719 C3981.56208,74.1506532 3981.88454,75.1531237 3981.88454,76.3407676 L3981.88454,77.9521273 C3981.88454,79.3437226 3980.75379,80.4809084 3979.36602,80.4809084 C3977.95545,80.4809084 3976.83725,79.3300427 3976.85077,77.8291626 L3976.85851,77.548763 C3976.76873,75.8977559 3975.40149,74.6513814 3973.84277,74.7385277 C3972.17701,74.8831658 3970.95881,76.2840872 3971.04019,78.010009 C3971.03866,79.3701671 3969.90179,80.4895952 3968.51485,80.5000003 C3967.12916,80.5000003 3966.00226,79.3684905 3966.00228,77.9747374 L3966.01177,76.3931505 C3966.01178,75.359392 3966.2607,74.5077794 3966.86664,73.1043652 L3967.27643,72.1724973 L3967.42208,71.8304606 C3967.44749,71.7515397 3967.42704,71.6275585 3967.36257,71.5361692 C3965.73384,69.2446492 3964.87535,67.4917601 3964.75271,65.5377521 C3964.65472,62.3053888 3967.21006,59.6088533 3970.47693,59.5005491 Z M3977.55969,61.499825 L3977.36641,61.5060095 C3977.03578,61.5292404 3976.7799,61.6246468 3976.49922,61.8211129 L3976.35855,61.9236024 L3975.69905,62.4758139 C3975.21434,62.8638737 3974.78904,63.074494 3974.21866,63.1382029 L3974.00058,63.1491261 C3973.41102,63.1491261 3972.92501,62.9518567 3972.34493,62.5344911 L3971.61679,61.970777 C3971.2012,61.6612072 3970.91364,61.5302098 3970.61998,61.5047449 L3970.51999,61.5000003 L3970.34127,61.511154 C3968.33689,61.6773647 3966.7918,63.3062 3966.74946,65.2492325 L3966.75027,65.4445406 C3966.84148,66.8915529 3967.56484,68.3685291 3968.99476,70.3803338 C3969.41861,70.9810725 3969.54663,71.7574781 3969.30366,72.5052385 L3969.24257,72.6590844 L3969.11301,72.9642999 L3968.83095,73.6041745 C3968.23632,74.9480779 3968.01178,75.6541347 3968.01176,76.3991543 L3968.00226,77.9807313 C3968.00226,78.2657441 3968.23556,78.5000283 3968.50733,78.5000283 C3968.79859,78.4978373 3969.03991,78.2602213 3969.04134,78.0566785 C3968.90985,75.3086646 3970.93149,72.9837891 3973.70014,72.7438521 C3976.40166,72.5920085 3978.70616,74.6927906 3978.85691,77.5101155 L3978.85,77.904968 L3978.848,77.929 L3978.85356,78.0124413 C3978.88754,78.2581686 3979.05939,78.4371942 3979.28083,78.473944 L3979.36602,78.4809084 C3979.64667,78.4809084 3979.88454,78.2416868 3979.88454,77.9521273 L3979.88454,76.3407676 C3979.88454,75.580606 3979.6607,74.8340414 3979.1091,73.5876982 L3978.63375,72.5345247 C3978.62138,72.5062263 3978.61047,72.4809051 3978.60113,72.4587541 C3978.19244,71.6409998 3978.26127,70.6999289 3978.831,69.9151861 C3980.38122,67.9705169 3981.13741,66.6629121 3981.24817,65.5218109 C3981.30931,63.5092348 3979.81938,61.7868841 3977.86639,61.5313997 L3977.55969,61.499825 Z M3971.78735,65.0421737 C3972.52846,65.264507 3973.26508,65.375 3974,65.375 C3974.73492,65.375 3975.47154,65.264507 3976.21265,65.0421737 C3976.74164,64.8834759 3977.29913,65.1836593 3977.45783,65.7126521 C3977.61652,66.241645 3977.31634,66.7991284 3976.78735,66.9578263 C3975.86179,67.235493 3974.93175,67.375 3974,67.375 C3973.06825,67.375 3972.13821,67.235493 3971.21265,66.9578263 C3970.68366,66.7991284 3970.38348,66.241645 3970.54217,65.7126521 C3970.70087,65.1836593 3971.25836,64.8834759 3971.78735,65.0421737 Z" id="Shape"></path>
        </g>
    </g>
</svg>