<?xml version="1.0" encoding="UTF-8"?>
<svg width="24px" height="24px" viewBox="0 0 24 24" version="1.1" xmlns="http://www.w3.org/2000/svg" xmlns:xlink="http://www.w3.org/1999/xlink">
    <!-- Generator: Sketch 54.1 (76490) - https://sketchapp.com -->
    <title>bell copy 57</title>
    <desc>Created with Sketch.</desc>
    <g id="Icons" stroke="none" stroke-width="1" fill="none" fill-rule="evenodd">
        <path d="M13.3116602,12.93 L15.9613301,15.5796699 C16.2542233,15.8725631 16.2542233,16.3474369 15.9613301,16.6403301 C15.6684369,16.9332233 15.1935631,16.9332233 14.9006699,16.6403301 L12.251,13.9906602 L9.60133009,16.6403301 C9.30843687,16.9332233 8.83356313,16.9332233 8.54066991,16.6403301 C8.2477767,16.3474369 8.2477767,15.8725631 8.54066991,15.5796699 L11.1903398,12.93 L8.54066991,10.2803301 C8.2477767,9.98743687 8.2477767,9.51256313 8.54066991,9.21966991 C8.83356313,8.9267767 9.30843687,8.9267767 9.60133009,9.21966991 L12.251,11.8693398 L14.9006699,9.21966991 C15.1935631,8.9267767 15.6684369,8.9267767 15.9613301,9.21966991 C16.2542233,9.51256313 16.2542233,9.98743687 15.9613301,10.2803301 L13.3116602,12.93 Z M4.001,3.5 L7.75099993,3.49999983 L7.75099993,2.75 C7.75099993,1.50735945 8.75835935,0.500000054 10.001,0.5 L14.501,0.5 C15.7436405,0.5 16.7509999,1.50735944 16.7509999,2.75 L16.7509999,3.49999983 L20.501,3.5 L22.751,3.5 C23.1652136,3.5 23.501,3.83578644 23.501,4.25 C23.501,4.66421356 23.1652136,5 22.751,5 L21.1911134,5 L19.8634207,20.9361479 C19.7665804,22.1026743 18.7914888,23.0001048 17.621,22.9999998 L6.88206696,22.9999998 C5.71146078,23.0001044 4.73633184,22.1025959 4.6395931,20.9363137 L3.31092787,5 L1.751,5 C1.33678644,5 1.001,4.66421356 1.001,4.25 C1.001,3.83578644 1.33678644,3.5 1.751,3.5 L4.001,3.5 Z M9.25099993,3.5 L15.2509999,3.5 L15.2509999,2.75 C15.2509999,2.33578656 14.9152134,2 14.5009999,2 L10.001,2 C9.58678649,2.00000002 9.25099993,2.33578657 9.25099993,2.75 L9.25099993,3.5 Z M6.13443314,20.812003 C6.16668784,21.2008653 6.49173067,21.5000347 6.88199994,21.4999998 L17.6210673,21.4999998 C18.011269,21.5000348 18.3363104,21.2008661 18.3685671,20.8119999 L19.6859166,4.99999983 L4.81613217,4.99999983 L6.13443314,20.812003 Z" id="Shape" fill="#000000" fill-rule="nonzero"></path>
    </g>
</svg>