<svg xmlns="http://www.w3.org/2000/svg" width="24" height="24" viewBox="0 0 24 24">
  <path d="M840.25,75 C841.575483,75 842.660039,76.0315359 842.744682,77.3356243 L842.75,77.5 L842.75,79 L847,79 C847.552285,79 848,79.4477153 848,80 C848,80.5128358 847.61396,80.9355072 847.116621,80.9932723 L847,81 L846.909,81 L845.665633,94.2800221 C845.526666,95.7623394 844.324939,96.908819 842.856208,96.9948169 L842.67873,97 L835.32127,97 C833.832453,97 832.578808,95.9105326 832.356094,94.4562418 L832.334367,94.2800221 L831.089,81 L831,81 C830.447715,81 830,80.5522847 830,80 C830,79.4871642 830.38604,79.0644928 830.883379,79.0067277 L831,79 L835.25,79 L835.25,77.5 C835.25,76.1745166 836.281536,75.0899613 837.585624,75.0053177 L837.75,75 L840.25,75 Z M840.25,77 L837.75,77 C837.50454,77 837.300392,77.1768752 837.258056,77.4101244 L837.25,77.5 L837.25,79 L840.75,79 L840.75,77.5 C840.75,77.2545401 840.573125,77.0503916 840.339876,77.0080557 L840.25,77 Z M839,86.5857865 L837.307107,84.8928932 C836.916582,84.5023689 836.283418,84.5023689 835.892893,84.8928932 C835.502369,85.2834175 835.502369,85.9165825 835.892893,86.3071068 L837.585787,88.0000001 L835.892893,89.6928934 C835.502369,90.0834177 835.502369,90.7165826 835.892893,91.1071069 C836.283418,91.4976312 836.916582,91.4976312 837.307107,91.1071069 L839,89.4142136 L840.692893,91.1071069 C841.083418,91.4976312 841.716583,91.4976312 842.107107,91.1071069 C842.497631,90.7165826 842.497631,90.0834177 842.107107,89.6928934 L840.414214,88.0000001 L842.107107,86.3071068 C842.497631,85.9165825 842.497631,85.2834175 842.107107,84.8928932 C841.716583,84.5023689 841.083418,84.5023689 840.692893,84.8928932 L839,86.5857865 Z" transform="translate(-827 -74)"/>
</svg>
