<?xml version="1.0" encoding="UTF-8"?>
<svg width="24px" height="24px" viewBox="0 0 24 24" version="1.1" xmlns="http://www.w3.org/2000/svg" xmlns:xlink="http://www.w3.org/1999/xlink">
    <!-- Generator: Sketch 54.1 (76490) - https://sketchapp.com -->
    <title>bell copy 19</title>
    <desc>Created with Sketch.</desc>
    <g id="Icons" stroke="none" stroke-width="1" fill="none" fill-rule="evenodd">
        <path d="M21,5.51002506 C21.55225,5.51002506 22,5.95889724 22,6.51253133 C22,7.06616541 21.55225,7.51503759 21,7.51503759 L20,7.51503759 L20,19.5451128 C20,21.2067669 18.6575,22.5526316 17,22.5526316 L7,22.5526316 C5.3425,22.5526316 4,21.2067669 4,19.5451128 L4,7.51503759 L3,7.51503759 C2.44775,7.51503759 2,7.06616541 2,6.51253133 C2,5.95889724 2.44775,5.51002506 3,5.51002506 L7,5.51002506 L7,4.5075188 C7,2.84586466 8.3425,1.5 10,1.5 L14,1.5 C15.6575,1.5 17,2.84586466 17,4.5075188 L17,5.51002506 L21,5.51002506 Z M9,4.5075188 L9,5.51002506 L15,5.51002506 L15,4.5075188 C15,3.95363409 14.5525,3.50501253 14,3.50501253 L10,3.50501253 C9.4475,3.50501253 9,3.95363409 9,4.5075188 Z M18,19.5451128 L18,7.51503759 L6,7.51503759 L6,19.5451128 C6,20.0989975 6.4475,20.547619 7,20.547619 L17,20.547619 C17.5525,20.547619 18,20.0989975 18,19.5451128 Z M9.1425,11.0425 C9.5325,10.6525 10.1625,10.6525 10.5525,11.0425 L11.9725,12.4625 L13.3925,11.0425 C13.7825,10.6525 14.4125,10.6525 14.8025,11.0425 C15.1925,11.4325 15.1925,12.0625 14.8025,12.4525 L13.3825,13.8725 L14.8025,15.2925 C15.1925,15.6825 15.1925,16.3125 14.8025,16.7025 C14.4125,17.0925 13.7825,17.0925 13.3925,16.7025 L11.9725,15.2825 L10.5525,16.7025 C10.1625,17.0925 9.5325,17.0925 9.1425,16.7025 C8.7525,16.3125 8.7525,15.6825 9.1425,15.2925 L10.5625,13.8725 L9.1425,12.4525 C8.7525,12.0725 8.7525,11.4325 9.1425,11.0425 L9.1425,11.0425 Z" id="Shape" fill="#000000" fill-rule="nonzero"></path>
    </g>
</svg>