<?xml version="1.0" encoding="UTF-8"?>
<svg width="24px" height="24px" viewBox="0 0 24 24" version="1.1" xmlns="http://www.w3.org/2000/svg" xmlns:xlink="http://www.w3.org/1999/xlink">
    <title>trash-bold-g</title>
    <g id="Icons" stroke="none" stroke-width="1" fill="none" fill-rule="evenodd">
        <g transform="translate(-827.000000, -74.000000)" fill="#000000" fill-rule="nonzero" id="Shape">
            <path d="M840.052849,75.0002949 L840.505813,75.0035606 L840.885166,75.0119976 L841.202643,75.0275271 C841.735138,75.0636733 842.014849,75.1452637 842.367214,75.3255728 C842.931817,75.6078746 843.385549,76.0654512 843.685832,76.635993 L843.731466,76.7258956 L843.810012,76.9006906 C843.892247,77.1036672 843.942719,77.3101892 843.973481,77.5924325 L843.995302,77.8545826 L844.009156,78.1639211 L844.018687,78.7385015 L844.018,78.979 L848,78.98 C848.552285,78.98 849,79.4277153 849,79.98 C849,80.4928358 848.61396,80.9155072 848.116621,80.9732723 L848,80.98 L847,80.979 L846.997286,91.9982371 L846.991352,92.4417089 L846.973601,93.0040709 L846.942038,93.4636316 L846.911548,93.7243455 C846.899977,93.8061165 846.88694,93.8831356 846.872258,93.9565479 L846.823101,94.1671097 L846.763015,94.3629024 L846.728541,94.4574074 L846.650063,94.6439295 L846.557994,94.8328602 C846.17057,95.5809908 845.557434,96.1906818 844.791684,96.5801767 L844.602647,96.6681458 L844.416057,96.7431495 C844.353509,96.7661024 844.290229,96.7870633 844.225076,96.8062011 L844.022863,96.8583138 C843.917808,96.8818044 843.805976,96.9015728 843.68352,96.918189 L843.423301,96.9473875 L843.127911,96.9691935 L842.790508,96.9846202 L842.190668,96.9980157 L841.18,97.003006 L835.991372,97.0003054 L835.546185,96.9944053 L834.818153,96.968018 L834.521524,96.9454205 L834.260632,96.9151469 L834.028585,96.8761423 C833.955277,96.8615683 833.885629,96.8453633 833.81849,96.8273515 L833.623458,96.7677193 C833.560191,96.7459178 833.498286,96.7221335 833.436594,96.6961907 L833.156543,96.564284 C832.397959,96.1783378 831.784668,95.5650471 831.398333,94.8056983 L831.350986,94.70994 L831.266637,94.5220156 C831.240732,94.4596014 831.21698,94.3970336 831.195205,94.3331701 L831.135642,94.1365504 C831.117648,94.0689534 831.101457,93.9989186 831.086894,93.9253038 L831.047912,93.6925774 L831.031755,93.5660177 L831.005452,93.2882222 L830.986287,92.9718147 L830.968627,92.4098151 L830.962712,91.966896 L830.96,91.183006 L830.96,80.979 L830,80.98 C829.447715,80.98 829,80.5322847 829,79.98 C829,79.4671642 829.38604,79.0444928 829.883379,78.9867277 L830,78.98 L834.001,78.979 L834.001396,78.6988708 L834.006993,78.2830218 L834.018718,77.93568 L834.038495,77.6451046 C834.079238,77.2015947 834.161559,76.9456902 834.325573,76.6327864 C834.611344,76.0612439 835.076893,75.6035197 835.652786,75.3155728 L835.82861,75.2334617 C836.087444,75.1223064 836.335536,75.063411 836.725667,75.0325958 L837.008473,75.015947 L837.533598,75.0030912 L838.21,75 L840.052849,75.0002949 Z M837.112899,84.7097046 C836.720608,84.4046797 836.153377,84.4324093 835.792893,84.7928932 C835.46245,85.1233369 835.411612,85.6275055 835.640381,86.0114029 L835.709705,86.1128994 L835.792893,86.2071068 L837.585,88 L835.792893,89.7928932 L835.709705,89.8871006 C835.40468,90.2793918 835.432409,90.8466228 835.792893,91.2071068 C836.153377,91.5675907 836.720608,91.5953203 837.112899,91.2902954 L837.207107,91.2071068 L839,89.415 L840.792893,91.2071068 L840.887101,91.2902954 C841.279392,91.5953203 841.846623,91.5675907 842.207107,91.2071068 C842.53755,90.8766631 842.588388,90.3724945 842.359619,89.9885971 L842.290295,89.8871006 L842.207107,89.7928932 L840.415,88 L842.207107,86.2071068 L842.290295,86.1128994 C842.59532,85.7206082 842.567591,85.1533772 842.207107,84.7928932 C841.846623,84.4324093 841.279392,84.4046797 840.887101,84.7097046 L840.792893,84.7928932 L839,86.585 L837.207107,84.7928932 L837.112899,84.7097046 Z M839.81,77 L837.630323,77.0025584 L837.088178,77.0159673 L836.903103,77.0279095 L836.762887,77.0439079 L836.658175,77.0643857 L836.562961,77.0969269 L836.547214,77.1044272 C836.353194,77.2014368 836.203945,77.3481776 836.105832,77.544007 L836.091944,77.5731738 L836.067633,77.6434101 L836.047661,77.7358252 L836.031689,77.8579892 L836.014492,78.1135743 L836.004394,78.4786768 L836.001,78.979 L842.017,78.979 L842.0176,78.6549683 L842.009656,78.2449417 L841.995054,77.9541559 L841.98107,77.8138205 L841.9633,77.7073963 L841.941414,77.6272496 L841.915082,77.5657464 C841.806086,77.3586553 841.653516,77.2047921 841.464524,77.1102482 L841.433254,77.0955987 L841.35956,77.0700376 L841.26451,77.0491381 L841.140324,77.0325138 L840.97922,77.0197786 L840.773417,77.0105459 L840.36388,77.0024192 L839.81,77 Z"></path>
        </g>
    </g>
</svg>