<?xml version="1.0" encoding="UTF-8"?>
<svg width="24px" height="24px" viewBox="0 0 24 24" version="1.1" xmlns="http://www.w3.org/2000/svg" xmlns:xlink="http://www.w3.org/1999/xlink">
    <title>trash-bold-g</title>
    <g id="Icons" stroke="none" stroke-width="1" fill="none" fill-rule="evenodd">
        <g transform="translate(-827.000000, -74.000000)" fill="#000000" fill-rule="nonzero" id="Shape">
            <path d="M840.052849,75.0002949 L840.505813,75.0035606 L840.885166,75.0119976 L841.202643,75.0275271 C841.735138,75.0636733 842.014849,75.1452637 842.367214,75.3255728 C842.931817,75.6078746 843.385549,76.0654512 843.685832,76.635993 L843.731466,76.7258956 L843.810012,76.9006906 C843.892247,77.1036672 843.942719,77.3101892 843.973481,77.5924325 L843.995302,77.8545826 L844.009156,78.1639211 L844.018687,78.7385015 L844.018,78.979 L848,78.98 C848.552285,78.98 849,79.4277153 849,79.98 C849,80.4928358 848.61396,80.9155072 848.116621,80.9732723 L848,80.98 L847,80.979 L846.997286,91.9982371 L846.991352,92.4417089 L846.973601,93.0040709 L846.942038,93.4636316 L846.911548,93.7243455 C846.899977,93.8061165 846.88694,93.8831356 846.872258,93.9565479 L846.823101,94.1671097 L846.763015,94.3629024 L846.728541,94.4574074 L846.650063,94.6439295 L846.557994,94.8328602 C846.17057,95.5809908 845.557434,96.1906818 844.791684,96.5801767 L844.602647,96.6681458 L844.416057,96.7431495 C844.353509,96.7661024 844.290229,96.7870633 844.225076,96.8062011 L844.022863,96.8583138 C843.917808,96.8818044 843.805976,96.9015728 843.68352,96.918189 L843.423301,96.9473875 L843.127911,96.9691935 L842.790508,96.9846202 L842.190668,96.9980157 L841.18,97.003006 L835.991372,97.0003054 L835.546185,96.9944053 L834.818153,96.968018 L834.521524,96.9454205 L834.260632,96.9151469 L834.028585,96.8761423 C833.955277,96.8615683 833.885629,96.8453633 833.81849,96.8273515 L833.623458,96.7677193 C833.560191,96.7459178 833.498286,96.7221335 833.436594,96.6961907 L833.156543,96.564284 C832.397959,96.1783378 831.784668,95.5650471 831.398333,94.8056983 L831.350986,94.70994 L831.266637,94.5220156 C831.240732,94.4596014 831.21698,94.3970336 831.195205,94.3331701 L831.135642,94.1365504 C831.117648,94.0689534 831.101457,93.9989186 831.086894,93.9253038 L831.047912,93.6925774 L831.031755,93.5660177 L831.005452,93.2882222 L830.986287,92.9718147 L830.968627,92.4098151 L830.962712,91.966896 L830.96,91.183006 L830.96,80.979 L830,80.98 C829.447715,80.98 829,80.5322847 829,79.98 C829,79.4671642 829.38604,79.0444928 829.883379,78.9867277 L830,78.98 L834.001,78.979 L834.001396,78.6988708 L834.006993,78.2830218 L834.018718,77.93568 L834.038495,77.6451046 C834.079238,77.2015947 834.161559,76.9456902 834.325573,76.6327864 C834.611344,76.0612439 835.076893,75.6035197 835.652786,75.3155728 L835.82861,75.2334617 C836.087444,75.1223064 836.335536,75.063411 836.725667,75.0325958 L837.008473,75.015947 L837.533598,75.0030912 L838.21,75 L840.052849,75.0002949 Z M845,80.979 L832.96,80.979 L832.960917,91.6470267 L832.967323,92.2859313 L832.975807,92.6317591 L832.988342,92.9219399 L833.005511,93.1637078 L833.027897,93.3642969 L833.056083,93.5309414 C833.071724,93.6069832 833.089758,93.6730086 833.110515,93.7330867 L833.155754,93.8465191 L833.181278,93.8995487 C833.375332,94.2809648 833.682041,94.5876742 834.068289,94.7842028 L834.114888,94.8070676 L834.214198,94.8481017 L834.326104,94.8832263 L834.455938,94.9128633 L834.609034,94.9374343 L834.790725,94.9573611 L835.006343,94.9730652 L835.40505,94.9896264 L835.910092,94.9990588 L836.78,95.003006 L841.645133,95.0021146 L842.555033,94.9900271 L842.831809,94.9801891 L843.170215,94.9588108 L843.393307,94.9340588 L843.573945,94.9021601 L843.636644,94.887223 L843.749324,94.8533382 L843.896543,94.791728 C844.277244,94.5980377 844.586671,94.290349 844.781197,93.9147168 L844.804053,93.8681376 L844.845075,93.768889 L844.880193,93.6571058 L844.909827,93.5274913 L844.934398,93.3747483 L844.954328,93.1935799 L844.970037,92.9786892 L844.986607,92.5815365 L844.996048,92.0787131 L845,91.213006 L845,80.979 Z M837,84.5 C837.512836,84.5 837.935507,84.8860402 837.993272,85.3833789 L838,85.5 L838,90.5 C838,91.0522847 837.552285,91.5 837,91.5 C836.487164,91.5 836.064493,91.1139598 836.006728,90.6166211 L836,90.5 L836,85.5 C836,84.9477153 836.447715,84.5 837,84.5 Z M841,84.5 C841.512836,84.5 841.935507,84.8860402 841.993272,85.3833789 L842,85.5 L842,90.5 C842,91.0522847 841.552285,91.5 841,91.5 C840.487164,91.5 840.064493,91.1139598 840.006728,90.6166211 L840,90.5 L840,85.5 C840,84.9477153 840.447715,84.5 841,84.5 Z M839.81,77 L837.630323,77.0025584 L837.088178,77.0159673 L836.903103,77.0279095 L836.762887,77.0439079 L836.658175,77.0643857 L836.562961,77.0969269 L836.547214,77.1044272 C836.353194,77.2014368 836.203945,77.3481776 836.105832,77.544007 L836.091944,77.5731738 L836.067633,77.6434101 L836.047661,77.7358252 L836.031689,77.8579892 L836.014492,78.1135743 L836.004394,78.4786768 L836.001,78.979 L842.017,78.979 L842.0176,78.6549683 L842.009656,78.2449417 L841.995054,77.9541559 L841.98107,77.8138205 L841.9633,77.7073963 L841.941414,77.6272496 L841.915082,77.5657464 C841.806086,77.3586553 841.653516,77.2047921 841.464524,77.1102482 L841.433254,77.0955987 L841.35956,77.0700376 L841.26451,77.0491381 L841.140324,77.0325138 L840.97922,77.0197786 L840.773417,77.0105459 L840.36388,77.0024192 L839.81,77 Z"></path>
        </g>
    </g>
</svg>