<svg xmlns="http://www.w3.org/2000/svg" width="24" height="24" viewBox="0 0 24 24">
  <path d="M20,5.99999999 C20.5522848,6.00000045 20.9999998,6.44771545 21,6.99999999 C20.9999998,7.55228545 20.5522848,8.00000047 20,7.99999999 L19,7.99999999 L19,19 C18.9999999,20.6568504 17.6568499,22.0000005 16,22 L8,22 C6.34315,22.0000004 5.00000025,20.6568504 5,19 L5,7.99999999 L4,7.99999999 C3.447715,7.99999999 3.00000002,7.55228499 3,6.99999999 C3,6.44771499 3.447715,6.00000002 4,5.99999999 L8,5.99999999 L8,4.99999999 C8.00000004,3.34314999 9.34315004,2.00000007 11,1.99999999 L13,1.99999999 C14.6568502,1.99999999 16.0000002,3.34314999 16,4.99999999 L16,5.99999999 L20,5.99999999 Z M10.0000001,5.00000014 L10.0000001,6.00000014 L14.0000001,6.00000014 L14.0000001,5.00000014 C14.0000001,4.44771514 13.5522851,4.00000012 13.0000001,4.00000014 L11.0000001,4.00000014 C10.4477152,4.00000014 10.0000001,4.44771514 10.0000001,5.00000014 Z M17.0000001,19 L17.0000001,7.99999999 L7.00000013,7.99999999 L7.00000013,19 C7.00000013,19.552285 7.44771513,20 8.00000013,20 L16.0000001,20 C16.5522852,20 17.0000002,19.552285 17.0000001,19 Z M9.17,11.2922084 C9.56,10.9022084 10.19,10.9022084 10.58,11.2922084 L12,12.7122084 L13.42,11.2922084 C13.81,10.9022084 14.44,10.9022084 14.83,11.2922084 C15.22,11.6822084 15.22,12.3122084 14.83,12.7022084 L13.41,14.1222084 L14.83,15.5422084 C15.22,15.9322084 15.22,16.5622084 14.83,16.9522084 C14.44,17.3422084 13.81,17.3422084 13.42,16.9522084 L12,15.5322084 L10.58,16.9522084 C10.19,17.3422084 9.56,17.3422084 9.17,16.9522084 C8.78,16.5622084 8.78,15.9322084 9.17,15.5422084 L10.59,14.1222084 L9.17,12.7022084 C8.78,12.3222084 8.78,11.6822084 9.17,11.2922084 Z"/>
</svg>
