<svg xmlns="http://www.w3.org/2000/svg" width="24" height="24" viewBox="0 0 24 24">
  <path d="M840.25,75 C841.575483,75 842.660039,76.0315359 842.744682,77.3356243 L842.75,77.5 L842.75,79 L847,79 C847.552285,79 848,79.4477153 848,80 C848,80.5128358 847.61396,80.9355072 847.116621,80.9932723 L847,81 L846.909,81 L845.665633,94.2800221 C845.526666,95.7623394 844.324939,96.908819 842.856208,96.9948169 L842.67873,97 L835.32127,97 C833.832453,97 832.578808,95.9105326 832.356094,94.4562418 L832.334367,94.2800221 L831.089,81 L831,81 C830.447715,81 830,80.5522847 830,80 C830,79.4871642 830.38604,79.0644928 830.883379,79.0067277 L831,79 L835.25,79 L835.25,77.5 C835.25,76.1745166 836.281536,75.0899613 837.585624,75.0053177 L837.75,75 L840.25,75 Z M844.902,81 L833.096,81 L834.325636,94.0933407 C834.370105,94.5676822 834.741054,94.9388544 835.203805,94.9931511 L835.32127,95 L842.67873,95 C843.155152,95 843.559328,94.6653156 843.656581,94.2096531 L843.674364,94.0933407 L844.902,81 Z M841,83 C841.512836,83 841.935507,83.3860402 841.993272,83.8833789 L842,84 L842,92 C842,92.5522847 841.552285,93 841,93 C840.487164,93 840.064493,92.6139598 840.006728,92.1166211 L840,92 L840,84 C840,83.4477153 840.447715,83 841,83 Z M837,83 C837.512836,83 837.935507,83.3860402 837.993272,83.8833789 L838,84 L838,92 C838,92.5522847 837.552285,93 837,93 C836.487164,93 836.064493,92.6139598 836.006728,92.1166211 L836,92 L836,84 C836,83.4477153 836.447715,83 837,83 Z M840.25,77 L837.75,77 C837.50454,77 837.300392,77.1768752 837.258056,77.4101244 L837.25,77.5 L837.25,79 L840.75,79 L840.75,77.5 C840.75,77.2545401 840.573125,77.0503916 840.339876,77.0080557 L840.25,77 Z" transform="translate(-827 -74)"/>
</svg>
