<svg xmlns="http://www.w3.org/2000/svg" width="24" height="24" viewBox="0 0 24 24">
  <path d="M20 6C20.5522848 6.00000045 20.9999998 6.44771545 21 7 20.9999998 7.55228545 20.5522848 8.00000048 20 8L19 8 19 19C18.9999999 20.6568505 17.6568499 22.0000005 16 22L8 22C6.34315 22.0000005 5.00000025 20.6568505 5 19L5 8 4 8C3.447715 8 3.00000002 7.552285 3 7 3 6.447715 3.447715 6.00000002 4 6L7.5 6 7.5 5C7.50000004 3.34315 8.84315004 2.00000007 10.5 2L13.5 2C15.1568502 2 16.5000002 3.34315 16.5 5L16.5 6 20 6zM9.50000013 5.00000015L9.50000013 6.00000015 14.5000001 6.00000015 14.5000001 5.00000015C14.5000001 4.44771515 14.0522851 4.00000013 13.5000001 4.00000015L10.5000001 4.00000015C9.94771517 4.00000015 9.50000009 4.44771515 9.50000013 5.00000015zM17.0000001 19L17.0000001 8 7.00000013 8 7.00000013 19C7.00000013 19.552285 7.44771513 20 8.00000013 20L16.0000001 20C16.5522852 20 17.0000002 19.552285 17.0000001 19zM21 35C21.5522848 35.0000005 21.9999998 35.4477155 22 36 21.9999998 36.5522855 21.5522848 37.0000005 21 37L20 37 20 48C19.9999999 49.6568505 18.6568499 51.0000005 17 51L9 51C7.34315 51.0000005 6.00000025 49.6568505 6 48L6 37 5 37C4.447715 37 4.00000002 36.552285 4 36 4 35.447715 4.447715 35 5 35L9 35 9 34C9.00000004 32.34315 10.34315 31.0000001 12 31L14 31C15.6568502 31 17.0000002 32.34315 17 34L17 35 21 35zM11.0000001 34.0000002L11.0000001 35.0000002 15.0000001 35.0000002 15.0000001 34.0000002C15.0000001 33.4477152 14.5522851 33.0000001 14.0000001 33.0000002L12.0000001 33.0000002C11.4477152 33.0000002 11.0000001 33.4477152 11.0000001 34.0000002zM18.0000001 48L18.0000001 37 8.00000013 37 8.00000013 48C8.00000013 48.552285 8.44771513 49 9.00000013 49L17.0000001 49C17.5522852 49 18.0000002 48.552285 18.0000001 48zM10.17 40.2922084C10.56 39.9022084 11.19 39.9022084 11.58 40.2922084L13 41.7122084 14.42 40.2922084C14.81 39.9022084 15.44 39.9022084 15.83 40.2922084 16.22 40.6822084 16.22 41.3122084 15.83 41.7022084L14.41 43.1222084 15.83 44.5422084C16.22 44.9322084 16.22 45.5622084 15.83 45.9522084 15.44 46.3422084 14.81 46.3422084 14.42 45.9522084L13 44.5322084 11.58 45.9522084C11.19 46.3422084 10.56 46.3422084 10.17 45.9522084 9.78 45.5622084 9.78 44.9322084 10.17 44.5422084L11.59 43.1222084 10.17 41.7022084C9.78 41.3222084 9.78 40.6822084 10.17 40.2922084z"/>
</svg>
