<svg xmlns="http://www.w3.org/2000/svg" width="24" height="24" viewBox="0 0 24 24">
  <path d="M20,6 C20.5522848,6.00000045 20.9999998,6.44771545 21,7 C20.9999998,7.55228545 20.5522848,8.00000048 20,8 L19,8 L19,19 C18.9999999,20.6568505 17.6568499,22.0000005 16,22 L8,22 C6.34315,22.0000005 5.00000025,20.6568505 5,19 L5,8 L4,8 C3.447715,8 3.00000002,7.552285 3,7 C3,6.447715 3.447715,6.00000002 4,6 L7.5,6 L7.5,5 C7.50000004,3.34315 8.84315004,2.00000007 10.5,2 L13.5,2 C15.1568502,2 16.5000002,3.34315 16.5,5 L16.5,6 L20,6 Z M9.50000013,5.00000015 L9.50000013,6.00000015 L14.5000001,6.00000015 L14.5000001,5.00000015 C14.5000001,4.44771515 14.0522851,4.00000013 13.5000001,4.00000015 L10.5000001,4.00000015 C9.94771517,4.00000015 9.50000009,4.44771515 9.50000013,5.00000015 Z M12.0000001,13.0857865 L10.3071068,11.3928932 C9.91658249,11.0023689 9.28341751,11.0023689 8.89289322,11.3928932 C8.50236893,11.7834175 8.50236893,12.4165825 8.89289322,12.8071068 L10.5857865,14.5000001 L8.89289322,16.1928934 C8.50236893,16.5834177 8.50236893,17.2165826 8.89289322,17.6071069 C9.28341751,17.9976312 9.91658249,17.9976312 10.3071068,17.6071069 L12.0000001,15.9142136 L13.6928934,17.6071069 C14.0834177,17.9976312 14.7165826,17.9976312 15.1071069,17.6071069 C15.4976312,17.2165826 15.4976312,16.5834177 15.1071069,16.1928934 L13.4142136,14.5000001 L15.1071069,12.8071068 C15.4976312,12.4165825 15.4976312,11.7834175 15.1071069,11.3928932 C14.7165826,11.0023689 14.0834177,11.0023689 13.6928934,11.3928932 L12.0000001,13.0857865 Z"/>
</svg>
