<?xml version="1.0" encoding="UTF-8"?>
<svg width="24px" height="24px" viewBox="0 0 24 24" version="1.1" xmlns="http://www.w3.org/2000/svg" xmlns:xlink="http://www.w3.org/1999/xlink">
    <!-- Generator: Sketch 51.2 (57519) - http://www.bohemiancoding.com/sketch -->
    <title>Combined Shape</title>
    <desc>Created with Sketch.</desc>
    <defs></defs>
    <g id="Prototype" stroke="none" stroke-width="1" fill="none" fill-rule="evenodd">
        <path d="M2.44195119,5.08029197 L0.96350365,5.08029197 C0.431375278,5.08029197 0,4.64891669 0,4.11678832 C0,3.58465995 0.431375278,3.15328467 0.96350365,3.15328467 L7.09489051,3.15328467 L7.09489051,2.54014599 C7.09489051,1.1372621 8.23215261,0 9.6350365,0 L14.3649635,0 C15.7678474,0 16.9051095,1.1372621 16.9051095,2.54014599 L16.9051095,3.15328467 L23.0364964,3.15328467 C23.5686247,3.15328467 24,3.58465995 24,4.11678832 C24,4.64891669 23.5686247,5.08029197 23.0364964,5.08029197 L21.558102,5.08029197 L20.1759562,21.6700324 C20.0666158,22.9869742 18.965788,24.0001182 17.6443796,24 L6.35675768,24 C5.03519855,24.0001182 3.93432773,22.9868752 3.82511238,21.6702426 L2.44195119,5.08029197 Z M14.9781022,3.15328467 L14.9781022,2.54014599 C14.9781022,2.20151884 14.7035906,1.9270073 14.3649635,1.9270073 L9.6350365,1.9270073 C9.29640935,1.9270073 9.02189781,2.20151884 9.02189781,2.54014599 L9.02189781,3.15328467 L14.9781022,3.15328467 Z M4.37564433,5.08029197 L5.74549049,21.5105401 C5.77186091,21.8284453 6.03758835,22.0730212 6.35667153,22.0729927 L17.6444657,22.0729927 C17.9634627,22.0730212 18.2291902,21.8284453 18.2555606,21.5105401 L19.6244184,5.08029197 L4.37564433,5.08029197 Z M10.5985401,17.5182482 C10.5985401,18.0503765 10.1671649,18.4817518 9.6350365,18.4817518 C9.10290812,18.4817518 8.67153285,18.0503765 8.67153285,17.5182482 L8.67153285,9.6350365 C8.67153285,9.10290812 9.10290812,8.67153285 9.6350365,8.67153285 C10.1671649,8.67153285 10.5985401,9.10290812 10.5985401,9.6350365 L10.5985401,17.5182482 Z M15.3284672,17.5182482 C15.3284672,18.0503765 14.8970919,18.4817518 14.3649635,18.4817518 C13.8328351,18.4817518 13.4014599,18.0503765 13.4014599,17.5182482 L13.4014599,9.6350365 C13.4014599,9.10290812 13.8328351,8.67153285 14.3649635,8.67153285 C14.8970919,8.67153285 15.3284672,9.10290812 15.3284672,9.6350365 L15.3284672,17.5182482 Z" id="Combined-Shape" fill="#000000" fill-rule="nonzero"></path>
    </g>
</svg>