<svg xmlns="http://www.w3.org/2000/svg" width="24" height="24" viewBox="0 0 24 24">
  <path d="M15,8 L15,9 L16,9 C17.1045701,8.99999995 18,9.89542988 18,11 L18,13 C17.9999997,14.1045705 17.1045697,15.0000005 16,15 L15,15 L15,16 C14.9999998,17.1045705 14.1045698,18.0000005 13,18 L11,18 C9.89543115,18.0000004 9.00000011,17.1045702 9,16 L9,15 L8,15 C6.8954311,15.0000002 6.00000017,14.10457 6,13 L6,11 C6,9.89542989 6.89542991,9 8,9 L9,9 L9,8 C9.00000003,6.89542991 9.89542991,6.00000005 11,6 L13,6 C14.1045701,6 15.0000001,6.89542993 15,8 Z M16,11 L14,11 C13.4477153,11 13,10.5522847 13,10 L13,8 L11,8 L11,10 C11,10.5522847 10.5522847,11 10,11 L8,11 L8,13 L10,13 C10.5522847,13 11,13.4477153 11,14 L11,16 L13,16 L13,14 C13,13.4477153 13.4477153,13 14,13 L16,13 L16,11 Z M12,24 C5.372583,24 0,18.627417 0,12 C0,5.372583 5.372583,0 12,0 C18.627417,0 24,5.372583 24,12 C24,18.627417 18.627417,24 12,24 Z M12,22 C17.5228475,22 22,17.5228475 22,12 C22,6.4771525 17.5228475,2 12,2 C6.4771525,2 2,6.4771525 2,12 C2,17.5228475 6.4771525,22 12,22 Z"/>
</svg>
