<svg xmlns="http://www.w3.org/2000/svg" width="24" height="24" viewBox="0 0 24 24">
  <path d="M6.75,3.75000034 C6.74999981,2.50735974 7.75735939,1.50000023 9,1.50000023 L15,1.50000023 C16.2426405,1.50000017 17.2499999,2.50735963 17.25,3.75000023 L17.25,6.00000023 L19.8571429,6 C21.9994901,6 23.75,7.67094124 23.75,9.75 L23.75,18.75 C23.75,20.8290588 21.9994901,22.5 19.8571429,22.5 L4.14285714,22.5 C2.00050987,22.5 0.25,20.8290588 0.25,18.75 L0.25,9.75 C0.25,7.67094124 2.00050987,6 4.14285714,6 L6.75,6.00000023 L6.75,3.75000034 Z M4.14285714,7.5 C2.81373013,7.5 1.75,8.51537876 1.75,9.75 L1.75,18.75 C1.75,19.9846212 2.81373013,21 4.14285714,21 L19.8571429,21 C21.1862699,21 22.25,19.9846212 22.25,18.75 L22.25,9.75 C22.25,8.51537876 21.1862699,7.5 19.8571429,7.5 L16.5005892,7.5 L7.5,7.50000023 L4.14285714,7.5 Z M15.75,6.00000023 L15.75,3.75000029 C15.75,3.3357868 15.4142134,3.00000021 15,3.00000023 L9,3.00000023 C8.58578653,3.00000023 8.24999994,3.3357868 8.25,3.75000023 L8.25,6.00000023 L15.75,6.00000023 Z M12.75,13.5 L15,13.5 C15.4142136,13.5 15.75,13.8357864 15.75,14.25 C15.75,14.6642136 15.4142136,15 15,15 L12.75,15 L12.75,17.23 C12.75,17.6442136 12.4142136,17.98 12,17.98 C11.5857864,17.98 11.25,17.6442136 11.25,17.23 L11.25,15 L9,15 C8.58578644,15 8.25,14.6642136 8.25,14.25 C8.25,13.8357864 8.58578644,13.5 9,13.5 L11.25,13.5 L11.25,11.23 C11.25,10.8157864 11.5857864,10.48 12,10.48 C12.4142136,10.48 12.75,10.8157864 12.75,11.23 L12.75,13.5 Z"/>
</svg>
