<?xml version="1.0" encoding="UTF-8"?>
<svg width="24px" height="24px" viewBox="0 0 24 24" version="1.1" xmlns="http://www.w3.org/2000/svg" xmlns:xlink="http://www.w3.org/1999/xlink">
    <!-- Generator: Sketch 54.1 (76490) - https://sketchapp.com -->
    <title>bell copy 18</title>
    <desc>Created with Sketch.</desc>
    <g id="Icons" stroke="none" stroke-width="1" fill="none" fill-rule="evenodd">
        <path d="M22.5000001,22.49999 L3.00000007,22.49999 L3.00000007,23.25 C3.00000007,23.6642136 2.66421363,24 2.25000007,24 C1.8357865,24 1.50000007,23.6642136 1.50000007,23.25 L1.50000007,14.25 C1.50000007,13.8357864 1.8357865,13.5 2.25000007,13.5 C2.66421363,13.5 3.00000007,13.8357864 3.00000007,14.25 L3.00000007,17.99999 L5.65107058,18 C4.9879279,16.8527067 5.14713104,15.3602189 6.12867998,14.3786699 C7.3002532,13.2070967 9.19974693,13.2070967 10.3713202,14.3786699 C11.3528691,15.3602189 11.5120722,16.8527067 10.8489296,18 L12.0000001,17.99999 L12,14.25 C12,13.8357864 12.3357864,13.5 12.75,13.5 L21.2499999,13.5 C22.7687835,13.4999999 24,14.7312164 24,16.25 L24,18.75 L24.0000001,21.7499996 L24.0000001,23.25 C24.0000001,23.6642136 23.6642136,24 23.2500001,24 C22.8357865,24 22.5000001,23.6642136 22.5000001,23.25 L22.5000001,22.49999 L22.5000001,22.49999 Z M3.00000007,19.5 L3.00000007,21 L22.5000001,21 L22.5000001,19.5 L3.00000007,19.5 Z M22.5,18 L22.5,16.25 C22.5,15.5596435 21.9403564,15 21.25,15 L13.5,15 L13.5,18 L22.5,18 Z M14.37869,0.878679914 C15.5502632,-0.292893305 17.4497569,-0.292893305 18.6213302,0.878679914 C19.7929034,2.05025313 19.7929034,3.94974687 18.6213302,5.12132009 C17.4497569,6.2928933 15.5502632,6.2928933 14.37869,5.12132009 C13.2071168,3.94974687 13.2071168,2.05025313 14.37869,0.878679914 Z M17.56067,4.06065991 C18.1464568,3.47487313 18.1464568,2.52512687 17.56067,1.93934009 C16.9748832,1.3535533 16.0251369,1.3535533 15.4393502,1.93934009 C14.8535634,2.52512687 14.8535634,3.47487313 15.4393502,4.06065991 C16.0251369,4.6464467 16.9748832,4.6464467 17.56067,4.06065991 Z M9.31065998,17.5606499 C9.89644676,16.9748631 9.89644676,16.0251169 9.31065998,15.4393301 C8.7248732,14.8535433 7.77512693,14.8535433 7.18934015,15.4393301 C6.60355337,16.0251169 6.60355337,16.9748631 7.18934015,17.5606499 C7.77512693,18.1464367 8.7248732,18.1464367 9.31065998,17.5606499 Z M13.5000001,11.2500003 C13.5000001,11.6642139 13.1642137,12.0000004 12.7500002,12.0000005 C12.3357866,12.0000005 12.0000001,11.6642141 12.0000001,11.2500006 C11.9999998,9.17893701 13.6789364,7.50000045 15.7500001,7.50000045 L17.25,7.50000045 C19.3210635,7.50000036 20.9999999,9.17893684 21.0000001,11.2500004 C21.0000001,11.664214 20.6642137,12.0000004 20.2500001,12.0000005 C19.8357866,12.0000005 19.5000001,11.6642141 19.5000001,11.2500005 C19.5,10.007364 18.4926364,9.0000004 17.2500001,9.00000045 L15.7500001,9.00000045 C14.5073636,9.00000045 13.4999999,10.0073641 13.5000001,11.2500003 Z M7.5,1.5 L7.5,3 L9,3 C9.8284275,3 10.4999999,3.67157244 10.5,4.5 L10.5,6 C10.4999999,6.82842756 9.82842749,7.50000004 9,7.5 L7.5,7.5 L7.5,9 C7.49999997,9.82842756 6.82842752,10.5 6,10.5 L4.5,10.5 C3.67157324,10.5 3.00000013,9.82842739 3,9 L3,7.5 L1.5,7.5 C0.671572442,7.49999989 -1.25088945e-07,6.82842743 0,6 L0,4.5 C0,3.67157244 0.671572432,3.00000004 1.5,3 L3,3 L3,1.5 C3.00000003,0.671572436 3.67157246,3.62117802e-08 4.5,0 L6,0 C6.82842763,0 7.50000007,0.671572438 7.5,1.5 Z M9,6 L9,4.5 L6.75,4.5 C6.33578643,4.5 5.99999999,4.16421355 6,3.74999998 L6,1.5 L4.5,1.5 L4.5,3.75000001 C4.49999999,4.16421357 4.16421356,4.5 3.75,4.5 L1.5,4.5 L1.5,6 L3.75000004,6 C4.16421359,6.00000002 4.5,6.33578645 4.5,6.75 L4.5,9 L6,9 L6,6.74999999 C6.00000001,6.33578643 6.33578644,6 6.75,6 L9,6 Z" id="Shape" fill="#000000" fill-rule="nonzero"></path>
    </g>
</svg>