<?xml version="1.0" encoding="UTF-8"?>
<svg width="24px" height="24px" viewBox="0 0 24 24" version="1.1" xmlns="http://www.w3.org/2000/svg" xmlns:xlink="http://www.w3.org/1999/xlink">
    <title>trim-g</title>
    <g id="Icons" stroke="none" stroke-width="1" fill="none" fill-rule="evenodd">
      <g fill="#000000" fill-rule="nonzero" id="Shape">
        <path clip-rule="evenodd" d="m3.07,2.2c-1.41,0 -2.55,1.14 -2.55,2.55l0,13.61c0,1.41 1.14,2.55 2.55,2.55l5.95,0c0.47,0 0.85,-0.38 0.85,-0.85c0,-0.47 -0.38,-0.85 -0.85,-0.85l0,-2.55l0.43,0c0.24,0 0.43,-0.19 0.43,-0.43c0,-0.24 -0.19,-0.43 -0.43,-0.43l-7.23,0l0,-8.5l19.56,0l0,4.25c0,0.47 0.38,0.85 0.85,0.85c0.47,0 0.85,-0.38 0.85,-0.85l0,-6.8c0,-1.41 -1.14,-2.55 -2.55,-2.55l-17.86,0zm0,1.7c-0.47,0 -0.85,0.38 -0.85,0.85l0,1.7l2.55,0l0,-2.55l-1.7,0zm18.71,0.85l0,1.7l-2.55,0l0,-2.55l1.7,0c0.47,0 0.85,0.38 0.85,0.85zm-5.95,-0.85l2.55,0l0,2.55l-2.55,0l0,-2.55zm-3.4,0l2.55,0l0,2.55l-2.55,0l0,-2.55zm-3.4,0l2.55,0l0,2.55l-2.55,0l0,-2.55zm-3.4,0l2.55,0l0,2.55l-2.55,0l0,-2.55zm2.55,15.31l0,-2.55l-2.55,0l0,2.55l2.55,0zm-3.4,0l0,-2.55l-2.55,0l0,1.7c0,0.47 0.38,0.85 0.85,0.85l1.7,0zm10.13,-4.12c0.05,-0.18 0.08,-0.37 0.08,-0.55c0,-1.17 -0.95,-2.13 -2.13,-2.13c-1.17,0 -2.13,0.95 -2.13,2.13c0,1.17 0.95,2.13 2.13,2.13c0.55,0 1.05,-0.2 1.43,-0.55c0.01,0.01 0.03,0.02 0.04,0.03l2.3,1.07l-2.19,1.02c-0.39,-0.44 -0.96,-0.71 -1.59,-0.71c-1.17,0 -2.13,0.95 -2.13,2.13c0,1.17 0.95,2.13 2.13,2.13c1.17,0 2.13,-0.95 2.13,-2.13c0,-0.14 -0.01,-0.26 -0.03,-0.39l3.03,-1.41l4.65,2.17c0.3,0.14 0.65,0.01 0.79,-0.29c0.14,-0.3 0.01,-0.65 -0.29,-0.79l-3.74,-1.75l3.68,-1.72c0.28,-0.13 0.41,-0.47 0.27,-0.75c-0.13,-0.29 -0.47,-0.41 -0.75,-0.28l-4.55,2.13l-3.14,-1.46l0.01,-0.03zm-2.05,0.72c0.71,0 1.28,-0.57 1.28,-1.28c0,-0.71 -0.57,-1.28 -1.28,-1.28c-0.71,0 -1.28,0.57 -1.28,1.28c0,0.71 0.57,1.28 1.28,1.28zm0,5.1c0.71,0 1.28,-0.57 1.28,-1.28c0,-0.71 -0.57,-1.28 -1.28,-1.28c-0.71,0 -1.28,0.57 -1.28,1.28c0,0.71 0.57,1.28 1.28,1.28z" fill-rule="evenodd" />
      </g>
    </g>
</svg>