<svg xmlns="http://www.w3.org/2000/svg" width="24" height="24" viewBox="0 0 24 24">
  <path d="M10.9576919,3.051813 L10.9576919,2.5 C10.9576919,1.94771525 11.4054071,1.5 11.9576919,1.5 C12.5099766,1.5 12.9576919,1.94771525 12.9576919,2.5 L12.9576919,3.04371076 C15.791527,3.30341469 18.3572825,4.70707713 20.0493138,6.89812212 C20.7104404,7.75422816 21.2211534,8.71084897 21.5574838,9.73166921 C21.7139365,10.20653 21.8321254,10.6936399 21.9105857,11.1895094 C21.9489496,11.4319691 21.9777849,11.6763311 21.99697,11.9222101 C22.0423172,12.503389 21.5829456,13 21.0000002,13 L12.9576919,13 L12.9576919,19.9010727 C12.957692,20.5079935 13.4496984,21 14.0566186,21 C14.6635391,20.9999999 15.1555455,20.5079935 15.1555455,19.9010732 C15.1555455,19.3487884 15.6032608,18.9010732 16.1555455,18.9010732 C16.7078303,18.9010732 17.1555455,19.3487884 17.1555455,19.9010732 C17.1555455,21.612563 15.7681087,22.9999997 14.0566187,23 C12.3451289,23 10.9576922,21.6125631 10.9576919,19.9010729 L10.9576919,13 L3.00000018,13 C2.41705474,13 1.95768312,12.503389 2.00303041,11.9222101 C2.02221545,11.6763311 2.05105076,11.4319691 2.08941463,11.1895094 C2.16787501,10.6936399 2.28606386,10.20653 2.44251658,9.73166921 C2.77884695,8.71084897 3.28955997,7.75422816 3.95068661,6.89812212 C5.62586089,4.72890561 8.15743698,3.33146106 10.9576919,3.051813 L10.9576919,3.051813 Z M4.1624146,11 L19.8375858,11 C19.7874911,10.7831142 19.7275393,10.5688011 19.6579275,10.3575174 C19.3930799,9.5536596 18.9899048,8.79846886 18.4663772,8.12054258 C16.9632481,6.17411082 14.5868196,5 12.0000002,5 C9.41318072,5 7.03675227,6.17411082 5.53362319,8.12054258 C5.01009561,8.79846886 4.60692046,9.5536596 4.34207286,10.3575174 C4.27246106,10.5688011 4.21250928,10.7831142 4.1624146,11 Z"/>
</svg>
