<svg width="25" height="24" viewBox="0 0 25 24" xmlns="http://www.w3.org/2000/svg"><path d="M3069.54,74.7513696 L3069.54,75.5223696 C3075.7275,75.8583696 3080.79,80.3313696 3080.79,86.0013638 C3080.79,86.0013638 3080.79,86.7513696 3080.04,86.7513696 C3079.8165,86.7513696 3079.512,86.5338696 3079.512,86.5338696 L3079.506,86.5278696 L3079.4685,86.4933696 C3079.21095,86.26967 3078.93212,86.0717255 3078.636,85.9023695 C3077.92385,85.4851987 3077.11528,85.2608257 3076.29,85.2513697 C3075.333,85.2513697 3074.523,85.5708697 3073.944,85.9023697 C3073.64787,86.0717257 3073.36904,86.2696702 3073.1115,86.4933697 L3073.074,86.5278697 L3073.0695,86.5323697 C3073.0695,86.5323697 3072.7635,86.7513697 3072.54,86.7513697 C3072.3165,86.7513697 3072.012,86.5338697 3072.012,86.5338697 L3072.006,86.5278697 L3071.9685,86.4933697 C3071.71095,86.2696702 3071.43212,86.0717257 3071.136,85.9023697 C3070.64171,85.6167998 3070.10175,85.4188823 3069.54,85.3173698 L3069.54,94.2513698 L3068.79,94.2513698 L3069.54,94.2513698 L3069.54,94.3098698 L3069.5325,94.4343698 C3069.49224,95.0091671 3069.34042,95.5706216 3069.0855,96.0873701 C3068.82605,96.6199239 3068.43141,97.0750794 3067.941,97.4073699 C3067.38,97.7778699 3066.6705,98.0013638 3065.79,98.0013638 C3064.9095,98.0013638 3064.1985,97.7793699 3063.639,97.4073699 C3063.14849,97.0751845 3062.75382,96.620002 3062.4945,96.08737 C3062.22134,95.5328926 3062.06704,94.9274566 3062.0415,94.3098706 L3062.0415,94.2723706 L3062.04,94.2543706 C3062.04,94.2543706 3062.04,94.2513706 3062.79,94.2513706 L3062.04,94.2513706 L3062.04,93.5013638 C3062.04,93.0871562 3062.37578,92.7513692 3062.79,92.7513692 C3063.20421,92.7513692 3063.54,93.0871562 3063.54,93.5013638 L3063.54,94.2603692 L3063.5445,94.3263692 C3063.57075,94.7048514 3063.67008,95.0746659 3063.837,95.4153669 C3063.9795,95.7018669 3064.182,95.9658669 3064.4715,96.1578669 C3064.7565,96.3483669 3065.1705,96.5013638 3065.79,96.5013638 C3066.4095,96.5013638 3066.8235,96.3483669 3067.1085,96.1578669 C3067.398,95.9658669 3067.6005,95.7018669 3067.7445,95.4153669 C3067.92092,95.0546186 3068.02149,94.6615211 3068.04,94.2603671 L3068.04,85.3173671 C3067.47824,85.4188804 3066.93828,85.6167986 3066.444,85.9023671 C3066.13332,86.0804897 3065.84179,86.2900922 3065.574,86.5278662 L3065.568,86.5338662 C3065.568,86.5338662 3065.265,86.7513662 3065.04,86.7513662 C3064.8165,86.7513662 3064.512,86.5338662 3064.512,86.5338662 L3064.506,86.5278662 C3064.23821,86.2900922 3063.94668,86.0804897 3063.636,85.9023662 C3062.92385,85.4851952 3062.11528,85.2608207 3061.29,85.2513647 C3060.333,85.2513647 3059.5245,85.5708647 3058.944,85.9023647 C3058.63332,86.0804872 3058.34179,86.2900897 3058.074,86.5278637 L3058.068,86.5338637 C3058.068,86.5338637 3057.765,86.7513637 3057.54,86.7513637 C3056.79,86.7513637 3056.79,86.0013638 3056.79,86.0013638 C3056.79,80.3313637 3061.8525,75.8583637 3068.04,75.5223637 L3068.04,74.7513637 C3068.04,74.3371508 3068.37579,74.0013638 3068.79,74.0013638 C3069.20421,74.0013638 3069.54,74.3371566 3069.54,74.7513696 Z M3058.4445,84.4668696 C3059.32189,84.0036246 3060.29784,83.7582216 3061.29,83.7513696 C3062.499,83.7513696 3063.51,84.1263696 3064.233,84.5178808 C3064.25906,83.3221618 3064.43237,82.1342158 3064.74899,80.9808808 C3065.11199,79.6788808 3065.70899,78.3333808 3066.6555,77.1858696 C3062.406,77.9358696 3059.1705,80.8728696 3058.4445,84.4668696 Z M3068.79,83.7513695 C3069.86338,83.7603302 3070.91631,84.0460355 3071.847,84.5808696 C3071.8265,83.5008989 3071.67181,82.4276624 3071.3865,81.3858674 C3070.941,79.7883674 3070.137,78.2463674 3068.79,77.1768674 C3067.443,78.2448674 3066.639,79.7868674 3066.1935,81.3828674 C3065.90804,82.4251513 3065.75335,83.4988903 3065.733,84.5793703 C3066.66369,84.0460355 3067.71661,83.7603305 3068.79,83.7513695 Z M3072.831,80.9808696 C3073.1805,82.2303696 3073.323,83.4708696 3073.347,84.5178698 C3074.24931,84.0223973 3075.26064,83.7589988 3076.29,83.7513698 C3077.445,83.7513698 3078.42,84.0963698 3079.1355,84.4668698 C3078.4095,80.8728698 3075.174,77.9343698 3070.9245,77.1858696 C3071.8695,78.3333696 3072.468,79.6788696 3072.831,80.9808696 Z" transform="translate(-3056 -74)"/></svg>