<svg xmlns="http://www.w3.org/2000/svg" width="24" height="24" viewBox="0 0 24 24">
  <path d="M10.9576919,2.801813 L10.9576919,2.25 C10.9576919,1.69771525 11.4054071,1.25 11.9576919,1.25 C12.5099766,1.25 12.9576919,1.69771525 12.9576919,2.25 L12.9576919,2.79371076 C15.791527,3.05341469 18.3572825,4.45707713 20.0493138,6.64812212 C20.7104404,7.50422816 21.2211534,8.46084897 21.5574838,9.48166921 C21.7139365,9.95652995 21.8321254,10.4436399 21.9105857,10.9395094 C21.9489496,11.1819691 21.9777849,11.4263311 21.99697,11.6722101 C22.0423172,12.253389 21.5829456,12.75 21.0000002,12.75 L12.9576919,12.75 L12.9576919,19.6510727 C12.957692,20.2579935 13.4496984,20.75 14.0566186,20.75 C14.6635391,20.7499999 15.1555455,20.2579935 15.1555455,19.6510732 C15.1555455,19.0987884 15.6032608,18.6510732 16.1555455,18.6510732 C16.7078303,18.6510732 17.1555455,19.0987884 17.1555455,19.6510732 C17.1555455,21.362563 15.7681087,22.7499997 14.0566187,22.75 C12.3451289,22.75 10.9576922,21.3625631 10.9576919,19.6510729 L10.9576919,12.75 L3.00000018,12.75 C2.41705474,12.75 1.95768312,12.253389 2.00303041,11.6722101 C2.02221545,11.4263311 2.05105076,11.1819691 2.08941463,10.9395094 C2.16787501,10.4436399 2.28606386,9.95652995 2.44251658,9.48166921 C2.77884695,8.46084897 3.28955997,7.50422816 3.95068661,6.64812212 C5.62586089,4.47890561 8.15743698,3.08146106 10.9576919,2.801813 L10.9576919,2.801813 Z M4.1624146,10.75 L19.8375858,10.75 C19.7874911,10.5331142 19.7275393,10.3188011 19.6579275,10.1075174 C19.3930799,9.3036596 18.9899048,8.54846886 18.4663772,7.87054258 C16.9632481,5.92411082 14.5868196,4.75 12.0000002,4.75 C9.41318072,4.75 7.03675227,5.92411082 5.53362319,7.87054258 C5.01009561,8.54846886 4.60692046,9.3036596 4.34207286,10.1075174 C4.27246106,10.3188011 4.21250928,10.5331142 4.1624146,10.75 Z"/>
</svg>
