<?xml version="1.0" encoding="UTF-8"?>
<svg width="24px" height="24px" viewBox="0 0 24 24" version="1.1" xmlns="http://www.w3.org/2000/svg" xmlns:xlink="http://www.w3.org/1999/xlink">
    <title>unarchive-g</title>
    <g id="Icons" stroke="none" stroke-width="1" fill="none" fill-rule="evenodd">
        <g transform="translate(-515.000000, -74.000000)" fill="#000000" fill-rule="nonzero" id="Shape">
            <path d="M534.041983,74.9998744 C534.999091,74.9998744 535.866451,75.5501506 536.290509,76.493237 L537.820342,81.4239462 C537.939434,81.8077849 538,82.2073795 538,82.6092689 L538,93.7 C538,94.9677384 536.942539,95.9998744 535.643883,95.9998744 L518.356116,95.9998744 C517.05746,95.9998744 515.999954,94.9677384 515.999954,93.7 L515.999954,82.611569 C515.999954,82.2081722 516.060976,81.8070962 516.180948,81.4219525 L517.744034,76.404002 C518.132856,75.5496276 519.001006,74.9992589 519.957886,74.9998744 L534.041983,74.9998744 Z M535.5,83 L518.5,83 C518.223858,83 518,83.2238576 518,83.5 L518,93.5 C518,93.7761424 518.223858,94 518.5,94 L535.5,94 C535.776142,94 536,93.7761424 536,93.5 L536,83.5 C536,83.2238576 535.776142,83 535.5,83 Z M527.612768,85.2096764 L527.706979,85.2928446 L530.707812,88.2927886 C531.098394,88.683255 531.098487,89.31642 530.708021,89.7070021 C530.34759,90.0675394 529.780363,90.0953529 529.388027,89.7903861 L529.293807,89.7072114 L527.999198,88.413056 L528,91.5 C528,92.0522847 527.552285,92.5 527,92.5 C526.487164,92.5 526.064493,92.1139598 526.006728,91.6166211 L526,91.5 L525.999198,88.414056 L524.707324,89.7070874 C524.34685,90.0675812 523.77962,90.0953263 523.38732,89.7903122 L523.29311,89.7071262 C522.932617,89.3466521 522.904871,88.7794218 523.209886,88.3871222 L523.293072,88.2929126 L526.292851,85.2929687 C526.653294,84.9325056 527.220466,84.9047303 527.612768,85.2096764 Z M525.999977,76.9999987 L519.957073,76.9999987 C519.809736,76.9998862 519.676174,77.0845581 519.651879,77.1266256 L518.588431,80.7366752 C518.552604,80.8414493 518.610569,80.954737 518.717898,80.9897104 C518.738813,80.9965256 518.760718,80.9999987 518.782767,80.9999987 L525.999977,80.9999987 L525.999977,76.9999987 Z M534.042113,76.9999993 L527.999977,76.9999993 L527.999977,80.9999993 L535.21905,80.9999993 C535.3322,80.9999993 535.423927,80.9104575 535.423927,80.8000005 L535.421285,80.7679863 L534.382711,77.2159987 C534.32293,77.0846388 534.189491,76.9999993 534.042113,76.9999993 Z"></path>
        </g>
    </g>
</svg>