<svg xmlns="http://www.w3.org/2000/svg" width="24" height="24" viewBox="0 0 24 24">
  <path d="M19.5352805,7.00000032 C19.6457375,7.00000032 19.7352805,6.91045727 19.7352805,6.80000032 C19.7352805,6.77851899 19.7318198,6.75717795 19.7250314,6.73679744 L18.7188533,3.21599837 C18.6604953,3.08463854 18.5302328,2.99998219 18.3863636,3.00000043 L5.61284245,3.00000012 C5.46901295,2.99988594 5.33863154,3.08455777 5.31491444,3.12662529 L4.27678396,6.73667501 C4.24181052,6.84144904 4.29839509,6.95473674 4.40316911,6.98971017 C4.42358621,6.99652537 4.44496959,7.00000001 4.46649411,7.00000002 L19.5352805,7.00000032 Z M1.5,8.55794534 C1.5,8.39819717 1.49875721,8.24251676 1.5514492,8.08466117 L3.45248996,2.40400167 C3.83205538,1.54962729 4.67953725,0.999258565 5.61363631,1.00000043 L18.3862367,1.00000044 C19.3205589,0.999881892 20.1672686,1.55015025 20.5812317,2.4932367 L22.4485045,8.08452241 C22.501236,8.2424196 22.5,8.38577557 22.5,8.55794487 L22.5,19.7 C22.5,20.9677384 21.4722838,22 20.2045455,22 L3.79545455,22 C2.52771616,22 1.5,20.9677384 1.5,19.7 L1.5,8.55794534 Z M13,14.4088656 L14.2928932,15.6997336 C14.6834175,16.0896462 15.3165825,16.0896462 15.7071068,15.6997336 C16.0976311,15.309821 16.0976311,14.6776478 15.7071068,14.2877352 L12.7071068,11.2924344 C12.3165825,10.9025219 11.6834175,10.9025219 11.2928932,11.2924344 L8.29289322,14.2877352 C7.90236893,14.6776478 7.90236893,15.309821 8.29289322,15.6997336 C8.68341751,16.0896462 9.31658249,16.0896462 9.70710678,15.6997336 L11,14.4088656 L11,18.0015664 C11,18.552986 11.4477153,19 12,19 C12.5522847,19 13,18.552986 13,18.0015664 L13,14.4088656 Z"/>
</svg>
