<svg xmlns="http://www.w3.org/2000/svg" width="24" height="24" viewBox="0 0 24 24">
  <path d="M517.000024,82.5579455 C517.000024,82.3981974 516.997266,82.242517 517.051243,82.0846614 L518.744034,76.404002 C519.132856,75.5496276 520.001006,74.9992589 520.957886,75.0000007 L534.041983,75.0000008 C534.999091,74.9998822 535.866451,75.5501506 536.290509,76.493237 L537.948756,82.0845226 C538.002773,82.2424198 537.999975,82.3857758 537.999975,82.5579451 L537.999975,93.7 C537.999975,94.9677384 536.942539,96 535.643883,96 L519.356116,96 C518.05746,96 517.000024,94.9677384 517.000024,93.7 L517.000024,82.5579455 Z M519.782767,81.0000002 L535.21905,81.0000005 C535.3322,81.0000005 535.423927,80.9104575 535.423927,80.8000005 C535.423927,80.7785192 535.420382,80.7571782 535.413428,80.7367977 L534.382711,77.2159987 C534.32293,77.0846388 534.189491,76.9999825 534.042113,77.0000007 L520.957073,77.0000004 C520.809736,76.9998862 520.676174,77.0845581 520.651879,77.1266256 L519.588431,80.7366752 C519.552604,80.8414493 519.610569,80.954737 519.717898,80.9897104 C519.738813,80.9965256 519.760718,81.0000002 519.782767,81.0000002 Z M519.5,83 C519.223858,83 519,83.2238576 519,83.5 L519,93.5 C519,93.7761424 519.223858,94 519.5,94 L535.5,94 C535.776142,94 536,93.7761424 536,93.5 L536,83.5 C536,83.2238576 535.776142,83 535.5,83 L519.5,83 Z M528.524387,88.4088657 L528.524387,92.0015665 C528.524387,92.5529861 528.065753,93 527.5,93 C526.934246,93 526.475612,92.5529861 526.475612,92.0015665 L526.475612,88.4088657 L525.151187,89.6997337 C524.751139,90.0896463 524.102533,90.0896463 523.702484,89.6997337 C523.302436,89.3098211 523.302436,88.6776479 523.702484,88.2877354 L526.775648,85.2924346 C527.175696,84.902522 527.824303,84.902522 528.224351,85.2924346 L531.297515,88.2877354 C531.697563,88.6776479 531.697563,89.3098211 531.297515,89.6997337 C530.897466,90.0896463 530.24886,90.0896463 529.848812,89.6997337 L528.524387,88.4088657 Z" transform="translate(-515 -74)"/>
</svg>
