<svg xmlns="http://www.w3.org/2000/svg" width="24" height="24" viewBox="0 0 24 24">
  <path d="M5.84468032,13.815567 L8.44507568,12.859209 C8.95980455,12.669905 9.52894868,12.938075 9.71629467,13.4581833 C9.90364065,13.9782916 9.63824439,14.5533838 9.12351552,14.7426878 L4.51035548,16.4392885 C3.9956266,16.6285925 3.42648248,16.3604225 3.23913649,15.8403142 L1.56008355,11.178942 C1.37273756,10.6588337 1.63813383,10.0837414 2.1528627,9.89443751 C2.66759157,9.70513356 3.2367357,9.97330349 3.42408169,10.4934118 L4.21114946,12.6784625 C4.44703023,12.2408151 4.71728844,11.8210397 5.01959883,11.4227778 C6.87808677,8.97441691 9.81143191,7.5 12.9947696,7.5 C16.1781073,7.5 19.1114524,8.97441691 20.9699403,11.4227778 C21.6208291,12.2802549 22.1231363,13.2374601 22.4536541,14.258049 C22.6186774,14.7676158 22.3290362,15.3112144 21.8067225,15.4722103 C21.2844087,15.6332062 20.727212,15.3506336 20.5621887,14.8410668 C20.2981324,14.0257008 19.8965902,13.2605152 19.3758379,12.5744792 C17.8875557,10.613825 15.542718,9.43521557 12.9947696,9.43521557 C10.4468212,9.43521557 8.1019835,10.613825 6.61370121,12.5744792 C6.31773631,12.9643816 6.06027766,13.3798503 5.84468032,13.815567 L5.84468032,13.815567 Z"/>
</svg>
