<svg width="24" height="19" viewBox="0 0 24 19" fill="none" xmlns="http://www.w3.org/2000/svg">
<path d="M19.4663 0.206207C19.7674 -0.0782015 20.2415 -0.064658 20.5259 0.236481C20.8102 0.537623 20.7967 1.01167 20.4956 1.29605L18.8169 2.88004C21.4509 3.29188 23.4661 5.56799 23.4663 8.31363C23.4661 11.3508 21.0001 13.8133 17.9585 13.8136H16.4565C15.0249 13.8136 13.6872 13.2084 12.7446 12.1701C12.3738 11.7608 12.4053 11.1287 12.8149 10.758C13.2247 10.3876 13.8577 10.4185 14.229 10.8273C14.7958 11.4516 15.5963 11.8136 16.4565 11.8136H17.9585C19.8939 11.8133 21.4632 10.2462 21.4634 8.31363C21.4632 6.38101 19.8939 4.81394 17.9585 4.81363H16.771L14.1899 7.25113H17.2407C17.7933 7.25154 18.2415 7.69929 18.2417 8.25113C18.2413 8.80286 17.7933 9.25072 17.2407 9.25113H12.0728L2.49561 18.2961C2.19448 18.5801 1.72035 18.5667 1.43604 18.2658C1.15173 17.9647 1.16548 17.4906 1.46631 17.2062L19.4663 0.206207ZM7.01025 2.75113C8.44164 2.75124 9.77869 3.35563 10.7212 4.39371C11.0922 4.80285 11.0613 5.43598 10.6519 5.80679C10.2423 6.17711 9.60921 6.14585 9.23779 5.73746C8.67108 5.11322 7.87041 4.75124 7.01025 4.75113H5.5083C3.57261 4.75116 2.00364 6.31834 2.00342 8.25113C2.00376 10.0749 3.40106 11.5725 5.18506 11.7355L3.46729 13.3586C1.43654 12.5485 0.000761994 10.568 0.000488281 8.25113C0.000709422 5.21377 2.46642 2.75116 5.5083 2.75113H7.01025ZM7.81689 9.25113H6.7251C6.17222 9.25113 5.7235 8.80311 5.72314 8.25113C5.72337 7.69903 6.17213 7.25113 6.7251 7.25113H9.93408L7.81689 9.25113Z" fill="black"/>
</svg>
