<svg width="24" height="20" viewBox="0 0 24 20" fill="none" xmlns="http://www.w3.org/2000/svg">
<path d="M20.4863 0.753128C20.7875 0.468721 21.2615 0.482269 21.5459 0.783401C21.8301 1.08455 21.8167 1.55862 21.5156 1.84297L18.7842 4.42207C18.7926 4.42335 18.8011 4.42467 18.8096 4.42598L16.7617 6.36055H16.7324L14.1514 8.79805H14.1807L12.0635 10.798H12.0342L3.51562 18.843C3.21454 19.1272 2.74043 19.1136 2.45605 18.8127C2.1717 18.5116 2.18535 18.0376 2.48633 17.7531L20.4863 0.753128ZM19.9434 4.73067C22.0038 5.52636 23.4657 7.5223 23.4658 9.86055C23.4657 12.898 20.9999 15.3604 17.958 15.3605H16.4561C15.0243 15.3605 13.6868 14.7555 12.7441 13.717C12.3732 13.3078 12.4048 12.6756 12.8145 12.3049C13.2242 11.9343 13.8571 11.9653 14.2285 12.3742C14.7953 12.9987 15.5957 13.3605 16.4561 13.3605H17.958C19.8937 13.3604 21.4628 11.7934 21.4629 9.86055C21.4628 8.01134 20.0265 6.49797 18.207 6.37032L19.9434 4.73067ZM7.00977 4.29805C8.44134 4.29805 9.77811 4.90239 10.7207 5.94063C11.0921 6.34981 11.0611 6.98282 10.6514 7.35371C10.2417 7.72411 9.60868 7.69307 9.2373 7.28438C8.6705 6.65998 7.87012 6.29805 7.00977 6.29805H5.50781C3.57206 6.29808 2.00304 7.86517 2.00293 9.79805C2.00314 11.622 3.40048 13.1194 5.18457 13.2824L3.46582 14.9055C1.43541 14.0952 0.000171064 12.1147 0 9.79805C0.000111477 6.7606 2.46586 4.29808 5.50781 4.29805H7.00977ZM7.81641 10.798H6.72461C6.17165 10.798 5.72288 10.3501 5.72266 9.79805C5.72277 9.24586 6.17158 8.79805 6.72461 8.79805H9.93359L7.81641 10.798ZM17.2402 8.79805C17.7931 8.79825 18.2411 9.24598 18.2412 9.79805C18.241 10.35 17.793 10.7978 17.2402 10.798H13.5205L15.6377 8.79805H17.2402Z" fill="black"/>
</svg>
