<svg width="24" height="20" viewBox="0 0 24 20" fill="none" xmlns="http://www.w3.org/2000/svg">
<path d="M18.4392 4.81372C21.4812 4.81383 23.947 7.27622 23.947 10.3137C23.947 13.3512 21.4811 15.8136 18.4392 15.8137H16.9373C15.5055 15.8137 14.168 15.2087 13.2253 14.1702C12.8543 13.7609 12.886 13.1288 13.2957 12.7581C13.7055 12.3874 14.3383 12.4183 14.7097 12.8274C15.2765 13.4519 16.0768 13.8137 16.9373 13.8137H18.4392C20.3749 13.8136 21.944 12.2466 21.9441 10.3137C21.9441 8.38079 20.375 6.81383 18.4392 6.81372H16.9373C16.0768 6.81372 15.2765 7.17558 14.7097 7.80005C14.3384 8.20898 13.7054 8.23991 13.2957 7.86938C12.8858 7.49849 13.3568 6.91044 13.7283 6.50122C14.6708 5.46286 15.5056 4.81372 16.9373 4.81372H18.4392ZM7.49097 4.75122C8.9226 4.75122 10.2593 5.35549 11.2019 6.3938C11.5733 6.80302 11.5424 7.43599 11.1326 7.80688C10.7229 8.17731 10.0899 8.14628 9.71851 7.73755C9.15169 7.11308 8.35137 6.75122 7.49097 6.75122H5.98901C4.05319 6.75125 2.48413 8.31824 2.48413 10.2512C2.48433 12.184 4.05331 13.7512 5.98901 13.7512H7.49097C8.35137 13.7512 9.15169 13.3894 9.71851 12.7649C10.0899 12.3557 10.3322 11.9216 10.7419 12.2922C10.1349 12.8643 7.20718 15.7512 7.00562 15.7512H5.98901C2.94712 15.7512 0.481399 13.2886 0.481201 10.2512C0.481201 7.21367 2.94699 4.75125 5.98901 4.75122H7.49097ZM17.7214 9.25122C18.2744 9.25142 18.7224 9.69906 18.7224 10.2512C18.7222 10.8032 18.2742 11.251 17.7214 11.2512H7.20581C6.65283 11.2512 6.20406 10.8033 6.20386 10.2512C6.20386 9.69894 6.65271 9.25122 7.20581 9.25122H17.7214Z" fill="black"/>
<path d="M1.81201 18.7507L19.812 1.75073" stroke="white" stroke-width="2" stroke-linecap="round" stroke-linejoin="round"/>
<path d="M3.48218 18.7507L21.4822 1.75073" stroke="black" stroke-width="1.5" stroke-linecap="round" stroke-linejoin="round"/>
</svg>
