<?xml version="1.0" encoding="UTF-8"?>
<svg width="24px" height="24px" viewBox="0 0 24 24" version="1.1" xmlns="http://www.w3.org/2000/svg" xmlns:xlink="http://www.w3.org/1999/xlink">
    <!-- Generator: Sketch 54.1 (76490) - https://sketchapp.com -->
    <title>bell copy 44</title>
    <desc>Created with Sketch.</desc>
    <g id="Icons" stroke="none" stroke-width="1" fill="none" fill-rule="evenodd">
        <path d="M16.2426301,2.25735991 C18.5857733,4.60050313 18.5857733,8.39949687 16.2426301,10.7426401 C13.8994869,13.0857833 10.1004931,13.0857833 7.75734991,10.7426401 C5.4142067,8.39949687 5.4142067,4.60050313 7.75734991,2.25735991 C10.1004931,-0.0857833047 13.8994869,-0.0857833047 16.2426301,2.25735991 Z M15.1819699,3.31802009 C13.4246131,1.5606633 10.5753669,1.5606633 8.81801009,3.31802009 C7.0606533,5.07537687 7.0606533,7.92462313 8.81801009,9.68197991 C10.5753669,11.4393367 13.4246131,11.4393367 15.1819699,9.68197991 C16.9393267,7.92462313 16.9393267,5.07537687 15.1819699,3.31802009 Z M3.02540958,23.0681141 C2.99450314,23.481173 2.63459811,23.7909688 2.2215392,23.7600624 C1.80848028,23.729156 1.49868449,23.3692509 1.52959093,22.956192 C1.54951632,22.6898929 1.57946309,22.4252481 1.61930562,22.1626644 C1.70079895,21.6255794 1.82357105,21.0979197 1.98613202,20.5833988 C2.33598011,19.4760964 2.86770517,18.4374842 3.55678679,17.5069834 C5.52455772,14.8498054 8.62968626,13.2500015 11.9999999,13.2500015 C15.3703135,13.250001 18.4754419,14.8498048 20.4432129,17.5069832 C21.1322945,18.4374841 21.6640195,19.4760962 22.0138677,20.5833987 C22.1764287,21.0979196 22.2992008,21.6255793 22.3806942,22.1626643 C22.4205367,22.4252481 22.4504835,22.6898928 22.470409,22.9561919 C22.5013154,23.3692508 22.1915197,23.7291559 21.7784608,23.7600624 C21.3654019,23.7909689 21.0054968,23.4811731 20.9745903,23.0681142 C20.9574985,22.8396862 20.9318209,22.6127688 20.8976688,22.3876879 C20.8278631,21.9276314 20.7227388,21.4758197 20.5835581,21.0352998 C20.2839675,20.0870671 19.82844,19.1972908 19.2377666,18.3996753 C17.549942,16.1205224 14.889838,14.750001 12,14.7500015 C9.1101619,14.7500015 6.45005762,16.1205229 4.76223303,18.3996756 C4.17155956,19.1972911 3.71603215,20.0870672 3.4164416,21.0352998 C3.27726097,21.4758197 3.17213664,21.9276314 3.10233106,22.3876878 C3.06817893,22.6127688 3.04250133,22.8396862 3.02540958,23.0681141 Z" id="Shape" fill="#000000" fill-rule="nonzero"></path>
    </g>
</svg>