<svg xmlns="http://www.w3.org/2000/svg" width="24" height="25" viewBox="0 0 24 25">
  <path d="M15.6461186,12.7157539 L15.6461187,12.7157539 C18.2504187,10.6667739 18.7005887,6.89455389 16.6516187,4.29025389 C14.6026387,1.68595389 10.8304187,1.23578389 8.22611867,3.28475389 C5.62181867,5.33373389 5.17164867,9.10595389 7.22061867,11.7102539 C7.51474167,12.0840909 7.85227667,12.4216269 8.22611867,12.7157539 L8.22611918,12.7157537 C4.80321918,14.0871037 2.41273918,17.2308537 2.00611918,20.8957537 L2.00611917,20.8957538 C1.94536787,21.4480388 2.34383417,21.9450038 2.89611917,22.0057538 C3.44840417,22.0665051 3.94536917,21.6680388 4.00611917,21.1157538 L4.00611887,21.1157564 C4.49932387,16.7250964 8.45847887,13.5655764 12.8491489,14.0587864 C16.5602589,14.4756564 19.4892489,17.4046464 19.9061189,21.1157564 L19.9061188,21.115756 C19.9624337,21.624691 20.3940868,22.008862 20.9061188,22.005756 L21.0161188,22.005756 L21.0161189,22.005756 C21.5617599,21.9429739 21.9546429,21.45187 21.8961189,20.905756 L21.8961187,20.9057538 C21.4875357,17.2300638 19.0836287,14.0799838 15.6461187,12.7157538 L15.6461186,12.7157539 Z M11.9361185,12.0057539 L11.9361185,12.0057539 C9.72697845,12.0057538 7.93611845,10.2148939 7.93611845,8.00575392 C7.93611855,5.79661392 9.72697845,4.00575392 11.9361185,4.00575392 C14.1452585,4.00575402 15.9361185,5.79661392 15.9361185,8.00575392 L15.9361185,8.00575392 C15.9361185,10.2148937 14.1452585,12.0057537 11.9361185,12.0057539 L11.9361185,12.0057539 Z"/>
</svg>
