<?xml version="1.0" encoding="UTF-8"?>
<svg width="24px" height="24px" viewBox="0 0 24 24" version="1.1" xmlns="http://www.w3.org/2000/svg" xmlns:xlink="http://www.w3.org/1999/xlink">
    <title>video-g</title>
    <g id="Icons" stroke="none" stroke-width="1" fill="none" fill-rule="evenodd">
      <g fill="#000000" fill-rule="nonzero" id="Shape">
        <path fill-rule="evenodd" clip-rule="evenodd" d="M2 8C2 6.89543 2.89543 6 4 6H13.913C15.0175 6 15.913 6.89543 15.913 8V9.69084L18.8935 7.71187C20.2229 6.82924 21.9998 7.78237 21.9998 9.37805V14.6225C21.9998 16.2182 20.2229 17.1714 18.8935 16.2887L15.913 14.3097V16C15.913 17.1046 15.0175 18 13.913 18H4C2.89543 18 2 17.1046 2 16V8ZM4 9C4 8.44772 4.44772 8 5 8H13C13.5523 8 14 8.44772 14 9V15C14 15.5523 13.5523 16 13 16H5C4.44772 16 4 15.5523 4 15V9ZM16.5928 12.4109C16.3058 12.2121 16.3058 11.7878 16.5928 11.5889L18.9649 9.94556C19.2965 9.71582 19.7496 9.95315 19.7496 10.3566V13.6433C19.7496 14.0467 19.2965 14.2841 18.9649 14.0543L16.5928 12.4109Z" />
      </g>
    </g>
</svg>