<svg xmlns="http://www.w3.org/2000/svg" width="25" height="24" viewBox="0 0 25 24">
  <path d="M11.3544928,0.771935538 C12.6676135,0.12693609 14.254978,0.668544304 14.9000966,1.98189275 L24.0491089,20.1013008 C24.2105373,20.4296896 24.2943642,20.7907741 24.2941214,21.156698 C24.2932419,22.4759607 23.2230596,23.5447235 21.9044602,23.5438483 L3.14095157,23.5438481 C2.77502934,23.5440915 2.41394251,23.4602642 2.08555758,23.2988366 C0.901608595,22.7168373 0.41363611,21.285249 0.995390962,20.1018059 L10.1447665,1.98165935 C10.4031098,1.45571894 10.8285474,1.0302813 11.3544928,0.771935538 Z M11.1799838,18.3426101 C11.1799838,19.0839925 11.7809926,19.6850014 12.5223751,19.6850014 C13.2637575,19.6850014 13.8647664,19.0839925 13.8647664,18.3426101 C13.8647664,17.6014339 13.2640918,17.0005532 12.5229804,17.000219 C11.7807058,17.0005057 11.1799838,17.6014046 11.1799838,18.3426101 Z M13.5223751,14 L13.5223751,8.50021896 C13.5223751,7.94793421 13.0746598,7.50021896 12.5223751,7.50021896 C11.9700903,7.50021896 11.5223751,7.94793421 11.5223751,8.50021896 L11.5223751,14 C11.5223751,14.5522847 11.9700903,15 12.5223751,15 C13.0746598,15 13.5223751,14.5522847 13.5223751,14 Z"/>
</svg>
