<svg xmlns="http://www.w3.org/2000/svg" width="25" height="24" viewBox="0 0 25 24">
  <path d="M11.1799838,18.3426101 C11.1799838,17.6014046 11.7807058,17.0005057 12.5229804,17.000219 C13.2640918,17.0005532 13.8647664,17.6014339 13.8647664,18.3426101 C13.8647664,19.0839925 13.2637575,19.6850014 12.5223751,19.6850014 C11.7809926,19.6850014 11.1799838,19.0839925 11.1799838,18.3426101 Z M13.5223751,14.348045 C13.5223751,14.9003298 13.0746598,15.348045 12.5223751,15.348045 C11.9700903,15.348045 11.5223751,14.9003298 11.5223751,14.348045 L11.5223751,8.50021896 C11.5223751,7.94793421 11.9700903,7.50021896 12.5223751,7.50021896 C13.0746598,7.50021896 13.5223751,7.94793421 13.5223751,8.50021896 L13.5223751,14.348045 Z M11.3544928,0.771935538 C12.6676135,0.12693609 14.254978,0.668544304 14.9000966,1.98189275 L24.0491089,20.1013008 C24.2105373,20.4296896 24.2943642,20.7907741 24.2941214,21.156698 C24.2932419,22.4759607 23.2230596,23.5447235 21.9044602,23.5438483 L3.14095157,23.5438481 C2.77502934,23.5440915 2.41394251,23.4602642 2.08555758,23.2988366 C0.901608595,22.7168373 0.41363611,21.285249 0.995390962,20.1018059 L10.1447665,1.98165935 C10.4031098,1.45571894 10.8285474,1.0302813 11.3544928,0.771935538 Z M22.2540006,20.9831091 L13.1048106,2.86333941 C12.9467652,2.5417096 12.5579264,2.4090629 12.2362589,2.56706465 C12.1074102,2.63035549 12.003184,2.73458168 11.9400078,2.86319694 L2.79049894,20.9836148 C2.69578465,21.1762888 2.77519624,21.4092624 2.9678706,21.5039762 C3.02131107,21.5302465 3.08007271,21.5438882 3.14028632,21.5438483 L21.9051238,21.5438486 C22.1198185,21.543991 22.2939787,21.3700619 22.2941218,21.1553678 C22.2941613,21.0958182 22.2805195,21.037056 22.2540006,20.9831091 Z"/>
</svg>
