<svg xmlns="http://www.w3.org/2000/svg" width="24" height="24" viewBox="0 0 24 24">
  <path d="M16.5,16.498 L10.5,16.498 C9.67157644,16.498 9,15.8264236 9,14.998 L9,11.998 C9,11.1695764 9.67157644,10.498 10.5,10.498 L13.5,10.498 L13.5,9.74800006 C13.5,9.33378638 13.1642135,8.99799987 12.75,8.998 L8.24999979,8.998 C7.00735931,8.99799966 5.99999981,7.99064022 6,6.748 L6,5.998 L1.5,5.998 C0.671576438,5.998 0,5.32642356 0,4.498 L0,1.498 C0,0.669576438 0.671576438,-0.002 1.5,-0.002 L13.5,-0.002 C14.3284236,-0.002 15,0.669576438 15,1.498 L15,4.498 C15,5.32642356 14.3284236,5.998 13.5,5.998 L7.5,5.998 L7.5,6.74800011 C7.49999994,7.16221324 7.83578661,7.49799989 8.25,7.498 L12.7499998,7.498 C13.9926404,7.49799961 14.9999999,8.50535914 15,9.748 L15,10.498 L22.5,10.498 C23.3284236,10.498 24,11.1695764 24,11.998 L24,14.998 C24,15.8264236 23.3284236,16.498 22.5,16.498 L18,16.498 L18,17.998 L22.5,17.998 C23.3284236,17.998 24,18.6695764 24,19.498 L24,22.498 C24,23.3264236 23.3284236,23.998 22.5,23.998 L10.5,23.998 C9.67157644,23.998 9,23.3264236 9,22.498 L9,19.498 C9,18.6695764 9.67157644,17.998 10.5,17.998 L16.5,17.998 L16.5,16.498 Z M17.1948068,19.498 L10.5,19.498 L10.5,22.498 L22.5,22.498 L22.5,19.498 L17.3051932,19.498 C17.2869684,19.4993256 17.268563,19.5 17.25,19.5 C17.231437,19.5 17.2130316,19.4993256 17.1948068,19.498 Z M10.5,14.998 L22.5,14.998 L22.5,11.998 L10.5,11.998 L10.5,14.998 Z M1.5,4.498 L13.5,4.498 L13.5,1.498 L1.5,1.498 L1.5,4.498 Z"/>
</svg>
