<?xml version="1.0" encoding="UTF-8"?>
<svg width="24px" height="24px" viewBox="0 0 24 24" version="1.1" xmlns="http://www.w3.org/2000/svg" xmlns:xlink="http://www.w3.org/1999/xlink">
    <title>wound</title>
    <g id="Icons" stroke="none" stroke-width="1" fill="none" fill-rule="evenodd">
        <g transform="translate(-3457, -74)" fill="#000000" fill-rule="nonzero" id="Shape">
            <path d="M3468.1892,74.5 C3470.1592,74.5 3471.7492,76.1000466 3471.7592,78.0700466 L3471.7592,84.3600466 L3472.4192,84.3600466 C3475.9342,84.3600466 3478.7942,87.2050466 3478.7942,90.7350466 L3478.7942,96.3600466 C3478.7942,96.7700466 3478.4542,97.1100466 3478.0442,97.1100466 C3477.6242,97.1100466 3477.2942,96.7700466 3477.2942,96.3600466 L3477.2942,90.7350466 C3477.2942,88.0400466 3475.1092,85.8600466 3472.4192,85.8600466 L3471.0192,85.8600466 C3470.5992,85.8600466 3470.2692,85.5200466 3470.2692,85.1100466 L3470.269,84.49 L3466.149,84.49 L3466.1492,89.3400466 C3466.1492,90.0100466 3465.3392,90.3500466 3464.8692,89.8800466 L3463.4992,88.5100466 C3462.8292,87.8500466 3461.7592,87.8500466 3461.0892,88.5100466 C3460.3992,89.1800466 3460.3892,90.2700466 3461.0492,90.9600466 L3465.924,95.8349538 L3465.9411,95.8558242 C3466.13523,96.124269 3466.13523,96.4858242 3465.9411,96.754269 L3465.8692,96.8400466 C3465.5692,97.1300466 3465.0992,97.1300466 3464.8092,96.8400466 L3459.9092,91.9400466 C3458.6692,90.6600466 3458.6992,88.6100466 3459.9892,87.3700466 C3461.2492,86.1500466 3463.2392,86.1500466 3464.5092,87.3800466 L3464.6192,87.4932683 L3464.619,82.8159538 L3461.5192,84.3700466 C3461.18003,84.5442133 3460.77364,84.4326855 3460.56962,84.1278938 L3460.5192,84.0400466 C3460.3292,83.6700466 3460.4792,83.2200466 3460.8592,83.0400466 L3463.71847,81.6171848 L3460.8692,80.1900466 L3460.8292,80.1300466 C3460.4592,79.9500466 3460.3092,79.5000466 3460.4992,79.1300466 C3460.6792,78.7600466 3461.1292,78.6100466 3461.5092,78.8000466 L3464.619,80.3549538 L3464.6192,78.0600466 C3464.6192,76.153595 3466.11764,74.5936574 3467.99975,74.504021 L3468.1892,74.5 Z M3470.269,80.27 L3466.149,80.27 L3466.149,82.99 L3470.269,82.99 L3470.269,80.27 Z M3468.2092,76.0200466 C3467.0692,76.0200466 3466.1492,76.9500466 3466.1492,78.0900466 L3466.149,78.77 L3470.269,78.77 L3470.2692,78.0800466 C3470.2692,76.9400466 3469.3392,76.0200466 3468.2092,76.0200466 Z"></path>
        </g>
    </g>
</svg>