<?xml version="1.0" encoding="UTF-8"?>
<svg width="24px" height="24px" viewBox="0 0 24 24" version="1.1" xmlns="http://www.w3.org/2000/svg" xmlns:xlink="http://www.w3.org/1999/xlink">
    <title>wound-g</title>
    <g id="Icons" stroke="none" stroke-width="1" fill="none" fill-rule="evenodd">
        <g transform="translate(-3483, -74)" fill="#000000" fill-rule="nonzero" id="task-finger-bandage">
            <g transform="translate(3485, 74.5)">
                <path d="M9.44549632,4.32580803e-05 C11.5554963,4.32580803e-05 13.2554963,1.7100869 13.2654963,3.8200869 L13.2654963,9.8600869 L13.6754963,9.8600869 C17.3304963,9.8600869 20.3004963,12.8250869 20.3004963,16.4850869 L20.3004963,22.1100869 C20.3004963,22.6600869 19.8504963,23.1100869 19.3004963,23.1100869 C18.7404963,23.1100869 18.3004963,22.6600869 18.3004963,22.1100869 L18.3004963,16.4850869 C18.3004963,13.9300869 16.2254963,11.8600869 13.6754963,11.8600869 L12.2754963,11.8600869 C11.7154963,11.8600869 11.2754963,11.4100869 11.2754963,10.8600869 L11.275,6.26 L7.655,6.26 L7.65549632,15.0900869 C7.65549632,15.9413912 6.66736778,16.3901247 6.03884801,15.8761886 L5.95549632,15.8000869 L4.59549632,14.4300869 C4.02549632,13.8700869 3.10549632,13.8700869 2.53549632,14.4300869 C1.94549632,15.0100869 1.93549632,15.9500869 2.49549632,16.5300869 L7.39549632,21.4300869 L7.28549632,21.3400869 C7.67549632,21.7300869 7.67549632,22.3600869 7.28549632,22.7600869 C6.89549632,23.1500869 6.26549632,23.1500869 5.87549632,22.7600869 L0.975496324,17.8600869 C-0.354503676,16.4800869 -0.324503676,14.2700869 1.06549632,12.9400869 C2.42549632,11.6300869 4.84563486,12.0953084 5.62549632,12.6912054 L5.625,8.972 L2.89549632,10.3400869 C2.43121061,10.5722298 1.88070041,10.4163624 1.61226746,10.0005898 L1.55549632,9.9000869 C1.30549632,9.4000869 1.50549632,8.8000869 2.00549632,8.5600869 L4.42715086,7.35499815 L2.01549632,6.1500869 L1.97549632,6.1100869 C1.48549632,5.8600869 1.28549632,5.2600869 1.53549632,4.7700869 C1.78549632,4.2800869 2.38549632,4.0800869 2.88549632,4.3300869 L5.625,5.7 L5.62549632,3.8100869 C5.62549632,1.7660244 7.23029125,0.0973525202 9.24889568,0.00410850185 L9.44549632,4.32580803e-05 Z M9.46549632,2.0200869 C8.46549632,2.0200869 7.65549632,2.8300869 7.65549632,3.8400869 L7.655,4.26 L11.275,4.26 L11.2754963,3.8300869 C11.2754963,2.8800869 10.5444713,2.1015619 9.61399382,2.0260844 L9.46549632,2.0200869 Z" id="Shape"></path>
                <path d="M11.7061111,8.4800869 L7.27988157,8.4800869 C6.83922583,8.4800869 6.49299632,8.9200869 6.49299632,9.4800869 C6.49299632,10.0300869 6.83922583,10.4800869 7.27988157,10.4800869 L11.7061111,10.4800869 C12.138898,10.4800869 12.4929963,10.0300869 12.4929963,9.4800869 C12.4929963,8.9200869 12.138898,8.4800869 11.7061111,8.4800869 Z" id="Path"></path>
            </g>
        </g>
    </g>
</svg>