<svg xmlns="http://www.w3.org/2000/svg" width="24" height="24" viewBox="0 0 24 24">
  <path d="M7.73595261,2.40459546 C3.87758649,4.12059228 1.28220355,8.08286373 1.51639654,12.5515323 C1.81989235,18.3425773 6.7604873,22.7911089 12.5515323,22.4876131 C12.9669428,22.4658424 13.3754451,22.4202107 13.7757809,22.3521158 C13.2178926,22.0657841 12.6955712,21.7076165 12.222884,21.2839065 C9.27685721,18.631292 8.97562311,14.0411031 11.3953976,10.5439877 C12.875478,8.47792379 12.6270658,5.64105303 10.8330901,3.88493891 L10.7816992,3.83866568 C9.92785568,3.07160433 8.86835751,2.5736375 7.73595261,2.40459546 Z M10.2288818,1.6517828 C10.7881303,1.93889126 11.3115082,2.29822513 11.7847658,2.72338253 L11.8594448,2.79149018 C14.2051976,5.08655829 14.5259627,8.74970194 12.6218561,11.4074974 C10.6211316,14.2991377 10.8669265,18.0445477 13.2253386,20.168074 C14.0789816,20.9332654 15.13729,21.4301584 16.2682672,21.5993207 C20.1265174,19.8832735 22.7218019,15.9210648 22.4876131,11.4524774 C22.1841173,5.66143241 17.2435224,1.21290073 11.4524774,1.51639654 C11.0372928,1.53815545 10.6290088,1.58374934 10.2288818,1.6517828 L10.2288818,1.6517828 Z M11.3739735,0.0184522399 C17.9923102,-0.328400093 23.6387051,4.75563668 23.9855574,11.3739735 C24.3324098,17.9923102 19.248373,23.6387051 12.6300362,23.9855574 C6.01169944,24.3324098 0.365304573,19.248373 0.0184522399,12.6300362 C-0.328400093,6.01169944 4.75563668,0.365304573 11.3739735,0.0184522399 Z M7.38609757,4.99129207 C9.04068164,4.90457899 10.4522806,6.17558839 10.5389937,7.83017246 C10.6257067,9.48475654 9.35469734,10.8963555 7.70011327,10.9830686 C6.04552919,11.0697816 4.63393026,9.79877223 4.54721718,8.14418816 C4.4605041,6.48960409 5.7315135,5.07800515 7.38609757,4.99129207 Z M7.62160933,9.48512425 C8.44890161,9.4417677 9.08440591,8.73596868 9.04104936,7.9086764 C8.99769281,7.08138412 8.29189378,6.44587982 7.4646015,6.48923637 C6.63730922,6.53259292 6.00180493,7.23839195 6.04516148,8.06568423 C6.08851803,8.89297651 6.79431705,9.5284808 7.62160933,9.48512425 Z M16.3038429,13.020866 C17.958427,12.934153 19.3700259,14.2051624 19.456739,15.8597464 C19.5434521,17.5143305 18.2724427,18.9259294 16.6178586,19.0126425 C14.9632745,19.0993556 13.5516756,17.8283462 13.4649625,16.1737621 C13.3782494,14.5191781 14.6492588,13.1075791 16.3038429,13.020866 Z M16.5393547,17.5146982 C17.366647,17.4713417 18.0021512,16.7655426 17.9587947,15.9382504 C17.9154381,15.1109581 17.2096391,14.4754538 16.3823468,14.5188103 C15.5550546,14.5621669 14.9195503,15.2679659 14.9629068,16.0952582 C15.0062634,16.9225505 15.7120624,17.5580548 16.5393547,17.5146982 Z"/>
</svg>
