<svg xmlns="http://www.w3.org/2000/svg" width="24" height="24" viewBox="0 0 24 24">
  <path d="M15.8620751,2.79457739 C16.0381278,2.85931209 16.2107829,2.93293839 16.3793721,3.01517136 C21.1498414,5.33811299 23.2732943,10.9842012 21.2158704,15.87506 C19.0757539,20.9624932 13.2166792,23.3517733 8.1292465,21.211657 C7.95319376,21.1469222 7.78053869,21.0732959 7.61194841,20.9910626 C2.8414791,18.668121 0.718027093,13.0220332 2.7754501,8.13117398 C4.91556656,3.04374076 10.7746404,0.654462479 15.8620751,2.79457739 Z M4.7955646,8.51612332 C2.86692832,12.4844201 4.52039673,17.2648269 8.48869197,19.1934654 C10.2260609,20.0408368 12.3213988,19.3193541 13.1687701,17.5819852 C14.0161416,15.8446163 13.2946589,13.7492784 11.5572901,12.9019071 C11.0955528,12.6783906 10.6674684,12.3911948 10.2855476,12.0487136 C8.03073282,10.0267423 7.84197183,6.55972185 9.86394197,4.30490317 C7.64727118,4.91403658 5.80043515,6.44853759 4.7955646,8.51612332 Z M14.1273818,19.701321 C16.3440535,19.092188 18.1908888,17.5576866 19.1957592,15.4901008 C21.1243955,11.5218041 19.4709272,6.74139686 15.5026349,4.81275258 C13.7652626,3.96538826 11.6699248,4.68687098 10.8225567,6.42423273 C9.97518185,8.16160872 10.6966646,10.2569465 12.4340369,11.1043109 C12.8957709,11.3278346 13.3238553,11.6150304 13.7057761,11.9575116 C15.9605909,13.9794828 16.1493528,17.4465038 14.1273821,19.7013215 L14.1273818,19.701321 Z M8.79964124,15.5097099 C9.16279995,14.7651242 10.0608033,14.4559169 10.805389,14.8190756 C11.5499747,15.1822343 11.8591821,16.0802377 11.4960234,16.8248234 C11.1328647,17.5694091 10.2348613,17.8786164 9.49027559,17.5154577 C8.74568989,17.152299 8.43648256,16.2542956 8.79964124,15.5097099 Z M14.8871821,6.68894856 C15.6317678,7.05210733 15.9409751,7.9501107 15.5778164,8.69469635 C15.2146577,9.43928205 14.3166544,9.74848938 13.5720687,9.3853307 C12.827483,9.02217198 12.5182756,8.12416863 12.8814343,7.37958291 C13.244593,6.6349972 14.1425964,6.32578988 14.8871821,6.68894856 Z"/>
</svg>
