<?xml version="1.0" encoding="utf-8"?>
<!-- Generated by IcoMoon.io -->
<!DOCTYPE svg PUBLIC "-//W3C//DTD SVG 1.1//EN" "http://www.w3.org/Graphics/SVG/1.1/DTD/svg11.dtd">
<svg version="1.1" xmlns="http://www.w3.org/2000/svg" xmlns:xlink="http://www.w3.org/1999/xlink" width="24" height="24" viewBox="0 0 24 24">
<path fill="#555555" d="M12 1q2.242 0 4.277 0.871t3.508 2.344 2.344 3.508 0.871 4.277-0.871 4.277-2.344 3.508-3.508 2.344-4.277 0.871-4.277-0.871-3.508-2.344-2.344-3.508-0.871-4.277 0.871-4.277 2.344-3.508 3.508-2.344 4.277-0.871zM17.617 19.031l-12.648-12.648q-0.938 1.18-1.453 2.617t-0.516 3q0 1.828 0.715 3.496t1.918 2.871 2.871 1.918 3.496 0.715q1.57 0 3.008-0.512t2.609-1.457zM12 3q-1.57 0-3.008 0.512t-2.609 1.457l12.648 12.648q0.945-1.172 1.457-2.609t0.512-3.008q0-1.828-0.715-3.496t-1.918-2.871-2.871-1.918-3.496-0.715z"></path>
</svg>
