<?xml version="1.0" encoding="UTF-8"?>
<svg width="20px" height="22px" viewBox="0 0 20 22" version="1.1" xmlns="http://www.w3.org/2000/svg" xmlns:xlink="http://www.w3.org/1999/xlink">
    <!-- Generator: Sketch 46.2 (44496) - http://www.bohemiancoding.com/sketch -->
    <title>Combined Shape</title>
    <desc>Created with Sketch.</desc>
    <defs></defs>
    <g id="Page-1" stroke="none" stroke-width="1" fill="none" fill-rule="nonzero">
        <path d="M7,4 L7,5 C7,5.55228475 6.55228475,6 6,6 C5.44771525,6 5,5.55228475 5,5 L5,4 L3,4 C2.44772475,4 2,4.44772475 2,5 L2,8 L18,8 L18,5 C18,4.44772475 17.5522753,4 17,4 L15,4 L15,5 C15,5.55228475 14.5522847,6 14,6 C13.4477153,6 13,5.55228475 13,5 L13,4 L7,4 Z M7,2 L13,2 L13,1 C13,0.44771525 13.4477153,0 14,0 C14.5522847,0 15,0.44771525 15,1 L15,2 L17,2 C18.6568447,2 20,3.34315525 20,5 L20,19 C20,20.6568447 18.6568447,22 17,22 L3,22 C1.34315525,22 0,20.6568447 0,19 L0,5 C0,3.34315525 1.34315525,2 3,2 L5,2 L5,1 C5,0.44771525 5.44771525,0 6,0 C6.55228475,0 7,0.44771525 7,1 L7,2 Z M2,10 L2,19 C2,19.5522753 2.44772475,20 3,20 L17,20 C17.5522753,20 18,19.5522753 18,19 L18,10 L2,10 Z" id="Combined-Shape" fill="#000000" fill-rule="nonzero"></path>
    </g>
</svg>