<?xml version="1.0" encoding="utf-8"?>
<!-- Generated by IcoMoon.io -->
<!DOCTYPE svg PUBLIC "-//W3C//DTD SVG 1.1//EN" "http://www.w3.org/Graphics/SVG/1.1/DTD/svg11.dtd">
<svg version="1.1" xmlns="http://www.w3.org/2000/svg" xmlns:xlink="http://www.w3.org/1999/xlink" width="24" height="24" viewBox="0 0 24 24">
<path fill="#555555" d="M12 1q0.414 0 0.707 0.293t0.293 0.707v11.586l3.289-3.297q0.289-0.289 0.711-0.289 0.43 0 0.715 0.285t0.285 0.715q0 0.422-0.289 0.711l-5 5q-0.289 0.289-0.711 0.289t-0.711-0.289l-5-5q-0.289-0.305-0.289-0.711 0-0.414 0.293-0.707t0.707-0.293q0.422 0 0.711 0.289l3.289 3.297v-11.586q0-0.414 0.293-0.707t0.707-0.293zM22 15q0.414 0 0.707 0.293t0.293 0.707v4q0 1.25-0.867 2.117-0.883 0.883-2.109 0.883h-16.023q-1.227 0-2.125-0.875-0.875-0.898-0.875-2.125v-4q0-0.414 0.293-0.707t0.707-0.293 0.707 0.293 0.293 0.707v4q0 0.414 0.293 0.707t0.707 0.293h16.023q0.406 0 0.691-0.293t0.285-0.707v-4q0-0.414 0.293-0.707t0.707-0.293z"></path>
</svg>
