<?xml version="1.0" encoding="utf-8"?>
<!-- Generated by IcoMoon.io -->
<!DOCTYPE svg PUBLIC "-//W3C//DTD SVG 1.1//EN" "http://www.w3.org/Graphics/SVG/1.1/DTD/svg11.dtd">
<svg version="1.1" xmlns="http://www.w3.org/2000/svg" xmlns:xlink="http://www.w3.org/1999/xlink" width="24" height="24" viewBox="0 0 24 24">
<path fill="#555555" d="M12 3q1.633 0 3.176 0.496t2.707 1.289 2.191 1.754 1.727 1.922 1.211 1.754 0.754 1.285l0.234 0.5q-0.055 0.117-0.148 0.316t-0.441 0.813-0.742 1.211-1.039 1.406-1.332 1.508-1.629 1.41-1.93 1.207-2.223 0.813-2.516 0.316q-1.633 0-3.176-0.496t-2.707-1.285-2.191-1.742-1.727-1.91-1.211-1.746-0.754-1.289l-0.234-0.492q0.055-0.117 0.148-0.316t0.441-0.816 0.742-1.215 1.039-1.414 1.332-1.516 1.629-1.414 1.93-1.215 2.223-0.816 2.516-0.316zM12 5q-1.094 0-2.148 0.289t-1.902 0.746-1.656 1.105-1.398 1.277-1.145 1.352-0.883 1.238-0.617 1.031q0.289 0.508 0.617 1.020t0.883 1.227 1.145 1.336 1.398 1.262 1.656 1.094 1.902 0.738 2.148 0.285 2.148-0.289 1.902-0.742 1.656-1.098 1.398-1.27 1.145-1.344 0.883-1.234 0.617-1.023q-0.289-0.508-0.617-1.023t-0.883-1.234-1.145-1.344-1.398-1.27-1.656-1.098-1.902-0.742-2.148-0.289zM12 8q1.656 0 2.828 1.172t1.172 2.828-1.172 2.828-2.828 1.172-2.828-1.172-1.172-2.828 1.172-2.828 2.828-1.172zM12 10q-0.828 0-1.414 0.586t-0.586 1.414 0.586 1.414 1.414 0.586 1.414-0.586 0.586-1.414-0.586-1.414-1.414-0.586z"></path>
</svg>
