<?xml version="1.0" encoding="utf-8"?>
<!-- Generated by IcoMoon.io -->
<!DOCTYPE svg PUBLIC "-//W3C//DTD SVG 1.1//EN" "http://www.w3.org/Graphics/SVG/1.1/DTD/svg11.dtd">
<svg version="1.1" xmlns="http://www.w3.org/2000/svg" xmlns:xlink="http://www.w3.org/1999/xlink" width="24" height="24" viewBox="0 0 24 24">
<path fill="#555555" d="M12 1q2.156 0 4.18 0.82t3.602 2.398 2.398 3.602 0.82 4.18-0.82 4.18-2.398 3.602-3.602 2.398-4.18 0.82-4.18-0.82-3.602-2.398-2.398-3.602-0.82-4.18 0.82-4.18 2.398-3.602 3.602-2.398 4.18-0.82zM7.828 9.242l-2.859-2.859q-0.969 1.211-1.469 2.656t-0.5 2.961 0.5 2.961 1.469 2.656l2.859-2.859q-0.828-1.25-0.828-2.758t0.828-2.758zM17.617 19.031l-2.859-2.859q-1.25 0.828-2.758 0.828t-2.758-0.828l-2.859 2.859q1.211 0.969 2.656 1.469t2.961 0.5 2.961-0.5 2.656-1.469zM12 9q-1.242 0-2.121 0.879t-0.879 2.121 0.879 2.121 2.121 0.879 2.121-0.879 0.879-2.121-0.879-2.121-2.121-0.879zM12 3q-1.516 0-2.961 0.5t-2.656 1.469l2.859 2.859q1.25-0.828 2.758-0.828t2.758 0.828l2.859-2.859q-1.211-0.969-2.656-1.469t-2.961-0.5zM19.031 6.383l-2.859 2.859q0.828 1.25 0.828 2.758t-0.828 2.758l2.859 2.859q0.969-1.211 1.469-2.656t0.5-2.961-0.5-2.961-1.469-2.656z"></path>
</svg>
