<?xml version="1.0" encoding="UTF-8"?>
<svg version="1.1" viewBox="0 0 24 24" xmlns="http://www.w3.org/2000/svg" xmlns:xlink="http://www.w3.org/1999/xlink">
    <!--Generated by IJSVG (https://github.com/iconjar/IJSVG)-->
    <defs>
        <linearGradient id="a" x1="0.19581" x2="1.06218" y1="0.249566" y2="1">
            <stop offset="0%" stop-color="#A15BB6"></stop>
            <stop offset="100%" stop-color="#735ACC"></stop>
        </linearGradient>
        <path id="b" d="M8.70121,1.00449c-8.24658,2.47409 -10.1708,6.04771 -7.69672,14.2943c2.47409,8.24658 6.04771,10.1708 14.2943,7.69672c8.24658,-2.47409 10.1708,-6.04771 7.69672,-14.2943c-2.47409,-8.24658 -6.04771,-10.1708 -14.2943,-7.69672Z"></path>
    </defs>
    <g fill-rule="evenodd" fill="url(#a)" stroke="none">
        <use xlink:href="#b"></use>
        <use fill="rgba(113,94,184,0.29)" xlink:href="#b"></use>
        <path fill="#FFF" d="M6.5332,13.6108l-0.0313772,-0.363231c0,0 0,-0.861345 1.73727,-0.861346c0.420323,-2e-07 0.738952,0.0504207 0.980489,0.126864l0.177043,4.98136c-0.870237,-0.321396 -1.65399,-0.962893 -2.03119,-1.74914l-0.205665,-0.435123c-0.206467,-0.472766 -0.425189,-1.06833 -0.626563,-1.69938v0Z"></path>
        <path fill="#FFF" d="M17.6892,15.1125l0.158098,-1.86501c0,0 0,-0.861346 -1.73727,-0.861346c-0.418605,3e-07 -0.736345,0.05001 -0.977523,0.125929v0l-0.139344,4.2036c0.392985,-0.138164 0.757645,-0.27947 1.06903,-0.41546l0.435123,-0.205665c0.447668,-0.21477 0.856504,-0.561859 1.19188,-0.982043v0Z"></path>
        <path fill="#FFF" d="M14.051,17.024l0.170372,-5.13387c0,0 0,-1.01481 -2.0468,-1.01481c-2.0468,1.2e-06 -2.0468,1.01481 -2.0468,1.01481l0.206745,5.81709c0.18748,0.0155867 0.373797,0.0142833 0.555977,-0.0055411l0.474309,-0.0557126c0.755957,-0.0964264 1.74405,-0.335181 2.68619,-0.621966v0Z"></path>
        <path fill="#FFF" d="M8.13909,11.6713c0.659375,0 1.1939,-0.534529 1.1939,-1.1939c0,-0.659375 -0.534529,-1.1939 -1.1939,-1.1939c-0.659375,0 -1.1939,0.534529 -1.1939,1.1939c0,0.659375 0.534529,1.1939 1.1939,1.1939v0Z"></path>
        <path fill="#FFF" d="M16.1845,11.6713c0.659375,0 1.1939,-0.534529 1.1939,-1.1939c0,-0.659375 -0.534529,-1.1939 -1.1939,-1.1939c-0.659375,0 -1.1939,0.534529 -1.1939,1.1939c0,0.659375 0.534529,1.1939 1.1939,1.1939v0Z"></path>
        <path fill="#FFF" d="M12.1612,9.774c0.903588,0 1.63609,-0.732503 1.63609,-1.63609c0,-0.903588 -0.732503,-1.63609 -1.63609,-1.63609c-0.903588,0 -1.63609,0.732503 -1.63609,1.63609c0,0.903588 0.732503,1.63609 1.63609,1.63609v0Z"></path>
    </g>
</svg>