<?xml version="1.0" encoding="UTF-8"?>
<svg width="100px" height="100px" viewBox="0 0 100 100" version="1.1" xmlns="http://www.w3.org/2000/svg" xmlns:xlink="http://www.w3.org/1999/xlink">
    <!-- Generator: Sketch Beta 51 (57462) - http://www.bohemiancoding.com/sketch -->
    <title>Path 2 Copy 2</title>
    <desc>Created with Sketch Beta.</desc>
    <defs></defs>
    <g id="Biings-3" stroke="none" stroke-width="1" fill="none" fill-rule="evenodd">
        <path d="M48.603153,4.54035412 C35.0201614,-13.3782303 14.5301449,7.13164423 15.7499972,19.9696697 C16.9698495,32.8076951 24.3999777,31.7413765 24.3999777,41.1852253 C24.3999777,50.6290741 5.52244324,66.2913767 15.1752096,80.8143567 C35.5156352,111.417355 98.0549704,75.5120212 88.6076548,38.1647944 C79.1603392,0.817567573 62.1861446,22.4589386 48.603153,4.54035412 Z" id="Path-2-Copy-2" fill="#F6F5FA" transform="translate(50.999897, 44.929084) rotate(-86.000000) translate(-50.999897, -44.929084) "></path>
        <path d="M89.409982,67.7457137 L89.4098583,30.543753 C89.4098583,27.6595887 87.0688073,25.348773 84.1079252,25.3496872 L31.441329,25.3495297 C28.5722165,25.3495298 26.2463361,27.6754096 26.2463361,30.5445223 L26.2463361,67.751808 C26.2463357,70.6123717 28.5659555,72.9245133 31.4455654,72.9244566 L47.842694,72.9244661 L47.842694,84.5464521 C47.842694,84.8970501 48.2667331,85.0724618 48.5144126,84.8243211 L60.3921487,72.9244664 L60.599528,72.9244664 L84.1373681,72.9246038 C86.9922736,72.9915489 89.3392238,70.7108098 89.409982,67.7457137 Z" id="Shape" stroke="#585269" fill="#FFFFFF" fill-rule="nonzero"></path>
        <path d="M88.9098583,30.543753 C88.9098583,27.9372219 86.7941696,25.8488578 84.1079237,25.8496872 L31.4413291,25.8495297 C28.8483588,25.8495298 26.7463361,27.951552 26.7463361,30.5445223 L26.7463361,31.7518048 L88.909926,31.751609 L88.9098583,30.543753 Z" id="Shape" fill="#E9E8EC" fill-rule="nonzero"></path>
        <path d="M40.0396511,46.7353216 C39.5462774,46.7353216 39.1463189,46.3353632 39.1463189,45.8419894 C39.1463189,45.3486157 39.5462774,44.9486572 40.0396511,44.9486572 L65.6559516,44.9486572 C66.1493253,44.9486572 66.5492837,45.3486157 66.5492837,45.8419894 C66.5492837,46.3353632 66.1493253,46.7353216 65.6559516,46.7353216 L40.0396511,46.7353216 Z" id="Shape" fill="#DCD6F2" fill-rule="nonzero"></path>
        <path d="M40.0396511,53.435313 C39.5462774,53.435313 39.1463189,53.0353546 39.1463189,52.5419808 C39.1463189,52.0486071 39.5462774,51.6486486 40.0396511,51.6486486 L75.1029394,51.6486486 C75.5963132,51.6486486 75.9962716,52.0486071 75.9962716,52.5419808 C75.9962716,53.0353546 75.5963132,53.435313 75.1029394,53.435313 L40.0396511,53.435313 Z" id="path-3" fill="#FFDA9E" fill-rule="nonzero"></path>
        <path d="M40.0396511,60.1353044 C39.5462774,60.1353044 39.1463189,59.735346 39.1463189,59.2419722 C39.1463189,58.7485985 39.5462774,58.34864 40.0396511,58.34864 L75.1029394,58.34864 C75.5963132,58.34864 75.9962716,58.7485985 75.9962716,59.2419722 C75.9962716,59.735346 75.5963132,60.1353044 75.1029394,60.1353044 L40.0396511,60.1353044 Z" id="path-3" fill="#F5A1A7" fill-rule="nonzero"></path>
        <path d="M11.613821,39.5353302 L25.7442125,39.5353302 L32.7756657,46.5667834 C33.0234511,46.8145688 33.4471257,46.6390771 33.4471257,46.2886555 L33.4471257,39.5353302 L42.9876474,39.5353302 C44.7738078,39.5353302 46.221776,38.087362 46.221776,36.3012017 L46.221776,14.2894966 C46.221776,12.5033363 44.7738077,11.055368 42.9876475,11.0553681 L11.759867,11.0553584 C9.97489781,11.0664706 8.53373673,12.5060961 8.52265205,14.286942 L8.37971122,36.2954048 C8.3796949,38.0865841 9.82688284,39.5353301 11.613821,39.5353302 Z" id="Shape-Copy-6" stroke="#585269" fill="#FFFFFF" fill-rule="nonzero"></path>
        <path d="M28.655301,19.605396 L28.6418486,19.6205001 L27.5041404,20.8470123 L27.1385368,20.4318434 L26.3998023,19.5927771 C25.0583734,18.0006329 22.6709747,17.7358608 20.9975267,18.9942421 C19.7718169,19.9426583 19.0716549,21.396038 19.1005958,22.942002 C19.0819663,24.60607 19.7652857,26.2265427 20.9774051,27.3941978 L27.2294732,33.177422 C27.3795758,33.3162624 27.6110227,33.316943 27.7619393,33.1789877 L34.0509671,27.4302559 C35.2913584,26.2440338 35.9799807,24.6230325 35.9655909,22.9168092 C35.9943459,21.4090207 35.2930403,19.9561875 34.084235,19.0206866 C32.3964396,17.7546667 30.0171893,18.0125738 28.655301,19.605396 Z" id="path-5-copy" stroke="#585269" fill="#F5A1A7" fill-rule="nonzero"></path>
    </g>
</svg>