<?xml version="1.0" encoding="UTF-8"?>
<svg version="1.1" viewBox="0 0 101 100" xmlns="http://www.w3.org/2000/svg" xmlns:xlink="http://www.w3.org/1999/xlink">
    <!--Generated by IJSVG (https://github.com/iconjar/IJSVG)-->
    <g transform="matrix(1,0,0,1,-516,-100)">
        <g transform="matrix(1,0,0,1,567,146.786)">
            <g transform="matrix(0.0697565,-0.997564,0.997564,0.0697565,0,0)">
                <path fill="#F6F5FA" stroke="none" d="M564.603,106.397c-13.583,-17.9186 -34.073,2.59129 -32.8532,15.4293c1.21985,12.838 8.64998,11.7717 8.64998,21.2156c0,9.44385 -18.8775,25.1062 -9.22477,39.6291c20.3404,30.603 82.8798,-5.30234 73.4324,-42.6496c-9.44732,-37.3472 -26.4215,-15.7059 -40.0045,-33.6244Z" transform="matrix(1,0,0,1,-567,-146.786)"></path>
            </g>
        </g>
        <path fill="#FFF" stroke="#745BCC" stroke-width="1" d="M605.41,169.603l-0.000124,-37.202c0,-2.88416 -2.34105,-5.19498 -5.30193,-5.19407l-52.6666,-0.000158c-2.86911,0 -5.19499,2.32588 -5.19499,5.19499v37.2073c0,2.86056 2.31962,5.17271 5.19923,5.17265l16.3971,1e-05v11.622c0,0.350598 0.424039,0.526009 0.671719,0.277869l11.8777,-11.8999h0.207379l23.5378,0.000137c2.85491,0.066945 5.20186,-2.21379 5.27261,-5.17889Z"></path>
        <path fill="#E5E1F8" stroke="none" d="M604.91,132.401c0,-2.60653 -2.11569,-4.6949 -4.80193,-4.69407l-52.6666,-0.000158c-2.59297,0 -4.69499,2.10202 -4.69499,4.69499v1.20728l62.1636,-0.000196l-6.8e-05,-1.20786Z"></path>
        <path fill="#745BCF" stroke="none" d="M556.04,148.592c-0.493374,0 -0.893332,-0.399958 -0.893332,-0.893332c0,-0.493374 0.399958,-0.893332 0.893332,-0.893332h25.6163c0.493373,0 0.893332,0.399958 0.893332,0.893332c0,0.493374 -0.399959,0.893332 -0.893332,0.893332h-25.6163Z"></path>
        <path fill="#745BCF" stroke="none" d="M556.04,155.292c-0.493374,0 -0.893332,-0.399958 -0.893332,-0.893332c0,-0.493373 0.399958,-0.893332 0.893332,-0.893332h35.0633c0.493374,0 0.893333,0.399959 0.893333,0.893332c0,0.493374 -0.399959,0.893332 -0.893333,0.893332h-35.0633Z"></path>
        <path fill="#745BCF" stroke="none" d="M556.04,161.992c-0.493374,0 -0.893332,-0.399959 -0.893332,-0.893332c0,-0.493374 0.399958,-0.893333 0.893332,-0.893333h35.0633c0.493374,0 0.893333,0.399959 0.893333,0.893333c0,0.493373 -0.399959,0.893332 -0.893333,0.893332h-35.0633Z"></path>
        <path fill="#FFF" stroke="#745BCF" stroke-width="1" d="M527.614,141.392h14.1304l7.03145,7.03145c0.247785,0.247785 0.67146,0.072294 0.67146,-0.278128v-6.75332h9.54052c1.78616,0 3.23413,-1.44797 3.23413,-3.23413v-22.0117c0,-1.78616 -1.44797,-3.23413 -3.23413,-3.23413l-31.2278,-1e-05c-1.78497,0.011112 -3.22613,1.45074 -3.23721,3.23158l-0.142941,22.0085c-1.6e-05,1.79118 1.44717,3.23993 3.23411,3.23993Z"></path>
        <path fill="#BDAAFF" stroke="#745BCC" stroke-width="1" d="M544.655,121.462l-0.013452,0.015105l-1.13771,1.22651l-0.365603,-0.415169l-0.738735,-0.839066c-1.34143,-1.59215 -3.72883,-1.85692 -5.40228,-0.598535c-1.22571,0.948416 -1.92587,2.4018 -1.89693,3.94776c-0.01863,1.66407 0.66469,3.28454 1.87681,4.4522l6.25207,5.78322c0.150103,0.138841 0.38155,0.139521 0.532466,0.001566l6.28903,-5.74873c1.24039,-1.18622 1.92901,-2.80722 1.91462,-4.51345c0.028755,-1.50779 -0.672551,-2.96062 -1.88136,-3.89612c-1.6878,-1.26602 -4.06705,-1.00811 -5.42893,0.584709Z"></path>
    </g>
</svg>