<?xml version="1.0" encoding="UTF-8"?>
<svg version="1.1" viewBox="0 0 100 100" xmlns="http://www.w3.org/2000/svg" xmlns:xlink="http://www.w3.org/1999/xlink">
    <!--Generated by IJSVG (https://github.com/iconjar/IJSVG)-->
    <defs>
        <path d="M939.499,248.222c-0.55228,0 -1,-0.44772 -1,-1v-21.6923c0,-0.55228 0.44772,-1 1,-1h8.70275c0.55228,0 1,0.44772 1,1v21.6923c0,0.55228 -0.44772,1 -1,1Z" id="c"></path>
        <path d="M993.422,205.903c0,9.80266 -7.94663,17.7493 -17.7493,17.7493c-9.80266,0 -17.7493,-7.94663 -17.7493,-17.7493c0,-9.80266 7.94663,-17.7493 17.7493,-17.7493c9.80266,0 17.7493,7.94663 17.7493,17.7493Z" id="a"></path>
        <path d="M998.62,233.651c-0.401175,-0.003523 -0.798994,0.073329 -1.16999,0.226021l-13.7208,5.57075c-0.544353,0.222258 -1.12713,0.335199 -1.7151,0.332384h-1.32953c1.68885,0 3.05793,-1.36908 3.05793,-3.05793c0,-1.68885 -1.36908,-3.05793 -3.05793,-3.05793h-6.04938c-4.91928,0 -3.77588,-5.31814 -12.4311,-5.31814h-8.41595v16.8186c2.38641,-0.187166 4.78623,0.102077 7.05983,0.850903l3.39031,1.18329c2.81294,0.998916 5.7766,1.5071 8.76163,1.50237c1.93659,-0.000433 3.86722,-0.214452 5.75689,-0.638177c0.864198,0 20.1956,-8.18993 21.0332,-8.53561c1.33905,-0.563333 2.09693,-1.991 1.81327,-3.41575c-0.28366,-1.42475 -1.53056,-2.45328 -2.98326,-2.46079Z" id="b"></path>
    </defs>
    <g transform="matrix(1,0,0,1,-924,-171)">
        <path fill="#F6F5FA" fill-rule="evenodd" stroke="none" d="M1006.38,184.932c17.2431,17.2431 17.2431,45.1998 0,62.443c-17.2431,17.2431 -45.1998,17.2431 -62.443,0c-17.2431,-17.2431 -17.2431,-45.1998 0,-62.443c17.2431,-17.2431 45.1998,-17.2431 62.443,-2.84217e-14"></path>
        <use fill="#5DD9C1" stroke="none" xlink:href="#a"></use>
        <path fill="#AEECE0" stroke="none" d="M993.176,209.154c0.153783,-0.913904 0.233813,-1.8387 0.239316,-2.76543c0.176707,-6.45464 -3.16584,-12.4961 -8.72813,-15.7755c-5.56229,-3.27941 -12.4667,-3.27941 -18.029,0c-5.56229,3.27941 -8.90484,9.32083 -8.72813,15.7755c0.025185,0.927407 0.118504,1.85171 0.279202,2.76543c1.36297,-8.59242 8.757,-16.0047 17.4568,-16.0342c8.69979,-0.029525 16.149,7.41902 17.51,16.0342Z"></path>
        <use fill="none" fill-rule="evenodd" stroke="#585269" stroke-linejoin="round" stroke-width="1" xlink:href="#a"></use>
        <path fill="#AEECE0" stroke="#585269" stroke-width="1" d="M975.114,217.248c-0.969252,0 -1.75499,-0.785734 -1.75499,-1.75499v-0.957264c-2.14637,-0.737613 -3.58812,-2.75606 -3.58974,-5.02564c0.079458,-0.913773 0.844412,-1.6151 1.76163,-1.6151c0.917221,0 1.68218,0.701323 1.76163,1.6151c-0.005376,0.744482 0.439666,1.41841 1.12646,1.7058c0.686797,0.28739 1.47917,0.131263 2.00562,-0.395179c0.526443,-0.526443 0.68257,-1.31882 0.39518,-2.00562c-0.28739,-0.686798 -0.961314,-1.13184 -1.7058,-1.12646c-2.93713,0 -5.31814,-2.38101 -5.31814,-5.31814c0.001621,-2.26958 1.44337,-4.28803 3.58974,-5.02564v-0.957265c-0.010797,-0.46837 0.171969,-0.920476 0.505223,-1.24976c0.500492,-0.507672 1.25836,-0.662141 1.91762,-0.390852c0.65926,0.271289 1.08891,0.914424 1.08713,1.62732v0.957265c0.758288,0.260907 1.44873,0.687889 2.02089,1.24976c1.00851,1.00251 1.57353,2.36716 1.56885,3.78917c-0.079458,0.913773 -0.844412,1.6151 -1.76163,1.6151c-0.917221,0 -1.68218,-0.701323 -1.76163,-1.6151c0.005087,-0.498566 -0.191496,-0.978035 -0.545109,-1.32953c-0.350213,-0.354035 -0.83177,-0.546658 -1.32954,-0.531814c-0.744571,-0.010006 -1.42135,0.431 -1.71291,1.11618c-0.291567,0.685183 -0.140093,1.47863 0.38338,2.00822c0.350213,0.354035 0.83177,0.546658 1.32953,0.531814c2.93713,0 5.31814,2.38101 5.31814,5.31814c-0.001621,2.26958 -1.44337,4.28803 -3.58974,5.02564v0.957265c-0.007303,0.971398 -0.732552,1.78158 -1.7018,1.78158Z"></path>
        <path fill="#F6F5FA" stroke="none" d="M989.701,265.289c7.76227,0.898243 7.76227,2.35458 0,3.25283c-7.76227,0.898243 -20.3474,0.898243 -28.1097,0c-7.76227,-0.898243 -7.76227,-2.35458 0,-3.25283c7.76227,-0.898243 20.3474,-0.898243 28.1097,0"></path>
        <use fill="#FBE8DD" stroke="none" xlink:href="#b"></use>
        <path style="mix-blend-mode:darken;" fill="rgba(239,98,108,0.11)" stroke="none" d="M960.915,231.563c8.65527,0 7.51187,5.31814 12.4311,5.31814h5.91643c1.41665,0.003678 2.647,0.975867 2.97816,2.35328c1.12798,-0.743957 1.63397,-2.14004 1.24457,-3.43395c-0.389398,-1.2939 -1.58185,-2.17885 -2.93308,-2.17669h-5.91643c-4.91928,0 -3.77588,-5.31814 -12.4311,-5.31814h-8.41595v3.24407l7.12631,0.013295Z"></path>
        <path style="mix-blend-mode:darken;" fill="rgba(239,98,108,0.11)" stroke="none" d="M1001.68,236.708c0,-1.68885 -1.36908,-3.05793 -3.05793,-3.05793c-0.401175,-0.003523 -0.798994,0.073329 -1.16999,0.226021l-13.7208,5.57075c-0.544353,0.222258 -1.12713,0.335199 -1.7151,0.332384h-14.6249c-0.001046,1.56744 1.23892,2.85442 2.80532,2.91168c13.2953,0.425451 14.1728,-0.146249 26.1254,-5.50427c0.370574,-0.154102 0.768683,-0.231009 1.16999,-0.226021c1.3765,0.006204 2.57919,0.931353 2.93827,2.26021c0.80258,-0.582716 1.26934,-1.5212 1.24976,-2.51282Z"></path>
        <path fill="#FFCEBF" stroke="#585269" stroke-linecap="round" stroke-width="1" d="M980.552,239.78h-13.0028"></path>
        <use fill="none" fill-rule="evenodd" stroke="#585269" stroke-linecap="round" stroke-linejoin="round" stroke-width="1" xlink:href="#b"></use>
        <use fill="#78C0E0" stroke="#585269" stroke-linejoin="round" stroke-width="1" xlink:href="#c"></use>
        <path fill="#BBDFEF" stroke="none" d="M949.161,226.059c0.003583,-0.406594 -0.156353,-0.797577 -0.44387,-1.08509c-0.287517,-0.287517 -0.6785,-0.447453 -1.08509,-0.44387h-7.60494c-0.834021,0.014506 -1.5025,0.694817 -1.50237,1.52896v2.2868h10.6363l-5.9e-05,-2.2868Z"></path>
        <use fill="none" fill-rule="evenodd" stroke="#585269" stroke-linejoin="round" stroke-width="1" xlink:href="#c"></use>
        <g transform="matrix(1,0,0,1,951.535,236.376)">
            <g transform="matrix(-1,1.22465e-16,-1.22465e-16,-1,0,0)">
                <path fill="#FFF" stroke="#585269" stroke-linecap="round" stroke-linejoin="round" stroke-width="1" d="M950.571,226.059h3.25736v20.6344h-3.25736c-0.734281,0 -1.32953,-0.595253 -1.32953,-1.32953v-17.9753c0,-0.734282 0.595253,-1.32954 1.32953,-1.32954Z" transform="matrix(1,0,0,1,-951.535,-236.376)"></path>
            </g>
        </g>
    </g>
</svg>