<?xml version="1.0" encoding="UTF-8"?>
<svg width="100px" height="100px" viewBox="0 0 100 100" version="1.1" xmlns="http://www.w3.org/2000/svg" xmlns:xlink="http://www.w3.org/1999/xlink">
    <!-- Generator: Sketch Beta 51 (57462) - http://www.bohemiancoding.com/sketch -->
    <title>Combined Shape Copy</title>
    <desc>Created with Sketch Beta.</desc>
    <defs>
        <path d="M22.48,26.06 L22.4799997,26.06 C19.1662897,26.0600001 16.4799997,28.74629 16.4799997,32.06 C16.4799997,32.06 16.4799997,32.06 16.4799997,32.06 L16.4799997,33.26 C14.7599997,33.26 14.8799997,36.26 16.7799997,36.26 C17.7803297,39.4191099 21.1522297,41.1691499 24.3113397,40.1688199 C26.7942497,39.3826059 28.4864297,37.0843799 28.4999997,34.4799999 L28.4999997,32.0799999 L28.4999999,32.0799453 C28.5110333,28.7662553 25.8336999,26.0710353 22.5200099,26.0600053 C22.5066547,26.0599609 22.4932993,26.059961 22.4799441,26.0600057 L22.48,26.06 Z" id="path-1"></path>
    </defs>
    <g id="Biings-3" stroke="none" stroke-width="1" fill="none" fill-rule="evenodd">
        <ellipse id="Oval" fill="#E9E8EC" fill-rule="nonzero" cx="23.5" cy="80.5622074" rx="13.5" ry="1.56220736"></ellipse>
        <ellipse id="Oval-Copy" fill="#E9E8EC" fill-rule="nonzero" cx="74.5" cy="80.5622074" rx="13.5" ry="1.56220736"></ellipse>
        <ellipse id="Oval-Copy-2" fill="#E9E8EC" fill-rule="nonzero" cx="47.5" cy="79.0993311" rx="9.5" ry="1.0993311"></ellipse>
        <path d="M87.0195621,41.3713962 L91.657151,41.3713962 C95.7124945,41.3713962 99,44.6589017 99,48.7142452 C99,52.7695888 95.7124945,56.0570943 91.657151,56.0570943 L13.5910717,56.0570943 C9.53572812,56.0570943 6.24822262,52.7695888 6.24822262,48.7142452 C6.24822262,44.6589017 9.53572812,41.3713962 13.5910717,41.3713962 L23.6391809,41.3713962 C27.6945244,41.3713962 30.9820299,38.0838907 30.9820299,34.0285471 C30.9820299,29.9732036 27.6945244,26.6856981 23.6391809,26.6856981 L7.37523444,26.6856981 L7.34284904,26.6856981 C3.2875055,26.6856981 -2.26877039e-13,23.3981926 -2.27373675e-13,19.342849 C-2.27870312e-13,15.2875055 3.2875055,12 7.34284904,12 L78.5173158,12 C82.5726594,12 85.8601649,15.2875055 85.8601649,19.342849 C85.8601649,23.3981926 82.5726594,26.6856981 78.5173158,26.6856981 L78.2409604,26.6856981 C74.1856169,26.6856981 70.8981114,29.9732036 70.8981114,34.0285471 C70.8981114,38.0838907 74.1856169,41.3713962 78.2409604,41.3713962 L87.0195621,41.3713962 Z" id="Combined-Shape-Copy" fill="#F6F5FA" transform="translate(49.500000, 34.028547) scale(-1, 1) translate(-49.500000, -34.028547) "></path>
        <path d="M67.5,61 L67.5,79.5000002 L72,79.5 L72.4,67.05 L72.4,67.0500002 C72.3999999,66.1663442 73.116344,65.4500002 74,65.4500002 C74.883656,65.4500001 75.6,66.1663442 75.6,67.0500002 C75.6,67.0500002 75.6,67.0500002 75.6,67.0500002 L76,79.5000002 L80.5,79.5000002 L80.5,61 L67.5,61 Z" id="c" fill="#78C0E0" fill-rule="nonzero"></path>
        <path d="M67.5,61 L67.5,79.5000002 L72,79.5 L72.4,67.05 L72.4,67.0500002 C72.3999999,66.1663442 73.116344,65.4500002 74,65.4500002 C74.883656,65.4500001 75.6,66.1663442 75.6,67.0500002 C75.6,67.0500002 75.6,67.0500002 75.6,67.0500002 L76,79.5000002 L80.5,79.5000002 L80.5,61 L67.5,61 Z" id="c" stroke="#585269" stroke-linecap="round" stroke-linejoin="round"></path>
        <path d="M84.5,53 C84.5,47.20101 79.79899,42.5 74,42.5 C68.20101,42.5 63.5,47.20101 63.5,53 L63.5,61.5 C63.5,61.7761421 63.723858,62.0000001 64,62.0000001 L67.5,62.0000001 L67.5,67.0000001 L70.76,67.0000001 L70.7600002,67.0000001 C72.1323602,67.0033817 73.3879502,66.2283261 74.0000002,65.0000001 L74.0000001,64.9999999 C74.6104441,66.2250999 75.8612401,66.9995799 77.2300001,66.9999999 L80.5000001,66.9999999 L80.5000001,61.9999999 L84.0000001,61.9999999 C84.2761421,61.9999999 84.5000001,61.7761419 84.5000001,61.4999999 L84.5,53 Z" id="d" fill="#78C0E0" fill-rule="nonzero"></path>
        <path d="M84.5,53 C84.5,47.20101 79.79899,42.5 74,42.5 C68.20101,42.5 63.5,47.20101 63.5,53 L63.5,61.5 C63.5,61.7761421 63.723858,62.0000001 64,62.0000001 L67.5,62.0000001 L67.5,67.0000001 L70.76,67.0000001 L70.7600002,67.0000001 C72.1323602,67.0033817 73.3879502,66.2283261 74.0000002,65.0000001 L74.0000001,64.9999999 C74.6104441,66.2250999 75.8612401,66.9995799 77.2300001,66.9999999 L80.5000001,66.9999999 L80.5000001,61.9999999 L84.0000001,61.9999999 C84.2761421,61.9999999 84.5000001,61.7761419 84.5000001,61.4999999 L84.5,53 Z" id="d" stroke="#585269" stroke-linecap="round" stroke-linejoin="round"></path>
        <path d="M64,63.75 L64,63.7500003 C64.0000001,64.7164983 64.783502,65.5000003 65.75,65.5000003 C66.716498,65.5000001 67.5,64.7164983 67.5,63.7500003 L67.5,62.0000003 L64,62.0000003 L64,63.75 Z" id="Shape" stroke="#585269" fill="#FBE8DC" fill-rule="nonzero" stroke-linecap="round" stroke-linejoin="round"></path>
        <path d="M80.5,63.75 L80.5,63.7500003 C80.5000001,64.7164983 81.283502,65.5000003 82.25,65.5000003 C83.216498,65.5000001 84,64.7164983 84,63.7500003 L84,62.0000003 L80.5,62.0000003 L80.5,63.75 Z" id="Shape" stroke="#585269" fill="#FBE8DC" fill-rule="nonzero" stroke-linecap="round" stroke-linejoin="round"></path>
        <polygon id="Shape" stroke="#585269" fill="#FFFFFF" fill-rule="nonzero" stroke-linecap="round" stroke-linejoin="round" points="74 42.5 70.83 46.12 74 55 77.17 46.12"></polygon>
        <path d="M82,79.5 C82,77.84315 80.65685,76.5 79,76.5 L78.5,76.5 L78.4999999,76.5 C76.8431499,76.5000001 75.4999999,77.84315 75.4999999,79.5 C75.4999999,79.5 75.4999999,79.5 75.4999999,79.5 L82,79.5 Z" id="Shape" stroke="#585269" fill="#CBC9D3" fill-rule="nonzero" stroke-linecap="round" stroke-linejoin="round"></path>
        <path d="M72.5,79.5 C72.5,77.84315 71.15685,76.5 69.5,76.5 L69,76.5 L68.9999999,76.5 C67.3431499,76.5000001 65.9999999,77.84315 65.9999999,79.5 C65.9999999,79.5 65.9999999,79.5 65.9999999,79.5 L72.5,79.5 Z" id="Shape" stroke="#585269" fill="#CBC9D3" fill-rule="nonzero" stroke-linecap="round" stroke-linejoin="round"></path>
        <path d="M74,55 L79.5,48.5 L78.5,46.5 L80.5,46.5 L79.91,44.32 C79.35969,43.931941 78.77372,43.5971 78.16,43.320001 L74,55 Z" id="Shape" stroke="#585269" fill="#78C0E0" fill-rule="nonzero" stroke-linecap="round" stroke-linejoin="round"></path>
        <polygon id="Shape" stroke="#585269" fill="#BBDFEF" fill-rule="nonzero" stroke-linecap="round" stroke-linejoin="round" points="74 42.5 72.29 50.21 74 55 75.71 50.21"></polygon>
        <path d="M74,55 L69.84,43.36 L69.8399994,43.3600003 C69.2262834,43.6370993 68.6403094,43.9719393 68.0899994,44.3599983 L67.4999974,46.4999983 L69.4999974,46.4999983 L68.4999974,48.4999983 L74,55 Z" id="Shape" stroke="#585269" fill="#78C0E0" fill-rule="nonzero" stroke-linecap="round" stroke-linejoin="round"></path>
        <path d="M78.16,43.36 L78.1599995,43.3599998 C76.8464995,42.7926268 75.4308095,42.4999608 73.9999995,42.4999998 L77.1699995,46.1199998 L78.16,43.36 Z" id="Shape" stroke="#585269" fill="#FFFFFF" fill-rule="nonzero" stroke-linecap="round" stroke-linejoin="round"></path>
        <path d="M74,42.5 C72.5691899,42.4999607 71.1534999,42.792627 69.8399999,43.36 L70.8399999,46.12 L74,42.5 Z" id="Shape" stroke="#585269" fill="#FFFFFF" fill-rule="nonzero" stroke-linecap="round" stroke-linejoin="round"></path>
        <path d="M74,55 L74,65" id="Shape" stroke="#585269" stroke-linecap="round" stroke-linejoin="round"></path>
        <path d="M81,34.5 L81,34.4999989 C80.9960303,33.9125089 80.577142,33.4098489 80,33.2999989 L80,32.4999989 C80,29.1862889 77.31371,26.4999989 74,26.4999989 C70.68629,26.4999989 68,29.1862889 68,32.4999989 L68,33.2999989 C67.4228569,33.4098439 67.0039689,33.9125089 66.9999999,34.4999989 L66.9999999,34.5 C67.007271,35.138417 67.4944869,35.66875 68.1299999,35.73 L68.1299998,35.7299992 C68.8160558,38.9719092 72.0002998,41.0438392 75.2422198,40.3577892 C77.5643998,39.8663682 79.3785798,38.0521792 79.8699998,35.7300092 C80.5055137,35.6687586 80.9927297,35.1384262 80.9999997,34.5000092 L81,34.5 Z" id="Shape" stroke="#585269" fill="#FBE8DC" fill-rule="nonzero" stroke-linecap="round" stroke-linejoin="round"></path>
        <path d="M71.75,32.5 C71.335786,32.5 71,32.835786 71,33.25 C71,33.664214 71.335786,34 71.75,34 C72.164214,34 72.5,33.664214 72.5,33.25 L72.5,33.250002 C72.4946153,32.83804 72.161964,32.505387 71.750002,32.5 L71.75,32.5 Z" id="Shape" fill="#606272" fill-rule="nonzero"></path>
        <path d="M76.25,32.5 C75.835786,32.5 75.5,32.835786 75.5,33.25 C75.5,33.664214 75.835786,34 76.25,34 C76.664214,34 77,33.664214 77,33.25 L77,33.250002 C76.9946153,32.83804 76.661964,32.505387 76.250002,32.5 L76.25,32.5 Z" id="Shape" fill="#606272" fill-rule="nonzero"></path>
        <path d="M72.4999999,37.0499999 C73.4096029,37.6513219 74.5903999,37.6513219 75.4999999,37.0499999" id="Shape" stroke="#585269" stroke-linecap="round" stroke-linejoin="round"></path>
        <path d="M80.5,31 C80.5,27.41015 77.58985,24.5 74,24.5 C70.41015,24.5 67.5,27.41015 67.5,31 L67.5,33 C69.0740704,32.6071119 70.3709904,31.4954699 71.0000004,29.9999999 C73.8000004,31.8899999 77.5000004,31.4999999 80.5000004,30.9999999 L80.5,31 Z" id="e" fill="#FFC15E" fill-rule="nonzero"></path>
        <path d="M80.5,31 C80.5,27.41015 77.58985,24.5 74,24.5 C70.41015,24.5 67.5,27.41015 67.5,31 L67.5,33 C69.0740704,32.6071119 70.3709904,31.4954699 71.0000004,29.9999999 C73.8000004,31.8899999 77.5000004,31.4999999 80.5000004,30.9999999 L80.5,31 Z" id="e" stroke="#585269" stroke-linecap="round" stroke-linejoin="round"></path>
        <path d="M70,29 C70.2545831,29.4037411 70.5962591,29.7454171 71.0000001,30.0000001" id="Shape" stroke="#585269" stroke-linecap="round" stroke-linejoin="round"></path>
        <path d="M28,63.75 L28,63.7500003 C28.0000001,64.7164983 28.783502,65.5000003 29.75,65.5000003 C30.716498,65.5000001 31.5,64.7164983 31.5,63.7500003 L31.5,53.5000003 L28,53.5000003 L28,63.75 Z" id="Shape" stroke="#585269" fill="#FBE8DC" fill-rule="nonzero" stroke-linecap="round" stroke-linejoin="round"></path>
        <path d="M16,60.9999998 L16,79.5 L20.5,79.5 L20.9,67.05 L20.9,67.0499998 C20.9000001,66.1663438 21.616345,65.4499998 22.5,65.4499998 C23.383656,65.4499999 24.1,66.1663448 24.1,67.0499998 L24.5,79.4999998 L29,79.5 L29,60.9999998 L16,60.9999998 Z" id="f" fill="#AEECE0" fill-rule="nonzero"></path>
        <path d="M16,60.9999998 L16,79.5 L20.5,79.5 L20.9,67.05 L20.9,67.0499998 C20.9000001,66.1663438 21.616345,65.4499998 22.5,65.4499998 C23.383656,65.4499999 24.1,66.1663448 24.1,67.0499998 L24.5,79.4999998 L29,79.5 L29,60.9999998 L16,60.9999998 Z" id="f" stroke="#585269" stroke-linecap="round" stroke-linejoin="round"></path>
        <path d="M12.5,52 L12.5,52.0000014 C12.4999992,46.7532914 16.75329,42.5000014 22,42.5000014 C27.24671,42.5000006 31.5,46.7532914 31.5,52.0000014 C31.5,52.0000014 31.5,52.0000014 31.5,52.0000014 L31.5,53.5000014 L29,53.5000014 L29,61.0000014 L16,61.0000014 L16,53.5000014 L12.5,53.5000014 L12.5,52 Z" id="g" fill="#E9E8EC" fill-rule="nonzero"></path>
        <path d="M12.5,52 L12.5,52.0000014 C12.4999992,46.7532914 16.75329,42.5000014 22,42.5000014 C27.24671,42.5000006 31.5,46.7532914 31.5,52.0000014 C31.5,52.0000014 31.5,52.0000014 31.5,52.0000014 L31.5,53.5000014 L29,53.5000014 L29,61.0000014 L16,61.0000014 L16,53.5000014 L12.5,53.5000014 L12.5,52 Z" id="g" stroke="#585269" stroke-linecap="round" stroke-linejoin="round"></path>
        <path d="M12.5,63.75 L12.5,63.7500003 C12.5000001,64.7164983 13.283502,65.5000003 14.25,65.5000003 C15.216498,65.5000001 16,64.7164983 16,63.7500003 L16,53.5000003 L12.5,53.5000003 L12.5,63.75 Z" id="Shape" stroke="#585269" fill="#FBE8DC" fill-rule="nonzero" stroke-linecap="round" stroke-linejoin="round"></path>
        <path d="M16,53.5 L16,50.01" id="Shape" stroke="#585269" stroke-linecap="round" stroke-linejoin="round"></path>
        <path d="M29,53.5 L29,50.5" id="Shape" stroke="#585269" stroke-linecap="round" stroke-linejoin="round"></path>
        <path d="M31.5,79.5 C31.5,77.84315 30.15685,76.5 28.5,76.5 L24.5,76.5 L24.5,79.5 L31.5,79.5 Z" id="Shape" stroke="#585269" fill="#CBC9D3" fill-rule="nonzero" stroke-linecap="round" stroke-linejoin="round"></path>
        <path d="M23,79.5 C23,77.84315 21.65685,76.5 20,76.5 L16,76.5 L16,79.5 L23,79.5 Z" id="Shape" stroke="#585269" fill="#CBC9D3" fill-rule="nonzero" stroke-linecap="round" stroke-linejoin="round"></path>
        <path d="M22,42.5 C20.9981501,42.5016146 20.0027501,42.660205 19.0500001,42.97 L19.0500001,42.9700006 C19.2876811,44.8772006 21.0264501,46.2306106 22.9336501,45.9929306 C24.3765701,45.8131086 25.5555801,44.7551106 25.8900001,43.3400006 L25.8899999,43.3400005 C24.6684399,42.7846915 23.3418599,42.4982315 21.9999999,42.5000015 L22,42.5 Z" id="Shape" stroke="#585269" fill="#FBE8DC" fill-rule="nonzero" stroke-linecap="round" stroke-linejoin="round"></path>
        <g id="Shape" stroke-linecap="round" stroke-linejoin="round" fill-rule="nonzero">
            <use fill="#FBE8DC" xlink:href="#path-1"></use>
            <use fill="#FFFFFF" xlink:href="#path-1"></use>
            <use fill-opacity="0.1" fill="#CC5BB5" xlink:href="#path-1"></use>
            <use stroke="#585269" stroke-width="1" fill-opacity="0.3" fill="#FFDA9E" xlink:href="#path-1"></use>
        </g>
        <path d="M21.75,32.5 C21.335786,32.5 21,32.835786 21,33.25 C21,33.664214 21.335786,34 21.75,34 C22.164214,34 22.5,33.664214 22.5,33.25 C22.5,32.835786 22.164214,32.5 21.75,32.5 Z" id="Shape" fill="#606272" fill-rule="nonzero"></path>
        <path d="M26.25,32.5 C25.835786,32.5 25.5,32.835786 25.5,33.25 C25.5,33.664214 25.835786,34 26.25,34 C26.664214,34 27,33.664214 27,33.25 C27,32.835786 26.664214,32.5 26.25,32.5 Z" id="Shape" fill="#606272" fill-rule="nonzero"></path>
        <path d="M22.4999998,36.9999998 C23.2385498,37.6515488 24.3129798,37.7525298 25.1599998,37.2499998 C25.2813039,37.1733594 25.3981589,37.0898918 25.5099979,36.9999998" id="Shape" stroke="#585269" stroke-linecap="round" stroke-linejoin="round"></path>
        <path d="M28.64,31.47 C29.84,30.87 29.13,27.77 28.03,27.26 L28.82,26.64 C29.225808,26.343512 29.31443,25.774188 29.017942,25.36838 C28.827073,25.107134 28.511844,24.966878 28.19,25.000001 L20.81,25.000001 L20.8100002,25.000001 C18.2206302,24.9337067 16.0677902,26.979061 16.0015002,29.568431 C16.0006335,29.6022822 16.0001335,29.6361417 16.0000002,29.670004 L16.0000002,33.280004 C19.6100002,33.280004 19.5300002,30.440004 22.6200002,29.670004 C22.7000002,30.370004 23.6200002,31.030004 25.0300002,31.470004 L25.0300002,31.4700045 C25.0076516,30.4982405 25.7773052,29.6923545 26.7490702,29.6700045 C26.7760435,29.6693842 26.8030274,29.6693842 26.8300007,29.6700045 L28.64,31.47 Z" id="h" fill="#FFC15E" fill-rule="nonzero"></path>
        <path d="M28.64,31.47 C29.84,30.87 29.13,27.77 28.03,27.26 L28.82,26.64 C29.225808,26.343512 29.31443,25.774188 29.017942,25.36838 C28.827073,25.107134 28.511844,24.966878 28.19,25.000001 L20.81,25.000001 L20.8100002,25.000001 C18.2206302,24.9337067 16.0677902,26.979061 16.0015002,29.568431 C16.0006335,29.6022822 16.0001335,29.6361417 16.0000002,29.670004 L16.0000002,33.280004 C19.6100002,33.280004 19.5300002,30.440004 22.6200002,29.670004 C22.7000002,30.370004 23.6200002,31.030004 25.0300002,31.470004 L25.0300002,31.4700045 C25.0076516,30.4982405 25.7773052,29.6923545 26.7490702,29.6700045 C26.7760435,29.6693842 26.8030274,29.6693842 26.8300007,29.6700045 L28.64,31.47 Z" id="h" stroke="#585269" stroke-linecap="round" stroke-linejoin="round"></path>
        <path d="M67.5,62 L67.5,51.33" id="Shape" stroke="#585269" stroke-linecap="round" stroke-linejoin="round"></path>
        <path d="M80.5,62 L80.5,51.33" id="Shape" stroke="#585269" stroke-linecap="round" stroke-linejoin="round"></path>
        <path d="M41.1817391,57.6813043 L41.1817391,57.1517391 L38.0317391,57.1517391 C37.7428403,57.1567209 37.5112614,57.3923626 37.5113043,57.6813043 L37.5113043,59.2608696 L37.5113043,59.2609482 C37.5113043,59.5498899 37.7429179,59.7854972 38.0318176,59.7904358 L41.6839916,59.7904358 C41.3465307,59.1390743 41.1740696,58.4148537 41.1817391,57.6813054 L41.1817391,57.6813043 Z" id="Shape" stroke="#585269" fill="#FFFFFF" fill-rule="nonzero" stroke-linejoin="round"></path>
        <path d="M53.7817391,57.6813043 L53.7817391,57.1517391 L56.9317391,57.1517391 C57.2242098,57.1517391 57.4613043,57.3888337 57.4613043,57.6813043 L57.4613043,59.2608696 C57.4613043,59.5533402 57.2242098,59.7904348 56.9317391,59.7904348 L53.2795652,59.7904348 C53.6138925,59.1379164 53.7861409,58.4144691 53.7817391,57.6813043 Z" id="Shape" stroke="#585269" fill="#FFFFFF" fill-rule="nonzero" stroke-linejoin="round"></path>
        <polygon id="j" fill="#F5A1A7" fill-rule="nonzero" points="41.7113043 61.8813043 43.8113043 78.1517391 51.1613043 78.1517391 53.2613043 61.8813043 41.7113043 61.8813043"></polygon>
        <polygon id="j" stroke="#585269" stroke-linecap="round" stroke-linejoin="round" points="41.7113043 61.8813043 43.8113043 78.1517391 51.1613043 78.1517391 53.2613043 61.8813043 41.7113043 61.8813043"></polygon>
        <path d="M52.9782609,78.1517391 C53.5530711,78.1444536 54.0131409,77.6725721 54.0058548,77.0977583 C54.0038183,76.9370882 53.964611,76.7790705 53.8913044,76.6360833 C53.3434015,75.6337258 52.2944826,75.0078711 51.1521739,75.0017354 L50.6226087,75.0017354 C48.8849957,75.0067501 47.4776214,76.4141224 47.4726088,78.1517391 L52.9782609,78.1517391 Z" id="Shape" stroke="#585269" fill="#CBC9D3" fill-rule="nonzero" stroke-linecap="round" stroke-linejoin="round"></path>
        <path d="M47.4817391,78.1517403 L47.4817391,78.15162 C47.4817391,76.4119253 46.0714339,75.00162 44.3317391,75.00162 C44.3225689,75.00162 44.3133986,75.0016601 44.3042288,75.0017402 L43.783794,75.0017402 L43.7837941,75.0017402 C42.6414854,75.0078792 41.5925628,75.6337315 41.0446637,76.636088 C40.7824019,77.1476335 40.9844871,77.7749272 41.4960331,78.0371898 C41.6390202,78.1104969 41.797037,78.1497042 41.957708,78.1517403 L47.4817391,78.1517403 Z" id="Shape" stroke="#585269" fill="#CBC9D3" fill-rule="nonzero" stroke-linecap="round" stroke-linejoin="round"></path>
        <path d="M47.4817391,61.8813043 L47.4817391,78.1517391" id="Shape" stroke="#585269" stroke-linecap="round" stroke-linejoin="round"></path>
        <path d="M38.0317391,59.7813043 L38.0317391,61.6073913 L38.0317391,61.6073916 C38.0317393,62.615912 38.8493066,63.4334785 39.8578261,63.4334785 C40.8663465,63.4334784 41.683913,62.6159111 41.683913,61.6073916 L41.683913,59.7813043 L38.0317391,59.7813043 Z" id="Shape" stroke="#585269" fill="#FBE8DC" fill-rule="nonzero" stroke-linecap="round" stroke-linejoin="round"></path>
        <path d="M51.9373913,40.433913 L51.9373912,40.433913 C51.1359764,40.0044685 50.6346516,39.1700873 50.631739,38.2608695 C50.631739,37.6809709 50.1616376,37.2108695 49.581739,37.2108695 L45.381739,37.2108695 C44.7968845,37.2007633 44.3145738,37.6666891 44.3044664,38.2515473 C44.3044127,38.254656 44.3043727,38.2577649 44.3043463,38.260874 L44.3043464,38.2615808 C44.3043464,39.171572 43.8066565,40.0086895 43.0072038,40.4433895 L43.0072036,40.4433896 C39.9297083,42.0775822 38.0052957,45.2767405 38.0037253,48.7612157 L38.0037253,57.1612157 L41.1537253,57.1612157 L41.1537253,57.6907809 L41.1537251,57.6907209 C41.1559595,58.4234803 41.3377773,59.1445235 41.683262,59.7907301 L41.683262,61.8907301 L53.2612925,61.8907301 L53.2612925,59.7907301 L53.2612926,59.7907299 C53.6005311,59.1425429 53.7790211,58.4223151 53.7817274,57.6907299 L53.7817274,57.1611646 L56.9317274,57.1611646 L56.9317274,48.7611646 L56.9317273,48.761225 C56.9334292,45.2759007 55.0129208,42.0737294 51.9374343,40.4339489 L51.9373913,40.433913 Z" id="k" fill="#FFFFFF" fill-rule="nonzero"></path>
        <path d="M51.9373913,40.433913 L51.9373912,40.433913 C51.1359764,40.0044685 50.6346516,39.1700873 50.631739,38.2608695 C50.631739,37.6809709 50.1616376,37.2108695 49.581739,37.2108695 L45.381739,37.2108695 C44.7968845,37.2007633 44.3145738,37.6666891 44.3044664,38.2515473 C44.3044127,38.254656 44.3043727,38.2577649 44.3043463,38.260874 L44.3043464,38.2615808 C44.3043464,39.171572 43.8066565,40.0086895 43.0072038,40.4433895 L43.0072036,40.4433896 C39.9297083,42.0775822 38.0052957,45.2767405 38.0037253,48.7612157 L38.0037253,57.1612157 L41.1537253,57.1612157 L41.1537253,57.6907809 L41.1537251,57.6907209 C41.1559595,58.4234803 41.3377773,59.1445235 41.683262,59.7907301 L41.683262,61.8907301 L53.2612925,61.8907301 L53.2612925,59.7907301 L53.2612926,59.7907299 C53.6005311,59.1425429 53.7790211,58.4223151 53.7817274,57.6907299 L53.7817274,57.1611646 L56.9317274,57.1611646 L56.9317274,48.7611646 L56.9317273,48.761225 C56.9334292,45.2759007 55.0129208,42.0737294 51.9374343,40.4339489 L51.9373913,40.433913 Z" id="k" stroke="#585269" stroke-linecap="round" stroke-linejoin="round"></path>
        <path d="M53.2613043,59.7813043 L41.7113043,59.7813043" id="Shape" stroke="#585269" stroke-linecap="round" stroke-linejoin="round"></path>
        <polyline id="Shape" stroke="#585269" stroke-linecap="round" stroke-linejoin="round" points="41.1817391 57.1608696 41.1817391 57.1608696 41.1817391 48.2313043"></polyline>
        <polyline id="Shape" stroke="#585269" stroke-linecap="round" stroke-linejoin="round" points="53.7908696 57.1608696 53.7817391 57.1608696 53.7817391 48.2313043"></polyline>
        <path d="M52.547213,42.6362652 C52.7932436,42.8822957 52.7932436,43.2811898 52.547213,43.5272194 C52.3011825,43.77325 51.9022884,43.77325 51.6562588,43.5272194 C51.4102283,43.2811889 51.4102283,42.8822948 51.6562588,42.6362652 C51.9022893,42.3902347 52.3011834,42.3902347 52.547213,42.6362652" id="Shape" fill="#E2D9FF" fill-rule="nonzero" opacity="0.6"></path>
        <path d="M52.547213,48.9362652 C52.7932436,49.1822957 52.7932436,49.5811898 52.547213,49.8272194 C52.3011825,50.07325 51.9022884,50.07325 51.6562588,49.8272194 C51.4102283,49.5811889 51.4102283,49.1822948 51.6562588,48.9362652 C51.9022893,48.6902347 52.3011834,48.6902347 52.547213,48.9362652" id="Shape" fill="#E2D9FF" fill-rule="nonzero" opacity="0.6"></path>
        <path d="M52.547213,55.2362652 C52.7932436,55.4822957 52.7932436,55.8811898 52.547213,56.1272194 C52.3011825,56.37325 51.9022884,56.37325 51.6562588,56.1272194 C51.4102283,55.8811889 51.4102283,55.4822948 51.6562588,55.2362652 C51.9022893,54.9902347 52.3011834,54.9902347 52.547213,55.2362652" id="Shape" fill="#E2D9FF" fill-rule="nonzero" opacity="0.6"></path>
        <path d="M49.397213,45.7862652 C49.6432436,46.0322957 49.6432436,46.4311898 49.397213,46.6772194 C49.1511825,46.92325 48.7522884,46.92325 48.5062588,46.6772194 C48.2602283,46.4311889 48.2602283,46.0322948 48.5062588,45.7862652 C48.7522893,45.5402347 49.1511834,45.5402347 49.397213,45.7862652" id="Shape" fill="#E2D9FF" fill-rule="nonzero" opacity="0.6"></path>
        <path d="M46.247213,48.9362652 C46.4932436,49.1822957 46.4932436,49.5811898 46.247213,49.8272194 C46.0011825,50.07325 45.6022884,50.07325 45.3562588,49.8272194 C45.1102283,49.5811889 45.1102283,49.1822948 45.3562588,48.9362652 C45.6022893,48.6902347 46.0011834,48.6902347 46.247213,48.9362652" id="Shape" fill="#E2D9FF" fill-rule="nonzero" opacity="0.6"></path>
        <path d="M49.397213,52.0862652 C49.6432436,52.3322957 49.6432436,52.7311898 49.397213,52.9772194 C49.1511825,53.22325 48.7522884,53.22325 48.5062588,52.9772194 C48.2602283,52.7311889 48.2602283,52.3322948 48.5062588,52.0862652 C48.7522893,51.8402347 49.1511834,51.8402347 49.397213,52.0862652" id="Shape" fill="#E2D9FF" fill-rule="nonzero" opacity="0.6"></path>
        <path d="M46.247213,55.2362652 C46.4932436,55.4822957 46.4932436,55.8811898 46.247213,56.1272194 C46.0011825,56.37325 45.6022884,56.37325 45.3562588,56.1272194 C45.1102283,55.8811889 45.1102283,55.4822948 45.3562588,55.2362652 C45.6022893,54.9902347 46.0011834,54.9902347 46.247213,55.2362652" id="Shape" fill="#E2D9FF" fill-rule="nonzero" opacity="0.6"></path>
        <path d="M46.247213,42.6362652 C46.4932436,42.8822957 46.4932436,43.2811898 46.247213,43.5272194 C46.0011825,43.77325 45.6022884,43.77325 45.3562588,43.5272194 C45.1102283,43.2811889 45.1102283,42.8822948 45.3562588,42.6362652 C45.6022893,42.3902347 46.0011834,42.3902347 46.247213,42.6362652" id="Shape" fill="#E2D9FF" fill-rule="nonzero" opacity="0.6"></path>
        <path d="M43.097213,52.0862652 C43.3432436,52.3322957 43.3432436,52.7311898 43.097213,52.9772194 C42.8511825,53.22325 42.4522884,53.22325 42.2062588,52.9772194 C41.9602283,52.7311889 41.9602283,52.3322948 42.2062588,52.0862652 C42.4522893,51.8402347 42.8511834,51.8402347 43.097213,52.0862652" id="Shape" fill="#E2D9FF" fill-rule="nonzero" opacity="0.6"></path>
        <path d="M43.097213,45.7862652 C43.3432436,46.0322957 43.3432436,46.4311898 43.097213,46.6772194 C42.8511825,46.92325 42.4522884,46.92325 42.2062588,46.6772194 C41.9602283,46.4311889 41.9602283,46.0322948 42.2062588,45.7862652 C42.4522893,45.5402347 42.8511834,45.5402347 43.097213,45.7862652" id="Shape" fill="#E2D9FF" fill-rule="nonzero" opacity="0.6"></path>
        <path d="M53.2613043,59.7813043 L53.2613043,61.6073913 L53.2613043,61.6073916 C53.2613045,62.615912 54.0788718,63.4334785 55.0873913,63.4334785 C56.0959117,63.4334784 56.9134783,62.6159111 56.9134783,61.6073916 L56.9134783,59.7813043 L53.2613043,59.7813043 Z" id="Shape" stroke="#585269" fill="#FBE8DC" fill-rule="nonzero" stroke-linecap="round" stroke-linejoin="round"></path>
        <path d="M54.8317391,30.9017391 L54.8317391,30.9017368 C54.8284409,30.2864012 54.3871929,29.7607429 53.7817391,29.6508672 L53.7817391,28.8017368 C53.7817391,25.3223472 50.9611287,22.5017368 47.4817391,22.5017368 C44.0023496,22.5017368 41.1817391,25.3223472 41.1817391,28.8017368 L41.1817391,29.6508672 C40.4848723,29.7638372 40.0115278,30.4203392 40.1244986,31.1172059 C40.2207581,31.7109928 40.7179961,32.1573177 41.3186956,32.1891281 L41.3186955,32.1891274 C42.0282471,35.5954005 45.3647837,37.7815279 48.7710659,37.0719835 C51.2251807,36.5607732 53.1427089,34.6432514 53.653922,32.1891274 C54.3197626,32.1279169 54.829849,31.5703834 54.8317481,30.9017361 L54.8317391,30.9017391 Z" id="Shape" stroke="#585269" fill="#FBE8DC" fill-rule="nonzero" stroke-linecap="round" stroke-linejoin="round"></path>
        <path d="M45.9113043,33.5769565 C46.8643117,34.2152004 48.1082969,34.2152004 49.0613043,33.5769565" id="Shape" stroke="#585269" stroke-linecap="round" stroke-linejoin="round"></path>
        <path d="M44.5782609,25.2408696 C44.5782609,25.2408696 47.7282609,23.6704348 49.2986957,25.2408696 L52.4486957,28.3908696 C52.4486957,28.3908696 54.0282609,29.9704348 56.1008696,27.8704348 L55.0782609,27.3043478 L56.6486957,26.2543478 C56.6486957,26.2543478 55.5986957,26.2543478 54.5486957,24.683913 C53.4986957,23.1134783 51.9282609,20 48.2486957,20 C42.9986957,20 42.4782609,23.1408696 42.4782609,23.1408696 L44.5782609,25.2408696 Z" id="l" fill="#FFC15E" fill-rule="nonzero"></path>
        <path d="M44.5782609,25.2408696 C44.5782609,25.2408696 47.7282609,23.6704348 49.2986957,25.2408696 L52.4486957,28.3908696 C52.4486957,28.3908696 54.0282609,29.9704348 56.1008696,27.8704348 L55.0782609,27.3043478 L56.6486957,26.2543478 C56.6486957,26.2543478 55.5986957,26.2543478 54.5486957,24.683913 C53.4986957,23.1134783 51.9282609,20 48.2486957,20 C42.9986957,20 42.4782609,23.1408696 42.4782609,23.1408696 L44.5782609,25.2408696 Z" id="l" stroke="#585269" stroke-linecap="round" stroke-linejoin="round"></path>
        <path d="M42.4782609,23.1408696 C42.4782609,23.1408696 39.8486957,23.1408696 39.8486957,26.2908696 C39.8486957,28.9204348 41.1634783,29.6234783 41.1634783,29.6234783 C41.1634783,29.6234783 42.4782609,26.2908696 44.5782609,25.2408696 L42.4782609,23.1408696 Z" id="m" fill="#FFC15E" fill-rule="nonzero"></path>
        <path d="M42.4782609,23.1408696 C42.4782609,23.1408696 39.8486957,23.1408696 39.8486957,26.2908696 C39.8486957,28.9204348 41.1634783,29.6234783 41.1634783,29.6234783 C41.1634783,29.6234783 42.4782609,26.2908696 44.5782609,25.2408696 L42.4782609,23.1408696 Z" id="m" stroke="#585269" stroke-linecap="round" stroke-linejoin="round"></path>
        <path d="M45.126087,28.8473913 C44.6874097,28.8423774 44.3277263,29.1939315 44.3227127,29.6326087 C44.3176988,30.0712859 44.6692529,30.4309693 45.1079301,30.4359829 C45.5466074,30.4409968 45.9062908,30.0894427 45.9113043,29.6507655 C45.9113735,29.6447133 45.9113735,29.6386605 45.9113043,29.6326083 L45.9113043,29.6326115 C45.906373,29.2010076 45.5576936,28.8523254 45.1260897,28.8473914 L45.126087,28.8473913 Z" id="Shape" fill="#606272" fill-rule="nonzero"></path>
        <path d="M49.8465217,28.8473913 C49.4078445,28.8423774 49.0481611,29.1939315 49.0431475,29.6326087 C49.0381336,30.0712859 49.3896877,30.4309693 49.8283649,30.4359829 C50.2670421,30.4409968 50.6267256,30.0894427 50.6317391,29.6507655 C50.6318083,29.6447133 50.6318083,29.6386605 50.6317391,29.6326083 C50.6317391,29.1989446 50.2801854,28.8473909 49.8465217,28.8473909 L49.8465217,28.8473913 Z" id="Shape" fill="#606272" fill-rule="nonzero"></path>
        <path d="M55.0537913,32.2592522 C55.4638419,32.6693027 55.4638419,33.3341235 55.0537913,33.7441804 C54.6437407,34.154231 53.97892,34.154231 53.568863,33.7441804 C53.1588125,33.3341299 53.1588125,32.6693091 53.568863,32.2592522 C53.9789136,31.8492016 54.6437343,31.8492016 55.0537913,32.2592522" id="Shape" stroke="#585269" fill="#FFC15E" fill-rule="nonzero" stroke-linecap="round" stroke-linejoin="round"></path>
        <path d="M41.4037913,32.2592522 C41.8138419,32.6693027 41.8138419,33.3341235 41.4037913,33.7441804 C40.9937407,34.154231 40.32892,34.154231 39.918863,33.7441804 C39.5088125,33.3341299 39.5088125,32.6693091 39.918863,32.2592522 C40.3289136,31.8492016 40.9937343,31.8492016 41.4037913,32.2592522" id="Shape" stroke="#585269" fill="#FFC15E" fill-rule="nonzero" stroke-linecap="round" stroke-linejoin="round"></path>
    </g>
</svg>