<?xml version="1.0" encoding="UTF-8"?>
<svg version="1.1" viewBox="0 0 100 100" xmlns="http://www.w3.org/2000/svg" xmlns:xlink="http://www.w3.org/1999/xlink">
    <!--Generated by IJSVG (https://github.com/iconjar/IJSVG)-->
    <defs>
        <path d="M41.7113,61.8813l2.1,16.2704h7.35l2.1,-16.2704h-11.55Z" id="h"></path>
        <path d="M51.9374,40.4339h-1e-07c-0.801415,-0.429444 -1.30274,-1.26383 -1.30565,-2.17304c0,-0.579899 -0.470101,-1.05 -1.05,-1.05h-4.2c-0.584855,-0.0101062 -1.06717,0.45582 -1.07727,1.04068c-5.37e-05,0.0031087 -9.37e-05,0.0062176 -0.0001201,0.0093267l1e-07,0.0007068c0,0.909991 -0.49769,1.74711 -1.29714,2.18181l-2e-07,1e-07c-3.0775,1.63419 -5.00191,4.83335 -5.00348,8.31783v8.4h3.15v0.529565l-2e-07,-6e-05c0.0022344,0.732759 0.184052,1.4538 0.529537,2.10001v2.1h11.578v-2.1l1e-07,-2e-07c0.339239,-0.648187 0.517729,-1.36841 0.520435,-2.1v-0.529565h3.15v-8.4l-1e-07,6.04e-05c0.0017019,-3.48532 -1.91881,-6.6875 -4.99429,-8.32728l-4.3e-05,-3.59e-05Z" id="i"></path>
        <path d="M44.5783,25.2409c0,0 3.15,-1.57043 4.72043,0l3.15,3.15c0,0 1.57957,1.57957 3.65217,-0.520435l-1.02261,-0.566087l1.57043,-1.05c0,0 -1.05,0 -2.1,-1.57043c-1.05,-1.57043 -2.62043,-4.68391 -6.3,-4.68391c-5.25,0 -5.77043,3.14087 -5.77043,3.14087l2.1,2.1Z" id="j"></path>
        <path d="M22.48,26.06h-3e-07c-3.31371,1e-07 -6,2.68629 -6,6c0,0 0,0 0,0v1.2c-1.72,0 -1.6,3 0.3,3c1.00033,3.15911 4.37223,4.90915 7.53134,3.90882c2.48291,-0.786214 4.17509,-3.08444 4.18866,-5.68882v-2.4l2e-07,-5.46e-05c0.0110334,-3.31369 -2.6663,-6.00891 -5.97999,-6.01994c-0.0133552,-4.44e-05 -0.0267106,-4.43e-05 -0.0400658,4e-07l5.59e-05,-5.7e-06Z" id="f"></path>
        <path d="M42.4783,23.1409c0,0 -2.62957,0 -2.62957,3.15c0,2.62957 1.31478,3.33261 1.31478,3.33261c0,0 1.31478,-3.33261 3.41478,-4.38261l-2.1,-2.1Z" id="k"></path>
        <path d="M80.5,31c0,-3.58985 -2.91015,-6.5 -6.5,-6.5c-3.58985,0 -6.5,2.91015 -6.5,6.5v2c1.57407,-0.392888 2.87099,-1.50453 3.5,-3c2.8,1.89 6.5,1.5 9.5,1l-4e-07,1e-07Z" id="c"></path>
        <path d="M16,61v18.5h4.5l0.4,-12.45v-2e-07c1e-07,-0.883656 0.716345,-1.6 1.6,-1.6c0.883656,1e-07 1.6,0.716345 1.6,1.6l0.4,12.45l4.5,2e-07v-18.5h-13Z" id="d"></path>
        <path d="M84.5,53c0,-5.79899 -4.70101,-10.5 -10.5,-10.5c-5.79899,0 -10.5,4.70101 -10.5,10.5v8.5c0,0.276142 0.223858,0.5 0.5,0.5h3.5v5h3.26h2e-07c1.37236,0.0033816 2.62795,-0.771674 3.24,-2l-1e-07,-2e-07c0.610444,1.2251 1.86124,1.99958 3.23,2h3.27v-5h3.5c0.276142,0 0.5,-0.223858 0.5,-0.5l-1e-07,-8.5Z" id="b"></path>
        <path d="M28.64,31.47c1.2,-0.6 0.49,-3.7 -0.61,-4.21l0.79,-0.62c0.405808,-0.296488 0.49443,-0.865812 0.197942,-1.27162c-0.190869,-0.261246 -0.506098,-0.401502 -0.827942,-0.368379h-7.38h2e-07c-2.58937,-0.0662943 -4.74221,1.97906 -4.8085,4.56843c-0.0008667,0.0338512 -0.0013667,0.0677107 -0.0015,0.101573v3.61c3.61,0 3.53,-2.84 6.62,-3.61c0.08,0.7 1,1.36 2.41,1.8v5e-07c-0.0223486,-0.971764 0.747305,-1.77765 1.71907,-1.8c0.0269733,-0.0006203 0.0539572,-0.0006203 0.0809305,0l1.81,1.8Z" id="g"></path>
        <path d="M12.5,52v1.4e-06c-8e-07,-5.24671 4.25329,-9.5 9.5,-9.5c5.24671,-8e-07 9.5,4.25329 9.5,9.5c0,0 0,0 0,0v1.5h-2.5v7.5h-13v-7.5h-3.5v-1.5Z" id="e"></path>
        <path d="M67.5,61v18.5l4.5,-2e-07l0.4,-12.45v2e-07c-1e-07,-0.883656 0.716344,-1.6 1.6,-1.6c0.883656,-1e-07 1.6,0.716344 1.6,1.6c0,0 0,0 0,0l0.4,12.45h4.5v-18.5h-13Z" id="a"></path>
    </defs>
    <g fill="#E9E8EC" stroke="none">
        <path d="M33.0459,79.4576c5.27208,0.61008 5.27208,1.59921 0,2.20929c-5.27208,0.61008 -13.8198,0.61008 -19.0919,0c-5.27208,-0.61008 -5.27208,-1.59921 -3.55271e-15,-2.20929c5.27208,-0.61008 13.8198,-0.61008 19.0919,0"></path>
        <path d="M84.0459,79.4576c5.27208,0.61008 5.27208,1.59921 0,2.20929c-5.27208,0.61008 -13.8198,0.61008 -19.0919,0c-5.27208,-0.61008 -5.27208,-1.59921 -1.42109e-14,-2.20929c5.27208,-0.61008 13.8198,-0.61008 19.0919,0"></path>
        <path d="M54.2175,78.322c3.70998,0.429316 3.70998,1.12537 0,1.55469c-3.70998,0.429316 -9.72505,0.429316 -13.435,0c-3.70998,-0.429316 -3.70998,-1.12537 -7.10543e-15,-1.55469c3.70998,-0.429316 9.72505,-0.429316 13.435,0"></path>
    </g>
    <g transform="matrix(1,0,0,1,49.5,34.0285)">
        <g transform="matrix(-1,0,0,1,0,0)">
            <path fill="#F6F5FA" fill-rule="evenodd" stroke="none" d="M87.0196,41.3714h4.63759c4.05534,0 7.34285,3.28751 7.34285,7.34285c0,4.05534 -3.28751,7.34285 -7.34285,7.34285h-78.0661c-4.05534,0 -7.34285,-3.28751 -7.34285,-7.34285c0,-4.05534 3.28751,-7.34285 7.34285,-7.34285h10.0481c4.05534,0 7.34285,-3.28751 7.34285,-7.34285c0,-4.05534 -3.28751,-7.34285 -7.34285,-7.34285h-16.2639h-0.0323854c-4.05534,0 -7.34285,-3.28751 -7.34285,-7.34285c-4.44089e-16,-4.05534 3.28751,-7.34285 7.34285,-7.34285h71.1745c4.05534,0 7.34285,3.28751 7.34285,7.34285c0,4.05534 -3.28751,7.34285 -7.34285,7.34285h-0.276355c-4.05534,0 -7.34285,3.28751 -7.34285,7.34285c0,4.05534 3.28751,7.34285 7.34285,7.34285h8.7786Z" transform="matrix(1,0,0,1,-49.5,-34.0285)"></path>
        </g>
    </g>
    <use xlink:href="#a" fill="#78C0E0" stroke="none"></use>
    <use fill="none" fill-rule="evenodd" stroke="#585269" stroke-linecap="round" stroke-linejoin="round" stroke-width="1" xlink:href="#a"></use>
    <use xlink:href="#b" fill="#78C0E0" stroke="none"></use>
    <use fill="none" fill-rule="evenodd" stroke="#585269" stroke-linecap="round" stroke-linejoin="round" stroke-width="1" xlink:href="#b"></use>
    <g stroke-linecap="round" stroke-width="1" stroke="#585269" fill="#FBE8DC" stroke-linejoin="round">
        <path d="M64,63.75v3e-07c1e-07,0.966498 0.783502,1.75 1.75,1.75c0.966498,-2e-07 1.75,-0.783502 1.75,-1.75v-1.75h-3.5v1.75Z"></path>
        <path d="M80.5,63.75v3e-07c1e-07,0.966498 0.783502,1.75 1.75,1.75c0.966498,-2e-07 1.75,-0.783502 1.75,-1.75v-1.75h-3.5v1.75Z"></path>
        <path fill="#FFF" d="M74,42.5l-3.17,3.62l3.17,8.88l3.17,-8.88Z"></path>
        <path fill="#CBC9D3" d="M82,79.5c0,-1.65685 -1.34315,-3 -3,-3h-0.5h-1e-07c-1.65685,1e-07 -3,1.34315 -3,3c0,0 0,0 0,0h6.5Z"></path>
        <path fill="#CBC9D3" d="M72.5,79.5c0,-1.65685 -1.34315,-3 -3,-3h-0.5h-1e-07c-1.65685,1e-07 -3,1.34315 -3,3c0,0 0,0 0,0h6.5Z"></path>
        <path fill="#78C0E0" d="M74,55l5.5,-6.5l-1,-2h2l-0.59,-2.18c-0.55031,-0.388059 -1.13628,-0.7229 -1.75,-0.999999l-4.16,11.68Z"></path>
        <path fill="#BBDFEF" d="M74,42.5l-1.71,7.71l1.71,4.79l1.71,-4.79Z"></path>
        <path fill="#78C0E0" d="M74,55l-4.16,-11.64l-6e-07,3e-07c-0.613716,0.277099 -1.19969,0.611939 -1.75,0.999998l-0.590002,2.14h2l-1,2l5.5,6.5Z"></path>
        <path fill="#FFF" d="M78.16,43.36l-5e-07,-2e-07c-1.3135,-0.567373 -2.72919,-0.860039 -4.16,-0.86l3.17,3.62l0.99,-2.76Z"></path>
        <path fill="#FFF" d="M74,42.5c-1.43081,-3.93e-05 -2.8465,0.292627 -4.16,0.86l1,2.76l3.16,-3.62Z"></path>
        <path fill="none" fill-rule="evenodd" d="M74,55v10"></path>
        <path d="M81,34.5v-1.1e-06c-0.0039697,-0.58749 -0.422858,-1.09015 -1,-1.2v-0.8c0,-3.31371 -2.68629,-6 -6,-6c-3.31371,0 -6,2.68629 -6,6v0.8c-0.577143,0.109845 -0.996031,0.61251 -1,1.2v1.1e-06c0.0072711,0.638417 0.494487,1.16875 1.13,1.23l-1e-07,-8e-07c0.686056,3.24191 3.8703,5.31384 7.11222,4.62779c2.32218,-0.491421 4.13636,-2.30561 4.62778,-4.62778c0.635514,-0.0612506 1.12273,-0.591583 1.13,-1.23l3e-07,-9.2e-06Z"></path>
    </g>
    <path fill="#606272" stroke="none" d="M71.75,32.5c-0.414214,0 -0.75,0.335786 -0.75,0.75c0,0.414214 0.335786,0.75 0.75,0.75c0.414214,0 0.75,-0.335786 0.75,-0.75v2e-06c-0.0053847,-0.411962 -0.338036,-0.744615 -0.749998,-0.750002h-2e-06Z"></path>
    <path d="M76.25,32.5c-0.414214,0 -0.75,0.335786 -0.75,0.75c0,0.414214 0.335786,0.75 0.75,0.75c0.414214,0 0.75,-0.335786 0.75,-0.75v2e-06c-0.0053847,-0.411962 -0.338036,-0.744615 -0.749998,-0.750002h-2e-06Z" fill="#606272" stroke="none"></path>
    <path fill="none" fill-rule="evenodd" stroke="#585269" stroke-linecap="round" stroke-linejoin="round" stroke-width="1" d="M72.5,37.05c0.909603,0.601322 2.0904,0.601322 3,0"></path>
    <use xlink:href="#c" fill="#FFC15E" stroke="none"></use>
    <use fill="none" fill-rule="evenodd" stroke="#585269" stroke-linecap="round" stroke-linejoin="round" stroke-width="1" xlink:href="#c"></use>
    <path d="M70,29c0.254583,0.403741 0.596259,0.745417 1,1" stroke-linecap="round" stroke-width="1" fill-rule="evenodd" stroke="#585269" fill="none" stroke-linejoin="round"></path>
    <path fill="#FBE8DC" stroke="#585269" stroke-linecap="round" stroke-linejoin="round" stroke-width="1" d="M28,63.75v3e-07c1e-07,0.966498 0.783502,1.75 1.75,1.75c0.966498,-2e-07 1.75,-0.783502 1.75,-1.75v-10.25h-3.5v10.25Z"></path>
    <use xlink:href="#d" fill="#AEECE0" stroke="none"></use>
    <use fill="none" fill-rule="evenodd" stroke="#585269" stroke-linecap="round" stroke-linejoin="round" stroke-width="1" xlink:href="#d"></use>
    <use xlink:href="#e" fill="#E9E8EC" stroke="none"></use>
    <use fill="none" fill-rule="evenodd" stroke="#585269" stroke-linecap="round" stroke-linejoin="round" stroke-width="1" xlink:href="#e"></use>
    <g stroke-linecap="round" stroke-width="1" stroke="#585269" fill="#FBE8DC" stroke-linejoin="round">
        <path d="M12.5,63.75v3e-07c1e-07,0.966498 0.783502,1.75 1.75,1.75c0.966498,-2e-07 1.75,-0.783502 1.75,-1.75v-10.25h-3.5v10.25Z"></path>
        <path fill="none" fill-rule="evenodd" d="M16,53.5v-3.49"></path>
        <path fill="none" fill-rule="evenodd" d="M29,53.5v-3"></path>
        <path fill="#CBC9D3" d="M31.5,79.5c0,-1.65685 -1.34315,-3 -3,-3h-4v3h7Z"></path>
        <path fill="#CBC9D3" d="M23,79.5c0,-1.65685 -1.34315,-3 -3,-3h-4v3h7Z"></path>
        <path d="M22,42.5c-1.00185,0.0016146 -1.99725,0.160205 -2.95,0.47v6e-07c0.237681,1.9072 1.97645,3.26061 3.88365,3.02293c1.44292,-0.179822 2.62193,-1.23782 2.95635,-2.65293l-2e-07,-1e-07c-1.22156,-0.555309 -2.54814,-0.841769 -3.89,-0.839999l1e-07,-1.5e-06Z"></path>
    </g>
    <use fill="#FBE8DC" stroke="none" stroke-linecap="round" stroke-linejoin="round" xlink:href="#f"></use>
    <g stroke-linecap="round" stroke="none" fill="#FFF" stroke-linejoin="round">
        <use xlink:href="#f"></use>
        <use fill="rgba(204,91,181,0.1)" xlink:href="#f"></use>
        <use fill="rgba(255,218,158,0.3)" stroke="#585269" stroke-width="1" xlink:href="#f"></use>
    </g>
    <path fill="#606272" stroke="none" d="M21.75,32.5c-0.414214,0 -0.75,0.335786 -0.75,0.75c0,0.414214 0.335786,0.75 0.75,0.75c0.414214,0 0.75,-0.335786 0.75,-0.75c0,-0.414214 -0.335786,-0.75 -0.75,-0.75Z"></path>
    <path d="M26.25,32.5c-0.414214,0 -0.75,0.335786 -0.75,0.75c0,0.414214 0.335786,0.75 0.75,0.75c0.414214,0 0.75,-0.335786 0.75,-0.75c0,-0.414214 -0.335786,-0.75 -0.75,-0.75Z" fill="#606272" stroke="none"></path>
    <path fill="none" fill-rule="evenodd" stroke="#585269" stroke-linecap="round" stroke-linejoin="round" stroke-width="1" d="M22.5,37c0.73855,0.651549 1.81298,0.75253 2.66,0.25c0.121304,-0.0766404 0.238159,-0.160108 0.349998,-0.25"></path>
    <use xlink:href="#g" fill="#FFC15E" stroke="none"></use>
    <use fill="none" fill-rule="evenodd" stroke="#585269" stroke-linecap="round" stroke-linejoin="round" stroke-width="1" xlink:href="#g"></use>
    <g stroke-linecap="round" stroke-width="1" fill-rule="evenodd" stroke="#585269" fill="none" stroke-linejoin="round">
        <path d="M67.5,62v-10.67"></path>
        <path d="M80.5,62v-10.67"></path>
    </g>
    <path fill="#FFF" stroke="#585269" stroke-linejoin="round" stroke-width="1" d="M41.1817,57.6813v-0.529565h-3.15c-0.288899,0.0049818 -0.520478,0.240623 -0.520435,0.529565v1.57957v7.86e-05c0,0.288942 0.231614,0.524549 0.520513,0.529488h3.65217c-0.337461,-0.651362 -0.509922,-1.37558 -0.502252,-2.10913v-1.1e-06Z"></path>
    <path d="M53.7817,57.6813v-0.529565h3.15c0.292471,0 0.529565,0.237095 0.529565,0.529565v1.57957c0,0.292471 -0.237095,0.529565 -0.529565,0.529565h-3.65217c0.334327,-0.652518 0.506576,-1.37597 0.502174,-2.10913Z" stroke-width="1" stroke="#585269" fill="#FFF" stroke-linejoin="round"></path>
    <use fill="#F5A1A7" stroke="none" xlink:href="#h"></use>
    <use xlink:href="#h" stroke-linecap="round" stroke-width="1" fill-rule="evenodd" stroke="#585269" fill="none" stroke-linejoin="round"></use>
    <path fill="#CBC9D3" stroke="#585269" stroke-linecap="round" stroke-linejoin="round" stroke-width="1" d="M52.9783,78.1517c0.57481,-0.0072855 1.03488,-0.479167 1.02759,-1.05398c-0.0020365,-0.16067 -0.0412438,-0.318688 -0.11455,-0.461675c-0.547903,-1.00236 -1.59682,-1.62821 -2.73913,-1.63435h-0.529565c-1.73761,0.0050147 -3.14499,1.41239 -3.15,3.15h5.50565Z"></path>
    <g stroke-linecap="round" stroke-width="1" stroke="#585269" fill="#CBC9D3" stroke-linejoin="round">
        <path d="M47.4817,78.1517v-0.0001203c0,-1.73969 -1.41031,-3.15 -3.15,-3.15c-0.0091702,0 -0.0183405,4.01e-05 -0.0275103,0.0001202h-0.520435h1e-07c-1.14231,0.006139 -2.19123,0.631991 -2.73913,1.63435c-0.262262,0.511545 -0.0601766,1.13884 0.451369,1.4011c0.142987,0.0733071 0.301004,0.112514 0.461675,0.114551h5.52403Z"></path>
        <path fill="none" fill-rule="evenodd" d="M47.4817,61.8813v16.2704"></path>
        <path fill="#FBE8DC" d="M38.0317,59.7813v1.82609v3e-07c2e-07,1.00852 0.817567,1.82609 1.82609,1.82609c1.00852,-1e-07 1.82609,-0.817567 1.82609,-1.82609v-1.82609h-3.65217Z"></path>
    </g>
    <use fill="#FFF" stroke="none" xlink:href="#i"></use>
    <g stroke-linecap="round" stroke-width="1" fill-rule="evenodd" stroke="#585269" fill="none" stroke-linejoin="round">
        <use xlink:href="#i"></use>
        <path d="M53.2613,59.7813h-11.55"></path>
        <path d="M41.1817,57.1609v0v-8.92957"></path>
        <path d="M53.7909,57.1609h-0.009131v-8.92957"></path>
    </g>
    <path opacity="0.60" fill="#E2D9FF" stroke="none" d="M52.5472,42.6363c0.246031,0.246031 0.246031,0.644925 0,0.890954c-0.24603,0.246031 -0.644925,0.246031 -0.890954,0c-0.246031,-0.246031 -0.246031,-0.644925 0,-0.890954c0.24603,-0.24603 0.644925,-0.24603 0.890954,0"></path>
    <g fill="#E2D9FF" stroke="none">
        <path opacity="0.60" d="M52.5472,48.9363c0.246031,0.24603 0.246031,0.644925 0,0.890954c-0.24603,0.246031 -0.644925,0.246031 -0.890954,0c-0.246031,-0.24603 -0.246031,-0.644925 0,-0.890954c0.24603,-0.246031 0.644925,-0.246031 0.890954,0"></path>
        <path opacity="0.60" d="M52.5472,55.2363c0.246031,0.246031 0.246031,0.644925 0,0.890954c-0.24603,0.246031 -0.644925,0.246031 -0.890954,0c-0.246031,-0.246031 -0.246031,-0.644925 0,-0.890954c0.24603,-0.24603 0.644925,-0.24603 0.890954,0"></path>
        <path opacity="0.60" d="M49.3972,45.7863c0.246031,0.24603 0.246031,0.644925 0,0.890954c-0.246031,0.246031 -0.644925,0.246031 -0.890954,0c-0.24603,-0.24603 -0.24603,-0.644925 0,-0.890954c0.246031,-0.246031 0.644925,-0.246031 0.890954,0"></path>
        <path opacity="0.60" d="M46.2472,48.9363c0.246031,0.24603 0.246031,0.644925 0,0.890954c-0.246031,0.246031 -0.644925,0.246031 -0.890954,0c-0.24603,-0.24603 -0.24603,-0.644925 0,-0.890954c0.246031,-0.246031 0.644925,-0.246031 0.890954,0"></path>
        <path opacity="0.60" d="M49.3972,52.0863c0.246031,0.246031 0.246031,0.644925 0,0.890954c-0.246031,0.246031 -0.644925,0.246031 -0.890954,0c-0.24603,-0.246031 -0.24603,-0.644925 0,-0.890954c0.246031,-0.24603 0.644925,-0.24603 0.890954,0"></path>
        <path opacity="0.60" d="M46.2472,55.2363c0.246031,0.246031 0.246031,0.644925 0,0.890954c-0.246031,0.246031 -0.644925,0.246031 -0.890954,0c-0.24603,-0.246031 -0.24603,-0.644925 0,-0.890954c0.246031,-0.24603 0.644925,-0.24603 0.890954,0"></path>
        <path opacity="0.60" d="M46.2472,42.6363c0.246031,0.246031 0.246031,0.644925 0,0.890954c-0.246031,0.246031 -0.644925,0.246031 -0.890954,0c-0.24603,-0.246031 -0.24603,-0.644925 0,-0.890954c0.246031,-0.24603 0.644925,-0.24603 0.890954,0"></path>
        <path opacity="0.60" d="M43.0972,52.0863c0.246031,0.246031 0.246031,0.644925 0,0.890954c-0.246031,0.246031 -0.644925,0.246031 -0.890954,0c-0.246031,-0.246031 -0.246031,-0.644925 0,-0.890954c0.24603,-0.24603 0.644925,-0.24603 0.890954,0"></path>
        <path opacity="0.60" d="M43.0972,45.7863c0.246031,0.24603 0.246031,0.644925 0,0.890954c-0.246031,0.246031 -0.644925,0.246031 -0.890954,0c-0.246031,-0.24603 -0.246031,-0.644925 0,-0.890954c0.24603,-0.246031 0.644925,-0.246031 0.890954,0"></path>
    </g>
    <path fill="#FBE8DC" stroke="#585269" stroke-linecap="round" stroke-linejoin="round" stroke-width="1" d="M53.2613,59.7813v1.82609v3e-07c2e-07,1.00852 0.817568,1.82609 1.82609,1.82609c1.00852,-1e-07 1.82609,-0.817567 1.82609,-1.82609v-1.82609h-3.65217Z"></path>
    <g stroke-linecap="round" stroke-width="1" stroke="#585269" fill="#FBE8DC" stroke-linejoin="round">
        <path d="M54.8317,30.9017v-2.3e-06c-0.0032982,-0.615336 -0.444546,-1.14099 -1.05,-1.25087v-0.84913c0,-3.47939 -2.82061,-6.3 -6.3,-6.3c-3.47939,0 -6.3,2.82061 -6.3,6.3v0.84913c-0.696867,0.11297 -1.17021,0.769472 -1.05724,1.46634c0.0962595,0.593787 0.593497,1.04011 1.1942,1.07192l-1e-07,-7e-07c0.709552,3.40627 4.04609,5.5924 7.45237,4.88286c2.45411,-0.51121 4.37164,-2.42873 4.88286,-4.88286c0.665841,-0.0612105 1.17593,-0.618744 1.17783,-1.28739l-9e-06,3e-06Z"></path>
        <path fill="none" fill-rule="evenodd" d="M45.9113,33.577c0.953007,0.638244 2.19699,0.638244 3.15,0"></path>
    </g>
    <use fill="#FFC15E" stroke="none" xlink:href="#j"></use>
    <use xlink:href="#j" stroke-linecap="round" stroke-width="1" fill-rule="evenodd" stroke="#585269" fill="none" stroke-linejoin="round"></use>
    <use fill="#FFC15E" stroke="none" xlink:href="#k"></use>
    <use xlink:href="#k" stroke-linecap="round" stroke-width="1" fill-rule="evenodd" stroke="#585269" fill="none" stroke-linejoin="round"></use>
    <path fill="#606272" stroke="none" d="M45.1261,28.8474c-0.438677,-0.0050139 -0.798361,0.34654 -0.803374,0.785217c-0.0050139,0.438677 0.34654,0.798361 0.785217,0.803374c0.438677,0.0050139 0.798361,-0.34654 0.803374,-0.785217c6.92e-05,-0.0060522 6.92e-05,-0.012105 0,-0.0181572v3.2e-06c-0.0049313,-0.431604 -0.353611,-0.780286 -0.785215,-0.78522l-2.7e-06,-1e-07Z"></path>
    <path d="M49.8465,28.8474c-0.438677,-0.0050139 -0.798361,0.34654 -0.803374,0.785217c-0.0050139,0.438677 0.34654,0.798361 0.785217,0.803374c0.438677,0.0050139 0.798361,-0.34654 0.803374,-0.785217c6.92e-05,-0.0060522 6.92e-05,-0.012105 0,-0.0181572c0,-0.433664 -0.351554,-0.785217 -0.785217,-0.785217v4e-07Z" fill="#606272" stroke="none"></path>
    <path fill="#FFC15E" stroke="#585269" stroke-linecap="round" stroke-linejoin="round" stroke-width="1" d="M55.0538,32.2593c0.410051,0.410051 0.410051,1.07487 0,1.48493c-0.410051,0.410051 -1.07487,0.410051 -1.48493,0c-0.41005,-0.41005 -0.41005,-1.07487 0,-1.48493c0.410051,-0.410051 1.07487,-0.410051 1.48493,0"></path>
    <path d="M41.4038,32.2593c0.410051,0.410051 0.410051,1.07487 0,1.48493c-0.410051,0.410051 -1.07487,0.410051 -1.48493,0c-0.410051,-0.41005 -0.410051,-1.07487 0,-1.48493c0.410051,-0.410051 1.07487,-0.410051 1.48493,0" stroke-linecap="round" stroke-width="1" stroke="#585269" fill="#FFC15E" stroke-linejoin="round"></path>
</svg>