<?xml version="1.0" encoding="UTF-8"?>
<svg width="100px" height="100px" viewBox="0 0 100 100" version="1.1" xmlns="http://www.w3.org/2000/svg" xmlns:xlink="http://www.w3.org/1999/xlink">
    <!-- Generator: Sketch Beta 51 (57462) - http://www.bohemiancoding.com/sketch -->
    <title>Slice 2</title>
    <desc>Created with Sketch Beta.</desc>
    <defs></defs>
    <g id="Biings-3" stroke="none" stroke-width="1" fill="none" fill-rule="evenodd">
        <g id="Illustrations" transform="translate(-213.000000, -167.000000)">
            <path d="M300.898547,212.537465 L305.58298,212.537465 C309.679287,212.537465 313,215.858178 313,219.954485 C313,224.050791 309.679287,227.371504 305.58298,227.371504 L226.728355,227.371504 C222.632049,227.371504 219.311336,224.050791 219.311336,219.954485 C219.311336,215.858178 222.632049,212.537465 226.728355,212.537465 L236.87796,212.537465 C240.974267,212.537465 244.29498,209.216753 244.29498,205.120446 C244.29498,201.02414 240.974267,197.703427 236.87796,197.703427 L220.449732,197.703427 L220.417019,197.703427 C216.320713,197.703427 213,194.382714 213,190.286408 C213,186.190101 216.320713,182.869389 220.417019,182.869389 L292.31042,182.869389 C296.406726,182.869389 299.727439,186.190101 299.727439,190.286408 C299.727439,194.382714 296.406726,197.703427 292.31042,197.703427 L292.031273,197.703427 C287.934966,197.703427 284.614254,201.02414 284.614254,205.120446 C284.614254,209.216753 287.934966,212.537465 292.031273,212.537465 L300.898547,212.537465 Z" id="Combined-Shape-Copy" fill="#F6F5FA" fill-rule="nonzero" transform="translate(263.000000, 205.120446) scale(-1, 1) translate(-263.000000, -205.120446) "></path>
            <path d="M281.5,231.869389 L281.5,250.369389 L286,250.369389 L286.4,237.919389 L286.4,237.919389 C286.4,237.035733 287.116344,236.319389 288,236.319389 C288.883656,236.319389 289.6,237.035733 289.6,237.919389 C289.6,237.919389 289.6,237.919389 289.6,237.919389 L290,250.369389 L294.5,250.369389 L294.5,231.869389 L281.5,231.869389 Z" id="c" fill="#BDAAFF" fill-rule="nonzero"></path>
            <path d="M281.5,231.869389 L281.5,250.369389 L286,250.369389 L286.4,237.919389 L286.4,237.919389 C286.4,237.035733 287.116344,236.319389 288,236.319389 C288.883656,236.319389 289.6,237.035733 289.6,237.919389 C289.6,237.919389 289.6,237.919389 289.6,237.919389 L290,250.369389 L294.5,250.369389 L294.5,231.869389 L281.5,231.869389 Z" id="c" stroke="#745BCC" stroke-linecap="round" stroke-linejoin="round"></path>
            <path d="M298.5,223.869389 C298.5,218.070399 293.79899,213.369389 288,213.369389 C282.20101,213.369389 277.5,218.070399 277.5,223.869389 L277.5,232.369389 C277.5,232.645531 277.723858,232.869389 278,232.869389 L281.5,232.869389 L281.5,237.869389 L284.76,237.869389 L284.76,237.869389 C286.13236,237.87277 287.38795,237.097715 288,235.869389 L288,235.869389 C288.610444,237.094489 289.86124,237.868969 291.23,237.869389 L294.5,237.869389 L294.5,232.869389 L298,232.869389 C298.276142,232.869389 298.5,232.645531 298.5,232.369389 L298.5,223.869389 Z" id="d" fill="#BDAAFF" fill-rule="nonzero"></path>
            <path d="M298.5,223.869389 C298.5,218.070399 293.79899,213.369389 288,213.369389 C282.20101,213.369389 277.5,218.070399 277.5,223.869389 L277.5,232.369389 C277.5,232.645531 277.723858,232.869389 278,232.869389 L281.5,232.869389 L281.5,237.869389 L284.76,237.869389 L284.76,237.869389 C286.13236,237.87277 287.38795,237.097715 288,235.869389 L288,235.869389 C288.610444,237.094489 289.86124,237.868969 291.23,237.869389 L294.5,237.869389 L294.5,232.869389 L298,232.869389 C298.276142,232.869389 298.5,232.645531 298.5,232.369389 L298.5,223.869389 Z" id="d" stroke="#745BCC" stroke-linecap="round" stroke-linejoin="round"></path>
            <path d="M278,234.619389 L278,234.619389 C278,235.585887 278.783502,236.369389 279.75,236.369389 C280.716498,236.369389 281.5,235.585887 281.5,234.619389 L281.5,232.869389 L278,232.869389 L278,234.619389 Z" id="Shape" stroke="#745BCC" fill="#FFFFFF" fill-rule="nonzero" stroke-linecap="round" stroke-linejoin="round"></path>
            <path d="M294.5,234.619389 L294.5,234.619389 C294.5,235.585887 295.283502,236.369389 296.25,236.369389 C297.216498,236.369389 298,235.585887 298,234.619389 L298,232.869389 L294.5,232.869389 L294.5,234.619389 Z" id="Shape" stroke="#745BCC" fill="#FFFFFF" fill-rule="nonzero" stroke-linecap="round" stroke-linejoin="round"></path>
            <polygon id="Shape" stroke="#745BCC" fill="#FFFFFF" fill-rule="nonzero" stroke-linecap="round" stroke-linejoin="round" points="288 213.369389 284.83 216.989389 288 225.869389 291.17 216.989389"></polygon>
            <path d="M296,250.369389 C296,248.712539 294.65685,247.369389 293,247.369389 L292.5,247.369389 C290.84315,247.369389 289.5,248.712539 289.5,250.369389 C289.5,250.369389 289.5,250.369389 289.5,250.369389 L296,250.369389 Z" id="Shape" stroke="#745BCC" fill="#FFFFFF" fill-rule="nonzero" stroke-linecap="round" stroke-linejoin="round"></path>
            <path d="M286.5,250.369389 C286.5,248.712539 285.15685,247.369389 283.5,247.369389 L283,247.369389 C281.34315,247.369389 280,248.712539 280,250.369389 C280,250.369389 280,250.369389 280,250.369389 L286.5,250.369389 Z" id="Shape" stroke="#745BCC" fill="#FFFFFF" fill-rule="nonzero" stroke-linecap="round" stroke-linejoin="round"></path>
            <path d="M288,225.869389 L293.5,219.369389 L292.5,217.369389 L294.5,217.369389 L293.91,215.189389 C293.35969,214.80133 292.77372,214.466489 292.16,214.18939 L288,225.869389 Z" id="Shape" stroke="#745BCC" fill="#E2D9FF" fill-rule="nonzero" stroke-linecap="round" stroke-linejoin="round"></path>
            <polygon id="Shape" stroke="#745BCC" fill="#E2DAFF" fill-rule="nonzero" stroke-linecap="round" stroke-linejoin="round" points="288 213.369389 286.29 221.079389 288 225.869389 289.71 221.079389"></polygon>
            <path d="M288,225.869389 L283.84,214.229389 L283.839999,214.229389 C283.226283,214.506488 282.640309,214.841328 282.089999,215.229387 L281.499997,217.369387 L283.499997,217.369387 L282.499997,219.369387 L288,225.869389 Z" id="Shape" stroke="#745BCC" fill="#E2D9FF" fill-rule="nonzero" stroke-linecap="round" stroke-linejoin="round"></path>
            <path d="M292.16,214.229389 L292.16,214.229388 C290.8465,213.662015 289.43081,213.369349 288,213.369388 L291.17,216.989388 L292.16,214.229389 Z" id="Shape" stroke="#745BCC" fill="#FFFFFF" fill-rule="nonzero" stroke-linecap="round" stroke-linejoin="round"></path>
            <path d="M288,213.369389 C286.56919,213.369349 285.1535,213.662016 283.84,214.229389 L284.84,216.989389 L288,213.369389 Z" id="Shape" stroke="#745BCC" fill="#FFFFFF" fill-rule="nonzero" stroke-linecap="round" stroke-linejoin="round"></path>
            <path d="M288,225.869389 L288,235.869389" id="Shape" stroke="#745BCC" stroke-linecap="round" stroke-linejoin="round"></path>
            <path d="M295,205.369389 L295,205.369388 C294.99603,204.781898 294.577142,204.279238 294,204.169388 L294,203.369388 C294,200.055678 291.31371,197.369388 288,197.369388 C284.68629,197.369388 282,200.055678 282,203.369388 L282,204.169388 C281.422857,204.279233 281.003969,204.781898 281,205.369388 L281,205.369389 C281.007271,206.007806 281.494487,206.538139 282.13,206.599389 L282.13,206.599388 C282.816056,209.841298 286.0003,211.913228 289.24222,211.227178 C291.5644,210.735757 293.37858,208.921568 293.87,206.599398 C294.505514,206.538147 294.99273,206.007815 295,205.369398 L295,205.369389 Z" id="Shape" stroke="#745BCC" fill="#FFFFFF" fill-rule="nonzero" stroke-linecap="round" stroke-linejoin="round"></path>
            <path d="M285.75,203.369389 C285.335786,203.369389 285,203.705175 285,204.119389 C285,204.533603 285.335786,204.869389 285.75,204.869389 C286.164214,204.869389 286.5,204.533603 286.5,204.119389 L286.5,204.119391 C286.494615,203.707429 286.161964,203.374776 285.750002,203.369389 L285.75,203.369389 Z" id="Shape" fill="#715FC7" fill-rule="nonzero"></path>
            <path d="M290.25,203.369389 C289.835786,203.369389 289.5,203.705175 289.5,204.119389 C289.5,204.533603 289.835786,204.869389 290.25,204.869389 C290.664214,204.869389 291,204.533603 291,204.119389 L291,204.119391 C290.994615,203.707429 290.661964,203.374776 290.250002,203.369389 L290.25,203.369389 Z" id="Shape" fill="#715FC7" fill-rule="nonzero"></path>
            <path d="M286.5,207.919389 C287.409603,208.520711 288.5904,208.520711 289.5,207.919389" id="Shape" stroke="#745BCC" stroke-linecap="round" stroke-linejoin="round"></path>
            <path d="M294.5,201.869389 C294.5,198.279539 291.58985,195.369389 288,195.369389 C284.41015,195.369389 281.5,198.279539 281.5,201.869389 L281.5,203.869389 C283.07407,203.476501 284.37099,202.364859 285,200.869389 C287.8,202.759389 291.5,202.369389 294.5,201.869389 L294.5,201.869389 Z" id="e" fill="#FFFFFF" fill-rule="nonzero"></path>
            <path d="M294.5,201.869389 C294.5,198.279539 291.58985,195.369389 288,195.369389 C284.41015,195.369389 281.5,198.279539 281.5,201.869389 L281.5,203.869389 C283.07407,203.476501 284.37099,202.364859 285,200.869389 C287.8,202.759389 291.5,202.369389 294.5,201.869389 L294.5,201.869389 Z" id="e" stroke="#745BCC" stroke-linecap="round" stroke-linejoin="round"></path>
            <path d="M284,199.869389 C284.254583,200.27313 284.596259,200.614806 285,200.869389" id="Shape" stroke="#745BCC" stroke-linecap="round" stroke-linejoin="round"></path>
            <path d="M242,234.619389 L242,234.619389 C242,235.585887 242.783502,236.369389 243.75,236.369389 C244.716498,236.369389 245.5,235.585887 245.5,234.619389 L245.5,224.369389 L242,224.369389 L242,234.619389 Z" id="Shape" stroke="#745BCC" fill="#FFFFFF" fill-rule="nonzero" stroke-linecap="round" stroke-linejoin="round"></path>
            <path d="M230,231.869388 L230,250.369389 L234.5,250.369389 L234.9,237.919389 L234.9,237.919388 C234.9,237.035732 235.616345,236.319388 236.5,236.319388 C237.383656,236.319389 238.1,237.035733 238.1,237.919388 L238.5,250.369388 L243,250.369389 L243,231.869388 L230,231.869388 Z" id="f" fill="#BDAAFF" fill-rule="nonzero"></path>
            <path d="M230,231.869388 L230,250.369389 L234.5,250.369389 L234.9,237.919389 L234.9,237.919388 C234.9,237.035732 235.616345,236.319388 236.5,236.319388 C237.383656,236.319389 238.1,237.035733 238.1,237.919388 L238.5,250.369388 L243,250.369389 L243,231.869388 L230,231.869388 Z" id="f" stroke="#745BCC" stroke-linecap="round" stroke-linejoin="round"></path>
            <path d="M226.5,222.869389 L226.5,222.86939 C226.499999,217.62268 230.75329,213.36939 236,213.36939 C241.24671,213.369389 245.5,217.62268 245.5,222.86939 C245.5,222.86939 245.5,222.86939 245.5,222.86939 L245.5,224.36939 L243,224.36939 L243,231.86939 L230,231.86939 L230,224.36939 L226.5,224.36939 L226.5,222.869389 Z" id="g" fill="#FFFFFF" fill-rule="nonzero"></path>
            <path d="M226.5,222.869389 L226.5,222.86939 C226.499999,217.62268 230.75329,213.36939 236,213.36939 C241.24671,213.369389 245.5,217.62268 245.5,222.86939 C245.5,222.86939 245.5,222.86939 245.5,222.86939 L245.5,224.36939 L243,224.36939 L243,231.86939 L230,231.86939 L230,224.36939 L226.5,224.36939 L226.5,222.869389 Z" id="g" stroke="#745BCC" stroke-linecap="round" stroke-linejoin="round"></path>
            <path d="M226.5,234.619389 L226.5,234.619389 C226.5,235.585887 227.283502,236.369389 228.25,236.369389 C229.216498,236.369389 230,235.585887 230,234.619389 L230,224.369389 L226.5,224.369389 L226.5,234.619389 Z" id="Shape" stroke="#745BCC" fill="#FFFFFF" fill-rule="nonzero" stroke-linecap="round" stroke-linejoin="round"></path>
            <path d="M230,224.369389 L230,220.879389" id="Shape" stroke="#745BCC" stroke-linecap="round" stroke-linejoin="round"></path>
            <path d="M243,224.369389 L243,221.369389" id="Shape" stroke="#745BCC" stroke-linecap="round" stroke-linejoin="round"></path>
            <path d="M245.5,250.369389 C245.5,248.712539 244.15685,247.369389 242.5,247.369389 L238.5,247.369389 L238.5,250.369389 L245.5,250.369389 Z" id="Shape" stroke="#745BCC" fill="#FFFFFF" fill-rule="nonzero" stroke-linecap="round" stroke-linejoin="round"></path>
            <path d="M237,250.369389 C237,248.712539 235.65685,247.369389 234,247.369389 L230,247.369389 L230,250.369389 L237,250.369389 Z" id="Shape" stroke="#745BCC" fill="#FFFFFF" fill-rule="nonzero" stroke-linecap="round" stroke-linejoin="round"></path>
            <path d="M236,213.369389 C234.99815,213.371003 234.00275,213.529594 233.05,213.839389 L233.05,213.839389 C233.287681,215.746589 235.02645,217.099999 236.93365,216.862319 C238.37657,216.682497 239.55558,215.624499 239.89,214.209389 L239.89,214.209389 C238.66844,213.65408 237.34186,213.36762 236,213.36939 L236,213.369389 Z" id="Shape" stroke="#745BCC" fill="#FFFFFF" fill-rule="nonzero" stroke-linecap="round" stroke-linejoin="round"></path>
            <path d="M236.48,196.929389 L236.48,196.929389 C233.16629,196.929389 230.48,199.615679 230.48,202.929389 C230.48,202.929389 230.48,202.929389 230.48,202.929389 L230.48,204.129389 C228.76,204.129389 228.88,207.129389 230.78,207.129389 C231.78033,210.288499 235.15223,212.038539 238.31134,211.038209 C240.79425,210.251995 242.48643,207.953769 242.5,205.349389 L242.5,202.949389 L242.5,202.949334 C242.511033,199.635644 239.8337,196.940424 236.52001,196.929394 C236.506655,196.92935 236.493299,196.92935 236.479944,196.929394 L236.48,196.929389 Z" id="Shape" stroke="#745BCC" fill="#FFFFFF" fill-rule="nonzero" stroke-linecap="round" stroke-linejoin="round"></path>
            <path d="M235.75,203.369389 C235.335786,203.369389 235,203.705175 235,204.119389 C235,204.533603 235.335786,204.869389 235.75,204.869389 C236.164214,204.869389 236.5,204.533603 236.5,204.119389 C236.5,203.705175 236.164214,203.369389 235.75,203.369389 Z" id="Shape" fill="#715FC7" fill-rule="nonzero"></path>
            <path d="M240.25,203.369389 C239.835786,203.369389 239.5,203.705175 239.5,204.119389 C239.5,204.533603 239.835786,204.869389 240.25,204.869389 C240.664214,204.869389 241,204.533603 241,204.119389 C241,203.705175 240.664214,203.369389 240.25,203.369389 Z" id="Shape" fill="#715FC7" fill-rule="nonzero"></path>
            <path d="M236.5,207.869388 C237.23855,208.520937 238.31298,208.621918 239.16,208.119388 C239.281304,208.042748 239.398159,207.95928 239.509998,207.869388" id="Shape" stroke="#745BCC" stroke-linecap="round" stroke-linejoin="round"></path>
            <path d="M242.64,202.339389 C243.84,201.739389 243.13,198.639389 242.03,198.129389 L242.82,197.509389 C243.225808,197.212901 243.31443,196.643577 243.017942,196.237769 C242.827073,195.976523 242.511844,195.836267 242.19,195.86939 L234.81,195.86939 L234.81,195.86939 C232.22063,195.803095 230.06779,197.84845 230.0015,200.43782 C230.000634,200.471671 230.000134,200.50553 230,200.539393 L230,204.149393 C233.61,204.149393 233.53,201.309393 236.62,200.539393 C236.7,201.239393 237.62,201.899393 239.03,202.339393 L239.03,202.339393 C239.007652,201.367629 239.777305,200.561743 240.74907,200.539393 C240.776044,200.538773 240.803027,200.538773 240.830001,200.539393 L242.64,202.339389 Z" id="h" fill="#BDAAFF" fill-rule="nonzero"></path>
            <path d="M242.64,202.339389 C243.84,201.739389 243.13,198.639389 242.03,198.129389 L242.82,197.509389 C243.225808,197.212901 243.31443,196.643577 243.017942,196.237769 C242.827073,195.976523 242.511844,195.836267 242.19,195.86939 L234.81,195.86939 L234.81,195.86939 C232.22063,195.803095 230.06779,197.84845 230.0015,200.43782 C230.000634,200.471671 230.000134,200.50553 230,200.539393 L230,204.149393 C233.61,204.149393 233.53,201.309393 236.62,200.539393 C236.7,201.239393 237.62,201.899393 239.03,202.339393 L239.03,202.339393 C239.007652,201.367629 239.777305,200.561743 240.74907,200.539393 C240.776044,200.538773 240.803027,200.538773 240.830001,200.539393 L242.64,202.339389 Z" id="h" stroke="#745BCC" stroke-linecap="round" stroke-linejoin="round"></path>
            <path d="M281.5,232.869389 L281.5,222.199389" id="Shape" stroke="#745BCC" stroke-linecap="round" stroke-linejoin="round"></path>
            <path d="M294.5,232.869389 L294.5,222.199389" id="Shape" stroke="#745BCC" stroke-linecap="round" stroke-linejoin="round"></path>
            <path d="M255.181739,228.550693 L255.181739,228.021128 L252.031739,228.021128 C251.74284,228.02611 251.511261,228.261751 251.511304,228.550693 L251.511304,230.130258 L251.511304,230.130337 C251.511304,230.419279 251.742918,230.654886 252.031818,230.659824 L255.683992,230.659824 C255.346531,230.008463 255.17407,229.284242 255.181739,228.550694 L255.181739,228.550693 Z" id="Shape" stroke="#745BCC" fill="#FFFFFF" fill-rule="nonzero" stroke-linejoin="round"></path>
            <path d="M267.781739,228.550693 L267.781739,228.021128 L270.931739,228.021128 C271.22421,228.021128 271.461304,228.258222 271.461304,228.550693 L271.461304,230.130258 C271.461304,230.422729 271.22421,230.659823 270.931739,230.659823 L267.279565,230.659823 C267.613892,230.007305 267.786141,229.283858 267.781739,228.550693 Z" id="Shape" stroke="#745BCC" fill="#FFFFFF" fill-rule="nonzero" stroke-linejoin="round"></path>
            <polygon id="j" fill="#E2DAFF" fill-rule="nonzero" points="255.711304 232.750693 257.811304 249.021128 265.161304 249.021128 267.261304 232.750693"></polygon>
            <polygon id="j" stroke="#745BCC" stroke-linecap="round" stroke-linejoin="round" points="255.711304 232.750693 257.811304 249.021128 265.161304 249.021128 267.261304 232.750693"></polygon>
            <path d="M266.978261,249.021128 C267.553071,249.013842 268.013141,248.541961 268.005855,247.967147 C268.003818,247.806477 267.964611,247.648459 267.891304,247.505472 C267.343401,246.503114 266.294483,245.87726 265.152174,245.871124 L264.622609,245.871124 C262.884996,245.876139 261.477621,247.283511 261.472609,249.021128 L266.978261,249.021128 Z" id="Shape" stroke="#745BCC" fill="#FFFFFF" fill-rule="nonzero" stroke-linecap="round" stroke-linejoin="round"></path>
            <path d="M261.481739,249.021129 L261.481739,249.021009 C261.481739,247.281314 260.071434,245.871009 258.331739,245.871009 C258.322569,245.871009 258.313399,245.871049 258.304229,245.871129 L257.783794,245.871129 C256.641485,245.877268 255.592563,246.50312 255.044664,247.505477 C254.782402,248.017022 254.984487,248.644316 255.496033,248.906578 C255.63902,248.979886 255.797037,249.019093 255.957708,249.021129 L261.481739,249.021129 Z" id="Shape" stroke="#745BCC" fill="#FFFFFF" fill-rule="nonzero" stroke-linecap="round" stroke-linejoin="round"></path>
            <path d="M261.481739,232.750693 L261.481739,249.021128" id="Shape" stroke="#745BCC" stroke-linecap="round" stroke-linejoin="round"></path>
            <path d="M252.031739,230.650693 L252.031739,232.47678 L252.031739,232.47678 C252.031739,233.485301 252.849307,234.302867 253.857826,234.302867 C254.866346,234.302867 255.683913,233.4853 255.683913,232.47678 L255.683913,230.650693 L252.031739,230.650693 Z" id="Shape" stroke="#745BCC" fill="#FFFFFF" fill-rule="nonzero" stroke-linecap="round" stroke-linejoin="round"></path>
            <path d="M265.937391,211.303302 C265.135976,210.873857 264.634652,210.039476 264.631739,209.130258 C264.631739,208.55036 264.161638,208.080258 263.581739,208.080258 L259.381739,208.080258 C258.796885,208.070152 258.314574,208.536078 258.304466,209.120936 C258.304413,209.124045 258.304373,209.127154 258.304346,209.130263 L258.304346,209.130969 C258.304346,210.040961 257.806657,210.878078 257.007204,211.312778 L257.007204,211.312778 C253.929708,212.946971 252.005296,216.146129 252.003725,219.630604 L252.003725,228.030604 L255.153725,228.030604 L255.153725,228.56017 L255.153725,228.56011 C255.15596,229.292869 255.337777,230.013912 255.683262,230.660119 L255.683262,232.760119 L267.261293,232.760119 L267.261293,230.660119 L267.261293,230.660119 C267.600531,230.011932 267.779021,229.291704 267.781727,228.560119 L267.781727,228.030553 L270.931727,228.030553 L270.931727,219.630553 L270.931727,219.630614 C270.933429,216.145289 269.012921,212.943118 265.937434,211.303338 L265.937391,211.303302 Z" id="k" fill="#FFFFFF" fill-rule="nonzero"></path>
            <path d="M265.937391,211.303302 C265.135976,210.873857 264.634652,210.039476 264.631739,209.130258 C264.631739,208.55036 264.161638,208.080258 263.581739,208.080258 L259.381739,208.080258 C258.796885,208.070152 258.314574,208.536078 258.304466,209.120936 C258.304413,209.124045 258.304373,209.127154 258.304346,209.130263 L258.304346,209.130969 C258.304346,210.040961 257.806657,210.878078 257.007204,211.312778 L257.007204,211.312778 C253.929708,212.946971 252.005296,216.146129 252.003725,219.630604 L252.003725,228.030604 L255.153725,228.030604 L255.153725,228.56017 L255.153725,228.56011 C255.15596,229.292869 255.337777,230.013912 255.683262,230.660119 L255.683262,232.760119 L267.261293,232.760119 L267.261293,230.660119 L267.261293,230.660119 C267.600531,230.011932 267.779021,229.291704 267.781727,228.560119 L267.781727,228.030553 L270.931727,228.030553 L270.931727,219.630553 L270.931727,219.630614 C270.933429,216.145289 269.012921,212.943118 265.937434,211.303338 L265.937391,211.303302 Z" id="k" stroke="#745BCC" stroke-linecap="round" stroke-linejoin="round"></path>
            <path d="M267.261304,230.650693 L255.711304,230.650693" id="Shape" stroke="#745BCC" stroke-linecap="round" stroke-linejoin="round"></path>
            <polyline id="Shape" stroke="#745BCC" stroke-linecap="round" stroke-linejoin="round" points="255.181739 228.030258 255.181739 228.030258 255.181739 219.100693"></polyline>
            <polyline id="Shape" stroke="#745BCC" stroke-linecap="round" stroke-linejoin="round" points="267.79087 228.030258 267.781739 228.030258 267.781739 219.100693"></polyline>
            <path d="M266.547213,213.505654 C266.793244,213.751684 266.793244,214.150578 266.547213,214.396608 C266.301182,214.642639 265.902288,214.642639 265.656259,214.396608 C265.410228,214.150578 265.410228,213.751683 265.656259,213.505654 C265.902289,213.259623 266.301183,213.259623 266.547213,213.505654" id="Shape" fill="#E2D9FF" fill-rule="nonzero" opacity="0.6"></path>
            <path d="M266.547213,219.805654 C266.793244,220.051684 266.793244,220.450578 266.547213,220.696608 C266.301182,220.942639 265.902288,220.942639 265.656259,220.696608 C265.410228,220.450578 265.410228,220.051683 265.656259,219.805654 C265.902289,219.559623 266.301183,219.559623 266.547213,219.805654" id="Shape" fill="#E2D9FF" fill-rule="nonzero" opacity="0.6"></path>
            <path d="M266.547213,226.105654 C266.793244,226.351684 266.793244,226.750578 266.547213,226.996608 C266.301182,227.242639 265.902288,227.242639 265.656259,226.996608 C265.410228,226.750578 265.410228,226.351683 265.656259,226.105654 C265.902289,225.859623 266.301183,225.859623 266.547213,226.105654" id="Shape" fill="#E2D9FF" fill-rule="nonzero" opacity="0.6"></path>
            <path d="M263.397213,216.655654 C263.643244,216.901684 263.643244,217.300578 263.397213,217.546608 C263.151183,217.792639 262.752288,217.792639 262.506259,217.546608 C262.260228,217.300578 262.260228,216.901683 262.506259,216.655654 C262.752289,216.409623 263.151183,216.409623 263.397213,216.655654" id="Shape" fill="#E2D9FF" fill-rule="nonzero" opacity="0.6"></path>
            <path d="M260.247213,219.805654 C260.493244,220.051684 260.493244,220.450578 260.247213,220.696608 C260.001183,220.942639 259.602288,220.942639 259.356259,220.696608 C259.110228,220.450578 259.110228,220.051683 259.356259,219.805654 C259.602289,219.559623 260.001183,219.559623 260.247213,219.805654" id="Shape" fill="#E2D9FF" fill-rule="nonzero" opacity="0.6"></path>
            <path d="M263.397213,222.955654 C263.643244,223.201684 263.643244,223.600578 263.397213,223.846608 C263.151183,224.092639 262.752288,224.092639 262.506259,223.846608 C262.260228,223.600578 262.260228,223.201683 262.506259,222.955654 C262.752289,222.709623 263.151183,222.709623 263.397213,222.955654" id="Shape" fill="#E2D9FF" fill-rule="nonzero" opacity="0.6"></path>
            <path d="M260.247213,226.105654 C260.493244,226.351684 260.493244,226.750578 260.247213,226.996608 C260.001183,227.242639 259.602288,227.242639 259.356259,226.996608 C259.110228,226.750578 259.110228,226.351683 259.356259,226.105654 C259.602289,225.859623 260.001183,225.859623 260.247213,226.105654" id="Shape" fill="#E2D9FF" fill-rule="nonzero" opacity="0.6"></path>
            <path d="M260.247213,213.505654 C260.493244,213.751684 260.493244,214.150578 260.247213,214.396608 C260.001183,214.642639 259.602288,214.642639 259.356259,214.396608 C259.110228,214.150578 259.110228,213.751683 259.356259,213.505654 C259.602289,213.259623 260.001183,213.259623 260.247213,213.505654" id="Shape" fill="#E2D9FF" fill-rule="nonzero" opacity="0.6"></path>
            <path d="M257.097213,222.955654 C257.343244,223.201684 257.343244,223.600578 257.097213,223.846608 C256.851183,224.092639 256.452288,224.092639 256.206259,223.846608 C255.960228,223.600578 255.960228,223.201683 256.206259,222.955654 C256.452289,222.709623 256.851183,222.709623 257.097213,222.955654" id="Shape" fill="#E2D9FF" fill-rule="nonzero" opacity="0.6"></path>
            <path d="M257.097213,216.655654 C257.343244,216.901684 257.343244,217.300578 257.097213,217.546608 C256.851183,217.792639 256.452288,217.792639 256.206259,217.546608 C255.960228,217.300578 255.960228,216.901683 256.206259,216.655654 C256.452289,216.409623 256.851183,216.409623 257.097213,216.655654" id="Shape" fill="#E2D9FF" fill-rule="nonzero" opacity="0.6"></path>
            <path d="M267.261304,230.650693 L267.261304,232.47678 L267.261304,232.47678 C267.261304,233.485301 268.078872,234.302867 269.087391,234.302867 C270.095912,234.302867 270.913478,233.4853 270.913478,232.47678 L270.913478,230.650693 L267.261304,230.650693 Z" id="Shape" stroke="#745BCC" fill="#FFFFFF" fill-rule="nonzero" stroke-linecap="round" stroke-linejoin="round"></path>
            <path d="M268.831739,201.771128 L268.831739,201.771125 C268.828441,201.15579 268.387193,200.630132 267.781739,200.520256 L267.781739,199.671125 C267.781739,196.191736 264.961129,193.371125 261.481739,193.371125 C258.00235,193.371125 255.181739,196.191736 255.181739,199.671125 L255.181739,200.520256 C254.484872,200.633226 254.011528,201.289728 254.124499,201.986595 C254.220758,202.580381 254.717996,203.026706 255.318696,203.058517 L255.318695,203.058516 C256.028247,206.464789 259.364784,208.650917 262.771066,207.941372 C265.225181,207.430162 267.142709,205.51264 267.653922,203.058516 C268.319763,202.997306 268.829849,202.439772 268.831748,201.771125 L268.831739,201.771128 Z" id="Shape" stroke="#745BCC" fill="#FFFFFF" fill-rule="nonzero" stroke-linecap="round" stroke-linejoin="round"></path>
            <path d="M259.911304,204.446345 C260.864312,205.084589 262.108297,205.084589 263.061304,204.446345" id="Shape" stroke="#745BCC" stroke-linecap="round" stroke-linejoin="round"></path>
            <path d="M258.578261,196.110258 C258.578261,196.110258 261.728261,194.539823 263.298696,196.110258 L266.448696,199.260258 C266.448696,199.260258 268.028261,200.839823 270.10087,198.739823 L269.078261,198.173736 L270.648696,197.123736 C270.648696,197.123736 269.598696,197.123736 268.548696,195.553302 C267.498696,193.982867 265.928261,190.869389 262.248696,190.869389 C256.998696,190.869389 256.478261,194.010258 256.478261,194.010258 L258.578261,196.110258 Z" id="l" fill="#FFFFFF" fill-rule="nonzero"></path>
            <path d="M258.578261,196.110258 C258.578261,196.110258 261.728261,194.539823 263.298696,196.110258 L266.448696,199.260258 C266.448696,199.260258 268.028261,200.839823 270.10087,198.739823 L269.078261,198.173736 L270.648696,197.123736 C270.648696,197.123736 269.598696,197.123736 268.548696,195.553302 C267.498696,193.982867 265.928261,190.869389 262.248696,190.869389 C256.998696,190.869389 256.478261,194.010258 256.478261,194.010258 L258.578261,196.110258 Z" id="l" stroke="#745BCC" stroke-linecap="round" stroke-linejoin="round"></path>
            <path d="M256.478261,194.010258 C256.478261,194.010258 253.848696,194.010258 253.848696,197.160258 C253.848696,199.789823 255.163478,200.492867 255.163478,200.492867 C255.163478,200.492867 256.478261,197.160258 258.578261,196.110258 L256.478261,194.010258 Z" id="m" fill="#FFFFFF" fill-rule="nonzero"></path>
            <path d="M256.478261,194.010258 C256.478261,194.010258 253.848696,194.010258 253.848696,197.160258 C253.848696,199.789823 255.163478,200.492867 255.163478,200.492867 C255.163478,200.492867 256.478261,197.160258 258.578261,196.110258 L256.478261,194.010258 Z" id="m" stroke="#745BCC" stroke-linecap="round" stroke-linejoin="round"></path>
            <path d="M259.126087,199.71678 C258.68741,199.711766 258.327726,200.06332 258.322713,200.501997 C258.317699,200.940675 258.669253,201.300358 259.10793,201.305372 C259.546607,201.310385 259.906291,200.958831 259.911304,200.520154 C259.911373,200.514102 259.911373,200.508049 259.911304,200.501997 L259.911304,200.502 C259.906373,200.070396 259.557694,199.721714 259.12609,199.71678 L259.126087,199.71678 Z" id="Shape" fill="#715FC7" fill-rule="nonzero"></path>
            <path d="M263.846522,199.71678 C263.407845,199.711766 263.048161,200.06332 263.043147,200.501997 C263.038134,200.940675 263.389688,201.300358 263.828365,201.305372 C264.267042,201.310385 264.626726,200.958831 264.631739,200.520154 C264.631808,200.514102 264.631808,200.508049 264.631739,200.501997 C264.631739,200.068333 264.280185,199.71678 263.846522,199.71678 L263.846522,199.71678 Z" id="Shape" fill="#715FC7" fill-rule="nonzero"></path>
            <path d="M269.053791,203.128641 C269.463842,203.538691 269.463842,204.203512 269.053791,204.613569 C268.643741,205.02362 267.97892,205.02362 267.568863,204.613569 C267.158813,204.203519 267.158813,203.538698 267.568863,203.128641 C267.978914,202.71859 268.643734,202.71859 269.053791,203.128641" id="Shape" stroke="#745BCC" fill="#BDAAFF" fill-rule="nonzero" stroke-linecap="round" stroke-linejoin="round"></path>
            <path d="M255.403791,203.128641 C255.813842,203.538691 255.813842,204.203512 255.403791,204.613569 C254.993741,205.02362 254.32892,205.02362 253.918863,204.613569 C253.508813,204.203519 253.508813,203.538698 253.918863,203.128641 C254.328914,202.71859 254.993734,202.71859 255.403791,203.128641" id="Shape" stroke="#745BCC" fill="#BDAAFF" fill-rule="nonzero" stroke-linecap="round" stroke-linejoin="round"></path>
        </g>
    </g>
</svg>