<?xml version="1.0" encoding="UTF-8"?>
<svg version="1.1" viewBox="0 0 100 100" xmlns="http://www.w3.org/2000/svg" xmlns:xlink="http://www.w3.org/1999/xlink">
    <!--Generated by IJSVG (https://github.com/iconjar/IJSVG)-->
    <defs>
        <path d="M230,231.869v18.5h4.5l0.4,-12.45v-1e-06c0,-0.883656 0.716345,-1.6 1.6,-1.6c0.883656,1e-06 1.6,0.716345 1.6,1.6l0.4,12.45l4.5,1e-06v-18.5h-13Z" id="d"></path>
        <path d="M294.5,201.869c0,-3.58985 -2.91015,-6.5 -6.5,-6.5c-3.58985,0 -6.5,2.91015 -6.5,6.5v2c1.57407,-0.392888 2.87099,-1.50453 3.5,-3c2.8,1.89 6.5,1.5 9.5,1v0Z" id="c"></path>
        <path d="M258.578,196.11c0,0 3.15,-1.57043 4.72044,0l3.15,3.15c0,0 1.57957,1.57957 3.65217,-0.520435l-1.02261,-0.566087l1.57043,-1.05c0,0 -1.05,0 -2.1,-1.57043c-1.05,-1.57044 -2.62043,-4.68391 -6.3,-4.68391c-5.25,0 -5.77044,3.14087 -5.77044,3.14087l2.1,2.1Z" id="i"></path>
        <path d="M242.64,202.339c1.2,-0.6 0.49,-3.7 -0.61,-4.21l0.79,-0.62c0.405808,-0.296488 0.49443,-0.865812 0.197942,-1.27162c-0.190869,-0.261246 -0.506098,-0.401502 -0.827942,-0.368379h-7.38v0c-2.58937,-0.066295 -4.74221,1.97906 -4.8085,4.56843c-0.000866,0.033851 -0.001366,0.06771 -0.0015,0.101573v3.61c3.61,0 3.53,-2.84 6.62,-3.61c0.08,0.7 1,1.36 2.41,1.8v0c-0.022348,-0.971764 0.747305,-1.77765 1.71907,-1.8c0.026974,-0.00062 0.053957,-0.00062 0.080931,0l1.81,1.8Z" id="f"></path>
        <path d="M256.478,194.01c0,0 -2.62956,0 -2.62956,3.15c0,2.62957 1.31478,3.33261 1.31478,3.33261c0,0 1.31478,-3.33261 3.41478,-4.38261l-2.1,-2.1Z" id="j"></path>
        <path d="M281.5,231.869v18.5h4.5l0.4,-12.45v0c0,-0.883656 0.716344,-1.6 1.6,-1.6c0.883656,0 1.6,0.716344 1.6,1.6c0,0 0,0 0,0l0.4,12.45h4.5v-18.5h-13Z" id="a"></path>
        <path d="M255.711,232.751l2.1,16.2704h7.35l2.1,-16.2704Z" id="g"></path>
        <path d="M226.5,222.869v1e-06c-1e-06,-5.24671 4.25329,-9.5 9.5,-9.5c5.24671,-1e-06 9.5,4.25329 9.5,9.5c0,0 0,0 0,0v1.5h-2.5v7.5h-13v-7.5h-3.5v-1.5Z" id="e"></path>
        <path d="M298.5,223.869c0,-5.79899 -4.70101,-10.5 -10.5,-10.5c-5.79899,0 -10.5,4.70101 -10.5,10.5v8.5c0,0.276142 0.223858,0.5 0.5,0.5h3.5v5h3.26v0c1.37236,0.003381 2.62795,-0.771674 3.24,-2v0c0.610444,1.2251 1.86124,1.99958 3.23,2h3.27v-5h3.5c0.276142,0 0.5,-0.223858 0.5,-0.5v-8.5Z" id="b"></path>
        <path d="M265.937,211.303c-0.801415,-0.429445 -1.30274,-1.26383 -1.30565,-2.17304c0,-0.579898 -0.470101,-1.05 -1.05,-1.05h-4.2c-0.584854,-0.010106 -1.06716,0.45582 -1.07727,1.04068c-5.3e-05,0.003109 -9.3e-05,0.006218 -0.00012,0.009327v0.000706c0,0.909992 -0.497689,1.74711 -1.29714,2.18181v0c-3.0775,1.63419 -5.00191,4.83335 -5.00348,8.31783v8.4h3.15v0.529566v-6e-05c0.002235,0.732759 0.184052,1.4538 0.529537,2.10001v2.1h11.578v-2.1v0c0.339238,-0.648187 0.517728,-1.36841 0.520434,-2.1v-0.529566h3.15v-8.4v6.1e-05c0.001702,-3.48533 -1.91881,-6.6875 -4.99429,-8.32728l-4.3e-05,-3.6e-05Z" id="h"></path>
    </defs>
    <g transform="matrix(1,0,0,1,-213,-167)">
        <g transform="matrix(1,0,0,1,263,205.12)">
            <g transform="matrix(-1,0,0,1,0,0)">
                <path fill="#F6F5FA" stroke="none" d="M300.899,212.537h4.68443c4.09631,0 7.41702,3.32071 7.41702,7.41702c0,4.09631 -3.32071,7.41702 -7.41702,7.41702h-78.8546c-4.09631,0 -7.41702,-3.32071 -7.41702,-7.41702c0,-4.09631 3.32071,-7.41702 7.41702,-7.41702h10.1496c4.09631,0 7.41702,-3.32071 7.41702,-7.41702c0,-4.09631 -3.32071,-7.41702 -7.41702,-7.41702h-16.4282h-0.032713c-4.09631,0 -7.41702,-3.32071 -7.41702,-7.41702c0,-4.09631 3.32071,-7.41702 7.41702,-7.41702h71.8934c4.09631,0 7.41702,3.32071 7.41702,7.41702c0,4.09631 -3.32071,7.41702 -7.41702,7.41702h-0.279147c-4.09631,0 -7.41702,3.32071 -7.41702,7.41702c0,4.09631 3.32071,7.41702 7.41702,7.41702h8.86727Z" transform="matrix(1,0,0,1,-263,-205.12)"></path>
            </g>
        </g>
        <use fill="#BDAAFF" stroke="none" xlink:href="#a"></use>
        <use fill="none" fill-rule="evenodd" stroke="#745BCC" stroke-linecap="round" stroke-linejoin="round" stroke-width="1" xlink:href="#a"></use>
        <use fill="#BDAAFF" stroke="none" xlink:href="#b"></use>
        <use fill="none" fill-rule="evenodd" stroke="#745BCC" stroke-linecap="round" stroke-linejoin="round" stroke-width="1" xlink:href="#b"></use>
        <path fill="#FFF" stroke="#745BCC" stroke-linecap="round" stroke-linejoin="round" stroke-width="1" d="M278,234.619v0c0,0.966498 0.783502,1.75 1.75,1.75c0.966498,0 1.75,-0.783502 1.75,-1.75v-1.75h-3.5v1.75Z"></path>
        <path fill="#FFF" stroke="#745BCC" stroke-linecap="round" stroke-linejoin="round" stroke-width="1" d="M294.5,234.619v0c0,0.966498 0.783502,1.75 1.75,1.75c0.966498,0 1.75,-0.783502 1.75,-1.75v-1.75h-3.5v1.75Z"></path>
        <path fill="#FFF" stroke="#745BCC" stroke-linecap="round" stroke-linejoin="round" stroke-width="1" d="M288,213.369l-3.17,3.62l3.17,8.88l3.17,-8.88Z"></path>
        <path fill="#FFF" stroke="#745BCC" stroke-linecap="round" stroke-linejoin="round" stroke-width="1" d="M296,250.369c0,-1.65685 -1.34315,-3 -3,-3h-0.5c-1.65685,0 -3,1.34315 -3,3c0,0 0,0 0,0h6.5Z"></path>
        <path fill="#FFF" stroke="#745BCC" stroke-linecap="round" stroke-linejoin="round" stroke-width="1" d="M286.5,250.369c0,-1.65685 -1.34315,-3 -3,-3h-0.5c-1.65685,0 -3,1.34315 -3,3c0,0 0,0 0,0h6.5Z"></path>
        <path fill="#E2D9FF" stroke="#745BCC" stroke-linecap="round" stroke-linejoin="round" stroke-width="1" d="M288,225.869l5.5,-6.5l-1,-2h2l-0.59,-2.18c-0.55031,-0.388059 -1.13628,-0.7229 -1.75,-0.999999l-4.16,11.68Z"></path>
        <path fill="#E2DAFF" stroke="#745BCC" stroke-linecap="round" stroke-linejoin="round" stroke-width="1" d="M288,213.369l-1.71,7.71l1.71,4.79l1.71,-4.79Z"></path>
        <path fill="#E2D9FF" stroke="#745BCC" stroke-linecap="round" stroke-linejoin="round" stroke-width="1" d="M288,225.869l-4.16,-11.64h-1e-06c-0.613716,0.277099 -1.19969,0.611939 -1.75,0.999998l-0.590002,2.14h2l-1,2l5.5,6.5Z"></path>
        <path fill="#FFF" stroke="#745BCC" stroke-linecap="round" stroke-linejoin="round" stroke-width="1" d="M292.16,214.229v-1e-06c-1.3135,-0.567373 -2.72919,-0.860039 -4.16,-0.86l3.17,3.62l0.99,-2.76Z"></path>
        <path fill="#FFF" stroke="#745BCC" stroke-linecap="round" stroke-linejoin="round" stroke-width="1" d="M288,213.369c-1.43081,-4e-05 -2.8465,0.292627 -4.16,0.86l1,2.76l3.16,-3.62Z"></path>
        <path fill="none" fill-rule="evenodd" stroke="#745BCC" stroke-linecap="round" stroke-linejoin="round" stroke-width="1" d="M288,225.869v10"></path>
        <path fill="#FFF" stroke="#745BCC" stroke-linecap="round" stroke-linejoin="round" stroke-width="1" d="M295,205.369v-1e-06c-0.00397,-0.58749 -0.422858,-1.09015 -1,-1.2v-0.8c0,-3.31371 -2.68629,-6 -6,-6c-3.31371,0 -6,2.68629 -6,6v0.8c-0.577143,0.109845 -0.996031,0.61251 -1,1.2v1e-06c0.007271,0.638417 0.494487,1.16875 1.13,1.23v-1e-06c0.686056,3.24191 3.8703,5.31384 7.11222,4.62779c2.32218,-0.491421 4.13636,-2.30561 4.62778,-4.62778c0.635514,-0.061251 1.12273,-0.591583 1.13,-1.23v-9e-06Z"></path>
        <path fill="#715FC7" stroke="none" d="M285.75,203.369c-0.414214,0 -0.75,0.335786 -0.75,0.75c0,0.414214 0.335786,0.75 0.75,0.75c0.414214,0 0.75,-0.335786 0.75,-0.75v2e-06c-0.005385,-0.411962 -0.338036,-0.744615 -0.749998,-0.750002h-2e-06Z"></path>
        <path fill="#715FC7" stroke="none" d="M290.25,203.369c-0.414214,0 -0.75,0.335786 -0.75,0.75c0,0.414214 0.335786,0.75 0.75,0.75c0.414214,0 0.75,-0.335786 0.75,-0.75v2e-06c-0.005385,-0.411962 -0.338036,-0.744615 -0.749998,-0.750002h-2e-06Z"></path>
        <path fill="none" fill-rule="evenodd" stroke="#745BCC" stroke-linecap="round" stroke-linejoin="round" stroke-width="1" d="M286.5,207.919c0.909603,0.601322 2.0904,0.601322 3,0"></path>
        <use fill="#FFF" stroke="none" xlink:href="#c"></use>
        <use fill="none" fill-rule="evenodd" stroke="#745BCC" stroke-linecap="round" stroke-linejoin="round" stroke-width="1" xlink:href="#c"></use>
        <path fill="none" fill-rule="evenodd" stroke="#745BCC" stroke-linecap="round" stroke-linejoin="round" stroke-width="1" d="M284,199.869c0.254583,0.403741 0.596259,0.745417 1,1"></path>
        <path fill="#FFF" stroke="#745BCC" stroke-linecap="round" stroke-linejoin="round" stroke-width="1" d="M242,234.619v0c0,0.966498 0.783502,1.75 1.75,1.75c0.966498,0 1.75,-0.783502 1.75,-1.75v-10.25h-3.5v10.25Z"></path>
        <use fill="#BDAAFF" stroke="none" xlink:href="#d"></use>
        <use fill="none" fill-rule="evenodd" stroke="#745BCC" stroke-linecap="round" stroke-linejoin="round" stroke-width="1" xlink:href="#d"></use>
        <use fill="#FFF" stroke="none" xlink:href="#e"></use>
        <use fill="none" fill-rule="evenodd" stroke="#745BCC" stroke-linecap="round" stroke-linejoin="round" stroke-width="1" xlink:href="#e"></use>
        <path fill="#FFF" stroke="#745BCC" stroke-linecap="round" stroke-linejoin="round" stroke-width="1" d="M226.5,234.619v0c0,0.966498 0.783502,1.75 1.75,1.75c0.966498,0 1.75,-0.783502 1.75,-1.75v-10.25h-3.5v10.25Z"></path>
        <path fill="none" fill-rule="evenodd" stroke="#745BCC" stroke-linecap="round" stroke-linejoin="round" stroke-width="1" d="M230,224.369v-3.49"></path>
        <path fill="none" fill-rule="evenodd" stroke="#745BCC" stroke-linecap="round" stroke-linejoin="round" stroke-width="1" d="M243,224.369v-3"></path>
        <path fill="#FFF" stroke="#745BCC" stroke-linecap="round" stroke-linejoin="round" stroke-width="1" d="M245.5,250.369c0,-1.65685 -1.34315,-3 -3,-3h-4v3h7Z"></path>
        <path fill="#FFF" stroke="#745BCC" stroke-linecap="round" stroke-linejoin="round" stroke-width="1" d="M237,250.369c0,-1.65685 -1.34315,-3 -3,-3h-4v3h7Z"></path>
        <path fill="#FFF" stroke="#745BCC" stroke-linecap="round" stroke-linejoin="round" stroke-width="1" d="M236,213.369c-1.00185,0.001614 -1.99725,0.160205 -2.95,0.47v0c0.237681,1.9072 1.97645,3.26061 3.88365,3.02293c1.44292,-0.179822 2.62193,-1.23782 2.95635,-2.65293v0c-1.22156,-0.555309 -2.54814,-0.841769 -3.89,-0.839999v-1e-06Z"></path>
        <path fill="#FFF" stroke="#745BCC" stroke-linecap="round" stroke-linejoin="round" stroke-width="1" d="M236.48,196.929v0c-3.31371,0 -6,2.68629 -6,6c0,0 0,0 0,0v1.2c-1.72,0 -1.6,3 0.3,3c1.00033,3.15911 4.37223,4.90915 7.53134,3.90882c2.48291,-0.786214 4.17509,-3.08444 4.18866,-5.68882v-2.4v-5.5e-05c0.011033,-3.31369 -2.6663,-6.00891 -5.97999,-6.01994c-0.013355,-4.4e-05 -0.026711,-4.4e-05 -0.040066,0l5.6e-05,-5e-06Z"></path>
        <path fill="#715FC7" stroke="none" d="M235.75,203.369c-0.414214,0 -0.75,0.335786 -0.75,0.75c0,0.414214 0.335786,0.75 0.75,0.75c0.414214,0 0.75,-0.335786 0.75,-0.75c0,-0.414214 -0.335786,-0.75 -0.75,-0.75Z"></path>
        <path fill="#715FC7" stroke="none" d="M240.25,203.369c-0.414214,0 -0.75,0.335786 -0.75,0.75c0,0.414214 0.335786,0.75 0.75,0.75c0.414214,0 0.75,-0.335786 0.75,-0.75c0,-0.414214 -0.335786,-0.75 -0.75,-0.75Z"></path>
        <path fill="none" fill-rule="evenodd" stroke="#745BCC" stroke-linecap="round" stroke-linejoin="round" stroke-width="1" d="M236.5,207.869c0.73855,0.651549 1.81298,0.75253 2.66,0.25c0.121304,-0.07664 0.238159,-0.160108 0.349998,-0.25"></path>
        <use fill="#BDAAFF" stroke="none" xlink:href="#f"></use>
        <use fill="none" fill-rule="evenodd" stroke="#745BCC" stroke-linecap="round" stroke-linejoin="round" stroke-width="1" xlink:href="#f"></use>
        <path fill="none" fill-rule="evenodd" stroke="#745BCC" stroke-linecap="round" stroke-linejoin="round" stroke-width="1" d="M281.5,232.869v-10.67"></path>
        <path fill="none" fill-rule="evenodd" stroke="#745BCC" stroke-linecap="round" stroke-linejoin="round" stroke-width="1" d="M294.5,232.869v-10.67"></path>
        <path fill="#FFF" stroke="#745BCC" stroke-linejoin="round" stroke-width="1" d="M255.182,228.551v-0.529565h-3.15c-0.288899,0.004982 -0.520478,0.240623 -0.520435,0.529565v1.57957v7.9e-05c0,0.288942 0.231614,0.524549 0.520514,0.529487h3.65217c-0.337461,-0.651361 -0.509922,-1.37558 -0.502253,-2.10913v-1e-06Z"></path>
        <path fill="#FFF" stroke="#745BCC" stroke-linejoin="round" stroke-width="1" d="M267.782,228.551v-0.529565h3.15c0.292471,0 0.529565,0.237094 0.529565,0.529565v1.57957c0,0.292471 -0.237094,0.529565 -0.529565,0.529565h-3.65217c0.334327,-0.652518 0.506576,-1.37596 0.502174,-2.10913Z"></path>
        <use fill="#E2DAFF" stroke="none" xlink:href="#g"></use>
        <use fill="none" fill-rule="evenodd" stroke="#745BCC" stroke-linecap="round" stroke-linejoin="round" stroke-width="1" xlink:href="#g"></use>
        <path fill="#FFF" stroke="#745BCC" stroke-linecap="round" stroke-linejoin="round" stroke-width="1" d="M266.978,249.021c0.57481,-0.007286 1.03488,-0.479167 1.02759,-1.05398c-0.002037,-0.16067 -0.041244,-0.318688 -0.114551,-0.461675c-0.547903,-1.00236 -1.59682,-1.62821 -2.73913,-1.63435h-0.529565c-1.73761,0.005015 -3.14499,1.41239 -3.15,3.15h5.50565Z"></path>
        <path fill="#FFF" stroke="#745BCC" stroke-linecap="round" stroke-linejoin="round" stroke-width="1" d="M261.482,249.021v-0.00012c0,-1.73969 -1.4103,-3.15 -3.15,-3.15c-0.00917,0 -0.01834,4e-05 -0.02751,0.00012h-0.520435c-1.14231,0.006139 -2.19123,0.631991 -2.73913,1.63435c-0.262262,0.511545 -0.060177,1.13884 0.451369,1.4011c0.142987,0.073308 0.301004,0.112515 0.461675,0.114551h5.52403Z"></path>
        <path fill="none" fill-rule="evenodd" stroke="#745BCC" stroke-linecap="round" stroke-linejoin="round" stroke-width="1" d="M261.482,232.751v16.2704"></path>
        <path fill="#FFF" stroke="#745BCC" stroke-linecap="round" stroke-linejoin="round" stroke-width="1" d="M252.032,230.651v1.82609v0c0,1.00852 0.817568,1.82609 1.82609,1.82609c1.00852,0 1.82609,-0.817567 1.82609,-1.82609v-1.82609h-3.65217Z"></path>
        <use fill="#FFF" stroke="none" xlink:href="#h"></use>
        <use fill="none" fill-rule="evenodd" stroke="#745BCC" stroke-linecap="round" stroke-linejoin="round" stroke-width="1" xlink:href="#h"></use>
        <path fill="none" fill-rule="evenodd" stroke="#745BCC" stroke-linecap="round" stroke-linejoin="round" stroke-width="1" d="M267.261,230.651h-11.55"></path>
        <path fill="none" fill-rule="evenodd" stroke="#745BCC" stroke-linecap="round" stroke-linejoin="round" stroke-width="1" d="M255.182,228.03v0v-8.92956"></path>
        <path fill="none" fill-rule="evenodd" stroke="#745BCC" stroke-linecap="round" stroke-linejoin="round" stroke-width="1" d="M267.791,228.03h-0.009131v-8.92956"></path>
        <path opacity="0.60" fill="#E2D9FF" stroke="none" d="M266.547,213.506c0.246031,0.24603 0.246031,0.644924 0,0.890954c-0.246031,0.246031 -0.644925,0.246031 -0.890954,0c-0.246031,-0.24603 -0.246031,-0.644925 0,-0.890954c0.24603,-0.246031 0.644924,-0.246031 0.890954,0"></path>
        <path opacity="0.60" fill="#E2D9FF" stroke="none" d="M266.547,219.806c0.246031,0.24603 0.246031,0.644924 0,0.890954c-0.246031,0.246031 -0.644925,0.246031 -0.890954,0c-0.246031,-0.24603 -0.246031,-0.644925 0,-0.890954c0.24603,-0.246031 0.644924,-0.246031 0.890954,0"></path>
        <path opacity="0.60" fill="#E2D9FF" stroke="none" d="M266.547,226.106c0.246031,0.24603 0.246031,0.644924 0,0.890954c-0.246031,0.246031 -0.644925,0.246031 -0.890954,0c-0.246031,-0.24603 -0.246031,-0.644925 0,-0.890954c0.24603,-0.246031 0.644924,-0.246031 0.890954,0"></path>
        <path opacity="0.60" fill="#E2D9FF" stroke="none" d="M263.397,216.656c0.246031,0.24603 0.246031,0.644924 0,0.890954c-0.24603,0.246031 -0.644925,0.246031 -0.890954,0c-0.246031,-0.24603 -0.246031,-0.644925 0,-0.890954c0.24603,-0.246031 0.644924,-0.246031 0.890954,0"></path>
        <path opacity="0.60" fill="#E2D9FF" stroke="none" d="M260.247,219.806c0.246031,0.24603 0.246031,0.644924 0,0.890954c-0.24603,0.246031 -0.644925,0.246031 -0.890954,0c-0.246031,-0.24603 -0.246031,-0.644925 0,-0.890954c0.24603,-0.246031 0.644924,-0.246031 0.890954,0"></path>
        <path opacity="0.60" fill="#E2D9FF" stroke="none" d="M263.397,222.956c0.246031,0.24603 0.246031,0.644924 0,0.890954c-0.24603,0.246031 -0.644925,0.246031 -0.890954,0c-0.246031,-0.24603 -0.246031,-0.644925 0,-0.890954c0.24603,-0.246031 0.644924,-0.246031 0.890954,0"></path>
        <path opacity="0.60" fill="#E2D9FF" stroke="none" d="M260.247,226.106c0.246031,0.24603 0.246031,0.644924 0,0.890954c-0.24603,0.246031 -0.644925,0.246031 -0.890954,0c-0.246031,-0.24603 -0.246031,-0.644925 0,-0.890954c0.24603,-0.246031 0.644924,-0.246031 0.890954,0"></path>
        <path opacity="0.60" fill="#E2D9FF" stroke="none" d="M260.247,213.506c0.246031,0.24603 0.246031,0.644924 0,0.890954c-0.24603,0.246031 -0.644925,0.246031 -0.890954,0c-0.246031,-0.24603 -0.246031,-0.644925 0,-0.890954c0.24603,-0.246031 0.644924,-0.246031 0.890954,0"></path>
        <path opacity="0.60" fill="#E2D9FF" stroke="none" d="M257.097,222.956c0.246031,0.24603 0.246031,0.644924 0,0.890954c-0.24603,0.246031 -0.644925,0.246031 -0.890954,0c-0.246031,-0.24603 -0.246031,-0.644925 0,-0.890954c0.24603,-0.246031 0.644924,-0.246031 0.890954,0"></path>
        <path opacity="0.60" fill="#E2D9FF" stroke="none" d="M257.097,216.656c0.246031,0.24603 0.246031,0.644924 0,0.890954c-0.24603,0.246031 -0.644925,0.246031 -0.890954,0c-0.246031,-0.24603 -0.246031,-0.644925 0,-0.890954c0.24603,-0.246031 0.644924,-0.246031 0.890954,0"></path>
        <path fill="#FFF" stroke="#745BCC" stroke-linecap="round" stroke-linejoin="round" stroke-width="1" d="M267.261,230.651v1.82609v0c0,1.00852 0.817568,1.82609 1.82609,1.82609c1.00852,0 1.82609,-0.817567 1.82609,-1.82609v-1.82609h-3.65217Z"></path>
        <path fill="#FFF" stroke="#745BCC" stroke-linecap="round" stroke-linejoin="round" stroke-width="1" d="M268.832,201.771v-3e-06c-0.003298,-0.615335 -0.444546,-1.14099 -1.05,-1.25087v-0.849131c0,-3.47939 -2.82061,-6.3 -6.3,-6.3c-3.47939,0 -6.3,2.82061 -6.3,6.3v0.849131c-0.696867,0.11297 -1.17021,0.769472 -1.05724,1.46634c0.096259,0.593786 0.593497,1.04011 1.1942,1.07192l-1e-06,-1e-06c0.709552,3.40627 4.04609,5.5924 7.45237,4.88286c2.45412,-0.51121 4.37164,-2.42873 4.88286,-4.88286c0.665841,-0.06121 1.17593,-0.618744 1.17783,-1.28739l-9e-06,3e-06Z"></path>
        <path fill="none" fill-rule="evenodd" stroke="#745BCC" stroke-linecap="round" stroke-linejoin="round" stroke-width="1" d="M259.911,204.446c0.953008,0.638244 2.19699,0.638244 3.15,0"></path>
        <use fill="#FFF" stroke="none" xlink:href="#i"></use>
        <use fill="none" fill-rule="evenodd" stroke="#745BCC" stroke-linecap="round" stroke-linejoin="round" stroke-width="1" xlink:href="#i"></use>
        <use fill="#FFF" stroke="none" xlink:href="#j"></use>
        <use fill="none" fill-rule="evenodd" stroke="#745BCC" stroke-linecap="round" stroke-linejoin="round" stroke-width="1" xlink:href="#j"></use>
        <path fill="#715FC7" stroke="none" d="M259.126,199.717c-0.438677,-0.005014 -0.798361,0.34654 -0.803374,0.785217c-0.005014,0.438678 0.34654,0.798361 0.785217,0.803375c0.438677,0.005013 0.798361,-0.346541 0.803374,-0.785218c6.9e-05,-0.006052 6.9e-05,-0.012105 0,-0.018157v3e-06c-0.004931,-0.431604 -0.35361,-0.780286 -0.785214,-0.78522h-3e-06Z"></path>
        <path fill="#715FC7" stroke="none" d="M263.847,199.717c-0.438677,-0.005014 -0.798361,0.34654 -0.803375,0.785217c-0.005013,0.438678 0.346541,0.798361 0.785218,0.803375c0.438677,0.005013 0.798361,-0.346541 0.803374,-0.785218c6.9e-05,-0.006052 6.9e-05,-0.012105 0,-0.018157c0,-0.433664 -0.351554,-0.785217 -0.785217,-0.785217v0Z"></path>
        <path fill="#BDAAFF" stroke="#745BCC" stroke-linecap="round" stroke-linejoin="round" stroke-width="1" d="M269.054,203.129c0.410051,0.41005 0.410051,1.07487 0,1.48493c-0.41005,0.410051 -1.07487,0.410051 -1.48493,0c-0.41005,-0.41005 -0.41005,-1.07487 0,-1.48493c0.410051,-0.410051 1.07487,-0.410051 1.48493,0"></path>
        <path fill="#BDAAFF" stroke="#745BCC" stroke-linecap="round" stroke-linejoin="round" stroke-width="1" d="M255.404,203.129c0.410051,0.41005 0.410051,1.07487 0,1.48493c-0.41005,0.410051 -1.07487,0.410051 -1.48493,0c-0.41005,-0.41005 -0.41005,-1.07487 0,-1.48493c0.410051,-0.410051 1.07487,-0.410051 1.48493,0"></path>
    </g>
</svg>