<?xml version="1.0" encoding="UTF-8"?>
<svg version="1.1" viewBox="0 0 100 100" xmlns="http://www.w3.org/2000/svg" xmlns:xlink="http://www.w3.org/1999/xlink">
    <!--Generated by IJSVG (https://github.com/iconjar/IJSVG)-->
    <defs>
        <path d="M169.436,136.513h-9.21281l-0.960764,-4.31686c-0.089371,-0.395708 0.008739,-0.810519 0.265908,-1.12427c0.257168,-0.313746 0.644655,-0.491363 1.05021,-0.481396h8.55475c0.405552,-0.009967 0.793039,0.16765 1.05021,0.481396c0.257169,0.313746 0.355278,0.728557 0.265908,1.12427l-1.01341,4.31686Z" id="b"></path>
        <path d="M174.951,112.84h28.8098v16.0809h-28.8098Z" id="a"></path>
    </defs>
    <g transform="matrix(1,0,0,1,-136,-56)">
        <path fill="#F6F5FA" stroke="none" d="M230.724,110.545c-0.001703,-18.1917 -11.0651,-34.5545 -27.9466,-41.3332c-16.8815,-6.77871 -36.1888,-2.61114 -48.7711,10.5275c-12.5823,13.1386 -15.9111,32.608 -8.40869,49.1807h81.1507c2.62625,-5.76947 3.98208,-12.0359 3.97568,-18.375Z"></path>
        <path fill="none" fill-rule="evenodd" stroke="#735BCC" stroke-linecap="round" stroke-linejoin="round" stroke-width="1" d="M142.746,128.92h86.8636"></path>
        <path fill="none" fill-rule="evenodd" stroke="#735BCC" stroke-linecap="round" stroke-linejoin="round" stroke-width="1" d="M137.735,128.92h2.78409"></path>
        <path fill="none" fill-rule="evenodd" stroke="#735BCC" stroke-linecap="round" stroke-linejoin="round" stroke-width="1" d="M231.837,128.92h2.78409"></path>
        <path fill="#FFF" stroke="#735BCC" stroke-linejoin="round" stroke-width="1" d="M201.745,128.92h2.68386l2.00455,-8.70864h-2.67273Z"></path>
        <path fill="#BEB4EE" stroke="#735BCC" stroke-linejoin="round" stroke-width="1" d="M172.599,112.84c-0.55228,0 -1,-0.44772 -1,-1v-1.35205c0,-0.55228 0.44772,-1 1,-1h33.5139c0.55228,0 1,0.44772 1,1v1.35205c0,0.55228 -0.44772,1 -1,1Z"></path>
        <use fill="#E5E1F8" stroke="none" xlink:href="#a"></use>
        <use fill="none" fill-rule="evenodd" stroke="#735BCC" stroke-linejoin="round" stroke-width="1" xlink:href="#a"></use>
        <path fill="#E5E1F8" stroke="#735BCC" stroke-linejoin="round" stroke-width="1" d="M217.77,105.356l-2.58364,2.22727c-0.876366,0.762731 -1.37992,1.86729 -1.38091,3.02909v5.56818c0,0.738053 -0.598311,1.33636 -1.33636,1.33636h-8.70864v2.684l8.70864,-0.000139c1.07008,0.008897 2.09955,-0.409202 2.86041,-1.1617c0.760856,-0.752495 1.1903,-1.77728 1.19323,-2.84739v-4.15386c0.002916,-1.19169 0.532932,-2.32104 1.44773,-3.08477l1.69273,-1.41432c0.514074,-0.426493 0.666368,-1.15104 0.3675,-1.74841c-0.197809,-0.407751 -0.576427,-0.698253 -1.02149,-0.783757c-0.44506,-0.085505 -0.904372,0.044016 -1.23919,0.349439Z"></path>
        <path fill="#FFF" stroke="#735BCC" stroke-linejoin="round" stroke-width="1" d="M215.153,128.92h-2.68386l-2.01568,-8.70864h2.68386Z"></path>
        <path fill="#FFF" stroke="#735BCC" stroke-linejoin="round" stroke-width="1" d="M185.218,106.091h5.56818c1.23009,0 2.22727,0.997184 2.22727,2.22727v1.11364h-10.0227v-1.11364c0,-1.23009 0.997184,-2.22727 2.22727,-2.22727Z"></path>
        <path fill="none" fill-rule="evenodd" stroke="#735BCC" stroke-linejoin="round" stroke-width="1" d="M188.348,106.091l0.623637,-2.79523c0.436653,-1.98227 1.96048,-3.54495 3.93114,-4.03136l4.82205,-1.21386"></path>
        <path fill="#E5E1F8" stroke="#735BCC" stroke-linejoin="round" stroke-width="1" d="M203.092,98.6407l-4.58818,0.991136c-0.438884,0.102792 -0.900662,0.0250792 -1.28172,-0.215702c-0.381063,-0.240782 -0.649504,-0.624471 -0.745093,-1.06498c-0.193188,-0.903458 0.378671,-1.79357 1.28068,-1.99341l4.58818,-0.991136c0.43271,-0.0961803 0.885905,-0.0164318 1.25979,0.221684c0.373884,0.238116 0.637796,0.615073 0.73362,1.04786c0.195712,0.895701 -0.35726,1.78441 -1.24727,2.00455Z"></path>
        <path fill="#BEB4EE" stroke="#735BCC" stroke-width="1" d="M165.632,127.511l3.94835,-2.56642l1.17134,-5.84355c0.07156,-0.31373 -0.104136,-0.631116 -0.407996,-0.737025c-0.077886,-0.018472 -0.159014,-0.018472 -0.236901,0c-0.229701,0.003632 -0.442257,0.122268 -0.565929,0.315868l-4.61957,7.64663l0.710702,1.1845Z"></path>
        <path fill="#BEB4EE" stroke="#735BCC" stroke-linecap="round" stroke-linejoin="round" stroke-width="1" d="M160.223,124.945l6.40948,4.18525l-6.34368,-10.5289c-0.121946,-0.195422 -0.335584,-0.314662 -0.565929,-0.315868c-0.077887,-0.018472 -0.159015,-0.018472 -0.236901,0c-0.30386,0.105909 -0.479556,0.423295 -0.407996,0.737025l1.14502,5.92252Z"></path>
        <path fill="#E5E1F8" stroke="#735BCC" stroke-linecap="round" stroke-linejoin="round" stroke-width="1" d="M171.292,124.392c-0.120919,-0.103421 -0.275213,-0.159528 -0.434319,-0.157934c-0.125777,0.002411 -0.248562,0.038792 -0.355351,0.10529l-9.59448,6.25155h7.89669l2.63223,-5.40924c0.136495,-0.265583 0.077059,-0.58978 -0.144772,-0.78967Z"></path>
        <path fill="#E5E1F8" stroke="#735BCC" stroke-width="1" d="M164.882,126.274l1.98734,-3.29029l-1.38192,-6.34368c-0.061511,-0.301651 -0.323938,-0.52034 -0.631735,-0.526447c-0.303264,0.001877 -0.567599,0.206871 -0.644897,0.500124l-1.48721,6.08046l2.15843,3.57984Z"></path>
        <path fill="#E5E1F8" stroke="#735BCC" stroke-linecap="round" stroke-linejoin="round" stroke-width="1" d="M168.857,130.591l-9.59448,-6.25155c-0.106789,-0.066498 -0.229574,-0.102879 -0.355351,-0.10529c-0.159106,-0.001594 -0.3134,0.054513 -0.434318,0.157934c-0.226362,0.196526 -0.291296,0.521199 -0.157934,0.78967l2.63223,5.40924h7.90986Z"></path>
        <use fill="#FFF" stroke="none" xlink:href="#b"></use>
        <use fill="none" fill-rule="evenodd" stroke="#735BCC" stroke-linejoin="round" stroke-width="1" xlink:href="#b"></use>
        <path fill="#FFF" stroke="#735BCC" stroke-linejoin="round" stroke-width="1" d="M160.223,136.513h9.21281v2.63223h-9.21281Z"></path>
    </g>
</svg>