<?xml version="1.0" encoding="UTF-8"?>
<svg width="27px" height="13px" viewBox="0 0 27 13" version="1.1" xmlns="http://www.w3.org/2000/svg" xmlns:xlink="http://www.w3.org/1999/xlink">
    <!-- Generator: Sketch 51.1 (57501) - http://www.bohemiancoding.com/sketch -->
    <title>Rectangle 12</title>
    <desc>Created with Sketch.</desc>
    <defs></defs>
    <g id="Prototype" stroke="none" stroke-width="1" fill="none" fill-rule="evenodd">
        <path d="M2,0 L25,0 C26.1045695,0 27,0.8954305 27,2 L27,11 C27,12.1045695 26.1045695,13 25,13 L2,13 C0.8954305,13 0,12.1045695 0,11 L0,2 C0,0.8954305 0.8954305,0 2,0 Z M2,1.2 C1.5581722,1.2 1.2,1.5581722 1.2,2 L1.2,11 C1.2,11.4418278 1.5581722,11.8 2,11.8 L25,11.8 C25.4418278,11.8 25.8,11.4418278 25.8,11 L25.8,2 C25.8,1.5581722 25.4418278,1.2 25,1.2 L2,1.2 Z M9.21052632,9.05555556 C8.51514804,9.05555556 7.97288871,8.86030432 7.58373206,8.469796 C7.19457541,8.07928768 7,7.52056876 7,6.7936225 L7,6.40612002 C7,5.63711902 7.1786266,5.04385566 7.53588517,4.62631214 C7.89314373,4.20876863 8.40510033,4 9.07177033,4 C9.72249129,4 10.2121196,4.1960022 10.5406699,4.58801248 C10.8692201,4.98002276 11.0366826,5.56051969 11.0430622,6.3295207 L11.0430622,6.95583284 L8.3492823,6.95583284 C8.36842115,7.31630206 8.45294981,7.57989122 8.60287081,7.74660824 C8.75279182,7.91332525 8.98404947,7.99668251 9.29665072,7.99668251 C9.74960354,7.99668251 10.1275902,7.85099505 10.430622,7.55961577 L10.9617225,8.33011487 C10.7958524,8.54639641 10.5550255,8.72137155 10.2392344,8.85504555 C9.9234434,8.98871956 9.58054411,9.05555556 9.21052632,9.05555556 Z M8.35885167,6.06367598 L9.71291866,6.06367598 L9.71291866,5.94652406 C9.70653904,5.65514478 9.65550287,5.43436069 9.55980861,5.28416518 C9.46411435,5.13396967 9.29824679,5.05887304 9.06220096,5.05887304 C8.82615512,5.05887304 8.65470548,5.13847547 8.54784689,5.29768271 C8.4409883,5.45688995 8.37799053,5.71221848 8.35885167,6.06367598 Z M14.1004785,7.65874431 C14.1004785,7.55060354 14.0454551,7.45072502 13.9354067,7.35910576 C13.8253583,7.2674865 13.5805442,7.14357707 13.2009569,6.98737374 C12.6427404,6.77409611 12.2591717,6.55331203 12.0502392,6.32501485 C11.8413068,6.09671768 11.7368421,5.81285243 11.7368421,5.47341058 C11.7368421,5.04685533 11.9003173,4.69465215 12.2272727,4.41679045 C12.5542281,4.13892876 12.9872381,4 13.5263158,4 C14.0941017,4 14.5486426,4.1381778 14.8899522,4.41453753 C15.2312617,4.69089727 15.4019139,5.06187461 15.4019139,5.52748069 L14.0478469,5.52748069 C14.0478469,5.13096455 13.87241,4.93270945 13.5215311,4.93270945 C13.3779897,4.93270945 13.2599686,4.97476356 13.1674641,5.05887304 C13.0749597,5.14298253 13.0287081,5.26013327 13.0287081,5.41032878 C13.0287081,5.51846954 13.0797443,5.61384226 13.1818182,5.69644979 C13.2838921,5.77905732 13.524719,5.89695903 13.9043062,6.05015845 C14.4561431,6.2424087 14.8460914,6.45643409 15.0741627,6.69224104 C15.302234,6.92804799 15.4162679,7.23369126 15.4162679,7.60918004 C15.4162679,8.04474701 15.242426,8.3946973 14.8947368,8.65904139 C14.5470477,8.92338549 14.0909119,9.05555556 13.5263158,9.05555556 C13.1467286,9.05555556 12.8118037,8.98571569 12.5215311,8.84603387 C12.2312585,8.70635204 12.0039881,8.51185178 11.8397129,8.26252723 C11.6754378,8.01320269 11.5933014,7.74435676 11.5933014,7.45598138 L12.8803828,7.45598138 C12.8867624,7.67827074 12.9417858,7.84498525 13.0454545,7.95612993 C13.1491233,8.0672746 13.3189781,8.12284611 13.5550239,8.12284611 C13.9186621,8.12284611 14.1004785,7.96814705 14.1004785,7.65874431 Z M18.1291866,7.99668251 C18.5215331,7.99668251 18.7208931,7.7563733 18.7272727,7.27574767 L20,7.27574767 C19.9936204,7.80743977 19.8197784,8.23699249 19.4784689,8.5644187 C19.1371594,8.89184491 18.6969724,9.05555556 18.1578947,9.05555556 C17.4912247,9.05555556 16.9824579,8.86030432 16.6315789,8.469796 C16.2807,8.07928768 16.1020734,7.5040475 16.0956938,6.74405823 L16.0956938,6.35655575 C16.0956938,5.59055866 16.2687383,5.00630689 16.6148325,4.60378293 C16.9609268,4.20125896 17.4720859,4 18.1483254,4 C18.7193011,4 19.1690574,4.16596355 19.4976077,4.49789562 C19.8261579,4.8298277 19.9936204,5.30068356 20,5.91047732 L18.7272727,5.91047732 C18.7240829,5.6371215 18.6762365,5.42685094 18.5837321,5.27965934 C18.4912276,5.13246774 18.3381191,5.05887304 18.1244019,5.05887304 C17.8883561,5.05887304 17.7192988,5.1377245 17.6172249,5.29542979 C17.515151,5.45313507 17.4609251,5.75877835 17.4545455,6.21236879 L17.4545455,6.70801149 C17.4545455,7.10452763 17.4752789,7.38163419 17.5167464,7.53933947 C17.5582139,7.69704476 17.6267938,7.81269356 17.722488,7.88628936 C17.8181823,7.95988516 17.9537471,7.99668251 18.1291866,7.99668251 Z" id="Combined-Shape" fill="#000000" fill-rule="nonzero"></path>
    </g>
</svg>