<?xml version="1.0" encoding="UTF-8"?>
<svg width="18px" height="12px" viewBox="0 0 18 12" version="1.1" xmlns="http://www.w3.org/2000/svg" xmlns:xlink="http://www.w3.org/1999/xlink">
    <!-- Generator: Sketch 51.1 (57501) - http://www.bohemiancoding.com/sketch -->
    <title>Combined Shape</title>
    <desc>Created with Sketch.</desc>
    <defs></defs>
    <g id="Prototype" stroke="none" stroke-width="1" fill="none" fill-rule="evenodd">
        <path d="M0.5615971,4.19846974 C0.0607855999,4.19846974 -0.184055578,3.59749594 0.1609479,3.25249246 L3.2659792,0.158590308 C3.48856209,-0.0528634361 3.83356557,-0.0528634361 4.05614846,0.158590308 L7.16117976,3.25249246 C7.51731238,3.59749594 7.2724712,4.19846974 6.7716597,4.19846974 L4.77954285,4.19846974 L4.77954285,10.8870856 C4.77954285,11.4991885 4.27873135,12 3.6666284,12 C3.05452546,12 2.55371396,11.4991885 2.55371396,10.8870856 L2.55371396,4.19846974 L0.5615971,4.19846974 Z M10.5778271,7.80153026 L12.569944,7.80153026 L12.569944,1.11291444 C12.569944,0.5008115 13.0707555,-7.10542736e-15 13.6828584,-7.10542736e-15 C14.2949613,-7.10542736e-15 14.7957728,0.5008115 14.7957728,1.11291444 L14.7957728,7.80153026 L16.7878897,7.80153026 C17.2887012,7.80153026 17.5335424,8.40250406 17.1774098,8.74750754 L14.0723785,11.8414097 C13.8497956,12.0528634 13.5047921,12.0528634 13.2822092,11.8414097 L10.1771779,8.74750754 C9.83217442,8.40250406 10.0770156,7.80153026 10.5778271,7.80153026 Z" id="Combined-Shape" fill="#000000" fill-rule="nonzero"></path>
    </g>
</svg>