<?xml version="1.0" encoding="UTF-8"?>
<svg width="19px" height="12px" viewBox="0 0 19 12" version="1.1" xmlns="http://www.w3.org/2000/svg" xmlns:xlink="http://www.w3.org/1999/xlink">
    <!-- Generator: Sketch 51.1 (57501) - http://www.bohemiancoding.com/sketch -->
    <title>Shape</title>
    <desc>Created with Sketch.</desc>
    <defs></defs>
    <g id="Prototype" stroke="none" stroke-width="1" fill="none" fill-rule="evenodd">
        <path d="M16.5825,1.5825 L16.5825,4.5825 L3.4125,4.5825 L6.2925,1.7025 C6.6825,1.3125 6.6825,0.6825 6.2925,0.2925 C5.9025,-0.0975 5.2725,-0.0975 4.8825,0.2925 L0.2925,4.8825 C-0.0975,5.2725 -0.0975,5.9025 0.2925,6.2925 L4.8825,10.8825 C5.2725,11.2725 5.9025,11.2725 6.2925,10.8825 C6.6825,10.4925 6.6825,9.8625 6.2925,9.4725 L3.4125,6.5825 L17.5825,6.5825 C18.1325,6.5825 18.5825,6.1325 18.5825,5.5825 L18.5825,1.5825 C18.5825,1.0325 18.1325,0.5825 17.5825,0.5825 C17.0325,0.5825 16.5825,1.0325 16.5825,1.5825 Z" id="Shape" fill="#000000" fill-rule="nonzero"></path>
    </g>
</svg>