<?xml version="1.0" encoding="utf-8"?>
<!-- Generated by IcoMoon.io -->
<!DOCTYPE svg PUBLIC "-//W3C//DTD SVG 1.1//EN" "http://www.w3.org/Graphics/SVG/1.1/DTD/svg11.dtd">
<svg version="1.1" xmlns="http://www.w3.org/2000/svg" xmlns:xlink="http://www.w3.org/1999/xlink" width="24" height="24" viewBox="0 0 24 24">
<path fill="#555555" d="M3 4h5q0.57 0 0.867 0.5l7.711 13.5h4.422q0.414 0 0.707 0.293t0.293 0.707-0.293 0.707-0.707 0.293h-5q-0.57 0-0.867-0.5l-7.711-13.5h-4.422q-0.414 0-0.707-0.293t-0.293-0.707 0.293-0.707 0.707-0.293zM14 4h5q0.414 0 0.707 0.293t0.293 0.707-0.293 0.707-0.707 0.293h-5q-0.414 0-0.707-0.293t-0.293-0.707 0.293-0.707 0.707-0.293z"></path>
</svg>
