<?xml version="1.0" encoding="UTF-8"?>
<svg width="24px" height="24px" viewBox="0 0 24 24" version="1.1" xmlns="http://www.w3.org/2000/svg" xmlns:xlink="http://www.w3.org/1999/xlink">
    <!-- Generator: Sketch 48.2 (47327) - http://www.bohemiancoding.com/sketch -->
    <title>bell</title>
    <desc>Created with Sketch.</desc>
    <defs></defs>
    <g id="Finals" stroke="none" stroke-width="1" fill="none" fill-rule="evenodd">
        <path d="M18,14 L18,9 C18,5.68629456 15.3137051,2.9999995 12,3 C8.6862947,3 5.9999995,5.68629477 6,8.99999894 L6,13.9999989 C6,14.7285732 5.80521023,15.4116529 5.46486836,16.0000005 L18.535131,16.0000005 C18.1947896,15.4116532 18.0000001,14.7285739 18,14 Z M22.0000001,18.0000005 L2,18.0000005 C0.666666667,18.0000005 0.666665799,16.0000016 1.99999913,16.0000005 C3.10456504,15.9999995 4,15.1045642 4,13.9999989 L4,8.99999909 C3.99999933,4.58172531 7.58172522,1 11.9999998,1 C16.4182745,0.999999333 20,4.58172504 20,9 L20,13.9999998 C20.0000002,15.1045657 20.8954348,16.0000005 22.0000001,16.0000005 C23.3333335,16.0000005 23.3333335,18.0000005 22.0000001,18.0000005 Z M12.8650001,20.4982272 C13.142121,20.0205008 13.7540456,19.857878 14.2317719,20.1349989 C14.7094982,20.4121198 14.8721211,21.0240444 14.5950002,21.5017707 C13.7636368,22.9349509 11.9278625,23.4228205 10.4946876,22.5914546 C10.0427726,22.3293059 9.66715169,21.953685 9.40500396,21.5017705 C9.12788316,21.0240441 9.29050613,20.4121196 9.76823252,20.1349988 C10.2459589,19.857878 10.8578835,20.020501 11.1350043,20.4982274 C11.2223865,20.6488649 11.3475936,20.7740721 11.4982344,20.8614564 C11.9759566,21.1385767 12.5878788,20.9759542 12.8650001,20.4982272 Z" id="Shape" fill="#000000" fill-rule="nonzero"></path>
    </g>
</svg>