<?xml version="1.0" encoding="utf-8"?>
<!-- Generated by IcoMoon.io -->
<!DOCTYPE svg PUBLIC "-//W3C//DTD SVG 1.1//EN" "http://www.w3.org/Graphics/SVG/1.1/DTD/svg11.dtd">
<svg version="1.1" xmlns="http://www.w3.org/2000/svg" xmlns:xlink="http://www.w3.org/1999/xlink" width="24" height="24" viewBox="0 0 24 24">
<path fill="#555555" d="M5 0h10l7 7v14q0 1.242-0.879 2.121t-2.121 0.879h-14q-1.242 0-2.121-0.879t-0.879-2.121v-18q0-1.242 0.879-2.121t2.121-0.879zM13 9v-7h-8q-0.422 0-0.711 0.289t-0.289 0.711v18q0 0.422 0.289 0.711t0.711 0.289h14q0.422 0 0.711-0.289t0.289-0.711v-12h-7zM19.172 7l-4.172-4.172v4.172h4.172z"></path>
</svg>
