<svg xmlns="http://www.w3.org/2000/svg" width="16" height="16" viewBox="0 0 16 16">
  <path d="M9.88561448,9.8856198 C8.84421764,10.9270166 7.15577326,10.9270166 6.11437642,9.8856198 C5.07297957,8.84422296 5.07297957,7.15577858 6.11437642,6.11438174 C7.15577326,5.07298489 8.84421764,5.07298489 9.88561448,6.11438174 C10.9270113,7.15577858 10.9270113,8.84422296 9.88561448,9.8856198 Z M7.05718546,7.05719078 C6.53648767,7.57788857 6.53648767,8.42211297 7.05718546,8.94281076 C7.57788325,9.46350855 8.42210765,9.46350855 8.94280544,8.94281076 C9.46350323,8.42211297 9.46350323,7.57788857 8.94280544,7.05719078 C8.42210765,6.53649299 7.57788325,6.53649299 7.05718546,7.05719078 Z M13.9400004,8.66667038 L14.0000004,8.66667038 C14.3681899,8.66667038 14.6666667,8.36819368 14.6666667,8.00000385 C14.6666667,7.63181372 14.3681903,7.3333373 14.0000004,7.33333731 L13.8840015,7.33333201 C13.1798584,7.33052354 12.5446199,6.90983587 12.267234,6.26262458 C12.2430897,6.20628984 12.2268842,6.14702435 12.2189654,6.0865233 C11.9981026,5.4564784 12.1513565,4.74975424 12.6285895,4.26193017 L12.6688547,4.22166508 C12.9295812,3.96064655 12.9293464,3.53853749 12.6683245,3.27780515 C12.4073061,3.01707881 11.9851973,3.01731356 11.7247303,3.27807038 L11.6795009,3.32324243 C11.1632183,3.82825698 10.3915383,3.96817701 9.73736109,3.67942117 C9.09015715,3.4020246 8.66947524,2.76678918 8.66666626,2.05999986 L8.66666626,1.99999987 C8.66666626,1.63180974 8.3681899,1.33333332 8.00000002,1.33333333 C7.63181006,1.33333333 7.33333366,1.63180974 7.33333372,1.99999967 L7.33332841,2.11599196 C7.33051995,2.82013503 6.9098324,3.45537366 6.26262126,3.73275955 C6.20628797,3.75690324 6.14702407,3.77310855 6.08652464,3.78102757 C5.45647932,4.00189129 4.74975431,3.84863758 4.26192985,3.37140397 L4.22166476,3.33113873 C3.96064638,3.07041239 3.53853757,3.07064715 3.27780537,3.33166906 C3.01707899,3.59268756 3.01731375,4.01479663 3.27807059,4.27526371 L3.32324263,4.32049314 C3.82825704,4.83677572 3.96817704,5.60845578 3.69235828,6.23011781 C3.44196178,6.91095207 2.80081234,7.36952188 2.05999962,7.38666795 L1.99999963,7.38666795 C1.63180968,7.38666795 1.33333328,7.68514436 1.33333333,8.05333429 C1.33333333,8.42152402 1.63180998,8.7200008 1.99999969,8.72000082 L2.11599463,8.72000612 C2.82013772,8.72281459 3.45537627,9.14350227 3.72991064,9.78415764 C4.02151336,10.4448802 3.88159301,11.2165632 3.3714067,11.7380718 L3.33114147,11.7783369 C3.0704151,12.0393554 3.07064985,12.4614645 3.33167179,12.7221968 C3.59269011,12.982923 4.01479897,12.9826882 4.27526585,12.7219315 L4.32049527,12.6767594 C4.83677781,12.1717449 5.60845788,12.0318249 6.23011865,12.3076433 C6.91095537,12.5580392 7.36952548,13.1991895 7.38666982,13.9400001 L7.38666982,14.0000001 C7.38666982,14.3681899 7.68514646,14.6666667 8.05333618,14.6666667 C8.42152573,14.6666667 8.72000248,14.36819 8.72000248,14.0000001 L8.72000778,13.8840078 C8.72281624,13.1798647 9.14350381,12.5446261 9.78415905,12.2700917 C10.4448816,11.9784889 11.2165646,12.1184093 11.7380732,12.6285958 L11.7783383,12.668861 C12.0393566,12.9295872 12.4614655,12.9293524 12.7221976,12.6683306 C12.982924,12.4073121 12.9826893,11.985203 12.7219324,11.7247359 L12.6767604,11.6795065 C12.17258,11.1640765 12.0322891,10.3940919 12.3219874,9.73409596 C12.6001144,9.08874709 13.2343962,8.66947927 13.9400004,8.66667038 Z M13.8866605,6.00000398 L14.0000004,6.00000398 C15.10457,6.00000393 16,6.89543411 16,8.00000385 C16,9.1045734 15.1045695,10.0000037 14.0000004,10.0000037 L13.9426593,9.99999841 C13.7699452,10.0006873 13.6141325,10.1038745 13.5460933,10.2626259 C13.4717202,10.4312392 13.5060402,10.620519 13.6247416,10.741927 L13.6644792,10.7816648 C14.4459617,11.5622784 14.4466659,12.8286038 13.6660523,13.6100937 C12.8843903,14.3926248 11.618065,14.3933291 10.8365751,13.6127155 L10.8004921,13.5765753 C10.6738572,13.4527035 10.4845765,13.4183834 10.3159562,13.4927603 C10.1572068,13.5607981 10.0540194,13.7166112 10.0533358,13.8866668 L10.0533358,14.0000001 C10.0533358,15.1045697 9.15790535,16 8.05333615,16 C6.94876663,16 6.05333649,15.1045694 6.05333649,14.0000001 C6.0493583,13.7777058 5.9368803,13.6204446 5.73082683,13.5432445 C5.56876249,13.4717192 5.37948281,13.5060391 5.25807496,13.6247405 L5.21833714,13.6644781 C4.43772382,14.4459606 3.17139848,14.4466649 2.38990854,13.6660514 C1.60737749,12.8843892 1.60667323,11.6180637 2.38728677,10.8365738 L2.42342698,10.8004908 C2.54729877,10.6738559 2.58161887,10.4845751 2.50724201,10.3159547 C2.43920412,10.1572051 2.28339116,10.0540177 2.11333566,10.0533342 L1.99999966,10.0533342 C0.895430149,10.0533341 0,9.15790353 0,8.05333439 C-1.66784938e-07,6.94876478 0.895429977,6.05333462 1.99999963,6.05333462 C2.22229494,6.049356 2.3795575,5.93687698 2.45675741,5.73082486 C2.52828278,5.56876042 2.49396282,5.37948058 2.37526146,5.25807266 L2.33552378,5.21833484 C1.55404139,4.43772131 1.55333713,3.17139588 2.33395067,2.38990597 C3.11561276,1.60737474 4.38193816,1.60667047 5.16342801,2.38728419 L5.19951102,2.42342441 C5.32614591,2.54729623 5.5154266,2.58161632 5.67749088,2.51009099 C5.72020531,2.49123943 5.76466347,2.47697891 5.81011722,2.46746716 C5.92693785,2.38822424 5.99942781,2.25577497 6.00000038,2.11333299 L6.00000038,1.99999977 C6.00000022,0.895430155 6.89543036,0 7.99999999,0 C9.10456961,-4.82823452e-08 9.99999959,0.895430133 9.99999959,1.99999987 L9.99999431,2.05734537 C10.000682,2.2300527 10.1038693,2.3858669 10.2691693,2.45675733 C10.4312337,2.5282827 10.6205133,2.49396275 10.7419212,2.37526141 L10.781659,2.33552374 C11.5622725,1.55404115 12.8285978,1.55333689 13.6100877,2.33395061 C14.3926188,3.11561284 14.393323,4.38193828 13.6127094,5.16342816 L13.5765692,5.19951118 C13.4526974,5.32614614 13.4183773,5.515427 13.4899026,5.67749142 C13.5087548,5.72020719 13.5230156,5.7646668 13.5325273,5.81012204 C13.6117704,5.92694198 13.7442191,5.99943141 13.8866605,6.00000398 Z"/>
</svg>
