<?xml version="1.0" encoding="utf-8"?>
<!-- Generated by IcoMoon.io -->
<!DOCTYPE svg PUBLIC "-//W3C//DTD SVG 1.1//EN" "http://www.w3.org/Graphics/SVG/1.1/DTD/svg11.dtd">
<svg version="1.1" xmlns="http://www.w3.org/2000/svg" xmlns:xlink="http://www.w3.org/1999/xlink" width="24" height="24" viewBox="0 0 24 24">
<path fill="#555555" d="M12 1q0.281 0 0.422 0.008 1.453 0.055 2.824 0.48t2.535 1.145 2.137 1.73 1.648 2.199 1.055 2.582 0.379 2.855-0.379 2.855-1.055 2.582-1.648 2.199-2.137 1.73-2.535 1.145-2.824 0.48q-0.141 0.008-0.422 0.008t-0.422-0.008q-1.453-0.055-2.824-0.48t-2.535-1.145-2.137-1.73-1.648-2.199-1.055-2.582-0.379-2.855 0.379-2.855 1.055-2.582 1.648-2.199 2.137-1.73 2.535-1.145 2.824-0.48q0.141-0.008 0.422-0.008zM7.039 13h-3.984q0.312 2.789 2.148 4.898t4.516 2.813q-1.016-1.539-1.77-3.488t-0.91-4.223zM14.961 13h-5.922q0.078 1 0.324 2t0.551 1.77 0.703 1.52 0.719 1.234 0.664 0.93q0.344-0.445 0.664-0.934t0.719-1.238 0.703-1.52 0.551-1.766 0.324-1.996zM9.719 3.289q-2.68 0.703-4.516 2.812t-2.148 4.898h3.984q0.273-4.078 2.68-7.711zM20.945 13h-3.977q-0.289 4.086-2.688 7.711 2.68-0.703 4.516-2.813t2.148-4.898zM12 3.547q-0.344 0.445-0.66 0.934t-0.719 1.238-0.707 1.52-0.551 1.766-0.324 1.996h5.922q-0.078-1-0.324-2t-0.551-1.77-0.703-1.52-0.719-1.234-0.664-0.93zM14.281 3.289q2.398 3.625 2.688 7.711h3.977q-0.312-2.789-2.148-4.898t-4.516-2.813z"></path>
</svg>
