<?xml version="1.0" encoding="utf-8"?>
<!-- Generated by IcoMoon.io -->
<!DOCTYPE svg PUBLIC "-//W3C//DTD SVG 1.1//EN" "http://www.w3.org/Graphics/SVG/1.1/DTD/svg11.dtd">
<svg version="1.1" xmlns="http://www.w3.org/2000/svg" xmlns:xlink="http://www.w3.org/1999/xlink" width="24" height="24" viewBox="0 0 24 24">
<path fill="#555555" d="M12 2q0.336 0 0.664 0.023-0.664 1.43-0.664 2.977 0 1.422 0.555 2.719t1.492 2.234 2.234 1.492 2.719 0.555q1.547 0 2.977-0.664 0.023 0.328 0.023 0.664 0 1.359-0.359 2.656t-1.004 2.395-1.566 2.020-2.020 1.566-2.395 1.004-2.656 0.359-2.656-0.359-2.395-1.004-2.020-1.566-1.566-2.020-1.004-2.395-0.359-2.656 0.359-2.656 1.004-2.395 1.566-2.020 2.020-1.566 2.395-1.004 2.656-0.359zM10.031 4.242q-1.289 0.328-2.402 1.062t-1.914 1.742-1.258 2.293-0.457 2.66q0 1.625 0.633 3.105t1.707 2.555 2.555 1.707 3.105 0.633q1.375 0 2.66-0.457t2.293-1.258 1.742-1.914 1.062-2.402q-0.336 0.031-0.758 0.031-1.828 0-3.492-0.715t-2.871-1.922-1.922-2.871-0.715-3.492q0-0.422 0.031-0.758z"></path>
</svg>
