<svg xmlns="http://www.w3.org/2000/svg" width="20" height="22" viewBox="0 0 20 22">
  <path d="M15.6527778,6.34699132 C15.2623173,5.95640327 15.2624206,5.3232383 15.6530087,4.93277778 C16.0435967,4.54231725 16.6767617,4.54242063 17.0672222,4.93300868 C20.971527,8.83858854 20.9708378,15.1696447 17.065683,19.0743745 C13.1605281,22.9791043 6.8294719,22.9791043 2.92431703,19.0743745 C-0.980837829,15.1696447 -0.98152695,8.83858854 2.92277778,4.93300868 C3.3132383,4.54242063 3.94640327,4.54231725 4.33699132,4.93277778 C4.72757937,5.3232383 4.72768275,5.95640327 4.33722222,6.34699132 C1.21377844,9.47145521 1.21432974,14.5363001 4.33845363,17.660084 C7.46257752,20.7838679 12.5274225,20.7838679 15.6515464,17.660084 C18.7756703,14.5363001 18.7762216,9.47145521 15.6527778,6.34699132 Z M9,1 C9,0.44771525 9.44771525,0 10,0 C10.5522847,0 11,0.44771525 11,1 L11,11 C11,11.5522847 10.5522847,12 10,12 C9.44771525,12 9,11.5522847 9,11 L9,1 Z"/>
</svg>
