<?xml version="1.0" encoding="UTF-8"?>
<svg width="24px" height="24px" viewBox="0 0 24 24" version="1.1" xmlns="http://www.w3.org/2000/svg" xmlns:xlink="http://www.w3.org/1999/xlink">
    <!-- Generator: Sketch 48.2 (47327) - http://www.bohemiancoding.com/sketch -->
    <title>bell</title>
    <desc>Created with Sketch.</desc>
    <defs></defs>
    <g id="Finals" stroke="none" stroke-width="1" fill="none" fill-rule="evenodd">
        <path d="M6.53319534,13.5922928 L6.50181818,13.2295547 C6.50181818,13.2295547 6.50181818,12.3693788 8.2390847,12.3693778 C8.6594081,12.3693776 8.97803624,12.4197301 9.21957382,12.4960701 L9.39661658,17.4706709 C8.52637945,17.1497107 7.74262751,16.5090839 7.3654233,15.7239039 L7.15975804,15.2893714 C6.95329081,14.8172472 6.73456858,14.2224923 6.53319534,13.5922928 L6.53319534,13.5922928 Z M17.6891748,15.0920357 L17.8472727,13.2295547 C17.8472727,13.2295547 17.8472727,12.3693768 16.1100062,12.3693778 C15.6914012,12.369378 15.3736617,12.4193199 15.1324834,12.4951359 L15.1324834,12.4951359 L14.9931391,16.6930284 C15.3861244,16.5550521 15.7507837,16.4139376 16.0621711,16.2781324 L16.497294,16.0727462 C16.9449621,15.8582675 17.3537981,15.5116496 17.6891748,15.0920357 L17.6891748,15.0920357 Z M14.0509706,17.0009106 L14.2213426,11.87401 C14.2213426,11.87401 14.2213426,10.8605734 12.1745455,10.8605745 C10.1277483,10.8605756 10.1277483,11.87401 10.1277483,11.87401 L10.3344937,17.6832032 C10.5219732,17.6987687 10.7082911,17.6974672 10.8904703,17.6776696 L11.3647792,17.6220326 C12.120736,17.5257371 13.1088298,17.2873067 14.0509706,17.0009106 L14.0509706,17.0009106 Z M8.13909011,11.6554304 C8.79846499,11.6554304 9.33299394,11.1216268 9.33299394,10.4631466 C9.33299394,9.80466636 8.79846499,9.27086268 8.13909011,9.27086268 C7.47971524,9.27086268 6.94518629,9.80466636 6.94518629,10.4631466 C6.94518629,11.1216268 7.47971524,11.6554304 8.13909011,11.6554304 L8.13909011,11.6554304 Z M16.1845235,11.6554304 C16.8438984,11.6554304 17.3784273,11.1216268 17.3784273,10.4631466 C17.3784273,9.80466636 16.8438984,9.27086268 16.1845235,9.27086268 C15.5251486,9.27086268 14.9906197,9.80466636 14.9906197,10.4631466 C14.9906197,11.1216268 15.5251486,11.6554304 16.1845235,11.6554304 L16.1845235,11.6554304 Z M8.70121263,1.00312698 C16.9477972,-1.46760657 20.5214195,0.454011193 22.9955101,8.68940637 C25.4696006,16.9248016 23.5453719,20.493575 15.2987874,22.9643086 C7.05220279,25.4350421 3.47858045,23.5134244 1.00448993,15.2780292 C-1.4696006,7.042634 0.454628057,3.47386053 8.70121263,1.00312698 Z M12.161216,9.76073716 C13.0648038,9.76073716 13.7973064,9.02922843 13.7973064,8.12686667 C13.7973064,7.22450491 13.0648038,6.49299618 12.161216,6.49299618 C11.2576282,6.49299618 10.5251256,7.22450491 10.5251256,8.12686667 C10.5251256,9.02922843 11.2576282,9.76073716 12.161216,9.76073716 Z" id="Rectangle-16-Copy-7" fill="#000000"></path>
    </g>
</svg>