<svg xmlns="http://www.w3.org/2000/svg" width="24" height="24" viewBox="0 0 24 24">
  <g fill="none" fill-rule="evenodd">
    <path fill="#000" fill-rule="nonzero" d="M11.0805685,16.9945281 C11.6328532,16.9945281 12.0805685,17.4422433 12.0805685,17.9945281 C12.0805685,18.5468128 11.6328532,18.9945281 11.0805685,18.9945281 C10.3697873,18.9945281 9.82174515,18.8844831 9.32304365,18.6792486 C7.4328754,20.3326246 5.24758835,20.930349 2.22349926,20.9997369 C1.30934969,21.0207121 0.848853472,19.9051415 1.51162033,19.2751816 C1.5761883,19.2138097 1.69682942,19.0944353 1.85440339,18.930322 C2.11852217,18.6552423 2.38256072,18.3610242 2.62683907,18.0621496 C2.86862196,17.7663282 3.0768377,17.4828921 3.24069726,17.2220278 C3.47381692,16.8509015 3.5939495,16.5565359 3.60131951,16.4196375 C1.34339097,14.773696 0,12.3900784 0,9.8036417 C0,4.89024094 4.78797295,1 10.6044821,1 C15.4888084,1 19.7419133,3.75976074 20.9033196,7.69318536 C21.0597155,8.22286335 20.7571105,8.77903611 20.2274325,8.93543198 C19.6977546,9.09182785 19.1415818,8.7892229 18.9851859,8.25954491 C18.0913953,5.2324749 14.6508978,3 10.6044821,3 C5.8116721,3 2,6.09699387 2,9.8036417 C2,11.8326644 3.14234851,13.7369019 5.11081304,15.0330751 C5.34800268,15.1892572 5.50759887,15.4389229 5.54977332,15.7197664 C5.58407507,15.9481849 5.60168078,16.1770591 5.60168078,16.4067231 C5.60168078,17.0003889 5.35784502,17.6115629 4.93429876,18.2858483 C4.83437252,18.4449308 4.72477194,18.6063282 4.60642021,18.7697153 C6.14366488,18.4750501 7.32969857,17.8753102 8.39967638,16.8053324 C8.61863541,16.5863733 8.92667839,16.4812028 9.23382422,16.5205417 C9.51189166,16.5561562 10.2906337,16.9119369 10.1112249,16.8407278 C10.3588723,16.9394697 10.6449585,16.9945281 11.0805685,16.9945281 Z"/>
    <path fill="#000" fill-rule="nonzero" d="M21.9370526,10.976987 C23.3547856,12.3953838 23.3542475,14.6945258 21.9360138,16.1120927 L17.7069793,20.3411271 C17.316455,20.7316514 16.6832901,20.7316514 16.2927658,20.3411271 L12.0637312,16.1120925 C10.6454228,14.6937836 10.6454229,12.3942548 12.0637318,10.9759459 C13.4084745,9.63120371 15.5577585,9.71659877 16.9998468,10.9774842 C18.4421558,9.71607353 20.5918598,9.63116228 21.9370526,10.976987 Z M20.0146988,15.2049805 L20.5219665,14.6977129 C21.1591333,14.0608456 21.159375,13.0280347 20.5225075,12.390869 C19.9422242,11.810313 18.9110875,11.8821016 18.2147902,12.5780761 L17.7069794,13.0858868 C17.3164551,13.4764112 16.6832901,13.4764113 16.2927658,13.0858869 L15.7856643,12.5787855 C15.0893924,11.8825136 14.0578154,11.8102897 13.4779452,12.3901596 C12.840685,13.0274199 12.8406849,14.0606189 13.4779449,14.6978791 L16.9998725,18.2198068 L20.0146988,15.2049805 Z"/>
  </g>
</svg>
