<svg xmlns="http://www.w3.org/2000/svg" width="24" height="24" viewBox="0 0 24 24">
  <g fill="none" fill-rule="evenodd">
    <path fill="#000" d="M11 1.98333796C11 1.43105321 11.4477153.98333796 12 .98333796 12.5522847.98333796 13 1.43105321 13 1.98333796L13 22C13 22.5522847 12.5522847 23 12 23 11.4477153 23 11 22.5522847 11 22L11 1.98333796zM6 6C6 5.44771525 6.44771525 5 7 5 7.55228475 5 8 5.44771525 8 6L8 18C8 18.5522847 7.55228475 19 7 19 6.44771525 19 6 18.5522847 6 18L6 6zM1 10C1 9.44771525 1.44771525 9 2 9 2.55228475 9 3 9.44771525 3 10L3 14C3 14.5522847 2.55228475 15 2 15 1.44771525 15 1 14.5522847 1 14L1 10zM16 6C16 5.44771525 16.4477153 5 17 5 17.5522847 5 18 5.44771525 18 6L18 18C18 18.5522847 17.5522847 19 17 19 16.4477153 19 16 18.5522847 16 18L16 6zM21 10C21 9.44771525 21.4477153 9 22 9 22.5522847 9 23 9.44771525 23 10L23 14C23 14.5522847 22.5522847 15 22 15 21.4477153 15 21 14.5522847 21 14L21 10z"/>
  </g>
</svg>
