<?xml version="1.0" encoding="UTF-8"?>
<svg width="24px" height="24px" viewBox="0 0 24 24" version="1.1" xmlns="http://www.w3.org/2000/svg" xmlns:xlink="http://www.w3.org/1999/xlink">
    <!-- Generator: Sketch 48.2 (47327) - http://www.bohemiancoding.com/sketch -->
    <title>claim</title>
    <desc>Created with Sketch.</desc>
    <defs></defs>
    <g id="Finals" stroke="none" stroke-width="1" fill="none" fill-rule="evenodd">
        <path d="M16.8715007,20.5714286 L6.86073957,20.5714286 C4.47334497,20.5714286 3,19.1015517 3,16.717709 L3,3.85371961 C3,1.4688658 4.47074497,0 6.85813054,0 L16.2847266,0 C18.6725685,0 20.1428571,1.47012465 20.1428571,3.86029729 L20.1428571,12.7174401 C20.1428571,13.2697249 19.6951419,13.7174401 19.1428571,13.7174401 C18.5905724,13.7174401 18.1428571,13.2697249 18.1428571,12.7174401 L18.1428571,3.86029729 C18.1428571,2.57474409 17.5680489,2 16.2847266,2 L6.85813054,2 C5.57474247,2 5,2.57400812 5,3.85371961 L5,16.717709 C5,17.9959257 5.57686074,18.5714286 6.86073957,18.5714286 L17.157215,18.5714286 L15.2928932,16.7071068 C14.9023689,16.3165825 14.9023689,15.6834175 15.2928932,15.2928932 C15.6834175,14.9023689 16.3165825,14.9023689 16.7071068,15.2928932 L20.1356782,18.7214646 C20.5262025,19.1119889 20.5262025,19.7451539 20.1356782,20.1356782 L16.7071068,23.5642496 C16.3165825,23.9547739 15.6834175,23.9547739 15.2928932,23.5642496 C14.9023689,23.1737253 14.9023689,22.5405604 15.2928932,22.1500361 L16.8715007,20.5714286 Z M8,7 C7.44771525,7 7,6.55228475 7,6 C7,5.44771525 7.44771525,5 8,5 L15,5 C15.5522847,5 16,5.44771525 16,6 C16,6.55228475 15.5522847,7 15,7 L8,7 Z M8,11 C7.44771525,11 7,10.5522847 7,10 C7,9.44771525 7.44771525,9 8,9 L15,9 C15.5522847,9 16,9.44771525 16,10 C16,10.5522847 15.5522847,11 15,11 L8,11 Z" id="Combined-Shape" fill="#000000" fill-rule="nonzero"></path>
    </g>
</svg>