<svg xmlns="http://www.w3.org/2000/svg"><symbol viewBox="0 0 22 24" id="bell"><path d="M7.597 21.608c-.168-.572.16-1.17.73-1.34.572-.167 1.172.16 1.34.732.146.5.604.843 1.125.843.52 0 .978-.343 1.125-.843.167-.57.767-.9 1.34-.73.57.167.898.766.73 1.338C13.57 23.026 12.27 24 10.792 24c-1.478 0-2.78-.974-3.195-2.392zM10.79 0c5.063 0 9.168 4.105 9.168 9.17 0 3.22.29 5.495.758 6.972.243.765.432 1.066.456 1.085.795.638.344 1.92-.675 1.92H1.08c-.9 0-1.403-1.036-.85-1.744.118-.15.36-.627.625-1.528.475-1.61.765-3.816.765-6.706C1.62 4.104 5.725 0 10.79 0zm7.87 16.795c-.543-1.71-.86-4.198-.86-7.626 0-3.873-3.14-7.013-7.01-7.013-3.873 0-7.013 3.14-7.013 7.012 0 3.087-.316 5.5-.853 7.316-.052.178-.105.346-.16.503h15.96l-.064-.195z" id="bell-Combined-Shape" fill-rule="nonzero"/></symbol><symbol viewBox="0 0 119 102" id="biings-care"><path d="M57.69 81.475c2.856 0 5.17 2.28 5.17 5.094 0 2.813-2.314 5.093-5.17 5.093-3.672 0-6.504-.56-9.08-1.606-9.77 8.422-21.062 11.467-36.69 11.82-4.724.108-7.104-5.575-3.68-8.784.335-.313.958-.92 1.772-1.757 1.365-1.4 2.73-2.9 3.992-4.422 1.25-1.507 2.326-2.95 3.173-4.28 1.204-1.89 1.825-3.39 1.863-4.087C7.372 70.163.43 58.02.43 44.845.43 19.817 25.172 0 55.23 0c25.242 0 47.222 14.058 53.223 34.095.808 2.698-.755 5.53-3.493 6.328-2.737.796-5.61-.745-6.42-3.443-4.618-15.42-22.398-26.792-43.31-26.792-24.767 0-44.465 15.776-44.465 34.657 0 10.336 5.903 20.036 16.076 26.64 1.226.794 2.05 2.066 2.27 3.497.176 1.163.267 2.33.267 3.5 0 3.023-1.26 6.136-3.448 9.57-.518.812-1.084 1.634-1.696 2.466 7.944-1.5 14.074-4.556 19.603-10.006 1.13-1.116 2.723-1.65 4.31-1.45 1.438.18 5.462 1.993 4.535 1.63 1.28.503 2.758.783 5.01.783zm56.097-3.854L95.805 95.346c-1.66 1.637-4.353 1.637-6.013 0L71.81 77.62c-6.03-5.944-6.03-15.58 0-21.526 5.718-5.636 16.048-3.75 20.99 1.535 4.716-5.286 15.27-7.172 20.99-1.53 6.03 5.943 6.027 15.58-.003 21.52z"/></symbol><symbol viewBox="0 0 24 24" id="biings-claim"><path d="M19.857 8.326v9.67c0 2.388-1.47 3.86-3.854 3.86H6.14c-2.385 0-3.854-1.47-3.854-3.857V6.57c0-2.387 1.47-3.858 3.86-3.858h6.357c.552 0 1 .448 1 1 0 .553-.448 1-1 1H6.146c-1.286 0-1.86.575-1.86 1.858V18c0 1.282.574 1.857 1.853 1.857h9.863c1.28 0 1.854-.577 1.854-1.86v-9.67H16c-.838 0-1.304-.97-.782-1.624l2.79-4.5c.4-.502 1.164-.502 1.565 0l2.79 4.5c.523.655.056 1.623-.782 1.623h-1.723zM7.5 12c-.552 0-1-.448-1-1s.448-1 1-1h4c.552 0 1 .448 1 1s-.448 1-1 1h-4zm0 4c-.552 0-1-.448-1-1s.448-1 1-1h7c.552 0 1 .448 1 1s-.448 1-1 1h-7z" id="biings-claim-Shape" fill-rule="nonzero"/></symbol><symbol viewBox="0 0 24 24" id="biings-pilot"><path d="M14.893 14.893L9.107 9.107l-2.893 8.68 8.68-2.894zm5.02-8.737l-3.18 9.542c-.163.488-.547.872-1.035 1.035l-9.542 3.18c-1.28.426-2.495-.79-2.07-2.07l3.18-9.54c.164-.49.548-.873 1.036-1.036l9.542-3.18c1.28-.426 2.495.79 2.07 2.07z" id="biings-pilot-Shape" fill-rule="nonzero"/></symbol><symbol viewBox="0 0 24 24" id="book"><path d="M10.996 19.453c-.014-.067-.02-.137-.02-.21V6.66C9.685 5.63 7.09 4.162 2.66 4.05c-.33-.01-.602.25-.612.578v11.894c.002.322.26.584.582.59 4.472.106 7.08 1.425 8.364 2.34zm.95.815c.036.04.054.063.054.063l.055-.062h-.11zm1.058-.815c1.095-.78 3.156-1.857 6.516-2.22.577-.064 1.193-.105 1.848-.12.322-.007.58-.27.582-.59V4.64c-.002-.327-.27-.59-.597-.59h-.015c-4.426.11-7.024 1.58-8.313 2.61v12.584c0 .072-.007.142-.02.21zm-2.6 2.165c-.152-.19-.65-.608-1.56-1.076-1.56-.8-3.62-1.318-6.25-1.38C1.158 19.136.006 17.967 0 16.522V4.57C.044 3.11 1.26 1.96 2.714 2c3.288.083 5.984.845 8.114 2.084.427.25.818.51 1.174.777.356-.267.747-.527 1.175-.776 2.13-1.24 4.826-2 8.1-2.083h.067c1.46-.008 2.65 1.17 2.658 2.64v11.89c-.006 1.437-1.158 2.606-2.583 2.632-.583.014-1.14.05-1.676.108-2.117.23-3.765.775-5.005 1.503-.405.238-.728.474-.974.692-.074.067-.132.123-.174.167l-.014.015c-.827.988-2.355.98-3.168-.03z" id="book-Shape" fill-rule="nonzero"/></symbol><symbol viewBox="0 0 24 24" id="briefcase"><path d="M4 7c-1.105 0-2 .895-2 2v9.714c0 1.105.895 2 2 2h16c1.105 0 2-.895 2-2V9c0-1.105-.895-2-2-2H4zm2.5-2V3C6.5 1.62 7.62.5 9 .5h6c1.38 0 2.5 1.12 2.5 2.5v2H20c2.21 0 4 1.79 4 4v9.714c0 2.21-1.79 4-4 4H4c-2.21 0-4-1.79-4-4V9c0-2.21 1.79-4 4-4h2.5zm2 0h7V3c0-.276-.224-.5-.5-.5H9c-.276 0-.5.224-.5.5v2zm0 12.25c0 .552-.448 1-1 1s-1-.448-1-1v-7c0-.552.448-1 1-1s1 .448 1 1v7zm7-7c0-.552.448-1 1-1s1 .448 1 1v7c0 .552-.448 1-1 1s-1-.448-1-1v-7z" id="briefcase-Combined-Shape" fill-rule="nonzero"/></symbol><symbol viewBox="0 0 21 21" id="bubble"><path d="M4.508 15.006c.196-.197.464-.307.742-.307h12.6c.58 0 1.05-.472 1.05-1.05V3.15c0-.58-.47-1.05-1.05-1.05H3.15c-.58 0-1.05.47-1.05 1.05v14.263l2.408-2.407zM1.792 20.69c-.66.662-1.792.193-1.792-.742V3.15C0 1.41 1.41 0 3.15 0h14.7C19.59 0 21 1.41 21 3.15v10.5c0 1.738-1.41 3.148-3.15 3.148H5.685L1.792 20.69z" id="bubble-Shape-Copy-9" fill-rule="nonzero"/></symbol><symbol viewBox="0 0 24 24" id="business-big"><path d="M18.375 9V8H17c-.552 0-1-.448-1-1s.448-1 1-1h1.375V2.125c0-.03-.01-.055-.026-.076L9.552 5.903c-.153.072-.22.103-.282.134-.237.116-.267.124-.27.104v3.733c0 .552-.448 1-1 1s-1-.448-1-1v-3.75c0-.942.486-1.44 1.392-1.884l.332-.156 9.125-4c.125-.055.262-.084.4-.084 1.174 0 2.125.95 2.125 2.125v20.75c0 .552-.448 1-1 1s-1-.448-1-1V11H15c-.552 0-1-.448-1-1s.448-1 1-1h3.375zm-7.25 7v-2H4v8.578c0 .552-.448 1-1 1s-1-.448-1-1V13.75c0-.966.784-1.75 1.75-1.75h7.625c.966 0 1.75.784 1.75 1.75v8.828c0 .552-.448 1-1 1s-1-.448-1-1V21H9c-.552 0-1-.448-1-1s.448-1 1-1h2.125v-1H10c-.552 0-1-.448-1-1s.448-1 1-1h1.125z" id="business-big-Combined-Shape" fill-rule="nonzero"/></symbol><symbol viewBox="0 0 24 24" id="business"><path d="M21.29 11.294h-2.437c-.567 0-1.027-.46-1.027-1.027s.46-1.026 1.027-1.026h2.438V6.675h-2.437c-.567 0-1.027-.46-1.027-1.027s.46-1.027 1.027-1.027h2.438V2.182c0-.07-.056-.13-.127-.13H10.767c-.07 0-.128.06-.128.13v7.06h2.823c.992 0 1.796.803 1.796 1.795v10.91h2.438c.567 0 1.027.46 1.027 1.026 0 .567-.46 1.027-1.027 1.027H1.528C.96 24 .5 23.54.5 22.973s.46-1.026 1.027-1.026H2.81v-10.91c0-.992.805-1.796 1.797-1.796h3.98V2.183C8.586.977 9.56 0 10.766 0h10.396c1.205 0 2.182.977 2.182 2.182v20.79c0 .568-.46 1.028-1.027 1.028s-1.027-.46-1.027-1.027v-11.68zm-8.084 2.567v-2.566H4.864v10.653h8.342v-6.033H9.612c-.567 0-1.026-.46-1.026-1.026 0-.567.46-1.027 1.026-1.027h3.594z" id="business-Combined-Shape" fill-rule="nonzero"/></symbol><symbol viewBox="0 0 24 24" id="check"><path d="M17.2 5.9c.33-.44.957-.532 1.4-.2.44.33.532.957.2 1.4L10.98 17.56c-.365.488-1.077.54-1.508.108L5.293 13.49c-.39-.39-.39-1.023 0-1.413.39-.39 1.024-.39 1.414 0l3.36 3.36L17.2 5.902z" id="check-Shape-Copy-15" fill-rule="nonzero"/></symbol><symbol viewBox="0 0 24 24" id="gear"><path d="M15.802 4.762c.09.297.395.474.694.405l2.363-.548c1.344-.304 2.73.304 3.415 1.5.686 1.195.513 2.698-.424 3.704l-1.648 1.78c-.215.23-.215.586 0 .817l1.65 1.782c.93 1.01 1.098 2.507.412 3.697-.686 1.19-2.065 1.796-3.414 1.496l-2.356-.546c-.3-.07-.605.107-.695.406l-.704 2.32c-.398 1.322-1.616 2.227-2.997 2.227-1.382 0-2.6-.905-2.997-2.225l-.708-2.326c-.09-.297-.394-.473-.695-.404l-2.358.547c-1.345.308-2.734-.3-3.423-1.494-.69-1.195-.517-2.7.422-3.707l1.65-1.78c.214-.23.214-.586-.002-.817L2.344 9.82c-.94-1.01-1.112-2.512-.426-3.707.686-1.195 2.07-1.804 3.422-1.5l2.348.546c.305.067.612-.11.703-.406l.707-2.32C9.493 1.108 10.715.2 12.1.2c1.384.002 2.602.913 2.996 2.24l.706 2.322zm-2.62-1.744c-.145-.488-.585-.817-1.085-.818-.5 0-.94.327-1.085.812l-.71 2.328c-.4 1.296-1.728 2.067-3.06 1.77l-2.348-.547c-.49-.11-.992.11-1.242.546-.25.433-.186.98.157 1.348l1.646 1.777c.928.998.928 2.543 0 3.54l-1.65 1.78c-.34.366-.404.913-.154 1.347.25.435.755.655 1.24.544L7.25 16.9c1.328-.307 2.666.47 3.06 1.773L11.016 21c.144.476.583.803 1.082.803.497 0 .937-.327 1.08-.806l.704-2.32c.393-1.305 1.73-2.082 3.06-1.775l2.35.543c.486.11.988-.112 1.237-.544.25-.432.19-.976-.146-1.34l-1.647-1.778c-.928-.998-.928-2.543 0-3.54l1.65-1.78c.34-.366.403-.912.153-1.347-.25-.434-.753-.655-1.235-.547l-2.36.548c-1.327.304-2.662-.472-3.056-1.773l-.71-2.325zm-1.084 12.387c-1.878 0-3.4-1.522-3.4-3.4 0-1.877 1.522-3.4 3.4-3.4s3.4 1.523 3.4 3.4c0 1.878-1.522 3.4-3.4 3.4zm0-2c.773 0 1.4-.626 1.4-1.4 0-.773-.627-1.4-1.4-1.4-.773 0-1.4.627-1.4 1.4 0 .774.627 1.4 1.4 1.4z" id="gear-Combined-Shape" fill-rule="nonzero"/></symbol><symbol viewBox="0 0 24 24" id="inbox"><path d="M18 3H6L0 9v9c0 1.657 1.39 3 3.047 3H21c1.657 0 3-1.343 3-3V9.03L18 3zM6.828 5h10.38l3.966 4.02L16 9c0 2-1.79 4-4 4s-4-2-4-4H2.828l4-4zM22 18c0 .552-.448 1-1 1H3.047C2.48 19 2 18.542 2 18v-7h4.31c.864 2.28 3.157 4 5.66 4 2.5 0 4.776-1.716 5.64-3.994l4.39.018V18z" id="inbox-Shape" fill-rule="nonzero"/></symbol><symbol viewBox="0 0 26 26" id="key"><path d="M12.105 24.008c-2.89 1.95-6.756 1.576-9.22-.89-2.466-2.464-2.84-6.33-.89-9.22 1.82-2.698 5.185-3.84 8.236-2.872l9.29-9.29c1.31-1.31 3.436-1.31 4.747 0 1.163 1.164 1.294 2.97.392 4.277l.335 1.256c.238.886-.016 1.833-.666 2.482-.65.65-1.597.904-2.484.666l-1.15-.308.31 1.15c.236.887-.018 1.833-.667 2.482-.65.65-1.596.903-2.484.666l-1.194-.32-1.685 1.684c.968 3.05-.174 6.417-2.872 8.236zm1.006-9.198l2.546-2.545c.253-.253.62-.35.966-.26l1.75.47c.198.053.408-.003.553-.147.144-.145.2-.355.148-.55l-.47-1.753c-.092-.345.006-.713.26-.966l.783-.785c.253-.253.62-.35.966-.26l1.752.47c.197.054.407-.002.55-.147.146-.144.202-.354.15-.55l-.47-1.753c-.092-.345.006-.713.26-.966.528-.53.528-1.39-.002-1.92s-1.388-.53-1.918 0l-9.74 9.742c-.29.288-.723.373-1.098.214-2.328-.987-5.03-.186-6.443 1.91-1.414 2.097-1.143 4.9.645 6.69 1.788 1.787 4.592 2.058 6.69.644 2.095-1.414 2.896-4.115 1.91-6.443-.16-.375-.075-.81.213-1.097zm-6.188 6.842c-1.42 0-2.57-1.15-2.57-2.57S5.5 16.51 6.92 16.51s2.57 1.15 2.57 2.57-1.15 2.572-2.57 2.572zm0-2c.315 0 .57-.256.57-.57 0-.316-.255-.572-.57-.572-.315 0-.57.256-.57.57 0 .316.255.572.57.572z" id="key-Shape" fill-rule="nonzero"/></symbol><symbol viewBox="0 0 107 129" id="legal-proof"><g id="legal-proof-FS-Icons" fill-rule="evenodd"><path d="M95.578 74.696c0 8.864-2.665 13.442-6.666 17.59-6.813 7.06-19.275 14.037-35.163 23.777-15.89-9.74-28.35-16.718-35.164-23.778-4.002-4.147-6.666-8.725-6.666-17.59V30.183c14.655-1.35 27.19-5.447 41.83-15.97 14.637 10.523 27.173 14.62 41.828 15.97v44.514zM.593 19.334V73.89c0 26.796 19.36 33.794 53.156 55.11 33.796-21.316 53.155-28.314 53.155-55.11V19.334C86.412 19.334 73.402 16.687 53.75 0 34.095 16.687 21.084 19.334.592 19.334z" id="legal-proof-shield-18-icon-copy-2"/><path id="legal-proof-Shape-Copy-2" fill-rule="nonzero" d="M49.187 85.45L29 65.443l10.015-9.924L49.187 65.6 70.985 44 81 53.924z"/></g></symbol><symbol viewBox="0 0 25 25" id="medical"><path d="M2.2 17.1c-.718 0-1.3-.582-1.3-1.3V9.2c0-.718.582-1.3 1.3-1.3h5.7V2.2c0-.718.582-1.3 1.3-1.3h6.6c.718 0 1.3.582 1.3 1.3v5.7h5.7c.718 0 1.3.582 1.3 1.3v6.6c0 .718-.582 1.3-1.3 1.3h-5.7v5.7c0 .718-.582 1.3-1.3 1.3H9.2c-.718 0-1.3-.582-1.3-1.3v-5.7H2.2zm6.6-2.2c.718 0 1.3.582 1.3 1.3v5.7h4.8v-5.7c0-.718.582-1.3 1.3-1.3h5.7v-4.8h-5.7c-.718 0-1.3-.582-1.3-1.3V3.1h-4.8v5.7c0 .718-.582 1.3-1.3 1.3H3.1v4.8h5.7z" id="medical-Shape-Copy-11" fill-rule="nonzero"/></symbol><symbol viewBox="0 0 24 24" id="menu"><path d="M7 8c-.552 0-1-.448-1-1s.448-1 1-1h11c.552 0 1 .448 1 1s-.448 1-1 1H7zm0 5c-.552 0-1-.448-1-1s.448-1 1-1h6c.552 0 1 .448 1 1s-.448 1-1 1H7zm0 5c-.552 0-1-.448-1-1s.448-1 1-1h9c.552 0 1 .448 1 1s-.448 1-1 1H7z" id="menu-Combined-Shape" fill-rule="nonzero"/></symbol><symbol viewBox="0 0 22 26" id="off"><path d="M9.91 1.543c0-.552.447-1 1-1 .55 0 1 .448 1 1V12.18c0 .552-.45 1-1 1-.553 0-1-.448-1-1V1.543zm-2.607 2.89c.52-.184 1.092.09 1.276.61.183.52-.09 1.09-.61 1.275-4.05 1.432-6.478 5.573-5.752 9.805.726 4.233 4.396 7.327 8.69 7.327 4.296 0 7.966-3.094 8.692-7.327.727-4.232-1.702-8.373-5.752-9.805-.52-.184-.793-.755-.61-1.276.185-.52.756-.793 1.277-.61 4.968 1.757 7.947 6.837 7.056 12.03-.89 5.193-5.392 8.988-10.66 8.988-5.27 0-9.772-3.795-10.663-8.988-.89-5.193 2.09-10.273 7.056-12.03z" id="off-Combined-Shape" fill-rule="nonzero"/></symbol><symbol viewBox="0 0 24 24" id="pen"><path d="M22.673 1.324c.858.862 1.335 2.027 1.327 3.24-.008 1.212-.5 2.37-1.36 3.21L8.437 21.977c-.124.124-.28.213-.45.256l-6.763 1.735c-.72.185-1.377-.47-1.192-1.192l1.733-6.764c.044-.17.132-.325.257-.45L16.217 1.37C17.064.5 18.223.008 19.437 0c1.21-.008 2.376.47 3.236 1.324zm-3.224.635c-.69.004-1.35.284-1.84.785L3.596 16.76l-1.256 4.9 4.9-1.258 14.023-14.02c.493-.483.773-1.142.778-1.832.006-.69-.265-1.35-.75-1.84-.49-.485-1.152-.756-1.84-.75zM2.022 16.947c-.383-.382-.383-1.003 0-1.385.38-.383 1-.384 1.384-.002l5.034 5.026c.384.383.384 1.003.002 1.386-.382.382-1.002.383-1.385 0L2.023 16.95zM15.82 3.152c-.383-.383-.383-1.003 0-1.386.382-.382 1.002-.382 1.384 0l5.03 5.03c.382.382.382 1.002 0 1.384-.383.383-1.003.383-1.386 0l-5.03-5.028z" id="pen-Combined-Shape" fill-rule="nonzero"/></symbol><symbol viewBox="0 0 22 26" id="person"><path d="M11 13.25c-3.452 0-6.25-2.798-6.25-6.25S7.548.75 11 .75 17.25 3.548 17.25 7s-2.798 6.25-6.25 6.25zm0-2c2.347 0 4.25-1.903 4.25-4.25S13.347 2.75 11 2.75 6.75 4.653 6.75 7s1.903 4.25 4.25 4.25zm-8.75 13c0 .552-.448 1-1 1s-1-.448-1-1C.25 18.313 5.063 13.5 11 13.5s10.75 4.813 10.75 10.75c0 .552-.448 1-1 1s-1-.448-1-1c0-4.832-3.918-8.75-8.75-8.75s-8.75 3.918-8.75 8.75z" id="person-Combined-Shape" fill-rule="nonzero"/></symbol><symbol viewBox="0 0 26 20" id="persons"><path d="M16.755 12.03c-1.426-.72-2.403-2.198-2.403-3.905 0-2.416 1.96-4.375 4.375-4.375 2.416 0 4.375 1.96 4.375 4.375 0 1.708-.978 3.187-2.405 3.907.62.197 1.212.486 1.758.867 1.75 1.218 2.794 3.216 2.795 5.35 0 .552-.447 1-1 1-.552 0-1-.447-1-1 0-1.48-.725-2.865-1.94-3.71-1.212-.846-2.763-1.045-4.15-.534-.52.19-1.094-.074-1.285-.592-.19-.518.074-1.093.592-1.284.096-.035.19-.068.288-.1zm-9.997-1.334c-1.973-.712-3.383-2.602-3.383-4.82C3.375 3.045 5.67.75 8.5.75s5.125 2.295 5.125 5.125c0 2.22-1.41 4.11-3.383 4.82 3.44.792 6.008 3.874 6.008 7.555 0 .552-.448 1-1 1s-1-.448-1-1c0-3.176-2.574-5.75-5.75-5.75s-5.75 2.574-5.75 5.75c0 .552-.448 1-1 1s-1-.448-1-1c0-3.68 2.567-6.763 6.008-7.554zM8.5 9c1.726 0 3.125-1.4 3.125-3.125 0-1.726-1.4-3.125-3.125-3.125-1.726 0-3.125 1.4-3.125 3.125C5.375 7.6 6.775 9 8.5 9zm10.227 1.5c1.312 0 2.375-1.063 2.375-2.375S20.04 5.75 18.727 5.75s-2.375 1.063-2.375 2.375 1.063 2.375 2.375 2.375z" id="persons-Combined-Shape" fill-rule="nonzero"/></symbol><symbol viewBox="0 0 24 24" id="plus"><path d="M10.75 10.75v-7.5c0-.69.56-1.25 1.25-1.25s1.25.56 1.25 1.25v7.5h7.5c.69 0 1.25.56 1.25 1.25s-.56 1.25-1.25 1.25h-7.5v7.5c0 .69-.56 1.25-1.25 1.25s-1.25-.56-1.25-1.25v-7.5h-7.5C2.56 13.25 2 12.69 2 12s.56-1.25 1.25-1.25h7.5z" id="plus-Path" fill-rule="nonzero"/></symbol><symbol viewBox="0 0 20 24" id="prefs"><path d="M15 5v2c0 .552-.448 1-1 1s-1-.448-1-1V1c0-.552.448-1 1-1s1 .448 1 1v2h4c.552 0 1 .448 1 1s-.448 1-1 1h-4zM5 13H1c-.552 0-1-.448-1-1s.448-1 1-1h4V9c0-.552.448-1 1-1s1 .448 1 1v6c0 .552-.448 1-1 1s-1-.448-1-1v-2zm8 8v2c0 .552-.448 1-1 1s-1-.448-1-1v-6c0-.552.448-1 1-1s1 .448 1 1v2h6c.552 0 1 .448 1 1s-.448 1-1 1h-6zm-5-2c.552 0 1 .448 1 1s-.448 1-1 1H1c-.552 0-1-.448-1-1s.448-1 1-1h7zm11-8c.552 0 1 .448 1 1s-.448 1-1 1h-9c-.552 0-1-.448-1-1s.448-1 1-1h9zm-9-8c.552 0 1 .448 1 1s-.448 1-1 1H1c-.552 0-1-.448-1-1s.448-1 1-1h9z" id="prefs-Combined-Shape" fill-rule="nonzero"/></symbol><symbol viewBox="0 0 24 24" id="profile"><path d="M8.7 1.004C16.95-1.47 20.52.454 22.997 8.7c2.474 8.248.55 11.82-7.697 14.296-8.248 2.474-11.82.55-14.296-7.697C-1.47 7.05.454 3.48 8.7 1.003zm.576 1.916C2.086 5.077.763 7.535 2.92 14.724c2.157 7.19 4.615 8.513 11.804 6.356 7.19-2.157 8.513-4.615 6.356-11.804C18.923 2.086 16.465.763 9.276 2.92zm2.85 10.486c-2.22 0-4.02-1.8-4.02-4.02 0-2.22 1.8-4.02 4.02-4.02 2.22 0 4.02 1.8 4.02 4.02 0 2.22-1.8 4.02-4.02 4.02zm0-2c1.115 0 2.02-.904 2.02-2.02s-.905-2.02-2.02-2.02c-1.117 0-2.02.904-2.02 2.02s.903 2.02 2.02 2.02zm5.91 5.696c.136.536-.188 1.08-.723 1.215-.535.136-1.08-.187-1.215-.723-.462-1.817-2.098-3.09-3.973-3.09s-3.51 1.273-3.973 3.09c-.136.536-.68.86-1.215.723-.535-.135-.86-.68-.723-1.215.686-2.704 3.12-4.598 5.91-4.598s5.226 1.894 5.912 4.598z" id="profile-Combined-Shape" fill-rule="nonzero"/></symbol><symbol viewBox="0 0 24 24" id="role-user"><path d="M5.38 22.084c.653-2.49 2.646-4.42 5.17-4.983-.552-.206-1.07-.532-1.514-.976-1.668-1.668-1.668-4.372 0-6.04 1.667-1.667 4.37-1.667 6.038 0 1.668 1.668 1.668 4.372 0 6.04-.443.443-.96.768-1.51.976 2.473.554 4.505 2.452 5.166 4.984.26-.025.466-.245.466-.514V5.374c0-.284-.23-.515-.515-.515h-4.416c-.53 0-.957-.43-.957-.958 0-.53.428-.957.957-.957h4.417c1.343 0 2.43 1.087 2.43 2.43V21.57c0 1.342-1.087 2.43-2.43 2.43H5.43C4.087 24 3 22.912 3 21.57V5.374c0-1.342 1.088-2.43 2.43-2.43h4.417c.528 0 .957.43.957.958s-.43.957-.957.957H5.43c-.285 0-.516.23-.516.514V21.57c0 .27.205.49.467.514zm2.006.002h9.34c-.797-2.132-2.985-3.508-5.335-3.192-1.85.248-3.37 1.5-4.004 3.192zm3.003-10.648c-.92.92-.92 2.412 0 3.332.92.92 2.41.92 3.33 0 .92-.92.92-2.412 0-3.332-.92-.92-2.41-.92-3.33 0zm4.83-5.328c0 .936-.757 1.694-1.692 1.694h-2.945c-.935 0-1.693-.758-1.693-1.694V3.166C8.89 1.416 10.307 0 12.055 0c1.75 0 3.166 1.417 3.166 3.166V6.11zm-1.913-2.944c0-.692-.56-1.252-1.252-1.252-.69 0-1.25.56-1.25 1.252V5.89h2.502V3.166z" id="role-user-Shape" fill-rule="nonzero"/></symbol><symbol viewBox="0 0 24 24" id="role"><path d="M8.89 4.86H5.43c-.285 0-.516.23-.516.514V21.57c0 .285.23.516.515.516h13.25c.286 0 .516-.23.516-.515V5.375c0-.284-.23-.515-.515-.515h-3.46v1.25c0 .936-.757 1.694-1.692 1.694h-2.945c-.935 0-1.693-.758-1.693-1.694V4.86zm6.323-1.915h3.468c1.343 0 2.43 1.087 2.43 2.43V21.57c0 1.342-1.087 2.43-2.43 2.43H5.43C4.087 24 3 22.912 3 21.57V5.375c0-1.342 1.088-2.43 2.43-2.43h3.467C9.01 1.3 10.38 0 12.055 0s3.045 1.3 3.158 2.945zm-1.906.22c0-.69-.56-1.25-1.252-1.25-.69 0-1.25.56-1.25 1.25V5.89h2.502V3.166zM8.963 19.84c-.528 0-.957-.428-.957-.957 0-.528.43-.957.957-.957h6.39c.528 0 .956.43.956.957 0 .53-.43.957-.958.957h-6.39z" id="role-Shape" fill-rule="nonzero"/></symbol><symbol viewBox="0 0 19 14" id="search-list"><path d="M.875 5.75C.392 5.75 0 5.358 0 4.875S.392 4 .875 4h4.838c.483 0 .875.392.875.875s-.392.875-.875.875H.875zm0-4C.392 1.75 0 1.358 0 .875S.392 0 .875 0h12.25c.483 0 .875.392.875.875s-.392.875-.875.875H.875zm0 8C.392 9.75 0 9.358 0 8.875S.392 8 .875 8H5c.483 0 .87.392.87.875s-.387.875-.87.875H.875zm14.742.888l2.25 2.195c.264.265.264.697 0 .962-.265.264-.697.264-.962 0l-2.255-2.193c-.866.615-2.005.924-3.172.728-1.794-.303-3.226-1.8-3.445-3.606-.336-2.73 1.96-5.027 4.69-4.69 1.807.218 3.304 1.65 3.607 3.444.194 1.16-.107 2.297-.713 3.16zm-3.423.46c1.607 0 2.904-1.297 2.904-2.904 0-1.606-1.297-2.903-2.904-2.903-1.606 0-2.903 1.298-2.903 2.904 0 1.607 1.298 2.904 2.904 2.904z" id="search-list-Combined-Shape" fill-rule="nonzero"/></symbol><symbol viewBox="0 0 24 20" id="settings"><path d="M19 15h-2c-.552 0-1-.448-1-1s.448-1 1-1h6c.552 0 1 .448 1 1s-.448 1-1 1h-2v4c0 .552-.448 1-1 1s-1-.448-1-1v-4zM11 5V1c0-.552.448-1 1-1s1 .448 1 1v4h2c.552 0 1 .448 1 1s-.448 1-1 1H9c-.552 0-1-.448-1-1s.448-1 1-1h2zm-8 8H1c-.552 0-1-.448-1-1s.448-1 1-1h6c.552 0 1 .448 1 1s-.448 1-1 1H5v6c0 .552-.448 1-1 1s-1-.448-1-1v-6zm2-5c0 .552-.448 1-1 1s-1-.448-1-1V1c0-.552.448-1 1-1s1 .448 1 1v7zm8 11c0 .552-.448 1-1 1s-1-.448-1-1v-9c0-.552.448-1 1-1s1 .448 1 1v9zm8-9c0 .552-.448 1-1 1s-1-.448-1-1V1c0-.552.448-1 1-1s1 .448 1 1v9z" id="settings-Combined-Shape" fill-rule="nonzero"/></symbol><symbol viewBox="0 0 19 13" id="timelines"><path d="M8.124 2C7.504 2 7 1.552 7 1s.503-1 1.124-1h1.122c.62 0 1.124.448 1.124 1s-.503 1-1.124 1H8.124zm5 0C12.504 2 12 1.552 12 1s.503-1 1.124-1h4.122c.62 0 1.124.448 1.124 1s-.503 1-1.124 1h-4.122zm-12 0C.504 2 0 1.552 0 1s.503-1 1.124-1h3.122c.62 0 1.124.448 1.124 1s-.503 1-1.124 1H1.124zm0 5.5C.504 7.5 0 7.052 0 6.5s.503-1 1.124-1h7.122c.62 0 1.124.448 1.124 1s-.503 1-1.124 1H1.124zm11 0c-.62 0-1.124-.448-1.124-1s.503-1 1.124-1h5.122c.62 0 1.124.448 1.124 1s-.503 1-1.124 1h-5.122zm-11 5.5C.504 13 0 12.552 0 12s.503-1 1.124-1h11.122c.62 0 1.124.448 1.124 1s-.503 1-1.124 1H1.124zm15 0c-.62 0-1.124-.448-1.124-1s.503-1 1.124-1h1.122c.62 0 1.124.448 1.124 1s-.503 1-1.124 1h-1.122z" id="timelines-Combined-Shape-Copy-5" fill-rule="nonzero"/></symbol><symbol viewBox="0 0 24 24" id="today"><g id="today-New-Person" transform="translate(-1186 -416)" fill-rule="evenodd"><circle id="today-Oval" cx="1190.5" cy="419.5" r="1"/><path d="M1188.786 416h18.285c1.264 0 2.287 1.023 2.287 2.286v19.428c0 1.263-1.023 2.286-2.286 2.286h-18.284c-1.263 0-2.286-1.023-2.286-2.286v-19.428c0-1.263 1.023-2.286 2.286-2.286zm2.285 6.857c-.63 0-1.14.512-1.14 1.143v11.43c0 .63.51 1.14 1.14 1.14h13.716c.63 0 1.143-.51 1.143-1.14V424c0-.63-.513-1.143-1.144-1.143h-13.715zm7.5 2.286h3.43c.63 0 1.143.512 1.143 1.143v3.428c0 .63-.512 1.143-1.143 1.143h-3.43c-.63 0-1.14-.512-1.14-1.143v-3.428c0-.63.51-1.143 1.14-1.143z" id="today-Combined-Shape"/></g></symbol><symbol viewBox="0 0 24 24" id="trash"><path d="M2.442 5.08H.964C.43 5.08 0 4.65 0 4.117c0-.532.43-.964.964-.964h6.13V2.54C7.095 1.137 8.233 0 9.635 0h4.73c1.404 0 2.54 1.137 2.54 2.54v.613h6.132c.533 0 .964.432.964.964s-.43.963-.964.963h-1.478l-1.382 16.59c-.11 1.317-1.21 2.33-2.532 2.33H6.357c-1.322 0-2.423-1.013-2.532-2.33L2.442 5.08zm12.536-1.927V2.54c0-.338-.274-.613-.613-.613h-4.73c-.34 0-.613.275-.613.613v.613h5.956zM4.376 5.08l1.37 16.43c.026.318.292.563.61.563h11.288c.32 0 .585-.245.612-.562l1.368-16.43H4.376zM10.6 17.518c0 .532-.433.964-.965.964s-.963-.432-.963-.964V9.635c0-.532.43-.963.963-.963.532 0 .964.43.964.963v7.883zm4.728 0c0 .532-.43.964-.963.964-.532 0-.964-.432-.964-.964V9.635c0-.532.433-.963.965-.963s.963.43.963.963v7.883z" id="trash-Combined-Shape" fill-rule="nonzero"/></symbol><symbol viewBox="0 0 24 24" id="biings"><path d="M6.533 13.592l-.03-.362s0-.86 1.736-.86c.42 0 .738.05.98.126l.177 4.975c-.87-.32-1.654-.96-2.032-1.746l-.205-.435c-.207-.473-.425-1.068-.627-1.698zm11.156 1.5l.157-1.862s0-.86-1.737-.86c-.42 0-.736.05-.978.125l-.14 4.198c.394-.138.76-.28 1.07-.415l.435-.205c.448-.215.857-.56 1.192-.98zm-3.64 1.91l.17-5.128s0-1.013-2.045-1.013c-2.047 0-2.047 1.014-2.047 1.014l.206 5.81c.188.015.374.013.556-.006l.475-.056c.756-.096 1.744-.335 2.686-.62zm-5.91-5.347c.658 0 1.193-.533 1.193-1.192 0-.658-.535-1.192-1.194-1.192-.66 0-1.195.535-1.195 1.193 0 .66.535 1.192 1.194 1.192zm8.045 0c.66 0 1.193-.533 1.193-1.192 0-.658-.534-1.192-1.193-1.192-.66 0-1.194.535-1.194 1.193 0 .66.535 1.192 1.195 1.192zM8.7 1.003c8.248-2.47 11.82-.55 14.296 7.686 2.474 8.235.55 11.804-7.697 14.274-8.248 2.47-11.82.55-14.296-7.686C-1.47 7.043.454 3.474 8.7 1.003zm3.46 8.758c.905 0 1.637-.73 1.637-1.633 0-.902-.732-1.634-1.636-1.634-.902 0-1.635.732-1.635 1.634 0 .902.733 1.634 1.636 1.634z" id="biings-Rectangle-16-Copy-7" fill-rule="evenodd"/></symbol><symbol viewBox="0 0 27 13" id="key_esc"><path d="M2 0h23c1.105 0 2 .895 2 2v9c0 1.105-.895 2-2 2H2c-1.105 0-2-.895-2-2V2C0 .895.895 0 2 0zm0 1.2c-.442 0-.8.358-.8.8v9c0 .442.358.8.8.8h23c.442 0 .8-.358.8-.8V2c0-.442-.358-.8-.8-.8H2zm7.21 7.856c-.695 0-1.237-.196-1.626-.586C7.194 8.08 7 7.52 7 6.794v-.388c0-.77.18-1.362.536-1.78C7.893 4.21 8.406 4 9.072 4c.65 0 1.14.196 1.47.588.327.392.495.973.5 1.742v.626H8.35c.018.36.103.624.253.79.15.167.38.25.694.25.453 0 .83-.145 1.134-.436l.532.77c-.166.216-.407.39-.723.525-.317.134-.66.2-1.03.2zm-.85-2.992h1.353v-.117c-.006-.292-.057-.513-.153-.663-.096-.15-.262-.225-.498-.225s-.407.078-.514.238c-.107.16-.17.414-.19.766zM14.1 7.66c0-.11-.055-.21-.165-.3-.11-.093-.354-.216-.734-.373-.557-.213-.94-.434-1.15-.662-.21-.228-.313-.512-.313-.852 0-.426.163-.778.49-1.056.327-.278.76-.417 1.3-.417.567 0 1.022.138 1.363.415.34.276.512.647.512 1.112h-1.354c0-.396-.176-.594-.526-.594-.144 0-.262.042-.355.126-.092.083-.138.2-.138.35 0 .108.05.204.152.286.102.083.343.2.722.354.552.192.942.406 1.17.642.228.236.342.542.342.917 0 .435-.174.785-.52 1.05-.35.263-.805.396-1.37.396-.38 0-.714-.07-1.004-.21-.29-.14-.518-.334-.682-.583-.165-.25-.247-.52-.247-.807h1.287c.007.222.062.39.165.5.104.11.274.167.51.167.364 0 .545-.155.545-.464zm4.03.337c.392 0 .59-.24.597-.72H20c-.006.53-.18.96-.522 1.287-.34.328-.78.492-1.32.492-.667 0-1.176-.196-1.526-.586-.35-.39-.53-.966-.536-1.726v-.387c0-.766.173-1.35.52-1.753C16.96 4.2 17.47 4 18.147 4c.57 0 1.02.166 1.35.498.328.332.496.803.502 1.412h-1.273c-.003-.273-.05-.483-.143-.63-.093-.148-.246-.22-.46-.22-.236 0-.405.078-.507.235-.102.158-.156.464-.162.917v.496c0 .397.02.674.062.83.04.16.11.275.205.348.096.074.232.11.407.11z" id="key_esc-Combined-Shape" fill-rule="nonzero"/></symbol><symbol viewBox="0 0 19 12" id="key_return"><path d="M16.582 1.583v3H3.412l2.88-2.88c.39-.39.39-1.02 0-1.41-.39-.39-1.02-.39-1.41 0l-4.59 4.59c-.39.39-.39 1.02 0 1.41l4.59 4.59c.39.39 1.02.39 1.41 0 .39-.39.39-1.02 0-1.41l-2.88-2.89h14.17c.55 0 1-.45 1-1v-4c0-.55-.45-1-1-1s-1 .45-1 1z" id="key_return-Shape" fill-rule="nonzero"/></symbol><symbol viewBox="0 0 18 12" id="key_up_down"><path d="M.562 4.198c-.5 0-.746-.6-.4-.946L3.265.16c.223-.213.568-.213.79 0L7.16 3.25c.357.345.112.946-.388.946H4.78v6.69c0 .61-.5 1.112-1.113 1.112-.612 0-1.113-.5-1.113-1.113v-6.69H.562zm10.016 3.604h1.992v-6.69c0-.61.5-1.112 1.113-1.112.612 0 1.113.5 1.113 1.113v6.69h1.992c.5 0 .746.6.39.945L14.07 11.84c-.222.213-.567.213-.79 0L10.177 8.75c-.345-.345-.1-.946.4-.946z" id="key_up_down-Combined-Shape" fill-rule="nonzero"/></symbol><symbol viewBox="0 0 23 23" id="segment"><g id="segment-Prototype" fill-rule="evenodd"><path d="M23 10H13V0c2.652 0 5.196 1.054 7.07 2.93C21.947 4.803 23 7.347 23 10z" id="segment-Combined-Shape"/><path d="M11 23C4.925 23 0 18.075 0 12S4.925 1 11 1v11h11c0 6.075-4.925 11-11 11z" id="segment-Path"/></g></symbol><symbol viewBox="0 0 24 24" id="arrow-down"><path d="M12 2q.414 0 .707.293T13 3v15.586l5.29-5.297q.288-.29.71-.29.43 0 .715.285T20 14q0 .422-.29.71l-7 7q-.288.29-.71.29t-.71-.29l-7-7Q4 14.423 4 14q0-.43.285-.715T5 13q.422 0 .71.29L11 18.585V3q0-.414.293-.707T12 2z"/></symbol><symbol viewBox="0 0 24 24" id="arrow-left"><path d="M10 4q.414 0 .707.293T11 5q0 .422-.297.71L5.413 11H21q.414 0 .707.293T22 12t-.293.707T21 13H5.414l5.29 5.29q.296.288.296.71 0 .414-.293.707T10 20q-.422 0-.71-.29l-7-7Q2 12.407 2 12t.29-.71l7-7Q9.585 4 10 4z"/></symbol><symbol viewBox="0 0 24 24" id="arrow-right"><path d="M14 4q.422 0 .71.29l7 7q.29.288.29.71t-.29.71l-7 7q-.288.29-.71.29-.43 0-.715-.285T13 19q0-.422.29-.71L18.585 13H3q-.414 0-.707-.293T2 12t.293-.707T3 11h15.586L13.29 5.71Q13 5.423 13 5q0-.43.285-.715T14 4z"/></symbol><symbol viewBox="0 0 24 24" id="arrow-up"><path d="M12 2q.422 0 .71.29l7 7q.29.288.29.71 0 .43-.285.715T19 11q-.422 0-.71-.29L13 5.415V21q0 .414-.293.707T12 22t-.707-.293T11 21V5.414L5.71 10.71Q5.423 11 5 11q-.43 0-.715-.285T4 10q0-.422.29-.71l7-7Q11.577 2 12 2z"/></symbol><symbol viewBox="0 0 24 24" id="download"><path d="M12 1q.414 0 .707.293T13 2v11.586l3.29-3.297q.288-.29.71-.29.43 0 .715.285T18 11q0 .422-.29.71l-5 5q-.288.29-.71.29t-.71-.29l-5-5Q6 11.407 6 11q0-.414.293-.707T7 10q.422 0 .71.29L11 13.585V2q0-.414.293-.707T12 1zm10 14q.414 0 .707.293T23 16v4q0 1.25-.867 2.117-.883.883-2.11.883H4.002q-1.226 0-2.124-.875Q1 21.227 1 20v-4q0-.414.294-.707T2 15t.708.293T3 16v4q0 .414.294.707T4 21h16.024q.406 0 .69-.293T21 20v-4q0-.414.293-.707T22 15z"/></symbol><symbol viewBox="0 0 22 22" id="help"><path d="M18.778 18.778c-4.296 4.296-11.26 4.296-15.556 0-4.296-4.296-4.296-11.26 0-15.556 4.296-4.296 11.26-4.296 15.556 0 4.296 4.296 4.296 11.26 0 15.556zM4.636 4.636c-3.515 3.515-3.515 9.213 0 12.728 3.515 3.515 9.213 3.515 12.728 0 3.515-3.515 3.515-9.213 0-12.728-3.515-3.515-9.213-3.515-12.728 0zM11 17c-.552 0-1-.448-1-1s.448-1 1-1 1 .448 1 1-.448 1-1 1zM9.033 8.332c-.183.52-.754.795-1.275.61-.52-.182-.795-.753-.61-1.274.732-2.084 3.015-3.18 5.1-2.446 1.603.564 2.675 2.08 2.672 3.778 0 1.28-.758 2.29-1.945 3.082-.65.433-1.287.716-1.74.867-.523.173-1.09-.11-1.264-.634-.173-.524.11-1.09.634-1.265.065-.02.2-.072.38-.15.302-.136.604-.297.88-.482.69-.46 1.056-.948 1.056-1.42 0-.85-.535-1.607-1.336-1.89-1.042-.366-2.184.182-2.55 1.224z" id="help-Combined-Shape" fill-rule="nonzero"/></symbol><symbol viewBox="0 0 24 24" id="search"><path d="M10 1q1.828 0 3.496.715t2.87 1.918 1.92 2.87T19 10q0 1.57-.512 3.008t-1.457 2.61l5.68 5.67q.29.29.29.712 0 .43-.285.715T22 23q-.422 0-.71-.29l-5.673-5.68q-1.172.946-2.61 1.458T10 19q-1.828 0-3.496-.715t-2.87-1.918-1.92-2.87T1 10t.715-3.496 1.918-2.87 2.87-1.92T10 1zm0 2q-1.422 0-2.72.555T5.048 5.047 3.555 7.28 3 10t.555 2.72 1.492 2.233 2.234 1.492T10 17t2.72-.555 2.233-1.492 1.492-2.234T17 10t-.555-2.72-1.492-2.233-2.234-1.492T10 3z"/></symbol></svg>