<svg xmlns="http://www.w3.org/2000/svg"><symbol viewBox="0 0 24 24" id="add"><path d="M13 7h-2v4H7v2h4v4h2v-4h4v-2h-4V7zm-1-5C6.48 2 2 6.48 2 12s4.48 10 10 10 10-4.48 10-10S17.52 2 12 2zm0 18c-4.41 0-8-3.59-8-8s3.59-8 8-8 8 3.59 8 8-3.59 8-8 8z" id="add-Shape" fill-rule="evenodd"/></symbol><symbol viewBox="0 0 24 24" id="archive"><path d="M20.54 5.23l-1.39-1.68C18.88 3.21 18.47 3 18 3H6c-.47 0-.88.21-1.16.55L3.46 5.23C3.17 5.57 3 6.02 3 6.5V19c0 1.1.9 2 2 2h14c1.1 0 2-.9 2-2V6.5c0-.48-.17-.93-.46-1.27zM6.24 5h11.52l.81.97H5.44l.8-.97zM5 19V8h14v11H5zm8.45-9h-2.9v3H8l4 4 4-4h-2.55v-3z" id="archive-Shape" fill-rule="evenodd"/></symbol><symbol viewBox="0 0 24 24" id="arrow-down"><path d="M12.844 21.44l8.563-8.564c.293-.293.768-.293 1.06 0 .294.293.294.767 0 1.06l-9.843 9.844c-.293.293-.767.293-1.06 0L1.72 13.936c-.293-.293-.293-.767 0-1.06.293-.293.768-.293 1.06 0l8.564 8.563V.75c0-.414.336-.75.75-.75s.75.336.75.75v20.69z" id="arrow-down-Path" fill-rule="nonzero"/></symbol><symbol viewBox="0 0 24 24" id="arrow-left"><path d="M2.56 11.25l8.564-8.563c.293-.293.293-.768 0-1.06-.293-.294-.768-.294-1.06 0L.22 11.47c-.293.293-.293.767 0 1.06l9.843 9.844c.293.293.768.293 1.06 0 .294-.293.294-.768 0-1.06L2.562 12.75h20.69c.414 0 .75-.336.75-.75s-.336-.75-.75-.75H2.56z" id="arrow-left-Path" fill-rule="nonzero"/></symbol><symbol viewBox="0 0 24 24" id="arrow-right"><path d="M21.44 11.25l-8.564-8.563c-.293-.293-.293-.768 0-1.06.293-.294.768-.294 1.06 0l9.844 9.843c.293.293.293.767 0 1.06l-9.843 9.844c-.293.293-.768.293-1.06 0-.294-.293-.294-.768 0-1.06l8.562-8.564H.75c-.414 0-.75-.336-.75-.75s.336-.75.75-.75h20.69z" id="arrow-right-Path" fill-rule="nonzero"/></symbol><symbol viewBox="0 0 24 24" id="arrow-up"><path d="M12.844 2.56l8.563 8.564c.293.293.768.293 1.06 0 .294-.293.294-.767 0-1.06L12.625.22c-.293-.293-.767-.293-1.06 0L1.72 10.064c-.293.293-.293.767 0 1.06.293.293.768.293 1.06 0l8.564-8.563v20.69c0 .414.336.75.75.75s.75-.336.75-.75V2.56z" id="arrow-up-Path" fill-rule="nonzero"/></symbol><symbol viewBox="0 0 24 24" id="attachment"><path d="M19.5 15.75V7.5C19.5 3.358 16.142 0 12 0 7.858 0 4.5 3.358 4.5 7.5v11.25c0 2.9 2.35 5.25 5.25 5.25S15 21.65 15 18.75V7.5c0-1.657-1.343-3-3-3s-3 1.343-3 3v9.75c0 .414.336.75.75.75s.75-.336.75-.75V7.5c0-.828.672-1.5 1.5-1.5s1.5.672 1.5 1.5v11.25c0 2.07-1.68 3.75-3.75 3.75C7.68 22.5 6 20.82 6 18.75V7.5c0-3.314 2.686-6 6-6s6 2.686 6 6v8.25c0 .413.336.75.75.75s.75-.337.75-.75z" id="attachment-Path" fill-rule="nonzero"/></symbol><symbol viewBox="0 0 24 24" id="badge"><path d="M6.277 14.09C3.22 10.96 3.24 5.945 6.343 2.843c3.124-3.124 8.19-3.124 11.314 0 3.003 3.004 3.12 7.8.348 10.943l.824 8.556c.07.75-.68 1.307-1.377 1.02l-5.297-2.176-5.298 2.177c-.697.286-1.448-.27-1.376-1.02l.795-8.253zm1.65-1.184c.042.032.082.068.118.107 2.357 2.07 5.948 1.98 8.198-.27 2.343-2.344 2.343-6.142 0-8.486-2.344-2.343-6.142-2.343-8.486 0-2.343 2.344-2.343 6.142 0 8.486.056.055.113.11.17.163zm.222 2.61L7.63 20.88l4.143-1.702c.244-.1.517-.1.76 0l4.144 1.702-.534-5.538c-2.442 1.482-5.507 1.54-7.997.17zm1.493-9.373c1.302-1.302 3.412-1.302 4.714 0 1.302 1.302 1.302 3.412 0 4.714-1.302 1.302-3.412 1.302-4.714 0-1.302-1.302-1.302-3.412 0-4.714zm3.3 3.3c.52-.52.52-1.365 0-1.886-.52-.52-1.365-.52-1.886 0-.52.52-.52 1.365 0 1.886.52.52 1.365.52 1.886 0z" id="badge-Shape" fill-rule="nonzero"/></symbol><symbol viewBox="0 0 24 24" id="bell"><path d="M20.284 17.686l-1.456-1.455v-5.64c0-3.464-1.85-6.363-5.077-7.13V2.69c0-.936-.754-1.692-1.69-1.692-.937 0-1.693.756-1.693 1.692v.767C7.13 4.226 5.29 7.114 5.29 10.59v5.64l-1.456 1.456c-.71.71-.214 1.93.79 1.93h14.86c1.014 0 1.51-1.22.8-1.93zm-3.712-.327H7.546v-6.77c0-2.798 1.704-5.077 4.513-5.077 2.808 0 4.512 2.28 4.512 5.077v6.77zM12.06 23c1.24 0 2.256-1.015 2.256-2.256H9.803c0 1.24 1.004 2.256 2.256 2.256z" id="bell-Shape" fill-rule="evenodd"/></symbol><symbol viewBox="0 0 119 102" id="biings-care"><path d="M57.69 81.475c2.856 0 5.17 2.28 5.17 5.094 0 2.813-2.314 5.093-5.17 5.093-3.672 0-6.504-.56-9.08-1.606-9.77 8.422-21.062 11.467-36.69 11.82-4.724.108-7.104-5.575-3.68-8.784.335-.313.958-.92 1.772-1.757 1.365-1.4 2.73-2.9 3.992-4.422 1.25-1.507 2.326-2.95 3.173-4.28 1.204-1.89 1.825-3.39 1.863-4.087C7.372 70.163.43 58.02.43 44.845.43 19.817 25.172 0 55.23 0c25.242 0 47.222 14.058 53.223 34.095.808 2.698-.755 5.53-3.493 6.328-2.737.796-5.61-.745-6.42-3.443-4.618-15.42-22.398-26.792-43.31-26.792-24.767 0-44.465 15.776-44.465 34.657 0 10.336 5.903 20.036 16.076 26.64 1.226.794 2.05 2.066 2.27 3.497.176 1.163.267 2.33.267 3.5 0 3.023-1.26 6.136-3.448 9.57-.518.812-1.084 1.634-1.696 2.466 7.944-1.5 14.074-4.556 19.603-10.006 1.13-1.116 2.723-1.65 4.31-1.45 1.438.18 5.462 1.993 4.535 1.63 1.28.503 2.758.783 5.01.783zm56.097-3.854L95.805 95.346c-1.66 1.637-4.353 1.637-6.013 0L71.81 77.62c-6.03-5.944-6.03-15.58 0-21.526 5.718-5.636 16.048-3.75 20.99 1.535 4.716-5.286 15.27-7.172 20.99-1.53 6.03 5.943 6.027 15.58-.003 21.52z"/></symbol><symbol viewBox="0 0 24 24" id="biings-claim"><path d="M19.857 8.326v9.67c0 2.388-1.47 3.86-3.854 3.86H6.14c-2.385 0-3.854-1.47-3.854-3.857V6.57c0-2.387 1.47-3.858 3.86-3.858h6.357c.552 0 1 .448 1 1 0 .553-.448 1-1 1H6.146c-1.286 0-1.86.575-1.86 1.858V18c0 1.282.574 1.857 1.853 1.857h9.863c1.28 0 1.854-.577 1.854-1.86v-9.67H16c-.838 0-1.304-.97-.782-1.624l2.79-4.5c.4-.502 1.164-.502 1.565 0l2.79 4.5c.523.655.056 1.623-.782 1.623h-1.723zM7.5 12c-.552 0-1-.448-1-1s.448-1 1-1h4c.552 0 1 .448 1 1s-.448 1-1 1h-4zm0 4c-.552 0-1-.448-1-1s.448-1 1-1h7c.552 0 1 .448 1 1s-.448 1-1 1h-7z" id="biings-claim-Shape" fill-rule="nonzero"/></symbol><symbol viewBox="0 0 24 24" id="biings-pilot"><path d="M14.893 14.893L9.107 9.107l-2.893 8.68 8.68-2.894zm5.02-8.737l-3.18 9.542c-.163.488-.547.872-1.035 1.035l-9.542 3.18c-1.28.426-2.495-.79-2.07-2.07l3.18-9.54c.164-.49.548-.873 1.036-1.036l9.542-3.18c1.28-.426 2.495.79 2.07 2.07z" id="biings-pilot-Shape" fill-rule="nonzero"/></symbol><symbol viewBox="0 0 24 24" id="biings"><path d="M6.533 13.592l-.03-.362s0-.86 1.736-.86c.42 0 .738.05.98.126l.177 4.975c-.87-.32-1.654-.96-2.032-1.746l-.205-.435c-.207-.473-.425-1.068-.627-1.698zm11.156 1.5l.157-1.862s0-.86-1.737-.86c-.42 0-.736.05-.978.125l-.14 4.198c.394-.138.76-.28 1.07-.415l.435-.205c.448-.215.857-.56 1.192-.98zm-3.64 1.91l.17-5.128s0-1.013-2.045-1.013c-2.047 0-2.047 1.014-2.047 1.014l.206 5.81c.188.015.374.013.556-.006l.475-.056c.756-.096 1.744-.335 2.686-.62zm-5.91-5.347c.658 0 1.193-.533 1.193-1.192 0-.658-.535-1.192-1.194-1.192-.66 0-1.195.535-1.195 1.193 0 .66.535 1.192 1.194 1.192zm8.045 0c.66 0 1.193-.533 1.193-1.192 0-.658-.534-1.192-1.193-1.192-.66 0-1.194.535-1.194 1.193 0 .66.535 1.192 1.195 1.192zM8.7 1.003c8.248-2.47 11.82-.55 14.296 7.686 2.474 8.235.55 11.804-7.697 14.274-8.248 2.47-11.82.55-14.296-7.686C-1.47 7.043.454 3.474 8.7 1.003zm3.46 8.758c.905 0 1.637-.73 1.637-1.633 0-.902-.732-1.634-1.636-1.634-.902 0-1.635.732-1.635 1.634 0 .902.733 1.634 1.636 1.634z" id="biings-Rectangle-16-Copy-7" fill-rule="evenodd"/></symbol><symbol viewBox="0 0 24 24" id="birthday-g"><path d="M11.005 10.028l-.002-.056V7.597c0-.552.448-1 1-1s1 .448 1 1v2.431h5.67c1.33 0 2.333 1.19 2.333 2.583v7.918c0 1.392-1.003 2.583-2.333 2.583H5.34c-1.33 0-2.334-1.19-2.334-2.582v-6.924c-.008-.176-.008-.358 0-.544v-.45c0-1.39 1.003-2.582 2.334-2.582h5.665zm-6 6.832v3.668c0 .356.192.583.335.583h13.333c.142 0 .333-.226.333-.582v-3.686c-1.415.76-3.12.56-4.306-.4-.165.133-.34.254-.528.36-1.444.816-3.21.61-4.414-.394-1.32 1.055-3.105 1.314-4.752.452zm0-3.278c.046.752.324 1.198.852 1.465 1.163.636 2.38.298 3.15-.71.427-.563 1.287-.516 1.65.09.51.844 1.646 1.134 2.53.634.273-.154.5-.373.656-.634.388-.644 1.322-.646 1.712-.003.515.85 1.66 1.14 2.55.632.563-.32.903-.898.9-1.518v-.926c0-.355-.19-.582-.332-.582H5.34c-.143 0-.334.227-.334.583v.972zM13.924 3c0 1.105-.896 2-2 2-1.105 0-2-.895-2-2 0-1.104 2-3 2-3s2 1.896 2 3z" id="birthday-g-Combined-Shape" fill-rule="nonzero"/></symbol><symbol viewBox="0 0 24 24" id="birthday"><path d="M1.75 14.283v-.922c0-1.288 1.045-2.332 2.333-2.332h7.164v-2.68c0-.415.336-.75.75-.75s.75.335.75.75v2.68h7.17c1.288 0 2.333 1.044 2.333 2.333v7.918c0 1.288-1.045 2.333-2.333 2.333H4.083c-1.288 0-2.333-1.044-2.333-2.332v-6.994zm1.5 2.887v4.108c0 .46.373.833.833.833h15.834c.46 0 .833-.372.833-.832V17.17c-.075.053-.153.103-.233.15-1.367.804-3.054.578-4.162-.444-.186.172-.39.324-.612.453-1.362.794-3.04.565-4.14-.453-1.217 1.124-3.03 1.224-4.354.318-.582.396-1.273.612-1.987.61-.75 0-1.443-.235-2.013-.635zm0-2.878c.002 1.112.903 2.012 2.015 2.014.545 0 1.067-.22 1.448-.61.295-.302.78-.302 1.075 0 .77.795 2.04.814 2.835.043.13-.128.242-.27.334-.427.29-.495 1.006-.495 1.295 0 .557.955 1.78 1.277 2.735.72.298-.174.546-.42.72-.72.288-.494 1.003-.495 1.294 0 .564.957 1.798 1.278 2.757.714.617-.362.995-1.025.993-1.74v-.927c0-.46-.373-.832-.833-.832H4.083c-.46 0-.833.373-.833.833v.932zM14.333 4.125c0 1.29-1.044 2.333-2.333 2.333-1.29 0-2.333-1.044-2.333-2.333 0-.41.163-.824.444-1.277.145-.232.32-.47.518-.713.187-.23.385-.45.584-.657.12-.124.215-.218.272-.272.29-.275.743-.275 1.032 0 .057.054.152.148.272.272.2.207.397.428.584.657.2.243.373.48.517.713.28.453.443.867.443 1.277zm-2.544-1.04c-.16.195-.298.383-.405.555-.147.236-.218.418-.218.485 0 .46.373.833.833.833.46 0 .833-.373.833-.833 0-.067-.07-.25-.218-.485-.107-.172-.244-.36-.404-.556-.067-.083-.138-.166-.21-.248-.072.082-.143.165-.21.248z" id="birthday-Shape" fill-rule="nonzero"/></symbol><symbol viewBox="0 0 24 24" id="book"><path d="M11.264 7.223c-1.16-1.11-4.05-2.646-8.206-2.75-.314-.01-.576.238-.585.553V16.415c0 .308.248.56.556.565 4.562.108 7.1 1.535 8.234 2.41V7.222zm7.937 9.872c.554-.06 1.143-.1 1.77-.115.31-.006.556-.257.558-.565V5.038c-.002-.314-.258-.567-.572-.565h-.014c-3.484.087-6.618 1.607-8.206 2.75V19.39c.98-.755 3-1.92 6.465-2.295zM13.25 5c1.983-1.185 4.523-1.92 7.647-2h.05c1.128-.006 2.047.902 2.053 2.038V16.42c-.004 1.11-.894 2.012-1.994 2.032-.572.014-1.12.05-1.646.106-2.098.228-3.742.772-4.99 1.504-.415.245-.75.49-1.01.72-.082.072-.148.136-.198.19l-.03.03c-.592.715-1.693.71-2.278-.015-.187-.233-.717-.68-1.652-1.16-1.56-.8-3.604-1.313-6.2-1.375-1.108-.02-1.998-.922-2.002-2.037V4.985C1.034 3.856 1.974 2.968 3.096 3c3.133.08 5.673.815 7.656 2 .484.29.9.582 1.25.864.352-.282.767-.574 1.25-.863z" id="book-Shape" fill-rule="nonzero"/></symbol><symbol viewBox="0 0 24 24" id="briefcase-g"><path d="M7.625 6.5V5.25C7.625 3.455 9.08 2 10.875 2h2.25c1.795 0 3.25 1.455 3.25 3.25V6.5h3.5C21.05 6.5 22 7.45 22 8.625v11.25C22 21.05 21.05 22 19.875 22H4.125C2.95 22 2 21.05 2 19.875V8.625C2 7.45 2.95 6.5 4.125 6.5h3.5zM13 13v1.25c0 .552-.448 1-1 1s-1-.448-1-1V13H4v6.875c0 .07.056.125.125.125h15.75c.07 0 .125-.056.125-.125V13h-7zm-9-2h16V8.625c0-.07-.056-.125-.125-.125H4.125c-.07 0-.125.056-.125.125V11zm5.625-4.5h4.75V5.25c0-.69-.56-1.25-1.25-1.25h-2.25c-.69 0-1.25.56-1.25 1.25V6.5z" id="briefcase-g-Shape" fill-rule="nonzero"/></symbol><symbol viewBox="0 0 24 24" id="briefcase"><path d="M22.5 13.5h-8.25c0 1.243-1.007 2.25-2.25 2.25s-2.25-1.007-2.25-2.25H1.5v6.75c0 .415.336.75.75.75h19.5c.414 0 .75-.335.75-.75V13.5zm0-1.5V8.25c0-.413-.336-.75-.75-.75H2.25c-.414 0-.75.337-.75.75V12h8.25c0-1.243 1.007-2.25 2.25-2.25s2.25 1.007 2.25 2.25h8.25zM6.987 6l.96-2.463C8.253 2.62 9.113 2 10.08 2h3.84c.96 0 1.815.61 2.127 1.518L17.013 6h4.737C22.993 6 24 7.01 24 8.25v12c0 1.244-1.007 2.25-2.25 2.25H2.25C1.007 22.5 0 21.495 0 20.25v-12C0 7.01 1.007 6 2.25 6h4.737zm1.61 0h6.806l-.76-1.953-.012-.035c-.102-.306-.388-.512-.71-.512h-3.84c-.322 0-.608.206-.723.547L8.597 6zm4.153 7.5V12c0-.414-.336-.75-.75-.75s-.75.336-.75.75v1.5c0 .414.336.75.75.75s.75-.336.75-.75z" id="briefcase-Shape" fill-rule="nonzero"/></symbol><symbol viewBox="0 0 24 24" id="bubble"><path d="M6.7 22.85c-.494.37-1.2.018-1.2-.6V18.5H2.25C1.007 18.5 0 17.493 0 16.25V3.75C0 2.507 1.007 1.5 2.25 1.5h19.5C22.993 1.5 24 2.507 24 3.75v12.5c0 1.243-1.007 2.25-2.25 2.25H12.5l-5.8 4.35zm5.1-5.7c.13-.097.288-.15.45-.15h9.5c.414 0 .75-.336.75-.75V3.75c0-.414-.336-.75-.75-.75H2.25c-.414 0-.75.336-.75.75v12.5c0 .414.336.75.75.75h4c.414 0 .75.336.75.75v3l4.8-3.6zM6 8.5c-.414 0-.75-.336-.75-.75S5.586 7 6 7h12c.414 0 .75.336.75.75s-.336.75-.75.75H6zm0 4c-.414 0-.75-.336-.75-.75S5.586 11 6 11h6c.414 0 .75.336.75.75s-.336.75-.75.75H6z" id="bubble-Shape" fill-rule="nonzero"/></symbol><symbol viewBox="0 0 25 24" id="bubbles"><path d="M16.44 19.5h-4.19c-1.243 0-2.25-1.007-2.25-2.25v-7.5c0-1.243 1.007-2.25 2.25-2.25h10.5C23.993 7.5 25 8.507 25 9.75v7.5c0 1.243-1.007 2.25-2.25 2.25H22v3.75c0 .668-.808 1.003-1.28.53l-4.28-4.28zm4.06-.75c0-.414.336-.75.75-.75h1.5c.414 0 .75-.336.75-.75v-7.5c0-.414-.336-.75-.75-.75h-10.5c-.414 0-.75.336-.75.75v7.5c0 .414.336.75.75.75h4.5c.2 0 .39.08.53.22l3.22 3.22v-2.69zm-15-7.5v2.69l1.72-1.72c.293-.293.767-.293 1.06 0 .293.293.293.767 0 1.06l-3 3c-.472.473-1.28.138-1.28-.53V12h-.75C2.007 12 1 10.993 1 9.75v-7.5C1 1.007 2.007 0 3.25 0h10.5C14.993 0 16 1.007 16 2.25v3c0 .414-.336.75-.75.75s-.75-.336-.75-.75v-3c0-.414-.336-.75-.75-.75H3.25c-.414 0-.75.336-.75.75v7.5c0 .414.336.75.75.75h1.5c.414 0 .75.336.75.75z" id="bubbles-Combined-Shape" fill-rule="nonzero"/></symbol><symbol viewBox="0 0 24 24" id="business-big"><path d="M1.5 12H9v-1.25c0-.138-.112-.25-.25-.25h-7c-.138 0-.25.112-.25.25V12zm9 .75v10c0 .69-.56 1.25-1.25 1.25h-8C.56 24 0 23.44 0 22.75v-12C0 9.784.784 9 1.75 9h7c.966 0 1.75.784 1.75 1.75v2zm-9 .75v9H9v-9H1.5zM4.127 1.54C4.647.606 5.64-.003 6.75 0c1.658 0 3 1.343 3 3s-1.343 3-3 3h-3C2.508 6 1.5 4.992 1.5 3.75S2.508 1.5 3.77 1.5c.12.004.24.017.357.04zM8.25 3c0-.83-.67-1.5-1.5-1.5-.706 0-1.316.49-1.467 1.178-.116.524-.728.76-1.166.452-.114-.08-.25-.126-.367-.13-.414 0-.75.336-.75.75s.336.75.75.75h3c.83 0 1.5-.67 1.5-1.5zm5.5-3h8.5C23.216 0 24 .784 24 1.75v21c0 .69-.56 1.25-1.25 1.25h-9.5c-.69 0-1.25-.56-1.25-1.25v-21C12 .784 12.784 0 13.75 0zm8.75 22.5V1.75c0-.138-.112-.25-.25-.25h-8.5c-.138 0-.25.112-.25.25V22.5h9zM15 3.75c0-.414.336-.75.75-.75s.75.336.75.75v.75c0 .414-.336.75-.75.75S15 4.914 15 4.5v-.75zm4.5 0c0-.414.336-.75.75-.75s.75.336.75.75v.75c0 .414-.336.75-.75.75s-.75-.336-.75-.75v-.75zM15 7.5c0-.414.336-.75.75-.75s.75.336.75.75v.75c0 .414-.336.75-.75.75S15 8.664 15 8.25V7.5zm4.5 0c0-.414.336-.75.75-.75s.75.336.75.75v.75c0 .414-.336.75-.75.75s-.75-.336-.75-.75V7.5zM15 11.25c0-.414.336-.75.75-.75s.75.336.75.75V12c0 .414-.336.75-.75.75S15 12.414 15 12v-.75zm4.5 0c0-.414.336-.75.75-.75s.75.336.75.75V12c0 .414-.336.75-.75.75s-.75-.336-.75-.75v-.75zM15 15c0-.414.336-.75.75-.75s.75.336.75.75v.75c0 .414-.336.75-.75.75s-.75-.336-.75-.75V15zm4.5 0c0-.414.336-.75.75-.75s.75.336.75.75v.75c0 .414-.336.75-.75.75s-.75-.336-.75-.75V15zM15 18.75c0-.414.336-.75.75-.75s.75.336.75.75v.75c0 .414-.336.75-.75.75s-.75-.336-.75-.75v-.75zm4.5 0c0-.414.336-.75.75-.75s.75.336.75.75v.75c0 .414-.336.75-.75.75s-.75-.336-.75-.75v-.75zm-16.5-3c0-.414.336-.75.75-.75s.75.336.75.75v.75c0 .414-.336.75-.75.75S3 16.914 3 16.5v-.75zm3 0c0-.414.336-.75.75-.75s.75.336.75.75v.75c0 .414-.336.75-.75.75S6 16.914 6 16.5v-.75zM3 19.5c0-.414.336-.75.75-.75s.75.336.75.75v.75c0 .414-.336.75-.75.75S3 20.664 3 20.25v-.75zm3 0c0-.414.336-.75.75-.75s.75.336.75.75v.75c0 .414-.336.75-.75.75S6 20.664 6 20.25v-.75z" id="business-big-Shape" fill-rule="nonzero"/></symbol><symbol viewBox="0 0 24 24" id="business"><path d="M17.625 15.75c0 .62-.504 1.125-1.124 1.125-.62 0-1.125-.503-1.125-1.124 0-.62.503-1.125 1.124-1.125.62 0 1.125.504 1.125 1.125zm0-4.5c0 .62-.504 1.125-1.124 1.125-.62 0-1.125-.503-1.125-1.124 0-.62.503-1.125 1.124-1.125.62 0 1.125.504 1.125 1.125zm0-4.5c0 .62-.504 1.125-1.124 1.125-.62 0-1.125-.503-1.125-1.124 0-.62.503-1.125 1.124-1.125.62 0 1.125.504 1.125 1.125zm-4.5 9c0 .62-.504 1.125-1.124 1.125-.62 0-1.125-.503-1.125-1.124 0-.62.503-1.125 1.124-1.125.62 0 1.125.504 1.125 1.125zm0-4.5c0 .62-.504 1.125-1.124 1.125-.62 0-1.125-.503-1.125-1.124 0-.62.503-1.125 1.124-1.125.62 0 1.125.504 1.125 1.125zm0-4.5c0 .62-.504 1.125-1.124 1.125-.62 0-1.125-.503-1.125-1.124 0-.62.503-1.125 1.124-1.125.62 0 1.125.504 1.125 1.125zm-4.5 9c0 .62-.504 1.125-1.124 1.125-.62 0-1.125-.503-1.125-1.124 0-.62.503-1.125 1.124-1.125.62 0 1.125.504 1.125 1.125zm0-4.5c0 .62-.504 1.125-1.124 1.125-.62 0-1.125-.503-1.125-1.124 0-.62.503-1.125 1.124-1.125.62 0 1.125.504 1.125 1.125zm0-4.5c0 .62-.504 1.125-1.124 1.125-.62 0-1.125-.503-1.125-1.124 0-.62.503-1.125 1.124-1.125.62 0 1.125.504 1.125 1.125zM9 22.5V21c0-1.657 1.343-3 3-3s3 1.343 3 3v1.5h4.5v-18h-15v18H9zm12 0h2.25c.414 0 .75.336.75.75s-.336.75-.75.75H.75c-.414 0-.75-.336-.75-.75s.336-.75.75-.75H3V3.787c-.005-.096.01-.196.045-.294.012-.032.025-.062.04-.092L4.58.416C4.705.16 4.965 0 5.25 0h13.5c.284 0 .544.16.67.415L20.915 3.4c.016.03.03.06.04.093.037.098.05.198.046.294V22.5zM19.036 3l-.75-1.5H5.714L4.964 3h14.072zM13.5 22.5V21c0-.83-.67-1.5-1.5-1.5s-1.5.67-1.5 1.5v1.5h3z" id="business-Shape" fill-rule="nonzero"/></symbol><symbol viewBox="0 0 24 24" id="check"><path d="M6.886 11.325l4.536 4.037 10.48-13.318c.25-.33.72-.395 1.05-.145.33.25.396.72.146 1.05l-11 14.003c-.275.363-.807.4-1.128.077l-5.145-4.644c-.293-.293-.293-.768 0-1.06.293-.294.768-.294 1.06 0zm9.953-7.352c.347.225.446.69.22 1.037-.225.348-.69.447-1.037.22-.07-.044-.142-.09-.214-.133-.29-.176-.586-.336-.892-.48C13.703 4.05 12.373 3.75 11 3.75c-5.11 0-9.25 4.14-9.25 9.25s4.14 9.25 9.25 9.25 9.25-4.14 9.25-9.25c0-.542-.047-1.077-.138-1.603-.046-.265-.104-.527-.173-.785-.108-.4.13-.81.53-.918.4-.107.812.13.918.53.08.302.148.607.2.915.108.61.162 1.232.162 1.86 0 5.937-4.813 10.75-10.75 10.75S.25 18.937.25 13 5.063 2.25 11 2.25c1.594 0 3.14.348 4.555 1.01.355.166.7.352 1.035.556.084.05.167.103.25.157z" id="check-Shape" fill-rule="nonzero"/></symbol><symbol viewBox="0 0 24 24" id="clock"><path d="M11.99 2C6.47 2 2 6.48 2 12s4.47 10 9.99 10C17.52 22 22 17.52 22 12S17.52 2 11.99 2zM12 20c-4.42 0-8-3.58-8-8s3.58-8 8-8 8 3.58 8 8-3.58 8-8 8zm-.22-13h-.06c-.4 0-.72.32-.72.72v4.72c0 .35.18.68.49.86l4.15 2.49c.34.2.78.1.98-.24.21-.34.1-.79-.25-.99l-3.87-2.3V7.72c0-.4-.32-.72-.72-.72z" id="clock-Shape" fill-rule="evenodd"/></symbol><symbol viewBox="0 0 24 24" id="download"><path d="M11.25 16.19V6.75c0-.414.336-.75.75-.75s.75.336.75.75v9.44l2.47-2.47c.293-.293.767-.293 1.06 0 .293.293.293.767 0 1.06l-3.75 3.75c-.293.293-.767.293-1.06 0l-3.75-3.75c-.293-.293-.293-.767 0-1.06.293-.293.767-.293 1.06 0l2.47 2.47zM3.515 3.514c4.686-4.687 12.284-4.687 16.97 0 4.687 4.686 4.687 12.284 0 16.97-4.686 4.687-12.284 4.687-16.97 0-4.687-4.686-4.687-12.284 0-16.97zm15.91 15.91c4.1-4.1 4.1-10.75 0-14.85s-10.75-4.1-14.85 0-4.1 10.75 0 14.85 10.75 4.1 14.85 0z" id="download-Shape" fill-rule="nonzero"/></symbol><symbol viewBox="0 0 24 24" id="edit"><path d="M14.06 9.02l.92.92L5.92 19H5v-.92l9.06-9.06zM17.66 3c-.25 0-.51.1-.7.29l-1.83 1.83 3.75 3.75 1.83-1.83c.39-.39.39-1.02 0-1.41l-2.34-2.34c-.2-.2-.45-.29-.71-.29zm-3.6 3.19L3 17.25V21h3.75L17.81 9.94l-3.75-3.75z" id="edit-Shape" fill-rule="evenodd"/></symbol><symbol viewBox="0 0 24 24" id="gear"><path d="M9.703 9.583c1.27-1.27 3.328-1.27 4.598 0s1.27 3.327 0 4.596c-1.27 1.268-3.327 1.268-4.597 0-1.27-1.27-1.27-3.328 0-4.597zm3.183 3.182c.488-.49.488-1.28 0-1.768s-1.28-.488-1.768 0c-.49.488-.49 1.28 0 1.768.488.488 1.28.488 1.768 0zm2.65-7.693c.074.247.328.394.576.337l2.217-.515c1.62-.365 3.23.653 3.596 2.273.22.97-.056 1.985-.732 2.71l-1.547 1.668c-.178.192-.178.49 0 .682l1.55 1.67c1.125 1.222 1.047 3.125-.176 4.25-.724.668-1.73.938-2.7.722l-2.21-.51c-.25-.06-.503.087-.577.336l-.66 2.175c-.477 1.585-2.15 2.483-3.735 2.006-.963-.29-1.716-1.043-2.005-2.002l-.664-2.18c-.075-.248-.33-.395-.58-.337l-2.21.512c-1.62.37-3.233-.642-3.604-2.26-.223-.974.052-1.994.73-2.72l1.547-1.67c.18-.19.18-.488 0-.68L2.807 9.873c-1.133-1.215-1.065-3.12.15-4.252.728-.677 1.744-.952 2.72-.732l2.2.51c.256.058.512-.09.587-.335l.662-2.175C9.6 1.305 11.27.403 12.857.876c.97.29 1.728 1.05 2.016 2.02l.663 2.176zm-2.578-1.6l-.002-.007c-.096-.323-.348-.576-.672-.673-.527-.157-1.082.143-1.24.675l-.666 2.184c-.384 1.247-1.663 1.988-2.944 1.7l-2.202-.51c-.325-.073-.666.02-.91.246-.407.38-.43 1.018-.048 1.427l1.544 1.665c.893.96.893 2.446 0 3.404l-1.546 1.67c-.228.243-.32.585-.246.91.124.543.665.882 1.205.758l2.21-.512c1.278-.294 2.566.452 2.944 1.705l.664 2.18c.096.32.347.572.667.668.527.16 1.083-.14 1.243-.668l.66-2.174c.377-1.256 1.664-2.003 2.943-1.708l2.203.51c.323.07.66-.02.903-.243.41-.377.436-1.015.06-1.422l-1.544-1.666c-.892-.96-.892-2.446 0-3.405l1.546-1.668c.228-.244.32-.584.247-.91-.123-.542-.663-.884-1.2-.763l-2.214.514c-1.275.292-2.56-.454-2.94-1.705l-.662-2.18z" id="gear-Shape" fill-rule="nonzero"/></symbol><symbol viewBox="0 0 24 24" id="gender"><path d="M7.005 19v-1.405c-.98-.164-1.93-.573-2.76-1.238-2.584-2.074-3-5.85-.925-8.435.364-.453.79-.85 1.27-1.182.454-.314 1.077-.2 1.39.255.315.454.2 1.077-.254 1.39-.318.22-.604.486-.846.79-1.382 1.722-1.106 4.24.617 5.622 1.724 1.382 4.24 1.106 5.623-.617 1.332-1.66 1.13-4.07-.45-5.482-.412-.368-.447-1-.08-1.412.37-.412 1-.447 1.413-.08 2.37 2.12 2.675 5.735.678 8.225-.957 1.194-2.277 1.925-3.675 2.162V19H10.5c.552 0 1 .448 1 1s-.448 1-1 1H9.005v2c0 .552-.448 1-1 1-.553 0-1-.448-1-1v-2H5.5c-.552 0-1-.448-1-1s.448-1 1-1h1.505zm12.5-15.586l-1.522 1.522c1.828 2.5 1.455 6.007-.903 8.063-.416.36-1.048.318-1.41-.098-.364-.417-.32-1.048.096-1.41 1.62-1.413 1.835-3.853.486-5.527-1.386-1.72-3.905-1.99-5.625-.604-1.72 1.388-1.99 3.906-.603 5.626.346.43.28 1.06-.15 1.406-.43.347-1.06.28-1.408-.15-2.08-2.58-1.674-6.358.906-8.438 2.12-1.71 5.048-1.74 7.18-.265L18.09 2h-1.335c-.553 0-1-.448-1-1s.447-1 1-1h3.75c.552 0 1 .448 1 1v3.75c0 .552-.448 1-1 1-.553 0-1-.448-1-1V3.414z" id="gender-Shape" fill-rule="nonzero"/></symbol><symbol viewBox="0 0 24 24" id="help"><path d="M12 6.75C10.757 6.75 9.75 7.76 9.75 9c0 1-1.5 1-1.5 0 0-2.07 1.68-3.75 3.75-3.75 2.07 0 3.75 1.68 3.75 3.75 0 1.59-1 3.006-2.5 3.536-.3.106-.5.39-.5.708v1.006c0 .414-.335.75-.75.75-.414 0-.75-.336-.75-.75v-1.006c0-.954.6-1.804 1.5-2.122.9-.318 1.5-1.168 1.5-2.12 0-1.244-1.007-2.25-2.25-2.25zm-1.125 10.875c0-.62.503-1.125 1.124-1.125.62 0 1.125.504 1.125 1.125 0 .62-.504 1.125-1.125 1.125-.62 0-1.125-.504-1.125-1.125zM12 24C5.373 24 0 18.627 0 12S5.373 0 12 0s12 5.373 12 12-5.373 12-12 12zm0-1.5c5.8 0 10.5-4.7 10.5-10.5S17.8 1.5 12 1.5 1.5 6.2 1.5 12 6.2 22.5 12 22.5z" id="help-Shape" fill-rule="nonzero"/></symbol><symbol viewBox="0 0 24 24" id="illness"><path d="M7.5 16.46v.04c0 3.314 2.686 6 6 6s6-2.686 6-6v-2.825c-.697-.142-1.36-.483-1.902-1.023-1.464-1.465-1.464-3.84 0-5.304 1.465-1.464 3.84-1.464 5.304 0 1.464 1.465 1.464 3.84 0 5.304-.54.54-1.205.88-1.902 1.023V16.5c0 4.142-3.358 7.5-7.5 7.5C9.358 24 6 20.642 6 16.5v-.04c-3.375-.374-6-3.236-6-6.71v-6C0 2.507 1.007 1.5 2.25 1.5H3V.75c0-.414.336-.75.75-.75s.75.336.75.75V4.5c0 .414-.336.75-.75.75S3 4.914 3 4.5V3h-.75c-.414 0-.75.336-.75.75v6c0 2.9 2.35 5.25 5.25 5.25S12 12.65 12 9.75v-6c0-.414-.336-.75-.75-.75h-.75v1.5c0 .414-.336.75-.75.75S9 4.914 9 4.5V.75c0-.414.336-.75.75-.75s.75.336.75.75v.75h.75c1.243 0 2.25 1.007 2.25 2.25v6c0 3.474-2.625 6.336-6 6.71zm14.34-4.87c.88-.878.88-2.302 0-3.18-.878-.88-2.302-.88-3.18 0-.88.878-.88 2.302 0 3.18.878.88 2.302.88 3.18 0z" id="illness-Shape" fill-rule="nonzero"/></symbol><symbol viewBox="0 0 24 24" id="inbox"><path d="M1.96 13H9c.414 0 .75.336.75.75C9.75 14.993 10.757 16 12 16s2.25-1.007 2.25-2.25c0-.414.336-.75.75-.75h7.052l-1.94-7.628c-.058-.22-.257-.372-.484-.372H4.398c-.226 0-.424.153-.482.373L1.96 13zm.506-8.01C2.696 4.11 3.49 3.5 4.4 3.5h15.228c.908 0 1.702.612 1.934 1.49l2.35 9.006c.057.157.088.327.088.504V19c0 .828-.672 1.5-1.5 1.5h-21C.672 20.5 0 19.828 0 19v-4.5c0-.163.026-.32.074-.467L2.466 4.99zM22.5 14.5h-6.825c-.347 1.712-1.86 3-3.675 3-1.814 0-3.328-1.288-3.675-3H1.5V19h21v-4.5z" id="inbox-Shape" fill-rule="nonzero"/></symbol><symbol viewBox="0 0 24 24" id="job_assignement"><path d="M8.876 4.125c.624 0 1.244-.095 1.838-.282-.16-.496-.435-.96-.828-1.354-1.318-1.32-3.454-1.32-4.772 0-.063.06-.123.126-.18.192 1.097.928 2.492 1.443 3.942 1.443zm0 1.5c-1.692 0-3.324-.563-4.647-1.585-.284 1.116.01 2.348.884 3.22 1.318 1.32 3.454 1.32 4.772 0 .534-.532.85-1.2.953-1.892-.64.17-1.3.258-1.965.257zm2.07-4.197c1.905 1.904 1.905 4.99 0 6.894-1.903 1.904-4.99 1.904-6.893 0-1.904-1.904-1.904-4.99 0-6.894s4.99-1.904 6.894 0zM14.25 13.5v-.75c0-1.243 1.007-2.25 2.25-2.25H18c1.243 0 2.25 1.007 2.25 2.25v.75h2.25c.828 0 1.5.672 1.5 1.5v7.5c0 .828-.672 1.5-1.5 1.5H12c-.828 0-1.5-.672-1.5-1.5V15c0-.828.672-1.5 1.5-1.5h2.25zM18 18v.75c0 .414-.336.75-.75.75s-.75-.336-.75-.75V18H12v4.5h10.5V18H18zm-6-1.5h10.5V15H12v1.5zm3.75-3h3v-.75c0-.414-.336-.75-.75-.75h-1.5c-.414 0-.75.336-.75.75v.75zM1.5 17.25c0 .413-.336.75-.75.748-.415 0-.75-.336-.75-.75.003-4.144 3.364-7.5 7.508-7.498 1.01 0 2.008.205 2.936.6.38.163.558.603.396.984-.162.38-.603.56-.984.396-.743-.316-1.542-.48-2.35-.48-3.314-.002-6.004 2.683-6.006 6z" id="job_assignement-Shape" fill-rule="nonzero"/></symbol><symbol viewBox="0 0 24 24" id="key_esc"><g id="key_esc-Icons" fill-rule="nonzero"><path d="M9.592 12.446c0 .138-.02.365-.03.463H6.28c.097.552.56.838 1.152.838.395-.01.8-.158 1.125-.523l.887.907c-.404.503-1.075.868-2.17.868-1.46 0-2.524-1.006-2.524-2.505C4.75 11.035 5.776 10 7.235 10c1.36 0 2.357 1.016 2.357 2.446zm-2.377-1.223c-.473 0-.828.286-.927.77h1.805c-.098-.474-.414-.77-.878-.77zM12.307 15c-.76 0-1.43-.237-1.963-.71l.72-.996c.404.365.82.542 1.262.542.306 0 .464-.108.464-.286 0-.157-.148-.256-.75-.443-.808-.247-1.518-.642-1.518-1.57 0-.975.8-1.537 1.804-1.537.73 0 1.263.187 1.825.602l-.73 1.075c-.334-.336-.748-.503-1.074-.503-.177 0-.384.078-.384.266 0 .148.177.256.66.424 1.065.365 1.647.64 1.647 1.588 0 .897-.642 1.548-1.963 1.548zm5.347 0c-1.46 0-2.524-1.006-2.524-2.485 0-1.51 1.025-2.515 2.564-2.515.74 0 1.548.237 2.08.838l-.995.986c-.228-.295-.603-.453-.958-.453-.67 0-1.134.454-1.134 1.135 0 .68.473 1.124 1.144 1.124.434 0 .75-.16 1.025-.454l.947.986c-.434.503-1.144.838-2.15.838z" id="key_esc-esc"/><path d="M3 6h18c1.657 0 3 1.343 3 3v7c0 1.657-1.343 3-3 3H3c-1.657 0-3-1.343-3-3V9c0-1.657 1.343-3 3-3zm0 2c-.552 0-1 .448-1 1v7c0 .552.448 1 1 1h18c.552 0 1-.448 1-1V9c0-.552-.448-1-1-1H3z" id="key_esc-Rectangle"/></g></symbol><symbol viewBox="0 0 24 24" id="key_return"><path id="key_return-🔹-Icon-Color" d="M19 7v4H5.83l3.58-3.59L8 6l-6 6 6 6 1.41-1.41L5.83 13H21V7z" fill-rule="evenodd"/></symbol><symbol viewBox="0 0 24 24" id="key_up_down"><g id="key_up_down-Icons" fill-rule="evenodd"><path d="M18.042 14.01h2.3c.44 0 .67.54.35.85l-3.29 3.28c-.2.19-.51.19-.71 0l-3.29-3.28c-.32-.31-.1-.85.35-.85h2.29V6.5c0-.55.45-1 1-1s1 .45 1 1v7.51zM8.042 9.773v7.51c0 .55-.45 1-1 1s-1-.45-1-1v-7.51h-2.29c-.45 0-.67-.54-.35-.85l3.29-3.28c.2-.19.51-.19.71 0l3.29 3.28c.32.31.09.85-.35.85h-2.3z" id="key_up_down-Path"/></g></symbol><symbol viewBox="0 0 24 24" id="legal-proof"><path d="M1.5 3.93c-.006-.88.505-1.684 1.318-2.055C5.715.61 8.846-.028 11.993 0c3.16-.028 6.292.61 9.2 1.88.802.366 1.313 1.17 1.307 2.044v7.614c0 5.237-3.225 9.933-8.113 11.813l-1.04.4c-.867.334-1.827.334-2.693 0l-1.04-.4C4.723 21.47 1.5 16.776 1.5 11.54v-7.61zm8.65 18.02l1.042.4c.52.2 1.096.2 1.616 0l1.04-.4C18.16 20.295 21 16.155 21 11.54v-7.62c.002-.29-.166-.553-.418-.67-2.703-1.18-5.625-1.774-8.59-1.747-2.948-.026-5.87.57-8.562 1.744-.264.12-.432.385-.43.68v7.614c0 4.616 2.843 8.756 7.15 10.413zm6.308-10.806c.06-.41.44-.695.85-.635.41.058.694.438.634.848-.473 3.28-3.516 5.555-6.795 5.08-3.28-.472-5.555-3.514-5.082-6.794C6.49 6.694 9.02 4.504 12 4.5c.414 0 .75.336.75.75 0 .415-.335.75-.75.75-2.235.003-4.13 1.645-4.45 3.858-.355 2.46 1.35 4.742 3.81 5.097 2.46.355 4.743-1.35 5.098-3.81zm-5.89-1.83L12 10.752l4.72-4.72c.293-.292.767-.292 1.06 0 .293.294.293.768 0 1.06l-4.786 4.788c-.55.548-1.438.548-1.99-.002l-1.5-1.505c-.292-.293-.29-.768.003-1.06.293-.293.768-.292 1.06 0z" id="legal-proof-Shape" fill-rule="nonzero"/></symbol><symbol viewBox="0 0 24 24" id="magnifier"><path d="M17.263 16.203l6.517 6.517c.293.293.293.767 0 1.06-.293.293-.767.293-1.06 0l-6.518-6.517c-2.693 2.305-6.546 3.067-10.06 1.65C1.114 16.882-1.316 11.165.71 6.14 2.743 1.114 8.46-1.316 13.486.712c5.026 2.028 7.456 7.746 5.428 12.772-.41 1.018-.973 1.93-1.65 2.72zm-1.52-.562c.745-.756 1.357-1.67 1.78-2.717 1.717-4.258-.342-9.102-4.6-10.82-4.257-1.718-9.1.34-10.82 4.598-1.717 4.26.342 9.103 4.6 10.82 3.163 1.278 6.65.47 8.94-1.778.014-.018.03-.035.047-.052l.053-.05z" id="magnifier-Shape" fill-rule="nonzero"/></symbol><symbol viewBox="0 0 24 24" id="manager"><path d="M17.98 5.5c.14 1.698-.44 3.444-1.737 4.743-2.344 2.343-6.143 2.343-8.486 0-2.343-2.344-2.343-6.142 0-8.486 2.343-2.343 6.142-2.343 8.486 0 .655.655 1.127 1.424 1.415 2.243H21.5c.414 0 .75.336.75.75s-.336.75-.75.75h-3.52zM16.03 4c-.21-.427-.495-.827-.85-1.182-1.757-1.757-4.607-1.757-6.364 0-.355.355-.64.755-.85 1.182h8.064zm.44 1.5H7.528c-.146 1.312.284 2.676 1.29 3.682 1.757 1.757 4.607 1.757 6.364 0 1.006-1.006 1.436-2.37 1.29-3.682zm-3.637 13.923l-.085 3.844c-.01.414-.353.742-.767.733-.414-.01-.742-.353-.733-.767l.084-3.782c-2.026-.3-3.612-1.95-3.813-4.008C4.82 16.995 3 19.91 3 23.25c0 .414-.336.75-.75.75s-.75-.336-.75-.75c0-5.8 4.7-10.5 10.5-10.5s10.5 4.7 10.5 10.5c0 .414-.336.75-.75.75s-.75-.336-.75-.75c0-3.34-1.82-6.255-4.52-7.808-.196 2-1.7 3.616-3.645 3.98zM15 14.763c-.938-.333-1.948-.513-3-.513s-2.062.18-3 .512V15c0 1.657 1.343 3 3 3s3-1.343 3-3v-.238z" id="manager-Shape" fill-rule="nonzero"/></symbol><symbol viewBox="0 0 24 24" id="medical"><path d="M3.515 3.515c4.686-4.687 12.284-4.687 16.97 0 4.687 4.686 4.687 12.284 0 16.97-4.686 4.687-12.284 4.687-16.97 0-4.687-4.686-4.687-12.284 0-16.97zm15.91 15.91c4.1-4.1 4.1-10.75 0-14.85s-10.75-4.1-14.85 0-4.1 10.75 0 14.85 10.75 4.1 14.85 0zM15 6v3h3c.828 0 1.5.672 1.5 1.5v3c0 .828-.672 1.5-1.5 1.5h-3v3c0 .828-.672 1.5-1.5 1.5h-3c-.828 0-1.5-.672-1.5-1.5v-3H6c-.828 0-1.5-.672-1.5-1.5v-3C4.5 9.672 5.172 9 6 9h3V6c0-.828.672-1.5 1.5-1.5h3c.828 0 1.5.672 1.5 1.5zm3 7.5v-3h-3.75c-.414 0-.75-.336-.75-.75V6h-3v3.75c0 .414-.336.75-.75.75H6v3h3.75c.414 0 .75.336.75.75V18h3v-3.75c0-.414.336-.75.75-.75H18z" id="medical-Shape" fill-rule="nonzero"/></symbol><symbol viewBox="0 0 24 24" id="orgchart"><path d="M16.75 17.5h5.5c.966 0 1.75.784 1.75 1.75v3c0 .966-.784 1.75-1.75 1.75h-12c-.966 0-1.75-.784-1.75-1.75v-.552H7.25c-1.38 0-2.5-1.12-2.5-2.5V6.5h-3C.784 6.5 0 5.716 0 4.75v-3C0 .784.784 0 1.75 0h12c.966 0 1.75.784 1.75 1.75v3c0 .966-.784 1.75-1.75 1.75h-7v4.75c0 .276.224.5.5.5H8.5v-.5c0-.966.784-1.75 1.75-1.75h12c.966 0 1.75.784 1.75 1.75v3c0 .966-.784 1.75-1.75 1.75h-5.5v1.5zm-2 0V16h-4.5c-.966 0-1.75-.784-1.75-1.75v-.5H7.25c-.17 0-.338-.017-.5-.05v5.498c0 .276.224.5.5.5H8.5v-.448c0-.966.784-1.75 1.75-1.75h4.5zM22 22v-2.5H10.5V22H22zm0-8v-2.5H10.5V14H22zm-8.5-9.5V2H2v2.5h11.5z" id="orgchart-Shape" fill-rule="nonzero"/></symbol><symbol viewBox="0 0 24 24" id="pencil"><path d="M7.66 20.412L18.587 9.487l-4.073-4.073-10.93 10.928 4.078 4.07zm-1.456.665L2.922 17.8l-1.13 4.41 4.412-1.133zM1.78 16.21c.027-.146.096-.286.21-.4.018-.02.04-.037.06-.054L13.925 3.88c.016-.02.034-.04.054-.06.02-.02.04-.038.06-.054l2.445-2.445.03-.03C18.224-.425 21-.43 22.72 1.28l.03.03c1.694 1.733 1.662 4.512-.065 6.2l-2.45 2.45c-.018.02-.035.04-.055.06-.02.02-.04.037-.06.054L8.186 22.01c-.095.094-.214.162-.344.195l-6.904 1.77c-.552.143-1.054-.36-.912-.91L1.78 16.21zm17.867-7.784l1.034-1.034L16.61 3.32l-1.034 1.033 4.073 4.073zM21.74 6.33c1.032-1.122 1.016-2.868-.062-3.97l-.02-.02c-1.098-1.093-2.857-1.12-3.988-.08l4.07 4.07z" id="pencil-Shape" fill-rule="nonzero"/></symbol><symbol viewBox="0 0 24 24" id="person"><path d="M16.48 15.442C16.256 17.72 14.335 19.5 12 19.5c-2.336 0-4.257-1.78-4.48-4.058C4.82 16.995 3 19.91 3 23.25c0 .414-.336.75-.75.75s-.75-.336-.75-.75c0-5.8 4.7-10.5 10.5-10.5s10.5 4.7 10.5 10.5c0 .414-.336.75-.75.75s-.75-.336-.75-.75c0-3.34-1.82-6.255-4.52-7.808zm-1.48-.68c-.938-.332-1.948-.512-3-.512s-2.062.18-3 .512V15c0 1.657 1.343 3 3 3s3-1.343 3-3v-.238zm1.343-9.945c-.2-.732-.586-1.424-1.16-2-1.758-1.756-4.608-1.756-6.365 0-.132.133-.254.272-.367.415 1.455 1.296 3.34 2.018 5.3 2.018.884 0 1.76-.146 2.593-.433zm.144 1.53c-.886.267-1.808.403-2.737.403-2.21 0-4.336-.772-6.023-2.163-.516 1.562-.152 3.352 1.09 4.595 1.758 1.757 4.608 1.757 6.365 0 .79-.79 1.225-1.802 1.305-2.836zm-.244-4.59c2.343 2.344 2.343 6.142 0 8.486-2.344 2.343-6.143 2.343-8.486 0-2.343-2.344-2.343-6.142 0-8.486 2.343-2.343 6.142-2.343 8.486 0z" id="person-Shape" fill-rule="nonzero"/></symbol><symbol viewBox="0 0 24 24" id="persons"><path d="M10.875 7.92c-.605.164-1.23.25-1.86.248-1.69 0-3.314-.608-4.583-1.7-.572 1.245-.345 2.767.682 3.793 1.318 1.32 3.454 1.32 4.772 0 .648-.646.978-1.492.99-2.34zm-.315-1.47c-.162-.35-.387-.674-.674-.96-1.242-1.244-3.212-1.315-4.538-.215 1.007.894 2.31 1.393 3.668 1.393.524 0 1.044-.074 1.544-.22zm6.005 7.634c-.642-.188-1.248-.535-1.755-1.042-1.61-1.61-1.61-4.223 0-5.834 1.61-1.61 4.223-1.61 5.834 0 1.61 1.61 1.61 4.223 0 5.834-.508.507-1.114.855-1.758 1.043 2.095.396 3.936 1.85 4.727 3.998.256.694.387 1.427.387 2.167 0 .414-.335.75-.75.75-.414 0-.75-.335-.75-.75 0-.562-.1-1.12-.295-1.65-.912-2.474-3.658-3.74-6.133-2.828-.388.143-.82-.056-.963-.445-.144-.388.055-.82.444-.963.334-.123.672-.216 1.01-.28zM4.053 4.428c1.904-1.904 4.99-1.904 6.894 0s1.904 4.99 0 6.894-4.99 1.904-6.894 0-1.904-4.99 0-6.894zM1.5 20.25c0 .414-.336.75-.75.75S0 20.664 0 20.25c0-4.142 3.358-7.5 7.5-7.5 4.142 0 7.5 3.358 7.5 7.5 0 .414-.336.75-.75.75s-.75-.336-.75-.75c0-3.314-2.686-6-6-6s-6 2.686-6 6zm18.083-8.27c1.025-1.024 1.025-2.686 0-3.71-1.025-1.026-2.687-1.026-3.712 0-1.024 1.024-1.024 2.686 0 3.71 1.026 1.026 2.688 1.026 3.713 0z" id="persons-Shape" fill-rule="nonzero"/></symbol><symbol viewBox="0 0 20 24" id="prefs"><path d="M15 5v2c0 .552-.448 1-1 1s-1-.448-1-1V1c0-.552.448-1 1-1s1 .448 1 1v2h4c.552 0 1 .448 1 1s-.448 1-1 1h-4zM5 13H1c-.552 0-1-.448-1-1s.448-1 1-1h4V9c0-.552.448-1 1-1s1 .448 1 1v6c0 .552-.448 1-1 1s-1-.448-1-1v-2zm8 8v2c0 .552-.448 1-1 1s-1-.448-1-1v-6c0-.552.448-1 1-1s1 .448 1 1v2h6c.552 0 1 .448 1 1s-.448 1-1 1h-6zm-5-2c.552 0 1 .448 1 1s-.448 1-1 1H1c-.552 0-1-.448-1-1s.448-1 1-1h7zm11-8c.552 0 1 .448 1 1s-.448 1-1 1h-9c-.552 0-1-.448-1-1s.448-1 1-1h9zm-9-8c.552 0 1 .448 1 1s-.448 1-1 1H1c-.552 0-1-.448-1-1s.448-1 1-1h9z" id="prefs-Combined-Shape" fill-rule="nonzero"/></symbol><symbol viewBox="0 0 24 24" id="profile"><path d="M9.448 6.897c1.59 1.345 3.765 1.78 5.75 1.155-.157-.492-.432-.954-.822-1.345-1.312-1.312-3.44-1.312-4.752 0-.06.062-.12.125-.176.19zm5.876 2.68c-2.277.608-4.715.118-6.58-1.322-.282 1.11.012 2.335.88 3.204 1.312 1.31 3.44 1.31 4.752 0 .53-.53.846-1.194.948-1.882zM3.75 24c-1.243 0-2.25-1.007-2.25-2.25V2.25C1.5 1.007 2.507 0 3.75 0h16.5c1.243 0 2.25 1.007 2.25 2.25v19.5c0 1.243-1.007 2.25-2.25 2.25H3.75zm0-1.5h16.5c.414 0 .75-.336.75-.75V2.25c0-.414-.336-.75-.75-.75H3.75c-.414 0-.75.336-.75.75v19.5c0 .414.336.75.75.75zM8.563 5.646c1.898-1.897 4.976-1.897 6.874 0 1.897 1.898 1.897 4.976 0 6.874-1.898 1.897-4.976 1.897-6.874 0-1.897-1.898-1.897-4.976 0-6.874zm10.85 13.03c.194.368.053.82-.313 1.014-.367.194-.82.053-1.013-.313-1.772-3.362-5.933-4.65-9.295-2.88-1.228.648-2.23 1.652-2.88 2.88-.192.366-.645.507-1.012.313-.366-.193-.507-.646-.313-1.013.788-1.496 2.01-2.718 3.506-3.506 4.094-2.157 9.163-.587 11.32 3.507z" id="profile-Shape" fill-rule="nonzero"/></symbol><symbol viewBox="0 0 24 24" id="redo"><path d="M18.208 10.6c-1.85-1.61-4.25-2.6-6.9-2.6-4.16 0-7.74 2.42-9.44 5.93-.32.67.04 1.47.75 1.71.59.2 1.23-.08 1.5-.64 1.3-2.66 4.03-4.5 7.19-4.5 1.95 0 3.73.72 5.12 1.88l-1.91 1.91c-.63.63-.19 1.71.7 1.71h5.59c.55 0 1-.45 1-1V9.41c0-.89-1.08-1.34-1.71-.71l-1.89 1.9z" id="redo-Path" fill-rule="evenodd"/></symbol><symbol viewBox="0 0 24 24" id="reminder"><path d="M1.918 18h15.517c-.306-.632-.53-1.302-.665-1.995-.08-.407.187-.8.593-.88.407-.078.8.187.88.594.18.934.563 1.82 1.118 2.593.357.496.002 1.187-.61 1.187h-18c-.592 0-.95-.657-.63-1.156.028-.042.092-.16.182-.36.16-.354.324-.8.478-1.343.45-1.584.72-3.618.72-6.14 0-4.304 3.296-7.837 7.5-8.216V.75c0-.414.337-.75.75-.75.415 0 .75.336.75.75V3c0 .414-.335.75-.75.75C6.024 3.75 3 6.772 3 10.5c0 2.658-.29 4.83-.777 6.55-.102.36-.205.675-.305.95zm10.56-16.023c2.636-2.636 6.91-2.636 9.546 0 2.636 2.636 2.636 6.91 0 9.546-2.636 2.636-6.91 2.636-9.546 0-2.636-2.636-2.636-6.91 0-9.546zm8.485 8.485c2.05-2.05 2.05-5.374 0-7.424-2.05-2.05-5.374-2.05-7.424 0-2.05 2.05-2.05 5.374 0 7.424 2.05 2.05 5.373 2.05 7.423 0zM18 7.5h1.5c.415 0 .75.336.75.75s-.335.75-.75.75h-2.25c-.413 0-.75-.336-.75-.75V4.5c0-.414.337-.75.75-.75.415 0 .75.336.75.75v3zM7.03 21.96c-.117-.396.11-.813.508-.93.397-.116.814.11.93.51.21.707.952 1.113 1.66.905.437-.128.778-.47.907-.906.116-.4.533-.626.93-.51.398.117.626.534.51.93-.273.928-.998 1.652-1.924 1.924-1.503.442-3.08-.42-3.52-1.923z" id="reminder-Shape" fill-rule="nonzero"/></symbol><symbol viewBox="0 0 24 24" id="remove"><path d="M7 11v2h10v-2H7zm5-9C6.48 2 2 6.48 2 12s4.48 10 10 10 10-4.48 10-10S17.52 2 12 2zm0 18c-4.41 0-8-3.59-8-8s3.59-8 8-8 8 3.59 8 8-3.59 8-8 8z" id="remove-Shape" fill-rule="evenodd"/></symbol><symbol viewBox="0 0 24 24" id="role-g"><path d="M2 11.458V4.433c-.005-.932.537-1.78 1.4-2.177C6.116 1.072 9.05.473 11.99.5c2.962-.027 5.895.572 8.625 1.763.85.39 1.39 1.24 1.385 2.167v7.028c0 4.96-3.055 9.41-7.686 11.192l-.96.37c-.872.334-1.836.334-2.707 0l-.96-.37C5.054 20.867 2 16.42 2 11.457zm2-7.035V11.458c0 4.134 2.546 7.84 6.404 9.325l.96.37c.41.156.862.156 1.27 0l.962-.37C17.454 19.3 20 15.593 20 11.458V4.423c0-.147-.084-.28-.2-.334-2.457-1.073-5.11-1.614-7.81-1.59-2.68-.024-5.333.517-7.772 1.582-.134.06-.22.194-.218.34zm3.05 11.13c.815-.365 1.843-.73 2.982-1.152.65-.24.543-1.936.256-2.253-.927-1.004-1.38-2.355-1.248-3.714C9.04 6.313 10.425 5 12.08 5c1.658 0 3.042 1.312 3.042 3.433.133 1.36-.32 2.71-1.247 3.714-.288.317-.395 2.013.255 2.254 1.11.41 2.115.768 2.92 1.124-.915 1.4-2.258 2.515-3.89 3.143l-.87.334c-.16.063-.338.063-.5 0l-.87-.334c-1.62-.623-2.956-1.728-3.87-3.113z" id="role-g-Shape" fill-rule="nonzero"/></symbol><symbol viewBox="0 0 24 24" id="role"><path d="M12.303 4.767c2.175.21 3.776 2.124 3.607 4.294.136 1.6-.406 3.186-1.493 4.365.02-.02-.05.336-.038.666.01.315.08.492.007.466l.792.293c.31.113.536.197.75.28.552.206.982.377 1.366.54.38.165.557.606.393.986-.164.38-.605.557-.986.394-.36-.154-.77-.317-1.302-.518l-.743-.277c-.39-.143-.606-.223-.793-.293-1.17-.432-1.26-2.778-.557-3.55.817-.886 1.217-2.078 1.1-3.277V8.99c.133-1.375-.875-2.597-2.25-2.73-.06-.005-.12-.01-.14-.01-1.383.034-2.475 1.18-2.44 2.563 0 .06.004.118.01.177v.145c-.117 1.2.283 2.39 1.103 3.28.7.77.614 3.116-.56 3.547.114-.04-1.21.447-1.537.57-.534.2-.943.364-1.3.517-.38.163-.82-.012-.985-.392-.163-.38.012-.822.393-.986.38-.165.81-.335 1.364-.543.318-.12 1.544-.574 1.555-.578l-.01.003c-.068.024 0-.15.01-.463.013-.33-.057-.687-.035-.663-1.09-1.184-1.633-2.77-1.497-4.37-.005-.07-.01-.14-.01-.21-.055-2.21 1.692-4.045 3.94-4.1.093.003.188.008.283.017zM1.5 11.537v-7.61c-.005-.88.506-1.68 1.318-2.052C5.715.61 8.846-.028 11.993 0c3.16-.028 6.292.61 9.2 1.88.802.366 1.313 1.17 1.307 2.044v7.614c0 5.237-3.225 9.933-8.113 11.813l-1.04.4c-.867.334-1.827.334-2.693 0l-1.04-.4C4.723 21.47 1.5 16.776 1.5 11.54zm1.93-8.293c-.264.12-.432.385-.43.68v7.614c0 4.616 2.843 8.756 7.15 10.413l1.042.4c.52.2 1.096.2 1.616 0l1.04-.4C18.16 20.295 21 16.155 21 11.54v-7.62c.002-.29-.166-.553-.418-.67-2.703-1.18-5.625-1.774-8.59-1.747-2.948-.026-5.87.57-8.562 1.744z" id="role-Shape" fill-rule="nonzero"/></symbol><symbol viewBox="0 0 25 24" id="salary"><g id="salary-Icons" fill-rule="nonzero"><path d="M14 1.5H4.25c-.414 0-.75.336-.75.75v19.5c0 .414.336.75.75.75h16.5c.414 0 .75-.336.75-.75V9.5h-5.25C15.008 9.5 14 8.492 14 7.25V1.5zm1.5.31v5.44c0 .414.336.75.75.75h5.24c-.025-.154-.098-.297-.21-.41L15.5 1.81zM23 21.75c0 1.242-1.008 2.25-2.25 2.25H4.25C3.008 24 2 22.992 2 21.75V2.25C2 1.008 3.008 0 4.25 0h10.63c.596 0 1.168.237 1.59.66l5.87 5.87c.423.422.66.994.66 1.59v13.63zm-9.5-5.5c-.414 0-.75-.336-.75-.75s.336-.75.75-.75h5c.414 0 .75.336.75.75s-.336.75-.75.75h-5zm-6.25 3.5c-.414 0-.75-.336-.75-.75s.336-.75.75-.75H18.5c.414 0 .75.336.75.75s-.336.75-.75.75H7.25zm1.308-7.53c.764 0 1.313-.413 1.313-.798 0-.386-.545-.796-1.308-.796-1.513 0-2.812-.975-2.812-2.298S7.048 6.03 8.532 6.032c.97-.04 1.898.398 2.485 1.17.25.33.186.8-.143 1.05-.33.252-.8.187-1.05-.142-.292-.383-.75-.6-1.262-.58-.764 0-1.312.412-1.312.798 0 .386.55.798 1.312.798 1.513 0 2.81.973 2.81 2.296 0 1.102-.902 1.96-2.06 2.218V14c0 .414-.336.75-.75.75s-.75-.336-.75-.75v-.353c-.673-.152-1.28-.537-1.708-1.098-.252-.33-.188-.8.14-1.052.33-.252.8-.188 1.052.14.286.376.73.59 1.227.582h.035z" id="salary-Shape"/><path d="M8.062 5.5v1.03c0 .415.336.75.75.75s.75-.335.75-.75V5.5c0-.414-.336-.75-.75-.75s-.75.336-.75.75z" id="salary-Path"/></g></symbol><symbol viewBox="0 0 24 24" id="search-list"><path d="M10.757 17.243c-2.343-2.344-2.343-6.143 0-8.486 2.344-2.343 6.143-2.343 8.486 0 2.102 2.103 2.318 5.377.648 7.72l3.817 3.816c.39.39.39 1.024 0 1.414-.39.39-1.024.39-1.414 0l-3.816-3.816c-2.343 1.67-5.617 1.455-7.72-.647zm7.07-1.415c1.564-1.562 1.564-4.094 0-5.656-1.56-1.563-4.093-1.563-5.655 0-1.563 1.562-1.563 4.094 0 5.656 1.562 1.563 4.094 1.563 5.656 0zM6.5 7.5c.55 0 1 .45 1 1s-.45 1-1 1H1c-.55 0-1-.45-1-1s.45-1 1-1h5.5zm5-4c.55 0 1 .45 1 1s-.45 1-1 1H1c-.55 0-1-.45-1-1s.45-1 1-1h10.5zM1 13.5c-.55 0-1-.45-1-1s.45-1 1-1h4.5c.55 0 1 .45 1 1s-.45 1-1 1H1z" id="search-list-Shape" fill-rule="nonzero"/></symbol><symbol viewBox="0 0 24 24" id="search"><path d="M13.836 15.374c-3.136 2.385-7.63 2.146-10.493-.717-3.124-3.124-3.124-8.19 0-11.314 3.124-3.124 8.19-3.124 11.314 0 2.906 2.906 3.11 7.492.61 10.632l7.434 7.313c.395.387.4 1.02.013 1.414-.387.394-1.02.4-1.414.012l-7.464-7.34zm-.593-2.13c2.343-2.344 2.343-6.143 0-8.487-2.343-2.343-6.142-2.343-8.486 0-2.343 2.343-2.343 6.142 0 8.486 2.343 2.343 6.142 2.343 8.486 0z" id="search-Shape" fill-rule="nonzero"/></symbol><symbol viewBox="0 0 24 24" id="segment"><path d="M22.5 9.5c0 .552-.448 1-1 1h-7c-.552 0-1-.448-1-1v-7c0-.552.448-1 1-1 2.122 0 4.157.843 5.657 2.343S22.5 7.378 22.5 9.5zm-11 3h8c.552 0 1 .448 1 1 0 5.523-4.477 10-10 10s-10-4.477-10-10 4.477-10 10-10c.552 0 1 .448 1 1v8zm-9 1c0 4.418 3.582 8 8 8 4.08 0 7.446-3.054 7.938-7H10.5c-.552 0-1-.448-1-1V5.562c-3.946.492-7 3.858-7 7.938z" id="segment-Shape" fill-rule="nonzero"/></symbol><symbol viewBox="0 0 24 24" id="settings"><path d="M11.1 1.935c.448.497 1.212.537 1.707.09.032-.027.06-.057.092-.09l.944-1.037C14.847-.212 16.56-.3 17.67.704c.606.546.932 1.335.89 2.148l-.07 1.4c-.033.667.48 1.235 1.146 1.268.04.002.08.002.12 0l1.4-.07c1.495-.074 2.767 1.078 2.84 2.573.04.812-.286 1.6-.89 2.144l-1.042.94c-.496.448-.535 1.214-.087 1.71.028.03.057.06.087.087l1.043.94c1.11 1.004 1.197 2.718.194 3.828-.545.605-1.334.93-2.148.89l-1.4-.07c-.668-.035-1.236.477-1.27 1.144-.002.04-.002.083 0 .124l.07 1.406c.068 1.495-1.09 2.76-2.586 2.828-.8.035-1.577-.286-2.122-.88l-.942-1.043c-.448-.495-1.213-.534-1.708-.086-.03.027-.06.057-.09.09l-.945 1.04c-1.008 1.108-2.722 1.19-3.83.18-.596-.54-.92-1.322-.883-2.13l.072-1.402c.034-.667-.48-1.235-1.145-1.27H4.25l-1.4.072C1.356 18.642.082 17.494.004 16c-.043-.814.283-1.603.888-2.15l1.04-.94c.497-.45.536-1.215.088-1.71-.027-.03-.056-.06-.088-.09l-1.04-.944C-.22 9.16-.302 7.446.703 6.34c.544-.6 1.328-.925 2.138-.887l1.402.07c.667.036 1.236-.475 1.27-1.142.003-.042.003-.084 0-.13l-.067-1.404C5.377 1.35 6.532.082 8.027.012c.807-.038 1.59.286 2.133.885l.94 1.038zm-2.05-.03c-.243-.266-.592-.41-.952-.394-.668.032-1.183.6-1.152 1.265l.067 1.398c.005.095.005.19 0 .287-.078 1.494-1.353 2.642-2.846 2.563l-1.4-.07c-.36-.018-.71.127-.95.394-.45.495-.413 1.26.082 1.708L2.94 10c.067.06.132.125.194.193 1.003 1.112.916 2.826-.195 3.83l-1.042.94c-.27.243-.415.596-.396.958.035.668.604 1.18 1.27 1.145l1.4-.07c.094-.006.187-.006.28 0 1.494.076 2.643 1.35 2.566 2.844l-.072 1.395c-.016.36.128.708.395.95.495.45 1.26.414 1.71-.08l.943-1.04c.06-.068.127-.133.195-.195 1.11-1.003 2.825-.916 3.827.195l.94 1.038c.24.264.587.408.945.392.667-.03 1.184-.595 1.154-1.258l-.07-1.4c-.005-.093-.005-.186 0-.278.076-1.496 1.35-2.645 2.844-2.568l1.4.07c.363.02.716-.126.96-.396.447-.495.408-1.26-.087-1.708l-1.042-.94c-.068-.062-.133-.127-.194-.195-1.004-1.11-.917-2.826.195-3.83l1.04-.94c.27-.243.416-.594.398-.956-.033-.668-.6-1.182-1.267-1.15l-1.4.072c-.09.003-.18.003-.27 0-1.493-.076-2.644-1.35-2.57-2.843l.072-1.4c.02-.364-.127-.716-.397-.96-.495-.448-1.26-.41-1.71.09L14.01 2.94c-.062.07-.128.138-.198.2-1.11 1.002-2.823.913-3.824-.198l-.94-1.037zm-.765 6.387c2.05-2.05 5.377-2.05 7.428 0 2.05 2.05 2.05 5.377 0 7.428-2.05 2.05-5.377 2.05-7.428 0-2.05-2.05-2.05-5.377 0-7.428zm6.367 6.367c1.465-1.466 1.465-3.842 0-5.307-1.465-1.465-3.84-1.465-5.306 0-1.465 1.465-1.465 3.84 0 5.306 1.466 1.464 3.84 1.464 5.306 0z" id="settings-Shape" fill-rule="nonzero"/></symbol><symbol viewBox="0 0 24 24" id="timelines"><path d="M1.5 10.5c-.552 0-1-.448-1-1s.448-1 1-1h7c.552 0 1 .448 1 1s-.448 1-1 1h-7zm11 0c-.552 0-1-.448-1-1s.448-1 1-1h10c.552 0 1 .448 1 1s-.448 1-1 1h-10zm8 6c-.552 0-1-.448-1-1s.448-1 1-1h2c.552 0 1 .448 1 1s-.448 1-1 1h-2zm-19 0c-.552 0-1-.448-1-1s.448-1 1-1h15c.552 0 1 .448 1 1s-.448 1-1 1h-15z" id="timelines-Shape" fill-rule="nonzero"/></symbol><symbol viewBox="0 0 24 24" id="today"><path d="M19 4h-1V2h-2v2H8V2H6v2H5c-1.11 0-2 .9-2 2v14c0 1.1.89 2 2 2h14c1.1 0 2-.9 2-2V6c0-1.1-.9-2-2-2zm0 16H5V10h14v10zm0-12H5V6h14v2zM7 12h5v5H7v-5z" id="today-Shape" fill-rule="evenodd"/></symbol><symbol viewBox="0 0 24 24" id="trash"><path d="M21 5.51c.552 0 1 .45 1 1.003 0 .553-.448 1.002-1 1.002h-1v12.03c0 1.662-1.343 3.008-3 3.008H7c-1.657 0-3-1.346-3-3.008V7.515H3c-.552 0-1-.45-1-1.002 0-.554.448-1.003 1-1.003h4V4.508C7 2.846 8.342 1.5 10 1.5h4c1.658 0 3 1.346 3 3.008V5.51h4zM9 4.508V5.51h6V4.508c0-.554-.447-1.003-1-1.003h-4c-.553 0-1 .45-1 1.003zm9 15.037V7.515H6v12.03c0 .554.447 1.003 1 1.003h10c.552 0 1-.45 1-1.003zm-8.857-8.503c.39-.39 1.02-.39 1.41 0l1.42 1.42 1.42-1.42c.39-.39 1.02-.39 1.41 0 .39.39.39 1.02 0 1.41l-1.42 1.42 1.42 1.42c.39.39.39 1.02 0 1.41-.39.39-1.02.39-1.41 0l-1.42-1.42-1.42 1.42c-.39.39-1.02.39-1.41 0-.39-.39-.39-1.02 0-1.41l1.42-1.42-1.42-1.42c-.39-.38-.39-1.02 0-1.41z" id="trash-Shape" fill-rule="nonzero"/></symbol><symbol viewBox="0 0 24 24" id="treatment"><path d="M22.5 22.5H3v.75c0 .414-.336.75-.75.75s-.75-.336-.75-.75v-9c0-.414.336-.75.75-.75s.75.336.75.75V18h2.65c-.662-1.147-.503-2.64.48-3.62 1.17-1.173 3.07-1.173 4.24 0 .983.98 1.142 2.473.48 3.62H12v-3.75c0-.414.336-.75.75-.75h8.5c1.52 0 2.75 1.23 2.75 2.75v7c0 .414-.336.75-.75.75s-.75-.336-.75-.75v-.75zM3 19.5V21h19.5v-1.5H3zM22.5 18v-1.75c0-.69-.56-1.25-1.25-1.25H13.5v3h9zM14.38.88c1.17-1.173 3.07-1.173 4.24 0 1.173 1.17 1.173 3.07 0 4.24-1.17 1.173-3.07 1.173-4.24 0-1.173-1.17-1.173-3.07 0-4.24zm3.18 3.18c.586-.585.586-1.535 0-2.12-.585-.586-1.535-.586-2.12 0-.586.585-.586 1.535 0 2.12.585.586 1.535.586 2.12 0zm-8.25 13.5c.586-.585.586-1.535 0-2.12-.585-.586-1.535-.586-2.12 0-.586.585-.586 1.535 0 2.12.585.586 1.535.586 2.12 0zm4.19-6.31c0 .414-.336.75-.75.75s-.75-.336-.75-.75c0-2.07 1.68-3.75 3.75-3.75h1.5c2.07 0 3.75 1.68 3.75 3.75 0 .414-.336.75-.75.75s-.75-.336-.75-.75c0-1.243-1.007-2.25-2.25-2.25h-1.5c-1.243 0-2.25 1.007-2.25 2.25zm-6-9.75V3H9c.828 0 1.5.672 1.5 1.5V6c0 .828-.672 1.5-1.5 1.5H7.5V9c0 .828-.672 1.5-1.5 1.5H4.5C3.672 10.5 3 9.828 3 9V7.5H1.5C.672 7.5 0 6.828 0 6V4.5C0 3.672.672 3 1.5 3H3V1.5C3 .672 3.672 0 4.5 0H6c.828 0 1.5.672 1.5 1.5zM9 6V4.5H6.75c-.414 0-.75-.336-.75-.75V1.5H4.5v2.25c0 .414-.336.75-.75.75H1.5V6h2.25c.414 0 .75.336.75.75V9H6V6.75c0-.414.336-.75.75-.75H9z" id="treatment-Shape" fill-rule="nonzero"/></symbol><symbol viewBox="0 0 24 24" id="unarchive"><path d="M20.54 5.23l-1.39-1.68C18.88 3.21 18.47 3 18 3H6c-.47 0-.88.21-1.16.55L3.46 5.23C3.17 5.57 3 6.02 3 6.5V19c0 1.1.9 2 2 2h14c1.1 0 2-.9 2-2V6.5c0-.48-.17-.93-.46-1.27zM6.24 5h11.52l.83 1H5.42l.82-1zM5 19V8h14v11H5zm3-5h2.55v3h2.9v-3H16l-4-4-4 4z" id="unarchive-Shape" fill-rule="evenodd"/></symbol><symbol viewBox="0 0 24 24" id="user"><path d="M16.243 2.257c2.343 2.344 2.343 6.142 0 8.486-2.344 2.343-6.143 2.343-8.486 0-2.343-2.344-2.343-6.142 0-8.486 2.343-2.343 6.142-2.343 8.486 0zm-1.06 1.06c-1.758-1.756-4.608-1.756-6.365 0-1.757 1.758-1.757 4.608 0 6.365 1.757 1.757 4.607 1.757 6.364 0 1.757-1.757 1.757-4.607 0-6.364zM3.024 23.068c-.03.414-.39.724-.803.693-.414-.03-.723-.39-.692-.804.02-.266.05-.53.09-.793.08-.537.204-1.065.366-1.58.35-1.107.882-2.146 1.57-3.076C5.527 14.85 8.63 13.25 12 13.25c3.37 0 6.475 1.6 8.443 4.257.69.93 1.22 1.97 1.57 3.076.163.515.286 1.043.368 1.58.04.262.07.527.09.793.03.413-.278.773-.692.804-.413.03-.773-.28-.803-.692-.018-.228-.043-.455-.077-.68-.07-.46-.175-.912-.314-1.353-.3-.948-.756-1.838-1.346-2.635-1.688-2.28-4.348-3.65-7.238-3.65-2.89 0-5.55 1.37-7.238 3.65-.59.797-1.046 1.687-1.346 2.635-.14.44-.244.893-.314 1.353-.034.225-.06.452-.077.68z" id="user-Shape" fill-rule="nonzero"/></symbol></svg>