<svg xmlns="http://www.w3.org/2000/svg"><symbol viewBox="0 0 119 102" id="biings-care"><path d="M57.69 81.475c2.856 0 5.17 2.28 5.17 5.094 0 2.813-2.314 5.093-5.17 5.093-3.672 0-6.504-.56-9.08-1.606-9.77 8.422-21.062 11.467-36.69 11.82-4.724.108-7.104-5.575-3.68-8.784.335-.313.958-.92 1.772-1.757 1.365-1.4 2.73-2.9 3.992-4.422 1.25-1.507 2.326-2.95 3.173-4.28 1.204-1.89 1.825-3.39 1.863-4.087C7.372 70.163.43 58.02.43 44.845.43 19.817 25.172 0 55.23 0c25.242 0 47.222 14.058 53.223 34.095.808 2.698-.755 5.53-3.493 6.328-2.737.796-5.61-.745-6.42-3.443-4.618-15.42-22.398-26.792-43.31-26.792-24.767 0-44.465 15.776-44.465 34.657 0 10.336 5.903 20.036 16.076 26.64 1.226.794 2.05 2.066 2.27 3.497.176 1.163.267 2.33.267 3.5 0 3.023-1.26 6.136-3.448 9.57-.518.812-1.084 1.634-1.696 2.466 7.944-1.5 14.074-4.556 19.603-10.006 1.13-1.116 2.723-1.65 4.31-1.45 1.438.18 5.462 1.993 4.535 1.63 1.28.503 2.758.783 5.01.783zm56.097-3.854L95.805 95.346c-1.66 1.637-4.353 1.637-6.013 0L71.81 77.62c-6.03-5.944-6.03-15.58 0-21.526 5.718-5.636 16.048-3.75 20.99 1.535 4.716-5.286 15.27-7.172 20.99-1.53 6.03 5.943 6.027 15.58-.003 21.52z"/></symbol><symbol viewBox="0 0 90 107" id="biings-claim"><path d="M18.554 94.84C7.08 94.84 0 87.617 0 75.9V18.94C0 7.22 7.068 0 18.54 0H71.46C82.934 0 90 7.226 90 18.974v38.263c0 2.715-2.152 4.915-4.806 4.915s-4.806-2.2-4.806-4.915V18.974c0-6.32-2.762-9.144-8.93-9.144H18.543c-6.168 0-8.93 2.822-8.93 9.112V75.9c0 6.282 2.772 9.11 8.942 9.11H74.28v9.83H18.553zm10.143-58.879c-2.654.002-4.806-2.2-4.806-4.914 0-2.714 2.153-4.915 4.807-4.915h33.79c2.653 0 4.805 2.202 4.805 4.916 0 2.715-2.152 4.916-4.806 4.916h-33.79zm0 18.667c-2.654 0-4.806-2.2-4.806-4.916 0-2.713 2.153-4.914 4.807-4.914h33.79c2.653 0 4.805 2.2 4.805 4.915 0 2.716-2.152 4.917-4.806 4.917h-33.79zM71.97 74.912l16.126 11.99c2.048 1.523 2.474 4.417.95 6.465-.29.394-.645.738-1.047 1.02L71.87 105.742c-2.086 1.47-4.968.97-6.437-1.117-.548-.778-.842-1.707-.842-2.66V78.62c0-2.552 2.068-4.62 4.62-4.62.993 0 1.96.32 2.756.912z"/></symbol><symbol viewBox="0 0 137 137" id="biings-pilot"><path d="M108.836 108.836c2.207-2.207 5.785-2.207 7.99 0 2.208 2.207 2.208 5.785 0 7.99-26.725 26.727-70.056 26.727-96.782 0-26.726-26.725-26.726-70.056 0-96.782s70.058-26.726 96.783 0c18.32 18.32 24.542 45.09 16.78 69.324-.953 2.972-4.134 4.61-7.106 3.657-2.97-.952-4.61-4.133-3.657-7.105 6.484-20.24 1.292-42.586-14.007-57.885-22.312-22.312-58.488-22.312-80.8 0-22.313 22.313-22.313 58.488 0 80.8 22.312 22.313 58.487 22.313 80.8 0zM95.77 48.248L84.785 81.21c-.562 1.688-1.886 3.012-3.574 3.574L48.248 95.772c-4.418 1.472-8.62-2.73-7.148-7.148l10.988-32.962c.562-1.688 1.886-3.012 3.573-3.574L88.625 41.1c4.417-1.472 8.62 2.73 7.148 7.148zM61.918 61.916l-6.52 19.56 19.56-6.52-13.04-13.04z"/></symbol><symbol viewBox="0 0 14 18" id="book"><path d="M13.222 0c.43 0 .778.348.778.778v15.555c0 .43-.348.778-.778.778h-10.5C1.22 17.11 0 15.893 0 14.39V2.72C0 1.22 1.22 0 2.722 0h10.5zm-9.79 1.556h-.71c-.644 0-1.166.522-1.166 1.166V14.39c0 .643.522 1.166 1.166 1.166h9.722v-14H7.477c.004.03.006.06.006.092v5.207l-2.03-2.03-2.03 2.03V1.648c0-.03.003-.062.01-.092zM1.557 14.39H0c0-1.505 1.22-2.723 2.722-2.723h10.5v1.555h-10.5c-.644 0-1.166.523-1.166 1.167z"/></symbol><symbol viewBox="0 0 21 21" id="bubble"><path d="M4.508 15.006c.196-.197.464-.307.742-.307h12.6c.58 0 1.05-.472 1.05-1.05V3.15c0-.58-.47-1.05-1.05-1.05H3.15c-.58 0-1.05.47-1.05 1.05v14.263l2.408-2.407zM1.792 20.69c-.66.662-1.792.193-1.792-.742V3.15C0 1.41 1.41 0 3.15 0h14.7C19.59 0 21 1.41 21 3.15v10.5c0 1.738-1.41 3.148-3.15 3.148H5.685L1.792 20.69z" id="bubble-Shape-Copy-9" fill-rule="nonzero"/></symbol><symbol viewBox="0 0 107 129" id="legal-proof"><g id="legal-proof-FS-Icons" fill-rule="evenodd"><path d="M95.578 74.696c0 8.864-2.665 13.442-6.666 17.59-6.813 7.06-19.275 14.037-35.163 23.777-15.89-9.74-28.35-16.718-35.164-23.778-4.002-4.147-6.666-8.725-6.666-17.59V30.183c14.655-1.35 27.19-5.447 41.83-15.97 14.637 10.523 27.173 14.62 41.828 15.97v44.514zM.593 19.334V73.89c0 26.796 19.36 33.794 53.156 55.11 33.796-21.316 53.155-28.314 53.155-55.11V19.334C86.412 19.334 73.402 16.687 53.75 0 34.095 16.687 21.084 19.334.592 19.334z" id="legal-proof-shield-18-icon-copy-2"/><path id="legal-proof-Shape-Copy-2" fill-rule="nonzero" d="M49.187 85.45L29 65.443l10.015-9.924L49.187 65.6 70.985 44 81 53.924z"/></g></symbol><symbol viewBox="0 0 25 25" id="medical"><path d="M2.2 17.1c-.718 0-1.3-.582-1.3-1.3V9.2c0-.718.582-1.3 1.3-1.3h5.7V2.2c0-.718.582-1.3 1.3-1.3h6.6c.718 0 1.3.582 1.3 1.3v5.7h5.7c.718 0 1.3.582 1.3 1.3v6.6c0 .718-.582 1.3-1.3 1.3h-5.7v5.7c0 .718-.582 1.3-1.3 1.3H9.2c-.718 0-1.3-.582-1.3-1.3v-5.7H2.2zm6.6-2.2c.718 0 1.3.582 1.3 1.3v5.7h4.8v-5.7c0-.718.582-1.3 1.3-1.3h5.7v-4.8h-5.7c-.718 0-1.3-.582-1.3-1.3V3.1h-4.8v5.7c0 .718-.582 1.3-1.3 1.3H3.1v4.8h5.7z" id="medical-Shape-Copy-11" fill-rule="nonzero"/></symbol><symbol viewBox="0 0 22 26" id="person"><path d="M11 13.25c-3.452 0-6.25-2.798-6.25-6.25S7.548.75 11 .75 17.25 3.548 17.25 7s-2.798 6.25-6.25 6.25zm0-2c2.347 0 4.25-1.903 4.25-4.25S13.347 2.75 11 2.75 6.75 4.653 6.75 7s1.903 4.25 4.25 4.25zm-8.75 13c0 .552-.448 1-1 1s-1-.448-1-1C.25 18.313 5.063 13.5 11 13.5s10.75 4.813 10.75 10.75c0 .552-.448 1-1 1s-1-.448-1-1c0-4.832-3.918-8.75-8.75-8.75s-8.75 3.918-8.75 8.75z" id="person-Combined-Shape" fill-rule="nonzero"/></symbol><symbol viewBox="0 0 26 20" id="persons"><path d="M16.755 12.03c-1.426-.72-2.403-2.198-2.403-3.905 0-2.416 1.96-4.375 4.375-4.375 2.416 0 4.375 1.96 4.375 4.375 0 1.708-.978 3.187-2.405 3.907.62.197 1.212.486 1.758.867 1.75 1.218 2.794 3.216 2.795 5.35 0 .552-.447 1-1 1-.552 0-1-.447-1-1 0-1.48-.725-2.865-1.94-3.71-1.212-.846-2.763-1.045-4.15-.534-.52.19-1.094-.074-1.285-.592-.19-.518.074-1.093.592-1.284.096-.035.19-.068.288-.1zm-9.997-1.334c-1.973-.712-3.383-2.602-3.383-4.82C3.375 3.045 5.67.75 8.5.75s5.125 2.295 5.125 5.125c0 2.22-1.41 4.11-3.383 4.82 3.44.792 6.008 3.874 6.008 7.555 0 .552-.448 1-1 1s-1-.448-1-1c0-3.176-2.574-5.75-5.75-5.75s-5.75 2.574-5.75 5.75c0 .552-.448 1-1 1s-1-.448-1-1c0-3.68 2.567-6.763 6.008-7.554zM8.5 9c1.726 0 3.125-1.4 3.125-3.125 0-1.726-1.4-3.125-3.125-3.125-1.726 0-3.125 1.4-3.125 3.125C5.375 7.6 6.775 9 8.5 9zm10.227 1.5c1.312 0 2.375-1.063 2.375-2.375S20.04 5.75 18.727 5.75s-2.375 1.063-2.375 2.375 1.063 2.375 2.375 2.375z" id="persons-Combined-Shape" fill-rule="nonzero"/></symbol><symbol viewBox="0 0 19 14" id="search-list"><path d="M.875 5.75C.392 5.75 0 5.358 0 4.875S.392 4 .875 4h4.838c.483 0 .875.392.875.875s-.392.875-.875.875H.875zm0-4C.392 1.75 0 1.358 0 .875S.392 0 .875 0h12.25c.483 0 .875.392.875.875s-.392.875-.875.875H.875zm0 8C.392 9.75 0 9.358 0 8.875S.392 8 .875 8H5c.483 0 .87.392.87.875s-.387.875-.87.875H.875zm14.742.888l2.25 2.195c.264.265.264.697 0 .962-.265.264-.697.264-.962 0l-2.255-2.193c-.866.615-2.005.924-3.172.728-1.794-.303-3.226-1.8-3.445-3.606-.336-2.73 1.96-5.027 4.69-4.69 1.807.218 3.304 1.65 3.607 3.444.194 1.16-.107 2.297-.713 3.16zm-3.423.46c1.607 0 2.904-1.297 2.904-2.904 0-1.606-1.297-2.903-2.904-2.903-1.606 0-2.903 1.298-2.903 2.904 0 1.607 1.298 2.904 2.904 2.904z" id="search-list-Combined-Shape" fill-rule="nonzero"/></symbol><symbol viewBox="0 0 19 13" id="timelines"><path d="M8.124 2C7.504 2 7 1.552 7 1s.503-1 1.124-1h1.122c.62 0 1.124.448 1.124 1s-.503 1-1.124 1H8.124zm5 0C12.504 2 12 1.552 12 1s.503-1 1.124-1h4.122c.62 0 1.124.448 1.124 1s-.503 1-1.124 1h-4.122zm-12 0C.504 2 0 1.552 0 1s.503-1 1.124-1h3.122c.62 0 1.124.448 1.124 1s-.503 1-1.124 1H1.124zm0 5.5C.504 7.5 0 7.052 0 6.5s.503-1 1.124-1h7.122c.62 0 1.124.448 1.124 1s-.503 1-1.124 1H1.124zm11 0c-.62 0-1.124-.448-1.124-1s.503-1 1.124-1h5.122c.62 0 1.124.448 1.124 1s-.503 1-1.124 1h-5.122zm-11 5.5C.504 13 0 12.552 0 12s.503-1 1.124-1h11.122c.62 0 1.124.448 1.124 1s-.503 1-1.124 1H1.124zm15 0c-.62 0-1.124-.448-1.124-1s.503-1 1.124-1h1.122c.62 0 1.124.448 1.124 1s-.503 1-1.124 1h-1.122z" id="timelines-Combined-Shape-Copy-5" fill-rule="nonzero"/></symbol><symbol viewBox="0 0 24 24" id="biings"><path d="M6.533 13.592l-.03-.362s0-.86 1.736-.86c.42 0 .738.05.98.126l.177 4.975c-.87-.32-1.654-.96-2.032-1.746l-.205-.435c-.207-.473-.425-1.068-.627-1.698zm11.156 1.5l.157-1.862s0-.86-1.737-.86c-.42 0-.736.05-.978.125l-.14 4.198c.394-.138.76-.28 1.07-.415l.435-.205c.448-.215.857-.56 1.192-.98zm-3.64 1.91l.17-5.128s0-1.013-2.045-1.013c-2.047 0-2.047 1.014-2.047 1.014l.206 5.81c.188.015.374.013.556-.006l.475-.056c.756-.096 1.744-.335 2.686-.62zm-5.91-5.347c.658 0 1.193-.533 1.193-1.192 0-.658-.535-1.192-1.194-1.192-.66 0-1.195.535-1.195 1.193 0 .66.535 1.192 1.194 1.192zm8.045 0c.66 0 1.193-.533 1.193-1.192 0-.658-.534-1.192-1.193-1.192-.66 0-1.194.535-1.194 1.193 0 .66.535 1.192 1.195 1.192zM8.7 1.003c8.248-2.47 11.82-.55 14.296 7.686 2.474 8.235.55 11.804-7.697 14.274-8.248 2.47-11.82.55-14.296-7.686C-1.47 7.043.454 3.474 8.7 1.003zm3.46 8.758c.905 0 1.637-.73 1.637-1.633 0-.902-.732-1.634-1.636-1.634-.902 0-1.635.732-1.635 1.634 0 .902.733 1.634 1.636 1.634z" id="biings-Rectangle-16-Copy-7" fill-rule="evenodd"/></symbol><symbol viewBox="0 0 27 13" id="key_esc"><path d="M2 0h23c1.105 0 2 .895 2 2v9c0 1.105-.895 2-2 2H2c-1.105 0-2-.895-2-2V2C0 .895.895 0 2 0zm0 1.2c-.442 0-.8.358-.8.8v9c0 .442.358.8.8.8h23c.442 0 .8-.358.8-.8V2c0-.442-.358-.8-.8-.8H2zm7.21 7.856c-.695 0-1.237-.196-1.626-.586C7.194 8.08 7 7.52 7 6.794v-.388c0-.77.18-1.362.536-1.78C7.893 4.21 8.406 4 9.072 4c.65 0 1.14.196 1.47.588.327.392.495.973.5 1.742v.626H8.35c.018.36.103.624.253.79.15.167.38.25.694.25.453 0 .83-.145 1.134-.436l.532.77c-.166.216-.407.39-.723.525-.317.134-.66.2-1.03.2zm-.85-2.992h1.353v-.117c-.006-.292-.057-.513-.153-.663-.096-.15-.262-.225-.498-.225s-.407.078-.514.238c-.107.16-.17.414-.19.766zM14.1 7.66c0-.11-.055-.21-.165-.3-.11-.093-.354-.216-.734-.373-.557-.213-.94-.434-1.15-.662-.21-.228-.313-.512-.313-.852 0-.426.163-.778.49-1.056.327-.278.76-.417 1.3-.417.567 0 1.022.138 1.363.415.34.276.512.647.512 1.112h-1.354c0-.396-.176-.594-.526-.594-.144 0-.262.042-.355.126-.092.083-.138.2-.138.35 0 .108.05.204.152.286.102.083.343.2.722.354.552.192.942.406 1.17.642.228.236.342.542.342.917 0 .435-.174.785-.52 1.05-.35.263-.805.396-1.37.396-.38 0-.714-.07-1.004-.21-.29-.14-.518-.334-.682-.583-.165-.25-.247-.52-.247-.807h1.287c.007.222.062.39.165.5.104.11.274.167.51.167.364 0 .545-.155.545-.464zm4.03.337c.392 0 .59-.24.597-.72H20c-.006.53-.18.96-.522 1.287-.34.328-.78.492-1.32.492-.667 0-1.176-.196-1.526-.586-.35-.39-.53-.966-.536-1.726v-.387c0-.766.173-1.35.52-1.753C16.96 4.2 17.47 4 18.147 4c.57 0 1.02.166 1.35.498.328.332.496.803.502 1.412h-1.273c-.003-.273-.05-.483-.143-.63-.093-.148-.246-.22-.46-.22-.236 0-.405.078-.507.235-.102.158-.156.464-.162.917v.496c0 .397.02.674.062.83.04.16.11.275.205.348.096.074.232.11.407.11z" id="key_esc-Combined-Shape" fill-rule="nonzero"/></symbol><symbol viewBox="0 0 19 12" id="key_return"><path d="M16.582 1.583v3H3.412l2.88-2.88c.39-.39.39-1.02 0-1.41-.39-.39-1.02-.39-1.41 0l-4.59 4.59c-.39.39-.39 1.02 0 1.41l4.59 4.59c.39.39 1.02.39 1.41 0 .39-.39.39-1.02 0-1.41l-2.88-2.89h14.17c.55 0 1-.45 1-1v-4c0-.55-.45-1-1-1s-1 .45-1 1z" id="key_return-Shape" fill-rule="nonzero"/></symbol><symbol viewBox="0 0 18 12" id="key_up_down"><path d="M.562 4.198c-.5 0-.746-.6-.4-.946L3.265.16c.223-.213.568-.213.79 0L7.16 3.25c.357.345.112.946-.388.946H4.78v6.69c0 .61-.5 1.112-1.113 1.112-.612 0-1.113-.5-1.113-1.113v-6.69H.562zm10.016 3.604h1.992v-6.69c0-.61.5-1.112 1.113-1.112.612 0 1.113.5 1.113 1.113v6.69h1.992c.5 0 .746.6.39.945L14.07 11.84c-.222.213-.567.213-.79 0L10.177 8.75c-.345-.345-.1-.946.4-.946z" id="key_up_down-Combined-Shape" fill-rule="nonzero"/></symbol><symbol viewBox="0 0 23 23" id="segment"><g id="segment-Prototype" fill-rule="evenodd"><path d="M23 10H13V0c2.652 0 5.196 1.054 7.07 2.93C21.947 4.803 23 7.347 23 10z" id="segment-Combined-Shape"/><path d="M11 23C4.925 23 0 18.075 0 12S4.925 1 11 1v11h11c0 6.075-4.925 11-11 11z" id="segment-Path"/></g></symbol><symbol viewBox="0 0 24 24" id="arrow-down"><path d="M12 2q.414 0 .707.293T13 3v15.586l5.29-5.297q.288-.29.71-.29.43 0 .715.285T20 14q0 .422-.29.71l-7 7q-.288.29-.71.29t-.71-.29l-7-7Q4 14.423 4 14q0-.43.285-.715T5 13q.422 0 .71.29L11 18.585V3q0-.414.293-.707T12 2z"/></symbol><symbol viewBox="0 0 24 24" id="arrow-left"><path d="M10 4q.414 0 .707.293T11 5q0 .422-.297.71L5.413 11H21q.414 0 .707.293T22 12t-.293.707T21 13H5.414l5.29 5.29q.296.288.296.71 0 .414-.293.707T10 20q-.422 0-.71-.29l-7-7Q2 12.407 2 12t.29-.71l7-7Q9.585 4 10 4z"/></symbol><symbol viewBox="0 0 24 24" id="arrow-right"><path d="M14 4q.422 0 .71.29l7 7q.29.288.29.71t-.29.71l-7 7q-.288.29-.71.29-.43 0-.715-.285T13 19q0-.422.29-.71L18.585 13H3q-.414 0-.707-.293T2 12t.293-.707T3 11h15.586L13.29 5.71Q13 5.423 13 5q0-.43.285-.715T14 4z"/></symbol><symbol viewBox="0 0 24 24" id="arrow-up"><path d="M12 2q.422 0 .71.29l7 7q.29.288.29.71 0 .43-.285.715T19 11q-.422 0-.71-.29L13 5.415V21q0 .414-.293.707T12 22t-.707-.293T11 21V5.414L5.71 10.71Q5.423 11 5 11q-.43 0-.715-.285T4 10q0-.422.29-.71l7-7Q11.577 2 12 2z"/></symbol><symbol viewBox="0 0 22 20" id="briefcase"><path d="M3 6c-.552 0-1 .448-1 1v10c0 .552.448 1 1 1h16c.552 0 1-.448 1-1V7c0-.552-.448-1-1-1H3zm0-2h16c1.657 0 3 1.343 3 3v10c0 1.657-1.343 3-3 3H3c-1.657 0-3-1.343-3-3V7c0-1.657 1.343-3 3-3zm13 15c0 .552-.448 1-1 1s-1-.448-1-1V3c0-.552-.448-1-1-1H9c-.552 0-1 .448-1 1v16c0 .552-.448 1-1 1s-1-.448-1-1V3c0-1.657 1.343-3 3-3h4c1.657 0 3 1.343 3 3v16z"/></symbol><symbol viewBox="0 0 24 24" id="check"><path d="M21 5q.43 0 .715.285T22 6q0 .422-.29.71l-12 12Q9.423 19 9 19t-.71-.29l-6-6Q2 12.423 2 12q0-.43.285-.715T3 11q.422 0 .71.29L9 16.585 20.29 5.29Q20.577 5 21 5z"/></symbol><symbol viewBox="0 0 24 24" id="circle-minus"><path d="M12 1q2.242 0 4.277.87t3.508 2.345 2.344 3.508T23 12t-.87 4.277-2.345 3.508-3.508 2.344T12 23t-4.277-.87-3.508-2.345-2.344-3.508T1 12t.87-4.277 2.345-3.508T7.723 1.87 12 1zm0 2q-1.828 0-3.496.715t-2.87 1.918-1.92 2.87T3 12t.715 3.496 1.918 2.87 2.87 1.92T12 21t3.496-.715 2.87-1.918 1.92-2.87T21 12t-.715-3.496-1.918-2.87-2.87-1.92T12 3zm-4 8h8q.414 0 .707.293T17 12t-.293.707T16 13H8q-.414 0-.707-.293T7 12t.293-.707T8 11z"/></symbol><symbol viewBox="0 0 24 24" id="circle-plus"><path d="M12 1q2.242 0 4.277.87t3.508 2.345 2.344 3.508T23 12t-.87 4.277-2.345 3.508-3.508 2.344T12 23t-4.277-.87-3.508-2.345-2.344-3.508T1 12t.87-4.277 2.345-3.508T7.723 1.87 12 1zm0 2q-1.828 0-3.496.715t-2.87 1.918-1.92 2.87T3 12t.715 3.496 1.918 2.87 2.87 1.92T12 21t3.496-.715 2.87-1.918 1.92-2.87T21 12t-.715-3.496-1.918-2.87-2.87-1.92T12 3zm0 4q.414 0 .707.293T13 8v3h3q.414 0 .707.293T17 12t-.293.707T16 13h-3v3q0 .414-.293.707T12 17t-.707-.293T11 16v-3H8q-.414 0-.707-.293T7 12t.293-.707T8 11h3V8q0-.414.293-.707T12 7z"/></symbol><symbol viewBox="0 0 24 24" id="download"><path d="M12 1q.414 0 .707.293T13 2v11.586l3.29-3.297q.288-.29.71-.29.43 0 .715.285T18 11q0 .422-.29.71l-5 5q-.288.29-.71.29t-.71-.29l-5-5Q6 11.407 6 11q0-.414.293-.707T7 10q.422 0 .71.29L11 13.585V2q0-.414.293-.707T12 1zm10 14q.414 0 .707.293T23 16v4q0 1.25-.867 2.117-.883.883-2.11.883H4.002q-1.226 0-2.124-.875Q1 21.227 1 20v-4q0-.414.294-.707T2 15t.708.293T3 16v4q0 .414.294.707T4 21h16.024q.406 0 .69-.293T21 20v-4q0-.414.293-.707T22 15z"/></symbol><symbol viewBox="0 0 16 16" id="gear"><path d="M9.886 9.886c-1.042 1.04-2.73 1.04-3.772 0-1.04-1.042-1.04-2.73 0-3.772 1.042-1.04 2.73-1.04 3.772 0 1.04 1.042 1.04 2.73 0 3.772zm-2.83-2.83c-.52.522-.52 1.366 0 1.887.522.52 1.366.52 1.887 0 .52-.52.52-1.365 0-1.886-.52-.52-1.365-.52-1.886 0zm6.884 1.61H14c.368 0 .667-.298.667-.666 0-.368-.3-.667-.667-.667h-.116c-.704-.002-1.34-.423-1.617-1.07-.024-.057-.04-.116-.048-.176-.222-.63-.07-1.337.41-1.825l.04-.04c.26-.26.26-.683-.002-.944-.26-.26-.683-.26-.943 0l-.045.045c-.517.505-1.288.645-1.943.356-.647-.278-1.068-.913-1.07-1.62V2c0-.368-.3-.667-.667-.667-.368 0-.667.3-.667.667v.116c-.002.704-.423 1.34-1.07 1.617-.057.024-.116.04-.176.048-.63.222-1.337.07-1.825-.41l-.04-.04c-.26-.26-.683-.26-.944.002-.26.26-.26.683 0 .943l.045.045c.505.517.645 1.288.37 1.91-.25.68-.892 1.14-1.633 1.157H2c-.368 0-.667.298-.667.666 0 .37.3.667.667.667h.116c.704.003 1.34.424 1.614 1.064.292.66.152 1.433-.36 1.954l-.04.04c-.26.26-.26.683.002.944.26.26.683.26.943 0l.045-.045c.517-.505 1.288-.645 1.91-.37.68.25 1.14.892 1.157 1.633V14c0 .368.298.667.666.667.37 0 .667-.3.667-.667v-.116c.003-.704.424-1.34 1.064-1.614.66-.292 1.433-.152 1.954.36l.04.04c.26.26.683.26.944-.002.26-.26.26-.683 0-.943l-.045-.045c-.504-.516-.645-1.286-.355-1.946.278-.645.912-1.065 1.618-1.067zM13.887 6H14c1.105 0 2 .895 2 2s-.895 2-2 2h-.057c-.173 0-.33.104-.397.263-.074.168-.04.358.08.48l.038.04c.782.78.783 2.046.002 2.827-.782.783-2.048.783-2.83.003l-.036-.036c-.126-.124-.315-.16-.484-.084-.16.068-.262.224-.263.394V14c0 1.105-.895 2-2 2-1.104 0-2-.895-2-2-.004-.222-.116-.38-.322-.457-.16-.07-.35-.037-.472.082l-.04.04c-.78.78-2.047.782-2.828 0-.783-.78-.783-2.047-.003-2.828l.036-.037c.124-.126.16-.315.084-.484-.068-.16-.224-.262-.394-.263H2c-1.105 0-2-.895-2-2 0-1.104.895-2 2-2 .222-.004.38-.116.457-.322.07-.16.037-.35-.082-.472l-.04-.04c-.78-.78-.782-2.047 0-2.828.78-.783 2.047-.783 2.828-.003l.037.036c.126.124.315.16.477.087.043-.02.088-.033.133-.043.117-.08.19-.21.19-.354V2c0-1.105.895-2 2-2s2 .895 2 2v.057c0 .173.104.33.27.4.16.07.35.037.472-.082l.04-.04c.78-.78 2.047-.782 2.828 0 .783.78.783 2.047.003 2.828l-.036.037c-.124.126-.16.315-.087.477.02.043.033.088.043.133.08.117.21.19.354.19z"/></symbol><symbol viewBox="0 0 22 22" id="help"><path d="M18.778 18.778c-4.296 4.296-11.26 4.296-15.556 0-4.296-4.296-4.296-11.26 0-15.556 4.296-4.296 11.26-4.296 15.556 0 4.296 4.296 4.296 11.26 0 15.556zM4.636 4.636c-3.515 3.515-3.515 9.213 0 12.728 3.515 3.515 9.213 3.515 12.728 0 3.515-3.515 3.515-9.213 0-12.728-3.515-3.515-9.213-3.515-12.728 0zM11 17c-.552 0-1-.448-1-1s.448-1 1-1 1 .448 1 1-.448 1-1 1zM9.033 8.332c-.183.52-.754.795-1.275.61-.52-.182-.795-.753-.61-1.274.732-2.084 3.015-3.18 5.1-2.446 1.603.564 2.675 2.08 2.672 3.778 0 1.28-.758 2.29-1.945 3.082-.65.433-1.287.716-1.74.867-.523.173-1.09-.11-1.264-.634-.173-.524.11-1.09.634-1.265.065-.02.2-.072.38-.15.302-.136.604-.297.88-.482.69-.46 1.056-.948 1.056-1.42 0-.85-.535-1.607-1.336-1.89-1.042-.366-2.184.182-2.55 1.224z" id="help-Combined-Shape" fill-rule="nonzero"/></symbol><symbol viewBox="0 0 20 22" id="off"><path d="M15.653 6.347c-.39-.39-.39-1.024 0-1.414.39-.39 1.024-.39 1.414 0 3.905 3.906 3.904 10.237 0 14.14-3.906 3.906-10.238 3.906-14.143 0-3.905-3.903-3.906-10.234 0-14.14.39-.39 1.022-.39 1.413 0 .39.39.39 1.023 0 1.414-3.123 3.124-3.123 8.19 0 11.313 3.126 3.124 8.19 3.124 11.315 0 3.124-3.124 3.124-8.19 0-11.313zM9 1c0-.552.448-1 1-1s1 .448 1 1v10c0 .552-.448 1-1 1s-1-.448-1-1V1z"/></symbol><symbol viewBox="0 0 24 20" id="prefs"><path d="M19 15h-2c-.552 0-1-.448-1-1s.448-1 1-1h6c.552 0 1 .448 1 1s-.448 1-1 1h-2v4c0 .552-.448 1-1 1s-1-.448-1-1v-4zM11 5V1c0-.552.448-1 1-1s1 .448 1 1v4h2c.552 0 1 .448 1 1s-.448 1-1 1H9c-.552 0-1-.448-1-1s.448-1 1-1h2zm-8 8H1c-.552 0-1-.448-1-1s.448-1 1-1h6c.552 0 1 .448 1 1s-.448 1-1 1H5v6c0 .552-.448 1-1 1s-1-.448-1-1v-6zm2-5c0 .552-.448 1-1 1s-1-.448-1-1V1c0-.552.448-1 1-1s1 .448 1 1v7zm8 11c0 .552-.448 1-1 1s-1-.448-1-1v-9c0-.552.448-1 1-1s1 .448 1 1v9zm8-9c0 .552-.448 1-1 1s-1-.448-1-1V1c0-.552.448-1 1-1s1 .448 1 1v9z"/></symbol><symbol viewBox="0 0 24 24" id="search"><path d="M10 1q1.828 0 3.496.715t2.87 1.918 1.92 2.87T19 10q0 1.57-.512 3.008t-1.457 2.61l5.68 5.67q.29.29.29.712 0 .43-.285.715T22 23q-.422 0-.71-.29l-5.673-5.68q-1.172.946-2.61 1.458T10 19q-1.828 0-3.496-.715t-2.87-1.918-1.92-2.87T1 10t.715-3.496 1.918-2.87 2.87-1.92T10 1zm0 2q-1.422 0-2.72.555T5.048 5.047 3.555 7.28 3 10t.555 2.72 1.492 2.233 2.234 1.492T10 17t2.72-.555 2.233-1.492 1.492-2.234T17 10t-.555-2.72-1.492-2.233-2.234-1.492T10 3z"/></symbol></svg>