<svg xmlns="http://www.w3.org/2000/svg" width="40" height="39" viewBox="0 0 40 39">
  <g fill="none" fill-rule="evenodd" transform="translate(-56 -50)">
    <path fill="#8C50B9" fill-rule="nonzero" d="M166.86,62.562 C168.599368,62.562 170.241806,63.1758947 171.481216,64.4036842 L171.684,64.614 L171.756,64.578 L171.756,63 L178.2,63 L178.2,78.006 C178.2,83.91 175.86,88.05 168.444,88.05 C165.6054,88.05 163.61154,87.66012 161.474724,86.6025705 L161.136,86.43 L162.54,81.354 C163.8,82.146 165.96,82.794 167.616,82.794 C170.368258,82.794 171.839351,81.5802643 171.931396,80.0989847 L171.936,79.95 L171.936,78.402 L171.864,78.366 C170.748,79.554 169.2,80.202 167.22,80.202 C162.54,80.202 159.3,76.458 159.3,71.562 C159.3,66.306 162.612,62.562 166.86,62.562 Z M91.6180774,58.8122362 L91.9040571,59.4824489 L92.0445488,59.8274022 L92.303873,60.4925369 L92.4314931,60.8338577 L92.6828189,61.5340977 L92.9291521,62.2579239 L93.170764,63.0054826 L93.4079263,63.77692 L93.5233482,64.1664188 L93.7415842,64.9322342 C93.7765499,65.0584167 93.8108101,65.1838763 93.8443618,65.3086187 L94.0371447,66.0485111 L94.1271134,66.4120868 L94.2941142,67.1266673 C96.4053102,76.5435691 93.8842782,81.5510994 85.1713356,85.046119 L84.5062307,85.3054548 C84.055055,85.476515 83.5883021,85.643975 83.105777,85.8081969 L82.3701358,86.0521465 L81.417092,86.3506667 L80.4474373,86.636215 L79.6903647,86.8460126 C79.4408911,86.9131189 79.1942865,86.9773909 78.9505054,87.0388041 L78.2275879,87.2144434 C77.8468149,87.3034444 77.4731427,87.3850769 77.1063865,87.4592413 L76.3820407,87.5975829 C67.9184371,89.1160969 63.2594982,86.4144363 59.9537486,78.1725978 L59.6944245,77.5074631 L59.5668044,77.1661423 L59.3154785,76.4659023 C59.2740145,76.3472342 59.2327585,76.2275833 59.1917049,76.1069467 L58.9477663,75.3712725 L58.7084131,74.6117927 L58.4749492,73.8335812 L58.2567132,73.0677658 C58.1518161,72.6892183 58.0532685,72.3171769 57.9611528,71.9514889 L57.7855214,71.2285391 C55.5030945,61.4627606 58.0669191,56.3676221 67.1566028,52.8235211 L67.8333723,52.5669194 C68.1776047,52.4399573 68.5306267,52.3149695 68.8925205,52.1918031 L69.6281617,51.9478535 L70.0048999,51.8276154 L70.7763027,51.5904424 L71.5508602,51.363785 L72.3079328,51.1539874 C72.5574063,51.0868811 72.804011,51.0226091 73.047792,50.9611959 L73.7707095,50.7855566 L74.5228426,50.6174088 C83.3123439,48.744617 88.1935971,51.036225 91.6180774,58.8122362 Z M186.68,62.562 C189.429091,62.562 191.325339,63.2508347 193.308064,64.5971935 L193.592,64.794 L190.604,69.078 C189.488,67.89 188.012,67.242 186.896,67.242 C186.356,67.242 185.78,67.458 185.78,67.962 C185.78,68.1967826 185.963743,68.4162533 186.580879,68.7003003 L186.92672,68.848075 L187.351727,69.0088316 L187.753393,69.148275 L188.841095,69.5046951 L189.38007,69.6941484 C192.436062,70.806 193.952,72.066 193.952,75.09 C193.952,78.546 191.504,80.922 186.5,80.922 C183.882957,80.922 181.529414,80.1644348 179.565395,78.5232822 L179.3,78.294 L182.216,74.334 C183.728,75.666 185.276,76.314 186.608,76.314 C187.508,76.314 187.94,76.062 187.94,75.594 L187.935539,75.503449 C187.921252,75.3703776 187.868708,75.2484643 187.722914,75.1209719 L187.6113,75.0349668 L187.544,74.991 L187.384152,74.900449 C187.324956,74.8695918 187.259647,74.838 187.187621,74.8054898 L186.950787,74.7050204 L186.670029,74.5979388 L186.341726,74.4831429 L185.962257,74.3595306 L185.059533,74.0840207 L184.599033,73.9302321 C182.015856,73.0233407 179.912,71.4975789 179.912,68.502 C179.912,64.614 183.008,62.562 186.68,62.562 Z M112.044,55.002 C117.912,55.002 120.504,57.414 120.504,61.23 C120.504,63.2547273 119.759273,65.482562 116.858324,66.6989627 L116.58,66.81 L116.58,66.882 C120.576,67.926 121.836,70.374 121.836,73.362 C121.836,77.4606667 119.269753,80.4496049 113.694781,80.5589008 L113.376,80.562 L102,80.562 L102,55.002 L112.044,55.002 Z M129.744,63 L129.744,80.562 L123.3,80.562 L123.3,63 L129.744,63 Z M138.244,63 L138.244,80.562 L131.8,80.562 L131.8,63 L138.244,63 Z M151.784,62.562 C155.282,62.562 157.947704,64.1225556 158.045234,69.5922064 L158.048,69.906 L158.048,80.562 L151.604,80.562 L151.604,71.454 C151.604,68.934 150.884,68.25 149.3,68.25 C147.805379,68.25 146.814159,69.2232414 146.747577,71.4613494 L146.744,71.706 L146.744,80.562 L140.3,80.562 L140.3,63 L146.744,63 L146.744,64.794 L146.816,64.794 C148.112,63.282 149.876,62.562 151.784,62.562 Z M112.148,70.086 L108.62,70.086 L108.62,74.694 L112.148,74.694 C113.804,74.694 114.74,73.866 114.74,72.354 C114.74,70.9716 113.877382,70.1532192 112.34325,70.0899606 L112.148,70.086 Z M168.948,68.25 C167.184,68.25 165.816,69.546 165.816,71.418 C165.816,73.29 167.184,74.55 168.948,74.55 C170.676,74.55 172.044,73.29 172.044,71.418 C172.044,69.546 170.676,68.25 168.948,68.25 Z M110.996,60.942 L108.62,60.942 L108.62,65.082 L111.392,65.082 C112.976,65.082 113.732,64.326 113.732,63.03 C113.732,61.8482069 113.262159,61.0020143 111.220783,60.9450614 L110.996,60.942 Z M126.55,54 C128.482997,54 130.05,55.5670034 130.05,57.5 C130.05,59.4329966 128.482997,61 126.55,61 C124.617003,61 123.05,59.4329966 123.05,57.5 C123.05,55.5670034 124.617003,54 126.55,54 Z M135.05,54 C136.982997,54 138.55,55.5670034 138.55,57.5 C138.55,59.4329966 136.982997,61 135.05,61 C133.117003,61 131.55,59.4329966 131.55,57.5 C131.55,55.5670034 133.117003,54 135.05,54 Z"/>
    <path fill="#FFF" d="M79.5161169,69.32606 C79.5161169,69.7753533 79.4319218,72.3125417 79.2635315,76.9376251 C79.2504451,77.3319807 79.0160404,77.5248367 78.7799014,77.5934885 C77.5833936,77.9413444 76.3697253,78.2311052 75.3614628,78.3872976 L74.9934274,78.4394613 L74.242472,78.5276729 C74.1080978,78.542296 73.9723015,78.5505544 73.8355595,78.5528612 C73.6554751,78.5560074 73.3574882,78.403442 73.3417652,77.9610301 C73.1371771,72.6536767 73.034883,69.7753533 73.034883,69.32606 C73.034883,68.6521199 73.6509999,67.6999961 76.2754999,67.6999961 C78.9,67.6999961 79.5161169,68.6521199 79.5161169,69.32606 Z M69.5598141,70.111458 C69.7261847,70.111458 69.8737363,70.1186153 70.0014802,70.1293512 L70.230265,70.1545342 L70.4044718,70.1828982 L70.5896752,70.2259744 C70.8014014,70.2736654 70.9791113,70.4905435 70.9862662,70.7005406 L71.2181972,77.507815 C71.2459164,77.9687283 70.945774,78.0129795 70.7959581,77.9455426 L70.7619126,77.926533 C69.7243317,77.4091518 68.8194095,76.6065822 68.2915804,75.6527474 L68.1765789,75.4300074 L67.8509568,74.7410629 C67.5707638,74.0994523 67.2763157,73.3149959 66.9971287,72.4747436 L66.8589436,72.0503709 C66.8381786,71.9953661 66.8216192,71.8963549 66.8092654,71.7533371 C66.8,71.6460738 66.7976837,71.5671176 66.8023163,71.5164685 L66.8092654,71.4752552 L66.8141638,71.4200004 L66.8257976,71.3563968 L66.8484529,71.2736665 C66.8533513,71.2584867 66.858862,71.2426616 66.8650616,71.2262674 L66.9111375,71.1216781 C67.1148819,70.7175901 67.7261149,70.111458 69.5598141,70.111458 Z M82.8517522,70.111458 C84.6854514,70.111458 85.2966844,70.7175901 85.5004288,71.1216781 L85.5465047,71.2262674 L85.5760484,71.3171948 L85.5974025,71.4200004 L85.6275723,71.7228142 L85.6523891,72.0607463 L85.6653488,72.3398141 C85.6670162,72.3890729 85.6683865,72.4395378 85.6693838,72.4909576 L85.670282,72.8089229 C85.6614893,73.4054922 85.5891439,74.0567656 85.3519905,74.4281901 C84.8816036,75.1648999 84.2926771,75.5661446 83.6569731,75.8884962 L83.4649304,75.9830915 L82.7760167,76.3087282 L82.5250573,76.4134452 L82.0391944,76.6050277 L81.6380492,76.7586977 C81.3909064,76.8525391 81.2991227,76.6998771 81.2660616,76.5456747 L81.2507663,76.4335616 L81.25,76.2994637 L81.4486923,70.7040703 C81.4554233,70.514517 81.5892346,70.3262376 81.7609235,70.2504159 L81.8657375,70.2167101 L82.0170744,70.1823716 L82.1879777,70.1542166 C82.2210478,70.1496119 82.2563949,70.1451387 82.2939945,70.1409286 L82.5464275,70.1198782 C82.6394521,70.1146156 82.741292,70.111458 82.8517522,70.111458 Z M69.925,68.25 C71.0986051,68.25 72.05,67.2986051 72.05,66.125 C72.05,64.9513949 71.0986051,64 69.925,64 C68.7513949,64 67.8,64.9513949 67.8,66.125 C67.8,67.2986051 68.7513949,68.25 69.925,68.25 Z M82.625,68.25 C83.7986051,68.25 84.75,67.2986051 84.75,66.125 C84.75,64.9513949 83.7986051,64 82.625,64 C81.4513949,64 80.5,64.9513949 80.5,66.125 C80.5,67.2986051 81.4513949,68.25 82.625,68.25 Z M76.25,65.75 C77.7687831,65.75 79,64.5187831 79,63 C79,61.4812169 77.7687831,60.25 76.25,60.25 C74.7312169,60.25 73.5,61.4812169 73.5,63 C73.5,64.5187831 74.7312169,65.75 76.25,65.75 Z"/>
  </g>
</svg>
