<?xml version="1.0" encoding="UTF-8"?>
<svg width="182px" height="49px" viewBox="0 0 182 49" version="1.1" xmlns="http://www.w3.org/2000/svg" xmlns:xlink="http://www.w3.org/1999/xlink">
    <!-- Generator: Sketch 54.1 (76490) - https://sketchapp.com -->
    <title>Group 2</title>
    <desc>Created with Sketch.</desc>
    <g id="V3" stroke="none" stroke-width="1" fill="none" fill-rule="evenodd">
        <g id="Logo-Design-System" transform="translate(-32.000000, -46.000000)">
            <g id="Group-2" transform="translate(32.708914, 46.378102)" fill="#312A43">
                <path d="M17.6278947,2.03500861 C34.3347528,-2.9772821 41.5745987,0.921036625 46.5868894,17.6278947 C51.5991801,34.3347528 47.7008614,41.5745987 30.9940033,46.5868894 C14.2871452,51.5991801 7.04729933,47.7008614 2.03500861,30.9940033 C-2.9772821,14.2871452 0.921036625,7.04729933 17.6278947,2.03500861 Z" id="Shape-Copy"></path>
                <path d="M61.9480863,36.7262193 L61.9480863,7.61621931 L71.5830863,7.61621931 C80.8080863,7.61621931 86.7120863,13.6022193 86.7120863,22.2122193 C86.7120863,30.7812193 81.0540863,36.7262193 71.7060863,36.7262193 L61.9480863,36.7262193 Z M67.6470863,31.6012193 L71.3370863,31.6012193 C76.9950863,31.6012193 80.6850863,27.5422193 80.6850863,22.2122193 C80.6850863,16.7592193 76.9540863,12.7412193 71.6650863,12.7412193 L67.6470863,12.7412193 L67.6470863,31.6012193 Z M108.59242,26.5172193 C108.59242,27.1732193 108.51042,28.1162193 108.46942,28.4442193 L94.4064195,28.4442193 C95.0624195,30.8632193 96.9894195,32.2982193 99.6954195,32.2982193 C101.95042,32.2982193 103.50842,31.3552193 104.57442,30.0432193 L108.05942,33.2822193 C106.37842,35.4552193 103.79542,37.0952193 99.3264195,37.0952193 C93.1764195,37.0952193 88.8304195,32.9542193 88.8304195,26.6812193 C88.8304195,20.5722193 93.0534195,16.3902193 98.9984195,16.3902193 C104.65642,16.3902193 108.59242,20.6542193 108.59242,26.5172193 Z M98.9574195,21.0642193 C96.7844195,21.0642193 95.0624195,22.2942193 94.4474195,24.5902193 L103.26242,24.5902193 C102.72942,22.4582193 101.29442,21.0642193 98.9574195,21.0642193 Z M117.885753,37.0952193 C114.687753,37.0952193 111.940753,36.0292193 109.767753,34.1432193 L112.350753,30.4122193 C113.990753,31.9292193 115.712753,32.7082193 117.926753,32.7082193 C119.484753,32.7082193 120.345753,32.0522193 120.345753,31.0682193 C120.345753,30.2072193 119.320753,29.7562193 116.737753,28.8952193 C113.416753,27.7882193 110.546753,26.2302193 110.546753,22.3352193 C110.546753,18.7272193 113.662753,16.3902193 117.803753,16.3902193 C120.550753,16.3902193 122.805753,17.1282193 125.101753,18.8912193 L122.477753,22.8682193 C120.960753,21.3922193 119.156753,20.7362193 117.680753,20.7362193 C116.860753,20.7362193 115.794753,21.1462193 115.794753,22.2122193 C115.794753,23.0322193 116.778753,23.6062193 118.746753,24.3442193 C123.092753,25.9432193 125.634753,26.8862193 125.634753,30.8632193 C125.634753,34.3892193 123.133753,37.0952193 117.885753,37.0952193 Z M131.279086,13.9712193 C129.311086,13.9712193 127.876086,12.4952193 127.876086,10.6502193 C127.876086,8.84621931 129.311086,7.37021931 131.279086,7.37021931 C133.206086,7.37021931 134.682086,8.84621931 134.682086,10.6502193 C134.682086,12.4952193 133.206086,13.9712193 131.279086,13.9712193 Z M128.532086,36.7262193 L128.532086,16.6772193 L133.903086,16.6772193 L133.903086,36.7262193 L128.532086,36.7262193 Z M147.173419,45.1722193 C144.098419,45.1722193 141.351419,44.5162193 138.973419,43.1632193 L140.244419,38.6122193 C142.212419,39.7192193 144.139419,40.4982193 146.763419,40.4982193 C150.494419,40.4982193 152.380419,38.4482193 152.380419,36.0702193 L152.380419,34.0612193 L152.298419,34.0612193 C150.863419,35.5372193 148.854419,36.3572193 146.476419,36.3572193 C140.982419,36.3572193 136.923419,32.3392193 136.923419,26.5172193 C136.923419,20.6132193 140.859419,16.3902193 146.189419,16.3902193 C148.403419,16.3902193 150.576419,17.1692193 152.216419,18.7682193 L152.298419,18.7682193 L152.298419,16.6772193 L157.669419,16.6772193 L157.669419,34.4302193 C157.669419,40.7032193 154.922419,45.1722193 147.173419,45.1722193 Z M147.460419,31.5192193 C150.412419,31.5192193 152.503419,29.3462193 152.503419,26.3122193 C152.503419,23.2782193 150.330419,21.2282193 147.460419,21.2282193 C144.467419,21.2282193 142.376419,23.3192193 142.376419,26.3532193 C142.376419,29.5102193 144.590419,31.5192193 147.460419,31.5192193 Z M161.427752,36.7262193 L161.427752,16.6772193 L166.798752,16.6772193 L166.798752,19.2602193 L166.880752,19.2602193 C168.479752,17.3742193 170.775752,16.3902193 173.276752,16.3902193 C177.540752,16.3902193 180.533752,18.6862193 180.533752,24.8362193 L180.533752,36.7262193 L175.162752,36.7262193 L175.162752,26.1892193 C175.162752,22.3762193 173.809752,21.1872193 171.308752,21.1872193 C168.602752,21.1872193 166.798752,23.0732193 166.798752,26.6812193 L166.798752,36.7262193 L161.427752,36.7262193 Z" id="Design" fill-rule="nonzero"></path>
            </g>
            <path d="M45.9445952,73.9523108 L45.8810278,73.2164366 C45.8810278,73.2164366 45.8810278,71.4714279 49.4005776,71.4714259 C50.252116,71.4714255 50.8976287,71.5735738 51.3869627,71.7284421 L51.7456358,81.8202407 C49.9826116,81.16912 48.3947988,79.8695029 47.6306162,78.2766356 L47.2139564,77.3951148 C46.7956718,76.4373329 46.3525598,75.2307744 45.9445952,73.9523108 L45.9445952,73.9523108 Z" id="Path-Copy" fill="#FFFFFF"></path>
            <path d="M68.5456326,76.9947868 L68.865925,73.2164366 C68.865925,73.2164366 68.865925,71.471424 65.3463752,71.4714259 C64.4983182,71.4714264 63.8546056,71.5727417 63.3659996,71.726547 L63.3659996,71.726547 L63.0837004,80.2426645 C63.8798541,79.9627569 64.618622,79.6764829 65.2494655,79.4009796 L66.1309863,78.9843198 C67.0379226,78.5492144 67.8661886,77.8460427 68.5456326,76.9947868 L68.5456326,76.9947868 Z" id="Path-Copy-2" fill="#FFFFFF"></path>
            <path d="M61.1749494,80.8672545 L61.5201082,70.4664906 C61.5201082,70.4664906 61.5201082,68.4105672 57.3734764,68.4105695 C53.2268447,68.4105718 53.2268447,70.4664906 53.2268447,70.4664906 L53.6456927,82.2513977 C54.0255098,82.2829749 54.4029736,82.2803344 54.7720526,82.2401719 L55.7329608,82.127303 C57.2644632,81.9319516 59.2662547,81.4482561 61.1749494,80.8672545 L61.1749494,80.8672545 Z" id="Path-Copy-3" fill="#FFFFFF"></path>
            <path d="M49.1979974,70.0230659 C50.5338331,70.0230659 51.6167419,68.940157 51.6167419,67.6043213 C51.6167419,66.2684856 50.5338331,65.1855767 49.1979974,65.1855767 C47.8621616,65.1855767 46.7792528,66.2684856 46.7792528,67.6043213 C46.7792528,68.940157 47.8621616,70.0230659 49.1979974,70.0230659 L49.1979974,70.0230659 Z" id="Path-Copy-4" fill="#FFFFFF"></path>
            <path d="M65.4973407,70.0230659 C66.8331765,70.0230659 67.9160853,68.940157 67.9160853,67.6043213 C67.9160853,66.2684856 66.8331765,65.1855767 65.4973407,65.1855767 C64.161505,65.1855767 63.0785962,66.2684856 63.0785962,67.6043213 C63.0785962,68.940157 64.161505,70.0230659 65.4973407,70.0230659 L65.4973407,70.0230659 Z" id="Path-Copy-5" fill="#FFFFFF"></path>
            <path d="M57.3464721,66.1793679 C59.1770618,66.1793679 60.661048,64.6953818 60.661048,62.864792 C60.661048,61.0342023 59.1770618,59.5502161 57.3464721,59.5502161 C55.5158824,59.5502161 54.0318962,61.0342023 54.0318962,62.864792 C54.0318962,64.6953818 55.5158824,66.1793679 57.3464721,66.1793679 L57.3464721,66.1793679 Z" id="Path-Copy-6" fill="#FFFFFF"></path>
        </g>
    </g>
</svg>