<svg xmlns="http://www.w3.org/2000/svg" width="84" height="39" viewBox="0 0 84 39">
  <g fill="none" fill-rule="evenodd" transform="translate(-84 -51)">
    <path fill="#8C50B9" fill-rule="nonzero" d="M119.118077,60.3122362 L119.404057,60.9824489 L119.544549,61.3274022 L119.803873,61.9925369 L119.931493,62.3338577 L120.182819,63.0340977 L120.429152,63.7579239 L120.670764,64.5054826 L120.907926,65.27692 L121.023348,65.6664188 L121.241584,66.4322342 C121.27655,66.5584167 121.31081,66.6838763 121.344362,66.8086187 L121.537145,67.5485111 L121.627113,67.9120868 L121.794114,68.6266673 C123.90531,78.0435691 121.384278,83.0510994 112.671336,86.546119 L112.006231,86.8054548 C111.555055,86.976515 111.088302,87.143975 110.605777,87.3081969 L109.870136,87.5521465 L108.917092,87.8506667 L107.947437,88.136215 L107.190365,88.3460126 C106.940891,88.4131189 106.694286,88.4773909 106.450505,88.5388041 L105.727588,88.7144434 C105.346815,88.8034444 104.973143,88.8850769 104.606387,88.9592413 L103.882041,89.0975829 C95.4184371,90.6160969 90.7594982,87.9144363 87.4537486,79.6725978 L87.1944245,79.0074631 L87.0668044,78.6661423 L86.8154785,77.9659023 C86.7740145,77.8472342 86.7327585,77.7275833 86.6917049,77.6069467 L86.4477663,76.8712725 L86.2084131,76.1117927 L85.9749492,75.3335812 L85.7567132,74.5677658 C85.6518161,74.1892183 85.5532685,73.8171769 85.4611528,73.4514889 L85.2855214,72.7285391 C83.0030945,62.9627606 85.5669191,57.8676221 94.6566028,54.3235211 L95.3333723,54.0669194 C95.6776047,53.9399573 96.0306267,53.8149695 96.3925205,53.6918031 L97.1281617,53.4478535 L97.5048999,53.3276154 L98.2763027,53.0904424 L99.0508602,52.863785 L99.8079328,52.6539874 C100.057406,52.5868811 100.304011,52.5226091 100.547792,52.4611959 L101.27071,52.2855566 L102.022843,52.1174088 C110.812344,50.244617 115.693597,52.536225 119.118077,60.3122362 Z M160.73,64.18 C162.8504,64.18 164.77586,64.73233 166.629842,66.145645 L166.922,66.376 L164.906,69.544 C163.502,68.212 161.882,67.672 160.514,67.672 C159.722,67.672 158.606,68.104 158.606,69.184 C158.606,69.9301818 159.411537,70.488405 160.721145,71.0441871 L161.15111,71.2198325 L162.92857,71.9163985 L163.402295,72.1082832 L163.853366,72.2988893 L164.281133,72.4907239 C166.291304,73.4249328 167.462,74.4900488 167.462,76.96 C167.462,79.912 165.374,82.288 160.91,82.288 C158.189652,82.288 155.864556,81.4316219 154.060733,79.9394046 L153.818,79.732 L155.834,76.708 C157.238,78.076 158.75,78.76 160.91,78.76 C162.458,78.76 163.358,78.076 163.358,77.032 C163.358,76.384 162.760803,75.9786112 161.56641,75.5067843 L161.14616,75.346624 L160.681674,75.1789988 L159.902,74.908 L159.450858,74.7461758 L159.008125,74.5779274 C156.526576,73.6032244 154.538,72.2402105 154.538,69.148 C154.538,66.268 157.13,64.18 160.73,64.18 Z M138.938,56.44 C147.038,56.44 152.222,61.696 152.222,69.256 C152.222,76.6709565 147.396957,81.8482117 139.400823,81.9967197 L139.046,82 L130.802,82 L130.802,56.44 L138.938,56.44 Z M139.01,60.328 L135.158,60.328 L135.158,78.112 L138.794,78.112 C144.194,78.112 147.722,74.332 147.722,69.256 C147.722,64.1645714 144.284149,60.4621735 139.284259,60.3315685 L139.01,60.328 Z"/>
    <path fill="#FFF" d="M107.016117,70.82606 C107.016117,71.2753533 106.931922,73.8125417 106.763532,78.4376251 C106.750445,78.8319807 106.51604,79.0248367 106.279901,79.0934885 C105.083394,79.4413444 103.869725,79.7311052 102.861463,79.8872976 L102.493427,79.9394613 L101.742472,80.0276729 C101.608098,80.042296 101.472301,80.0505544 101.33556,80.0528612 C101.155475,80.0560074 100.857488,79.903442 100.841765,79.4610301 C100.637177,74.1536767 100.534883,71.2753533 100.534883,70.82606 C100.534883,70.1521199 101.151,69.1999961 103.7755,69.1999961 C106.4,69.1999961 107.016117,70.1521199 107.016117,70.82606 Z M97.0598141,71.611458 C97.2261847,71.611458 97.3737363,71.6186153 97.5014802,71.6293512 L97.730265,71.6545342 L97.9044718,71.6828982 L98.0896752,71.7259744 C98.3014014,71.7736654 98.4791113,71.9905435 98.4862662,72.2005406 L98.7181972,79.007815 C98.7459164,79.4687283 98.445774,79.5129795 98.2959581,79.4455426 L98.2619126,79.426533 C97.2243317,78.9091518 96.3194095,78.1065822 95.7915804,77.1527474 L95.6765789,76.9300074 L95.3509568,76.2410629 C95.0707638,75.5994523 94.7763157,74.8149959 94.4971287,73.9747436 L94.3589436,73.5503709 C94.3381786,73.4953661 94.3216192,73.3963549 94.3092654,73.2533371 C94.3,73.1460738 94.2976837,73.0671176 94.3023163,73.0164685 L94.3092654,72.9752552 L94.3141638,72.9200004 L94.3257976,72.8563968 L94.3484529,72.7736665 C94.3533513,72.7584867 94.358862,72.7426616 94.3650616,72.7262674 L94.4111375,72.6216781 C94.6148819,72.2175901 95.2261149,71.611458 97.0598141,71.611458 Z M110.351752,71.611458 C112.185451,71.611458 112.796684,72.2175901 113.000429,72.6216781 L113.046505,72.7262674 L113.076048,72.8171948 L113.097403,72.9200004 L113.127572,73.2228142 L113.152389,73.5607463 L113.165349,73.8398141 C113.167016,73.8890729 113.168387,73.9395378 113.169384,73.9909576 L113.170282,74.3089229 C113.161489,74.9054922 113.089144,75.5567656 112.851991,75.9281901 C112.381604,76.6648999 111.792677,77.0661446 111.156973,77.3884962 L110.96493,77.4830915 L110.276017,77.8087282 L110.025057,77.9134452 L109.539194,78.1050277 L109.138049,78.2586977 C108.890906,78.3525391 108.799123,78.1998771 108.766062,78.0456747 L108.750766,77.9335616 L108.75,77.7994637 L108.948692,72.2040703 C108.955423,72.014517 109.089235,71.8262376 109.260924,71.7504159 L109.365738,71.7167101 L109.517074,71.6823716 L109.687978,71.6542166 C109.721048,71.6496119 109.756395,71.6451387 109.793994,71.6409286 L110.046428,71.6198782 C110.139452,71.6146156 110.241292,71.611458 110.351752,71.611458 Z M97.425,69.75 C98.5986051,69.75 99.55,68.7986051 99.55,67.625 C99.55,66.4513949 98.5986051,65.5 97.425,65.5 C96.2513949,65.5 95.3,66.4513949 95.3,67.625 C95.3,68.7986051 96.2513949,69.75 97.425,69.75 Z M110.125,69.75 C111.298605,69.75 112.25,68.7986051 112.25,67.625 C112.25,66.4513949 111.298605,65.5 110.125,65.5 C108.951395,65.5 108,66.4513949 108,67.625 C108,68.7986051 108.951395,69.75 110.125,69.75 Z M103.75,67.25 C105.268783,67.25 106.5,66.0187831 106.5,64.5 C106.5,62.9812169 105.268783,61.75 103.75,61.75 C102.231217,61.75 101,62.9812169 101,64.5 C101,66.0187831 102.231217,67.25 103.75,67.25 Z"/>
  </g>
</svg>
