<svg xmlns="http://www.w3.org/2000/svg" width="182" height="49" viewBox="0 0 182 49">
  <g fill="none" fill-rule="evenodd" transform="translate(-32 -46)">
    <path fill="#312A43" fill-rule="nonzero" d="M0.948086311,29.7262193 L0.948086311,0.616219307 L10.5830863,0.616219307 C19.8080863,0.616219307 25.7120863,6.60221931 25.7120863,15.2122193 C25.7120863,23.7812193 20.0540863,29.7262193 10.7060863,29.7262193 L0.948086311,29.7262193 Z M6.64708631,24.6012193 L10.3370863,24.6012193 C15.9950863,24.6012193 19.6850863,20.5422193 19.6850863,15.2122193 C19.6850863,9.75921931 15.9540863,5.74121931 10.6650863,5.74121931 L6.64708631,5.74121931 L6.64708631,24.6012193 Z M47.5924195,19.5172193 C47.5924195,20.1732193 47.5104195,21.1162193 47.4694195,21.4442193 L33.4064195,21.4442193 C34.0624195,23.8632193 35.9894195,25.2982193 38.6954195,25.2982193 C40.9504195,25.2982193 42.5084195,24.3552193 43.5744195,23.0432193 L47.0594195,26.2822193 C45.3784195,28.4552193 42.7954195,30.0952193 38.3264195,30.0952193 C32.1764195,30.0952193 27.8304195,25.9542193 27.8304195,19.6812193 C27.8304195,13.5722193 32.0534195,9.39021931 37.9984195,9.39021931 C43.6564195,9.39021931 47.5924195,13.6542193 47.5924195,19.5172193 Z M37.9574195,14.0642193 C35.7844195,14.0642193 34.0624195,15.2942193 33.4474195,17.5902193 L42.2624195,17.5902193 C41.7294195,15.4582193 40.2944195,14.0642193 37.9574195,14.0642193 Z M56.8857527,30.0952193 C53.6877527,30.0952193 50.9407527,29.0292193 48.7677527,27.1432193 L51.3507527,23.4122193 C52.9907527,24.9292193 54.7127527,25.7082193 56.9267527,25.7082193 C58.4847527,25.7082193 59.3457527,25.0522193 59.3457527,24.0682193 C59.3457527,23.2072193 58.3207527,22.7562193 55.7377527,21.8952193 C52.4167527,20.7882193 49.5467527,19.2302193 49.5467527,15.3352193 C49.5467527,11.7272193 52.6627527,9.39021931 56.8037527,9.39021931 C59.5507527,9.39021931 61.8057527,10.1282193 64.1017527,11.8912193 L61.4777527,15.8682193 C59.9607527,14.3922193 58.1567527,13.7362193 56.6807527,13.7362193 C55.8607527,13.7362193 54.7947527,14.1462193 54.7947527,15.2122193 C54.7947527,16.0322193 55.7787527,16.6062193 57.7467527,17.3442193 C62.0927527,18.9432193 64.6347527,19.8862193 64.6347527,23.8632193 C64.6347527,27.3892193 62.1337527,30.0952193 56.8857527,30.0952193 Z M70.2790859,6.97121931 C68.3110859,6.97121931 66.8760859,5.49521931 66.8760859,3.65021931 C66.8760859,1.84621931 68.3110859,0.370219307 70.2790859,0.370219307 C72.2060859,0.370219307 73.6820859,1.84621931 73.6820859,3.65021931 C73.6820859,5.49521931 72.2060859,6.97121931 70.2790859,6.97121931 Z M67.5320859,29.7262193 L67.5320859,9.67721931 L72.9030859,9.67721931 L72.9030859,29.7262193 L67.5320859,29.7262193 Z M86.1734191,38.1722193 C83.0984191,38.1722193 80.3514191,37.5162193 77.9734191,36.1632193 L79.2444191,31.6122193 C81.2124191,32.7192193 83.1394191,33.4982193 85.7634191,33.4982193 C89.4944191,33.4982193 91.3804191,31.4482193 91.3804191,29.0702193 L91.3804191,27.0612193 L91.2984191,27.0612193 C89.8634191,28.5372193 87.8544191,29.3572193 85.4764191,29.3572193 C79.9824191,29.3572193 75.9234191,25.3392193 75.9234191,19.5172193 C75.9234191,13.6132193 79.8594191,9.39021931 85.1894191,9.39021931 C87.4034191,9.39021931 89.5764191,10.1692193 91.2164191,11.7682193 L91.2984191,11.7682193 L91.2984191,9.67721931 L96.6694191,9.67721931 L96.6694191,27.4302193 C96.6694191,33.7032193 93.9224191,38.1722193 86.1734191,38.1722193 Z M86.4604191,24.5192193 C89.4124191,24.5192193 91.5034191,22.3462193 91.5034191,19.3122193 C91.5034191,16.2782193 89.3304191,14.2282193 86.4604191,14.2282193 C83.4674191,14.2282193 81.3764191,16.3192193 81.3764191,19.3532193 C81.3764191,22.5102193 83.5904191,24.5192193 86.4604191,24.5192193 Z M100.427752,29.7262193 L100.427752,9.67721931 L105.798752,9.67721931 L105.798752,12.2602193 L105.880752,12.2602193 C107.479752,10.3742193 109.775752,9.39021931 112.276752,9.39021931 C116.540752,9.39021931 119.533752,11.6862193 119.533752,17.8362193 L119.533752,29.7262193 L114.162752,29.7262193 L114.162752,19.1892193 C114.162752,15.3762193 112.809752,14.1872193 110.308752,14.1872193 C107.602752,14.1872193 105.798752,16.0732193 105.798752,19.6812193 L105.798752,29.7262193 L100.427752,29.7262193 Z" transform="translate(93.709 53.378)"/>
    <path fill="#312A43" d="M50.3368084,48.4131106 C67.0436665,43.4008199 74.2835124,47.2991386 79.2958031,64.0059967 C84.3080938,80.7128548 80.4097751,87.9527007 63.702917,92.9649914 C46.9960589,97.9772821 39.756213,94.0789634 34.7439223,77.3721053 C29.7316316,60.6652472 33.6299503,53.4254013 50.3368084,48.4131106 Z"/>
    <path fill="#FFF" d="M45.8810278 73.2164366C45.8810278 73.2164366 45.8810278 71.4714279 49.4005776 71.4714259 50.252116 71.4714255 50.7183683 71.6179524 50.7183683 71.6179524 50.989289 71.6789742 51.2166833 71.9564748 51.2258385 72.2251711L51.550208 81.7451274C49.8659534 81.0723048 48.3664535 79.8104197 47.6306162 78.2766356L47.2139564 77.3951148C46.7956718 76.4373329 46.3525598 75.2307744 45.9445952 73.9523108L45.8810278 73.2164366zM68.865925 73.2164366C68.865925 73.2164366 68.865925 71.471424 65.3463752 71.4714259 64.4983182 71.4714264 64.047359 71.6168723 64.047359 71.6168723 63.783121 71.6774439 63.5608897 71.9525012 63.5510464 72.2296874L63.2689245 80.174196C63.7071623 80.0107284 64.7911496 79.6011362 65.2494655 79.4009796L66.1309863 78.9843198C67.0379226 78.5492144 67.8661886 77.8460427 68.5456326 76.9947868L68.865925 73.2164366zM61.1749494 80.8672545L61.5201082 70.4664906C61.5201082 70.4664906 61.5201082 68.4105672 57.3734764 68.4105695 53.2268447 68.4105718 53.2268447 70.4664906 53.2268447 70.4664906L53.6456927 82.2513977C54.0255098 82.2829749 54.4029736 82.2803344 54.7720526 82.2401719L55.7329608 82.127303C57.2644632 81.9319516 59.2662547 81.4482561 61.1749494 80.8672545L61.1749494 80.8672545zM49.1979974 70.0230659C50.5338331 70.0230659 51.6167419 68.940157 51.6167419 67.6043213 51.6167419 66.2684856 50.5338331 65.1855767 49.1979974 65.1855767 47.8621616 65.1855767 46.7792528 66.2684856 46.7792528 67.6043213 46.7792528 68.940157 47.8621616 70.0230659 49.1979974 70.0230659L49.1979974 70.0230659zM65.4973407 70.0230659C66.8331765 70.0230659 67.9160853 68.940157 67.9160853 67.6043213 67.9160853 66.2684856 66.8331765 65.1855767 65.4973407 65.1855767 64.161505 65.1855767 63.0785962 66.2684856 63.0785962 67.6043213 63.0785962 68.940157 64.161505 70.0230659 65.4973407 70.0230659L65.4973407 70.0230659zM57.3464721 66.1793679C59.1770618 66.1793679 60.661048 64.6953818 60.661048 62.864792 60.661048 61.0342023 59.1770618 59.5502161 57.3464721 59.5502161 55.5158824 59.5502161 54.0318962 61.0342023 54.0318962 62.864792 54.0318962 64.6953818 55.5158824 66.1793679 57.3464721 66.1793679L57.3464721 66.1793679z"/>
  </g>
</svg>
