<svg xmlns="http://www.w3.org/2000/svg" width="176" height="46" viewBox="0 0 176 46">
  <g fill="none" fill-rule="evenodd" transform="translate(-45 -46)">
    <rect width="27.676" height="27.676" x="53.867" y="56.617" fill="#FFF"/>
    <path fill="#46285D" d="M61.5675505,48.5425037 C76.9105834,43.9393796 83.5594215,47.5194682 88.1625456,62.8625012 C92.7656697,78.2055341 89.1855811,84.8543721 73.8425482,89.4574963 C58.4995152,94.0606204 51.8506772,90.4805318 47.247553,75.1374988 C42.6444289,59.7944659 46.2245175,53.1456279 61.5675505,48.5425037 Z M57.4755071,71.3210684 L57.5338853,71.9968713 C57.9085466,73.1709705 58.3154863,74.2790344 58.6996251,75.15863 L59.0822719,75.96819 C59.7580409,77.3767672 61.1351326,78.5356413 62.6818971,79.1535395 L62.385315,70.4491209 C62.3762113,70.1819351 62.1541167,69.9066517 61.8897066,69.8475748 C61.8897066,69.8475748 61.4897718,69.7185072 60.7077467,69.7185076 C57.4755071,69.7185076 57.4755071,71.3210684 57.4755071,71.3210684 Z M78.5840861,71.3210684 C78.5840861,71.3210684 78.5840861,69.7185076 75.3518465,69.7185076 C74.5730186,69.718508 74.200561,69.8438861 74.200561,69.8438861 C73.9348695,69.9040389 73.7115358,70.1766189 73.7014076,70.4618294 L73.4439836,77.7108475 C73.8464469,77.5607241 74.8419455,77.1845681 75.2628478,77.0007507 L76.0724077,76.618104 C76.9053084,76.2185174 77.6659609,75.5727475 78.28994,74.7909818 L78.5840861,71.3210684 Z M71.5209453,78.3473297 L71.8379278,68.7956078 C71.8379278,68.7956078 71.8379278,66.907517 68.0297966,66.907517 C64.2216654,66.907517 64.2216654,68.7956078 64.2216654,68.7956078 L64.6063218,79.6184816 C64.9551334,79.6474811 65.3017838,79.6450562 65.640734,79.6081722 L66.5232007,79.5045172 C67.9296824,79.3251128 69.7680624,78.8809027 71.5209453,78.3473297 L71.5209453,78.3473297 Z M60.5217036,68.388381 C61.7484915,68.388381 62.7429996,67.3938729 62.7429996,66.167085 C62.7429996,64.940297 61.7484915,63.9457889 60.5217036,63.9457889 C59.2949157,63.9457889 58.3004076,64.940297 58.3004076,66.167085 C58.3004076,67.3938729 59.2949157,68.388381 60.5217036,68.388381 Z M75.4904883,68.388381 C76.7172763,68.388381 77.7117844,67.3938729 77.7117844,66.167085 C77.7117844,64.940297 76.7172763,63.9457889 75.4904883,63.9457889 C74.2637004,63.9457889 73.2691923,64.940297 73.2691923,66.167085 C73.2691923,67.3938729 74.2637004,68.388381 75.4904883,68.388381 Z M68.0049967,64.8584543 C69.6861506,64.8584543 71.048995,63.4956099 71.048995,61.8144561 C71.048995,60.1333022 69.6861506,58.7704578 68.0049967,58.7704578 C66.3238429,58.7704578 64.9609985,60.1333022 64.9609985,61.8144561 C64.9609985,63.4956099 66.3238429,64.8584543 68.0049967,64.8584543 Z"/>
    <path fill="#46285D" fill-rule="nonzero" d="M102.157,81 L102.157,51.89 L111.792,51.89 C121.017,51.89 126.921,57.876 126.921,66.486 C126.921,75.055 121.263,81 111.915,81 L102.157,81 Z M107.856,75.875 L111.546,75.875 C117.204,75.875 120.894,71.816 120.894,66.486 C120.894,61.033 117.163,57.015 111.874,57.015 L107.856,57.015 L107.856,75.875 Z M148.668,70.791 C148.668,71.447 148.586,72.39 148.545,72.718 L134.482,72.718 C135.138,75.137 137.065,76.572 139.771,76.572 C142.026,76.572 143.584,75.629 144.65,74.317 L148.135,77.556 C146.454,79.729 143.871,81.369 139.402,81.369 C133.252,81.369 128.906,77.228 128.906,70.955 C128.906,64.846 133.129,60.664 139.074,60.664 C144.732,60.664 148.668,64.928 148.668,70.791 Z M139.033,65.338 C136.86,65.338 135.138,66.568 134.523,68.864 L143.338,68.864 C142.805,66.732 141.37,65.338 139.033,65.338 Z M157.828,81.369 C154.63,81.369 151.883,80.303 149.71,78.417 L152.293,74.686 C153.933,76.203 155.655,76.982 157.869,76.982 C159.427,76.982 160.288,76.326 160.288,75.342 C160.288,74.481 159.263,74.03 156.68,73.169 C153.359,72.062 150.489,70.504 150.489,66.609 C150.489,63.001 153.605,60.664 157.746,60.664 C160.493,60.664 162.748,61.402 165.044,63.165 L162.42,67.142 C160.903,65.666 159.099,65.01 157.623,65.01 C156.803,65.01 155.737,65.42 155.737,66.486 C155.737,67.306 156.721,67.88 158.689,68.618 C163.035,70.217 165.577,71.16 165.577,75.137 C165.577,78.663 163.076,81.369 157.828,81.369 Z M171.088,58.245 C169.12,58.245 167.685,56.769 167.685,54.924 C167.685,53.12 169.12,51.644 171.088,51.644 C173.015,51.644 174.491,53.12 174.491,54.924 C174.491,56.769 173.015,58.245 171.088,58.245 Z M168.341,81 L168.341,60.951 L173.712,60.951 L173.712,81 L168.341,81 Z M186.849,89.446 C183.774,89.446 181.027,88.79 178.649,87.437 L179.92,82.886 C181.888,83.993 183.815,84.772 186.439,84.772 C190.17,84.772 192.056,82.722 192.056,80.344 L192.056,78.335 L191.974,78.335 C190.539,79.811 188.53,80.631 186.152,80.631 C180.658,80.631 176.599,76.613 176.599,70.791 C176.599,64.887 180.535,60.664 185.865,60.664 C188.079,60.664 190.252,61.443 191.892,63.042 L191.974,63.042 L191.974,60.951 L197.345,60.951 L197.345,78.704 C197.345,84.977 194.598,89.446 186.849,89.446 Z M187.136,75.793 C190.088,75.793 192.179,73.62 192.179,70.586 C192.179,67.552 190.006,65.502 187.136,65.502 C184.143,65.502 182.052,67.593 182.052,70.627 C182.052,73.784 184.266,75.793 187.136,75.793 Z M200.97,81 L200.97,60.951 L206.341,60.951 L206.341,63.534 L206.423,63.534 C208.022,61.648 210.318,60.664 212.819,60.664 C217.083,60.664 220.076,62.96 220.076,69.11 L220.076,81 L214.705,81 L214.705,70.463 C214.705,66.65 213.352,65.461 210.851,65.461 C208.145,65.461 206.341,67.347 206.341,70.955 L206.341,81 L200.97,81 Z"/>
  </g>
</svg>
