<svg xmlns="http://www.w3.org/2000/svg" width="179" height="46" viewBox="0 0 179 46">
  <path fill="#2D223A" fill-rule="evenodd" d="M107.157,80.9105695 L107.157,51.8005695 L116.792,51.8005695 C126.017,51.8005695 131.921,57.7865695 131.921,66.3965695 C131.921,74.9655695 126.263,80.9105695 116.915,80.9105695 L107.157,80.9105695 Z M112.856,75.7855695 L116.546,75.7855695 C122.204,75.7855695 125.894,71.7265695 125.894,66.3965695 C125.894,60.9435695 122.163,56.9255695 116.874,56.9255695 L112.856,56.9255695 L112.856,75.7855695 Z M153.801333,70.7015695 C153.801333,71.3575695 153.719333,72.3005695 153.678333,72.6285695 L139.615333,72.6285695 C140.271333,75.0475695 142.198333,76.4825695 144.904333,76.4825695 C147.159333,76.4825695 148.717333,75.5395695 149.783333,74.2275695 L153.268333,77.4665695 C151.587333,79.6395695 149.004333,81.2795695 144.535333,81.2795695 C138.385333,81.2795695 134.039333,77.1385695 134.039333,70.8655695 C134.039333,64.7565695 138.262333,60.5745695 144.207333,60.5745695 C149.865333,60.5745695 153.801333,64.8385695 153.801333,70.7015695 Z M144.166333,65.2485695 C141.993333,65.2485695 140.271333,66.4785695 139.656333,68.7745695 L148.471333,68.7745695 C147.938333,66.6425695 146.503333,65.2485695 144.166333,65.2485695 Z M163.094666,81.2795695 C159.896666,81.2795695 157.149666,80.2135695 154.976666,78.3275695 L157.559666,74.5965695 C159.199666,76.1135695 160.921666,76.8925695 163.135666,76.8925695 C164.693666,76.8925695 165.554666,76.2365695 165.554666,75.2525695 C165.554666,74.3915695 164.529666,73.9405695 161.946666,73.0795695 C158.625666,71.9725695 155.755666,70.4145695 155.755666,66.5195695 C155.755666,62.9115695 158.871666,60.5745695 163.012666,60.5745695 C165.759666,60.5745695 168.014666,61.3125695 170.310666,63.0755695 L167.686666,67.0525695 C166.169666,65.5765695 164.365666,64.9205695 162.889666,64.9205695 C162.069666,64.9205695 161.003666,65.3305695 161.003666,66.3965695 C161.003666,67.2165695 161.987666,67.7905695 163.955666,68.5285695 C168.301666,70.1275695 170.843666,71.0705695 170.843666,75.0475695 C170.843666,78.5735695 168.342666,81.2795695 163.094666,81.2795695 Z M176.487999,58.1555695 C174.519999,58.1555695 173.084999,56.6795695 173.084999,54.8345695 C173.084999,53.0305695 174.519999,51.5545695 176.487999,51.5545695 C178.414999,51.5545695 179.890999,53.0305695 179.890999,54.8345695 C179.890999,56.6795695 178.414999,58.1555695 176.487999,58.1555695 Z M173.740999,80.9105695 L173.740999,60.8615695 L179.111999,60.8615695 L179.111999,80.9105695 L173.740999,80.9105695 Z M192.382332,89.3565695 C189.307332,89.3565695 186.560332,88.7005695 184.182332,87.3475695 L185.453332,82.7965695 C187.421332,83.9035695 189.348332,84.6825695 191.972332,84.6825695 C195.703332,84.6825695 197.589332,82.6325695 197.589332,80.2545695 L197.589332,78.2455695 L197.507332,78.2455695 C196.072332,79.7215695 194.063332,80.5415695 191.685332,80.5415695 C186.191332,80.5415695 182.132332,76.5235695 182.132332,70.7015695 C182.132332,64.7975695 186.068332,60.5745695 191.398332,60.5745695 C193.612332,60.5745695 195.785332,61.3535695 197.425332,62.9525695 L197.507332,62.9525695 L197.507332,60.8615695 L202.878332,60.8615695 L202.878332,78.6145695 C202.878332,84.8875695 200.131332,89.3565695 192.382332,89.3565695 Z M192.669332,75.7035695 C195.621332,75.7035695 197.712332,73.5305695 197.712332,70.4965695 C197.712332,67.4625695 195.539332,65.4125695 192.669332,65.4125695 C189.676332,65.4125695 187.585332,67.5035695 187.585332,70.5375695 C187.585332,73.6945695 189.799332,75.7035695 192.669332,75.7035695 Z M206.636665,80.9105695 L206.636665,60.8615695 L212.007665,60.8615695 L212.007665,63.4445695 L212.089665,63.4445695 C213.688665,61.5585695 215.984665,60.5745695 218.485665,60.5745695 C222.749665,60.5745695 225.742665,62.8705695 225.742665,69.0205695 L225.742665,80.9105695 L220.371665,80.9105695 L220.371665,70.3735695 C220.371665,66.5605695 219.018665,65.3715695 216.517665,65.3715695 C213.811665,65.3715695 212.007665,67.2575695 212.007665,70.8655695 L212.007665,80.9105695 L206.636665,80.9105695 Z M63.6888829,48.5425037 C79.0319158,43.9393796 85.6807539,47.5194682 90.283878,62.8625012 C94.8870021,78.2055341 91.3069135,84.8543721 75.9638806,89.4574963 C60.6208476,94.0606204 53.9720096,90.4805318 49.3688855,75.1374988 C44.7657613,59.7944659 48.34585,53.1456279 63.6888829,48.5425037 Z M59.5968395,71.3210684 L59.6552177,71.9968713 C60.029879,73.1709705 60.4368187,74.2790344 60.8209576,75.15863 L61.2036043,75.96819 C61.8793733,77.3767672 63.2564651,78.5356413 64.8032295,79.1535395 L64.5066475,70.4491209 C64.4975438,70.1819351 64.2754491,69.9066517 64.011039,69.8475748 C64.011039,69.8475748 63.6111042,69.7185072 62.8290791,69.7185076 C59.5968395,69.7185076 59.5968395,71.3210684 59.5968395,71.3210684 Z M80.7054186,71.3210684 C80.7054186,71.3210684 80.7054186,69.7185076 77.4731789,69.7185076 C76.694351,69.718508 76.3218934,69.8438861 76.3218934,69.8438861 C76.0562019,69.9040389 75.8328683,70.1766189 75.82274,70.4618294 L75.565316,77.7108475 C75.9677793,77.5607241 76.9632779,77.1845681 77.3841802,77.0007507 L78.1937401,76.618104 C79.0266409,76.2185174 79.7872933,75.5727475 80.4112724,74.7909818 L80.7054186,71.3210684 Z M73.6422777,78.3473297 L73.9592602,68.7956078 C73.9592602,68.7956078 73.9592602,66.907517 70.151129,66.907517 C66.3429979,66.907517 66.3429979,68.7956078 66.3429979,68.7956078 L66.7276542,79.6184816 C67.0764658,79.6474811 67.4231162,79.6450562 67.7620664,79.6081722 L68.6445331,79.5045172 C70.0510148,79.3251128 71.8893948,78.8809027 73.6422777,78.3473297 Z M62.643036,68.388381 C63.869824,68.388381 64.8643321,67.3938729 64.8643321,66.167085 C64.8643321,64.940297 63.869824,63.9457889 62.643036,63.9457889 C61.4162481,63.9457889 60.42174,64.940297 60.42174,66.167085 C60.42174,67.3938729 61.4162481,68.388381 62.643036,68.388381 Z M77.6118208,68.388381 C78.8386087,68.388381 79.8331168,67.3938729 79.8331168,66.167085 C79.8331168,64.940297 78.8386087,63.9457889 77.6118208,63.9457889 C76.3850328,63.9457889 75.3905247,64.940297 75.3905247,66.167085 C75.3905247,67.3938729 76.3850328,68.388381 77.6118208,68.388381 Z M70.1263292,64.8584543 C71.807483,64.8584543 73.1703274,63.4956099 73.1703274,61.8144561 C73.1703274,60.1333022 71.807483,58.7704578 70.1263292,58.7704578 C68.4451753,58.7704578 67.0823309,60.1333022 67.0823309,61.8144561 C67.0823309,63.4956099 68.4451753,64.8584543 70.1263292,64.8584543 Z" transform="translate(-47 -46)"/>
</svg>
