<?xml version="1.0" encoding="UTF-8"?>
<svg width="200px" height="54px" viewBox="0 0 200 54" version="1.1" xmlns="http://www.w3.org/2000/svg" xmlns:xlink="http://www.w3.org/1999/xlink">
    <!-- Generator: Sketch 54.1 (76490) - https://sketchapp.com -->
    <title>Group</title>
    <desc>Created with Sketch.</desc>
    <g id="V3" stroke="none" stroke-width="1" fill="none" fill-rule="evenodd">
        <g id="Logo-Design-System" transform="translate(-16.000000, -41.000000)">
            <g id="Group" transform="translate(19.000000, 43.000000)" fill="#1E162B">
                <path d="M18.1275263,2.09268735 C0.947141784,7.24704261 -3.06166792,14.6920892 2.09268735,31.8724737 C7.24704261,49.0528582 14.6920892,53.0616679 31.8724737,47.9073127 C49.0528582,42.7529574 53.0616679,35.3079108 47.9073127,18.1275263 C42.7529574,0.947141784 35.3079108,-3.06166792 18.1275263,2.09268735 Z" id="Rectangle-16-Copy-8"></path>
                <path d="M67.311,38 L67.311,7.47 L77.416,7.47 C87.091,7.47 93.283,13.748 93.283,22.778 C93.283,31.765 87.349,38 77.545,38 L67.311,38 Z M73.288,32.625 L77.158,32.625 C83.092,32.625 86.962,28.368 86.962,22.778 C86.962,17.059 83.049,12.845 77.502,12.845 L73.288,12.845 L73.288,32.625 Z M116.664,27.293 C116.664,27.981 116.578,28.97 116.535,29.314 L101.786,29.314 C102.474,31.851 104.495,33.356 107.333,33.356 C109.698,33.356 111.332,32.367 112.45,30.991 L116.105,34.388 C114.342,36.667 111.633,38.387 106.946,38.387 C100.496,38.387 95.938,34.044 95.938,27.465 C95.938,21.058 100.367,16.672 106.602,16.672 C112.536,16.672 116.664,21.144 116.664,27.293 Z M106.559,21.574 C104.28,21.574 102.474,22.864 101.829,25.272 L111.074,25.272 C110.515,23.036 109.01,21.574 106.559,21.574 Z M126.844,38.387 C123.49,38.387 120.609,37.269 118.33,35.291 L121.039,31.378 C122.759,32.969 124.565,33.786 126.887,33.786 C128.521,33.786 129.424,33.098 129.424,32.066 C129.424,31.163 128.349,30.69 125.64,29.787 C122.157,28.626 119.147,26.992 119.147,22.907 C119.147,19.123 122.415,16.672 126.758,16.672 C129.639,16.672 132.004,17.446 134.412,19.295 L131.66,23.466 C130.069,21.918 128.177,21.23 126.629,21.23 C125.769,21.23 124.651,21.66 124.651,22.778 C124.651,23.638 125.683,24.24 127.747,25.014 C132.305,26.691 134.971,27.68 134.971,31.851 C134.971,35.549 132.348,38.387 126.844,38.387 Z M141.324,14.135 C139.26,14.135 137.755,12.587 137.755,10.652 C137.755,8.76 139.26,7.212 141.324,7.212 C143.345,7.212 144.893,8.76 144.893,10.652 C144.893,12.587 143.345,14.135 141.324,14.135 Z M138.443,38 L138.443,16.973 L144.076,16.973 L144.076,38 L138.443,38 Z M158.427,46.858 C155.202,46.858 152.321,46.17 149.827,44.751 L151.16,39.978 C153.224,41.139 155.245,41.956 157.997,41.956 C161.91,41.956 163.888,39.806 163.888,37.312 L163.888,35.205 L163.802,35.205 C162.297,36.753 160.19,37.613 157.696,37.613 C151.934,37.613 147.677,33.399 147.677,27.293 C147.677,21.101 151.805,16.672 157.395,16.672 C159.717,16.672 161.996,17.489 163.716,19.166 L163.802,19.166 L163.802,16.973 L169.435,16.973 L169.435,35.592 C169.435,42.171 166.554,46.858 158.427,46.858 Z M158.728,32.539 C161.824,32.539 164.017,30.26 164.017,27.078 C164.017,23.896 161.738,21.746 158.728,21.746 C155.589,21.746 153.396,23.939 153.396,27.121 C153.396,30.432 155.718,32.539 158.728,32.539 Z M173.81,38 L173.81,16.973 L179.443,16.973 L179.443,19.682 L179.529,19.682 C181.206,17.704 183.614,16.672 186.237,16.672 C190.709,16.672 193.848,19.08 193.848,25.53 L193.848,38 L188.215,38 L188.215,26.949 C188.215,22.95 186.796,21.703 184.173,21.703 C181.335,21.703 179.443,23.681 179.443,27.465 L179.443,38 L173.81,38 Z" id="Design" fill-rule="nonzero"></path>
            </g>
            <path d="M32.0650349,71.6369912 L32,70.8548132 C32,70.8548132 32,69.0000021 35.6008031,69 C36.4720004,68.9999995 37.1324156,69.1085754 37.6330464,69.2731886 L38,80 C36.1962741,79.3079084 34.5718046,77.9265147 33.7899798,76.2334184 L33.3637009,75.296429 C32.9357597,74.27838 32.4824178,72.9959004 32.0650349,71.6369912 L32.0650349,71.6369912 Z" id="Path-Copy" fill="#FFFFFF"></path>
            <path d="M55.6676444,74.6674148 L56,70.7905221 C56,70.7905221 56,68.999998 52.3478937,69 C51.4678964,69.0000005 50.7999398,69.1039582 50.2929314,69.2617748 L50.2929314,69.2617748 L50,78 C50.8261392,77.7127921 51.5927312,77.4190518 52.2473341,77.1363632 L53.1620555,76.7088365 C54.1031497,76.2623833 54.9626107,75.5408722 55.6676444,74.6674148 L55.6676444,74.6674148 Z" id="Path-Copy-2" fill="#FFFFFF"></path>
            <path d="M47.6670467,78.5803595 L48,68.076333 C48,68.076333 48,65.9999977 44,66 C40,66.0000023 40,68.076333 40,68.076333 L40.4040368,79.978245 C40.770423,80.0101357 41.134539,80.007469 41.4905668,79.9669077 L42.4174958,79.8529183 C43.8948417,79.6556273 45.8258465,79.1671296 47.6670467,78.5803595 L47.6670467,78.5803595 Z" id="Path-Copy-3" fill="#FFFFFF"></path>
            <path d="M35.5,67 C36.8807119,67 38,65.8807119 38,64.5 C38,63.1192881 36.8807119,62 35.5,62 C34.1192881,62 33,63.1192881 33,64.5 C33,65.8807119 34.1192881,67 35.5,67 L35.5,67 Z" id="Path-Copy-4" fill="#FFFFFF"></path>
            <path d="M52.5,67 C53.8807119,67 55,65.8807119 55,64.5 C55,63.1192881 53.8807119,62 52.5,62 C51.1192881,62 50,63.1192881 50,64.5 C50,65.8807119 51.1192881,67 52.5,67 L52.5,67 Z" id="Path-Copy-5" fill="#FFFFFF"></path>
            <path d="M44.5,63 C46.4329966,63 48,61.4329966 48,59.5 C48,57.5670034 46.4329966,56 44.5,56 C42.5670034,56 41,57.5670034 41,59.5 C41,61.4329966 42.5670034,63 44.5,63 L44.5,63 Z" id="Path-Copy-6" fill="#FFFFFF"></path>
        </g>
    </g>
</svg>