<svg xmlns="http://www.w3.org/2000/svg" width="179" height="46" viewBox="0 0 179 46">
  <g fill="none" fill-rule="evenodd" transform="translate(.379 .674)">
    <path fill="#46285D" d="M59.657,34.2369512 L59.657,5.12695123 L69.292,5.12695123 C78.517,5.12695123 84.421,11.1129512 84.421,19.7229512 C84.421,28.2919512 78.763,34.2369512 69.415,34.2369512 L59.657,34.2369512 Z M65.356,29.1119512 L69.046,29.1119512 C74.704,29.1119512 78.394,25.0529512 78.394,19.7229512 C78.394,14.2699512 74.663,10.2519512 69.374,10.2519512 L65.356,10.2519512 L65.356,29.1119512 Z M106.301333,24.0279512 C106.301333,24.6839512 106.219333,25.6269512 106.178333,25.9549512 L92.115333,25.9549512 C92.771333,28.3739512 94.698333,29.8089512 97.404333,29.8089512 C99.659333,29.8089512 101.217333,28.8659512 102.283333,27.5539512 L105.768333,30.7929512 C104.087333,32.9659512 101.504333,34.6059512 97.035333,34.6059512 C90.885333,34.6059512 86.539333,30.4649512 86.539333,24.1919512 C86.539333,18.0829512 90.762333,13.9009512 96.707333,13.9009512 C102.365333,13.9009512 106.301333,18.1649512 106.301333,24.0279512 Z M96.666333,18.5749512 C94.493333,18.5749512 92.771333,19.8049512 92.156333,22.1009512 L100.971333,22.1009512 C100.438333,19.9689512 99.003333,18.5749512 96.666333,18.5749512 Z M115.594666,34.6059512 C112.396666,34.6059512 109.649666,33.5399512 107.476666,31.6539512 L110.059666,27.9229512 C111.699666,29.4399512 113.421666,30.2189512 115.635666,30.2189512 C117.193666,30.2189512 118.054666,29.5629512 118.054666,28.5789512 C118.054666,27.7179512 117.029666,27.2669512 114.446666,26.4059512 C111.125666,25.2989512 108.255666,23.7409512 108.255666,19.8459512 C108.255666,16.2379512 111.371666,13.9009512 115.512666,13.9009512 C118.259666,13.9009512 120.514666,14.6389512 122.810666,16.4019512 L120.186666,20.3789512 C118.669666,18.9029512 116.865666,18.2469512 115.389666,18.2469512 C114.569666,18.2469512 113.503666,18.6569512 113.503666,19.7229512 C113.503666,20.5429512 114.487666,21.1169512 116.455666,21.8549512 C120.801666,23.4539512 123.343666,24.3969512 123.343666,28.3739512 C123.343666,31.8999512 120.842666,34.6059512 115.594666,34.6059512 Z M128.987999,11.4819512 C127.019999,11.4819512 125.584999,10.0059512 125.584999,8.16095123 C125.584999,6.35695123 127.019999,4.88095123 128.987999,4.88095123 C130.914999,4.88095123 132.390999,6.35695123 132.390999,8.16095123 C132.390999,10.0059512 130.914999,11.4819512 128.987999,11.4819512 Z M126.240999,34.2369512 L126.240999,14.1879512 L131.611999,14.1879512 L131.611999,34.2369512 L126.240999,34.2369512 Z M144.882332,42.6829512 C141.807332,42.6829512 139.060332,42.0269512 136.682332,40.6739512 L137.953332,36.1229512 C139.921332,37.2299512 141.848332,38.0089512 144.472332,38.0089512 C148.203332,38.0089512 150.089332,35.9589512 150.089332,33.5809512 L150.089332,31.5719512 L150.007332,31.5719512 C148.572332,33.0479512 146.563332,33.8679512 144.185332,33.8679512 C138.691332,33.8679512 134.632332,29.8499512 134.632332,24.0279512 C134.632332,18.1239512 138.568332,13.9009512 143.898332,13.9009512 C146.112332,13.9009512 148.285332,14.6799512 149.925332,16.2789512 L150.007332,16.2789512 L150.007332,14.1879512 L155.378332,14.1879512 L155.378332,31.9409512 C155.378332,38.2139512 152.631332,42.6829512 144.882332,42.6829512 Z M145.169332,29.0299512 C148.121332,29.0299512 150.212332,26.8569512 150.212332,23.8229512 C150.212332,20.7889512 148.039332,18.7389512 145.169332,18.7389512 C142.176332,18.7389512 140.085332,20.8299512 140.085332,23.8639512 C140.085332,27.0209512 142.299332,29.0299512 145.169332,29.0299512 Z M159.136665,34.2369512 L159.136665,14.1879512 L164.507665,14.1879512 L164.507665,16.7709512 L164.589665,16.7709512 C166.188665,14.8849512 168.484665,13.9009512 170.985665,13.9009512 C175.249665,13.9009512 178.242665,16.1969512 178.242665,22.3469512 L178.242665,34.2369512 L172.871665,34.2369512 L172.871665,23.6999512 C172.871665,19.8869512 171.518665,18.6979512 169.017665,18.6979512 C166.311665,18.6979512 164.507665,20.5839512 164.507665,24.1919512 L164.507665,34.2369512 L159.136665,34.2369512 Z"/>
    <rect width="27.676" height="27.676" x="8.488" y="9.944" fill="#FFF"/>
    <path fill="#46285D" d="M16.1888829,1.86888546 C31.5319158,-2.73423867 38.1807539,0.845849961 42.783878,16.1888829 C47.3870021,31.5319158 43.8069135,38.1807539 28.4638806,42.783878 C13.1208476,47.3870021 6.47200959,43.8069135 1.86888546,28.4638806 C-2.73423867,13.1208476 0.845849961,6.47200959 16.1888829,1.86888546 Z M12.0968395,24.6474502 L12.1552177,25.323253 C12.529879,26.4973522 12.9368187,27.6054162 13.3209576,28.4850118 L13.7036043,29.2945717 C14.3793733,30.7031489 15.7564651,31.862023 17.3032295,32.4799212 L17.0066475,23.7755026 C16.9975438,23.5083168 16.7754491,23.2330334 16.511039,23.1739566 C16.511039,23.1739566 16.1111042,23.0448889 15.3290791,23.0448893 C12.0968395,23.0448893 12.0968395,24.6474502 12.0968395,24.6474502 Z M33.2054186,24.6474502 C33.2054186,24.6474502 33.2054186,23.0448893 29.9731789,23.0448893 C29.194351,23.0448898 28.8218934,23.1702678 28.8218934,23.1702678 C28.5562019,23.2304206 28.3328683,23.5030007 28.32274,23.7882112 L28.065316,31.0372292 C28.4677793,30.8871059 29.4632779,30.5109498 29.8841802,30.3271325 L30.6937401,29.9444857 C31.5266409,29.5448992 32.2872933,28.8991292 32.9112724,28.1173635 L33.2054186,24.6474502 Z M26.1422777,31.6737115 L26.4592602,22.1219895 C26.4592602,22.1219895 26.4592602,20.2338987 22.651129,20.2338987 C18.8429979,20.2338987 18.8429979,22.1219895 18.8429979,22.1219895 L19.2276542,32.9448634 C19.5764658,32.9738628 19.9231162,32.9714379 20.2620664,32.9345539 L21.1445331,32.8308989 C22.5510148,32.6514945 24.3893948,32.2072844 26.1422777,31.6737115 L26.1422777,31.6737115 Z M15.143036,21.7147627 C16.369824,21.7147627 17.3643321,20.7202546 17.3643321,19.4934667 C17.3643321,18.2666788 16.369824,17.2721707 15.143036,17.2721707 C13.9162481,17.2721707 12.92174,18.2666788 12.92174,19.4934667 C12.92174,20.7202546 13.9162481,21.7147627 15.143036,21.7147627 Z M30.1118208,21.7147627 C31.3386087,21.7147627 32.3331168,20.7202546 32.3331168,19.4934667 C32.3331168,18.2666788 31.3386087,17.2721707 30.1118208,17.2721707 C28.8850328,17.2721707 27.8905247,18.2666788 27.8905247,19.4934667 C27.8905247,20.7202546 28.8850328,21.7147627 30.1118208,21.7147627 Z M22.6263292,18.1848361 C24.307483,18.1848361 25.6703274,16.8219916 25.6703274,15.1408378 C25.6703274,13.459684 24.307483,12.0968395 22.6263292,12.0968395 C20.9451753,12.0968395 19.5823309,13.459684 19.5823309,15.1408378 C19.5823309,16.8219916 20.9451753,18.1848361 22.6263292,18.1848361 Z"/>
  </g>
</svg>
