<svg xmlns="http://www.w3.org/2000/svg" width="65" height="65" viewBox="0 0 65 65">
  <path d="M58.8067428,15.3423259 C53.1225298,2.43511129 45.0552991,-1.50060771 30.6529966,1.4071752 L30.0134782,1.53989296 L28.7466711,1.82310204 L27.5290713,2.11892872 L26.9095994,2.27769097 L26.9095994,2.27769097 L26.2829367,2.44364477 L25.00781,2.7970039 L23.7032337,3.17875982 L22.4039706,3.57822694 L21.7694358,3.78074243 L20.5304056,4.19162319 L19.6272963,4.50512744 L19.6272963,4.50512744 L18.7464972,4.8234264 L17.6066237,5.25561698 C2.48836718,11.1502806 -1.91154425,19.5924335 1.6827147,35.6417945 L1.82304276,36.2549309 L2.11885619,37.4725852 L2.35968752,38.4045278 L2.35968752,38.4045278 L2.6166645,39.3527148 L2.98423635,40.6425669 L3.3774562,41.9532976 L3.78059545,43.2324787 L4.19145779,44.4715644 L4.39992807,45.0761485 L4.82323269,46.2555528 L5.03818139,46.8304346 L5.47495744,47.9507117 C10.962092,61.631142 18.6628004,66.2488392 32.5291367,63.931797 L33.1448996,63.8250821 L34.3649051,63.5920752 L35.3002638,63.3952913 L35.3002638,63.3952913 L36.2533289,63.1797655 L37.4709287,62.8839388 L38.7170633,62.5592228 L39.99219,62.2058636 L41.6253659,61.7249186 L43.2305642,61.2221251 L44.4695944,60.8112443 C45.0114012,60.6268466 45.5414015,60.4400249 46.0596924,60.2505985 L46.8283589,59.9644828 L47.9485857,59.5276872 L48.5224548,59.2939866 L48.5224548,59.2939866 L49.6378363,58.8183799 C62.7644238,53.0438533 66.6240255,44.8100697 63.4502585,29.968442 L63.313954,29.3462058 L63.0326769,28.1426479 L62.8811438,27.5302823 L62.470782,25.9680319 L62.470782,25.9680319 L62.3833355,25.6501527 L62.0157637,24.3603006 L61.8213602,23.7042733 L61.421911,22.4049521 L61.0149674,21.1458494 L60.6000719,19.9267191 L60.1767673,18.7473148 L59.9618186,18.1724329 L59.5250426,17.0521559 L59.2884143,16.4711558 L58.8067428,15.3423259 Z M32.9654545,30.3118554 C37.2432693,30.3118554 38.3531107,31.8137117 38.4202619,32.9393697 L38.4235801,33.050612 L38.4065631,33.9266486 L37.9981542,45.8706645 C37.9761129,46.5348722 37.5813083,46.8596968 37.1835827,46.975326 C35.4202291,47.4879788 33.6347464,47.925716 32.0782652,48.2033782 L31.4259545,48.3123276 L30.8060777,48.4001862 L29.5412541,48.5487598 L29.200071,48.577751 L28.855897,48.5913419 C28.5801573,48.5960087 28.1403007,48.3840733 28.0427092,47.7856595 L28.0242061,47.5943712 L27.7197208,39.5492477 L27.5103872,33.2978685 L27.5108747,32.9356162 C27.5802684,31.8103761 28.6923927,30.3118554 32.9654545,30.3118554 Z M21.6543189,34.3734469 C21.8411293,34.3734469 22.0138524,34.3788046 22.1719947,34.3877342 L22.398211,34.4035841 L22.78355,34.4459995 L23.076964,34.4937726 L23.3888996,34.5663253 L23.5194926,34.6092255 C23.7735107,34.7194242 23.9791317,34.9690615 24.0393368,35.2330307 L24.0568721,35.3656305 L24.4475103,46.8310273 L24.4481437,47.0107817 C24.4153457,47.5576857 24.0523794,47.6560762 23.8114927,47.5943834 L23.7363389,47.5682858 L23.2798619,47.3267477 C21.8322854,46.5279941 20.5673574,45.3977523 19.7344951,44.0726755 L19.5182506,43.7065629 L19.3245552,43.3314052 L18.7761145,42.1710255 L18.5383813,41.611327 C18.2193497,40.8401398 17.8933296,39.9728828 17.575051,39.0529982 L17.3380238,38.3538958 L17.0803781,37.5557505 C17.0646618,37.4908988 17.0507164,37.4075171 17.0385419,37.3056056 L17.0216082,37.1388409 C17.0112045,37.0183995 17.0060027,36.919148 17.0060027,36.8410864 L17.0099041,36.7398864 L17.0216082,36.6704713 L17.0298586,36.5774066 L17.0494532,36.4702799 L17.1007763,36.2917886 L17.1931901,36.0749465 L17.2419556,35.9843546 C17.629767,35.3075026 18.7001266,34.3734469 21.6543189,34.3734469 Z M44.041744,34.3734469 C46.9959364,34.3734469 48.0662959,35.3075026 48.4541073,35.9843546 L48.5028729,36.0749465 L48.5804779,36.2511047 L48.6302379,36.4042525 L48.6662044,36.5774066 L48.7170188,37.0874316 L48.7588175,37.6566058 L48.7806453,38.1266359 L48.7874414,38.3812047 L48.7889542,38.9167493 L48.7798193,39.2543199 C48.74364,40.1594858 48.607913,41.0879827 48.2528604,41.6440584 C47.5398209,42.7608053 46.6650612,43.4198868 45.716694,43.9363332 L45.3979663,44.1036314 L45.0745114,44.2629569 L43.9141837,44.8114222 L43.4914963,44.9877957 L42.6731643,45.3104754 L41.997521,45.5692995 L41.8682362,45.6071736 C41.5881429,45.6623078 41.4554031,45.4940145 41.3934354,45.2964195 L41.3709875,45.2105079 L41.3452259,45.0216775 L41.3439352,44.7958183 L41.6785898,35.3715756 L41.6961149,35.2354263 C41.7457042,35.0105497 41.8935467,34.8004169 42.0848891,34.6732733 L42.2044766,34.6074918 L42.3810133,34.5507215 L42.6359079,34.4928856 L42.9237579,34.4454647 L43.1023204,34.4230838 L43.5274899,34.3876289 L43.7736045,34.377214 L44.041744,34.3734469 Z M22.2693964,24.0800038 C24.246083,24.0800038 25.8485041,25.6824249 25.8485041,27.6591116 C25.8485041,29.6357982 24.246083,31.2382193 22.2693964,31.2382193 C20.2927098,31.2382193 18.6902887,29.6357982 18.6902887,27.6591116 C18.6902887,25.6824249 20.2927098,24.0800038 22.2693964,24.0800038 Z M43.6598284,24.0800038 C45.6365151,24.0800038 47.2389362,25.6824249 47.2389362,27.6591116 C47.2389362,29.6357982 45.6365151,31.2382193 43.6598284,31.2382193 C41.6831418,31.2382193 40.0807207,29.6357982 40.0807207,27.6591116 C40.0807207,25.6824249 41.6831418,24.0800038 43.6598284,24.0800038 Z M32.9225053,17.7639314 C35.4805703,17.7639314 37.5542917,19.8376528 37.5542917,22.3957178 C37.5542917,24.9537829 35.4805703,27.0275043 32.9225053,27.0275043 C30.3644402,27.0275043 28.2907188,24.9537829 28.2907188,22.3957178 C28.2907188,19.8376528 30.3644402,17.7639314 32.9225053,17.7639314 Z"/>
</svg>
