<svg xmlns="http://www.w3.org/2000/svg"><symbol viewBox="0 0 24 24" id="accident-g"><path d="M6.588 11.756l5.168-5.168L8.24 3.07c-1.428-1.427-3.742-1.427-5.17 0-1.427 1.428-1.427 3.742 0 5.17l3.518 3.516zm5.657 5.656l3.49 3.49.054.054c1.44 1.412 3.754 1.39 5.166-.053 1.412-1.44 1.39-3.755-.06-5.175l-3.484-3.483-5.167 5.167zM9.653 1.656l12.65 12.65c2.23 2.186 2.267 5.766.082 7.997-2.186 2.23-5.765 2.267-7.996.082-.042-.04-.042-.04-.076-.075L1.656 9.653c-2.208-2.208-2.208-5.79 0-7.997 2.208-2.208 5.79-2.208 7.997 0zm-5.995 13.55l-.56.56c-1.44 1.41-1.465 3.71-.06 5.143 1.406 1.433 3.71 1.456 5.144.052l.61-.61c.392-.39 1.025-.39 1.415 0 .39.39.39 1.024 0 1.415l-.626.624c-2.222 2.178-5.79 2.14-7.97-.08-2.178-2.222-2.142-5.79.082-7.966l.552-.55c.39-.392 1.024-.39 1.414 0 .39.39.39 1.023 0 1.413zm16.704-6.412l.573-.575c1.42-1.424 1.42-3.73 0-5.154-1.42-1.42-3.72-1.42-5.14 0l-.587.59c-.39.39-1.024.392-1.414 0-.39-.39-.392-1.022-.002-1.413l.59-.59c2.2-2.204 5.768-2.204 7.968 0s2.2 5.776 0 7.98l-.573.573c-.39.39-1.023.392-1.414.002-.39-.39-.392-1.024 0-1.414zm-9.07 1.792c.39.39 1.025.39 1.415 0 .39-.39.39-1.024 0-1.414-.39-.39-1.024-.39-1.414 0-.39.39-.39 1.023 0 1.414zm-2.12 2.12c.39.392 1.023.392 1.414 0 .39-.39.39-1.023 0-1.413-.39-.39-1.024-.39-1.414 0-.39.39-.39 1.024 0 1.414zm2.123 2.125c.39.39 1.024.39 1.414 0 .39-.39.39-1.023 0-1.413-.39-.39-1.024-.39-1.415 0-.39.39-.39 1.023 0 1.414zm2.122-2.12c.39.39 1.023.39 1.414 0 .39-.39.39-1.024 0-1.415-.39-.39-1.023-.39-1.413 0-.39.39-.39 1.024 0 1.414z" id="accident-g-Shape" fill-rule="nonzero"/></symbol><symbol viewBox="0 0 25 24" id="accident"><path d="M5.428 12.61c-.03-.023-.058-.047-.085-.074-.026-.026-.05-.055-.072-.084L2.277 9.458c-2.12-2.122-2.12-5.56 0-7.683 2.122-2.12 5.56-2.12 7.683 0l12.726 12.73c2.143 2.098 2.18 5.537.08 7.68s-5.54 2.18-7.682.08l-.074-.074-9.582-9.58zm6.012-7.232L8.898 2.836c-1.536-1.536-4.025-1.536-5.56 0-1.537 1.536-1.537 4.025 0 5.56l2.54 2.544 5.562-5.562zm1.06 1.06L6.94 12l5.56 5.56L18.063 12l-5.56-5.56zm6.622 6.623l-5.56 5.56 2.514 2.516c.03.028.03.028.057.057 1.55 1.52 4.04 1.494 5.56-.057 1.52-1.552 1.495-4.04-.062-5.566l-2.508-2.51zM4.646 14.296L3.37 15.57c-1.556 1.525-1.58 4.014-.062 5.566 1.52 1.55 4.01 1.576 5.56.057.012-.01.482-.48 1.328-1.328.293-.293.768-.293 1.06 0 .294.293.294.768 0 1.06-.9.903-1.32 1.322-1.338 1.34-2.142 2.1-5.582 2.063-7.68-.08-2.1-2.143-2.065-5.582.078-7.68l1.27-1.27c.292-.294.767-.294 1.06 0 .292.292.292.767 0 1.06zM20.363 9.7l1.302-1.303c1.536-1.536 1.536-4.025 0-5.56-1.536-1.537-4.025-1.537-5.56 0l-1.31 1.307c-.292.293-.767.293-1.06 0-.293-.293-.293-.768 0-1.06l1.308-1.31c2.122-2.12 5.56-2.12 7.683 0 2.12 2.123 2.12 5.562 0 7.684l-1.303 1.302c-.293.293-.768.293-1.06 0-.293-.293-.293-.767 0-1.06zm-8.503.883c-.39-.39-.39-1.023 0-1.414.39-.39 1.023-.39 1.414 0 .39.39.39 1.023 0 1.413-.39.39-1.024.39-1.414 0zm-2.124 2.124c-.39-.39-.39-1.023 0-1.414.39-.39 1.023-.39 1.414 0 .39.39.39 1.024 0 1.414-.39.39-1.024.39-1.414 0zm2.123 2.124c-.39-.39-.39-1.023 0-1.413.39-.39 1.023-.39 1.413 0 .39.39.39 1.023 0 1.414-.39.39-1.023.39-1.414 0zm2.123-2.123c-.39-.39-.39-1.024 0-1.414.39-.39 1.024-.39 1.414 0 .39.39.39 1.023 0 1.414-.39.39-1.023.39-1.414 0z" id="accident-Shape" fill-rule="nonzero"/></symbol><symbol viewBox="0 0 24 24" id="add"><path d="M13 7h-2v4H7v2h4v4h2v-4h4v-2h-4V7zm-1-5C6.48 2 2 6.48 2 12s4.48 10 10 10 10-4.48 10-10S17.52 2 12 2zm0 18c-4.41 0-8-3.59-8-8s3.59-8 8-8 8 3.59 8 8-3.59 8-8 8z" id="add-Shape" fill-rule="evenodd"/></symbol><symbol viewBox="0 0 24 24" id="archive"><path d="M20.54 5.23l-1.39-1.68C18.88 3.21 18.47 3 18 3H6c-.47 0-.88.21-1.16.55L3.46 5.23C3.17 5.57 3 6.02 3 6.5V19c0 1.1.9 2 2 2h14c1.1 0 2-.9 2-2V6.5c0-.48-.17-.93-.46-1.27zM6.24 5h11.52l.81.97H5.44l.8-.97zM5 19V8h14v11H5zm8.45-9h-2.9v3H8l4 4 4-4h-2.55v-3z" id="archive-Shape" fill-rule="evenodd"/></symbol><symbol viewBox="0 0 25 24" id="army-g"><path d="M2.75 11.708V4.683c-.005-.932.537-1.78 1.4-2.177C6.866 1.322 9.8.723 12.74.75c2.962-.027 5.895.572 8.625 1.763.85.39 1.39 1.24 1.385 2.167v7.028c0 4.96-3.056 9.41-7.686 11.192l-.96.37c-.872.334-1.836.334-2.707 0l-.96-.37C5.804 21.117 2.75 16.67 2.75 11.707zm2-7.035V11.708c0 4.134 2.546 7.84 6.404 9.325l.96.37c.41.156.862.156 1.27 0l.962-.37c3.858-1.484 6.404-5.19 6.404-9.325V4.673c0-.147-.084-.28-.2-.334-2.457-1.073-5.11-1.614-7.81-1.59-2.68-.024-5.333.517-7.773 1.582-.133.06-.218.194-.217.34zm6.65 5.612v-3.15h2.7v3.15h3.15v2.7H14.1v3.15h-2.7v-3.15H8.25v-2.7h3.15z" id="army-g-Shape" fill-rule="nonzero"/></symbol><symbol viewBox="0 0 25 24" id="army"><path d="M6.05 16.253c-.25-.33-.184-.8.146-1.05.33-.25.8-.185 1.05.145.937 1.24 2.2 2.192 3.645 2.753l.8.31c.36.137.76.137 1.118 0l.798-.308c1.448-.562 2.71-1.515 3.646-2.754.25-.33.72-.395 1.05-.146.33.25.397.72.147 1.05-1.105 1.46-2.594 2.585-4.303 3.25l-.8.307c-.706.27-1.488.27-2.195 0l-.802-.31c-1.707-.662-3.196-1.787-4.3-3.247zm14.346-4.65c-.06.41-.44.693-.85.633-.41-.06-.694-.44-.635-.85.056-.378.086-.76.09-1.135V5.188c0-.156-.09-.297-.218-.356-2.058-.896-4.282-1.35-6.54-1.33-2.245-.02-4.47.434-6.513 1.325-.142.065-.232.206-.23.367v5.05c.003.382.034.763.09 1.14.062.41-.22.792-.63.853-.41.062-.792-.22-.853-.63-.067-.446-.103-.895-.108-1.354V5.198c-.006-.745.426-1.424 1.116-1.74C7.366 2.473 9.8 1.976 12.242 2c2.456-.022 4.888.474 7.153 1.462.677.31 1.108.99 1.104 1.73v5.065c-.005.45-.04.9-.104 1.345zM.356 21.864l1.882-3.137-1.655-1.103C-.035 17.213.257 16.25 1 16.25c1.05 0 1.832-.464 2.42-1.27.215-.294.386-.612.518-.93.077-.187.122-.327.14-.393.1-.4.51-.643.91-.54.402.1.645.51.542.91-.122.48-.4 1.156-.898 1.837-.475.65-1.06 1.16-1.757 1.487l.79.527c.333.222.433.666.227 1.01l-1.447 2.41c1.55-.375 2.95-1.248 3.972-2.506.26-.32.734-.368 1.055-.107.32.26.37.734.108 1.055-1.612 1.982-4 3.17-6.554 3.262-.595.022-.977-.625-.67-1.135zm20.477-3.988l.788-.526c-.697-.324-1.282-.836-1.757-1.486-.497-.682-.775-1.358-.896-1.837-.102-.402.14-.81.542-.91.4-.103.81.14.91.542.017.064.062.204.14.39.13.318.3.637.515.93.588.806 1.37 1.27 2.424 1.27.74 0 1.032.963.415 1.375l-1.655 1.103 1.882 3.137c.306.51-.076 1.157-.67 1.135-2.553-.09-4.943-1.28-6.555-3.262-.262-.32-.213-.794.108-1.055.32-.26.794-.213 1.055.108 1.024 1.26 2.423 2.132 3.972 2.508l-1.447-2.41c-.205-.345-.106-.79.228-1.01zm-9.558-8.6V7h1.95v2.276H15.5v1.95h-2.275V13.5h-1.95v-2.274H9v-1.95h2.275z" id="army-Shape" fill-rule="nonzero"/></symbol><symbol viewBox="0 0 24 24" id="arrow-down-g"><path d="M4.707 7.293c-.39-.39-1.024-.39-1.414 0-.39.39-.39 1.024 0 1.415l8 7.995c.39.39 1.024.39 1.414 0l8-7.995c.39-.39.39-1.024 0-1.415-.39-.39-1.023-.39-1.414 0L12 14.583l-7.293-7.29z" id="arrow-down-g-Line-2" fill-rule="nonzero"/></symbol><symbol viewBox="0 0 24 24" id="arrow-down"><path d="M12.844 21.44l8.563-8.564c.293-.293.768-.293 1.06 0 .294.293.294.767 0 1.06l-9.843 9.844c-.293.293-.767.293-1.06 0L1.72 13.936c-.293-.293-.293-.767 0-1.06.293-.293.768-.293 1.06 0l8.564 8.563V.75c0-.414.336-.75.75-.75s.75.336.75.75v20.69z" id="arrow-down-Path" fill-rule="nonzero"/></symbol><symbol viewBox="0 0 24 24" id="arrow-left-g"><path d="M16.703 19.293c.39.39.39 1.024 0 1.414-.39.39-1.024.39-1.414 0l-7.997-8c-.39-.39-.39-1.023 0-1.414l7.996-8c.39-.39 1.022-.39 1.413 0 .39.39.39 1.023 0 1.414L9.413 12l7.29 7.293z" id="arrow-left-g-Line-2" fill-rule="nonzero"/></symbol><symbol viewBox="0 0 24 24" id="arrow-left"><path d="M2.56 11.25l8.564-8.563c.293-.293.293-.768 0-1.06-.293-.294-.768-.294-1.06 0L.22 11.47c-.293.293-.293.767 0 1.06l9.843 9.844c.293.293.768.293 1.06 0 .294-.293.294-.768 0-1.06L2.562 12.75h20.69c.414 0 .75-.336.75-.75s-.336-.75-.75-.75H2.56z" id="arrow-left-Path" fill-rule="nonzero"/></symbol><symbol viewBox="0 0 24 24" id="arrow-right-g"><path d="M7.293 19.293c-.39.39-.39 1.024 0 1.414.39.39 1.024.39 1.414 0l7.996-8c.39-.39.39-1.023 0-1.414l-7.996-8c-.39-.39-1.023-.39-1.414 0-.39.39-.39 1.023 0 1.414L14.583 12l-7.29 7.293z" id="arrow-right-g-Line-2" fill-rule="nonzero"/></symbol><symbol viewBox="0 0 24 24" id="arrow-right"><path d="M21.44 11.25l-8.564-8.563c-.293-.293-.293-.768 0-1.06.293-.294.768-.294 1.06 0l9.844 9.843c.293.293.293.767 0 1.06l-9.843 9.844c-.293.293-.768.293-1.06 0-.294-.293-.294-.768 0-1.06l8.562-8.564H.75c-.414 0-.75-.336-.75-.75s.336-.75.75-.75h20.69z" id="arrow-right-Path" fill-rule="nonzero"/></symbol><symbol viewBox="0 0 24 24" id="arrow-up-g"><path d="M4.707 16.703c-.39.39-1.024.39-1.414 0-.39-.39-.39-1.024 0-1.415l8-7.995c.39-.39 1.024-.39 1.414 0l8 7.995c.39.39.39 1.024 0 1.415-.39.39-1.023.39-1.414 0L12 9.413l-7.293 7.29z" id="arrow-up-g-Line-2" fill-rule="nonzero"/></symbol><symbol viewBox="0 0 24 24" id="arrow-up"><path d="M12.844 2.56l8.563 8.564c.293.293.768.293 1.06 0 .294-.293.294-.767 0-1.06L12.625.22c-.293-.293-.767-.293-1.06 0L1.72 10.064c-.293.293-.293.767 0 1.06.293.293.768.293 1.06 0l8.564-8.563v20.69c0 .414.336.75.75.75s.75-.336.75-.75V2.56z" id="arrow-up-Path" fill-rule="nonzero"/></symbol><symbol viewBox="0 0 25 25" id="attachment-g"><path d="M19.7 16.666V8.6c0-4.177-3.11-7.6-7-7.6-3.888 0-7 3.423-7 7.6v11c0 2.962 2.217 5.4 5 5.4 2.784 0 5-2.438 5-5.4v-11c0-1.747-1.32-3.2-3-3.2s-3 1.453-3 3.2v9.533c0 .553.448 1 1 1 .553 0 1-.447 1-1V8.6c0-.683.47-1.2 1-1.2s1 .517 1 1.2v11c0 1.898-1.365 3.4-3 3.4-1.634 0-3-1.502-3-3.4v-11c0-3.113 2.26-5.6 5-5.6s5 2.487 5 5.6v8.066c0 .552.448 1 1 1 .553 0 1-.448 1-1z" id="attachment-g-Path" fill-rule="nonzero"/></symbol><symbol viewBox="0 0 24 24" id="attachment"><path d="M19.5 15.75V7.5C19.5 3.358 16.142 0 12 0 7.858 0 4.5 3.358 4.5 7.5v11.25c0 2.9 2.35 5.25 5.25 5.25S15 21.65 15 18.75V7.5c0-1.657-1.343-3-3-3s-3 1.343-3 3v9.75c0 .414.336.75.75.75s.75-.336.75-.75V7.5c0-.828.672-1.5 1.5-1.5s1.5.672 1.5 1.5v11.25c0 2.07-1.68 3.75-3.75 3.75C7.68 22.5 6 20.82 6 18.75V7.5c0-3.314 2.686-6 6-6s6 2.686 6 6v8.25c0 .413.336.75.75.75s.75-.337.75-.75z" id="attachment-Path" fill-rule="nonzero"/></symbol><symbol viewBox="0 0 25 25" id="badge"><path d="M1.703 12.51V5.097c-.005-.962.554-1.84 1.446-2.247C6.005 1.6 9.094.97 12.193 1c3.117-.028 6.206.602 9.08 1.856.876.4 1.436 1.28 1.43 2.237v7.418c0 5.215-3.212 9.89-8.08 11.763l-1.013.39c-.905.348-1.91.348-2.815 0l-1.015-.39C4.914 22.4 1.703 17.725 1.703 12.51zm2.262-7.835c-.16.073-.263.234-.262.418v7.418c0 4.388 2.7 8.32 6.795 9.896l1.015.39c.444.17.936.17 1.38 0l1.015-.39c4.094-1.575 6.795-5.508 6.795-9.895V5.087c0-.177-.1-.338-.246-.404-2.6-1.135-5.41-1.707-8.263-1.68-2.836-.027-5.646.545-8.23 1.673zm6.764 2.178c.432-.812 1.442-1.12 2.254-.685.293.156.533.397.688.69l.023.048 1.013 2.188h1.82c.89-.035 1.64.66 1.674 1.55.02.48-.178.945-.5 1.23l-1.678 1.657.93 2.145c.354.84-.04 1.81-.88 2.166-.48.203-1.026.168-1.463-.087l-2.406-1.358-2.395 1.35c-.79.46-1.803.193-2.262-.596-.26-.45-.296-.996-.09-1.485l.926-2.134-1.64-1.62c-.664-.59-.725-1.607-.136-2.273.318-.36.778-.558 1.226-.543H9.69l1.04-2.24zm.505 3.66c-.164.355-.518.58-.908.58H8.76l1.516 1.496c.294.29.38.73.215 1.11l-.784 1.807 2.007-1.13c.305-.173.678-.173.983 0l2.005 1.13-.784-1.808c-.164-.38-.08-.82.215-1.11l1.517-1.496H14.07c-.39 0-.744-.227-.908-.58l-.963-2.08-.965 2.08z" id="badge-Shape" fill-rule="nonzero"/></symbol><symbol viewBox="0 0 24 24" id="bell"><path d="M20.284 17.686l-1.456-1.455v-5.64c0-3.464-1.85-6.363-5.077-7.13V2.69c0-.936-.754-1.692-1.69-1.692-.937 0-1.693.756-1.693 1.692v.767C7.13 4.226 5.29 7.114 5.29 10.59v5.64l-1.456 1.456c-.71.71-.214 1.93.79 1.93h14.86c1.014 0 1.51-1.22.8-1.93zm-3.712-.327H7.546v-6.77c0-2.798 1.704-5.077 4.513-5.077 2.808 0 4.512 2.28 4.512 5.077v6.77zM12.06 23c1.24 0 2.256-1.015 2.256-2.256H9.803c0 1.24 1.004 2.256 2.256 2.256z" id="bell-Shape" fill-rule="evenodd"/></symbol><symbol viewBox="0 0 119 102" id="biings-care"><path d="M57.69 81.475c2.856 0 5.17 2.28 5.17 5.094 0 2.813-2.314 5.093-5.17 5.093-3.672 0-6.504-.56-9.08-1.606-9.77 8.422-21.062 11.467-36.69 11.82-4.724.108-7.104-5.575-3.68-8.784.335-.313.958-.92 1.772-1.757 1.365-1.4 2.73-2.9 3.992-4.422 1.25-1.507 2.326-2.95 3.173-4.28 1.204-1.89 1.825-3.39 1.863-4.087C7.372 70.163.43 58.02.43 44.845.43 19.817 25.172 0 55.23 0c25.242 0 47.222 14.058 53.223 34.095.808 2.698-.755 5.53-3.493 6.328-2.737.796-5.61-.745-6.42-3.443-4.618-15.42-22.398-26.792-43.31-26.792-24.767 0-44.465 15.776-44.465 34.657 0 10.336 5.903 20.036 16.076 26.64 1.226.794 2.05 2.066 2.27 3.497.176 1.163.267 2.33.267 3.5 0 3.023-1.26 6.136-3.448 9.57-.518.812-1.084 1.634-1.696 2.466 7.944-1.5 14.074-4.556 19.603-10.006 1.13-1.116 2.723-1.65 4.31-1.45 1.438.18 5.462 1.993 4.535 1.63 1.28.503 2.758.783 5.01.783zm56.097-3.854L95.805 95.346c-1.66 1.637-4.353 1.637-6.013 0L71.81 77.62c-6.03-5.944-6.03-15.58 0-21.526 5.718-5.636 16.048-3.75 20.99 1.535 4.716-5.286 15.27-7.172 20.99-1.53 6.03 5.943 6.027 15.58-.003 21.52z"/></symbol><symbol viewBox="0 0 24 24" id="biings-claim"><path d="M19.857 8.326v9.67c0 2.388-1.47 3.86-3.854 3.86H6.14c-2.385 0-3.854-1.47-3.854-3.857V6.57c0-2.387 1.47-3.858 3.86-3.858h6.357c.552 0 1 .448 1 1 0 .553-.448 1-1 1H6.146c-1.286 0-1.86.575-1.86 1.858V18c0 1.282.574 1.857 1.853 1.857h9.863c1.28 0 1.854-.577 1.854-1.86v-9.67H16c-.838 0-1.304-.97-.782-1.624l2.79-4.5c.4-.502 1.164-.502 1.565 0l2.79 4.5c.523.655.056 1.623-.782 1.623h-1.723zM7.5 12c-.552 0-1-.448-1-1s.448-1 1-1h4c.552 0 1 .448 1 1s-.448 1-1 1h-4zm0 4c-.552 0-1-.448-1-1s.448-1 1-1h7c.552 0 1 .448 1 1s-.448 1-1 1h-7z" id="biings-claim-Shape" fill-rule="nonzero"/></symbol><symbol viewBox="0 0 24 24" id="biings-pilot"><path d="M14.893 14.893L9.107 9.107l-2.893 8.68 8.68-2.894zm5.02-8.737l-3.18 9.542c-.163.488-.547.872-1.035 1.035l-9.542 3.18c-1.28.426-2.495-.79-2.07-2.07l3.18-9.54c.164-.49.548-.873 1.036-1.036l9.542-3.18c1.28-.426 2.495.79 2.07 2.07z" id="biings-pilot-Shape" fill-rule="nonzero"/></symbol><symbol viewBox="0 0 24 24" id="biings"><path d="M6.533 13.592l-.03-.362s0-.86 1.736-.86c.42 0 .738.05.98.126l.177 4.975c-.87-.32-1.654-.96-2.032-1.746l-.205-.435c-.207-.473-.425-1.068-.627-1.698zm11.156 1.5l.157-1.862s0-.86-1.737-.86c-.42 0-.736.05-.978.125l-.14 4.198c.394-.138.76-.28 1.07-.415l.435-.205c.448-.215.857-.56 1.192-.98zm-3.64 1.91l.17-5.128s0-1.013-2.045-1.013c-2.047 0-2.047 1.014-2.047 1.014l.206 5.81c.188.015.374.013.556-.006l.475-.056c.756-.096 1.744-.335 2.686-.62zm-5.91-5.347c.658 0 1.193-.533 1.193-1.192 0-.658-.535-1.192-1.194-1.192-.66 0-1.195.535-1.195 1.193 0 .66.535 1.192 1.194 1.192zm8.045 0c.66 0 1.193-.533 1.193-1.192 0-.658-.534-1.192-1.193-1.192-.66 0-1.194.535-1.194 1.193 0 .66.535 1.192 1.195 1.192zM8.7 1.003c8.248-2.47 11.82-.55 14.296 7.686 2.474 8.235.55 11.804-7.697 14.274-8.248 2.47-11.82.55-14.296-7.686C-1.47 7.043.454 3.474 8.7 1.003zm3.46 8.758c.905 0 1.637-.73 1.637-1.633 0-.902-.732-1.634-1.636-1.634-.902 0-1.635.732-1.635 1.634 0 .902.733 1.634 1.636 1.634z" id="biings-Rectangle-16-Copy-7" fill-rule="evenodd"/></symbol><symbol viewBox="0 0 24 24" id="birthday-g"><path d="M11.005 10.028l-.002-.056V7.597c0-.552.448-1 1-1s1 .448 1 1v2.431h5.67c1.33 0 2.333 1.19 2.333 2.583v7.918c0 1.392-1.003 2.583-2.333 2.583H5.34c-1.33 0-2.334-1.19-2.334-2.582v-6.924c-.008-.176-.008-.358 0-.544v-.45c0-1.39 1.003-2.582 2.334-2.582h5.665zm-6 6.832v3.668c0 .356.192.583.335.583h13.333c.142 0 .333-.226.333-.582v-3.686c-1.415.76-3.12.56-4.306-.4-.165.133-.34.254-.528.36-1.444.816-3.21.61-4.414-.394-1.32 1.055-3.105 1.314-4.752.452zm0-3.278c.046.752.324 1.198.852 1.465 1.163.636 2.38.298 3.15-.71.427-.563 1.287-.516 1.65.09.51.844 1.646 1.134 2.53.634.273-.154.5-.373.656-.634.388-.644 1.322-.646 1.712-.003.515.85 1.66 1.14 2.55.632.563-.32.903-.898.9-1.518v-.926c0-.355-.19-.582-.332-.582H5.34c-.143 0-.334.227-.334.583v.972zM13.924 3c0 1.105-.896 2-2 2-1.105 0-2-.895-2-2 0-1.104 2-3 2-3s2 1.896 2 3z" id="birthday-g-Combined-Shape" fill-rule="nonzero"/></symbol><symbol viewBox="0 0 24 24" id="birthday"><path d="M1.75 14.283v-.922c0-1.288 1.045-2.332 2.333-2.332h7.164v-2.68c0-.415.336-.75.75-.75s.75.335.75.75v2.68h7.17c1.288 0 2.333 1.044 2.333 2.333v7.918c0 1.288-1.045 2.333-2.333 2.333H4.083c-1.288 0-2.333-1.044-2.333-2.332v-6.994zm1.5 2.887v4.108c0 .46.373.833.833.833h15.834c.46 0 .833-.372.833-.832V17.17c-.075.053-.153.103-.233.15-1.367.804-3.054.578-4.162-.444-.186.172-.39.324-.612.453-1.362.794-3.04.565-4.14-.453-1.217 1.124-3.03 1.224-4.354.318-.582.396-1.273.612-1.987.61-.75 0-1.443-.235-2.013-.635zm0-2.878c.002 1.112.903 2.012 2.015 2.014.545 0 1.067-.22 1.448-.61.295-.302.78-.302 1.075 0 .77.795 2.04.814 2.835.043.13-.128.242-.27.334-.427.29-.495 1.006-.495 1.295 0 .557.955 1.78 1.277 2.735.72.298-.174.546-.42.72-.72.288-.494 1.003-.495 1.294 0 .564.957 1.798 1.278 2.757.714.617-.362.995-1.025.993-1.74v-.927c0-.46-.373-.832-.833-.832H4.083c-.46 0-.833.373-.833.833v.932zM14.333 4.125c0 1.29-1.044 2.333-2.333 2.333-1.29 0-2.333-1.044-2.333-2.333 0-.41.163-.824.444-1.277.145-.232.32-.47.518-.713.187-.23.385-.45.584-.657.12-.124.215-.218.272-.272.29-.275.743-.275 1.032 0 .057.054.152.148.272.272.2.207.397.428.584.657.2.243.373.48.517.713.28.453.443.867.443 1.277zm-2.544-1.04c-.16.195-.298.383-.405.555-.147.236-.218.418-.218.485 0 .46.373.833.833.833.46 0 .833-.373.833-.833 0-.067-.07-.25-.218-.485-.107-.172-.244-.36-.404-.556-.067-.083-.138-.166-.21-.248-.072.082-.143.165-.21.248z" id="birthday-Shape" fill-rule="nonzero"/></symbol><symbol viewBox="0 0 25 24" id="book-g"><path d="M13.75 19.107c1.056-.765 3.014-1.8 6.18-2.153.55-.06 1.14-.102 1.765-.117.307-.006.554-.264.555-.58V4.58c-.002-.322-.257-.582-.57-.58h-.014c-4.208.108-6.685 1.54-7.92 2.553.002.034.004.07.004.104v12.45zm-2 0V6.657c0-.035.002-.07.005-.105C10.52 5.54 8.045 4.11 3.835 4c-.315-.01-.576.245-.585.568v11.689c0 .316.248.574.555.58 4.222.103 6.705 1.372 7.945 2.27zM11.673 4.06c.4.24.76.482 1.078.723.32-.24.678-.484 1.08-.724C15.872 2.834 18.46 2.08 21.602 2h.066c1.43-.008 2.572 1.155 2.58 2.58v11.685c-.005 1.39-1.11 2.545-2.506 2.57-.554.015-1.084.05-1.592.107-1.776.198-3.212.64-4.348 1.24-.863.458-1.335.867-1.48 1.052-.8 1.022-2.348 1.022-3.148 0-.145-.185-.617-.594-1.48-1.05-1.478-.783-3.43-1.287-5.93-1.348-1.405-.026-2.51-1.18-2.516-2.58V4.514C1.29 3.097 2.46 1.96 3.886 2c3.156.082 5.744.835 7.788 2.06z" id="book-g-Shape" fill-rule="nonzero"/></symbol><symbol viewBox="0 0 24 24" id="book"><path d="M9.24 8.38c.392.133.603.56.47.95-.13.394-.556.605-.95.473-1.64-.552-3.346-.894-5.074-1.018-.413-.03-.724-.388-.694-.8.03-.415.388-.726.802-.696 1.854.132 3.683.5 5.445 1.09zm-.002 4.196c.393.132.605.557.473.95-.13.392-.555.604-.948.472-1.642-.55-3.348-.89-5.075-1.013-.413-.03-.724-.388-.695-.8.03-.414.388-.725.8-.696 1.855.13 3.684.496 5.446 1.086zm4.85 8.61c2.1-.832 4.872-1.35 8.412-1.414V4.502c-1.255.02-2.507.115-3.75.288v12.056c0 .356-.25.662-.598.734-1.522.316-2.91 1.098-3.975 2.248-.506.528-.894 1.15-1.144 1.83.31-.158.66-.316 1.056-.473zm-1.002-2.387c1.13-1.22 2.572-2.097 4.164-2.543V1.57c-1.174.382-2.23 1.067-3.073 2.003-.78.814-1.28 1.856-1.427 2.974v12.717c.106-.183.218-.342.336-.465zM11.52 5.19c.31-.987.844-1.894 1.56-2.638C14.15 1.362 15.532.498 17.06.06c.374-.114.78-.06 1.106.145.356.22.576.606.584 1.038v2.033C20.068 3.1 21.395 3.01 22.72 3c.334-.005.657.122.9.355.24.234.378.555.38.895v15.775c-.007.684-.56 1.236-1.24 1.243-3.478.043-6.15.532-8.118 1.312-.704.28-1.26.573-1.684.862-.23.158-.362.27-.407.317l-.012.013-.01.01-.016.015c-.2.187-.475.243-.72.173-.03-.008-.057-.018-.084-.03-.094-.04-.182-.098-.256-.178-.006-.007-.014-.015-.025-.024-.108-.127 1.315-.186 1.12.024l-.01.01c-.003.004-.006.008-.01.01-.21.212-.49.26-.736.19l-.082-.03c-.107-.046-.204-.115-.28-.204-.06-.056-.185-.16-.386-.296-.424-.29-.98-.583-1.684-.862-1.968-.78-4.64-1.27-8.115-1.312C.56 21.26.007 20.708 0 20.018V4.248c0-.335.136-.655.38-.895.243-.232.567-.36.898-.353 3.645.047 6.49.568 8.633 1.417.655.26 1.187.523 1.61.774zM9.91 21.186c.523.207.967.417 1.34.62V6.823c-.057-.043-.127-.093-.208-.15-.424-.288-.98-.583-1.684-.86-1.918-.76-4.504-1.245-7.858-1.31v15.27c3.54.064 6.313.58 8.41 1.412z" id="book-Shape" fill-rule="nonzero"/></symbol><symbol viewBox="0 0 24 24" id="briefcase-g"><path d="M7.625 6.5V5.25C7.625 3.455 9.08 2 10.875 2h2.25c1.795 0 3.25 1.455 3.25 3.25V6.5h3.5C21.05 6.5 22 7.45 22 8.625v11.25C22 21.05 21.05 22 19.875 22H4.125C2.95 22 2 21.05 2 19.875V8.625C2 7.45 2.95 6.5 4.125 6.5h3.5zM13 13v1.25c0 .552-.448 1-1 1s-1-.448-1-1V13H4v6.875c0 .07.056.125.125.125h15.75c.07 0 .125-.056.125-.125V13h-7zm-9-2h16V8.625c0-.07-.056-.125-.125-.125H4.125c-.07 0-.125.056-.125.125V11zm5.625-4.5h4.75V5.25c0-.69-.56-1.25-1.25-1.25h-2.25c-.69 0-1.25.56-1.25 1.25V6.5z" id="briefcase-g-Shape" fill-rule="nonzero"/></symbol><symbol viewBox="0 0 24 24" id="briefcase"><path d="M22.5 13.5h-8.25c0 1.243-1.007 2.25-2.25 2.25s-2.25-1.007-2.25-2.25H1.5v6.75c0 .415.336.75.75.75h19.5c.414 0 .75-.335.75-.75V13.5zm0-1.5V8.25c0-.413-.336-.75-.75-.75H2.25c-.414 0-.75.337-.75.75V12h8.25c0-1.243 1.007-2.25 2.25-2.25s2.25 1.007 2.25 2.25h8.25zM6.987 6l.96-2.463C8.253 2.62 9.113 2 10.08 2h3.84c.96 0 1.815.61 2.127 1.518L17.013 6h4.737C22.993 6 24 7.01 24 8.25v12c0 1.244-1.007 2.25-2.25 2.25H2.25C1.007 22.5 0 21.495 0 20.25v-12C0 7.01 1.007 6 2.25 6h4.737zm1.61 0h6.806l-.76-1.953-.012-.035c-.102-.306-.388-.512-.71-.512h-3.84c-.322 0-.608.206-.723.547L8.597 6zm4.153 7.5V12c0-.414-.336-.75-.75-.75s-.75.336-.75.75v1.5c0 .414.336.75.75.75s.75-.336.75-.75z" id="briefcase-Shape" fill-rule="nonzero"/></symbol><symbol viewBox="0 0 24 24" id="bubble"><path d="M6.7 22.85c-.494.37-1.2.018-1.2-.6V18.5H2.25C1.007 18.5 0 17.493 0 16.25V3.75C0 2.507 1.007 1.5 2.25 1.5h19.5C22.993 1.5 24 2.507 24 3.75v12.5c0 1.243-1.007 2.25-2.25 2.25H12.5l-5.8 4.35zm5.1-5.7c.13-.097.288-.15.45-.15h9.5c.414 0 .75-.336.75-.75V3.75c0-.414-.336-.75-.75-.75H2.25c-.414 0-.75.336-.75.75v12.5c0 .414.336.75.75.75h4c.414 0 .75.336.75.75v3l4.8-3.6zM6 8.5c-.414 0-.75-.336-.75-.75S5.586 7 6 7h12c.414 0 .75.336.75.75s-.336.75-.75.75H6zm0 4c-.414 0-.75-.336-.75-.75S5.586 11 6 11h6c.414 0 .75.336.75.75s-.336.75-.75.75H6z" id="bubble-Shape" fill-rule="nonzero"/></symbol><symbol viewBox="0 0 25 24" id="bubbles"><path d="M16.44 19.5h-4.19c-1.243 0-2.25-1.007-2.25-2.25v-7.5c0-1.243 1.007-2.25 2.25-2.25h10.5C23.993 7.5 25 8.507 25 9.75v7.5c0 1.243-1.007 2.25-2.25 2.25H22v3.75c0 .668-.808 1.003-1.28.53l-4.28-4.28zm4.06-.75c0-.414.336-.75.75-.75h1.5c.414 0 .75-.336.75-.75v-7.5c0-.414-.336-.75-.75-.75h-10.5c-.414 0-.75.336-.75.75v7.5c0 .414.336.75.75.75h4.5c.2 0 .39.08.53.22l3.22 3.22v-2.69zm-15-7.5v2.69l1.72-1.72c.293-.293.767-.293 1.06 0 .293.293.293.767 0 1.06l-3 3c-.472.473-1.28.138-1.28-.53V12h-.75C2.007 12 1 10.993 1 9.75v-7.5C1 1.007 2.007 0 3.25 0h10.5C14.993 0 16 1.007 16 2.25v3c0 .414-.336.75-.75.75s-.75-.336-.75-.75v-3c0-.414-.336-.75-.75-.75H3.25c-.414 0-.75.336-.75.75v7.5c0 .414.336.75.75.75h1.5c.414 0 .75.336.75.75z" id="bubbles-Combined-Shape" fill-rule="nonzero"/></symbol><symbol viewBox="0 0 24 24" id="business-big"><path d="M1 22.5V10.75C1 9.784 1.784 9 2.75 9h7c.966 0 1.75.784 1.75 1.75V22.5h1V1.75c0-.966.784-1.75 1.75-1.75h7C22.216 0 23 .784 23 1.75V22.5h.25c.414 0 .75.336.75.75s-.336.75-.75.75H.75c-.414 0-.75-.336-.75-.75s.336-.75.75-.75H1zm1.5 0H10v-9H2.5v9zm11.5 0h7.5V1.75c0-.138-.112-.25-.25-.25h-7c-.138 0-.25.112-.25.25V22.5zM2.5 12H10v-1.25c0-.138-.112-.25-.25-.25h-7c-.138 0-.25.112-.25.25V12zm13-8.25c0-.414.336-.75.75-.75s.75.336.75.75v.75c0 .414-.336.75-.75.75s-.75-.336-.75-.75v-.75zm3 0c0-.414.336-.75.75-.75s.75.336.75.75v.75c0 .414-.336.75-.75.75s-.75-.336-.75-.75v-.75zm-3 3.75c0-.414.336-.75.75-.75s.75.336.75.75v.75c0 .414-.336.75-.75.75s-.75-.336-.75-.75V7.5zm3 0c0-.414.336-.75.75-.75s.75.336.75.75v.75c0 .414-.336.75-.75.75s-.75-.336-.75-.75V7.5zm-3 3.75c0-.414.336-.75.75-.75s.75.336.75.75V12c0 .414-.336.75-.75.75s-.75-.336-.75-.75v-.75zm3 0c0-.414.336-.75.75-.75s.75.336.75.75V12c0 .414-.336.75-.75.75s-.75-.336-.75-.75v-.75zm-3 3.75c0-.414.336-.75.75-.75s.75.336.75.75v.75c0 .414-.336.75-.75.75s-.75-.336-.75-.75V15zm3 0c0-.414.336-.75.75-.75s.75.336.75.75v.75c0 .414-.336.75-.75.75s-.75-.336-.75-.75V15zm-3 3.75c0-.414.336-.75.75-.75s.75.336.75.75v.75c0 .414-.336.75-.75.75s-.75-.336-.75-.75v-.75zm3 0c0-.414.336-.75.75-.75s.75.336.75.75v.75c0 .414-.336.75-.75.75s-.75-.336-.75-.75v-.75zm-14.5-3c0-.414.336-.75.75-.75s.75.336.75.75v.75c0 .414-.336.75-.75.75S4 16.914 4 16.5v-.75zm3 0c0-.414.336-.75.75-.75s.75.336.75.75v.75c0 .414-.336.75-.75.75S7 16.914 7 16.5v-.75zM4 19.5c0-.414.336-.75.75-.75s.75.336.75.75v.75c0 .414-.336.75-.75.75S4 20.664 4 20.25v-.75zm3 0c0-.414.336-.75.75-.75s.75.336.75.75v.75c0 .414-.336.75-.75.75S7 20.664 7 20.25v-.75z" id="business-big-Shape" fill-rule="nonzero"/></symbol><symbol viewBox="0 0 24 24" id="business-g"><path d="M13 9V3c0-1.1.9-2 2-2h6c1.1 0 2 .9 2 2v18c0 1.1-.9 2-2 2H3c-1.1 0-2-.9-2-2V11c0-1.1.9-2 2-2h10zm6 12h2v-2h-2v2zm0-4h2v-2h-2v2zm0-4h2v-2h-2v2zm0-4h2V7h-2v2zm-4 12h2v-2h-2v2zm0-4h2v-2h-2v2zm0-4h2v-2h-2v2zm0-4h2V7h-2v2zM4 21h9V11H4c-.55 0-1 .45-1 1v8c0 .55.45 1 1 1zm1-8h2v2H5v-2zm0 4h2v2H5v-2zM15 3v2h2V3h-2zm4 0v2h2V3h-2zM9 13h2v2H9v-2zm0 4h2v2H9v-2z" id="business-g-Shape" fill-rule="evenodd"/></symbol><symbol viewBox="0 0 24 24" id="business"><path d="M17.625 15.75c0 .62-.504 1.125-1.124 1.125-.62 0-1.125-.503-1.125-1.124 0-.62.503-1.125 1.124-1.125.62 0 1.125.504 1.125 1.125zm0-4.5c0 .62-.504 1.125-1.124 1.125-.62 0-1.125-.503-1.125-1.124 0-.62.503-1.125 1.124-1.125.62 0 1.125.504 1.125 1.125zm0-4.5c0 .62-.504 1.125-1.124 1.125-.62 0-1.125-.503-1.125-1.124 0-.62.503-1.125 1.124-1.125.62 0 1.125.504 1.125 1.125zm-4.5 9c0 .62-.504 1.125-1.124 1.125-.62 0-1.125-.503-1.125-1.124 0-.62.503-1.125 1.124-1.125.62 0 1.125.504 1.125 1.125zm0-4.5c0 .62-.504 1.125-1.124 1.125-.62 0-1.125-.503-1.125-1.124 0-.62.503-1.125 1.124-1.125.62 0 1.125.504 1.125 1.125zm0-4.5c0 .62-.504 1.125-1.124 1.125-.62 0-1.125-.503-1.125-1.124 0-.62.503-1.125 1.124-1.125.62 0 1.125.504 1.125 1.125zm-4.5 9c0 .62-.504 1.125-1.124 1.125-.62 0-1.125-.503-1.125-1.124 0-.62.503-1.125 1.124-1.125.62 0 1.125.504 1.125 1.125zm0-4.5c0 .62-.504 1.125-1.124 1.125-.62 0-1.125-.503-1.125-1.124 0-.62.503-1.125 1.124-1.125.62 0 1.125.504 1.125 1.125zm0-4.5c0 .62-.504 1.125-1.124 1.125-.62 0-1.125-.503-1.125-1.124 0-.62.503-1.125 1.124-1.125.62 0 1.125.504 1.125 1.125zM9 22.5V21c0-1.657 1.343-3 3-3s3 1.343 3 3v1.5h4.5v-18h-15v18H9zm12 0h2.25c.414 0 .75.336.75.75s-.336.75-.75.75H.75c-.414 0-.75-.336-.75-.75s.336-.75.75-.75H3V3.787c-.005-.096.01-.196.045-.294.012-.032.025-.062.04-.092L4.58.416C4.705.16 4.965 0 5.25 0h13.5c.284 0 .544.16.67.415L20.915 3.4c.016.03.03.06.04.093.037.098.05.198.046.294V22.5zM19.036 3l-.75-1.5H5.714L4.964 3h14.072zM13.5 22.5V21c0-.83-.67-1.5-1.5-1.5s-1.5.67-1.5 1.5v1.5h3z" id="business-Shape" fill-rule="nonzero"/></symbol><symbol viewBox="0 0 24 24" id="certificate"><path d="M12.438 19.185c-.797 0-1.5-.388-1.972-.993-1.198 1.33-3.165 1.323-4.354-.02-1.15-1.3-1.15-3.37 0-4.67.273-.31.747-.338 1.058-.064.31.275.34.75.065 1.06-.647.73-.647 1.948 0 2.68.6.676 1.527.675 2.126-.002.31-.347.486-.83.486-1.34 0-1 1.5-1 1.5 0v.516c0 .755.51 1.333 1.092 1.333.582 0 1.093-.578 1.093-1.333 0-1 1.5-1 1.5 0 0 .755.512 1.333 1.093 1.333H17.5c.414 0 .75.336.75.75s-.336.75-.75.75h-1.377c-.727 0-1.376-.323-1.842-.838-.466.515-1.114.838-1.842.838zM6 6.833c-.414 0-.75-.336-.75-.75 0-.415.336-.75.75-.75h2c.414 0 .75.335.75.75 0 .414-.336.75-.75.75H6zm0 3.5c-.414 0-.75-.336-.75-.75 0-.415.336-.75.75-.75h5.5c.414 0 .75.335.75.75 0 .414-.336.75-.75.75H6zm9.25-7.772v4.19c0 .414.336.75.75.75h4.19l-4.94-4.94zm6 6.44H16c-1.243 0-2.25-1.007-2.25-2.25V1.5H3.5c-.414 0-.75.336-.75.75v19.5c0 .414.336.75.75.75h17c.414 0 .75-.336.75-.75V9zm-20-6.75C1.25 1.007 2.257 0 3.5 0h10.38c.595 0 1.167.237 1.59.66l6.622 6.62c.42.423.658.995.658 1.59v12.88c0 1.243-1.007 2.25-2.25 2.25h-17c-1.243 0-2.25-1.007-2.25-2.25V2.25z" id="certificate-Shape" fill-rule="nonzero"/></symbol><symbol viewBox="0 0 25 25" id="chair-g"><path d="M14.575 20.183l3.353 2.076c.47.29.614.906.324 1.375-.29.47-.907.615-1.377.324l-4.2-2.6-4.2 2.6c-.47.29-1.085.145-1.376-.325-.29-.47-.146-1.086.323-1.376l3.353-2.077-1.32-.816H5.628c-.805-.01-1.527-.5-1.825-1.24-.272-.665-.166-1.415.264-1.98l-1.923-4.785c-.412-1.025.085-2.19 1.11-2.6.237-.096.49-.145.746-.145h1.676V4.814c0-1.572 1.22-2.926 2.833-2.926h8.332c1.615 0 2.834 1.354 2.834 2.926v3.803h1.676c.255 0 .508.05.745.144 1.025.413 1.522 1.577 1.11 2.602l-1.938 4.824c.405.557.5 1.29.236 1.936-.3.746-1.022 1.236-1.838 1.245h-3.773l-1.32.816zm5.17-5.57l1.607-3.996h-1.676v3.94c.024.018.047.036.07.056zm-2.07-9.8c0-.51-.372-.925-.833-.925H8.51c-.46 0-.834.415-.834.926v9.345c1.66-.196 3.32-.293 4.98-.293 1.673 0 3.347.1 5.02.297v-9.35zm-12 9.717v-3.913H4l1.595 3.97c.026-.02.053-.04.08-.057zm13.976 2.83l-1.04-1.054c-1.985-.293-3.97-.44-5.954-.44-1.985 0-3.97.147-5.956.44L5.658 17.36c-.002.002-.004.004-.004.007h14c0-.002 0-.004-.003-.006zM11.7 7.89c0-.552.447-1 1-1 .552 0 1 .448 1 1v2.5c0 .553-.448 1-1 1-.553 0-1-.447-1-1v-2.5z" id="chair-g-Combined-Shape" fill-rule="nonzero"/></symbol><symbol viewBox="0 0 25 25" id="chair"><g id="chair-Icons" fill-rule="evenodd"><path d="M17.6 18.464l-4.126 2.538 4.217 2.61c.353.218.462.68.244 1.033-.218.352-.68.46-1.033.243l-4.855-3.007-4.89 3.01c-.354.216-.816.106-1.033-.247-.217-.353-.107-.815.246-1.032L10.618 21l-4.093-2.534H5.118c-.702-.008-1.33-.44-1.587-1.087-.142-.353-.164-.734-.075-1.09l-1.267-5.42c-.22-.942.365-1.883 1.306-2.103.13-.03.265-.046.4-.046H5.31V2.745c0-.967.784-1.75 1.75-1.75h10c.967 0 1.75.783 1.75 1.75v5.973H20.2c.165 0 .33.024.49.07.927.27 1.46 1.24 1.19 2.17l-1.413 4.85c.28.467.333 1.048.124 1.565-.258.652-.886 1.083-1.596 1.09H17.6zm-2.862 0H9.375l2.672 1.655 2.69-1.656zM4.633 14.736l.534-.546c.044-.045.092-.084.145-.116v-3.856h-1.42c-.02 0-.038.002-.056.007-.135.03-.218.166-.187.3l.983 4.21zm14.647-.216l1.16-3.982c.038-.133-.038-.27-.17-.31-.024-.007-.047-.01-.07-.01H18.81v3.856c.053.032.102.07.146.116l.322.33zm-1.968-.72V2.744c0-.138-.112-.25-.25-.25h-10c-.138 0-.25.112-.25.25V13.8c1.75-.224 3.5-.336 5.25-.336s3.5.112 5.25.335zm1.832 2.73l-1.085-1.113c-2-.302-4-.453-5.998-.453-2 0-3.998.15-5.998.453l-1.087 1.11c-.073.077-.095.19-.054.292.034.086.118.143.203.144h13.86c.093 0 .177-.058.213-.15.038-.097.016-.21-.056-.284z" id="chair-Shape" fill-rule="nonzero"/><path d="M12.046 6.165c-.414 0-.75-.336-.75-.75s.336-.75.75-.75.75.336.75.75-.336.75-.75.75zm-2.5 0c-.414 0-.75-.336-.75-.75s.336-.75.75-.75.75.336.75.75-.336.75-.75.75zm5 0c-.414 0-.75-.336-.75-.75s.336-.75.75-.75.75.336.75.75-.336.75-.75.75zm-2.5 2.504c-.414 0-.75-.337-.75-.75 0-.415.336-.75.75-.75s.75.335.75.75c0 .413-.336.75-.75.75zm0 2.5c-.414 0-.75-.337-.75-.75 0-.415.336-.75.75-.75s.75.335.75.75c0 .413-.336.75-.75.75zm2.5 0c-.414 0-.75-.337-.75-.75 0-.415.336-.75.75-.75s.75.335.75.75c0 .413-.336.75-.75.75zm-5 0c-.414 0-.75-.337-.75-.75 0-.415.336-.75.75-.75s.75.335.75.75c0 .413-.336.75-.75.75zm5-2.5c-.414 0-.75-.337-.75-.75 0-.415.336-.75.75-.75s.75.335.75.75c0 .413-.336.75-.75.75zm-5 0c-.414 0-.75-.337-.75-.75 0-.415.336-.75.75-.75s.75.335.75.75c0 .413-.336.75-.75.75z" id="chair-Shape"/></g></symbol><symbol viewBox="0 0 24 24" id="check"><path d="M6.886 11.325l4.536 4.037 10.48-13.318c.25-.33.72-.395 1.05-.145.33.25.396.72.146 1.05l-11 14.003c-.275.363-.807.4-1.128.077l-5.145-4.644c-.293-.293-.293-.768 0-1.06.293-.294.768-.294 1.06 0zm9.953-7.352c.347.225.446.69.22 1.037-.225.348-.69.447-1.037.22-.07-.044-.142-.09-.214-.133-.29-.176-.586-.336-.892-.48C13.703 4.05 12.373 3.75 11 3.75c-5.11 0-9.25 4.14-9.25 9.25s4.14 9.25 9.25 9.25 9.25-4.14 9.25-9.25c0-.542-.047-1.077-.138-1.603-.046-.265-.104-.527-.173-.785-.108-.4.13-.81.53-.918.4-.107.812.13.918.53.08.302.148.607.2.915.108.61.162 1.232.162 1.86 0 5.937-4.813 10.75-10.75 10.75S.25 18.937.25 13 5.063 2.25 11 2.25c1.594 0 3.14.348 4.555 1.01.355.166.7.352 1.035.556.084.05.167.103.25.157z" id="check-Shape" fill-rule="nonzero"/></symbol><symbol viewBox="0 0 24 24" id="clock"><path d="M11.99 2C6.47 2 2 6.48 2 12s4.47 10 9.99 10C17.52 22 22 17.52 22 12S17.52 2 11.99 2zM12 20c-4.42 0-8-3.58-8-8s3.58-8 8-8 8 3.58 8 8-3.58 8-8 8zm-.22-13h-.06c-.4 0-.72.32-.72.72v4.72c0 .35.18.68.49.86l4.15 2.49c.34.2.78.1.98-.24.21-.34.1-.79-.25-.99l-3.87-2.3V7.72c0-.4-.32-.72-.72-.72z" id="clock-Shape" fill-rule="evenodd"/></symbol><symbol viewBox="0 0 24 24" id="compliant"><path d="M1.5 3.93c-.006-.88.505-1.684 1.318-2.055C5.715.61 8.846-.028 11.993 0c3.16-.028 6.292.61 9.2 1.88.802.366 1.313 1.17 1.307 2.044v7.614c0 5.237-3.225 9.933-8.113 11.813l-1.04.4c-.867.334-1.827.334-2.693 0l-1.04-.4C4.723 21.47 1.5 16.776 1.5 11.54v-7.61zm8.65 18.02l1.042.4c.52.2 1.096.2 1.616 0l1.04-.4C18.16 20.295 21 16.155 21 11.54v-7.62c.002-.29-.166-.553-.418-.67-2.703-1.18-5.625-1.774-8.59-1.747-2.948-.026-5.87.57-8.562 1.744-.264.12-.432.385-.43.68v7.614c0 4.616 2.843 8.756 7.15 10.413zm6.308-10.306c.06-.41.44-.695.85-.635.41.058.694.438.634.848-.473 3.28-3.516 5.555-6.795 5.08-3.28-.472-5.555-3.514-5.082-6.794C6.49 7.194 9.02 5.004 12 5c.414 0 .75.336.75.75 0 .415-.335.75-.75.75-2.235.003-4.13 1.645-4.45 3.858-.355 2.46 1.35 4.742 3.81 5.097 2.46.355 4.743-1.35 5.098-3.81zm-5.89-1.83L12 11.252l4.72-4.72c.293-.292.767-.292 1.06 0 .293.294.293.768 0 1.06l-4.786 4.788c-.55.548-1.438.548-1.99-.002l-1.5-1.505c-.292-.293-.29-.768.003-1.06.293-.293.768-.292 1.06 0z" id="compliant-Shape" fill-rule="nonzero"/></symbol><symbol viewBox="0 0 24 24" id="document-g"><path d="M14.5 3.414V7.5c0 .276.224.5.5.5h4.086L14.5 3.414zM20 10h-5c-1.38 0-2.5-1.12-2.5-2.5V2h-8c-.276 0-.5.224-.5.5v19c0 .276.224.5.5.5h15c.276 0 .5-.224.5-.5V10zM2 2.5C2 1.12 3.12 0 4.5 0h8.38c.662 0 1.297.263 1.766.732l6.623 6.622c.467.47.73 1.105.73 1.767V21.5c0 1.38-1.12 2.5-2.5 2.5h-15C3.12 24 2 22.88 2 21.5v-19z" id="document-g-Shape" fill-rule="nonzero"/></symbol><symbol viewBox="0 0 24 24" id="download-g"><path d="M13 12.17l1.88-1.88c.39-.39 1.02-.39 1.41 0 .39.39.39 1.02 0 1.41l-3.59 3.59c-.39.39-1.02.39-1.41 0L7.7 11.7c-.39-.39-.39-1.02 0-1.41.39-.39 1.02-.39 1.41 0L11 12.17V3.5c0-.55.45-1 1-1s1 .45 1 1v8.67zm-9.8 4.928c-.332-.442-.24-1.07.202-1.4.442-.33 1.07-.24 1.4.204C6.478 18.148 9.124 19.5 12 19.5s5.52-1.352 7.2-3.598c.33-.443.956-.534 1.398-.203.443.33.534.956.203 1.398-2.05 2.748-5.288 4.402-8.8 4.402-3.512 0-6.75-1.654-8.8-4.402z" id="download-g-Shape" fill-rule="evenodd"/></symbol><symbol viewBox="0 0 24 24" id="download"><path d="M11.25 16.19V6.75c0-.414.336-.75.75-.75s.75.336.75.75v9.44l2.47-2.47c.293-.293.767-.293 1.06 0 .293.293.293.767 0 1.06l-3.75 3.75c-.293.293-.767.293-1.06 0l-3.75-3.75c-.293-.293-.293-.767 0-1.06.293-.293.767-.293 1.06 0l2.47 2.47zM3.515 3.514c4.686-4.687 12.284-4.687 16.97 0 4.687 4.686 4.687 12.284 0 16.97-4.686 4.687-12.284 4.687-16.97 0-4.687-4.686-4.687-12.284 0-16.97zm15.91 15.91c4.1-4.1 4.1-10.75 0-14.85s-10.75-4.1-14.85 0-4.1 10.75 0 14.85 10.75 4.1 14.85 0z" id="download-Shape" fill-rule="nonzero"/></symbol><symbol viewBox="0 0 25 24" id="dropbox"><path d="M15.25 6c0-.414.336-.75.75-.75h3.628c.908 0 1.702.612 1.934 1.49l2.35 10.006c.057.157.088.327.088.504v4.5c0 .828-.672 1.5-1.5 1.5h-21c-.828 0-1.5-.672-1.5-1.5v-4.5c0-.163.026-.32.074-.467L2.466 6.74C2.696 5.86 3.49 5.25 4.4 5.25H8c.414 0 .75.336.75.75s-.336.75-.75.75H4.4c-.228 0-.426.153-.484.373L1.96 15.75H9c.414 0 .75.336.75.75 0 1.243 1.007 2.25 2.25 2.25s2.25-1.007 2.25-2.25c0-.414.336-.75.75-.75h7.052l-1.94-8.628c-.058-.22-.257-.372-.484-.372H16c-.414 0-.75-.336-.75-.75zm7.25 11.25h-6.825c-.347 1.712-1.86 3-3.675 3-1.814 0-3.328-1.288-3.675-3H1.5v4.5h21v-4.5zm-11.25-5.81V1.5c0-.414.336-.75.75-.75s.75.336.75.75v9.94l1.97-1.97c.293-.293.767-.293 1.06 0 .293.293.293.767 0 1.06l-3.25 3.25c-.293.293-.767.293-1.06 0l-3.25-3.25c-.293-.293-.293-.767 0-1.06.293-.293.767-.293 1.06 0l1.97 1.97z" id="dropbox-Shape" fill-rule="nonzero"/></symbol><symbol viewBox="0 0 24 24" id="edit"><path d="M14.06 9.02l.92.92L5.92 19H5v-.92l9.06-9.06zM17.66 3c-.25 0-.51.1-.7.29l-1.83 1.83 3.75 3.75 1.83-1.83c.39-.39.39-1.02 0-1.41l-2.34-2.34c-.2-.2-.45-.29-.71-.29zm-3.6 3.19L3 17.25V21h3.75L17.81 9.94l-3.75-3.75z" id="edit-Shape" fill-rule="evenodd"/></symbol><symbol viewBox="0 0 24 24" id="gear"><path d="M9.703 9.583c1.27-1.27 3.328-1.27 4.598 0s1.27 3.327 0 4.596c-1.27 1.268-3.327 1.268-4.597 0-1.27-1.27-1.27-3.328 0-4.597zm3.183 3.182c.488-.49.488-1.28 0-1.768s-1.28-.488-1.768 0c-.49.488-.49 1.28 0 1.768.488.488 1.28.488 1.768 0zm2.65-7.693c.074.247.328.394.576.337l2.217-.515c1.62-.365 3.23.653 3.596 2.273.22.97-.056 1.985-.732 2.71l-1.547 1.668c-.178.192-.178.49 0 .682l1.55 1.67c1.125 1.222 1.047 3.125-.176 4.25-.724.668-1.73.938-2.7.722l-2.21-.51c-.25-.06-.503.087-.577.336l-.66 2.175c-.477 1.585-2.15 2.483-3.735 2.006-.963-.29-1.716-1.043-2.005-2.002l-.664-2.18c-.075-.248-.33-.395-.58-.337l-2.21.512c-1.62.37-3.233-.642-3.604-2.26-.223-.974.052-1.994.73-2.72l1.547-1.67c.18-.19.18-.488 0-.68L2.807 9.873c-1.133-1.215-1.065-3.12.15-4.252.728-.677 1.744-.952 2.72-.732l2.2.51c.256.058.512-.09.587-.335l.662-2.175C9.6 1.305 11.27.403 12.857.876c.97.29 1.728 1.05 2.016 2.02l.663 2.176zm-2.578-1.6l-.002-.007c-.096-.323-.348-.576-.672-.673-.527-.157-1.082.143-1.24.675l-.666 2.184c-.384 1.247-1.663 1.988-2.944 1.7l-2.202-.51c-.325-.073-.666.02-.91.246-.407.38-.43 1.018-.048 1.427l1.544 1.665c.893.96.893 2.446 0 3.404l-1.546 1.67c-.228.243-.32.585-.246.91.124.543.665.882 1.205.758l2.21-.512c1.278-.294 2.566.452 2.944 1.705l.664 2.18c.096.32.347.572.667.668.527.16 1.083-.14 1.243-.668l.66-2.174c.377-1.256 1.664-2.003 2.943-1.708l2.203.51c.323.07.66-.02.903-.243.41-.377.436-1.015.06-1.422l-1.544-1.666c-.892-.96-.892-2.446 0-3.405l1.546-1.668c.228-.244.32-.584.247-.91-.123-.542-.663-.884-1.2-.763l-2.214.514c-1.275.292-2.56-.454-2.94-1.705l-.662-2.18z" id="gear-Shape" fill-rule="nonzero"/></symbol><symbol viewBox="0 0 24 24" id="gender"><path d="M7.005 19v-1.405c-.98-.164-1.93-.573-2.76-1.238-2.584-2.074-3-5.85-.925-8.435.364-.453.79-.85 1.27-1.182.454-.314 1.077-.2 1.39.255.315.454.2 1.077-.254 1.39-.318.22-.604.486-.846.79-1.382 1.722-1.106 4.24.617 5.622 1.724 1.382 4.24 1.106 5.623-.617 1.332-1.66 1.13-4.07-.45-5.482-.412-.368-.447-1-.08-1.412.37-.412 1-.447 1.413-.08 2.37 2.12 2.675 5.735.678 8.225-.957 1.194-2.277 1.925-3.675 2.162V19H10.5c.552 0 1 .448 1 1s-.448 1-1 1H9.005v2c0 .552-.448 1-1 1-.553 0-1-.448-1-1v-2H5.5c-.552 0-1-.448-1-1s.448-1 1-1h1.505zm12.5-15.586l-1.522 1.522c1.828 2.5 1.455 6.007-.903 8.063-.416.36-1.048.318-1.41-.098-.364-.417-.32-1.048.096-1.41 1.62-1.413 1.835-3.853.486-5.527-1.386-1.72-3.905-1.99-5.625-.604-1.72 1.388-1.99 3.906-.603 5.626.346.43.28 1.06-.15 1.406-.43.347-1.06.28-1.408-.15-2.08-2.58-1.674-6.358.906-8.438 2.12-1.71 5.048-1.74 7.18-.265L18.09 2h-1.335c-.553 0-1-.448-1-1s.447-1 1-1h3.75c.552 0 1 .448 1 1v3.75c0 .552-.448 1-1 1-.553 0-1-.448-1-1V3.414z" id="gender-Shape" fill-rule="nonzero"/></symbol><symbol viewBox="0 0 25 25" id="help-g"><path d="M13 1c6.072 0 11 4.928 11 11s-4.928 11-11 11S2 18.072 2 12 6.928 1 13 1zM8.612 7.95c-.204.654.293 1.32.982 1.32h.225c.462 0 .835-.328.993-.757.36-1.004 1.433-1.693 2.596-1.445 1.07.226 1.86 1.276 1.77 2.37-.112 1.513-1.828 1.84-2.764 3.252 0 .01-.012.01-.012.022-.01.023-.022.034-.034.057-.1.168-.203.36-.282.563-.01.034-.034.057-.045.09-.01.023-.01.046-.022.08-.174.494.085 1.036.58 1.21.1.036.208.055.316.055h.46c.378 0 .71-.248.816-.61.06-.197.117-.348.176-.452.023-.034.034-.068.057-.102.09-.158.203-.305.316-.44.012-.012.023-.034.035-.045.113-.137.237-.26.372-.385 1.084-1.027 2.55-1.863 2.246-4.02-.27-1.963-1.817-3.622-3.78-3.915-2.326-.34-4.38 1.094-5 3.15zM13 19.25c.76 0 1.376-.616 1.376-1.376 0-.76-.616-1.375-1.376-1.375-.76 0-1.376.615-1.376 1.374 0 .76.616 1.376 1.376 1.376z" id="help-g-Shape" fill-rule="evenodd"/></symbol><symbol viewBox="0 0 24 24" id="help"><path d="M12 6.75C10.757 6.75 9.75 7.76 9.75 9c0 1-1.5 1-1.5 0 0-2.07 1.68-3.75 3.75-3.75 2.07 0 3.75 1.68 3.75 3.75 0 1.59-1 3.006-2.5 3.536-.3.106-.5.39-.5.708v1.006c0 .414-.335.75-.75.75-.414 0-.75-.336-.75-.75v-1.006c0-.954.6-1.804 1.5-2.122.9-.318 1.5-1.168 1.5-2.12 0-1.244-1.007-2.25-2.25-2.25zm-1.125 10.875c0-.62.503-1.125 1.124-1.125.62 0 1.125.504 1.125 1.125 0 .62-.504 1.125-1.125 1.125-.62 0-1.125-.504-1.125-1.125zM12 24C5.373 24 0 18.627 0 12S5.373 0 12 0s12 5.373 12 12-5.373 12-12 12zm0-1.5c5.8 0 10.5-4.7 10.5-10.5S17.8 1.5 12 1.5 1.5 6.2 1.5 12 6.2 22.5 12 22.5z" id="help-Shape" fill-rule="nonzero"/></symbol><symbol viewBox="0 0 24 24" id="holiday-g"><path d="M6.922 5.496c3.35-2.752 8.05-3.02 11.668-.807 1.08.65 1.2 2.19.31 3.08l-1.27 1.27C14.502 5.91 10.126 4.86 6.2 6.155l-.017.012c3.01-.378 6.888 1.172 10.017 4.3l-5.73 5.73c-3.13-3.14-4.68-7.01-4.3-10.02l-.012.017C4.86 10.123 5.91 14.5 9.03 17.63L7.76 18.9c-.89.9-2.42.77-3.08-.31-2.203-3.617-1.935-8.313.813-11.664l-.53-.53c-.39-.39-.39-1.03 0-1.43.39-.39 1.03-.39 1.43 0l.53.53zm6.418 9.273l1.43-1.43 5.73 5.73c.39.39.39 1.03 0 1.43-.39.39-1.03.39-1.43 0l-5.73-5.73z" id="holiday-g-Shape" fill-rule="evenodd"/></symbol><symbol viewBox="0 0 25 24" id="holiday"><path d="M12.235 18.63c.276-.015.55-.023.827-.023 3.515 0 7.014 1.214 10.487 3.623.34.236.423.704.187 1.044-.236.34-.703.425-1.044.19-3.233-2.244-6.44-3.357-9.63-3.357-3.192 0-6.4 1.113-9.632 3.356-.34.236-.807.15-1.043-.19-.236-.34-.15-.807.19-1.043 2.694-1.87 5.404-3.02 8.126-3.44L9.19 14.433 3.55 16.397c-.164.057-.338.086-.512.085-.852-.003-1.54-.697-1.536-1.55.014-2.617 1.21-5.09 3.253-6.725.586-.47 1.214-.85 1.87-1.144l-.285-.818c-.135-.39.073-.818.464-.954.39-.134.82.073.954.465l.28.806.017.006c3.19-.8 6.7.257 8.89 2.993.108.135.193.29.25.453.282.804-.142 1.684-.948 1.965l-5.637 1.962 1.627 4.69zM8.028 8.132c-.034.01-.068.02-.102.032l-.253.383c-.68 1.03-1.008 1.976-1.008 2.847 0 .863.098 1.606.29 2.23l5.074-1.767c-.236-.656-.65-1.354-1.245-2.09-.548-.677-1.4-1.206-2.575-1.578l-.182-.058zm2.877-.29c.402.29.75.617 1.045.98.7.863 1.198 1.708 1.494 2.537v.004l2.308-.802c.022-.008.033-.032.026-.054l-.007-.012c-1.25-1.562-3.02-2.463-4.865-2.653zM5.497 9.54C3.925 10.89 3.01 12.86 3 14.94c0 .023.02.042.042.042.005 0 .01 0 .014-.002l2.48-.864c-.25-.788-.37-1.695-.37-2.722 0-.61.11-1.228.33-1.855zm17.07-7.66c1.172 1.17 1.172 3.07 0 4.24-1.17 1.173-3.07 1.173-4.242 0-1.172-1.17-1.172-3.07 0-4.24 1.17-1.173 3.07-1.173 4.242 0zm-1.06 1.06c-.586-.586-1.536-.586-2.122 0-.585.585-.585 1.535 0 2.12.586.586 1.536.586 2.122 0 .585-.585.585-1.535 0-2.12z" id="holiday-Shape" fill-rule="nonzero"/></symbol><symbol viewBox="0 0 24 24" id="illness"><path d="M7.5 16.46v.04c0 3.314 2.686 6 6 6s6-2.686 6-6v-2.825c-.697-.142-1.36-.483-1.902-1.023-1.464-1.465-1.464-3.84 0-5.304 1.465-1.464 3.84-1.464 5.304 0 1.464 1.465 1.464 3.84 0 5.304-.54.54-1.205.88-1.902 1.023V16.5c0 4.142-3.358 7.5-7.5 7.5C9.358 24 6 20.642 6 16.5v-.04c-3.375-.374-6-3.236-6-6.71v-6C0 2.507 1.007 1.5 2.25 1.5H3V.75c0-.414.336-.75.75-.75s.75.336.75.75V4.5c0 .414-.336.75-.75.75S3 4.914 3 4.5V3h-.75c-.414 0-.75.336-.75.75v6c0 2.9 2.35 5.25 5.25 5.25S12 12.65 12 9.75v-6c0-.414-.336-.75-.75-.75h-.75v1.5c0 .414-.336.75-.75.75S9 4.914 9 4.5V.75c0-.414.336-.75.75-.75s.75.336.75.75v.75h.75c1.243 0 2.25 1.007 2.25 2.25v6c0 3.474-2.625 6.336-6 6.71zm14.34-4.87c.88-.878.88-2.302 0-3.18-.878-.88-2.302-.88-3.18 0-.88.878-.88 2.302 0 3.18.878.88 2.302.88 3.18 0z" id="illness-Shape" fill-rule="nonzero"/></symbol><symbol viewBox="0 0 24 25" id="indemnity-g"><path d="M6 8.5c-.552 0-1-.448-1-1s.448-1 1-1h6.5c.552 0 1 .448 1 1s-.448 1-1 1H6zM6 13c-.552 0-1-.448-1-1s.448-1 1-1h3c.552 0 1 .448 1 1s-.448 1-1 1H6zm6 6c.552 0 1 .448 1 1s-.448 1-1 1H3C1.62 21 .5 19.88.5 18.5V3C.5 1.62 1.62.5 3 .5h10.63c.662 0 1.297.263 1.767.733l2.65 2.8c.39.39.388 1.023-.003 1.414-.39.39-1.024.39-1.414-.002l-2.648-2.8c-.094-.092-.22-.145-.353-.145H3c-.276 0-.5.224-.5.5v15.5c0 .276.224.5.5.5h9zm11.068-7.056c.334.44.25 1.067-.19 1.402-.44.334-1.068.248-1.402-.19-.505-.665-1.303-1.04-2.177-1.006-1.323 0-2.3.733-2.3 1.475 0 .743.978 1.477 2.3 1.477 2.32 0 4.294 1.482 4.294 3.473 0 1.704-1.45 3.037-3.297 3.385v.74c0 .552-.448 1-1 1s-1-.448-1-1v-.728c-1.093-.208-2.084-.812-2.773-1.716-.334-.44-.25-1.067.19-1.4.44-.336 1.067-.25 1.402.19.505.663 1.303 1.038 2.177 1.004 1.322 0 2.3-.733 2.3-1.475 0-.742-.974-1.473-2.294-1.473-2.322 0-4.3-1.485-4.3-3.477 0-1.706 1.45-3.038 3.297-3.385V9.5c0-.552.448-1 1-1s1 .448 1 1v.727c1.092.21 2.084.813 2.77 1.717z" id="indemnity-g-Shape" fill-rule="nonzero"/></symbol><symbol viewBox="0 0 25 25" id="indemnity"><path d="M12.998 13.477c2.636-2.636 6.91-2.636 9.546 0 2.636 2.636 2.636 6.91 0 9.546-2.636 2.636-6.91 2.636-9.546 0-2.636-2.636-2.636-6.91 0-9.546zm8.485 8.485c2.05-2.05 2.05-5.374 0-7.424-2.05-2.05-5.374-2.05-7.424 0-2.052 2.05-2.052 5.374 0 7.424 2.05 2.05 5.373 2.05 7.423 0zM8.52 20.5c.415 0 .75.336.75.75s-.335.75-.75.75H2.77C1.53 22 .52 20.993.52 19.75V3.25C.52 2.007 1.53 1 2.77 1H13.4c.597 0 1.168.237 1.59.66l2.873 2.87c.42.423.658.995.658 1.59v3.13c0 .414-.335.75-.75.75-.413 0-.75-.336-.75-.75V6.12c0-.198-.078-.388-.218-.53L13.93 2.72c-.14-.14-.33-.22-.53-.22H2.77c-.413 0-.75.336-.75.75v16.5c0 .414.337.75.75.75h5.75zM4.27 8c-.413 0-.75-.336-.75-.75s.337-.75.75-.75h10c.415 0 .75.336.75.75s-.335.75-.75.75h-10zm0 7c-.413 0-.75-.336-.75-.75s.337-.75.75-.75h3.75c.415 0 .75.336.75.75s-.335.75-.75.75H4.27zm0-3.5c-.413 0-.75-.336-.75-.75s.337-.75.75-.75h6c.415 0 .75.336.75.75s-.335.75-.75.75h-6zm14.25 3.33c.59.15 1.123.497 1.5.994.252.33.188.8-.142 1.05-.33.25-.8.187-1.05-.142-.243-.32-.626-.5-1.056-.482-.637 0-1.083.334-1.083.625 0 .29.446.626 1.082.626 1.387 0 2.58.897 2.58 2.125 0 1.004-.798 1.786-1.83 2.038v.254c0 .414-.337.75-.75.75-.416 0-.75-.336-.75-.75v-.25c-.592-.148-1.123-.494-1.5-.99-.252-.33-.19-.8.14-1.05.33-.252.8-.188 1.052.14.242.32.625.5 1.055.483.636 0 1.083-.334 1.083-.625 0-.29-.444-.624-1.08-.624-1.388 0-2.584-.897-2.584-2.125 0-1.004.798-1.786 1.83-2.038v-.254c0-.414.336-.75.75-.75.415 0 .75.336.75.75v.248z" id="indemnity-Shape" fill-rule="nonzero"/></symbol><symbol viewBox="0 0 24 24" id="job_assignement"><path d="M8.876 4.125c.624 0 1.244-.095 1.838-.282-.16-.496-.435-.96-.828-1.354-1.318-1.32-3.454-1.32-4.772 0-.063.06-.123.126-.18.192 1.097.928 2.492 1.443 3.942 1.443zm0 1.5c-1.692 0-3.324-.563-4.647-1.585-.284 1.116.01 2.348.884 3.22 1.318 1.32 3.454 1.32 4.772 0 .534-.532.85-1.2.953-1.892-.64.17-1.3.258-1.965.257zm2.07-4.197c1.905 1.904 1.905 4.99 0 6.894-1.903 1.904-4.99 1.904-6.893 0-1.904-1.904-1.904-4.99 0-6.894s4.99-1.904 6.894 0zM14.25 13.5v-.75c0-1.243 1.007-2.25 2.25-2.25H18c1.243 0 2.25 1.007 2.25 2.25v.75h2.25c.828 0 1.5.672 1.5 1.5v7.5c0 .828-.672 1.5-1.5 1.5H12c-.828 0-1.5-.672-1.5-1.5V15c0-.828.672-1.5 1.5-1.5h2.25zM18 18v.75c0 .414-.336.75-.75.75s-.75-.336-.75-.75V18H12v4.5h10.5V18H18zm-6-1.5h10.5V15H12v1.5zm3.75-3h3v-.75c0-.414-.336-.75-.75-.75h-1.5c-.414 0-.75.336-.75.75v.75zM1.5 17.25c0 .413-.336.75-.75.748-.415 0-.75-.336-.75-.75.003-4.144 3.364-7.5 7.508-7.498 1.01 0 2.008.205 2.936.6.38.163.558.603.396.984-.162.38-.603.56-.984.396-.743-.316-1.542-.48-2.35-.48-3.314-.002-6.004 2.683-6.006 6z" id="job_assignement-Shape" fill-rule="nonzero"/></symbol><symbol viewBox="0 0 24 24" id="key_esc"><g id="key_esc-Icons" fill-rule="nonzero"><path d="M9.592 12.446c0 .138-.02.365-.03.463H6.28c.097.552.56.838 1.152.838.395-.01.8-.158 1.125-.523l.887.907c-.404.503-1.075.868-2.17.868-1.46 0-2.524-1.006-2.524-2.505C4.75 11.035 5.776 10 7.235 10c1.36 0 2.357 1.016 2.357 2.446zm-2.377-1.223c-.473 0-.828.286-.927.77h1.805c-.098-.474-.414-.77-.878-.77zM12.307 15c-.76 0-1.43-.237-1.963-.71l.72-.996c.404.365.82.542 1.262.542.306 0 .464-.108.464-.286 0-.157-.148-.256-.75-.443-.808-.247-1.518-.642-1.518-1.57 0-.975.8-1.537 1.804-1.537.73 0 1.263.187 1.825.602l-.73 1.075c-.334-.336-.748-.503-1.074-.503-.177 0-.384.078-.384.266 0 .148.177.256.66.424 1.065.365 1.647.64 1.647 1.588 0 .897-.642 1.548-1.963 1.548zm5.347 0c-1.46 0-2.524-1.006-2.524-2.485 0-1.51 1.025-2.515 2.564-2.515.74 0 1.548.237 2.08.838l-.995.986c-.228-.295-.603-.453-.958-.453-.67 0-1.134.454-1.134 1.135 0 .68.473 1.124 1.144 1.124.434 0 .75-.16 1.025-.454l.947.986c-.434.503-1.144.838-2.15.838z" id="key_esc-esc"/><path d="M3 6h18c1.657 0 3 1.343 3 3v7c0 1.657-1.343 3-3 3H3c-1.657 0-3-1.343-3-3V9c0-1.657 1.343-3 3-3zm0 2c-.552 0-1 .448-1 1v7c0 .552.448 1 1 1h18c.552 0 1-.448 1-1V9c0-.552-.448-1-1-1H3z" id="key_esc-Rectangle"/></g></symbol><symbol viewBox="0 0 24 24" id="key_return"><path id="key_return-🔹-Icon-Color" d="M19 7v4H5.83l3.58-3.59L8 6l-6 6 6 6 1.41-1.41L5.83 13H21V7z" fill-rule="evenodd"/></symbol><symbol viewBox="0 0 24 24" id="key_up_down"><g id="key_up_down-Icons" fill-rule="evenodd"><path d="M18.042 14.01h2.3c.44 0 .67.54.35.85l-3.29 3.28c-.2.19-.51.19-.71 0l-3.29-3.28c-.32-.31-.1-.85.35-.85h2.29V6.5c0-.55.45-1 1-1s1 .45 1 1v7.51zM8.042 9.773v7.51c0 .55-.45 1-1 1s-1-.45-1-1v-7.51h-2.29c-.45 0-.67-.54-.35-.85l3.29-3.28c.2-.19.51-.19.71 0l3.29 3.28c.32.31.09.85-.35.85h-2.3z" id="key_up_down-Path"/></g></symbol><symbol viewBox="0 0 24 24" id="magnifier"><path d="M17.263 16.203l6.517 6.517c.293.293.293.767 0 1.06-.293.293-.767.293-1.06 0l-6.518-6.517c-2.693 2.305-6.546 3.067-10.06 1.65C1.114 16.882-1.316 11.165.71 6.14 2.743 1.114 8.46-1.316 13.486.712c5.026 2.028 7.456 7.746 5.428 12.772-.41 1.018-.973 1.93-1.65 2.72zm-1.52-.562c.745-.756 1.357-1.67 1.78-2.717 1.717-4.258-.342-9.102-4.6-10.82-4.257-1.718-9.1.34-10.82 4.598-1.717 4.26.342 9.103 4.6 10.82 3.163 1.278 6.65.47 8.94-1.778.014-.018.03-.035.047-.052l.053-.05z" id="magnifier-Shape" fill-rule="nonzero"/></symbol><symbol viewBox="0 0 25 25" id="mail"><path d="M21.203 9.803L14.05 14.27c-1.136.71-2.576.71-3.71 0L3.202 9.804V18c0 .828.67 1.5 1.5 1.5h15c.828 0 1.5-.672 1.5-1.5V9.803zM1.203 8c0-1.933 1.567-3.5 3.5-3.5h15c1.933 0 3.5 1.567 3.5 3.5v10c0 1.933-1.567 3.5-3.5 3.5h-15c-1.933 0-3.5-1.567-3.5-3.5V8zm11.787 4.573L21.117 7.5c-.206-.583-.762-1-1.414-1h-15c-.653 0-1.21.417-1.415 1l8.11 5.074c.488.304 1.105.304 1.592 0z" id="mail-Shape" fill-rule="nonzero"/></symbol><symbol viewBox="0 0 24 24" id="manager"><path d="M17.98 5.5c.14 1.698-.44 3.444-1.737 4.743-2.344 2.343-6.143 2.343-8.486 0-2.343-2.344-2.343-6.142 0-8.486 2.343-2.343 6.142-2.343 8.486 0 .655.655 1.127 1.424 1.415 2.243H21.5c.414 0 .75.336.75.75s-.336.75-.75.75h-3.52zM16.03 4c-.21-.427-.495-.827-.85-1.182-1.757-1.757-4.607-1.757-6.364 0-.355.355-.64.755-.85 1.182h8.064zm.44 1.5H7.528c-.146 1.312.284 2.676 1.29 3.682 1.757 1.757 4.607 1.757 6.364 0 1.006-1.006 1.436-2.37 1.29-3.682zm-3.637 13.923l-.085 3.844c-.01.414-.353.742-.767.733-.414-.01-.742-.353-.733-.767l.084-3.782c-2.026-.3-3.612-1.95-3.813-4.008C4.82 16.995 3 19.91 3 23.25c0 .414-.336.75-.75.75s-.75-.336-.75-.75c0-5.8 4.7-10.5 10.5-10.5s10.5 4.7 10.5 10.5c0 .414-.336.75-.75.75s-.75-.336-.75-.75c0-3.34-1.82-6.255-4.52-7.808-.196 2-1.7 3.616-3.645 3.98zM15 14.763c-.938-.333-1.948-.513-3-.513s-2.062.18-3 .512V15c0 1.657 1.343 3 3 3s3-1.343 3-3v-.238z" id="manager-Shape" fill-rule="nonzero"/></symbol><symbol viewBox="0 0 25 24" id="maternity-g"><path d="M12.094 3.75c-3.646 0-6.956 2.727-7.24 6.3-.04.52-.474.922-.996.922h-.013c-.835 0-1.51.676-1.51 1.51 0 .835.675 1.51 1.51 1.51h.013c.44 0 .83.29.957.71 1.222 4.02 5.472 6.29 9.492 5.068 2.43-.738 4.33-2.64 5.067-5.067.128-.422.517-.71.957-.71h.015c.834 0 1.51-.676 1.51-1.51 0-.835-.676-1.51-1.51-1.51h-.014c-.52 0-.954-.402-.996-.922-.198-2.5-1.88-4.588-4.122-5.615.022.153.034.31.034.468 0 1.74-1.412 3.152-3.153 3.15-1.025 0-1.98-.497-2.57-1.325-.32-.45-.213-1.074.237-1.394.45-.32 1.075-.215 1.395.236.215.302.564.484.94.484.635 0 1.15-.515 1.15-1.15 0-.638-.514-1.154-1.15-1.154zm0-2c4.372 0 8.366 3.08 9.13 7.333 1.513.39 2.63 1.764 2.63 3.4 0 1.69-1.193 3.1-2.783 3.435-1.053 2.762-3.33 4.898-6.18 5.765-4.863 1.478-9.99-1.086-11.772-5.765-1.59-.335-2.784-1.746-2.784-3.435 0-1.636 1.118-3.01 2.632-3.4.763-4.253 4.758-7.333 9.13-7.333zm-3 10.75c-.828 0-1.5-.672-1.5-1.5 0-.83.672-1.5 1.5-1.5.83 0 1.5.67 1.5 1.5 0 .828-.67 1.5-1.5 1.5zm6 0c-.828 0-1.5-.672-1.5-1.5 0-.83.672-1.5 1.5-1.5.83 0 1.5.67 1.5 1.5 0 .828-.67 1.5-1.5 1.5zm-1.66 2.75c.414-.365 1.045-.325 1.41.088.366.413.326 1.044-.088 1.408-1.52 1.34-3.802 1.34-5.323 0-.414-.364-.454-.995-.088-1.408.365-.413.997-.453 1.41-.09.766.674 1.913.674 2.678 0z" id="maternity-g-Shape" fill-rule="nonzero"/></symbol><symbol viewBox="0 0 25 24" id="maternity"><path d="M12.3 3.157c-3.96 0-7.555 2.962-7.864 6.86-.03.39-.357.69-.748.69h-.014c-1.035 0-1.875.84-1.875 1.875 0 1.036.84 1.875 1.874 1.875h.014c.33 0 .622.216.718.532 1.325 4.36 5.933 6.82 10.292 5.493 2.634-.8 4.694-2.86 5.495-5.494.096-.317.387-.533.717-.533h.014c1.036 0 1.875-.84 1.875-1.875 0-1.035-.84-1.875-1.876-1.875h-.014c-.39 0-.717-.3-.747-.69-.233-2.93-2.323-5.333-5.03-6.344.107.31.166.64.165.985 0 1.657-1.344 3-3 3-1.27 0-2.404-.802-2.828-2-.138-.39.067-.82.457-.958s.82.067.957.457c.212.6.78 1 1.414 1 .828 0 1.5-.67 1.5-1.5 0-.828-.67-1.5-1.5-1.5zm0-1.5c4.496 0 8.6 3.216 9.284 7.615 1.548.307 2.715 1.672 2.715 3.31 0 1.68-1.228 3.073-2.835 3.332-1.043 2.877-3.383 5.11-6.33 6.005-4.987 1.514-10.25-1.16-12.002-6.006C1.526 15.654.3 14.262.3 12.582c0-1.638 1.166-3.003 2.714-3.31.685-4.4 4.788-7.615 9.285-7.615zm1.487 14.863c.31-.274.785-.244 1.06.066.273.31.243.785-.068 1.06-1.418 1.25-3.544 1.25-4.96 0-.312-.275-.34-.75-.067-1.06.274-.31.747-.34 1.058-.066.852.75 2.127.75 2.977 0zm3.012-5.438c0-.414.335-.75.75-.75.413 0 .75.336.75.75 0 1.243-1.008 2.25-2.25 2.25-1.243 0-2.25-1.007-2.25-2.25 0-.414.335-.75.75-.75.413 0 .75.336.75.75 0 .415.335.75.75.75.413 0 .75-.335.75-.75zm-7.5 0c0-.414.335-.75.75-.75.413 0 .75.336.75.75 0 1.243-1.008 2.25-2.25 2.25-1.243 0-2.25-1.007-2.25-2.25 0-.414.335-.75.75-.75.413 0 .75.336.75.75 0 .415.335.75.75.75.413 0 .75-.335.75-.75z" id="maternity-Shape" fill-rule="nonzero"/></symbol><symbol viewBox="0 0 24 24" id="medical"><path d="M3.515 3.515c4.686-4.687 12.284-4.687 16.97 0 4.687 4.686 4.687 12.284 0 16.97-4.686 4.687-12.284 4.687-16.97 0-4.687-4.686-4.687-12.284 0-16.97zm15.91 15.91c4.1-4.1 4.1-10.75 0-14.85s-10.75-4.1-14.85 0-4.1 10.75 0 14.85 10.75 4.1 14.85 0zM15 6v3h3c.828 0 1.5.672 1.5 1.5v3c0 .828-.672 1.5-1.5 1.5h-3v3c0 .828-.672 1.5-1.5 1.5h-3c-.828 0-1.5-.672-1.5-1.5v-3H6c-.828 0-1.5-.672-1.5-1.5v-3C4.5 9.672 5.172 9 6 9h3V6c0-.828.672-1.5 1.5-1.5h3c.828 0 1.5.672 1.5 1.5zm3 7.5v-3h-3.75c-.414 0-.75-.336-.75-.75V6h-3v3.75c0 .414-.336.75-.75.75H6v3h3.75c.414 0 .75.336.75.75V18h3v-3.75c0-.414.336-.75.75-.75H18z" id="medical-Shape" fill-rule="nonzero"/></symbol><symbol viewBox="0 0 24 24" id="orgchart"><path d="M16.75 17.5h5.5c.966 0 1.75.784 1.75 1.75v3c0 .966-.784 1.75-1.75 1.75h-12c-.966 0-1.75-.784-1.75-1.75v-.552H7.25c-1.38 0-2.5-1.12-2.5-2.5V6.5h-3C.784 6.5 0 5.716 0 4.75v-3C0 .784.784 0 1.75 0h12c.966 0 1.75.784 1.75 1.75v3c0 .966-.784 1.75-1.75 1.75h-7v4.75c0 .276.224.5.5.5H8.5v-.5c0-.966.784-1.75 1.75-1.75h12c.966 0 1.75.784 1.75 1.75v3c0 .966-.784 1.75-1.75 1.75h-5.5v1.5zm-2 0V16h-4.5c-.966 0-1.75-.784-1.75-1.75v-.5H7.25c-.17 0-.338-.017-.5-.05v5.498c0 .276.224.5.5.5H8.5v-.448c0-.966.784-1.75 1.75-1.75h4.5zM22 22v-2.5H10.5V22H22zm0-8v-2.5H10.5V14H22zm-8.5-9.5V2H2v2.5h11.5z" id="orgchart-Shape" fill-rule="nonzero"/></symbol><symbol viewBox="0 0 25 24" id="other-g"><path d="M20.08 5.966c-.578-1.04-1.897-1.415-2.943-.833l-.04.024-1.547.922V4.2c.01-1.2-.96-2.19-2.17-2.2h-2.452c-1.218.01-2.19 1-2.178 2.208V6.08l-1.543-.918c-1.04-.61-2.367-.262-2.972.77l-.023.042L3.04 8.046c-.595 1.043-.245 2.373.788 2.99L5.464 12l-1.632.96c-1.04.62-1.387 1.95-.79 2.996l1.175 2.077c.58 1.04 1.9 1.415 2.944.833l.042-.024 1.548-.922v1.88c.008 1.214.985 2.192 2.193 2.2h2.407c1.214-.008 2.192-.986 2.2-2.194V17.92l1.542.92c1.04.61 2.367.262 2.972-.77l.023-.04 1.175-2.075c.594-1.044.245-2.374-.788-2.99L18.834 12l1.634-.96c1.038-.623 1.386-1.95.79-2.994l-1.177-2.08zm-.56 3.07c.058.098.025.225-.074.284l-3.09 1.818c-.657.386-.657 1.337 0 1.723l3.097 1.825c.093.055.127.182.07.282l-1.18 2.082-.005.008c-.047.08-.15.107-.23.06L15.063 15.3c-.667-.397-1.512.083-1.512.86v3.64c0 .107-.093.2-.207.2H10.95c-.108 0-.2-.093-.2-.207V16.16c0-.776-.846-1.257-1.513-.86l-3.052 1.82c.005-.002.005-.002.003-.002-.08.045-.182.016-.227-.064l-1.18-2.086c-.06-.103-.026-.23.073-.29l3.09-1.816c.658-.387.658-1.338 0-1.724L4.85 9.316c-.093-.055-.126-.182-.07-.282l1.178-2.08.005-.01c.048-.08.15-.107.23-.06L9.238 8.7c.667.396 1.512-.085 1.512-.86V4.2c0-.114.083-.2.187-.2h2.434c.096 0 .18.086.18.19v3.65c0 .776.845 1.256 1.512.858l3.052-1.82c.077-.042.18-.013.223.067l1.182 2.087v.003z" id="other-g-Path-Copy-12" fill-rule="nonzero"/></symbol><symbol viewBox="0 0 25 24" id="other"><path d="M16.68 2.25C16.693 1.022 15.7.012 14.467 0h-3.06C10.162.012 9.17 1.022 9.18 2.257V5.48L6.498 3.882c-1.058-.62-2.41-.265-3.028.787l-.023.04L1.98 7.305c-.61 1.07-.25 2.43.806 3.062L5.562 12 2.79 13.63c-1.063.636-1.42 1.997-.81 3.067l1.47 2.598c.592 1.06 1.938 1.444 3.003.85l.042-.024 2.687-1.6v3.23c.008 1.24 1.008 2.24 2.245 2.25h3.005c1.24-.01 2.24-1.01 2.25-2.246V18.52l2.683 1.6c1.058.62 2.41.266 3.028-.786l.023-.042 1.47-2.595c.61-1.07.25-2.43-.806-3.062L20.302 12l2.773-1.63c1.06-.637 1.418-1.998.808-3.067l-1.472-2.6c-.59-1.06-1.935-1.443-3-.85l-.043.025-2.686 1.6V2.25zm5.9 5.796c.206.36.086.82-.27 1.033l-3.867 2.273c-.493.29-.493 1.003 0 1.293l3.872 2.28c.352.21.473.67.267 1.03l-1.473 2.602-.012.018c-.197.338-.632.45-.97.253l-3.812-2.275c-.5-.298-1.135.062-1.135.644v4.55c0 .41-.338.746-.753.75h-2.995c-.41-.004-.748-.34-.75-.756V17.2c0-.583-.634-.943-1.134-.645L5.732 18.83l-.01.005c-.34.19-.772.067-.963-.275l-1.475-2.604c-.207-.363-.087-.823.27-1.036l3.866-2.274c.494-.29.494-1.003 0-1.293L3.55 9.076c-.35-.21-.472-.67-.266-1.03l1.47-2.6.01-.02c.2-.336.633-.45.97-.252l3.814 2.27c.5.298 1.134-.062 1.134-.644V2.25c-.004-.413.323-.746.73-.75h3.047c.398.004.725.337.72.743V6.8c0 .582.636.942 1.136.644L20.13 5.17l.01-.006c.34-.19.772-.067.963.275l1.476 2.603v.003z" id="other-Path" fill-rule="nonzero"/></symbol><symbol viewBox="0 0 24 24" id="pencil"><path d="M7.66 20.412L18.587 9.487l-4.073-4.073-10.93 10.928 4.078 4.07zm-1.456.665L2.922 17.8l-1.13 4.41 4.412-1.133zM1.78 16.21c.027-.146.096-.286.21-.4.018-.02.04-.037.06-.054L13.925 3.88c.016-.02.034-.04.054-.06.02-.02.04-.038.06-.054l2.445-2.445.03-.03C18.224-.425 21-.43 22.72 1.28l.03.03c1.694 1.733 1.662 4.512-.065 6.2l-2.45 2.45c-.018.02-.035.04-.055.06-.02.02-.04.037-.06.054L8.186 22.01c-.095.094-.214.162-.344.195l-6.904 1.77c-.552.143-1.054-.36-.912-.91L1.78 16.21zm17.867-7.784l1.034-1.034L16.61 3.32l-1.034 1.033 4.073 4.073zM21.74 6.33c1.032-1.122 1.016-2.868-.062-3.97l-.02-.02c-1.098-1.093-2.857-1.12-3.988-.08l4.07 4.07z" id="pencil-Shape" fill-rule="nonzero"/></symbol><symbol viewBox="0 0 24 24" id="person"><path d="M16.48 15.442C16.256 17.72 14.335 19.5 12 19.5c-2.336 0-4.257-1.78-4.48-4.058C4.82 16.995 3 19.91 3 23.25c0 .414-.336.75-.75.75s-.75-.336-.75-.75c0-5.8 4.7-10.5 10.5-10.5s10.5 4.7 10.5 10.5c0 .414-.336.75-.75.75s-.75-.336-.75-.75c0-3.34-1.82-6.255-4.52-7.808zm-1.48-.68c-.938-.332-1.948-.512-3-.512s-2.062.18-3 .512V15c0 1.657 1.343 3 3 3s3-1.343 3-3v-.238zm1.343-9.945c-.2-.732-.586-1.424-1.16-2-1.758-1.756-4.608-1.756-6.365 0-.132.133-.254.272-.367.415 1.455 1.296 3.34 2.018 5.3 2.018.884 0 1.76-.146 2.593-.433zm.144 1.53c-.886.267-1.808.403-2.737.403-2.21 0-4.336-.772-6.023-2.163-.516 1.562-.152 3.352 1.09 4.595 1.758 1.757 4.608 1.757 6.365 0 .79-.79 1.225-1.802 1.305-2.836zm-.244-4.59c2.343 2.344 2.343 6.142 0 8.486-2.344 2.343-6.143 2.343-8.486 0-2.343-2.344-2.343-6.142 0-8.486 2.343-2.343 6.142-2.343 8.486 0z" id="person-Shape" fill-rule="nonzero"/></symbol><symbol viewBox="0 0 24 24" id="persons"><path d="M10.875 7.92c-.605.164-1.23.25-1.86.248-1.69 0-3.314-.608-4.583-1.7-.572 1.245-.345 2.767.682 3.793 1.318 1.32 3.454 1.32 4.772 0 .648-.646.978-1.492.99-2.34zm-.315-1.47c-.162-.35-.387-.674-.674-.96-1.242-1.244-3.212-1.315-4.538-.215 1.007.894 2.31 1.393 3.668 1.393.524 0 1.044-.074 1.544-.22zm6.005 7.634c-.642-.188-1.248-.535-1.755-1.042-1.61-1.61-1.61-4.223 0-5.834 1.61-1.61 4.223-1.61 5.834 0 1.61 1.61 1.61 4.223 0 5.834-.508.507-1.114.855-1.758 1.043 2.095.396 3.936 1.85 4.727 3.998.256.694.387 1.427.387 2.167 0 .414-.335.75-.75.75-.414 0-.75-.335-.75-.75 0-.562-.1-1.12-.295-1.65-.912-2.474-3.658-3.74-6.133-2.828-.388.143-.82-.056-.963-.445-.144-.388.055-.82.444-.963.334-.123.672-.216 1.01-.28zM4.053 4.428c1.904-1.904 4.99-1.904 6.894 0s1.904 4.99 0 6.894-4.99 1.904-6.894 0-1.904-4.99 0-6.894zM1.5 20.25c0 .414-.336.75-.75.75S0 20.664 0 20.25c0-4.142 3.358-7.5 7.5-7.5 4.142 0 7.5 3.358 7.5 7.5 0 .414-.336.75-.75.75s-.75-.336-.75-.75c0-3.314-2.686-6-6-6s-6 2.686-6 6zm18.083-8.27c1.025-1.024 1.025-2.686 0-3.71-1.025-1.026-2.687-1.026-3.712 0-1.024 1.024-1.024 2.686 0 3.71 1.026 1.026 2.688 1.026 3.713 0z" id="persons-Shape" fill-rule="nonzero"/></symbol><symbol viewBox="0 0 25 25" id="phone-call-g"><path d="M10.316 23.246c-1.63-1.035-3.14-2.246-4.503-3.61L4.37 18.19c-1.367-1.364-2.58-2.875-3.616-4.504-.02-.03-.038-.064-.055-.097-1.15-1.893-.86-4.333.71-5.905l1.02-1.02c.888-.887 2.326-.887 3.213 0L7.89 8.912c.887.888.887 2.326 0 3.213l-.484.486-.002.002c-.105.106-.105.278 0 .384l3.6 3.598c-.084-.083-.013-.077.173-.128.28-.076.576-.236.698-.357.887-.887 2.325-.887 3.212 0l2.248 2.247c.887.887.887 2.325 0 3.213l-1.02 1.02c-1.573 1.573-4.016 1.86-5.91.708-.03-.016-.06-.033-.09-.052zm-3.09-5.025c1.242 1.242 2.613 2.346 4.09 3.293.03.014.055.03.082.046 1.113.708 2.57.548 3.503-.385l1.02-1.02c.107-.105.107-.278 0-.384l-2.247-2.246c-.106-.106-.278-.106-.385 0-.93.928-2.758 1.424-3.698.485l-3.6-3.6c-.886-.885-.887-2.323.002-3.215l.484-.484c.106-.105.106-.277 0-.384L4.23 8.08c-.107-.107-.28-.107-.386 0L2.824 9.1c-.933.932-1.092 2.39-.383 3.502.02.028.035.057.05.086.948 1.477 2.052 2.848 3.293 4.088l1.444 1.445zM18.337 9l-3.413 2.575c-.53.4-1.282.294-1.68-.236-.158-.21-.243-.462-.243-.723V2.5C13 1.12 14.12 0 15.5 0h6C22.88 0 24 1.12 24 2.5v4C24 7.88 22.88 9 21.5 9h-3.165zm-.938-1.798C17.57 7.072 17.783 7 18 7h3.5c.276 0 .5-.224.5-.5v-4c0-.276-.224-.5-.5-.5h-6c-.276 0-.5.224-.5.5v6.51l2.398-1.808zM18.5 5.5c-.552 0-1-.448-1-1s.448-1 1-1 1 .448 1 1-.448 1-1 1z" id="phone-call-g-Shape" fill-rule="nonzero"/></symbol><symbol viewBox="0 0 25 25" id="phone-call"><path d="M1.656 13.514c-.016-.026-.03-.052-.043-.08C.607 11.787.858 9.66 2.228 8.29l.483-.482c.742-.74 1.943-.74 2.684 0l2.028 2.027c.74.742.74 1.943 0 2.686-.156.154-.156.406 0 .56l3.247 3.248c.154.155.407.155.563 0 .74-.74 1.942-.74 2.683 0l2.028 2.027c.74.742.74 1.943 0 2.684l-.482.482c-1.372 1.37-3.502 1.62-5.15.613-.026-.012-.05-.026-.074-.04-1.46-.93-2.814-2.016-4.037-3.24l-1.303-1.302c-1.224-1.224-2.31-2.58-3.24-4.04zm5.605 4.28c1.13 1.13 2.38 2.135 3.724 2.997l.066.038c1.065.678 2.458.526 3.35-.367l.484-.48c.155-.157.155-.41 0-.564l-2.028-2.028c-.155-.155-.407-.155-.563 0-.742.74-1.943.74-2.684 0L6.36 14.143c-.74-.74-.743-1.94 0-2.686.155-.155.155-.407 0-.562L4.333 8.866c-.155-.155-.407-.155-.563 0l-.48.483c-.894.89-1.047 2.285-.368 3.35.014.023.028.046.04.07.862 1.345 1.866 2.593 2.996 3.722l1.303 1.303zm8.646-3.104c-.37.288-.905.22-1.193-.15-.142-.18-.203-.413-.17-.64l.342-2.4H13.75c-1.243 0-2.25-1.007-2.25-2.25v-6C11.5 2.007 12.507 1 13.75 1h9C23.993 1 25 2.007 25 3.25v6c0 1.243-1.007 2.25-2.25 2.25h-2.743l-4.1 3.19zm3.384-4.532c.13-.102.293-.158.46-.158h3c.414 0 .75-.336.75-.75v-6c0-.414-.336-.75-.75-.75h-9c-.414 0-.75.336-.75.75v6c0 .414.336.75.75.75h2c.456 0 .807.404.742.856l-.237 1.662 3.035-2.36zm-4.04-4.65c-.414 0-.75-.336-.75-.75 0-.415.336-.75.75-.75H21c.414 0 .75.335.75.75 0 .414-.336.75-.75.75h-5.75zm0 2.742c-.414 0-.75-.336-.75-.75s.336-.75.75-.75H19c.414 0 .75.336.75.75s-.336.75-.75.75h-3.75z" id="phone-call-Shape" fill-rule="nonzero"/></symbol><symbol viewBox="0 0 20 24" id="prefs"><path d="M15 5v2c0 .552-.448 1-1 1s-1-.448-1-1V1c0-.552.448-1 1-1s1 .448 1 1v2h4c.552 0 1 .448 1 1s-.448 1-1 1h-4zM5 13H1c-.552 0-1-.448-1-1s.448-1 1-1h4V9c0-.552.448-1 1-1s1 .448 1 1v6c0 .552-.448 1-1 1s-1-.448-1-1v-2zm8 8v2c0 .552-.448 1-1 1s-1-.448-1-1v-6c0-.552.448-1 1-1s1 .448 1 1v2h6c.552 0 1 .448 1 1s-.448 1-1 1h-6zm-5-2c.552 0 1 .448 1 1s-.448 1-1 1H1c-.552 0-1-.448-1-1s.448-1 1-1h7zm11-8c.552 0 1 .448 1 1s-.448 1-1 1h-9c-.552 0-1-.448-1-1s.448-1 1-1h9zm-9-8c.552 0 1 .448 1 1s-.448 1-1 1H1c-.552 0-1-.448-1-1s.448-1 1-1h9z" id="prefs-Combined-Shape" fill-rule="nonzero"/></symbol><symbol viewBox="0 0 24 24" id="profile"><path d="M9.448 6.897c1.59 1.345 3.765 1.78 5.75 1.155-.157-.492-.432-.954-.822-1.345-1.312-1.312-3.44-1.312-4.752 0-.06.062-.12.125-.176.19zm5.876 2.68c-2.277.608-4.715.118-6.58-1.322-.282 1.11.012 2.335.88 3.204 1.312 1.31 3.44 1.31 4.752 0 .53-.53.846-1.194.948-1.882zM3.75 24c-1.243 0-2.25-1.007-2.25-2.25V2.25C1.5 1.007 2.507 0 3.75 0h16.5c1.243 0 2.25 1.007 2.25 2.25v19.5c0 1.243-1.007 2.25-2.25 2.25H3.75zm0-1.5h16.5c.414 0 .75-.336.75-.75V2.25c0-.414-.336-.75-.75-.75H3.75c-.414 0-.75.336-.75.75v19.5c0 .414.336.75.75.75zM8.563 5.646c1.898-1.897 4.976-1.897 6.874 0 1.897 1.898 1.897 4.976 0 6.874-1.898 1.897-4.976 1.897-6.874 0-1.897-1.898-1.897-4.976 0-6.874zm10.85 13.03c.194.368.053.82-.313 1.014-.367.194-.82.053-1.013-.313-1.772-3.362-5.933-4.65-9.295-2.88-1.228.648-2.23 1.652-2.88 2.88-.192.366-.645.507-1.012.313-.366-.193-.507-.646-.313-1.013.788-1.496 2.01-2.718 3.506-3.506 4.094-2.157 9.163-.587 11.32 3.507z" id="profile-Shape" fill-rule="nonzero"/></symbol><symbol viewBox="0 0 24 24" id="redo"><path d="M18.208 10.6c-1.85-1.61-4.25-2.6-6.9-2.6-4.16 0-7.74 2.42-9.44 5.93-.32.67.04 1.47.75 1.71.59.2 1.23-.08 1.5-.64 1.3-2.66 4.03-4.5 7.19-4.5 1.95 0 3.73.72 5.12 1.88l-1.91 1.91c-.63.63-.19 1.71.7 1.71h5.59c.55 0 1-.45 1-1V9.41c0-.89-1.08-1.34-1.71-.71l-1.89 1.9z" id="redo-Path" fill-rule="evenodd"/></symbol><symbol viewBox="0 0 24 24" id="reminder"><path d="M1.918 18h15.517c-.306-.632-.53-1.302-.665-1.995-.08-.407.187-.8.593-.88.407-.078.8.187.88.594.18.934.563 1.82 1.118 2.593.357.496.002 1.187-.61 1.187h-18c-.592 0-.95-.657-.63-1.156.028-.042.092-.16.182-.36.16-.354.324-.8.478-1.343.45-1.584.72-3.618.72-6.14 0-4.304 3.296-7.837 7.5-8.216V.75c0-.414.337-.75.75-.75.415 0 .75.336.75.75V3c0 .414-.335.75-.75.75C6.024 3.75 3 6.772 3 10.5c0 2.658-.29 4.83-.777 6.55-.102.36-.205.675-.305.95zm10.56-16.023c2.636-2.636 6.91-2.636 9.546 0 2.636 2.636 2.636 6.91 0 9.546-2.636 2.636-6.91 2.636-9.546 0-2.636-2.636-2.636-6.91 0-9.546zm8.485 8.485c2.05-2.05 2.05-5.374 0-7.424-2.05-2.05-5.374-2.05-7.424 0-2.05 2.05-2.05 5.374 0 7.424 2.05 2.05 5.373 2.05 7.423 0zM18 7.5h1.5c.415 0 .75.336.75.75s-.335.75-.75.75h-2.25c-.413 0-.75-.336-.75-.75V4.5c0-.414.337-.75.75-.75.415 0 .75.336.75.75v3zM7.03 21.96c-.117-.396.11-.813.508-.93.397-.116.814.11.93.51.21.707.952 1.113 1.66.905.437-.128.778-.47.907-.906.116-.4.533-.626.93-.51.398.117.626.534.51.93-.273.928-.998 1.652-1.924 1.924-1.503.442-3.08-.42-3.52-1.923z" id="reminder-Shape" fill-rule="nonzero"/></symbol><symbol viewBox="0 0 24 24" id="remove"><path d="M7 11v2h10v-2H7zm5-9C6.48 2 2 6.48 2 12s4.48 10 10 10 10-4.48 10-10S17.52 2 12 2zm0 18c-4.41 0-8-3.59-8-8s3.59-8 8-8 8 3.59 8 8-3.59 8-8 8z" id="remove-Shape" fill-rule="evenodd"/></symbol><symbol viewBox="0 0 25 24" id="rest-g"><path d="M11.056 2.078c-.42.84-.716 1.736-.88 2.662-.912 5.165 2.425 10.06 7.438 10.946 1.308.23 2.65.166 3.938-.19.835-.23 1.548.64 1.16 1.413-1.46 2.916-4.066 5.07-7.164 5.917-6.014 1.645-12.148-2-13.7-8.126C.303 8.59 3.9 2.308 9.9.667c.834-.228 1.545.64 1.158 1.412zm3.964 18.82c1.865-.51 3.517-1.6 4.742-3.093-.833.046-1.67-.004-2.495-.15-6.112-1.078-10.162-7.02-9.06-13.263.06-.333.132-.663.22-.99-3.71 2.035-5.737 6.472-4.64 10.808 1.28 5.048 6.307 8.035 11.233 6.688z" id="rest-g-Shape" fill-rule="nonzero"/></symbol><symbol viewBox="0 0 25 24" id="rest"><path d="M10.54 3.48c-.424.835-.723 1.73-.886 2.65-.91 5.156 2.53 10.073 7.686 10.983 1.347.238 2.73.18 4.05-.172.627-.166 1.156.488.86 1.066-1.418 2.786-3.96 4.834-6.982 5.63-5.86 1.542-11.86-1.958-13.404-7.818C.322 9.958 3.822 3.958 9.682 2.415c.626-.165 1.153.488.86 1.065zm4.346 18.705c2.082-.548 3.9-1.784 5.17-3.483-.99.1-1.99.062-2.976-.11-5.97-1.056-9.957-6.75-8.903-12.72.088-.498.21-.987.364-1.465-4.122 1.876-6.417 6.5-5.225 11.03 1.33 5.058 6.512 8.08 11.57 6.748zm1.35-19.935V.75c0-.414.335-.75.75-.75.413 0 .75.336.75.75v1.5h1.504c.414 0 .75.336.75.75s-.336.75-.75.75h-1.505v1.5c0 .414-.336.75-.75.75s-.75-.336-.75-.75v-1.5H14.73c-.414 0-.75-.336-.75-.75s.336-.75.75-.75h1.505zM21 9v-.75c0-.414.336-.75.75-.75s.75.336.75.75V9h.75c.414 0 .75.336.75.75s-.336.75-.75.75h-.75v.75c0 .414-.336.75-.75.75s-.75-.336-.75-.75v-.75h-.75c-.414 0-.75-.336-.75-.75s.336-.75.75-.75H21z" id="rest-Shape" fill-rule="nonzero"/></symbol><symbol viewBox="0 0 24 24" id="role-g"><path d="M2 11.458V4.433c-.005-.932.537-1.78 1.4-2.177C6.116 1.072 9.05.473 11.99.5c2.962-.027 5.895.572 8.625 1.763.85.39 1.39 1.24 1.385 2.167v7.028c0 4.96-3.055 9.41-7.686 11.192l-.96.37c-.872.334-1.836.334-2.707 0l-.96-.37C5.054 20.867 2 16.42 2 11.457zm2-7.035V11.458c0 4.134 2.546 7.84 6.404 9.325l.96.37c.41.156.862.156 1.27 0l.962-.37C17.454 19.3 20 15.593 20 11.458V4.423c0-.147-.084-.28-.2-.334-2.457-1.073-5.11-1.614-7.81-1.59-2.68-.024-5.333.517-7.772 1.582-.134.06-.22.194-.218.34zm3.05 11.13c.815-.365 1.843-.73 2.982-1.152.65-.24.543-1.936.256-2.253-.927-1.004-1.38-2.355-1.248-3.714C9.04 6.313 10.425 5 12.08 5c1.658 0 3.042 1.312 3.042 3.433.133 1.36-.32 2.71-1.247 3.714-.288.317-.395 2.013.255 2.254 1.11.41 2.115.768 2.92 1.124-.915 1.4-2.258 2.515-3.89 3.143l-.87.334c-.16.063-.338.063-.5 0l-.87-.334c-1.62-.623-2.956-1.728-3.87-3.113z" id="role-g-Shape" fill-rule="nonzero"/></symbol><symbol viewBox="0 0 24 24" id="role"><path d="M12.303 4.767c2.175.21 3.776 2.124 3.607 4.294.136 1.6-.406 3.186-1.493 4.365.02-.02-.05.336-.038.666.01.315.08.492.007.466l.792.293c.31.113.536.197.75.28.552.206.982.377 1.366.54.38.165.557.606.393.986-.164.38-.605.557-.986.394-.36-.154-.77-.317-1.302-.518l-.743-.277c-.39-.143-.606-.223-.793-.293-1.17-.432-1.26-2.778-.557-3.55.817-.886 1.217-2.078 1.1-3.277V8.99c.133-1.375-.875-2.597-2.25-2.73-.06-.005-.12-.01-.14-.01-1.383.034-2.475 1.18-2.44 2.563 0 .06.004.118.01.177v.145c-.117 1.2.283 2.39 1.103 3.28.7.77.614 3.116-.56 3.547.114-.04-1.21.447-1.537.57-.534.2-.943.364-1.3.517-.38.163-.82-.012-.985-.392-.163-.38.012-.822.393-.986.38-.165.81-.335 1.364-.543.318-.12 1.544-.574 1.555-.578l-.01.003c-.068.024 0-.15.01-.463.013-.33-.057-.687-.035-.663-1.09-1.184-1.633-2.77-1.497-4.37-.005-.07-.01-.14-.01-.21-.055-2.21 1.692-4.045 3.94-4.1.093.003.188.008.283.017zM1.5 11.537v-7.61c-.005-.88.506-1.68 1.318-2.052C5.715.61 8.846-.028 11.993 0c3.16-.028 6.292.61 9.2 1.88.802.366 1.313 1.17 1.307 2.044v7.614c0 5.237-3.225 9.933-8.113 11.813l-1.04.4c-.867.334-1.827.334-2.693 0l-1.04-.4C4.723 21.47 1.5 16.776 1.5 11.54zm1.93-8.293c-.264.12-.432.385-.43.68v7.614c0 4.616 2.843 8.756 7.15 10.413l1.042.4c.52.2 1.096.2 1.616 0l1.04-.4C18.16 20.295 21 16.155 21 11.54v-7.62c.002-.29-.166-.553-.418-.67-2.703-1.18-5.625-1.774-8.59-1.747-2.948-.026-5.87.57-8.562 1.744z" id="role-Shape" fill-rule="nonzero"/></symbol><symbol viewBox="0 0 25 24" id="salary"><g id="salary-Icons" fill-rule="nonzero"><path d="M14 1.5H4.25c-.414 0-.75.336-.75.75v19.5c0 .414.336.75.75.75h16.5c.414 0 .75-.336.75-.75V9.5h-5.25C15.008 9.5 14 8.492 14 7.25V1.5zm1.5.31v5.44c0 .414.336.75.75.75h5.24c-.025-.154-.098-.297-.21-.41L15.5 1.81zM23 21.75c0 1.242-1.008 2.25-2.25 2.25H4.25C3.008 24 2 22.992 2 21.75V2.25C2 1.008 3.008 0 4.25 0h10.63c.596 0 1.168.237 1.59.66l5.87 5.87c.423.422.66.994.66 1.59v13.63zm-9.5-5.5c-.414 0-.75-.336-.75-.75s.336-.75.75-.75h5c.414 0 .75.336.75.75s-.336.75-.75.75h-5zm-6.25 3.5c-.414 0-.75-.336-.75-.75s.336-.75.75-.75H18.5c.414 0 .75.336.75.75s-.336.75-.75.75H7.25zm1.308-7.53c.764 0 1.313-.413 1.313-.798 0-.386-.545-.796-1.308-.796-1.513 0-2.812-.975-2.812-2.298S7.048 6.03 8.532 6.032c.97-.04 1.898.398 2.485 1.17.25.33.186.8-.143 1.05-.33.252-.8.187-1.05-.142-.292-.383-.75-.6-1.262-.58-.764 0-1.312.412-1.312.798 0 .386.55.798 1.312.798 1.513 0 2.81.973 2.81 2.296 0 1.102-.902 1.96-2.06 2.218V14c0 .414-.336.75-.75.75s-.75-.336-.75-.75v-.353c-.673-.152-1.28-.537-1.708-1.098-.252-.33-.188-.8.14-1.052.33-.252.8-.188 1.052.14.286.376.73.59 1.227.582h.035z" id="salary-Shape"/><path d="M8.062 5.5v1.03c0 .415.336.75.75.75s.75-.335.75-.75V5.5c0-.414-.336-.75-.75-.75s-.75.336-.75.75z" id="salary-Path"/></g></symbol><symbol viewBox="0 0 24 24" id="search-list"><path d="M10.757 17.243c-2.343-2.344-2.343-6.143 0-8.486 2.344-2.343 6.143-2.343 8.486 0 2.102 2.103 2.318 5.377.648 7.72l3.817 3.816c.39.39.39 1.024 0 1.414-.39.39-1.024.39-1.414 0l-3.816-3.816c-2.343 1.67-5.617 1.455-7.72-.647zm7.07-1.415c1.564-1.562 1.564-4.094 0-5.656-1.56-1.563-4.093-1.563-5.655 0-1.563 1.562-1.563 4.094 0 5.656 1.562 1.563 4.094 1.563 5.656 0zM6.5 7.5c.55 0 1 .45 1 1s-.45 1-1 1H1c-.55 0-1-.45-1-1s.45-1 1-1h5.5zm5-4c.55 0 1 .45 1 1s-.45 1-1 1H1c-.55 0-1-.45-1-1s.45-1 1-1h10.5zM1 13.5c-.55 0-1-.45-1-1s.45-1 1-1h4.5c.55 0 1 .45 1 1s-.45 1-1 1H1z" id="search-list-Shape" fill-rule="nonzero"/></symbol><symbol viewBox="0 0 24 24" id="search"><path d="M13.836 15.374c-3.136 2.385-7.63 2.146-10.493-.717-3.124-3.124-3.124-8.19 0-11.314 3.124-3.124 8.19-3.124 11.314 0 2.906 2.906 3.11 7.492.61 10.632l7.434 7.313c.395.387.4 1.02.013 1.414-.387.394-1.02.4-1.414.012l-7.464-7.34zm-.593-2.13c2.343-2.344 2.343-6.143 0-8.487-2.343-2.343-6.142-2.343-8.486 0-2.343 2.343-2.343 6.142 0 8.486 2.343 2.343 6.142 2.343 8.486 0z" id="search-Shape" fill-rule="nonzero"/></symbol><symbol viewBox="0 0 24 24" id="segment"><path d="M22.5 9.5c0 .552-.448 1-1 1h-7c-.552 0-1-.448-1-1v-7c0-.552.448-1 1-1 2.122 0 4.157.843 5.657 2.343S22.5 7.378 22.5 9.5zm-11 3h8c.552 0 1 .448 1 1 0 5.523-4.477 10-10 10s-10-4.477-10-10 4.477-10 10-10c.552 0 1 .448 1 1v8zm-9 1c0 4.418 3.582 8 8 8 4.08 0 7.446-3.054 7.938-7H10.5c-.552 0-1-.448-1-1V5.562c-3.946.492-7 3.858-7 7.938z" id="segment-Shape" fill-rule="nonzero"/></symbol><symbol viewBox="0 0 24 24" id="settings"><path d="M11.1 1.935c.448.497 1.212.537 1.707.09.032-.027.06-.057.092-.09l.944-1.037C14.847-.212 16.56-.3 17.67.704c.606.546.932 1.335.89 2.148l-.07 1.4c-.033.667.48 1.235 1.146 1.268.04.002.08.002.12 0l1.4-.07c1.495-.074 2.767 1.078 2.84 2.573.04.812-.286 1.6-.89 2.144l-1.042.94c-.496.448-.535 1.214-.087 1.71.028.03.057.06.087.087l1.043.94c1.11 1.004 1.197 2.718.194 3.828-.545.605-1.334.93-2.148.89l-1.4-.07c-.668-.035-1.236.477-1.27 1.144-.002.04-.002.083 0 .124l.07 1.406c.068 1.495-1.09 2.76-2.586 2.828-.8.035-1.577-.286-2.122-.88l-.942-1.043c-.448-.495-1.213-.534-1.708-.086-.03.027-.06.057-.09.09l-.945 1.04c-1.008 1.108-2.722 1.19-3.83.18-.596-.54-.92-1.322-.883-2.13l.072-1.402c.034-.667-.48-1.235-1.145-1.27H4.25l-1.4.072C1.356 18.642.082 17.494.004 16c-.043-.814.283-1.603.888-2.15l1.04-.94c.497-.45.536-1.215.088-1.71-.027-.03-.056-.06-.088-.09l-1.04-.944C-.22 9.16-.302 7.446.703 6.34c.544-.6 1.328-.925 2.138-.887l1.402.07c.667.036 1.236-.475 1.27-1.142.003-.042.003-.084 0-.13l-.067-1.404C5.377 1.35 6.532.082 8.027.012c.807-.038 1.59.286 2.133.885l.94 1.038zm-2.05-.03c-.243-.266-.592-.41-.952-.394-.668.032-1.183.6-1.152 1.265l.067 1.398c.005.095.005.19 0 .287-.078 1.494-1.353 2.642-2.846 2.563l-1.4-.07c-.36-.018-.71.127-.95.394-.45.495-.413 1.26.082 1.708L2.94 10c.067.06.132.125.194.193 1.003 1.112.916 2.826-.195 3.83l-1.042.94c-.27.243-.415.596-.396.958.035.668.604 1.18 1.27 1.145l1.4-.07c.094-.006.187-.006.28 0 1.494.076 2.643 1.35 2.566 2.844l-.072 1.395c-.016.36.128.708.395.95.495.45 1.26.414 1.71-.08l.943-1.04c.06-.068.127-.133.195-.195 1.11-1.003 2.825-.916 3.827.195l.94 1.038c.24.264.587.408.945.392.667-.03 1.184-.595 1.154-1.258l-.07-1.4c-.005-.093-.005-.186 0-.278.076-1.496 1.35-2.645 2.844-2.568l1.4.07c.363.02.716-.126.96-.396.447-.495.408-1.26-.087-1.708l-1.042-.94c-.068-.062-.133-.127-.194-.195-1.004-1.11-.917-2.826.195-3.83l1.04-.94c.27-.243.416-.594.398-.956-.033-.668-.6-1.182-1.267-1.15l-1.4.072c-.09.003-.18.003-.27 0-1.493-.076-2.644-1.35-2.57-2.843l.072-1.4c.02-.364-.127-.716-.397-.96-.495-.448-1.26-.41-1.71.09L14.01 2.94c-.062.07-.128.138-.198.2-1.11 1.002-2.823.913-3.824-.198l-.94-1.037zm-.765 6.387c2.05-2.05 5.377-2.05 7.428 0 2.05 2.05 2.05 5.377 0 7.428-2.05 2.05-5.377 2.05-7.428 0-2.05-2.05-2.05-5.377 0-7.428zm6.367 6.367c1.465-1.466 1.465-3.842 0-5.307-1.465-1.465-3.84-1.465-5.306 0-1.465 1.465-1.465 3.84 0 5.306 1.466 1.464 3.84 1.464 5.306 0z" id="settings-Shape" fill-rule="nonzero"/></symbol><symbol viewBox="0 0 25 24" id="sick-g"><path d="M10.556 17.514c.186 1.177-.617 2.28-1.793 2.468-1.176.186-2.28-.617-2.467-1.793-.186-1.177.616-2.282 1.792-2.468.22-.035.44-.035.65-.005L15.12 6.93c.326-.45.953-.55 1.4-.223.45.325.548.953.223 1.4l-6.385 8.79c.094.19.16.397.196.617zM21.642 6.998l-7.317 10.07c.01.067.017.133.023.2.334 3.278-2.054 6.207-5.332 6.54-3.28.334-6.208-2.053-6.542-5.332-.318-3.124 1.834-5.93 4.873-6.477l7.317-10.072C16.064 0 18.76-.426 20.688.974c1.927 1.4 2.354 4.097.954 6.024zm-9.19 9.236L20.02 5.82c.748-1.032.52-2.474-.51-3.223-1.032-.75-2.474-.52-3.223.51L8.72 13.522c-.168.23-.426.38-.71.408-2.176.222-3.762 2.166-3.54 4.343.22 2.176 2.166 3.76 4.342 3.54 2.177-.222 3.762-2.166 3.54-4.343-.014-.146-.037-.29-.068-.435-.06-.28 0-.57.17-.8z" id="sick-g-Shape" fill-rule="nonzero"/></symbol><symbol viewBox="0 0 25 24" id="sick"><path d="M10.5 16.612c.308.108.598.285.844.53.88.88.88 2.302 0 3.18-.88.878-2.303.878-3.182 0-.88-.878-.88-2.3 0-3.18.245-.243.532-.42.838-.528l.003-9.86c0-.413.336-.748.75-.748.415 0 .75.336.75.75l-.003 9.856zm-.743 1.37h-.011c-.19.003-.38.076-.523.22-.293.293-.293.768 0 1.06.293.293.768.293 1.06 0 .293-.292.293-.767 0-1.06-.145-.145-.335-.218-.526-.22zM13.5 3.748v11.337c.056.057.11.115.163.174 1.933 2.16 1.748 5.475-.413 7.406-2.16 1.932-5.48 1.747-7.413-.412C3.98 20.18 4.077 17.04 6 15.084V3.747C6 1.677 7.68 0 9.75 0c2.07 0 3.75 1.677 3.75 3.747zM12 15.404V3.747C12 2.505 10.993 1.5 9.75 1.5S7.5 2.504 7.5 3.746v11.657c0 .213-.09.416-.25.558-1.544 1.38-1.676 3.748-.295 5.29 1.38 1.543 3.75 1.675 5.295.295 1.544-1.38 1.676-3.748.295-5.29-.093-.104-.19-.202-.295-.295-.16-.142-.25-.345-.25-.558zm5.097-4.653c-.414 0-.75-.334-.75-.748s.336-.75.75-.75h4.153c.414 0 .75.336.75.75s-.336.75-.75.75h-4.153zm0 3.07c-.414 0-.75-.337-.75-.75 0-.414.336-.75.75-.75h2.153c.414 0 .75.336.75.75 0 .413-.336.75-.75.75h-2.153zM20 3.757h1.5c.414 0 .75.335.75.75 0 .413-.336.748-.75.748H20v1.5c0 .413-.336.748-.75.748s-.75-.335-.75-.75V5.257H17c-.414 0-.75-.335-.75-.75 0-.413.336-.748.75-.748h1.5v-1.5c0-.413.336-.748.75-.748s.75.335.75.75v1.498z" id="sick-Shape" fill-rule="nonzero"/></symbol><symbol viewBox="0 0 24 24" id="social-climat"><path d="M5.752 9.736V9.72c0-.207.012-.413.033-.62-1.37-.374-2.854.27-3.49 1.597-.715 1.49-.085 3.28 1.406 3.995.407.194.85.295 1.302.294h4.5c.414 0 .75.336.75.75s-.336.75-.75.75h-4.5c-.674 0-1.34-.15-1.95-.44C.815 14.97-.13 12.285.943 10.047c.942-1.963 3.123-2.93 5.155-2.416.76-2.296 2.704-4.037 5.12-4.507 3.66-.71 7.204 1.68 7.915 5.338.08.407-.186.8-.593.88-.408.078-.8-.187-.88-.594-.554-2.847-3.31-4.706-6.156-4.152-2.097.407-3.737 2.045-4.15 4.14l-.003.024c-.064.322-.097.65-.098.975v.098c.002.072.005.144.01.216 0 .02.002.04.003.058.007.095.016.19.028.285.125.992-1.363 1.18-1.488.188-.01-.084-.02-.17-.027-.255-.005-.048-.008-.097-.01-.146-.01-.148-.016-.296-.016-.444zm11.956 1.988c1.355-1.32 3.524-1.294 4.846.06.23.24.427.51.586.81.657 1.294.394 2.864-.632 3.86l-4.467 4.57c-.293.302-.778.302-1.072.002l-4.46-4.558c-1.042-1.01-1.304-2.58-.643-3.88.878-1.678 2.95-2.324 4.626-1.446.295.154.565.35.804.583l.206.202.208-.203zm3.74 3.667c.57-.55.713-1.41.36-2.107-.088-.165-.198-.317-.328-.45-.743-.763-1.963-.778-2.724-.036l-.73.716c-.293.285-.76.285-1.05 0l-.73-.715c-.134-.13-.286-.24-.45-.327-.944-.493-2.11-.13-2.598.805-.36.706-.216 1.564.367 2.13l3.94 4.023 3.944-4.037z" id="social-climat-Shape" fill-rule="nonzero"/></symbol><symbol viewBox="0 0 25 25" id="talk-g"><path d="M9.748 23.002v-3.25h-.5c-1.38 0-2.5-1.12-2.5-2.5v-3.5c0-.552.448-1 1-1s1 .448 1 1v3.5c0 .277.224.5.5.5h1.5c.552 0 1 .448 1 1v1.93l2.813-2.657c.187-.175.433-.273.688-.273h7c.276 0 .5-.223.5-.5v-5.5c0-.276-.224-.5-.5-.5h-3.482c-.552 0-1-.447-1-1 0-.552.448-1 1-1h3.482c1.38 0 2.5 1.12 2.5 2.5v5.5c0 1.38-1.12 2.5-2.5 2.5h-6.602l-4.21 3.977c-.64.602-1.688.15-1.688-.728zm4-9.75c0 .878-1.05 1.33-1.687.727L7.85 10H3.748c-1.38 0-2.5-1.12-2.5-2.5v-5c0-1.38 1.12-2.5 2.5-2.5h10.5c1.38 0 2.5 1.12 2.5 2.5v5c0 1.414-1.587 2.5-3 2.5v3.25zm-2-4.25c0-.552.448-1 1-1h1c.434 0 1-.387 1-.5v-5c0-.276-.224-.5-.5-.5h-10.5c-.276 0-.5.224-.5.5v5c0 .277.224.5.5.5h4.5c.255 0 .5.098.687.273l2.813 2.657v-1.93z" id="talk-g-Shape" fill-rule="nonzero"/></symbol><symbol viewBox="0 0 24 25" id="talk"><path d="M13.5 22.75v-1.5h-.75c-1.243 0-2.25-1.007-2.25-2.25v-4.5c0-1.243 1.007-2.25 2.25-2.25h9c1.243 0 2.25 1.007 2.25 2.25V19c0 1.243-1.007 2.25-2.25 2.25H17.5l-2.8 2.1c-.494.37-1.2.018-1.2-.6zM15 20.5v.75l1.8-1.35c.13-.097.288-.15.45-.15h4.5c.414 0 .75-.336.75-.75v-4.5c0-.414-.336-.75-.75-.75h-9c-.414 0-.75.336-.75.75V19c0 .414.336.75.75.75h1.5c.414 0 .75.336.75.75zm5.25-5.75c.415 0 .75.336.75.75s-.335.75-.75.75H17.5c-.413 0-.75-.336-.75-.75s.337-.75.75-.75h2.75zm0 2.25c.414 0 .75.336.75.75s-.336.75-.75.75h-6c-.414 0-.75-.336-.75-.75s.336-.75.75-.75h6zm-18-8C1.007 9 0 7.993 0 6.75v-4.5C0 1.007 1.007 0 2.25 0h9c1.243 0 2.25 1.007 2.25 2.25v4.5C13.5 7.993 12.493 9 11.25 9h-.75v1.5c0 .618-.706.97-1.2.6L6.5 9H2.25zM9 8.25c0-.414.336-.75.75-.75h1.5c.414 0 .75-.336.75-.75v-4.5c0-.414-.336-.75-.75-.75h-9c-.414 0-.75.336-.75.75v4.5c0 .414.336.75.75.75h4.5c.162 0 .32.053.45.15L9 9v-.75zM6 2.5c.414 0 .75.336.75.75S6.414 4 6 4H3.25c-.414 0-.75-.336-.75-.75s.336-.75.75-.75H6zm3.25 2.25c.414 0 .75.336.75.75s-.336.75-.75.75h-6c-.414 0-.75-.336-.75-.75s.336-.75.75-.75h6zM7.24 20.625c.003.1.015.19.032.255l.526.194c.26.095.45.166.63.234.463.175.822.32 1.137.46.71.32 1.198.62 1.526.987.276.31.25.783-.06 1.06-.31.275-.783.248-1.06-.06-.15-.173-.486-.38-1.018-.617-.494-.22-.39-.182-2.338-.902-1.037-.384-1.11-2.34-.496-3.018.597-.647.89-1.52.8-2.468 0-1.228-.72-2-1.686-2-.967 0-1.688.77-1.692 2.07-.085.878.208 1.75.81 2.4.61.673.536 2.63-.5 3.015-.16.06-.342.126-.67.246l-.62.232c-.438.166-.772.3-1.056.428-.15.068-.286.133-.406.196-.367.192-.82.05-1.012-.317-.192-.368-.05-.82.316-1.013.15-.078.31-.156.49-.236.314-.14.674-.285 1.138-.46.18-.07.37-.14.633-.236l.528-.195c.018-.066.03-.155.034-.257.005-.136-.005-.28-.027-.392-.01-.044-.016-.064.04-.003-.883-.96-1.316-2.252-1.193-3.478 0-2.035 1.37-3.5 3.188-3.5 1.82 0 3.187 1.466 3.184 3.427.127 1.302-.308 2.597-1.192 3.554.06-.064.052-.044.043.002-.022.114-.033.257-.028.393zm13.05-12.75c.003.102.015.19.032.256.13.05.29.108.526.195.26.095.45.166.63.234.463.174.822.32 1.137.46.44.196.788.385 1.07.586.338.24.416.71.176 1.046-.24.337-.708.416-1.045.175-.19-.134-.457-.28-.813-.438-.494-.222-.39-.183-2.34-.903-1.035-.384-1.11-2.34-.494-3.018.597-.648.89-1.52.8-2.47 0-1.227-.72-2-1.686-2-.967 0-1.688.772-1.692 2.072-.085.877.208 1.748.81 2.4.61.672.536 2.63-.5 3.014l-.758.28c-.284.104-.496.183-.693.258-.387.15-.82-.045-.97-.43-.148-.388.045-.822.432-.97.204-.078.42-.16.71-.266l.62-.228c.016-.065.028-.155.032-.256.005-.136-.005-.28-.028-.393-.008-.044-.015-.063.04-.002-.883-.96-1.315-2.252-1.192-3.48 0-2.032 1.37-3.498 3.188-3.498s3.187 1.467 3.183 3.428c.127 1.302-.308 2.597-1.19 3.554.058-.065.05-.046.042 0-.023.115-.033.257-.028.393z" id="talk-Shape" fill-rule="nonzero"/></symbol><symbol viewBox="0 0 24 24" id="timelines"><path d="M1.5 10.5c-.552 0-1-.448-1-1s.448-1 1-1h7c.552 0 1 .448 1 1s-.448 1-1 1h-7zm11 0c-.552 0-1-.448-1-1s.448-1 1-1h10c.552 0 1 .448 1 1s-.448 1-1 1h-10zm8 6c-.552 0-1-.448-1-1s.448-1 1-1h2c.552 0 1 .448 1 1s-.448 1-1 1h-2zm-19 0c-.552 0-1-.448-1-1s.448-1 1-1h15c.552 0 1 .448 1 1s-.448 1-1 1h-15z" id="timelines-Shape" fill-rule="nonzero"/></symbol><symbol viewBox="0 0 24 24" id="today"><path d="M19 4h-1V2h-2v2H8V2H6v2H5c-1.11 0-2 .9-2 2v14c0 1.1.89 2 2 2h14c1.1 0 2-.9 2-2V6c0-1.1-.9-2-2-2zm0 16H5V10h14v10zm0-12H5V6h14v2zM7 12h5v5H7v-5z" id="today-Shape" fill-rule="evenodd"/></symbol><symbol viewBox="0 0 24 24" id="trash-g"><path d="M21 5.51c.552 0 1 .45 1 1.003 0 .553-.448 1.002-1 1.002h-1v12.03c0 1.662-1.343 3.008-3 3.008H7c-1.657 0-3-1.346-3-3.008V7.515H3c-.552 0-1-.45-1-1.002 0-.554.448-1.003 1-1.003h4V4.508C7 2.846 8.342 1.5 10 1.5h4c1.658 0 3 1.346 3 3.008V5.51h4zM9 4.508V5.51h6V4.508c0-.554-.447-1.003-1-1.003h-4c-.553 0-1 .45-1 1.003zm9 15.037V7.515H6v12.03c0 .554.447 1.003 1 1.003h10c.552 0 1-.45 1-1.003zm-8.857-8.503c.39-.39 1.02-.39 1.41 0l1.42 1.42 1.42-1.42c.39-.39 1.02-.39 1.41 0 .39.39.39 1.02 0 1.41l-1.42 1.42 1.42 1.42c.39.39.39 1.02 0 1.41-.39.39-1.02.39-1.41 0l-1.42-1.42-1.42 1.42c-.39.39-1.02.39-1.41 0-.39-.39-.39-1.02 0-1.41l1.42-1.42-1.42-1.42c-.39-.38-.39-1.02 0-1.41z" id="trash-g-Shape" fill-rule="nonzero"/></symbol><symbol viewBox="0 0 24 24" id="trash"><path d="M13.312 12.93l2.65 2.65c.292.293.292.767 0 1.06-.294.293-.768.293-1.06 0l-2.65-2.65-2.65 2.65c-.294.293-.768.293-1.06 0-.294-.293-.294-.767 0-1.06l2.648-2.65-2.65-2.65c-.292-.293-.292-.767 0-1.06.294-.293.768-.293 1.06 0l2.65 2.65 2.65-2.65c.294-.293.768-.293 1.06 0 .294.293.294.767 0 1.06l-2.648 2.65zM4.002 3.5h3.75v-.75C7.75 1.507 8.757.5 10 .5h4.5c1.242 0 2.25 1.007 2.25 2.25v.75h6c.413 0 .75.336.75.75s-.337.75-.75.75h-1.56l-1.33 15.936c-.095 1.167-1.07 2.064-2.24 2.064H6.88c-1.17 0-2.146-.897-2.242-2.064L3.31 5H1.75C1.338 5 1 4.664 1 4.25s.337-.75.75-.75H4zm5.25 0h6v-.75c0-.414-.337-.75-.75-.75H10c-.415 0-.75.336-.75.75v.75zM6.133 20.812c.033.39.358.688.748.688h10.74c.39 0 .714-.3.747-.688L19.685 5H4.816l1.318 15.812z" id="trash-Shape" fill-rule="nonzero"/></symbol><symbol viewBox="0 0 24 24" id="treatment"><path d="M22.5 22.5H3v.75c0 .414-.336.75-.75.75s-.75-.336-.75-.75v-9c0-.414.336-.75.75-.75s.75.336.75.75V18h2.65c-.662-1.147-.503-2.64.48-3.62 1.17-1.173 3.07-1.173 4.24 0 .983.98 1.142 2.473.48 3.62H12v-3.75c0-.414.336-.75.75-.75h8.5c1.52 0 2.75 1.23 2.75 2.75v7c0 .414-.336.75-.75.75s-.75-.336-.75-.75v-.75zM3 19.5V21h19.5v-1.5H3zM22.5 18v-1.75c0-.69-.56-1.25-1.25-1.25H13.5v3h9zM14.38.88c1.17-1.173 3.07-1.173 4.24 0 1.173 1.17 1.173 3.07 0 4.24-1.17 1.173-3.07 1.173-4.24 0-1.173-1.17-1.173-3.07 0-4.24zm3.18 3.18c.586-.585.586-1.535 0-2.12-.585-.586-1.535-.586-2.12 0-.586.585-.586 1.535 0 2.12.585.586 1.535.586 2.12 0zm-8.25 13.5c.586-.585.586-1.535 0-2.12-.585-.586-1.535-.586-2.12 0-.586.585-.586 1.535 0 2.12.585.586 1.535.586 2.12 0zm4.19-6.31c0 .414-.336.75-.75.75s-.75-.336-.75-.75c0-2.07 1.68-3.75 3.75-3.75h1.5c2.07 0 3.75 1.68 3.75 3.75 0 .414-.336.75-.75.75s-.75-.336-.75-.75c0-1.243-1.007-2.25-2.25-2.25h-1.5c-1.243 0-2.25 1.007-2.25 2.25zm-6-9.75V3H9c.828 0 1.5.672 1.5 1.5V6c0 .828-.672 1.5-1.5 1.5H7.5V9c0 .828-.672 1.5-1.5 1.5H4.5C3.672 10.5 3 9.828 3 9V7.5H1.5C.672 7.5 0 6.828 0 6V4.5C0 3.672.672 3 1.5 3H3V1.5C3 .672 3.672 0 4.5 0H6c.828 0 1.5.672 1.5 1.5zM9 6V4.5H6.75c-.414 0-.75-.336-.75-.75V1.5H4.5v2.25c0 .414-.336.75-.75.75H1.5V6h2.25c.414 0 .75.336.75.75V9H6V6.75c0-.414.336-.75.75-.75H9z" id="treatment-Shape" fill-rule="nonzero"/></symbol><symbol viewBox="0 0 24 24" id="unarchive"><path d="M20.54 5.23l-1.39-1.68C18.88 3.21 18.47 3 18 3H6c-.47 0-.88.21-1.16.55L3.46 5.23C3.17 5.57 3 6.02 3 6.5V19c0 1.1.9 2 2 2h14c1.1 0 2-.9 2-2V6.5c0-.48-.17-.93-.46-1.27zM6.24 5h11.52l.83 1H5.42l.82-1zM5 19V8h14v11H5zm3-5h2.55v3h2.9v-3H16l-4-4-4 4z" id="unarchive-Shape" fill-rule="evenodd"/></symbol><symbol viewBox="0 0 24 24" id="user"><path d="M16.243 2.257c2.343 2.344 2.343 6.142 0 8.486-2.344 2.343-6.143 2.343-8.486 0-2.343-2.344-2.343-6.142 0-8.486 2.343-2.343 6.142-2.343 8.486 0zm-1.06 1.06c-1.758-1.756-4.608-1.756-6.365 0-1.757 1.758-1.757 4.608 0 6.365 1.757 1.757 4.607 1.757 6.364 0 1.757-1.757 1.757-4.607 0-6.364zM3.024 23.068c-.03.414-.39.724-.803.693-.414-.03-.723-.39-.692-.804.02-.266.05-.53.09-.793.08-.537.204-1.065.366-1.58.35-1.107.882-2.146 1.57-3.076C5.527 14.85 8.63 13.25 12 13.25c3.37 0 6.475 1.6 8.443 4.257.69.93 1.22 1.97 1.57 3.076.163.515.286 1.043.368 1.58.04.262.07.527.09.793.03.413-.278.773-.692.804-.413.03-.773-.28-.803-.692-.018-.228-.043-.455-.077-.68-.07-.46-.175-.912-.314-1.353-.3-.948-.756-1.838-1.346-2.635-1.688-2.28-4.348-3.65-7.238-3.65-2.89 0-5.55 1.37-7.238 3.65-.59.797-1.046 1.687-1.346 2.635-.14.44-.244.893-.314 1.353-.034.225-.06.452-.077.68z" id="user-Shape" fill-rule="nonzero"/></symbol></svg>