<svg version="1.1" xmlns="http://www.w3.org/2000/svg" xmlns:xlink="http://www.w3.org/1999/xlink"><symbol id="bds-icons"><title>bds-icons</title><symbol viewBox="0 0 24 24" id="bds-icons-biings-care"><g fill-rule="nonzero"><path d="M11.08 16.995c.553 0 1 .447 1 1 0 .552-.447 1-1 1-.71 0-1.258-.11-1.757-.316-1.89 1.653-4.075 2.25-7.1 2.32-.914.02-1.374-1.095-.71-1.725.063-.06.184-.18.34-.345.266-.275.53-.57.774-.868.242-.296.45-.58.614-.84.234-.37.354-.665.36-.802C1.344 14.774 0 12.39 0 9.804 0 4.89 4.788 1 10.604 1c4.885 0 9.138 2.76 10.3 6.693.156.53-.147 1.086-.677 1.242-.53.157-1.085-.146-1.242-.675C18.09 5.232 14.65 3 10.605 3 5.81 3 2 6.097 2 9.804c0 2.03 1.142 3.933 3.11 5.23.238.155.398.405.44.686.034.228.052.457.052.687 0 .593-.244 1.205-.668 1.88-.1.158-.21.32-.328.483 1.538-.295 2.724-.895 3.794-1.965.22-.22.527-.324.834-.284.278.036 1.057.392.877.32.25.1.535.155.97.155zM21.937 10.977c1.418 1.418 1.417 3.718 0 5.135l-4.23 4.23c-.39.39-1.024.39-1.414 0l-4.23-4.23c-1.418-1.418-1.418-3.718 0-5.136 1.345-1.345 3.495-1.26 4.937 0 1.442-1.26 3.592-1.345 4.937 0zm-1.922 4.228l.507-.507c.637-.637.637-1.67 0-2.307-.58-.58-1.61-.508-2.307.188l-.508.508c-.39.39-1.024.39-1.414 0l-.507-.507c-.697-.697-1.728-.77-2.308-.19-.637.637-.637 1.67 0 2.308L17 18.22l3.015-3.015z"/></g></symbol><symbol viewBox="0 0 24 24" id="bds-icons-biings-claim"><path d="M16.872 20.57H6.862C4.47 20.57 3 19.103 3 16.72V3.854C3 1.47 4.47 0 6.858 0h9.427c2.388 0 3.858 1.47 3.858 3.86v8.857c0 .553-.448 1-1 1s-1-.447-1-1V3.86c0-1.285-.575-1.86-1.858-1.86H6.858C5.575 2 5 2.574 5 3.854v12.864c0 1.278.577 1.853 1.86 1.853h10.297l-1.864-1.863c-.39-.39-.39-1.024 0-1.414.39-.39 1.024-.39 1.414 0l3.43 3.428c.39.392.39 1.025 0 1.416l-3.43 3.428c-.39.39-1.024.39-1.414 0-.39-.39-.39-1.023 0-1.414l1.58-1.58zM8 7c-.552 0-1-.448-1-1s.448-1 1-1h7c.552 0 1 .448 1 1s-.448 1-1 1H8zm0 4c-.552 0-1-.448-1-1s.448-1 1-1h7c.552 0 1 .448 1 1s-.448 1-1 1H8z" id="bds-icons-biings-claim-Combined-Shape" fill-rule="nonzero"/></symbol><symbol viewBox="0 0 24 24" id="bds-icons-biings-pilot"><path d="M11 1.983c0-.552.448-1 1-1s1 .448 1 1V22c0 .552-.448 1-1 1s-1-.448-1-1V1.983zM6 6c0-.552.448-1 1-1s1 .448 1 1v12c0 .552-.448 1-1 1s-1-.448-1-1V6zm-5 4c0-.552.448-1 1-1s1 .448 1 1v4c0 .552-.448 1-1 1s-1-.448-1-1v-4zm15-4c0-.552.448-1 1-1s1 .448 1 1v12c0 .552-.448 1-1 1s-1-.448-1-1V6zm5 4c0-.552.448-1 1-1s1 .448 1 1v4c0 .552-.448 1-1 1s-1-.448-1-1v-4z" fill-rule="evenodd"/></symbol><symbol viewBox="0 0 24 24" id="bds-icons-biings"><path d="M6.533 13.592l-.03-.362s0-.86 1.736-.86c.42 0 .738.05.98.126l.177 4.975c-.87-.32-1.654-.96-2.032-1.746l-.205-.435c-.207-.473-.425-1.068-.627-1.698zm11.156 1.5l.157-1.862s0-.86-1.737-.86c-.42 0-.736.05-.978.125l-.14 4.198c.394-.138.76-.28 1.07-.415l.435-.205c.448-.215.857-.56 1.192-.98zm-3.64 1.91l.17-5.128s0-1.013-2.045-1.013c-2.047 0-2.047 1.014-2.047 1.014l.206 5.81c.188.015.374.013.556-.006l.475-.056c.756-.096 1.744-.335 2.686-.62zm-5.91-5.347c.658 0 1.193-.533 1.193-1.192 0-.658-.535-1.192-1.194-1.192-.66 0-1.195.535-1.195 1.193 0 .66.535 1.192 1.194 1.192zm8.045 0c.66 0 1.193-.533 1.193-1.192 0-.658-.534-1.192-1.193-1.192-.66 0-1.194.535-1.194 1.193 0 .66.535 1.192 1.195 1.192zM8.7 1.003c8.248-2.47 11.82-.55 14.296 7.686 2.474 8.235.55 11.804-7.697 14.274-8.248 2.47-11.82.55-14.296-7.686C-1.47 7.043.454 3.474 8.7 1.003zm3.46 8.758c.905 0 1.637-.73 1.637-1.633 0-.902-.732-1.634-1.636-1.634-.902 0-1.635.732-1.635 1.634 0 .902.733 1.634 1.636 1.634z" id="bds-icons-biings-Rectangle-16-Copy-7" fill-rule="evenodd"/></symbol><symbol viewBox="0 0 107 129" id="bds-icons-legal-proof"><g id="bds-icons-legal-proof-FS-Icons" fill-rule="evenodd"><path d="M95.578 74.696c0 8.864-2.665 13.442-6.666 17.59-6.813 7.06-19.275 14.037-35.163 23.777-15.89-9.74-28.35-16.718-35.164-23.778-4.002-4.147-6.666-8.725-6.666-17.59V30.183c14.655-1.35 27.19-5.447 41.83-15.97 14.637 10.523 27.173 14.62 41.828 15.97v44.514zM.593 19.334V73.89c0 26.796 19.36 33.794 53.156 55.11 33.796-21.316 53.155-28.314 53.155-55.11V19.334C86.412 19.334 73.402 16.687 53.75 0 34.095 16.687 21.084 19.334.592 19.334z" id="bds-icons-legal-proof-shield-18-icon-copy-2"/><path id="bds-icons-legal-proof-Shape-Copy-2" fill-rule="nonzero" d="M49.187 85.45L29 65.443l10.015-9.924L49.187 65.6 70.985 44 81 53.924z"/></g></symbol><symbol viewBox="0 0 24 24" id="bds-icons-alt"><path d="M3 4h5q.57 0 .867.5l7.71 13.5H21q.414 0 .707.293T22 19t-.293.707T21 20h-5q-.57 0-.867-.5L7.423 6H3q-.414 0-.707-.293T2 5t.293-.707T3 4zm11 0h5q.414 0 .707.293T20 5t-.293.707T19 6h-5q-.414 0-.707-.293T13 5t.293-.707T14 4z"/></symbol><symbol viewBox="0 0 24 24" id="bds-icons-arrow-down"><path d="M12 2q.414 0 .707.293T13 3v15.586l5.29-5.297q.288-.29.71-.29.43 0 .715.285T20 14q0 .422-.29.71l-7 7q-.288.29-.71.29t-.71-.29l-7-7Q4 14.423 4 14q0-.43.285-.715T5 13q.422 0 .71.29L11 18.585V3q0-.414.293-.707T12 2z"/></symbol><symbol viewBox="0 0 24 24" id="bds-icons-arrow-left"><path d="M10 4q.414 0 .707.293T11 5q0 .422-.297.71L5.413 11H21q.414 0 .707.293T22 12t-.293.707T21 13H5.414l5.29 5.29q.296.288.296.71 0 .414-.293.707T10 20q-.422 0-.71-.29l-7-7Q2 12.407 2 12t.29-.71l7-7Q9.585 4 10 4z"/></symbol><symbol viewBox="0 0 24 24" id="bds-icons-arrow-right"><path d="M14 4q.422 0 .71.29l7 7q.29.288.29.71t-.29.71l-7 7q-.288.29-.71.29-.43 0-.715-.285T13 19q0-.422.29-.71L18.585 13H3q-.414 0-.707-.293T2 12t.293-.707T3 11h15.586L13.29 5.71Q13 5.423 13 5q0-.43.285-.715T14 4z"/></symbol><symbol viewBox="0 0 24 24" id="bds-icons-arrow-up"><path d="M12 2q.422 0 .71.29l7 7q.29.288.29.71 0 .43-.285.715T19 11q-.422 0-.71-.29L13 5.415V21q0 .414-.293.707T12 22t-.707-.293T11 21V5.414L5.71 10.71Q5.423 11 5 11q-.43 0-.715-.285T4 10q0-.422.29-.71l7-7Q11.577 2 12 2z"/></symbol><symbol viewBox="0 0 24 24" id="bds-icons-ban"><path d="M12 1q2.242 0 4.277.87t3.508 2.345 2.344 3.508T23 12t-.87 4.277-2.345 3.508-3.508 2.344T12 23t-4.277-.87-3.508-2.345-2.344-3.508T1 12t.87-4.277 2.345-3.508T7.723 1.87 12 1zm5.617 18.03L4.97 6.384Q4.03 7.563 3.515 9T3 12q0 1.828.715 3.496t1.918 2.87 2.87 1.92T12 21q1.57 0 3.008-.512t2.61-1.457zM12 3q-1.57 0-3.008.512T6.382 4.97l12.65 12.647q.944-1.172 1.456-2.61T21 12q0-1.828-.715-3.496t-1.918-2.87-2.87-1.92T12 3z"/></symbol><symbol viewBox="0 0 24 24" id="bds-icons-bell"><path d="M18 14V9c0-3.314-2.686-6-6-6S6 5.686 6 9v5c0 .73-.195 1.412-.535 2h13.07c-.34-.588-.535-1.27-.535-2zm4 4H2c-1.333 0-1.333-2 0-2 1.105 0 2-.895 2-2V9c0-4.418 3.582-8 8-8s8 3.582 8 8v5c0 1.105.895 2 2 2 1.333 0 1.333 2 0 2zm-9.135 2.498c.277-.477.89-.64 1.367-.363s.64.89.363 1.367c-.83 1.433-2.667 1.92-4.1 1.09-.452-.263-.828-.638-1.09-1.09-.277-.478-.114-1.09.363-1.367.478-.277 1.09-.114 1.367.363.087.15.213.276.363.363.478.28 1.09.116 1.367-.362z" id="bds-icons-bell-Shape" fill-rule="nonzero"/></symbol><symbol viewBox="0 0 20 22" id="bds-icons-calendar"><path d="M7 4v1c0 .552-.448 1-1 1s-1-.448-1-1V4H3c-.552 0-1 .448-1 1v3h16V5c0-.552-.448-1-1-1h-2v1c0 .552-.448 1-1 1s-1-.448-1-1V4H7zm0-2h6V1c0-.552.448-1 1-1s1 .448 1 1v1h2c1.657 0 3 1.343 3 3v14c0 1.657-1.343 3-3 3H3c-1.657 0-3-1.343-3-3V5c0-1.657 1.343-3 3-3h2V1c0-.552.448-1 1-1s1 .448 1 1v1zm-5 8v9c0 .552.448 1 1 1h14c.552 0 1-.448 1-1v-9H2z" id="bds-icons-calendar-Combined-Shape"/></symbol><symbol viewBox="0 0 24 24" id="bds-icons-check"><path d="M21 5q.43 0 .715.285T22 6q0 .422-.29.71l-12 12Q9.423 19 9 19t-.71-.29l-6-6Q2 12.423 2 12q0-.43.285-.715T3 11q.422 0 .71.29L9 16.585 20.29 5.29Q20.577 5 21 5z"/></symbol><symbol viewBox="0 0 24 24" id="bds-icons-circle-minus"><path d="M12 1q2.242 0 4.277.87t3.508 2.345 2.344 3.508T23 12t-.87 4.277-2.345 3.508-3.508 2.344T12 23t-4.277-.87-3.508-2.345-2.344-3.508T1 12t.87-4.277 2.345-3.508T7.723 1.87 12 1zm0 2q-1.828 0-3.496.715t-2.87 1.918-1.92 2.87T3 12t.715 3.496 1.918 2.87 2.87 1.92T12 21t3.496-.715 2.87-1.918 1.92-2.87T21 12t-.715-3.496-1.918-2.87-2.87-1.92T12 3zm-4 8h8q.414 0 .707.293T17 12t-.293.707T16 13H8q-.414 0-.707-.293T7 12t.293-.707T8 11z"/></symbol><symbol viewBox="0 0 24 24" id="bds-icons-circle-plus"><path d="M12 1q2.242 0 4.277.87t3.508 2.345 2.344 3.508T23 12t-.87 4.277-2.345 3.508-3.508 2.344T12 23t-4.277-.87-3.508-2.345-2.344-3.508T1 12t.87-4.277 2.345-3.508T7.723 1.87 12 1zm0 2q-1.828 0-3.496.715t-2.87 1.918-1.92 2.87T3 12t.715 3.496 1.918 2.87 2.87 1.92T12 21t3.496-.715 2.87-1.918 1.92-2.87T21 12t-.715-3.496-1.918-2.87-2.87-1.92T12 3zm0 4q.414 0 .707.293T13 8v3h3q.414 0 .707.293T17 12t-.293.707T16 13h-3v3q0 .414-.293.707T12 17t-.707-.293T11 16v-3H8q-.414 0-.707-.293T7 12t.293-.707T8 11h3V8q0-.414.293-.707T12 7z"/></symbol><symbol viewBox="0 0 24 24" id="bds-icons-clipboard"><path d="M10 1h4q.97 0 1.742.56T16.828 3H18q1.242 0 2.12.88T21 6v14q0 1.242-.88 2.12T18 23H6q-1.242 0-2.12-.88T3 20V6q0-1.242.88-2.12T6 3h1.172q.312-.883 1.086-1.44T10 1zm8 4h-1.172q-.312.883-1.086 1.44T14 7h-4q-.97 0-1.742-.56T7.172 5H6q-.414 0-.707.293T5 6v14q0 .414.293.707T6 21h12q.414 0 .707-.293T19 20V6q0-.414-.293-.707T18 5zm-4-2h-4q-.414 0-.707.293T9 4t.293.707T10 5h4q.414 0 .707-.293T15 4t-.293-.707T14 3z"/></symbol><symbol viewBox="0 0 24 24" id="bds-icons-clock"><path d="M12 1q2.242 0 4.277.87t3.508 2.345 2.344 3.508T23 12t-.87 4.277-2.345 3.508-3.508 2.344T12 23t-4.277-.87-3.508-2.345-2.344-3.508T1 12t.87-4.277 2.345-3.508T7.723 1.87 12 1zm0 2q-1.828 0-3.496.715t-2.87 1.918-1.92 2.87T3 12t.715 3.496 1.918 2.87 2.87 1.92T12 21t3.496-.715 2.87-1.918 1.92-2.87T21 12t-.715-3.496-1.918-2.87-2.87-1.92T12 3zm0 2q.414 0 .707.293T13 6v5.586l2.71 2.703q.29.288.29.71t-.29.71T15 16t-.71-.29l-3-3Q11 12.423 11 12V6q0-.414.293-.707T12 5z"/></symbol><symbol viewBox="0 0 24 24" id="bds-icons-download"><path d="M12 1q.414 0 .707.293T13 2v11.586l3.29-3.297q.288-.29.71-.29.43 0 .715.285T18 11q0 .422-.29.71l-5 5q-.288.29-.71.29t-.71-.29l-5-5Q6 11.407 6 11q0-.414.293-.707T7 10q.422 0 .71.29L11 13.585V2q0-.414.293-.707T12 1zm10 14q.414 0 .707.293T23 16v4q0 1.25-.867 2.117-.883.883-2.11.883H4.002q-1.226 0-2.124-.875Q1 21.227 1 20v-4q0-.414.294-.707T2 15t.708.293T3 16v4q0 .414.294.707T4 21h16.024q.406 0 .69-.293T21 20v-4q0-.414.293-.707T22 15z"/></symbol><symbol viewBox="0 0 24 24" id="bds-icons-eye"><path d="M12 3q1.633 0 3.176.496t2.707 1.29 2.19 1.753 1.728 1.92 1.212 1.755.754 1.285L24 12q-.055.117-.148.316t-.44.813-.743 1.21-1.04 1.406-1.332 1.508-1.63 1.41-1.93 1.207-2.222.814T12 21q-1.633 0-3.176-.496T6.117 19.22t-2.19-1.743-1.728-1.91T.987 13.82t-.754-1.288L0 12.04q.055-.117.148-.316t.44-.816.743-1.215T2.37 8.28t1.332-1.517 1.63-1.414 1.93-1.216 2.222-.816T12 3.002zm0 2q-1.094 0-2.148.29t-1.902.745T6.294 7.14 4.896 8.417 3.75 9.77t-.882 1.237-.617 1.03q.29.51.618 1.02t.883 1.228 1.146 1.336 1.398 1.263 1.656 1.094 1.902.738T12 19t2.148-.29 1.902-.74 1.656-1.1 1.398-1.27 1.145-1.343.882-1.234T21.75 12q-.29-.508-.618-1.023t-.883-1.234T19.103 8.4t-1.398-1.27-1.656-1.1-1.902-.74T12 5zm0 3q1.656 0 2.828 1.172T16 12t-1.172 2.828T12 16t-2.828-1.172T8 12t1.172-2.828T12 8zm0 2q-.828 0-1.414.586T10 12t.586 1.414T12 14t1.414-.586T14 12t-.586-1.414T12 10z"/></symbol><symbol viewBox="0 0 24 24" id="bds-icons-file"><path d="M5 0h10l7 7v14q0 1.242-.88 2.12T19 24H5q-1.242 0-2.12-.88T2 21V3q0-1.242.88-2.12T5 0zm8 9V2H5q-.422 0-.71.29T4 3v18q0 .422.29.71T5 22h14q.422 0 .71-.29T20 21V9h-7zm6.172-2L15 2.828V7h4.172z"/></symbol><symbol viewBox="0 0 24 24" id="bds-icons-globe"><path d="M12 1q.28 0 .422.008 1.453.055 2.824.48t2.535 1.145 2.138 1.73 1.648 2.2 1.055 2.58T23 12t-.38 2.854-1.054 2.582-1.648 2.2-2.137 1.73-2.534 1.144-2.824.48q-.14.008-.422.008t-.422-.008q-1.453-.055-2.824-.48T6.22 21.365t-2.138-1.73-1.648-2.2-1.055-2.58T1 11.998t.38-2.856 1.054-2.582 1.648-2.2 2.137-1.73T8.753 1.49t2.824-.48Q11.718 1 12 1zM7.04 13H3.054q.312 2.79 2.148 4.898T9.72 20.71q-1.017-1.538-1.77-3.487T7.04 13zm7.92 0H9.04q.077 1 .323 2t.55 1.77.704 1.52.72 1.234.663.93q.344-.445.664-.934t.72-1.238.702-1.52.55-1.766.325-1.996zM9.72 3.29Q7.04 3.99 5.202 6.1T3.055 11H7.04q.272-4.08 2.68-7.712zM20.944 13h-3.977q-.29 4.086-2.688 7.71 2.68-.702 4.516-2.812T20.944 13zM12 3.547q-.344.445-.66.934t-.72 1.24-.706 1.52-.55 1.765T9.038 11h5.92q-.077-1-.323-2t-.55-1.77-.704-1.52-.72-1.233-.663-.93zm2.28-.258q2.4 3.624 2.69 7.71h3.976q-.312-2.79-2.148-4.898T14.282 3.29z"/></symbol><symbol viewBox="0 0 24 24" id="bds-icons-help-buoy"><path d="M12 1q2.156 0 4.18.82t3.602 2.398T22.18 7.82 23 12t-.82 4.18-2.398 3.602-3.602 2.398T12 23t-4.18-.82-3.602-2.398T1.82 16.18 1 12t.82-4.18 2.398-3.602T7.82 1.82 12 1zM7.828 9.242l-2.86-2.86Q4 7.595 3.5 9.04T3 12t.5 2.96 1.47 2.657l2.858-2.86Q7 13.508 7 12t.828-2.758zm9.79 9.79l-2.86-2.86Q13.508 17 12 17t-2.758-.828l-2.86 2.86Q7.595 20 9.04 20.5T12 21t2.96-.5 2.657-1.47zM12 9q-1.242 0-2.12.88T9 12t.88 2.12T12 15t2.12-.88T15 12t-.88-2.12T12 9zm0-6q-1.516 0-2.96.5T6.382 4.97l2.86 2.858Q10.492 7 12 7t2.758.828l2.86-2.86Q16.405 4 14.96 3.5T12 3zm7.03 3.383l-2.858 2.86Q17 10.492 17 12t-.828 2.758l2.86 2.86Q20 16.405 20.5 14.96T21 12t-.5-2.96-1.47-2.657z"/></symbol><symbol viewBox="0 0 22 22" id="bds-icons-help"><path d="M18.778 18.778c-4.296 4.296-11.26 4.296-15.556 0-4.296-4.296-4.296-11.26 0-15.556 4.296-4.296 11.26-4.296 15.556 0 4.296 4.296 4.296 11.26 0 15.556zM4.636 4.636c-3.515 3.515-3.515 9.213 0 12.728 3.515 3.515 9.213 3.515 12.728 0 3.515-3.515 3.515-9.213 0-12.728-3.515-3.515-9.213-3.515-12.728 0zM11 17c-.552 0-1-.448-1-1s.448-1 1-1 1 .448 1 1-.448 1-1 1zM9.033 8.332c-.183.52-.754.795-1.275.61-.52-.182-.795-.753-.61-1.274.732-2.084 3.015-3.18 5.1-2.446 1.603.564 2.675 2.08 2.672 3.778 0 1.28-.758 2.29-1.945 3.082-.65.433-1.287.716-1.74.867-.523.173-1.09-.11-1.264-.634-.173-.524.11-1.09.634-1.265.065-.02.2-.072.38-.15.302-.136.604-.297.88-.482.69-.46 1.056-.948 1.056-1.42 0-.85-.535-1.607-1.336-1.89-1.042-.366-2.184.182-2.55 1.224z" id="bds-icons-help-Combined-Shape" fill-rule="nonzero"/></symbol><symbol viewBox="0 0 24 24" id="bds-icons-moon"><path d="M12 2q.336 0 .664.023Q12 3.453 12 5q0 1.422.555 2.72t1.492 2.233 2.234 1.492T19 12q1.547 0 2.977-.664.023.328.023.664 0 1.36-.36 2.656t-1.003 2.395-1.566 2.02-2.02 1.567-2.394 1.004T12 22t-2.656-.36-2.395-1.003-2.02-1.566-1.567-2.02-1.004-2.394T2 12t.36-2.656T3.362 6.95 4.93 4.93t2.02-1.567T9.343 2.36 12 2zm-1.97 2.242q-1.288.328-2.4 1.062T5.714 7.046 4.457 9.34 4 12q0 1.624.633 3.104T6.34 17.66t2.555 1.706T12 20q1.375 0 2.66-.458t2.293-1.258 1.742-1.914 1.062-2.402q-.336.03-.758.03-1.83 0-3.493-.714t-2.87-1.922-1.923-2.87T10 4.998q0-.423.03-.76z"/></symbol><symbol viewBox="0 0 24 24" id="bds-icons-search"><path d="M10 1q1.828 0 3.496.715t2.87 1.918 1.92 2.87T19 10q0 1.57-.512 3.008t-1.457 2.61l5.68 5.67q.29.29.29.712 0 .43-.285.715T22 23q-.422 0-.71-.29l-5.673-5.68q-1.172.946-2.61 1.458T10 19q-1.828 0-3.496-.715t-2.87-1.918-1.92-2.87T1 10t.715-3.496 1.918-2.87 2.87-1.92T10 1zm0 2q-1.422 0-2.72.555T5.048 5.047 3.555 7.28 3 10t.555 2.72 1.492 2.233 2.234 1.492T10 17t2.72-.555 2.233-1.492 1.492-2.234T17 10t-.555-2.72-1.492-2.233-2.234-1.492T10 3z"/></symbol></symbol><symbol viewBox="0 0 24 24" id="biings-care"><title>biings-care</title> <g fill-rule="evenodd"> <path fill-rule="nonzero" d="M11.0805685,16.9945281 C11.6328532,16.9945281 12.0805685,17.4422433 12.0805685,17.9945281 C12.0805685,18.5468128 11.6328532,18.9945281 11.0805685,18.9945281 C10.3697873,18.9945281 9.82174515,18.8844831 9.32304365,18.6792486 C7.4328754,20.3326246 5.24758835,20.930349 2.22349926,20.9997369 C1.30934969,21.0207121 0.848853472,19.9051415 1.51162033,19.2751816 C1.5761883,19.2138097 1.69682942,19.0944353 1.85440339,18.930322 C2.11852217,18.6552423 2.38256072,18.3610242 2.62683907,18.0621496 C2.86862196,17.7663282 3.0768377,17.4828921 3.24069726,17.2220278 C3.47381692,16.8509015 3.5939495,16.5565359 3.60131951,16.4196375 C1.34339097,14.773696 0,12.3900784 0,9.8036417 C0,4.89024094 4.78797295,1 10.6044821,1 C15.4888084,1 19.7419133,3.75976074 20.9033196,7.69318536 C21.0597155,8.22286335 20.7571105,8.77903611 20.2274325,8.93543198 C19.6977546,9.09182785 19.1415818,8.7892229 18.9851859,8.25954491 C18.0913953,5.2324749 14.6508978,3 10.6044821,3 C5.8116721,3 2,6.09699387 2,9.8036417 C2,11.8326644 3.14234851,13.7369019 5.11081304,15.0330751 C5.34800268,15.1892572 5.50759887,15.4389229 5.54977332,15.7197664 C5.58407507,15.9481849 5.60168078,16.1770591 5.60168078,16.4067231 C5.60168078,17.0003889 5.35784502,17.6115629 4.93429876,18.2858483 C4.83437252,18.4449308 4.72477194,18.6063282 4.60642021,18.7697153 C6.14366488,18.4750501 7.32969857,17.8753102 8.39967638,16.8053324 C8.61863541,16.5863733 8.92667839,16.4812028 9.23382422,16.5205417 C9.51189166,16.5561562 10.2906337,16.9119369 10.1112249,16.8407278 C10.3588723,16.9394697 10.6449585,16.9945281 11.0805685,16.9945281 Z"/> <path fill-rule="nonzero" d="M21.9370526,10.976987 C23.3547856,12.3953838 23.3542475,14.6945258 21.9360138,16.1120927 L17.7069793,20.3411271 C17.316455,20.7316514 16.6832901,20.7316514 16.2927658,20.3411271 L12.0637312,16.1120925 C10.6454228,14.6937836 10.6454229,12.3942548 12.0637318,10.9759459 C13.4084745,9.63120371 15.5577585,9.71659877 16.9998468,10.9774842 C18.4421558,9.71607353 20.5918598,9.63116228 21.9370526,10.976987 Z M20.0146988,15.2049805 L20.5219665,14.6977129 C21.1591333,14.0608456 21.159375,13.0280347 20.5225075,12.390869 C19.9422242,11.810313 18.9110875,11.8821016 18.2147902,12.5780761 L17.7069794,13.0858868 C17.3164551,13.4764112 16.6832901,13.4764113 16.2927658,13.0858869 L15.7856643,12.5787855 C15.0893924,11.8825136 14.0578154,11.8102897 13.4779452,12.3901596 C12.840685,13.0274199 12.8406849,14.0606189 13.4779449,14.6978791 L16.9998725,18.2198068 L20.0146988,15.2049805 Z"/> </g> </symbol><symbol viewBox="0 0 24 24" id="biings-claim"><title>claim</title> <!-- Generator: Sketch 48.2 (47327) - http://www.bohemiancoding.com/sketch -->    <g id="biings-claim-Finals" stroke-width="1" fill-rule="evenodd"> <path d="M16.8715007,20.5714286 L6.86073957,20.5714286 C4.47334497,20.5714286 3,19.1015517 3,16.717709 L3,3.85371961 C3,1.4688658 4.47074497,0 6.85813054,0 L16.2847266,0 C18.6725685,0 20.1428571,1.47012465 20.1428571,3.86029729 L20.1428571,12.7174401 C20.1428571,13.2697249 19.6951419,13.7174401 19.1428571,13.7174401 C18.5905724,13.7174401 18.1428571,13.2697249 18.1428571,12.7174401 L18.1428571,3.86029729 C18.1428571,2.57474409 17.5680489,2 16.2847266,2 L6.85813054,2 C5.57474247,2 5,2.57400812 5,3.85371961 L5,16.717709 C5,17.9959257 5.57686074,18.5714286 6.86073957,18.5714286 L17.157215,18.5714286 L15.2928932,16.7071068 C14.9023689,16.3165825 14.9023689,15.6834175 15.2928932,15.2928932 C15.6834175,14.9023689 16.3165825,14.9023689 16.7071068,15.2928932 L20.1356782,18.7214646 C20.5262025,19.1119889 20.5262025,19.7451539 20.1356782,20.1356782 L16.7071068,23.5642496 C16.3165825,23.9547739 15.6834175,23.9547739 15.2928932,23.5642496 C14.9023689,23.1737253 14.9023689,22.5405604 15.2928932,22.1500361 L16.8715007,20.5714286 Z M8,7 C7.44771525,7 7,6.55228475 7,6 C7,5.44771525 7.44771525,5 8,5 L15,5 C15.5522847,5 16,5.44771525 16,6 C16,6.55228475 15.5522847,7 15,7 L8,7 Z M8,11 C7.44771525,11 7,10.5522847 7,10 C7,9.44771525 7.44771525,9 8,9 L15,9 C15.5522847,9 16,9.44771525 16,10 C16,10.5522847 15.5522847,11 15,11 L8,11 Z" id="biings-claim-Combined-Shape" fill-rule="nonzero"/> </g> </symbol><symbol viewBox="0 0 24 24" id="biings-pilot"><title>biings-pilot</title> <g fill-rule="evenodd"> <path d="M11 1.98333796C11 1.43105321 11.4477153.98333796 12 .98333796 12.5522847.98333796 13 1.43105321 13 1.98333796L13 22C13 22.5522847 12.5522847 23 12 23 11.4477153 23 11 22.5522847 11 22L11 1.98333796zM6 6C6 5.44771525 6.44771525 5 7 5 7.55228475 5 8 5.44771525 8 6L8 18C8 18.5522847 7.55228475 19 7 19 6.44771525 19 6 18.5522847 6 18L6 6zM1 10C1 9.44771525 1.44771525 9 2 9 2.55228475 9 3 9.44771525 3 10L3 14C3 14.5522847 2.55228475 15 2 15 1.44771525 15 1 14.5522847 1 14L1 10zM16 6C16 5.44771525 16.4477153 5 17 5 17.5522847 5 18 5.44771525 18 6L18 18C18 18.5522847 17.5522847 19 17 19 16.4477153 19 16 18.5522847 16 18L16 6zM21 10C21 9.44771525 21.4477153 9 22 9 22.5522847 9 23 9.44771525 23 10L23 14C23 14.5522847 22.5522847 15 22 15 21.4477153 15 21 14.5522847 21 14L21 10z"/> </g> </symbol><symbol viewBox="0 0 24 24" id="biings"><title>bell</title> <!-- Generator: Sketch 48.2 (47327) - http://www.bohemiancoding.com/sketch -->    <g id="biings-Finals" stroke-width="1" fill-rule="evenodd"> <path d="M6.53319534,13.5922928 L6.50181818,13.2295547 C6.50181818,13.2295547 6.50181818,12.3693788 8.2390847,12.3693778 C8.6594081,12.3693776 8.97803624,12.4197301 9.21957382,12.4960701 L9.39661658,17.4706709 C8.52637945,17.1497107 7.74262751,16.5090839 7.3654233,15.7239039 L7.15975804,15.2893714 C6.95329081,14.8172472 6.73456858,14.2224923 6.53319534,13.5922928 L6.53319534,13.5922928 Z M17.6891748,15.0920357 L17.8472727,13.2295547 C17.8472727,13.2295547 17.8472727,12.3693768 16.1100062,12.3693778 C15.6914012,12.369378 15.3736617,12.4193199 15.1324834,12.4951359 L15.1324834,12.4951359 L14.9931391,16.6930284 C15.3861244,16.5550521 15.7507837,16.4139376 16.0621711,16.2781324 L16.497294,16.0727462 C16.9449621,15.8582675 17.3537981,15.5116496 17.6891748,15.0920357 L17.6891748,15.0920357 Z M14.0509706,17.0009106 L14.2213426,11.87401 C14.2213426,11.87401 14.2213426,10.8605734 12.1745455,10.8605745 C10.1277483,10.8605756 10.1277483,11.87401 10.1277483,11.87401 L10.3344937,17.6832032 C10.5219732,17.6987687 10.7082911,17.6974672 10.8904703,17.6776696 L11.3647792,17.6220326 C12.120736,17.5257371 13.1088298,17.2873067 14.0509706,17.0009106 L14.0509706,17.0009106 Z M8.13909011,11.6554304 C8.79846499,11.6554304 9.33299394,11.1216268 9.33299394,10.4631466 C9.33299394,9.80466636 8.79846499,9.27086268 8.13909011,9.27086268 C7.47971524,9.27086268 6.94518629,9.80466636 6.94518629,10.4631466 C6.94518629,11.1216268 7.47971524,11.6554304 8.13909011,11.6554304 L8.13909011,11.6554304 Z M16.1845235,11.6554304 C16.8438984,11.6554304 17.3784273,11.1216268 17.3784273,10.4631466 C17.3784273,9.80466636 16.8438984,9.27086268 16.1845235,9.27086268 C15.5251486,9.27086268 14.9906197,9.80466636 14.9906197,10.4631466 C14.9906197,11.1216268 15.5251486,11.6554304 16.1845235,11.6554304 L16.1845235,11.6554304 Z M8.70121263,1.00312698 C16.9477972,-1.46760657 20.5214195,0.454011193 22.9955101,8.68940637 C25.4696006,16.9248016 23.5453719,20.493575 15.2987874,22.9643086 C7.05220279,25.4350421 3.47858045,23.5134244 1.00448993,15.2780292 C-1.4696006,7.042634 0.454628057,3.47386053 8.70121263,1.00312698 Z M12.161216,9.76073716 C13.0648038,9.76073716 13.7973064,9.02922843 13.7973064,8.12686667 C13.7973064,7.22450491 13.0648038,6.49299618 12.161216,6.49299618 C11.2576282,6.49299618 10.5251256,7.22450491 10.5251256,8.12686667 C10.5251256,9.02922843 11.2576282,9.76073716 12.161216,9.76073716 Z" id="biings-Rectangle-16-Copy-7"/> </g> </symbol><symbol viewBox="0 0 107 129" id="legal-proof"><title>shield-18-icon copy 2</title> <!-- Generator: Sketch 48.2 (47327) - http://www.bohemiancoding.com/sketch -->    <g id="legal-proof-FS-Icons" stroke-width="1" fill-rule="evenodd"> <path d="M95.5782602,74.6963427 C95.5782602,83.559796 92.9130319,88.1376391 88.9117784,92.2852002 C82.0991629,99.3457713 69.6372545,106.322796 53.7489318,116.062949 C37.8591726,106.32172 25.3987004,99.3454126 18.5860852,92.2852002 C14.5844725,88.1379977 11.9196031,83.559796 11.9196031,74.6963427 L11.9196031,30.1819825 C26.5745893,28.8323308 39.11118,24.7349693 53.7489318,14.2127786 C68.3866833,24.7349693 80.923274,28.8319724 95.5782602,30.1819825 L95.5782602,74.6963427 Z M0.59298556,19.3343447 L0.59298556,73.8896552 C0.59298556,100.686379 19.9519395,107.683715 53.7489318,129 C87.5459238,107.683715 106.904878,100.686379 106.904878,73.8896552 L106.904878,19.3343447 C86.4124963,19.3343447 73.401687,16.6868962 53.7489318,0 C34.0961765,16.6868962 21.085367,19.3343447 0.59298556,19.3343447 Z" id="legal-proof-shield-18-icon-copy-2"/> <polygon id="legal-proof-Shape-Copy-2" fill-rule="nonzero" points="49.1865926 85.4492754 29 65.4439026 39.0145502 55.5196815 49.1865926 65.6008331 70.9854498 44 81 53.9242211"/> </g> </symbol><symbol viewBox="0 0 24 24" id="alt"><title>alt</title> <path d="M3 4h5q0.57 0 0.867 0.5l7.711 13.5h4.422q0.414 0 0.707 0.293t0.293 0.707-0.293 0.707-0.707 0.293h-5q-0.57 0-0.867-0.5l-7.711-13.5h-4.422q-0.414 0-0.707-0.293t-0.293-0.707 0.293-0.707 0.707-0.293zM14 4h5q0.414 0 0.707 0.293t0.293 0.707-0.293 0.707-0.707 0.293h-5q-0.414 0-0.707-0.293t-0.293-0.707 0.293-0.707 0.707-0.293z"/> </symbol><symbol viewBox="0 0 24 24" id="arrow-down"><title>arrow-down</title> <path d="M12 2q0.414 0 0.707 0.293t0.293 0.707v15.586l5.289-5.297q0.289-0.289 0.711-0.289 0.43 0 0.715 0.285t0.285 0.715q0 0.422-0.289 0.711l-7 7q-0.289 0.289-0.711 0.289t-0.711-0.289l-7-7q-0.289-0.289-0.289-0.711 0-0.43 0.285-0.715t0.715-0.285q0.422 0 0.711 0.289l5.289 5.297v-15.586q0-0.414 0.293-0.707t0.707-0.293z" fill-rule="nonzero"/> </symbol><symbol viewBox="0 0 24 24" id="arrow-left"><title>arrow-left</title> <path d="M10 4q0.414 0 0.707 0.293t0.293 0.707q0 0.422-0.297 0.711l-5.289 5.289h15.586q0.414 0 0.707 0.293t0.293 0.707-0.293 0.707-0.707 0.293h-15.586l5.289 5.289q0.297 0.289 0.297 0.711 0 0.414-0.293 0.707t-0.707 0.293q-0.422 0-0.711-0.289l-7-7q-0.289-0.305-0.289-0.711t0.289-0.711l7-7q0.297-0.289 0.711-0.289z"/> </symbol><symbol viewBox="0 0 24 24" id="arrow-right"><title>arrow-right</title> <path d="M14 4q0.422 0 0.711 0.289l7 7q0.289 0.289 0.289 0.711t-0.289 0.711l-7 7q-0.289 0.289-0.711 0.289-0.43 0-0.715-0.285t-0.285-0.715q0-0.422 0.289-0.711l5.297-5.289h-15.586q-0.414 0-0.707-0.293t-0.293-0.707 0.293-0.707 0.707-0.293h15.586l-5.297-5.289q-0.289-0.289-0.289-0.711 0-0.43 0.285-0.715t0.715-0.285z"/> </symbol><symbol viewBox="0 0 24 24" id="arrow-up"><title>arrow-up</title> <path d="M12 2q0.422 0 0.711 0.289l7 7q0.289 0.289 0.289 0.711 0 0.43-0.285 0.715t-0.715 0.285q-0.422 0-0.711-0.289l-5.289-5.297v15.586q0 0.414-0.293 0.707t-0.707 0.293-0.707-0.293-0.293-0.707v-15.586l-5.289 5.297q-0.289 0.289-0.711 0.289-0.43 0-0.715-0.285t-0.285-0.715q0-0.422 0.289-0.711l7-7q0.289-0.289 0.711-0.289z"/> </symbol><symbol viewBox="0 0 24 24" id="ban"><title>ban</title> <path d="M12 1q2.242 0 4.277 0.871t3.508 2.344 2.344 3.508 0.871 4.277-0.871 4.277-2.344 3.508-3.508 2.344-4.277 0.871-4.277-0.871-3.508-2.344-2.344-3.508-0.871-4.277 0.871-4.277 2.344-3.508 3.508-2.344 4.277-0.871zM17.617 19.031l-12.648-12.648q-0.938 1.18-1.453 2.617t-0.516 3q0 1.828 0.715 3.496t1.918 2.871 2.871 1.918 3.496 0.715q1.57 0 3.008-0.512t2.609-1.457zM12 3q-1.57 0-3.008 0.512t-2.609 1.457l12.648 12.648q0.945-1.172 1.457-2.609t0.512-3.008q0-1.828-0.715-3.496t-1.918-2.871-2.871-1.918-3.496-0.715z"/> </symbol><symbol viewBox="0 0 24 24" id="bell"><title>bell</title> <!-- Generator: Sketch 48.2 (47327) - http://www.bohemiancoding.com/sketch -->    <g id="bell-Finals" stroke-width="1" fill-rule="evenodd"> <path d="M18,14 L18,9 C18,5.68629456 15.3137051,2.9999995 12,3 C8.6862947,3 5.9999995,5.68629477 6,8.99999894 L6,13.9999989 C6,14.7285732 5.80521023,15.4116529 5.46486836,16.0000005 L18.535131,16.0000005 C18.1947896,15.4116532 18.0000001,14.7285739 18,14 Z M22.0000001,18.0000005 L2,18.0000005 C0.666666667,18.0000005 0.666665799,16.0000016 1.99999913,16.0000005 C3.10456504,15.9999995 4,15.1045642 4,13.9999989 L4,8.99999909 C3.99999933,4.58172531 7.58172522,1 11.9999998,1 C16.4182745,0.999999333 20,4.58172504 20,9 L20,13.9999998 C20.0000002,15.1045657 20.8954348,16.0000005 22.0000001,16.0000005 C23.3333335,16.0000005 23.3333335,18.0000005 22.0000001,18.0000005 Z M12.8650001,20.4982272 C13.142121,20.0205008 13.7540456,19.857878 14.2317719,20.1349989 C14.7094982,20.4121198 14.8721211,21.0240444 14.5950002,21.5017707 C13.7636368,22.9349509 11.9278625,23.4228205 10.4946876,22.5914546 C10.0427726,22.3293059 9.66715169,21.953685 9.40500396,21.5017705 C9.12788316,21.0240441 9.29050613,20.4121196 9.76823252,20.1349988 C10.2459589,19.857878 10.8578835,20.020501 11.1350043,20.4982274 C11.2223865,20.6488649 11.3475936,20.7740721 11.4982344,20.8614564 C11.9759566,21.1385767 12.5878788,20.9759542 12.8650001,20.4982272 Z" id="bell-Shape" fill-rule="nonzero"/> </g> </symbol><symbol viewBox="0 0 20 22" id="calendar"><title>Combined Shape</title> <!-- Generator: Sketch 46.2 (44496) - http://www.bohemiancoding.com/sketch -->    <g id="calendar-Page-1" stroke-width="1" fill-rule="nonzero"> <path d="M7,4 L7,5 C7,5.55228475 6.55228475,6 6,6 C5.44771525,6 5,5.55228475 5,5 L5,4 L3,4 C2.44772475,4 2,4.44772475 2,5 L2,8 L18,8 L18,5 C18,4.44772475 17.5522753,4 17,4 L15,4 L15,5 C15,5.55228475 14.5522847,6 14,6 C13.4477153,6 13,5.55228475 13,5 L13,4 L7,4 Z M7,2 L13,2 L13,1 C13,0.44771525 13.4477153,0 14,0 C14.5522847,0 15,0.44771525 15,1 L15,2 L17,2 C18.6568447,2 20,3.34315525 20,5 L20,19 C20,20.6568447 18.6568447,22 17,22 L3,22 C1.34315525,22 0,20.6568447 0,19 L0,5 C0,3.34315525 1.34315525,2 3,2 L5,2 L5,1 C5,0.44771525 5.44771525,0 6,0 C6.55228475,0 7,0.44771525 7,1 L7,2 Z M2,10 L2,19 C2,19.5522753 2.44772475,20 3,20 L17,20 C17.5522753,20 18,19.5522753 18,19 L18,10 L2,10 Z" id="calendar-Combined-Shape" fill-rule="nonzero"/> </g> </symbol><symbol viewBox="0 0 24 24" id="check"><title>check</title> <path d="M21 5q0.43 0 0.715 0.285t0.285 0.715q0 0.422-0.289 0.711l-12 12q-0.289 0.289-0.711 0.289t-0.711-0.289l-6-6q-0.289-0.289-0.289-0.711 0-0.43 0.285-0.715t0.715-0.285q0.422 0 0.711 0.289l5.289 5.297 11.289-11.297q0.289-0.289 0.711-0.289z"/> </symbol><symbol viewBox="0 0 24 24" id="circle-minus"><title>circle-minus</title> <path d="M12 1q2.242 0 4.277 0.871t3.508 2.344 2.344 3.508 0.871 4.277-0.871 4.277-2.344 3.508-3.508 2.344-4.277 0.871-4.277-0.871-3.508-2.344-2.344-3.508-0.871-4.277 0.871-4.277 2.344-3.508 3.508-2.344 4.277-0.871zM12 3q-1.828 0-3.496 0.715t-2.871 1.918-1.918 2.871-0.715 3.496 0.715 3.496 1.918 2.871 2.871 1.918 3.496 0.715 3.496-0.715 2.871-1.918 1.918-2.871 0.715-3.496-0.715-3.496-1.918-2.871-2.871-1.918-3.496-0.715zM8 11h8q0.414 0 0.707 0.293t0.293 0.707-0.293 0.707-0.707 0.293h-8q-0.414 0-0.707-0.293t-0.293-0.707 0.293-0.707 0.707-0.293z"/> </symbol><symbol viewBox="0 0 24 24" id="circle-plus"><title>circle-plus</title> <path d="M12 1q2.242 0 4.277 0.871t3.508 2.344 2.344 3.508 0.871 4.277-0.871 4.277-2.344 3.508-3.508 2.344-4.277 0.871-4.277-0.871-3.508-2.344-2.344-3.508-0.871-4.277 0.871-4.277 2.344-3.508 3.508-2.344 4.277-0.871zM12 3q-1.828 0-3.496 0.715t-2.871 1.918-1.918 2.871-0.715 3.496 0.715 3.496 1.918 2.871 2.871 1.918 3.496 0.715 3.496-0.715 2.871-1.918 1.918-2.871 0.715-3.496-0.715-3.496-1.918-2.871-2.871-1.918-3.496-0.715zM12 7q0.414 0 0.707 0.293t0.293 0.707v3h3q0.414 0 0.707 0.293t0.293 0.707-0.293 0.707-0.707 0.293h-3v3q0 0.414-0.293 0.707t-0.707 0.293-0.707-0.293-0.293-0.707v-3h-3q-0.414 0-0.707-0.293t-0.293-0.707 0.293-0.707 0.707-0.293h3v-3q0-0.414 0.293-0.707t0.707-0.293z"/> </symbol><symbol viewBox="0 0 24 24" id="clipboard"><title>clipboard</title> <path d="M10 1h4q0.969 0 1.742 0.559t1.086 1.441h1.172q1.242 0 2.121 0.879t0.879 2.121v14q0 1.242-0.879 2.121t-2.121 0.879h-12q-1.242 0-2.121-0.879t-0.879-2.121v-14q0-1.242 0.879-2.121t2.121-0.879h1.172q0.312-0.883 1.086-1.441t1.742-0.559zM18 5h-1.172q-0.312 0.883-1.086 1.441t-1.742 0.559h-4q-0.969 0-1.742-0.559t-1.086-1.441h-1.172q-0.414 0-0.707 0.293t-0.293 0.707v14q0 0.414 0.293 0.707t0.707 0.293h12q0.414 0 0.707-0.293t0.293-0.707v-14q0-0.414-0.293-0.707t-0.707-0.293zM14 3h-4q-0.414 0-0.707 0.293t-0.293 0.707 0.293 0.707 0.707 0.293h4q0.414 0 0.707-0.293t0.293-0.707-0.293-0.707-0.707-0.293z"/> </symbol><symbol viewBox="0 0 24 24" id="clock"><title>clock</title> <path d="M12 1q2.242 0 4.277 0.871t3.508 2.344 2.344 3.508 0.871 4.277-0.871 4.277-2.344 3.508-3.508 2.344-4.277 0.871-4.277-0.871-3.508-2.344-2.344-3.508-0.871-4.277 0.871-4.277 2.344-3.508 3.508-2.344 4.277-0.871zM12 3q-1.828 0-3.496 0.715t-2.871 1.918-1.918 2.871-0.715 3.496 0.715 3.496 1.918 2.871 2.871 1.918 3.496 0.715 3.496-0.715 2.871-1.918 1.918-2.871 0.715-3.496-0.715-3.496-1.918-2.871-2.871-1.918-3.496-0.715zM12 5q0.414 0 0.707 0.293t0.293 0.707v5.586l2.711 2.703q0.289 0.289 0.289 0.711t-0.289 0.711-0.711 0.289-0.711-0.289l-3-3q-0.289-0.289-0.289-0.711v-6q0-0.414 0.293-0.707t0.707-0.293z"/> </symbol><symbol viewBox="0 0 24 24" id="download"><title>download</title> <path d="M12 1q0.414 0 0.707 0.293t0.293 0.707v11.586l3.289-3.297q0.289-0.289 0.711-0.289 0.43 0 0.715 0.285t0.285 0.715q0 0.422-0.289 0.711l-5 5q-0.289 0.289-0.711 0.289t-0.711-0.289l-5-5q-0.289-0.305-0.289-0.711 0-0.414 0.293-0.707t0.707-0.293q0.422 0 0.711 0.289l3.289 3.297v-11.586q0-0.414 0.293-0.707t0.707-0.293zM22 15q0.414 0 0.707 0.293t0.293 0.707v4q0 1.25-0.867 2.117-0.883 0.883-2.109 0.883h-16.023q-1.227 0-2.125-0.875-0.875-0.898-0.875-2.125v-4q0-0.414 0.293-0.707t0.707-0.293 0.707 0.293 0.293 0.707v4q0 0.414 0.293 0.707t0.707 0.293h16.023q0.406 0 0.691-0.293t0.285-0.707v-4q0-0.414 0.293-0.707t0.707-0.293z"/> </symbol><symbol viewBox="0 0 24 24" id="eye"><title>eye</title> <path d="M12 3q1.633 0 3.176 0.496t2.707 1.289 2.191 1.754 1.727 1.922 1.211 1.754 0.754 1.285l0.234 0.5q-0.055 0.117-0.148 0.316t-0.441 0.813-0.742 1.211-1.039 1.406-1.332 1.508-1.629 1.41-1.93 1.207-2.223 0.813-2.516 0.316q-1.633 0-3.176-0.496t-2.707-1.285-2.191-1.742-1.727-1.91-1.211-1.746-0.754-1.289l-0.234-0.492q0.055-0.117 0.148-0.316t0.441-0.816 0.742-1.215 1.039-1.414 1.332-1.516 1.629-1.414 1.93-1.215 2.223-0.816 2.516-0.316zM12 5q-1.094 0-2.148 0.289t-1.902 0.746-1.656 1.105-1.398 1.277-1.145 1.352-0.883 1.238-0.617 1.031q0.289 0.508 0.617 1.020t0.883 1.227 1.145 1.336 1.398 1.262 1.656 1.094 1.902 0.738 2.148 0.285 2.148-0.289 1.902-0.742 1.656-1.098 1.398-1.27 1.145-1.344 0.883-1.234 0.617-1.023q-0.289-0.508-0.617-1.023t-0.883-1.234-1.145-1.344-1.398-1.27-1.656-1.098-1.902-0.742-2.148-0.289zM12 8q1.656 0 2.828 1.172t1.172 2.828-1.172 2.828-2.828 1.172-2.828-1.172-1.172-2.828 1.172-2.828 2.828-1.172zM12 10q-0.828 0-1.414 0.586t-0.586 1.414 0.586 1.414 1.414 0.586 1.414-0.586 0.586-1.414-0.586-1.414-1.414-0.586z"/> </symbol><symbol viewBox="0 0 24 24" id="file"><title>file</title> <path d="M5 0h10l7 7v14q0 1.242-0.879 2.121t-2.121 0.879h-14q-1.242 0-2.121-0.879t-0.879-2.121v-18q0-1.242 0.879-2.121t2.121-0.879zM13 9v-7h-8q-0.422 0-0.711 0.289t-0.289 0.711v18q0 0.422 0.289 0.711t0.711 0.289h14q0.422 0 0.711-0.289t0.289-0.711v-12h-7zM19.172 7l-4.172-4.172v4.172h4.172z"/> </symbol><symbol viewBox="0 0 24 24" id="globe"><title>globe</title> <path d="M12 1q0.281 0 0.422 0.008 1.453 0.055 2.824 0.48t2.535 1.145 2.137 1.73 1.648 2.199 1.055 2.582 0.379 2.855-0.379 2.855-1.055 2.582-1.648 2.199-2.137 1.73-2.535 1.145-2.824 0.48q-0.141 0.008-0.422 0.008t-0.422-0.008q-1.453-0.055-2.824-0.48t-2.535-1.145-2.137-1.73-1.648-2.199-1.055-2.582-0.379-2.855 0.379-2.855 1.055-2.582 1.648-2.199 2.137-1.73 2.535-1.145 2.824-0.48q0.141-0.008 0.422-0.008zM7.039 13h-3.984q0.312 2.789 2.148 4.898t4.516 2.813q-1.016-1.539-1.77-3.488t-0.91-4.223zM14.961 13h-5.922q0.078 1 0.324 2t0.551 1.77 0.703 1.52 0.719 1.234 0.664 0.93q0.344-0.445 0.664-0.934t0.719-1.238 0.703-1.52 0.551-1.766 0.324-1.996zM9.719 3.289q-2.68 0.703-4.516 2.812t-2.148 4.898h3.984q0.273-4.078 2.68-7.711zM20.945 13h-3.977q-0.289 4.086-2.688 7.711 2.68-0.703 4.516-2.813t2.148-4.898zM12 3.547q-0.344 0.445-0.66 0.934t-0.719 1.238-0.707 1.52-0.551 1.766-0.324 1.996h5.922q-0.078-1-0.324-2t-0.551-1.77-0.703-1.52-0.719-1.234-0.664-0.93zM14.281 3.289q2.398 3.625 2.688 7.711h3.977q-0.312-2.789-2.148-4.898t-4.516-2.813z"/> </symbol><symbol viewBox="0 0 24 24" id="help-buoy"><title>help-buoy</title> <path d="M12 1q2.156 0 4.18 0.82t3.602 2.398 2.398 3.602 0.82 4.18-0.82 4.18-2.398 3.602-3.602 2.398-4.18 0.82-4.18-0.82-3.602-2.398-2.398-3.602-0.82-4.18 0.82-4.18 2.398-3.602 3.602-2.398 4.18-0.82zM7.828 9.242l-2.859-2.859q-0.969 1.211-1.469 2.656t-0.5 2.961 0.5 2.961 1.469 2.656l2.859-2.859q-0.828-1.25-0.828-2.758t0.828-2.758zM17.617 19.031l-2.859-2.859q-1.25 0.828-2.758 0.828t-2.758-0.828l-2.859 2.859q1.211 0.969 2.656 1.469t2.961 0.5 2.961-0.5 2.656-1.469zM12 9q-1.242 0-2.121 0.879t-0.879 2.121 0.879 2.121 2.121 0.879 2.121-0.879 0.879-2.121-0.879-2.121-2.121-0.879zM12 3q-1.516 0-2.961 0.5t-2.656 1.469l2.859 2.859q1.25-0.828 2.758-0.828t2.758 0.828l2.859-2.859q-1.211-0.969-2.656-1.469t-2.961-0.5zM19.031 6.383l-2.859 2.859q0.828 1.25 0.828 2.758t-0.828 2.758l2.859 2.859q0.969-1.211 1.469-2.656t0.5-2.961-0.5-2.961-1.469-2.656z"/> </symbol><symbol viewBox="0 0 22 22" id="help"><title>Shape</title> <!-- Generator: Sketch 47.1 (45422) - http://www.bohemiancoding.com/sketch -->    <g id="help-Page-1" stroke-width="1" fill-rule="evenodd"> <path d="M18.7781368,18.7781368 C14.4823719,23.0739017 7.51754411,23.0739017 3.22182322,18.7781368 C-1.07394168,14.4823719 -1.07394168,7.51754411 3.22182322,3.22182322 C7.51758811,-1.07394168 14.4824159,-1.07394168 18.7781404,3.22182684 C23.0739017,7.51758811 23.0739017,14.4824159 18.7781368,18.7781368 Z M4.63603316,4.6360404 C1.12132168,8.15071589 1.12132168,13.8492081 4.6360404,17.3639268 C8.15071589,20.8786383 13.8492081,20.8786383 17.3639268,17.3639196 C20.8786383,13.8492441 20.8786383,8.15075189 17.3639232,4.63603678 C13.8492441,1.12132168 8.15075189,1.12132168 4.63603316,4.6360404 Z M11,17 C10.4477153,17 10,16.5522847 10,16 C10,15.4477153 10.4477153,15 11,15 C11.5522847,15 12,15.4477153 12,16 C12,16.5522847 11.5522847,17 11,17 Z M9.03333467,8.3318429 C8.85006289,8.85283225 8.27914645,9.12660644 7.7581571,8.94333467 C7.23716775,8.76006289 6.96339356,8.18914645 7.14666533,7.6681571 C7.87975313,5.58419767 10.1634252,4.48910148 12.2473728,5.22219515 C13.850703,5.78620871 14.9225323,7.30185782 14.9200001,8.99999986 C14.9200001,10.2797248 14.1618118,11.2906425 12.9747002,12.0820502 C12.3257813,12.5146628 11.6882584,12.7980063 11.2362278,12.9486832 C10.7122845,13.1233309 10.1459645,12.8401709 9.97131675,12.3162276 C9.79666898,11.7922843 10.079829,11.2259643 10.6037723,11.0513166 C10.6686405,11.0296938 10.8031012,10.9784707 10.9826116,10.8986883 C11.2857144,10.7639759 11.5884438,10.6025203 11.8652999,10.4179496 C12.5531883,9.95935725 12.9200001,9.47027495 12.9200012,8.99850934 C12.9212678,8.14869698 12.3853525,7.39087138 11.5836831,7.1088631 C10.5417123,6.74231734 9.39987807,7.28986459 9.03333467,8.3318429 Z" id="help-Combined-Shape" fill-rule="nonzero"/> </g> </symbol><symbol viewBox="0 0 24 24" id="moon"><title>moon</title> <path d="M12 2q0.336 0 0.664 0.023-0.664 1.43-0.664 2.977 0 1.422 0.555 2.719t1.492 2.234 2.234 1.492 2.719 0.555q1.547 0 2.977-0.664 0.023 0.328 0.023 0.664 0 1.359-0.359 2.656t-1.004 2.395-1.566 2.020-2.020 1.566-2.395 1.004-2.656 0.359-2.656-0.359-2.395-1.004-2.020-1.566-1.566-2.020-1.004-2.395-0.359-2.656 0.359-2.656 1.004-2.395 1.566-2.020 2.020-1.566 2.395-1.004 2.656-0.359zM10.031 4.242q-1.289 0.328-2.402 1.062t-1.914 1.742-1.258 2.293-0.457 2.66q0 1.625 0.633 3.105t1.707 2.555 2.555 1.707 3.105 0.633q1.375 0 2.66-0.457t2.293-1.258 1.742-1.914 1.062-2.402q-0.336 0.031-0.758 0.031-1.828 0-3.492-0.715t-2.871-1.922-1.922-2.871-0.715-3.492q0-0.422 0.031-0.758z"/> </symbol><symbol viewBox="0 0 24 24" id="search"><title>search</title> <path d="M10 1q1.828 0 3.496 0.715t2.871 1.918 1.918 2.871 0.715 3.496q0 1.57-0.512 3.008t-1.457 2.609l5.68 5.672q0.289 0.289 0.289 0.711 0 0.43-0.285 0.715t-0.715 0.285q-0.422 0-0.711-0.289l-5.672-5.68q-1.172 0.945-2.609 1.457t-3.008 0.512q-1.828 0-3.496-0.715t-2.871-1.918-1.918-2.871-0.715-3.496 0.715-3.496 1.918-2.871 2.871-1.918 3.496-0.715zM10 3q-1.422 0-2.719 0.555t-2.234 1.492-1.492 2.234-0.555 2.719 0.555 2.719 1.492 2.234 2.234 1.492 2.719 0.555 2.719-0.555 2.234-1.492 1.492-2.234 0.555-2.719-0.555-2.719-1.492-2.234-2.234-1.492-2.719-0.555z"/> </symbol></svg>