<svg xmlns="http://www.w3.org/2000/svg"><symbol id="bds-icons"><symbol viewBox="0 0 24 24" id="bds-icons-biings-care"><path d="M11.08 16.995c.553 0 1 .447 1 1 0 .552-.447 1-1 1-.71 0-1.258-.11-1.757-.316-1.89 1.652-4.075 2.25-7.1 2.32-.914.02-1.374-1.096-.71-1.726.063-.06.184-.18.34-.345.266-.276.53-.57.774-.87.242-.295.45-.58.614-.84.235-.37.355-.664.36-.8C1.345 14.773 0 12.39 0 9.803 0 4.89 4.788 1 10.604 1c4.885 0 9.138 2.76 10.3 6.693.156.53-.147 1.086-.677 1.242-.53.157-1.085-.146-1.242-.675C18.09 5.232 14.65 3 10.605 3 5.81 3 2 6.097 2 9.804c0 2.03 1.142 3.933 3.11 5.23.238.155.398.405.44.686.034.228.052.457.052.687 0 .593-.244 1.205-.668 1.88-.1.158-.21.32-.328.483 1.538-.295 2.724-.895 3.794-1.965.22-.22.527-.324.834-.284.278.037 1.057.393.877.32.25.1.536.156.97.156zm10.857-6.018c1.418 1.418 1.417 3.718 0 5.135l-4.23 4.23c-.39.39-1.024.39-1.414 0l-4.23-4.23c-1.418-1.418-1.418-3.718 0-5.136 1.345-1.345 3.495-1.26 4.937 0 1.442-1.26 3.592-1.345 4.937 0zm-1.922 4.228l.507-.507c.637-.637.637-1.67 0-2.307-.58-.58-1.61-.507-2.307.19l-.508.507c-.39.39-1.024.39-1.414 0l-.507-.507c-.697-.697-1.728-.77-2.308-.19-.637.637-.637 1.67 0 2.308L17 18.22l3.015-3.015z"/></symbol><symbol viewBox="0 0 24 24" id="bds-icons-biings-claim"><path d="M16.872 20.57H6.862C4.47 20.57 3 19.103 3 16.72V3.854C3 1.47 4.47 0 6.858 0h9.427c2.388 0 3.858 1.47 3.858 3.86v8.857c0 .553-.448 1-1 1s-1-.447-1-1V3.86c0-1.285-.575-1.86-1.858-1.86H6.858C5.575 2 5 2.574 5 3.854v12.864c0 1.278.577 1.853 1.86 1.853h10.297l-1.864-1.862c-.39-.39-.39-1.024 0-1.414.39-.39 1.024-.39 1.414 0l3.43 3.428c.39.392.39 1.025 0 1.416l-3.43 3.428c-.39.39-1.024.39-1.414 0-.39-.39-.39-1.023 0-1.414l1.58-1.58zM8 7c-.552 0-1-.448-1-1s.448-1 1-1h7c.552 0 1 .448 1 1s-.448 1-1 1H8zm0 4c-.552 0-1-.448-1-1s.448-1 1-1h7c.552 0 1 .448 1 1s-.448 1-1 1H8z" id="bds-icons-biings-claim-Combined-Shape"/></symbol><symbol viewBox="0 0 24 24" id="bds-icons-biings-pilot"><path d="M11 1.983c0-.552.448-1 1-1s1 .448 1 1V22c0 .552-.448 1-1 1s-1-.448-1-1V1.983zM6 6c0-.552.448-1 1-1s1 .448 1 1v12c0 .552-.448 1-1 1s-1-.448-1-1V6zm-5 4c0-.552.448-1 1-1s1 .448 1 1v4c0 .552-.448 1-1 1s-1-.448-1-1v-4zm15-4c0-.552.448-1 1-1s1 .448 1 1v12c0 .552-.448 1-1 1s-1-.448-1-1V6zm5 4c0-.552.448-1 1-1s1 .448 1 1v4c0 .552-.448 1-1 1s-1-.448-1-1v-4z" fill-rule="evenodd"/></symbol><symbol viewBox="0 0 24 24" id="bds-icons-biings"><path d="M6.533 13.592l-.03-.362s0-.86 1.736-.86c.42 0 .737.05.98.126l.176 4.975c-.87-.32-1.654-.96-2.032-1.745l-.205-.435c-.208-.473-.426-1.068-.628-1.698zm11.156 1.5l.156-1.862s0-.86-1.737-.86c-.42 0-.737.05-.98.125l-.14 4.198c.395-.138.76-.28 1.07-.415l.436-.205c.448-.215.857-.56 1.192-.98zm-3.64 1.91l.17-5.128s0-1.013-2.046-1.013c-2.047 0-2.047 1.015-2.047 1.015l.206 5.81c.188.015.374.013.556-.006l.474-.057c.756-.096 1.744-.335 2.686-.62zm-5.91-5.347c.657 0 1.192-.533 1.192-1.192 0-.658-.535-1.192-1.194-1.192-.66 0-1.195.536-1.195 1.194 0 .66.535 1.192 1.194 1.192zm8.044 0c.66 0 1.193-.533 1.193-1.192 0-.658-.534-1.192-1.193-1.192-.66 0-1.194.536-1.194 1.194 0 .66.535 1.192 1.195 1.192zM8.7 1.003c8.248-2.47 11.82-.55 14.296 7.686 2.474 8.234.55 11.803-7.697 14.273-8.25 2.47-11.82.55-14.297-7.686C-1.47 7.043.453 3.474 8.7 1.003zm3.46 8.758c.905 0 1.637-.73 1.637-1.632 0-.902-.732-1.634-1.636-1.634-.9 0-1.634.732-1.634 1.634 0 .902.733 1.634 1.636 1.634z" id="bds-icons-biings-Rectangle-16-Copy-7" fill-rule="evenodd"/></symbol><symbol viewBox="0 0 107 129" id="bds-icons-legal-proof"><g id="bds-icons-legal-proof-FS-Icons" fill-rule="evenodd"><path d="M95.578 74.696c0 8.864-2.665 13.442-6.666 17.59-6.813 7.06-19.275 14.037-35.163 23.777-15.89-9.74-28.35-16.718-35.165-23.778-4.002-4.147-6.666-8.725-6.666-17.59V30.183c14.654-1.35 27.19-5.447 41.83-15.97 14.636 10.523 27.172 14.62 41.827 15.97v44.514zM.593 19.334V73.89c0 26.796 19.36 33.794 53.156 55.11 33.795-21.316 53.154-28.314 53.154-55.11V19.334C86.412 19.334 73.402 16.687 53.75 0 34.095 16.687 21.084 19.334.592 19.334z" id="bds-icons-legal-proof-shield-18-icon-copy-2"/><path id="bds-icons-legal-proof-Shape-Copy-2" fill-rule="nonzero" d="M49.187 85.45L29 65.443l10.015-9.924L49.187 65.6 70.985 44 81 53.924z"/></g></symbol><symbol viewBox="0 0 24 24" id="bds-icons-alt"><path d="M3 4h5q.57 0 .867.5l7.71 13.5H21q.414 0 .707.293T22 19t-.293.707T21 20h-5q-.57 0-.867-.5L7.423 6H3q-.414 0-.707-.293T2 5t.293-.707T3 4zm11 0h5q.414 0 .707.293T20 5t-.293.707T19 6h-5q-.414 0-.707-.293T13 5t.293-.707T14 4z"/></symbol><symbol viewBox="0 0 24 24" id="bds-icons-arrow-down"><path d="M12 2q.414 0 .707.293T13 3v15.586l5.29-5.297q.288-.29.71-.29.43 0 .715.284T20 14q0 .422-.29.71l-7 7q-.288.29-.71.29t-.71-.29l-7-7Q4 14.423 4 14q0-.43.285-.715T5 13q.422 0 .71.29L11 18.585V3q0-.414.293-.707T12 2z"/></symbol><symbol viewBox="0 0 24 24" id="bds-icons-arrow-left"><path d="M10 4q.414 0 .707.293T11 5q0 .422-.297.71L5.413 11H21q.414 0 .707.293T22 12t-.293.707T21 13H5.414l5.29 5.29q.296.288.296.71 0 .414-.293.707T10 20q-.422 0-.71-.29l-7-7Q2 12.407 2 12t.29-.71l7-7Q9.585 4 10 4z"/></symbol><symbol viewBox="0 0 24 24" id="bds-icons-arrow-right"><path d="M14 4q.422 0 .71.29l7 7q.29.288.29.71t-.29.71l-7 7q-.288.29-.71.29-.43 0-.715-.285T13 19q0-.422.29-.71L18.585 13H3q-.414 0-.707-.293T2 12t.293-.707T3 11h15.586L13.29 5.71Q13 5.423 13 5q0-.43.285-.715T14 4z"/></symbol><symbol viewBox="0 0 24 24" id="bds-icons-arrow-up"><path d="M12 2q.422 0 .71.29l7 7q.29.288.29.71 0 .43-.285.715T19 11q-.422 0-.71-.29L13 5.415V21q0 .414-.293.707T12 22t-.707-.293T11 21V5.414L5.71 10.71Q5.423 11 5 11q-.43 0-.715-.285T4 10q0-.422.29-.71l7-7Q11.577 2 12 2z"/></symbol><symbol viewBox="0 0 24 24" id="bds-icons-ban"><path d="M12 1q2.242 0 4.277.87t3.508 2.345 2.344 3.508T23 12t-.87 4.277-2.345 3.508-3.508 2.344T12 23t-4.277-.87-3.508-2.345-2.344-3.508T1 12t.87-4.277 2.345-3.508T7.723 1.87 12 1zm5.617 18.03L4.97 6.384Q4.03 7.564 3.515 9T3 12q0 1.828.715 3.496t1.918 2.87 2.87 1.92T12 21q1.57 0 3.008-.512t2.61-1.457zM12 3q-1.57 0-3.008.512T6.382 4.97l12.65 12.647q.944-1.172 1.456-2.61T21 12q0-1.828-.715-3.496t-1.918-2.87-2.87-1.92T12 3z"/></symbol><symbol viewBox="0 0 24 24" id="bds-icons-bell"><path d="M18 14V9c0-3.314-2.686-6-6-6S6 5.686 6 9v5c0 .73-.195 1.412-.535 2h13.07c-.34-.588-.535-1.27-.535-2zm4 4H2c-1.333 0-1.333-2 0-2 1.105 0 2-.895 2-2V9c0-4.418 3.582-8 8-8s8 3.582 8 8v5c0 1.105.895 2 2 2 1.333 0 1.333 2 0 2zm-9.135 2.498c.277-.477.89-.64 1.367-.363s.64.89.363 1.367c-.83 1.433-2.667 1.92-4.1 1.09-.452-.263-.828-.638-1.09-1.09-.277-.478-.114-1.09.363-1.367.478-.277 1.09-.114 1.367.363.087.15.213.276.363.363.478.28 1.09.117 1.367-.36z" id="bds-icons-bell-Shape"/></symbol><symbol viewBox="0 0 20 22" id="bds-icons-calendar"><path d="M7 4v1c0 .552-.448 1-1 1s-1-.448-1-1V4H3c-.552 0-1 .448-1 1v3h16V5c0-.552-.448-1-1-1h-2v1c0 .552-.448 1-1 1s-1-.448-1-1V4H7zm0-2h6V1c0-.552.448-1 1-1s1 .448 1 1v1h2c1.657 0 3 1.343 3 3v14c0 1.657-1.343 3-3 3H3c-1.657 0-3-1.343-3-3V5c0-1.657 1.343-3 3-3h2V1c0-.552.448-1 1-1s1 .448 1 1v1zm-5 8v9c0 .552.448 1 1 1h14c.552 0 1-.448 1-1v-9H2z" id="bds-icons-calendar-Combined-Shape"/></symbol><symbol viewBox="0 0 24 24" id="bds-icons-check"><path d="M21 5q.43 0 .715.285T22 6q0 .422-.29.71l-12 12Q9.423 19 9 19t-.71-.29l-6-6Q2 12.423 2 12q0-.43.285-.715T3 11q.422 0 .71.29L9 16.585 20.29 5.29Q20.577 5 21 5z"/></symbol><symbol viewBox="0 0 24 24" id="bds-icons-circle-minus"><path d="M12 1q2.242 0 4.277.87t3.508 2.345 2.344 3.508T23 12t-.87 4.277-2.345 3.508-3.508 2.344T12 23t-4.277-.87-3.508-2.345-2.344-3.508T1 12t.87-4.277 2.345-3.508T7.723 1.87 12 1zm0 2q-1.828 0-3.496.715t-2.87 1.918-1.92 2.87T3 12t.715 3.496 1.918 2.87 2.87 1.92T12 21t3.496-.715 2.87-1.918 1.92-2.87T21 12t-.715-3.496-1.918-2.87-2.87-1.92T12 3zm-4 8h8q.414 0 .707.293T17 12t-.293.707T16 13H8q-.414 0-.707-.293T7 12t.293-.707T8 11z"/></symbol><symbol viewBox="0 0 24 24" id="bds-icons-circle-plus"><path d="M12 1q2.242 0 4.277.87t3.508 2.345 2.344 3.508T23 12t-.87 4.277-2.345 3.508-3.508 2.344T12 23t-4.277-.87-3.508-2.345-2.344-3.508T1 12t.87-4.277 2.345-3.508T7.723 1.87 12 1zm0 2q-1.828 0-3.496.715t-2.87 1.918-1.92 2.87T3 12t.715 3.496 1.918 2.87 2.87 1.92T12 21t3.496-.715 2.87-1.918 1.92-2.87T21 12t-.715-3.496-1.918-2.87-2.87-1.92T12 3zm0 4q.414 0 .707.293T13 8v3h3q.414 0 .707.293T17 12t-.293.707T16 13h-3v3q0 .414-.293.707T12 17t-.707-.293T11 16v-3H8q-.414 0-.707-.293T7 12t.293-.707T8 11h3V8q0-.414.293-.707T12 7z"/></symbol><symbol viewBox="0 0 24 24" id="bds-icons-clipboard"><path d="M10 1h4q.97 0 1.742.56T16.828 3H18q1.242 0 2.12.88T21 6v14q0 1.242-.88 2.12T18 23H6q-1.242 0-2.12-.88T3 20V6q0-1.242.88-2.12T6 3h1.172q.312-.883 1.086-1.44T10 1zm8 4h-1.172q-.312.883-1.086 1.44T14 7h-4q-.97 0-1.742-.56T7.172 5H6q-.414 0-.707.293T5 6v14q0 .414.293.707T6 21h12q.414 0 .707-.293T19 20V6q0-.414-.293-.707T18 5zm-4-2h-4q-.414 0-.707.293T9 4t.293.707T10 5h4q.414 0 .707-.293T15 4t-.293-.707T14 3z"/></symbol><symbol viewBox="0 0 24 24" id="bds-icons-clock"><path d="M12 1q2.242 0 4.277.87t3.508 2.345 2.344 3.508T23 12t-.87 4.277-2.345 3.508-3.508 2.344T12 23t-4.277-.87-3.508-2.345-2.344-3.508T1 12t.87-4.277 2.345-3.508T7.723 1.87 12 1zm0 2q-1.828 0-3.496.715t-2.87 1.918-1.92 2.87T3 12t.715 3.496 1.918 2.87 2.87 1.92T12 21t3.496-.715 2.87-1.918 1.92-2.87T21 12t-.715-3.496-1.918-2.87-2.87-1.92T12 3zm0 2q.414 0 .707.293T13 6v5.586l2.71 2.703q.29.287.29.71t-.29.71T15 16t-.71-.29l-3-3Q11 12.423 11 12V6q0-.414.293-.707T12 5z"/></symbol><symbol viewBox="0 0 24 24" id="bds-icons-download"><path d="M12 1q.414 0 .707.293T13 2v11.586l3.29-3.297q.288-.29.71-.29.43 0 .715.284T18 11q0 .422-.29.71l-5 5q-.288.29-.71.29t-.71-.29l-5-5Q6 11.407 6 11q0-.414.293-.707T7 10q.422 0 .71.29L11 13.585V2q0-.414.293-.707T12 1zm10 14q.414 0 .707.293T23 16v4q0 1.25-.867 2.117-.883.883-2.11.883H4.003q-1.227 0-2.125-.875Q1 21.227 1 20v-4q0-.414.294-.707T2 15t.708.293T3 16v4q0 .414.294.707T4 21h16.024q.406 0 .69-.293T21 20v-4q0-.414.293-.707T22 15z"/></symbol><symbol viewBox="0 0 24 24" id="bds-icons-eye"><path d="M12 3q1.633 0 3.176.496t2.707 1.29 2.19 1.753T21.8 8.46t1.213 1.754.754 1.285L24 12q-.055.117-.148.316t-.44.813-.743 1.21-1.04 1.405-1.333 1.508-1.63 1.41-1.93 1.207-2.222.814T12 21q-1.633 0-3.176-.496T6.117 19.22t-2.19-1.743-1.728-1.91T.986 13.82t-.754-1.288L0 12.04q.055-.117.148-.316t.44-.816.743-1.215T2.37 8.28t1.332-1.517 1.63-1.414 1.93-1.217 2.222-.816T12 3.002zm0 2q-1.094 0-2.148.29t-1.902.745T6.294 7.14 4.896 8.417 3.75 9.77t-.882 1.237-.617 1.03q.29.51.62 1.02t.882 1.228 1.146 1.336 1.398 1.264 1.656 1.094 1.902.738T12 19t2.148-.29 1.902-.74 1.656-1.1 1.398-1.27 1.145-1.343.88-1.234.62-1.023q-.29-.508-.618-1.023t-.883-1.234T19.102 8.4t-1.398-1.27-1.656-1.1-1.903-.74T12 5zm0 3q1.656 0 2.828 1.172T16 12t-1.172 2.828T12 16t-2.828-1.172T8 12t1.172-2.828T12 8zm0 2q-.828 0-1.414.586T10 12t.586 1.414T12 14t1.414-.586T14 12t-.586-1.414T12 10z"/></symbol><symbol viewBox="0 0 24 24" id="bds-icons-file"><path d="M5 0h10l7 7v14q0 1.242-.88 2.12T19 24H5q-1.242 0-2.12-.88T2 21V3q0-1.242.88-2.12T5 0zm8 9V2H5q-.422 0-.71.29T4 3v18q0 .422.29.71T5 22h14q.422 0 .71-.29T20 21V9h-7zm6.172-2L15 2.828V7h4.172z"/></symbol><symbol viewBox="0 0 24 24" id="bds-icons-globe"><path d="M12 1q.28 0 .422.008 1.453.055 2.824.48t2.535 1.145 2.14 1.73 1.647 2.2 1.055 2.58T23 12t-.38 2.854-1.054 2.582-1.648 2.2-2.137 1.73-2.533 1.144-2.824.48q-.14.008-.422.008t-.42-.008q-1.454-.055-2.825-.48T6.22 21.365t-2.138-1.73-1.648-2.2-1.055-2.58T1 11.998t.38-2.856T2.434 6.56t1.648-2.2T6.22 2.63t2.533-1.14 2.824-.48Q11.717 1 12 1zM7.04 13H3.054q.312 2.79 2.148 4.898T9.72 20.71q-1.017-1.538-1.77-3.487T7.04 13zm7.92 0H9.04q.077 1 .323 2t.55 1.77.704 1.52.72 1.234.663.93q.344-.445.664-.934t.72-1.238.702-1.52.55-1.766T14.96 13zM9.72 3.29q-2.68.7-4.518 2.81T3.055 11H7.04q.272-4.08 2.68-7.712zM20.944 13h-3.977q-.29 4.086-2.688 7.71 2.68-.702 4.515-2.812T20.945 13zM12 3.547q-.344.445-.66.934t-.72 1.24-.706 1.52-.55 1.766T9.038 11h5.92q-.077-1-.323-2t-.55-1.77-.704-1.52-.72-1.233-.662-.93zm2.28-.258q2.4 3.623 2.69 7.71h3.976q-.312-2.79-2.148-4.9t-4.516-2.81z"/></symbol><symbol viewBox="0 0 24 24" id="bds-icons-help-buoy"><path d="M12 1q2.156 0 4.18.82t3.602 2.398T22.18 7.82 23 12t-.82 4.18-2.398 3.602-3.602 2.398T12 23t-4.18-.82-3.602-2.398T1.82 16.18 1 12t.82-4.18 2.398-3.602T7.82 1.82 12 1zM7.828 9.242l-2.86-2.86Q4 7.595 3.5 9.04T3 12t.5 2.96 1.47 2.657l2.858-2.86Q7 13.507 7 12t.828-2.758zm9.79 9.79l-2.86-2.86Q13.508 17 12 17t-2.758-.828l-2.86 2.86Q7.595 20 9.04 20.5T12 21t2.96-.5 2.657-1.47zM12 9q-1.242 0-2.12.88T9 12t.88 2.12T12 15t2.12-.88T15 12t-.88-2.12T12 9zm0-6q-1.516 0-2.96.5T6.382 4.97l2.86 2.858Q10.492 7 12 7t2.758.828l2.86-2.86Q16.405 4 14.96 3.5T12 3zm7.03 3.383l-2.858 2.86Q17 10.493 17 12t-.828 2.758l2.86 2.86Q20 16.405 20.5 14.96T21 12t-.5-2.96-1.47-2.657z"/></symbol><symbol viewBox="0 0 22 22" id="bds-icons-help"><path d="M18.778 18.778c-4.296 4.296-11.26 4.296-15.556 0-4.296-4.296-4.296-11.26 0-15.556 4.296-4.296 11.26-4.296 15.556 0 4.296 4.296 4.296 11.26 0 15.556zM4.636 4.636c-3.515 3.515-3.515 9.213 0 12.728 3.515 3.515 9.213 3.515 12.728 0 3.515-3.515 3.515-9.213 0-12.728-3.515-3.515-9.213-3.515-12.728 0zM11 17c-.552 0-1-.448-1-1s.448-1 1-1 1 .448 1 1-.448 1-1 1zM9.033 8.332c-.183.52-.754.795-1.275.61-.52-.182-.795-.753-.61-1.274.732-2.084 3.015-3.18 5.1-2.446 1.603.564 2.675 2.08 2.672 3.778 0 1.28-.758 2.29-1.945 3.082-.65.433-1.287.716-1.74.867-.523.172-1.09-.11-1.264-.635-.172-.524.11-1.09.635-1.265.065-.02.2-.072.38-.15.302-.136.604-.297.88-.482.69-.46 1.056-.948 1.056-1.42 0-.85-.534-1.607-1.335-1.89-1.042-.366-2.184.182-2.55 1.224z" id="bds-icons-help-Combined-Shape"/></symbol><symbol viewBox="0 0 24 24" id="bds-icons-moon"><path d="M12 2q.336 0 .664.023Q12 3.453 12 5q0 1.422.555 2.72t1.492 2.233 2.234 1.492T19 12q1.547 0 2.977-.664.023.328.023.664 0 1.36-.36 2.656t-1.003 2.395-1.566 2.02-2.02 1.568-2.393 1.004T12 22t-2.656-.36-2.395-1.003-2.02-1.566-1.568-2.02-1.004-2.393T2 12t.36-2.656T3.362 6.95 4.93 4.93t2.02-1.567T9.343 2.36 12 2zm-1.97 2.242q-1.288.328-2.4 1.062T5.714 7.046 4.457 9.34 4 12q0 1.624.633 3.104T6.34 17.66t2.555 1.706T12 20q1.375 0 2.66-.458t2.293-1.258 1.742-1.914 1.062-2.402q-.336.03-.758.03-1.83 0-3.494-.714t-2.87-1.922-1.923-2.87T10 4.998q0-.423.03-.76z"/></symbol><symbol viewBox="0 0 24 24" id="bds-icons-search"><path d="M10 1q1.828 0 3.496.715t2.87 1.918 1.92 2.87T19 10q0 1.57-.512 3.008t-1.457 2.61l5.68 5.67q.29.29.29.712 0 .43-.284.715T22 23q-.422 0-.71-.29l-5.673-5.68q-1.172.946-2.61 1.458T10 19q-1.828 0-3.496-.715t-2.87-1.918-1.92-2.87T1 10t.715-3.496 1.918-2.87 2.87-1.92T10 1zm0 2q-1.422 0-2.72.555T5.048 5.047 3.555 7.28 3 10t.555 2.72 1.492 2.233 2.234 1.492T10 17t2.72-.555 2.233-1.492 1.492-2.234T17 10t-.555-2.72-1.492-2.233-2.234-1.492T10 3z"/></symbol></symbol><symbol viewBox="0 0 24 24" id="biings-care"><g fill-rule="nonzero"><path d="M11.08 16.995c.553 0 1 .447 1 1 0 .552-.447 1-1 1-.71 0-1.258-.11-1.757-.316-1.89 1.653-4.075 2.25-7.1 2.32-.914.02-1.374-1.095-.71-1.725.063-.06.184-.18.34-.345.266-.275.53-.57.774-.868.242-.296.45-.58.614-.84.234-.37.354-.665.36-.802C1.344 14.774 0 12.39 0 9.804 0 4.89 4.788 1 10.604 1c4.885 0 9.138 2.76 10.3 6.693.156.53-.147 1.086-.677 1.242-.53.157-1.085-.146-1.242-.675C18.09 5.232 14.65 3 10.605 3 5.81 3 2 6.097 2 9.804c0 2.03 1.142 3.933 3.11 5.23.238.155.398.405.44.686.034.228.052.457.052.687 0 .593-.244 1.205-.668 1.88-.1.158-.21.32-.328.483 1.538-.295 2.724-.895 3.794-1.965.22-.22.527-.324.834-.284.278.036 1.057.392.877.32.25.1.535.155.97.155zM21.937 10.977c1.418 1.418 1.417 3.718 0 5.135l-4.23 4.23c-.39.39-1.024.39-1.414 0l-4.23-4.23c-1.418-1.418-1.418-3.718 0-5.136 1.345-1.345 3.495-1.26 4.937 0 1.442-1.26 3.592-1.345 4.937 0zm-1.922 4.228l.507-.507c.637-.637.637-1.67 0-2.307-.58-.58-1.61-.508-2.307.188l-.508.508c-.39.39-1.024.39-1.414 0l-.507-.507c-.697-.697-1.728-.77-2.308-.19-.637.637-.637 1.67 0 2.308L17 18.22l3.015-3.015z"/></g></symbol><symbol viewBox="0 0 24 24" id="biings-claim"><path d="M16.872 20.57H6.862C4.47 20.57 3 19.103 3 16.72V3.854C3 1.47 4.47 0 6.858 0h9.427c2.388 0 3.858 1.47 3.858 3.86v8.857c0 .553-.448 1-1 1s-1-.447-1-1V3.86c0-1.285-.575-1.86-1.858-1.86H6.858C5.575 2 5 2.574 5 3.854v12.864c0 1.278.577 1.853 1.86 1.853h10.297l-1.864-1.863c-.39-.39-.39-1.024 0-1.414.39-.39 1.024-.39 1.414 0l3.43 3.428c.39.392.39 1.025 0 1.416l-3.43 3.428c-.39.39-1.024.39-1.414 0-.39-.39-.39-1.023 0-1.414l1.58-1.58zM8 7c-.552 0-1-.448-1-1s.448-1 1-1h7c.552 0 1 .448 1 1s-.448 1-1 1H8zm0 4c-.552 0-1-.448-1-1s.448-1 1-1h7c.552 0 1 .448 1 1s-.448 1-1 1H8z" id="biings-claim-Combined-Shape" fill-rule="nonzero"/></symbol><symbol viewBox="0 0 24 24" id="biings-pilot"><path d="M11 1.983c0-.552.448-1 1-1s1 .448 1 1V22c0 .552-.448 1-1 1s-1-.448-1-1V1.983zM6 6c0-.552.448-1 1-1s1 .448 1 1v12c0 .552-.448 1-1 1s-1-.448-1-1V6zm-5 4c0-.552.448-1 1-1s1 .448 1 1v4c0 .552-.448 1-1 1s-1-.448-1-1v-4zm15-4c0-.552.448-1 1-1s1 .448 1 1v12c0 .552-.448 1-1 1s-1-.448-1-1V6zm5 4c0-.552.448-1 1-1s1 .448 1 1v4c0 .552-.448 1-1 1s-1-.448-1-1v-4z" fill-rule="evenodd"/></symbol><symbol viewBox="0 0 24 24" id="biings"><path d="M6.533 13.592l-.03-.362s0-.86 1.736-.86c.42 0 .738.05.98.126l.177 4.975c-.87-.32-1.654-.96-2.032-1.746l-.205-.435c-.207-.473-.425-1.068-.627-1.698zm11.156 1.5l.157-1.862s0-.86-1.737-.86c-.42 0-.736.05-.978.125l-.14 4.198c.394-.138.76-.28 1.07-.415l.435-.205c.448-.215.857-.56 1.192-.98zm-3.64 1.91l.17-5.128s0-1.013-2.045-1.013c-2.047 0-2.047 1.014-2.047 1.014l.206 5.81c.188.015.374.013.556-.006l.475-.056c.756-.096 1.744-.335 2.686-.62zm-5.91-5.347c.658 0 1.193-.533 1.193-1.192 0-.658-.535-1.192-1.194-1.192-.66 0-1.195.535-1.195 1.193 0 .66.535 1.192 1.194 1.192zm8.045 0c.66 0 1.193-.533 1.193-1.192 0-.658-.534-1.192-1.193-1.192-.66 0-1.194.535-1.194 1.193 0 .66.535 1.192 1.195 1.192zM8.7 1.003c8.248-2.47 11.82-.55 14.296 7.686 2.474 8.235.55 11.804-7.697 14.274-8.248 2.47-11.82.55-14.296-7.686C-1.47 7.043.454 3.474 8.7 1.003zm3.46 8.758c.905 0 1.637-.73 1.637-1.633 0-.902-.732-1.634-1.636-1.634-.902 0-1.635.732-1.635 1.634 0 .902.733 1.634 1.636 1.634z" id="biings-Rectangle-16-Copy-7" fill-rule="evenodd"/></symbol><symbol viewBox="0 0 107 129" id="legal-proof"><g id="legal-proof-FS-Icons" fill-rule="evenodd"><path d="M95.578 74.696c0 8.864-2.665 13.442-6.666 17.59-6.813 7.06-19.275 14.037-35.163 23.777-15.89-9.74-28.35-16.718-35.164-23.778-4.002-4.147-6.666-8.725-6.666-17.59V30.183c14.655-1.35 27.19-5.447 41.83-15.97 14.637 10.523 27.173 14.62 41.828 15.97v44.514zM.593 19.334V73.89c0 26.796 19.36 33.794 53.156 55.11 33.796-21.316 53.155-28.314 53.155-55.11V19.334C86.412 19.334 73.402 16.687 53.75 0 34.095 16.687 21.084 19.334.592 19.334z" id="legal-proof-shield-18-icon-copy-2"/><path id="legal-proof-Shape-Copy-2" fill-rule="nonzero" d="M49.187 85.45L29 65.443l10.015-9.924L49.187 65.6 70.985 44 81 53.924z"/></g></symbol><symbol viewBox="0 0 24 24" id="alt"><path d="M3 4h5q.57 0 .867.5l7.71 13.5H21q.414 0 .707.293T22 19t-.293.707T21 20h-5q-.57 0-.867-.5L7.423 6H3q-.414 0-.707-.293T2 5t.293-.707T3 4zm11 0h5q.414 0 .707.293T20 5t-.293.707T19 6h-5q-.414 0-.707-.293T13 5t.293-.707T14 4z"/></symbol><symbol viewBox="0 0 24 24" id="arrow-down"><path d="M12 2q.414 0 .707.293T13 3v15.586l5.29-5.297q.288-.29.71-.29.43 0 .715.285T20 14q0 .422-.29.71l-7 7q-.288.29-.71.29t-.71-.29l-7-7Q4 14.423 4 14q0-.43.285-.715T5 13q.422 0 .71.29L11 18.585V3q0-.414.293-.707T12 2z"/></symbol><symbol viewBox="0 0 24 24" id="arrow-left"><path d="M10 4q.414 0 .707.293T11 5q0 .422-.297.71L5.413 11H21q.414 0 .707.293T22 12t-.293.707T21 13H5.414l5.29 5.29q.296.288.296.71 0 .414-.293.707T10 20q-.422 0-.71-.29l-7-7Q2 12.407 2 12t.29-.71l7-7Q9.585 4 10 4z"/></symbol><symbol viewBox="0 0 24 24" id="arrow-right"><path d="M14 4q.422 0 .71.29l7 7q.29.288.29.71t-.29.71l-7 7q-.288.29-.71.29-.43 0-.715-.285T13 19q0-.422.29-.71L18.585 13H3q-.414 0-.707-.293T2 12t.293-.707T3 11h15.586L13.29 5.71Q13 5.423 13 5q0-.43.285-.715T14 4z"/></symbol><symbol viewBox="0 0 24 24" id="arrow-up"><path d="M12 2q.422 0 .71.29l7 7q.29.288.29.71 0 .43-.285.715T19 11q-.422 0-.71-.29L13 5.415V21q0 .414-.293.707T12 22t-.707-.293T11 21V5.414L5.71 10.71Q5.423 11 5 11q-.43 0-.715-.285T4 10q0-.422.29-.71l7-7Q11.577 2 12 2z"/></symbol><symbol viewBox="0 0 24 24" id="ban"><path d="M12 1q2.242 0 4.277.87t3.508 2.345 2.344 3.508T23 12t-.87 4.277-2.345 3.508-3.508 2.344T12 23t-4.277-.87-3.508-2.345-2.344-3.508T1 12t.87-4.277 2.345-3.508T7.723 1.87 12 1zm5.617 18.03L4.97 6.384Q4.03 7.563 3.515 9T3 12q0 1.828.715 3.496t1.918 2.87 2.87 1.92T12 21q1.57 0 3.008-.512t2.61-1.457zM12 3q-1.57 0-3.008.512T6.382 4.97l12.65 12.647q.944-1.172 1.456-2.61T21 12q0-1.828-.715-3.496t-1.918-2.87-2.87-1.92T12 3z"/></symbol><symbol viewBox="0 0 24 24" id="bell"><path d="M18 14V9c0-3.314-2.686-6-6-6S6 5.686 6 9v5c0 .73-.195 1.412-.535 2h13.07c-.34-.588-.535-1.27-.535-2zm4 4H2c-1.333 0-1.333-2 0-2 1.105 0 2-.895 2-2V9c0-4.418 3.582-8 8-8s8 3.582 8 8v5c0 1.105.895 2 2 2 1.333 0 1.333 2 0 2zm-9.135 2.498c.277-.477.89-.64 1.367-.363s.64.89.363 1.367c-.83 1.433-2.667 1.92-4.1 1.09-.452-.263-.828-.638-1.09-1.09-.277-.478-.114-1.09.363-1.367.478-.277 1.09-.114 1.367.363.087.15.213.276.363.363.478.28 1.09.116 1.367-.362z" id="bell-Shape" fill-rule="nonzero"/></symbol><symbol viewBox="0 0 20 22" id="calendar"><path d="M7 4v1c0 .552-.448 1-1 1s-1-.448-1-1V4H3c-.552 0-1 .448-1 1v3h16V5c0-.552-.448-1-1-1h-2v1c0 .552-.448 1-1 1s-1-.448-1-1V4H7zm0-2h6V1c0-.552.448-1 1-1s1 .448 1 1v1h2c1.657 0 3 1.343 3 3v14c0 1.657-1.343 3-3 3H3c-1.657 0-3-1.343-3-3V5c0-1.657 1.343-3 3-3h2V1c0-.552.448-1 1-1s1 .448 1 1v1zm-5 8v9c0 .552.448 1 1 1h14c.552 0 1-.448 1-1v-9H2z" id="calendar-Combined-Shape"/></symbol><symbol viewBox="0 0 24 24" id="check"><path d="M21 5q.43 0 .715.285T22 6q0 .422-.29.71l-12 12Q9.423 19 9 19t-.71-.29l-6-6Q2 12.423 2 12q0-.43.285-.715T3 11q.422 0 .71.29L9 16.585 20.29 5.29Q20.577 5 21 5z"/></symbol><symbol viewBox="0 0 24 24" id="circle-minus"><path d="M12 1q2.242 0 4.277.87t3.508 2.345 2.344 3.508T23 12t-.87 4.277-2.345 3.508-3.508 2.344T12 23t-4.277-.87-3.508-2.345-2.344-3.508T1 12t.87-4.277 2.345-3.508T7.723 1.87 12 1zm0 2q-1.828 0-3.496.715t-2.87 1.918-1.92 2.87T3 12t.715 3.496 1.918 2.87 2.87 1.92T12 21t3.496-.715 2.87-1.918 1.92-2.87T21 12t-.715-3.496-1.918-2.87-2.87-1.92T12 3zm-4 8h8q.414 0 .707.293T17 12t-.293.707T16 13H8q-.414 0-.707-.293T7 12t.293-.707T8 11z"/></symbol><symbol viewBox="0 0 24 24" id="circle-plus"><path d="M12 1q2.242 0 4.277.87t3.508 2.345 2.344 3.508T23 12t-.87 4.277-2.345 3.508-3.508 2.344T12 23t-4.277-.87-3.508-2.345-2.344-3.508T1 12t.87-4.277 2.345-3.508T7.723 1.87 12 1zm0 2q-1.828 0-3.496.715t-2.87 1.918-1.92 2.87T3 12t.715 3.496 1.918 2.87 2.87 1.92T12 21t3.496-.715 2.87-1.918 1.92-2.87T21 12t-.715-3.496-1.918-2.87-2.87-1.92T12 3zm0 4q.414 0 .707.293T13 8v3h3q.414 0 .707.293T17 12t-.293.707T16 13h-3v3q0 .414-.293.707T12 17t-.707-.293T11 16v-3H8q-.414 0-.707-.293T7 12t.293-.707T8 11h3V8q0-.414.293-.707T12 7z"/></symbol><symbol viewBox="0 0 24 24" id="clipboard"><path d="M10 1h4q.97 0 1.742.56T16.828 3H18q1.242 0 2.12.88T21 6v14q0 1.242-.88 2.12T18 23H6q-1.242 0-2.12-.88T3 20V6q0-1.242.88-2.12T6 3h1.172q.312-.883 1.086-1.44T10 1zm8 4h-1.172q-.312.883-1.086 1.44T14 7h-4q-.97 0-1.742-.56T7.172 5H6q-.414 0-.707.293T5 6v14q0 .414.293.707T6 21h12q.414 0 .707-.293T19 20V6q0-.414-.293-.707T18 5zm-4-2h-4q-.414 0-.707.293T9 4t.293.707T10 5h4q.414 0 .707-.293T15 4t-.293-.707T14 3z"/></symbol><symbol viewBox="0 0 24 24" id="clock"><path d="M12 1q2.242 0 4.277.87t3.508 2.345 2.344 3.508T23 12t-.87 4.277-2.345 3.508-3.508 2.344T12 23t-4.277-.87-3.508-2.345-2.344-3.508T1 12t.87-4.277 2.345-3.508T7.723 1.87 12 1zm0 2q-1.828 0-3.496.715t-2.87 1.918-1.92 2.87T3 12t.715 3.496 1.918 2.87 2.87 1.92T12 21t3.496-.715 2.87-1.918 1.92-2.87T21 12t-.715-3.496-1.918-2.87-2.87-1.92T12 3zm0 2q.414 0 .707.293T13 6v5.586l2.71 2.703q.29.288.29.71t-.29.71T15 16t-.71-.29l-3-3Q11 12.423 11 12V6q0-.414.293-.707T12 5z"/></symbol><symbol viewBox="0 0 24 24" id="download"><path d="M12 1q.414 0 .707.293T13 2v11.586l3.29-3.297q.288-.29.71-.29.43 0 .715.285T18 11q0 .422-.29.71l-5 5q-.288.29-.71.29t-.71-.29l-5-5Q6 11.407 6 11q0-.414.293-.707T7 10q.422 0 .71.29L11 13.585V2q0-.414.293-.707T12 1zm10 14q.414 0 .707.293T23 16v4q0 1.25-.867 2.117-.883.883-2.11.883H4.002q-1.226 0-2.124-.875Q1 21.227 1 20v-4q0-.414.294-.707T2 15t.708.293T3 16v4q0 .414.294.707T4 21h16.024q.406 0 .69-.293T21 20v-4q0-.414.293-.707T22 15z"/></symbol><symbol viewBox="0 0 24 24" id="eye"><path d="M12 3q1.633 0 3.176.496t2.707 1.29 2.19 1.753 1.728 1.92 1.212 1.755.754 1.285L24 12q-.055.117-.148.316t-.44.813-.743 1.21-1.04 1.406-1.332 1.508-1.63 1.41-1.93 1.207-2.222.814T12 21q-1.633 0-3.176-.496T6.117 19.22t-2.19-1.743-1.728-1.91T.987 13.82t-.754-1.288L0 12.04q.055-.117.148-.316t.44-.816.743-1.215T2.37 8.28t1.332-1.517 1.63-1.414 1.93-1.216 2.222-.816T12 3.002zm0 2q-1.094 0-2.148.29t-1.902.745T6.294 7.14 4.896 8.417 3.75 9.77t-.882 1.237-.617 1.03q.29.51.618 1.02t.883 1.228 1.146 1.336 1.398 1.263 1.656 1.094 1.902.738T12 19t2.148-.29 1.902-.74 1.656-1.1 1.398-1.27 1.145-1.343.882-1.234T21.75 12q-.29-.508-.618-1.023t-.883-1.234T19.103 8.4t-1.398-1.27-1.656-1.1-1.902-.74T12 5zm0 3q1.656 0 2.828 1.172T16 12t-1.172 2.828T12 16t-2.828-1.172T8 12t1.172-2.828T12 8zm0 2q-.828 0-1.414.586T10 12t.586 1.414T12 14t1.414-.586T14 12t-.586-1.414T12 10z"/></symbol><symbol viewBox="0 0 24 24" id="file"><path d="M5 0h10l7 7v14q0 1.242-.88 2.12T19 24H5q-1.242 0-2.12-.88T2 21V3q0-1.242.88-2.12T5 0zm8 9V2H5q-.422 0-.71.29T4 3v18q0 .422.29.71T5 22h14q.422 0 .71-.29T20 21V9h-7zm6.172-2L15 2.828V7h4.172z"/></symbol><symbol viewBox="0 0 24 24" id="globe"><path d="M12 1q.28 0 .422.008 1.453.055 2.824.48t2.535 1.145 2.138 1.73 1.648 2.2 1.055 2.58T23 12t-.38 2.854-1.054 2.582-1.648 2.2-2.137 1.73-2.534 1.144-2.824.48q-.14.008-.422.008t-.422-.008q-1.453-.055-2.824-.48T6.22 21.365t-2.138-1.73-1.648-2.2-1.055-2.58T1 11.998t.38-2.856 1.054-2.582 1.648-2.2 2.137-1.73T8.753 1.49t2.824-.48Q11.718 1 12 1zM7.04 13H3.054q.312 2.79 2.148 4.898T9.72 20.71q-1.017-1.538-1.77-3.487T7.04 13zm7.92 0H9.04q.077 1 .323 2t.55 1.77.704 1.52.72 1.234.663.93q.344-.445.664-.934t.72-1.238.702-1.52.55-1.766.325-1.996zM9.72 3.29Q7.04 3.99 5.202 6.1T3.055 11H7.04q.272-4.08 2.68-7.712zM20.944 13h-3.977q-.29 4.086-2.688 7.71 2.68-.702 4.516-2.812T20.944 13zM12 3.547q-.344.445-.66.934t-.72 1.24-.706 1.52-.55 1.765T9.038 11h5.92q-.077-1-.323-2t-.55-1.77-.704-1.52-.72-1.233-.663-.93zm2.28-.258q2.4 3.624 2.69 7.71h3.976q-.312-2.79-2.148-4.898T14.282 3.29z"/></symbol><symbol viewBox="0 0 24 24" id="help-buoy"><path d="M12 1q2.156 0 4.18.82t3.602 2.398T22.18 7.82 23 12t-.82 4.18-2.398 3.602-3.602 2.398T12 23t-4.18-.82-3.602-2.398T1.82 16.18 1 12t.82-4.18 2.398-3.602T7.82 1.82 12 1zM7.828 9.242l-2.86-2.86Q4 7.595 3.5 9.04T3 12t.5 2.96 1.47 2.657l2.858-2.86Q7 13.508 7 12t.828-2.758zm9.79 9.79l-2.86-2.86Q13.508 17 12 17t-2.758-.828l-2.86 2.86Q7.595 20 9.04 20.5T12 21t2.96-.5 2.657-1.47zM12 9q-1.242 0-2.12.88T9 12t.88 2.12T12 15t2.12-.88T15 12t-.88-2.12T12 9zm0-6q-1.516 0-2.96.5T6.382 4.97l2.86 2.858Q10.492 7 12 7t2.758.828l2.86-2.86Q16.405 4 14.96 3.5T12 3zm7.03 3.383l-2.858 2.86Q17 10.492 17 12t-.828 2.758l2.86 2.86Q20 16.405 20.5 14.96T21 12t-.5-2.96-1.47-2.657z"/></symbol><symbol viewBox="0 0 22 22" id="help"><path d="M18.778 18.778c-4.296 4.296-11.26 4.296-15.556 0-4.296-4.296-4.296-11.26 0-15.556 4.296-4.296 11.26-4.296 15.556 0 4.296 4.296 4.296 11.26 0 15.556zM4.636 4.636c-3.515 3.515-3.515 9.213 0 12.728 3.515 3.515 9.213 3.515 12.728 0 3.515-3.515 3.515-9.213 0-12.728-3.515-3.515-9.213-3.515-12.728 0zM11 17c-.552 0-1-.448-1-1s.448-1 1-1 1 .448 1 1-.448 1-1 1zM9.033 8.332c-.183.52-.754.795-1.275.61-.52-.182-.795-.753-.61-1.274.732-2.084 3.015-3.18 5.1-2.446 1.603.564 2.675 2.08 2.672 3.778 0 1.28-.758 2.29-1.945 3.082-.65.433-1.287.716-1.74.867-.523.173-1.09-.11-1.264-.634-.173-.524.11-1.09.634-1.265.065-.02.2-.072.38-.15.302-.136.604-.297.88-.482.69-.46 1.056-.948 1.056-1.42 0-.85-.535-1.607-1.336-1.89-1.042-.366-2.184.182-2.55 1.224z" id="help-Combined-Shape" fill-rule="nonzero"/></symbol><symbol viewBox="0 0 24 24" id="moon"><path d="M12 2q.336 0 .664.023Q12 3.453 12 5q0 1.422.555 2.72t1.492 2.233 2.234 1.492T19 12q1.547 0 2.977-.664.023.328.023.664 0 1.36-.36 2.656t-1.003 2.395-1.566 2.02-2.02 1.567-2.394 1.004T12 22t-2.656-.36-2.395-1.003-2.02-1.566-1.567-2.02-1.004-2.394T2 12t.36-2.656T3.362 6.95 4.93 4.93t2.02-1.567T9.343 2.36 12 2zm-1.97 2.242q-1.288.328-2.4 1.062T5.714 7.046 4.457 9.34 4 12q0 1.624.633 3.104T6.34 17.66t2.555 1.706T12 20q1.375 0 2.66-.458t2.293-1.258 1.742-1.914 1.062-2.402q-.336.03-.758.03-1.83 0-3.493-.714t-2.87-1.922-1.923-2.87T10 4.998q0-.423.03-.76z"/></symbol><symbol viewBox="0 0 24 24" id="search"><path d="M10 1q1.828 0 3.496.715t2.87 1.918 1.92 2.87T19 10q0 1.57-.512 3.008t-1.457 2.61l5.68 5.67q.29.29.29.712 0 .43-.285.715T22 23q-.422 0-.71-.29l-5.673-5.68q-1.172.946-2.61 1.458T10 19q-1.828 0-3.496-.715t-2.87-1.918-1.92-2.87T1 10t.715-3.496 1.918-2.87 2.87-1.92T10 1zm0 2q-1.422 0-2.72.555T5.048 5.047 3.555 7.28 3 10t.555 2.72 1.492 2.233 2.234 1.492T10 17t2.72-.555 2.233-1.492 1.492-2.234T17 10t-.555-2.72-1.492-2.233-2.234-1.492T10 3z"/></symbol></svg>