<svg xmlns="http://www.w3.org/2000/svg"><defs><linearGradient id="shield-person-shield-person-a" x1="86.706%" x2="22.878%" y1="0%" y2="100%"><stop offset="0%" stop-color="#00BEB9"/><stop offset="100%" stop-color="#8C50B9"/></linearGradient></defs><symbol viewBox="0 0 25 24" id="accident-g"><path d="M9.319 11.292a1 1 0 000 1.42 1 1 0 101.41-1.42 1 1 0 00-1.41 0zm2.47 2.48a1 1 0 101.42 1.41 1 1 0 10-1.42-1.41zm9-10a6 6 0 00-8.29-.22 6 6 0 00-8.24.2 6 6 0 00-.19 8.25 6 6 0 004.43 10 5.92 5.92 0 004-1.55 6 6 0 008.25-.2 6 6 0 00.18-8.25 6 6 0 00-.18-8.25l.04.02zm-1.46 1.4a4 4 0 01.17 5.39l-5.56-5.56a4.07 4.07 0 015.39.17zm-13.66 13.66a4 4 0 01-.17-5.39l5.6 5.6a4.08 4.08 0 01-5.43-.21zm13.66 0a4.08 4.08 0 01-5.64 0l-8-8a4 4 0 010-5.64 4 4 0 015.64 0l8 8a4 4 0 010 5.64zm-5.06-7.54a1 1 0 000 1.42 1 1 0 101.41-1.42 1 1 0 00-1.41 0zm-2.48-2.47a1 1 0 101.42 1.41 1 1 0 10-1.42-1.41z"/></symbol><symbol viewBox="0 0 24 24" id="accident"><path d="M12 3.869A5.75 5.75 0 0120.131 12 5.75 5.75 0 0112 20.131 5.75 5.75 0 013.869 12 5.75 5.75 0 0112 3.869zm1.061 1.06l6.01 6.01a4.25 4.25 0 00-6.01-6.01zM10.94 19.071l-6.01-6.01a4.25 4.25 0 006.01 6.01zM4.985 4.985a4.25 4.25 0 000 6.01l8.02 8.02a4.25 4.25 0 106.01-6.01l-8.02-8.02a4.25 4.25 0 00-6.01 0zM9.1 12.282a.9.9 0 11-1.272-1.272.9.9 0 011.272 1.272zm3.181-3.183a.9.9 0 11-1.272-1.272.9.9 0 011.272 1.272zm3.89 3.89a.9.9 0 11-1.271-1.271.9.9 0 011.272 1.272zm-3.535-.353a.9.9 0 11-1.272-1.272.9.9 0 011.272 1.272zm.355 3.537a.9.9 0 11-1.272-1.272.9.9 0 011.272 1.272z"/></symbol><symbol viewBox="0 0 24 24" id="add-g"><path d="M12 2C6.48 2 2 6.48 2 12s4.48 10 10 10 10-4.48 10-10S17.52 2 12 2zm5 11h-4v4h-2v-4H7v-2h4V7h2v4h4v2z"/></symbol><symbol viewBox="0 0 24 24" id="archive-g"><g id="archive-g-Icons" stroke-width="1" fill-rule="evenodd"><path d="M20.54 5.23l-1.39-1.68C18.88 3.21 18.47 3 18 3H6c-.47 0-.88.21-1.16.55L3.46 5.23C3.17 5.57 3 6.02 3 6.5V19c0 1.1.9 2 2 2h14c1.1 0 2-.9 2-2V6.5c0-.48-.17-.93-.46-1.27zM6.24 5h11.52l.81.97H5.44l.8-.97zM5 19V8h14v11H5zm8.45-9h-2.9v3H8l4 4 4-4h-2.55v-3z" id="archive-g-Shape"/></g></symbol><symbol viewBox="0 0 25 24" id="army-g"><g id="army-g-Icons" stroke-width="1" fill-rule="evenodd"><path d="M2.75 11.708V4.683a2.379 2.379 0 011.401-2.177 21.006 21.006 0 018.59-1.755c2.96-.028 5.894.57 8.624 1.762A2.37 2.37 0 0122.75 4.68v7.028c0 4.961-3.056 9.41-7.686 11.192l-.96.369a3.769 3.769 0 01-2.707 0l-.961-.37A11.991 11.991 0 012.75 11.71zm2-7.035V11.708a9.991 9.991 0 006.404 9.325l.96.37a1.77 1.77 0 001.271-.001l.96-.37a9.991 9.991 0 006.405-9.324V4.673a.368.368 0 00-.201-.334 19.055 19.055 0 00-7.808-1.588 19.013 19.013 0 00-7.774 1.58.373.373 0 00-.217.342zm6.65 5.612v-3.15h2.7v3.15h3.15v2.7H14.1v3.15h-2.7v-3.15H8.25v-2.7h3.15z" id="army-g-Shape" fill-rule="nonzero"/></g></symbol><symbol viewBox="0 0 25 24" id="army"><g id="army-Icons" stroke-width="1" fill-rule="evenodd"><path d="M6.05 16.253a.75.75 0 011.197-.905 8.36 8.36 0 003.644 2.753l.8.308c.36.138.758.138 1.117 0l.798-.307a8.367 8.367 0 003.646-2.754.75.75 0 111.197.905 9.869 9.869 0 01-4.302 3.248l-.8.308a3.056 3.056 0 01-2.195 0l-.802-.31a9.862 9.862 0 01-4.3-3.246zm14.346-4.651a.75.75 0 11-1.485-.216A8.37 8.37 0 0019 10.25V5.187a.39.39 0 00-.217-.356 15.981 15.981 0 00-6.54-1.33 15.949 15.949 0 00-6.513 1.324.397.397 0 00-.23.367v5.05c.004.382.035.763.091 1.14a.75.75 0 01-1.483.223 9.913 9.913 0 01-.108-1.354V5.197a1.9 1.9 0 011.117-1.74A17.445 17.445 0 0112.242 2a17.478 17.478 0 017.153 1.461c.677.311 1.108.99 1.104 1.73v5.065c-.004.45-.038.9-.103 1.345zM.356 21.865l1.882-3.137-1.655-1.103c-.618-.412-.326-1.374.416-1.374 1.052 0 1.833-.465 2.421-1.271a4.494 4.494 0 00.657-1.323.75.75 0 011.453.37c-.122.48-.4 1.156-.898 1.837-.475.65-1.06 1.161-1.757 1.487l.79.526a.75.75 0 01.227 1.01l-1.447 2.411a7.361 7.361 0 003.972-2.507.75.75 0 111.163.947A8.861 8.861 0 011.026 23a.75.75 0 01-.67-1.135zm20.477-3.988l.788-.526c-.698-.325-1.283-.837-1.758-1.487-.497-.682-.775-1.358-.896-1.837a.75.75 0 011.454-.368 4.478 4.478 0 00.655 1.321c.587.806 1.368 1.27 2.423 1.27.742 0 1.033.963.416 1.375l-1.655 1.103 1.882 3.137a.75.75 0 01-.67 1.135 8.861 8.861 0 01-6.555-3.262.75.75 0 111.163-.947 7.361 7.361 0 003.972 2.507l-1.447-2.411a.75.75 0 01.228-1.01zm-9.558-8.601V7h1.95v2.275H15.5v1.95h-2.275V13.5h-1.95v-2.275H9v-1.95h2.275z" id="army-Shape" fill-rule="nonzero"/></g></symbol><symbol viewBox="0 0 24 24" id="arrow-down-g"><g id="arrow-down-g-Icons" stroke-width="1" fill-rule="evenodd"><path d="M7.295 19.29a1 1 0 101.415 1.415l7.995-8a1 1 0 000-1.414l-7.995-8a1 1 0 00-1.415 1.414l7.289 7.293-7.29 7.293z" id="arrow-down-g-Line-2" fill-rule="nonzero" transform="rotate(90 12 11.998)"/></g></symbol><symbol viewBox="0 0 24 24" id="arrow-down"><g id="arrow-down-Icons" stroke-width="1" fill-rule="evenodd"><path d="M21.533 11.25L12.97 2.687a.75.75 0 011.06-1.061l9.844 9.844a.75.75 0 010 1.06l-9.844 9.844a.75.75 0 01-1.06-1.06l8.563-8.564H.843a.75.75 0 110-1.5h20.69z" id="arrow-down-Path" fill-rule="nonzero" transform="rotate(90 12.094 12)"/></g></symbol><symbol viewBox="0 0 24 24" id="arrow-left-g"><path d="M11.416 12.246l3.54-3.54a1 1 0 10-1.42-1.41l-4.24 4.24a1 1 0 000 1.42l4.24 4.29a1 1 0 00.71.29 1 1 0 00.71-.29 1 1 0 000-1.41l-3.54-3.59z"/></symbol><symbol viewBox="0 0 24 24" id="arrow-left"><g id="arrow-left-Icons" stroke-width="1" fill-rule="evenodd"><path d="M21.44 11.25l-8.564-8.563a.75.75 0 011.06-1.061l9.844 9.844a.75.75 0 010 1.06l-9.843 9.844a.75.75 0 01-1.061-1.06l8.563-8.564H.75a.75.75 0 110-1.5h20.69z" id="arrow-left-Path" fill-rule="nonzero" transform="matrix(-1 0 0 1 24 0)"/></g></symbol><symbol viewBox="0 0 24 24" id="arrow-right-g"><path d="M14.95 11.536l-4.24-4.24a1 1 0 00-1.42 0 1 1 0 000 1.41l3.54 3.54-3.54 3.54a1 1 0 000 1.41 1 1 0 00.71.29 1 1 0 00.71-.29l4.24-4.24a1 1 0 000-1.42z"/></symbol><symbol viewBox="0 0 24 24" id="arrow-right"><g id="arrow-right-Icons" stroke-width="1" fill-rule="evenodd"><path d="M21.44 11.25l-8.564-8.563a.75.75 0 011.06-1.061l9.844 9.844a.75.75 0 010 1.06l-9.843 9.844a.75.75 0 01-1.061-1.06l8.563-8.564H.75a.75.75 0 110-1.5h20.69z" id="arrow-right-Path" fill-rule="nonzero"/></g></symbol><symbol viewBox="0 0 24 24" id="arrow-up-g"><g id="arrow-up-g-Icons" stroke-width="1" fill-rule="evenodd"><path d="M7.295 19.29a1 1 0 101.415 1.415l7.995-8a1 1 0 000-1.414l-7.995-8a1 1 0 00-1.415 1.414l7.289 7.293-7.29 7.293z" id="arrow-up-g-Line-2" fill-rule="nonzero" transform="scale(1 -1) rotate(90 23.998 0)"/></g></symbol><symbol viewBox="0 0 25 24" id="arrow-up-r-g"><path d="M17.886 6.08a1 1 0 00-.38-.08h-8.5a1 1 0 100 2h6.09l-8.3 8.29a1 1 0 000 1.42 1 1 0 001.42 0l8.29-8.3v6.09a1 1 0 102 0V7a1 1 0 00-.08-.38 1 1 0 00-.54-.54z"/></symbol><symbol viewBox="0 0 24 24" id="arrow-up"><g id="arrow-up-Icons" stroke-width="1" fill-rule="evenodd"><path d="M21.533 11.25L12.97 2.687a.75.75 0 011.06-1.061l9.844 9.844a.75.75 0 010 1.06l-9.844 9.844a.75.75 0 01-1.06-1.06l8.563-8.564H.843a.75.75 0 110-1.5h20.69z" id="arrow-up-Path" fill-rule="nonzero" transform="scale(1 -1) rotate(90 24.094 0)"/></g></symbol><symbol viewBox="0 0 24 24" id="assessment"><path d="M9.751 12.75a2.25 2.25 0 01-2.25-2.25V2.25A2.25 2.25 0 019.751 0h12a2.25 2.25 0 012.25 2.25v8.25a2.25 2.25 0 01-2.25 2.25h-4.19l-4.28 4.28a.75.75 0 01-1.28-.53v-3.75h-2.25zm6.97-1.28a.75.75 0 01.53-.22h4.5a.75.75 0 00.75-.75V2.25a.75.75 0 00-.75-.75h-12a.75.75 0 00-.75.75v8.25c0 .414.336.75.75.75h3a.75.75 0 01.75.75v2.69l3.22-3.22zm-2.69-5.5l1.026 1.025 3.226-2.58a.75.75 0 01.937 1.17l-3.75 3a.75.75 0 01-1-.055l-1.5-1.5a.75.75 0 011.062-1.06zM4.035 19.458a3.536 3.536 0 112.43 0 5.513 5.513 0 013.995 3.565.723.723 0 01-1.365.477 4.07 4.07 0 00-7.688 0 .723.723 0 01-1.365-.477 5.517 5.517 0 013.993-3.565zm2.692-4.8a2.09 2.09 0 10-2.955 2.955 2.09 2.09 0 002.955-2.954zm13.08 4.68a5.677 5.677 0 014.114 3.672.745.745 0 01-1.407.49 4.191 4.191 0 00-7.915 0 .745.745 0 01-1.406-.49 5.68 5.68 0 014.112-3.671 3.627 3.627 0 01-1.324-.846 3.628 3.628 0 01-.917-1.539.745.745 0 011.428-.422 2.151 2.151 0 103.82-1.856.745.745 0 011.215-.862 3.642 3.642 0 01-1.72 5.524z"/></symbol><symbol viewBox="0 0 25 25" id="attachment-g"><g id="attachment-g-Icons" stroke-width="1" fill-rule="evenodd"><path d="M19.7 16.666V8.6c0-4.177-3.111-7.6-7-7.6-3.888 0-7 3.423-7 7.6v11c0 2.962 2.217 5.4 5 5.4 2.784 0 5-2.438 5-5.4v-11c0-1.747-1.32-3.2-3-3.2-1.679 0-3 1.453-3 3.2v9.533a1 1 0 102 0V8.6c0-.683.47-1.2 1-1.2s1 .517 1 1.2v11c0 1.898-1.365 3.4-3 3.4-1.634 0-3-1.502-3-3.4v-11c0-3.113 2.261-5.6 5-5.6 2.74 0 5 2.487 5 5.6v8.066a1 1 0 102 0z" id="attachment-g-Path" fill-rule="nonzero"/></g></symbol><symbol viewBox="0 0 24 24" id="attachment"><g id="attachment-Icons" stroke-width="1" fill-rule="evenodd"><path d="M19.5 15.749V7.5a7.5 7.5 0 00-15 0v11.25a5.25 5.25 0 0010.5 0V7.5a3 3 0 00-6 0v9.75a.75.75 0 101.5 0V7.5a1.5 1.5 0 013 0v11.25a3.75 3.75 0 01-7.5 0V7.5a6 6 0 0112 0v8.249a.75.75 0 101.5 0z" id="attachment-Path" fill-rule="nonzero"/></g></symbol><symbol viewBox="0 0 24 24" id="badge-g"><path d="M2 11.708V4.683a2.379 2.379 0 011.401-2.177 21.006 21.006 0 018.59-1.755c2.96-.028 5.894.57 8.624 1.762A2.37 2.37 0 0122 4.68v7.028c0 4.961-3.055 9.41-7.686 11.192l-.96.369a3.769 3.769 0 01-2.707 0l-.961-.37A11.991 11.991 0 012 11.71zm2-7.035V11.708a9.991 9.991 0 006.404 9.325l.96.37a1.77 1.77 0 001.271-.001l.961-.37A9.991 9.991 0 0020 11.709V4.673a.368.368 0 00-.201-.334 19.055 19.055 0 00-7.808-1.588 19.013 19.013 0 00-7.773 1.58.373.373 0 00-.218.342zm10.632 11.063l-2.63-1.586-2.632 1.586a.41.41 0 01-.613-.442l.694-2.99L7.14 10.3a.413.413 0 01.237-.719l3.056-.261 1.193-2.82a.407.407 0 01.752 0l1.193 2.811 3.056.262a.41.41 0 01.23.72l-2.313 2.001.694 3a.405.405 0 01-.605.44z"/></symbol><symbol viewBox="0 0 25 25" id="bank"><path d="M11.681 22.5v-8.25h-3v8.25h3zm-4.5-8.25h-1.5a.75.75 0 010-1.5h17.25v-.66l-7.34-4.894a.75.75 0 11.831-1.248l7.404 4.936c.378.25.605.672.605 1.125v.891a1.35 1.35 0 01-1.35 1.35h-.9v8.25h1.5a.75.75 0 010 1.5h-18a.75.75 0 010-1.5h1.5v-8.25zm6 8.25h3v-8.25h-3v8.25zm7.5 0v-8.25h-3v8.25h3zM4.228 3l.205-1.37A1.913 1.913 0 016.608.021l6.77 1.013a1.913 1.913 0 011.608 2.177l-.53 3.54a1.937 1.937 0 01-2.025 1.623v1.24c0 .903-.733 1.636-1.637 1.636H2.068A1.637 1.637 0 01.431 9.613V4.637C.431 3.733 1.164 3 2.068 3h2.16zm1.517 0h5.05c.903 0 1.636.733 1.636 1.637v2.226a.437.437 0 00.543-.343l.529-3.533a.413.413 0 00-.348-.47l-6.77-1.012a.413.413 0 00-.469.347L5.745 3zM2.068 4.5a.137.137 0 00-.137.137v4.976c0 .076.062.137.137.137h8.726a.137.137 0 00.137-.137V4.637a.137.137 0 00-.137-.137H2.068zm3.238 2.625a1.125 1.125 0 112.25 0 1.125 1.125 0 01-2.25 0z"/></symbol><symbol viewBox="0 0 24 24" id="bell-g"><path fill-rule="evenodd" d="M19.29 17.04L18 15.75v-5c0-3.07-1.64-5.64-4.5-6.32v-.68c0-.83-.67-1.5-1.5-1.5s-1.5.67-1.5 1.5v.68C7.63 5.11 6 7.67 6 10.75v5l-1.29 1.29c-.63.63-.19 1.71.7 1.71h13.17c.9 0 1.34-1.08.71-1.71zM16 16.75H8v-6c0-2.48 1.51-4.5 4-4.5s4 2.02 4 4.5v6zm-4 5c1.1 0 2-.9 2-2h-4a2 2 0 002 2z"/></symbol><symbol viewBox="0 0 119 102" id="biings-care"><path d="M57.691 81.475c2.854 0 5.168 2.28 5.168 5.094 0 2.814-2.314 5.094-5.168 5.094-3.673 0-6.505-.56-9.082-1.606-9.768 8.422-21.061 11.467-36.69 11.82-4.723.108-7.103-5.575-3.678-8.784.334-.313.957-.92 1.771-1.757a75.228 75.228 0 003.992-4.422c1.25-1.507 2.326-2.951 3.173-4.28 1.204-1.89 1.825-3.39 1.863-4.087C7.372 70.163.43 58.02.43 44.845.43 19.817 25.172 0 55.23 0c25.241 0 47.22 14.058 53.222 34.095.808 2.698-.755 5.531-3.493 6.328-2.737.796-5.611-.745-6.42-3.443-4.618-15.42-22.398-26.792-43.31-26.792-24.767 0-44.465 15.776-44.465 34.657 0 10.336 5.903 20.036 16.076 26.639a5.088 5.088 0 012.268 3.498 23.2 23.2 0 01.268 3.5c0 3.023-1.26 6.136-3.448 9.571a45.146 45.146 0 01-1.695 2.465c7.944-1.5 14.074-4.556 19.603-10.006a5.213 5.213 0 014.31-1.451c1.438.181 5.462 1.994 4.535 1.631 1.28.503 2.758.783 5.01.783zm56.096-3.854L95.805 95.345a4.296 4.296 0 01-6.013 0L71.81 77.621a15.068 15.068 0 010-21.527c5.718-5.636 16.048-3.75 20.99 1.535 4.716-5.285 15.271-7.171 20.991-1.53a15.065 15.065 0 01-.004 21.522z"/></symbol><symbol viewBox="0 0 24 24" id="biings-claim"><g id="biings-claim-Icons" stroke-width="1" fill-rule="evenodd"><path d="M19.857 8.326v9.67c0 2.388-1.47 3.861-3.854 3.861H6.14c-2.384 0-3.853-1.47-3.853-3.858V6.572c0-2.387 1.47-3.858 3.86-3.858h6.357a1 1 0 110 2H6.146c-1.286 0-1.86.575-1.86 1.858V18c0 1.283.574 1.858 1.853 1.858h9.864c1.279 0 1.854-.577 1.854-1.86v-9.67H16a1 1 0 01-.782-1.624l2.79-4.5a1 1 0 011.565 0l2.79 4.5a1 1 0 01-.782 1.623h-1.724zM7.5 12a1 1 0 010-2h4a1 1 0 010 2h-4zm0 4a1 1 0 010-2h7a1 1 0 010 2h-7z" id="biings-claim-Shape" fill-rule="nonzero"/></g></symbol><symbol viewBox="0 0 24 24" id="biings-pilot"><g id="biings-pilot-Finals" stroke-width="1" fill-rule="evenodd"><path d="M14.893 14.893L9.107 9.107l-2.893 8.679 8.679-2.893zm5.02-8.737l-3.18 9.542a1.636 1.636 0 01-1.035 1.035l-9.542 3.18c-1.279.426-2.495-.79-2.07-2.069l3.181-9.542a1.636 1.636 0 011.035-1.035l9.542-3.18c1.279-.426 2.495.79 2.07 2.069z" id="biings-pilot-Shape" fill-rule="nonzero"/></g></symbol><symbol viewBox="0 0 24 24" id="biings"><g id="biings-Finals" stroke-width="1" fill-rule="evenodd"><path d="M6.533 13.592l-.031-.362s0-.86 1.737-.86c.42 0 .739.05.98.126l.178 4.975c-.87-.321-1.654-.962-2.032-1.747l-.205-.435a18.27 18.27 0 01-.627-1.697zm11.156 1.5l.158-1.862s0-.86-1.737-.86c-.419 0-.736.05-.978.125l-.139 4.198c.393-.138.758-.28 1.07-.415l.434-.205c.448-.215.857-.561 1.192-.981zm-3.638 1.909l.17-5.127s0-1.013-2.046-1.013c-2.047 0-2.047 1.013-2.047 1.013l.206 5.81c.188.015.374.013.556-.006l.475-.056c.756-.096 1.744-.335 2.686-.621zm-5.912-5.346a1.193 1.193 0 10.002-2.386 1.193 1.193 0 00-.002 2.386zm8.046 0a1.193 1.193 0 10.001-2.386 1.193 1.193 0 00-.001 2.386zM8.7 1.003c8.247-2.47 11.82-.549 14.295 7.686 2.474 8.236.55 11.805-7.697 14.275-8.247 2.471-11.82.55-14.295-7.686C-1.47 7.043.454 3.474 8.701 1.003zm3.46 8.758a1.635 1.635 0 10-1.636-1.634c0 .902.733 1.634 1.636 1.634z" id="biings-Rectangle-16-Copy-7"/></g></symbol><symbol viewBox="0 0 24 24" id="birthday-g"><g id="birthday-g-Icons" stroke-width="1" fill-rule="evenodd"><path d="M11.005 10.028a1.016 1.016 0 01-.002-.056V7.597a1 1 0 012 0v2.375l-.001.056h5.67c1.331 0 2.334 1.19 2.334 2.583v7.917c0 1.392-1.003 2.583-2.333 2.583H5.34c-1.33 0-2.334-1.19-2.334-2.583v-6.924a6.109 6.109 0 010-.544v-.449c0-1.392 1.003-2.583 2.334-2.583h5.665zM5.006 16.86v3.668c0 .356.191.583.334.583h13.333c.142 0 .333-.227.333-.583v-3.686a3.924 3.924 0 01-4.306-.4 3.908 3.908 0 01-4.942-.033c-1.32 1.054-3.105 1.313-4.752.45zm0-3.278c.045.752.323 1.198.85 1.465 1.164.636 2.38.298 3.15-.711a1 1 0 011.652.09c.508.845 1.645 1.135 2.529.635.273-.155.499-.374.656-.635a1 1 0 011.712-.003c.515.85 1.661 1.139 2.55.632a1.748 1.748 0 00.901-1.528v-.916c0-.356-.19-.583-.333-.583H5.34c-.143 0-.334.227-.334.583V13.582zM13.923 3a2 2 0 01-4 0c0-1.104 2-3 2-3s2 1.896 2 3z" id="birthday-g-Combined-Shape" fill-rule="nonzero"/></g></symbol><symbol viewBox="0 0 24 24" id="birthday"><g id="birthday-Icons" stroke-width="1" fill-rule="evenodd"><path d="M1.75 14.283v-.922a2.333 2.333 0 012.333-2.333h7.164v-2.68a.75.75 0 111.5 0v2.68h7.17a2.333 2.333 0 012.333 2.333v7.917a2.333 2.333 0 01-2.333 2.333H4.083a2.333 2.333 0 01-2.333-2.333v-6.995zm1.5 2.887v4.108c0 .46.373.833.833.833h15.834c.46 0 .833-.373.833-.833V17.17a3.515 3.515 0 01-4.395-.295 3.5 3.5 0 01-4.752 0 3.506 3.506 0 01-4.354.319 3.518 3.518 0 01-3.999-.025zm0-2.878a2.018 2.018 0 003.463 1.404.75.75 0 011.075.001 2.005 2.005 0 003.169-.384.75.75 0 011.295 0 2 2 0 003.454 0 .75.75 0 011.295-.001 2.013 2.013 0 003.749-1.025v-.926a.833.833 0 00-.833-.833H4.083a.833.833 0 00-.833.833v.931zM14.333 4.125a2.333 2.333 0 01-4.666 0c0-.41.163-.824.444-1.277.144-.232.318-.47.517-.713a10.957 10.957 0 01.856-.93.75.75 0 011.032 0 10.956 10.956 0 01.856.93c.199.243.373.481.517.713.281.453.444.867.444 1.277zm-2.544-1.04c-.16.195-.297.383-.404.555-.147.236-.218.418-.218.485a.833.833 0 001.666 0c0-.067-.071-.25-.218-.485a5.433 5.433 0 00-.404-.556A8.654 8.654 0 0012 2.836a8.654 8.654 0 00-.21.248z" id="birthday-Shape" fill-rule="nonzero"/></g></symbol><symbol viewBox="0 0 25 24" id="book-g"><g id="book-g-Icons" stroke-width="1" fill-rule="evenodd"><path d="M13.75 19.107c1.056-.765 3.014-1.8 6.18-2.153a20.396 20.396 0 011.765-.117.574.574 0 00.555-.58V4.58a.575.575 0 00-.57-.58h-.014c-4.208.108-6.685 1.54-7.921 2.553.003.034.005.07.005.104v12.45zm-2 0V6.657c0-.035.002-.07.005-.105C10.52 5.54 8.045 4.11 3.834 4a.575.575 0 00-.584.568v11.689a.574.574 0 00.555.58c4.222.103 6.705 1.372 7.945 2.27zM11.673 4.06c.4.24.759.483 1.078.724.318-.24.677-.484 1.078-.724 2.044-1.224 4.633-1.977 7.774-2.058h.066c1.43-.01 2.573 1.154 2.581 2.579v11.685c-.005 1.39-1.11 2.545-2.506 2.571-.554.014-1.084.05-1.592.106-1.776.198-3.212.64-4.348 1.24-.863.458-1.335.867-1.48 1.052a2 2 0 01-3.148 0c-.145-.185-.617-.594-1.48-1.051-1.478-.782-3.431-1.286-5.929-1.347-1.406-.026-2.512-1.18-2.517-2.579V4.565l.001-.052C1.291 3.097 2.461 1.959 3.885 2c3.156.081 5.744.834 7.788 2.058z" id="book-g-Shape" fill-rule="nonzero"/></g></symbol><symbol viewBox="0 0 24 24" id="book"><g id="book-Icons" stroke-width="1" fill-rule="evenodd"><path d="M9.24 8.381a.75.75 0 11-.48 1.422 20.508 20.508 0 00-5.074-1.018.75.75 0 01.108-1.496c1.854.133 3.683.5 5.445 1.092zm-.002 4.195a.75.75 0 11-.476 1.422 20.561 20.561 0 00-5.075-1.013.75.75 0 11.106-1.496c1.854.132 3.683.497 5.445 1.087zm4.851 8.61c2.098-.832 4.871-1.35 8.411-1.414V4.502a30.406 30.406 0 00-3.75.288v12.056a.75.75 0 01-.598.734 7.489 7.489 0 00-3.975 2.248 5.285 5.285 0 00-1.144 1.829c.31-.157.66-.315 1.056-.472zm-1.003-2.387a8.978 8.978 0 014.164-2.542V1.57a7.08 7.08 0 00-3.073 2.003 5.285 5.285 0 00-1.427 2.974v12.717c.106-.183.218-.342.336-.465zM11.52 5.191a6.733 6.733 0 011.559-2.639A8.54 8.54 0 0117.059.06c.375-.114.78-.06 1.107.145.356.22.576.606.584 1.038v2.033A31.86 31.86 0 0122.72 3 1.253 1.253 0 0124 4.25v15.775a1.255 1.255 0 01-1.24 1.243c-3.478.043-6.15.532-8.118 1.312-.704.279-1.26.573-1.684.862a2.983 2.983 0 00-.446.356.75.75 0 01-1.085-.06c-.108-.127 1.315-.186 1.12.024a.828.828 0 01-.01.011l-.01.01a.735.735 0 01-.82.158.761.761 0 01-.28-.203 3.427 3.427 0 00-.385-.296c-.424-.289-.98-.583-1.684-.862-1.968-.78-4.64-1.269-8.115-1.312A1.257 1.257 0 010 20.018V4.248A1.254 1.254 0 011.278 3c3.645.047 6.49.568 8.633 1.417.654.26 1.186.523 1.609.774zM9.91 21.185c.523.207.967.417 1.34.62V6.823a5.148 5.148 0 00-.208-.149c-.424-.29-.98-.584-1.684-.862C7.44 5.052 4.854 4.568 1.5 4.504v15.268c3.539.065 6.313.582 8.41 1.413z" id="book-Shape" fill-rule="nonzero"/></g></symbol><symbol viewBox="0 0 24 24" id="briefcase-g"><g id="briefcase-g-Icons" stroke-width="1" fill-rule="evenodd"><path d="M7.625 6.5V5.25A3.25 3.25 0 0110.875 2h2.25a3.25 3.25 0 013.25 3.25V6.5h3.5C21.049 6.5 22 7.451 22 8.625v11.25A2.125 2.125 0 0119.875 22H4.125A2.125 2.125 0 012 19.875V8.625C2 7.451 2.951 6.5 4.125 6.5h3.5zM13 13v1.25a1 1 0 11-2 0V13H4v6.875c0 .069.056.125.125.125h15.75a.125.125 0 00.125-.125V13h-7zm-9-2h16V8.625a.125.125 0 00-.125-.125H4.125A.125.125 0 004 8.625V11zm5.625-4.5h4.75V5.25c0-.69-.56-1.25-1.25-1.25h-2.25c-.69 0-1.25.56-1.25 1.25V6.5z" id="briefcase-g-Shape" fill-rule="nonzero"/></g></symbol><symbol viewBox="0 0 24 24" id="briefcase"><g id="briefcase-Icons" stroke-width="1" fill-rule="evenodd"><path d="M22.5 13.5h-8.25a2.25 2.25 0 11-4.5 0H1.5v6.751c0 .414.336.75.75.75h19.5a.75.75 0 00.75-.75V13.5zm0-1.5V8.251a.75.75 0 00-.75-.75H2.25a.75.75 0 00-.75.75V12h8.25a2.25 2.25 0 014.5 0h8.25zM6.987 6.001l.96-2.464A2.25 2.25 0 0110.08 2h3.838c.961 0 1.816.61 2.128 1.518l.966 2.483h4.737A2.25 2.25 0 0124 8.251v12a2.25 2.25 0 01-2.25 2.25H2.25A2.25 2.25 0 010 20.251v-12a2.25 2.25 0 012.25-2.25h4.737zM8.597 6h6.806l-.76-1.953-.012-.035a.75.75 0 00-.712-.512h-3.838c-.323 0-.61.206-.724.547L8.597 6zm4.153 7.5V12a.75.75 0 00-1.5 0v1.5a.75.75 0 001.5 0z" id="briefcase-Shape" fill-rule="nonzero"/></g></symbol><symbol viewBox="0 0 24 24" id="bubble-g"><path d="M3.767 19.2A2.267 2.267 0 011.5 16.933V4.267A2.267 2.267 0 013.767 2h16.466A2.267 2.267 0 0122.5 4.267v12.666a2.267 2.267 0 01-2.267 2.267H11.7l-4.8 3.6a1 1 0 01-1.6-.8v-2.8H3.767zm7-1.8a1 1 0 01.6-.2h8.866c.148 0 .267-.12.267-.267V4.267A.267.267 0 0020.233 4H3.767a.267.267 0 00-.267.267v12.666c0 .148.12.267.267.267H6.3a1 1 0 011 1V20l3.467-2.6zM7 10.625a1.125 1.125 0 112.25 0 1.125 1.125 0 01-2.25 0zm4 0a1.125 1.125 0 112.25 0 1.125 1.125 0 01-2.25 0zm4 0a1.125 1.125 0 112.25 0 1.125 1.125 0 01-2.25 0z"/></symbol><symbol viewBox="0 0 24 24" id="bubble"><g id="bubble-Icons" stroke-width="1" fill-rule="evenodd"><path d="M6.7 22.85a.75.75 0 01-1.2-.6V18.5H2.25A2.25 2.25 0 010 16.25V3.75A2.25 2.25 0 012.25 1.5h19.5A2.25 2.25 0 0124 3.75v12.5a2.25 2.25 0 01-2.25 2.25H12.5l-5.8 4.35zm5.1-5.7a.75.75 0 01.45-.15h9.5a.75.75 0 00.75-.75V3.75a.75.75 0 00-.75-.75H2.25a.75.75 0 00-.75.75v12.5c0 .414.336.75.75.75h4a.75.75 0 01.75.75v3l4.8-3.6zM6 8.5A.75.75 0 016 7h12a.75.75 0 110 1.5H6zm0 4A.75.75 0 116 11h6a.75.75 0 110 1.5H6z" id="bubble-Shape" fill-rule="nonzero"/></g></symbol><symbol viewBox="0 0 25 24" id="bubbles"><g id="bubbles-Icons" stroke-width="1" fill-rule="evenodd"><path d="M16.44 19.5h-4.19A2.25 2.25 0 0110 17.25v-7.5a2.25 2.25 0 012.25-2.25h10.5A2.25 2.25 0 0125 9.75v7.5a2.25 2.25 0 01-2.25 2.25H22v3.75a.75.75 0 01-1.28.53l-4.28-4.28zm4.06-.75a.75.75 0 01.75-.75h1.5a.75.75 0 00.75-.75v-7.5a.75.75 0 00-.75-.75h-10.5a.75.75 0 00-.75.75v7.5c0 .414.336.75.75.75h4.5a.75.75 0 01.53.22l3.22 3.22v-2.69zm-15-7.5v2.69l1.72-1.72a.75.75 0 011.06 1.06l-3 3A.75.75 0 014 15.75V12h-.75A2.25 2.25 0 011 9.75v-7.5A2.25 2.25 0 013.25 0h10.5A2.25 2.25 0 0116 2.25v3a.75.75 0 11-1.5 0v-3a.75.75 0 00-.75-.75H3.25a.75.75 0 00-.75.75v7.5c0 .414.336.75.75.75h1.5a.75.75 0 01.75.75z" id="bubbles-Combined-Shape" fill-rule="nonzero"/></g></symbol><symbol viewBox="0 0 24 24" id="business-big"><g id="business-big-Icons" stroke-width="1" fill-rule="evenodd"><path d="M1 22.5V10.75C1 9.784 1.784 9 2.75 9h7c.966 0 1.75.784 1.75 1.75V22.5h1V1.75c0-.966.784-1.75 1.75-1.75h7C22.216 0 23 .784 23 1.75V22.5h.25a.75.75 0 110 1.5H.75a.75.75 0 110-1.5H1zm1.5 0H10v-9H2.5v9zm11.5 0h7.5V1.75a.25.25 0 00-.25-.25h-7a.25.25 0 00-.25.25V22.5zM2.5 12H10v-1.25a.25.25 0 00-.25-.25h-7a.25.25 0 00-.25.25V12zm13-8.25a.75.75 0 111.5 0v.75a.75.75 0 11-1.5 0v-.75zm3 0a.75.75 0 111.5 0v.75a.75.75 0 11-1.5 0v-.75zm-3 3.75a.75.75 0 111.5 0v.75a.75.75 0 11-1.5 0V7.5zm3 0a.75.75 0 111.5 0v.75a.75.75 0 11-1.5 0V7.5zm-3 3.75a.75.75 0 111.5 0V12a.75.75 0 11-1.5 0v-.75zm3 0a.75.75 0 111.5 0V12a.75.75 0 11-1.5 0v-.75zm-3 3.75a.75.75 0 111.5 0v.75a.75.75 0 11-1.5 0V15zm3 0a.75.75 0 111.5 0v.75a.75.75 0 11-1.5 0V15zm-3 3.75a.75.75 0 111.5 0v.75a.75.75 0 11-1.5 0v-.75zm3 0a.75.75 0 111.5 0v.75a.75.75 0 11-1.5 0v-.75zm-14.5-3a.75.75 0 111.5 0v.75a.75.75 0 11-1.5 0v-.75zm3 0a.75.75 0 111.5 0v.75a.75.75 0 11-1.5 0v-.75zM4 19.5a.75.75 0 111.5 0v.75a.75.75 0 11-1.5 0v-.75zm3 0a.75.75 0 111.5 0v.75a.75.75 0 11-1.5 0v-.75z" id="business-big-Shape" fill-rule="nonzero"/></g></symbol><symbol viewBox="0 0 24 24" id="business-g"><g id="business-g-Icons" stroke-width="1" fill-rule="evenodd"><path d="M13 9V3c0-1.1.9-2 2-2h6c1.1 0 2 .9 2 2v18c0 1.1-.9 2-2 2H3c-1.1 0-2-.9-2-2V11c0-1.1.9-2 2-2h10zm6 12h2v-2h-2v2zm0-4h2v-2h-2v2zm0-4h2v-2h-2v2zm0-4h2V7h-2v2zm-4 12h2v-2h-2v2zm0-4h2v-2h-2v2zm0-4h2v-2h-2v2zm0-4h2V7h-2v2zM4 21h9V11H4c-.55 0-1 .45-1 1v8c0 .55.45 1 1 1zm1-8h2v2H5v-2zm0 4h2v2H5v-2zM15 3v2h2V3h-2zm4 0v2h2V3h-2zM9 13h2v2H9v-2zm0 4h2v2H9v-2z" id="business-g-Shape"/></g></symbol><symbol viewBox="0 0 24 24" id="business"><g id="business-Icons" stroke-width="1" fill-rule="evenodd"><path d="M17.625 15.75a1.125 1.125 0 11-2.25 0 1.125 1.125 0 012.25 0zm0-4.5a1.125 1.125 0 11-2.25 0 1.125 1.125 0 012.25 0zm0-4.5a1.125 1.125 0 11-2.25 0 1.125 1.125 0 012.25 0zm-4.5 9a1.125 1.125 0 11-2.25 0 1.125 1.125 0 012.25 0zm0-4.5a1.125 1.125 0 11-2.25 0 1.125 1.125 0 012.25 0zm0-4.5a1.125 1.125 0 11-2.25 0 1.125 1.125 0 012.25 0zm-4.5 9a1.125 1.125 0 11-2.25 0 1.125 1.125 0 012.25 0zm0-4.5a1.125 1.125 0 11-2.25 0 1.125 1.125 0 012.25 0zm0-4.5a1.125 1.125 0 11-2.25 0 1.125 1.125 0 012.25 0zM9 22.5V21a3 3 0 116 0v1.5h4.5v-18h-15v18H9zm12 0h2.25a.75.75 0 110 1.5H.75a.75.75 0 110-1.5H3V3.787a.738.738 0 01.086-.386L4.579.415A.75.75 0 015.25 0h13.5a.75.75 0 01.67.415L20.915 3.4a.746.746 0 01.086.386V22.5zM19.036 3l-.75-1.5H5.714L4.964 3h14.072zM13.5 22.5V21a1.5 1.5 0 10-3 0v1.5h3z" id="business-Shape" fill-rule="nonzero"/></g></symbol><symbol viewBox="0 0 24 24" id="certificate"><g id="certificate-Icons" stroke-width="1" fill-rule="evenodd"><path d="M12.438 19.185c-.797 0-1.5-.388-1.972-.993-1.198 1.33-3.165 1.323-4.354-.021-1.149-1.298-1.15-3.37-.001-4.668a.75.75 0 111.124.994c-.647.73-.647 1.949 0 2.68.599.677 1.527.676 2.126 0a2.03 2.03 0 00.485-1.34c0-1 1.5-1 1.5 0v.515c0 .755.51 1.333 1.092 1.333.582 0 1.093-.578 1.093-1.333 0-1 1.5-1 1.5 0 0 .755.51 1.333 1.092 1.333H17.5a.75.75 0 010 1.5h-1.377a2.473 2.473 0 01-1.842-.838 2.473 2.473 0 01-1.843.838zM6 6.833a.75.75 0 110-1.5h2a.75.75 0 010 1.5H6zm0 3.5a.75.75 0 110-1.5h5.5a.75.75 0 110 1.5H6zm9.25-7.772V6.75c0 .414.336.75.75.75h4.19l-4.94-4.94zm6 6.439H16a2.25 2.25 0 01-2.25-2.25V1.5H3.5a.75.75 0 00-.75.75v19.5c0 .414.336.75.75.75h17a.75.75 0 00.75-.75V9zm-20-6.75A2.25 2.25 0 013.5 0h10.38a2.25 2.25 0 011.59.659l6.622 6.622c.421.422.658.994.658 1.59V21.75A2.25 2.25 0 0120.5 24h-17a2.25 2.25 0 01-2.25-2.25V2.25z" id="certificate-Shape" fill-rule="nonzero"/></g></symbol><symbol viewBox="0 0 25 25" id="chair-g"><path d="M14.575 20.185l3.353 2.075a1 1 0 01-1.053 1.7l-4.2-2.6-4.199 2.6a1 1 0 01-1.053-1.7l3.353-2.075-1.32-.817H5.628a1.99 1.99 0 01-1.825-1.24 2.009 2.009 0 01.264-1.979l-1.923-4.785A2 2 0 014 8.618h1.676V4.815c0-1.571 1.219-2.925 2.833-2.925h8.333c1.615 0 2.834 1.354 2.834 2.925v3.803h1.676a2 2 0 011.855 2.746l-1.938 4.823c.406.557.502 1.29.237 1.936a1.995 1.995 0 01-1.838 1.245h-3.773l-1.32.817zm5.17-5.57l1.607-3.997h-1.676v3.94a1 1 0 01.07.056zm-2.07-9.8c0-.511-.372-.925-.833-.925H8.51c-.46 0-.833.414-.833.925v9.346a42.632 42.632 0 0110 .004v-9.35zm-12 9.716v-3.913H4l1.595 3.971a1 1 0 01.08-.058zm13.976 2.831l-1.04-1.055a40.775 40.775 0 00-5.955-.439c-1.985 0-3.97.146-5.956.44L5.658 17.36c-.002.003-.004.005-.004.008h14l-.003-.006zm-7.639-6.136a.9.9 0 11-1.273-1.273.9.9 0 011.273 1.273zm2.6 0a.9.9 0 11-1.273-1.273.9.9 0 011.273 1.273zm0-3.1a.9.9 0 11-1.273-1.273.9.9 0 011.273 1.273zm-2.6 0a.9.9 0 11-1.273-1.273.9.9 0 011.273 1.273z"/></symbol><symbol viewBox="0 0 25 25" id="chair"><g id="chair-Icons" stroke-width="1" fill-rule="evenodd"><path d="M17.601 18.464l-4.127 2.538 4.217 2.61a.75.75 0 11-.79 1.276l-4.856-3.007-4.891 3.008a.75.75 0 01-.786-1.278l4.25-2.613-4.093-2.534H5.118a1.729 1.729 0 01-1.587-1.087 1.765 1.765 0 01-.076-1.09l-1.267-5.42a1.75 1.75 0 011.705-2.149h1.419V2.745c0-.967.784-1.75 1.75-1.75h10c.967 0 1.75.783 1.75 1.75v5.973h1.387a1.75 1.75 0 011.68 2.24l-1.412 4.849c.28.468.333 1.049.124 1.566a1.733 1.733 0 01-1.597 1.091h-1.393zm-2.863 0H9.375l2.672 1.655 2.69-1.655zM4.633 14.736l.534-.546a.75.75 0 01.145-.116v-3.856h-1.42a.25.25 0 00-.243.307l.984 4.21zm14.647-.216l1.16-3.982a.25.25 0 00-.24-.32h-1.388v3.856a.75.75 0 01.146.116l.322.33zm-1.968-.721V2.745a.25.25 0 00-.25-.25h-10a.25.25 0 00-.25.25v11.054a41.474 41.474 0 0110.5 0zm1.832 2.73l-1.085-1.112a40.09 40.09 0 00-5.997-.453 40.09 40.09 0 00-5.998.453l-1.087 1.111a.27.27 0 00-.054.291.228.228 0 00.203.145h13.86a.232.232 0 00.213-.149.267.267 0 00-.055-.285z" id="chair-Shape" fill-rule="nonzero"/><path d="M12.046 6.165a.75.75 0 110-1.5.75.75 0 010 1.5zm-2.5 0a.75.75 0 110-1.5.75.75 0 010 1.5zm5 0a.75.75 0 110-1.5.75.75 0 010 1.5zm-2.5 2.504a.75.75 0 110-1.5.75.75 0 010 1.5zm0 2.5a.75.75 0 110-1.5.75.75 0 010 1.5zm2.5 0a.75.75 0 110-1.5.75.75 0 010 1.5zm-5 0a.75.75 0 110-1.5.75.75 0 010 1.5zm5-2.5a.75.75 0 110-1.5.75.75 0 010 1.5zm-5 0a.75.75 0 110-1.5.75.75 0 010 1.5z" id="chair-Shape"/></g></symbol><symbol viewBox="0 0 24 25" id="check-g"><path d="M18.705 8.19a1 1 0 00-1.42 0l-7.45 7.46-3.13-3.14a1.022 1.022 0 00-1.42 1.47l3.84 3.84a1 1 0 001.42 0l8.16-8.16a1 1 0 000-1.47z"/></symbol><symbol viewBox="0 0 24 24" id="check"><g id="check-Icons" stroke-width="1" fill-rule="evenodd"><path d="M6.886 11.325l4.536 4.037 10.48-13.318a.75.75 0 011.196.906l-11 14.003a.75.75 0 01-1.128.077l-5.145-4.644a.75.75 0 011.06-1.061zm9.953-7.352a.75.75 0 01-.816 1.258 9.256 9.256 0 00-1.105-.613A9.211 9.211 0 0011 3.75a9.25 9.25 0 108.939 6.862.75.75 0 111.45-.387A10.69 10.69 0 0121.75 13c0 5.937-4.813 10.75-10.75 10.75S.25 18.937.25 13 5.063 2.25 11 2.25a10.711 10.711 0 015.84 1.723z" id="check-Shape" fill-rule="nonzero"/></g></symbol><symbol viewBox="0 0 24 24" id="clock-g"><path fill-rule="evenodd" d="M11.99 2C17.52 2 22 6.48 22 12s-4.48 10-10.01 10C6.47 22 2 17.52 2 12S6.47 2 11.99 2zM12 20c4.42 0 8-3.58 8-8s-3.58-8-8-8-8 3.58-8 8 3.58 8 8 8zm3.6-6.37h-.02a1 1 0 01-.5 1.87 1 1 0 01-.5-.13l-3.1-2-.09-.09-.16-.13a.86.86 0 01-.1-.16.89.89 0 01-.08-.17.65.65 0 01-.05-.2V7.5a1 1 0 112 0v4.42l2.6 1.71z"/></symbol><symbol viewBox="0 0 24 24" id="clock"><path d="M3.794 4.78a.75.75 0 110-1.5h4.5a.75.75 0 010 1.5h-4.5zm0 2.44a.75.75 0 110-1.5h1.5a.75.75 0 010 1.5h-1.5zM2.71 14.913a.75.75 0 010 1.5h-.812A1.897 1.897 0 010 14.515V1.897C0 .85.85 0 1.897 0h8.128c.503 0 .985.2 1.398.62l1.466 1.85a.75.75 0 11-1.175.93l-1.408-1.784a.397.397 0 00-.28-.116H1.896a.397.397 0 00-.397.397v12.618c0 .219.178.397.397.397h.812zm4.647-7.556c3.807-3.808 9.98-3.808 13.788 0 3.808 3.807 3.808 9.98 0 13.788-3.807 3.808-9.98 3.808-13.788 0-3.808-3.807-3.808-9.98 0-13.788zm12.728 12.728A8.25 8.25 0 108.416 8.416a8.25 8.25 0 0011.668 11.668zM13.72 14.78a.748.748 0 01-.22-.53v-3.036a.75.75 0 011.5 0v2.725l3.317 3.318a.75.75 0 01-1.06 1.06L13.72 14.78zm.53-6.28a.75.75 0 110-1.5.75.75 0 010 1.5zm6.5 6.5a.75.75 0 110-1.5.75.75 0 010 1.5zm-13 0a.75.75 0 110-1.5.75.75 0 010 1.5zm6.5 6.5a.75.75 0 110-1.5.75.75 0 010 1.5z"/></symbol><symbol viewBox="0 0 24 24" id="coaching"><g fill-rule="nonzero"><path d="M14.657.75a.75.75 0 111.5 0v.6a.75.75 0 01-1.5 0v-.6zm-3.68 1.654a.75.75 0 011.058-1.064l.71.704a.75.75 0 01-1.057 1.065l-.71-.705zM18.78 1.34a.75.75 0 111.057 1.064l-.71.705a.75.75 0 01-1.056-1.065l.71-.704zM13.864 8.7v-.69a3 3 0 113.3 0v.69a.75.75 0 01-.75.75h-1.8a.75.75 0 01-.75-.75zm1.5-.75h.3v-.384a.75.75 0 01.45-.687 1.5 1.5 0 10-1.2 0c.273.12.45.39.45.687v.384zm-.714 3.4a.75.75 0 110-1.5h1.75a.75.75 0 110 1.5h-1.75zm-1.5 1.483v1.59l2.12-2.12a.75.75 0 01.53-.22h4.4a.55.55 0 00.55-.55V6.55A.55.55 0 0020.2 6a.75.75 0 110-1.5 2.05 2.05 0 012.05 2.05v4.983a2.05 2.05 0 01-2.05 2.05h-4.09l-3.18 3.18a.75.75 0 01-1.28-.53v-2.65H10.3a2.05 2.05 0 01-2.05-2.05V6.55A2.05 2.05 0 0110.3 4.5a.75.75 0 110 1.5.55.55 0 00-.55.55v4.983c0 .304.246.55.55.55h2.1a.75.75 0 01.75.75z"/><path d="M20.092 19.45a5.678 5.678 0 013.687 3.559.745.745 0 01-1.407.49 4.195 4.195 0 00-7.923 0 .745.745 0 11-1.407-.49 5.686 5.686 0 013.688-3.56 3.642 3.642 0 01-.896-.658 3.63 3.63 0 01-1.032-2.068.745.745 0 011.477-.207 2.153 2.153 0 104.162-1.022.745.745 0 011.405-.497 3.644 3.644 0 01-1.754 4.452zm-16.34-.028a3.667 3.667 0 113.382 0c1.675.518 3.09 1.798 3.712 3.581a.75.75 0 11-1.416.494 4.221 4.221 0 00-7.972 0 .75.75 0 11-1.416-.494 5.721 5.721 0 013.71-3.581zm3.222-4.787a2.167 2.167 0 10-3.064 3.064 2.167 2.167 0 003.064-3.064z"/></g></symbol><symbol viewBox="0 0 25 24" id="cross-g"><path fill-rule="evenodd" d="M12.5 22c-5.523 0-10-4.477-10-10s4.477-10 10-10 10 4.477 10 10-4.477 10-10 10zm0-11.374L9.908 8.035a.971.971 0 10-1.373 1.373L11.126 12l-2.591 2.592a.971.971 0 001.373 1.373l2.592-2.591 2.592 2.591a.971.971 0 001.373-1.373L13.874 12l2.591-2.592a.971.971 0 00-1.373-1.373L12.5 10.626z"/></symbol><symbol viewBox="0 0 24 24" id="crossroad-g"><path d="M4.5 10a1 1 0 001 1H9v10H7a1 1 0 100 2h6a1 1 0 100-2h-2V11h5.5a1 1 0 00.78-.37l2.5-2.5a1 1 0 000-1.25l-2.5-2.5A1 1 0 0016.5 4H11V2a1 1 0 10-2 0v2H5.5a1 1 0 00-1 1v5zm2-4h9.52l1.7 1.5-1.7 1.5H6.5V6z"/></symbol><symbol viewBox="0 0 25 25" id="crossroad"><path d="M11.19 10V9H4.439a.75.75 0 01-.75-.75v-6a.75.75 0 01.75-.75h6.75V.75a.75.75 0 111.5 0v.75h8.25a.75.75 0 01.53.22l2.47 2.468a1.5 1.5 0 010 2.122l-2.47 2.47a.75.75 0 01-.53.22h-8.25v1h8.25a.75.75 0 01.75.75v6a.75.75 0 01-.75.75h-8.25v5.75a.75.75 0 01-1.5 0V17.5H4.44a.75.75 0 01-.53-.22l-2.47-2.47a1.5 1.5 0 010-2.12l2.47-2.47a.75.75 0 01.53-.22h6.75zm11.689-4.75L20.629 3H5.188v4.5h15.44l2.25-2.25zM2.5 13.75L4.75 16h15.439v-4.5H4.749L2.5 13.75z"/></symbol><symbol viewBox="0 0 24 24" id="deadline-g"><path d="M4.5 5v-.571a1 1 0 01.684-.949l1.935-.645a6.526 6.526 0 015.686.762 4.526 4.526 0 003.944.528l1.935-.645A1 1 0 0120 4.43v11a1 1 0 01-.684.949l-1.935.645a6.526 6.526 0 01-5.686-.762 4.526 4.526 0 00-3.944-.528L6.5 16.15V21a1 1 0 11-2 0V5zm2 .15v8.892l.619-.207a6.526 6.526 0 015.686.762 4.526 4.526 0 003.944.528L18 14.708V5.816l-.619.207a6.526 6.526 0 01-5.686-.762 4.526 4.526 0 00-3.944-.528L6.5 5.15zm5.75 6.35a1.5 1.5 0 110-3 1.5 1.5 0 010 3z"/></symbol><symbol viewBox="0 0 24 24" id="deadline"><path fill-rule="evenodd" d="M13.25 14.75a1.125 1.125 0 11-2.25 0 1.125 1.125 0 012.25 0zm-.375-3.5a.75.75 0 11-1.5 0v-4.5a.75.75 0 011.5 0v4.5zM0 19.31V2.162.75a.75.75 0 011.5 0v.38L3.684.46a10.36 10.36 0 018.477 1.077 8.865 8.865 0 007.08.974l2.37-.677a1.876 1.876 0 012.39 1.803v14.807c-.001.837-.556 1.573-1.36 1.803l-2.988.853c-2.797.799-5.8.386-8.278-1.138a8.86 8.86 0 00-7.25-.922l-2.625.807v3.403a.75.75 0 11-1.5 0v-3.94zM1.5 2.7v15.578l2.184-.672a10.36 10.36 0 018.477 1.078 8.865 8.865 0 007.08.974l2.987-.853a.376.376 0 00.272-.361V3.638a.376.376 0 00-.478-.362l-2.369.677c-2.797.799-5.8.386-8.278-1.138a8.86 8.86 0 00-7.25-.922L1.5 2.699z"/></symbol><symbol viewBox="0 0 24 24" id="doc-handing"><path d="M19.5 12.975v3.645a.75.75 0 01-1.286.524l-1.751-1.79a.468.468 0 00-.673.65l2.755 2.809a.75.75 0 01.215.525v1.396c.137.749.426 1.462.85 2.094a.75.75 0 11-1.245.836 7.043 7.043 0 01-1.094-2.737l-.011-.127v-1.156l-2.542-2.59a1.968 1.968 0 012.818-2.748l.464.474v-3.471V5.25a.75.75 0 00-.75-.75h-7.5a.75.75 0 010-1.5h7.5a2.25 2.25 0 012.25 2.25v5.707c2.17 1.862 3.036 2.978 3 4.467v4.205l1.338 1.687a.75.75 0 11-1.176.932l-1.5-1.892A.75.75 0 0121 19.89v-4.484c.017-.692-.42-1.397-1.5-2.431zM5.25 11.709V8.451l-.556-.57a.75.75 0 011.074-1.047l.702.72c.047.037.09.08.126.128l.941.965a.468.468 0 00.672-.652L5.46 5.188a.75.75 0 01-.215-.525V3.265a5.536 5.536 0 00-.85-2.097.75.75 0 011.245-.836 7.036 7.036 0 011.094 2.742l.011.126v1.157l2.538 2.59a1.968 1.968 0 01-2.532 2.99V20.25c0 .414.336.75.75.75h6.75a.75.75 0 010 1.5H7.5a2.25 2.25 0 01-2.25-2.25v-6.573l-.059-.05a94.39 94.39 0 01-.697-.589c-2.113-1.808-3.03-2.98-2.994-4.462V4.37L.162 2.683a.75.75 0 111.176-.932l1.5 1.892A.75.75 0 013 4.11v4.485c-.02.83.646 1.717 2.25 3.115zM12.48 17a.75.75 0 110 1.5H9A.75.75 0 119 17h3.48zm-1.98-3.25a.75.75 0 110 1.5H9a.75.75 0 110-1.5h1.5z"/></symbol><symbol viewBox="0 0 24 24" id="document-g"><path d="M9 14a1 1 0 010-2h2a1 1 0 110 2H9zm0 3.5a1 1 0 010-2h6a1 1 0 110 2H9zm10.94-8.83c.03.088.05.178.06.27V19a3 3 0 01-3 3H7a3 3 0 01-3-3V5a3 3 0 013-3h6.06c.143 0 .264.02.364.06.103.047.243.162.326.24l6 6c.078.083.142.177.19.28v.09zM14 5.41V7a1 1 0 001 1h1.59L14 5.41zM18 19v-9h-3a3 3 0 01-3-3V4H7a1 1 0 00-1 1v14a1 1 0 001 1h10a1 1 0 001-1z"/></symbol><symbol viewBox="0 0 24 24" id="download-g"><path d="M11.29 15.71a1 1 0 00.33.21 1 1 0 00.76 0 1 1 0 00.33-.21l3-3a1.004 1.004 0 00-1.42-1.42L13 12.59V9a1 1 0 10-2 0v3.59l-1.29-1.3a1 1 0 00-1.42 0 1 1 0 000 1.42l3 3zM12 22c5.523 0 10-4.477 10-10S17.523 2 12 2 2 6.477 2 12s4.477 10 10 10zm0-18a8 8 0 11-8 8 8 8 0 018-8z"/></symbol><symbol viewBox="0 0 24 24" id="download"><g id="download-Icons" stroke-width="1" fill-rule="evenodd"><path d="M11.25 16.19V6.75a.75.75 0 111.5 0v9.44l2.47-2.47a.75.75 0 011.06 1.06l-3.75 3.75a.75.75 0 01-1.06 0l-3.75-3.75a.75.75 0 011.06-1.06l2.47 2.47zM3.515 3.514c4.686-4.687 12.284-4.687 16.97 0 4.687 4.686 4.687 12.284 0 16.97-4.686 4.687-12.284 4.687-16.97 0-4.687-4.686-4.687-12.284 0-16.97zm15.91 15.91c4.1-4.1 4.1-10.75 0-14.85s-10.75-4.1-14.85 0-4.1 10.75 0 14.85 10.75 4.1 14.85 0z" id="download-Shape" fill-rule="nonzero"/></g></symbol><symbol viewBox="0 0 25 24" id="dropbox"><g id="dropbox-Icons" stroke-width="1" fill-rule="evenodd"><path d="M15.25 6a.75.75 0 01.75-.75h3.628a2 2 0 011.934 1.49l2.351 10.006c.056.157.087.327.087.504v4.5a1.5 1.5 0 01-1.5 1.5h-21a1.5 1.5 0 01-1.5-1.5v-4.5c0-.163.026-.32.074-.467L2.466 6.74A2 2 0 014.399 5.25H8a.75.75 0 110 1.5H4.4a.5.5 0 00-.484.373L1.96 15.75H9a.75.75 0 01.75.75 2.25 2.25 0 004.5 0 .75.75 0 01.75-.75h7.052l-1.94-8.628a.5.5 0 00-.484-.372H16a.75.75 0 01-.75-.75zm7.25 11.25h-6.825a3.751 3.751 0 01-7.35 0H1.5v4.5h21v-4.5zm-11.25-5.81V1.5a.75.75 0 011.5 0v9.94l1.97-1.97a.75.75 0 011.06 1.06l-3.25 3.25a.75.75 0 01-1.06 0l-3.25-3.25a.75.75 0 111.06-1.06l1.97 1.97z" id="dropbox-Shape" fill-rule="nonzero"/></g></symbol><symbol viewBox="0 0 24 24" id="edit-g"><path d="M22 7.24a1 1 0 00-.29-.71l-4.24-4.24a1 1 0 00-.71-.29 1 1 0 00-.71.29l-2.83 2.83L2.29 16.05a1 1 0 00-.29.71V21a1 1 0 001 1h4.24a1 1 0 00.76-.29l10.87-10.93L21.71 8a1.19 1.19 0 00.22-.33 1 1 0 000-.24.7.7 0 000-.14l.07-.05zM6.83 20H4v-2.83l9.93-9.93 2.83 2.83L6.83 20zM18.17 8.66l-2.83-2.83 1.42-1.41 2.82 2.82-1.41 1.42z"/></symbol><symbol viewBox="0 0 25 24" id="exit-g"><path d="M18.289 10.179a1.005 1.005 0 011.421-1.422l2.503 2.503c.091.095.163.207.21.33.1.244.1.517 0 .76-.047.124-.119.236-.21.331l-2.508 2.509a1.001 1.001 0 01-1.416-.006l-.006-.006a1.001 1.001 0 01.006-1.416l.8-.79h-4.594a1.001 1.001 0 110-2.003h4.595l-.801-.79zm-1.351 7.798a8.469 8.469 0 110-12.013 1.02 1.02 0 11-1.444 1.44 6.457 6.457 0 10.002 9.131 1.02 1.02 0 011.442 1.442z"/></symbol><symbol viewBox="0 0 25 24" id="eyeglasses-empty-g"><path d="M8.699 7.457c.046-.062.1-.12.163-.172 2.07-1.713 5.206-1.713 7.276 0 .062.052.117.11.163.172a5.502 5.502 0 016.088 8.932 5.5 5.5 0 01-7.793-7.763c-1.236-.835-2.956-.835-4.192 0A5.5 5.5 0 118.7 7.457zm12.276 7.518a3.5 3.5 0 10-4.95-4.95 3.5 3.5 0 004.95 4.95zm-12 0a3.5 3.5 0 10-4.95-4.95 3.5 3.5 0 004.95 4.95z"/></symbol><symbol viewBox="0 0 25 24" id="eyeglasses-g"><path d="M4 14.95l.025.025a3.5 3.5 0 10-.024-4.925 2.5 2.5 0 110 4.9zm12 0l.025.025a3.5 3.5 0 10-.024-4.925 2.5 2.5 0 110 4.9zM8.7 7.457c.046-.062.1-.12.163-.172 2.07-1.713 5.206-1.713 7.276 0 .062.052.117.11.163.172a5.502 5.502 0 016.088 8.932 5.5 5.5 0 01-7.793-7.763c-1.236-.835-2.956-.835-4.192 0A5.5 5.5 0 118.7 7.457z"/></symbol><symbol viewBox="0 0 24 24" id="gear-g"><g id="gear-g-Icons" stroke-width="1" fill-rule="evenodd"><path d="M9.703 9.583a3.252 3.252 0 014.598 0 3.25 3.25 0 010 4.596 3.252 3.252 0 01-4.598 0 3.25 3.25 0 010-4.596zm3.183 3.182a1.25 1.25 0 10-1.767-1.768 1.25 1.25 0 001.767 1.768zm2.65-7.693a.49.49 0 00.576.337l2.217-.514a3.01 3.01 0 012.865 4.984l-1.547 1.667a.5.5 0 00.001.682l1.548 1.67a3.008 3.008 0 01-2.876 4.972l-2.21-.511a.489.489 0 00-.577.337l-.66 2.175a2.998 2.998 0 01-5.74.003l-.664-2.181a.49.49 0 00-.578-.336l-2.211.512a3.008 3.008 0 01-2.873-4.98l1.546-1.668a.5.5 0 000-.682L2.807 9.874a3.008 3.008 0 012.87-4.984l2.201.511a.5.5 0 00.586-.336l.662-2.175a2.998 2.998 0 015.746.005l.663 2.177zm-2.578-1.599l-.002-.008a.997.997 0 00-1.913.002l-.665 2.184a2.503 2.503 0 01-2.944 1.7L5.232 6.84a1.01 1.01 0 00-.958 1.673l1.544 1.665c.893.96.893 2.446.001 3.404l-1.547 1.669a1.007 1.007 0 00.959 1.67l2.21-.513a2.49 2.49 0 012.943 1.705l.664 2.181a.997.997 0 001.91-.002l.66-2.174a2.49 2.49 0 012.943-1.708l2.202.51a1.01 1.01 0 00.964-1.665l-1.545-1.666a2.499 2.499 0 010-3.404l1.546-1.668a1.008 1.008 0 00-.953-1.673l-2.214.514a2.492 2.492 0 01-2.94-1.705l-.663-2.18z" id="gear-g-Shape" fill-rule="nonzero"/></g></symbol><symbol viewBox="0 0 24 24" id="gender-g"><g id="gender-g-Icons" stroke-width="1" fill-rule="evenodd"><path d="M7.005 19v-1.405A6 6 0 014.59 6.74a1 1 0 011.136 1.645 4 4 0 104.944.312 1 1 0 111.333-1.491 6 6 0 01-2.998 10.385V19H10.5a1 1 0 010 2H9.005v2a1 1 0 01-2 0v-2H5.5a1 1 0 010-2h1.505zm12.5-15.586l-1.522 1.522a6 6 0 01-.903 8.063 1 1 0 11-1.314-1.508 4 4 0 10-5.742-.505 1 1 0 01-1.558 1.255 6 6 0 018.085-8.702L18.091 2h-1.336a1 1 0 110-2h3.75a1 1 0 011 1v3.75a1 1 0 01-2 0V3.414z" id="gender-g-Shape" fill-rule="nonzero"/></g></symbol><symbol viewBox="0 0 25 25" id="globe-g"><g id="globe-g-Icons" stroke-width="1" fill-rule="evenodd"><path d="M17.616 15.43h4.645c.395-1.59.395-3.259 0-4.848h-4.645a31.057 31.057 0 010 4.847zm-2.007 0a28.94 28.94 0 000-4.848H9.495a28.94 28.94 0 000 4.847h6.114zm.449-11.798c.598 1.4 1.052 3.09 1.33 4.95h4.141a9.993 9.993 0 00-1.902-2.651 9.969 9.969 0 00-3.57-2.3zm-2.552-.587c-.635-.06-1.273-.06-1.907 0-.837 1.304-1.488 3.252-1.86 5.537h5.625c-.37-2.285-1.022-4.233-1.858-5.537zm2.552 19.334a9.969 9.969 0 003.569-2.299 9.993 9.993 0 001.902-2.65h-4.14c-.28 1.858-.733 3.549-1.331 4.95zm-2.552.587c.836-1.304 1.487-3.252 1.858-5.537H9.74c.37 2.285 1.022 4.233 1.859 5.537.634.06 1.272.06 1.907 0zM2.846 10.57c-.4 1.597-.4 3.274 0 4.871.05-.008.102-.012.154-.012h4.488a31.057 31.057 0 010-4.847H3c-.052 0-.104-.004-.154-.012zm.729-1.988h4.14c.28-1.86.733-3.55 1.331-4.95A9.969 9.969 0 005.477 5.93a9.993 9.993 0 00-1.902 2.65zm0 8.847a9.993 9.993 0 001.902 2.651 9.969 9.969 0 003.57 2.3c-.599-1.401-1.053-3.092-1.332-4.95h-4.14zm.488-12.913c4.688-4.688 12.29-4.688 16.978 0 4.689 4.689 4.689 12.29 0 16.979-4.688 4.688-12.29 4.688-16.978 0-4.688-4.689-4.688-12.29 0-16.979z" id="globe-g-Shape" fill-rule="nonzero"/></g></symbol><symbol viewBox="0 0 25 25" id="globe"><g id="globe-Icons" stroke-width="1" fill-rule="evenodd"><path d="M15.61 24.656a12.061 12.061 0 01-5.783-.016 11.944 11.944 0 01-5.562-3.155 12.042 12.042 0 01-1.685-2.11A11.98 11.98 0 01.75 12.99a11.98 11.98 0 013.515-8.476A11.944 11.944 0 019.89 1.344a12.061 12.061 0 015.782.015 11.944 11.944 0 015.562 3.156 12.042 12.042 0 011.684 2.108 12.017 12.017 0 01-.03 12.8 12.042 12.042 0 01-1.654 2.062 11.944 11.944 0 01-5.626 3.171zM18.74 12.25h4.482a10.475 10.475 0 00-1.377-4.5h-3.548c.254 1.406.406 2.925.443 4.5zm-1.5 0a27.67 27.67 0 00-.469-4.5H8.728a27.67 27.67 0 00-.469 4.5h8.982zm-.207-8.84c.37.846.687 1.801.945 2.84h2.815a10.475 10.475 0 00-3.76-2.84zm-2.035-.668a10.556 10.556 0 00-4.498 0c-.573.916-1.059 2.115-1.431 3.508h7.36c-.372-1.393-.858-2.592-1.431-3.508zM18.74 13.75a29.358 29.358 0 01-.443 4.5h3.548a10.475 10.475 0 001.377-4.5h-4.482zm-1.5 0H8.259c.04 1.59.202 3.113.469 4.5h8.044c.267-1.387.43-2.91.469-4.5zm-.207 8.84a10.475 10.475 0 003.76-2.84h-2.815a17.776 17.776 0 01-.945 2.84zm-2.035.668c.573-.916 1.059-2.115 1.431-3.508H9.07c.372 1.393.858 2.592 1.431 3.508 1.48.323 3.017.323 4.498 0zM3.654 7.75a10.475 10.475 0 00-1.377 4.5h4.482c.037-1.575.19-3.094.443-4.5H3.654zm1.052-1.5h2.815c.258-1.039.575-1.994.945-2.84a10.475 10.475 0 00-3.76 2.84zm-1.052 12h3.548a29.358 29.358 0 01-.443-4.5H2.277c.11 1.562.57 3.104 1.377 4.5zm1.052 1.5a10.475 10.475 0 003.76 2.84c-.37-.846-.687-1.801-.945-2.84H4.706z" id="globe-Shape" fill-rule="nonzero"/></g></symbol><symbol viewBox="0 0 24 25" id="heart-bold-g"><path d="M12.615 4.896A5.79 5.79 0 0121.888 6.4a5.783 5.783 0 01-1.07 6.669l-8.096 8.446a1 1 0 01-1.444 0l-8.08-8.429a5.79 5.79 0 118.187-8.191l.615.616.615-.615z"/></symbol><symbol viewBox="0 0 25 25" id="heart-check"><path d="M22.776 17.25a.75.75 0 011.5 0 6.75 6.75 0 11-6.75-6.75.75.75 0 110 1.5 5.25 5.25 0 105.25 5.25zm.22-5.03a.75.75 0 111.06 1.06l-5.468 5.47a1.5 1.5 0 01-2.123-.001l-1.717-1.719a.75.75 0 011.062-1.06l1.717 1.719 5.469-5.47zM11.243 1.883l1.036 1.035 1.036-1.035A6.422 6.422 0 0123.579 9.34a.75.75 0 11-1.336-.68 4.928 4.928 0 00-.907-5.719 4.922 4.922 0 00-6.96.002l-1.567 1.565a.75.75 0 01-1.06 0l-1.566-1.565a4.922 4.922 0 10-6.95 6.973l5.81 6.065A.75.75 0 017.96 17.02l-5.8-6.054a6.423 6.423 0 119.083-9.082z"/></symbol><symbol viewBox="0 0 25 25" id="heart-g"><path d="M12.9 4.896A5.79 5.79 0 0122.173 6.4a5.783 5.783 0 01-1.07 6.669l-8.096 8.446a1 1 0 01-1.444 0l-8.081-8.429a5.79 5.79 0 118.187-8.191l.616.616.615-.615zm6.774 6.774a3.79 3.79 0 00-5.36-5.36l-1.322 1.322a1 1 0 01-1.414 0L10.255 6.31a3.79 3.79 0 10-5.345 5.377l7.375 7.691 7.39-7.708z"/></symbol><symbol viewBox="0 0 25 24" id="help-g"><path d="M12.505 7.136a1.935 1.935 0 00-1.934 1.935c0 1.334-2 1.334-2 0a3.935 3.935 0 115.247 3.71.468.468 0 00-.312.441v.985a1 1 0 11-2 0v-.984c0-1.046.659-1.98 1.645-2.328a1.935 1.935 0 00-.646-3.759zM11.14 17.508a1.367 1.367 0 112.734 0 1.367 1.367 0 01-2.734 0zM12.5 24c-6.627 0-12-5.373-12-12s5.373-12 12-12 12 5.373 12 12-5.373 12-12 12zm0-2c5.523 0 10-4.477 10-10s-4.477-10-10-10-10 4.477-10 10 4.477 10 10 10z"/></symbol><symbol viewBox="0 0 24 24" id="help"><g id="help-Icons" stroke-width="1" fill-rule="evenodd"><path d="M12 6.75A2.25 2.25 0 009.75 9c0 1-1.5 1-1.5 0a3.75 3.75 0 115 3.536.75.75 0 00-.5.708v1.006a.75.75 0 01-1.5 0v-1.006c0-.954.601-1.804 1.5-2.122A2.25 2.25 0 0012 6.75zm-1.125 10.875a1.125 1.125 0 112.25 0 1.125 1.125 0 01-2.25 0zM12 24C5.373 24 0 18.627 0 12S5.373 0 12 0s12 5.373 12 12-5.373 12-12 12zm0-1.5c5.799 0 10.5-4.701 10.5-10.5S17.799 1.5 12 1.5 1.5 6.201 1.5 12 6.201 22.5 12 22.5z" id="help-Shape" fill-rule="nonzero"/></g></symbol><symbol viewBox="0 0 24 24" id="holiday-g"><path d="M13.974 17.118L11.238 9.99a2.6 2.6 0 00-.801 1.14 1 1 0 01-1.418.545l-.245-.132a2.08 2.08 0 00-2.996 1.307 1 1 0 01-.61.68 1.001 1.001 0 01-1.301-.582 8.762 8.762 0 0116.358-6.28c.36.91-.664 1.741-1.48 1.204a2.08 2.08 0 00-3.1 1.031l-.095.265a1 1 0 01-1.417.544 2.6 2.6 0 00-.975-.301l3.15 8.172c2.137.587 4.265 1.617 6.38 3.085a1 1 0 01-1.14 1.643C18.354 20.095 15.196 19 12.058 19c-3.137 0-6.295 1.095-9.488 3.311a1 1 0 01-1.14-1.643C4.942 18.23 8.49 17 12.059 17c.639 0 1.277.04 1.915.118zm-4.94-7.63a4.61 4.61 0 015.044-1.936 4.08 4.08 0 013.18-2.009 6.766 6.766 0 00-7.157-2.118c-.128.039-.393-.28-.52-.232-.17.064-.2.495-.362.57a6.767 6.767 0 00-3.9 6.365 4.087 4.087 0 013.714-.64zM7.945 2.4l-.214-.556a1 1 0 011.866-.72l.147.382c2.013.098 4.281 3.029 5.795 6.972a1 1 0 11-1.867.717c-1.345-3.504-3.414-5.932-4.046-5.69-.633.244-.546 3.433.8 6.936a1 1 0 01-1.868.717C7.142 7.468 6.81 3.995 7.946 2.4z"/></symbol><symbol viewBox="0 0 25 24" id="holiday"><g id="holiday-Icons" stroke-width="1" fill-rule="evenodd"><path d="M12.235 18.63c.276-.015.551-.023.827-.023 3.515 0 7.014 1.214 10.487 3.623a.75.75 0 11-.856 1.233c-3.233-2.243-6.44-3.356-9.63-3.356-3.192 0-6.399 1.113-9.632 3.356a.75.75 0 11-.855-1.233c2.695-1.87 5.405-3.02 8.127-3.44l-1.512-4.357-5.643 1.964A1.543 1.543 0 011.5 14.932a8.672 8.672 0 015.122-7.869l-.284-.818a.75.75 0 011.418-.49l.279.806.018.005c3.19-.801 6.7.257 8.89 2.993a1.543 1.543 0 01-.698 2.42l-5.637 1.961 1.627 4.69zM8.028 8.132a7.12 7.12 0 00-.102.032l-.253.383c-.68 1.029-1.008 1.976-1.008 2.847 0 .863.098 1.606.29 2.23l5.074-1.767c-.235-.656-.648-1.354-1.244-2.09-.548-.677-1.4-1.206-2.575-1.578l-.182-.057zm2.877-.289c.402.29.751.616 1.045.98.699.862 1.198 1.707 1.494 2.536l.001.005 2.307-.802a.043.043 0 00.026-.054l-.007-.012a7.15 7.15 0 00-4.866-2.653zM5.497 9.54A7.172 7.172 0 003 14.939a.043.043 0 00.056.041l2.481-.864c-.25-.788-.372-1.695-.372-2.722 0-.61.111-1.228.332-1.855zm17.07-7.66a3 3 0 11-4.242 4.242 3 3 0 014.242-4.242zm-1.06 1.06a1.5 1.5 0 10-2.122 2.122 1.5 1.5 0 002.122-2.122z" id="holiday-Shape" fill-rule="nonzero"/></g></symbol><symbol viewBox="0 0 24 25" id="indemnity-g"><g id="indemnity-g-Icons" stroke-width="1" fill-rule="evenodd"><path d="M6 8.5a1 1 0 110-2h6.5a1 1 0 010 2H6zM6 13a1 1 0 010-2h3a1 1 0 010 2H6zm6 6a1 1 0 010 2H3a2.5 2.5 0 01-2.5-2.5V3A2.5 2.5 0 013 .5h10.63a2.5 2.5 0 011.767.733l2.649 2.8a1 1 0 11-1.416 1.412l-2.648-2.799a.5.5 0 00-.353-.146H3a.5.5 0 00-.5.5v15.5a.5.5 0 00.5.5h9zm11.068-7.056a1 1 0 11-1.592 1.21 2.576 2.576 0 00-2.177-1.004c-1.322 0-2.299.733-2.299 1.475 0 .743.978 1.477 2.3 1.477 2.32 0 4.294 1.482 4.294 3.473 0 1.704-1.449 3.037-3.297 3.385v.74a1 1 0 01-2 0v-.728a4.559 4.559 0 01-2.773-1.716 1 1 0 111.592-1.211 2.58 2.58 0 002.177 1.005c1.322 0 2.3-.733 2.3-1.475 0-.742-.974-1.473-2.294-1.473-2.321 0-4.299-1.485-4.299-3.477 0-1.706 1.449-3.038 3.297-3.385V9.5a1 1 0 012 0v.727a4.554 4.554 0 012.771 1.717z" id="indemnity-g-Shape" fill-rule="nonzero"/></g></symbol><symbol viewBox="0 0 25 25" id="indemnity"><g id="indemnity-Icons" stroke-width="1" fill-rule="evenodd"><path d="M12.998 13.477a6.75 6.75 0 119.546 9.546 6.75 6.75 0 01-9.546-9.546zm8.485 8.485a5.25 5.25 0 10-7.424-7.424 5.25 5.25 0 007.424 7.424zM8.521 20.5a.75.75 0 110 1.5h-5.75a2.25 2.25 0 01-2.25-2.25V3.25A2.25 2.25 0 012.771 1h10.63a2.25 2.25 0 011.59.659l2.872 2.872c.421.422.658.994.658 1.59V9.25a.75.75 0 01-1.5 0V6.121a.75.75 0 00-.22-.53L13.93 2.72a.75.75 0 00-.53-.219H2.771a.75.75 0 00-.75.75v16.5c0 .414.336.75.75.75h5.75zM4.271 8a.75.75 0 010-1.5h10a.75.75 0 110 1.5h-10zm0 7a.75.75 0 110-1.5h3.75a.75.75 0 010 1.5h-3.75zm0-3.5a.75.75 0 110-1.5h6a.75.75 0 110 1.5h-6zm14.25 3.331c.59.15 1.122.496 1.5.993a.75.75 0 11-1.194.908 1.241 1.241 0 00-1.055-.482c-.637 0-1.083.334-1.083.625s.447.626 1.083.626c1.387 0 2.58.896 2.58 2.124 0 1.004-.798 1.786-1.831 2.038v.254a.75.75 0 01-1.5 0v-.249a2.727 2.727 0 01-1.5-.991.75.75 0 111.193-.909c.242.319.625.499 1.055.482.637 0 1.084-.334 1.084-.625 0-.29-.444-.624-1.08-.624-1.388 0-2.584-.898-2.584-2.126 0-1.004.8-1.786 1.832-2.038v-.254a.75.75 0 111.5 0v.248z" id="indemnity-Shape" fill-rule="nonzero"/></g></symbol><symbol viewBox="0 0 25 24" id="info-g"><path d="M11.5 15.4V12h-.467a1 1 0 010-2h.734c.957 0 1.732.776 1.732 1.733V15.4c0 .258.21.467.468.467h.733a1 1 0 110 1.999h-.733A2.466 2.466 0 0111.5 15.4zm-.733-8.034a1.366 1.366 0 112.733 0 1.366 1.366 0 01-2.733 0zM4.015 3.515c4.686-4.687 12.284-4.687 16.97 0 4.687 4.686 4.687 12.284 0 16.97-4.686 4.687-12.284 4.687-16.97 0-4.687-4.686-4.687-12.284 0-16.97zm15.557 15.557c3.905-3.906 3.905-10.238 0-14.144-3.906-3.905-10.238-3.905-14.144 0-3.905 3.906-3.905 10.238 0 14.144 3.906 3.905 10.238 3.905 14.144 0z"/></symbol><symbol viewBox="0 0 24 24" id="insurance"><g fill-rule="nonzero"><path d="M16.192 22.94a.75.75 0 01-1.28.749 4.063 4.063 0 00-.17-.197 3.998 3.998 0 00-6.044.197.75.75 0 01-1.28-.747 2.772 2.772 0 00-3.98-.799.75.75 0 01-.876-1.218c.252-.18.522-.333.806-.456a2.804 2.804 0 113.374 0c.675.29 1.277.753 1.732 1.361a5.47 5.47 0 012.17-1 3.391 3.391 0 112.317 0 5.478 5.478 0 012.175.999 4.264 4.264 0 011.731-1.36 2.804 2.804 0 113.374 0c.284.123.554.275.805.456a.75.75 0 11-.875 1.218 2.772 2.772 0 00-3.979.798zM5.977 19.15a1.304 1.304 0 10-1.845-1.844 1.304 1.304 0 001.845 1.845zm13.5 0a1.304 1.304 0 10-1.845-1.844 1.304 1.304 0 001.845 1.845zm-6.335-2.846a1.891 1.891 0 10-2.675 2.675 1.891 1.891 0 002.675-2.675zM11.25 1.122V.75a.75.75 0 111.5 0v.372c5.415.375 9.694 4.766 9.75 10.15.007.703-.913.997-1.33.427-1.011-1.381-2.974-1.698-4.384-.708a3.115 3.115 0 00-.548.49l-.205.233a.738.738 0 01-.584.284.738.738 0 01-.6-.304 3.808 3.808 0 00-2.099-1.18V12.5a.75.75 0 11-1.5 0v-1.984a3.821 3.821 0 00-2.111 1.2.738.738 0 01-.583.282.738.738 0 01-.603-.31l-.181-.206c-1.133-1.286-3.117-1.43-4.43-.321a3.1 3.1 0 00-.503.538.739.739 0 01-.597.3h-.008a.726.726 0 01-.734-.726c.056-5.396 4.347-9.778 9.75-10.151zm3.416 8.588c-.233-3.703-1.259-6.595-2.294-7.169a9.388 9.388 0 00-.738 0c-1.036.572-2.063 3.467-2.295 7.171a5.379 5.379 0 015.327-.002zm6.17-.176c-.693-3.201-3.154-5.762-6.336-6.657.894 1.572 1.477 4.005 1.638 6.808a4.696 4.696 0 014.698-.15zM3.163 9.54a4.702 4.702 0 014.704.142c.16-2.803.744-5.236 1.639-6.807-3.182.893-5.65 3.455-6.343 6.665z"/></g></symbol><symbol viewBox="0 0 24 24" id="job_assignement"><g id="job_assignement-Icons" stroke-width="1" fill-rule="evenodd"><path d="M8.876 4.125c.624 0 1.244-.095 1.838-.282a3.375 3.375 0 00-5.78-1.16 6.099 6.099 0 003.942 1.442zm0 1.5A7.598 7.598 0 014.228 4.04a3.375 3.375 0 106.61 1.328c-.64.17-1.3.258-1.964.257zm2.071-4.197a4.875 4.875 0 11-6.894 6.894 4.875 4.875 0 016.894-6.894zM14.25 13.5v-.75a2.25 2.25 0 012.25-2.25H18a2.25 2.25 0 012.25 2.25v.75h2.25A1.5 1.5 0 0124 15v7.5a1.5 1.5 0 01-1.5 1.5H12a1.5 1.5 0 01-1.5-1.5V15a1.5 1.5 0 011.5-1.5h2.25zM18 18v.75a.75.75 0 01-1.5 0V18H12v4.5h10.5V18H18zm-6-1.5h10.5V15H12v1.5zm3.75-3h3v-.75A.75.75 0 0018 12h-1.5a.75.75 0 00-.75.75v.75zM1.5 17.249a.75.75 0 01-1.5-.001 7.503 7.503 0 0110.444-6.898.75.75 0 11-.588 1.38A6.003 6.003 0 001.5 17.25z" id="job_assignement-Shape" fill-rule="nonzero"/></g></symbol><symbol viewBox="0 0 24 24" id="key_esc-g"><path d="M3 4h18a3 3 0 013 3v10a3 3 0 01-3 3H3a3 3 0 01-3-3V7a3 3 0 013-3zm0 2a1 1 0 00-1 1v10a1 1 0 001 1h18a1 1 0 001-1V7a1 1 0 00-1-1H3zm6.23 6.01c0 .12-.02.36-.04.48H5.98c.08.47.49.7 1.03.7.31 0 .73-.11 1.1-.51l.96 1.06c-.41.5-1.14.86-2.27.86-1.47 0-2.57-1.04-2.57-2.55 0-1.48 1.06-2.55 2.54-2.55 1.41 0 2.46 1.04 2.46 2.51zm-2.47-1.15c-.4 0-.7.24-.78.66H7.5c-.08-.42-.35-.66-.74-.66zm5.225 3.74c-.76 0-1.44-.23-2-.73l.81-1.1c.42.37.85.55 1.22.55.25 0 .37-.07.37-.2 0-.12-.07-.2-.67-.38-.83-.24-1.56-.66-1.56-1.59 0-1.08.86-1.65 1.88-1.65.8 0 1.34.21 1.92.62l-.83 1.19c-.31-.33-.72-.51-1.03-.51-.15 0-.31.06-.31.2 0 .1.12.19.61.35 1.11.35 1.66.67 1.66 1.63 0 .96-.68 1.62-2.07 1.62zm5.544 0c-1.5 0-2.59-1.02-2.59-2.53 0-1.54 1.04-2.56 2.63-2.56.75 0 1.58.2 2.14.81l-1.13 1.17c-.21-.28-.57-.4-.84-.4-.58 0-1 .38-1 .97 0 .58.43.96 1.01.96.4 0 .66-.12.95-.4l1.05 1.16c-.45.5-1.21.82-2.22.82z"/></symbol><symbol viewBox="0 0 24 24" id="key_return-g"><path d="M8.414 12h7.92a.25.25 0 00.25-.25v-1.5a.25.25 0 00-.25-.25h-.292a1 1 0 010-2h.291a2.25 2.25 0 012.25 2.25v1.5a2.25 2.25 0 01-2.25 2.25H8.414l.793.793a1 1 0 01-1.414 1.414l-2.5-2.5a1 1 0 010-1.414l2.5-2.5a1 1 0 111.414 1.414L8.414 12zM3 4h18a3 3 0 013 3v10a3 3 0 01-3 3H3a3 3 0 01-3-3V7a3 3 0 013-3zm0 2a1 1 0 00-1 1v10a1 1 0 001 1h18a1 1 0 001-1V7a1 1 0 00-1-1H3z"/></symbol><symbol viewBox="0 0 24 24" id="key_up_down-g"><path d="M3 6.5h6a3 3 0 013 3v6a3 3 0 01-3 3H3a3 3 0 01-3-3v-6a3 3 0 013-3zm0 2a1 1 0 00-1 1v6a1 1 0 001 1h6a1 1 0 001-1v-6a1 1 0 00-1-1H3zm.907 5.5c-.365 0-.544-.474-.284-.746l2.09-2.879a.394.394 0 01.576 0l2.09 2.879c.26.272.073.746-.284.746H3.907zm12-3.25h4.188c.357 0 .543.474.284.746l-2.09 2.879a.394.394 0 01-.576 0l-2.09-2.879c-.26-.272-.081-.746.284-.746zM15 6.5h6a3 3 0 013 3v6a3 3 0 01-3 3h-6a3 3 0 01-3-3v-6a3 3 0 013-3zm0 2a1 1 0 00-1 1v6a1 1 0 001 1h6a1 1 0 001-1v-6a1 1 0 00-1-1h-6z"/></symbol><symbol viewBox="0 0 24 24" id="key-g"><path d="M11.026 20.804l-2.99.007a.998.998 0 01-1.035-1.04c0-.265.107-.52.296-.707A.994.994 0 018 18.767l2.99.007v-2.008l-1.959.043h-.008a1.002 1.002 0 01-.696-1.711.994.994 0 01.704-.298l1.994.008-.008-4.909A4.99 4.99 0 017.14 6.005C6.587 3.3 8.324.657 11.018.103c2.695-.555 5.327 1.189 5.88 3.894.552 2.705-1.185 5.348-3.88 5.902v13.097c0 .554-.447 1.004-1 1.004-.552 0-1-.45-1-1.004l.008-2.192zm3.106-17.92a2.98 2.98 0 00-4.226 0 3.008 3.008 0 000 4.243 2.98 2.98 0 004.226 0 3.008 3.008 0 000-4.242z"/></symbol><symbol viewBox="0 0 25 24" id="lock-g"><path d="M13.5 15.936V18a1 1 0 01-2 0v-2.064a1.75 1.75 0 112 0zm-7-7.291V7a6 6 0 0112 0v1.645c1.446.43 2.5 1.77 2.5 3.355v7.5a3.5 3.5 0 01-3.5 3.5h-10A3.5 3.5 0 014 19.5V12a3.502 3.502 0 012.5-3.355zm2-.145h8V7a4 4 0 00-8 0v1.5zm-1 2A1.5 1.5 0 006 12v7.5A1.5 1.5 0 007.5 21h10a1.5 1.5 0 001.5-1.5V12a1.5 1.5 0 00-1.5-1.5h-10z"/></symbol><symbol viewBox="0 0 25 25" id="mail-g"><path d="M19.203 4.995h-14a3 3 0 00-3 3v10a3 3 0 003 3h14a3 3 0 003-3v-10a3 3 0 00-3-3zm-.41 2l-5.88 5.88a1 1 0 01-1.42 0l-5.88-5.88h13.18zm1.41 11a1 1 0 01-1 1h-14a1 1 0 01-1-1v-9.59l5.88 5.88a3 3 0 004.24 0l5.88-5.88v9.59z"/></symbol><symbol viewBox="0 0 25 25" id="mail-sent-g"><path d="M16.536 8.72a1 1 0 001.42 0l4-4a1.004 1.004 0 00-1.42-1.42l-3.29 3.3-1.29-1.3a1.004 1.004 0 00-1.42 1.42l2 2zm4.71-.71a1 1 0 00-1 1v9a1 1 0 01-1 1h-14a1 1 0 01-1-1V8.42l5.88 5.89a3 3 0 002.11.87 3.08 3.08 0 002.16-.9l1.72-1.72a1.004 1.004 0 00-1.42-1.42l-1.75 1.75a1 1 0 01-1.4 0l-5.89-5.88h5.59a1 1 0 100-2h-6a3 3 0 00-3 3v10a3 3 0 003 3h14a3 3 0 003-3v-9a1 1 0 00-1-1z"/></symbol><symbol viewBox="0 0 25 25" id="mail-unsent-g"><path d="M21.027 10.01a1 1 0 00-1 1v6a1 1 0 01-1 1h-14a1 1 0 01-1-1V7.42l5.88 5.89a3 3 0 002.11.87 3.08 3.08 0 002.16-.9l1.72-1.72a1.004 1.004 0 00-1.42-1.42l-1.75 1.75a1 1 0 01-1.4 0l-5.89-5.88h7.59a1 1 0 100-2h-8a3 3 0 00-3 3v10a3 3 0 003 3h14a3 3 0 003-3v-6a1 1 0 00-1-1zm-.59-5l1.3-1.29a1.004 1.004 0 00-1.42-1.42l-1.29 1.3-1.29-1.3a1.004 1.004 0 00-1.42 1.42l1.3 1.29-1.3 1.29a1 1 0 000 1.42 1 1 0 001.42 0l1.29-1.3 1.29 1.3a1 1 0 001.42 0 1 1 0 000-1.42l-1.3-1.29z"/></symbol><symbol viewBox="0 0 24 24" id="mail"><path d="M1.5 6.437V18.25c0 .414.336.75.75.75h19.5a.75.75 0 00.75-.75V6.437l-5.617 3.874 3.126 2.888a.75.75 0 11-1.018 1.102l-3.374-3.117-1.824 1.257a3.156 3.156 0 01-3.586 0l-1.824-1.257L5.01 14.3a.75.75 0 11-1.018-1.102l3.126-2.888L1.5 6.437zM2.783 5.5l8.276 5.707a1.656 1.656 0 001.882 0L21.217 5.5H2.783zm-.533 15A2.25 2.25 0 010 18.25v-12A2.25 2.25 0 012.25 4h19.5A2.25 2.25 0 0124 6.25v12a2.25 2.25 0 01-2.25 2.25H2.25z"/></symbol><symbol viewBox="0 0 24 24" id="manager"><path d="M13.005 14.306l2.465 8.74a.75.75 0 01-1.444.408L12 16.264l-2.027 7.19a.75.75 0 11-1.444-.408l2.465-8.74A9.001 9.001 0 003 23.25a.75.75 0 01-1.5 0c0-5.799 4.701-10.5 10.5-10.5s10.5 4.701 10.5 10.5a.75.75 0 01-1.5 0 9.001 9.001 0 00-7.995-8.944zm3.086-9.487A4.5 4.5 0 008.2 3.232a7.961 7.961 0 005.302 2.018c.882 0 1.758-.145 2.59-.43zm.144 1.53a9.452 9.452 0 01-2.735.401 9.46 9.46 0 01-6.025-2.163 4.5 4.5 0 108.76 1.762zm-.244-4.592a6 6 0 11-8.486 8.486 6 6 0 018.486-8.486z"/></symbol><symbol viewBox="0 0 25 24" id="maternity-g"><g id="maternity-g-Icons" stroke-width="1" fill-rule="evenodd"><path d="M12.094 3.75c-3.646 0-6.956 2.727-7.24 6.3a1 1 0 01-.996.922h-.013a1.51 1.51 0 100 3.021h.013a1 1 0 01.957.71 7.609 7.609 0 0014.56 0 1 1 0 01.956-.71h.014a1.51 1.51 0 100-3.021h-.014a1 1 0 01-.997-.921c-.198-2.502-1.88-4.59-4.122-5.616a3.152 3.152 0 01-5.687 2.293 1 1 0 111.63-1.158 1.152 1.152 0 10.94-1.82zm0-2c4.372 0 8.366 3.08 9.13 7.333a3.512 3.512 0 01-.153 6.835 9.609 9.609 0 01-6.182 5.765c-4.862 1.478-9.99-1.086-11.771-5.765a3.512 3.512 0 01-.152-6.835C3.729 4.83 7.724 1.75 12.095 1.75zm-3 10.75a1.5 1.5 0 110-3 1.5 1.5 0 010 3zm6 0a1.5 1.5 0 110-3 1.5 1.5 0 010 3zm-1.66 2.75a1.001 1.001 0 011.41.088.996.996 0 01-.088 1.408 4.03 4.03 0 01-5.323 0 .996.996 0 01-.088-1.408 1.001 1.001 0 011.41-.089 2.027 2.027 0 002.678 0z" id="maternity-g-Shape" fill-rule="nonzero"/></g></symbol><symbol viewBox="0 0 25 24" id="maternity"><g id="maternity-Icons" stroke-width="1" fill-rule="evenodd"><path d="M12.299 3.157c-3.96 0-7.554 2.962-7.863 6.86a.75.75 0 01-.748.69h-.014a1.875 1.875 0 100 3.75h.014a.75.75 0 01.718.532 8.25 8.25 0 0015.787 0 .75.75 0 01.717-.532h.014a1.875 1.875 0 100-3.75h-.014a.75.75 0 01-.747-.69c-.233-2.931-2.323-5.333-5.03-6.344A3 3 0 019.47 5.657a.75.75 0 111.414-.5 1.5 1.5 0 101.415-2zm0-1.5c4.497 0 8.6 3.216 9.285 7.615a3.376 3.376 0 01-.119 6.642 9.75 9.75 0 01-6.33 6.005c-4.987 1.515-10.25-1.16-12.002-6.005a3.376 3.376 0 01-.12-6.642C3.7 4.873 7.804 1.657 12.3 1.657zm1.488 14.863a.75.75 0 11.992 1.125 3.75 3.75 0 01-4.96 0 .75.75 0 01.992-1.125c.85.75 2.126.75 2.976 0zm3.012-5.438a.75.75 0 011.5 0 2.25 2.25 0 01-4.5 0 .75.75 0 011.5 0 .75.75 0 001.5 0zm-7.5 0a.75.75 0 011.5 0 2.25 2.25 0 01-4.5 0 .75.75 0 011.5 0 .75.75 0 001.5 0z" id="maternity-Shape" fill-rule="nonzero"/></g></symbol><symbol viewBox="0 0 24 24" id="medical-g"><path d="M12 23C5.925 23 1 18.075 1 12S5.925 1 12 1s11 4.925 11 11-4.925 11-11 11zm0-2a9 9 0 100-18 9 9 0 000 18zm3.143-13.286v1.143h1.143c.946 0 1.714.768 1.714 1.714v2.858c0 .946-.768 1.714-1.714 1.714h-1.143v1.143c0 .946-.768 1.714-1.714 1.714H10.57a1.714 1.714 0 01-1.714-1.714v-1.143H7.714A1.714 1.714 0 016 13.429V10.57c0-.946.768-1.714 1.714-1.714h1.143V7.714c0-.946.768-1.714 1.714-1.714h2.858c.946 0 1.714.768 1.714 1.714zM16 13.143v-2.286h-1.857a1 1 0 01-1-1V8h-2.286v1.857a1 1 0 01-1 1H8v2.286h1.857a1 1 0 011 1V16h2.286v-1.857a1 1 0 011-1H16z"/></symbol><symbol viewBox="0 0 24 24" id="medical"><g id="medical-Icons" stroke-width="1" fill-rule="evenodd"><path d="M3.515 3.515c4.686-4.687 12.284-4.687 16.97 0 4.687 4.686 4.687 12.284 0 16.97-4.686 4.687-12.284 4.687-16.97 0-4.687-4.686-4.687-12.284 0-16.97zm15.91 15.91c4.1-4.1 4.1-10.75 0-14.85s-10.75-4.1-14.85 0-4.1 10.75 0 14.85 10.75 4.1 14.85 0zM15 6v3h3a1.5 1.5 0 011.5 1.5v3A1.5 1.5 0 0118 15h-3v3a1.5 1.5 0 01-1.5 1.5h-3A1.5 1.5 0 019 18v-3H6a1.5 1.5 0 01-1.5-1.5v-3A1.5 1.5 0 016 9h3V6a1.5 1.5 0 011.5-1.5h3A1.5 1.5 0 0115 6zm3 7.5v-3h-3.75a.75.75 0 01-.75-.75V6h-3v3.75a.75.75 0 01-.75.75H6v3h3.75a.75.75 0 01.75.75V18h3v-3.75a.75.75 0 01.75-.75H18z" id="medical-Shape" fill-rule="nonzero"/></g></symbol><symbol viewBox="0 0 24 24" id="orgchart-g"><path d="M12.219 13H6.93a.338.338 0 00-.337.338V14.5H7.6a2.4 2.4 0 012.4 2.4v4.2a2.4 2.4 0 01-2.4 2.4H3.4A2.4 2.4 0 011 21.1v-4.2a2.4 2.4 0 012.4-2.4h1.194v-1.162A2.338 2.338 0 016.93 11h4.35V9.5h-1.194a2.4 2.4 0 01-2.4-2.4V2.9a2.4 2.4 0 012.4-2.4h4.2a2.4 2.4 0 012.4 2.4v4.2a2.4 2.4 0 01-2.4 2.4h-1.006V11h4.35a2.338 2.338 0 012.338 2.338V14.5h1.006a2.4 2.4 0 012.4 2.4v4.2a2.4 2.4 0 01-2.4 2.4h-4.2a2.4 2.4 0 01-2.4-2.4v-4.2a2.4 2.4 0 012.4-2.4h1.194v-1.162A.338.338 0 0017.63 13h-5.287a1.015 1.015 0 01-.125 0zM3.4 21.5h4.2a.4.4 0 00.4-.4v-4.2a.4.4 0 00-.4-.4H3.4a.4.4 0 00-.4.4v4.2c0 .22.18.4.4.4zm6.688-14h4.2a.4.4 0 00.4-.4V2.9a.4.4 0 00-.4-.4h-4.2a.4.4 0 00-.4.4v4.2c0 .22.179.4.4.4zm6.687 14h4.2a.4.4 0 00.4-.4v-4.2a.4.4 0 00-.4-.4h-4.2a.4.4 0 00-.4.4v4.2c0 .22.18.4.4.4z"/></symbol><symbol viewBox="0 0 24 24" id="orgchart"><path d="M12.751 13.385V14.5a.75.75 0 01-1.5 0v-1.115H4V14.5a.75.75 0 11-1.5 0v-1.865a.75.75 0 01.75-.75h8.001v-.635a.75.75 0 111.5 0v.635h7.999a.75.75 0 01.75.75V14.5a.75.75 0 11-1.5 0v-1.115h-7.249zM1.861 23.25A1.861 1.861 0 010 21.389V18.61c0-1.028.833-1.861 1.861-1.861H4.64c1.028 0 1.861.833 1.861 1.861v2.778a1.861 1.861 0 01-1.861 1.861H1.86zm0-1.5H4.64c.2 0 .361-.162.361-.361V18.61c0-.2-.162-.361-.361-.361H1.86c-.2 0-.361.162-.361.361v2.778c0 .2.162.361.361.361zm8.75 1.5a1.861 1.861 0 01-1.861-1.861V18.61c0-1.028.833-1.861 1.861-1.861h2.778c1.028 0 1.861.833 1.861 1.861v2.778a1.861 1.861 0 01-1.861 1.861H10.61zm0-1.5h2.778c.2 0 .361-.162.361-.361V18.61c0-.2-.162-.361-.361-.361H10.61c-.2 0-.361.162-.361.361v2.778c0 .2.162.361.361.361zm8.75 1.5a1.861 1.861 0 01-1.861-1.861V18.61c0-1.028.833-1.861 1.861-1.861h2.778c1.028 0 1.861.833 1.861 1.861v2.778a1.861 1.861 0 01-1.861 1.861H19.36zm0-1.5h2.778c.2 0 .361-.162.361-.361V18.61c0-.2-.162-.361-.361-.361H19.36c-.2 0-.361.162-.361.361v2.778c0 .2.162.361.361.361zM8.667 9.25c-1.324 0-2.417-1.02-2.417-2.306V3.056C6.25 1.77 7.343.75 8.667.75h6.666c1.324 0 2.417 1.02 2.417 2.306v3.888c0 1.286-1.093 2.306-2.417 2.306H8.667zm0-1.5h6.666c.518 0 .917-.373.917-.806V3.056c0-.433-.4-.806-.917-.806H8.667c-.518 0-.917.373-.917.806v3.888c0 .433.4.806.917.806z"/></symbol><symbol viewBox="0 0 25 24" id="other-g"><g id="other-g-Icons" stroke-width="1" fill-rule="evenodd"><path d="M20.081 5.966a2.166 2.166 0 00-2.944-.833l-.04.024-1.547.922v-1.88c.01-1.2-.96-2.188-2.17-2.2h-2.452A2.192 2.192 0 008.75 4.21V6.08l-1.543-.918a2.169 2.169 0 00-2.972.771l-.023.04-1.173 2.073a2.21 2.21 0 00.789 2.99L5.464 12l-1.632.96a2.213 2.213 0 00-.791 2.997l1.176 2.077a2.166 2.166 0 002.944.833l.041-.024 1.548-.922v1.88a2.21 2.21 0 002.193 2.2h2.407a2.21 2.21 0 002.2-2.194V17.92l1.542.92a2.169 2.169 0 002.972-.77l.023-.041 1.175-2.074a2.21 2.21 0 00-.788-2.99L18.835 12l1.633-.96a2.213 2.213 0 00.791-2.994l-1.178-2.08zm-.56 3.069c.057.1.024.226-.075.285l-3.09 1.818a1 1 0 000 1.723l3.097 1.824a.21.21 0 01.07.282l-1.18 2.082-.005.01a.167.167 0 01-.229.06L15.062 15.3a1 1 0 00-1.512.859v3.64c-.001.107-.093.199-.207.2H10.95a.207.207 0 01-.2-.207V16.16a1 1 0 00-1.513-.86l-3.052 1.82c.005-.002.005-.002.003-.002a.167.167 0 01-.227-.064L4.78 14.968a.212.212 0 01.073-.289l3.09-1.817a1 1 0 000-1.724L4.849 9.316a.21.21 0 01-.07-.282l1.178-2.081.005-.01a.167.167 0 01.229-.059l3.048 1.815a1 1 0 001.512-.86V4.2a.192.192 0 01.187-.2h2.434c.095.001.18.087.179.192V7.84a1 1 0 001.512.858l3.052-1.82a.167.167 0 01.223.067l1.182 2.087.002.003z" id="other-g-Path-Copy-12" fill-rule="nonzero"/></g></symbol><symbol viewBox="0 0 25 24" id="other"><g id="other-Icons" stroke-width="1" fill-rule="evenodd"><path d="M16.681 2.25A2.235 2.235 0 0014.466 0h-3.061a2.238 2.238 0 00-2.223 2.257V5.48L6.498 3.882a2.21 2.21 0 00-3.028.787l-.023.042-1.468 2.593a2.263 2.263 0 00.807 3.062L5.562 12 2.789 13.63a2.265 2.265 0 00-.808 3.067l1.47 2.598a2.208 2.208 0 003.002.85l.042-.024 2.687-1.601v3.23A2.261 2.261 0 0011.427 24h3.005a2.261 2.261 0 002.25-2.246V18.52l2.683 1.6a2.21 2.21 0 003.028-.786l.023-.042 1.47-2.595a2.264 2.264 0 00-.806-3.062L20.302 12l2.773-1.63a2.265 2.265 0 00.808-3.067l-1.472-2.599a2.208 2.208 0 00-3.002-.85l-.042.024-2.686 1.601V2.25zm5.899 5.796c.206.36.086.82-.27 1.033l-3.867 2.274a.75.75 0 000 1.293l3.872 2.279c.352.21.473.67.267 1.031l-1.473 2.602-.01.018a.709.709 0 01-.97.253l-3.813-2.274a.75.75 0 00-1.135.644v4.55a.759.759 0 01-.754.75h-2.995a.759.759 0 01-.75-.755V17.2a.75.75 0 00-1.134-.644L5.732 18.83l-.009.005a.709.709 0 01-.964-.275l-1.474-2.604a.764.764 0 01.27-1.036l3.866-2.274a.75.75 0 000-1.293l-3.87-2.277a.763.763 0 01-.267-1.031l1.47-2.6.01-.018a.709.709 0 01.97-.253l3.814 2.27a.75.75 0 001.134-.644V2.25a.738.738 0 01.73-.75h3.047c.4.004.726.337.722.743V6.8a.75.75 0 001.135.644l3.814-2.275.009-.005a.709.709 0 01.964.275l1.476 2.604v.003z" id="other-Path" fill-rule="nonzero"/></g></symbol><symbol viewBox="0 0 25 24" id="password"><path d="M8.75 14.75a.75.75 0 110 1.5h-6A2.25 2.25 0 01.5 14V5a2.25 2.25 0 012.25-2.25h15.5A2.25 2.25 0 0120.5 5v3.5a.75.75 0 11-1.5 0V5a.75.75 0 00-.75-.75H2.75A.75.75 0 002 5v9c0 .414.336.75.75.75h6zm6.221-6.25h.005a1.125 1.125 0 11-.005 0zm-4.5 0h.005a1.125 1.125 0 11-.005 0zm-4.5 0h.005a1.125 1.125 0 11-.005 0zm15.132 4.367l.53.53a.75.75 0 11-1.06 1.06l-.53-.53-2.172 2.172a3.747 3.747 0 01-5.774 4.716 3.746 3.746 0 014.714-5.775l4.82-4.82a.75.75 0 011.06 0l1.59 1.589a.75.75 0 01-1.06 1.06l-1.06-1.06-1.058 1.058zm-4.768 6.888a2.248 2.248 0 10-3.178-3.178 2.248 2.248 0 003.178 3.178z"/></symbol><symbol viewBox="0 0 24 24" id="pencil"><g id="pencil-Icons" stroke-width="1" fill-rule="evenodd"><path d="M7.661 20.412L18.586 9.487l-4.073-4.073L3.584 16.342l4.077 4.07zm-1.457.665L2.922 17.8l-1.13 4.408 4.412-1.132zM1.781 16.21a.747.747 0 01.268-.455L13.926 3.88a.758.758 0 01.114-.114l2.445-2.445.029-.03a4.389 4.389 0 016.207-.01l.03.03a4.386 4.386 0 01-.066 6.198l-2.45 2.452a.759.759 0 01-.114.113L8.185 22.01a.75.75 0 01-.344.196L.936 23.976a.75.75 0 01-.912-.912L1.78 16.21zm17.866-7.785l1.034-1.034-4.073-4.073-1.034 1.034 4.073 4.073zM21.74 6.33a2.888 2.888 0 00-.062-3.971l-.019-.02a2.888 2.888 0 00-3.989-.08l4.07 4.07z" id="pencil-Shape" fill-rule="nonzero"/></g></symbol><symbol viewBox="0 0 24 24" id="person"><g id="person-Icons" stroke-width="1" fill-rule="evenodd"><path d="M16.479 15.442a4.5 4.5 0 01-8.958 0A8.997 8.997 0 003 23.25a.75.75 0 01-1.5 0c0-5.799 4.701-10.5 10.5-10.5s10.5 4.701 10.5 10.5a.75.75 0 01-1.5 0c0-3.34-1.82-6.255-4.521-7.808zM15 14.762a8.985 8.985 0 00-3-.512c-1.052 0-2.062.18-3 .512V15a3 3 0 106 0v-.238zm1.343-9.945a4.5 4.5 0 00-7.891-1.585 7.961 7.961 0 007.89 1.585zm.144 1.53a9.461 9.461 0 01-8.76-1.76 4.5 4.5 0 108.76 1.76zm-.244-4.59a6 6 0 11-8.486 8.486 6 6 0 018.486-8.486z" id="person-Shape" fill-rule="nonzero"/></g></symbol><symbol viewBox="0 0 24 24" id="persons"><g id="persons-Icons" stroke-width="1" fill-rule="evenodd"><path d="M10.875 7.919a7.023 7.023 0 01-6.443-1.452 3.376 3.376 0 106.443 1.452zm-.315-1.47a3.375 3.375 0 00-5.212-1.174 5.523 5.523 0 005.212 1.174zm6.005 7.635a4.125 4.125 0 112.32 0 6.273 6.273 0 015.115 6.166.75.75 0 11-1.5 0 4.776 4.776 0 00-6.428-4.478.75.75 0 11-.518-1.408 6.318 6.318 0 011.011-.28zM4.053 4.428a4.875 4.875 0 116.894 6.894 4.875 4.875 0 01-6.894-6.894zM1.5 20.25a.75.75 0 11-1.5 0 7.5 7.5 0 0115 0 .75.75 0 11-1.5 0 6 6 0 00-12 0zm18.083-8.269a2.625 2.625 0 10-3.712-3.712 2.625 2.625 0 003.712 3.712z" id="persons-Shape" fill-rule="nonzero"/></g></symbol><symbol viewBox="0 0 25 25" id="phone-call-g"><path d="M10.316 23.246a26.43 26.43 0 01-4.503-3.611L4.369 18.19a26.473 26.473 0 01-3.615-4.505 1 1 0 01-.055-.097 4.816 4.816 0 01.712-5.904l1.02-1.02a2.273 2.273 0 013.212 0L7.89 8.912a2.273 2.273 0 010 3.213l-.485.486h-.002a.271.271 0 000 .385l3.6 3.598c-.084-.083-.013-.077.173-.128.28-.076.576-.236.698-.357a2.273 2.273 0 013.212 0l2.248 2.248a2.273 2.273 0 010 3.213l-1.02 1.02a4.817 4.817 0 01-5.909.708 1 1 0 01-.09-.052zm-3.089-5.025a24.43 24.43 0 004.09 3.292 1 1 0 01.08.046c1.114.709 2.57.55 3.504-.384l1.02-1.02a.273.273 0 000-.384l-2.248-2.247a.273.273 0 00-.385 0c-.929.928-2.758 1.424-3.698.485L5.99 14.411a2.272 2.272 0 01.001-3.216l.484-.484a.273.273 0 000-.385L4.229 8.08a.273.273 0 00-.385 0L2.824 9.1a2.816 2.816 0 00-.383 3.503 1 1 0 01.049.086 24.473 24.473 0 003.293 4.088l1.444 1.445zM17.835 8.5l-2.912 3.075A1.2 1.2 0 0113 10.617V2.5A2.5 2.5 0 0115.5 0h6A2.5 2.5 0 0124 2.5V6a2.5 2.5 0 01-2.5 2.5h-3.665zm-.937-1.798A1 1 0 0117.5 6.5h4A.5.5 0 0022 6V2.5a.5.5 0 00-.5-.5h-6a.5.5 0 00-.5.5v6.01l1.898-1.808z"/></symbol><symbol viewBox="0 0 25 25" id="phone-call"><g id="phone-call-Icons" stroke-width="1" fill-rule="evenodd"><path d="M1.656 13.514a.75.75 0 01-.043-.079 4.193 4.193 0 01.615-5.147l.483-.482a1.898 1.898 0 012.683 0l2.028 2.027c.741.742.741 1.943 0 2.686a.397.397 0 000 .561l3.247 3.248a.4.4 0 00.564 0 1.898 1.898 0 012.683 0l2.028 2.027c.741.742.741 1.943 0 2.684l-.482.483a4.194 4.194 0 01-5.151.613.75.75 0 01-.073-.041A23.696 23.696 0 016.2 18.856l-1.304-1.303a23.736 23.736 0 01-3.24-4.04zm5.605 4.281a22.196 22.196 0 003.723 2.996.75.75 0 01.066.037 2.694 2.694 0 003.351-.367l.483-.482a.398.398 0 000-.563l-2.028-2.028a.398.398 0 00-.563 0 1.9 1.9 0 01-2.684 0l-3.247-3.246a1.898 1.898 0 010-2.686.398.398 0 000-.562L4.333 8.866a.398.398 0 00-.563 0l-.482.483a2.693 2.693 0 00-.367 3.35.75.75 0 01.04.072 22.236 22.236 0 002.996 3.721l1.303 1.303zm8.645-3.105a.85.85 0 01-1.363-.791l.342-2.399H13.75a2.25 2.25 0 01-2.25-2.25v-6A2.25 2.25 0 0113.75 1h9A2.25 2.25 0 0125 3.25v6a2.25 2.25 0 01-2.25 2.25h-2.743l-4.101 3.19zm3.384-4.532a.75.75 0 01.46-.158h3a.75.75 0 00.75-.75v-6a.75.75 0 00-.75-.75h-9a.75.75 0 00-.75.75v6c0 .414.336.75.75.75h2a.75.75 0 01.742.856l-.237 1.662 3.035-2.36zm-4.04-4.65a.75.75 0 110-1.5H21a.75.75 0 010 1.5h-5.75zm0 2.742a.75.75 0 110-1.5H19a.75.75 0 010 1.5h-3.75z" id="phone-call-Shape" fill-rule="nonzero"/></g></symbol><symbol viewBox="0 0 25 24" id="phone-g"><path fill-rule="evenodd" d="M16.5 1c1.66 0 3 1.34 3 3v16c0 1.66-1.34 3-3 3h-8c-1.66 0-3-1.34-3-3V4c0-1.66 1.34-3 3-3h8zm1 17V4h-10v14h10zm-3 3v-1h-4v1h4z"/></symbol><symbol viewBox="0 0 24 24" id="policy-heart"><path d="M5.427.895a3.056 3.056 0 014.332 4.31L5.863 9.269a.75.75 0 01-1.083 0L.895 5.216a3.055 3.055 0 114.32-4.32L5.322 1l.106-.106zm3.26 3.26a1.556 1.556 0 00-2.199-2.199l-.636.636a.75.75 0 01-1.06 0l-.637-.636a1.555 1.555 0 10-2.189 2.21l3.355 3.5 3.366-3.51zM18 6.752V18.75c0 2.9-2.35 5.25-5.25 5.25h-12c-1 0-1-1.5 0-1.5a3.75 3.75 0 003.75-3.75v-6a.75.75 0 111.5 0v6a5.234 5.234 0 01-1.576 3.75h8.326a3.75 3.75 0 003.75-3.75V3.761a3.74 3.74 0 01.75-2.261h-5a.75.75 0 110-1.5h8A3.75 3.75 0 1118 6.75zm.659-1.41A2.25 2.25 0 1018 3.746v.013c.002.573.222 1.145.659 1.582zM8.25 18a.75.75 0 110-1.5h4.5a.75.75 0 010 1.5h-4.5zm0-3a.75.75 0 110-1.5h6a.75.75 0 010 1.5h-6zm1.25-3a.75.75 0 110-1.5h4.75a.75.75 0 010 1.5H9.5zm2.25-3a.75.75 0 110-1.5h2.5a.75.75 0 010 1.5h-2.5z"/></symbol><symbol viewBox="0 0 24 24" id="policy"><path d="M18 6.75v12c0 2.9-2.35 5.25-5.25 5.25h-12c-1 0-1-1.5 0-1.5a3.75 3.75 0 003.75-3.75v-6a.75.75 0 111.5 0v6a5.234 5.234 0 01-1.576 3.75h8.326a3.75 3.75 0 003.75-3.75V3.761a3.74 3.74 0 01.75-2.261h-7.5a.75.75 0 010-1.5h10.502A3.75 3.75 0 1118 6.75zm0-2.991a2.25 2.25 0 100-.013v.013zM4.142.684a1.24 1.24 0 012.216 0L7.309 2.6l2.136.309c.461.066.846.386.995.833.147.446.026.936-.31 1.261l-1.547 1.5.364 2.111c.08.466-.115.935-.5 1.207-.38.27-.88.303-1.291.087L5.25 8.913l-1.901.994a1.24 1.24 0 01-1.293-.086 1.225 1.225 0 01-.5-1.207l.364-2.111L.38 5.004a1.225 1.225 0 01.683-2.095L3.19 2.6 4.142.684zm3.229 2.04L7.309 2.6l-.137-.02c.085.013.16.067.199.144zm-2.9.67a1.24 1.24 0 01-.923.671l-1.727.25 1.247 1.212c.29.28.423.686.355 1.086L3.127 8.33l1.546-.808c.36-.191.793-.191 1.151-.002l1.552.81-.297-1.72a1.226 1.226 0 01.356-1.083l1.25-1.212-1.726-.25a1.236 1.236 0 01-.93-.671L5.25 1.826l-.779 1.568zM8.25 18a.75.75 0 110-1.5h6a.75.75 0 110 1.5h-6zm0-3a.75.75 0 110-1.5h6a.75.75 0 110 1.5h-6zM12 12a.75.75 0 110-1.5h2.25a.75.75 0 110 1.5H12zm-.75-3a.75.75 0 110-1.5h3a.75.75 0 110 1.5h-3z"/></symbol><symbol viewBox="0 0 24 24" id="profile-g"><g fill-rule="nonzero"><path d="M12 15.25a5.75 5.75 0 100-11.5 5.75 5.75 0 000 11.5zm0-2a3.75 3.75 0 110-7.5 3.75 3.75 0 010 7.5z"/><path d="M17.283 20.492A7.968 7.968 0 0012 18.5c-1.978 0-3.84.72-5.283 1.992A9.953 9.953 0 0012 22c1.94 0 3.75-.552 5.283-1.508zM5.113 19.25A9.969 9.969 0 0112 16.5a9.97 9.97 0 016.888 2.75A9.972 9.972 0 0022 12c0-5.523-4.477-10-10-10S2 6.477 2 12a9.972 9.972 0 003.112 7.25zM12 24C5.373 24 0 18.627 0 12S5.373 0 12 0s12 5.373 12 12-5.373 12-12 12z"/></g></symbol><symbol viewBox="0 0 25 24" id="profile-picture"><path d="M9.448 6.897a6.081 6.081 0 005.75 1.155 3.36 3.36 0 00-5.75-1.155zm5.876 2.68a7.583 7.583 0 01-6.58-1.322 3.36 3.36 0 106.58 1.323zM3.75 24a2.25 2.25 0 01-2.25-2.25V2.25A2.25 2.25 0 013.75 0h16.5a2.25 2.25 0 012.25 2.25v19.5A2.25 2.25 0 0120.25 24H3.75zm0-1.5h16.5a.75.75 0 00.75-.75V2.25a.75.75 0 00-.75-.75H3.75a.75.75 0 00-.75.75v19.5c0 .414.336.75.75.75zM8.563 5.646a4.86 4.86 0 116.874 6.874 4.86 4.86 0 01-6.874-6.874zm10.85 13.031a.75.75 0 01-1.326.7 6.88 6.88 0 00-12.174 0 .75.75 0 01-1.326-.7 8.38 8.38 0 0114.826 0z"/></symbol><symbol viewBox="0 0 24 24" id="profile"><path d="M17.724 20.805a8.999 8.999 0 00-11.448 0 10.513 10.513 0 0011.448 0zm-12.669-.93a10.497 10.497 0 0113.89 0c.163-.144.323-.294.48-.45 4.1-4.1 4.1-10.75 0-14.85s-10.75-4.1-14.85 0-4.1 10.75 0 14.85c.157.156.317.306.48.45zM16.243 5.508a6 6 0 11-8.486 8.486 6 6 0 018.486-8.486zm-1.061 1.061a4.5 4.5 0 10-6.364 6.364 4.5 4.5 0 006.364-6.364zM3.515 3.515c4.686-4.687 12.284-4.687 16.97 0 4.687 4.686 4.687 12.284 0 16.97-4.686 4.687-12.284 4.687-16.97 0-4.687-4.686-4.687-12.284 0-16.97z"/></symbol><symbol viewBox="0 0 24 24" id="redo-g"><path d="M18.155 13.816a7.704 7.704 0 00-.769-1.242c-1.488-1.96-3.833-3.139-6.38-3.139-2.549 0-4.894 1.179-6.382 3.14a7.645 7.645 0 00-1.186 2.266.997.997 0 01-1.245.631.963.963 0 01-.647-1.214 9.563 9.563 0 011.484-2.835C4.89 8.974 7.822 7.5 11.005 7.5c3.184 0 6.117 1.474 7.975 3.923.303.398.573.818.809 1.255l.787-2.185a.989.989 0 011.271-.599c.515.19.78.765.593 1.285l-1.68 4.661a.989.989 0 01-1.27.6l-4.614-1.697a1.005 1.005 0 01-.592-1.285.989.989 0 011.27-.599l2.601.957z"/></symbol><symbol viewBox="0 0 24 24" id="refusal-g"><path d="M10.55 2.05a7 7 0 119.9 9.9 7 7 0 01-9.9-9.9zm8.486 8.486a5 5 0 10-7.072-7.072 5 5 0 007.072 7.072zm-4.527-1.128a1 1 0 01-1.414-1.414l3.536-3.535a1 1 0 011.414 1.414l-3.536 3.535zM14 22.888a1 1 0 01-2 0 4 4 0 00-8 0 1 1 0 01-2 0 6.002 6.002 0 014.545-5.822 4.333 4.333 0 01.153-7.562 1 1 0 11.941 1.765 2.333 2.333 0 103.075 3.298 1 1 0 111.695 1.062 4.314 4.314 0 01-2.079 1.73 6.002 6.002 0 013.67 5.53z"/></symbol><symbol viewBox="0 0 24 24" id="refusal"><path d="M9.477 1.977a6.75 6.75 0 119.546 9.546 6.75 6.75 0 01-9.546-9.546zm8.485 8.485a5.25 5.25 0 10-7.424-7.424 5.25 5.25 0 007.424 7.424zm-5.494-.866a.75.75 0 01-1.06-1.061l4.64-4.641a.75.75 0 011.061 1.06l-4.641 4.642zm7.664 8.588A5.252 5.252 0 0124 23.25a.75.75 0 01-1.5 0 3.75 3.75 0 00-7.5 0 .75.75 0 01-1.5 0 5.252 5.252 0 013.681-5.012 3.75 3.75 0 01-2.256-2.691.75.75 0 011.467-.314 2.25 2.25 0 103.875-1.973.75.75 0 111.116-1.003 3.75 3.75 0 01-1.251 5.927zm-16.341.021a3.75 3.75 0 112.919 0 5.252 5.252 0 013.79 5.045.75.75 0 01-1.5 0 3.75 3.75 0 00-7.5 0 .75.75 0 01-1.5 0 5.252 5.252 0 013.79-5.045zm3.05-5.046a2.25 2.25 0 10-3.182 3.182 2.25 2.25 0 003.182-3.182z"/></symbol><symbol viewBox="0 0 24 24" id="reminder"><g id="reminder-Icons" stroke-width="1" fill-rule="evenodd"><path d="M1.918 18h15.517a8.119 8.119 0 01-.665-1.995.75.75 0 011.472-.286c.182.935.564 1.82 1.119 2.594a.75.75 0 01-.61 1.187h-18a.75.75 0 01-.63-1.156 3.34 3.34 0 00.181-.36c.16-.354.324-.8.478-1.343.45-1.585.721-3.619.721-6.141a8.25 8.25 0 017.5-8.216V.75a.75.75 0 011.5 0V3a.75.75 0 01-.75.75 6.75 6.75 0 00-6.75 6.75c0 2.658-.29 4.83-.778 6.55-.102.359-.205.675-.305.95zm10.56-16.023a6.75 6.75 0 119.546 9.546 6.75 6.75 0 01-9.546-9.546zm8.485 8.485a5.25 5.25 0 10-7.424-7.424 5.25 5.25 0 007.424 7.424zM18.001 7.5h1.5a.75.75 0 010 1.5h-2.25a.75.75 0 01-.75-.75V4.5a.75.75 0 111.5 0v3zM7.03 21.961a.75.75 0 011.439-.422 1.337 1.337 0 002.566 0 .75.75 0 011.439.422 2.837 2.837 0 01-5.444 0z" id="reminder-Shape" fill-rule="nonzero"/></g></symbol><symbol viewBox="0 0 24 24" id="remove-g"><path d="M12 2.001c-5.52 0-10 4.48-10 10s4.48 10 10 10 10-4.48 10-10-4.48-10-10-10zm5 11H7v-2h10v2z"/></symbol><symbol viewBox="0 0 25 24" id="rest-g"><g id="rest-g-Icons" stroke-width="1" fill-rule="evenodd"><path d="M11.056 2.078a9.731 9.731 0 00-.88 2.662c-.912 5.165 2.425 10.061 7.438 10.946 1.308.23 2.651.166 3.938-.189.835-.23 1.548.638 1.16 1.412-1.461 2.917-4.066 5.071-7.164 5.918-6.014 1.645-12.148-2-13.699-8.126C.302 8.589 3.9 2.307 9.898.666c.834-.228 1.545.639 1.158 1.412zm3.964 18.82a9.321 9.321 0 004.742-3.093c-.833.046-1.67-.004-2.495-.15-6.112-1.078-10.162-7.021-9.06-13.263.059-.333.132-.663.219-.989C4.717 5.437 2.69 9.874 3.788 14.21c1.278 5.048 6.306 8.035 11.232 6.688z" id="rest-g-Shape" fill-rule="nonzero"/></g></symbol><symbol viewBox="0 0 25 24" id="rest"><g id="rest-Icons" stroke-width="1" fill-rule="evenodd"><path d="M10.541 3.48a9.478 9.478 0 006.799 13.633 9.412 9.412 0 004.05-.172.75.75 0 01.861 1.065 10.972 10.972 0 01-6.983 5.63c-5.86 1.542-11.861-1.958-13.404-7.818C.322 9.958 3.822 3.958 9.682 2.415a.75.75 0 01.86 1.065zm4.345 18.705a9.472 9.472 0 005.171-3.483c-.99.099-1.992.062-2.977-.111-5.971-1.055-9.957-6.75-8.903-12.72.088-.497.21-.986.364-1.464-4.123 1.876-6.418 6.501-5.226 11.03a9.472 9.472 0 0011.57 6.748zM16.235 2.25V.75a.75.75 0 111.5 0v1.5h1.505a.75.75 0 110 1.5h-1.505v1.5a.75.75 0 11-1.5 0v-1.5H14.73a.75.75 0 110-1.5h1.505zM21 9v-.75a.75.75 0 111.5 0V9h.75a.75.75 0 110 1.5h-.75v.75a.75.75 0 11-1.5 0v-.75h-.75a.75.75 0 110-1.5H21z" id="rest-Shape" fill-rule="nonzero"/></g></symbol><symbol viewBox="0 0 25 24" id="salary"><g id="salary-Icons" stroke-width="1" fill-rule="nonzero"><path d="M14 1.5H4.25a.75.75 0 00-.75.75v19.5c0 .414.336.75.75.75h16.5a.75.75 0 00.75-.75V9.5h-5.25A2.25 2.25 0 0114 7.25V1.5zm1.5.31v5.44c0 .414.336.75.75.75h5.24a.748.748 0 00-.21-.409l-5.78-5.78zM23 21.75A2.25 2.25 0 0120.75 24H4.25A2.25 2.25 0 012 21.75V2.25A2.25 2.25 0 014.25 0h10.629c.597 0 1.169.237 1.59.659l5.872 5.872c.422.421.659.993.659 1.59V21.75zm-9.5-5.5a.75.75 0 110-1.5h5a.75.75 0 110 1.5h-5zm-6.25 3.5a.75.75 0 110-1.5H18.5a.75.75 0 110 1.5H7.25zm1.308-7.531c.764 0 1.313-.412 1.313-.797 0-.386-.546-.796-1.309-.796-1.513 0-2.812-.975-2.812-2.298s1.298-2.297 2.782-2.296a2.971 2.971 0 012.485 1.17.75.75 0 11-1.194.908 1.488 1.488 0 00-1.261-.579c-.764 0-1.312.411-1.312.797 0 .386.549.798 1.312.798 1.513 0 2.809.973 2.809 2.296 0 1.102-.9 1.961-2.059 2.218V14a.75.75 0 11-1.5 0v-.353a2.977 2.977 0 01-1.708-1.098.75.75 0 111.192-.91 1.489 1.489 0 001.262.58z" id="salary-Shape"/><path d="M8.062 5.5v1.031a.75.75 0 001.5 0V5.5a.75.75 0 00-1.5 0z" id="salary-Path"/></g></symbol><symbol viewBox="0 0 24 24" id="search-g"><path d="M16.12 17.534a8.5 8.5 0 111.414-1.414l4.815 4.815a1 1 0 01-1.414 1.414l-4.815-4.815zm-5.262-.176a6.5 6.5 0 100-13 6.5 6.5 0 000 13z"/></symbol><symbol viewBox="0 0 24 24" id="search-list-g"><path d="M10.757 17.243a6 6 0 119.134-.766l3.816 3.816a1 1 0 01-1.414 1.414l-3.816-3.816a6.002 6.002 0 01-7.72-.648zm7.071-1.415a4 4 0 10-5.656-5.656 4 4 0 005.656 5.656zM6.5 7c.55 0 1 .45 1 1s-.45 1-1 1H1c-.55 0-1-.45-1-1s.45-1 1-1h5.5zm5-4c.55 0 1 .45 1 1s-.45 1-1 1H1c-.55 0-1-.45-1-1s.45-1 1-1h10.5zM1 13c-.55 0-1-.45-1-1s.45-1 1-1h4c.55 0 1 .45 1 1s-.45 1-1 1H1z"/></symbol><symbol viewBox="0 0 24 24" id="search"><g id="search-Icons" stroke-width="1" fill-rule="evenodd"><path d="M17.263 16.203l6.517 6.517a.75.75 0 01-1.06 1.06l-6.518-6.517a9.812 9.812 0 01-10.061 1.65C1.115 16.883-1.315 11.165.713 6.14 2.741 1.114 8.459-1.316 13.485.712c5.026 2.028 7.456 7.746 5.428 12.772a9.802 9.802 0 01-1.65 2.719zm-1.52-.562A8.313 8.313 0 103.883 3.983a8.313 8.313 0 0011.86 11.658z" id="search-Shape" fill-rule="nonzero"/></g></symbol><symbol viewBox="0 0 24 24" id="segment-g"><g id="segment-g-Icons" stroke-width="1" fill-rule="evenodd"><path d="M22.5 9.5a1 1 0 01-1 1h-7a1 1 0 01-1-1v-7a1 1 0 011-1 8 8 0 018 8zm-11 3h8a1 1 0 011 1c0 5.523-4.477 10-10 10s-10-4.477-10-10 4.477-10 10-10a1 1 0 011 1v8zm-9 1a8 8 0 0015.938 1H10.5a1 1 0 01-1-1V5.562a8.001 8.001 0 00-7 7.938z" id="segment-g-Shape" fill-rule="nonzero"/></g></symbol><symbol viewBox="0 0 24 24" id="settings"><g id="settings-Icons" stroke-width="1" fill-rule="evenodd"><path d="M11.1 1.935a1.208 1.208 0 001.8-.001l.944-1.036a2.71 2.71 0 014.717 1.954l-.071 1.4a1.209 1.209 0 001.265 1.268l1.401-.07a2.71 2.71 0 011.95 4.717l-1.042.94a1.21 1.21 0 000 1.797l1.043.94a2.71 2.71 0 01-1.955 4.718l-1.401-.071a1.209 1.209 0 00-1.269 1.27l.071 1.405a2.71 2.71 0 01-4.71 1.947l-.941-1.042a1.21 1.21 0 00-1.797.002l-.946 1.042a2.71 2.71 0 01-4.712-1.952l.072-1.401a1.209 1.209 0 00-1.27-1.27l-1.399.072a2.71 2.71 0 01-1.958-4.715l1.041-.94a1.21 1.21 0 00-.001-1.798L.89 10.166a2.71 2.71 0 011.951-4.713l1.402.071a1.209 1.209 0 001.27-1.275l-.067-1.403A2.71 2.71 0 0110.16.897l.94 1.038zm-2.05-.03a1.21 1.21 0 00-2.104.87l.067 1.398a2.71 2.71 0 01-2.846 2.85l-1.399-.07A1.209 1.209 0 001.9 9.054l1.04.944a2.711 2.711 0 010 4.024l-1.04.94a1.209 1.209 0 00.874 2.102l1.4-.07a2.71 2.71 0 012.845 2.844l-.072 1.396a1.21 1.21 0 002.103.87l.944-1.04a2.71 2.71 0 014.022 0l.939 1.038a1.21 1.21 0 002.1-.866l-.07-1.4a2.71 2.71 0 012.844-2.845l1.4.071a1.21 1.21 0 00.873-2.105l-1.043-.94a2.711 2.711 0 010-4.025l1.043-.94a1.21 1.21 0 00-.87-2.105l-1.402.071a2.71 2.71 0 01-2.838-2.842l.071-1.401a1.21 1.21 0 00-2.107-.87l-.944 1.035a2.708 2.708 0 01-4.023.001l-.939-1.037zm-.765 6.387a5.252 5.252 0 117.428 7.428 5.252 5.252 0 01-7.428-7.428zm6.367 6.367a3.752 3.752 0 10-5.306-5.306 3.752 3.752 0 005.306 5.306z" id="settings-Shape" fill-rule="nonzero"/></g></symbol><symbol viewBox="0 0 24 24" id="shield-check-g"><path d="M2 11.708V4.683a2.379 2.379 0 011.401-2.177 21.006 21.006 0 018.59-1.755c2.96-.028 5.894.57 8.624 1.762A2.37 2.37 0 0122 4.68v7.028c0 4.961-3.055 9.41-7.686 11.192l-.96.369a3.769 3.769 0 01-2.707 0l-.961-.37A11.991 11.991 0 012 11.71zm2-7.035V11.708a9.991 9.991 0 006.404 9.325l.96.37a1.77 1.77 0 001.271-.001l.961-.37A9.991 9.991 0 0020 11.709V4.673a.368.368 0 00-.201-.334 19.055 19.055 0 00-7.808-1.588 19.013 19.013 0 00-7.773 1.58.373.373 0 00-.218.342zM15.318 8.29a1 1 0 011.414.006 1 1 0 010 1.47l-5.166 5.166a1 1 0 01-1.414-.006l-2.34-2.34a1.022 1.022 0 011.42-1.47l1.63 1.64 4.45-4.46a.998.998 0 01.006-.006z"/></symbol><symbol viewBox="0 0 24 24" id="shield-check"><path d="M1.5 3.929a2.242 2.242 0 011.318-2.054A22.432 22.432 0 0111.993 0c3.16-.03 6.292.61 9.201 1.879A2.235 2.235 0 0122.5 3.924v7.614c0 5.237-3.225 9.933-8.113 11.813l-1.04.4a3.75 3.75 0 01-2.693 0l-1.041-.4A12.657 12.657 0 011.5 11.538V3.929zm8.651 18.022l1.041.4c.52.2 1.096.2 1.616 0l1.04-.4A11.157 11.157 0 0021 11.538v-7.62a.733.733 0 00-.418-.669 20.968 20.968 0 00-8.589-1.748A20.937 20.937 0 003.43 3.244a.739.739 0 00-.43.68v7.614c0 4.616 2.843 8.756 7.151 10.413zm6.307-10.307a.75.75 0 111.484.214A6 6 0 1112 5.001a.75.75 0 11.002 1.5 4.5 4.5 0 104.457 5.143zm-5.89-1.83L12 11.252l4.72-4.72a.75.75 0 111.06 1.061l-4.786 4.787a1.407 1.407 0 01-1.99-.002l-1.5-1.505a.75.75 0 111.063-1.059z"/></symbol><symbol viewBox="0 0 24 24" id="shield-lock"><path d="M1.5 3.929a2.242 2.242 0 011.318-2.054A22.432 22.432 0 0111.993 0c3.16-.03 6.292.61 9.201 1.879A2.235 2.235 0 0122.5 3.924v7.614c0 5.237-3.225 9.933-8.113 11.813l-1.04.4a3.75 3.75 0 01-2.693 0l-1.041-.4A12.657 12.657 0 011.5 11.538V3.929zm8.651 18.022l1.041.4c.52.2 1.096.2 1.616 0l1.04-.4A11.157 11.157 0 0021 11.538v-7.62a.733.733 0 00-.418-.669 20.968 20.968 0 00-8.589-1.748A20.937 20.937 0 003.43 3.244a.739.739 0 00-.43.68v7.614c0 4.616 2.843 8.756 7.151 10.413zM8.216 9.056V7.818C8.216 5.71 9.91 4 12 4s3.784 1.71 3.784 3.818v1.238A1.978 1.978 0 0117 10.886v4.91a1.968 1.968 0 01-1.96 1.977H8.96A1.968 1.968 0 017 15.795v-4.909c0-.826.503-1.534 1.216-1.83zm1.487-.147h4.594V7.82A2.308 2.308 0 0012 5.5a2.308 2.308 0 00-2.297 2.318V8.91zm-.744 7.364h6.082a.475.475 0 00.473-.478v-4.909a.475.475 0 00-.473-.477H8.959a.475.475 0 00-.473.477v4.91c0 .263.212.477.473.477zm3.612-1.773c0 .316-.311.5-.571.5-.26 0-.571-.184-.571-.5v-1.18A.999.999 0 0112 11.5a1 1 0 01.571 1.82v1.18z"/></symbol><symbol viewBox="0 0 24 24" id="shield-person-g"><path d="M1.5 4.11a2.46 2.46 0 011.445-2.254A22.056 22.056 0 0111.99 0a22.099 22.099 0 019.08 1.862 2.452 2.452 0 011.429 2.24v7.445c0 5.23-3.21 9.92-8.077 11.798l-1.014.391c-.907.35-1.911.35-2.818 0l-1.015-.39a12.641 12.641 0 01-8.076-11.8V4.11zm8.796 17.37l1.015.392c.443.17.934.17 1.379 0l1.013-.392a10.641 10.641 0 006.797-9.932V4.097a.45.45 0 00-.247-.41 20.105 20.105 0 00-8.262-1.686 20.063 20.063 0 00-8.228 1.68.457.457 0 00-.263.422v7.445c0 4.404 2.702 8.352 6.796 9.932zM12 13.5a4.5 4.5 0 110-9 4.5 4.5 0 010 9zm0-2a2.5 2.5 0 100-5 2.5 2.5 0 000 5zm4.737 5.093a1 1 0 11-1.474 1.352 4.446 4.446 0 00-3.287-1.445c-1.247 0-2.41.513-3.248 1.403a1 1 0 11-1.456-1.371 6.445 6.445 0 014.704-2.032c1.833 0 3.545.769 4.76 2.093z"/></symbol><symbol viewBox="0 0 25 24" id="shield-person"><g fill-rule="nonzero"><path d="M1.5 11.538V3.927a2.242 2.242 0 011.318-2.052A22.432 22.432 0 0111.993 0c3.16-.03 6.292.61 9.201 1.879A2.235 2.235 0 0122.5 3.924v7.614c0 5.237-3.225 9.933-8.113 11.813l-1.04.4a3.75 3.75 0 01-2.693 0l-1.041-.4A12.657 12.657 0 011.5 11.538zm1.93-8.294a.739.739 0 00-.43.68v7.614c0 4.616 2.843 8.756 7.151 10.413l1.041.4c.52.2 1.096.2 1.616 0l1.04-.4A11.157 11.157 0 0021 11.538v-7.62a.733.733 0 00-.418-.669 20.968 20.968 0 00-8.589-1.748A20.937 20.937 0 003.43 3.244z"/><path d="M12 12.5a4 4 0 110-8 4 4 0 010 8zm0-1.5a2.5 2.5 0 100-5 2.5 2.5 0 000 5zm5.623 5.255a.75.75 0 11-1.246.834 5.292 5.292 0 00-.656-.798A5.243 5.243 0 0012 14.75c-1.415 0-2.74.56-3.721 1.541a5.292 5.292 0 00-.656.798.75.75 0 11-1.246-.834A6.743 6.743 0 0112 13.25c1.817 0 3.522.721 4.782 1.98.313.314.595.657.841 1.025z"/></g></symbol><symbol viewBox="0 0 25 24" id="sick-g"><g id="sick-g-Icons" stroke-width="1" fill-rule="evenodd"><path d="M10.556 17.514a2.156 2.156 0 11-1.82-1.797l6.386-8.788a1.003 1.003 0 111.623 1.179l-6.385 8.788c.094.19.16.398.196.618zM21.642 6.998L14.325 17.07A5.968 5.968 0 117.347 12l7.317-10.07a4.313 4.313 0 016.978 5.07zm-9.19 9.236L20.02 5.819a2.307 2.307 0 00-3.732-2.712L8.72 13.522c-.168.23-.426.38-.71.408a3.962 3.962 0 104.274 3.105c-.06-.28.001-.57.169-.801z" id="sick-g-Shape" fill-rule="nonzero"/></g></symbol><symbol viewBox="0 0 25 24" id="sick"><g id="sick-Icons" stroke-width="1" fill-rule="evenodd"><path d="M10.5 16.612a2.246 2.246 0 01.844 3.71 2.251 2.251 0 01-3.182 0A2.246 2.246 0 019 16.614l.003-9.859a.75.75 0 011.5 0l-.003 9.857zm-.743 1.371h-.011a.748.748 0 00-.523 1.28.75.75 0 10.534-1.28zM13.5 3.747v11.337a5.242 5.242 0 01-.25 7.58 5.253 5.253 0 01-7.413-.412A5.242 5.242 0 016 15.084V3.747A3.748 3.748 0 019.75 0a3.748 3.748 0 013.75 3.747zM12 15.404V3.747a2.249 2.249 0 00-2.25-2.248A2.249 2.249 0 007.5 3.747v11.657c0 .213-.09.416-.25.558a3.744 3.744 0 00-.295 5.29 3.752 3.752 0 005.295.295 3.744 3.744 0 000-5.585.749.749 0 01-.25-.558zm5.097-4.653a.75.75 0 110-1.498h4.153a.75.75 0 110 1.498h-4.153zm0 3.068a.75.75 0 110-1.499h2.153a.75.75 0 110 1.499h-2.153zM20 3.758h1.5a.75.75 0 110 1.498H20v1.499a.75.75 0 01-1.5 0V5.256H17a.75.75 0 110-1.498h1.5V2.259a.75.75 0 011.5 0v1.499z" id="sick-Shape" fill-rule="nonzero"/></g></symbol><symbol viewBox="0 0 24 24" id="sliders-g"><path d="M3 9.75a1 1 0 110-2h11.635a3.752 3.752 0 017.365 1 3.751 3.751 0 01-7.365 1H3zm18 5.5a1 1 0 110 2h-8.384a3.751 3.751 0 01-7.23 0H3a1 1 0 010-2h2.386a3.752 3.752 0 017.23 0H21zm-10.249 1a1.75 1.75 0 10-3.5 0 1.75 1.75 0 003.5 0zm7.498-5.75A1.751 1.751 0 0018.25 7a1.75 1.75 0 00-.001 3.5z"/></symbol><symbol viewBox="0 0 24 24" id="social-climat"><path d="M2.574 11.206l6.913 6.935.795-.798a.75.75 0 111.063 1.058l-1.326 1.332a.75.75 0 01-1.063 0l-7.43-7.455A4.875 4.875 0 01.55 6.491c1.335-2.502 4.475-3.465 7.016-2.157.446.23.856.522 1.219.869l.696.67.697-.672c2.056-1.969 5.343-1.928 7.348.092.353.355.651.758.886 1.198a.75.75 0 01-1.324.706 3.627 3.627 0 00-.626-.848 3.76 3.76 0 00-5.245-.065L10 7.454a.75.75 0 01-1.04 0l-1.215-1.17a3.701 3.701 0 00-.866-.617c-1.816-.934-4.06-.246-5.002 1.522-.692 1.336-.416 2.958.696 4.017zM24 13.406a4.4 4.4 0 01-4.405 4.394h-5.062a3.027 3.027 0 01-2.735-4.336c.68-1.417 2.165-2.151 3.732-1.736A4.401 4.401 0 0124 13.405zm-8.77.545a4.459 4.459 0 01-.029-.763c-.89-.26-1.675.13-2.055.922a1.533 1.533 0 001.385 2.196h5.066a2.906 2.906 0 10-2.853-3.443 2.808 2.808 0 00-.031.9m0 0c.124.993-1.358 1.162-1.483.17"/></symbol><symbol viewBox="0 0 24 24" id="stethoscope-g"><path d="M18.885 16.865A5.635 5.635 0 0113.25 22.5a5.632 5.632 0 01-5.634-5.625 6.527 6.527 0 00-2.185-4.62A5.62 5.62 0 013 7.636V4.558A2.558 2.558 0 015.558 2h.769a1.02 1.02 0 010 2.038h-.77a.52.52 0 00-.519.52v3.077a3.596 3.596 0 007.193 0V4.558a.52.52 0 00-.52-.52h-.769a1.02 1.02 0 010-2.038h.77a2.558 2.558 0 012.557 2.558v3.076a5.601 5.601 0 01-2.393 4.604 6.53 6.53 0 00-2.222 4.627 3.596 3.596 0 007.192 0v-.689a3.327 3.327 0 112.039 0v.69zm-1.02-2.307a1.538 1.538 0 100-3.077 1.538 1.538 0 000 3.077z"/></symbol><symbol viewBox="0 0 24 24" id="stethoscope"><g id="stethoscope-Icons" stroke-width="1" fill-rule="evenodd"><path d="M7.5 16.459v.041a6 6 0 0012 0v-2.825a3.75 3.75 0 111.5 0V16.5a7.5 7.5 0 01-15 0v-.041A6.751 6.751 0 010 9.75v-6A2.25 2.25 0 012.25 1.5H3V.75a.75.75 0 111.5 0V4.5a.75.75 0 11-1.5 0V3h-.75a.75.75 0 00-.75.75v6a5.25 5.25 0 1010.5 0v-6a.75.75 0 00-.75-.75h-.75v1.5a.75.75 0 11-1.5 0V.75a.75.75 0 111.5 0v.75h.75a2.25 2.25 0 012.25 2.25v6a6.751 6.751 0 01-6 6.709zm14.341-4.868a2.25 2.25 0 10-3.182-3.182 2.25 2.25 0 003.182 3.182z" id="stethoscope-Shape" fill-rule="nonzero"/></g></symbol><symbol viewBox="0 0 25 25" id="talk-g"><g id="talk-g-Icons" stroke-width="1" fill-rule="evenodd"><path d="M9.748 23.002v-3.25h-.5a2.5 2.5 0 01-2.5-2.5v-3.5a1 1 0 112 0v3.5a.5.5 0 00.5.5h1.5a1 1 0 011 1v1.93l2.813-2.657a1 1 0 01.687-.273h7a.5.5 0 00.5-.5v-5.5a.5.5 0 00-.5-.5h-3.482a1 1 0 110-2h3.482a2.5 2.5 0 012.5 2.5v5.5a2.5 2.5 0 01-2.5 2.5h-6.602l-4.211 3.977c-.638.603-1.687.15-1.687-.727zm4-9.75c0 .878-1.049 1.33-1.687.727l-4.21-3.977H3.747a2.5 2.5 0 01-2.5-2.5v-5a2.5 2.5 0 012.5-2.5h10.5a2.5 2.5 0 012.5 2.5v5c0 1.414-1.587 2.5-3 2.5v3.25zm-2-4.25a1 1 0 011-1h1c.434 0 1-.387 1-.5v-5a.5.5 0 00-.5-.5h-10.5a.5.5 0 00-.5.5v5a.5.5 0 00.5.5h4.5a1 1 0 01.687.273l2.813 2.657v-1.93z" id="talk-g-Shape" fill-rule="nonzero"/></g></symbol><symbol viewBox="0 0 24 25" id="talk"><path d="M16.638 6.511a3.375 3.375 0 114.095.525 5.215 5.215 0 013.224 3.217.75.75 0 11-1.416.494 3.724 3.724 0 00-7.033 0 .75.75 0 11-1.416-.494 5.224 5.224 0 013.224-3.216 3.38 3.38 0 01-.678-.526zM3.265 19.787a3.375 3.375 0 113.417-.001 5.215 5.215 0 013.226 3.217.75.75 0 11-1.416.494 3.724 3.724 0 00-7.033 0 .75.75 0 11-1.416-.494 5.224 5.224 0 013.222-3.216zM13.5 23.25v-1.5h-.75a2.25 2.25 0 01-2.25-2.25V15a2.25 2.25 0 012.25-2.25h9a2.25 2.25 0 012.25 2.25v4.5a2.25 2.25 0 01-2.25 2.25h-4.25l-2.8 2.1a.75.75 0 01-1.2-.6zm1.5-2.25v.75l1.8-1.35a.75.75 0 01.45-.15h4.5a.75.75 0 00.75-.75V15a.75.75 0 00-.75-.75h-9a.75.75 0 00-.75.75v4.5c0 .414.336.75.75.75h1.5a.75.75 0 01.75.75zm-8.7-5.45a1.875 1.875 0 10-2.652 2.65A1.875 1.875 0 006.3 15.55zM20.349 2.8a1.875 1.875 0 10-2.65 2.65 1.875 1.875 0 002.65-2.65zM17.5 16.75a.75.75 0 110-1.5h2.75a.75.75 0 110 1.5H17.5zM14.25 19a.75.75 0 110-1.5h6a.75.75 0 110 1.5h-6zM2.249 9a2.25 2.25 0 01-2.25-2.25v-4.5A2.25 2.25 0 012.249 0h9a2.25 2.25 0 012.25 2.25v4.5A2.25 2.25 0 0111.249 9h-.75v1.5a.75.75 0 01-1.2.6L6.499 9h-4.25zm6.75-.75a.75.75 0 01.75-.75h1.5a.75.75 0 00.75-.75v-4.5a.75.75 0 00-.75-.75h-9a.75.75 0 00-.75.75v4.5c0 .414.336.75.75.75h4.5a.75.75 0 01.45.15L8.999 9v-.75zM6.75 2.5a.75.75 0 010 1.5h-3a.75.75 0 010-1.5h3zm3 2.25a.75.75 0 110 1.5h-6a.75.75 0 010-1.5h6z"/></symbol><symbol viewBox="0 0 24 24" id="timelines-g"><path d="M3.5 10a1 1 0 110-2h5a1 1 0 110 2h-5zm9.5 0a1 1 0 010-2h7.5a1 1 0 110 2H13zm-9.5 6a1 1 0 010-2h12a1 1 0 010 2h-12zm16.128 0a1 1 0 110-2h.872a1 1 0 010 2h-.872z"/></symbol><symbol viewBox="0 0 24 24" id="today-g"><g id="today-g-Icons" stroke-width="1" fill-rule="evenodd"><path d="M19 4h-1V2h-2v2H8V2H6v2H5a2 2 0 00-2 2v14a2 2 0 002 2h14c1.1 0 2-.9 2-2V6c0-1.1-.9-2-2-2zm0 16H5V10h14v10zm0-12H5V6h14v2zM7 12h5v5H7v-5z" id="today-g-Shape"/></g></symbol><symbol viewBox="0 0 24 24" id="trash-g"><path d="M20 6a1 1 0 010 2h-1v11a3 3 0 01-3 3H8a3 3 0 01-3-3V8H4a1 1 0 110-2h4V5a3 3 0 013-3h2a3 3 0 013 3v1h4zM10 5v1h4V5a1 1 0 00-1-1h-2a1 1 0 00-1 1zm7 14V8H7v11a1 1 0 001 1h8a1 1 0 001-1zm-7.83-7.708a.996.996 0 011.41 0l1.42 1.42 1.42-1.42a.996.996 0 111.41 1.41l-1.42 1.42 1.42 1.42a.996.996 0 11-1.41 1.41L12 15.532l-1.42 1.42a.996.996 0 11-1.41-1.41l1.42-1.42-1.42-1.42a.996.996 0 010-1.41z"/></symbol><symbol viewBox="0 0 24 24" id="trash"><g id="trash-Icons" stroke-width="1" fill-rule="evenodd"><path d="M13.312 12.93l2.65 2.65a.75.75 0 01-1.061 1.06l-2.65-2.65-2.65 2.65a.75.75 0 01-1.06-1.06l2.65-2.65-2.65-2.65A.75.75 0 019.6 9.22l2.65 2.65 2.65-2.65a.75.75 0 011.06 1.06l-2.65 2.65zM4 3.5h3.75v-.75A2.25 2.25 0 0110.001.5h4.5a2.25 2.25 0 012.25 2.25v.75h6a.75.75 0 110 1.5h-1.56l-1.328 15.936A2.25 2.25 0 0117.621 23H6.882a2.25 2.25 0 01-2.242-2.064L3.31 5H1.752a.75.75 0 010-1.5h2.25zm5.25 0h6v-.75a.75.75 0 00-.75-.75h-4.5a.75.75 0 00-.75.75v.75zM6.134 20.812a.75.75 0 00.748.688h10.74c.39 0 .714-.3.747-.688L19.686 5H4.816l1.318 15.812z" id="trash-Shape" fill-rule="nonzero"/></g></symbol><symbol viewBox="0 0 24 24" id="treatment"><g id="treatment-Icons" stroke-width="1" fill-rule="evenodd"><path d="M22.5 22.5H3v.75a.75.75 0 11-1.5 0v-9a.75.75 0 111.5 0V18h2.651a3.001 3.001 0 115.198 0H12v-3.75a.75.75 0 01.75-.75h8.5A2.75 2.75 0 0124 16.25v7a.75.75 0 01-1.5 0v-.75zM3 19.5V21h19.5v-1.5H3zM22.5 18v-1.75c0-.69-.56-1.25-1.25-1.25H13.5v3h9zM14.379.879A3 3 0 1118.62 5.12 3 3 0 0114.38.88zM17.56 4.06a1.5 1.5 0 10-2.122-2.122 1.5 1.5 0 002.122 2.122zm-8.25 13.5a1.5 1.5 0 10-2.122-2.122 1.5 1.5 0 002.122 2.122zM13.5 11.25a.75.75 0 01-1.5 0 3.75 3.75 0 013.75-3.75h1.5A3.75 3.75 0 0121 11.25a.75.75 0 01-1.5 0A2.25 2.25 0 0017.25 9h-1.5a2.25 2.25 0 00-2.25 2.25zm-6-9.75V3H9a1.5 1.5 0 011.5 1.5V6A1.5 1.5 0 019 7.5H7.5V9A1.5 1.5 0 016 10.5H4.5A1.5 1.5 0 013 9V7.5H1.5A1.5 1.5 0 010 6V4.5A1.5 1.5 0 011.5 3H3V1.5A1.5 1.5 0 014.5 0H6a1.5 1.5 0 011.5 1.5zM9 6V4.5H6.75A.75.75 0 016 3.75V1.5H4.5v2.25a.75.75 0 01-.75.75H1.5V6h2.25a.75.75 0 01.75.75V9H6V6.75A.75.75 0 016.75 6H9z" id="treatment-Shape" fill-rule="nonzero"/></g></symbol><symbol viewBox="0 0 24 24" id="unarchive-g"><g id="unarchive-g-Icons" stroke-width="1" fill-rule="evenodd"><path d="M20.54 5.23l-1.39-1.68C18.88 3.21 18.47 3 18 3H6c-.47 0-.88.21-1.16.55L3.46 5.23C3.17 5.57 3 6.02 3 6.5V19c0 1.1.9 2 2 2h14c1.1 0 2-.9 2-2V6.5c0-.48-.17-.93-.46-1.27zM6.24 5h11.52l.83 1H5.42l.82-1zM5 19V8h14v11H5zm3-5h2.55v3h2.9v-3H16l-4-4-4 4z" id="unarchive-g-Shape"/></g></symbol><symbol viewBox="0 0 25 24" id="warning-g"><path d="M11.18 18.343a1.343 1.343 0 112.685 0 1.343 1.343 0 01-2.685 0zm2.342-3.995a1 1 0 11-2 0V8.5a1 1 0 112 0v5.848zM11.354.772a2.649 2.649 0 013.546 1.21l9.15 18.12a2.389 2.389 0 01-2.146 3.442H3.141a2.389 2.389 0 01-2.146-3.442l9.15-18.12a2.649 2.649 0 011.21-1.21zm10.9 20.211l-9.15-18.12a.649.649 0 00-1.164 0l-9.15 18.12a.389.389 0 00.35.56h18.765a.389.389 0 00.349-.56z"/></symbol><symbol viewBox="0 0 24 24" id="yang-g"><path d="M15.862 2.795c.176.064.349.138.517.22a9.993 9.993 0 014.837 12.86c-2.14 5.087-8 7.477-13.087 5.337a5.545 5.545 0 01-.517-.22 9.993 9.993 0 01-4.837-12.86c2.14-5.088 8-7.478 13.087-5.337zM4.796 8.516a7.989 7.989 0 003.693 10.677 3.5 3.5 0 103.068-6.291 5.484 5.484 0 01-1.693-8.597 7.989 7.989 0 00-5.068 4.211zm9.331 11.185a7.989 7.989 0 001.376-14.888 3.5 3.5 0 00-3.069 6.291 5.484 5.484 0 011.693 8.597zM8.8 15.51a1.5 1.5 0 112.696 1.315A1.5 1.5 0 018.8 15.51zm6.087-8.821a1.5 1.5 0 11-1.315 2.696 1.5 1.5 0 011.315-2.696z"/></symbol><symbol viewBox="0 0 24 24" id="yang"><path d="M7.736 2.405C3.878 4.12 1.282 8.083 1.516 12.552c.304 5.79 5.244 10.24 11.036 9.936a10.61 10.61 0 001.224-.136 7.364 7.364 0 01-1.553-1.068c-2.946-2.653-3.247-7.243-.828-10.74 1.48-2.066 1.232-4.903-.562-6.66l-.051-.045a5.85 5.85 0 00-3.046-1.434zm2.493-.753c.56.287 1.083.646 1.556 1.071l.074.068a6.647 6.647 0 01.763 8.616c-2 2.892-1.755 6.638.603 8.761a5.857 5.857 0 003.043 1.431c3.859-1.716 6.454-5.678 6.22-10.147-.304-5.79-5.244-10.24-11.036-9.936a10.61 10.61 0 00-1.223.136zM11.374.018c6.618-.346 12.265 4.738 12.612 11.356.346 6.618-4.738 12.265-11.356 12.612C6.012 24.332.365 19.248.018 12.63-.328 6.012 4.756.365 11.374.018zM7.386 4.991a3 3 0 11.314 5.992 3 3 0 01-.314-5.992zm.236 4.494a1.5 1.5 0 10-.157-2.996 1.5 1.5 0 00.157 2.996zm8.682 3.536a3 3 0 11.314 5.992 3 3 0 01-.314-5.992zm.235 4.494a1.5 1.5 0 10-.157-2.996 1.5 1.5 0 00.157 2.996z"/></symbol></svg>