<svg version="1.1" xmlns="http://www.w3.org/2000/svg" xmlns:xlink="http://www.w3.org/1999/xlink"><symbol viewBox="0 0 22 24" id="bell"><title>Combined Shape</title> <!-- Generator: Sketch 51.2 (57519) - http://www.bohemiancoding.com/sketch -->    <g id="bell-Prototype" stroke-width="1" fill-rule="evenodd"> <path d="M7.59652763,21.6080163 C7.42872383,21.0363918 7.75608521,20.4369667 8.32770975,20.2691629 C8.89933429,20.1013591 9.4987594,20.4287205 9.6665632,21.000345 C9.81313674,21.4996486 10.2712548,21.8426146 10.7916275,21.8426146 C11.3120003,21.8426146 11.7701183,21.4996486 11.9166919,21.000345 C12.0844957,20.4287205 12.6839208,20.1013591 13.2555453,20.2691629 C13.8271699,20.4369667 14.1545312,21.0363918 13.9867274,21.6080163 C13.5704694,23.0260016 12.2694479,24 10.7916275,24 C9.31380718,24 8.01278569,23.0260016 7.59652763,21.6080163 Z M10.7889308,0 C15.8527678,0 19.9578187,4.10505094 19.9578187,9.16888789 C19.9578187,12.391123 20.2475604,14.6652093 20.7163135,16.1424066 C20.9590845,16.9074589 21.1483983,17.2076264 21.172386,17.2268805 C21.9668904,17.8646027 21.515952,19.1467953 20.497165,19.1467953 L1.08069656,19.1467953 C0.181478905,19.1467953 -0.322981895,18.1111968 0.23133294,17.403152 C0.347809916,17.254372 0.58945173,16.7756528 0.855131441,15.8753528 C1.33008666,14.2658879 1.62004291,12.0589342 1.62004291,9.16888789 C1.62004291,4.10505094 5.72509385,0 10.7889308,0 Z M18.6599775,16.7949355 C18.1174562,15.08527 17.8004333,12.5970629 17.8004333,9.16888789 C17.8004333,5.29654198 14.6612767,2.15738539 10.7889308,2.15738539 C6.91658489,2.15738539 3.7774283,5.29654198 3.7774283,9.16888789 C3.7774283,12.2572262 3.46061991,14.6685604 2.92430073,16.4859674 C2.87178024,16.6639418 2.81868982,16.8316622 2.76539866,16.9894099 L18.7237517,16.9894099 C18.702326,16.9261964 18.6810621,16.8613799 18.6599775,16.7949355 Z" id="bell-Combined-Shape" fill-rule="nonzero"/> </g> </symbol><symbol viewBox="0 0 119 102" id="biings-care"><title>biings-care</title> <!--Generated by IJSVG (https://github.com/iconjar/IJSVG)--> <path d="M57.6914,81.4753c2.8541,0 5.1678,2.28064 5.1678,5.09395c0,2.81331 -2.3137,5.09395 -5.1678,5.09395c-3.67317,0 -6.50533,-0.560563 -9.08251,-1.60601c-9.76802,8.42223 -21.0612,11.467 -36.689,11.8205c-4.72414,0.106847 -7.10391,-5.57583 -3.67885,-8.78482c0.333674,-0.312625 0.957123,-0.92071 1.77143,-1.7567c1.36491,-1.40124 2.72941,-2.89997 3.99179,-4.42242c1.24949,-1.5069 2.3255,-2.95071 3.17229,-4.27954c1.20472,-1.8905 1.82553,-3.38998 1.86362,-4.08733c-11.6685,-8.38433 -18.6109,-20.5264 -18.6109,-33.7016c8.88178e-16,-25.0286 24.7433,-44.8453 54.8019,-44.8453c25.2412,0 47.2204,14.0581 53.2221,34.0948c0.808223,2.69815 -0.755578,5.53126 -3.49285,6.32796c-2.73727,0.796673 -5.61145,-0.744781 -6.4197,-3.44293c-4.61893,-15.4197 -22.3987,-26.7918 -43.3098,-26.7918c-24.7683,0 -44.4662,15.7759 -44.4662,34.6574c3.55271e-15,10.3357 5.90343,20.0358 16.076,26.6384c1.22575,0.795583 2.05051,2.06737 2.26846,3.49797c0.177265,1.16355 0.268248,2.32943 0.268248,3.49932c0,3.0241 -1.2601,6.13739 -3.4489,9.57219c-0.516398,0.81036 -1.08279,1.63251 -1.69441,2.46479c7.94415,-1.50101 14.0734,-4.55605 19.6028,-10.0064c1.13154,-1.11537 2.72344,-1.6511 4.31071,-1.45071c1.43699,0.181418 5.46138,1.99375 4.53423,1.63101c1.27979,0.502986 2.75823,0.783449 5.00937,0.783449l3.87e-05,-5.1e-05Zm56.0953,-3.85455l-17.9816,17.7246c-1.66048,1.63675 -4.35266,1.63675 -6.01313,0l-17.9816,-17.7246c-6.03056,-5.94438 -6.03056,-15.5821 2.6e-06,-21.5265c5.71775,-5.63604 16.0481,-3.75009 20.9887,1.53451c4.71645,-5.2846 15.2724,-7.17072 20.9921,-1.53015c6.02801,5.94476 6.02571,15.5808 -0.004509,21.5221Z"/> </symbol><symbol viewBox="0 0 90 107" id="biings-claim"><title>biings-claim</title> <!--Generated by IJSVG (https://github.com/iconjar/IJSVG)--> <path d="M18.554,94.8408c-11.4734,0 -18.554,-7.22473 -18.554,-18.9417l-6.82121e-13,-56.9574c0,-11.722 7.06812,-18.9417 18.5415,-18.9417h52.917c11.4755,0 18.5415,7.22591 18.5415,18.9741v38.2629c0,2.71458 -2.15164,4.91518 -4.80582,4.91518c-2.65418,0 -4.80582,-2.2006 -4.80582,-4.91518v-38.2629c0,-6.31871 -2.76243,-9.14371 -8.92985,-9.14371h-52.917c-6.16775,0 -8.92985,2.82135 -8.92985,9.11137v56.9574c0,6.28268 2.77229,9.11137 8.94239,9.11137h55.7245v9.83036h-55.7245Zm10.1431,-58.8793c-2.65418,0 -4.80582,-2.2006 -4.80582,-4.91518c0,-2.71458 2.15164,-4.91518 4.80582,-4.91518h33.7892c2.65418,0 4.80582,2.2006 4.80582,4.91518c0,2.71458 -2.15164,4.91518 -4.80582,4.91518h-33.7892Zm0,18.6651c-2.65418,0 -4.80582,-2.2006 -4.80582,-4.91518c0,-2.71458 2.15164,-4.91518 4.80582,-4.91518h33.7892c2.65418,0 4.80582,2.2006 4.80582,4.91518c0,2.71458 -2.15164,4.91518 -4.80582,4.91518h-33.7892Zm43.2719,20.2857l16.1275,11.9907c2.0475,1.5223 2.47326,4.4162 0.950956,6.4637c-0.292863,0.393901 -0.646629,0.738613 -1.04799,1.02117l-16.1275,11.3535c-2.08628,1.46871 -4.96816,0.968077 -6.43688,-1.1182c-0.548046,-0.778489 -0.842189,-1.70729 -0.842189,-2.65934v-23.3442c0,-2.5514 2.06832,-4.61973 4.61973,-4.61973c0.99297,0 1.95951,0.31994 2.75637,0.912398Z"/> </symbol><symbol viewBox="0 0 137 137" id="biings-pilot"><title>biings-pilot</title> <!--Generated by IJSVG (https://github.com/iconjar/IJSVG)--> <path d="M108.836,108.836c2.20673,-2.20673 5.78455,-2.20673 7.99128,0c2.20673,2.20673 2.20673,5.78455 0,7.99128c-26.726,26.726 -70.0574,26.726 -96.7831,0c-26.726,-26.726 -26.726,-70.0574 -7.10543e-15,-96.7831c26.726,-26.726 70.0574,-26.726 96.7831,-7.10543e-15c18.3211,18.3211 24.542,45.0905 16.7785,69.3238c-0.952122,2.972 -4.13325,4.60944 -7.10525,3.65732c-2.972,-0.952122 -4.60944,-4.13325 -3.65732,-7.10526c6.48427,-20.2403 1.29138,-42.5859 -14.0073,-57.8846c-22.3122,-22.3125 -58.488,-22.3125 -80.8005,4.1e-05c-22.3125,22.3122 -22.3125,58.488 4.1e-05,80.8005c22.3122,22.3125 58.488,22.3125 80.8005,-2.1e-05Zm-13.0645,-60.5881l-10.9875,32.9624c-0.562442,1.68732 -1.88649,3.01137 -3.57381,3.57381l-32.9624,10.9875c-4.41747,1.47249 -8.62011,-2.73015 -7.14762,-7.14762l10.9875,-32.9624c0.562442,-1.68732 1.88649,-3.01137 3.57381,-3.57381l32.9624,-10.9875c4.41747,-1.47249 8.62011,2.73015 7.14762,7.14762Zm-33.8558,13.6678l-6.52019,19.5606l19.5606,-6.52019l-13.0404,-13.0404Z"/> </symbol><symbol viewBox="0 0 14 18" id="book"><title>book</title> <path d="M13.2222221,0 C13.6517769,-8.53412985e-09 13.9999999,0.348222964 13.9999999,0.777777773 L13.9999999,16.3333332 C13.9999999,16.762888 13.6517769,17.111111 13.2222221,17.111111 L2.72222224,17.111111 C1.21878184,17.1111109 0,15.8923292 0,14.3888888 L0,2.72222227 C2.27013516e-07,1.21878179 1.21878187,0 2.72222219,0 L13.2222221,0 Z M3.43286588,1.55555574 L2.72222229,1.55555575 C2.07789148,1.55555555 1.55555564,2.07789145 1.55555555,2.72222239 L1.55555555,14.3888888 C1.55555555,15.0332196 2.07789145,15.5555554 2.72222228,15.5555555 L12.4444444,15.5555555 L12.4444444,1.55555556 L7.47726634,1.55555566 C7.48127749,1.58562432 7.48325915,1.61652723 7.48325915,1.64797812 L7.48325915,6.85545943 L5.45274068,4.82494096 L3.4222222,6.85545943 L3.4222222,1.64797812 C3.4222222,1.61652725 3.42594975,1.58562437 3.43286588,1.55555574 Z M1.55555563,14.3888892 L8.50122888e-08,14.3888894 C-1.42001227e-07,12.885449 1.21878187,11.6666671 2.72222229,11.6666671 L13.2222222,11.6666671 L13.2222222,13.2222226 L2.72222229,13.2222226 C2.0778915,13.2222226 1.55555553,13.7445586 1.55555563,14.3888892 Z"/> </symbol><symbol viewBox="0 0 24 24" id="briefcase"><title>Slice</title> <!-- Generator: Sketch 51.2 (57519) - http://www.bohemiancoding.com/sketch -->    <g id="briefcase-Symbols" stroke-width="1" fill-rule="evenodd"> <path d="M4,7 C2.8954305,7 2,7.8954305 2,9 L2,18.7142857 C2,19.8188552 2.8954305,20.7142857 4,20.7142857 L20,20.7142857 C21.1045695,20.7142857 22,19.8188552 22,18.7142857 L22,9 C22,7.8954305 21.1045695,7 20,7 L4,7 Z M6.5,5 L6.5,3 C6.5,1.61928813 7.61928813,0.5 9,0.5 L15,0.5 C16.3807119,0.5 17.5,1.61928813 17.5,3 L17.5,5 L20,5 C22.209139,5 24,6.790861 24,9 L24,18.7142857 C24,20.9234247 22.209139,22.7142857 20,22.7142857 L4,22.7142857 C1.790861,22.7142857 0,20.9234247 0,18.7142857 L0,9 C0,6.790861 1.790861,5 4,5 L6.5,5 Z M8.5,5 L15.5,5 L15.5,3 C15.5,2.72385763 15.2761424,2.5 15,2.5 L9,2.5 C8.72385763,2.5 8.5,2.72385763 8.5,3 L8.5,5 Z M8.5,17.25 C8.5,17.8022847 8.05228475,18.25 7.5,18.25 C6.94771525,18.25 6.5,17.8022847 6.5,17.25 L6.5,10.25 C6.5,9.69771525 6.94771525,9.25 7.5,9.25 C8.05228475,9.25 8.5,9.69771525 8.5,10.25 L8.5,17.25 Z M15.5,10.25 C15.5,9.69771525 15.9477153,9.25 16.5,9.25 C17.0522847,9.25 17.5,9.69771525 17.5,10.25 L17.5,17.25 C17.5,17.8022847 17.0522847,18.25 16.5,18.25 C15.9477153,18.25 15.5,17.8022847 15.5,17.25 L15.5,10.25 Z" id="briefcase-Combined-Shape" fill-rule="nonzero"/> </g> </symbol><symbol viewBox="0 0 21 21" id="bubble"><title>Shape Copy 9</title> <!-- Generator: Sketch Beta 51 (57336) - http://www.bohemiancoding.com/sketch -->    <g id="bubble-Prototype" stroke-width="1" fill-rule="evenodd"> <path d="M4.50753787,15.0060336 C4.70445107,14.8091402 4.97152268,14.6985266 5.25,14.6985266 L17.85,14.6985266 C18.4298989,14.6985266 18.9,14.2284728 18.9,13.6486318 L18.8999999,3.14968432 C18.8999999,2.5698429 18.4298994,2.0997895 17.85,2.09978952 L3.15,2.09978952 C2.57010047,2.09978952 2.09999991,2.56984289 2.1,3.149684 L2.1,17.4133303 L4.50753787,15.0060336 Z M1.79246213,20.6903882 C1.13099902,21.351785 0,20.8833568 0,19.9480005 L0,3.14968416 C-2.62686308e-07,1.41016122 1.41030251,0 3.15,0 L17.85,0 C19.5896974,-7.60369824e-08 20.9999999,1.41016118 20.9999999,3.14968431 L21,13.6486318 C21,15.3881546 19.5896967,16.7983161 17.85,16.7983161 L5.68492425,16.7983161 L1.79246213,20.6903882 Z" id="bubble-Shape-Copy-9" fill-rule="nonzero"/> </g> </symbol><symbol viewBox="0 0 24 24" id="business-big"><title>Slice</title> <!-- Generator: Sketch 51.2 (57519) - http://www.bohemiancoding.com/sketch -->    <g id="business-big-Prototype" stroke-width="1" fill-rule="evenodd"> <path d="M18.375,9 L18.375,8 L17,8 C16.4477153,8 16,7.55228475 16,7 C16,6.44771525 16.4477153,6 17,6 L18.375,6 L18.375,2.125 C18.375,2.0961844 18.3652496,2.06964612 18.3488682,2.04850443 L9.55274167,5.90390102 C9.40003024,5.9757945 9.33382196,6.00711041 9.27063076,6.03799747 C9.0328931,6.1542006 9.00299843,6.16157114 9,6.1415633 L9,9.875 C9,10.4272847 8.55228475,10.875 8,10.875 C7.44771525,10.875 7,10.4272847 7,9.875 L7,6.125 C7,5.18325272 7.48567703,4.68433072 8.39235791,4.24115668 C8.468997,4.20369647 8.54879134,4.16595448 8.72352311,4.08413085 L17.8485231,0.084130846 C17.9750975,0.0286461905 18.1117986,0 18.25,0 C19.4236051,0 20.375,0.951394907 20.375,2.125 L20.375,22.875 C20.375,23.4272847 19.9272847,23.875 19.375,23.875 C18.8227153,23.875 18.375,23.4272847 18.375,22.875 L18.375,11 L15,11 C14.4477153,11 14,10.5522847 14,10 C14,9.44771525 14.4477153,9 15,9 L18.375,9 Z M11.125,16 L11.125,14 L4,14 L4,22.5778236 C4,23.1301084 3.55228475,23.5778236 3,23.5778236 C2.44771525,23.5778236 2,23.1301084 2,22.5778236 L2,13.75 C2,12.7835017 2.78350169,12 3.75,12 L11.375,12 C12.3414983,12 13.125,12.7835017 13.125,13.75 L13.125,22.5778236 C13.125,23.1301084 12.6772847,23.5778236 12.125,23.5778236 C11.5727153,23.5778236 11.125,23.1301084 11.125,22.5778236 L11.125,21 L9,21 C8.44771525,21 8,20.5522847 8,20 C8,19.4477153 8.44771525,19 9,19 L11.125,19 L11.125,18 L10,18 C9.44771525,18 9,17.5522847 9,17 C9,16.4477153 9.44771525,16 10,16 L11.125,16 Z" id="business-big-Combined-Shape" fill-rule="nonzero"/> </g> </symbol><symbol viewBox="0 0 24 24" id="business"><title>Slice</title> <!-- Generator: Sketch 51.2 (57519) - http://www.bohemiancoding.com/sketch -->    <g id="business-Prototype" stroke-width="1" fill-rule="evenodd"> <path d="M21.2914439,11.2941176 L18.8529412,11.2941176 C18.2858895,11.2941176 17.8262032,10.8344314 17.8262032,10.2673797 C17.8262032,9.70032796 18.2858895,9.24064171 18.8529412,9.24064171 L21.2914439,9.24064171 L21.2914439,6.67379679 L18.8529412,6.67379679 C18.2858895,6.67379679 17.8262032,6.21411055 17.8262032,5.64705882 C17.8262032,5.0800071 18.2858895,4.62032086 18.8529412,4.62032086 L21.2914439,4.62032086 L21.2914439,2.18181818 C21.2914439,2.11093672 21.2339831,2.05347594 21.1631016,2.05347594 L10.7673797,2.05347594 C10.6964982,2.05347594 10.6390374,2.11093672 10.6390374,2.18181818 L10.6390374,9.24064171 L13.4625668,9.24064171 C14.4549074,9.24064171 15.2593583,10.0450926 15.2593583,11.0374332 L15.2593583,21.9465241 L17.697861,21.9465241 C18.2649127,21.9465241 18.7245989,22.4062103 18.7245989,22.973262 C18.7245989,23.5403138 18.2649127,24 17.697861,24 L1.52673797,24 C0.959686246,24 0.5,23.5403138 0.5,22.973262 C0.5,22.4062103 0.959686246,21.9465241 1.52673797,21.9465241 L2.81016043,21.9465241 L2.81016043,11.0374332 C2.81016043,10.0450926 3.61461136,9.24064171 4.60695187,9.24064171 L8.5855615,9.24064171 L8.5855615,2.18181818 C8.5855615,0.976833273 9.56239477,0 10.7673797,0 L21.1631016,0 C22.3680865,0 23.3449198,0.976833273 23.3449198,2.18181818 L23.3449198,22.973262 C23.3449198,23.5403138 22.8852335,24 22.3181818,24 C21.7511301,24 21.2914439,23.5403138 21.2914439,22.973262 L21.2914439,11.2941176 Z M13.2058824,13.8609626 L13.2058824,11.2941176 L4.86363636,11.2941176 L4.86363636,21.9465241 L13.2058824,21.9465241 L13.2058824,15.9144385 L9.61229947,15.9144385 C9.04524774,15.9144385 8.5855615,15.4547523 8.5855615,14.8877005 C8.5855615,14.3206488 9.04524774,13.8609626 9.61229947,13.8609626 L13.2058824,13.8609626 Z" id="business-Combined-Shape" fill-rule="nonzero"/> </g> </symbol><symbol viewBox="0 0 24 24" id="check"><title>Slice</title> <!-- Generator: Sketch 51.2 (57519) - http://www.bohemiancoding.com/sketch -->    <g id="check-Prototype" stroke-width="1" fill-rule="evenodd"> <path d="M17.1991499,5.90113512 C17.5298939,5.45883783 18.1565676,5.36840598 18.5988649,5.69914992 C19.0411622,6.02989386 19.131594,6.65656759 18.8008501,7.09886488 L10.9781346,17.5600266 C10.6133537,18.0478409 9.90089108,18.0989818 9.47017775,17.6682685 L5.29289322,13.4909839 C4.90236893,13.1004597 4.90236893,12.4672947 5.29289322,12.0767704 C5.68341751,11.6862461 6.31658249,11.6862461 6.70710678,12.0767704 L10.0679214,15.437585 L17.1991499,5.90113512 Z" id="check-Shape-Copy-15" fill-rule="nonzero"/> </g> </symbol><symbol viewBox="0 0 24 24" id="gear"><title>Slice</title> <!-- Generator: Sketch 51.2 (57519) - http://www.bohemiancoding.com/sketch -->    <g id="gear-Symbols" stroke-width="1" fill-rule="evenodd"> <path d="M15.8024013,4.76203465 C15.8922869,5.05898363 16.1966763,5.23570077 16.4959251,5.16726045 L18.8591023,4.61860176 C20.2036669,4.31567809 21.5886992,4.92427027 22.2749455,6.11954544 C22.9611918,7.31482061 22.7884656,8.81777256 21.8506224,9.82441842 L20.2015718,11.6031498 C19.9873985,11.8334517 19.9873985,12.190048 20.2026224,12.4214813 L21.8529314,14.2015804 C22.7832303,15.2119123 22.9496354,16.7093442 22.2638441,17.8992672 C21.5780529,19.0891903 20.1989614,19.6959024 18.8501527,19.3955847 L16.4940855,18.8501541 C16.1925801,18.7805944 15.8888325,18.9569389 15.7990573,19.2555403 L15.0956391,21.5752147 C14.6975601,22.8975432 13.4798371,23.802661 12.0988884,23.802661 C10.7179396,23.802661 9.50021668,22.8975432 9.10303048,21.5781639 L8.39503815,19.2523482 C8.30554057,18.9554322 8.00108611,18.7788279 7.69976952,18.8483511 L5.34211818,19.3945157 C3.99691174,19.7025796 2.60820687,19.0964595 1.91939984,17.9006215 C1.23059282,16.7047835 1.40307287,15.1994153 2.34235442,14.1926813 L3.99140498,12.4139498 C4.20557825,12.183648 4.20557825,11.8270517 3.99035442,11.5956184 L2.34401818,9.81980863 C1.40451117,8.81137256 1.23178497,7.30842061 1.91803128,6.11314544 C2.60427758,4.91787027 3.98930989,4.30927809 5.34039749,4.61369431 L7.68774389,5.15910293 C7.99317725,5.227478 8.29985884,5.04958178 8.39097465,4.75431923 L9.09665662,2.43455708 C9.49290242,1.10691749 10.7149359,0.197832239 12.1004441,0.200003882 C13.4844201,0.202173124 14.7024333,1.11306909 15.0959082,2.43955512 L15.8024013,4.76203465 Z M13.1813747,3.01798045 C13.0374465,2.53029221 12.5973956,2.20078526 12.0973093,2.20000143 C11.597223,2.19921759 11.1561414,2.52734345 11.0116021,3.01158045 L10.3032329,5.34019676 C9.90333101,6.63620509 8.57437746,7.4070887 7.2429793,7.10900538 L4.8943023,6.56329793 C4.40549419,6.45317191 3.9019743,6.67442182 3.65249372,7.10895668 C3.40301313,7.54349155 3.46580667,8.08988039 3.80902237,8.45828126 L5.45597181,10.2347498 C6.38405597,11.2327243 6.38405597,12.7779753 5.45702237,13.7748184 L3.80686817,15.5547347 C3.46492029,15.9212415 3.40227216,16.4680206 3.65246035,16.9023724 C3.90264854,17.3367242 4.40705331,17.5568788 4.89320727,17.4455486 L7.24926271,16.8997508 C8.57783426,16.593206 9.91644109,17.3696892 10.3091463,18.6725358 L11.0172391,20.998685 C11.160922,21.4759671 11.6004478,21.802661 12.0988884,21.802661 C12.597329,21.802661 13.0368548,21.4759671 13.1811195,20.9967594 L13.8844316,18.6774375 C14.2769501,17.3718389 15.6152603,16.5948659 16.9444241,16.9015149 L19.2929953,17.4452465 C19.7803548,17.5537459 20.281715,17.3331795 20.5310301,16.9005903 C20.7803453,16.4680012 20.7198497,15.9236191 20.3839544,15.5588184 L18.737005,13.7823498 C17.8089208,12.7843753 17.8089208,11.2391243 18.7359544,10.2422813 L20.3856182,8.46289106 C20.7271701,8.09628039 20.7899637,7.54989155 20.5404831,7.11535668 C20.2910025,6.68082182 19.7874826,6.45957191 19.3050517,6.56823924 L16.945056,7.1161757 C15.6180704,7.41969121 14.2825515,6.64433877 13.8885747,5.34278045 L13.1813747,3.01798045 Z M12.0980884,15.4053498 C10.2203202,15.4053498 8.6980884,13.883118 8.6980884,12.0053498 C8.6980884,10.1275817 10.2203202,8.60534984 12.0980884,8.60534984 C13.9758565,8.60534984 15.4980884,10.1275817 15.4980884,12.0053498 C15.4980884,13.883118 13.9758565,15.4053498 12.0980884,15.4053498 Z M12.0980884,13.4053498 C12.871287,13.4053498 13.4980884,12.7785485 13.4980884,12.0053498 C13.4980884,11.2321512 12.871287,10.6053498 12.0980884,10.6053498 C11.3248897,10.6053498 10.6980884,11.2321512 10.6980884,12.0053498 C10.6980884,12.7785485 11.3248897,13.4053498 12.0980884,13.4053498 Z" id="gear-Combined-Shape" fill-rule="nonzero"/> </g> </symbol><symbol viewBox="0 0 26 26" id="key"><title>Shape</title> <!-- Generator: Sketch 51.2 (57519) - http://www.bohemiancoding.com/sketch -->    <g id="key-Prototype" stroke-width="1" fill-rule="evenodd"> <path d="M12.10479,24.008283 C9.21442977,25.9569798 5.3485011,25.5843268 2.88358714,23.1194129 C0.418673174,20.6544989 0.0460202302,16.7885702 1.99471704,13.89821 C3.81404963,11.1997262 7.1804232,10.0580946 10.2310575,11.0257289 L19.5197871,1.73699932 C20.8303592,0.426033903 22.9555353,0.425715047 24.2665007,1.73628713 C25.4304115,2.89984872 25.5612219,4.70551143 24.658761,6.0134008 L24.9949431,7.26924546 C25.232601,8.15643377 24.9789302,9.10301961 24.3294749,9.75247491 C23.6800196,10.4019302 22.7334338,10.655601 21.8458965,10.4178496 L20.696509,10.1095093 L21.0052273,11.2603087 C21.2417401,12.1471262 20.9877622,13.0927765 20.3387693,13.7417693 C19.6897765,14.3907622 18.7441262,14.6447401 17.8558965,14.4078496 L16.6617197,14.0874939 L14.9772711,15.7719425 C15.9449054,18.8225768 14.8032738,22.1889504 12.10479,24.008283 Z M13.1108932,14.8098932 L15.6558932,12.2648932 C15.9085925,12.0121939 16.276937,11.9135544 16.6221035,12.0061504 L18.3726913,12.4757727 C18.569915,12.528372 18.780223,12.4718885 18.9245558,12.3275558 C19.0688885,12.183223 19.125372,11.972915 19.0731504,11.7771035 L18.6031504,10.0251035 C18.5105544,9.67993705 18.6091939,9.31159253 18.8618932,9.05889322 L19.6458932,8.27489322 C19.8985925,8.0221939 20.266937,7.92355441 20.6121035,8.01615043 L22.3637545,8.48605689 C22.5607925,8.53883894 22.7710222,8.48250054 22.9152613,8.33826135 C23.0595005,8.19402215 23.1158389,7.98379247 23.0630126,7.7865891 L22.5940126,6.0345891 C22.5016635,5.68960897 22.6002981,5.32156409 22.8527871,5.06899932 C23.3824278,4.53919966 23.382299,3.68035356 22.8524993,3.15071287 C22.3226997,2.62107217 21.4638536,2.62120103 20.9341068,3.15110678 L11.1931068,12.8921068 C10.9049685,13.1802451 10.4708143,13.2647299 10.0956524,13.1056675 C7.76761527,12.1186188 5.06658616,12.9196181 3.65302509,15.0162504 C2.23946403,17.1128827 2.50978196,19.9171806 4.2978007,21.7051993 C6.08581944,23.493218 8.89011727,23.763536 10.9867496,22.3499749 C13.0833819,20.9364138 13.8843812,18.2353847 12.8973325,15.9073476 C12.7382701,15.5321857 12.8227549,15.0980315 13.1108932,14.8098932 Z M6.922,21.652 C5.50207591,21.652 4.351,20.5009241 4.351,19.081 C4.351,17.6610759 5.50207591,16.51 6.922,16.51 C8.34192409,16.51 9.493,17.6610759 9.493,19.081 C9.493,20.5009241 8.34192409,21.652 6.922,21.652 Z M6.922,19.652 C7.23735459,19.652 7.493,19.3963546 7.493,19.081 C7.493,18.7656454 7.23735459,18.51 6.922,18.51 C6.60664541,18.51 6.351,18.7656454 6.351,19.081 C6.351,19.3963546 6.60664541,19.652 6.922,19.652 Z" id="key-Shape" fill-rule="nonzero"/> </g> </symbol><symbol viewBox="0 0 107 129" id="legal-proof"><title>shield-18-icon copy 2</title> <!-- Generator: Sketch 48.2 (47327) - http://www.bohemiancoding.com/sketch -->    <g id="legal-proof-FS-Icons" stroke-width="1" fill-rule="evenodd"> <path d="M95.5782602,74.6963427 C95.5782602,83.559796 92.9130319,88.1376391 88.9117784,92.2852002 C82.0991629,99.3457713 69.6372545,106.322796 53.7489318,116.062949 C37.8591726,106.32172 25.3987004,99.3454126 18.5860852,92.2852002 C14.5844725,88.1379977 11.9196031,83.559796 11.9196031,74.6963427 L11.9196031,30.1819825 C26.5745893,28.8323308 39.11118,24.7349693 53.7489318,14.2127786 C68.3866833,24.7349693 80.923274,28.8319724 95.5782602,30.1819825 L95.5782602,74.6963427 Z M0.59298556,19.3343447 L0.59298556,73.8896552 C0.59298556,100.686379 19.9519395,107.683715 53.7489318,129 C87.5459238,107.683715 106.904878,100.686379 106.904878,73.8896552 L106.904878,19.3343447 C86.4124963,19.3343447 73.401687,16.6868962 53.7489318,0 C34.0961765,16.6868962 21.085367,19.3343447 0.59298556,19.3343447 Z" id="legal-proof-shield-18-icon-copy-2"/> <polygon id="legal-proof-Shape-Copy-2" fill-rule="nonzero" points="49.1865926 85.4492754 29 65.4439026 39.0145502 55.5196815 49.1865926 65.6008331 70.9854498 44 81 53.9242211"/> </g> </symbol><symbol viewBox="0 0 25 25" id="medical"><title>Shape Copy 11</title> <!-- Generator: Sketch Beta 51 (57336) - http://www.bohemiancoding.com/sketch -->    <g id="medical-Prototype" stroke-width="1" fill-rule="evenodd"> <path d="M2.2,17.1 C1.48202983,17.1 0.9,16.5179702 0.9,15.8 L0.9,9.2 C0.9,8.48202983 1.48202983,7.9 2.2,7.9 L7.9,7.9 L7.9,2.2 C7.9,1.48202983 8.48202983,0.9 9.2,0.9 L15.8,0.9 C16.5179702,0.9 17.1,1.48202983 17.1,2.2 L17.1,7.9 L22.8,7.9 C23.5179702,7.9 24.1,8.48202983 24.1,9.2 L24.1,15.8 C24.1,16.5179702 23.5179702,17.1 22.8,17.1 L17.1,17.1 L17.1,22.8 C17.1,23.5179702 16.5179702,24.1 15.8,24.1 L9.2,24.1 C8.48202983,24.1 7.9,23.5179702 7.9,22.8 L7.9,17.1 L2.2,17.1 Z M8.8,14.9 C9.51797017,14.9 10.1,15.4820298 10.1,16.2 L10.1,21.9 L14.9,21.9 L14.9,16.2 C14.9,15.4820298 15.4820298,14.9 16.2,14.9 L21.9,14.9 L21.9,10.1 L16.2,10.1 C15.4820298,10.1 14.9,9.51797017 14.9,8.8 L14.9,3.1 L10.1,3.1 L10.1,8.8 C10.1,9.51797017 9.51797017,10.1 8.8,10.1 L3.1,10.1 L3.1,14.9 L8.8,14.9 Z" id="medical-Shape-Copy-11" fill-rule="nonzero"/> </g> </symbol><symbol viewBox="0 0 22 26" id="off"><title>Combined Shape</title> <!-- Generator: Sketch 51.2 (57519) - http://www.bohemiancoding.com/sketch -->    <g id="off-Prototype" stroke-width="1" fill-rule="evenodd"> <path d="M9.90909091,1.54327273 C9.90909091,0.990987977 10.3568062,0.543272727 10.9090909,0.543272727 C11.4613757,0.543272727 11.9090909,0.990987977 11.9090909,1.54327273 L11.9090909,12.1796364 C11.9090909,12.7319211 11.4613757,13.1796364 10.9090909,13.1796364 C10.3568062,13.1796364 9.90909091,12.7319211 9.90909091,12.1796364 L9.90909091,1.54327273 Z M7.3030303,4.43282732 C7.82372936,4.24873241 8.39507776,4.52160397 8.57917268,5.04230303 C8.76326759,5.56300209 8.49039603,6.13435049 7.96969697,6.31844541 C3.92054459,7.75003696 1.49164872,11.8905552 2.21790361,16.1234789 C2.9441585,20.3564027 6.61431625,23.4504888 10.9090909,23.4504888 C15.2038656,23.4504888 18.8740233,20.3564027 19.6002782,16.1234789 C20.3265331,11.8905552 17.8976372,7.75003696 13.8484848,6.31844541 C13.3277858,6.13435049 13.0549142,5.56300209 13.2390091,5.04230303 C13.4231041,4.52160397 13.9944525,4.24873241 14.5151515,4.43282732 C19.4826684,6.18910974 22.4624478,11.2687146 21.5714753,16.4616829 C20.6805028,21.6546512 16.1779382,25.4504888 10.9090909,25.4504888 C5.64024365,25.4504888 1.13767899,21.6546512 0.246706491,16.4616829 C-0.644266006,11.2687146 2.33551347,6.18910974 7.3030303,4.43282732 Z" id="off-Combined-Shape" fill-rule="nonzero"/> </g> </symbol><symbol viewBox="0 0 24 24" id="pen"><title>Combined Shape</title> <!-- Generator: Sketch 51.2 (57519) - http://www.bohemiancoding.com/sketch -->    <g id="pen-Prototype" stroke-width="1" fill-rule="evenodd"> <path d="M22.6726522,1.3240596 C23.531199,2.18565206 24.0081055,3.35106944 23.9998957,4.56353381 C23.991686,5.77599818 23.4990415,6.9348506 22.6398493,7.77396494 L8.43672413,21.9770901 C8.31262103,22.1011932 8.1574533,22.1896727 7.98744764,22.2332759 L1.22382149,23.9680162 C0.502502304,24.1530208 -0.153286182,23.4973214 0.0316203281,22.7759771 L1.76538112,16.0123509 C1.80897243,15.8422956 1.89746496,15.6870805 2.02160001,15.5629455 L16.2168715,1.36776411 C17.0643692,0.500712414 18.2232304,0.00831214717 19.4356509,0.000104270867 C20.6480715,-0.00810360544 21.8134931,0.468561672 22.6726522,1.3240596 Z M19.4489131,1.95911113 C18.7592002,1.96378036 18.0999559,2.24389338 17.6099839,2.74507911 L3.59648756,16.7585755 L2.34027986,21.659205 L7.24104527,20.4022527 L21.2627873,6.38060529 C21.7560598,5.89880531 22.0362201,5.23978141 22.0408889,4.55026911 C22.0455534,3.86139548 21.7748495,3.19922731 21.2889963,2.7109217 C20.8003745,2.22510175 20.1379873,1.95444621 19.4489131,1.95911113 Z M2.02318683,16.9478315 C1.64032308,16.5656383 1.63977952,15.945437 2.02197276,15.5625733 C2.404166,15.1797095 3.02436724,15.1791659 3.407231,15.5613592 L8.44101446,20.5863269 C8.82387822,20.9685202 8.82442178,21.5887214 8.44222854,21.9715852 C8.06003529,22.3544489 7.43983405,22.3549925 7.05697029,21.9727992 L2.02318683,16.9478315 Z M15.8192014,3.15158235 C15.4366728,2.7690537 15.4366728,2.14885222 15.8192014,1.76632357 C16.2017301,1.38379492 16.8219316,1.38379492 17.2044602,1.76632357 L22.233346,6.7952094 C22.6158747,7.17773805 22.6158747,7.79793953 22.233346,8.18046817 C21.8508174,8.56299682 21.2306159,8.56299682 20.8480873,8.18046817 L15.8192014,3.15158235 Z" id="pen-Combined-Shape" fill-rule="nonzero"/> </g> </symbol><symbol viewBox="0 0 22 26" id="person"><title>Combined Shape</title> <!-- Generator: Sketch 51.2 (57519) - http://www.bohemiancoding.com/sketch -->    <g id="person-Symbols" stroke-width="1" fill-rule="evenodd"> <path d="M11,13.25 C7.54822031,13.25 4.75,10.4517797 4.75,7 C4.75,3.54822031 7.54822031,0.75 11,0.75 C14.4517797,0.75 17.25,3.54822031 17.25,7 C17.25,10.4517797 14.4517797,13.25 11,13.25 Z M11,11.25 C13.3472102,11.25 15.25,9.34721019 15.25,7 C15.25,4.65278981 13.3472102,2.75 11,2.75 C8.65278981,2.75 6.75,4.65278981 6.75,7 C6.75,9.34721019 8.65278981,11.25 11,11.25 Z M2.25,24.25 C2.25,24.8022847 1.80228475,25.25 1.25,25.25 C0.69771525,25.25 0.25,24.8022847 0.25,24.25 C0.25,18.3129389 5.06293894,13.5 11,13.5 C16.9370611,13.5 21.75,18.3129389 21.75,24.25 C21.75,24.8022847 21.3022847,25.25 20.75,25.25 C20.1977153,25.25 19.75,24.8022847 19.75,24.25 C19.75,19.4175084 15.8324916,15.5 11,15.5 C6.16750844,15.5 2.25,19.4175084 2.25,24.25 Z" id="person-Combined-Shape" fill-rule="nonzero"/> </g> </symbol><symbol viewBox="0 0 26 20" id="persons"><title>Combined Shape</title> <!-- Generator: Sketch 51.2 (57519) - http://www.bohemiancoding.com/sketch -->    <g id="persons-Symbols" stroke-width="1" fill-rule="evenodd"> <path d="M16.7546856,12.0312588 C15.3292426,11.3101146 14.352,9.83168095 14.352,8.125 C14.352,5.70875422 16.3107542,3.75 18.727,3.75 C21.1432458,3.75 23.102,5.70875422 23.102,8.125 C23.102,9.83257831 22.1237294,11.3116693 20.6970655,12.0323957 C21.3156796,12.2285563 21.908893,12.5182503 22.4548589,12.8986719 C24.2051088,14.118222 25.2488221,16.1162166 25.2499998,18.2494479 C25.2503048,18.8017326 24.8028367,19.2496949 24.2505521,19.2499998 C23.6982674,19.2503048 23.2503051,18.8028367 23.2500002,18.2505521 C23.2491834,16.7710846 22.5253331,15.3854083 21.3114761,14.5396093 C20.0976191,13.6938103 18.5470058,13.4946715 17.1588199,14.0063009 C16.6406106,14.197292 16.0656902,13.9320292 15.8746991,13.4138199 C15.683708,12.8956106 15.9489708,12.3206902 16.4671801,12.1296991 C16.56251,12.0945643 16.6583711,12.0617543 16.7546856,12.0312588 Z M6.75835894,10.6964747 C4.78523991,9.98360284 3.375,8.09399101 3.375,5.875 C3.375,3.04454066 5.66954066,0.75 8.5,0.75 C11.3304593,0.75 13.625,3.04454066 13.625,5.875 C13.625,8.09399101 12.2147601,9.98360284 10.2416411,10.6964747 C13.683196,11.4867718 16.25,14.5686313 16.25,18.25 C16.25,18.8022847 15.8022847,19.25 15.25,19.25 C14.6977153,19.25 14.25,18.8022847 14.25,18.25 C14.25,15.0743627 11.6756373,12.5 8.5,12.5 C5.32436269,12.5 2.75,15.0743627 2.75,18.25 C2.75,18.8022847 2.30228475,19.25 1.75,19.25 C1.19771525,19.25 0.75,18.8022847 0.75,18.25 C0.75,14.5686313 3.31680405,11.4867718 6.75835894,10.6964747 Z M8.5,9 C10.2258898,9 11.625,7.60088984 11.625,5.875 C11.625,4.14911016 10.2258898,2.75 8.5,2.75 C6.77411016,2.75 5.375,4.14911016 5.375,5.875 C5.375,7.60088984 6.77411016,9 8.5,9 Z M18.727,10.5 C20.0386763,10.5 21.102,9.43667628 21.102,8.125 C21.102,6.81332372 20.0386763,5.75 18.727,5.75 C17.4153237,5.75 16.352,6.81332372 16.352,8.125 C16.352,9.43667628 17.4153237,10.5 18.727,10.5 Z" id="persons-Combined-Shape" fill-rule="nonzero"/> </g> </symbol><symbol viewBox="0 0 24 24" id="plus"><title>Slice</title> <!-- Generator: Sketch 51.2 (57519) - http://www.bohemiancoding.com/sketch -->    <g id="plus-Prototype" stroke-width="1" fill-rule="evenodd"> <path d="M6,13 C5.44771525,13 5,12.5522847 5,12 C5,11.4477153 5.44771525,11 6,11 L18,11 C18.5522847,11 19,11.4477153 19,12 C19,12.5522847 18.5522847,13 18,13 L6,13 Z" id="plus-Combined-Shape-Copy-7" fill-rule="nonzero"/> <path d="M6,13 C5.44771525,13 5,12.5522847 5,12 C5,11.4477153 5.44771525,11 6,11 L18,11 C18.5522847,11 19,11.4477153 19,12 C19,12.5522847 18.5522847,13 18,13 L6,13 Z" id="plus-Combined-Shape-Copy-7" fill-rule="nonzero" transform="translate(12.000000, 12.000000) rotate(-90.000000) translate(-12.000000, -12.000000) "/> </g> </symbol><symbol viewBox="0 0 20 24" id="prefs"><title>Combined Shape</title> <!-- Generator: Sketch 51.2 (57519) - http://www.bohemiancoding.com/sketch -->    <g id="prefs-Prototype" stroke-width="1" fill-rule="evenodd"> <path d="M15,5 L15,7 C15,7.55228475 14.5522847,8 14,8 C13.4477153,8 13,7.55228475 13,7 L13,1 C13,0.44771525 13.4477153,0 14,0 C14.5522847,0 15,0.44771525 15,1 L15,3 L19,3 C19.5522847,3 20,3.44771525 20,4 C20,4.55228475 19.5522847,5 19,5 L15,5 Z M5,13 L1,13 C0.44771525,13 0,12.5522847 0,12 C0,11.4477153 0.44771525,11 1,11 L5,11 L5,9 C5,8.44771525 5.44771525,8 6,8 C6.55228475,8 7,8.44771525 7,9 L7,15 C7,15.5522847 6.55228475,16 6,16 C5.44771525,16 5,15.5522847 5,15 L5,13 Z M13,21 L13,23 C13,23.5522847 12.5522847,24 12,24 C11.4477153,24 11,23.5522847 11,23 L11,17 C11,16.4477153 11.4477153,16 12,16 C12.5522847,16 13,16.4477153 13,17 L13,19 L19,19 C19.5522847,19 20,19.4477153 20,20 C20,20.5522847 19.5522847,21 19,21 L13,21 Z M8,19 C8.55228475,19 9,19.4477153 9,20 C9,20.5522847 8.55228475,21 8,21 L1,21 C0.44771525,21 0,20.5522847 0,20 C0,19.4477153 0.44771525,19 1,19 L8,19 Z M19,11 C19.5522847,11 20,11.4477153 20,12 C20,12.5522847 19.5522847,13 19,13 L10,13 C9.44771525,13 9,12.5522847 9,12 C9,11.4477153 9.44771525,11 10,11 L19,11 Z M10,3 C10.5522847,3 11,3.44771525 11,4 C11,4.55228475 10.5522847,5 10,5 L1,5 C0.44771525,5 0,4.55228475 0,4 C0,3.44771525 0.44771525,3 1,3 L10,3 Z" id="prefs-Combined-Shape" fill-rule="nonzero"/> </g> </symbol><symbol viewBox="0 0 24 24" id="profile"><title>Slice 2</title> <!-- Generator: Sketch 51.2 (57519) - http://www.bohemiancoding.com/sketch -->    <g id="profile-Prototype" stroke-width="1" fill-rule="evenodd"> <path d="M8.70121263,1.00448993 C16.9477972,-1.4696006 20.5214195,0.454628057 22.9955101,8.70121263 C25.4696006,16.9477972 23.5453719,20.5214195 15.2987874,22.9955101 C7.05220279,25.4696006 3.47858045,23.5453719 1.00448993,15.2987874 C-1.4696006,7.05220279 0.454628057,3.47858045 8.70121263,1.00448993 Z M9.27593294,2.92013513 C2.08731724,5.07682023 0.7634577,7.53547688 2.92013513,14.7240671 C5.07682023,21.9126828 7.53547688,23.2365423 14.7240671,21.0798649 C21.9126828,18.9231798 23.2365423,16.4645231 21.0798649,9.27593294 C18.9231798,2.08731724 16.4645231,0.7634577 9.27593294,2.92013513 Z M12.125,13.40625 C9.90476599,13.40625 8.10491071,11.6063947 8.10491071,9.38616071 C8.10491071,7.16592671 9.90476599,5.36607143 12.125,5.36607143 C14.345234,5.36607143 16.1450893,7.16592671 16.1450893,9.38616071 C16.1450893,11.6063947 14.345234,13.40625 12.125,13.40625 Z M12.125,11.40625 C13.2406645,11.40625 14.1450893,10.5018252 14.1450893,9.38616071 C14.1450893,8.27049621 13.2406645,7.36607143 12.125,7.36607143 C11.0093355,7.36607143 10.1049107,8.27049621 10.1049107,9.38616071 C10.1049107,10.5018252 11.0093355,11.40625 12.125,11.40625 Z M18.0362348,17.1022171 C18.1720953,17.6375304 17.8482748,18.1816243 17.3129615,18.3174848 C16.7776482,18.4533453 16.2335543,18.1295248 16.0976938,17.5942115 C15.6363797,15.7765563 14.0002816,14.5038234 12.125,14.5038234 C10.2497184,14.5038234 8.61362031,15.7765563 8.15230625,17.5942115 C8.01644574,18.1295248 7.47235183,18.4533453 6.9370385,18.3174848 C6.40172516,18.1816243 6.07790467,17.6375304 6.21376518,17.1022171 C6.900185,14.3976072 9.33464398,12.5038234 12.125,12.5038234 C14.915356,12.5038234 17.349815,14.3976072 18.0362348,17.1022171 Z" id="profile-Combined-Shape" fill-rule="nonzero"/> </g> </symbol><symbol viewBox="0 0 19 14" id="search-list"><title>Combined Shape</title> <!-- Generator: Sketch 51.1 (57501) - http://www.bohemiancoding.com/sketch -->    <g id="search-list-Prototype" stroke-width="1" fill-rule="evenodd"> <path d="M0.875,5.75 C0.391750844,5.75 0,5.35824916 0,4.875 C0,4.39175084 0.391750844,4 0.875,4 L5.71323529,4 C6.19648445,4 6.58823529,4.39175084 6.58823529,4.875 C6.58823529,5.35824916 6.19648445,5.75 5.71323529,5.75 L0.875,5.75 Z M0.875,1.75 C0.391750844,1.75 0,1.35824916 0,0.875 C0,0.391750844 0.391750844,0 0.875,0 L13.125,0 C13.6082492,0 14,0.391750844 14,0.875 C14,1.35824916 13.6082492,1.75 13.125,1.75 L0.875,1.75 Z M0.875,9.75 C0.391750844,9.75 0,9.35824916 0,8.875 C0,8.39175084 0.391750844,8 0.875,8 L5,8 C5.48324916,8 5.87,8.39175084 5.87,8.875 C5.87,9.35824916 5.48324916,9.75 5,9.75 L0.875,9.75 Z M15.6170749,10.638222 L17.8665631,12.8331823 C18.1311083,13.0977275 18.1311083,13.5300331 17.8665631,13.7945783 C17.6020178,14.0591235 17.1697123,14.0591235 16.905167,13.7945783 L14.6502458,11.6022403 C13.784049,12.217096 12.6454984,12.5258589 11.4782053,12.3303517 C9.68445976,12.0270925 8.25204422,10.5301538 8.03266526,8.72350354 C7.69714451,5.99417123 9.99417123,3.69714451 12.7235035,4.03266526 C14.5301538,4.25204422 16.0270925,5.68445976 16.3303517,7.47820534 C16.5244088,8.63684063 16.2226726,9.77493171 15.6170749,10.638222 Z M12.1944131,11.0979581 C13.8010414,11.0979581 15.0979581,9.80104135 15.0979581,8.19441311 C15.0979581,6.58778487 13.8010414,5.2908681 12.1944131,5.2908681 C10.5877849,5.2908681 9.2908681,6.58778487 9.2908681,8.19441311 C9.2908681,9.80104135 10.5877849,11.0979581 12.1944131,11.0979581 Z" id="search-list-Combined-Shape" fill-rule="nonzero"/> </g> </symbol><symbol viewBox="0 0 24 20" id="settings"><title>Combined Shape</title> <!-- Generator: Sketch 51.2 (57519) - http://www.bohemiancoding.com/sketch -->    <g id="settings-Prototype" stroke-width="1" fill-rule="evenodd"> <path d="M19,15 L17,15 C16.4477153,15 16,14.5522847 16,14 C16,13.4477153 16.4477153,13 17,13 L23,13 C23.5522847,13 24,13.4477153 24,14 C24,14.5522847 23.5522847,15 23,15 L21,15 L21,19 C21,19.5522847 20.5522847,20 20,20 C19.4477153,20 19,19.5522847 19,19 L19,15 Z M11,5 L11,1 C11,0.44771525 11.4477153,0 12,0 C12.5522847,0 13,0.44771525 13,1 L13,5 L15,5 C15.5522847,5 16,5.44771525 16,6 C16,6.55228475 15.5522847,7 15,7 L9,7 C8.44771525,7 8,6.55228475 8,6 C8,5.44771525 8.44771525,5 9,5 L11,5 Z M3,13 L1,13 C0.44771525,13 0,12.5522847 0,12 C0,11.4477153 0.44771525,11 1,11 L7,11 C7.55228475,11 8,11.4477153 8,12 C8,12.5522847 7.55228475,13 7,13 L5,13 L5,19 C5,19.5522847 4.55228475,20 4,20 C3.44771525,20 3,19.5522847 3,19 L3,13 Z M5,8 C5,8.55228475 4.55228475,9 4,9 C3.44771525,9 3,8.55228475 3,8 L3,1 C3,0.44771525 3.44771525,0 4,0 C4.55228475,0 5,0.44771525 5,1 L5,8 Z M13,19 C13,19.5522847 12.5522847,20 12,20 C11.4477153,20 11,19.5522847 11,19 L11,10 C11,9.44771525 11.4477153,9 12,9 C12.5522847,9 13,9.44771525 13,10 L13,19 Z M21,10 C21,10.5522847 20.5522847,11 20,11 C19.4477153,11 19,10.5522847 19,10 L19,1 C19,0.44771525 19.4477153,0 20,0 C20.5522847,0 21,0.44771525 21,1 L21,10 Z" id="settings-Combined-Shape" fill-rule="nonzero"/> </g> </symbol><symbol viewBox="0 0 19 13" id="timelines"><title>Combined Shape Copy 5</title> <!-- Generator: Sketch Beta 51 (57336) - http://www.bohemiancoding.com/sketch -->    <g id="timelines-Symbols" stroke-width="1" fill-rule="evenodd"> <path d="M8.12352447,2 C7.50301904,2 7,1.55228475 7,1 C7,0.44771525 7.50301904,0 8.12352447,0 L9.24647542,0 C9.86698085,0 10.3699999,0.44771525 10.3699999,1 C10.3699999,1.55228475 9.86698085,2 9.24647542,2 L8.12352447,2 Z M13.1235245,2 C12.503019,2 12,1.55228475 12,1 C12,0.44771525 12.503019,0 13.1235245,0 L17.2464754,0 C17.8669808,0 18.3699999,0.44771525 18.3699999,1 C18.3699999,1.55228475 17.8669808,2 17.2464754,2 L13.1235245,2 Z M1.12352447,2 C0.503019038,2 0,1.55228475 0,1 C0,0.44771525 0.503019038,0 1.12352447,0 L4.24647542,0 C4.86698085,0 5.36999989,0.44771525 5.36999989,1 C5.36999989,1.55228475 4.86698085,2 4.24647542,2 L1.12352447,2 Z M1.12352447,7.5 C0.503019038,7.5 0,7.05228475 0,6.5 C0,5.94771525 0.503019038,5.5 1.12352447,5.5 L8.24647542,5.5 C8.86698085,5.5 9.36999989,5.94771525 9.36999989,6.5 C9.36999989,7.05228475 8.86698085,7.5 8.24647542,7.5 L1.12352447,7.5 Z M12.1235245,7.5 C11.503019,7.5 11,7.05228475 11,6.5 C11,5.94771525 11.503019,5.5 12.1235245,5.5 L17.2464754,5.5 C17.8669808,5.5 18.3699999,5.94771525 18.3699999,6.5 C18.3699999,7.05228475 17.8669808,7.5 17.2464754,7.5 L12.1235245,7.5 Z M1.12352447,13 C0.503019038,13 0,12.5522847 0,12 C0,11.4477153 0.503019038,11 1.12352447,11 L12.2464754,11 C12.8669808,11 13.3699999,11.4477153 13.3699999,12 C13.3699999,12.5522847 12.8669808,13 12.2464754,13 L1.12352447,13 Z M16.1235245,13 C15.503019,13 15,12.5522847 15,12 C15,11.4477153 15.503019,11 16.1235245,11 L17.2464754,11 C17.8669808,11 18.3699999,11.4477153 18.3699999,12 C18.3699999,12.5522847 17.8669808,13 17.2464754,13 L16.1235245,13 Z" id="timelines-Combined-Shape-Copy-5" fill-rule="nonzero"/> </g> </symbol><symbol viewBox="0 0 24 24" id="trash"><title>Combined Shape</title> <!-- Generator: Sketch 51.2 (57519) - http://www.bohemiancoding.com/sketch -->    <g id="trash-Prototype" stroke-width="1" fill-rule="evenodd"> <path d="M2.44195119,5.08029197 L0.96350365,5.08029197 C0.431375278,5.08029197 0,4.64891669 0,4.11678832 C0,3.58465995 0.431375278,3.15328467 0.96350365,3.15328467 L7.09489051,3.15328467 L7.09489051,2.54014599 C7.09489051,1.1372621 8.23215261,0 9.6350365,0 L14.3649635,0 C15.7678474,0 16.9051095,1.1372621 16.9051095,2.54014599 L16.9051095,3.15328467 L23.0364964,3.15328467 C23.5686247,3.15328467 24,3.58465995 24,4.11678832 C24,4.64891669 23.5686247,5.08029197 23.0364964,5.08029197 L21.558102,5.08029197 L20.1759562,21.6700324 C20.0666158,22.9869742 18.965788,24.0001182 17.6443796,24 L6.35675768,24 C5.03519855,24.0001182 3.93432773,22.9868752 3.82511238,21.6702426 L2.44195119,5.08029197 Z M14.9781022,3.15328467 L14.9781022,2.54014599 C14.9781022,2.20151884 14.7035906,1.9270073 14.3649635,1.9270073 L9.6350365,1.9270073 C9.29640935,1.9270073 9.02189781,2.20151884 9.02189781,2.54014599 L9.02189781,3.15328467 L14.9781022,3.15328467 Z M4.37564433,5.08029197 L5.74549049,21.5105401 C5.77186091,21.8284453 6.03758835,22.0730212 6.35667153,22.0729927 L17.6444657,22.0729927 C17.9634627,22.0730212 18.2291902,21.8284453 18.2555606,21.5105401 L19.6244184,5.08029197 L4.37564433,5.08029197 Z M10.5985401,17.5182482 C10.5985401,18.0503765 10.1671649,18.4817518 9.6350365,18.4817518 C9.10290812,18.4817518 8.67153285,18.0503765 8.67153285,17.5182482 L8.67153285,9.6350365 C8.67153285,9.10290812 9.10290812,8.67153285 9.6350365,8.67153285 C10.1671649,8.67153285 10.5985401,9.10290812 10.5985401,9.6350365 L10.5985401,17.5182482 Z M15.3284672,17.5182482 C15.3284672,18.0503765 14.8970919,18.4817518 14.3649635,18.4817518 C13.8328351,18.4817518 13.4014599,18.0503765 13.4014599,17.5182482 L13.4014599,9.6350365 C13.4014599,9.10290812 13.8328351,8.67153285 14.3649635,8.67153285 C14.8970919,8.67153285 15.3284672,9.10290812 15.3284672,9.6350365 L15.3284672,17.5182482 Z" id="trash-Combined-Shape" fill-rule="nonzero"/> </g> </symbol><symbol viewBox="0 0 24 24" id="biings"><title>bell</title> <!-- Generator: Sketch 48.2 (47327) - http://www.bohemiancoding.com/sketch -->    <g id="biings-Finals" stroke-width="1" fill-rule="evenodd"> <path d="M6.53319534,13.5922928 L6.50181818,13.2295547 C6.50181818,13.2295547 6.50181818,12.3693788 8.2390847,12.3693778 C8.6594081,12.3693776 8.97803624,12.4197301 9.21957382,12.4960701 L9.39661658,17.4706709 C8.52637945,17.1497107 7.74262751,16.5090839 7.3654233,15.7239039 L7.15975804,15.2893714 C6.95329081,14.8172472 6.73456858,14.2224923 6.53319534,13.5922928 L6.53319534,13.5922928 Z M17.6891748,15.0920357 L17.8472727,13.2295547 C17.8472727,13.2295547 17.8472727,12.3693768 16.1100062,12.3693778 C15.6914012,12.369378 15.3736617,12.4193199 15.1324834,12.4951359 L15.1324834,12.4951359 L14.9931391,16.6930284 C15.3861244,16.5550521 15.7507837,16.4139376 16.0621711,16.2781324 L16.497294,16.0727462 C16.9449621,15.8582675 17.3537981,15.5116496 17.6891748,15.0920357 L17.6891748,15.0920357 Z M14.0509706,17.0009106 L14.2213426,11.87401 C14.2213426,11.87401 14.2213426,10.8605734 12.1745455,10.8605745 C10.1277483,10.8605756 10.1277483,11.87401 10.1277483,11.87401 L10.3344937,17.6832032 C10.5219732,17.6987687 10.7082911,17.6974672 10.8904703,17.6776696 L11.3647792,17.6220326 C12.120736,17.5257371 13.1088298,17.2873067 14.0509706,17.0009106 L14.0509706,17.0009106 Z M8.13909011,11.6554304 C8.79846499,11.6554304 9.33299394,11.1216268 9.33299394,10.4631466 C9.33299394,9.80466636 8.79846499,9.27086268 8.13909011,9.27086268 C7.47971524,9.27086268 6.94518629,9.80466636 6.94518629,10.4631466 C6.94518629,11.1216268 7.47971524,11.6554304 8.13909011,11.6554304 L8.13909011,11.6554304 Z M16.1845235,11.6554304 C16.8438984,11.6554304 17.3784273,11.1216268 17.3784273,10.4631466 C17.3784273,9.80466636 16.8438984,9.27086268 16.1845235,9.27086268 C15.5251486,9.27086268 14.9906197,9.80466636 14.9906197,10.4631466 C14.9906197,11.1216268 15.5251486,11.6554304 16.1845235,11.6554304 L16.1845235,11.6554304 Z M8.70121263,1.00312698 C16.9477972,-1.46760657 20.5214195,0.454011193 22.9955101,8.68940637 C25.4696006,16.9248016 23.5453719,20.493575 15.2987874,22.9643086 C7.05220279,25.4350421 3.47858045,23.5134244 1.00448993,15.2780292 C-1.4696006,7.042634 0.454628057,3.47386053 8.70121263,1.00312698 Z M12.161216,9.76073716 C13.0648038,9.76073716 13.7973064,9.02922843 13.7973064,8.12686667 C13.7973064,7.22450491 13.0648038,6.49299618 12.161216,6.49299618 C11.2576282,6.49299618 10.5251256,7.22450491 10.5251256,8.12686667 C10.5251256,9.02922843 11.2576282,9.76073716 12.161216,9.76073716 Z" id="biings-Rectangle-16-Copy-7"/> </g> </symbol><symbol viewBox="0 0 27 13" id="key_esc"><title>Rectangle 12</title> <!-- Generator: Sketch 51.1 (57501) - http://www.bohemiancoding.com/sketch -->    <g id="key_esc-Prototype" stroke-width="1" fill-rule="evenodd"> <path d="M2,0 L25,0 C26.1045695,0 27,0.8954305 27,2 L27,11 C27,12.1045695 26.1045695,13 25,13 L2,13 C0.8954305,13 0,12.1045695 0,11 L0,2 C0,0.8954305 0.8954305,0 2,0 Z M2,1.2 C1.5581722,1.2 1.2,1.5581722 1.2,2 L1.2,11 C1.2,11.4418278 1.5581722,11.8 2,11.8 L25,11.8 C25.4418278,11.8 25.8,11.4418278 25.8,11 L25.8,2 C25.8,1.5581722 25.4418278,1.2 25,1.2 L2,1.2 Z M9.21052632,9.05555556 C8.51514804,9.05555556 7.97288871,8.86030432 7.58373206,8.469796 C7.19457541,8.07928768 7,7.52056876 7,6.7936225 L7,6.40612002 C7,5.63711902 7.1786266,5.04385566 7.53588517,4.62631214 C7.89314373,4.20876863 8.40510033,4 9.07177033,4 C9.72249129,4 10.2121196,4.1960022 10.5406699,4.58801248 C10.8692201,4.98002276 11.0366826,5.56051969 11.0430622,6.3295207 L11.0430622,6.95583284 L8.3492823,6.95583284 C8.36842115,7.31630206 8.45294981,7.57989122 8.60287081,7.74660824 C8.75279182,7.91332525 8.98404947,7.99668251 9.29665072,7.99668251 C9.74960354,7.99668251 10.1275902,7.85099505 10.430622,7.55961577 L10.9617225,8.33011487 C10.7958524,8.54639641 10.5550255,8.72137155 10.2392344,8.85504555 C9.9234434,8.98871956 9.58054411,9.05555556 9.21052632,9.05555556 Z M8.35885167,6.06367598 L9.71291866,6.06367598 L9.71291866,5.94652406 C9.70653904,5.65514478 9.65550287,5.43436069 9.55980861,5.28416518 C9.46411435,5.13396967 9.29824679,5.05887304 9.06220096,5.05887304 C8.82615512,5.05887304 8.65470548,5.13847547 8.54784689,5.29768271 C8.4409883,5.45688995 8.37799053,5.71221848 8.35885167,6.06367598 Z M14.1004785,7.65874431 C14.1004785,7.55060354 14.0454551,7.45072502 13.9354067,7.35910576 C13.8253583,7.2674865 13.5805442,7.14357707 13.2009569,6.98737374 C12.6427404,6.77409611 12.2591717,6.55331203 12.0502392,6.32501485 C11.8413068,6.09671768 11.7368421,5.81285243 11.7368421,5.47341058 C11.7368421,5.04685533 11.9003173,4.69465215 12.2272727,4.41679045 C12.5542281,4.13892876 12.9872381,4 13.5263158,4 C14.0941017,4 14.5486426,4.1381778 14.8899522,4.41453753 C15.2312617,4.69089727 15.4019139,5.06187461 15.4019139,5.52748069 L14.0478469,5.52748069 C14.0478469,5.13096455 13.87241,4.93270945 13.5215311,4.93270945 C13.3779897,4.93270945 13.2599686,4.97476356 13.1674641,5.05887304 C13.0749597,5.14298253 13.0287081,5.26013327 13.0287081,5.41032878 C13.0287081,5.51846954 13.0797443,5.61384226 13.1818182,5.69644979 C13.2838921,5.77905732 13.524719,5.89695903 13.9043062,6.05015845 C14.4561431,6.2424087 14.8460914,6.45643409 15.0741627,6.69224104 C15.302234,6.92804799 15.4162679,7.23369126 15.4162679,7.60918004 C15.4162679,8.04474701 15.242426,8.3946973 14.8947368,8.65904139 C14.5470477,8.92338549 14.0909119,9.05555556 13.5263158,9.05555556 C13.1467286,9.05555556 12.8118037,8.98571569 12.5215311,8.84603387 C12.2312585,8.70635204 12.0039881,8.51185178 11.8397129,8.26252723 C11.6754378,8.01320269 11.5933014,7.74435676 11.5933014,7.45598138 L12.8803828,7.45598138 C12.8867624,7.67827074 12.9417858,7.84498525 13.0454545,7.95612993 C13.1491233,8.0672746 13.3189781,8.12284611 13.5550239,8.12284611 C13.9186621,8.12284611 14.1004785,7.96814705 14.1004785,7.65874431 Z M18.1291866,7.99668251 C18.5215331,7.99668251 18.7208931,7.7563733 18.7272727,7.27574767 L20,7.27574767 C19.9936204,7.80743977 19.8197784,8.23699249 19.4784689,8.5644187 C19.1371594,8.89184491 18.6969724,9.05555556 18.1578947,9.05555556 C17.4912247,9.05555556 16.9824579,8.86030432 16.6315789,8.469796 C16.2807,8.07928768 16.1020734,7.5040475 16.0956938,6.74405823 L16.0956938,6.35655575 C16.0956938,5.59055866 16.2687383,5.00630689 16.6148325,4.60378293 C16.9609268,4.20125896 17.4720859,4 18.1483254,4 C18.7193011,4 19.1690574,4.16596355 19.4976077,4.49789562 C19.8261579,4.8298277 19.9936204,5.30068356 20,5.91047732 L18.7272727,5.91047732 C18.7240829,5.6371215 18.6762365,5.42685094 18.5837321,5.27965934 C18.4912276,5.13246774 18.3381191,5.05887304 18.1244019,5.05887304 C17.8883561,5.05887304 17.7192988,5.1377245 17.6172249,5.29542979 C17.515151,5.45313507 17.4609251,5.75877835 17.4545455,6.21236879 L17.4545455,6.70801149 C17.4545455,7.10452763 17.4752789,7.38163419 17.5167464,7.53933947 C17.5582139,7.69704476 17.6267938,7.81269356 17.722488,7.88628936 C17.8181823,7.95988516 17.9537471,7.99668251 18.1291866,7.99668251 Z" id="key_esc-Combined-Shape" fill-rule="nonzero"/> </g> </symbol><symbol viewBox="0 0 19 12" id="key_return"><title>Shape</title> <!-- Generator: Sketch 51.1 (57501) - http://www.bohemiancoding.com/sketch -->    <g id="key_return-Prototype" stroke-width="1" fill-rule="evenodd"> <path d="M16.5825,1.5825 L16.5825,4.5825 L3.4125,4.5825 L6.2925,1.7025 C6.6825,1.3125 6.6825,0.6825 6.2925,0.2925 C5.9025,-0.0975 5.2725,-0.0975 4.8825,0.2925 L0.2925,4.8825 C-0.0975,5.2725 -0.0975,5.9025 0.2925,6.2925 L4.8825,10.8825 C5.2725,11.2725 5.9025,11.2725 6.2925,10.8825 C6.6825,10.4925 6.6825,9.8625 6.2925,9.4725 L3.4125,6.5825 L17.5825,6.5825 C18.1325,6.5825 18.5825,6.1325 18.5825,5.5825 L18.5825,1.5825 C18.5825,1.0325 18.1325,0.5825 17.5825,0.5825 C17.0325,0.5825 16.5825,1.0325 16.5825,1.5825 Z" id="key_return-Shape" fill-rule="nonzero"/> </g> </symbol><symbol viewBox="0 0 18 12" id="key_up_down"><title>Combined Shape</title> <!-- Generator: Sketch 51.1 (57501) - http://www.bohemiancoding.com/sketch -->    <g id="key_up_down-Prototype" stroke-width="1" fill-rule="evenodd"> <path d="M0.5615971,4.19846974 C0.0607855999,4.19846974 -0.184055578,3.59749594 0.1609479,3.25249246 L3.2659792,0.158590308 C3.48856209,-0.0528634361 3.83356557,-0.0528634361 4.05614846,0.158590308 L7.16117976,3.25249246 C7.51731238,3.59749594 7.2724712,4.19846974 6.7716597,4.19846974 L4.77954285,4.19846974 L4.77954285,10.8870856 C4.77954285,11.4991885 4.27873135,12 3.6666284,12 C3.05452546,12 2.55371396,11.4991885 2.55371396,10.8870856 L2.55371396,4.19846974 L0.5615971,4.19846974 Z M10.5778271,7.80153026 L12.569944,7.80153026 L12.569944,1.11291444 C12.569944,0.5008115 13.0707555,-7.10542736e-15 13.6828584,-7.10542736e-15 C14.2949613,-7.10542736e-15 14.7957728,0.5008115 14.7957728,1.11291444 L14.7957728,7.80153026 L16.7878897,7.80153026 C17.2887012,7.80153026 17.5335424,8.40250406 17.1774098,8.74750754 L14.0723785,11.8414097 C13.8497956,12.0528634 13.5047921,12.0528634 13.2822092,11.8414097 L10.1771779,8.74750754 C9.83217442,8.40250406 10.0770156,7.80153026 10.5778271,7.80153026 Z" id="key_up_down-Combined-Shape" fill-rule="nonzero"/> </g> </symbol><symbol viewBox="0 0 23 23" id="segment"><title>Combined Shape</title> <!-- Generator: Sketch 51.1 (57501) - http://www.bohemiancoding.com/sketch -->    <g id="segment-Prototype" stroke-width="1" fill-rule="evenodd"> <path d="M23,10 L13,10 L13,0 C15.6521649,0 18.195704,1.0535684 20.0710678,2.92893219 C21.9464316,4.80429597 23,7.3478351 23,10 Z" id="segment-Combined-Shape"/> <path d="M11,23 C4.92486775,23 0,18.0751322 0,12 C0,5.92486775 4.92486775,1 11,1 L11,12 L22,12 C22,18.0751322 17.0751322,23 11,23 Z" id="segment-Path"/> </g> </symbol><symbol viewBox="0 0 24 24" id="arrow-down"><title>arrow-down</title> <path d="M12 2q0.414 0 0.707 0.293t0.293 0.707v15.586l5.289-5.297q0.289-0.289 0.711-0.289 0.43 0 0.715 0.285t0.285 0.715q0 0.422-0.289 0.711l-7 7q-0.289 0.289-0.711 0.289t-0.711-0.289l-7-7q-0.289-0.289-0.289-0.711 0-0.43 0.285-0.715t0.715-0.285q0.422 0 0.711 0.289l5.289 5.297v-15.586q0-0.414 0.293-0.707t0.707-0.293z" fill-rule="nonzero"/> </symbol><symbol viewBox="0 0 24 24" id="arrow-left"><title>arrow-left</title> <path d="M10 4q0.414 0 0.707 0.293t0.293 0.707q0 0.422-0.297 0.711l-5.289 5.289h15.586q0.414 0 0.707 0.293t0.293 0.707-0.293 0.707-0.707 0.293h-15.586l5.289 5.289q0.297 0.289 0.297 0.711 0 0.414-0.293 0.707t-0.707 0.293q-0.422 0-0.711-0.289l-7-7q-0.289-0.305-0.289-0.711t0.289-0.711l7-7q0.297-0.289 0.711-0.289z"/> </symbol><symbol viewBox="0 0 24 24" id="arrow-right"><title>arrow-right</title> <path d="M14 4q0.422 0 0.711 0.289l7 7q0.289 0.289 0.289 0.711t-0.289 0.711l-7 7q-0.289 0.289-0.711 0.289-0.43 0-0.715-0.285t-0.285-0.715q0-0.422 0.289-0.711l5.297-5.289h-15.586q-0.414 0-0.707-0.293t-0.293-0.707 0.293-0.707 0.707-0.293h15.586l-5.297-5.289q-0.289-0.289-0.289-0.711 0-0.43 0.285-0.715t0.715-0.285z"/> </symbol><symbol viewBox="0 0 24 24" id="arrow-up"><title>arrow-up</title> <path d="M12 2q0.422 0 0.711 0.289l7 7q0.289 0.289 0.289 0.711 0 0.43-0.285 0.715t-0.715 0.285q-0.422 0-0.711-0.289l-5.289-5.297v15.586q0 0.414-0.293 0.707t-0.707 0.293-0.707-0.293-0.293-0.707v-15.586l-5.289 5.297q-0.289 0.289-0.711 0.289-0.43 0-0.715-0.285t-0.285-0.715q0-0.422 0.289-0.711l7-7q0.289-0.289 0.711-0.289z"/> </symbol><symbol viewBox="0 0 24 24" id="download"><title>download</title> <path d="M12 1q0.414 0 0.707 0.293t0.293 0.707v11.586l3.289-3.297q0.289-0.289 0.711-0.289 0.43 0 0.715 0.285t0.285 0.715q0 0.422-0.289 0.711l-5 5q-0.289 0.289-0.711 0.289t-0.711-0.289l-5-5q-0.289-0.305-0.289-0.711 0-0.414 0.293-0.707t0.707-0.293q0.422 0 0.711 0.289l3.289 3.297v-11.586q0-0.414 0.293-0.707t0.707-0.293zM22 15q0.414 0 0.707 0.293t0.293 0.707v4q0 1.25-0.867 2.117-0.883 0.883-2.109 0.883h-16.023q-1.227 0-2.125-0.875-0.875-0.898-0.875-2.125v-4q0-0.414 0.293-0.707t0.707-0.293 0.707 0.293 0.293 0.707v4q0 0.414 0.293 0.707t0.707 0.293h16.023q0.406 0 0.691-0.293t0.285-0.707v-4q0-0.414 0.293-0.707t0.707-0.293z"/> </symbol><symbol viewBox="0 0 22 22" id="help"><title>Shape</title> <!-- Generator: Sketch 47.1 (45422) - http://www.bohemiancoding.com/sketch -->    <g id="help-Page-1" stroke-width="1" fill-rule="evenodd"> <path d="M18.7781368,18.7781368 C14.4823719,23.0739017 7.51754411,23.0739017 3.22182322,18.7781368 C-1.07394168,14.4823719 -1.07394168,7.51754411 3.22182322,3.22182322 C7.51758811,-1.07394168 14.4824159,-1.07394168 18.7781404,3.22182684 C23.0739017,7.51758811 23.0739017,14.4824159 18.7781368,18.7781368 Z M4.63603316,4.6360404 C1.12132168,8.15071589 1.12132168,13.8492081 4.6360404,17.3639268 C8.15071589,20.8786383 13.8492081,20.8786383 17.3639268,17.3639196 C20.8786383,13.8492441 20.8786383,8.15075189 17.3639232,4.63603678 C13.8492441,1.12132168 8.15075189,1.12132168 4.63603316,4.6360404 Z M11,17 C10.4477153,17 10,16.5522847 10,16 C10,15.4477153 10.4477153,15 11,15 C11.5522847,15 12,15.4477153 12,16 C12,16.5522847 11.5522847,17 11,17 Z M9.03333467,8.3318429 C8.85006289,8.85283225 8.27914645,9.12660644 7.7581571,8.94333467 C7.23716775,8.76006289 6.96339356,8.18914645 7.14666533,7.6681571 C7.87975313,5.58419767 10.1634252,4.48910148 12.2473728,5.22219515 C13.850703,5.78620871 14.9225323,7.30185782 14.9200001,8.99999986 C14.9200001,10.2797248 14.1618118,11.2906425 12.9747002,12.0820502 C12.3257813,12.5146628 11.6882584,12.7980063 11.2362278,12.9486832 C10.7122845,13.1233309 10.1459645,12.8401709 9.97131675,12.3162276 C9.79666898,11.7922843 10.079829,11.2259643 10.6037723,11.0513166 C10.6686405,11.0296938 10.8031012,10.9784707 10.9826116,10.8986883 C11.2857144,10.7639759 11.5884438,10.6025203 11.8652999,10.4179496 C12.5531883,9.95935725 12.9200001,9.47027495 12.9200012,8.99850934 C12.9212678,8.14869698 12.3853525,7.39087138 11.5836831,7.1088631 C10.5417123,6.74231734 9.39987807,7.28986459 9.03333467,8.3318429 Z" id="help-Combined-Shape" fill-rule="nonzero"/> </g> </symbol><symbol viewBox="0 0 24 24" id="search"><title>search</title> <path d="M10 1q1.828 0 3.496 0.715t2.871 1.918 1.918 2.871 0.715 3.496q0 1.57-0.512 3.008t-1.457 2.609l5.68 5.672q0.289 0.289 0.289 0.711 0 0.43-0.285 0.715t-0.715 0.285q-0.422 0-0.711-0.289l-5.672-5.68q-1.172 0.945-2.609 1.457t-3.008 0.512q-1.828 0-3.496-0.715t-2.871-1.918-1.918-2.871-0.715-3.496 0.715-3.496 1.918-2.871 2.871-1.918 3.496-0.715zM10 3q-1.422 0-2.719 0.555t-2.234 1.492-1.492 2.234-0.555 2.719 0.555 2.719 1.492 2.234 2.234 1.492 2.719 0.555 2.719-0.555 2.234-1.492 1.492-2.234 0.555-2.719-0.555-2.719-1.492-2.234-2.234-1.492-2.719-0.555z"/> </symbol></svg>