<svg version="1.1" xmlns="http://www.w3.org/2000/svg" xmlns:xlink="http://www.w3.org/1999/xlink"><symbol viewBox="0 0 119 102" id="biings-care"><title>biings-care</title> <!--Generated by IJSVG (https://github.com/iconjar/IJSVG)--> <path d="M57.6914,81.4753c2.8541,0 5.1678,2.28064 5.1678,5.09395c0,2.81331 -2.3137,5.09395 -5.1678,5.09395c-3.67317,0 -6.50533,-0.560563 -9.08251,-1.60601c-9.76802,8.42223 -21.0612,11.467 -36.689,11.8205c-4.72414,0.106847 -7.10391,-5.57583 -3.67885,-8.78482c0.333674,-0.312625 0.957123,-0.92071 1.77143,-1.7567c1.36491,-1.40124 2.72941,-2.89997 3.99179,-4.42242c1.24949,-1.5069 2.3255,-2.95071 3.17229,-4.27954c1.20472,-1.8905 1.82553,-3.38998 1.86362,-4.08733c-11.6685,-8.38433 -18.6109,-20.5264 -18.6109,-33.7016c8.88178e-16,-25.0286 24.7433,-44.8453 54.8019,-44.8453c25.2412,0 47.2204,14.0581 53.2221,34.0948c0.808223,2.69815 -0.755578,5.53126 -3.49285,6.32796c-2.73727,0.796673 -5.61145,-0.744781 -6.4197,-3.44293c-4.61893,-15.4197 -22.3987,-26.7918 -43.3098,-26.7918c-24.7683,0 -44.4662,15.7759 -44.4662,34.6574c3.55271e-15,10.3357 5.90343,20.0358 16.076,26.6384c1.22575,0.795583 2.05051,2.06737 2.26846,3.49797c0.177265,1.16355 0.268248,2.32943 0.268248,3.49932c0,3.0241 -1.2601,6.13739 -3.4489,9.57219c-0.516398,0.81036 -1.08279,1.63251 -1.69441,2.46479c7.94415,-1.50101 14.0734,-4.55605 19.6028,-10.0064c1.13154,-1.11537 2.72344,-1.6511 4.31071,-1.45071c1.43699,0.181418 5.46138,1.99375 4.53423,1.63101c1.27979,0.502986 2.75823,0.783449 5.00937,0.783449l3.87e-05,-5.1e-05Zm56.0953,-3.85455l-17.9816,17.7246c-1.66048,1.63675 -4.35266,1.63675 -6.01313,0l-17.9816,-17.7246c-6.03056,-5.94438 -6.03056,-15.5821 2.6e-06,-21.5265c5.71775,-5.63604 16.0481,-3.75009 20.9887,1.53451c4.71645,-5.2846 15.2724,-7.17072 20.9921,-1.53015c6.02801,5.94476 6.02571,15.5808 -0.004509,21.5221Z"/> </symbol><symbol viewBox="0 0 90 107" id="biings-claim"><title>biings-claim</title> <!--Generated by IJSVG (https://github.com/iconjar/IJSVG)--> <path d="M18.554,94.8408c-11.4734,0 -18.554,-7.22473 -18.554,-18.9417l-6.82121e-13,-56.9574c0,-11.722 7.06812,-18.9417 18.5415,-18.9417h52.917c11.4755,0 18.5415,7.22591 18.5415,18.9741v38.2629c0,2.71458 -2.15164,4.91518 -4.80582,4.91518c-2.65418,0 -4.80582,-2.2006 -4.80582,-4.91518v-38.2629c0,-6.31871 -2.76243,-9.14371 -8.92985,-9.14371h-52.917c-6.16775,0 -8.92985,2.82135 -8.92985,9.11137v56.9574c0,6.28268 2.77229,9.11137 8.94239,9.11137h55.7245v9.83036h-55.7245Zm10.1431,-58.8793c-2.65418,0 -4.80582,-2.2006 -4.80582,-4.91518c0,-2.71458 2.15164,-4.91518 4.80582,-4.91518h33.7892c2.65418,0 4.80582,2.2006 4.80582,4.91518c0,2.71458 -2.15164,4.91518 -4.80582,4.91518h-33.7892Zm0,18.6651c-2.65418,0 -4.80582,-2.2006 -4.80582,-4.91518c0,-2.71458 2.15164,-4.91518 4.80582,-4.91518h33.7892c2.65418,0 4.80582,2.2006 4.80582,4.91518c0,2.71458 -2.15164,4.91518 -4.80582,4.91518h-33.7892Zm43.2719,20.2857l16.1275,11.9907c2.0475,1.5223 2.47326,4.4162 0.950956,6.4637c-0.292863,0.393901 -0.646629,0.738613 -1.04799,1.02117l-16.1275,11.3535c-2.08628,1.46871 -4.96816,0.968077 -6.43688,-1.1182c-0.548046,-0.778489 -0.842189,-1.70729 -0.842189,-2.65934v-23.3442c0,-2.5514 2.06832,-4.61973 4.61973,-4.61973c0.99297,0 1.95951,0.31994 2.75637,0.912398Z"/> </symbol><symbol viewBox="0 0 137 137" id="biings-pilot"><title>biings-pilot</title> <!--Generated by IJSVG (https://github.com/iconjar/IJSVG)--> <path d="M108.836,108.836c2.20673,-2.20673 5.78455,-2.20673 7.99128,0c2.20673,2.20673 2.20673,5.78455 0,7.99128c-26.726,26.726 -70.0574,26.726 -96.7831,0c-26.726,-26.726 -26.726,-70.0574 -7.10543e-15,-96.7831c26.726,-26.726 70.0574,-26.726 96.7831,-7.10543e-15c18.3211,18.3211 24.542,45.0905 16.7785,69.3238c-0.952122,2.972 -4.13325,4.60944 -7.10525,3.65732c-2.972,-0.952122 -4.60944,-4.13325 -3.65732,-7.10526c6.48427,-20.2403 1.29138,-42.5859 -14.0073,-57.8846c-22.3122,-22.3125 -58.488,-22.3125 -80.8005,4.1e-05c-22.3125,22.3122 -22.3125,58.488 4.1e-05,80.8005c22.3122,22.3125 58.488,22.3125 80.8005,-2.1e-05Zm-13.0645,-60.5881l-10.9875,32.9624c-0.562442,1.68732 -1.88649,3.01137 -3.57381,3.57381l-32.9624,10.9875c-4.41747,1.47249 -8.62011,-2.73015 -7.14762,-7.14762l10.9875,-32.9624c0.562442,-1.68732 1.88649,-3.01137 3.57381,-3.57381l32.9624,-10.9875c4.41747,-1.47249 8.62011,2.73015 7.14762,7.14762Zm-33.8558,13.6678l-6.52019,19.5606l19.5606,-6.52019l-13.0404,-13.0404Z"/> </symbol><symbol viewBox="0 0 24 24" id="biings"><title>bell</title> <!-- Generator: Sketch 48.2 (47327) - http://www.bohemiancoding.com/sketch -->    <g id="biings-Finals" stroke-width="1" fill-rule="evenodd"> <path d="M6.53319534,13.5922928 L6.50181818,13.2295547 C6.50181818,13.2295547 6.50181818,12.3693788 8.2390847,12.3693778 C8.6594081,12.3693776 8.97803624,12.4197301 9.21957382,12.4960701 L9.39661658,17.4706709 C8.52637945,17.1497107 7.74262751,16.5090839 7.3654233,15.7239039 L7.15975804,15.2893714 C6.95329081,14.8172472 6.73456858,14.2224923 6.53319534,13.5922928 L6.53319534,13.5922928 Z M17.6891748,15.0920357 L17.8472727,13.2295547 C17.8472727,13.2295547 17.8472727,12.3693768 16.1100062,12.3693778 C15.6914012,12.369378 15.3736617,12.4193199 15.1324834,12.4951359 L15.1324834,12.4951359 L14.9931391,16.6930284 C15.3861244,16.5550521 15.7507837,16.4139376 16.0621711,16.2781324 L16.497294,16.0727462 C16.9449621,15.8582675 17.3537981,15.5116496 17.6891748,15.0920357 L17.6891748,15.0920357 Z M14.0509706,17.0009106 L14.2213426,11.87401 C14.2213426,11.87401 14.2213426,10.8605734 12.1745455,10.8605745 C10.1277483,10.8605756 10.1277483,11.87401 10.1277483,11.87401 L10.3344937,17.6832032 C10.5219732,17.6987687 10.7082911,17.6974672 10.8904703,17.6776696 L11.3647792,17.6220326 C12.120736,17.5257371 13.1088298,17.2873067 14.0509706,17.0009106 L14.0509706,17.0009106 Z M8.13909011,11.6554304 C8.79846499,11.6554304 9.33299394,11.1216268 9.33299394,10.4631466 C9.33299394,9.80466636 8.79846499,9.27086268 8.13909011,9.27086268 C7.47971524,9.27086268 6.94518629,9.80466636 6.94518629,10.4631466 C6.94518629,11.1216268 7.47971524,11.6554304 8.13909011,11.6554304 L8.13909011,11.6554304 Z M16.1845235,11.6554304 C16.8438984,11.6554304 17.3784273,11.1216268 17.3784273,10.4631466 C17.3784273,9.80466636 16.8438984,9.27086268 16.1845235,9.27086268 C15.5251486,9.27086268 14.9906197,9.80466636 14.9906197,10.4631466 C14.9906197,11.1216268 15.5251486,11.6554304 16.1845235,11.6554304 L16.1845235,11.6554304 Z M8.70121263,1.00312698 C16.9477972,-1.46760657 20.5214195,0.454011193 22.9955101,8.68940637 C25.4696006,16.9248016 23.5453719,20.493575 15.2987874,22.9643086 C7.05220279,25.4350421 3.47858045,23.5134244 1.00448993,15.2780292 C-1.4696006,7.042634 0.454628057,3.47386053 8.70121263,1.00312698 Z M12.161216,9.76073716 C13.0648038,9.76073716 13.7973064,9.02922843 13.7973064,8.12686667 C13.7973064,7.22450491 13.0648038,6.49299618 12.161216,6.49299618 C11.2576282,6.49299618 10.5251256,7.22450491 10.5251256,8.12686667 C10.5251256,9.02922843 11.2576282,9.76073716 12.161216,9.76073716 Z" id="biings-Rectangle-16-Copy-7"/> </g> </symbol><symbol viewBox="0 0 107 129" id="legal-proof"><title>shield-18-icon copy 2</title> <!-- Generator: Sketch 48.2 (47327) - http://www.bohemiancoding.com/sketch -->    <g id="legal-proof-FS-Icons" stroke-width="1" fill-rule="evenodd"> <path d="M95.5782602,74.6963427 C95.5782602,83.559796 92.9130319,88.1376391 88.9117784,92.2852002 C82.0991629,99.3457713 69.6372545,106.322796 53.7489318,116.062949 C37.8591726,106.32172 25.3987004,99.3454126 18.5860852,92.2852002 C14.5844725,88.1379977 11.9196031,83.559796 11.9196031,74.6963427 L11.9196031,30.1819825 C26.5745893,28.8323308 39.11118,24.7349693 53.7489318,14.2127786 C68.3866833,24.7349693 80.923274,28.8319724 95.5782602,30.1819825 L95.5782602,74.6963427 Z M0.59298556,19.3343447 L0.59298556,73.8896552 C0.59298556,100.686379 19.9519395,107.683715 53.7489318,129 C87.5459238,107.683715 106.904878,100.686379 106.904878,73.8896552 L106.904878,19.3343447 C86.4124963,19.3343447 73.401687,16.6868962 53.7489318,0 C34.0961765,16.6868962 21.085367,19.3343447 0.59298556,19.3343447 Z" id="legal-proof-shield-18-icon-copy-2"/> <polygon id="legal-proof-Shape-Copy-2" fill-rule="nonzero" points="49.1865926 85.4492754 29 65.4439026 39.0145502 55.5196815 49.1865926 65.6008331 70.9854498 44 81 53.9242211"/> </g> </symbol><symbol viewBox="0 0 24 24" id="arrow-down"><title>arrow-down</title> <path d="M12 2q0.414 0 0.707 0.293t0.293 0.707v15.586l5.289-5.297q0.289-0.289 0.711-0.289 0.43 0 0.715 0.285t0.285 0.715q0 0.422-0.289 0.711l-7 7q-0.289 0.289-0.711 0.289t-0.711-0.289l-7-7q-0.289-0.289-0.289-0.711 0-0.43 0.285-0.715t0.715-0.285q0.422 0 0.711 0.289l5.289 5.297v-15.586q0-0.414 0.293-0.707t0.707-0.293z" fill-rule="nonzero"/> </symbol><symbol viewBox="0 0 24 24" id="arrow-left"><title>arrow-left</title> <path d="M10 4q0.414 0 0.707 0.293t0.293 0.707q0 0.422-0.297 0.711l-5.289 5.289h15.586q0.414 0 0.707 0.293t0.293 0.707-0.293 0.707-0.707 0.293h-15.586l5.289 5.289q0.297 0.289 0.297 0.711 0 0.414-0.293 0.707t-0.707 0.293q-0.422 0-0.711-0.289l-7-7q-0.289-0.305-0.289-0.711t0.289-0.711l7-7q0.297-0.289 0.711-0.289z"/> </symbol><symbol viewBox="0 0 24 24" id="arrow-right"><title>arrow-right</title> <path d="M14 4q0.422 0 0.711 0.289l7 7q0.289 0.289 0.289 0.711t-0.289 0.711l-7 7q-0.289 0.289-0.711 0.289-0.43 0-0.715-0.285t-0.285-0.715q0-0.422 0.289-0.711l5.297-5.289h-15.586q-0.414 0-0.707-0.293t-0.293-0.707 0.293-0.707 0.707-0.293h15.586l-5.297-5.289q-0.289-0.289-0.289-0.711 0-0.43 0.285-0.715t0.715-0.285z"/> </symbol><symbol viewBox="0 0 24 24" id="arrow-up"><title>arrow-up</title> <path d="M12 2q0.422 0 0.711 0.289l7 7q0.289 0.289 0.289 0.711 0 0.43-0.285 0.715t-0.715 0.285q-0.422 0-0.711-0.289l-5.289-5.297v15.586q0 0.414-0.293 0.707t-0.707 0.293-0.707-0.293-0.293-0.707v-15.586l-5.289 5.297q-0.289 0.289-0.711 0.289-0.43 0-0.715-0.285t-0.285-0.715q0-0.422 0.289-0.711l7-7q0.289-0.289 0.711-0.289z"/> </symbol><symbol viewBox="0 0 18 22" id="book"><title>book</title> <path d="M2,18.5 C2,19.0522847 1.55228475,19.5 1,19.5 C0.44771525,19.5 0,19.0522847 0,18.5 C0,16.5670034 1.56700338,15 3.5,15 L17,15 C17.5522847,15 18,15.4477153 18,16 C18,16.5522847 17.5522847,17 17,17 L3.5,17 C2.67157288,17 2,17.6715729 2,18.5 Z M3.5,0 L17,0 C17.5522847,0 18,0.44771525 18,1 L18,21 C18,21.5522847 17.5522847,22 17,22 L3.5,22 C1.56700338,22 0,20.4329966 0,18.5 L0,3.5 C0,1.56700338 1.56700338,0 3.5,0 Z M16,2 L3.5,2 C2.67157288,2 2,2.67157288 2,3.5 L2,18.5 C2,19.3284271 2.67157288,20 3.5,20 L16,20 L16,2 Z"/> </symbol><symbol viewBox="0 0 22 20" id="briefcase"><title>briefcase</title> <path d="M3,6 C2.44771525,6 2,6.44771525 2,7 L2,17 C2,17.5522847 2.44771525,18 3,18 L19,18 C19.5522847,18 20,17.5522847 20,17 L20,7 C20,6.44771525 19.5522847,6 19,6 L3,6 Z M3,4 L19,4 C20.6568542,4 22,5.34314575 22,7 L22,17 C22,18.6568542 20.6568542,20 19,20 L3,20 C1.34314575,20 0,18.6568542 0,17 L0,7 C0,5.34314575 1.34314575,4 3,4 Z M16,19 C16,19.5522847 15.5522847,20 15,20 C14.4477153,20 14,19.5522847 14,19 L14,3 C14,2.44771525 13.5522847,2 13,2 L9,2 C8.44771525,2 8,2.44771525 8,3 L8,19 C8,19.5522847 7.55228475,20 7,20 C6.44771525,20 6,19.5522847 6,19 L6,3 C6,1.34314575 7.34314575,0 9,0 L13,0 C14.6568542,0 16,1.34314575 16,3 L16,19 Z"/> </symbol><symbol viewBox="0 0 24 24" id="check"><title>check</title> <path d="M21 5q0.43 0 0.715 0.285t0.285 0.715q0 0.422-0.289 0.711l-12 12q-0.289 0.289-0.711 0.289t-0.711-0.289l-6-6q-0.289-0.289-0.289-0.711 0-0.43 0.285-0.715t0.715-0.285q0.422 0 0.711 0.289l5.289 5.297 11.289-11.297q0.289-0.289 0.711-0.289z"/> </symbol><symbol viewBox="0 0 24 24" id="circle-minus"><title>circle-minus</title> <path d="M12 1q2.242 0 4.277 0.871t3.508 2.344 2.344 3.508 0.871 4.277-0.871 4.277-2.344 3.508-3.508 2.344-4.277 0.871-4.277-0.871-3.508-2.344-2.344-3.508-0.871-4.277 0.871-4.277 2.344-3.508 3.508-2.344 4.277-0.871zM12 3q-1.828 0-3.496 0.715t-2.871 1.918-1.918 2.871-0.715 3.496 0.715 3.496 1.918 2.871 2.871 1.918 3.496 0.715 3.496-0.715 2.871-1.918 1.918-2.871 0.715-3.496-0.715-3.496-1.918-2.871-2.871-1.918-3.496-0.715zM8 11h8q0.414 0 0.707 0.293t0.293 0.707-0.293 0.707-0.707 0.293h-8q-0.414 0-0.707-0.293t-0.293-0.707 0.293-0.707 0.707-0.293z"/> </symbol><symbol viewBox="0 0 24 24" id="circle-plus"><title>circle-plus</title> <path d="M12 1q2.242 0 4.277 0.871t3.508 2.344 2.344 3.508 0.871 4.277-0.871 4.277-2.344 3.508-3.508 2.344-4.277 0.871-4.277-0.871-3.508-2.344-2.344-3.508-0.871-4.277 0.871-4.277 2.344-3.508 3.508-2.344 4.277-0.871zM12 3q-1.828 0-3.496 0.715t-2.871 1.918-1.918 2.871-0.715 3.496 0.715 3.496 1.918 2.871 2.871 1.918 3.496 0.715 3.496-0.715 2.871-1.918 1.918-2.871 0.715-3.496-0.715-3.496-1.918-2.871-2.871-1.918-3.496-0.715zM12 7q0.414 0 0.707 0.293t0.293 0.707v3h3q0.414 0 0.707 0.293t0.293 0.707-0.293 0.707-0.707 0.293h-3v3q0 0.414-0.293 0.707t-0.707 0.293-0.707-0.293-0.293-0.707v-3h-3q-0.414 0-0.707-0.293t-0.293-0.707 0.293-0.707 0.707-0.293h3v-3q0-0.414 0.293-0.707t0.707-0.293z"/> </symbol><symbol viewBox="0 0 24 24" id="download"><title>download</title> <path d="M12 1q0.414 0 0.707 0.293t0.293 0.707v11.586l3.289-3.297q0.289-0.289 0.711-0.289 0.43 0 0.715 0.285t0.285 0.715q0 0.422-0.289 0.711l-5 5q-0.289 0.289-0.711 0.289t-0.711-0.289l-5-5q-0.289-0.305-0.289-0.711 0-0.414 0.293-0.707t0.707-0.293q0.422 0 0.711 0.289l3.289 3.297v-11.586q0-0.414 0.293-0.707t0.707-0.293zM22 15q0.414 0 0.707 0.293t0.293 0.707v4q0 1.25-0.867 2.117-0.883 0.883-2.109 0.883h-16.023q-1.227 0-2.125-0.875-0.875-0.898-0.875-2.125v-4q0-0.414 0.293-0.707t0.707-0.293 0.707 0.293 0.293 0.707v4q0 0.414 0.293 0.707t0.707 0.293h16.023q0.406 0 0.691-0.293t0.285-0.707v-4q0-0.414 0.293-0.707t0.707-0.293z"/> </symbol><symbol viewBox="0 0 22 22" id="help"><title>Shape</title> <!-- Generator: Sketch 47.1 (45422) - http://www.bohemiancoding.com/sketch -->    <g id="help-Page-1" stroke-width="1" fill-rule="evenodd"> <path d="M18.7781368,18.7781368 C14.4823719,23.0739017 7.51754411,23.0739017 3.22182322,18.7781368 C-1.07394168,14.4823719 -1.07394168,7.51754411 3.22182322,3.22182322 C7.51758811,-1.07394168 14.4824159,-1.07394168 18.7781404,3.22182684 C23.0739017,7.51758811 23.0739017,14.4824159 18.7781368,18.7781368 Z M4.63603316,4.6360404 C1.12132168,8.15071589 1.12132168,13.8492081 4.6360404,17.3639268 C8.15071589,20.8786383 13.8492081,20.8786383 17.3639268,17.3639196 C20.8786383,13.8492441 20.8786383,8.15075189 17.3639232,4.63603678 C13.8492441,1.12132168 8.15075189,1.12132168 4.63603316,4.6360404 Z M11,17 C10.4477153,17 10,16.5522847 10,16 C10,15.4477153 10.4477153,15 11,15 C11.5522847,15 12,15.4477153 12,16 C12,16.5522847 11.5522847,17 11,17 Z M9.03333467,8.3318429 C8.85006289,8.85283225 8.27914645,9.12660644 7.7581571,8.94333467 C7.23716775,8.76006289 6.96339356,8.18914645 7.14666533,7.6681571 C7.87975313,5.58419767 10.1634252,4.48910148 12.2473728,5.22219515 C13.850703,5.78620871 14.9225323,7.30185782 14.9200001,8.99999986 C14.9200001,10.2797248 14.1618118,11.2906425 12.9747002,12.0820502 C12.3257813,12.5146628 11.6882584,12.7980063 11.2362278,12.9486832 C10.7122845,13.1233309 10.1459645,12.8401709 9.97131675,12.3162276 C9.79666898,11.7922843 10.079829,11.2259643 10.6037723,11.0513166 C10.6686405,11.0296938 10.8031012,10.9784707 10.9826116,10.8986883 C11.2857144,10.7639759 11.5884438,10.6025203 11.8652999,10.4179496 C12.5531883,9.95935725 12.9200001,9.47027495 12.9200012,8.99850934 C12.9212678,8.14869698 12.3853525,7.39087138 11.5836831,7.1088631 C10.5417123,6.74231734 9.39987807,7.28986459 9.03333467,8.3318429 Z" id="help-Combined-Shape" fill-rule="nonzero"/> </g> </symbol><symbol viewBox="0 0 20 22" id="off"><title>off</title> <path d="M15.6527778,6.34699132 C15.2623173,5.95640327 15.2624206,5.3232383 15.6530087,4.93277778 C16.0435967,4.54231725 16.6767617,4.54242063 17.0672222,4.93300868 C20.971527,8.83858854 20.9708378,15.1696447 17.065683,19.0743745 C13.1605281,22.9791043 6.8294719,22.9791043 2.92431703,19.0743745 C-0.980837829,15.1696447 -0.98152695,8.83858854 2.92277778,4.93300868 C3.3132383,4.54242063 3.94640327,4.54231725 4.33699132,4.93277778 C4.72757937,5.3232383 4.72768275,5.95640327 4.33722222,6.34699132 C1.21377844,9.47145521 1.21432974,14.5363001 4.33845363,17.660084 C7.46257752,20.7838679 12.5274225,20.7838679 15.6515464,17.660084 C18.7756703,14.5363001 18.7762216,9.47145521 15.6527778,6.34699132 Z M9,1 C9,0.44771525 9.44771525,0 10,0 C10.5522847,0 11,0.44771525 11,1 L11,11 C11,11.5522847 10.5522847,12 10,12 C9.44771525,12 9,11.5522847 9,11 L9,1 Z"/> </symbol><symbol viewBox="0 0 24 20" id="prefs"><title>prefs</title> <path d="M19,15 L17,15 C16.4477153,15 16,14.5522847 16,14 C16,13.4477153 16.4477153,13 17,13 L23,13 C23.5522847,13 24,13.4477153 24,14 C24,14.5522847 23.5522847,15 23,15 L21,15 L21,19 C21,19.5522847 20.5522847,20 20,20 C19.4477153,20 19,19.5522847 19,19 L19,15 Z M11,5 L11,1 C11,0.44771525 11.4477153,0 12,0 C12.5522847,0 13,0.44771525 13,1 L13,5 L15,5 C15.5522847,5 16,5.44771525 16,6 C16,6.55228475 15.5522847,7 15,7 L9,7 C8.44771525,7 8,6.55228475 8,6 C8,5.44771525 8.44771525,5 9,5 L11,5 Z M3,13 L1,13 C0.44771525,13 0,12.5522847 0,12 C0,11.4477153 0.44771525,11 1,11 L7,11 C7.55228475,11 8,11.4477153 8,12 C8,12.5522847 7.55228475,13 7,13 L5,13 L5,19 C5,19.5522847 4.55228475,20 4,20 C3.44771525,20 3,19.5522847 3,19 L3,13 Z M5,8 C5,8.55228475 4.55228475,9 4,9 C3.44771525,9 3,8.55228475 3,8 L3,1 C3,0.44771525 3.44771525,0 4,0 C4.55228475,0 5,0.44771525 5,1 L5,8 Z M13,19 C13,19.5522847 12.5522847,20 12,20 C11.4477153,20 11,19.5522847 11,19 L11,10 C11,9.44771525 11.4477153,9 12,9 C12.5522847,9 13,9.44771525 13,10 L13,19 Z M21,10 C21,10.5522847 20.5522847,11 20,11 C19.4477153,11 19,10.5522847 19,10 L19,1 C19,0.44771525 19.4477153,0 20,0 C20.5522847,0 21,0.44771525 21,1 L21,10 Z"/> </symbol><symbol viewBox="0 0 24 24" id="search"><title>search</title> <path d="M10 1q1.828 0 3.496 0.715t2.871 1.918 1.918 2.871 0.715 3.496q0 1.57-0.512 3.008t-1.457 2.609l5.68 5.672q0.289 0.289 0.289 0.711 0 0.43-0.285 0.715t-0.715 0.285q-0.422 0-0.711-0.289l-5.672-5.68q-1.172 0.945-2.609 1.457t-3.008 0.512q-1.828 0-3.496-0.715t-2.871-1.918-1.918-2.871-0.715-3.496 0.715-3.496 1.918-2.871 2.871-1.918 3.496-0.715zM10 3q-1.422 0-2.719 0.555t-2.234 1.492-1.492 2.234-0.555 2.719 0.555 2.719 1.492 2.234 2.234 1.492 2.719 0.555 2.719-0.555 2.234-1.492 1.492-2.234 0.555-2.719-0.555-2.719-1.492-2.234-2.234-1.492-2.719-0.555z"/> </symbol></svg>