<svg version="1.1" xmlns="http://www.w3.org/2000/svg" xmlns:xlink="http://www.w3.org/1999/xlink"><symbol viewBox="0 0 119 102" id="biings-care"><title>biings-care</title> <!--Generated by IJSVG (https://github.com/iconjar/IJSVG)--> <path d="M57.6914,81.4753c2.8541,0 5.1678,2.28064 5.1678,5.09395c0,2.81331 -2.3137,5.09395 -5.1678,5.09395c-3.67317,0 -6.50533,-0.560563 -9.08251,-1.60601c-9.76802,8.42223 -21.0612,11.467 -36.689,11.8205c-4.72414,0.106847 -7.10391,-5.57583 -3.67885,-8.78482c0.333674,-0.312625 0.957123,-0.92071 1.77143,-1.7567c1.36491,-1.40124 2.72941,-2.89997 3.99179,-4.42242c1.24949,-1.5069 2.3255,-2.95071 3.17229,-4.27954c1.20472,-1.8905 1.82553,-3.38998 1.86362,-4.08733c-11.6685,-8.38433 -18.6109,-20.5264 -18.6109,-33.7016c8.88178e-16,-25.0286 24.7433,-44.8453 54.8019,-44.8453c25.2412,0 47.2204,14.0581 53.2221,34.0948c0.808223,2.69815 -0.755578,5.53126 -3.49285,6.32796c-2.73727,0.796673 -5.61145,-0.744781 -6.4197,-3.44293c-4.61893,-15.4197 -22.3987,-26.7918 -43.3098,-26.7918c-24.7683,0 -44.4662,15.7759 -44.4662,34.6574c3.55271e-15,10.3357 5.90343,20.0358 16.076,26.6384c1.22575,0.795583 2.05051,2.06737 2.26846,3.49797c0.177265,1.16355 0.268248,2.32943 0.268248,3.49932c0,3.0241 -1.2601,6.13739 -3.4489,9.57219c-0.516398,0.81036 -1.08279,1.63251 -1.69441,2.46479c7.94415,-1.50101 14.0734,-4.55605 19.6028,-10.0064c1.13154,-1.11537 2.72344,-1.6511 4.31071,-1.45071c1.43699,0.181418 5.46138,1.99375 4.53423,1.63101c1.27979,0.502986 2.75823,0.783449 5.00937,0.783449l3.87e-05,-5.1e-05Zm56.0953,-3.85455l-17.9816,17.7246c-1.66048,1.63675 -4.35266,1.63675 -6.01313,0l-17.9816,-17.7246c-6.03056,-5.94438 -6.03056,-15.5821 2.6e-06,-21.5265c5.71775,-5.63604 16.0481,-3.75009 20.9887,1.53451c4.71645,-5.2846 15.2724,-7.17072 20.9921,-1.53015c6.02801,5.94476 6.02571,15.5808 -0.004509,21.5221Z"/> </symbol><symbol viewBox="0 0 90 107" id="biings-claim"><title>biings-claim</title> <!--Generated by IJSVG (https://github.com/iconjar/IJSVG)--> <path d="M18.554,94.8408c-11.4734,0 -18.554,-7.22473 -18.554,-18.9417l-6.82121e-13,-56.9574c0,-11.722 7.06812,-18.9417 18.5415,-18.9417h52.917c11.4755,0 18.5415,7.22591 18.5415,18.9741v38.2629c0,2.71458 -2.15164,4.91518 -4.80582,4.91518c-2.65418,0 -4.80582,-2.2006 -4.80582,-4.91518v-38.2629c0,-6.31871 -2.76243,-9.14371 -8.92985,-9.14371h-52.917c-6.16775,0 -8.92985,2.82135 -8.92985,9.11137v56.9574c0,6.28268 2.77229,9.11137 8.94239,9.11137h55.7245v9.83036h-55.7245Zm10.1431,-58.8793c-2.65418,0 -4.80582,-2.2006 -4.80582,-4.91518c0,-2.71458 2.15164,-4.91518 4.80582,-4.91518h33.7892c2.65418,0 4.80582,2.2006 4.80582,4.91518c0,2.71458 -2.15164,4.91518 -4.80582,4.91518h-33.7892Zm0,18.6651c-2.65418,0 -4.80582,-2.2006 -4.80582,-4.91518c0,-2.71458 2.15164,-4.91518 4.80582,-4.91518h33.7892c2.65418,0 4.80582,2.2006 4.80582,4.91518c0,2.71458 -2.15164,4.91518 -4.80582,4.91518h-33.7892Zm43.2719,20.2857l16.1275,11.9907c2.0475,1.5223 2.47326,4.4162 0.950956,6.4637c-0.292863,0.393901 -0.646629,0.738613 -1.04799,1.02117l-16.1275,11.3535c-2.08628,1.46871 -4.96816,0.968077 -6.43688,-1.1182c-0.548046,-0.778489 -0.842189,-1.70729 -0.842189,-2.65934v-23.3442c0,-2.5514 2.06832,-4.61973 4.61973,-4.61973c0.99297,0 1.95951,0.31994 2.75637,0.912398Z"/> </symbol><symbol viewBox="0 0 137 137" id="biings-pilot"><title>biings-pilot</title> <!--Generated by IJSVG (https://github.com/iconjar/IJSVG)--> <path d="M108.836,108.836c2.20673,-2.20673 5.78455,-2.20673 7.99128,0c2.20673,2.20673 2.20673,5.78455 0,7.99128c-26.726,26.726 -70.0574,26.726 -96.7831,0c-26.726,-26.726 -26.726,-70.0574 -7.10543e-15,-96.7831c26.726,-26.726 70.0574,-26.726 96.7831,-7.10543e-15c18.3211,18.3211 24.542,45.0905 16.7785,69.3238c-0.952122,2.972 -4.13325,4.60944 -7.10525,3.65732c-2.972,-0.952122 -4.60944,-4.13325 -3.65732,-7.10526c6.48427,-20.2403 1.29138,-42.5859 -14.0073,-57.8846c-22.3122,-22.3125 -58.488,-22.3125 -80.8005,4.1e-05c-22.3125,22.3122 -22.3125,58.488 4.1e-05,80.8005c22.3122,22.3125 58.488,22.3125 80.8005,-2.1e-05Zm-13.0645,-60.5881l-10.9875,32.9624c-0.562442,1.68732 -1.88649,3.01137 -3.57381,3.57381l-32.9624,10.9875c-4.41747,1.47249 -8.62011,-2.73015 -7.14762,-7.14762l10.9875,-32.9624c0.562442,-1.68732 1.88649,-3.01137 3.57381,-3.57381l32.9624,-10.9875c4.41747,-1.47249 8.62011,2.73015 7.14762,7.14762Zm-33.8558,13.6678l-6.52019,19.5606l19.5606,-6.52019l-13.0404,-13.0404Z"/> </symbol><symbol viewBox="0 0 14 18" id="book"><title>book</title> <path d="M13.2222221,0 C13.6517769,-8.53412985e-09 13.9999999,0.348222964 13.9999999,0.777777773 L13.9999999,16.3333332 C13.9999999,16.762888 13.6517769,17.111111 13.2222221,17.111111 L2.72222224,17.111111 C1.21878184,17.1111109 0,15.8923292 0,14.3888888 L0,2.72222227 C2.27013516e-07,1.21878179 1.21878187,0 2.72222219,0 L13.2222221,0 Z M3.43286588,1.55555574 L2.72222229,1.55555575 C2.07789148,1.55555555 1.55555564,2.07789145 1.55555555,2.72222239 L1.55555555,14.3888888 C1.55555555,15.0332196 2.07789145,15.5555554 2.72222228,15.5555555 L12.4444444,15.5555555 L12.4444444,1.55555556 L7.47726634,1.55555566 C7.48127749,1.58562432 7.48325915,1.61652723 7.48325915,1.64797812 L7.48325915,6.85545943 L5.45274068,4.82494096 L3.4222222,6.85545943 L3.4222222,1.64797812 C3.4222222,1.61652725 3.42594975,1.58562437 3.43286588,1.55555574 Z M1.55555563,14.3888892 L8.50122888e-08,14.3888894 C-1.42001227e-07,12.885449 1.21878187,11.6666671 2.72222229,11.6666671 L13.2222222,11.6666671 L13.2222222,13.2222226 L2.72222229,13.2222226 C2.0778915,13.2222226 1.55555553,13.7445586 1.55555563,14.3888892 Z"/> </symbol><symbol viewBox="0 0 21 21" id="bubble"><title>Shape Copy 9</title> <!-- Generator: Sketch Beta 51 (57336) - http://www.bohemiancoding.com/sketch -->    <g id="bubble-Prototype" stroke-width="1" fill-rule="evenodd"> <path d="M4.50753787,15.0060336 C4.70445107,14.8091402 4.97152268,14.6985266 5.25,14.6985266 L17.85,14.6985266 C18.4298989,14.6985266 18.9,14.2284728 18.9,13.6486318 L18.8999999,3.14968432 C18.8999999,2.5698429 18.4298994,2.0997895 17.85,2.09978952 L3.15,2.09978952 C2.57010047,2.09978952 2.09999991,2.56984289 2.1,3.149684 L2.1,17.4133303 L4.50753787,15.0060336 Z M1.79246213,20.6903882 C1.13099902,21.351785 0,20.8833568 0,19.9480005 L0,3.14968416 C-2.62686308e-07,1.41016122 1.41030251,0 3.15,0 L17.85,0 C19.5896974,-7.60369824e-08 20.9999999,1.41016118 20.9999999,3.14968431 L21,13.6486318 C21,15.3881546 19.5896967,16.7983161 17.85,16.7983161 L5.68492425,16.7983161 L1.79246213,20.6903882 Z" id="bubble-Shape-Copy-9" fill-rule="nonzero"/> </g> </symbol><symbol viewBox="0 0 107 129" id="legal-proof"><title>shield-18-icon copy 2</title> <!-- Generator: Sketch 48.2 (47327) - http://www.bohemiancoding.com/sketch -->    <g id="legal-proof-FS-Icons" stroke-width="1" fill-rule="evenodd"> <path d="M95.5782602,74.6963427 C95.5782602,83.559796 92.9130319,88.1376391 88.9117784,92.2852002 C82.0991629,99.3457713 69.6372545,106.322796 53.7489318,116.062949 C37.8591726,106.32172 25.3987004,99.3454126 18.5860852,92.2852002 C14.5844725,88.1379977 11.9196031,83.559796 11.9196031,74.6963427 L11.9196031,30.1819825 C26.5745893,28.8323308 39.11118,24.7349693 53.7489318,14.2127786 C68.3866833,24.7349693 80.923274,28.8319724 95.5782602,30.1819825 L95.5782602,74.6963427 Z M0.59298556,19.3343447 L0.59298556,73.8896552 C0.59298556,100.686379 19.9519395,107.683715 53.7489318,129 C87.5459238,107.683715 106.904878,100.686379 106.904878,73.8896552 L106.904878,19.3343447 C86.4124963,19.3343447 73.401687,16.6868962 53.7489318,0 C34.0961765,16.6868962 21.085367,19.3343447 0.59298556,19.3343447 Z" id="legal-proof-shield-18-icon-copy-2"/> <polygon id="legal-proof-Shape-Copy-2" fill-rule="nonzero" points="49.1865926 85.4492754 29 65.4439026 39.0145502 55.5196815 49.1865926 65.6008331 70.9854498 44 81 53.9242211"/> </g> </symbol><symbol viewBox="0 0 25 25" id="medical"><title>Shape Copy 11</title> <!-- Generator: Sketch Beta 51 (57336) - http://www.bohemiancoding.com/sketch -->    <g id="medical-Prototype" stroke-width="1" fill-rule="evenodd"> <path d="M2.2,17.1 C1.48202983,17.1 0.9,16.5179702 0.9,15.8 L0.9,9.2 C0.9,8.48202983 1.48202983,7.9 2.2,7.9 L7.9,7.9 L7.9,2.2 C7.9,1.48202983 8.48202983,0.9 9.2,0.9 L15.8,0.9 C16.5179702,0.9 17.1,1.48202983 17.1,2.2 L17.1,7.9 L22.8,7.9 C23.5179702,7.9 24.1,8.48202983 24.1,9.2 L24.1,15.8 C24.1,16.5179702 23.5179702,17.1 22.8,17.1 L17.1,17.1 L17.1,22.8 C17.1,23.5179702 16.5179702,24.1 15.8,24.1 L9.2,24.1 C8.48202983,24.1 7.9,23.5179702 7.9,22.8 L7.9,17.1 L2.2,17.1 Z M8.8,14.9 C9.51797017,14.9 10.1,15.4820298 10.1,16.2 L10.1,21.9 L14.9,21.9 L14.9,16.2 C14.9,15.4820298 15.4820298,14.9 16.2,14.9 L21.9,14.9 L21.9,10.1 L16.2,10.1 C15.4820298,10.1 14.9,9.51797017 14.9,8.8 L14.9,3.1 L10.1,3.1 L10.1,8.8 C10.1,9.51797017 9.51797017,10.1 8.8,10.1 L3.1,10.1 L3.1,14.9 L8.8,14.9 Z" id="medical-Shape-Copy-11" fill-rule="nonzero"/> </g> </symbol><symbol viewBox="0 0 22 26" id="person"><title>Combined Shape</title> <!-- Generator: Sketch 51.2 (57519) - http://www.bohemiancoding.com/sketch -->    <g id="person-Symbols" stroke-width="1" fill-rule="evenodd"> <path d="M11,13.25 C7.54822031,13.25 4.75,10.4517797 4.75,7 C4.75,3.54822031 7.54822031,0.75 11,0.75 C14.4517797,0.75 17.25,3.54822031 17.25,7 C17.25,10.4517797 14.4517797,13.25 11,13.25 Z M11,11.25 C13.3472102,11.25 15.25,9.34721019 15.25,7 C15.25,4.65278981 13.3472102,2.75 11,2.75 C8.65278981,2.75 6.75,4.65278981 6.75,7 C6.75,9.34721019 8.65278981,11.25 11,11.25 Z M2.25,24.25 C2.25,24.8022847 1.80228475,25.25 1.25,25.25 C0.69771525,25.25 0.25,24.8022847 0.25,24.25 C0.25,18.3129389 5.06293894,13.5 11,13.5 C16.9370611,13.5 21.75,18.3129389 21.75,24.25 C21.75,24.8022847 21.3022847,25.25 20.75,25.25 C20.1977153,25.25 19.75,24.8022847 19.75,24.25 C19.75,19.4175084 15.8324916,15.5 11,15.5 C6.16750844,15.5 2.25,19.4175084 2.25,24.25 Z" id="person-Combined-Shape" fill-rule="nonzero"/> </g> </symbol><symbol viewBox="0 0 26 20" id="persons"><title>Combined Shape</title> <!-- Generator: Sketch 51.2 (57519) - http://www.bohemiancoding.com/sketch -->    <g id="persons-Symbols" stroke-width="1" fill-rule="evenodd"> <path d="M16.7546856,12.0312588 C15.3292426,11.3101146 14.352,9.83168095 14.352,8.125 C14.352,5.70875422 16.3107542,3.75 18.727,3.75 C21.1432458,3.75 23.102,5.70875422 23.102,8.125 C23.102,9.83257831 22.1237294,11.3116693 20.6970655,12.0323957 C21.3156796,12.2285563 21.908893,12.5182503 22.4548589,12.8986719 C24.2051088,14.118222 25.2488221,16.1162166 25.2499998,18.2494479 C25.2503048,18.8017326 24.8028367,19.2496949 24.2505521,19.2499998 C23.6982674,19.2503048 23.2503051,18.8028367 23.2500002,18.2505521 C23.2491834,16.7710846 22.5253331,15.3854083 21.3114761,14.5396093 C20.0976191,13.6938103 18.5470058,13.4946715 17.1588199,14.0063009 C16.6406106,14.197292 16.0656902,13.9320292 15.8746991,13.4138199 C15.683708,12.8956106 15.9489708,12.3206902 16.4671801,12.1296991 C16.56251,12.0945643 16.6583711,12.0617543 16.7546856,12.0312588 Z M6.75835894,10.6964747 C4.78523991,9.98360284 3.375,8.09399101 3.375,5.875 C3.375,3.04454066 5.66954066,0.75 8.5,0.75 C11.3304593,0.75 13.625,3.04454066 13.625,5.875 C13.625,8.09399101 12.2147601,9.98360284 10.2416411,10.6964747 C13.683196,11.4867718 16.25,14.5686313 16.25,18.25 C16.25,18.8022847 15.8022847,19.25 15.25,19.25 C14.6977153,19.25 14.25,18.8022847 14.25,18.25 C14.25,15.0743627 11.6756373,12.5 8.5,12.5 C5.32436269,12.5 2.75,15.0743627 2.75,18.25 C2.75,18.8022847 2.30228475,19.25 1.75,19.25 C1.19771525,19.25 0.75,18.8022847 0.75,18.25 C0.75,14.5686313 3.31680405,11.4867718 6.75835894,10.6964747 Z M8.5,9 C10.2258898,9 11.625,7.60088984 11.625,5.875 C11.625,4.14911016 10.2258898,2.75 8.5,2.75 C6.77411016,2.75 5.375,4.14911016 5.375,5.875 C5.375,7.60088984 6.77411016,9 8.5,9 Z M18.727,10.5 C20.0386763,10.5 21.102,9.43667628 21.102,8.125 C21.102,6.81332372 20.0386763,5.75 18.727,5.75 C17.4153237,5.75 16.352,6.81332372 16.352,8.125 C16.352,9.43667628 17.4153237,10.5 18.727,10.5 Z" id="persons-Combined-Shape" fill-rule="nonzero"/> </g> </symbol><symbol viewBox="0 0 19 14" id="search-list"><title>Combined Shape</title> <!-- Generator: Sketch 51.1 (57501) - http://www.bohemiancoding.com/sketch -->    <g id="search-list-Prototype" stroke-width="1" fill-rule="evenodd"> <path d="M0.875,5.75 C0.391750844,5.75 0,5.35824916 0,4.875 C0,4.39175084 0.391750844,4 0.875,4 L5.71323529,4 C6.19648445,4 6.58823529,4.39175084 6.58823529,4.875 C6.58823529,5.35824916 6.19648445,5.75 5.71323529,5.75 L0.875,5.75 Z M0.875,1.75 C0.391750844,1.75 0,1.35824916 0,0.875 C0,0.391750844 0.391750844,0 0.875,0 L13.125,0 C13.6082492,0 14,0.391750844 14,0.875 C14,1.35824916 13.6082492,1.75 13.125,1.75 L0.875,1.75 Z M0.875,9.75 C0.391750844,9.75 0,9.35824916 0,8.875 C0,8.39175084 0.391750844,8 0.875,8 L5,8 C5.48324916,8 5.87,8.39175084 5.87,8.875 C5.87,9.35824916 5.48324916,9.75 5,9.75 L0.875,9.75 Z M15.6170749,10.638222 L17.8665631,12.8331823 C18.1311083,13.0977275 18.1311083,13.5300331 17.8665631,13.7945783 C17.6020178,14.0591235 17.1697123,14.0591235 16.905167,13.7945783 L14.6502458,11.6022403 C13.784049,12.217096 12.6454984,12.5258589 11.4782053,12.3303517 C9.68445976,12.0270925 8.25204422,10.5301538 8.03266526,8.72350354 C7.69714451,5.99417123 9.99417123,3.69714451 12.7235035,4.03266526 C14.5301538,4.25204422 16.0270925,5.68445976 16.3303517,7.47820534 C16.5244088,8.63684063 16.2226726,9.77493171 15.6170749,10.638222 Z M12.1944131,11.0979581 C13.8010414,11.0979581 15.0979581,9.80104135 15.0979581,8.19441311 C15.0979581,6.58778487 13.8010414,5.2908681 12.1944131,5.2908681 C10.5877849,5.2908681 9.2908681,6.58778487 9.2908681,8.19441311 C9.2908681,9.80104135 10.5877849,11.0979581 12.1944131,11.0979581 Z" id="search-list-Combined-Shape" fill-rule="nonzero"/> </g> </symbol><symbol viewBox="0 0 19 13" id="timelines"><title>Combined Shape Copy 5</title> <!-- Generator: Sketch Beta 51 (57336) - http://www.bohemiancoding.com/sketch -->    <g id="timelines-Symbols" stroke-width="1" fill-rule="evenodd"> <path d="M8.12352447,2 C7.50301904,2 7,1.55228475 7,1 C7,0.44771525 7.50301904,0 8.12352447,0 L9.24647542,0 C9.86698085,0 10.3699999,0.44771525 10.3699999,1 C10.3699999,1.55228475 9.86698085,2 9.24647542,2 L8.12352447,2 Z M13.1235245,2 C12.503019,2 12,1.55228475 12,1 C12,0.44771525 12.503019,0 13.1235245,0 L17.2464754,0 C17.8669808,0 18.3699999,0.44771525 18.3699999,1 C18.3699999,1.55228475 17.8669808,2 17.2464754,2 L13.1235245,2 Z M1.12352447,2 C0.503019038,2 0,1.55228475 0,1 C0,0.44771525 0.503019038,0 1.12352447,0 L4.24647542,0 C4.86698085,0 5.36999989,0.44771525 5.36999989,1 C5.36999989,1.55228475 4.86698085,2 4.24647542,2 L1.12352447,2 Z M1.12352447,7.5 C0.503019038,7.5 0,7.05228475 0,6.5 C0,5.94771525 0.503019038,5.5 1.12352447,5.5 L8.24647542,5.5 C8.86698085,5.5 9.36999989,5.94771525 9.36999989,6.5 C9.36999989,7.05228475 8.86698085,7.5 8.24647542,7.5 L1.12352447,7.5 Z M12.1235245,7.5 C11.503019,7.5 11,7.05228475 11,6.5 C11,5.94771525 11.503019,5.5 12.1235245,5.5 L17.2464754,5.5 C17.8669808,5.5 18.3699999,5.94771525 18.3699999,6.5 C18.3699999,7.05228475 17.8669808,7.5 17.2464754,7.5 L12.1235245,7.5 Z M1.12352447,13 C0.503019038,13 0,12.5522847 0,12 C0,11.4477153 0.503019038,11 1.12352447,11 L12.2464754,11 C12.8669808,11 13.3699999,11.4477153 13.3699999,12 C13.3699999,12.5522847 12.8669808,13 12.2464754,13 L1.12352447,13 Z M16.1235245,13 C15.503019,13 15,12.5522847 15,12 C15,11.4477153 15.503019,11 16.1235245,11 L17.2464754,11 C17.8669808,11 18.3699999,11.4477153 18.3699999,12 C18.3699999,12.5522847 17.8669808,13 17.2464754,13 L16.1235245,13 Z" id="timelines-Combined-Shape-Copy-5" fill-rule="nonzero"/> </g> </symbol><symbol viewBox="0 0 24 24" id="biings"><title>bell</title> <!-- Generator: Sketch 48.2 (47327) - http://www.bohemiancoding.com/sketch -->    <g id="biings-Finals" stroke-width="1" fill-rule="evenodd"> <path d="M6.53319534,13.5922928 L6.50181818,13.2295547 C6.50181818,13.2295547 6.50181818,12.3693788 8.2390847,12.3693778 C8.6594081,12.3693776 8.97803624,12.4197301 9.21957382,12.4960701 L9.39661658,17.4706709 C8.52637945,17.1497107 7.74262751,16.5090839 7.3654233,15.7239039 L7.15975804,15.2893714 C6.95329081,14.8172472 6.73456858,14.2224923 6.53319534,13.5922928 L6.53319534,13.5922928 Z M17.6891748,15.0920357 L17.8472727,13.2295547 C17.8472727,13.2295547 17.8472727,12.3693768 16.1100062,12.3693778 C15.6914012,12.369378 15.3736617,12.4193199 15.1324834,12.4951359 L15.1324834,12.4951359 L14.9931391,16.6930284 C15.3861244,16.5550521 15.7507837,16.4139376 16.0621711,16.2781324 L16.497294,16.0727462 C16.9449621,15.8582675 17.3537981,15.5116496 17.6891748,15.0920357 L17.6891748,15.0920357 Z M14.0509706,17.0009106 L14.2213426,11.87401 C14.2213426,11.87401 14.2213426,10.8605734 12.1745455,10.8605745 C10.1277483,10.8605756 10.1277483,11.87401 10.1277483,11.87401 L10.3344937,17.6832032 C10.5219732,17.6987687 10.7082911,17.6974672 10.8904703,17.6776696 L11.3647792,17.6220326 C12.120736,17.5257371 13.1088298,17.2873067 14.0509706,17.0009106 L14.0509706,17.0009106 Z M8.13909011,11.6554304 C8.79846499,11.6554304 9.33299394,11.1216268 9.33299394,10.4631466 C9.33299394,9.80466636 8.79846499,9.27086268 8.13909011,9.27086268 C7.47971524,9.27086268 6.94518629,9.80466636 6.94518629,10.4631466 C6.94518629,11.1216268 7.47971524,11.6554304 8.13909011,11.6554304 L8.13909011,11.6554304 Z M16.1845235,11.6554304 C16.8438984,11.6554304 17.3784273,11.1216268 17.3784273,10.4631466 C17.3784273,9.80466636 16.8438984,9.27086268 16.1845235,9.27086268 C15.5251486,9.27086268 14.9906197,9.80466636 14.9906197,10.4631466 C14.9906197,11.1216268 15.5251486,11.6554304 16.1845235,11.6554304 L16.1845235,11.6554304 Z M8.70121263,1.00312698 C16.9477972,-1.46760657 20.5214195,0.454011193 22.9955101,8.68940637 C25.4696006,16.9248016 23.5453719,20.493575 15.2987874,22.9643086 C7.05220279,25.4350421 3.47858045,23.5134244 1.00448993,15.2780292 C-1.4696006,7.042634 0.454628057,3.47386053 8.70121263,1.00312698 Z M12.161216,9.76073716 C13.0648038,9.76073716 13.7973064,9.02922843 13.7973064,8.12686667 C13.7973064,7.22450491 13.0648038,6.49299618 12.161216,6.49299618 C11.2576282,6.49299618 10.5251256,7.22450491 10.5251256,8.12686667 C10.5251256,9.02922843 11.2576282,9.76073716 12.161216,9.76073716 Z" id="biings-Rectangle-16-Copy-7"/> </g> </symbol><symbol viewBox="0 0 27 13" id="key_esc"><title>Rectangle 12</title> <!-- Generator: Sketch 51.1 (57501) - http://www.bohemiancoding.com/sketch -->    <g id="key_esc-Prototype" stroke-width="1" fill-rule="evenodd"> <path d="M2,0 L25,0 C26.1045695,0 27,0.8954305 27,2 L27,11 C27,12.1045695 26.1045695,13 25,13 L2,13 C0.8954305,13 0,12.1045695 0,11 L0,2 C0,0.8954305 0.8954305,0 2,0 Z M2,1.2 C1.5581722,1.2 1.2,1.5581722 1.2,2 L1.2,11 C1.2,11.4418278 1.5581722,11.8 2,11.8 L25,11.8 C25.4418278,11.8 25.8,11.4418278 25.8,11 L25.8,2 C25.8,1.5581722 25.4418278,1.2 25,1.2 L2,1.2 Z M9.21052632,9.05555556 C8.51514804,9.05555556 7.97288871,8.86030432 7.58373206,8.469796 C7.19457541,8.07928768 7,7.52056876 7,6.7936225 L7,6.40612002 C7,5.63711902 7.1786266,5.04385566 7.53588517,4.62631214 C7.89314373,4.20876863 8.40510033,4 9.07177033,4 C9.72249129,4 10.2121196,4.1960022 10.5406699,4.58801248 C10.8692201,4.98002276 11.0366826,5.56051969 11.0430622,6.3295207 L11.0430622,6.95583284 L8.3492823,6.95583284 C8.36842115,7.31630206 8.45294981,7.57989122 8.60287081,7.74660824 C8.75279182,7.91332525 8.98404947,7.99668251 9.29665072,7.99668251 C9.74960354,7.99668251 10.1275902,7.85099505 10.430622,7.55961577 L10.9617225,8.33011487 C10.7958524,8.54639641 10.5550255,8.72137155 10.2392344,8.85504555 C9.9234434,8.98871956 9.58054411,9.05555556 9.21052632,9.05555556 Z M8.35885167,6.06367598 L9.71291866,6.06367598 L9.71291866,5.94652406 C9.70653904,5.65514478 9.65550287,5.43436069 9.55980861,5.28416518 C9.46411435,5.13396967 9.29824679,5.05887304 9.06220096,5.05887304 C8.82615512,5.05887304 8.65470548,5.13847547 8.54784689,5.29768271 C8.4409883,5.45688995 8.37799053,5.71221848 8.35885167,6.06367598 Z M14.1004785,7.65874431 C14.1004785,7.55060354 14.0454551,7.45072502 13.9354067,7.35910576 C13.8253583,7.2674865 13.5805442,7.14357707 13.2009569,6.98737374 C12.6427404,6.77409611 12.2591717,6.55331203 12.0502392,6.32501485 C11.8413068,6.09671768 11.7368421,5.81285243 11.7368421,5.47341058 C11.7368421,5.04685533 11.9003173,4.69465215 12.2272727,4.41679045 C12.5542281,4.13892876 12.9872381,4 13.5263158,4 C14.0941017,4 14.5486426,4.1381778 14.8899522,4.41453753 C15.2312617,4.69089727 15.4019139,5.06187461 15.4019139,5.52748069 L14.0478469,5.52748069 C14.0478469,5.13096455 13.87241,4.93270945 13.5215311,4.93270945 C13.3779897,4.93270945 13.2599686,4.97476356 13.1674641,5.05887304 C13.0749597,5.14298253 13.0287081,5.26013327 13.0287081,5.41032878 C13.0287081,5.51846954 13.0797443,5.61384226 13.1818182,5.69644979 C13.2838921,5.77905732 13.524719,5.89695903 13.9043062,6.05015845 C14.4561431,6.2424087 14.8460914,6.45643409 15.0741627,6.69224104 C15.302234,6.92804799 15.4162679,7.23369126 15.4162679,7.60918004 C15.4162679,8.04474701 15.242426,8.3946973 14.8947368,8.65904139 C14.5470477,8.92338549 14.0909119,9.05555556 13.5263158,9.05555556 C13.1467286,9.05555556 12.8118037,8.98571569 12.5215311,8.84603387 C12.2312585,8.70635204 12.0039881,8.51185178 11.8397129,8.26252723 C11.6754378,8.01320269 11.5933014,7.74435676 11.5933014,7.45598138 L12.8803828,7.45598138 C12.8867624,7.67827074 12.9417858,7.84498525 13.0454545,7.95612993 C13.1491233,8.0672746 13.3189781,8.12284611 13.5550239,8.12284611 C13.9186621,8.12284611 14.1004785,7.96814705 14.1004785,7.65874431 Z M18.1291866,7.99668251 C18.5215331,7.99668251 18.7208931,7.7563733 18.7272727,7.27574767 L20,7.27574767 C19.9936204,7.80743977 19.8197784,8.23699249 19.4784689,8.5644187 C19.1371594,8.89184491 18.6969724,9.05555556 18.1578947,9.05555556 C17.4912247,9.05555556 16.9824579,8.86030432 16.6315789,8.469796 C16.2807,8.07928768 16.1020734,7.5040475 16.0956938,6.74405823 L16.0956938,6.35655575 C16.0956938,5.59055866 16.2687383,5.00630689 16.6148325,4.60378293 C16.9609268,4.20125896 17.4720859,4 18.1483254,4 C18.7193011,4 19.1690574,4.16596355 19.4976077,4.49789562 C19.8261579,4.8298277 19.9936204,5.30068356 20,5.91047732 L18.7272727,5.91047732 C18.7240829,5.6371215 18.6762365,5.42685094 18.5837321,5.27965934 C18.4912276,5.13246774 18.3381191,5.05887304 18.1244019,5.05887304 C17.8883561,5.05887304 17.7192988,5.1377245 17.6172249,5.29542979 C17.515151,5.45313507 17.4609251,5.75877835 17.4545455,6.21236879 L17.4545455,6.70801149 C17.4545455,7.10452763 17.4752789,7.38163419 17.5167464,7.53933947 C17.5582139,7.69704476 17.6267938,7.81269356 17.722488,7.88628936 C17.8181823,7.95988516 17.9537471,7.99668251 18.1291866,7.99668251 Z" id="key_esc-Combined-Shape" fill-rule="nonzero"/> </g> </symbol><symbol viewBox="0 0 19 12" id="key_return"><title>Shape</title> <!-- Generator: Sketch 51.1 (57501) - http://www.bohemiancoding.com/sketch -->    <g id="key_return-Prototype" stroke-width="1" fill-rule="evenodd"> <path d="M16.5825,1.5825 L16.5825,4.5825 L3.4125,4.5825 L6.2925,1.7025 C6.6825,1.3125 6.6825,0.6825 6.2925,0.2925 C5.9025,-0.0975 5.2725,-0.0975 4.8825,0.2925 L0.2925,4.8825 C-0.0975,5.2725 -0.0975,5.9025 0.2925,6.2925 L4.8825,10.8825 C5.2725,11.2725 5.9025,11.2725 6.2925,10.8825 C6.6825,10.4925 6.6825,9.8625 6.2925,9.4725 L3.4125,6.5825 L17.5825,6.5825 C18.1325,6.5825 18.5825,6.1325 18.5825,5.5825 L18.5825,1.5825 C18.5825,1.0325 18.1325,0.5825 17.5825,0.5825 C17.0325,0.5825 16.5825,1.0325 16.5825,1.5825 Z" id="key_return-Shape" fill-rule="nonzero"/> </g> </symbol><symbol viewBox="0 0 18 12" id="key_up_down"><title>Combined Shape</title> <!-- Generator: Sketch 51.1 (57501) - http://www.bohemiancoding.com/sketch -->    <g id="key_up_down-Prototype" stroke-width="1" fill-rule="evenodd"> <path d="M0.5615971,4.19846974 C0.0607855999,4.19846974 -0.184055578,3.59749594 0.1609479,3.25249246 L3.2659792,0.158590308 C3.48856209,-0.0528634361 3.83356557,-0.0528634361 4.05614846,0.158590308 L7.16117976,3.25249246 C7.51731238,3.59749594 7.2724712,4.19846974 6.7716597,4.19846974 L4.77954285,4.19846974 L4.77954285,10.8870856 C4.77954285,11.4991885 4.27873135,12 3.6666284,12 C3.05452546,12 2.55371396,11.4991885 2.55371396,10.8870856 L2.55371396,4.19846974 L0.5615971,4.19846974 Z M10.5778271,7.80153026 L12.569944,7.80153026 L12.569944,1.11291444 C12.569944,0.5008115 13.0707555,-7.10542736e-15 13.6828584,-7.10542736e-15 C14.2949613,-7.10542736e-15 14.7957728,0.5008115 14.7957728,1.11291444 L14.7957728,7.80153026 L16.7878897,7.80153026 C17.2887012,7.80153026 17.5335424,8.40250406 17.1774098,8.74750754 L14.0723785,11.8414097 C13.8497956,12.0528634 13.5047921,12.0528634 13.2822092,11.8414097 L10.1771779,8.74750754 C9.83217442,8.40250406 10.0770156,7.80153026 10.5778271,7.80153026 Z" id="key_up_down-Combined-Shape" fill-rule="nonzero"/> </g> </symbol><symbol viewBox="0 0 23 23" id="segment"><title>Combined Shape</title> <!-- Generator: Sketch 51.1 (57501) - http://www.bohemiancoding.com/sketch -->    <g id="segment-Prototype" stroke-width="1" fill-rule="evenodd"> <path d="M23,10 L13,10 L13,0 C15.6521649,0 18.195704,1.0535684 20.0710678,2.92893219 C21.9464316,4.80429597 23,7.3478351 23,10 Z" id="segment-Combined-Shape"/> <path d="M11,23 C4.92486775,23 0,18.0751322 0,12 C0,5.92486775 4.92486775,1 11,1 L11,12 L22,12 C22,18.0751322 17.0751322,23 11,23 Z" id="segment-Path"/> </g> </symbol><symbol viewBox="0 0 24 24" id="arrow-down"><title>arrow-down</title> <path d="M12 2q0.414 0 0.707 0.293t0.293 0.707v15.586l5.289-5.297q0.289-0.289 0.711-0.289 0.43 0 0.715 0.285t0.285 0.715q0 0.422-0.289 0.711l-7 7q-0.289 0.289-0.711 0.289t-0.711-0.289l-7-7q-0.289-0.289-0.289-0.711 0-0.43 0.285-0.715t0.715-0.285q0.422 0 0.711 0.289l5.289 5.297v-15.586q0-0.414 0.293-0.707t0.707-0.293z" fill-rule="nonzero"/> </symbol><symbol viewBox="0 0 24 24" id="arrow-left"><title>arrow-left</title> <path d="M10 4q0.414 0 0.707 0.293t0.293 0.707q0 0.422-0.297 0.711l-5.289 5.289h15.586q0.414 0 0.707 0.293t0.293 0.707-0.293 0.707-0.707 0.293h-15.586l5.289 5.289q0.297 0.289 0.297 0.711 0 0.414-0.293 0.707t-0.707 0.293q-0.422 0-0.711-0.289l-7-7q-0.289-0.305-0.289-0.711t0.289-0.711l7-7q0.297-0.289 0.711-0.289z"/> </symbol><symbol viewBox="0 0 24 24" id="arrow-right"><title>arrow-right</title> <path d="M14 4q0.422 0 0.711 0.289l7 7q0.289 0.289 0.289 0.711t-0.289 0.711l-7 7q-0.289 0.289-0.711 0.289-0.43 0-0.715-0.285t-0.285-0.715q0-0.422 0.289-0.711l5.297-5.289h-15.586q-0.414 0-0.707-0.293t-0.293-0.707 0.293-0.707 0.707-0.293h15.586l-5.297-5.289q-0.289-0.289-0.289-0.711 0-0.43 0.285-0.715t0.715-0.285z"/> </symbol><symbol viewBox="0 0 24 24" id="arrow-up"><title>arrow-up</title> <path d="M12 2q0.422 0 0.711 0.289l7 7q0.289 0.289 0.289 0.711 0 0.43-0.285 0.715t-0.715 0.285q-0.422 0-0.711-0.289l-5.289-5.297v15.586q0 0.414-0.293 0.707t-0.707 0.293-0.707-0.293-0.293-0.707v-15.586l-5.289 5.297q-0.289 0.289-0.711 0.289-0.43 0-0.715-0.285t-0.285-0.715q0-0.422 0.289-0.711l7-7q0.289-0.289 0.711-0.289z"/> </symbol><symbol viewBox="0 0 22 20" id="briefcase"><title>briefcase</title> <path d="M3,6 C2.44771525,6 2,6.44771525 2,7 L2,17 C2,17.5522847 2.44771525,18 3,18 L19,18 C19.5522847,18 20,17.5522847 20,17 L20,7 C20,6.44771525 19.5522847,6 19,6 L3,6 Z M3,4 L19,4 C20.6568542,4 22,5.34314575 22,7 L22,17 C22,18.6568542 20.6568542,20 19,20 L3,20 C1.34314575,20 0,18.6568542 0,17 L0,7 C0,5.34314575 1.34314575,4 3,4 Z M16,19 C16,19.5522847 15.5522847,20 15,20 C14.4477153,20 14,19.5522847 14,19 L14,3 C14,2.44771525 13.5522847,2 13,2 L9,2 C8.44771525,2 8,2.44771525 8,3 L8,19 C8,19.5522847 7.55228475,20 7,20 C6.44771525,20 6,19.5522847 6,19 L6,3 C6,1.34314575 7.34314575,0 9,0 L13,0 C14.6568542,0 16,1.34314575 16,3 L16,19 Z"/> </symbol><symbol viewBox="0 0 24 24" id="check"><title>check</title> <path d="M21 5q0.43 0 0.715 0.285t0.285 0.715q0 0.422-0.289 0.711l-12 12q-0.289 0.289-0.711 0.289t-0.711-0.289l-6-6q-0.289-0.289-0.289-0.711 0-0.43 0.285-0.715t0.715-0.285q0.422 0 0.711 0.289l5.289 5.297 11.289-11.297q0.289-0.289 0.711-0.289z"/> </symbol><symbol viewBox="0 0 24 24" id="circle-minus"><title>circle-minus</title> <path d="M12 1q2.242 0 4.277 0.871t3.508 2.344 2.344 3.508 0.871 4.277-0.871 4.277-2.344 3.508-3.508 2.344-4.277 0.871-4.277-0.871-3.508-2.344-2.344-3.508-0.871-4.277 0.871-4.277 2.344-3.508 3.508-2.344 4.277-0.871zM12 3q-1.828 0-3.496 0.715t-2.871 1.918-1.918 2.871-0.715 3.496 0.715 3.496 1.918 2.871 2.871 1.918 3.496 0.715 3.496-0.715 2.871-1.918 1.918-2.871 0.715-3.496-0.715-3.496-1.918-2.871-2.871-1.918-3.496-0.715zM8 11h8q0.414 0 0.707 0.293t0.293 0.707-0.293 0.707-0.707 0.293h-8q-0.414 0-0.707-0.293t-0.293-0.707 0.293-0.707 0.707-0.293z"/> </symbol><symbol viewBox="0 0 24 24" id="circle-plus"><title>circle-plus</title> <path d="M12 1q2.242 0 4.277 0.871t3.508 2.344 2.344 3.508 0.871 4.277-0.871 4.277-2.344 3.508-3.508 2.344-4.277 0.871-4.277-0.871-3.508-2.344-2.344-3.508-0.871-4.277 0.871-4.277 2.344-3.508 3.508-2.344 4.277-0.871zM12 3q-1.828 0-3.496 0.715t-2.871 1.918-1.918 2.871-0.715 3.496 0.715 3.496 1.918 2.871 2.871 1.918 3.496 0.715 3.496-0.715 2.871-1.918 1.918-2.871 0.715-3.496-0.715-3.496-1.918-2.871-2.871-1.918-3.496-0.715zM12 7q0.414 0 0.707 0.293t0.293 0.707v3h3q0.414 0 0.707 0.293t0.293 0.707-0.293 0.707-0.707 0.293h-3v3q0 0.414-0.293 0.707t-0.707 0.293-0.707-0.293-0.293-0.707v-3h-3q-0.414 0-0.707-0.293t-0.293-0.707 0.293-0.707 0.707-0.293h3v-3q0-0.414 0.293-0.707t0.707-0.293z"/> </symbol><symbol viewBox="0 0 24 24" id="download"><title>download</title> <path d="M12 1q0.414 0 0.707 0.293t0.293 0.707v11.586l3.289-3.297q0.289-0.289 0.711-0.289 0.43 0 0.715 0.285t0.285 0.715q0 0.422-0.289 0.711l-5 5q-0.289 0.289-0.711 0.289t-0.711-0.289l-5-5q-0.289-0.305-0.289-0.711 0-0.414 0.293-0.707t0.707-0.293q0.422 0 0.711 0.289l3.289 3.297v-11.586q0-0.414 0.293-0.707t0.707-0.293zM22 15q0.414 0 0.707 0.293t0.293 0.707v4q0 1.25-0.867 2.117-0.883 0.883-2.109 0.883h-16.023q-1.227 0-2.125-0.875-0.875-0.898-0.875-2.125v-4q0-0.414 0.293-0.707t0.707-0.293 0.707 0.293 0.293 0.707v4q0 0.414 0.293 0.707t0.707 0.293h16.023q0.406 0 0.691-0.293t0.285-0.707v-4q0-0.414 0.293-0.707t0.707-0.293z"/> </symbol><symbol viewBox="0 0 16 16" id="gear"><title>gear</title> <path d="M9.88561448,9.8856198 C8.84421764,10.9270166 7.15577326,10.9270166 6.11437642,9.8856198 C5.07297957,8.84422296 5.07297957,7.15577858 6.11437642,6.11438174 C7.15577326,5.07298489 8.84421764,5.07298489 9.88561448,6.11438174 C10.9270113,7.15577858 10.9270113,8.84422296 9.88561448,9.8856198 Z M7.05718546,7.05719078 C6.53648767,7.57788857 6.53648767,8.42211297 7.05718546,8.94281076 C7.57788325,9.46350855 8.42210765,9.46350855 8.94280544,8.94281076 C9.46350323,8.42211297 9.46350323,7.57788857 8.94280544,7.05719078 C8.42210765,6.53649299 7.57788325,6.53649299 7.05718546,7.05719078 Z M13.9400004,8.66667038 L14.0000004,8.66667038 C14.3681899,8.66667038 14.6666667,8.36819368 14.6666667,8.00000385 C14.6666667,7.63181372 14.3681903,7.3333373 14.0000004,7.33333731 L13.8840015,7.33333201 C13.1798584,7.33052354 12.5446199,6.90983587 12.267234,6.26262458 C12.2430897,6.20628984 12.2268842,6.14702435 12.2189654,6.0865233 C11.9981026,5.4564784 12.1513565,4.74975424 12.6285895,4.26193017 L12.6688547,4.22166508 C12.9295812,3.96064655 12.9293464,3.53853749 12.6683245,3.27780515 C12.4073061,3.01707881 11.9851973,3.01731356 11.7247303,3.27807038 L11.6795009,3.32324243 C11.1632183,3.82825698 10.3915383,3.96817701 9.73736109,3.67942117 C9.09015715,3.4020246 8.66947524,2.76678918 8.66666626,2.05999986 L8.66666626,1.99999987 C8.66666626,1.63180974 8.3681899,1.33333332 8.00000002,1.33333333 C7.63181006,1.33333333 7.33333366,1.63180974 7.33333372,1.99999967 L7.33332841,2.11599196 C7.33051995,2.82013503 6.9098324,3.45537366 6.26262126,3.73275955 C6.20628797,3.75690324 6.14702407,3.77310855 6.08652464,3.78102757 C5.45647932,4.00189129 4.74975431,3.84863758 4.26192985,3.37140397 L4.22166476,3.33113873 C3.96064638,3.07041239 3.53853757,3.07064715 3.27780537,3.33166906 C3.01707899,3.59268756 3.01731375,4.01479663 3.27807059,4.27526371 L3.32324263,4.32049314 C3.82825704,4.83677572 3.96817704,5.60845578 3.69235828,6.23011781 C3.44196178,6.91095207 2.80081234,7.36952188 2.05999962,7.38666795 L1.99999963,7.38666795 C1.63180968,7.38666795 1.33333328,7.68514436 1.33333333,8.05333429 C1.33333333,8.42152402 1.63180998,8.7200008 1.99999969,8.72000082 L2.11599463,8.72000612 C2.82013772,8.72281459 3.45537627,9.14350227 3.72991064,9.78415764 C4.02151336,10.4448802 3.88159301,11.2165632 3.3714067,11.7380718 L3.33114147,11.7783369 C3.0704151,12.0393554 3.07064985,12.4614645 3.33167179,12.7221968 C3.59269011,12.982923 4.01479897,12.9826882 4.27526585,12.7219315 L4.32049527,12.6767594 C4.83677781,12.1717449 5.60845788,12.0318249 6.23011865,12.3076433 C6.91095537,12.5580392 7.36952548,13.1991895 7.38666982,13.9400001 L7.38666982,14.0000001 C7.38666982,14.3681899 7.68514646,14.6666667 8.05333618,14.6666667 C8.42152573,14.6666667 8.72000248,14.36819 8.72000248,14.0000001 L8.72000778,13.8840078 C8.72281624,13.1798647 9.14350381,12.5446261 9.78415905,12.2700917 C10.4448816,11.9784889 11.2165646,12.1184093 11.7380732,12.6285958 L11.7783383,12.668861 C12.0393566,12.9295872 12.4614655,12.9293524 12.7221976,12.6683306 C12.982924,12.4073121 12.9826893,11.985203 12.7219324,11.7247359 L12.6767604,11.6795065 C12.17258,11.1640765 12.0322891,10.3940919 12.3219874,9.73409596 C12.6001144,9.08874709 13.2343962,8.66947927 13.9400004,8.66667038 Z M13.8866605,6.00000398 L14.0000004,6.00000398 C15.10457,6.00000393 16,6.89543411 16,8.00000385 C16,9.1045734 15.1045695,10.0000037 14.0000004,10.0000037 L13.9426593,9.99999841 C13.7699452,10.0006873 13.6141325,10.1038745 13.5460933,10.2626259 C13.4717202,10.4312392 13.5060402,10.620519 13.6247416,10.741927 L13.6644792,10.7816648 C14.4459617,11.5622784 14.4466659,12.8286038 13.6660523,13.6100937 C12.8843903,14.3926248 11.618065,14.3933291 10.8365751,13.6127155 L10.8004921,13.5765753 C10.6738572,13.4527035 10.4845765,13.4183834 10.3159562,13.4927603 C10.1572068,13.5607981 10.0540194,13.7166112 10.0533358,13.8866668 L10.0533358,14.0000001 C10.0533358,15.1045697 9.15790535,16 8.05333615,16 C6.94876663,16 6.05333649,15.1045694 6.05333649,14.0000001 C6.0493583,13.7777058 5.9368803,13.6204446 5.73082683,13.5432445 C5.56876249,13.4717192 5.37948281,13.5060391 5.25807496,13.6247405 L5.21833714,13.6644781 C4.43772382,14.4459606 3.17139848,14.4466649 2.38990854,13.6660514 C1.60737749,12.8843892 1.60667323,11.6180637 2.38728677,10.8365738 L2.42342698,10.8004908 C2.54729877,10.6738559 2.58161887,10.4845751 2.50724201,10.3159547 C2.43920412,10.1572051 2.28339116,10.0540177 2.11333566,10.0533342 L1.99999966,10.0533342 C0.895430149,10.0533341 0,9.15790353 0,8.05333439 C-1.66784938e-07,6.94876478 0.895429977,6.05333462 1.99999963,6.05333462 C2.22229494,6.049356 2.3795575,5.93687698 2.45675741,5.73082486 C2.52828278,5.56876042 2.49396282,5.37948058 2.37526146,5.25807266 L2.33552378,5.21833484 C1.55404139,4.43772131 1.55333713,3.17139588 2.33395067,2.38990597 C3.11561276,1.60737474 4.38193816,1.60667047 5.16342801,2.38728419 L5.19951102,2.42342441 C5.32614591,2.54729623 5.5154266,2.58161632 5.67749088,2.51009099 C5.72020531,2.49123943 5.76466347,2.47697891 5.81011722,2.46746716 C5.92693785,2.38822424 5.99942781,2.25577497 6.00000038,2.11333299 L6.00000038,1.99999977 C6.00000022,0.895430155 6.89543036,0 7.99999999,0 C9.10456961,-4.82823452e-08 9.99999959,0.895430133 9.99999959,1.99999987 L9.99999431,2.05734537 C10.000682,2.2300527 10.1038693,2.3858669 10.2691693,2.45675733 C10.4312337,2.5282827 10.6205133,2.49396275 10.7419212,2.37526141 L10.781659,2.33552374 C11.5622725,1.55404115 12.8285978,1.55333689 13.6100877,2.33395061 C14.3926188,3.11561284 14.393323,4.38193828 13.6127094,5.16342816 L13.5765692,5.19951118 C13.4526974,5.32614614 13.4183773,5.515427 13.4899026,5.67749142 C13.5087548,5.72020719 13.5230156,5.7646668 13.5325273,5.81012204 C13.6117704,5.92694198 13.7442191,5.99943141 13.8866605,6.00000398 Z"/> </symbol><symbol viewBox="0 0 22 22" id="help"><title>Shape</title> <!-- Generator: Sketch 47.1 (45422) - http://www.bohemiancoding.com/sketch -->    <g id="help-Page-1" stroke-width="1" fill-rule="evenodd"> <path d="M18.7781368,18.7781368 C14.4823719,23.0739017 7.51754411,23.0739017 3.22182322,18.7781368 C-1.07394168,14.4823719 -1.07394168,7.51754411 3.22182322,3.22182322 C7.51758811,-1.07394168 14.4824159,-1.07394168 18.7781404,3.22182684 C23.0739017,7.51758811 23.0739017,14.4824159 18.7781368,18.7781368 Z M4.63603316,4.6360404 C1.12132168,8.15071589 1.12132168,13.8492081 4.6360404,17.3639268 C8.15071589,20.8786383 13.8492081,20.8786383 17.3639268,17.3639196 C20.8786383,13.8492441 20.8786383,8.15075189 17.3639232,4.63603678 C13.8492441,1.12132168 8.15075189,1.12132168 4.63603316,4.6360404 Z M11,17 C10.4477153,17 10,16.5522847 10,16 C10,15.4477153 10.4477153,15 11,15 C11.5522847,15 12,15.4477153 12,16 C12,16.5522847 11.5522847,17 11,17 Z M9.03333467,8.3318429 C8.85006289,8.85283225 8.27914645,9.12660644 7.7581571,8.94333467 C7.23716775,8.76006289 6.96339356,8.18914645 7.14666533,7.6681571 C7.87975313,5.58419767 10.1634252,4.48910148 12.2473728,5.22219515 C13.850703,5.78620871 14.9225323,7.30185782 14.9200001,8.99999986 C14.9200001,10.2797248 14.1618118,11.2906425 12.9747002,12.0820502 C12.3257813,12.5146628 11.6882584,12.7980063 11.2362278,12.9486832 C10.7122845,13.1233309 10.1459645,12.8401709 9.97131675,12.3162276 C9.79666898,11.7922843 10.079829,11.2259643 10.6037723,11.0513166 C10.6686405,11.0296938 10.8031012,10.9784707 10.9826116,10.8986883 C11.2857144,10.7639759 11.5884438,10.6025203 11.8652999,10.4179496 C12.5531883,9.95935725 12.9200001,9.47027495 12.9200012,8.99850934 C12.9212678,8.14869698 12.3853525,7.39087138 11.5836831,7.1088631 C10.5417123,6.74231734 9.39987807,7.28986459 9.03333467,8.3318429 Z" id="help-Combined-Shape" fill-rule="nonzero"/> </g> </symbol><symbol viewBox="0 0 20 22" id="off"><title>off</title> <path d="M15.6527778,6.34699132 C15.2623173,5.95640327 15.2624206,5.3232383 15.6530087,4.93277778 C16.0435967,4.54231725 16.6767617,4.54242063 17.0672222,4.93300868 C20.971527,8.83858854 20.9708378,15.1696447 17.065683,19.0743745 C13.1605281,22.9791043 6.8294719,22.9791043 2.92431703,19.0743745 C-0.980837829,15.1696447 -0.98152695,8.83858854 2.92277778,4.93300868 C3.3132383,4.54242063 3.94640327,4.54231725 4.33699132,4.93277778 C4.72757937,5.3232383 4.72768275,5.95640327 4.33722222,6.34699132 C1.21377844,9.47145521 1.21432974,14.5363001 4.33845363,17.660084 C7.46257752,20.7838679 12.5274225,20.7838679 15.6515464,17.660084 C18.7756703,14.5363001 18.7762216,9.47145521 15.6527778,6.34699132 Z M9,1 C9,0.44771525 9.44771525,0 10,0 C10.5522847,0 11,0.44771525 11,1 L11,11 C11,11.5522847 10.5522847,12 10,12 C9.44771525,12 9,11.5522847 9,11 L9,1 Z"/> </symbol><symbol viewBox="0 0 24 20" id="prefs"><title>prefs</title> <path d="M19,15 L17,15 C16.4477153,15 16,14.5522847 16,14 C16,13.4477153 16.4477153,13 17,13 L23,13 C23.5522847,13 24,13.4477153 24,14 C24,14.5522847 23.5522847,15 23,15 L21,15 L21,19 C21,19.5522847 20.5522847,20 20,20 C19.4477153,20 19,19.5522847 19,19 L19,15 Z M11,5 L11,1 C11,0.44771525 11.4477153,0 12,0 C12.5522847,0 13,0.44771525 13,1 L13,5 L15,5 C15.5522847,5 16,5.44771525 16,6 C16,6.55228475 15.5522847,7 15,7 L9,7 C8.44771525,7 8,6.55228475 8,6 C8,5.44771525 8.44771525,5 9,5 L11,5 Z M3,13 L1,13 C0.44771525,13 0,12.5522847 0,12 C0,11.4477153 0.44771525,11 1,11 L7,11 C7.55228475,11 8,11.4477153 8,12 C8,12.5522847 7.55228475,13 7,13 L5,13 L5,19 C5,19.5522847 4.55228475,20 4,20 C3.44771525,20 3,19.5522847 3,19 L3,13 Z M5,8 C5,8.55228475 4.55228475,9 4,9 C3.44771525,9 3,8.55228475 3,8 L3,1 C3,0.44771525 3.44771525,0 4,0 C4.55228475,0 5,0.44771525 5,1 L5,8 Z M13,19 C13,19.5522847 12.5522847,20 12,20 C11.4477153,20 11,19.5522847 11,19 L11,10 C11,9.44771525 11.4477153,9 12,9 C12.5522847,9 13,9.44771525 13,10 L13,19 Z M21,10 C21,10.5522847 20.5522847,11 20,11 C19.4477153,11 19,10.5522847 19,10 L19,1 C19,0.44771525 19.4477153,0 20,0 C20.5522847,0 21,0.44771525 21,1 L21,10 Z"/> </symbol><symbol viewBox="0 0 24 24" id="search"><title>search</title> <path d="M10 1q1.828 0 3.496 0.715t2.871 1.918 1.918 2.871 0.715 3.496q0 1.57-0.512 3.008t-1.457 2.609l5.68 5.672q0.289 0.289 0.289 0.711 0 0.43-0.285 0.715t-0.715 0.285q-0.422 0-0.711-0.289l-5.672-5.68q-1.172 0.945-2.609 1.457t-3.008 0.512q-1.828 0-3.496-0.715t-2.871-1.918-1.918-2.871-0.715-3.496 0.715-3.496 1.918-2.871 2.871-1.918 3.496-0.715zM10 3q-1.422 0-2.719 0.555t-2.234 1.492-1.492 2.234-0.555 2.719 0.555 2.719 1.492 2.234 2.234 1.492 2.719 0.555 2.719-0.555 2.234-1.492 1.492-2.234 0.555-2.719-0.555-2.719-1.492-2.234-2.234-1.492-2.719-0.555z"/> </symbol></svg>